G04 #@! TF.GenerationSoftware,KiCad,Pcbnew,(5.0.0)*
G04 #@! TF.CreationDate,2019-05-02T23:43:43-07:00*
G04 #@! TF.ProjectId,SSB Cap Board - Rev2,5353422043617020426F617264202D20,rev?*
G04 #@! TF.SameCoordinates,Original*
G04 #@! TF.FileFunction,Copper,L1,Top,Signal*
G04 #@! TF.FilePolarity,Positive*
%FSLAX46Y46*%
G04 Gerber Fmt 4.6, Leading zero omitted, Abs format (unit mm)*
G04 Created by KiCad (PCBNEW (5.0.0)) date 05/02/19 23:43:43*
%MOMM*%
%LPD*%
G01*
G04 APERTURE LIST*
G04 #@! TA.AperFunction,SMDPad,CuDef*
%ADD10R,1.250000X5.000000*%
G04 #@! TD*
G04 #@! TA.AperFunction,ComponentPad*
%ADD11C,6.400000*%
G04 #@! TD*
G04 #@! TA.AperFunction,ComponentPad*
%ADD12C,0.800000*%
G04 #@! TD*
G04 #@! TA.AperFunction,ViaPad*
%ADD13C,0.889000*%
G04 #@! TD*
G04 #@! TA.AperFunction,Conductor*
%ADD14C,0.254000*%
G04 #@! TD*
G04 APERTURE END LIST*
D10*
G04 #@! TO.P,C284,1*
G04 #@! TO.N,/C1+*
X12905000Y92205000D03*
G04 #@! TO.P,C284,2*
G04 #@! TO.N,/C1-*
X18605000Y92205000D03*
G04 #@! TD*
G04 #@! TO.P,C292,1*
G04 #@! TO.N,/C1+*
X12905000Y86605000D03*
G04 #@! TO.P,C292,2*
G04 #@! TO.N,/C1-*
X18605000Y86605000D03*
G04 #@! TD*
G04 #@! TO.P,C399,1*
G04 #@! TO.N,/C1+*
X12905000Y97805000D03*
G04 #@! TO.P,C399,2*
G04 #@! TO.N,/C1-*
X18605000Y97805000D03*
G04 #@! TD*
G04 #@! TO.P,C504,2*
G04 #@! TO.N,/C2-*
X8795000Y8495000D03*
G04 #@! TO.P,C504,1*
G04 #@! TO.N,/C2+*
X14495000Y8495000D03*
G04 #@! TD*
G04 #@! TO.P,C456,2*
G04 #@! TO.N,/C2-*
X62105000Y58605000D03*
G04 #@! TO.P,C456,1*
G04 #@! TO.N,/C2+*
X56405000Y58605000D03*
G04 #@! TD*
G04 #@! TO.P,C462,2*
G04 #@! TO.N,/C2-*
X22395000Y8495000D03*
G04 #@! TO.P,C462,1*
G04 #@! TO.N,/C2+*
X28095000Y8495000D03*
G04 #@! TD*
G04 #@! TO.P,C517,2*
G04 #@! TO.N,/C2-*
X22395000Y2895000D03*
G04 #@! TO.P,C517,1*
G04 #@! TO.N,/C2+*
X28095000Y2895000D03*
G04 #@! TD*
G04 #@! TO.P,C477,2*
G04 #@! TO.N,/C2-*
X62105000Y2905000D03*
G04 #@! TO.P,C477,1*
G04 #@! TO.N,/C2+*
X56405000Y2905000D03*
G04 #@! TD*
G04 #@! TO.P,C479,2*
G04 #@! TO.N,/C2-*
X34905000Y-2695000D03*
G04 #@! TO.P,C479,1*
G04 #@! TO.N,/C2+*
X29205000Y-2695000D03*
G04 #@! TD*
G04 #@! TO.P,C578,2*
G04 #@! TO.N,/C2-*
X62105000Y8505000D03*
G04 #@! TO.P,C578,1*
G04 #@! TO.N,/C2+*
X56405000Y8505000D03*
G04 #@! TD*
G04 #@! TO.P,C577,1*
G04 #@! TO.N,/C2+*
X15505000Y-2695000D03*
G04 #@! TO.P,C577,2*
G04 #@! TO.N,/C2-*
X21205000Y-2695000D03*
G04 #@! TD*
G04 #@! TO.P,C576,2*
G04 #@! TO.N,/C2-*
X62105000Y-2695000D03*
G04 #@! TO.P,C576,1*
G04 #@! TO.N,/C2+*
X56405000Y-2695000D03*
G04 #@! TD*
G04 #@! TO.P,C570,2*
G04 #@! TO.N,/C2-*
X34905000Y2905000D03*
G04 #@! TO.P,C570,1*
G04 #@! TO.N,/C2+*
X29205000Y2905000D03*
G04 #@! TD*
G04 #@! TO.P,C568,2*
G04 #@! TO.N,/C2-*
X62105000Y14105000D03*
G04 #@! TO.P,C568,1*
G04 #@! TO.N,/C2+*
X56405000Y14105000D03*
G04 #@! TD*
G04 #@! TO.P,C567,1*
G04 #@! TO.N,/C2+*
X15505000Y2905000D03*
G04 #@! TO.P,C567,2*
G04 #@! TO.N,/C2-*
X21205000Y2905000D03*
G04 #@! TD*
G04 #@! TO.P,C566,2*
G04 #@! TO.N,/C2-*
X22395000Y14095000D03*
G04 #@! TO.P,C566,1*
G04 #@! TO.N,/C2+*
X28095000Y14095000D03*
G04 #@! TD*
G04 #@! TO.P,C573,2*
G04 #@! TO.N,/C2-*
X62105000Y53005000D03*
G04 #@! TO.P,C573,1*
G04 #@! TO.N,/C2+*
X56405000Y53005000D03*
G04 #@! TD*
G04 #@! TO.P,C597,2*
G04 #@! TO.N,/C2-*
X34905000Y8505000D03*
G04 #@! TO.P,C597,1*
G04 #@! TO.N,/C2+*
X29205000Y8505000D03*
G04 #@! TD*
G04 #@! TO.P,C596,1*
G04 #@! TO.N,/C2+*
X14495000Y14095000D03*
G04 #@! TO.P,C596,2*
G04 #@! TO.N,/C2-*
X8795000Y14095000D03*
G04 #@! TD*
G04 #@! TO.P,C595,2*
G04 #@! TO.N,/C2-*
X62105000Y19705000D03*
G04 #@! TO.P,C595,1*
G04 #@! TO.N,/C2+*
X56405000Y19705000D03*
G04 #@! TD*
G04 #@! TO.P,C594,1*
G04 #@! TO.N,/C2+*
X15505000Y8505000D03*
G04 #@! TO.P,C594,2*
G04 #@! TO.N,/C2-*
X21205000Y8505000D03*
G04 #@! TD*
G04 #@! TO.P,C593,2*
G04 #@! TO.N,/C2-*
X34905000Y14105000D03*
G04 #@! TO.P,C593,1*
G04 #@! TO.N,/C2+*
X29205000Y14105000D03*
G04 #@! TD*
G04 #@! TO.P,C588,2*
G04 #@! TO.N,/C2-*
X49595000Y92195000D03*
G04 #@! TO.P,C588,1*
G04 #@! TO.N,/C2+*
X55295000Y92195000D03*
G04 #@! TD*
G04 #@! TO.P,C585,1*
G04 #@! TO.N,/C2+*
X28095000Y-2705000D03*
G04 #@! TO.P,C585,2*
G04 #@! TO.N,/C2-*
X22395000Y-2705000D03*
G04 #@! TD*
G04 #@! TO.P,C584,2*
G04 #@! TO.N,/C2-*
X62105000Y25305000D03*
G04 #@! TO.P,C584,1*
G04 #@! TO.N,/C2+*
X56405000Y25305000D03*
G04 #@! TD*
G04 #@! TO.P,C583,1*
G04 #@! TO.N,/C2+*
X15505000Y14105000D03*
G04 #@! TO.P,C583,2*
G04 #@! TO.N,/C2-*
X21205000Y14105000D03*
G04 #@! TD*
G04 #@! TO.P,C591,2*
G04 #@! TO.N,/C2-*
X35995000Y25295000D03*
G04 #@! TO.P,C591,1*
G04 #@! TO.N,/C2+*
X41695000Y25295000D03*
G04 #@! TD*
G04 #@! TO.P,C590,2*
G04 #@! TO.N,/C2-*
X62105000Y64205000D03*
G04 #@! TO.P,C590,1*
G04 #@! TO.N,/C2+*
X56405000Y64205000D03*
G04 #@! TD*
G04 #@! TO.P,C542,2*
G04 #@! TO.N,/C2-*
X48505000Y69805000D03*
G04 #@! TO.P,C542,1*
G04 #@! TO.N,/C2+*
X42805000Y69805000D03*
G04 #@! TD*
G04 #@! TO.P,C540,2*
G04 #@! TO.N,/C2-*
X48505000Y30905000D03*
G04 #@! TO.P,C540,1*
G04 #@! TO.N,/C2+*
X42805000Y30905000D03*
G04 #@! TD*
G04 #@! TO.P,C537,1*
G04 #@! TO.N,/C2+*
X55295000Y25295000D03*
G04 #@! TO.P,C537,2*
G04 #@! TO.N,/C2-*
X49595000Y25295000D03*
G04 #@! TD*
G04 #@! TO.P,C536,2*
G04 #@! TO.N,/C2-*
X49595000Y30895000D03*
G04 #@! TO.P,C536,1*
G04 #@! TO.N,/C2+*
X55295000Y30895000D03*
G04 #@! TD*
G04 #@! TO.P,C534,2*
G04 #@! TO.N,/C2-*
X62105000Y69805000D03*
G04 #@! TO.P,C534,1*
G04 #@! TO.N,/C2+*
X56405000Y69805000D03*
G04 #@! TD*
G04 #@! TO.P,C532,2*
G04 #@! TO.N,/C2-*
X49595000Y80995000D03*
G04 #@! TO.P,C532,1*
G04 #@! TO.N,/C2+*
X55295000Y80995000D03*
G04 #@! TD*
G04 #@! TO.P,C530,2*
G04 #@! TO.N,/C2-*
X48505000Y47405000D03*
G04 #@! TO.P,C530,1*
G04 #@! TO.N,/C2+*
X42805000Y47405000D03*
G04 #@! TD*
G04 #@! TO.P,C528,2*
G04 #@! TO.N,/C2-*
X35995000Y97795000D03*
G04 #@! TO.P,C528,1*
G04 #@! TO.N,/C2+*
X41695000Y97795000D03*
G04 #@! TD*
G04 #@! TO.P,C527,1*
G04 #@! TO.N,/C2+*
X41695000Y19695000D03*
G04 #@! TO.P,C527,2*
G04 #@! TO.N,/C2-*
X35995000Y19695000D03*
G04 #@! TD*
G04 #@! TO.P,C564,2*
G04 #@! TO.N,/C2-*
X49595000Y19695000D03*
G04 #@! TO.P,C564,1*
G04 #@! TO.N,/C2+*
X55295000Y19695000D03*
G04 #@! TD*
G04 #@! TO.P,C535,1*
G04 #@! TO.N,/C2+*
X42805000Y-2695000D03*
G04 #@! TO.P,C535,2*
G04 #@! TO.N,/C2-*
X48505000Y-2695000D03*
G04 #@! TD*
G04 #@! TO.P,C562,2*
G04 #@! TO.N,/C2-*
X62105000Y75405000D03*
G04 #@! TO.P,C562,1*
G04 #@! TO.N,/C2+*
X56405000Y75405000D03*
G04 #@! TD*
G04 #@! TO.P,C560,2*
G04 #@! TO.N,/C2-*
X49595000Y75395000D03*
G04 #@! TO.P,C560,1*
G04 #@! TO.N,/C2+*
X55295000Y75395000D03*
G04 #@! TD*
G04 #@! TO.P,C558,2*
G04 #@! TO.N,/C2-*
X48505000Y53005000D03*
G04 #@! TO.P,C558,1*
G04 #@! TO.N,/C2+*
X42805000Y53005000D03*
G04 #@! TD*
G04 #@! TO.P,C556,2*
G04 #@! TO.N,/C2-*
X35995000Y103395000D03*
G04 #@! TO.P,C556,1*
G04 #@! TO.N,/C2+*
X41695000Y103395000D03*
G04 #@! TD*
G04 #@! TO.P,C592,1*
G04 #@! TO.N,/C2+*
X41695000Y14095000D03*
G04 #@! TO.P,C592,2*
G04 #@! TO.N,/C2-*
X35995000Y14095000D03*
G04 #@! TD*
G04 #@! TO.P,C544,2*
G04 #@! TO.N,/C2-*
X34905000Y103405000D03*
G04 #@! TO.P,C544,1*
G04 #@! TO.N,/C2+*
X29205000Y103405000D03*
G04 #@! TD*
G04 #@! TO.P,C553,1*
G04 #@! TO.N,/C2+*
X55295000Y14095000D03*
G04 #@! TO.P,C553,2*
G04 #@! TO.N,/C2-*
X49595000Y14095000D03*
G04 #@! TD*
G04 #@! TO.P,C552,2*
G04 #@! TO.N,/C2-*
X48505000Y2905000D03*
G04 #@! TO.P,C552,1*
G04 #@! TO.N,/C2+*
X42805000Y2905000D03*
G04 #@! TD*
G04 #@! TO.P,C551,1*
G04 #@! TO.N,/C2+*
X56405000Y81005000D03*
G04 #@! TO.P,C551,2*
G04 #@! TO.N,/C2-*
X62105000Y81005000D03*
G04 #@! TD*
G04 #@! TO.P,C550,2*
G04 #@! TO.N,/C2-*
X49595000Y69795000D03*
G04 #@! TO.P,C550,1*
G04 #@! TO.N,/C2+*
X55295000Y69795000D03*
G04 #@! TD*
G04 #@! TO.P,C548,2*
G04 #@! TO.N,/C2-*
X48505000Y58605000D03*
G04 #@! TO.P,C548,1*
G04 #@! TO.N,/C2+*
X42805000Y58605000D03*
G04 #@! TD*
G04 #@! TO.P,C546,2*
G04 #@! TO.N,/C2-*
X35995000Y92195000D03*
G04 #@! TO.P,C546,1*
G04 #@! TO.N,/C2+*
X41695000Y92195000D03*
G04 #@! TD*
G04 #@! TO.P,C545,1*
G04 #@! TO.N,/C2+*
X41695000Y8495000D03*
G04 #@! TO.P,C545,2*
G04 #@! TO.N,/C2-*
X35995000Y8495000D03*
G04 #@! TD*
G04 #@! TO.P,C554,2*
G04 #@! TO.N,/C2-*
X34905000Y41805000D03*
G04 #@! TO.P,C554,1*
G04 #@! TO.N,/C2+*
X29205000Y41805000D03*
G04 #@! TD*
G04 #@! TO.P,C432,1*
G04 #@! TO.N,/C2+*
X55295000Y8495000D03*
G04 #@! TO.P,C432,2*
G04 #@! TO.N,/C2-*
X49595000Y8495000D03*
G04 #@! TD*
G04 #@! TO.P,C599,2*
G04 #@! TO.N,/C2-*
X34905000Y97805000D03*
G04 #@! TO.P,C599,1*
G04 #@! TO.N,/C2+*
X29205000Y97805000D03*
G04 #@! TD*
G04 #@! TO.P,C429,1*
G04 #@! TO.N,/C2+*
X56405000Y86605000D03*
G04 #@! TO.P,C429,2*
G04 #@! TO.N,/C2-*
X62105000Y86605000D03*
G04 #@! TD*
G04 #@! TO.P,C428,2*
G04 #@! TO.N,/C2-*
X49595000Y64195000D03*
G04 #@! TO.P,C428,1*
G04 #@! TO.N,/C2+*
X55295000Y64195000D03*
G04 #@! TD*
G04 #@! TO.P,C427,1*
G04 #@! TO.N,/C2+*
X42805000Y64205000D03*
G04 #@! TO.P,C427,2*
G04 #@! TO.N,/C2-*
X48505000Y64205000D03*
G04 #@! TD*
G04 #@! TO.P,C425,1*
G04 #@! TO.N,/C2+*
X41695000Y86595000D03*
G04 #@! TO.P,C425,2*
G04 #@! TO.N,/C2-*
X35995000Y86595000D03*
G04 #@! TD*
G04 #@! TO.P,C415,2*
G04 #@! TO.N,/C2-*
X35995000Y2895000D03*
G04 #@! TO.P,C415,1*
G04 #@! TO.N,/C2+*
X41695000Y2895000D03*
G04 #@! TD*
G04 #@! TO.P,C450,1*
G04 #@! TO.N,/C2+*
X29205000Y47405000D03*
G04 #@! TO.P,C450,2*
G04 #@! TO.N,/C2-*
X34905000Y47405000D03*
G04 #@! TD*
G04 #@! TO.P,C422,2*
G04 #@! TO.N,/C2-*
X49595000Y2895000D03*
G04 #@! TO.P,C422,1*
G04 #@! TO.N,/C2+*
X55295000Y2895000D03*
G04 #@! TD*
G04 #@! TO.P,C413,1*
G04 #@! TO.N,/C2+*
X42805000Y14105000D03*
G04 #@! TO.P,C413,2*
G04 #@! TO.N,/C2-*
X48505000Y14105000D03*
G04 #@! TD*
G04 #@! TO.P,C420,2*
G04 #@! TO.N,/C2-*
X62105000Y92205000D03*
G04 #@! TO.P,C420,1*
G04 #@! TO.N,/C2+*
X56405000Y92205000D03*
G04 #@! TD*
G04 #@! TO.P,C419,1*
G04 #@! TO.N,/C2+*
X55295000Y58595000D03*
G04 #@! TO.P,C419,2*
G04 #@! TO.N,/C2-*
X49595000Y58595000D03*
G04 #@! TD*
G04 #@! TO.P,C418,2*
G04 #@! TO.N,/C2-*
X49595000Y86595000D03*
G04 #@! TO.P,C418,1*
G04 #@! TO.N,/C2+*
X55295000Y86595000D03*
G04 #@! TD*
G04 #@! TO.P,C417,1*
G04 #@! TO.N,/C2+*
X41695000Y80995000D03*
G04 #@! TO.P,C417,2*
G04 #@! TO.N,/C2-*
X35995000Y80995000D03*
G04 #@! TD*
G04 #@! TO.P,C416,2*
G04 #@! TO.N,/C2-*
X35995000Y-2705000D03*
G04 #@! TO.P,C416,1*
G04 #@! TO.N,/C2+*
X41695000Y-2705000D03*
G04 #@! TD*
G04 #@! TO.P,C424,1*
G04 #@! TO.N,/C2+*
X29205000Y53005000D03*
G04 #@! TO.P,C424,2*
G04 #@! TO.N,/C2-*
X34905000Y53005000D03*
G04 #@! TD*
G04 #@! TO.P,C423,2*
G04 #@! TO.N,/C2-*
X49595000Y-2705000D03*
G04 #@! TO.P,C423,1*
G04 #@! TO.N,/C2+*
X55295000Y-2705000D03*
G04 #@! TD*
G04 #@! TO.P,C421,1*
G04 #@! TO.N,/C2+*
X42805000Y19705000D03*
G04 #@! TO.P,C421,2*
G04 #@! TO.N,/C2-*
X48505000Y19705000D03*
G04 #@! TD*
G04 #@! TO.P,C447,2*
G04 #@! TO.N,/C2-*
X62105000Y97805000D03*
G04 #@! TO.P,C447,1*
G04 #@! TO.N,/C2+*
X56405000Y97805000D03*
G04 #@! TD*
G04 #@! TO.P,C446,1*
G04 #@! TO.N,/C2+*
X55295000Y52995000D03*
G04 #@! TO.P,C446,2*
G04 #@! TO.N,/C2-*
X49595000Y52995000D03*
G04 #@! TD*
G04 #@! TO.P,C445,2*
G04 #@! TO.N,/C2-*
X48505000Y75405000D03*
G04 #@! TO.P,C445,1*
G04 #@! TO.N,/C2+*
X42805000Y75405000D03*
G04 #@! TD*
G04 #@! TO.P,C444,1*
G04 #@! TO.N,/C2+*
X41695000Y75395000D03*
G04 #@! TO.P,C444,2*
G04 #@! TO.N,/C2-*
X35995000Y75395000D03*
G04 #@! TD*
G04 #@! TO.P,C433,2*
G04 #@! TO.N,/C2-*
X34905000Y58605000D03*
G04 #@! TO.P,C433,1*
G04 #@! TO.N,/C2+*
X29205000Y58605000D03*
G04 #@! TD*
G04 #@! TO.P,C442,1*
G04 #@! TO.N,/C2+*
X56405000Y30905000D03*
G04 #@! TO.P,C442,2*
G04 #@! TO.N,/C2-*
X62105000Y30905000D03*
G04 #@! TD*
G04 #@! TO.P,C555,2*
G04 #@! TO.N,/C2-*
X62105000Y103405000D03*
G04 #@! TO.P,C555,1*
G04 #@! TO.N,/C2+*
X56405000Y103405000D03*
G04 #@! TD*
G04 #@! TO.P,C430,1*
G04 #@! TO.N,/C2+*
X55295000Y97795000D03*
G04 #@! TO.P,C430,2*
G04 #@! TO.N,/C2-*
X49595000Y97795000D03*
G04 #@! TD*
G04 #@! TO.P,C439,2*
G04 #@! TO.N,/C2-*
X49595000Y47395000D03*
G04 #@! TO.P,C439,1*
G04 #@! TO.N,/C2+*
X55295000Y47395000D03*
G04 #@! TD*
G04 #@! TO.P,C438,1*
G04 #@! TO.N,/C2+*
X42805000Y81005000D03*
G04 #@! TO.P,C438,2*
G04 #@! TO.N,/C2-*
X48505000Y81005000D03*
G04 #@! TD*
G04 #@! TO.P,C437,2*
G04 #@! TO.N,/C2-*
X35995000Y69795000D03*
G04 #@! TO.P,C437,1*
G04 #@! TO.N,/C2+*
X41695000Y69795000D03*
G04 #@! TD*
G04 #@! TO.P,C436,1*
G04 #@! TO.N,/C2+*
X29205000Y64205000D03*
G04 #@! TO.P,C436,2*
G04 #@! TO.N,/C2-*
X34905000Y64205000D03*
G04 #@! TD*
G04 #@! TO.P,C435,2*
G04 #@! TO.N,/C2-*
X48505000Y25305000D03*
G04 #@! TO.P,C435,1*
G04 #@! TO.N,/C2+*
X42805000Y25305000D03*
G04 #@! TD*
G04 #@! TO.P,C434,1*
G04 #@! TO.N,/C2+*
X55295000Y103395000D03*
G04 #@! TO.P,C434,2*
G04 #@! TO.N,/C2-*
X49595000Y103395000D03*
G04 #@! TD*
G04 #@! TO.P,C443,2*
G04 #@! TO.N,/C2-*
X48505000Y97805000D03*
G04 #@! TO.P,C443,1*
G04 #@! TO.N,/C2+*
X42805000Y97805000D03*
G04 #@! TD*
G04 #@! TO.P,C441,1*
G04 #@! TO.N,/C2+*
X42805000Y86605000D03*
G04 #@! TO.P,C441,2*
G04 #@! TO.N,/C2-*
X48505000Y86605000D03*
G04 #@! TD*
G04 #@! TO.P,C431,2*
G04 #@! TO.N,/C2-*
X35995000Y64195000D03*
G04 #@! TO.P,C431,1*
G04 #@! TO.N,/C2+*
X41695000Y64195000D03*
G04 #@! TD*
G04 #@! TO.P,C440,1*
G04 #@! TO.N,/C2+*
X29205000Y69805000D03*
G04 #@! TO.P,C440,2*
G04 #@! TO.N,/C2-*
X34905000Y69805000D03*
G04 #@! TD*
G04 #@! TO.P,C451,2*
G04 #@! TO.N,/C2-*
X62105000Y47405000D03*
G04 #@! TO.P,C451,1*
G04 #@! TO.N,/C2+*
X56405000Y47405000D03*
G04 #@! TD*
G04 #@! TO.P,C448,1*
G04 #@! TO.N,/C2+*
X42805000Y92205000D03*
G04 #@! TO.P,C448,2*
G04 #@! TO.N,/C2-*
X48505000Y92205000D03*
G04 #@! TD*
G04 #@! TO.P,C411,2*
G04 #@! TO.N,/C2-*
X62105000Y41805000D03*
G04 #@! TO.P,C411,1*
G04 #@! TO.N,/C2+*
X56405000Y41805000D03*
G04 #@! TD*
G04 #@! TO.P,C410,1*
G04 #@! TO.N,/C2+*
X41695000Y58595000D03*
G04 #@! TO.P,C410,2*
G04 #@! TO.N,/C2-*
X35995000Y58595000D03*
G04 #@! TD*
G04 #@! TO.P,C409,2*
G04 #@! TO.N,/C2-*
X34905000Y75405000D03*
G04 #@! TO.P,C409,1*
G04 #@! TO.N,/C2+*
X29205000Y75405000D03*
G04 #@! TD*
G04 #@! TO.P,C408,1*
G04 #@! TO.N,/C2+*
X42805000Y103405000D03*
G04 #@! TO.P,C408,2*
G04 #@! TO.N,/C2-*
X48505000Y103405000D03*
G04 #@! TD*
G04 #@! TO.P,C407,2*
G04 #@! TO.N,/C2-*
X49595000Y41795000D03*
G04 #@! TO.P,C407,1*
G04 #@! TO.N,/C2+*
X55295000Y41795000D03*
G04 #@! TD*
G04 #@! TO.P,C406,1*
G04 #@! TO.N,/C2+*
X41695000Y52995000D03*
G04 #@! TO.P,C406,2*
G04 #@! TO.N,/C2-*
X35995000Y52995000D03*
G04 #@! TD*
G04 #@! TO.P,C404,2*
G04 #@! TO.N,/C2-*
X34905000Y81005000D03*
G04 #@! TO.P,C404,1*
G04 #@! TO.N,/C2+*
X29205000Y81005000D03*
G04 #@! TD*
G04 #@! TO.P,C403,1*
G04 #@! TO.N,/C2+*
X42805000Y41805000D03*
G04 #@! TO.P,C403,2*
G04 #@! TO.N,/C2-*
X48505000Y41805000D03*
G04 #@! TD*
G04 #@! TO.P,C402,2*
G04 #@! TO.N,/C2-*
X35995000Y47395000D03*
G04 #@! TO.P,C402,1*
G04 #@! TO.N,/C2+*
X41695000Y47395000D03*
G04 #@! TD*
G04 #@! TO.P,C401,1*
G04 #@! TO.N,/C2+*
X29205000Y86605000D03*
G04 #@! TO.P,C401,2*
G04 #@! TO.N,/C2-*
X34905000Y86605000D03*
G04 #@! TD*
G04 #@! TO.P,C414,2*
G04 #@! TO.N,/C2-*
X35995000Y41795000D03*
G04 #@! TO.P,C414,1*
G04 #@! TO.N,/C2+*
X41695000Y41795000D03*
G04 #@! TD*
G04 #@! TO.P,C412,1*
G04 #@! TO.N,/C2+*
X29205000Y92205000D03*
G04 #@! TO.P,C412,2*
G04 #@! TO.N,/C2-*
X34905000Y92205000D03*
G04 #@! TD*
G04 #@! TO.P,C405,2*
G04 #@! TO.N,/C2-*
X48505000Y8505000D03*
G04 #@! TO.P,C405,1*
G04 #@! TO.N,/C2+*
X42805000Y8505000D03*
G04 #@! TD*
G04 #@! TO.P,C291,2*
G04 #@! TO.N,/C1-*
X18605000Y81005000D03*
G04 #@! TO.P,C291,1*
G04 #@! TO.N,/C1+*
X12905000Y81005000D03*
G04 #@! TD*
G04 #@! TO.P,C237,1*
G04 #@! TO.N,/C1+*
X12905000Y75405000D03*
G04 #@! TO.P,C237,2*
G04 #@! TO.N,/C1-*
X18605000Y75405000D03*
G04 #@! TD*
G04 #@! TO.P,C52,1*
G04 #@! TO.N,/C1+*
X12905000Y53005000D03*
G04 #@! TO.P,C52,2*
G04 #@! TO.N,/C1-*
X18605000Y53005000D03*
G04 #@! TD*
G04 #@! TO.P,C97,1*
G04 #@! TO.N,/C1+*
X12905000Y47405000D03*
G04 #@! TO.P,C97,2*
G04 #@! TO.N,/C1-*
X18605000Y47405000D03*
G04 #@! TD*
G04 #@! TO.P,C21,1*
G04 #@! TO.N,/C1+*
X12905000Y41805000D03*
G04 #@! TO.P,C21,2*
G04 #@! TO.N,/C1-*
X18605000Y41805000D03*
G04 #@! TD*
G04 #@! TO.P,C120,1*
G04 #@! TO.N,/C1+*
X12905000Y69805000D03*
G04 #@! TO.P,C120,2*
G04 #@! TO.N,/C1-*
X18605000Y69805000D03*
G04 #@! TD*
G04 #@! TO.P,C303,2*
G04 #@! TO.N,/C1-*
X18605000Y58605000D03*
G04 #@! TO.P,C303,1*
G04 #@! TO.N,/C1+*
X12905000Y58605000D03*
G04 #@! TD*
G04 #@! TO.P,C394,1*
G04 #@! TO.N,/C1+*
X12905000Y64205000D03*
G04 #@! TO.P,C394,2*
G04 #@! TO.N,/C1-*
X18605000Y64205000D03*
G04 #@! TD*
G04 #@! TO.P,C343,1*
G04 #@! TO.N,/C1+*
X-42805000Y31795000D03*
G04 #@! TO.P,C343,2*
G04 #@! TO.N,/C1-*
X-48505000Y31795000D03*
G04 #@! TD*
G04 #@! TO.P,C1,1*
G04 #@! TO.N,/C1+*
X-42805000Y52995000D03*
G04 #@! TO.P,C1,2*
G04 #@! TO.N,/C1-*
X-48505000Y52995000D03*
G04 #@! TD*
G04 #@! TO.P,C273,1*
G04 #@! TO.N,/C1+*
X-55295000Y9405000D03*
G04 #@! TO.P,C273,2*
G04 #@! TO.N,/C1-*
X-49595000Y9405000D03*
G04 #@! TD*
G04 #@! TO.P,C264,1*
G04 #@! TO.N,/C1+*
X-14495000Y3805000D03*
G04 #@! TO.P,C264,2*
G04 #@! TO.N,/C1-*
X-8795000Y3805000D03*
G04 #@! TD*
G04 #@! TO.P,C262,1*
G04 #@! TO.N,/C1+*
X-56405000Y26195000D03*
G04 #@! TO.P,C262,2*
G04 #@! TO.N,/C1-*
X-62105000Y26195000D03*
G04 #@! TD*
G04 #@! TO.P,C261,1*
G04 #@! TO.N,/C1+*
X-55295000Y-1795000D03*
G04 #@! TO.P,C261,2*
G04 #@! TO.N,/C1-*
X-49595000Y-1795000D03*
G04 #@! TD*
G04 #@! TO.P,C260,1*
G04 #@! TO.N,/C1+*
X-29205000Y9395000D03*
G04 #@! TO.P,C260,2*
G04 #@! TO.N,/C1-*
X-34905000Y9395000D03*
G04 #@! TD*
G04 #@! TO.P,C259,1*
G04 #@! TO.N,/C1+*
X-42705000Y14995000D03*
G04 #@! TO.P,C259,2*
G04 #@! TO.N,/C1-*
X-48405000Y14995000D03*
G04 #@! TD*
G04 #@! TO.P,C258,1*
G04 #@! TO.N,/C1+*
X-41695000Y20605000D03*
G04 #@! TO.P,C258,2*
G04 #@! TO.N,/C1-*
X-35995000Y20605000D03*
G04 #@! TD*
G04 #@! TO.P,C257,1*
G04 #@! TO.N,/C1+*
X-28095000Y-1795000D03*
G04 #@! TO.P,C257,2*
G04 #@! TO.N,/C1-*
X-22395000Y-1795000D03*
G04 #@! TD*
G04 #@! TO.P,C314,1*
G04 #@! TO.N,/C1+*
X-56405000Y20595000D03*
G04 #@! TO.P,C314,2*
G04 #@! TO.N,/C1-*
X-62105000Y20595000D03*
G04 #@! TD*
G04 #@! TO.P,C266,1*
G04 #@! TO.N,/C1+*
X-55295000Y3805000D03*
G04 #@! TO.P,C266,2*
G04 #@! TO.N,/C1-*
X-49595000Y3805000D03*
G04 #@! TD*
G04 #@! TO.P,C265,1*
G04 #@! TO.N,/C1+*
X-29205000Y3795000D03*
G04 #@! TO.P,C265,2*
G04 #@! TO.N,/C1-*
X-34905000Y3795000D03*
G04 #@! TD*
G04 #@! TO.P,C311,1*
G04 #@! TO.N,/C1+*
X-42705000Y9395000D03*
G04 #@! TO.P,C311,2*
G04 #@! TO.N,/C1-*
X-48405000Y9395000D03*
G04 #@! TD*
G04 #@! TO.P,C310,1*
G04 #@! TO.N,/C1+*
X-41695000Y26205000D03*
G04 #@! TO.P,C310,2*
G04 #@! TO.N,/C1-*
X-35995000Y26205000D03*
G04 #@! TD*
G04 #@! TO.P,C309,1*
G04 #@! TO.N,/C1+*
X-28095000Y3805000D03*
G04 #@! TO.P,C309,2*
G04 #@! TO.N,/C1-*
X-22395000Y3805000D03*
G04 #@! TD*
G04 #@! TO.P,C308,1*
G04 #@! TO.N,/C1+*
X-56405000Y86595000D03*
G04 #@! TO.P,C308,2*
G04 #@! TO.N,/C1-*
X-62105000Y86595000D03*
G04 #@! TD*
G04 #@! TO.P,C304,1*
G04 #@! TO.N,/C1+*
X-56405000Y14995000D03*
G04 #@! TO.P,C304,2*
G04 #@! TO.N,/C1-*
X-62105000Y14995000D03*
G04 #@! TD*
G04 #@! TO.P,C302,1*
G04 #@! TO.N,/C1+*
X-29205000Y-1805000D03*
G04 #@! TO.P,C302,2*
G04 #@! TO.N,/C1-*
X-34905000Y-1805000D03*
G04 #@! TD*
G04 #@! TO.P,C301,1*
G04 #@! TO.N,/C1+*
X-42705000Y3795000D03*
G04 #@! TO.P,C301,2*
G04 #@! TO.N,/C1-*
X-48405000Y3795000D03*
G04 #@! TD*
G04 #@! TO.P,C283,1*
G04 #@! TO.N,/C1+*
X-41695000Y-1795000D03*
G04 #@! TO.P,C283,2*
G04 #@! TO.N,/C1-*
X-35995000Y-1795000D03*
G04 #@! TD*
G04 #@! TO.P,C282,1*
G04 #@! TO.N,/C1+*
X-56405000Y80995000D03*
G04 #@! TO.P,C282,2*
G04 #@! TO.N,/C1-*
X-62105000Y80995000D03*
G04 #@! TD*
G04 #@! TO.P,C295,1*
G04 #@! TO.N,/C1+*
X-56405000Y9395000D03*
G04 #@! TO.P,C295,2*
G04 #@! TO.N,/C1-*
X-62105000Y9395000D03*
G04 #@! TD*
G04 #@! TO.P,C294,1*
G04 #@! TO.N,/C1+*
X-55295000Y15005000D03*
G04 #@! TO.P,C294,2*
G04 #@! TO.N,/C1-*
X-49595000Y15005000D03*
G04 #@! TD*
G04 #@! TO.P,C293,1*
G04 #@! TO.N,/C1+*
X-28095000Y9405000D03*
G04 #@! TO.P,C293,2*
G04 #@! TO.N,/C1-*
X-22395000Y9405000D03*
G04 #@! TD*
G04 #@! TO.P,C289,1*
G04 #@! TO.N,/C1+*
X-56405000Y75395000D03*
G04 #@! TO.P,C289,2*
G04 #@! TO.N,/C1-*
X-62105000Y75395000D03*
G04 #@! TD*
G04 #@! TO.P,C287,1*
G04 #@! TO.N,/C1+*
X-56405000Y3795000D03*
G04 #@! TO.P,C287,2*
G04 #@! TO.N,/C1-*
X-62105000Y3795000D03*
G04 #@! TD*
G04 #@! TO.P,C286,1*
G04 #@! TO.N,/C1+*
X-55295000Y20605000D03*
G04 #@! TO.P,C286,2*
G04 #@! TO.N,/C1-*
X-49595000Y20605000D03*
G04 #@! TD*
G04 #@! TO.P,C285,1*
G04 #@! TO.N,/C1+*
X-28095000Y15105000D03*
G04 #@! TO.P,C285,2*
G04 #@! TO.N,/C1-*
X-22395000Y15105000D03*
G04 #@! TD*
G04 #@! TO.P,C299,1*
G04 #@! TO.N,/C1+*
X-14495000Y9405000D03*
G04 #@! TO.P,C299,2*
G04 #@! TO.N,/C1-*
X-8795000Y9405000D03*
G04 #@! TD*
G04 #@! TO.P,C298,1*
G04 #@! TO.N,/C1+*
X-795000Y3805000D03*
G04 #@! TO.P,C298,2*
G04 #@! TO.N,/C1-*
X4905000Y3805000D03*
G04 #@! TD*
G04 #@! TO.P,C281,1*
G04 #@! TO.N,/C1+*
X-56405000Y69795000D03*
G04 #@! TO.P,C281,2*
G04 #@! TO.N,/C1-*
X-62105000Y69795000D03*
G04 #@! TD*
G04 #@! TO.P,C296,1*
G04 #@! TO.N,/C1+*
X-56405000Y-1805000D03*
G04 #@! TO.P,C296,2*
G04 #@! TO.N,/C1-*
X-62105000Y-1805000D03*
G04 #@! TD*
G04 #@! TO.P,C377,1*
G04 #@! TO.N,/C1+*
X-55295000Y26205000D03*
G04 #@! TO.P,C377,2*
G04 #@! TO.N,/C1-*
X-49595000Y26205000D03*
G04 #@! TD*
G04 #@! TO.P,C398,1*
G04 #@! TO.N,/C1+*
X-14495000Y15005000D03*
G04 #@! TO.P,C398,2*
G04 #@! TO.N,/C1-*
X-8795000Y15005000D03*
G04 #@! TD*
G04 #@! TO.P,C397,1*
G04 #@! TO.N,/C1+*
X-795000Y9405000D03*
G04 #@! TO.P,C397,2*
G04 #@! TO.N,/C1-*
X4905000Y9405000D03*
G04 #@! TD*
G04 #@! TO.P,C396,1*
G04 #@! TO.N,/C1+*
X-56405000Y64195000D03*
G04 #@! TO.P,C396,2*
G04 #@! TO.N,/C1-*
X-62105000Y64195000D03*
G04 #@! TD*
G04 #@! TO.P,C395,1*
G04 #@! TO.N,/C1+*
X-55295000Y31805000D03*
G04 #@! TO.P,C395,2*
G04 #@! TO.N,/C1-*
X-49595000Y31805000D03*
G04 #@! TD*
G04 #@! TO.P,C390,1*
G04 #@! TO.N,/C1+*
X-15605000Y14995000D03*
G04 #@! TO.P,C390,2*
G04 #@! TO.N,/C1-*
X-21305000Y14995000D03*
G04 #@! TD*
G04 #@! TO.P,C389,1*
G04 #@! TO.N,/C1+*
X-14495000Y20605000D03*
G04 #@! TO.P,C389,2*
G04 #@! TO.N,/C1-*
X-8795000Y20605000D03*
G04 #@! TD*
G04 #@! TO.P,C388,1*
G04 #@! TO.N,/C1+*
X-795000Y15005000D03*
G04 #@! TO.P,C388,2*
G04 #@! TO.N,/C1-*
X4905000Y15005000D03*
G04 #@! TD*
G04 #@! TO.P,C387,1*
G04 #@! TO.N,/C1+*
X-56405000Y58595000D03*
G04 #@! TO.P,C387,2*
G04 #@! TO.N,/C1-*
X-62105000Y58595000D03*
G04 #@! TD*
G04 #@! TO.P,C386,1*
G04 #@! TO.N,/C1+*
X12905000Y103405000D03*
G04 #@! TO.P,C386,2*
G04 #@! TO.N,/C1-*
X18605000Y103405000D03*
G04 #@! TD*
G04 #@! TO.P,C385,1*
G04 #@! TO.N,/C1+*
X-15605000Y9395000D03*
G04 #@! TO.P,C385,2*
G04 #@! TO.N,/C1-*
X-21305000Y9395000D03*
G04 #@! TD*
G04 #@! TO.P,C384,1*
G04 #@! TO.N,/C1+*
X-14495000Y26205000D03*
G04 #@! TO.P,C384,2*
G04 #@! TO.N,/C1-*
X-8795000Y26205000D03*
G04 #@! TD*
G04 #@! TO.P,C383,1*
G04 #@! TO.N,/C1+*
X-795000Y20605000D03*
G04 #@! TO.P,C383,2*
G04 #@! TO.N,/C1-*
X4905000Y20605000D03*
G04 #@! TD*
G04 #@! TO.P,C382,1*
G04 #@! TO.N,/C1+*
X-56405000Y52995000D03*
G04 #@! TO.P,C382,2*
G04 #@! TO.N,/C1-*
X-62105000Y52995000D03*
G04 #@! TD*
G04 #@! TO.P,C381,1*
G04 #@! TO.N,/C1+*
X-15605000Y3795000D03*
G04 #@! TO.P,C381,2*
G04 #@! TO.N,/C1-*
X-21305000Y3795000D03*
G04 #@! TD*
G04 #@! TO.P,C380,1*
G04 #@! TO.N,/C1+*
X-14495000Y31805000D03*
G04 #@! TO.P,C380,2*
G04 #@! TO.N,/C1-*
X-8795000Y31805000D03*
G04 #@! TD*
G04 #@! TO.P,C379,1*
G04 #@! TO.N,/C1+*
X-795000Y26205000D03*
G04 #@! TO.P,C379,2*
G04 #@! TO.N,/C1-*
X4905000Y26205000D03*
G04 #@! TD*
G04 #@! TO.P,C378,1*
G04 #@! TO.N,/C1+*
X-56405000Y47395000D03*
G04 #@! TO.P,C378,2*
G04 #@! TO.N,/C1-*
X-62105000Y47395000D03*
G04 #@! TD*
G04 #@! TO.P,C392,1*
G04 #@! TO.N,/C1+*
X-795000Y31805000D03*
G04 #@! TO.P,C392,2*
G04 #@! TO.N,/C1-*
X4905000Y31805000D03*
G04 #@! TD*
G04 #@! TO.P,C93,1*
G04 #@! TO.N,/C1+*
X-29205000Y58595000D03*
G04 #@! TO.P,C93,2*
G04 #@! TO.N,/C1-*
X-34905000Y58595000D03*
G04 #@! TD*
G04 #@! TO.P,C92,1*
G04 #@! TO.N,/C1+*
X-41595000Y92205000D03*
G04 #@! TO.P,C92,2*
G04 #@! TO.N,/C1-*
X-35895000Y92205000D03*
G04 #@! TD*
G04 #@! TO.P,C91,1*
G04 #@! TO.N,/C1+*
X-42805000Y47395000D03*
G04 #@! TO.P,C91,2*
G04 #@! TO.N,/C1-*
X-48505000Y47395000D03*
G04 #@! TD*
G04 #@! TO.P,C90,1*
G04 #@! TO.N,/C1+*
X-55295000Y103405000D03*
G04 #@! TO.P,C90,2*
G04 #@! TO.N,/C1-*
X-49595000Y103405000D03*
G04 #@! TD*
G04 #@! TO.P,C89,1*
G04 #@! TO.N,/C1+*
X-28095000Y47405000D03*
G04 #@! TO.P,C89,2*
G04 #@! TO.N,/C1-*
X-22395000Y47405000D03*
G04 #@! TD*
G04 #@! TO.P,C88,1*
G04 #@! TO.N,/C1+*
X-15605000Y92195000D03*
G04 #@! TO.P,C88,2*
G04 #@! TO.N,/C1-*
X-21305000Y92195000D03*
G04 #@! TD*
G04 #@! TO.P,C87,1*
G04 #@! TO.N,/C1+*
X-14495000Y58605000D03*
G04 #@! TO.P,C87,2*
G04 #@! TO.N,/C1-*
X-8795000Y58605000D03*
G04 #@! TD*
G04 #@! TO.P,C86,1*
G04 #@! TO.N,/C1+*
X-1905000Y80995000D03*
G04 #@! TO.P,C86,2*
G04 #@! TO.N,/C1-*
X-7605000Y80995000D03*
G04 #@! TD*
G04 #@! TO.P,C85,1*
G04 #@! TO.N,/C1+*
X-795000Y69805000D03*
G04 #@! TO.P,C85,2*
G04 #@! TO.N,/C1-*
X4905000Y69805000D03*
G04 #@! TD*
G04 #@! TO.P,C84,1*
G04 #@! TO.N,/C1+*
X11795000Y69795000D03*
G04 #@! TO.P,C84,2*
G04 #@! TO.N,/C1-*
X6095000Y69795000D03*
G04 #@! TD*
G04 #@! TO.P,C83,1*
G04 #@! TO.N,/C1+*
X-29205000Y64195000D03*
G04 #@! TO.P,C83,2*
G04 #@! TO.N,/C1-*
X-34905000Y64195000D03*
G04 #@! TD*
G04 #@! TO.P,C82,1*
G04 #@! TO.N,/C1+*
X-41595000Y86605000D03*
G04 #@! TO.P,C82,2*
G04 #@! TO.N,/C1-*
X-35895000Y86605000D03*
G04 #@! TD*
G04 #@! TO.P,C81,1*
G04 #@! TO.N,/C1+*
X-41595000Y81005000D03*
G04 #@! TO.P,C81,2*
G04 #@! TO.N,/C1-*
X-35895000Y81005000D03*
G04 #@! TD*
G04 #@! TO.P,C80,1*
G04 #@! TO.N,/C1+*
X11795000Y64195000D03*
G04 #@! TO.P,C80,2*
G04 #@! TO.N,/C1-*
X6095000Y64195000D03*
G04 #@! TD*
G04 #@! TO.P,C251,1*
G04 #@! TO.N,/C1+*
X-41695000Y3805000D03*
G04 #@! TO.P,C251,2*
G04 #@! TO.N,/C1-*
X-35995000Y3805000D03*
G04 #@! TD*
G04 #@! TO.P,C78,1*
G04 #@! TO.N,/C1+*
X-29205000Y69795000D03*
G04 #@! TO.P,C78,2*
G04 #@! TO.N,/C1-*
X-34905000Y69795000D03*
G04 #@! TD*
G04 #@! TO.P,C77,1*
G04 #@! TO.N,/C1+*
X11795000Y75395000D03*
G04 #@! TO.P,C77,2*
G04 #@! TO.N,/C1-*
X6095000Y75395000D03*
G04 #@! TD*
G04 #@! TO.P,C76,1*
G04 #@! TO.N,/C1+*
X-795000Y64205000D03*
G04 #@! TO.P,C76,2*
G04 #@! TO.N,/C1-*
X4905000Y64205000D03*
G04 #@! TD*
G04 #@! TO.P,C75,1*
G04 #@! TO.N,/C1+*
X-42805000Y58595000D03*
G04 #@! TO.P,C75,2*
G04 #@! TO.N,/C1-*
X-48505000Y58595000D03*
G04 #@! TD*
G04 #@! TO.P,C74,1*
G04 #@! TO.N,/C1+*
X-1905000Y86595000D03*
G04 #@! TO.P,C74,2*
G04 #@! TO.N,/C1-*
X-7605000Y86595000D03*
G04 #@! TD*
G04 #@! TO.P,C73,1*
G04 #@! TO.N,/C1+*
X-14495000Y53005000D03*
G04 #@! TO.P,C73,2*
G04 #@! TO.N,/C1-*
X-8795000Y53005000D03*
G04 #@! TD*
G04 #@! TO.P,C72,1*
G04 #@! TO.N,/C1+*
X-15605000Y97795000D03*
G04 #@! TO.P,C72,2*
G04 #@! TO.N,/C1-*
X-21305000Y97795000D03*
G04 #@! TD*
G04 #@! TO.P,C71,1*
G04 #@! TO.N,/C1+*
X-1905000Y3795000D03*
G04 #@! TO.P,C71,2*
G04 #@! TO.N,/C1-*
X-7605000Y3795000D03*
G04 #@! TD*
G04 #@! TO.P,C70,1*
G04 #@! TO.N,/C1+*
X-55295000Y97805000D03*
G04 #@! TO.P,C70,2*
G04 #@! TO.N,/C1-*
X-49595000Y97805000D03*
G04 #@! TD*
G04 #@! TO.P,C68,1*
G04 #@! TO.N,/C1+*
X-28095000Y41805000D03*
G04 #@! TO.P,C68,2*
G04 #@! TO.N,/C1-*
X-22395000Y41805000D03*
G04 #@! TD*
G04 #@! TO.P,C252,1*
G04 #@! TO.N,/C1+*
X-56405000Y41795000D03*
G04 #@! TO.P,C252,2*
G04 #@! TO.N,/C1-*
X-62105000Y41795000D03*
G04 #@! TD*
G04 #@! TO.P,C119,1*
G04 #@! TO.N,/C1+*
X-56405000Y103395000D03*
G04 #@! TO.P,C119,2*
G04 #@! TO.N,/C1-*
X-62105000Y103395000D03*
G04 #@! TD*
G04 #@! TO.P,C118,1*
G04 #@! TO.N,/C1+*
X-55295000Y69805000D03*
G04 #@! TO.P,C118,2*
G04 #@! TO.N,/C1-*
X-49595000Y69805000D03*
G04 #@! TD*
G04 #@! TO.P,C108,1*
G04 #@! TO.N,/C1+*
X-1905000Y31795000D03*
G04 #@! TO.P,C108,2*
G04 #@! TO.N,/C1-*
X-7605000Y31795000D03*
G04 #@! TD*
G04 #@! TO.P,C106,1*
G04 #@! TO.N,/C1+*
X-42805000Y103395000D03*
G04 #@! TO.P,C106,2*
G04 #@! TO.N,/C1-*
X-48505000Y103395000D03*
G04 #@! TD*
G04 #@! TO.P,C105,1*
G04 #@! TO.N,/C1+*
X-56405000Y92195000D03*
G04 #@! TO.P,C105,2*
G04 #@! TO.N,/C1-*
X-62105000Y92195000D03*
G04 #@! TD*
G04 #@! TO.P,C96,1*
G04 #@! TO.N,/C1+*
X-42805000Y97795000D03*
G04 #@! TO.P,C96,2*
G04 #@! TO.N,/C1-*
X-48505000Y97795000D03*
G04 #@! TD*
G04 #@! TO.P,C95,1*
G04 #@! TO.N,/C1+*
X-55295000Y47405000D03*
G04 #@! TO.P,C95,2*
G04 #@! TO.N,/C1-*
X-49595000Y47405000D03*
G04 #@! TD*
G04 #@! TO.P,C22,1*
G04 #@! TO.N,/C1+*
X-55295000Y53005000D03*
G04 #@! TO.P,C22,2*
G04 #@! TO.N,/C1-*
X-49595000Y53005000D03*
G04 #@! TD*
G04 #@! TO.P,C16,1*
G04 #@! TO.N,/C1+*
X-55295000Y58605000D03*
G04 #@! TO.P,C16,2*
G04 #@! TO.N,/C1-*
X-49595000Y58605000D03*
G04 #@! TD*
G04 #@! TO.P,C62,1*
G04 #@! TO.N,/C1+*
X-42805000Y92195000D03*
G04 #@! TO.P,C62,2*
G04 #@! TO.N,/C1-*
X-48505000Y92195000D03*
G04 #@! TD*
G04 #@! TO.P,C2,1*
G04 #@! TO.N,/C1+*
X-41695000Y47405000D03*
G04 #@! TO.P,C2,2*
G04 #@! TO.N,/C1-*
X-35995000Y47405000D03*
G04 #@! TD*
G04 #@! TO.P,C3,1*
G04 #@! TO.N,/C1+*
X11795000Y103395000D03*
G04 #@! TO.P,C3,2*
G04 #@! TO.N,/C1-*
X6095000Y103395000D03*
G04 #@! TD*
G04 #@! TO.P,C4,1*
G04 #@! TO.N,/C1+*
X-29205000Y103395000D03*
G04 #@! TO.P,C4,2*
G04 #@! TO.N,/C1-*
X-34905000Y103395000D03*
G04 #@! TD*
G04 #@! TO.P,C10,1*
G04 #@! TO.N,/C1+*
X-15605000Y-1805000D03*
G04 #@! TO.P,C10,2*
G04 #@! TO.N,/C1-*
X-21305000Y-1805000D03*
G04 #@! TD*
G04 #@! TO.P,C11,1*
G04 #@! TO.N,/C1+*
X-55295000Y64205000D03*
G04 #@! TO.P,C11,2*
G04 #@! TO.N,/C1-*
X-49595000Y64205000D03*
G04 #@! TD*
G04 #@! TO.P,C12,1*
G04 #@! TO.N,/C1+*
X-42805000Y86595000D03*
G04 #@! TO.P,C12,2*
G04 #@! TO.N,/C1-*
X-48505000Y86595000D03*
G04 #@! TD*
G04 #@! TO.P,C13,1*
G04 #@! TO.N,/C1+*
X-41695000Y53005000D03*
G04 #@! TO.P,C13,2*
G04 #@! TO.N,/C1-*
X-35995000Y53005000D03*
G04 #@! TD*
G04 #@! TO.P,C14,1*
G04 #@! TO.N,/C1+*
X-29205000Y97795000D03*
G04 #@! TO.P,C14,2*
G04 #@! TO.N,/C1-*
X-34905000Y97795000D03*
G04 #@! TD*
G04 #@! TO.P,C15,1*
G04 #@! TO.N,/C1+*
X-55295000Y75405000D03*
G04 #@! TO.P,C15,2*
G04 #@! TO.N,/C1-*
X-49595000Y75405000D03*
G04 #@! TD*
G04 #@! TO.P,C31,1*
G04 #@! TO.N,/C1+*
X-42805000Y80995000D03*
G04 #@! TO.P,C31,2*
G04 #@! TO.N,/C1-*
X-48505000Y80995000D03*
G04 #@! TD*
G04 #@! TO.P,C61,1*
G04 #@! TO.N,/C1+*
X-41695000Y58605000D03*
G04 #@! TO.P,C61,2*
G04 #@! TO.N,/C1-*
X-35995000Y58605000D03*
G04 #@! TD*
G04 #@! TO.P,C60,1*
G04 #@! TO.N,/C1+*
X-29205000Y92195000D03*
G04 #@! TO.P,C60,2*
G04 #@! TO.N,/C1-*
X-34905000Y92195000D03*
G04 #@! TD*
G04 #@! TO.P,C59,1*
G04 #@! TO.N,/C1+*
X11795000Y97795000D03*
G04 #@! TO.P,C59,2*
G04 #@! TO.N,/C1-*
X6095000Y97795000D03*
G04 #@! TD*
G04 #@! TO.P,C53,1*
G04 #@! TO.N,/C1+*
X-1905000Y26195000D03*
G04 #@! TO.P,C53,2*
G04 #@! TO.N,/C1-*
X-7605000Y26195000D03*
G04 #@! TD*
G04 #@! TO.P,C51,1*
G04 #@! TO.N,/C1+*
X-42805000Y75395000D03*
G04 #@! TO.P,C51,2*
G04 #@! TO.N,/C1-*
X-48505000Y75395000D03*
G04 #@! TD*
G04 #@! TO.P,C50,1*
G04 #@! TO.N,/C1+*
X-41695000Y64205000D03*
G04 #@! TO.P,C50,2*
G04 #@! TO.N,/C1-*
X-35995000Y64205000D03*
G04 #@! TD*
G04 #@! TO.P,C49,1*
G04 #@! TO.N,/C1+*
X-29205000Y86595000D03*
G04 #@! TO.P,C49,2*
G04 #@! TO.N,/C1-*
X-34905000Y86595000D03*
G04 #@! TD*
G04 #@! TO.P,C63,1*
G04 #@! TO.N,/C1+*
X11795000Y92195000D03*
G04 #@! TO.P,C63,2*
G04 #@! TO.N,/C1-*
X6095000Y92195000D03*
G04 #@! TD*
G04 #@! TO.P,C47,1*
G04 #@! TO.N,/C1+*
X-795000Y47405000D03*
G04 #@! TO.P,C47,2*
G04 #@! TO.N,/C1-*
X4905000Y47405000D03*
G04 #@! TD*
G04 #@! TO.P,C45,1*
G04 #@! TO.N,/C1+*
X-1905000Y103395000D03*
G04 #@! TO.P,C45,2*
G04 #@! TO.N,/C1-*
X-7605000Y103395000D03*
G04 #@! TD*
G04 #@! TO.P,C44,1*
G04 #@! TO.N,/C1+*
X-795000Y41805000D03*
G04 #@! TO.P,C44,2*
G04 #@! TO.N,/C1-*
X4905000Y41805000D03*
G04 #@! TD*
G04 #@! TO.P,C43,1*
G04 #@! TO.N,/C1+*
X-41695000Y41805000D03*
G04 #@! TO.P,C43,2*
G04 #@! TO.N,/C1-*
X-35995000Y41805000D03*
G04 #@! TD*
G04 #@! TO.P,C41,1*
G04 #@! TO.N,/C1+*
X-14495000Y41805000D03*
G04 #@! TO.P,C41,2*
G04 #@! TO.N,/C1-*
X-8795000Y41805000D03*
G04 #@! TD*
G04 #@! TO.P,C40,1*
G04 #@! TO.N,/C1+*
X-15605000Y103395000D03*
G04 #@! TO.P,C40,2*
G04 #@! TO.N,/C1-*
X-21305000Y103395000D03*
G04 #@! TD*
G04 #@! TO.P,C39,1*
G04 #@! TO.N,/C1+*
X-1905000Y9395000D03*
G04 #@! TO.P,C39,2*
G04 #@! TO.N,/C1-*
X-7605000Y9395000D03*
G04 #@! TD*
G04 #@! TO.P,C38,1*
G04 #@! TO.N,/C1+*
X-14495000Y69805000D03*
G04 #@! TO.P,C38,2*
G04 #@! TO.N,/C1-*
X-8795000Y69805000D03*
G04 #@! TD*
G04 #@! TO.P,C37,1*
G04 #@! TO.N,/C1+*
X-1905000Y58595000D03*
G04 #@! TO.P,C37,2*
G04 #@! TO.N,/C1-*
X-7605000Y58595000D03*
G04 #@! TD*
G04 #@! TO.P,C36,1*
G04 #@! TO.N,/C1+*
X-14495000Y81005000D03*
G04 #@! TO.P,C36,2*
G04 #@! TO.N,/C1-*
X-8795000Y81005000D03*
G04 #@! TD*
G04 #@! TO.P,C35,1*
G04 #@! TO.N,/C1+*
X-15605000Y69795000D03*
G04 #@! TO.P,C35,2*
G04 #@! TO.N,/C1-*
X-21305000Y69795000D03*
G04 #@! TD*
G04 #@! TO.P,C34,1*
G04 #@! TO.N,/C1+*
X-28095000Y69805000D03*
G04 #@! TO.P,C34,2*
G04 #@! TO.N,/C1-*
X-22395000Y69805000D03*
G04 #@! TD*
G04 #@! TO.P,C94,1*
G04 #@! TO.N,/C1+*
X11795000Y41795000D03*
G04 #@! TO.P,C94,2*
G04 #@! TO.N,/C1-*
X6095000Y41795000D03*
G04 #@! TD*
G04 #@! TO.P,C32,1*
G04 #@! TO.N,/C1+*
X-795000Y97805000D03*
G04 #@! TO.P,C32,2*
G04 #@! TO.N,/C1-*
X4905000Y97805000D03*
G04 #@! TD*
G04 #@! TO.P,C33,1*
G04 #@! TO.N,/C1+*
X-1905000Y52995000D03*
G04 #@! TO.P,C33,2*
G04 #@! TO.N,/C1-*
X-7605000Y52995000D03*
G04 #@! TD*
G04 #@! TO.P,C46,1*
G04 #@! TO.N,/C1+*
X-28095000Y86605000D03*
G04 #@! TO.P,C46,2*
G04 #@! TO.N,/C1-*
X-22395000Y86605000D03*
G04 #@! TD*
G04 #@! TO.P,C215,1*
G04 #@! TO.N,/C1+*
X-42705000Y-1805000D03*
G04 #@! TO.P,C215,2*
G04 #@! TO.N,/C1-*
X-48405000Y-1805000D03*
G04 #@! TD*
G04 #@! TO.P,C213,1*
G04 #@! TO.N,/C1+*
X-41695000Y15005000D03*
G04 #@! TO.P,C213,2*
G04 #@! TO.N,/C1-*
X-35995000Y15005000D03*
G04 #@! TD*
G04 #@! TO.P,C212,1*
G04 #@! TO.N,/C1+*
X-42805000Y20595000D03*
G04 #@! TO.P,C212,2*
G04 #@! TO.N,/C1-*
X-48505000Y20595000D03*
G04 #@! TD*
G04 #@! TO.P,C211,1*
G04 #@! TO.N,/C1+*
X-29205000Y14995000D03*
G04 #@! TO.P,C211,2*
G04 #@! TO.N,/C1-*
X-34905000Y14995000D03*
G04 #@! TD*
G04 #@! TO.P,C209,1*
G04 #@! TO.N,/C1+*
X-56405000Y31795000D03*
G04 #@! TO.P,C209,2*
G04 #@! TO.N,/C1-*
X-62105000Y31795000D03*
G04 #@! TD*
G04 #@! TO.P,C125,1*
G04 #@! TO.N,/C1+*
X-15605000Y64195000D03*
G04 #@! TO.P,C125,2*
G04 #@! TO.N,/C1-*
X-21305000Y64195000D03*
G04 #@! TD*
G04 #@! TO.P,C203,1*
G04 #@! TO.N,/C1+*
X-41695000Y9405000D03*
G04 #@! TO.P,C203,2*
G04 #@! TO.N,/C1-*
X-35995000Y9405000D03*
G04 #@! TD*
G04 #@! TO.P,C201,1*
G04 #@! TO.N,/C1+*
X-42805000Y26195000D03*
G04 #@! TO.P,C201,2*
G04 #@! TO.N,/C1-*
X-48505000Y26195000D03*
G04 #@! TD*
G04 #@! TO.P,C200,1*
G04 #@! TO.N,/C1+*
X-28095000Y75405000D03*
G04 #@! TO.P,C200,2*
G04 #@! TO.N,/C1-*
X-22395000Y75405000D03*
G04 #@! TD*
G04 #@! TO.P,C199,1*
G04 #@! TO.N,/C1+*
X-795000Y103405000D03*
G04 #@! TO.P,C199,2*
G04 #@! TO.N,/C1-*
X4905000Y103405000D03*
G04 #@! TD*
G04 #@! TO.P,C198,1*
G04 #@! TO.N,/C1+*
X-28095000Y103405000D03*
G04 #@! TO.P,C198,2*
G04 #@! TO.N,/C1-*
X-22395000Y103405000D03*
G04 #@! TD*
G04 #@! TO.P,C197,1*
G04 #@! TO.N,/C1+*
X-14495000Y92205000D03*
G04 #@! TO.P,C197,2*
G04 #@! TO.N,/C1-*
X-8795000Y92205000D03*
G04 #@! TD*
G04 #@! TO.P,C196,1*
G04 #@! TO.N,/C1+*
X-15605000Y58595000D03*
G04 #@! TO.P,C196,2*
G04 #@! TO.N,/C1-*
X-21305000Y58595000D03*
G04 #@! TD*
G04 #@! TO.P,C195,1*
G04 #@! TO.N,/C1+*
X-28095000Y81005000D03*
G04 #@! TO.P,C195,2*
G04 #@! TO.N,/C1-*
X-22395000Y81005000D03*
G04 #@! TD*
G04 #@! TO.P,C194,1*
G04 #@! TO.N,/C1+*
X-1905000Y41795000D03*
G04 #@! TO.P,C194,2*
G04 #@! TO.N,/C1-*
X-7605000Y41795000D03*
G04 #@! TD*
G04 #@! TO.P,C193,1*
G04 #@! TO.N,/C1+*
X-14495000Y97805000D03*
G04 #@! TO.P,C193,2*
G04 #@! TO.N,/C1-*
X-8795000Y97805000D03*
G04 #@! TD*
G04 #@! TO.P,C192,1*
G04 #@! TO.N,/C1+*
X-15605000Y52995000D03*
G04 #@! TO.P,C192,2*
G04 #@! TO.N,/C1-*
X-21305000Y52995000D03*
G04 #@! TD*
G04 #@! TO.P,C191,1*
G04 #@! TO.N,/C1+*
X-14495000Y86605000D03*
G04 #@! TO.P,C191,2*
G04 #@! TO.N,/C1-*
X-8795000Y86605000D03*
G04 #@! TD*
G04 #@! TO.P,C190,1*
G04 #@! TO.N,/C1+*
X-1905000Y20595000D03*
G04 #@! TO.P,C190,2*
G04 #@! TO.N,/C1-*
X-7605000Y20595000D03*
G04 #@! TD*
G04 #@! TO.P,C126,1*
G04 #@! TO.N,/C1+*
X-55295000Y81005000D03*
G04 #@! TO.P,C126,2*
G04 #@! TO.N,/C1-*
X-49595000Y81005000D03*
G04 #@! TD*
G04 #@! TO.P,C48,1*
G04 #@! TO.N,/C1+*
X-42805000Y69795000D03*
G04 #@! TO.P,C48,2*
G04 #@! TO.N,/C1-*
X-48505000Y69795000D03*
G04 #@! TD*
G04 #@! TO.P,C155,1*
G04 #@! TO.N,/C1+*
X-29205000Y80995000D03*
G04 #@! TO.P,C155,2*
G04 #@! TO.N,/C1-*
X-34905000Y80995000D03*
G04 #@! TD*
G04 #@! TO.P,C154,1*
G04 #@! TO.N,/C1+*
X11795000Y86595000D03*
G04 #@! TO.P,C154,2*
G04 #@! TO.N,/C1-*
X6095000Y86595000D03*
G04 #@! TD*
G04 #@! TO.P,C153,1*
G04 #@! TO.N,/C1+*
X-795000Y53005000D03*
G04 #@! TO.P,C153,2*
G04 #@! TO.N,/C1-*
X4905000Y53005000D03*
G04 #@! TD*
G04 #@! TO.P,C152,1*
G04 #@! TO.N,/C1+*
X-1905000Y97795000D03*
G04 #@! TO.P,C152,2*
G04 #@! TO.N,/C1-*
X-7605000Y97795000D03*
G04 #@! TD*
G04 #@! TO.P,C149,1*
G04 #@! TO.N,/C1+*
X-55295000Y92205000D03*
G04 #@! TO.P,C149,2*
G04 #@! TO.N,/C1-*
X-49595000Y92205000D03*
G04 #@! TD*
G04 #@! TO.P,C148,1*
G04 #@! TO.N,/C1+*
X-1905000Y14995000D03*
G04 #@! TO.P,C148,2*
G04 #@! TO.N,/C1-*
X-7605000Y14995000D03*
G04 #@! TD*
G04 #@! TO.P,C147,1*
G04 #@! TO.N,/C1+*
X-55295000Y86605000D03*
G04 #@! TO.P,C147,2*
G04 #@! TO.N,/C1-*
X-49595000Y86605000D03*
G04 #@! TD*
G04 #@! TO.P,C146,1*
G04 #@! TO.N,/C1+*
X-42805000Y64195000D03*
G04 #@! TO.P,C146,2*
G04 #@! TO.N,/C1-*
X-48505000Y64195000D03*
G04 #@! TD*
G04 #@! TO.P,C145,1*
G04 #@! TO.N,/C1+*
X-41595000Y75405000D03*
G04 #@! TO.P,C145,2*
G04 #@! TO.N,/C1-*
X-35895000Y75405000D03*
G04 #@! TD*
G04 #@! TO.P,C144,1*
G04 #@! TO.N,/C1+*
X-29205000Y75395000D03*
G04 #@! TO.P,C144,2*
G04 #@! TO.N,/C1-*
X-34905000Y75395000D03*
G04 #@! TD*
G04 #@! TO.P,C143,1*
G04 #@! TO.N,/C1+*
X11795000Y80995000D03*
G04 #@! TO.P,C143,2*
G04 #@! TO.N,/C1-*
X6095000Y80995000D03*
G04 #@! TD*
G04 #@! TO.P,C142,1*
G04 #@! TO.N,/C1+*
X-795000Y58605000D03*
G04 #@! TO.P,C142,2*
G04 #@! TO.N,/C1-*
X4905000Y58605000D03*
G04 #@! TD*
G04 #@! TO.P,C188,1*
G04 #@! TO.N,/C1+*
X-1905000Y92195000D03*
G04 #@! TO.P,C188,2*
G04 #@! TO.N,/C1-*
X-7605000Y92195000D03*
G04 #@! TD*
G04 #@! TO.P,C140,1*
G04 #@! TO.N,/C1+*
X-14495000Y47405000D03*
G04 #@! TO.P,C140,2*
G04 #@! TO.N,/C1-*
X-8795000Y47405000D03*
G04 #@! TD*
G04 #@! TO.P,C139,1*
G04 #@! TO.N,/C1+*
X-28095000Y53005000D03*
G04 #@! TO.P,C139,2*
G04 #@! TO.N,/C1-*
X-22395000Y53005000D03*
G04 #@! TD*
G04 #@! TO.P,C138,1*
G04 #@! TO.N,/C1+*
X11795000Y52995000D03*
G04 #@! TO.P,C138,2*
G04 #@! TO.N,/C1-*
X6095000Y52995000D03*
G04 #@! TD*
G04 #@! TO.P,C137,1*
G04 #@! TO.N,/C1+*
X-795000Y86605000D03*
G04 #@! TO.P,C137,2*
G04 #@! TO.N,/C1-*
X4905000Y86605000D03*
G04 #@! TD*
G04 #@! TO.P,C136,1*
G04 #@! TO.N,/C1+*
X-1905000Y64195000D03*
G04 #@! TO.P,C136,2*
G04 #@! TO.N,/C1-*
X-7605000Y64195000D03*
G04 #@! TD*
G04 #@! TO.P,C135,1*
G04 #@! TO.N,/C1+*
X-14495000Y75405000D03*
G04 #@! TO.P,C135,2*
G04 #@! TO.N,/C1-*
X-8795000Y75405000D03*
G04 #@! TD*
G04 #@! TO.P,C134,1*
G04 #@! TO.N,/C1+*
X-15605000Y75395000D03*
G04 #@! TO.P,C134,2*
G04 #@! TO.N,/C1-*
X-21305000Y75395000D03*
G04 #@! TD*
G04 #@! TO.P,C133,1*
G04 #@! TO.N,/C1+*
X-28095000Y64205000D03*
G04 #@! TO.P,C133,2*
G04 #@! TO.N,/C1-*
X-22395000Y64205000D03*
G04 #@! TD*
G04 #@! TO.P,C132,1*
G04 #@! TO.N,/C1+*
X-29205000Y41795000D03*
G04 #@! TO.P,C132,2*
G04 #@! TO.N,/C1-*
X-34905000Y41795000D03*
G04 #@! TD*
G04 #@! TO.P,C131,1*
G04 #@! TO.N,/C1+*
X11795000Y47395000D03*
G04 #@! TO.P,C131,2*
G04 #@! TO.N,/C1-*
X6095000Y47395000D03*
G04 #@! TD*
G04 #@! TO.P,C189,1*
G04 #@! TO.N,/C1+*
X-56405000Y97795000D03*
G04 #@! TO.P,C189,2*
G04 #@! TO.N,/C1-*
X-62105000Y97795000D03*
G04 #@! TD*
G04 #@! TO.P,C180,1*
G04 #@! TO.N,/C1+*
X-55295000Y41805000D03*
G04 #@! TO.P,C180,2*
G04 #@! TO.N,/C1-*
X-49595000Y41805000D03*
G04 #@! TD*
G04 #@! TO.P,C179,1*
G04 #@! TO.N,/C1+*
X-14495000Y103405000D03*
G04 #@! TO.P,C179,2*
G04 #@! TO.N,/C1-*
X-8795000Y103405000D03*
G04 #@! TD*
G04 #@! TO.P,C178,1*
G04 #@! TO.N,/C1+*
X-15605000Y47395000D03*
G04 #@! TO.P,C178,2*
G04 #@! TO.N,/C1-*
X-21305000Y47395000D03*
G04 #@! TD*
G04 #@! TO.P,C177,1*
G04 #@! TO.N,/C1+*
X-28095000Y92205000D03*
G04 #@! TO.P,C177,2*
G04 #@! TO.N,/C1-*
X-22395000Y92205000D03*
G04 #@! TD*
G04 #@! TO.P,C176,1*
G04 #@! TO.N,/C1+*
X-15605000Y41795000D03*
G04 #@! TO.P,C176,2*
G04 #@! TO.N,/C1-*
X-21305000Y41795000D03*
G04 #@! TD*
G04 #@! TO.P,C175,1*
G04 #@! TO.N,/C1+*
X-28095000Y97805000D03*
G04 #@! TO.P,C175,2*
G04 #@! TO.N,/C1-*
X-22395000Y97805000D03*
G04 #@! TD*
G04 #@! TO.P,C157,1*
G04 #@! TO.N,/C1+*
X-1905000Y47395000D03*
G04 #@! TO.P,C157,2*
G04 #@! TO.N,/C1-*
X-7605000Y47395000D03*
G04 #@! TD*
G04 #@! TO.P,C156,1*
G04 #@! TO.N,/C1+*
X-795000Y75405000D03*
G04 #@! TO.P,C156,2*
G04 #@! TO.N,/C1-*
X4905000Y75405000D03*
G04 #@! TD*
G04 #@! TO.P,C171,1*
G04 #@! TO.N,/C1+*
X-1905000Y75395000D03*
G04 #@! TO.P,C171,2*
G04 #@! TO.N,/C1-*
X-7605000Y75395000D03*
G04 #@! TD*
G04 #@! TO.P,C170,1*
G04 #@! TO.N,/C1+*
X-14495000Y64205000D03*
G04 #@! TO.P,C170,2*
G04 #@! TO.N,/C1-*
X-8795000Y64205000D03*
G04 #@! TD*
G04 #@! TO.P,C169,1*
G04 #@! TO.N,/C1+*
X-15605000Y86595000D03*
G04 #@! TO.P,C169,2*
G04 #@! TO.N,/C1-*
X-21305000Y86595000D03*
G04 #@! TD*
G04 #@! TO.P,C168,1*
G04 #@! TO.N,/C1+*
X-29205000Y47395000D03*
G04 #@! TO.P,C168,2*
G04 #@! TO.N,/C1-*
X-34905000Y47395000D03*
G04 #@! TD*
G04 #@! TO.P,C167,1*
G04 #@! TO.N,/C1+*
X-42805000Y41795000D03*
G04 #@! TO.P,C167,2*
G04 #@! TO.N,/C1-*
X-48505000Y41795000D03*
G04 #@! TD*
G04 #@! TO.P,C166,1*
G04 #@! TO.N,/C1+*
X-41595000Y97805000D03*
G04 #@! TO.P,C166,2*
G04 #@! TO.N,/C1-*
X-35895000Y97805000D03*
G04 #@! TD*
G04 #@! TO.P,C165,1*
G04 #@! TO.N,/C1+*
X-29205000Y52995000D03*
G04 #@! TO.P,C165,2*
G04 #@! TO.N,/C1-*
X-34905000Y52995000D03*
G04 #@! TD*
G04 #@! TO.P,C164,1*
G04 #@! TO.N,/C1+*
X11795000Y58595000D03*
G04 #@! TO.P,C164,2*
G04 #@! TO.N,/C1-*
X6095000Y58595000D03*
G04 #@! TD*
G04 #@! TO.P,C163,1*
G04 #@! TO.N,/C1+*
X-795000Y81005000D03*
G04 #@! TO.P,C163,2*
G04 #@! TO.N,/C1-*
X4905000Y81005000D03*
G04 #@! TD*
G04 #@! TO.P,C162,1*
G04 #@! TO.N,/C1+*
X-1905000Y69795000D03*
G04 #@! TO.P,C162,2*
G04 #@! TO.N,/C1-*
X-7605000Y69795000D03*
G04 #@! TD*
G04 #@! TO.P,C161,1*
G04 #@! TO.N,/C1+*
X-795000Y92205000D03*
G04 #@! TO.P,C161,2*
G04 #@! TO.N,/C1-*
X4905000Y92205000D03*
G04 #@! TD*
G04 #@! TO.P,C160,1*
G04 #@! TO.N,/C1+*
X-15605000Y80995000D03*
G04 #@! TO.P,C160,2*
G04 #@! TO.N,/C1-*
X-21305000Y80995000D03*
G04 #@! TD*
G04 #@! TO.P,C174,1*
G04 #@! TO.N,/C1+*
X-28095000Y58605000D03*
G04 #@! TO.P,C174,2*
G04 #@! TO.N,/C1-*
X-22395000Y58605000D03*
G04 #@! TD*
G04 #@! TO.P,C172,1*
G04 #@! TO.N,/C1+*
X-41595000Y103405000D03*
G04 #@! TO.P,C172,2*
G04 #@! TO.N,/C1-*
X-35895000Y103405000D03*
G04 #@! TD*
G04 #@! TO.P,C158,1*
G04 #@! TO.N,/C1+*
X-41695000Y69805000D03*
G04 #@! TO.P,C158,2*
G04 #@! TO.N,/C1-*
X-35995000Y69805000D03*
G04 #@! TD*
D11*
G04 #@! TO.P,TP3,1*
G04 #@! TO.N,/C2+*
X28400000Y34000000D03*
D12*
X30800000Y34000000D03*
X30097056Y32302944D03*
X28400000Y31600000D03*
X26702944Y32302944D03*
X26000000Y34000000D03*
X26702944Y35697056D03*
X28400000Y36400000D03*
X30097056Y35697056D03*
G04 #@! TD*
D11*
G04 #@! TO.P,TP4,1*
G04 #@! TO.N,/C2-*
X28400000Y24500000D03*
D12*
X30800000Y24500000D03*
X30097056Y22802944D03*
X28400000Y22100000D03*
X26702944Y22802944D03*
X26000000Y24500000D03*
X26702944Y26197056D03*
X28400000Y26900000D03*
X30097056Y26197056D03*
G04 #@! TD*
D11*
G04 #@! TO.P,TP1,1*
G04 #@! TO.N,/C1+*
X-28400000Y34000000D03*
D12*
X-26000000Y34000000D03*
X-26702944Y32302944D03*
X-28400000Y31600000D03*
X-30097056Y32302944D03*
X-30800000Y34000000D03*
X-30097056Y35697056D03*
X-28400000Y36400000D03*
X-26702944Y35697056D03*
G04 #@! TD*
D11*
G04 #@! TO.P,TP2,1*
G04 #@! TO.N,/C1-*
X-28400000Y24500000D03*
D12*
X-26000000Y24500000D03*
X-26702944Y22802944D03*
X-28400000Y22100000D03*
X-30097056Y22802944D03*
X-30800000Y24500000D03*
X-30097056Y26197056D03*
X-28400000Y26900000D03*
X-26702944Y26197056D03*
G04 #@! TD*
D13*
G04 #@! TO.N,/C1-*
X-22400000Y103400000D03*
X-22400000Y97800000D03*
X-22400000Y92200000D03*
X-22400000Y86600000D03*
X-22400000Y81000000D03*
X-22400000Y75400000D03*
X-22400000Y69800000D03*
X-22400000Y64200000D03*
X-22400000Y58600000D03*
X-22400000Y53000000D03*
X-22400000Y47400000D03*
X-22400000Y41800000D03*
X-22400000Y105100000D03*
X-22400000Y99500000D03*
X-22400000Y93900000D03*
X-22400000Y88300000D03*
X-22400000Y82700000D03*
X-22400000Y77100000D03*
X-22400000Y71500000D03*
X-22400000Y65900000D03*
X-22400000Y60300000D03*
X-22400000Y54700000D03*
X-22400000Y49100000D03*
X-22400000Y43500000D03*
X-22400000Y101700000D03*
X-22400000Y96100000D03*
X-22400000Y90500000D03*
X-22400000Y84900000D03*
X-22400000Y79300000D03*
X-22400000Y73700000D03*
X-22400000Y68100000D03*
X-22400000Y62500000D03*
X-22400000Y56900000D03*
X-22400000Y51300000D03*
X-22400000Y45700000D03*
X-22400000Y40100000D03*
X-34900000Y101700000D03*
X-34900000Y96100000D03*
X-34900000Y90500000D03*
X-34900000Y84900000D03*
X-34900000Y79300000D03*
X-34900000Y73700000D03*
X-34900000Y68100000D03*
X-34900000Y62500000D03*
X-34900000Y56900000D03*
X-34900000Y51300000D03*
X-34900000Y45700000D03*
X-34900000Y40100000D03*
X-34900000Y103400000D03*
X-34900000Y97800000D03*
X-34900000Y92200000D03*
X-34900000Y86600000D03*
X-34900000Y81000000D03*
X-34900000Y75400000D03*
X-34900000Y69800000D03*
X-34900000Y64200000D03*
X-34900000Y58600000D03*
X-34900000Y53000000D03*
X-34900000Y47400000D03*
X-34900000Y41800000D03*
X-34900000Y105100000D03*
X-34900000Y99500000D03*
X-34900000Y93900000D03*
X-34900000Y88300000D03*
X-34900000Y82700000D03*
X-34900000Y77100000D03*
X-34900000Y71500000D03*
X-34900000Y65900000D03*
X-34900000Y60300000D03*
X-34900000Y54700000D03*
X-34900000Y49100000D03*
X-34900000Y43500000D03*
X-36000000Y103400000D03*
X-36000000Y97800000D03*
X-36000000Y92200000D03*
X-36000000Y86600000D03*
X-36000000Y81000000D03*
X-36000000Y75400000D03*
X-36000000Y69800000D03*
X-36000000Y64200000D03*
X-36000000Y58600000D03*
X-36000000Y53000000D03*
X-36000000Y47400000D03*
X-36000000Y41800000D03*
X-36000000Y101700000D03*
X-36000000Y96100000D03*
X-36000000Y90500000D03*
X-36000000Y84900000D03*
X-36000000Y79300000D03*
X-36000000Y73700000D03*
X-36000000Y68100000D03*
X-36000000Y62500000D03*
X-36000000Y56900000D03*
X-36000000Y51300000D03*
X-36000000Y45700000D03*
X-36000000Y40100000D03*
X-36000000Y105100000D03*
X-36000000Y99500000D03*
X-36000000Y93900000D03*
X-36000000Y88300000D03*
X-36000000Y82700000D03*
X-36000000Y77100000D03*
X-36000000Y71500000D03*
X-36000000Y65900000D03*
X-36000000Y60300000D03*
X-36000000Y54700000D03*
X-36000000Y49100000D03*
X-36000000Y43500000D03*
X-48500000Y101700000D03*
X-48500000Y96100000D03*
X-48500000Y90500000D03*
X-48500000Y84900000D03*
X-48500000Y79300000D03*
X-48500000Y73700000D03*
X-48500000Y68100000D03*
X-48500000Y62500000D03*
X-48500000Y56900000D03*
X-48500000Y51300000D03*
X-48500000Y45700000D03*
X-48500000Y40100000D03*
X-48500000Y103400000D03*
X-48500000Y97800000D03*
X-48500000Y92200000D03*
X-48500000Y86600000D03*
X-48500000Y81000000D03*
X-48500000Y75400000D03*
X-48500000Y69800000D03*
X-48500000Y64200000D03*
X-48500000Y58600000D03*
X-48500000Y53000000D03*
X-48500000Y47400000D03*
X-48500000Y41800000D03*
X-48500000Y105100000D03*
X-48500000Y99500000D03*
X-48500000Y93900000D03*
X-48500000Y88300000D03*
X-48500000Y82700000D03*
X-48500000Y77100000D03*
X-48500000Y71500000D03*
X-48500000Y65900000D03*
X-48500000Y60300000D03*
X-48500000Y54700000D03*
X-48500000Y49100000D03*
X-48500000Y43500000D03*
X-49600000Y105100000D03*
X-49600000Y99500000D03*
X-49600000Y93900000D03*
X-49600000Y88300000D03*
X-49600000Y82700000D03*
X-49600000Y77100000D03*
X-49600000Y71500000D03*
X-49600000Y65900000D03*
X-49600000Y60300000D03*
X-49600000Y54700000D03*
X-49600000Y49100000D03*
X-49600000Y43500000D03*
X-49600000Y103400000D03*
X-49600000Y97800000D03*
X-49600000Y92200000D03*
X-49600000Y86600000D03*
X-49600000Y81000000D03*
X-49600000Y75400000D03*
X-49600000Y69800000D03*
X-49600000Y64200000D03*
X-49600000Y58600000D03*
X-49600000Y53000000D03*
X-49600000Y47400000D03*
X-49600000Y41800000D03*
X-49600000Y101700000D03*
X-49600000Y96100000D03*
X-49600000Y90500000D03*
X-49600000Y84900000D03*
X-49600000Y79300000D03*
X-49600000Y73700000D03*
X-49600000Y68100000D03*
X-49600000Y62500000D03*
X-49600000Y56900000D03*
X-49600000Y51300000D03*
X-49600000Y45700000D03*
X-49600000Y40100000D03*
X-62100000Y101700000D03*
X-62100000Y96100000D03*
X-62100000Y90500000D03*
X-62100000Y84900000D03*
X-62100000Y79300000D03*
X-62100000Y73700000D03*
X-62100000Y68100000D03*
X-62100000Y62500000D03*
X-62100000Y56900000D03*
X-62100000Y51300000D03*
X-62100000Y45700000D03*
X-62100000Y40100000D03*
X-62100000Y103400000D03*
X-62100000Y97800000D03*
X-62100000Y92200000D03*
X-62100000Y86600000D03*
X-62100000Y81000000D03*
X-62100000Y75400000D03*
X-62100000Y69800000D03*
X-62100000Y64200000D03*
X-62100000Y58600000D03*
X-62100000Y53000000D03*
X-62100000Y47400000D03*
X-62100000Y41800000D03*
X-62100000Y105100000D03*
X-62100000Y99500000D03*
X-62100000Y93900000D03*
X-62100000Y88300000D03*
X-62100000Y82700000D03*
X-62100000Y77100000D03*
X-62100000Y71500000D03*
X-62100000Y65900000D03*
X-62100000Y60300000D03*
X-62100000Y54700000D03*
X-62100000Y49100000D03*
X-62100000Y43500000D03*
X-21300000Y105100000D03*
X-21300000Y99500000D03*
X-21300000Y93900000D03*
X-21300000Y88300000D03*
X-21300000Y82700000D03*
X-21300000Y77100000D03*
X-21300000Y71500000D03*
X-21300000Y65900000D03*
X-21300000Y60300000D03*
X-21300000Y54700000D03*
X-21300000Y49100000D03*
X-21300000Y43500000D03*
X-21300000Y103400000D03*
X-21300000Y97800000D03*
X-21300000Y92200000D03*
X-21300000Y86600000D03*
X-21300000Y81000000D03*
X-21300000Y75400000D03*
X-21300000Y69800000D03*
X-21300000Y64200000D03*
X-21300000Y58600000D03*
X-21300000Y53000000D03*
X-21300000Y47400000D03*
X-21300000Y41800000D03*
X-21300000Y101700000D03*
X-21300000Y96100000D03*
X-21300000Y90500000D03*
X-21300000Y84900000D03*
X-21300000Y79300000D03*
X-21300000Y73700000D03*
X-21300000Y68100000D03*
X-21300000Y62500000D03*
X-21300000Y56900000D03*
X-21300000Y51300000D03*
X-21300000Y45700000D03*
X-21300000Y40100000D03*
X-8800000Y101700000D03*
X-8800000Y96100000D03*
X-8800000Y90500000D03*
X-8800000Y84900000D03*
X-8800000Y79300000D03*
X-8800000Y73700000D03*
X-8800000Y68100000D03*
X-8800000Y62500000D03*
X-8800000Y56900000D03*
X-8800000Y51300000D03*
X-8800000Y45700000D03*
X-8800000Y40100000D03*
X-8800000Y105100000D03*
X-8800000Y99500000D03*
X-8800000Y93900000D03*
X-8800000Y88300000D03*
X-8800000Y82700000D03*
X-8800000Y77100000D03*
X-8800000Y71500000D03*
X-8800000Y65900000D03*
X-8800000Y60300000D03*
X-8800000Y54700000D03*
X-8800000Y49100000D03*
X-8800000Y43500000D03*
X-8800000Y103400000D03*
X-8800000Y97800000D03*
X-8800000Y92200000D03*
X-8800000Y86600000D03*
X-8800000Y81000000D03*
X-8800000Y75400000D03*
X-8800000Y69800000D03*
X-8800000Y64200000D03*
X-8800000Y58600000D03*
X-8800000Y53000000D03*
X-8800000Y47400000D03*
X-8800000Y41800000D03*
X-7600000Y103400000D03*
X-7600000Y97800000D03*
X-7600000Y92200000D03*
X-7600000Y86600000D03*
X-7600000Y81000000D03*
X-7600000Y75400000D03*
X-7600000Y69800000D03*
X-7600000Y64200000D03*
X-7600000Y58600000D03*
X-7600000Y53000000D03*
X-7600000Y47400000D03*
X-7600000Y41800000D03*
X-7600000Y101700000D03*
X-7600000Y96100000D03*
X-7600000Y90500000D03*
X-7600000Y84900000D03*
X-7600000Y79300000D03*
X-7600000Y73700000D03*
X-7600000Y68100000D03*
X-7600000Y62500000D03*
X-7600000Y56900000D03*
X-7600000Y51300000D03*
X-7600000Y45700000D03*
X-7600000Y40100000D03*
X-7600000Y105100000D03*
X-7600000Y99500000D03*
X-7600000Y93900000D03*
X-7600000Y88300000D03*
X-7600000Y82700000D03*
X-7600000Y77100000D03*
X-7600000Y71500000D03*
X-7600000Y65900000D03*
X-7600000Y60300000D03*
X-7600000Y54700000D03*
X-7600000Y49100000D03*
X-7600000Y43500000D03*
X4900000Y103400000D03*
X4900000Y97800000D03*
X4900000Y92200000D03*
X4900000Y86600000D03*
X4900000Y81000000D03*
X4900000Y75400000D03*
X4900000Y69800000D03*
X4900000Y64200000D03*
X4900000Y58600000D03*
X4900000Y53000000D03*
X4900000Y47400000D03*
X4900000Y41800000D03*
X4900000Y105100000D03*
X4900000Y99500000D03*
X4900000Y93900000D03*
X4900000Y88300000D03*
X4900000Y82700000D03*
X4900000Y77100000D03*
X4900000Y71500000D03*
X4900000Y65900000D03*
X4900000Y60300000D03*
X4900000Y54700000D03*
X4900000Y49100000D03*
X4900000Y43500000D03*
X4900000Y101700000D03*
X4900000Y96100000D03*
X4900000Y90500000D03*
X4900000Y84900000D03*
X4900000Y79300000D03*
X4900000Y73700000D03*
X4900000Y68100000D03*
X4900000Y62500000D03*
X4900000Y56900000D03*
X4900000Y51300000D03*
X4900000Y45700000D03*
X4900000Y40100000D03*
X6000000Y103400000D03*
X6000000Y97800000D03*
X6000000Y92200000D03*
X6000000Y86600000D03*
X6000000Y81000000D03*
X6000000Y75400000D03*
X6000000Y69800000D03*
X6000000Y64200000D03*
X6000000Y58600000D03*
X6000000Y53000000D03*
X6000000Y47400000D03*
X6000000Y41800000D03*
X6000000Y105100000D03*
X6000000Y99500000D03*
X6000000Y93900000D03*
X6000000Y88300000D03*
X6000000Y82700000D03*
X6000000Y77100000D03*
X6000000Y71500000D03*
X6000000Y65900000D03*
X6000000Y60300000D03*
X6000000Y54700000D03*
X6000000Y49100000D03*
X6000000Y43500000D03*
X6000000Y101700000D03*
X6000000Y96100000D03*
X6000000Y90500000D03*
X6000000Y84900000D03*
X6000000Y79300000D03*
X6000000Y73700000D03*
X6000000Y68100000D03*
X6000000Y62500000D03*
X6000000Y56900000D03*
X6000000Y51300000D03*
X6000000Y45700000D03*
X6000000Y40100000D03*
X4900000Y33500000D03*
X4900000Y31800000D03*
X4900000Y30100000D03*
X4900000Y27900000D03*
X4900000Y22300000D03*
X4900000Y11100000D03*
X4900000Y5500000D03*
X4900000Y24500000D03*
X4900000Y18900000D03*
X4900000Y13300000D03*
X4900000Y7700000D03*
X4900000Y2100000D03*
X4900000Y26200000D03*
X4900000Y20600000D03*
X4900000Y15000000D03*
X4900000Y9400000D03*
X4900000Y3800000D03*
X-7600000Y30100000D03*
X-7600000Y31800000D03*
X-7600000Y33500000D03*
X-7600000Y24500000D03*
X-7600000Y18900000D03*
X-7600000Y13300000D03*
X-7600000Y7700000D03*
X-7600000Y2100000D03*
X-7600000Y27900000D03*
X-7600000Y22300000D03*
X-7600000Y16700000D03*
X-7600000Y11100000D03*
X-7600000Y5500000D03*
X-7600000Y26200000D03*
X-7600000Y20600000D03*
X-7600000Y15000000D03*
X-7600000Y9400000D03*
X-7600000Y3800000D03*
X-8800000Y30100000D03*
X-8800000Y33500000D03*
X-8800000Y31800000D03*
X-8800000Y26200000D03*
X-8800000Y20600000D03*
X-8800000Y15000000D03*
X-8800000Y9400000D03*
X-8800000Y3800000D03*
X-8800000Y24500000D03*
X-8800000Y18900000D03*
X-8800000Y13300000D03*
X-8800000Y7700000D03*
X-8800000Y2100000D03*
X-8800000Y27900000D03*
X-8800000Y22300000D03*
X-8800000Y16700000D03*
X-8800000Y11100000D03*
X-8800000Y5500000D03*
X-21300000Y16700000D03*
X-21300000Y11100000D03*
X-21300000Y5500000D03*
X-21300000Y15000000D03*
X-21300000Y9400000D03*
X-21300000Y3800000D03*
X-21300000Y13300000D03*
X-21300000Y7700000D03*
X-21300000Y2100000D03*
X-22400000Y5500000D03*
X-22400000Y3800000D03*
X-22400000Y16700000D03*
X-22400000Y11100000D03*
X-22400000Y13300000D03*
X-22400000Y7700000D03*
X-22400000Y2100000D03*
X-22400000Y15000000D03*
X-22400000Y9400000D03*
X-34900000Y16700000D03*
X-34900000Y11100000D03*
X-34900000Y5500000D03*
X-34900000Y-100000D03*
X-34900000Y13300000D03*
X-34900000Y2100000D03*
X-34900000Y-3500000D03*
X-34900000Y15000000D03*
X-34900000Y3800000D03*
X-34900000Y-1800000D03*
X-36000000Y11100000D03*
X-36000000Y5500000D03*
X-34900000Y-100000D03*
X-36000000Y-100000D03*
X-34900000Y7700000D03*
X-34900000Y2100000D03*
X-34900000Y-3500000D03*
X-36000000Y-3500000D03*
X-34900000Y9400000D03*
X-36000000Y9400000D03*
X-34900000Y-1800000D03*
X-36000000Y-1800000D03*
X-36000000Y26200000D03*
X-36000000Y27900000D03*
X-36000000Y22300000D03*
X-36000000Y16700000D03*
X-36000000Y24500000D03*
X-36000000Y18900000D03*
X-36000000Y13300000D03*
X-36000000Y7700000D03*
X-36000000Y2100000D03*
X-36000000Y20600000D03*
X-36000000Y15000000D03*
X-36000000Y3800000D03*
X-48500000Y33500000D03*
X-48400000Y11100000D03*
X-48500000Y30100000D03*
X-48500000Y24500000D03*
X-48500000Y31800000D03*
X-48400000Y15000000D03*
X-48400000Y3800000D03*
X-49600000Y30100000D03*
X-49600000Y24500000D03*
X-48500000Y18900000D03*
X-48400000Y13300000D03*
X-48400000Y7700000D03*
X-49600000Y7700000D03*
X-48400000Y2100000D03*
X-49600000Y31800000D03*
X-48500000Y26200000D03*
X-48500000Y20600000D03*
X-49600000Y20600000D03*
X-48400000Y9400000D03*
X-49600000Y33500000D03*
X-48500000Y27900000D03*
X-48500000Y22300000D03*
X-48400000Y16700000D03*
X-49600000Y16700000D03*
X-49600000Y11100000D03*
X-48400000Y5500000D03*
X-49600000Y5500000D03*
X-49600000Y26200000D03*
X-49600000Y15000000D03*
X-49600000Y9400000D03*
X-49600000Y3800000D03*
X-49600000Y27900000D03*
X-49600000Y22300000D03*
X-49600000Y18900000D03*
X-49600000Y13300000D03*
X-49600000Y2100000D03*
X-62100000Y33500000D03*
X-62100000Y27900000D03*
X-62100000Y22300000D03*
X-62100000Y16700000D03*
X-62100000Y11100000D03*
X-62100000Y5500000D03*
X-62100000Y30100000D03*
X-62100000Y24500000D03*
X-62100000Y18900000D03*
X-62100000Y13300000D03*
X-62100000Y7700000D03*
X-62100000Y2100000D03*
X-62100000Y31800000D03*
X-62100000Y26200000D03*
X-62100000Y20600000D03*
X-62100000Y15000000D03*
X-62100000Y9400000D03*
X-62100000Y3800000D03*
X-21300000Y-100000D03*
X-21300000Y-3500000D03*
X-21300000Y-1800000D03*
X-22400000Y-100000D03*
X-22400000Y-1800000D03*
X-22400000Y-3500000D03*
X-48400000Y-100000D03*
X-48400000Y-3500000D03*
X-48400000Y-1800000D03*
X-49600000Y-100000D03*
X-49600000Y-3500000D03*
X-49600000Y-1800000D03*
X-62100000Y-1800000D03*
X-62100000Y-100000D03*
X-62100000Y-3500000D03*
X4900000Y16700000D03*
G04 #@! TO.N,/C1+*
X-28100000Y103400000D03*
X-28100000Y97800000D03*
X-28100000Y92200000D03*
X-28100000Y86600000D03*
X-28100000Y81000000D03*
X-28100000Y75400000D03*
X-28100000Y69800000D03*
X-28100000Y64200000D03*
X-28100000Y58600000D03*
X-28100000Y53000000D03*
X-28100000Y47400000D03*
X-28100000Y41800000D03*
X-28100000Y105100000D03*
X-28100000Y99500000D03*
X-28100000Y93900000D03*
X-28100000Y88300000D03*
X-28100000Y82700000D03*
X-28100000Y77100000D03*
X-28100000Y71500000D03*
X-28100000Y65900000D03*
X-28100000Y60300000D03*
X-28100000Y54700000D03*
X-28100000Y49100000D03*
X-28100000Y43500000D03*
X-28100000Y101700000D03*
X-28100000Y96100000D03*
X-28100000Y90500000D03*
X-28100000Y84900000D03*
X-28100000Y79300000D03*
X-28100000Y73700000D03*
X-28100000Y68100000D03*
X-28100000Y62500000D03*
X-28100000Y56900000D03*
X-28100000Y51300000D03*
X-28100000Y45700000D03*
X-28100000Y40100000D03*
X-29200000Y103400000D03*
X-29200000Y97800000D03*
X-29200000Y92200000D03*
X-29200000Y86600000D03*
X-29200000Y81000000D03*
X-29200000Y75400000D03*
X-29200000Y69800000D03*
X-29200000Y64200000D03*
X-29200000Y58600000D03*
X-29200000Y53000000D03*
X-29200000Y47400000D03*
X-29200000Y41800000D03*
X-29200000Y101700000D03*
X-29200000Y96100000D03*
X-29200000Y90500000D03*
X-29200000Y84900000D03*
X-29200000Y79300000D03*
X-29200000Y73700000D03*
X-29200000Y68100000D03*
X-29200000Y62500000D03*
X-29200000Y56900000D03*
X-29200000Y51300000D03*
X-29200000Y45700000D03*
X-29200000Y40100000D03*
X-29200000Y105100000D03*
X-29200000Y99500000D03*
X-29200000Y93900000D03*
X-29200000Y88300000D03*
X-29200000Y82700000D03*
X-29200000Y77100000D03*
X-29200000Y71500000D03*
X-29200000Y65900000D03*
X-29200000Y60300000D03*
X-29200000Y54700000D03*
X-29200000Y49100000D03*
X-29200000Y43500000D03*
X-41700000Y103400000D03*
X-41700000Y97800000D03*
X-41700000Y92200000D03*
X-41700000Y86600000D03*
X-41700000Y81000000D03*
X-41700000Y75400000D03*
X-41700000Y69800000D03*
X-41700000Y64200000D03*
X-41700000Y58600000D03*
X-41700000Y53000000D03*
X-41700000Y47400000D03*
X-41700000Y41800000D03*
X-41700000Y101700000D03*
X-41700000Y96100000D03*
X-41700000Y90500000D03*
X-41700000Y84900000D03*
X-41700000Y79300000D03*
X-41700000Y73700000D03*
X-41700000Y68100000D03*
X-41700000Y62500000D03*
X-41700000Y56900000D03*
X-41700000Y51300000D03*
X-41700000Y45700000D03*
X-41700000Y40100000D03*
X-41700000Y105100000D03*
X-41700000Y99500000D03*
X-41700000Y93900000D03*
X-41700000Y88300000D03*
X-41700000Y82700000D03*
X-41700000Y77100000D03*
X-41700000Y71500000D03*
X-41700000Y65900000D03*
X-41700000Y60300000D03*
X-41700000Y54700000D03*
X-41700000Y49100000D03*
X-41700000Y43500000D03*
X-42800000Y101700000D03*
X-42800000Y96100000D03*
X-42800000Y90500000D03*
X-42800000Y84900000D03*
X-42800000Y79300000D03*
X-42800000Y73700000D03*
X-42800000Y68100000D03*
X-42800000Y62500000D03*
X-42800000Y56900000D03*
X-42800000Y51300000D03*
X-42800000Y45700000D03*
X-42800000Y40100000D03*
X-42800000Y103400000D03*
X-42800000Y97800000D03*
X-42800000Y92200000D03*
X-42800000Y86600000D03*
X-42800000Y81000000D03*
X-42800000Y75400000D03*
X-42800000Y69800000D03*
X-42800000Y64200000D03*
X-42800000Y58600000D03*
X-42800000Y53000000D03*
X-42800000Y47400000D03*
X-42800000Y41800000D03*
X-42800000Y105100000D03*
X-42800000Y99500000D03*
X-42800000Y93900000D03*
X-42800000Y88300000D03*
X-42800000Y82700000D03*
X-42800000Y77100000D03*
X-42800000Y71500000D03*
X-42800000Y65900000D03*
X-42800000Y60300000D03*
X-42800000Y54700000D03*
X-42800000Y49100000D03*
X-42800000Y43500000D03*
X-55300000Y103400000D03*
X-55300000Y97800000D03*
X-55300000Y92200000D03*
X-55300000Y86600000D03*
X-55300000Y81000000D03*
X-55300000Y75400000D03*
X-55300000Y69800000D03*
X-55300000Y64200000D03*
X-55300000Y58600000D03*
X-55300000Y53000000D03*
X-55300000Y47400000D03*
X-55300000Y41800000D03*
X-55300000Y101700000D03*
X-55300000Y96100000D03*
X-55300000Y90500000D03*
X-55300000Y84900000D03*
X-55300000Y79300000D03*
X-55300000Y73700000D03*
X-55300000Y68100000D03*
X-55300000Y62500000D03*
X-55300000Y56900000D03*
X-55300000Y51300000D03*
X-55300000Y45700000D03*
X-55300000Y40100000D03*
X-55300000Y105100000D03*
X-55300000Y99500000D03*
X-55300000Y93900000D03*
X-55300000Y88300000D03*
X-55300000Y82700000D03*
X-55300000Y77100000D03*
X-55300000Y71500000D03*
X-55300000Y65900000D03*
X-55300000Y60300000D03*
X-55300000Y54700000D03*
X-55300000Y49100000D03*
X-55300000Y43500000D03*
X-56400000Y101700000D03*
X-56400000Y96100000D03*
X-56400000Y90500000D03*
X-56400000Y84900000D03*
X-56400000Y79300000D03*
X-56400000Y73700000D03*
X-56400000Y68100000D03*
X-56400000Y62500000D03*
X-56400000Y56900000D03*
X-56400000Y51300000D03*
X-56400000Y45700000D03*
X-56400000Y40100000D03*
X-56400000Y103400000D03*
X-56400000Y97800000D03*
X-56400000Y92200000D03*
X-56400000Y86600000D03*
X-56400000Y81000000D03*
X-56400000Y75400000D03*
X-56400000Y69800000D03*
X-56400000Y64200000D03*
X-56400000Y58600000D03*
X-56400000Y53000000D03*
X-56400000Y47400000D03*
X-56400000Y41800000D03*
X-56400000Y105100000D03*
X-56400000Y99500000D03*
X-56400000Y93900000D03*
X-56400000Y88300000D03*
X-56400000Y82700000D03*
X-56400000Y77100000D03*
X-56400000Y71500000D03*
X-56400000Y65900000D03*
X-56400000Y60300000D03*
X-56400000Y54700000D03*
X-56400000Y49100000D03*
X-56400000Y43500000D03*
X-15600000Y103400000D03*
X-15600000Y97800000D03*
X-15600000Y92200000D03*
X-15600000Y86600000D03*
X-15600000Y81000000D03*
X-15600000Y75400000D03*
X-15600000Y69800000D03*
X-15600000Y64200000D03*
X-15600000Y58600000D03*
X-15600000Y53000000D03*
X-15600000Y47400000D03*
X-15600000Y41800000D03*
X-15600000Y105100000D03*
X-15600000Y99500000D03*
X-15600000Y93900000D03*
X-15600000Y88300000D03*
X-15600000Y82700000D03*
X-15600000Y77100000D03*
X-15600000Y71500000D03*
X-15600000Y65900000D03*
X-15600000Y60300000D03*
X-15600000Y54700000D03*
X-15600000Y49100000D03*
X-15600000Y43500000D03*
X-15600000Y101700000D03*
X-15600000Y96100000D03*
X-15600000Y90500000D03*
X-15600000Y84900000D03*
X-15600000Y79300000D03*
X-15600000Y73700000D03*
X-15600000Y68100000D03*
X-15600000Y62500000D03*
X-15600000Y56900000D03*
X-15600000Y51300000D03*
X-15600000Y45700000D03*
X-15600000Y40100000D03*
X-14500000Y101700000D03*
X-14500000Y96100000D03*
X-14500000Y90500000D03*
X-14500000Y84900000D03*
X-14500000Y79300000D03*
X-14500000Y73700000D03*
X-14500000Y68100000D03*
X-14500000Y62500000D03*
X-14500000Y56900000D03*
X-14500000Y51300000D03*
X-14500000Y45700000D03*
X-14500000Y40100000D03*
X-14500000Y105100000D03*
X-14500000Y99500000D03*
X-14500000Y93900000D03*
X-14500000Y88300000D03*
X-14500000Y82700000D03*
X-14500000Y77100000D03*
X-14500000Y71500000D03*
X-14500000Y65900000D03*
X-14500000Y60300000D03*
X-14500000Y54700000D03*
X-14500000Y49100000D03*
X-14500000Y43500000D03*
X-14500000Y103400000D03*
X-14500000Y97800000D03*
X-14500000Y92200000D03*
X-14500000Y86600000D03*
X-14500000Y81000000D03*
X-14500000Y75400000D03*
X-14500000Y69800000D03*
X-14500000Y64200000D03*
X-14500000Y58600000D03*
X-14500000Y53000000D03*
X-14500000Y47400000D03*
X-14500000Y41800000D03*
X-1900000Y103400000D03*
X-1900000Y97800000D03*
X-1900000Y92200000D03*
X-1900000Y86600000D03*
X-1900000Y81000000D03*
X-1900000Y75400000D03*
X-1900000Y69800000D03*
X-1900000Y64200000D03*
X-1900000Y58600000D03*
X-1900000Y53000000D03*
X-1900000Y47400000D03*
X-1900000Y41800000D03*
X-1900000Y101700000D03*
X-1900000Y96100000D03*
X-1900000Y90500000D03*
X-1900000Y84900000D03*
X-1900000Y79300000D03*
X-1900000Y73700000D03*
X-1900000Y68100000D03*
X-1900000Y62500000D03*
X-1900000Y56900000D03*
X-1900000Y51300000D03*
X-1900000Y45700000D03*
X-1900000Y40100000D03*
X-1900000Y105100000D03*
X-1900000Y99500000D03*
X-1900000Y93900000D03*
X-1900000Y88300000D03*
X-1900000Y82700000D03*
X-1900000Y77100000D03*
X-1900000Y71500000D03*
X-1900000Y65900000D03*
X-1900000Y60300000D03*
X-1900000Y54700000D03*
X-1900000Y49100000D03*
X-1900000Y43500000D03*
X-800000Y103400000D03*
X-800000Y97800000D03*
X-800000Y92200000D03*
X-800000Y86600000D03*
X-800000Y81000000D03*
X-800000Y75400000D03*
X-800000Y69800000D03*
X-800000Y64200000D03*
X-800000Y58600000D03*
X-800000Y53000000D03*
X-800000Y47400000D03*
X-800000Y41800000D03*
X-800000Y101700000D03*
X-800000Y96100000D03*
X-800000Y90500000D03*
X-800000Y84900000D03*
X-800000Y79300000D03*
X-800000Y73700000D03*
X-800000Y68100000D03*
X-800000Y62500000D03*
X-800000Y56900000D03*
X-800000Y51300000D03*
X-800000Y45700000D03*
X-800000Y40100000D03*
X-800000Y105100000D03*
X-800000Y99500000D03*
X-800000Y93900000D03*
X-800000Y88300000D03*
X-800000Y82700000D03*
X-800000Y77100000D03*
X-800000Y71500000D03*
X-800000Y65900000D03*
X-800000Y60300000D03*
X-800000Y54700000D03*
X-800000Y49100000D03*
X-800000Y43500000D03*
X-800000Y33500000D03*
X-800000Y30100000D03*
X-800000Y31800000D03*
X11800000Y103400000D03*
X11800000Y97800000D03*
X11800000Y92200000D03*
X11800000Y86600000D03*
X11800000Y81000000D03*
X11800000Y75400000D03*
X11800000Y69800000D03*
X11800000Y64200000D03*
X11800000Y58600000D03*
X11800000Y53000000D03*
X11800000Y47400000D03*
X11800000Y41800000D03*
X11800000Y105100000D03*
X11800000Y99500000D03*
X11800000Y93900000D03*
X11800000Y88300000D03*
X11800000Y82700000D03*
X11800000Y77100000D03*
X11800000Y71500000D03*
X11800000Y65900000D03*
X11800000Y60300000D03*
X11800000Y54700000D03*
X11800000Y49100000D03*
X11800000Y43500000D03*
X11800000Y101700000D03*
X11800000Y96100000D03*
X11800000Y90500000D03*
X11800000Y84900000D03*
X11800000Y79300000D03*
X11800000Y73700000D03*
X11800000Y68100000D03*
X11800000Y62500000D03*
X11800000Y56900000D03*
X11800000Y51300000D03*
X11800000Y45700000D03*
X11800000Y40100000D03*
X-800000Y27900000D03*
X-800000Y5500000D03*
X-800000Y9400000D03*
X-800000Y24500000D03*
X-800000Y18900000D03*
X-800000Y13300000D03*
X-1900000Y33500000D03*
X-800000Y22300000D03*
X-1900000Y22300000D03*
X-800000Y16700000D03*
X-1900000Y16700000D03*
X-800000Y11100000D03*
X-1900000Y11100000D03*
X-1900000Y5500000D03*
X-1900000Y31800000D03*
X-800000Y26200000D03*
X-1900000Y26200000D03*
X-800000Y20600000D03*
X-1900000Y20600000D03*
X-800000Y15000000D03*
X-1900000Y15000000D03*
X-1900000Y9400000D03*
X-800000Y3800000D03*
X-1900000Y3800000D03*
X-1900000Y30100000D03*
X-1900000Y24500000D03*
X-1900000Y18900000D03*
X-1900000Y13300000D03*
X-800000Y7700000D03*
X-1900000Y7700000D03*
X-800000Y2100000D03*
X-1900000Y2100000D03*
X-14500000Y31800000D03*
X-14500000Y30100000D03*
X-14500000Y33500000D03*
X-14500000Y26200000D03*
X-14500000Y20600000D03*
X-14500000Y15000000D03*
X-14500000Y9400000D03*
X-14500000Y3800000D03*
X-14500000Y24500000D03*
X-14500000Y18900000D03*
X-14500000Y13300000D03*
X-14500000Y7700000D03*
X-14500000Y2100000D03*
X-14500000Y27900000D03*
X-14500000Y22300000D03*
X-14500000Y16700000D03*
X-14500000Y11100000D03*
X-14500000Y5500000D03*
X-15600000Y16700000D03*
X-15600000Y11100000D03*
X-15600000Y5500000D03*
X-15600000Y15000000D03*
X-15600000Y9400000D03*
X-15600000Y3800000D03*
X-15600000Y13300000D03*
X-15600000Y7700000D03*
X-15600000Y2100000D03*
X-28100000Y16700000D03*
X-28100000Y11100000D03*
X-28100000Y5500000D03*
X-28100000Y13300000D03*
X-28100000Y15000000D03*
X-28100000Y3800000D03*
X-29200000Y16700000D03*
X-29200000Y11100000D03*
X-28100000Y-100000D03*
X-29200000Y-100000D03*
X-29200000Y13300000D03*
X-28100000Y7700000D03*
X-28100000Y2100000D03*
X-28100000Y-3500000D03*
X-29200000Y-3500000D03*
X-29200000Y15000000D03*
X-28100000Y9400000D03*
X-29200000Y3800000D03*
X-28100000Y-1800000D03*
X-29200000Y-1800000D03*
X-29200000Y5500000D03*
X-29200000Y-100000D03*
X-29200000Y7700000D03*
X-29200000Y2100000D03*
X-29200000Y-3500000D03*
X-29200000Y9400000D03*
X-29200000Y-1800000D03*
X-41700000Y27900000D03*
X-41700000Y22300000D03*
X-41700000Y16700000D03*
X-41700000Y11100000D03*
X-41700000Y5500000D03*
X-41700000Y20600000D03*
X-41700000Y15000000D03*
X-41700000Y3800000D03*
X-42800000Y33500000D03*
X-42800000Y22300000D03*
X-42700000Y16700000D03*
X-42700000Y5500000D03*
X-42800000Y30100000D03*
X-41700000Y24500000D03*
X-41700000Y18900000D03*
X-41700000Y13300000D03*
X-41700000Y7700000D03*
X-41700000Y2100000D03*
X-42800000Y31800000D03*
X-41700000Y26200000D03*
X-42800000Y26200000D03*
X-42800000Y20600000D03*
X-42700000Y15000000D03*
X-41700000Y9400000D03*
X-42700000Y3800000D03*
X-42800000Y27900000D03*
X-42700000Y11100000D03*
X-42800000Y24500000D03*
X-42800000Y18900000D03*
X-42700000Y13300000D03*
X-42700000Y7700000D03*
X-42700000Y2100000D03*
X-42700000Y9400000D03*
X-55300000Y31800000D03*
X-55300000Y26200000D03*
X-55300000Y15000000D03*
X-55300000Y3800000D03*
X-55300000Y33500000D03*
X-55300000Y27900000D03*
X-55300000Y22300000D03*
X-55300000Y16700000D03*
X-55300000Y11100000D03*
X-55300000Y5500000D03*
X-55300000Y30100000D03*
X-55300000Y13300000D03*
X-56400000Y31800000D03*
X-55300000Y20600000D03*
X-55300000Y9400000D03*
X-56400000Y9400000D03*
X-56400000Y3800000D03*
X-56400000Y30100000D03*
X-55300000Y24500000D03*
X-55300000Y18900000D03*
X-56400000Y13300000D03*
X-55300000Y7700000D03*
X-56400000Y7700000D03*
X-55300000Y2100000D03*
X-56400000Y33500000D03*
X-56400000Y16700000D03*
X-55300000Y11100000D03*
X-56400000Y5500000D03*
X-56400000Y27900000D03*
X-56400000Y22300000D03*
X-56400000Y11100000D03*
X-56400000Y24500000D03*
X-56400000Y18900000D03*
X-56400000Y2100000D03*
X-56400000Y26200000D03*
X-56400000Y20600000D03*
X-56400000Y15000000D03*
X-15600000Y-100000D03*
X-15600000Y-1800000D03*
X-15600000Y-3500000D03*
X-41700000Y-3500000D03*
X-41700000Y-1800000D03*
X-42700000Y-3500000D03*
X-42700000Y-1800000D03*
X-42700000Y-100000D03*
X-41700000Y-100000D03*
X-55300000Y-100000D03*
X-55300000Y-3500000D03*
X-55300000Y-1800000D03*
X-56400000Y-1800000D03*
X-56400000Y-100000D03*
X-56400000Y-3500000D03*
X-1900000Y27900000D03*
X12900000Y103400000D03*
X12900000Y105100000D03*
X12900000Y101700000D03*
G04 #@! TO.N,/C1-*
X18600000Y103400000D03*
G04 #@! TO.N,/C1+*
X12900000Y97800000D03*
G04 #@! TO.N,/C1-*
X18600000Y97800000D03*
G04 #@! TO.N,/C1+*
X12900000Y92200000D03*
G04 #@! TO.N,/C1-*
X18600000Y92200000D03*
G04 #@! TO.N,/C1+*
X12900000Y86600000D03*
G04 #@! TO.N,/C1-*
X18600000Y86600000D03*
G04 #@! TO.N,/C1+*
X12900000Y81000000D03*
G04 #@! TO.N,/C1-*
X18600000Y81000000D03*
G04 #@! TO.N,/C1+*
X12900000Y75400000D03*
G04 #@! TO.N,/C1-*
X18600000Y75400000D03*
G04 #@! TO.N,/C1+*
X12900000Y69800000D03*
G04 #@! TO.N,/C1-*
X18600000Y69800000D03*
X18600000Y101700000D03*
G04 #@! TO.N,/C1+*
X12900000Y96100000D03*
G04 #@! TO.N,/C1-*
X18600000Y96100000D03*
G04 #@! TO.N,/C1+*
X12900000Y90500000D03*
G04 #@! TO.N,/C1-*
X18600000Y90500000D03*
G04 #@! TO.N,/C1+*
X12900000Y84900000D03*
G04 #@! TO.N,/C1-*
X18600000Y84900000D03*
G04 #@! TO.N,/C1+*
X12900000Y79300000D03*
G04 #@! TO.N,/C1-*
X18600000Y79300000D03*
G04 #@! TO.N,/C1+*
X12900000Y73700000D03*
G04 #@! TO.N,/C1-*
X18600000Y73700000D03*
G04 #@! TO.N,/C1+*
X12900000Y68100000D03*
G04 #@! TO.N,/C1-*
X18600000Y68100000D03*
X18600000Y105100000D03*
G04 #@! TO.N,/C1+*
X12900000Y99500000D03*
G04 #@! TO.N,/C1-*
X18600000Y99500000D03*
G04 #@! TO.N,/C1+*
X12900000Y93900000D03*
G04 #@! TO.N,/C1-*
X18600000Y93900000D03*
G04 #@! TO.N,/C1+*
X12900000Y88300000D03*
G04 #@! TO.N,/C1-*
X18600000Y88300000D03*
G04 #@! TO.N,/C1+*
X12900000Y82700000D03*
G04 #@! TO.N,/C1-*
X18600000Y82700000D03*
G04 #@! TO.N,/C1+*
X12900000Y77100000D03*
G04 #@! TO.N,/C1-*
X18600000Y77100000D03*
G04 #@! TO.N,/C1+*
X12900000Y71500000D03*
G04 #@! TO.N,/C1-*
X18600000Y71500000D03*
G04 #@! TO.N,/C2+*
X29200000Y43500000D03*
X29200000Y40100000D03*
X29200000Y41800000D03*
X29200000Y49100000D03*
X29200000Y54700000D03*
X29200000Y60300000D03*
X29200000Y65900000D03*
X29200000Y71500000D03*
X29200000Y77100000D03*
X29200000Y82700000D03*
X29200000Y88300000D03*
X29200000Y94000000D03*
X29200000Y99500000D03*
X29200000Y105100000D03*
X29200000Y45700000D03*
X29200000Y51300000D03*
X29200000Y56900000D03*
X29200000Y62500000D03*
X29200000Y68100000D03*
X29200000Y73700000D03*
X29200000Y79300000D03*
X29200000Y84900000D03*
X29200000Y90500000D03*
X29200000Y96100000D03*
X29200000Y101700000D03*
X29200000Y47400000D03*
X29200000Y53000000D03*
X29200000Y58600000D03*
X29200000Y64200000D03*
X29200000Y69800000D03*
X29200000Y75390000D03*
X29200000Y81000000D03*
X29200000Y86600000D03*
X29200000Y92190000D03*
X29200000Y97800000D03*
X29200000Y103400000D03*
X41700000Y41800000D03*
X41700000Y40100000D03*
X41700000Y43500000D03*
X41700000Y49100000D03*
X41700000Y54700000D03*
X41700000Y60300000D03*
X41700000Y65900000D03*
X41700000Y71500000D03*
X41700000Y77100000D03*
X41700000Y82700000D03*
X41700000Y88300000D03*
X41700000Y94000000D03*
X41700000Y99500000D03*
X41700000Y105100000D03*
X41700000Y47400000D03*
X41700000Y53000000D03*
X41700000Y58600000D03*
X41700000Y64200000D03*
X41700000Y69800000D03*
X41700000Y75400000D03*
X41700000Y81000000D03*
X41700000Y86600000D03*
X41700000Y92200000D03*
X41700000Y97800000D03*
X41700000Y103400000D03*
X41700000Y45700000D03*
X41700000Y51300000D03*
X41700000Y56900000D03*
X41700000Y62500000D03*
X41700000Y68100000D03*
X41700000Y73700000D03*
X41700000Y79300000D03*
X41700000Y84900000D03*
X41700000Y90500000D03*
X41700000Y96100000D03*
X41700000Y101700000D03*
X42800000Y103400000D03*
X42800000Y97800000D03*
X42800000Y92200000D03*
X42800000Y86600000D03*
X42800000Y81000000D03*
X42800000Y75400000D03*
X42800000Y69800000D03*
X42800000Y64200000D03*
X42800000Y58600000D03*
X42800000Y53000000D03*
X42800000Y47400000D03*
X42800000Y41800000D03*
X42800000Y105100000D03*
X42800000Y99500000D03*
X42800000Y94000000D03*
X42800000Y88300000D03*
X42800000Y82700000D03*
X42800000Y77100000D03*
X42800000Y71500000D03*
X42800000Y65900000D03*
X42800000Y60300000D03*
X42800000Y54700000D03*
X42800000Y49100000D03*
X42800000Y43500000D03*
X42800000Y101700000D03*
X42800000Y96100000D03*
X42800000Y90500000D03*
X42800000Y84900000D03*
X42800000Y79300000D03*
X42800000Y73700000D03*
X42800000Y68100000D03*
X42800000Y62500000D03*
X42800000Y56900000D03*
X42800000Y51300000D03*
X42800000Y45700000D03*
X42800000Y40100000D03*
X55300000Y101700000D03*
X55300000Y96100000D03*
X55300000Y90500000D03*
X55300000Y84900000D03*
X55300000Y79300000D03*
X55300000Y73700000D03*
X55300000Y68100000D03*
X55300000Y62500000D03*
X55300000Y56900000D03*
X55300000Y51300000D03*
X55300000Y45700000D03*
X55300000Y40100000D03*
X55300000Y103400000D03*
X55300000Y97800000D03*
X55300000Y92200000D03*
X55300000Y86600000D03*
X55300000Y81000000D03*
X55300000Y75400000D03*
X55300000Y69800000D03*
X55300000Y64200000D03*
X55300000Y58600000D03*
X55300000Y53000000D03*
X55300000Y47400000D03*
X55300000Y41800000D03*
X55300000Y105100000D03*
X55300000Y99500000D03*
X55300000Y94000000D03*
X55300000Y88300000D03*
X55300000Y82700000D03*
X55300000Y77100000D03*
X55300000Y71500000D03*
X55300000Y65900000D03*
X55300000Y60300000D03*
X55300000Y54700000D03*
X55300000Y49100000D03*
X55300000Y43500000D03*
X56400000Y105100000D03*
X56400000Y99500000D03*
X56400000Y94000000D03*
X56400000Y88300000D03*
X56400000Y82700000D03*
X56400000Y77100000D03*
X56400000Y71500000D03*
X56400000Y65900000D03*
X56400000Y60300000D03*
X56400000Y54700000D03*
X56400000Y49100000D03*
X56400000Y43500000D03*
X56400000Y101700000D03*
X56400000Y96100000D03*
X56400000Y90500000D03*
X56400000Y84900000D03*
X56400000Y79300000D03*
X56400000Y73700000D03*
X56400000Y68100000D03*
X56400000Y62500000D03*
X56400000Y56900000D03*
X56400000Y51300000D03*
X56400000Y45700000D03*
X56400000Y40100000D03*
X56400000Y103400000D03*
X56400000Y97800000D03*
X56400000Y92200000D03*
X56400000Y86600000D03*
X56400000Y81000000D03*
X56400000Y75400000D03*
X56400000Y69800000D03*
X56400000Y64200000D03*
X56400000Y58600000D03*
X56400000Y53000000D03*
X56400000Y47400000D03*
X56400000Y41800000D03*
X41700000Y21500000D03*
X41700000Y15900000D03*
X41700000Y10300000D03*
X41700000Y4700000D03*
X41700000Y-900000D03*
X41700000Y19700000D03*
X41700000Y14100000D03*
X41700000Y8500000D03*
X41700000Y2900000D03*
X41700000Y-2700000D03*
X41700000Y18000000D03*
X41700000Y12400000D03*
X41700000Y6800000D03*
X41700000Y1200000D03*
X41700000Y-4400000D03*
X42800000Y21500000D03*
X42800000Y15900000D03*
X42800000Y10300000D03*
X42800000Y4700000D03*
X42800000Y-900000D03*
X42800000Y19700000D03*
X42800000Y14100000D03*
X42800000Y8500000D03*
X42800000Y2900000D03*
X42800000Y-2700000D03*
X42800000Y18000000D03*
X42800000Y12400000D03*
X42800000Y6800000D03*
X42800000Y1200000D03*
X42800000Y-4400000D03*
X55300000Y19700000D03*
X55300000Y14100000D03*
X55300000Y8500000D03*
X55300000Y2900000D03*
X55300000Y-2700000D03*
X55300000Y18000000D03*
X55300000Y12400000D03*
X55300000Y6800000D03*
X55300000Y1200000D03*
X55300000Y-4400000D03*
X55300000Y21500000D03*
X55300000Y15900000D03*
X55300000Y10300000D03*
X55300000Y4700000D03*
X55300000Y-900000D03*
X56400000Y19700000D03*
X56400000Y14100000D03*
X56400000Y8500000D03*
X56400000Y2900000D03*
X56400000Y-2700000D03*
X56400000Y21500000D03*
X56400000Y15900000D03*
X56400000Y10300000D03*
X56400000Y4700000D03*
X56400000Y-900000D03*
X56400000Y18000000D03*
X56400000Y12400000D03*
X56400000Y6800000D03*
X56400000Y1200000D03*
X56400000Y-4400000D03*
X42800000Y32700000D03*
X42800000Y30900000D03*
X42800000Y29200000D03*
X55300000Y30900000D03*
X55300000Y29200000D03*
X55300000Y32700000D03*
X56400000Y30900000D03*
X56400000Y32700000D03*
X56400000Y29200000D03*
X56400000Y23600000D03*
X56400000Y27100000D03*
X56400000Y25300000D03*
X55300000Y27100000D03*
X55300000Y23600000D03*
X55300000Y25300000D03*
X41700000Y23600000D03*
X41700000Y25300000D03*
X41700000Y27100000D03*
X42800000Y23600000D03*
X42800000Y25300000D03*
X42800000Y27100000D03*
X29200000Y15900000D03*
X29200000Y1200000D03*
X29200000Y-900000D03*
X29200000Y8500000D03*
X29200000Y6800000D03*
X29200000Y2900000D03*
X29200000Y10300000D03*
X29200000Y4700000D03*
X29200000Y-2700000D03*
X29200000Y-4400000D03*
X29200000Y14100000D03*
X29200000Y12400000D03*
X28100000Y10300000D03*
X28100000Y2900000D03*
X28100000Y4700000D03*
X28100000Y8500000D03*
X28100000Y6800000D03*
X28100000Y1200000D03*
X28100000Y-900000D03*
X28100000Y-2700000D03*
X28100000Y-4400000D03*
X28100000Y15900000D03*
X28100000Y14100000D03*
X28100000Y12400000D03*
G04 #@! TO.N,/C2-*
X34900000Y105100000D03*
X34900000Y103400000D03*
X34900000Y101700000D03*
X34900000Y97800000D03*
X34900000Y92190000D03*
X34900000Y86600000D03*
X34900000Y81000000D03*
X34900000Y75400000D03*
X34900000Y69800000D03*
X34900000Y64200000D03*
X34900000Y58600000D03*
X34900000Y96100000D03*
X34900000Y90500000D03*
X34900000Y84900000D03*
X34900000Y79300000D03*
X34900000Y73700000D03*
X34900000Y68100000D03*
X34900000Y62500000D03*
X34900000Y56900000D03*
X34900000Y99500000D03*
X34900000Y94000000D03*
X34900000Y88300000D03*
X34900000Y82700000D03*
X34900000Y77100000D03*
X34900000Y71500000D03*
X34900000Y65900000D03*
X34900000Y60300000D03*
X34900000Y53000000D03*
X34900000Y47400000D03*
X34900000Y41800000D03*
X34900000Y51300000D03*
X34900000Y45700000D03*
X34900000Y40100000D03*
X34900000Y54700000D03*
X34900000Y49100000D03*
X34900000Y43500000D03*
X36000000Y103400000D03*
X36000000Y97800000D03*
X36000000Y92200000D03*
X36000000Y86600000D03*
X36000000Y81000000D03*
X36000000Y75400000D03*
X36000000Y69800000D03*
X36000000Y64200000D03*
X36000000Y58600000D03*
X36000000Y53000000D03*
X36000000Y47400000D03*
X36000000Y41800000D03*
X36000000Y105100000D03*
X36000000Y99500000D03*
X36000000Y94000000D03*
X36000000Y88300000D03*
X36000000Y82700000D03*
X36000000Y77100000D03*
X36000000Y71500000D03*
X36000000Y65900000D03*
X36000000Y60300000D03*
X36000000Y54700000D03*
X36000000Y49100000D03*
X36000000Y43500000D03*
X36000000Y101700000D03*
X36000000Y96100000D03*
X36000000Y90500000D03*
X36000000Y84900000D03*
X36000000Y79300000D03*
X36000000Y73700000D03*
X36000000Y68100000D03*
X36000000Y62500000D03*
X36000000Y56900000D03*
X36000000Y51300000D03*
X36000000Y45700000D03*
X36000000Y40100000D03*
X48600000Y105100000D03*
X48600000Y99500000D03*
X48600000Y94000000D03*
X48600000Y88300000D03*
X48600000Y82700000D03*
X48600000Y77100000D03*
X48600000Y71500000D03*
X48600000Y65900000D03*
X48600000Y60300000D03*
X48600000Y54700000D03*
X48600000Y49100000D03*
X48600000Y43500000D03*
X48600000Y101700000D03*
X48600000Y96100000D03*
X48600000Y90500000D03*
X48600000Y84900000D03*
X48600000Y79300000D03*
X48600000Y73700000D03*
X48600000Y68100000D03*
X48600000Y62500000D03*
X48600000Y56900000D03*
X48600000Y51300000D03*
X48600000Y45700000D03*
X48600000Y40100000D03*
X48600000Y103400000D03*
X48600000Y97800000D03*
X48600000Y92200000D03*
X48600000Y86600000D03*
X48600000Y81000000D03*
X48600000Y75400000D03*
X48600000Y69800000D03*
X48600000Y64200000D03*
X48600000Y58600000D03*
X48600000Y53000000D03*
X48600000Y47400000D03*
X48600000Y41800000D03*
X49600000Y101700000D03*
X49600000Y96100000D03*
X49600000Y90500000D03*
X49600000Y84900000D03*
X49600000Y79300000D03*
X49600000Y73700000D03*
X49600000Y68100000D03*
X49600000Y62500000D03*
X49600000Y56900000D03*
X49600000Y51300000D03*
X49600000Y45700000D03*
X49600000Y40100000D03*
X49600000Y105100000D03*
X49600000Y99500000D03*
X49600000Y94000000D03*
X49600000Y88300000D03*
X49600000Y82700000D03*
X49600000Y77100000D03*
X49600000Y71500000D03*
X49600000Y65900000D03*
X49600000Y60300000D03*
X49600000Y54700000D03*
X49600000Y49100000D03*
X49600000Y43500000D03*
X49600000Y103400000D03*
X49600000Y97800000D03*
X49600000Y92200000D03*
X49600000Y86600000D03*
X49600000Y81000000D03*
X49600000Y75400000D03*
X49600000Y69800000D03*
X49600000Y64200000D03*
X49600000Y58600000D03*
X49600000Y53000000D03*
X49600000Y47400000D03*
X49600000Y41800000D03*
X62100000Y105100000D03*
X62100000Y99500000D03*
X62100000Y94000000D03*
X62100000Y88300000D03*
X62100000Y82700000D03*
X62100000Y77100000D03*
X62100000Y71500000D03*
X62100000Y65900000D03*
X62100000Y60300000D03*
X62100000Y54700000D03*
X62100000Y49100000D03*
X62100000Y43500000D03*
X62100000Y101700000D03*
X62100000Y96100000D03*
X62100000Y90500000D03*
X62100000Y84900000D03*
X62100000Y79300000D03*
X62100000Y73700000D03*
X62100000Y68100000D03*
X62100000Y62500000D03*
X62100000Y56900000D03*
X62100000Y51300000D03*
X62100000Y45700000D03*
X62100000Y40100000D03*
X62100000Y103400000D03*
X62100000Y97800000D03*
X62100000Y92200000D03*
X62100000Y86600000D03*
X62100000Y81000000D03*
X62100000Y75400000D03*
X62100000Y69800000D03*
X62100000Y64200000D03*
X62100000Y58600000D03*
X62100000Y53000000D03*
X62100000Y47400000D03*
X62100000Y41800000D03*
X36000000Y19700000D03*
X36000000Y14100000D03*
X36000000Y8500000D03*
X36000000Y2900000D03*
X36000000Y-2700000D03*
X36000000Y18000000D03*
X36000000Y12400000D03*
X36000000Y6800000D03*
X36000000Y1200000D03*
X36000000Y-4400000D03*
X36000000Y21500000D03*
X36000000Y15900000D03*
X36000000Y10300000D03*
X36000000Y4700000D03*
X36000000Y-900000D03*
X48600000Y18000000D03*
X48600000Y12400000D03*
X48600000Y6800000D03*
X48600000Y1200000D03*
X48600000Y-4400000D03*
X48600000Y19700000D03*
X48600000Y14100000D03*
X48600000Y8500000D03*
X48600000Y2900000D03*
X48600000Y-2700000D03*
X48600000Y21500000D03*
X48600000Y15900000D03*
X48600000Y10300000D03*
X48600000Y4700000D03*
X48600000Y-900000D03*
X49600000Y21500000D03*
X49600000Y15900000D03*
X49600000Y10300000D03*
X49600000Y4700000D03*
X49600000Y-900000D03*
X49600000Y19700000D03*
X49600000Y14100000D03*
X49600000Y8500000D03*
X49600000Y2900000D03*
X49600000Y-2700000D03*
X49600000Y18000000D03*
X49600000Y12400000D03*
X49600000Y6800000D03*
X49600000Y1200000D03*
X49600000Y-4400000D03*
X62100000Y21500000D03*
X62100000Y15900000D03*
X62100000Y10300000D03*
X62100000Y4700000D03*
X62100000Y-900000D03*
X62100000Y18000000D03*
X62100000Y12400000D03*
X62100000Y6800000D03*
X62100000Y1200000D03*
X62100000Y-4400000D03*
X62100000Y19700000D03*
X62100000Y14100000D03*
X62100000Y8500000D03*
X62100000Y2900000D03*
X62100000Y-2700000D03*
X48600000Y29200000D03*
X48600000Y30900000D03*
X48600000Y32700000D03*
X49600000Y32700000D03*
X49600000Y30900000D03*
X49600000Y29200000D03*
X62100000Y32700000D03*
X62100000Y29200000D03*
X62100000Y30900000D03*
X36000000Y27100000D03*
X36000000Y23600000D03*
X36000000Y25300000D03*
X62100000Y25300000D03*
X62100000Y23600000D03*
X62100000Y27100000D03*
X48600000Y27100000D03*
X48600000Y25300000D03*
X48600000Y23600000D03*
X49600000Y23600000D03*
X49600000Y25300000D03*
X49600000Y27100000D03*
X34900000Y8500000D03*
X34900000Y15900000D03*
X34900000Y1200000D03*
X34900000Y-900000D03*
X34900000Y2900000D03*
X34900000Y6800000D03*
X34900000Y4700000D03*
X34900000Y10300000D03*
X34900000Y12400000D03*
X34900000Y-2700000D03*
X34900000Y-4400000D03*
X34900000Y14100000D03*
X22400000Y6800000D03*
X22400000Y10300000D03*
X22400000Y2900000D03*
X22400000Y4700000D03*
X22400000Y8500000D03*
X22400000Y1200000D03*
X22400000Y15900000D03*
X22400000Y14100000D03*
X22400000Y12400000D03*
X22400000Y-2700000D03*
X22400000Y-900000D03*
X22400000Y-4400000D03*
X21300000Y14100000D03*
X21300000Y12400000D03*
X21300000Y15900000D03*
G04 #@! TO.N,/C2+*
X15700000Y14100000D03*
X15700000Y12400000D03*
X15700000Y15900000D03*
X15700000Y6800000D03*
X15700000Y1200000D03*
X15700000Y-4400000D03*
X15700000Y8500000D03*
X15700000Y2900000D03*
X15700000Y-2700000D03*
X15700000Y10300000D03*
X15700000Y4700000D03*
X15700000Y-900000D03*
X14600000Y8500000D03*
X14600000Y10300000D03*
X14600000Y6800000D03*
X14600000Y12400000D03*
X14600000Y14100000D03*
X14600000Y15900000D03*
G04 #@! TO.N,/C2-*
X8800000Y8500000D03*
X8800000Y10300000D03*
X8800000Y6800000D03*
X8800000Y12400000D03*
X8800000Y14100000D03*
X8800000Y15900000D03*
X21300000Y8500000D03*
X21300000Y2900000D03*
X21300000Y-2700000D03*
X21300000Y6800000D03*
X21300000Y1200000D03*
X21300000Y-4400000D03*
X21300000Y10300000D03*
X21300000Y4700000D03*
X21300000Y-900000D03*
G04 #@! TD*
D14*
G04 #@! TO.N,/C2+*
G36*
X29247964Y106027285D02*
X29493865Y105871373D01*
X29659404Y105631853D01*
X29720963Y105333944D01*
X29931727Y41130233D01*
X29932552Y41116187D01*
X30012550Y40418304D01*
X30018819Y40390914D01*
X30250315Y39727703D01*
X30262452Y39702361D01*
X30634114Y39106284D01*
X30651527Y39084232D01*
X31145161Y38584468D01*
X31166997Y38566785D01*
X31758443Y38187796D01*
X31783632Y38175346D01*
X32443936Y37935684D01*
X32471247Y37929078D01*
X33168089Y37840474D01*
X33182124Y37839475D01*
X37659442Y37769521D01*
X37673836Y37770114D01*
X38389523Y37840382D01*
X38417648Y37846416D01*
X39099164Y38075940D01*
X39125209Y38088150D01*
X39737592Y38465155D01*
X39760222Y38482912D01*
X40272056Y38988057D01*
X40290109Y39010451D01*
X40675136Y39617822D01*
X40687687Y39643705D01*
X40926155Y40322144D01*
X40932559Y40350187D01*
X41012235Y41064887D01*
X41013017Y41079272D01*
X40857471Y104071591D01*
X40924917Y104489368D01*
X41117369Y104854457D01*
X41416334Y105138958D01*
X41790510Y105313084D01*
X42201415Y105358673D01*
X42626171Y105271006D01*
X43006052Y105060240D01*
X43305737Y104745726D01*
X43497925Y104356116D01*
X43566611Y103917281D01*
X43803110Y41008587D01*
X43803958Y40994404D01*
X43885832Y40289865D01*
X43892234Y40262226D01*
X44128471Y39593444D01*
X44140850Y39567915D01*
X44519660Y38968264D01*
X44537396Y38946121D01*
X45039874Y38445528D01*
X45062084Y38427874D01*
X45663155Y38051321D01*
X45688730Y38039039D01*
X46358396Y37805318D01*
X46386059Y37799020D01*
X47090900Y37719795D01*
X47105086Y37719000D01*
X51424534Y37719000D01*
X51438783Y37719802D01*
X52146742Y37799738D01*
X52174523Y37806092D01*
X52846834Y38041876D01*
X52872499Y38054266D01*
X53475308Y38434026D01*
X53497563Y38451825D01*
X54000517Y38956437D01*
X54018244Y38978752D01*
X54396017Y39582807D01*
X54408321Y39608512D01*
X54641891Y40281596D01*
X54648154Y40309397D01*
X54725760Y41017615D01*
X54726515Y41031867D01*
X54517483Y104547234D01*
X54579241Y104942796D01*
X54756358Y105290433D01*
X55032835Y105565727D01*
X55381230Y105741351D01*
X55767095Y105799898D01*
X56155288Y105735695D01*
X56505021Y105555153D01*
X56782271Y105275792D01*
X56960158Y104924696D01*
X57023000Y104525967D01*
X57023000Y-4305491D01*
X56933695Y-4754455D01*
X56686464Y-5124464D01*
X56316455Y-5371695D01*
X55880000Y-5458512D01*
X55443545Y-5371695D01*
X55073536Y-5124464D01*
X54826305Y-4754455D01*
X54737000Y-4305491D01*
X54737000Y32385000D01*
X54736201Y32399220D01*
X54656597Y33105724D01*
X54650269Y33133449D01*
X54415449Y33804526D01*
X54403110Y33830149D01*
X54024849Y34432148D01*
X54007118Y34454383D01*
X53504383Y34957118D01*
X53482148Y34974849D01*
X52880149Y35353110D01*
X52854526Y35365449D01*
X52183449Y35600269D01*
X52155724Y35606597D01*
X51449220Y35686201D01*
X51435000Y35687000D01*
X46863000Y35687000D01*
X46848780Y35686201D01*
X46142276Y35606597D01*
X46114551Y35600269D01*
X45443474Y35365449D01*
X45417851Y35353110D01*
X44815852Y34974849D01*
X44793617Y34957118D01*
X44290882Y34454383D01*
X44273151Y34432148D01*
X43894890Y33830149D01*
X43882551Y33804526D01*
X43647731Y33133449D01*
X43641403Y33105724D01*
X43561799Y32399220D01*
X43561000Y32385000D01*
X43561000Y-4402759D01*
X43495504Y-4810420D01*
X43310330Y-5167932D01*
X43022489Y-5449448D01*
X42660953Y-5626633D01*
X42261831Y-5681691D01*
X41857735Y-5609312D01*
X41494743Y-5416968D01*
X41207740Y-5123050D01*
X41024089Y-4755580D01*
X40959781Y-4339739D01*
X41015931Y31091341D01*
X41015147Y31105628D01*
X40935923Y31815513D01*
X40929580Y31843372D01*
X40693669Y32517583D01*
X40681259Y32543318D01*
X40300601Y33147730D01*
X40282752Y33170041D01*
X39776613Y33674062D01*
X39754228Y33691817D01*
X39148226Y34069938D01*
X39122439Y34082240D01*
X38447245Y34315322D01*
X38419360Y34321548D01*
X37709148Y34397795D01*
X37694857Y34398519D01*
X33149775Y34372258D01*
X33127557Y34370169D01*
X32616604Y34276280D01*
X32574957Y34260714D01*
X32127676Y33996464D01*
X32093946Y33967498D01*
X31765155Y33565273D01*
X31743476Y33526455D01*
X31573473Y33035551D01*
X31568052Y33013904D01*
X31542011Y32849864D01*
X31409468Y32404502D01*
X31169891Y32016275D01*
X30837413Y31703895D01*
X30427559Y31484971D01*
X29797498Y31248698D01*
X29048640Y31069631D01*
X28081544Y30962175D01*
X27519631Y30965426D01*
X26980879Y31096511D01*
X26473693Y31355139D01*
X26467658Y31358019D01*
X25961020Y31583600D01*
X25919598Y31594168D01*
X25366814Y31638868D01*
X25324233Y31635093D01*
X24787932Y31493847D01*
X24767724Y31486652D01*
X24204447Y31230617D01*
X24188504Y31221945D01*
X23616420Y30855540D01*
X23589028Y30831869D01*
X23143572Y30318935D01*
X23123972Y30288495D01*
X22841344Y29670713D01*
X22831129Y29635981D01*
X22734297Y28963555D01*
X22733000Y28945453D01*
X22733000Y23175583D01*
X22733862Y23160810D01*
X22819789Y22427151D01*
X22826617Y22398403D01*
X23079748Y21704456D01*
X23093033Y21678065D01*
X23499666Y21061390D01*
X23518690Y21038782D01*
X24056815Y20532759D01*
X24080549Y20515160D01*
X24721039Y20147178D01*
X24734278Y20140566D01*
X29210205Y18222312D01*
X29547881Y17991688D01*
X29766039Y17660841D01*
X29845000Y17259621D01*
X29845000Y-4051491D01*
X29755695Y-4500455D01*
X29508464Y-4870464D01*
X29138455Y-5117695D01*
X28701908Y-5204530D01*
X28263009Y-5117876D01*
X27889903Y-4870866D01*
X27638667Y-4500586D01*
X27544420Y-4050224D01*
X27327007Y15082152D01*
X27326087Y15096031D01*
X27242305Y15785391D01*
X27235959Y15812434D01*
X27004311Y16467090D01*
X26992237Y16492106D01*
X26623802Y17080742D01*
X26606578Y17102534D01*
X26118982Y17596990D01*
X26097432Y17614517D01*
X25514001Y17991139D01*
X25501919Y17998031D01*
X22433453Y19532264D01*
X21852271Y19910089D01*
X21375351Y20403156D01*
X21020811Y20990402D01*
X20806613Y21642082D01*
X20742951Y22332344D01*
X20932640Y31437405D01*
X21017796Y32095205D01*
X21239509Y32713002D01*
X21592049Y33274839D01*
X23788900Y36057518D01*
X24272235Y36545022D01*
X24846289Y36908185D01*
X25487037Y37133718D01*
X26176297Y37211807D01*
X26181798Y37212553D01*
X26653740Y37287034D01*
X26691411Y37299227D01*
X27117479Y37515428D01*
X27149564Y37538631D01*
X27488341Y37875539D01*
X27511721Y37907495D01*
X27730278Y38332359D01*
X27742680Y38369962D01*
X27819771Y38841485D01*
X27821433Y38861274D01*
X28189007Y105269552D01*
X28250684Y105579145D01*
X28416602Y105833021D01*
X28665235Y106006689D01*
X28960104Y106074953D01*
X29247964Y106027285D01*
X29247964Y106027285D01*
G37*
X29247964Y106027285D02*
X29493865Y105871373D01*
X29659404Y105631853D01*
X29720963Y105333944D01*
X29931727Y41130233D01*
X29932552Y41116187D01*
X30012550Y40418304D01*
X30018819Y40390914D01*
X30250315Y39727703D01*
X30262452Y39702361D01*
X30634114Y39106284D01*
X30651527Y39084232D01*
X31145161Y38584468D01*
X31166997Y38566785D01*
X31758443Y38187796D01*
X31783632Y38175346D01*
X32443936Y37935684D01*
X32471247Y37929078D01*
X33168089Y37840474D01*
X33182124Y37839475D01*
X37659442Y37769521D01*
X37673836Y37770114D01*
X38389523Y37840382D01*
X38417648Y37846416D01*
X39099164Y38075940D01*
X39125209Y38088150D01*
X39737592Y38465155D01*
X39760222Y38482912D01*
X40272056Y38988057D01*
X40290109Y39010451D01*
X40675136Y39617822D01*
X40687687Y39643705D01*
X40926155Y40322144D01*
X40932559Y40350187D01*
X41012235Y41064887D01*
X41013017Y41079272D01*
X40857471Y104071591D01*
X40924917Y104489368D01*
X41117369Y104854457D01*
X41416334Y105138958D01*
X41790510Y105313084D01*
X42201415Y105358673D01*
X42626171Y105271006D01*
X43006052Y105060240D01*
X43305737Y104745726D01*
X43497925Y104356116D01*
X43566611Y103917281D01*
X43803110Y41008587D01*
X43803958Y40994404D01*
X43885832Y40289865D01*
X43892234Y40262226D01*
X44128471Y39593444D01*
X44140850Y39567915D01*
X44519660Y38968264D01*
X44537396Y38946121D01*
X45039874Y38445528D01*
X45062084Y38427874D01*
X45663155Y38051321D01*
X45688730Y38039039D01*
X46358396Y37805318D01*
X46386059Y37799020D01*
X47090900Y37719795D01*
X47105086Y37719000D01*
X51424534Y37719000D01*
X51438783Y37719802D01*
X52146742Y37799738D01*
X52174523Y37806092D01*
X52846834Y38041876D01*
X52872499Y38054266D01*
X53475308Y38434026D01*
X53497563Y38451825D01*
X54000517Y38956437D01*
X54018244Y38978752D01*
X54396017Y39582807D01*
X54408321Y39608512D01*
X54641891Y40281596D01*
X54648154Y40309397D01*
X54725760Y41017615D01*
X54726515Y41031867D01*
X54517483Y104547234D01*
X54579241Y104942796D01*
X54756358Y105290433D01*
X55032835Y105565727D01*
X55381230Y105741351D01*
X55767095Y105799898D01*
X56155288Y105735695D01*
X56505021Y105555153D01*
X56782271Y105275792D01*
X56960158Y104924696D01*
X57023000Y104525967D01*
X57023000Y-4305491D01*
X56933695Y-4754455D01*
X56686464Y-5124464D01*
X56316455Y-5371695D01*
X55880000Y-5458512D01*
X55443545Y-5371695D01*
X55073536Y-5124464D01*
X54826305Y-4754455D01*
X54737000Y-4305491D01*
X54737000Y32385000D01*
X54736201Y32399220D01*
X54656597Y33105724D01*
X54650269Y33133449D01*
X54415449Y33804526D01*
X54403110Y33830149D01*
X54024849Y34432148D01*
X54007118Y34454383D01*
X53504383Y34957118D01*
X53482148Y34974849D01*
X52880149Y35353110D01*
X52854526Y35365449D01*
X52183449Y35600269D01*
X52155724Y35606597D01*
X51449220Y35686201D01*
X51435000Y35687000D01*
X46863000Y35687000D01*
X46848780Y35686201D01*
X46142276Y35606597D01*
X46114551Y35600269D01*
X45443474Y35365449D01*
X45417851Y35353110D01*
X44815852Y34974849D01*
X44793617Y34957118D01*
X44290882Y34454383D01*
X44273151Y34432148D01*
X43894890Y33830149D01*
X43882551Y33804526D01*
X43647731Y33133449D01*
X43641403Y33105724D01*
X43561799Y32399220D01*
X43561000Y32385000D01*
X43561000Y-4402759D01*
X43495504Y-4810420D01*
X43310330Y-5167932D01*
X43022489Y-5449448D01*
X42660953Y-5626633D01*
X42261831Y-5681691D01*
X41857735Y-5609312D01*
X41494743Y-5416968D01*
X41207740Y-5123050D01*
X41024089Y-4755580D01*
X40959781Y-4339739D01*
X41015931Y31091341D01*
X41015147Y31105628D01*
X40935923Y31815513D01*
X40929580Y31843372D01*
X40693669Y32517583D01*
X40681259Y32543318D01*
X40300601Y33147730D01*
X40282752Y33170041D01*
X39776613Y33674062D01*
X39754228Y33691817D01*
X39148226Y34069938D01*
X39122439Y34082240D01*
X38447245Y34315322D01*
X38419360Y34321548D01*
X37709148Y34397795D01*
X37694857Y34398519D01*
X33149775Y34372258D01*
X33127557Y34370169D01*
X32616604Y34276280D01*
X32574957Y34260714D01*
X32127676Y33996464D01*
X32093946Y33967498D01*
X31765155Y33565273D01*
X31743476Y33526455D01*
X31573473Y33035551D01*
X31568052Y33013904D01*
X31542011Y32849864D01*
X31409468Y32404502D01*
X31169891Y32016275D01*
X30837413Y31703895D01*
X30427559Y31484971D01*
X29797498Y31248698D01*
X29048640Y31069631D01*
X28081544Y30962175D01*
X27519631Y30965426D01*
X26980879Y31096511D01*
X26473693Y31355139D01*
X26467658Y31358019D01*
X25961020Y31583600D01*
X25919598Y31594168D01*
X25366814Y31638868D01*
X25324233Y31635093D01*
X24787932Y31493847D01*
X24767724Y31486652D01*
X24204447Y31230617D01*
X24188504Y31221945D01*
X23616420Y30855540D01*
X23589028Y30831869D01*
X23143572Y30318935D01*
X23123972Y30288495D01*
X22841344Y29670713D01*
X22831129Y29635981D01*
X22734297Y28963555D01*
X22733000Y28945453D01*
X22733000Y23175583D01*
X22733862Y23160810D01*
X22819789Y22427151D01*
X22826617Y22398403D01*
X23079748Y21704456D01*
X23093033Y21678065D01*
X23499666Y21061390D01*
X23518690Y21038782D01*
X24056815Y20532759D01*
X24080549Y20515160D01*
X24721039Y20147178D01*
X24734278Y20140566D01*
X29210205Y18222312D01*
X29547881Y17991688D01*
X29766039Y17660841D01*
X29845000Y17259621D01*
X29845000Y-4051491D01*
X29755695Y-4500455D01*
X29508464Y-4870464D01*
X29138455Y-5117695D01*
X28701908Y-5204530D01*
X28263009Y-5117876D01*
X27889903Y-4870866D01*
X27638667Y-4500586D01*
X27544420Y-4050224D01*
X27327007Y15082152D01*
X27326087Y15096031D01*
X27242305Y15785391D01*
X27235959Y15812434D01*
X27004311Y16467090D01*
X26992237Y16492106D01*
X26623802Y17080742D01*
X26606578Y17102534D01*
X26118982Y17596990D01*
X26097432Y17614517D01*
X25514001Y17991139D01*
X25501919Y17998031D01*
X22433453Y19532264D01*
X21852271Y19910089D01*
X21375351Y20403156D01*
X21020811Y20990402D01*
X20806613Y21642082D01*
X20742951Y22332344D01*
X20932640Y31437405D01*
X21017796Y32095205D01*
X21239509Y32713002D01*
X21592049Y33274839D01*
X23788900Y36057518D01*
X24272235Y36545022D01*
X24846289Y36908185D01*
X25487037Y37133718D01*
X26176297Y37211807D01*
X26181798Y37212553D01*
X26653740Y37287034D01*
X26691411Y37299227D01*
X27117479Y37515428D01*
X27149564Y37538631D01*
X27488341Y37875539D01*
X27511721Y37907495D01*
X27730278Y38332359D01*
X27742680Y38369962D01*
X27819771Y38841485D01*
X27821433Y38861274D01*
X28189007Y105269552D01*
X28250684Y105579145D01*
X28416602Y105833021D01*
X28665235Y106006689D01*
X28960104Y106074953D01*
X29247964Y106027285D01*
G04 #@! TO.N,/C2-*
G36*
X36576240Y39116000D02*
X34289519Y39116000D01*
X34036470Y105845082D01*
X36702753Y105914637D01*
X36576240Y39116000D01*
X36576240Y39116000D01*
G37*
X36576240Y39116000D02*
X34289519Y39116000D01*
X34036470Y105845082D01*
X36702753Y105914637D01*
X36576240Y39116000D01*
G36*
X50112500Y39122650D02*
X47878548Y39236705D01*
X47627035Y106265000D01*
X50112500Y106265000D01*
X50112500Y39122650D01*
X50112500Y39122650D01*
G37*
X50112500Y39122650D02*
X47878548Y39236705D01*
X47627035Y106265000D01*
X50112500Y106265000D01*
X50112500Y39122650D01*
G36*
X62992953Y39243000D02*
X61531381Y39243000D01*
X61468272Y106265000D01*
X63497827Y106265000D01*
X62992953Y39243000D01*
X62992953Y39243000D01*
G37*
X62992953Y39243000D02*
X61531381Y39243000D01*
X61468272Y106265000D01*
X63497827Y106265000D01*
X62992953Y39243000D01*
G36*
X62865000Y33529855D02*
X62865000Y-5588000D01*
X61468064Y-5588000D01*
X61487840Y33550116D01*
X62865000Y33529855D01*
X62865000Y33529855D01*
G37*
X62865000Y33529855D02*
X62865000Y-5588000D01*
X61468064Y-5588000D01*
X61487840Y33550116D01*
X62865000Y33529855D01*
G36*
X35036196Y27813140D02*
X35036781Y27813136D01*
X35066048Y27813001D01*
X35066634Y27813000D01*
X35865012Y27813000D01*
X36144298Y27757550D01*
X36370618Y27606675D01*
X36522135Y27380781D01*
X36578376Y27101655D01*
X36667520Y-4339696D01*
X36587851Y-4845113D01*
X36358674Y-5291065D01*
X36001423Y-5642875D01*
X35552009Y-5865181D01*
X35055318Y-5935683D01*
X34552290Y-5847695D01*
X34099833Y-5610333D01*
X33741344Y-5246271D01*
X33510991Y-4790209D01*
X33429162Y-4275762D01*
X33372733Y16207854D01*
X33465008Y16555418D01*
X33706691Y16797768D01*
X34069773Y16895235D01*
X34470418Y17000912D01*
X34526771Y17032863D01*
X34823269Y17322493D01*
X34856532Y17378083D01*
X34971605Y17776273D01*
X34976563Y17808556D01*
X35005590Y19047024D01*
X35004855Y19063967D01*
X34947211Y19584921D01*
X34939040Y19617762D01*
X34745860Y20104997D01*
X34729306Y20134515D01*
X34414306Y20553432D01*
X34390545Y20577530D01*
X33976093Y20898382D01*
X33946811Y20915348D01*
X33462337Y21115352D01*
X33429614Y21123983D01*
X32909521Y21188937D01*
X32892590Y21189910D01*
X31374300Y21175653D01*
X30684365Y21247304D01*
X30034820Y21469225D01*
X29451419Y21830908D01*
X28963778Y22313990D01*
X28596638Y22893965D01*
X28368624Y23541407D01*
X28290500Y24230628D01*
X28290500Y24791923D01*
X28368608Y25481072D01*
X28596571Y26128447D01*
X28963639Y26708385D01*
X29451186Y27191459D01*
X30034479Y27553163D01*
X30683929Y27775149D01*
X31373771Y27846901D01*
X35036196Y27813140D01*
X35036196Y27813140D01*
G37*
X35036196Y27813140D02*
X35036781Y27813136D01*
X35066048Y27813001D01*
X35066634Y27813000D01*
X35865012Y27813000D01*
X36144298Y27757550D01*
X36370618Y27606675D01*
X36522135Y27380781D01*
X36578376Y27101655D01*
X36667520Y-4339696D01*
X36587851Y-4845113D01*
X36358674Y-5291065D01*
X36001423Y-5642875D01*
X35552009Y-5865181D01*
X35055318Y-5935683D01*
X34552290Y-5847695D01*
X34099833Y-5610333D01*
X33741344Y-5246271D01*
X33510991Y-4790209D01*
X33429162Y-4275762D01*
X33372733Y16207854D01*
X33465008Y16555418D01*
X33706691Y16797768D01*
X34069773Y16895235D01*
X34470418Y17000912D01*
X34526771Y17032863D01*
X34823269Y17322493D01*
X34856532Y17378083D01*
X34971605Y17776273D01*
X34976563Y17808556D01*
X35005590Y19047024D01*
X35004855Y19063967D01*
X34947211Y19584921D01*
X34939040Y19617762D01*
X34745860Y20104997D01*
X34729306Y20134515D01*
X34414306Y20553432D01*
X34390545Y20577530D01*
X33976093Y20898382D01*
X33946811Y20915348D01*
X33462337Y21115352D01*
X33429614Y21123983D01*
X32909521Y21188937D01*
X32892590Y21189910D01*
X31374300Y21175653D01*
X30684365Y21247304D01*
X30034820Y21469225D01*
X29451419Y21830908D01*
X28963778Y22313990D01*
X28596638Y22893965D01*
X28368624Y23541407D01*
X28290500Y24230628D01*
X28290500Y24791923D01*
X28368608Y25481072D01*
X28596571Y26128447D01*
X28963639Y26708385D01*
X29451186Y27191459D01*
X30034479Y27553163D01*
X30683929Y27775149D01*
X31373771Y27846901D01*
X35036196Y27813140D01*
G36*
X23168304Y16893815D02*
X23042708Y-5588000D01*
X20574000Y-5588000D01*
X20574000Y16951638D01*
X23168304Y16893815D01*
X23168304Y16893815D01*
G37*
X23168304Y16893815D02*
X23042708Y-5588000D01*
X20574000Y-5588000D01*
X20574000Y16951638D01*
X23168304Y16893815D01*
G04 #@! TO.N,/C1+*
G36*
X-54835577Y105986964D02*
X-54747327Y105557518D01*
X-54628503Y41154592D01*
X-54627677Y41140363D01*
X-54546645Y40433468D01*
X-54540256Y40405733D01*
X-54303840Y39734633D01*
X-54291435Y39709018D01*
X-53911508Y39107417D01*
X-53893710Y39085207D01*
X-53389352Y38583320D01*
X-53367055Y38565632D01*
X-52763596Y38188664D01*
X-52737920Y38176385D01*
X-52065666Y37943268D01*
X-52037901Y37937015D01*
X-51330616Y37859456D01*
X-51316383Y37858700D01*
X-47035771Y37871827D01*
X-47021640Y37872659D01*
X-46319600Y37953456D01*
X-46292052Y37959793D01*
X-45625272Y38193875D01*
X-45599809Y38206148D01*
X-45001322Y38581918D01*
X-44979203Y38599520D01*
X-44478659Y39098363D01*
X-44460983Y39120420D01*
X-44083176Y39717623D01*
X-44070816Y39743045D01*
X-43834465Y40409024D01*
X-43828034Y40436550D01*
X-43744846Y41138311D01*
X-43743966Y41152439D01*
X-43327362Y105517208D01*
X-43245253Y105919168D01*
X-43023529Y106249208D01*
X-42999902Y106265000D01*
X-41601721Y106265000D01*
X-41586293Y106254764D01*
X-41365935Y105926882D01*
X-41285529Y105527066D01*
X-41166421Y40255925D01*
X-41165598Y40241724D01*
X-41084891Y39536173D01*
X-41078527Y39508489D01*
X-40843018Y38838526D01*
X-40830660Y38812949D01*
X-40452131Y38212090D01*
X-40434397Y38189900D01*
X-39931786Y37688205D01*
X-39909563Y37670511D01*
X-39308014Y37293079D01*
X-39282415Y37280767D01*
X-38612023Y37046481D01*
X-38584327Y37040168D01*
X-37878630Y36960748D01*
X-37864427Y36959951D01*
X-33280920Y36959951D01*
X-33266717Y36960748D01*
X-32561010Y37040170D01*
X-32533314Y37046484D01*
X-31862914Y37280777D01*
X-31837314Y37293088D01*
X-31235759Y37670529D01*
X-31213536Y37688224D01*
X-30710923Y38189932D01*
X-30693189Y38212122D01*
X-30314664Y38812995D01*
X-30302306Y38838573D01*
X-30066805Y39508550D01*
X-30060442Y39536234D01*
X-29979748Y40241797D01*
X-29978925Y40255999D01*
X-29860256Y106088063D01*
X-29824871Y106265000D01*
X-27729734Y106265000D01*
X-27696209Y106098452D01*
X-27565409Y40428705D01*
X-27564568Y40414366D01*
X-27482183Y39702083D01*
X-27475691Y39674146D01*
X-27235576Y38998513D01*
X-27222982Y38972745D01*
X-26837383Y38368221D01*
X-26819327Y38345937D01*
X-26307911Y37843355D01*
X-26285315Y37825690D01*
X-25674164Y37450683D01*
X-25648180Y37438539D01*
X-24968466Y37210232D01*
X-24940421Y37204228D01*
X-24226810Y37134266D01*
X-24212458Y37133675D01*
X-19579019Y37205188D01*
X-19564930Y37206191D01*
X-18865465Y37295294D01*
X-18838056Y37301943D01*
X-18175506Y37543228D01*
X-18150239Y37555762D01*
X-17557282Y37937328D01*
X-17535406Y37955131D01*
X-17041288Y38458160D01*
X-17023879Y38480351D01*
X-16652970Y39080032D01*
X-16640889Y39105518D01*
X-16411483Y39772274D01*
X-16405325Y39799799D01*
X-16328737Y40500745D01*
X-16327986Y40514849D01*
X-16486215Y105386677D01*
X-16424441Y105785448D01*
X-16247670Y106136977D01*
X-16121480Y106265000D01*
X-14328343Y106265000D01*
X-14222334Y106160465D01*
X-14043604Y105813985D01*
X-13979833Y105419058D01*
X-13849469Y40798284D01*
X-13848631Y40783977D01*
X-13766592Y40073266D01*
X-13760129Y40045388D01*
X-13521046Y39371088D01*
X-13508504Y39345365D01*
X-13124517Y38741714D01*
X-13106535Y38719452D01*
X-12597140Y38217100D01*
X-12574630Y38199430D01*
X-11965692Y37823884D01*
X-11939798Y37811702D01*
X-11262236Y37582029D01*
X-11234270Y37575954D01*
X-10522485Y37503817D01*
X-10508168Y37503179D01*
X-6172772Y37554791D01*
X-6158702Y37555742D01*
X-5459984Y37642124D01*
X-5432590Y37648656D01*
X-4770087Y37886895D01*
X-4744807Y37899304D01*
X-4151094Y38277686D01*
X-4129170Y38295361D01*
X-3633441Y38795281D01*
X-3615951Y38817353D01*
X-3242579Y39414230D01*
X-3230384Y39439614D01*
X-2997730Y40104098D01*
X-2991428Y40131545D01*
X-2910931Y40830965D01*
X-2910099Y40845043D01*
X-2684551Y105527811D01*
X-2618988Y105922134D01*
X-2437291Y106265000D01*
X-467676Y106265000D01*
X-383125Y106176372D01*
X-204445Y105812492D01*
X-141965Y105402005D01*
X-248660Y40824395D01*
X-247867Y40810013D01*
X-167632Y40095484D01*
X-161207Y40067450D01*
X77745Y39389297D01*
X90313Y39363428D01*
X475726Y38756430D01*
X493793Y38734052D01*
X1005901Y38229340D01*
X1028539Y38211601D01*
X1641079Y37835058D01*
X1667129Y37822867D01*
X2348686Y37593806D01*
X2376810Y37587789D01*
X3092430Y37517956D01*
X3106822Y37517373D01*
X7872257Y37594574D01*
X7886291Y37595581D01*
X8583047Y37684578D01*
X8610352Y37691198D01*
X9270489Y37931217D01*
X9295671Y37943680D01*
X9886878Y38322973D01*
X9908703Y38340668D01*
X10402045Y38840672D01*
X10419445Y38862732D01*
X10790774Y39458973D01*
X10802898Y39484319D01*
X11034042Y40147616D01*
X11040296Y40175008D01*
X11119939Y40872895D01*
X11120758Y40886941D01*
X11299409Y105009840D01*
X11390427Y105461319D01*
X11640036Y105833132D01*
X12012830Y106081273D01*
X12452133Y106168035D01*
X12890345Y106080191D01*
X13261387Y105831113D01*
X13508620Y105458837D01*
X13596728Y105007693D01*
X13346910Y39447756D01*
X13268881Y38770586D01*
X13046124Y38133873D01*
X12688742Y37561768D01*
X12214248Y37082305D01*
X11645893Y36718983D01*
X11011535Y36489608D01*
X10335211Y36404530D01*
X3119357Y36301874D01*
X3105238Y36300885D01*
X2404224Y36212279D01*
X2376752Y36205636D01*
X1712695Y35964183D01*
X1687373Y35951629D01*
X1093162Y35569289D01*
X1071243Y35551446D01*
X576308Y35047155D01*
X558878Y35024906D01*
X187731Y34423640D01*
X175653Y34398086D01*
X-53323Y33729624D01*
X-59450Y33702033D01*
X-134914Y32999483D01*
X-135639Y32985347D01*
X12Y2844496D01*
X-86119Y2442833D01*
X-323900Y2125273D01*
X-672696Y1936261D01*
X-1071219Y1910271D01*
X-1508601Y2058311D01*
X-1870320Y2349545D01*
X-2109648Y2747516D01*
X-2199464Y3214712D01*
X-2622643Y33066804D01*
X-2623627Y33080883D01*
X-2711724Y33779939D01*
X-2718328Y33807338D01*
X-2958430Y34469751D01*
X-2970915Y34495018D01*
X-3351197Y35088167D01*
X-3368947Y35110059D01*
X-3870683Y35604732D01*
X-3892824Y35622170D01*
X-4491303Y35994007D01*
X-4516745Y36006132D01*
X-5182495Y36236820D01*
X-5209984Y36243036D01*
X-5910219Y36321216D01*
X-5924311Y36322000D01*
X-10426716Y36322000D01*
X-10440899Y36321206D01*
X-11145628Y36242007D01*
X-11173287Y36235710D01*
X-11842858Y36002063D01*
X-11868430Y35989785D01*
X-12469438Y35613347D01*
X-12491646Y35595699D01*
X-12994107Y35095250D01*
X-13011844Y35073112D01*
X-13390691Y34473620D01*
X-13403072Y34448098D01*
X-13639404Y33779470D01*
X-13645812Y33751837D01*
X-13727839Y33047432D01*
X-13728690Y33033252D01*
X-13853276Y1988633D01*
X-13917653Y1751553D01*
X-14079478Y1590375D01*
X-14332926Y1522646D01*
X-14333008Y1522624D01*
X-14618758Y1446058D01*
X-14675691Y1413188D01*
X-14884875Y1204004D01*
X-14917745Y1147071D01*
X-14994311Y861321D01*
X-14998638Y828451D01*
X-14998638Y-3412427D01*
X-15086262Y-3759683D01*
X-15317166Y-4011794D01*
X-15638133Y-4123503D01*
X-15941803Y-4065351D01*
X-16167976Y-3857534D01*
X-16255985Y-3544104D01*
X-16135799Y33826940D01*
X-16136877Y33843869D01*
X-16207768Y34384196D01*
X-16216606Y34416874D01*
X-16427717Y34919278D01*
X-16444873Y34948460D01*
X-16781204Y35377248D01*
X-16805459Y35400861D01*
X-17243116Y35725568D01*
X-17272748Y35741935D01*
X-17780635Y35939491D01*
X-17813538Y35947449D01*
X-18355572Y36003819D01*
X-18388541Y36002942D01*
X-18943323Y35915233D01*
X-18974149Y35906250D01*
X-19489203Y35682207D01*
X-19516792Y35665780D01*
X-19959196Y35319724D01*
X-19981783Y35296903D01*
X-20323258Y34850954D01*
X-20339399Y34823198D01*
X-20558119Y34305861D01*
X-20566784Y34274943D01*
X-20648767Y33719286D01*
X-20650102Y33703255D01*
X-20712172Y30558490D01*
X-20718104Y30418294D01*
X-21221264Y22669627D01*
X-21339500Y22001710D01*
X-21598376Y21382401D01*
X-21986559Y20834799D01*
X-22485221Y20385467D01*
X-23076307Y20052751D01*
X-25332321Y19092745D01*
X-25345480Y19086222D01*
X-25982418Y18723198D01*
X-26006049Y18705833D01*
X-26542742Y18206397D01*
X-26561759Y18184074D01*
X-26969594Y17574856D01*
X-26982985Y17548767D01*
X-27240215Y16862248D01*
X-27247265Y16833783D01*
X-27340176Y16106566D01*
X-27341192Y16091914D01*
X-27557780Y-2967770D01*
X-27646930Y-3393778D01*
X-27884196Y-3743469D01*
X-28236557Y-3976744D01*
X-28651070Y-4058584D01*
X-29063893Y-3976619D01*
X-29414032Y-3743197D01*
X-29648438Y-3393712D01*
X-29734063Y-2968711D01*
X-29788283Y16333527D01*
X-29707944Y17041021D01*
X-29469757Y17704164D01*
X-29085620Y18294871D01*
X-28576082Y18781545D01*
X-27961977Y19141933D01*
X-24730940Y20564774D01*
X-24718485Y20571098D01*
X-24114963Y20920560D01*
X-24092503Y20937105D01*
X-23579835Y21409900D01*
X-23561530Y21430950D01*
X-23164452Y22004267D01*
X-23151183Y22028805D01*
X-22888853Y22674983D01*
X-22881262Y22701827D01*
X-22766337Y23389690D01*
X-22764797Y23403573D01*
X-22540951Y27432794D01*
X-22540989Y27447539D01*
X-22583200Y28142489D01*
X-22588378Y28171469D01*
X-22789463Y28838028D01*
X-22801175Y28865037D01*
X-23150328Y29467389D01*
X-23167944Y29490976D01*
X-23646404Y29996755D01*
X-23668978Y30015653D01*
X-24251035Y30397681D01*
X-24277353Y30410873D01*
X-24931732Y30648622D01*
X-24960380Y30655400D01*
X-25651918Y30736095D01*
X-25666638Y30736951D01*
X-28276737Y30736951D01*
X-28811036Y30783656D01*
X-29329123Y30922355D01*
X-30206003Y31241220D01*
X-30755654Y31534878D01*
X-31194557Y31964321D01*
X-31495647Y32499491D01*
X-31638943Y33115237D01*
X-31639058Y33115727D01*
X-31748979Y33579722D01*
X-31762622Y33614030D01*
X-32001356Y34026801D01*
X-32024290Y34055735D01*
X-32371660Y34382397D01*
X-32401948Y34403512D01*
X-32828597Y34616457D01*
X-32863678Y34627968D01*
X-33333546Y34709197D01*
X-33351966Y34711012D01*
X-39062839Y34855591D01*
X-39077303Y34855133D01*
X-39708704Y34798983D01*
X-39737007Y34793166D01*
X-40339372Y34595744D01*
X-40365628Y34583679D01*
X-40907776Y34255206D01*
X-40930626Y34237519D01*
X-41384492Y33794998D01*
X-41402752Y33772603D01*
X-41744841Y33238941D01*
X-41757566Y33212999D01*
X-41970170Y32615823D01*
X-41976702Y32587676D01*
X-42048814Y31957899D01*
X-42049638Y31943451D01*
X-42049638Y29593951D01*
X-42045311Y29561081D01*
X-41977252Y29307081D01*
X-41944382Y29250148D01*
X-41758441Y29064207D01*
X-41701508Y29031337D01*
X-41226379Y28904027D01*
X-41088562Y28766210D01*
X-41033638Y28561230D01*
X-41033638Y-3157551D01*
X-41123735Y-3596170D01*
X-41371908Y-3952933D01*
X-41740623Y-4182982D01*
X-42171000Y-4249188D01*
X-42614023Y-4140909D01*
X-42986095Y-3875722D01*
X-43233453Y-3491565D01*
X-43323252Y-3031020D01*
X-43425195Y33193322D01*
X-43426018Y33207408D01*
X-43506127Y33907241D01*
X-43512417Y33934706D01*
X-43744861Y34599652D01*
X-43757052Y34625055D01*
X-44130389Y35222386D01*
X-44147881Y35244475D01*
X-44643736Y35744787D01*
X-44665667Y35762476D01*
X-45259631Y36141144D01*
X-45284923Y36153561D01*
X-45947763Y36391947D01*
X-45975171Y36398483D01*
X-46674259Y36484852D01*
X-46688337Y36485801D01*
X-51163100Y36538445D01*
X-51177375Y36537809D01*
X-51887082Y36466021D01*
X-51914968Y36459979D01*
X-52590736Y36231562D01*
X-52616569Y36219447D01*
X-53224289Y35845931D01*
X-53246766Y35828354D01*
X-53755761Y35328592D01*
X-53773746Y35306441D01*
X-54158323Y34705660D01*
X-54170909Y34680053D01*
X-54411658Y34008578D01*
X-54418210Y33980807D01*
X-54502976Y33272533D01*
X-54503873Y33258272D01*
X-54741247Y-3031954D01*
X-54833437Y-3480771D01*
X-55083001Y-3849750D01*
X-55454620Y-4095362D01*
X-55891931Y-4180337D01*
X-56329462Y-4091823D01*
X-56700281Y-3843234D01*
X-56948388Y-3472091D01*
X-57038841Y-3021959D01*
X-57149759Y36236904D01*
X-57145895Y36400986D01*
X-57039678Y38526913D01*
X-57039561Y38530022D01*
X-57035607Y38685521D01*
X-57035566Y38688632D01*
X-56973841Y105464842D01*
X-56887084Y105910071D01*
X-56656824Y106265000D01*
X-55027565Y106265000D01*
X-54835577Y105986964D01*
X-54835577Y105986964D01*
G37*
X-54835577Y105986964D02*
X-54747327Y105557518D01*
X-54628503Y41154592D01*
X-54627677Y41140363D01*
X-54546645Y40433468D01*
X-54540256Y40405733D01*
X-54303840Y39734633D01*
X-54291435Y39709018D01*
X-53911508Y39107417D01*
X-53893710Y39085207D01*
X-53389352Y38583320D01*
X-53367055Y38565632D01*
X-52763596Y38188664D01*
X-52737920Y38176385D01*
X-52065666Y37943268D01*
X-52037901Y37937015D01*
X-51330616Y37859456D01*
X-51316383Y37858700D01*
X-47035771Y37871827D01*
X-47021640Y37872659D01*
X-46319600Y37953456D01*
X-46292052Y37959793D01*
X-45625272Y38193875D01*
X-45599809Y38206148D01*
X-45001322Y38581918D01*
X-44979203Y38599520D01*
X-44478659Y39098363D01*
X-44460983Y39120420D01*
X-44083176Y39717623D01*
X-44070816Y39743045D01*
X-43834465Y40409024D01*
X-43828034Y40436550D01*
X-43744846Y41138311D01*
X-43743966Y41152439D01*
X-43327362Y105517208D01*
X-43245253Y105919168D01*
X-43023529Y106249208D01*
X-42999902Y106265000D01*
X-41601721Y106265000D01*
X-41586293Y106254764D01*
X-41365935Y105926882D01*
X-41285529Y105527066D01*
X-41166421Y40255925D01*
X-41165598Y40241724D01*
X-41084891Y39536173D01*
X-41078527Y39508489D01*
X-40843018Y38838526D01*
X-40830660Y38812949D01*
X-40452131Y38212090D01*
X-40434397Y38189900D01*
X-39931786Y37688205D01*
X-39909563Y37670511D01*
X-39308014Y37293079D01*
X-39282415Y37280767D01*
X-38612023Y37046481D01*
X-38584327Y37040168D01*
X-37878630Y36960748D01*
X-37864427Y36959951D01*
X-33280920Y36959951D01*
X-33266717Y36960748D01*
X-32561010Y37040170D01*
X-32533314Y37046484D01*
X-31862914Y37280777D01*
X-31837314Y37293088D01*
X-31235759Y37670529D01*
X-31213536Y37688224D01*
X-30710923Y38189932D01*
X-30693189Y38212122D01*
X-30314664Y38812995D01*
X-30302306Y38838573D01*
X-30066805Y39508550D01*
X-30060442Y39536234D01*
X-29979748Y40241797D01*
X-29978925Y40255999D01*
X-29860256Y106088063D01*
X-29824871Y106265000D01*
X-27729734Y106265000D01*
X-27696209Y106098452D01*
X-27565409Y40428705D01*
X-27564568Y40414366D01*
X-27482183Y39702083D01*
X-27475691Y39674146D01*
X-27235576Y38998513D01*
X-27222982Y38972745D01*
X-26837383Y38368221D01*
X-26819327Y38345937D01*
X-26307911Y37843355D01*
X-26285315Y37825690D01*
X-25674164Y37450683D01*
X-25648180Y37438539D01*
X-24968466Y37210232D01*
X-24940421Y37204228D01*
X-24226810Y37134266D01*
X-24212458Y37133675D01*
X-19579019Y37205188D01*
X-19564930Y37206191D01*
X-18865465Y37295294D01*
X-18838056Y37301943D01*
X-18175506Y37543228D01*
X-18150239Y37555762D01*
X-17557282Y37937328D01*
X-17535406Y37955131D01*
X-17041288Y38458160D01*
X-17023879Y38480351D01*
X-16652970Y39080032D01*
X-16640889Y39105518D01*
X-16411483Y39772274D01*
X-16405325Y39799799D01*
X-16328737Y40500745D01*
X-16327986Y40514849D01*
X-16486215Y105386677D01*
X-16424441Y105785448D01*
X-16247670Y106136977D01*
X-16121480Y106265000D01*
X-14328343Y106265000D01*
X-14222334Y106160465D01*
X-14043604Y105813985D01*
X-13979833Y105419058D01*
X-13849469Y40798284D01*
X-13848631Y40783977D01*
X-13766592Y40073266D01*
X-13760129Y40045388D01*
X-13521046Y39371088D01*
X-13508504Y39345365D01*
X-13124517Y38741714D01*
X-13106535Y38719452D01*
X-12597140Y38217100D01*
X-12574630Y38199430D01*
X-11965692Y37823884D01*
X-11939798Y37811702D01*
X-11262236Y37582029D01*
X-11234270Y37575954D01*
X-10522485Y37503817D01*
X-10508168Y37503179D01*
X-6172772Y37554791D01*
X-6158702Y37555742D01*
X-5459984Y37642124D01*
X-5432590Y37648656D01*
X-4770087Y37886895D01*
X-4744807Y37899304D01*
X-4151094Y38277686D01*
X-4129170Y38295361D01*
X-3633441Y38795281D01*
X-3615951Y38817353D01*
X-3242579Y39414230D01*
X-3230384Y39439614D01*
X-2997730Y40104098D01*
X-2991428Y40131545D01*
X-2910931Y40830965D01*
X-2910099Y40845043D01*
X-2684551Y105527811D01*
X-2618988Y105922134D01*
X-2437291Y106265000D01*
X-467676Y106265000D01*
X-383125Y106176372D01*
X-204445Y105812492D01*
X-141965Y105402005D01*
X-248660Y40824395D01*
X-247867Y40810013D01*
X-167632Y40095484D01*
X-161207Y40067450D01*
X77745Y39389297D01*
X90313Y39363428D01*
X475726Y38756430D01*
X493793Y38734052D01*
X1005901Y38229340D01*
X1028539Y38211601D01*
X1641079Y37835058D01*
X1667129Y37822867D01*
X2348686Y37593806D01*
X2376810Y37587789D01*
X3092430Y37517956D01*
X3106822Y37517373D01*
X7872257Y37594574D01*
X7886291Y37595581D01*
X8583047Y37684578D01*
X8610352Y37691198D01*
X9270489Y37931217D01*
X9295671Y37943680D01*
X9886878Y38322973D01*
X9908703Y38340668D01*
X10402045Y38840672D01*
X10419445Y38862732D01*
X10790774Y39458973D01*
X10802898Y39484319D01*
X11034042Y40147616D01*
X11040296Y40175008D01*
X11119939Y40872895D01*
X11120758Y40886941D01*
X11299409Y105009840D01*
X11390427Y105461319D01*
X11640036Y105833132D01*
X12012830Y106081273D01*
X12452133Y106168035D01*
X12890345Y106080191D01*
X13261387Y105831113D01*
X13508620Y105458837D01*
X13596728Y105007693D01*
X13346910Y39447756D01*
X13268881Y38770586D01*
X13046124Y38133873D01*
X12688742Y37561768D01*
X12214248Y37082305D01*
X11645893Y36718983D01*
X11011535Y36489608D01*
X10335211Y36404530D01*
X3119357Y36301874D01*
X3105238Y36300885D01*
X2404224Y36212279D01*
X2376752Y36205636D01*
X1712695Y35964183D01*
X1687373Y35951629D01*
X1093162Y35569289D01*
X1071243Y35551446D01*
X576308Y35047155D01*
X558878Y35024906D01*
X187731Y34423640D01*
X175653Y34398086D01*
X-53323Y33729624D01*
X-59450Y33702033D01*
X-134914Y32999483D01*
X-135639Y32985347D01*
X12Y2844496D01*
X-86119Y2442833D01*
X-323900Y2125273D01*
X-672696Y1936261D01*
X-1071219Y1910271D01*
X-1508601Y2058311D01*
X-1870320Y2349545D01*
X-2109648Y2747516D01*
X-2199464Y3214712D01*
X-2622643Y33066804D01*
X-2623627Y33080883D01*
X-2711724Y33779939D01*
X-2718328Y33807338D01*
X-2958430Y34469751D01*
X-2970915Y34495018D01*
X-3351197Y35088167D01*
X-3368947Y35110059D01*
X-3870683Y35604732D01*
X-3892824Y35622170D01*
X-4491303Y35994007D01*
X-4516745Y36006132D01*
X-5182495Y36236820D01*
X-5209984Y36243036D01*
X-5910219Y36321216D01*
X-5924311Y36322000D01*
X-10426716Y36322000D01*
X-10440899Y36321206D01*
X-11145628Y36242007D01*
X-11173287Y36235710D01*
X-11842858Y36002063D01*
X-11868430Y35989785D01*
X-12469438Y35613347D01*
X-12491646Y35595699D01*
X-12994107Y35095250D01*
X-13011844Y35073112D01*
X-13390691Y34473620D01*
X-13403072Y34448098D01*
X-13639404Y33779470D01*
X-13645812Y33751837D01*
X-13727839Y33047432D01*
X-13728690Y33033252D01*
X-13853276Y1988633D01*
X-13917653Y1751553D01*
X-14079478Y1590375D01*
X-14332926Y1522646D01*
X-14333008Y1522624D01*
X-14618758Y1446058D01*
X-14675691Y1413188D01*
X-14884875Y1204004D01*
X-14917745Y1147071D01*
X-14994311Y861321D01*
X-14998638Y828451D01*
X-14998638Y-3412427D01*
X-15086262Y-3759683D01*
X-15317166Y-4011794D01*
X-15638133Y-4123503D01*
X-15941803Y-4065351D01*
X-16167976Y-3857534D01*
X-16255985Y-3544104D01*
X-16135799Y33826940D01*
X-16136877Y33843869D01*
X-16207768Y34384196D01*
X-16216606Y34416874D01*
X-16427717Y34919278D01*
X-16444873Y34948460D01*
X-16781204Y35377248D01*
X-16805459Y35400861D01*
X-17243116Y35725568D01*
X-17272748Y35741935D01*
X-17780635Y35939491D01*
X-17813538Y35947449D01*
X-18355572Y36003819D01*
X-18388541Y36002942D01*
X-18943323Y35915233D01*
X-18974149Y35906250D01*
X-19489203Y35682207D01*
X-19516792Y35665780D01*
X-19959196Y35319724D01*
X-19981783Y35296903D01*
X-20323258Y34850954D01*
X-20339399Y34823198D01*
X-20558119Y34305861D01*
X-20566784Y34274943D01*
X-20648767Y33719286D01*
X-20650102Y33703255D01*
X-20712172Y30558490D01*
X-20718104Y30418294D01*
X-21221264Y22669627D01*
X-21339500Y22001710D01*
X-21598376Y21382401D01*
X-21986559Y20834799D01*
X-22485221Y20385467D01*
X-23076307Y20052751D01*
X-25332321Y19092745D01*
X-25345480Y19086222D01*
X-25982418Y18723198D01*
X-26006049Y18705833D01*
X-26542742Y18206397D01*
X-26561759Y18184074D01*
X-26969594Y17574856D01*
X-26982985Y17548767D01*
X-27240215Y16862248D01*
X-27247265Y16833783D01*
X-27340176Y16106566D01*
X-27341192Y16091914D01*
X-27557780Y-2967770D01*
X-27646930Y-3393778D01*
X-27884196Y-3743469D01*
X-28236557Y-3976744D01*
X-28651070Y-4058584D01*
X-29063893Y-3976619D01*
X-29414032Y-3743197D01*
X-29648438Y-3393712D01*
X-29734063Y-2968711D01*
X-29788283Y16333527D01*
X-29707944Y17041021D01*
X-29469757Y17704164D01*
X-29085620Y18294871D01*
X-28576082Y18781545D01*
X-27961977Y19141933D01*
X-24730940Y20564774D01*
X-24718485Y20571098D01*
X-24114963Y20920560D01*
X-24092503Y20937105D01*
X-23579835Y21409900D01*
X-23561530Y21430950D01*
X-23164452Y22004267D01*
X-23151183Y22028805D01*
X-22888853Y22674983D01*
X-22881262Y22701827D01*
X-22766337Y23389690D01*
X-22764797Y23403573D01*
X-22540951Y27432794D01*
X-22540989Y27447539D01*
X-22583200Y28142489D01*
X-22588378Y28171469D01*
X-22789463Y28838028D01*
X-22801175Y28865037D01*
X-23150328Y29467389D01*
X-23167944Y29490976D01*
X-23646404Y29996755D01*
X-23668978Y30015653D01*
X-24251035Y30397681D01*
X-24277353Y30410873D01*
X-24931732Y30648622D01*
X-24960380Y30655400D01*
X-25651918Y30736095D01*
X-25666638Y30736951D01*
X-28276737Y30736951D01*
X-28811036Y30783656D01*
X-29329123Y30922355D01*
X-30206003Y31241220D01*
X-30755654Y31534878D01*
X-31194557Y31964321D01*
X-31495647Y32499491D01*
X-31638943Y33115237D01*
X-31639058Y33115727D01*
X-31748979Y33579722D01*
X-31762622Y33614030D01*
X-32001356Y34026801D01*
X-32024290Y34055735D01*
X-32371660Y34382397D01*
X-32401948Y34403512D01*
X-32828597Y34616457D01*
X-32863678Y34627968D01*
X-33333546Y34709197D01*
X-33351966Y34711012D01*
X-39062839Y34855591D01*
X-39077303Y34855133D01*
X-39708704Y34798983D01*
X-39737007Y34793166D01*
X-40339372Y34595744D01*
X-40365628Y34583679D01*
X-40907776Y34255206D01*
X-40930626Y34237519D01*
X-41384492Y33794998D01*
X-41402752Y33772603D01*
X-41744841Y33238941D01*
X-41757566Y33212999D01*
X-41970170Y32615823D01*
X-41976702Y32587676D01*
X-42048814Y31957899D01*
X-42049638Y31943451D01*
X-42049638Y29593951D01*
X-42045311Y29561081D01*
X-41977252Y29307081D01*
X-41944382Y29250148D01*
X-41758441Y29064207D01*
X-41701508Y29031337D01*
X-41226379Y28904027D01*
X-41088562Y28766210D01*
X-41033638Y28561230D01*
X-41033638Y-3157551D01*
X-41123735Y-3596170D01*
X-41371908Y-3952933D01*
X-41740623Y-4182982D01*
X-42171000Y-4249188D01*
X-42614023Y-4140909D01*
X-42986095Y-3875722D01*
X-43233453Y-3491565D01*
X-43323252Y-3031020D01*
X-43425195Y33193322D01*
X-43426018Y33207408D01*
X-43506127Y33907241D01*
X-43512417Y33934706D01*
X-43744861Y34599652D01*
X-43757052Y34625055D01*
X-44130389Y35222386D01*
X-44147881Y35244475D01*
X-44643736Y35744787D01*
X-44665667Y35762476D01*
X-45259631Y36141144D01*
X-45284923Y36153561D01*
X-45947763Y36391947D01*
X-45975171Y36398483D01*
X-46674259Y36484852D01*
X-46688337Y36485801D01*
X-51163100Y36538445D01*
X-51177375Y36537809D01*
X-51887082Y36466021D01*
X-51914968Y36459979D01*
X-52590736Y36231562D01*
X-52616569Y36219447D01*
X-53224289Y35845931D01*
X-53246766Y35828354D01*
X-53755761Y35328592D01*
X-53773746Y35306441D01*
X-54158323Y34705660D01*
X-54170909Y34680053D01*
X-54411658Y34008578D01*
X-54418210Y33980807D01*
X-54502976Y33272533D01*
X-54503873Y33258272D01*
X-54741247Y-3031954D01*
X-54833437Y-3480771D01*
X-55083001Y-3849750D01*
X-55454620Y-4095362D01*
X-55891931Y-4180337D01*
X-56329462Y-4091823D01*
X-56700281Y-3843234D01*
X-56948388Y-3472091D01*
X-57038841Y-3021959D01*
X-57149759Y36236904D01*
X-57145895Y36400986D01*
X-57039678Y38526913D01*
X-57039561Y38530022D01*
X-57035607Y38685521D01*
X-57035566Y38688632D01*
X-56973841Y105464842D01*
X-56887084Y105910071D01*
X-56656824Y106265000D01*
X-55027565Y106265000D01*
X-54835577Y105986964D01*
G04 #@! TO.N,/C1-*
G36*
X-35305992Y17524589D02*
X-35295785Y17476099D01*
X-35267799Y17435205D01*
X-35226294Y17408135D01*
X-35179000Y17399000D01*
X-34289586Y17399000D01*
X-34217960Y-4571830D01*
X-36576478Y-4571991D01*
X-36702520Y28829000D01*
X-35431597Y28829000D01*
X-35305992Y17524589D01*
X-35305992Y17524589D01*
G37*
X-35305992Y17524589D02*
X-35295785Y17476099D01*
X-35267799Y17435205D01*
X-35226294Y17408135D01*
X-35179000Y17399000D01*
X-34289586Y17399000D01*
X-34217960Y-4571830D01*
X-36576478Y-4571991D01*
X-36702520Y28829000D01*
X-35431597Y28829000D01*
X-35305992Y17524589D01*
G36*
X-7136103Y1290500D02*
X-9142847Y1290500D01*
X-9500752Y1219308D01*
X-9609074Y1146930D01*
X-9651755Y1145951D01*
X-9588733Y34610373D01*
X-7073245Y34668049D01*
X-7136103Y1290500D01*
X-7136103Y1290500D01*
G37*
X-7136103Y1290500D02*
X-9142847Y1290500D01*
X-9500752Y1219308D01*
X-9609074Y1146930D01*
X-9651755Y1145951D01*
X-9588733Y34610373D01*
X-7073245Y34668049D01*
X-7136103Y1290500D01*
G36*
X6153965Y864130D02*
X4482470Y838230D01*
X4439394Y34330579D01*
X6216990Y34330579D01*
X6153965Y864130D01*
X6153965Y864130D01*
G37*
X6153965Y864130D02*
X4482470Y838230D01*
X4439394Y34330579D01*
X6216990Y34330579D01*
X6153965Y864130D01*
G36*
X-20575376Y17785969D02*
X-20826641Y-4451012D01*
X-23050126Y-4560098D01*
X-22987371Y17900826D01*
X-20575376Y17785969D01*
X-20575376Y17785969D01*
G37*
X-20575376Y17785969D02*
X-20826641Y-4451012D01*
X-23050126Y-4560098D01*
X-22987371Y17900826D01*
X-20575376Y17785969D01*
G36*
X-47647202Y-4384255D02*
X-50291789Y-4442183D01*
X-50228701Y34356371D01*
X-47710289Y34414062D01*
X-47647202Y-4384255D01*
X-47647202Y-4384255D01*
G37*
X-47647202Y-4384255D02*
X-50291789Y-4442183D01*
X-50228701Y34356371D01*
X-47710289Y34414062D01*
X-47647202Y-4384255D01*
G36*
X-61341000Y-4572000D02*
X-62738000Y-4572000D01*
X-62738000Y34417000D01*
X-61341000Y34417000D01*
X-61341000Y-4572000D01*
X-61341000Y-4572000D01*
G37*
X-61341000Y-4572000D02*
X-62738000Y-4572000D01*
X-62738000Y34417000D01*
X-61341000Y34417000D01*
X-61341000Y-4572000D01*
G36*
X6857748Y39248653D02*
X4191000Y39364598D01*
X4191000Y106045000D01*
X6731240Y106045000D01*
X6857748Y39248653D01*
X6857748Y39248653D01*
G37*
X6857748Y39248653D02*
X4191000Y39364598D01*
X4191000Y106045000D01*
X6731240Y106045000D01*
X6857748Y39248653D01*
G36*
X-6984759Y39243000D02*
X-9524759Y39243000D01*
X-9398241Y105918000D01*
X-6858241Y105918000D01*
X-6984759Y39243000D01*
X-6984759Y39243000D01*
G37*
X-6984759Y39243000D02*
X-9524759Y39243000D01*
X-9398241Y105918000D01*
X-6858241Y105918000D01*
X-6984759Y39243000D01*
G36*
X-20626861Y39491115D02*
X-23042000Y39376187D01*
X-23042000Y106177535D01*
X-21079900Y106265000D01*
X-20447434Y106265000D01*
X-20626861Y39491115D01*
X-20626861Y39491115D01*
G37*
X-20626861Y39491115D02*
X-23042000Y39376187D01*
X-23042000Y106177535D01*
X-21079900Y106265000D01*
X-20447434Y106265000D01*
X-20626861Y39491115D01*
G36*
X-34289285Y39116000D02*
X-36702660Y39116000D01*
X-36523243Y106265000D01*
X-33909912Y106265000D01*
X-34289285Y39116000D01*
X-34289285Y39116000D01*
G37*
X-34289285Y39116000D02*
X-36702660Y39116000D01*
X-36523243Y106265000D01*
X-33909912Y106265000D01*
X-34289285Y39116000D01*
G36*
X-47751519Y39497000D02*
X-50291899Y39497000D01*
X-50238915Y106172000D01*
X-47498483Y106172000D01*
X-47751519Y39497000D01*
X-47751519Y39497000D01*
G37*
X-47751519Y39497000D02*
X-50291899Y39497000D01*
X-50238915Y106172000D01*
X-47498483Y106172000D01*
X-47751519Y39497000D01*
G36*
X-61361920Y39164189D02*
X-62928620Y39178358D01*
X-62991880Y105665113D01*
X-61373266Y105679344D01*
X-61361920Y39164189D01*
X-61361920Y39164189D01*
G37*
X-61361920Y39164189D02*
X-62928620Y39178358D01*
X-62991880Y105665113D01*
X-61373266Y105679344D01*
X-61361920Y39164189D01*
G04 #@! TO.N,/C2-*
G36*
X50292000Y33783094D02*
X50292000Y-5212642D01*
X47752067Y-5328093D01*
X47771840Y33804894D01*
X50292000Y33783094D01*
X50292000Y33783094D01*
G37*
X50292000Y33783094D02*
X50292000Y-5212642D01*
X47752067Y-5328093D01*
X47771840Y33804894D01*
X50292000Y33783094D01*
G04 #@! TO.N,/C2+*
G36*
X16129312Y-5207000D02*
X14857549Y-5207000D01*
X14731992Y5716460D01*
X14721766Y5764946D01*
X14693764Y5805829D01*
X14652249Y5832884D01*
X14605000Y5842000D01*
X13843000Y5842000D01*
X13843000Y16891000D01*
X16183687Y16891000D01*
X16129312Y-5207000D01*
X16129312Y-5207000D01*
G37*
X16129312Y-5207000D02*
X14857549Y-5207000D01*
X14731992Y5716460D01*
X14721766Y5764946D01*
X14693764Y5805829D01*
X14652249Y5832884D01*
X14605000Y5842000D01*
X13843000Y5842000D01*
X13843000Y16891000D01*
X16183687Y16891000D01*
X16129312Y-5207000D01*
G04 #@! TO.N,/C2-*
G36*
X9399245Y6076793D02*
X8128000Y5864919D01*
X8128000Y16764000D01*
X9523515Y16764000D01*
X9399245Y6076793D01*
X9399245Y6076793D01*
G37*
X9399245Y6076793D02*
X8128000Y5864919D01*
X8128000Y16764000D01*
X9523515Y16764000D01*
X9399245Y6076793D01*
G04 #@! TD*
M02*
