G04 #@! TF.GenerationSoftware,KiCad,Pcbnew,(5.0.0)*
G04 #@! TF.CreationDate,2019-05-02T23:43:43-07:00*
G04 #@! TF.ProjectId,SSB Cap Board - Rev2,5353422043617020426F617264202D20,rev?*
G04 #@! TF.SameCoordinates,Original*
G04 #@! TF.FileFunction,Copper,L2,Bot,Signal*
G04 #@! TF.FilePolarity,Positive*
%FSLAX46Y46*%
G04 Gerber Fmt 4.6, Leading zero omitted, Abs format (unit mm)*
G04 Created by KiCad (PCBNEW (5.0.0)) date 05/02/19 23:43:43*
%MOMM*%
%LPD*%
G01*
G04 APERTURE LIST*
G04 #@! TA.AperFunction,SMDPad,CuDef*
%ADD10R,1.250000X5.000000*%
G04 #@! TD*
G04 #@! TA.AperFunction,ComponentPad*
%ADD11C,6.400000*%
G04 #@! TD*
G04 #@! TA.AperFunction,ComponentPad*
%ADD12C,0.800000*%
G04 #@! TD*
G04 #@! TA.AperFunction,ViaPad*
%ADD13C,0.889000*%
G04 #@! TD*
G04 #@! TA.AperFunction,Conductor*
%ADD14C,0.254000*%
G04 #@! TD*
G04 #@! TA.AperFunction,NonConductor*
%ADD15C,0.254000*%
G04 #@! TD*
G04 APERTURE END LIST*
D10*
G04 #@! TO.P,C505,1*
G04 #@! TO.N,/C2+*
X42805000Y19695000D03*
G04 #@! TO.P,C505,2*
G04 #@! TO.N,/C2-*
X48505000Y19695000D03*
G04 #@! TD*
G04 #@! TO.P,C503,1*
G04 #@! TO.N,/C2+*
X28095000Y14105000D03*
G04 #@! TO.P,C503,2*
G04 #@! TO.N,/C2-*
X22395000Y14105000D03*
G04 #@! TD*
G04 #@! TO.P,C502,2*
G04 #@! TO.N,/C2-*
X62105000Y103395000D03*
G04 #@! TO.P,C502,1*
G04 #@! TO.N,/C2+*
X56405000Y103395000D03*
G04 #@! TD*
G04 #@! TO.P,C501,1*
G04 #@! TO.N,/C2+*
X29205000Y103395000D03*
G04 #@! TO.P,C501,2*
G04 #@! TO.N,/C2-*
X34905000Y103395000D03*
G04 #@! TD*
G04 #@! TO.P,C500,2*
G04 #@! TO.N,/C2-*
X62105000Y25295000D03*
G04 #@! TO.P,C500,1*
G04 #@! TO.N,/C2+*
X56405000Y25295000D03*
G04 #@! TD*
G04 #@! TO.P,C498,1*
G04 #@! TO.N,/C2+*
X55295000Y-2695000D03*
G04 #@! TO.P,C498,2*
G04 #@! TO.N,/C2-*
X49595000Y-2695000D03*
G04 #@! TD*
G04 #@! TO.P,C452,2*
G04 #@! TO.N,/C2-*
X48505000Y14095000D03*
G04 #@! TO.P,C452,1*
G04 #@! TO.N,/C2+*
X42805000Y14095000D03*
G04 #@! TD*
G04 #@! TO.P,C449,1*
G04 #@! TO.N,/C2+*
X41695000Y53005000D03*
G04 #@! TO.P,C449,2*
G04 #@! TO.N,/C2-*
X35995000Y53005000D03*
G04 #@! TD*
G04 #@! TO.P,C496,2*
G04 #@! TO.N,/C2-*
X21205000Y14095000D03*
G04 #@! TO.P,C496,1*
G04 #@! TO.N,/C2+*
X15505000Y14095000D03*
G04 #@! TD*
G04 #@! TO.P,C495,1*
G04 #@! TO.N,/C2+*
X29205000Y2895000D03*
G04 #@! TO.P,C495,2*
G04 #@! TO.N,/C2-*
X34905000Y2895000D03*
G04 #@! TD*
G04 #@! TO.P,C494,2*
G04 #@! TO.N,/C2-*
X48505000Y30895000D03*
G04 #@! TO.P,C494,1*
G04 #@! TO.N,/C2+*
X42805000Y30895000D03*
G04 #@! TD*
G04 #@! TO.P,C493,1*
G04 #@! TO.N,/C2+*
X29205000Y97795000D03*
G04 #@! TO.P,C493,2*
G04 #@! TO.N,/C2-*
X34905000Y97795000D03*
G04 #@! TD*
G04 #@! TO.P,C492,2*
G04 #@! TO.N,/C2-*
X62105000Y19695000D03*
G04 #@! TO.P,C492,1*
G04 #@! TO.N,/C2+*
X56405000Y19695000D03*
G04 #@! TD*
G04 #@! TO.P,C491,1*
G04 #@! TO.N,/C2+*
X55295000Y2905000D03*
G04 #@! TO.P,C491,2*
G04 #@! TO.N,/C2-*
X49595000Y2905000D03*
G04 #@! TD*
G04 #@! TO.P,C490,2*
G04 #@! TO.N,/C2-*
X48505000Y8495000D03*
G04 #@! TO.P,C490,1*
G04 #@! TO.N,/C2+*
X42805000Y8495000D03*
G04 #@! TD*
G04 #@! TO.P,C499,1*
G04 #@! TO.N,/C2+*
X41695000Y58605000D03*
G04 #@! TO.P,C499,2*
G04 #@! TO.N,/C2-*
X35995000Y58605000D03*
G04 #@! TD*
G04 #@! TO.P,C497,2*
G04 #@! TO.N,/C2-*
X22395000Y-2695000D03*
G04 #@! TO.P,C497,1*
G04 #@! TO.N,/C2+*
X28095000Y-2695000D03*
G04 #@! TD*
G04 #@! TO.P,C524,1*
G04 #@! TO.N,/C2+*
X41695000Y47405000D03*
G04 #@! TO.P,C524,2*
G04 #@! TO.N,/C2-*
X35995000Y47405000D03*
G04 #@! TD*
G04 #@! TO.P,C523,2*
G04 #@! TO.N,/C2-*
X34905000Y-2705000D03*
G04 #@! TO.P,C523,1*
G04 #@! TO.N,/C2+*
X29205000Y-2705000D03*
G04 #@! TD*
G04 #@! TO.P,C522,1*
G04 #@! TO.N,/C2+*
X55295000Y81005000D03*
G04 #@! TO.P,C522,2*
G04 #@! TO.N,/C2-*
X49595000Y81005000D03*
G04 #@! TD*
G04 #@! TO.P,C521,2*
G04 #@! TO.N,/C2-*
X34905000Y92195000D03*
G04 #@! TO.P,C521,1*
G04 #@! TO.N,/C2+*
X29205000Y92195000D03*
G04 #@! TD*
G04 #@! TO.P,C520,1*
G04 #@! TO.N,/C2+*
X56405000Y14095000D03*
G04 #@! TO.P,C520,2*
G04 #@! TO.N,/C2-*
X62105000Y14095000D03*
G04 #@! TD*
G04 #@! TO.P,C519,2*
G04 #@! TO.N,/C2-*
X49595000Y8505000D03*
G04 #@! TO.P,C519,1*
G04 #@! TO.N,/C2+*
X55295000Y8505000D03*
G04 #@! TD*
G04 #@! TO.P,C518,1*
G04 #@! TO.N,/C2+*
X42805000Y2895000D03*
G04 #@! TO.P,C518,2*
G04 #@! TO.N,/C2-*
X48505000Y2895000D03*
G04 #@! TD*
G04 #@! TO.P,C480,2*
G04 #@! TO.N,/C2-*
X35995000Y64205000D03*
G04 #@! TO.P,C480,1*
G04 #@! TO.N,/C2+*
X41695000Y64205000D03*
G04 #@! TD*
G04 #@! TO.P,C506,1*
G04 #@! TO.N,/C2+*
X28095000Y2905000D03*
G04 #@! TO.P,C506,2*
G04 #@! TO.N,/C2-*
X22395000Y2905000D03*
G04 #@! TD*
G04 #@! TO.P,C515,2*
G04 #@! TO.N,/C2-*
X48505000Y103395000D03*
G04 #@! TO.P,C515,1*
G04 #@! TO.N,/C2+*
X42805000Y103395000D03*
G04 #@! TD*
G04 #@! TO.P,C514,1*
G04 #@! TO.N,/C2+*
X41695000Y-2695000D03*
G04 #@! TO.P,C514,2*
G04 #@! TO.N,/C2-*
X35995000Y-2695000D03*
G04 #@! TD*
G04 #@! TO.P,C513,2*
G04 #@! TO.N,/C2-*
X62105000Y41795000D03*
G04 #@! TO.P,C513,1*
G04 #@! TO.N,/C2+*
X56405000Y41795000D03*
G04 #@! TD*
G04 #@! TO.P,C512,1*
G04 #@! TO.N,/C2+*
X55295000Y86605000D03*
G04 #@! TO.P,C512,2*
G04 #@! TO.N,/C2-*
X49595000Y86605000D03*
G04 #@! TD*
G04 #@! TO.P,C511,2*
G04 #@! TO.N,/C2-*
X34905000Y86595000D03*
G04 #@! TO.P,C511,1*
G04 #@! TO.N,/C2+*
X29205000Y86595000D03*
G04 #@! TD*
G04 #@! TO.P,C510,1*
G04 #@! TO.N,/C2+*
X56405000Y8495000D03*
G04 #@! TO.P,C510,2*
G04 #@! TO.N,/C2-*
X62105000Y8495000D03*
G04 #@! TD*
G04 #@! TO.P,C509,2*
G04 #@! TO.N,/C2-*
X49595000Y14105000D03*
G04 #@! TO.P,C509,1*
G04 #@! TO.N,/C2+*
X55295000Y14105000D03*
G04 #@! TD*
G04 #@! TO.P,C507,1*
G04 #@! TO.N,/C2+*
X42805000Y-2705000D03*
G04 #@! TO.P,C507,2*
G04 #@! TO.N,/C2-*
X48505000Y-2705000D03*
G04 #@! TD*
G04 #@! TO.P,C516,2*
G04 #@! TO.N,/C2-*
X35995000Y69805000D03*
G04 #@! TO.P,C516,1*
G04 #@! TO.N,/C2+*
X41695000Y69805000D03*
G04 #@! TD*
G04 #@! TO.P,C469,1*
G04 #@! TO.N,/C2+*
X28095000Y8505000D03*
G04 #@! TO.P,C469,2*
G04 #@! TO.N,/C2-*
X22395000Y8505000D03*
G04 #@! TD*
G04 #@! TO.P,C468,2*
G04 #@! TO.N,/C2-*
X48505000Y97795000D03*
G04 #@! TO.P,C468,1*
G04 #@! TO.N,/C2+*
X42805000Y97795000D03*
G04 #@! TD*
G04 #@! TO.P,C467,1*
G04 #@! TO.N,/C2+*
X41695000Y2905000D03*
G04 #@! TO.P,C467,2*
G04 #@! TO.N,/C2-*
X35995000Y2905000D03*
G04 #@! TD*
G04 #@! TO.P,C466,2*
G04 #@! TO.N,/C2-*
X49595000Y41805000D03*
G04 #@! TO.P,C466,1*
G04 #@! TO.N,/C2+*
X55295000Y41805000D03*
G04 #@! TD*
G04 #@! TO.P,C465,1*
G04 #@! TO.N,/C2+*
X55295000Y92205000D03*
G04 #@! TO.P,C465,2*
G04 #@! TO.N,/C2-*
X49595000Y92205000D03*
G04 #@! TD*
G04 #@! TO.P,C464,2*
G04 #@! TO.N,/C2-*
X48505000Y41795000D03*
G04 #@! TO.P,C464,1*
G04 #@! TO.N,/C2+*
X42805000Y41795000D03*
G04 #@! TD*
G04 #@! TO.P,C463,1*
G04 #@! TO.N,/C2+*
X29205000Y80995000D03*
G04 #@! TO.P,C463,2*
G04 #@! TO.N,/C2-*
X34905000Y80995000D03*
G04 #@! TD*
G04 #@! TO.P,C461,2*
G04 #@! TO.N,/C2-*
X62105000Y2895000D03*
G04 #@! TO.P,C461,1*
G04 #@! TO.N,/C2+*
X56405000Y2895000D03*
G04 #@! TD*
G04 #@! TO.P,C488,1*
G04 #@! TO.N,/C2+*
X55295000Y19705000D03*
G04 #@! TO.P,C488,2*
G04 #@! TO.N,/C2-*
X49595000Y19705000D03*
G04 #@! TD*
G04 #@! TO.P,C460,2*
G04 #@! TO.N,/C2-*
X35995000Y75405000D03*
G04 #@! TO.P,C460,1*
G04 #@! TO.N,/C2+*
X41695000Y75405000D03*
G04 #@! TD*
G04 #@! TO.P,C459,1*
G04 #@! TO.N,/C2+*
X29205000Y8495000D03*
G04 #@! TO.P,C459,2*
G04 #@! TO.N,/C2-*
X34905000Y8495000D03*
G04 #@! TD*
G04 #@! TO.P,C458,2*
G04 #@! TO.N,/C2-*
X48505000Y92195000D03*
G04 #@! TO.P,C458,1*
G04 #@! TO.N,/C2+*
X42805000Y92195000D03*
G04 #@! TD*
G04 #@! TO.P,C457,1*
G04 #@! TO.N,/C2+*
X41695000Y8505000D03*
G04 #@! TO.P,C457,2*
G04 #@! TO.N,/C2-*
X35995000Y8505000D03*
G04 #@! TD*
G04 #@! TO.P,C455,1*
G04 #@! TO.N,/C2+*
X55295000Y97805000D03*
G04 #@! TO.P,C455,2*
G04 #@! TO.N,/C2-*
X49595000Y97805000D03*
G04 #@! TD*
G04 #@! TO.P,C454,2*
G04 #@! TO.N,/C2-*
X35995000Y41805000D03*
G04 #@! TO.P,C454,1*
G04 #@! TO.N,/C2+*
X41695000Y41805000D03*
G04 #@! TD*
G04 #@! TO.P,C453,1*
G04 #@! TO.N,/C2+*
X29205000Y75395000D03*
G04 #@! TO.P,C453,2*
G04 #@! TO.N,/C2-*
X34905000Y75395000D03*
G04 #@! TD*
G04 #@! TO.P,C489,1*
G04 #@! TO.N,/C2+*
X41695000Y19705000D03*
G04 #@! TO.P,C489,2*
G04 #@! TO.N,/C2-*
X35995000Y19705000D03*
G04 #@! TD*
G04 #@! TO.P,C487,2*
G04 #@! TO.N,/C2-*
X49595000Y25305000D03*
G04 #@! TO.P,C487,1*
G04 #@! TO.N,/C2+*
X55295000Y25305000D03*
G04 #@! TD*
G04 #@! TO.P,C486,1*
G04 #@! TO.N,/C2+*
X41695000Y81005000D03*
G04 #@! TO.P,C486,2*
G04 #@! TO.N,/C2-*
X35995000Y81005000D03*
G04 #@! TD*
G04 #@! TO.P,C485,2*
G04 #@! TO.N,/C2-*
X48505000Y86595000D03*
G04 #@! TO.P,C485,1*
G04 #@! TO.N,/C2+*
X42805000Y86595000D03*
G04 #@! TD*
G04 #@! TO.P,C484,1*
G04 #@! TO.N,/C2+*
X41695000Y14105000D03*
G04 #@! TO.P,C484,2*
G04 #@! TO.N,/C2-*
X35995000Y14105000D03*
G04 #@! TD*
G04 #@! TO.P,C483,2*
G04 #@! TO.N,/C2-*
X62105000Y86595000D03*
G04 #@! TO.P,C483,1*
G04 #@! TO.N,/C2+*
X56405000Y86595000D03*
G04 #@! TD*
G04 #@! TO.P,C482,1*
G04 #@! TO.N,/C2+*
X55295000Y103405000D03*
G04 #@! TO.P,C482,2*
G04 #@! TO.N,/C2-*
X49595000Y103405000D03*
G04 #@! TD*
G04 #@! TO.P,C481,2*
G04 #@! TO.N,/C2-*
X62105000Y97795000D03*
G04 #@! TO.P,C481,1*
G04 #@! TO.N,/C2+*
X56405000Y97795000D03*
G04 #@! TD*
G04 #@! TO.P,C508,1*
G04 #@! TO.N,/C2+*
X29205000Y69795000D03*
G04 #@! TO.P,C508,2*
G04 #@! TO.N,/C2-*
X34905000Y69795000D03*
G04 #@! TD*
G04 #@! TO.P,C478,1*
G04 #@! TO.N,/C2+*
X15505000Y8495000D03*
G04 #@! TO.P,C478,2*
G04 #@! TO.N,/C2-*
X21205000Y8495000D03*
G04 #@! TD*
G04 #@! TO.P,C476,1*
G04 #@! TO.N,/C2+*
X42805000Y25295000D03*
G04 #@! TO.P,C476,2*
G04 #@! TO.N,/C2-*
X48505000Y25295000D03*
G04 #@! TD*
G04 #@! TO.P,C475,2*
G04 #@! TO.N,/C2-*
X35995000Y86605000D03*
G04 #@! TO.P,C475,1*
G04 #@! TO.N,/C2+*
X41695000Y86605000D03*
G04 #@! TD*
G04 #@! TO.P,C474,1*
G04 #@! TO.N,/C2+*
X42805000Y80995000D03*
G04 #@! TO.P,C474,2*
G04 #@! TO.N,/C2-*
X48505000Y80995000D03*
G04 #@! TD*
G04 #@! TO.P,C473,2*
G04 #@! TO.N,/C2-*
X62105000Y80995000D03*
G04 #@! TO.P,C473,1*
G04 #@! TO.N,/C2+*
X56405000Y80995000D03*
G04 #@! TD*
G04 #@! TO.P,C472,1*
G04 #@! TO.N,/C2+*
X56405000Y-2705000D03*
G04 #@! TO.P,C472,2*
G04 #@! TO.N,/C2-*
X62105000Y-2705000D03*
G04 #@! TD*
G04 #@! TO.P,C471,2*
G04 #@! TO.N,/C2-*
X49595000Y30905000D03*
G04 #@! TO.P,C471,1*
G04 #@! TO.N,/C2+*
X55295000Y30905000D03*
G04 #@! TD*
G04 #@! TO.P,C470,1*
G04 #@! TO.N,/C2+*
X29205000Y64195000D03*
G04 #@! TO.P,C470,2*
G04 #@! TO.N,/C2-*
X34905000Y64195000D03*
G04 #@! TD*
G04 #@! TO.P,C579,1*
G04 #@! TO.N,/C2+*
X15505000Y2895000D03*
G04 #@! TO.P,C579,2*
G04 #@! TO.N,/C2-*
X21205000Y2895000D03*
G04 #@! TD*
G04 #@! TO.P,C575,1*
G04 #@! TO.N,/C2+*
X41695000Y92205000D03*
G04 #@! TO.P,C575,2*
G04 #@! TO.N,/C2-*
X35995000Y92205000D03*
G04 #@! TD*
G04 #@! TO.P,C574,2*
G04 #@! TO.N,/C2-*
X48505000Y75395000D03*
G04 #@! TO.P,C574,1*
G04 #@! TO.N,/C2+*
X42805000Y75395000D03*
G04 #@! TD*
G04 #@! TO.P,C600,1*
G04 #@! TO.N,/C2+*
X56405000Y75395000D03*
G04 #@! TO.P,C600,2*
G04 #@! TO.N,/C2-*
X62105000Y75395000D03*
G04 #@! TD*
G04 #@! TO.P,C572,2*
G04 #@! TO.N,/C2-*
X62105000Y30895000D03*
G04 #@! TO.P,C572,1*
G04 #@! TO.N,/C2+*
X56405000Y30895000D03*
G04 #@! TD*
G04 #@! TO.P,C525,1*
G04 #@! TO.N,/C2+*
X29205000Y58595000D03*
G04 #@! TO.P,C525,2*
G04 #@! TO.N,/C2-*
X34905000Y58595000D03*
G04 #@! TD*
G04 #@! TO.P,C569,1*
G04 #@! TO.N,/C2+*
X15505000Y-2705000D03*
G04 #@! TO.P,C569,2*
G04 #@! TO.N,/C2-*
X21205000Y-2705000D03*
G04 #@! TD*
G04 #@! TO.P,C565,1*
G04 #@! TO.N,/C2+*
X41695000Y97805000D03*
G04 #@! TO.P,C565,2*
G04 #@! TO.N,/C2-*
X35995000Y97805000D03*
G04 #@! TD*
G04 #@! TO.P,C526,1*
G04 #@! TO.N,/C2+*
X42805000Y69795000D03*
G04 #@! TO.P,C526,2*
G04 #@! TO.N,/C2-*
X48505000Y69795000D03*
G04 #@! TD*
G04 #@! TO.P,C571,2*
G04 #@! TO.N,/C2-*
X62105000Y69795000D03*
G04 #@! TO.P,C571,1*
G04 #@! TO.N,/C2+*
X56405000Y69795000D03*
G04 #@! TD*
G04 #@! TO.P,C598,1*
G04 #@! TO.N,/C2+*
X41695000Y25305000D03*
G04 #@! TO.P,C598,2*
G04 #@! TO.N,/C2-*
X35995000Y25305000D03*
G04 #@! TD*
G04 #@! TO.P,C582,1*
G04 #@! TO.N,/C2+*
X41695000Y103405000D03*
G04 #@! TO.P,C582,2*
G04 #@! TO.N,/C2-*
X35995000Y103405000D03*
G04 #@! TD*
G04 #@! TO.P,C580,2*
G04 #@! TO.N,/C2-*
X62105000Y92195000D03*
G04 #@! TO.P,C580,1*
G04 #@! TO.N,/C2+*
X56405000Y92195000D03*
G04 #@! TD*
G04 #@! TO.P,C589,1*
G04 #@! TO.N,/C2+*
X42805000Y64195000D03*
G04 #@! TO.P,C589,2*
G04 #@! TO.N,/C2-*
X48505000Y64195000D03*
G04 #@! TD*
G04 #@! TO.P,C587,1*
G04 #@! TO.N,/C2+*
X56405000Y64195000D03*
G04 #@! TO.P,C587,2*
G04 #@! TO.N,/C2-*
X62105000Y64195000D03*
G04 #@! TD*
G04 #@! TO.P,C586,2*
G04 #@! TO.N,/C2-*
X49595000Y47405000D03*
G04 #@! TO.P,C586,1*
G04 #@! TO.N,/C2+*
X55295000Y47405000D03*
G04 #@! TD*
G04 #@! TO.P,C581,1*
G04 #@! TO.N,/C2+*
X29205000Y52995000D03*
G04 #@! TO.P,C581,2*
G04 #@! TO.N,/C2-*
X34905000Y52995000D03*
G04 #@! TD*
G04 #@! TO.P,C543,1*
G04 #@! TO.N,/C2+*
X42805000Y58595000D03*
G04 #@! TO.P,C543,2*
G04 #@! TO.N,/C2-*
X48505000Y58595000D03*
G04 #@! TD*
G04 #@! TO.P,C541,1*
G04 #@! TO.N,/C2+*
X56405000Y58595000D03*
G04 #@! TO.P,C541,2*
G04 #@! TO.N,/C2-*
X62105000Y58595000D03*
G04 #@! TD*
G04 #@! TO.P,C539,1*
G04 #@! TO.N,/C2+*
X55295000Y53005000D03*
G04 #@! TO.P,C539,2*
G04 #@! TO.N,/C2-*
X49595000Y53005000D03*
G04 #@! TD*
G04 #@! TO.P,C538,2*
G04 #@! TO.N,/C2-*
X34905000Y14095000D03*
G04 #@! TO.P,C538,1*
G04 #@! TO.N,/C2+*
X29205000Y14095000D03*
G04 #@! TD*
G04 #@! TO.P,C563,1*
G04 #@! TO.N,/C2+*
X29205000Y47395000D03*
G04 #@! TO.P,C563,2*
G04 #@! TO.N,/C2-*
X34905000Y47395000D03*
G04 #@! TD*
G04 #@! TO.P,C533,1*
G04 #@! TO.N,/C2+*
X42805000Y52995000D03*
G04 #@! TO.P,C533,2*
G04 #@! TO.N,/C2-*
X48505000Y52995000D03*
G04 #@! TD*
G04 #@! TO.P,C531,1*
G04 #@! TO.N,/C2+*
X56405000Y52995000D03*
G04 #@! TO.P,C531,2*
G04 #@! TO.N,/C2-*
X62105000Y52995000D03*
G04 #@! TD*
G04 #@! TO.P,C529,1*
G04 #@! TO.N,/C2+*
X55295000Y58605000D03*
G04 #@! TO.P,C529,2*
G04 #@! TO.N,/C2-*
X49595000Y58605000D03*
G04 #@! TD*
G04 #@! TO.P,C561,1*
G04 #@! TO.N,/C2+*
X42805000Y47395000D03*
G04 #@! TO.P,C561,2*
G04 #@! TO.N,/C2-*
X48505000Y47395000D03*
G04 #@! TD*
G04 #@! TO.P,C559,1*
G04 #@! TO.N,/C2+*
X56405000Y47395000D03*
G04 #@! TO.P,C559,2*
G04 #@! TO.N,/C2-*
X62105000Y47395000D03*
G04 #@! TD*
G04 #@! TO.P,C557,1*
G04 #@! TO.N,/C2+*
X55295000Y64205000D03*
G04 #@! TO.P,C557,2*
G04 #@! TO.N,/C2-*
X49595000Y64205000D03*
G04 #@! TD*
G04 #@! TO.P,C549,1*
G04 #@! TO.N,/C2+*
X29205000Y41795000D03*
G04 #@! TO.P,C549,2*
G04 #@! TO.N,/C2-*
X34905000Y41795000D03*
G04 #@! TD*
G04 #@! TO.P,C547,1*
G04 #@! TO.N,/C2+*
X55295000Y69805000D03*
G04 #@! TO.P,C547,2*
G04 #@! TO.N,/C2-*
X49595000Y69805000D03*
G04 #@! TD*
G04 #@! TO.P,C426,2*
G04 #@! TO.N,/C2-*
X49595000Y75405000D03*
G04 #@! TO.P,C426,1*
G04 #@! TO.N,/C2+*
X55295000Y75405000D03*
G04 #@! TD*
G04 #@! TO.P,C173,2*
G04 #@! TO.N,/C1-*
X-62105000Y31805000D03*
G04 #@! TO.P,C173,1*
G04 #@! TO.N,/C1+*
X-56405000Y31805000D03*
G04 #@! TD*
G04 #@! TO.P,C300,1*
G04 #@! TO.N,/C1+*
X-28095000Y80995000D03*
G04 #@! TO.P,C300,2*
G04 #@! TO.N,/C1-*
X-22395000Y80995000D03*
G04 #@! TD*
G04 #@! TO.P,C242,1*
G04 #@! TO.N,/C1+*
X-28095000Y86595000D03*
G04 #@! TO.P,C242,2*
G04 #@! TO.N,/C1-*
X-22395000Y86595000D03*
G04 #@! TD*
G04 #@! TO.P,C239,2*
G04 #@! TO.N,/C1-*
X-22395000Y58595000D03*
G04 #@! TO.P,C239,1*
G04 #@! TO.N,/C1+*
X-28095000Y58595000D03*
G04 #@! TD*
G04 #@! TO.P,C232,2*
G04 #@! TO.N,/C1-*
X-22395000Y92195000D03*
G04 #@! TO.P,C232,1*
G04 #@! TO.N,/C1+*
X-28095000Y92195000D03*
G04 #@! TD*
G04 #@! TO.P,C250,1*
G04 #@! TO.N,/C1+*
X-28095000Y64195000D03*
G04 #@! TO.P,C250,2*
G04 #@! TO.N,/C1-*
X-22395000Y64195000D03*
G04 #@! TD*
G04 #@! TO.P,C255,2*
G04 #@! TO.N,/C1-*
X-22395000Y41795000D03*
G04 #@! TO.P,C255,1*
G04 #@! TO.N,/C1+*
X-28095000Y41795000D03*
G04 #@! TD*
G04 #@! TO.P,C64,2*
G04 #@! TO.N,/C1-*
X-62105000Y26205000D03*
G04 #@! TO.P,C64,1*
G04 #@! TO.N,/C1+*
X-56405000Y26205000D03*
G04 #@! TD*
G04 #@! TO.P,C5,2*
G04 #@! TO.N,/C1-*
X18605000Y92195000D03*
G04 #@! TO.P,C5,1*
G04 #@! TO.N,/C1+*
X12905000Y92195000D03*
G04 #@! TD*
G04 #@! TO.P,C23,2*
G04 #@! TO.N,/C1-*
X18605000Y97795000D03*
G04 #@! TO.P,C23,1*
G04 #@! TO.N,/C1+*
X12905000Y97795000D03*
G04 #@! TD*
G04 #@! TO.P,C29,1*
G04 #@! TO.N,/C1+*
X12905000Y75395000D03*
G04 #@! TO.P,C29,2*
G04 #@! TO.N,/C1-*
X18605000Y75395000D03*
G04 #@! TD*
G04 #@! TO.P,C129,2*
G04 #@! TO.N,/C1-*
X18605000Y103395000D03*
G04 #@! TO.P,C129,1*
G04 #@! TO.N,/C1+*
X12905000Y103395000D03*
G04 #@! TD*
G04 #@! TO.P,C128,1*
G04 #@! TO.N,/C1+*
X12905000Y80995000D03*
G04 #@! TO.P,C128,2*
G04 #@! TO.N,/C1-*
X18605000Y80995000D03*
G04 #@! TD*
G04 #@! TO.P,C127,2*
G04 #@! TO.N,/C1-*
X18605000Y69795000D03*
G04 #@! TO.P,C127,1*
G04 #@! TO.N,/C1+*
X12905000Y69795000D03*
G04 #@! TD*
G04 #@! TO.P,C110,2*
G04 #@! TO.N,/C1-*
X18605000Y86595000D03*
G04 #@! TO.P,C110,1*
G04 #@! TO.N,/C1+*
X12905000Y86595000D03*
G04 #@! TD*
G04 #@! TO.P,C307,1*
G04 #@! TO.N,/C1+*
X-28095000Y75395000D03*
G04 #@! TO.P,C307,2*
G04 #@! TO.N,/C1-*
X-22395000Y75395000D03*
G04 #@! TD*
G04 #@! TO.P,C337,2*
G04 #@! TO.N,/C1-*
X-22395000Y47395000D03*
G04 #@! TO.P,C337,1*
G04 #@! TO.N,/C1+*
X-28095000Y47395000D03*
G04 #@! TD*
G04 #@! TO.P,C326,1*
G04 #@! TO.N,/C1+*
X-28095000Y103395000D03*
G04 #@! TO.P,C326,2*
G04 #@! TO.N,/C1-*
X-22395000Y103395000D03*
G04 #@! TD*
G04 #@! TO.P,C323,2*
G04 #@! TO.N,/C1-*
X-22395000Y69795000D03*
G04 #@! TO.P,C323,1*
G04 #@! TO.N,/C1+*
X-28095000Y69795000D03*
G04 #@! TD*
G04 #@! TO.P,C391,2*
G04 #@! TO.N,/C1-*
X-22395000Y97795000D03*
G04 #@! TO.P,C391,1*
G04 #@! TO.N,/C1+*
X-28095000Y97795000D03*
G04 #@! TD*
G04 #@! TO.P,C400,2*
G04 #@! TO.N,/C1-*
X-22395000Y52995000D03*
G04 #@! TO.P,C400,1*
G04 #@! TO.N,/C1+*
X-28095000Y52995000D03*
G04 #@! TD*
G04 #@! TO.P,C342,1*
G04 #@! TO.N,/C1+*
X-41695000Y-1805000D03*
G04 #@! TO.P,C342,2*
G04 #@! TO.N,/C1-*
X-35995000Y-1805000D03*
G04 #@! TD*
G04 #@! TO.P,C341,1*
G04 #@! TO.N,/C1+*
X-42880365Y-1795000D03*
G04 #@! TO.P,C341,2*
G04 #@! TO.N,/C1-*
X-48580365Y-1795000D03*
G04 #@! TD*
G04 #@! TO.P,C340,1*
G04 #@! TO.N,/C1+*
X-28095000Y3795000D03*
G04 #@! TO.P,C340,2*
G04 #@! TO.N,/C1-*
X-22395000Y3795000D03*
G04 #@! TD*
G04 #@! TO.P,C339,1*
G04 #@! TO.N,/C1+*
X-15605000Y-1795000D03*
G04 #@! TO.P,C339,2*
G04 #@! TO.N,/C1-*
X-21305000Y-1795000D03*
G04 #@! TD*
G04 #@! TO.P,C338,1*
G04 #@! TO.N,/C1+*
X-56405000Y41805000D03*
G04 #@! TO.P,C338,2*
G04 #@! TO.N,/C1-*
X-62105000Y41805000D03*
G04 #@! TD*
G04 #@! TO.P,C336,1*
G04 #@! TO.N,/C1+*
X-29205000Y-1795000D03*
G04 #@! TO.P,C336,2*
G04 #@! TO.N,/C1-*
X-34905000Y-1795000D03*
G04 #@! TD*
G04 #@! TO.P,C335,1*
G04 #@! TO.N,/C1+*
X-55295000Y26295000D03*
G04 #@! TO.P,C335,2*
G04 #@! TO.N,/C1-*
X-49595000Y26295000D03*
G04 #@! TD*
G04 #@! TO.P,C334,1*
G04 #@! TO.N,/C1+*
X-42805000Y3805000D03*
G04 #@! TO.P,C334,2*
G04 #@! TO.N,/C1-*
X-48505000Y3805000D03*
G04 #@! TD*
G04 #@! TO.P,C333,1*
G04 #@! TO.N,/C1+*
X-42805000Y31805000D03*
G04 #@! TO.P,C333,2*
G04 #@! TO.N,/C1-*
X-48505000Y31805000D03*
G04 #@! TD*
G04 #@! TO.P,C332,1*
G04 #@! TO.N,/C1+*
X-28095000Y-1805000D03*
G04 #@! TO.P,C332,2*
G04 #@! TO.N,/C1-*
X-22395000Y-1805000D03*
G04 #@! TD*
G04 #@! TO.P,C376,1*
G04 #@! TO.N,/C1+*
X-15605000Y3805000D03*
G04 #@! TO.P,C376,2*
G04 #@! TO.N,/C1-*
X-21305000Y3805000D03*
G04 #@! TD*
G04 #@! TO.P,C328,1*
G04 #@! TO.N,/C1+*
X-56405000Y47405000D03*
G04 #@! TO.P,C328,2*
G04 #@! TO.N,/C1-*
X-62105000Y47405000D03*
G04 #@! TD*
G04 #@! TO.P,C327,1*
G04 #@! TO.N,/C1+*
X-55295000Y97795000D03*
G04 #@! TO.P,C327,2*
G04 #@! TO.N,/C1-*
X-49595000Y97795000D03*
G04 #@! TD*
G04 #@! TO.P,C325,1*
G04 #@! TO.N,/C1+*
X-55295000Y20695000D03*
G04 #@! TO.P,C325,2*
G04 #@! TO.N,/C1-*
X-49595000Y20695000D03*
G04 #@! TD*
G04 #@! TO.P,C324,1*
G04 #@! TO.N,/C1+*
X-42805000Y9405000D03*
G04 #@! TO.P,C324,2*
G04 #@! TO.N,/C1-*
X-48505000Y9405000D03*
G04 #@! TD*
G04 #@! TO.P,C322,1*
G04 #@! TO.N,/C1+*
X-55295000Y-1805000D03*
G04 #@! TO.P,C322,2*
G04 #@! TO.N,/C1-*
X-49595000Y-1805000D03*
G04 #@! TD*
G04 #@! TO.P,C321,1*
G04 #@! TO.N,/C1+*
X-15605000Y9405000D03*
G04 #@! TO.P,C321,2*
G04 #@! TO.N,/C1-*
X-21305000Y9405000D03*
G04 #@! TD*
G04 #@! TO.P,C320,1*
G04 #@! TO.N,/C1+*
X-56405000Y53005000D03*
G04 #@! TO.P,C320,2*
G04 #@! TO.N,/C1-*
X-62105000Y53005000D03*
G04 #@! TD*
G04 #@! TO.P,C319,1*
G04 #@! TO.N,/C1+*
X-55295000Y92195000D03*
G04 #@! TO.P,C319,2*
G04 #@! TO.N,/C1-*
X-49595000Y92195000D03*
G04 #@! TD*
G04 #@! TO.P,C318,1*
G04 #@! TO.N,/C1+*
X-1905000Y41805000D03*
G04 #@! TO.P,C318,2*
G04 #@! TO.N,/C1-*
X-7605000Y41805000D03*
G04 #@! TD*
G04 #@! TO.P,C317,1*
G04 #@! TO.N,/C1+*
X-29205000Y9405000D03*
G04 #@! TO.P,C317,2*
G04 #@! TO.N,/C1-*
X-34905000Y9405000D03*
G04 #@! TD*
G04 #@! TO.P,C316,1*
G04 #@! TO.N,/C1+*
X-55295000Y15095000D03*
G04 #@! TO.P,C316,2*
G04 #@! TO.N,/C1-*
X-49595000Y15095000D03*
G04 #@! TD*
G04 #@! TO.P,C331,1*
G04 #@! TO.N,/C1+*
X-42805000Y15005000D03*
G04 #@! TO.P,C331,2*
G04 #@! TO.N,/C1-*
X-48505000Y15005000D03*
G04 #@! TD*
G04 #@! TO.P,C330,1*
G04 #@! TO.N,/C1+*
X-41695000Y26195000D03*
G04 #@! TO.P,C330,2*
G04 #@! TO.N,/C1-*
X-35995000Y26195000D03*
G04 #@! TD*
G04 #@! TO.P,C329,1*
G04 #@! TO.N,/C1+*
X-1905000Y3805000D03*
G04 #@! TO.P,C329,2*
G04 #@! TO.N,/C1-*
X-7605000Y3805000D03*
G04 #@! TD*
G04 #@! TO.P,C374,1*
G04 #@! TO.N,/C1+*
X-15605000Y15005000D03*
G04 #@! TO.P,C374,2*
G04 #@! TO.N,/C1-*
X-21305000Y15005000D03*
G04 #@! TD*
G04 #@! TO.P,C373,1*
G04 #@! TO.N,/C1+*
X-56405000Y58605000D03*
G04 #@! TO.P,C373,2*
G04 #@! TO.N,/C1-*
X-62105000Y58605000D03*
G04 #@! TD*
G04 #@! TO.P,C372,1*
G04 #@! TO.N,/C1+*
X-55295000Y86595000D03*
G04 #@! TO.P,C372,2*
G04 #@! TO.N,/C1-*
X-49595000Y86595000D03*
G04 #@! TD*
G04 #@! TO.P,C371,1*
G04 #@! TO.N,/C1+*
X-795000Y92195000D03*
G04 #@! TO.P,C371,2*
G04 #@! TO.N,/C1-*
X4905000Y92195000D03*
G04 #@! TD*
G04 #@! TO.P,C370,1*
G04 #@! TO.N,/C1+*
X-55295000Y3795000D03*
G04 #@! TO.P,C370,2*
G04 #@! TO.N,/C1-*
X-49595000Y3795000D03*
G04 #@! TD*
G04 #@! TO.P,C369,1*
G04 #@! TO.N,/C1+*
X-1905000Y47405000D03*
G04 #@! TO.P,C369,2*
G04 #@! TO.N,/C1-*
X-7605000Y47405000D03*
G04 #@! TD*
G04 #@! TO.P,C368,1*
G04 #@! TO.N,/C1+*
X-14495000Y103395000D03*
G04 #@! TO.P,C368,2*
G04 #@! TO.N,/C1-*
X-8795000Y103395000D03*
G04 #@! TD*
G04 #@! TO.P,C367,1*
G04 #@! TO.N,/C1+*
X-55295000Y9495000D03*
G04 #@! TO.P,C367,2*
G04 #@! TO.N,/C1-*
X-49595000Y9495000D03*
G04 #@! TD*
G04 #@! TO.P,C366,1*
G04 #@! TO.N,/C1+*
X-42805000Y20605000D03*
G04 #@! TO.P,C366,2*
G04 #@! TO.N,/C1-*
X-48505000Y20605000D03*
G04 #@! TD*
G04 #@! TO.P,C365,1*
G04 #@! TO.N,/C1+*
X-41695000Y20595000D03*
G04 #@! TO.P,C365,2*
G04 #@! TO.N,/C1-*
X-35995000Y20595000D03*
G04 #@! TD*
G04 #@! TO.P,C364,1*
G04 #@! TO.N,/C1+*
X-1905000Y9405000D03*
G04 #@! TO.P,C364,2*
G04 #@! TO.N,/C1-*
X-7605000Y9405000D03*
G04 #@! TD*
G04 #@! TO.P,C363,1*
G04 #@! TO.N,/C1+*
X-15605000Y20605000D03*
G04 #@! TO.P,C363,2*
G04 #@! TO.N,/C1-*
X-21305000Y20605000D03*
G04 #@! TD*
G04 #@! TO.P,C346,1*
G04 #@! TO.N,/C1+*
X-56405000Y64205000D03*
G04 #@! TO.P,C346,2*
G04 #@! TO.N,/C1-*
X-62105000Y64205000D03*
G04 #@! TD*
G04 #@! TO.P,C344,1*
G04 #@! TO.N,/C1+*
X-55295000Y80995000D03*
G04 #@! TO.P,C344,2*
G04 #@! TO.N,/C1-*
X-49595000Y80995000D03*
G04 #@! TD*
G04 #@! TO.P,C359,1*
G04 #@! TO.N,/C1+*
X-795000Y86595000D03*
G04 #@! TO.P,C359,2*
G04 #@! TO.N,/C1-*
X4905000Y86595000D03*
G04 #@! TD*
G04 #@! TO.P,C358,1*
G04 #@! TO.N,/C1+*
X-1905000Y53005000D03*
G04 #@! TO.P,C358,2*
G04 #@! TO.N,/C1-*
X-7605000Y53005000D03*
G04 #@! TD*
G04 #@! TO.P,C357,1*
G04 #@! TO.N,/C1+*
X-14495000Y97795000D03*
G04 #@! TO.P,C357,2*
G04 #@! TO.N,/C1-*
X-8795000Y97795000D03*
G04 #@! TD*
G04 #@! TO.P,C356,1*
G04 #@! TO.N,/C1+*
X-29205000Y15005000D03*
G04 #@! TO.P,C356,2*
G04 #@! TO.N,/C1-*
X-34905000Y15005000D03*
G04 #@! TD*
G04 #@! TO.P,C355,1*
G04 #@! TO.N,/C1+*
X-56405000Y9405000D03*
G04 #@! TO.P,C355,2*
G04 #@! TO.N,/C1-*
X-62105000Y9405000D03*
G04 #@! TD*
G04 #@! TO.P,C354,1*
G04 #@! TO.N,/C1+*
X-42805000Y26205000D03*
G04 #@! TO.P,C354,2*
G04 #@! TO.N,/C1-*
X-48505000Y26205000D03*
G04 #@! TD*
G04 #@! TO.P,C353,1*
G04 #@! TO.N,/C1+*
X-41695000Y14995000D03*
G04 #@! TO.P,C353,2*
G04 #@! TO.N,/C1-*
X-35995000Y14995000D03*
G04 #@! TD*
G04 #@! TO.P,C352,1*
G04 #@! TO.N,/C1+*
X-1905000Y15005000D03*
G04 #@! TO.P,C352,2*
G04 #@! TO.N,/C1-*
X-7605000Y15005000D03*
G04 #@! TD*
G04 #@! TO.P,C351,1*
G04 #@! TO.N,/C1+*
X-15605000Y26205000D03*
G04 #@! TO.P,C351,2*
G04 #@! TO.N,/C1-*
X-21305000Y26205000D03*
G04 #@! TD*
G04 #@! TO.P,C350,1*
G04 #@! TO.N,/C1+*
X-56405000Y69805000D03*
G04 #@! TO.P,C350,2*
G04 #@! TO.N,/C1-*
X-62105000Y69805000D03*
G04 #@! TD*
G04 #@! TO.P,C349,1*
G04 #@! TO.N,/C1+*
X-55295000Y75395000D03*
G04 #@! TO.P,C349,2*
G04 #@! TO.N,/C1-*
X-49595000Y75395000D03*
G04 #@! TD*
G04 #@! TO.P,C348,1*
G04 #@! TO.N,/C1+*
X-795000Y80995000D03*
G04 #@! TO.P,C348,2*
G04 #@! TO.N,/C1-*
X4905000Y80995000D03*
G04 #@! TD*
G04 #@! TO.P,C347,1*
G04 #@! TO.N,/C1+*
X-1905000Y58605000D03*
G04 #@! TO.P,C347,2*
G04 #@! TO.N,/C1-*
X-7605000Y58605000D03*
G04 #@! TD*
G04 #@! TO.P,C362,1*
G04 #@! TO.N,/C1+*
X-14495000Y92195000D03*
G04 #@! TO.P,C362,2*
G04 #@! TO.N,/C1-*
X-8795000Y92195000D03*
G04 #@! TD*
G04 #@! TO.P,C361,1*
G04 #@! TO.N,/C1+*
X-15605000Y47405000D03*
G04 #@! TO.P,C361,2*
G04 #@! TO.N,/C1-*
X-21305000Y47405000D03*
G04 #@! TD*
G04 #@! TO.P,C360,1*
G04 #@! TO.N,/C1+*
X-14495000Y31795000D03*
G04 #@! TO.P,C360,2*
G04 #@! TO.N,/C1-*
X-8795000Y31795000D03*
G04 #@! TD*
G04 #@! TO.P,C279,1*
G04 #@! TO.N,/C1+*
X-56405000Y103405000D03*
G04 #@! TO.P,C279,2*
G04 #@! TO.N,/C1-*
X-62105000Y103405000D03*
G04 #@! TD*
G04 #@! TO.P,C278,1*
G04 #@! TO.N,/C1+*
X-795000Y75395000D03*
G04 #@! TO.P,C278,2*
G04 #@! TO.N,/C1-*
X4905000Y75395000D03*
G04 #@! TD*
G04 #@! TO.P,C277,1*
G04 #@! TO.N,/C1+*
X-14495000Y80995000D03*
G04 #@! TO.P,C277,2*
G04 #@! TO.N,/C1-*
X-8795000Y80995000D03*
G04 #@! TD*
G04 #@! TO.P,C276,1*
G04 #@! TO.N,/C1+*
X-795000Y103395000D03*
G04 #@! TO.P,C276,2*
G04 #@! TO.N,/C1-*
X4905000Y103395000D03*
G04 #@! TD*
G04 #@! TO.P,C275,1*
G04 #@! TO.N,/C1+*
X-28095000Y9395000D03*
G04 #@! TO.P,C275,2*
G04 #@! TO.N,/C1-*
X-22395000Y9395000D03*
G04 #@! TD*
G04 #@! TO.P,C274,1*
G04 #@! TO.N,/C1+*
X-15605000Y41805000D03*
G04 #@! TO.P,C274,2*
G04 #@! TO.N,/C1-*
X-21305000Y41805000D03*
G04 #@! TD*
G04 #@! TO.P,C272,1*
G04 #@! TO.N,/C1+*
X-55295000Y52995000D03*
G04 #@! TO.P,C272,2*
G04 #@! TO.N,/C1-*
X-49595000Y52995000D03*
G04 #@! TD*
G04 #@! TO.P,C271,1*
G04 #@! TO.N,/C1+*
X-795000Y58595000D03*
G04 #@! TO.P,C271,2*
G04 #@! TO.N,/C1-*
X4905000Y58595000D03*
G04 #@! TD*
G04 #@! TO.P,C270,1*
G04 #@! TO.N,/C1+*
X-1905000Y81005000D03*
G04 #@! TO.P,C270,2*
G04 #@! TO.N,/C1-*
X-7605000Y81005000D03*
G04 #@! TD*
G04 #@! TO.P,C269,1*
G04 #@! TO.N,/C1+*
X-14495000Y69795000D03*
G04 #@! TO.P,C269,2*
G04 #@! TO.N,/C1-*
X-8795000Y69795000D03*
G04 #@! TD*
G04 #@! TO.P,C315,1*
G04 #@! TO.N,/C1+*
X-15605000Y69805000D03*
G04 #@! TO.P,C315,2*
G04 #@! TO.N,/C1-*
X-21305000Y69805000D03*
G04 #@! TD*
G04 #@! TO.P,C267,1*
G04 #@! TO.N,/C1+*
X-55295000Y103395000D03*
G04 #@! TO.P,C267,2*
G04 #@! TO.N,/C1-*
X-49595000Y103395000D03*
G04 #@! TD*
G04 #@! TO.P,C313,1*
G04 #@! TO.N,/C1+*
X-14495000Y14995000D03*
G04 #@! TO.P,C313,2*
G04 #@! TO.N,/C1-*
X-8795000Y14995000D03*
G04 #@! TD*
G04 #@! TO.P,C312,1*
G04 #@! TO.N,/C1+*
X-1905000Y103405000D03*
G04 #@! TO.P,C312,2*
G04 #@! TO.N,/C1-*
X-7605000Y103405000D03*
G04 #@! TD*
G04 #@! TO.P,C263,1*
G04 #@! TO.N,/C1+*
X-15605000Y81005000D03*
G04 #@! TO.P,C263,2*
G04 #@! TO.N,/C1-*
X-21305000Y81005000D03*
G04 #@! TD*
G04 #@! TO.P,C256,1*
G04 #@! TO.N,/C1+*
X-795000Y41795000D03*
G04 #@! TO.P,C256,2*
G04 #@! TO.N,/C1-*
X4905000Y41795000D03*
G04 #@! TD*
G04 #@! TO.P,C254,1*
G04 #@! TO.N,/C1+*
X-1905000Y97805000D03*
G04 #@! TO.P,C254,2*
G04 #@! TO.N,/C1-*
X-7605000Y97805000D03*
G04 #@! TD*
G04 #@! TO.P,C253,1*
G04 #@! TO.N,/C1+*
X-14495000Y52995000D03*
G04 #@! TO.P,C253,2*
G04 #@! TO.N,/C1-*
X-8795000Y52995000D03*
G04 #@! TD*
G04 #@! TO.P,C268,1*
G04 #@! TO.N,/C1+*
X-15605000Y86605000D03*
G04 #@! TO.P,C268,2*
G04 #@! TO.N,/C1-*
X-21305000Y86605000D03*
G04 #@! TD*
G04 #@! TO.P,C306,1*
G04 #@! TO.N,/C1+*
X-14495000Y47395000D03*
G04 #@! TO.P,C306,2*
G04 #@! TO.N,/C1-*
X-8795000Y47395000D03*
G04 #@! TD*
G04 #@! TO.P,C305,1*
G04 #@! TO.N,/C1+*
X-15605000Y92205000D03*
G04 #@! TO.P,C305,2*
G04 #@! TO.N,/C1-*
X-21305000Y92205000D03*
G04 #@! TD*
G04 #@! TO.P,C297,1*
G04 #@! TO.N,/C1+*
X-14495000Y41795000D03*
G04 #@! TO.P,C297,2*
G04 #@! TO.N,/C1-*
X-8795000Y41795000D03*
G04 #@! TD*
G04 #@! TO.P,C280,1*
G04 #@! TO.N,/C1+*
X-15605000Y97805000D03*
G04 #@! TO.P,C280,2*
G04 #@! TO.N,/C1-*
X-21305000Y97805000D03*
G04 #@! TD*
G04 #@! TO.P,C290,1*
G04 #@! TO.N,/C1+*
X-795000Y97795000D03*
G04 #@! TO.P,C290,2*
G04 #@! TO.N,/C1-*
X4905000Y97795000D03*
G04 #@! TD*
G04 #@! TO.P,C288,1*
G04 #@! TO.N,/C1+*
X-15605000Y103405000D03*
G04 #@! TO.P,C288,2*
G04 #@! TO.N,/C1-*
X-21305000Y103405000D03*
G04 #@! TD*
G04 #@! TO.P,C375,1*
G04 #@! TO.N,/C1+*
X-55295000Y47395000D03*
G04 #@! TO.P,C375,2*
G04 #@! TO.N,/C1-*
X-49595000Y47395000D03*
G04 #@! TD*
G04 #@! TO.P,C393,1*
G04 #@! TO.N,/C1+*
X-41695000Y103395000D03*
G04 #@! TO.P,C393,2*
G04 #@! TO.N,/C1-*
X-35995000Y103395000D03*
G04 #@! TD*
G04 #@! TO.P,C69,1*
G04 #@! TO.N,/C1+*
X11795000Y86605000D03*
G04 #@! TO.P,C69,2*
G04 #@! TO.N,/C1-*
X6095000Y86605000D03*
G04 #@! TD*
G04 #@! TO.P,C67,1*
G04 #@! TO.N,/C1+*
X-795000Y3795000D03*
G04 #@! TO.P,C67,2*
G04 #@! TO.N,/C1-*
X4905000Y3795000D03*
G04 #@! TD*
G04 #@! TO.P,C66,1*
G04 #@! TO.N,/C1+*
X-795000Y26195000D03*
G04 #@! TO.P,C66,2*
G04 #@! TO.N,/C1-*
X4905000Y26195000D03*
G04 #@! TD*
G04 #@! TO.P,C65,1*
G04 #@! TO.N,/C1+*
X11795000Y47405000D03*
G04 #@! TO.P,C65,2*
G04 #@! TO.N,/C1-*
X6095000Y47405000D03*
G04 #@! TD*
G04 #@! TO.P,C79,1*
G04 #@! TO.N,/C1+*
X-29205000Y47511105D03*
G04 #@! TO.P,C79,2*
G04 #@! TO.N,/C1-*
X-34905000Y47511105D03*
G04 #@! TD*
G04 #@! TO.P,C124,1*
G04 #@! TO.N,/C1+*
X-42805000Y47405000D03*
G04 #@! TO.P,C124,2*
G04 #@! TO.N,/C1-*
X-48505000Y47405000D03*
G04 #@! TD*
G04 #@! TO.P,C123,1*
G04 #@! TO.N,/C1+*
X-41695000Y92195000D03*
G04 #@! TO.P,C123,2*
G04 #@! TO.N,/C1-*
X-35995000Y92195000D03*
G04 #@! TD*
G04 #@! TO.P,C122,1*
G04 #@! TO.N,/C1+*
X11795000Y41805000D03*
G04 #@! TO.P,C122,2*
G04 #@! TO.N,/C1-*
X6095000Y41805000D03*
G04 #@! TD*
G04 #@! TO.P,C121,1*
G04 #@! TO.N,/C1+*
X11795000Y103415470D03*
G04 #@! TO.P,C121,2*
G04 #@! TO.N,/C1-*
X6095000Y103415470D03*
G04 #@! TD*
G04 #@! TO.P,C117,1*
G04 #@! TO.N,/C1+*
X-29205000Y92205000D03*
G04 #@! TO.P,C117,2*
G04 #@! TO.N,/C1-*
X-34905000Y92205000D03*
G04 #@! TD*
G04 #@! TO.P,C116,1*
G04 #@! TO.N,/C1+*
X-29205000Y53005000D03*
G04 #@! TO.P,C116,2*
G04 #@! TO.N,/C1-*
X-34905000Y53005000D03*
G04 #@! TD*
G04 #@! TO.P,C115,1*
G04 #@! TO.N,/C1+*
X-42805000Y53005000D03*
G04 #@! TO.P,C115,2*
G04 #@! TO.N,/C1-*
X-48505000Y53005000D03*
G04 #@! TD*
G04 #@! TO.P,C114,1*
G04 #@! TO.N,/C1+*
X-41695000Y86595000D03*
G04 #@! TO.P,C114,2*
G04 #@! TO.N,/C1-*
X-35995000Y86595000D03*
G04 #@! TD*
G04 #@! TO.P,C113,1*
G04 #@! TO.N,/C1+*
X-56405000Y-1795000D03*
G04 #@! TO.P,C113,2*
G04 #@! TO.N,/C1-*
X-62105000Y-1795000D03*
G04 #@! TD*
G04 #@! TO.P,C112,1*
G04 #@! TO.N,/C1+*
X-29205000Y81005000D03*
G04 #@! TO.P,C112,2*
G04 #@! TO.N,/C1-*
X-34905000Y81005000D03*
G04 #@! TD*
G04 #@! TO.P,C111,1*
G04 #@! TO.N,/C1+*
X-42805000Y81005000D03*
G04 #@! TO.P,C111,2*
G04 #@! TO.N,/C1-*
X-48505000Y81005000D03*
G04 #@! TD*
G04 #@! TO.P,C159,1*
G04 #@! TO.N,/C1+*
X-41695000Y58595000D03*
G04 #@! TO.P,C159,2*
G04 #@! TO.N,/C1-*
X-35995000Y58595000D03*
G04 #@! TD*
G04 #@! TO.P,C109,1*
G04 #@! TO.N,/C1+*
X11795000Y75405000D03*
G04 #@! TO.P,C109,2*
G04 #@! TO.N,/C1-*
X6095000Y75405000D03*
G04 #@! TD*
G04 #@! TO.P,C107,1*
G04 #@! TO.N,/C1+*
X-795000Y20595000D03*
G04 #@! TO.P,C107,2*
G04 #@! TO.N,/C1-*
X4905000Y20595000D03*
G04 #@! TD*
G04 #@! TO.P,C104,1*
G04 #@! TO.N,/C1+*
X-795000Y9395000D03*
G04 #@! TO.P,C104,2*
G04 #@! TO.N,/C1-*
X4905000Y9395000D03*
G04 #@! TD*
G04 #@! TO.P,C103,1*
G04 #@! TO.N,/C1+*
X-29205000Y103405000D03*
G04 #@! TO.P,C103,2*
G04 #@! TO.N,/C1-*
X-34905000Y103405000D03*
G04 #@! TD*
G04 #@! TO.P,C102,1*
G04 #@! TO.N,/C1+*
X-29205000Y64205000D03*
G04 #@! TO.P,C102,2*
G04 #@! TO.N,/C1-*
X-34905000Y64205000D03*
G04 #@! TD*
G04 #@! TO.P,C101,1*
G04 #@! TO.N,/C1+*
X-42805000Y64205000D03*
G04 #@! TO.P,C101,2*
G04 #@! TO.N,/C1-*
X-48505000Y64205000D03*
G04 #@! TD*
G04 #@! TO.P,C100,1*
G04 #@! TO.N,/C1+*
X-41695000Y75395000D03*
G04 #@! TO.P,C100,2*
G04 #@! TO.N,/C1-*
X-35995000Y75395000D03*
G04 #@! TD*
G04 #@! TO.P,C99,1*
G04 #@! TO.N,/C1+*
X11795000Y58605000D03*
G04 #@! TO.P,C99,2*
G04 #@! TO.N,/C1-*
X6095000Y58605000D03*
G04 #@! TD*
G04 #@! TO.P,C98,1*
G04 #@! TO.N,/C1+*
X-42805000Y103405000D03*
G04 #@! TO.P,C98,2*
G04 #@! TO.N,/C1-*
X-48505000Y103405000D03*
G04 #@! TD*
G04 #@! TO.P,C28,1*
G04 #@! TO.N,/C1+*
X-795000Y31795000D03*
G04 #@! TO.P,C28,2*
G04 #@! TO.N,/C1-*
X4905000Y31795000D03*
G04 #@! TD*
G04 #@! TO.P,C27,1*
G04 #@! TO.N,/C1+*
X-14495000Y3795000D03*
G04 #@! TO.P,C27,2*
G04 #@! TO.N,/C1-*
X-8795000Y3795000D03*
G04 #@! TD*
G04 #@! TO.P,C26,1*
G04 #@! TO.N,/C1+*
X-29205000Y41805000D03*
G04 #@! TO.P,C26,2*
G04 #@! TO.N,/C1-*
X-34905000Y41805000D03*
G04 #@! TD*
G04 #@! TO.P,C25,1*
G04 #@! TO.N,/C1+*
X-42805000Y41805000D03*
G04 #@! TO.P,C25,2*
G04 #@! TO.N,/C1-*
X-48505000Y41805000D03*
G04 #@! TD*
G04 #@! TO.P,C24,1*
G04 #@! TO.N,/C1+*
X-41695000Y97795000D03*
G04 #@! TO.P,C24,2*
G04 #@! TO.N,/C1-*
X-35995000Y97795000D03*
G04 #@! TD*
G04 #@! TO.P,C20,1*
G04 #@! TO.N,/C1+*
X-42805000Y69805000D03*
G04 #@! TO.P,C20,2*
G04 #@! TO.N,/C1-*
X-48505000Y69805000D03*
G04 #@! TD*
G04 #@! TO.P,C19,1*
G04 #@! TO.N,/C1+*
X-41695000Y69795000D03*
G04 #@! TO.P,C19,2*
G04 #@! TO.N,/C1-*
X-35995000Y69795000D03*
G04 #@! TD*
G04 #@! TO.P,C18,1*
G04 #@! TO.N,/C1+*
X11795000Y64205000D03*
G04 #@! TO.P,C18,2*
G04 #@! TO.N,/C1-*
X6095000Y64205000D03*
G04 #@! TD*
G04 #@! TO.P,C6,1*
G04 #@! TO.N,/C1+*
X-29205000Y75405000D03*
G04 #@! TO.P,C6,2*
G04 #@! TO.N,/C1-*
X-34905000Y75405000D03*
G04 #@! TD*
G04 #@! TO.P,C7,1*
G04 #@! TO.N,/C1+*
X-42805000Y75405000D03*
G04 #@! TO.P,C7,2*
G04 #@! TO.N,/C1-*
X-48505000Y75405000D03*
G04 #@! TD*
G04 #@! TO.P,C8,1*
G04 #@! TO.N,/C1+*
X-41695000Y64195000D03*
G04 #@! TO.P,C8,2*
G04 #@! TO.N,/C1-*
X-35995000Y64195000D03*
G04 #@! TD*
G04 #@! TO.P,C9,1*
G04 #@! TO.N,/C1+*
X11795000Y69805000D03*
G04 #@! TO.P,C9,2*
G04 #@! TO.N,/C1-*
X6095000Y69805000D03*
G04 #@! TD*
G04 #@! TO.P,C17,1*
G04 #@! TO.N,/C1+*
X-56405000Y15005000D03*
G04 #@! TO.P,C17,2*
G04 #@! TO.N,/C1-*
X-62105000Y15005000D03*
G04 #@! TD*
G04 #@! TO.P,C58,1*
G04 #@! TO.N,/C1+*
X-29205000Y86605000D03*
G04 #@! TO.P,C58,2*
G04 #@! TO.N,/C1-*
X-34905000Y86605000D03*
G04 #@! TD*
G04 #@! TO.P,C57,1*
G04 #@! TO.N,/C1+*
X-41695000Y47395000D03*
G04 #@! TO.P,C57,2*
G04 #@! TO.N,/C1-*
X-35995000Y47395000D03*
G04 #@! TD*
G04 #@! TO.P,C56,1*
G04 #@! TO.N,/C1+*
X-42805000Y86605000D03*
G04 #@! TO.P,C56,2*
G04 #@! TO.N,/C1-*
X-48505000Y86605000D03*
G04 #@! TD*
G04 #@! TO.P,C55,1*
G04 #@! TO.N,/C1+*
X-41695000Y52995000D03*
G04 #@! TO.P,C55,2*
G04 #@! TO.N,/C1-*
X-35995000Y52995000D03*
G04 #@! TD*
G04 #@! TO.P,C54,1*
G04 #@! TO.N,/C1+*
X11795000Y81005000D03*
G04 #@! TO.P,C54,2*
G04 #@! TO.N,/C1-*
X6095000Y81005000D03*
G04 #@! TD*
G04 #@! TO.P,C30,1*
G04 #@! TO.N,/C1+*
X-42805000Y92205000D03*
G04 #@! TO.P,C30,2*
G04 #@! TO.N,/C1-*
X-48505000Y92205000D03*
G04 #@! TD*
G04 #@! TO.P,C42,1*
G04 #@! TO.N,/C1+*
X-29205000Y69805000D03*
G04 #@! TO.P,C42,2*
G04 #@! TO.N,/C1-*
X-34905000Y69805000D03*
G04 #@! TD*
G04 #@! TO.P,C218,1*
G04 #@! TO.N,/C1+*
X-14495000Y58595000D03*
G04 #@! TO.P,C218,2*
G04 #@! TO.N,/C1-*
X-8795000Y58595000D03*
G04 #@! TD*
G04 #@! TO.P,C217,1*
G04 #@! TO.N,/C1+*
X-1905000Y92205000D03*
G04 #@! TO.P,C217,2*
G04 #@! TO.N,/C1-*
X-7605000Y92205000D03*
G04 #@! TD*
G04 #@! TO.P,C216,1*
G04 #@! TO.N,/C1+*
X-795000Y47395000D03*
G04 #@! TO.P,C216,2*
G04 #@! TO.N,/C1-*
X4905000Y47395000D03*
G04 #@! TD*
G04 #@! TO.P,C214,1*
G04 #@! TO.N,/C1+*
X-55295000Y41795000D03*
G04 #@! TO.P,C214,2*
G04 #@! TO.N,/C1-*
X-49595000Y41795000D03*
G04 #@! TD*
G04 #@! TO.P,C210,1*
G04 #@! TO.N,/C1+*
X-14495000Y9395000D03*
G04 #@! TO.P,C210,2*
G04 #@! TO.N,/C1-*
X-8795000Y9395000D03*
G04 #@! TD*
G04 #@! TO.P,C208,1*
G04 #@! TO.N,/C1+*
X-15605000Y75405000D03*
G04 #@! TO.P,C208,2*
G04 #@! TO.N,/C1-*
X-21305000Y75405000D03*
G04 #@! TD*
G04 #@! TO.P,C207,1*
G04 #@! TO.N,/C1+*
X-14495000Y64195000D03*
G04 #@! TO.P,C207,2*
G04 #@! TO.N,/C1-*
X-8795000Y64195000D03*
G04 #@! TD*
G04 #@! TO.P,C206,1*
G04 #@! TO.N,/C1+*
X-1905000Y86605000D03*
G04 #@! TO.P,C206,2*
G04 #@! TO.N,/C1-*
X-7605000Y86605000D03*
G04 #@! TD*
G04 #@! TO.P,C205,1*
G04 #@! TO.N,/C1+*
X-795000Y52995000D03*
G04 #@! TO.P,C205,2*
G04 #@! TO.N,/C1-*
X4905000Y52995000D03*
G04 #@! TD*
G04 #@! TO.P,C202,1*
G04 #@! TO.N,/C1+*
X-56405000Y97805000D03*
G04 #@! TO.P,C202,2*
G04 #@! TO.N,/C1-*
X-62105000Y97805000D03*
G04 #@! TD*
G04 #@! TO.P,C204,1*
G04 #@! TO.N,/C1+*
X-14495000Y20595000D03*
G04 #@! TO.P,C204,2*
G04 #@! TO.N,/C1-*
X-8795000Y20595000D03*
G04 #@! TD*
G04 #@! TO.P,C249,1*
G04 #@! TO.N,/C1+*
X-15605000Y64205000D03*
G04 #@! TO.P,C249,2*
G04 #@! TO.N,/C1-*
X-21305000Y64205000D03*
G04 #@! TD*
G04 #@! TO.P,C248,1*
G04 #@! TO.N,/C1+*
X-14495000Y75395000D03*
G04 #@! TO.P,C248,2*
G04 #@! TO.N,/C1-*
X-8795000Y75395000D03*
G04 #@! TD*
G04 #@! TO.P,C247,1*
G04 #@! TO.N,/C1+*
X-1905000Y75405000D03*
G04 #@! TO.P,C247,2*
G04 #@! TO.N,/C1-*
X-7605000Y75405000D03*
G04 #@! TD*
G04 #@! TO.P,C246,1*
G04 #@! TO.N,/C1+*
X-795000Y64195000D03*
G04 #@! TO.P,C246,2*
G04 #@! TO.N,/C1-*
X4905000Y64195000D03*
G04 #@! TD*
G04 #@! TO.P,C245,1*
G04 #@! TO.N,/C1+*
X-55295000Y58595000D03*
G04 #@! TO.P,C245,2*
G04 #@! TO.N,/C1-*
X-49595000Y58595000D03*
G04 #@! TD*
G04 #@! TO.P,C244,1*
G04 #@! TO.N,/C1+*
X-56405000Y86605000D03*
G04 #@! TO.P,C244,2*
G04 #@! TO.N,/C1-*
X-62105000Y86605000D03*
G04 #@! TD*
G04 #@! TO.P,C243,1*
G04 #@! TO.N,/C1+*
X-28095000Y14995000D03*
G04 #@! TO.P,C243,2*
G04 #@! TO.N,/C1-*
X-22395000Y14995000D03*
G04 #@! TD*
G04 #@! TO.P,C241,1*
G04 #@! TO.N,/C1+*
X-1905000Y31805000D03*
G04 #@! TO.P,C241,2*
G04 #@! TO.N,/C1-*
X-7605000Y31805000D03*
G04 #@! TD*
G04 #@! TO.P,C240,1*
G04 #@! TO.N,/C1+*
X-14495000Y26195000D03*
G04 #@! TO.P,C240,2*
G04 #@! TO.N,/C1-*
X-8795000Y26195000D03*
G04 #@! TD*
G04 #@! TO.P,C238,1*
G04 #@! TO.N,/C1+*
X-15605000Y58605000D03*
G04 #@! TO.P,C238,2*
G04 #@! TO.N,/C1-*
X-21305000Y58605000D03*
G04 #@! TD*
G04 #@! TO.P,C219,1*
G04 #@! TO.N,/C1+*
X-1905000Y69805000D03*
G04 #@! TO.P,C219,2*
G04 #@! TO.N,/C1-*
X-7605000Y69805000D03*
G04 #@! TD*
G04 #@! TO.P,C235,1*
G04 #@! TO.N,/C1+*
X-795000Y69795000D03*
G04 #@! TO.P,C235,2*
G04 #@! TO.N,/C1-*
X4905000Y69795000D03*
G04 #@! TD*
G04 #@! TO.P,C234,1*
G04 #@! TO.N,/C1+*
X-55295000Y64195000D03*
G04 #@! TO.P,C234,2*
G04 #@! TO.N,/C1-*
X-49595000Y64195000D03*
G04 #@! TD*
G04 #@! TO.P,C233,1*
G04 #@! TO.N,/C1+*
X-56405000Y81005000D03*
G04 #@! TO.P,C233,2*
G04 #@! TO.N,/C1-*
X-62105000Y81005000D03*
G04 #@! TD*
G04 #@! TO.P,C231,1*
G04 #@! TO.N,/C1+*
X-1905000Y26205000D03*
G04 #@! TO.P,C231,2*
G04 #@! TO.N,/C1-*
X-7605000Y26205000D03*
G04 #@! TD*
G04 #@! TO.P,C230,1*
G04 #@! TO.N,/C1+*
X-56405000Y92205000D03*
G04 #@! TO.P,C230,2*
G04 #@! TO.N,/C1-*
X-62105000Y92205000D03*
G04 #@! TD*
G04 #@! TO.P,C229,1*
G04 #@! TO.N,/C1+*
X-41695000Y9395000D03*
G04 #@! TO.P,C229,2*
G04 #@! TO.N,/C1-*
X-35995000Y9395000D03*
G04 #@! TD*
G04 #@! TO.P,C228,1*
G04 #@! TO.N,/C1+*
X-1905000Y20605000D03*
G04 #@! TO.P,C228,2*
G04 #@! TO.N,/C1-*
X-7605000Y20605000D03*
G04 #@! TD*
G04 #@! TO.P,C227,1*
G04 #@! TO.N,/C1+*
X-15605000Y31805000D03*
G04 #@! TO.P,C227,2*
G04 #@! TO.N,/C1-*
X-21305000Y31805000D03*
G04 #@! TD*
G04 #@! TO.P,C226,1*
G04 #@! TO.N,/C1+*
X-56405000Y75405000D03*
G04 #@! TO.P,C226,2*
G04 #@! TO.N,/C1-*
X-62105000Y75405000D03*
G04 #@! TD*
G04 #@! TO.P,C225,1*
G04 #@! TO.N,/C1+*
X-55295000Y69795000D03*
G04 #@! TO.P,C225,2*
G04 #@! TO.N,/C1-*
X-49595000Y69795000D03*
G04 #@! TD*
G04 #@! TO.P,C224,1*
G04 #@! TO.N,/C1+*
X-1905000Y64205000D03*
G04 #@! TO.P,C224,2*
G04 #@! TO.N,/C1-*
X-7605000Y64205000D03*
G04 #@! TD*
G04 #@! TO.P,C223,1*
G04 #@! TO.N,/C1+*
X-14495000Y86595000D03*
G04 #@! TO.P,C223,2*
G04 #@! TO.N,/C1-*
X-8795000Y86595000D03*
G04 #@! TD*
G04 #@! TO.P,C222,1*
G04 #@! TO.N,/C1+*
X-15605000Y53005000D03*
G04 #@! TO.P,C222,2*
G04 #@! TO.N,/C1-*
X-21305000Y53005000D03*
G04 #@! TD*
G04 #@! TO.P,C220,1*
G04 #@! TO.N,/C1+*
X-41695000Y3795000D03*
G04 #@! TO.P,C220,2*
G04 #@! TO.N,/C1-*
X-35995000Y3795000D03*
G04 #@! TD*
G04 #@! TO.P,C151,1*
G04 #@! TO.N,/C1+*
X-41695000Y41795000D03*
G04 #@! TO.P,C151,2*
G04 #@! TO.N,/C1-*
X-35995000Y41795000D03*
G04 #@! TD*
G04 #@! TO.P,C150,1*
G04 #@! TO.N,/C1+*
X11795000Y97805000D03*
G04 #@! TO.P,C150,2*
G04 #@! TO.N,/C1-*
X6095000Y97805000D03*
G04 #@! TD*
G04 #@! TO.P,C130,1*
G04 #@! TO.N,/C1+*
X11795000Y92205000D03*
G04 #@! TO.P,C130,2*
G04 #@! TO.N,/C1-*
X6095000Y92205000D03*
G04 #@! TD*
G04 #@! TO.P,C141,1*
G04 #@! TO.N,/C1+*
X-795000Y14995000D03*
G04 #@! TO.P,C141,2*
G04 #@! TO.N,/C1-*
X4905000Y14995000D03*
G04 #@! TD*
G04 #@! TO.P,C187,1*
G04 #@! TO.N,/C1+*
X-29205000Y97805000D03*
G04 #@! TO.P,C187,2*
G04 #@! TO.N,/C1-*
X-34905000Y97805000D03*
G04 #@! TD*
G04 #@! TO.P,C186,1*
G04 #@! TO.N,/C1+*
X-29205000Y58605000D03*
G04 #@! TO.P,C186,2*
G04 #@! TO.N,/C1-*
X-34905000Y58605000D03*
G04 #@! TD*
G04 #@! TO.P,C185,1*
G04 #@! TO.N,/C1+*
X-42805000Y58605000D03*
G04 #@! TO.P,C185,2*
G04 #@! TO.N,/C1-*
X-48505000Y58605000D03*
G04 #@! TD*
G04 #@! TO.P,C184,1*
G04 #@! TO.N,/C1+*
X-41695000Y80995000D03*
G04 #@! TO.P,C184,2*
G04 #@! TO.N,/C1-*
X-35995000Y80995000D03*
G04 #@! TD*
G04 #@! TO.P,C183,1*
G04 #@! TO.N,/C1+*
X11795000Y53005000D03*
G04 #@! TO.P,C183,2*
G04 #@! TO.N,/C1-*
X6095000Y53005000D03*
G04 #@! TD*
G04 #@! TO.P,C182,1*
G04 #@! TO.N,/C1+*
X-42805000Y97805000D03*
G04 #@! TO.P,C182,2*
G04 #@! TO.N,/C1-*
X-48505000Y97805000D03*
G04 #@! TD*
G04 #@! TO.P,C181,1*
G04 #@! TO.N,/C1+*
X-56405000Y20605000D03*
G04 #@! TO.P,C181,2*
G04 #@! TO.N,/C1-*
X-62105000Y20605000D03*
G04 #@! TD*
G04 #@! TO.P,C221,1*
G04 #@! TO.N,/C1+*
X-29205000Y3805000D03*
G04 #@! TO.P,C221,2*
G04 #@! TO.N,/C1-*
X-34905000Y3805000D03*
G04 #@! TD*
G04 #@! TO.P,C345,1*
G04 #@! TO.N,/C1+*
X-56405000Y3805000D03*
G04 #@! TO.P,C345,2*
G04 #@! TO.N,/C1-*
X-62105000Y3805000D03*
G04 #@! TD*
G04 #@! TO.P,C236,1*
G04 #@! TO.N,/C1+*
X-55295000Y31895000D03*
G04 #@! TO.P,C236,2*
G04 #@! TO.N,/C1-*
X-49595000Y31895000D03*
G04 #@! TD*
D11*
G04 #@! TO.P,TP3,1*
G04 #@! TO.N,/C2+*
X28400000Y34000000D03*
D12*
X30800000Y34000000D03*
X30097056Y32302944D03*
X28400000Y31600000D03*
X26702944Y32302944D03*
X26000000Y34000000D03*
X26702944Y35697056D03*
X28400000Y36400000D03*
X30097056Y35697056D03*
G04 #@! TD*
D11*
G04 #@! TO.P,TP4,1*
G04 #@! TO.N,/C2-*
X28400000Y24500000D03*
D12*
X30800000Y24500000D03*
X30097056Y22802944D03*
X28400000Y22100000D03*
X26702944Y22802944D03*
X26000000Y24500000D03*
X26702944Y26197056D03*
X28400000Y26900000D03*
X30097056Y26197056D03*
G04 #@! TD*
D11*
G04 #@! TO.P,TP1,1*
G04 #@! TO.N,/C1+*
X-28400000Y34000000D03*
D12*
X-26000000Y34000000D03*
X-26702944Y32302944D03*
X-28400000Y31600000D03*
X-30097056Y32302944D03*
X-30800000Y34000000D03*
X-30097056Y35697056D03*
X-28400000Y36400000D03*
X-26702944Y35697056D03*
G04 #@! TD*
D11*
G04 #@! TO.P,TP2,1*
G04 #@! TO.N,/C1-*
X-28400000Y24500000D03*
D12*
X-26000000Y24500000D03*
X-26702944Y22802944D03*
X-28400000Y22100000D03*
X-30097056Y22802944D03*
X-30800000Y24500000D03*
X-30097056Y26197056D03*
X-28400000Y26900000D03*
X-26702944Y26197056D03*
G04 #@! TD*
D13*
G04 #@! TO.N,/C1-*
X-22400000Y103400000D03*
X-22400000Y97800000D03*
X-22400000Y92200000D03*
X-22400000Y86600000D03*
X-22400000Y81000000D03*
X-22400000Y75400000D03*
X-22400000Y69800000D03*
X-22400000Y64200000D03*
X-22400000Y58600000D03*
X-22400000Y53000000D03*
X-22400000Y47400000D03*
X-22400000Y41800000D03*
X-22400000Y105100000D03*
X-22400000Y99500000D03*
X-22400000Y93900000D03*
X-22400000Y88300000D03*
X-22400000Y82700000D03*
X-22400000Y77100000D03*
X-22400000Y71500000D03*
X-22400000Y65900000D03*
X-22400000Y60300000D03*
X-22400000Y54700000D03*
X-22400000Y49100000D03*
X-22400000Y43500000D03*
X-22400000Y101700000D03*
X-22400000Y96100000D03*
X-22400000Y90500000D03*
X-22400000Y84900000D03*
X-22400000Y79300000D03*
X-22400000Y73700000D03*
X-22400000Y68100000D03*
X-22400000Y62500000D03*
X-22400000Y56900000D03*
X-22400000Y51300000D03*
X-22400000Y45700000D03*
X-22400000Y40100000D03*
X-34900000Y101700000D03*
X-34900000Y96100000D03*
X-34900000Y90500000D03*
X-34900000Y84900000D03*
X-34900000Y79300000D03*
X-34900000Y73700000D03*
X-34900000Y68100000D03*
X-34900000Y62500000D03*
X-34900000Y56900000D03*
X-34900000Y51300000D03*
X-34900000Y45700000D03*
X-34900000Y40100000D03*
X-34900000Y103400000D03*
X-34900000Y97800000D03*
X-34900000Y92200000D03*
X-34900000Y86600000D03*
X-34900000Y81000000D03*
X-34900000Y75400000D03*
X-34900000Y69800000D03*
X-34900000Y64200000D03*
X-34900000Y58600000D03*
X-34900000Y53000000D03*
X-34900000Y47400000D03*
X-34900000Y41800000D03*
X-34900000Y105100000D03*
X-34900000Y99500000D03*
X-34900000Y93900000D03*
X-34900000Y88300000D03*
X-34900000Y82700000D03*
X-34900000Y77100000D03*
X-34900000Y71500000D03*
X-34900000Y65900000D03*
X-34900000Y60300000D03*
X-34900000Y54700000D03*
X-34900000Y49100000D03*
X-34900000Y43500000D03*
X-36000000Y103400000D03*
X-36000000Y97800000D03*
X-36000000Y92200000D03*
X-36000000Y86600000D03*
X-36000000Y81000000D03*
X-36000000Y75400000D03*
X-36000000Y69800000D03*
X-36000000Y64200000D03*
X-36000000Y58600000D03*
X-36000000Y53000000D03*
X-36000000Y47400000D03*
X-36000000Y41800000D03*
X-36000000Y101700000D03*
X-36000000Y96100000D03*
X-36000000Y90500000D03*
X-36000000Y84900000D03*
X-36000000Y79300000D03*
X-36000000Y73700000D03*
X-36000000Y68100000D03*
X-36000000Y62500000D03*
X-36000000Y56900000D03*
X-36000000Y51300000D03*
X-36000000Y45700000D03*
X-36000000Y40100000D03*
X-36000000Y105100000D03*
X-36000000Y99500000D03*
X-36000000Y93900000D03*
X-36000000Y88300000D03*
X-36000000Y82700000D03*
X-36000000Y77100000D03*
X-36000000Y71500000D03*
X-36000000Y65900000D03*
X-36000000Y60300000D03*
X-36000000Y54700000D03*
X-36000000Y49100000D03*
X-36000000Y43500000D03*
X-48500000Y101700000D03*
X-48500000Y96100000D03*
X-48500000Y90500000D03*
X-48500000Y84900000D03*
X-48500000Y79300000D03*
X-48500000Y73700000D03*
X-48500000Y68100000D03*
X-48500000Y62500000D03*
X-48500000Y56900000D03*
X-48500000Y51300000D03*
X-48500000Y45700000D03*
X-48500000Y40100000D03*
X-48500000Y103400000D03*
X-48500000Y97800000D03*
X-48500000Y92200000D03*
X-48500000Y86600000D03*
X-48500000Y81000000D03*
X-48500000Y75400000D03*
X-48500000Y69800000D03*
X-48500000Y64200000D03*
X-48500000Y58600000D03*
X-48500000Y53000000D03*
X-48500000Y47400000D03*
X-48500000Y41800000D03*
X-48500000Y105100000D03*
X-48500000Y99500000D03*
X-48500000Y93900000D03*
X-48500000Y88300000D03*
X-48500000Y82700000D03*
X-48500000Y77100000D03*
X-48500000Y71500000D03*
X-48500000Y65900000D03*
X-48500000Y60300000D03*
X-48500000Y54700000D03*
X-48500000Y49100000D03*
X-48500000Y43500000D03*
X-49600000Y105100000D03*
X-49600000Y99500000D03*
X-49600000Y93900000D03*
X-49600000Y88300000D03*
X-49600000Y82700000D03*
X-49600000Y77100000D03*
X-49600000Y71500000D03*
X-49600000Y65900000D03*
X-49600000Y60300000D03*
X-49600000Y54700000D03*
X-49600000Y49100000D03*
X-49600000Y43500000D03*
X-49600000Y103400000D03*
X-49600000Y97800000D03*
X-49600000Y92200000D03*
X-49600000Y86600000D03*
X-49600000Y81000000D03*
X-49600000Y75400000D03*
X-49600000Y69800000D03*
X-49600000Y64200000D03*
X-49600000Y58600000D03*
X-49600000Y53000000D03*
X-49600000Y47400000D03*
X-49600000Y41800000D03*
X-49600000Y101700000D03*
X-49600000Y96100000D03*
X-49600000Y90500000D03*
X-49600000Y84900000D03*
X-49600000Y79300000D03*
X-49600000Y73700000D03*
X-49600000Y68100000D03*
X-49600000Y62500000D03*
X-49600000Y56900000D03*
X-49600000Y51300000D03*
X-49600000Y45700000D03*
X-49600000Y40100000D03*
X-62100000Y101700000D03*
X-62100000Y96100000D03*
X-62100000Y90500000D03*
X-62100000Y84900000D03*
X-62100000Y79300000D03*
X-62100000Y73700000D03*
X-62100000Y68100000D03*
X-62100000Y62500000D03*
X-62100000Y56900000D03*
X-62100000Y51300000D03*
X-62100000Y45700000D03*
X-62100000Y40100000D03*
X-62100000Y103400000D03*
X-62100000Y97800000D03*
X-62100000Y92200000D03*
X-62100000Y86600000D03*
X-62100000Y81000000D03*
X-62100000Y75400000D03*
X-62100000Y69800000D03*
X-62100000Y64200000D03*
X-62100000Y58600000D03*
X-62100000Y53000000D03*
X-62100000Y47400000D03*
X-62100000Y41800000D03*
X-62100000Y105100000D03*
X-62100000Y99500000D03*
X-62100000Y93900000D03*
X-62100000Y88300000D03*
X-62100000Y82700000D03*
X-62100000Y77100000D03*
X-62100000Y71500000D03*
X-62100000Y65900000D03*
X-62100000Y60300000D03*
X-62100000Y54700000D03*
X-62100000Y49100000D03*
X-62100000Y43500000D03*
X-21300000Y105100000D03*
X-21300000Y99500000D03*
X-21300000Y93900000D03*
X-21300000Y88300000D03*
X-21300000Y82700000D03*
X-21300000Y77100000D03*
X-21300000Y71500000D03*
X-21300000Y65900000D03*
X-21300000Y60300000D03*
X-21300000Y54700000D03*
X-21300000Y49100000D03*
X-21300000Y43500000D03*
X-21300000Y103400000D03*
X-21300000Y97800000D03*
X-21300000Y92200000D03*
X-21300000Y86600000D03*
X-21300000Y81000000D03*
X-21300000Y75400000D03*
X-21300000Y69800000D03*
X-21300000Y64200000D03*
X-21300000Y58600000D03*
X-21300000Y53000000D03*
X-21300000Y47400000D03*
X-21300000Y41800000D03*
X-21300000Y101700000D03*
X-21300000Y96100000D03*
X-21300000Y90500000D03*
X-21300000Y84900000D03*
X-21300000Y79300000D03*
X-21300000Y73700000D03*
X-21300000Y68100000D03*
X-21300000Y62500000D03*
X-21300000Y56900000D03*
X-21300000Y51300000D03*
X-21300000Y45700000D03*
X-21300000Y40100000D03*
X-8800000Y101700000D03*
X-8800000Y96100000D03*
X-8800000Y90500000D03*
X-8800000Y84900000D03*
X-8800000Y79300000D03*
X-8800000Y73700000D03*
X-8800000Y68100000D03*
X-8800000Y62500000D03*
X-8800000Y56900000D03*
X-8800000Y51300000D03*
X-8800000Y45700000D03*
X-8800000Y40100000D03*
X-8800000Y105100000D03*
X-8800000Y99500000D03*
X-8800000Y93900000D03*
X-8800000Y88300000D03*
X-8800000Y82700000D03*
X-8800000Y77100000D03*
X-8800000Y71500000D03*
X-8800000Y65900000D03*
X-8800000Y60300000D03*
X-8800000Y54700000D03*
X-8800000Y49100000D03*
X-8800000Y43500000D03*
X-8800000Y103400000D03*
X-8800000Y97800000D03*
X-8800000Y92200000D03*
X-8800000Y86600000D03*
X-8800000Y81000000D03*
X-8800000Y75400000D03*
X-8800000Y69800000D03*
X-8800000Y64200000D03*
X-8800000Y58600000D03*
X-8800000Y53000000D03*
X-8800000Y47400000D03*
X-8800000Y41800000D03*
X-7600000Y103400000D03*
X-7600000Y97800000D03*
X-7600000Y92200000D03*
X-7600000Y86600000D03*
X-7600000Y81000000D03*
X-7600000Y75400000D03*
X-7600000Y69800000D03*
X-7600000Y64200000D03*
X-7600000Y58600000D03*
X-7600000Y53000000D03*
X-7600000Y47400000D03*
X-7600000Y41800000D03*
X-7600000Y101700000D03*
X-7600000Y96100000D03*
X-7600000Y90500000D03*
X-7600000Y84900000D03*
X-7600000Y79300000D03*
X-7600000Y73700000D03*
X-7600000Y68100000D03*
X-7600000Y62500000D03*
X-7600000Y56900000D03*
X-7600000Y51300000D03*
X-7600000Y45700000D03*
X-7600000Y40100000D03*
X-7600000Y105100000D03*
X-7600000Y99500000D03*
X-7600000Y93900000D03*
X-7600000Y88300000D03*
X-7600000Y82700000D03*
X-7600000Y77100000D03*
X-7600000Y71500000D03*
X-7600000Y65900000D03*
X-7600000Y60300000D03*
X-7600000Y54700000D03*
X-7600000Y49100000D03*
X-7600000Y43500000D03*
X4900000Y103400000D03*
X4900000Y97800000D03*
X4900000Y92200000D03*
X4900000Y86600000D03*
X4900000Y81000000D03*
X4900000Y75400000D03*
X4900000Y69800000D03*
X4900000Y64200000D03*
X4900000Y58600000D03*
X4900000Y53000000D03*
X4900000Y47400000D03*
X4900000Y41800000D03*
X4900000Y105100000D03*
X4900000Y99500000D03*
X4900000Y93900000D03*
X4900000Y88300000D03*
X4900000Y82700000D03*
X4900000Y77100000D03*
X4900000Y71500000D03*
X4900000Y65900000D03*
X4900000Y60300000D03*
X4900000Y54700000D03*
X4900000Y49100000D03*
X4900000Y43500000D03*
X4900000Y101700000D03*
X4900000Y96100000D03*
X4900000Y90500000D03*
X4900000Y84900000D03*
X4900000Y79300000D03*
X4900000Y73700000D03*
X4900000Y68100000D03*
X4900000Y62500000D03*
X4900000Y56900000D03*
X4900000Y51300000D03*
X4900000Y45700000D03*
X4900000Y40100000D03*
X6000000Y103400000D03*
X6000000Y97800000D03*
X6000000Y92200000D03*
X6000000Y86600000D03*
X6000000Y81000000D03*
X6000000Y75400000D03*
X6000000Y69800000D03*
X6000000Y64200000D03*
X6000000Y58600000D03*
X6000000Y53000000D03*
X6000000Y47400000D03*
X6000000Y41800000D03*
X6000000Y105100000D03*
X6000000Y99500000D03*
X6000000Y93900000D03*
X6000000Y88300000D03*
X6000000Y82700000D03*
X6000000Y77100000D03*
X6000000Y71500000D03*
X6000000Y65900000D03*
X6000000Y60300000D03*
X6000000Y54700000D03*
X6000000Y49100000D03*
X6000000Y43500000D03*
X6000000Y101700000D03*
X6000000Y96100000D03*
X6000000Y90500000D03*
X6000000Y84900000D03*
X6000000Y79300000D03*
X6000000Y73700000D03*
X6000000Y68100000D03*
X6000000Y62500000D03*
X6000000Y56900000D03*
X6000000Y51300000D03*
X6000000Y45700000D03*
X6000000Y40100000D03*
X4900000Y33500000D03*
X4900000Y31800000D03*
X4900000Y30100000D03*
X4900000Y27900000D03*
X4900000Y22300000D03*
X4900000Y11100000D03*
X4900000Y5500000D03*
X4900000Y24500000D03*
X4900000Y18900000D03*
X4900000Y13300000D03*
X4900000Y7700000D03*
X4900000Y2100000D03*
X4900000Y26200000D03*
X4900000Y20600000D03*
X4900000Y15000000D03*
X4900000Y9400000D03*
X4900000Y3800000D03*
X-7600000Y30100000D03*
X-7600000Y31800000D03*
X-7600000Y33500000D03*
X-7600000Y24500000D03*
X-7600000Y18900000D03*
X-7600000Y13300000D03*
X-7600000Y7700000D03*
X-7600000Y2100000D03*
X-7600000Y27900000D03*
X-7600000Y22300000D03*
X-7600000Y16700000D03*
X-7600000Y11100000D03*
X-7600000Y5500000D03*
X-7600000Y26200000D03*
X-7600000Y20600000D03*
X-7600000Y15000000D03*
X-7600000Y9400000D03*
X-7600000Y3800000D03*
X-8800000Y30100000D03*
X-8800000Y33500000D03*
X-8800000Y31800000D03*
X-8800000Y26200000D03*
X-8800000Y20600000D03*
X-8800000Y15000000D03*
X-8800000Y9400000D03*
X-8800000Y3800000D03*
X-8800000Y24500000D03*
X-8800000Y18900000D03*
X-8800000Y13300000D03*
X-8800000Y7700000D03*
X-8800000Y2100000D03*
X-8800000Y27900000D03*
X-8800000Y22300000D03*
X-8800000Y16700000D03*
X-8800000Y11100000D03*
X-8800000Y5500000D03*
X-21300000Y16700000D03*
X-21300000Y11100000D03*
X-21300000Y5500000D03*
X-21300000Y15000000D03*
X-21300000Y9400000D03*
X-21300000Y3800000D03*
X-21300000Y13300000D03*
X-21300000Y7700000D03*
X-21300000Y2100000D03*
X-22400000Y5500000D03*
X-22400000Y3800000D03*
X-22400000Y16700000D03*
X-22400000Y11100000D03*
X-22400000Y13300000D03*
X-22400000Y7700000D03*
X-22400000Y2100000D03*
X-22400000Y15000000D03*
X-22400000Y9400000D03*
X-34900000Y16700000D03*
X-34900000Y11100000D03*
X-34900000Y5500000D03*
X-34900000Y-100000D03*
X-34900000Y13300000D03*
X-34900000Y2100000D03*
X-34900000Y-3500000D03*
X-34900000Y15000000D03*
X-34900000Y3800000D03*
X-34900000Y-1800000D03*
X-36000000Y11100000D03*
X-36000000Y5500000D03*
X-34900000Y-100000D03*
X-36000000Y-100000D03*
X-34900000Y7700000D03*
X-34900000Y2100000D03*
X-34900000Y-3500000D03*
X-36000000Y-3500000D03*
X-34900000Y9400000D03*
X-36000000Y9400000D03*
X-34900000Y-1800000D03*
X-36000000Y-1800000D03*
X-36000000Y26200000D03*
X-36000000Y27900000D03*
X-36000000Y22300000D03*
X-36000000Y16700000D03*
X-36000000Y24500000D03*
X-36000000Y18900000D03*
X-36000000Y13300000D03*
X-36000000Y7700000D03*
X-36000000Y2100000D03*
X-36000000Y20600000D03*
X-36000000Y15000000D03*
X-36000000Y3800000D03*
X-48500000Y33500000D03*
X-48400000Y11100000D03*
X-48500000Y30100000D03*
X-48500000Y24500000D03*
X-48500000Y31800000D03*
X-48400000Y15000000D03*
X-48400000Y3800000D03*
X-49600000Y30100000D03*
X-49600000Y24500000D03*
X-48500000Y18900000D03*
X-48400000Y13300000D03*
X-48400000Y7700000D03*
X-49600000Y7700000D03*
X-48400000Y2100000D03*
X-49600000Y31800000D03*
X-48500000Y26200000D03*
X-48500000Y20600000D03*
X-49600000Y20600000D03*
X-48400000Y9400000D03*
X-49600000Y33500000D03*
X-48500000Y27900000D03*
X-48500000Y22300000D03*
X-48400000Y16700000D03*
X-49600000Y16700000D03*
X-49600000Y11100000D03*
X-48400000Y5500000D03*
X-49600000Y5500000D03*
X-49600000Y26200000D03*
X-49600000Y15000000D03*
X-49600000Y9400000D03*
X-49600000Y3800000D03*
X-49600000Y27900000D03*
X-49600000Y22300000D03*
X-49600000Y18900000D03*
X-49600000Y13300000D03*
X-49600000Y2100000D03*
X-62100000Y33500000D03*
X-62100000Y27900000D03*
X-62100000Y22300000D03*
X-62100000Y16700000D03*
X-62100000Y11100000D03*
X-62100000Y5500000D03*
X-62100000Y30100000D03*
X-62100000Y24500000D03*
X-62100000Y18900000D03*
X-62100000Y13300000D03*
X-62100000Y7700000D03*
X-62100000Y2100000D03*
X-62100000Y31800000D03*
X-62100000Y26200000D03*
X-62100000Y20600000D03*
X-62100000Y15000000D03*
X-62100000Y9400000D03*
X-62100000Y3800000D03*
X-21300000Y-100000D03*
X-21300000Y-3500000D03*
X-21300000Y-1800000D03*
X-22400000Y-100000D03*
X-22400000Y-1800000D03*
X-22400000Y-3500000D03*
X-48400000Y-100000D03*
X-48400000Y-3500000D03*
X-48400000Y-1800000D03*
X-49600000Y-100000D03*
X-49600000Y-3500000D03*
X-49600000Y-1800000D03*
X-62100000Y-1800000D03*
X-62100000Y-100000D03*
X-62100000Y-3500000D03*
X4900000Y16700000D03*
G04 #@! TO.N,/C1+*
X-28100000Y103400000D03*
X-28100000Y97800000D03*
X-28100000Y92200000D03*
X-28100000Y86600000D03*
X-28100000Y81000000D03*
X-28100000Y75400000D03*
X-28100000Y69800000D03*
X-28100000Y64200000D03*
X-28100000Y58600000D03*
X-28100000Y53000000D03*
X-28100000Y47400000D03*
X-28100000Y41800000D03*
X-28100000Y105100000D03*
X-28100000Y99500000D03*
X-28100000Y93900000D03*
X-28100000Y88300000D03*
X-28100000Y82700000D03*
X-28100000Y77100000D03*
X-28100000Y71500000D03*
X-28100000Y65900000D03*
X-28100000Y60300000D03*
X-28100000Y54700000D03*
X-28100000Y49100000D03*
X-28100000Y43500000D03*
X-28100000Y101700000D03*
X-28100000Y96100000D03*
X-28100000Y90500000D03*
X-28100000Y84900000D03*
X-28100000Y79300000D03*
X-28100000Y73700000D03*
X-28100000Y68100000D03*
X-28100000Y62500000D03*
X-28100000Y56900000D03*
X-28100000Y51300000D03*
X-28100000Y45700000D03*
X-28100000Y40100000D03*
X-29200000Y103400000D03*
X-29200000Y97800000D03*
X-29200000Y92200000D03*
X-29200000Y86600000D03*
X-29200000Y81000000D03*
X-29200000Y75400000D03*
X-29200000Y69800000D03*
X-29200000Y64200000D03*
X-29200000Y58600000D03*
X-29200000Y53000000D03*
X-29200000Y47400000D03*
X-29200000Y41800000D03*
X-29200000Y101700000D03*
X-29200000Y96100000D03*
X-29200000Y90500000D03*
X-29200000Y84900000D03*
X-29200000Y79300000D03*
X-29200000Y73700000D03*
X-29200000Y68100000D03*
X-29200000Y62500000D03*
X-29200000Y56900000D03*
X-29200000Y51300000D03*
X-29200000Y45700000D03*
X-29200000Y40100000D03*
X-29200000Y105100000D03*
X-29200000Y99500000D03*
X-29200000Y93900000D03*
X-29200000Y88300000D03*
X-29200000Y82700000D03*
X-29200000Y77100000D03*
X-29200000Y71500000D03*
X-29200000Y65900000D03*
X-29200000Y60300000D03*
X-29200000Y54700000D03*
X-29200000Y49100000D03*
X-29200000Y43500000D03*
X-41700000Y103400000D03*
X-41700000Y97800000D03*
X-41700000Y92200000D03*
X-41700000Y86600000D03*
X-41700000Y81000000D03*
X-41700000Y75400000D03*
X-41700000Y69800000D03*
X-41700000Y64200000D03*
X-41700000Y58600000D03*
X-41700000Y53000000D03*
X-41700000Y47400000D03*
X-41700000Y41800000D03*
X-41700000Y101700000D03*
X-41700000Y96100000D03*
X-41700000Y90500000D03*
X-41700000Y84900000D03*
X-41700000Y79300000D03*
X-41700000Y73700000D03*
X-41700000Y68100000D03*
X-41700000Y62500000D03*
X-41700000Y56900000D03*
X-41700000Y51300000D03*
X-41700000Y45700000D03*
X-41700000Y40100000D03*
X-41700000Y105100000D03*
X-41700000Y99500000D03*
X-41700000Y93900000D03*
X-41700000Y88300000D03*
X-41700000Y82700000D03*
X-41700000Y77100000D03*
X-41700000Y71500000D03*
X-41700000Y65900000D03*
X-41700000Y60300000D03*
X-41700000Y54700000D03*
X-41700000Y49100000D03*
X-41700000Y43500000D03*
X-42800000Y101700000D03*
X-42800000Y96100000D03*
X-42800000Y90500000D03*
X-42800000Y84900000D03*
X-42800000Y79300000D03*
X-42800000Y73700000D03*
X-42800000Y68100000D03*
X-42800000Y62500000D03*
X-42800000Y56900000D03*
X-42800000Y51300000D03*
X-42800000Y45700000D03*
X-42800000Y40100000D03*
X-42800000Y103400000D03*
X-42800000Y97800000D03*
X-42800000Y92200000D03*
X-42800000Y86600000D03*
X-42800000Y81000000D03*
X-42800000Y75400000D03*
X-42800000Y69800000D03*
X-42800000Y64200000D03*
X-42800000Y58600000D03*
X-42800000Y53000000D03*
X-42800000Y47400000D03*
X-42800000Y41800000D03*
X-42800000Y105100000D03*
X-42800000Y99500000D03*
X-42800000Y93900000D03*
X-42800000Y88300000D03*
X-42800000Y82700000D03*
X-42800000Y77100000D03*
X-42800000Y71500000D03*
X-42800000Y65900000D03*
X-42800000Y60300000D03*
X-42800000Y54700000D03*
X-42800000Y49100000D03*
X-42800000Y43500000D03*
X-55300000Y103400000D03*
X-55300000Y97800000D03*
X-55300000Y92200000D03*
X-55300000Y86600000D03*
X-55300000Y81000000D03*
X-55300000Y75400000D03*
X-55300000Y69800000D03*
X-55300000Y64200000D03*
X-55300000Y58600000D03*
X-55300000Y53000000D03*
X-55300000Y47400000D03*
X-55300000Y41800000D03*
X-55300000Y101700000D03*
X-55300000Y96100000D03*
X-55300000Y90500000D03*
X-55300000Y84900000D03*
X-55300000Y79300000D03*
X-55300000Y73700000D03*
X-55300000Y68100000D03*
X-55300000Y62500000D03*
X-55300000Y56900000D03*
X-55300000Y51300000D03*
X-55300000Y45700000D03*
X-55300000Y40100000D03*
X-55300000Y105100000D03*
X-55300000Y99500000D03*
X-55300000Y93900000D03*
X-55300000Y88300000D03*
X-55300000Y82700000D03*
X-55300000Y77100000D03*
X-55300000Y71500000D03*
X-55300000Y65900000D03*
X-55300000Y60300000D03*
X-55300000Y54700000D03*
X-55300000Y49100000D03*
X-55300000Y43500000D03*
X-56400000Y101700000D03*
X-56400000Y96100000D03*
X-56400000Y90500000D03*
X-56400000Y84900000D03*
X-56400000Y79300000D03*
X-56400000Y73700000D03*
X-56400000Y68100000D03*
X-56400000Y62500000D03*
X-56400000Y56900000D03*
X-56400000Y51300000D03*
X-56400000Y45700000D03*
X-56400000Y40100000D03*
X-56400000Y103400000D03*
X-56400000Y97800000D03*
X-56400000Y92200000D03*
X-56400000Y86600000D03*
X-56400000Y81000000D03*
X-56400000Y75400000D03*
X-56400000Y69800000D03*
X-56400000Y64200000D03*
X-56400000Y58600000D03*
X-56400000Y53000000D03*
X-56400000Y47400000D03*
X-56400000Y41800000D03*
X-56400000Y105100000D03*
X-56400000Y99500000D03*
X-56400000Y93900000D03*
X-56400000Y88300000D03*
X-56400000Y82700000D03*
X-56400000Y77100000D03*
X-56400000Y71500000D03*
X-56400000Y65900000D03*
X-56400000Y60300000D03*
X-56400000Y54700000D03*
X-56400000Y49100000D03*
X-56400000Y43500000D03*
X-15600000Y103400000D03*
X-15600000Y97800000D03*
X-15600000Y92200000D03*
X-15600000Y86600000D03*
X-15600000Y81000000D03*
X-15600000Y75400000D03*
X-15600000Y69800000D03*
X-15600000Y64200000D03*
X-15600000Y58600000D03*
X-15600000Y53000000D03*
X-15600000Y47400000D03*
X-15600000Y41800000D03*
X-15600000Y105100000D03*
X-15600000Y99500000D03*
X-15600000Y93900000D03*
X-15600000Y88300000D03*
X-15600000Y82700000D03*
X-15600000Y77100000D03*
X-15600000Y71500000D03*
X-15600000Y65900000D03*
X-15600000Y60300000D03*
X-15600000Y54700000D03*
X-15600000Y49100000D03*
X-15600000Y43500000D03*
X-15600000Y101700000D03*
X-15600000Y96100000D03*
X-15600000Y90500000D03*
X-15600000Y84900000D03*
X-15600000Y79300000D03*
X-15600000Y73700000D03*
X-15600000Y68100000D03*
X-15600000Y62500000D03*
X-15600000Y56900000D03*
X-15600000Y51300000D03*
X-15600000Y45700000D03*
X-15600000Y40100000D03*
X-14500000Y101700000D03*
X-14500000Y96100000D03*
X-14500000Y90500000D03*
X-14500000Y84900000D03*
X-14500000Y79300000D03*
X-14500000Y73700000D03*
X-14500000Y68100000D03*
X-14500000Y62500000D03*
X-14500000Y56900000D03*
X-14500000Y51300000D03*
X-14500000Y45700000D03*
X-14500000Y40100000D03*
X-14500000Y105100000D03*
X-14500000Y99500000D03*
X-14500000Y93900000D03*
X-14500000Y88300000D03*
X-14500000Y82700000D03*
X-14500000Y77100000D03*
X-14500000Y71500000D03*
X-14500000Y65900000D03*
X-14500000Y60300000D03*
X-14500000Y54700000D03*
X-14500000Y49100000D03*
X-14500000Y43500000D03*
X-14500000Y103400000D03*
X-14500000Y97800000D03*
X-14500000Y92200000D03*
X-14500000Y86600000D03*
X-14500000Y81000000D03*
X-14500000Y75400000D03*
X-14500000Y69800000D03*
X-14500000Y64200000D03*
X-14500000Y58600000D03*
X-14500000Y53000000D03*
X-14500000Y47400000D03*
X-14500000Y41800000D03*
X-1900000Y103400000D03*
X-1900000Y97800000D03*
X-1900000Y92200000D03*
X-1900000Y86600000D03*
X-1900000Y81000000D03*
X-1900000Y75400000D03*
X-1900000Y69800000D03*
X-1900000Y64200000D03*
X-1900000Y58600000D03*
X-1900000Y53000000D03*
X-1900000Y47400000D03*
X-1900000Y41800000D03*
X-1900000Y101700000D03*
X-1900000Y96100000D03*
X-1900000Y90500000D03*
X-1900000Y84900000D03*
X-1900000Y79300000D03*
X-1900000Y73700000D03*
X-1900000Y68100000D03*
X-1900000Y62500000D03*
X-1900000Y56900000D03*
X-1900000Y51300000D03*
X-1900000Y45700000D03*
X-1900000Y40100000D03*
X-1900000Y105100000D03*
X-1900000Y99500000D03*
X-1900000Y93900000D03*
X-1900000Y88300000D03*
X-1900000Y82700000D03*
X-1900000Y77100000D03*
X-1900000Y71500000D03*
X-1900000Y65900000D03*
X-1900000Y60300000D03*
X-1900000Y54700000D03*
X-1900000Y49100000D03*
X-1900000Y43500000D03*
X-800000Y103400000D03*
X-800000Y97800000D03*
X-800000Y92200000D03*
X-800000Y86600000D03*
X-800000Y81000000D03*
X-800000Y75400000D03*
X-800000Y69800000D03*
X-800000Y64200000D03*
X-800000Y58600000D03*
X-800000Y53000000D03*
X-800000Y47400000D03*
X-800000Y41800000D03*
X-800000Y101700000D03*
X-800000Y96100000D03*
X-800000Y90500000D03*
X-800000Y84900000D03*
X-800000Y79300000D03*
X-800000Y73700000D03*
X-800000Y68100000D03*
X-800000Y62500000D03*
X-800000Y56900000D03*
X-800000Y51300000D03*
X-800000Y45700000D03*
X-800000Y40100000D03*
X-800000Y105100000D03*
X-800000Y99500000D03*
X-800000Y93900000D03*
X-800000Y88300000D03*
X-800000Y82700000D03*
X-800000Y77100000D03*
X-800000Y71500000D03*
X-800000Y65900000D03*
X-800000Y60300000D03*
X-800000Y54700000D03*
X-800000Y49100000D03*
X-800000Y43500000D03*
X-800000Y33500000D03*
X-800000Y30100000D03*
X-800000Y31800000D03*
X11800000Y103400000D03*
X11800000Y97800000D03*
X11800000Y92200000D03*
X11800000Y86600000D03*
X11800000Y81000000D03*
X11800000Y75400000D03*
X11800000Y69800000D03*
X11800000Y64200000D03*
X11800000Y58600000D03*
X11800000Y53000000D03*
X11800000Y47400000D03*
X11800000Y41800000D03*
X11800000Y105100000D03*
X11800000Y99500000D03*
X11800000Y93900000D03*
X11800000Y88300000D03*
X11800000Y82700000D03*
X11800000Y77100000D03*
X11800000Y71500000D03*
X11800000Y65900000D03*
X11800000Y60300000D03*
X11800000Y54700000D03*
X11800000Y49100000D03*
X11800000Y43500000D03*
X11800000Y101700000D03*
X11800000Y96100000D03*
X11800000Y90500000D03*
X11800000Y84900000D03*
X11800000Y79300000D03*
X11800000Y73700000D03*
X11800000Y68100000D03*
X11800000Y62500000D03*
X11800000Y56900000D03*
X11800000Y51300000D03*
X11800000Y45700000D03*
X11800000Y40100000D03*
X-800000Y27900000D03*
X-800000Y5500000D03*
X-800000Y9400000D03*
X-800000Y24500000D03*
X-800000Y18900000D03*
X-800000Y13300000D03*
X-1900000Y33500000D03*
X-800000Y22300000D03*
X-1900000Y22300000D03*
X-800000Y16700000D03*
X-1900000Y16700000D03*
X-800000Y11100000D03*
X-1900000Y11100000D03*
X-1900000Y5500000D03*
X-1900000Y31800000D03*
X-800000Y26200000D03*
X-1900000Y26200000D03*
X-800000Y20600000D03*
X-1900000Y20600000D03*
X-800000Y15000000D03*
X-1900000Y15000000D03*
X-1900000Y9400000D03*
X-800000Y3800000D03*
X-1900000Y3800000D03*
X-1900000Y30100000D03*
X-1900000Y24500000D03*
X-1900000Y18900000D03*
X-1900000Y13300000D03*
X-800000Y7700000D03*
X-1900000Y7700000D03*
X-800000Y2100000D03*
X-1900000Y2100000D03*
X-14500000Y31800000D03*
X-14500000Y30100000D03*
X-14500000Y33500000D03*
X-14500000Y26200000D03*
X-14500000Y20600000D03*
X-14500000Y15000000D03*
X-14500000Y9400000D03*
X-14500000Y3800000D03*
X-14500000Y24500000D03*
X-14500000Y18900000D03*
X-14500000Y13300000D03*
X-14500000Y7700000D03*
X-14500000Y2100000D03*
X-14500000Y27900000D03*
X-14500000Y22300000D03*
X-14500000Y16700000D03*
X-14500000Y11100000D03*
X-14500000Y5500000D03*
X-15600000Y16700000D03*
X-15600000Y11100000D03*
X-15600000Y5500000D03*
X-15600000Y15000000D03*
X-15600000Y9400000D03*
X-15600000Y3800000D03*
X-15600000Y13300000D03*
X-15600000Y7700000D03*
X-15600000Y2100000D03*
X-28100000Y16700000D03*
X-28100000Y11100000D03*
X-28100000Y5500000D03*
X-28100000Y13300000D03*
X-28100000Y15000000D03*
X-28100000Y3800000D03*
X-29200000Y16700000D03*
X-29200000Y11100000D03*
X-28100000Y-100000D03*
X-29200000Y-100000D03*
X-29200000Y13300000D03*
X-28100000Y7700000D03*
X-28100000Y2100000D03*
X-28100000Y-3500000D03*
X-29200000Y-3500000D03*
X-29200000Y15000000D03*
X-28100000Y9400000D03*
X-29200000Y3800000D03*
X-28100000Y-1800000D03*
X-29200000Y-1800000D03*
X-29200000Y5500000D03*
X-29200000Y-100000D03*
X-29200000Y7700000D03*
X-29200000Y2100000D03*
X-29200000Y-3500000D03*
X-29200000Y9400000D03*
X-29200000Y-1800000D03*
X-41700000Y27900000D03*
X-41700000Y22300000D03*
X-41700000Y16700000D03*
X-41700000Y11100000D03*
X-41700000Y5500000D03*
X-41700000Y20600000D03*
X-41700000Y15000000D03*
X-41700000Y3800000D03*
X-42800000Y33500000D03*
X-42800000Y22300000D03*
X-42700000Y16700000D03*
X-42700000Y5500000D03*
X-42800000Y30100000D03*
X-41700000Y24500000D03*
X-41700000Y18900000D03*
X-41700000Y13300000D03*
X-41700000Y7700000D03*
X-41700000Y2100000D03*
X-42800000Y31800000D03*
X-41700000Y26200000D03*
X-42800000Y26200000D03*
X-42800000Y20600000D03*
X-42700000Y15000000D03*
X-41700000Y9400000D03*
X-42700000Y3800000D03*
X-42800000Y27900000D03*
X-42700000Y11100000D03*
X-42800000Y24500000D03*
X-42800000Y18900000D03*
X-42700000Y13300000D03*
X-42700000Y7700000D03*
X-42700000Y2100000D03*
X-42700000Y9400000D03*
X-55300000Y31800000D03*
X-55300000Y26200000D03*
X-55300000Y15000000D03*
X-55300000Y3800000D03*
X-55300000Y33500000D03*
X-55300000Y27900000D03*
X-55300000Y22300000D03*
X-55300000Y16700000D03*
X-55300000Y11100000D03*
X-55300000Y5500000D03*
X-55300000Y30100000D03*
X-55300000Y13300000D03*
X-56400000Y31800000D03*
X-55300000Y20600000D03*
X-55300000Y9400000D03*
X-56400000Y9400000D03*
X-56400000Y3800000D03*
X-56400000Y30100000D03*
X-55300000Y24500000D03*
X-55300000Y18900000D03*
X-56400000Y13300000D03*
X-55300000Y7700000D03*
X-56400000Y7700000D03*
X-55300000Y2100000D03*
X-56400000Y33500000D03*
X-56400000Y16700000D03*
X-55300000Y11100000D03*
X-56400000Y5500000D03*
X-56400000Y27900000D03*
X-56400000Y22300000D03*
X-56400000Y11100000D03*
X-56400000Y24500000D03*
X-56400000Y18900000D03*
X-56400000Y2100000D03*
X-56400000Y26200000D03*
X-56400000Y20600000D03*
X-56400000Y15000000D03*
X-15600000Y-100000D03*
X-15600000Y-1800000D03*
X-15600000Y-3500000D03*
X-41700000Y-3500000D03*
X-41700000Y-1800000D03*
X-42700000Y-3500000D03*
X-42700000Y-1800000D03*
X-42700000Y-100000D03*
X-41700000Y-100000D03*
X-55300000Y-100000D03*
X-55300000Y-3500000D03*
X-55300000Y-1800000D03*
X-56400000Y-1800000D03*
X-56400000Y-100000D03*
X-56400000Y-3500000D03*
X-1900000Y27900000D03*
X12900000Y103400000D03*
X12900000Y105100000D03*
X12900000Y101700000D03*
G04 #@! TO.N,/C1-*
X18600000Y103400000D03*
G04 #@! TO.N,/C1+*
X12900000Y97800000D03*
G04 #@! TO.N,/C1-*
X18600000Y97800000D03*
G04 #@! TO.N,/C1+*
X12900000Y92200000D03*
G04 #@! TO.N,/C1-*
X18600000Y92200000D03*
G04 #@! TO.N,/C1+*
X12900000Y86600000D03*
G04 #@! TO.N,/C1-*
X18600000Y86600000D03*
G04 #@! TO.N,/C1+*
X12900000Y81000000D03*
G04 #@! TO.N,/C1-*
X18600000Y81000000D03*
G04 #@! TO.N,/C1+*
X12900000Y75400000D03*
G04 #@! TO.N,/C1-*
X18600000Y75400000D03*
G04 #@! TO.N,/C1+*
X12900000Y69800000D03*
G04 #@! TO.N,/C1-*
X18600000Y69800000D03*
X18600000Y101700000D03*
G04 #@! TO.N,/C1+*
X12900000Y96100000D03*
G04 #@! TO.N,/C1-*
X18600000Y96100000D03*
G04 #@! TO.N,/C1+*
X12900000Y90500000D03*
G04 #@! TO.N,/C1-*
X18600000Y90500000D03*
G04 #@! TO.N,/C1+*
X12900000Y84900000D03*
G04 #@! TO.N,/C1-*
X18600000Y84900000D03*
G04 #@! TO.N,/C1+*
X12900000Y79300000D03*
G04 #@! TO.N,/C1-*
X18600000Y79300000D03*
G04 #@! TO.N,/C1+*
X12900000Y73700000D03*
G04 #@! TO.N,/C1-*
X18600000Y73700000D03*
G04 #@! TO.N,/C1+*
X12900000Y68100000D03*
G04 #@! TO.N,/C1-*
X18600000Y68100000D03*
X18600000Y105100000D03*
G04 #@! TO.N,/C1+*
X12900000Y99500000D03*
G04 #@! TO.N,/C1-*
X18600000Y99500000D03*
G04 #@! TO.N,/C1+*
X12900000Y93900000D03*
G04 #@! TO.N,/C1-*
X18600000Y93900000D03*
G04 #@! TO.N,/C1+*
X12900000Y88300000D03*
G04 #@! TO.N,/C1-*
X18600000Y88300000D03*
G04 #@! TO.N,/C1+*
X12900000Y82700000D03*
G04 #@! TO.N,/C1-*
X18600000Y82700000D03*
G04 #@! TO.N,/C1+*
X12900000Y77100000D03*
G04 #@! TO.N,/C1-*
X18600000Y77100000D03*
G04 #@! TO.N,/C1+*
X12900000Y71500000D03*
G04 #@! TO.N,/C1-*
X18600000Y71500000D03*
G04 #@! TO.N,/C2+*
X29200000Y43500000D03*
X29200000Y40100000D03*
X29200000Y41800000D03*
X29200000Y49100000D03*
X29200000Y54700000D03*
X29200000Y60300000D03*
X29200000Y65900000D03*
X29200000Y71500000D03*
X29200000Y77100000D03*
X29200000Y82700000D03*
X29200000Y88300000D03*
X29200000Y94000000D03*
X29200000Y99500000D03*
X29200000Y105100000D03*
X29200000Y45700000D03*
X29200000Y51300000D03*
X29200000Y56900000D03*
X29200000Y62500000D03*
X29200000Y68100000D03*
X29200000Y73700000D03*
X29200000Y79300000D03*
X29200000Y84900000D03*
X29200000Y90500000D03*
X29200000Y96100000D03*
X29200000Y101700000D03*
X29200000Y47400000D03*
X29200000Y53000000D03*
X29200000Y58600000D03*
X29200000Y64200000D03*
X29200000Y69800000D03*
X29200000Y75390000D03*
X29200000Y81000000D03*
X29200000Y86600000D03*
X29200000Y92190000D03*
X29200000Y97800000D03*
X29200000Y103400000D03*
X41700000Y41800000D03*
X41700000Y40100000D03*
X41700000Y43500000D03*
X41700000Y49100000D03*
X41700000Y54700000D03*
X41700000Y60300000D03*
X41700000Y65900000D03*
X41700000Y71500000D03*
X41700000Y77100000D03*
X41700000Y82700000D03*
X41700000Y88300000D03*
X41700000Y94000000D03*
X41700000Y99500000D03*
X41700000Y105100000D03*
X41700000Y47400000D03*
X41700000Y53000000D03*
X41700000Y58600000D03*
X41700000Y64200000D03*
X41700000Y69800000D03*
X41700000Y75400000D03*
X41700000Y81000000D03*
X41700000Y86600000D03*
X41700000Y92200000D03*
X41700000Y97800000D03*
X41700000Y103400000D03*
X41700000Y45700000D03*
X41700000Y51300000D03*
X41700000Y56900000D03*
X41700000Y62500000D03*
X41700000Y68100000D03*
X41700000Y73700000D03*
X41700000Y79300000D03*
X41700000Y84900000D03*
X41700000Y90500000D03*
X41700000Y96100000D03*
X41700000Y101700000D03*
X42800000Y103400000D03*
X42800000Y97800000D03*
X42800000Y92200000D03*
X42800000Y86600000D03*
X42800000Y81000000D03*
X42800000Y75400000D03*
X42800000Y69800000D03*
X42800000Y64200000D03*
X42800000Y58600000D03*
X42800000Y53000000D03*
X42800000Y47400000D03*
X42800000Y41800000D03*
X42800000Y105100000D03*
X42800000Y99500000D03*
X42800000Y94000000D03*
X42800000Y88300000D03*
X42800000Y82700000D03*
X42800000Y77100000D03*
X42800000Y71500000D03*
X42800000Y65900000D03*
X42800000Y60300000D03*
X42800000Y54700000D03*
X42800000Y49100000D03*
X42800000Y43500000D03*
X42800000Y101700000D03*
X42800000Y96100000D03*
X42800000Y90500000D03*
X42800000Y84900000D03*
X42800000Y79300000D03*
X42800000Y73700000D03*
X42800000Y68100000D03*
X42800000Y62500000D03*
X42800000Y56900000D03*
X42800000Y51300000D03*
X42800000Y45700000D03*
X42800000Y40100000D03*
X55300000Y101700000D03*
X55300000Y96100000D03*
X55300000Y90500000D03*
X55300000Y84900000D03*
X55300000Y79300000D03*
X55300000Y73700000D03*
X55300000Y68100000D03*
X55300000Y62500000D03*
X55300000Y56900000D03*
X55300000Y51300000D03*
X55300000Y45700000D03*
X55300000Y40100000D03*
X55300000Y103400000D03*
X55300000Y97800000D03*
X55300000Y92200000D03*
X55300000Y86600000D03*
X55300000Y81000000D03*
X55300000Y75400000D03*
X55300000Y69800000D03*
X55300000Y64200000D03*
X55300000Y58600000D03*
X55300000Y53000000D03*
X55300000Y47400000D03*
X55300000Y41800000D03*
X55300000Y105100000D03*
X55300000Y99500000D03*
X55300000Y94000000D03*
X55300000Y88300000D03*
X55300000Y82700000D03*
X55300000Y77100000D03*
X55300000Y71500000D03*
X55300000Y65900000D03*
X55300000Y60300000D03*
X55300000Y54700000D03*
X55300000Y49100000D03*
X55300000Y43500000D03*
X56400000Y105100000D03*
X56400000Y99500000D03*
X56400000Y94000000D03*
X56400000Y88300000D03*
X56400000Y82700000D03*
X56400000Y77100000D03*
X56400000Y71500000D03*
X56400000Y65900000D03*
X56400000Y60300000D03*
X56400000Y54700000D03*
X56400000Y49100000D03*
X56400000Y43500000D03*
X56400000Y101700000D03*
X56400000Y96100000D03*
X56400000Y90500000D03*
X56400000Y84900000D03*
X56400000Y79300000D03*
X56400000Y73700000D03*
X56400000Y68100000D03*
X56400000Y62500000D03*
X56400000Y56900000D03*
X56400000Y51300000D03*
X56400000Y45700000D03*
X56400000Y40100000D03*
X56400000Y103400000D03*
X56400000Y97800000D03*
X56400000Y92200000D03*
X56400000Y86600000D03*
X56400000Y81000000D03*
X56400000Y75400000D03*
X56400000Y69800000D03*
X56400000Y64200000D03*
X56400000Y58600000D03*
X56400000Y53000000D03*
X56400000Y47400000D03*
X56400000Y41800000D03*
X41700000Y21500000D03*
X41700000Y15900000D03*
X41700000Y10300000D03*
X41700000Y4700000D03*
X41700000Y-900000D03*
X41700000Y19700000D03*
X41700000Y14100000D03*
X41700000Y8500000D03*
X41700000Y2900000D03*
X41700000Y-2700000D03*
X41700000Y18000000D03*
X41700000Y12400000D03*
X41700000Y6800000D03*
X41700000Y1200000D03*
X41700000Y-4400000D03*
X42800000Y21500000D03*
X42800000Y15900000D03*
X42800000Y10300000D03*
X42800000Y4700000D03*
X42800000Y-900000D03*
X42800000Y19700000D03*
X42800000Y14100000D03*
X42800000Y8500000D03*
X42800000Y2900000D03*
X42800000Y-2700000D03*
X42800000Y18000000D03*
X42800000Y12400000D03*
X42800000Y6800000D03*
X42800000Y1200000D03*
X42800000Y-4400000D03*
X55300000Y19700000D03*
X55300000Y14100000D03*
X55300000Y8500000D03*
X55300000Y2900000D03*
X55300000Y-2700000D03*
X55300000Y18000000D03*
X55300000Y12400000D03*
X55300000Y6800000D03*
X55300000Y1200000D03*
X55300000Y-4400000D03*
X55300000Y21500000D03*
X55300000Y15900000D03*
X55300000Y10300000D03*
X55300000Y4700000D03*
X55300000Y-900000D03*
X56400000Y19700000D03*
X56400000Y14100000D03*
X56400000Y8500000D03*
X56400000Y2900000D03*
X56400000Y-2700000D03*
X56400000Y21500000D03*
X56400000Y15900000D03*
X56400000Y10300000D03*
X56400000Y4700000D03*
X56400000Y-900000D03*
X56400000Y18000000D03*
X56400000Y12400000D03*
X56400000Y6800000D03*
X56400000Y1200000D03*
X56400000Y-4400000D03*
X42800000Y32700000D03*
X42800000Y30900000D03*
X42800000Y29200000D03*
X55300000Y30900000D03*
X55300000Y29200000D03*
X55300000Y32700000D03*
X56400000Y30900000D03*
X56400000Y32700000D03*
X56400000Y29200000D03*
X56400000Y23600000D03*
X56400000Y27100000D03*
X56400000Y25300000D03*
X55300000Y27100000D03*
X55300000Y23600000D03*
X55300000Y25300000D03*
X41700000Y23600000D03*
X41700000Y25300000D03*
X41700000Y27100000D03*
X42800000Y23600000D03*
X42800000Y25300000D03*
X42800000Y27100000D03*
X29200000Y15900000D03*
X29200000Y1200000D03*
X29200000Y-900000D03*
X29200000Y8500000D03*
X29200000Y6800000D03*
X29200000Y2900000D03*
X29200000Y10300000D03*
X29200000Y4700000D03*
X29200000Y-2700000D03*
X29200000Y-4400000D03*
X29200000Y14100000D03*
X29200000Y12400000D03*
X28100000Y10300000D03*
X28100000Y2900000D03*
X28100000Y4700000D03*
X28100000Y8500000D03*
X28100000Y6800000D03*
X28100000Y1200000D03*
X28100000Y-900000D03*
X28100000Y-2700000D03*
X28100000Y-4400000D03*
X28100000Y15900000D03*
X28100000Y14100000D03*
X28100000Y12400000D03*
G04 #@! TO.N,/C2-*
X34900000Y105100000D03*
X34900000Y103400000D03*
X34900000Y101700000D03*
X34900000Y97800000D03*
X34900000Y92190000D03*
X34900000Y86600000D03*
X34900000Y81000000D03*
X34900000Y75400000D03*
X34900000Y69800000D03*
X34900000Y64200000D03*
X34900000Y58600000D03*
X34900000Y96100000D03*
X34900000Y90500000D03*
X34900000Y84900000D03*
X34900000Y79300000D03*
X34900000Y73700000D03*
X34900000Y68100000D03*
X34900000Y62500000D03*
X34900000Y56900000D03*
X34900000Y99500000D03*
X34900000Y94000000D03*
X34900000Y88300000D03*
X34900000Y82700000D03*
X34900000Y77100000D03*
X34900000Y71500000D03*
X34900000Y65900000D03*
X34900000Y60300000D03*
X34900000Y53000000D03*
X34900000Y47400000D03*
X34900000Y41800000D03*
X34900000Y51300000D03*
X34900000Y45700000D03*
X34900000Y40100000D03*
X34900000Y54700000D03*
X34900000Y49100000D03*
X34900000Y43500000D03*
X36000000Y103400000D03*
X36000000Y97800000D03*
X36000000Y92200000D03*
X36000000Y86600000D03*
X36000000Y81000000D03*
X36000000Y75400000D03*
X36000000Y69800000D03*
X36000000Y64200000D03*
X36000000Y58600000D03*
X36000000Y53000000D03*
X36000000Y47400000D03*
X36000000Y41800000D03*
X36000000Y105100000D03*
X36000000Y99500000D03*
X36000000Y94000000D03*
X36000000Y88300000D03*
X36000000Y82700000D03*
X36000000Y77100000D03*
X36000000Y71500000D03*
X36000000Y65900000D03*
X36000000Y60300000D03*
X36000000Y54700000D03*
X36000000Y49100000D03*
X36000000Y43500000D03*
X36000000Y101700000D03*
X36000000Y96100000D03*
X36000000Y90500000D03*
X36000000Y84900000D03*
X36000000Y79300000D03*
X36000000Y73700000D03*
X36000000Y68100000D03*
X36000000Y62500000D03*
X36000000Y56900000D03*
X36000000Y51300000D03*
X36000000Y45700000D03*
X36000000Y40100000D03*
X48600000Y105100000D03*
X48600000Y99500000D03*
X48600000Y94000000D03*
X48600000Y88300000D03*
X48600000Y82700000D03*
X48600000Y77100000D03*
X48600000Y71500000D03*
X48600000Y65900000D03*
X48600000Y60300000D03*
X48600000Y54700000D03*
X48600000Y49100000D03*
X48600000Y43500000D03*
X48600000Y101700000D03*
X48600000Y96100000D03*
X48600000Y90500000D03*
X48600000Y84900000D03*
X48600000Y79300000D03*
X48600000Y73700000D03*
X48600000Y68100000D03*
X48600000Y62500000D03*
X48600000Y56900000D03*
X48600000Y51300000D03*
X48600000Y45700000D03*
X48600000Y40100000D03*
X48600000Y103400000D03*
X48600000Y97800000D03*
X48600000Y92200000D03*
X48600000Y86600000D03*
X48600000Y81000000D03*
X48600000Y75400000D03*
X48600000Y69800000D03*
X48600000Y64200000D03*
X48600000Y58600000D03*
X48600000Y53000000D03*
X48600000Y47400000D03*
X48600000Y41800000D03*
X49600000Y101700000D03*
X49600000Y96100000D03*
X49600000Y90500000D03*
X49600000Y84900000D03*
X49600000Y79300000D03*
X49600000Y73700000D03*
X49600000Y68100000D03*
X49600000Y62500000D03*
X49600000Y56900000D03*
X49600000Y51300000D03*
X49600000Y45700000D03*
X49600000Y40100000D03*
X49600000Y105100000D03*
X49600000Y99500000D03*
X49600000Y94000000D03*
X49600000Y88300000D03*
X49600000Y82700000D03*
X49600000Y77100000D03*
X49600000Y71500000D03*
X49600000Y65900000D03*
X49600000Y60300000D03*
X49600000Y54700000D03*
X49600000Y49100000D03*
X49600000Y43500000D03*
X49600000Y103400000D03*
X49600000Y97800000D03*
X49600000Y92200000D03*
X49600000Y86600000D03*
X49600000Y81000000D03*
X49600000Y75400000D03*
X49600000Y69800000D03*
X49600000Y64200000D03*
X49600000Y58600000D03*
X49600000Y53000000D03*
X49600000Y47400000D03*
X49600000Y41800000D03*
X62100000Y105100000D03*
X62100000Y99500000D03*
X62100000Y94000000D03*
X62100000Y88300000D03*
X62100000Y82700000D03*
X62100000Y77100000D03*
X62100000Y71500000D03*
X62100000Y65900000D03*
X62100000Y60300000D03*
X62100000Y54700000D03*
X62100000Y49100000D03*
X62100000Y43500000D03*
X62100000Y101700000D03*
X62100000Y96100000D03*
X62100000Y90500000D03*
X62100000Y84900000D03*
X62100000Y79300000D03*
X62100000Y73700000D03*
X62100000Y68100000D03*
X62100000Y62500000D03*
X62100000Y56900000D03*
X62100000Y51300000D03*
X62100000Y45700000D03*
X62100000Y40100000D03*
X62100000Y103400000D03*
X62100000Y97800000D03*
X62100000Y92200000D03*
X62100000Y86600000D03*
X62100000Y81000000D03*
X62100000Y75400000D03*
X62100000Y69800000D03*
X62100000Y64200000D03*
X62100000Y58600000D03*
X62100000Y53000000D03*
X62100000Y47400000D03*
X62100000Y41800000D03*
X36000000Y19700000D03*
X36000000Y14100000D03*
X36000000Y8500000D03*
X36000000Y2900000D03*
X36000000Y-2700000D03*
X36000000Y18000000D03*
X36000000Y12400000D03*
X36000000Y6800000D03*
X36000000Y1200000D03*
X36000000Y-4400000D03*
X36000000Y21500000D03*
X36000000Y15900000D03*
X36000000Y10300000D03*
X36000000Y4700000D03*
X36000000Y-900000D03*
X48600000Y18000000D03*
X48600000Y12400000D03*
X48600000Y6800000D03*
X48600000Y1200000D03*
X48600000Y-4400000D03*
X48600000Y19700000D03*
X48600000Y14100000D03*
X48600000Y8500000D03*
X48600000Y2900000D03*
X48600000Y-2700000D03*
X48600000Y21500000D03*
X48600000Y15900000D03*
X48600000Y10300000D03*
X48600000Y4700000D03*
X48600000Y-900000D03*
X49600000Y21500000D03*
X49600000Y15900000D03*
X49600000Y10300000D03*
X49600000Y4700000D03*
X49600000Y-900000D03*
X49600000Y19700000D03*
X49600000Y14100000D03*
X49600000Y8500000D03*
X49600000Y2900000D03*
X49600000Y-2700000D03*
X49600000Y18000000D03*
X49600000Y12400000D03*
X49600000Y6800000D03*
X49600000Y1200000D03*
X49600000Y-4400000D03*
X62100000Y21500000D03*
X62100000Y15900000D03*
X62100000Y10300000D03*
X62100000Y4700000D03*
X62100000Y-900000D03*
X62100000Y18000000D03*
X62100000Y12400000D03*
X62100000Y6800000D03*
X62100000Y1200000D03*
X62100000Y-4400000D03*
X62100000Y19700000D03*
X62100000Y14100000D03*
X62100000Y8500000D03*
X62100000Y2900000D03*
X62100000Y-2700000D03*
X48600000Y29200000D03*
X48600000Y30900000D03*
X48600000Y32700000D03*
X49600000Y32700000D03*
X49600000Y30900000D03*
X49600000Y29200000D03*
X62100000Y32700000D03*
X62100000Y29200000D03*
X62100000Y30900000D03*
X36000000Y27100000D03*
X36000000Y23600000D03*
X36000000Y25300000D03*
X62100000Y25300000D03*
X62100000Y23600000D03*
X62100000Y27100000D03*
X48600000Y27100000D03*
X48600000Y25300000D03*
X48600000Y23600000D03*
X49600000Y23600000D03*
X49600000Y25300000D03*
X49600000Y27100000D03*
X34900000Y8500000D03*
X34900000Y15900000D03*
X34900000Y1200000D03*
X34900000Y-900000D03*
X34900000Y2900000D03*
X34900000Y6800000D03*
X34900000Y4700000D03*
X34900000Y10300000D03*
X34900000Y12400000D03*
X34900000Y-2700000D03*
X34900000Y-4400000D03*
X34900000Y14100000D03*
X22400000Y6800000D03*
X22400000Y10300000D03*
X22400000Y2900000D03*
X22400000Y4700000D03*
X22400000Y8500000D03*
X22400000Y1200000D03*
X22400000Y15900000D03*
X22400000Y14100000D03*
X22400000Y12400000D03*
X22400000Y-2700000D03*
X22400000Y-900000D03*
X22400000Y-4400000D03*
X21300000Y14100000D03*
X21300000Y12400000D03*
X21300000Y15900000D03*
G04 #@! TO.N,/C2+*
X15700000Y14100000D03*
X15700000Y12400000D03*
X15700000Y15900000D03*
X15700000Y6800000D03*
X15700000Y1200000D03*
X15700000Y-4400000D03*
X15700000Y8500000D03*
X15700000Y2900000D03*
X15700000Y-2700000D03*
X15700000Y10300000D03*
X15700000Y4700000D03*
X15700000Y-900000D03*
X14600000Y8500000D03*
X14600000Y10300000D03*
X14600000Y6800000D03*
X14600000Y12400000D03*
X14600000Y14100000D03*
X14600000Y15900000D03*
G04 #@! TO.N,/C2-*
X8800000Y8500000D03*
X8800000Y10300000D03*
X8800000Y6800000D03*
X8800000Y12400000D03*
X8800000Y14100000D03*
X8800000Y15900000D03*
X21300000Y8500000D03*
X21300000Y2900000D03*
X21300000Y-2700000D03*
X21300000Y6800000D03*
X21300000Y1200000D03*
X21300000Y-4400000D03*
X21300000Y10300000D03*
X21300000Y4700000D03*
X21300000Y-900000D03*
G04 #@! TD*
D14*
G04 #@! TO.N,/C2-*
G36*
X36571242Y105748208D02*
X36759062Y105377073D01*
X36824234Y104955988D01*
X36572865Y40867593D01*
X36573599Y40853447D01*
X36649591Y40150400D01*
X36655744Y40122792D01*
X36885460Y39454002D01*
X36897570Y39428440D01*
X37269617Y38827082D01*
X37287085Y38804834D01*
X37783006Y38300739D01*
X37804965Y38282910D01*
X38400161Y37901083D01*
X38425522Y37888556D01*
X39090468Y37647938D01*
X39117972Y37641335D01*
X39819683Y37553862D01*
X39833815Y37552897D01*
X44520492Y37494664D01*
X44534833Y37495297D01*
X45247780Y37567308D01*
X45275790Y37573388D01*
X45954430Y37803443D01*
X45980364Y37815650D01*
X46590131Y38192032D01*
X46612667Y38209743D01*
X47122499Y38713280D01*
X47140489Y38735594D01*
X47524418Y39340637D01*
X47536946Y39366418D01*
X47775415Y40042148D01*
X47781843Y40070080D01*
X47862706Y40782077D01*
X47863517Y40796409D01*
X47863517Y104810493D01*
X47924409Y105195903D01*
X48096580Y105534773D01*
X48333897Y105773000D01*
X49825966Y105773000D01*
X50057480Y105541943D01*
X50229209Y105204785D01*
X50289497Y104820955D01*
X50171029Y40847950D01*
X50171827Y40833503D01*
X50252656Y40115752D01*
X50259133Y40087596D01*
X50500092Y39406687D01*
X50512766Y39380724D01*
X50901388Y38771894D01*
X50919602Y38749467D01*
X51435772Y38244226D01*
X51458584Y38226496D01*
X52075590Y37850992D01*
X52101818Y37838876D01*
X52787728Y37612541D01*
X52816017Y37606667D01*
X53535333Y37541216D01*
X53549794Y37540728D01*
X58115770Y37646913D01*
X58129758Y37648014D01*
X58823992Y37741455D01*
X58851179Y37748233D01*
X59508026Y37991631D01*
X59533066Y38004206D01*
X60120554Y38385715D01*
X60142226Y38403474D01*
X60631758Y38904522D01*
X60649009Y38926602D01*
X61016756Y39522801D01*
X61028746Y39548126D01*
X61256807Y40210455D01*
X61262951Y40237793D01*
X61340225Y40934011D01*
X61341000Y40948021D01*
X61341000Y105270490D01*
X61420638Y105670855D01*
X61488889Y105773000D01*
X63222070Y105773000D01*
X63289893Y105670872D01*
X63367784Y105271041D01*
X62869071Y-5193964D01*
X62807433Y-5497563D01*
X62641691Y-5744105D01*
X62598288Y-5773000D01*
X61609262Y-5773000D01*
X61565944Y-5744056D01*
X61401303Y-5497653D01*
X61341000Y-5194491D01*
X61341000Y32200959D01*
X61340224Y32214978D01*
X61262853Y32911626D01*
X61256701Y32938980D01*
X61028359Y33601676D01*
X61016355Y33627013D01*
X60648171Y34223458D01*
X60630900Y34245545D01*
X60140818Y34746669D01*
X60119122Y34764427D01*
X59531027Y35145807D01*
X59505963Y35158373D01*
X58848519Y35401421D01*
X58821309Y35408180D01*
X58126556Y35501051D01*
X58112558Y35502139D01*
X53544725Y35603921D01*
X53530236Y35603417D01*
X52809559Y35536969D01*
X52781222Y35531042D01*
X52094316Y35303113D01*
X52068058Y35290924D01*
X51450616Y34913359D01*
X51427801Y34895540D01*
X50911904Y34387956D01*
X50893716Y34365433D01*
X50506170Y33754205D01*
X50493556Y33728148D01*
X50254500Y33045035D01*
X50248115Y33016799D01*
X50169968Y32297297D01*
X50169227Y32282818D01*
X50390543Y-4395655D01*
X50329571Y-4799715D01*
X50152125Y-5156640D01*
X49873795Y-5441977D01*
X49521390Y-5628240D01*
X49129049Y-5697458D01*
X48740016Y-5642580D01*
X48387813Y-5468931D01*
X48107544Y-5193888D01*
X47927298Y-4845021D01*
X47863517Y-4447172D01*
X47863517Y32374714D01*
X47862718Y32388934D01*
X47783114Y33095438D01*
X47776786Y33123163D01*
X47541966Y33794240D01*
X47529627Y33819863D01*
X47151366Y34421862D01*
X47133635Y34444097D01*
X46630900Y34946832D01*
X46608665Y34964563D01*
X46006666Y35342824D01*
X45981043Y35355163D01*
X45309966Y35589983D01*
X45282241Y35596311D01*
X44575737Y35675915D01*
X44561517Y35676714D01*
X39989517Y35676714D01*
X39975297Y35675915D01*
X39268793Y35596311D01*
X39241068Y35589983D01*
X38569991Y35355163D01*
X38544368Y35342824D01*
X37942369Y34964563D01*
X37920134Y34946832D01*
X37417399Y34444097D01*
X37399668Y34421862D01*
X37021407Y33819863D01*
X37009068Y33794240D01*
X36774248Y33123163D01*
X36767920Y33095438D01*
X36688316Y32388934D01*
X36687517Y32374714D01*
X36687517Y-4435008D01*
X36623854Y-4836961D01*
X36443688Y-5190556D01*
X36163073Y-5471171D01*
X35809478Y-5651337D01*
X35417517Y-5713417D01*
X35025556Y-5651337D01*
X34671961Y-5471171D01*
X34391346Y-5190556D01*
X34211180Y-4836961D01*
X34147517Y-4435008D01*
X34147517Y15113000D01*
X34146718Y15127220D01*
X34067114Y15833724D01*
X34060786Y15861449D01*
X33825966Y16532526D01*
X33813627Y16558149D01*
X33435366Y17160148D01*
X33417635Y17182383D01*
X32914900Y17685118D01*
X32892665Y17702849D01*
X32290666Y18081110D01*
X32265043Y18093449D01*
X31593966Y18328269D01*
X31566241Y18334597D01*
X30859737Y18414201D01*
X30845517Y18415000D01*
X26494009Y18415000D01*
X26479885Y18414212D01*
X25778073Y18335675D01*
X25750524Y18329431D01*
X25083433Y18097707D01*
X25057946Y18085528D01*
X24458576Y17712079D01*
X24436411Y17694568D01*
X23934416Y17197871D01*
X23916670Y17175893D01*
X23536883Y16580520D01*
X23524435Y16555163D01*
X23285646Y15890567D01*
X23279110Y15863086D01*
X23193132Y15162147D01*
X23192194Y15148032D01*
X22985724Y-4311860D01*
X22887698Y-4788961D01*
X22624946Y-5184203D01*
X22233245Y-5452200D01*
X21767570Y-5554367D01*
X21402715Y-5504614D01*
X21069952Y-5342028D01*
X20804951Y-5083299D01*
X20634444Y-4754519D01*
X20574000Y-4378716D01*
X20574000Y18161000D01*
X20572376Y18181247D01*
X20503481Y18607862D01*
X20490734Y18646298D01*
X20291055Y19029541D01*
X20266858Y19062011D01*
X19956694Y19362918D01*
X19923506Y19386120D01*
X19534391Y19574100D01*
X19495587Y19585676D01*
X19067081Y19641617D01*
X19046794Y19642628D01*
X13272868Y19467661D01*
X13257501Y19466257D01*
X12496245Y19349746D01*
X12466585Y19341427D01*
X11755774Y19045058D01*
X11728989Y19029843D01*
X11110445Y18571053D01*
X11098633Y18561124D01*
X10441276Y17936635D01*
X10432289Y17927173D01*
X10008409Y17432253D01*
X9993575Y17410821D01*
X9679662Y16839789D01*
X9669516Y16815779D01*
X9478793Y16192687D01*
X9473762Y16167112D01*
X9414263Y15518205D01*
X9413740Y15505166D01*
X9515485Y6551602D01*
X9463096Y6273819D01*
X9314784Y6048406D01*
X9091069Y5897541D01*
X8826410Y5844506D01*
X8560148Y5897469D01*
X8334345Y6048345D01*
X8183469Y6274148D01*
X8128000Y6553009D01*
X8128000Y16129325D01*
X8193324Y16760232D01*
X8384514Y17358086D01*
X8694140Y17904088D01*
X9113416Y18380010D01*
X10586003Y19739322D01*
X11129370Y20140145D01*
X11740613Y20410066D01*
X12402872Y20541643D01*
X18689805Y21085341D01*
X18703150Y21087213D01*
X19363546Y21215879D01*
X19389268Y21223795D01*
X20007723Y21488727D01*
X20031199Y21501886D01*
X20579943Y21891189D01*
X20600119Y21908999D01*
X21054510Y22405191D01*
X21070480Y22426853D01*
X21410112Y23007651D01*
X21421160Y23032192D01*
X21630783Y23671516D01*
X21636411Y23697833D01*
X21706611Y24366973D01*
X21707304Y24380430D01*
X21705660Y25391879D01*
X21787942Y26024151D01*
X22028019Y26605755D01*
X22410577Y27105295D01*
X22909501Y27488669D01*
X23490709Y27729690D01*
X24122848Y27813000D01*
X26630239Y27813000D01*
X26631209Y27813004D01*
X26679762Y27813375D01*
X26680734Y27813386D01*
X29519257Y27856798D01*
X29535524Y27858095D01*
X30341367Y27974843D01*
X30372736Y27983608D01*
X31122384Y28301476D01*
X31150492Y28317931D01*
X31794641Y28816012D01*
X31806883Y28826803D01*
X33199120Y30222927D01*
X33210038Y30235408D01*
X33712951Y30892396D01*
X33729472Y30921073D01*
X34045563Y31685692D01*
X34054113Y31717663D01*
X34161917Y32537988D01*
X34163000Y32554536D01*
X34163000Y104955508D01*
X34229771Y105377083D01*
X34418957Y105748380D01*
X34443577Y105773000D01*
X36546547Y105773000D01*
X36571242Y105748208D01*
X36571242Y105748208D01*
G37*
X36571242Y105748208D02*
X36759062Y105377073D01*
X36824234Y104955988D01*
X36572865Y40867593D01*
X36573599Y40853447D01*
X36649591Y40150400D01*
X36655744Y40122792D01*
X36885460Y39454002D01*
X36897570Y39428440D01*
X37269617Y38827082D01*
X37287085Y38804834D01*
X37783006Y38300739D01*
X37804965Y38282910D01*
X38400161Y37901083D01*
X38425522Y37888556D01*
X39090468Y37647938D01*
X39117972Y37641335D01*
X39819683Y37553862D01*
X39833815Y37552897D01*
X44520492Y37494664D01*
X44534833Y37495297D01*
X45247780Y37567308D01*
X45275790Y37573388D01*
X45954430Y37803443D01*
X45980364Y37815650D01*
X46590131Y38192032D01*
X46612667Y38209743D01*
X47122499Y38713280D01*
X47140489Y38735594D01*
X47524418Y39340637D01*
X47536946Y39366418D01*
X47775415Y40042148D01*
X47781843Y40070080D01*
X47862706Y40782077D01*
X47863517Y40796409D01*
X47863517Y104810493D01*
X47924409Y105195903D01*
X48096580Y105534773D01*
X48333897Y105773000D01*
X49825966Y105773000D01*
X50057480Y105541943D01*
X50229209Y105204785D01*
X50289497Y104820955D01*
X50171029Y40847950D01*
X50171827Y40833503D01*
X50252656Y40115752D01*
X50259133Y40087596D01*
X50500092Y39406687D01*
X50512766Y39380724D01*
X50901388Y38771894D01*
X50919602Y38749467D01*
X51435772Y38244226D01*
X51458584Y38226496D01*
X52075590Y37850992D01*
X52101818Y37838876D01*
X52787728Y37612541D01*
X52816017Y37606667D01*
X53535333Y37541216D01*
X53549794Y37540728D01*
X58115770Y37646913D01*
X58129758Y37648014D01*
X58823992Y37741455D01*
X58851179Y37748233D01*
X59508026Y37991631D01*
X59533066Y38004206D01*
X60120554Y38385715D01*
X60142226Y38403474D01*
X60631758Y38904522D01*
X60649009Y38926602D01*
X61016756Y39522801D01*
X61028746Y39548126D01*
X61256807Y40210455D01*
X61262951Y40237793D01*
X61340225Y40934011D01*
X61341000Y40948021D01*
X61341000Y105270490D01*
X61420638Y105670855D01*
X61488889Y105773000D01*
X63222070Y105773000D01*
X63289893Y105670872D01*
X63367784Y105271041D01*
X62869071Y-5193964D01*
X62807433Y-5497563D01*
X62641691Y-5744105D01*
X62598288Y-5773000D01*
X61609262Y-5773000D01*
X61565944Y-5744056D01*
X61401303Y-5497653D01*
X61341000Y-5194491D01*
X61341000Y32200959D01*
X61340224Y32214978D01*
X61262853Y32911626D01*
X61256701Y32938980D01*
X61028359Y33601676D01*
X61016355Y33627013D01*
X60648171Y34223458D01*
X60630900Y34245545D01*
X60140818Y34746669D01*
X60119122Y34764427D01*
X59531027Y35145807D01*
X59505963Y35158373D01*
X58848519Y35401421D01*
X58821309Y35408180D01*
X58126556Y35501051D01*
X58112558Y35502139D01*
X53544725Y35603921D01*
X53530236Y35603417D01*
X52809559Y35536969D01*
X52781222Y35531042D01*
X52094316Y35303113D01*
X52068058Y35290924D01*
X51450616Y34913359D01*
X51427801Y34895540D01*
X50911904Y34387956D01*
X50893716Y34365433D01*
X50506170Y33754205D01*
X50493556Y33728148D01*
X50254500Y33045035D01*
X50248115Y33016799D01*
X50169968Y32297297D01*
X50169227Y32282818D01*
X50390543Y-4395655D01*
X50329571Y-4799715D01*
X50152125Y-5156640D01*
X49873795Y-5441977D01*
X49521390Y-5628240D01*
X49129049Y-5697458D01*
X48740016Y-5642580D01*
X48387813Y-5468931D01*
X48107544Y-5193888D01*
X47927298Y-4845021D01*
X47863517Y-4447172D01*
X47863517Y32374714D01*
X47862718Y32388934D01*
X47783114Y33095438D01*
X47776786Y33123163D01*
X47541966Y33794240D01*
X47529627Y33819863D01*
X47151366Y34421862D01*
X47133635Y34444097D01*
X46630900Y34946832D01*
X46608665Y34964563D01*
X46006666Y35342824D01*
X45981043Y35355163D01*
X45309966Y35589983D01*
X45282241Y35596311D01*
X44575737Y35675915D01*
X44561517Y35676714D01*
X39989517Y35676714D01*
X39975297Y35675915D01*
X39268793Y35596311D01*
X39241068Y35589983D01*
X38569991Y35355163D01*
X38544368Y35342824D01*
X37942369Y34964563D01*
X37920134Y34946832D01*
X37417399Y34444097D01*
X37399668Y34421862D01*
X37021407Y33819863D01*
X37009068Y33794240D01*
X36774248Y33123163D01*
X36767920Y33095438D01*
X36688316Y32388934D01*
X36687517Y32374714D01*
X36687517Y-4435008D01*
X36623854Y-4836961D01*
X36443688Y-5190556D01*
X36163073Y-5471171D01*
X35809478Y-5651337D01*
X35417517Y-5713417D01*
X35025556Y-5651337D01*
X34671961Y-5471171D01*
X34391346Y-5190556D01*
X34211180Y-4836961D01*
X34147517Y-4435008D01*
X34147517Y15113000D01*
X34146718Y15127220D01*
X34067114Y15833724D01*
X34060786Y15861449D01*
X33825966Y16532526D01*
X33813627Y16558149D01*
X33435366Y17160148D01*
X33417635Y17182383D01*
X32914900Y17685118D01*
X32892665Y17702849D01*
X32290666Y18081110D01*
X32265043Y18093449D01*
X31593966Y18328269D01*
X31566241Y18334597D01*
X30859737Y18414201D01*
X30845517Y18415000D01*
X26494009Y18415000D01*
X26479885Y18414212D01*
X25778073Y18335675D01*
X25750524Y18329431D01*
X25083433Y18097707D01*
X25057946Y18085528D01*
X24458576Y17712079D01*
X24436411Y17694568D01*
X23934416Y17197871D01*
X23916670Y17175893D01*
X23536883Y16580520D01*
X23524435Y16555163D01*
X23285646Y15890567D01*
X23279110Y15863086D01*
X23193132Y15162147D01*
X23192194Y15148032D01*
X22985724Y-4311860D01*
X22887698Y-4788961D01*
X22624946Y-5184203D01*
X22233245Y-5452200D01*
X21767570Y-5554367D01*
X21402715Y-5504614D01*
X21069952Y-5342028D01*
X20804951Y-5083299D01*
X20634444Y-4754519D01*
X20574000Y-4378716D01*
X20574000Y18161000D01*
X20572376Y18181247D01*
X20503481Y18607862D01*
X20490734Y18646298D01*
X20291055Y19029541D01*
X20266858Y19062011D01*
X19956694Y19362918D01*
X19923506Y19386120D01*
X19534391Y19574100D01*
X19495587Y19585676D01*
X19067081Y19641617D01*
X19046794Y19642628D01*
X13272868Y19467661D01*
X13257501Y19466257D01*
X12496245Y19349746D01*
X12466585Y19341427D01*
X11755774Y19045058D01*
X11728989Y19029843D01*
X11110445Y18571053D01*
X11098633Y18561124D01*
X10441276Y17936635D01*
X10432289Y17927173D01*
X10008409Y17432253D01*
X9993575Y17410821D01*
X9679662Y16839789D01*
X9669516Y16815779D01*
X9478793Y16192687D01*
X9473762Y16167112D01*
X9414263Y15518205D01*
X9413740Y15505166D01*
X9515485Y6551602D01*
X9463096Y6273819D01*
X9314784Y6048406D01*
X9091069Y5897541D01*
X8826410Y5844506D01*
X8560148Y5897469D01*
X8334345Y6048345D01*
X8183469Y6274148D01*
X8128000Y6553009D01*
X8128000Y16129325D01*
X8193324Y16760232D01*
X8384514Y17358086D01*
X8694140Y17904088D01*
X9113416Y18380010D01*
X10586003Y19739322D01*
X11129370Y20140145D01*
X11740613Y20410066D01*
X12402872Y20541643D01*
X18689805Y21085341D01*
X18703150Y21087213D01*
X19363546Y21215879D01*
X19389268Y21223795D01*
X20007723Y21488727D01*
X20031199Y21501886D01*
X20579943Y21891189D01*
X20600119Y21908999D01*
X21054510Y22405191D01*
X21070480Y22426853D01*
X21410112Y23007651D01*
X21421160Y23032192D01*
X21630783Y23671516D01*
X21636411Y23697833D01*
X21706611Y24366973D01*
X21707304Y24380430D01*
X21705660Y25391879D01*
X21787942Y26024151D01*
X22028019Y26605755D01*
X22410577Y27105295D01*
X22909501Y27488669D01*
X23490709Y27729690D01*
X24122848Y27813000D01*
X26630239Y27813000D01*
X26631209Y27813004D01*
X26679762Y27813375D01*
X26680734Y27813386D01*
X29519257Y27856798D01*
X29535524Y27858095D01*
X30341367Y27974843D01*
X30372736Y27983608D01*
X31122384Y28301476D01*
X31150492Y28317931D01*
X31794641Y28816012D01*
X31806883Y28826803D01*
X33199120Y30222927D01*
X33210038Y30235408D01*
X33712951Y30892396D01*
X33729472Y30921073D01*
X34045563Y31685692D01*
X34054113Y31717663D01*
X34161917Y32537988D01*
X34163000Y32554536D01*
X34163000Y104955508D01*
X34229771Y105377083D01*
X34418957Y105748380D01*
X34443577Y105773000D01*
X36546547Y105773000D01*
X36571242Y105748208D01*
G04 #@! TO.N,/C2+*
G36*
X43561000Y39243000D02*
X41021000Y39243000D01*
X41021000Y106047854D01*
X43561000Y106105581D01*
X43561000Y39243000D01*
X43561000Y39243000D01*
G37*
X43561000Y39243000D02*
X41021000Y39243000D01*
X41021000Y106047854D01*
X43561000Y106105581D01*
X43561000Y39243000D01*
G36*
X56896454Y39363515D02*
X54736874Y39249853D01*
X54673772Y106265000D01*
X57148912Y106265000D01*
X56896454Y39363515D01*
X56896454Y39363515D01*
G37*
X56896454Y39363515D02*
X54736874Y39249853D01*
X54673772Y106265000D01*
X57148912Y106265000D01*
X56896454Y39363515D01*
G36*
X43371117Y-5207000D02*
X41021205Y-5207000D01*
X41074873Y28066924D01*
X41910012Y28067000D01*
X41958612Y28076672D01*
X41999811Y28104206D01*
X42027337Y28145410D01*
X42037000Y28194000D01*
X42037000Y33655000D01*
X43560380Y33655000D01*
X43371117Y-5207000D01*
X43371117Y-5207000D01*
G37*
X43371117Y-5207000D02*
X41021205Y-5207000D01*
X41074873Y28066924D01*
X41910012Y28067000D01*
X41958612Y28076672D01*
X41999811Y28104206D01*
X42027337Y28145410D01*
X42037000Y28194000D01*
X42037000Y33655000D01*
X43560380Y33655000D01*
X43371117Y-5207000D01*
G36*
X57022955Y-5461000D02*
X54736795Y-5461000D01*
X54673704Y33529274D01*
X57009011Y33552781D01*
X57022955Y-5461000D01*
X57022955Y-5461000D01*
G37*
X57022955Y-5461000D02*
X54736795Y-5461000D01*
X54673704Y33529274D01*
X57009011Y33552781D01*
X57022955Y-5461000D01*
G36*
X29845000Y-5207000D02*
X27559000Y-5207000D01*
X27559000Y16637000D01*
X29845000Y16637000D01*
X29845000Y-5207000D01*
X29845000Y-5207000D01*
G37*
X29845000Y-5207000D02*
X27559000Y-5207000D01*
X27559000Y16637000D01*
X29845000Y16637000D01*
X29845000Y-5207000D01*
G36*
X29845111Y33655000D02*
X28321000Y33655000D01*
X28321000Y106045000D01*
X29908389Y106045000D01*
X29845111Y33655000D01*
X29845111Y33655000D01*
G37*
X29845111Y33655000D02*
X28321000Y33655000D01*
X28321000Y106045000D01*
X29908389Y106045000D01*
X29845111Y33655000D01*
G04 #@! TO.N,/C1-*
G36*
X-34688985Y106182050D02*
X-34409388Y105901405D01*
X-34230467Y105547970D01*
X-34168258Y105146462D01*
X-34416908Y38632868D01*
X-34416908Y38631891D01*
X-34416715Y38583106D01*
X-34416707Y38582131D01*
X-34325641Y30750462D01*
X-34324716Y30736567D01*
X-34240564Y30046427D01*
X-34234196Y30019356D01*
X-34001846Y29364079D01*
X-33989738Y29339043D01*
X-33620330Y28750050D01*
X-33603063Y28728250D01*
X-33114312Y28233784D01*
X-33092714Y28216265D01*
X-32508054Y27840036D01*
X-32483161Y27827638D01*
X-31830630Y27587686D01*
X-31803634Y27581003D01*
X-31114518Y27488835D01*
X-31100635Y27487748D01*
X-26492770Y27380588D01*
X-26478325Y27381075D01*
X-25759831Y27446356D01*
X-25731574Y27452216D01*
X-25046367Y27678017D01*
X-25020163Y27690104D01*
X-24403622Y28064767D01*
X-24380823Y28082458D01*
X-23864782Y28586637D01*
X-23846565Y28609019D01*
X-23457670Y29216683D01*
X-23444976Y29242600D01*
X-23203305Y29922372D01*
X-23196790Y29950485D01*
X-23114822Y30667267D01*
X-23114000Y30681696D01*
X-23114000Y105271571D01*
X-23044555Y105590786D01*
X-22857144Y105841115D01*
X-22582676Y105990961D01*
X-22270762Y106013239D01*
X-21972284Y105901870D01*
X-21446337Y105462003D01*
X-21042374Y104900864D01*
X-20790012Y104257139D01*
X-20704000Y103563010D01*
X-20821975Y40918612D01*
X-20821195Y40904322D01*
X-20742154Y40194286D01*
X-20735817Y40166421D01*
X-20500023Y39492032D01*
X-20487617Y39466289D01*
X-20107009Y38861694D01*
X-20089160Y38839376D01*
X-19583008Y38335185D01*
X-19560621Y38317423D01*
X-18954552Y37939165D01*
X-18928761Y37926859D01*
X-18253462Y37693685D01*
X-18225573Y37687456D01*
X-17515236Y37611172D01*
X-17500943Y37610448D01*
X-12834706Y37637352D01*
X-12820568Y37638224D01*
X-12118308Y37721018D01*
X-12090761Y37727437D01*
X-11424243Y37963610D01*
X-11398800Y37975967D01*
X-10801084Y38353803D01*
X-10779007Y38371485D01*
X-10279743Y38872244D01*
X-10262128Y38894373D01*
X-9886079Y39493214D01*
X-9873798Y39518694D01*
X-9639618Y40185915D01*
X-9633281Y40213481D01*
X-9552586Y40915985D01*
X-9551756Y40930125D01*
X-9374047Y104905188D01*
X-9306564Y105318687D01*
X-9117908Y105681268D01*
X-8825348Y105966682D01*
X-8458212Y106146318D01*
X-8053069Y106202194D01*
X-7643533Y106128932D01*
X-7275666Y105934057D01*
X-6984824Y105636209D01*
X-6798760Y105263809D01*
X-6733702Y104842526D01*
X-6852174Y40986242D01*
X-6851413Y40972121D01*
X-6774226Y40270374D01*
X-6768037Y40242821D01*
X-6537687Y39575478D01*
X-6525562Y39549974D01*
X-6153439Y38950030D01*
X-6135978Y38927836D01*
X-5640481Y38424955D01*
X-5618548Y38407168D01*
X-5024174Y38026212D01*
X-4998852Y38013711D01*
X-4334989Y37773516D01*
X-4307531Y37766921D01*
X-3607002Y37679362D01*
X-3592894Y37678392D01*
X1314295Y37614908D01*
X1328688Y37615539D01*
X2044206Y37687735D01*
X2072315Y37693845D01*
X2753231Y37925214D01*
X2779244Y37937494D01*
X3390624Y38316165D01*
X3413207Y38333984D01*
X3923685Y38840532D01*
X3941678Y38862976D01*
X4325064Y39471410D01*
X4337544Y39497328D01*
X4574170Y40176436D01*
X4580498Y40204497D01*
X4658222Y40919435D01*
X4658964Y40933822D01*
X4324992Y105083150D01*
X4383619Y105464873D01*
X4553116Y105800548D01*
X4818327Y106067142D01*
X5153119Y106238387D01*
X5320582Y106265000D01*
X5728501Y106265000D01*
X5895987Y106238393D01*
X6230894Y106067162D01*
X6496252Y105800569D01*
X6665929Y105464866D01*
X6724763Y105083083D01*
X6572265Y72234829D01*
X6572265Y72234706D01*
X6572243Y72228728D01*
X6572242Y72228612D01*
X6485787Y40903114D01*
X6486550Y40888867D01*
X6564479Y40180925D01*
X6570752Y40153136D01*
X6804524Y39480376D01*
X6816834Y39454684D01*
X7194687Y38850960D01*
X7212415Y38828658D01*
X7715334Y38324349D01*
X7737586Y38306561D01*
X8340265Y37927044D01*
X8365923Y37914663D01*
X9038034Y37679035D01*
X9065806Y37672684D01*
X9773531Y37592801D01*
X9787775Y37592000D01*
X14599093Y37592000D01*
X14613329Y37592800D01*
X15320655Y37672592D01*
X15348412Y37678936D01*
X16020186Y37914300D01*
X16045832Y37926667D01*
X16648289Y38305774D01*
X16670536Y38323544D01*
X17173395Y38827339D01*
X17191124Y38849618D01*
X17569111Y39452778D01*
X17581430Y39478448D01*
X17815545Y40150659D01*
X17821837Y40178427D01*
X17900314Y40885899D01*
X17901088Y40900137D01*
X17781909Y105018276D01*
X17850922Y105372689D01*
X18042086Y105664035D01*
X18329335Y105861299D01*
X18669568Y105935029D01*
X19005596Y105873891D01*
X19291311Y105687363D01*
X19482285Y105404601D01*
X19551122Y105057194D01*
X19315380Y39366176D01*
X19236075Y38682799D01*
X19009409Y38040839D01*
X18645868Y37465218D01*
X18163609Y36984686D01*
X17586686Y36623212D01*
X16943918Y36398852D01*
X16260259Y36322000D01*
X8994159Y36322000D01*
X8980005Y36321209D01*
X8276694Y36242332D01*
X8249088Y36236061D01*
X7580722Y36003350D01*
X7555192Y35991120D01*
X6954979Y35616137D01*
X6932791Y35598555D01*
X6430554Y35099931D01*
X6412813Y35077871D01*
X6033506Y34480381D01*
X6021092Y34454940D01*
X5783561Y33788272D01*
X5777091Y33760712D01*
X5693138Y33057989D01*
X5692244Y33043841D01*
X5465937Y1700291D01*
X5387723Y1415261D01*
X5190195Y1219154D01*
X4921341Y1147462D01*
X4653798Y1219198D01*
X4458100Y1415093D01*
X4382190Y1699352D01*
X4413829Y33052668D01*
X4413055Y33066795D01*
X4335204Y33768786D01*
X4328986Y33796345D01*
X4097869Y34463756D01*
X4085712Y34489258D01*
X3712766Y35089060D01*
X3695273Y35111244D01*
X3198953Y35613757D01*
X3176987Y35631525D01*
X2581855Y36011881D01*
X2556505Y36024353D01*
X1892012Y36263728D01*
X1864533Y36270287D01*
X1163562Y36356837D01*
X1149446Y36357786D01*
X-3645385Y36412410D01*
X-3659716Y36411763D01*
X-4372130Y36339116D01*
X-4400117Y36333015D01*
X-5078130Y36102558D01*
X-5104038Y36090340D01*
X-5713159Y35713798D01*
X-5735670Y35696085D01*
X-6244911Y35192612D01*
X-6262879Y35170304D01*
X-6646335Y34565513D01*
X-6658847Y34539746D01*
X-6897012Y33864402D01*
X-6903432Y33836486D01*
X-6984190Y33124946D01*
X-6985000Y33110624D01*
X-6985000Y2436992D01*
X-7049348Y2030713D01*
X-7231503Y1673215D01*
X-7515215Y1389503D01*
X-7872713Y1207348D01*
X-8269017Y1144580D01*
X-8665827Y1207315D01*
X-9023946Y1389407D01*
X-9308426Y1673095D01*
X-9491520Y2030705D01*
X-9556970Y2437322D01*
X-9643048Y33245310D01*
X-9643896Y33259609D01*
X-9726407Y33969913D01*
X-9732886Y33997773D01*
X-9972263Y34671597D01*
X-9984813Y34697300D01*
X-10368913Y35300464D01*
X-10386896Y35322707D01*
X-10896237Y35824616D01*
X-10918742Y35842270D01*
X-11527486Y36217464D01*
X-11553371Y36229635D01*
X-12230640Y36459082D01*
X-12258592Y36465150D01*
X-12970032Y36537212D01*
X-12984342Y36537850D01*
X-17320976Y36486224D01*
X-17335050Y36485273D01*
X-18033944Y36398849D01*
X-18061344Y36392313D01*
X-18723996Y36153956D01*
X-18749281Y36141541D01*
X-19343092Y35762977D01*
X-19365019Y35745294D01*
X-19860776Y35245146D01*
X-19878265Y35223064D01*
X-20251578Y34625938D01*
X-20263769Y34600544D01*
X-20496274Y33935816D01*
X-20502569Y33908360D01*
X-20582827Y33208731D01*
X-20583653Y33194649D01*
X-20696847Y-3480322D01*
X-20759077Y-3854935D01*
X-20932135Y-4181211D01*
X-21199823Y-4435668D01*
X-21534446Y-4591978D01*
X-21901974Y-4634039D01*
X-22279594Y-4557529D01*
X-22617398Y-4370987D01*
X-22883697Y-4091705D01*
X-23053959Y-3745413D01*
X-23114000Y-3354295D01*
X-23114000Y18034000D01*
X-23114799Y18048220D01*
X-23194403Y18754724D01*
X-23200731Y18782449D01*
X-23435551Y19453526D01*
X-23447890Y19479149D01*
X-23826151Y20081148D01*
X-23843882Y20103383D01*
X-24346617Y20606118D01*
X-24368852Y20623849D01*
X-24970851Y21002110D01*
X-24996474Y21014449D01*
X-25667551Y21249269D01*
X-25695276Y21255597D01*
X-26401780Y21335201D01*
X-26416000Y21336000D01*
X-30861000Y21336000D01*
X-30875220Y21335201D01*
X-31581724Y21255597D01*
X-31609449Y21249269D01*
X-32280526Y21014449D01*
X-32306149Y21002110D01*
X-32908148Y20623849D01*
X-32930383Y20606118D01*
X-33433118Y20103383D01*
X-33450849Y20081148D01*
X-33829110Y19479149D01*
X-33841449Y19453526D01*
X-34076269Y18782449D01*
X-34082597Y18754724D01*
X-34162201Y18048220D01*
X-34163000Y18034000D01*
X-34163000Y-3292008D01*
X-34226663Y-3693961D01*
X-34406829Y-4047556D01*
X-34687444Y-4328171D01*
X-35041039Y-4508337D01*
X-35433000Y-4570417D01*
X-35824961Y-4508337D01*
X-36178556Y-4328171D01*
X-36459171Y-4047556D01*
X-36639337Y-3693961D01*
X-36703000Y-3292008D01*
X-36703000Y21956069D01*
X-36702868Y21984688D01*
X-36605061Y32645748D01*
X-36605727Y32659952D01*
X-36678608Y33366069D01*
X-36684663Y33393811D01*
X-36912608Y34066087D01*
X-36924674Y34091790D01*
X-37296287Y34696618D01*
X-37313763Y34718998D01*
X-37810468Y35226145D01*
X-37832480Y35244082D01*
X-38429448Y35628195D01*
X-38454894Y35640794D01*
X-39122283Y35882673D01*
X-39149893Y35889303D01*
X-39854342Y35976856D01*
X-39868529Y35977817D01*
X-44421505Y36030758D01*
X-44435810Y36030117D01*
X-45146978Y35957913D01*
X-45174919Y35951841D01*
X-45851910Y35722371D01*
X-45877784Y35710203D01*
X-46486283Y35335099D01*
X-46508779Y35317450D01*
X-47017940Y34815726D01*
X-47035918Y34793492D01*
X-47419935Y34190578D01*
X-47432484Y34164885D01*
X-47671889Y33491344D01*
X-47678371Y33463496D01*
X-47761031Y32753467D01*
X-47761882Y32739173D01*
X-47874852Y-3863134D01*
X-47936556Y-4245833D01*
X-48108679Y-4581847D01*
X-48376050Y-4848393D01*
X-48712592Y-5019478D01*
X-49085500Y-5078423D01*
X-49458408Y-5019478D01*
X-49794950Y-4848393D01*
X-50062321Y-4581847D01*
X-50234444Y-4245833D01*
X-50296148Y-3863134D01*
X-50409115Y32738287D01*
X-50409966Y32752583D01*
X-50492654Y33462733D01*
X-50499139Y33490586D01*
X-50738627Y34164231D01*
X-50751179Y34189927D01*
X-51135322Y34792908D01*
X-51153306Y34815144D01*
X-51662626Y35316885D01*
X-51685129Y35334533D01*
X-52293800Y35709595D01*
X-52319681Y35721761D01*
X-52996840Y35951123D01*
X-53024787Y35957190D01*
X-53736098Y36029224D01*
X-53750406Y36029861D01*
X-58078307Y35978339D01*
X-58092409Y35977385D01*
X-58792665Y35890636D01*
X-58820116Y35884075D01*
X-59483919Y35644808D01*
X-59509243Y35632346D01*
X-60103809Y35252378D01*
X-60125755Y35234631D01*
X-60621717Y34732730D01*
X-60639202Y34710573D01*
X-61012065Y34111526D01*
X-61024225Y34086056D01*
X-61255573Y33419452D01*
X-61261806Y33391924D01*
X-61340213Y32690685D01*
X-61341000Y32676573D01*
X-61341000Y-4432491D01*
X-61401303Y-4735653D01*
X-61565944Y-4982056D01*
X-61812347Y-5146697D01*
X-62103000Y-5204512D01*
X-62393653Y-5146697D01*
X-62640056Y-4982056D01*
X-62804697Y-4735653D01*
X-62865000Y-4432491D01*
X-62865000Y105270491D01*
X-62804697Y105573653D01*
X-62640056Y105820056D01*
X-62393653Y105984697D01*
X-62103029Y106042506D01*
X-61812964Y105984669D01*
X-61567283Y105820018D01*
X-61403544Y105573735D01*
X-61344331Y105270937D01*
X-61583218Y40652206D01*
X-61582469Y40637951D01*
X-61505110Y39929522D01*
X-61498855Y39901711D01*
X-61265440Y39228381D01*
X-61253139Y39202666D01*
X-60875426Y38598356D01*
X-60857700Y38576032D01*
X-60354719Y38071189D01*
X-60332461Y38053380D01*
X-59729552Y37673435D01*
X-59703882Y37661040D01*
X-59031419Y37425137D01*
X-59003632Y37418779D01*
X-58295494Y37338802D01*
X-58281241Y37338000D01*
X-53594000Y37338000D01*
X-53579780Y37338799D01*
X-52873276Y37418403D01*
X-52845551Y37424731D01*
X-52174474Y37659551D01*
X-52148851Y37671890D01*
X-51546852Y38050151D01*
X-51524617Y38067882D01*
X-51021882Y38570617D01*
X-51004151Y38592852D01*
X-50625890Y39194851D01*
X-50613551Y39220474D01*
X-50378731Y39891551D01*
X-50372403Y39919276D01*
X-50292799Y40625780D01*
X-50292000Y40640000D01*
X-50292000Y104891461D01*
X-50228050Y105289147D01*
X-50047379Y105637616D01*
X-49766569Y105911876D01*
X-49413934Y106084276D01*
X-49024713Y106137477D01*
X-48629686Y106066355D01*
X-48274730Y105878301D01*
X-47993790Y105591184D01*
X-47813496Y105232222D01*
X-47749382Y104825600D01*
X-47630874Y40887880D01*
X-47630051Y40873678D01*
X-47549326Y40168142D01*
X-47542961Y40140459D01*
X-47307441Y39470513D01*
X-47295082Y39444937D01*
X-46916549Y38844096D01*
X-46898815Y38821906D01*
X-46396206Y38320227D01*
X-46373984Y38302534D01*
X-45772442Y37925116D01*
X-45746843Y37912805D01*
X-45076462Y37678527D01*
X-45048767Y37672214D01*
X-44343082Y37592797D01*
X-44328879Y37592000D01*
X-40005000Y37592000D01*
X-39990780Y37592799D01*
X-39284276Y37672403D01*
X-39256551Y37678731D01*
X-38585474Y37913551D01*
X-38559851Y37925890D01*
X-37957852Y38304151D01*
X-37935617Y38321882D01*
X-37432882Y38824617D01*
X-37415151Y38846852D01*
X-37036890Y39448851D01*
X-37024551Y39474474D01*
X-36789731Y40145551D01*
X-36783403Y40173276D01*
X-36703799Y40879780D01*
X-36703000Y40894000D01*
X-36703000Y105146008D01*
X-36639337Y105547961D01*
X-36459171Y105901556D01*
X-36178556Y106182171D01*
X-36015995Y106265000D01*
X-34851334Y106265000D01*
X-34688985Y106182050D01*
X-34688985Y106182050D01*
G37*
X-34688985Y106182050D02*
X-34409388Y105901405D01*
X-34230467Y105547970D01*
X-34168258Y105146462D01*
X-34416908Y38632868D01*
X-34416908Y38631891D01*
X-34416715Y38583106D01*
X-34416707Y38582131D01*
X-34325641Y30750462D01*
X-34324716Y30736567D01*
X-34240564Y30046427D01*
X-34234196Y30019356D01*
X-34001846Y29364079D01*
X-33989738Y29339043D01*
X-33620330Y28750050D01*
X-33603063Y28728250D01*
X-33114312Y28233784D01*
X-33092714Y28216265D01*
X-32508054Y27840036D01*
X-32483161Y27827638D01*
X-31830630Y27587686D01*
X-31803634Y27581003D01*
X-31114518Y27488835D01*
X-31100635Y27487748D01*
X-26492770Y27380588D01*
X-26478325Y27381075D01*
X-25759831Y27446356D01*
X-25731574Y27452216D01*
X-25046367Y27678017D01*
X-25020163Y27690104D01*
X-24403622Y28064767D01*
X-24380823Y28082458D01*
X-23864782Y28586637D01*
X-23846565Y28609019D01*
X-23457670Y29216683D01*
X-23444976Y29242600D01*
X-23203305Y29922372D01*
X-23196790Y29950485D01*
X-23114822Y30667267D01*
X-23114000Y30681696D01*
X-23114000Y105271571D01*
X-23044555Y105590786D01*
X-22857144Y105841115D01*
X-22582676Y105990961D01*
X-22270762Y106013239D01*
X-21972284Y105901870D01*
X-21446337Y105462003D01*
X-21042374Y104900864D01*
X-20790012Y104257139D01*
X-20704000Y103563010D01*
X-20821975Y40918612D01*
X-20821195Y40904322D01*
X-20742154Y40194286D01*
X-20735817Y40166421D01*
X-20500023Y39492032D01*
X-20487617Y39466289D01*
X-20107009Y38861694D01*
X-20089160Y38839376D01*
X-19583008Y38335185D01*
X-19560621Y38317423D01*
X-18954552Y37939165D01*
X-18928761Y37926859D01*
X-18253462Y37693685D01*
X-18225573Y37687456D01*
X-17515236Y37611172D01*
X-17500943Y37610448D01*
X-12834706Y37637352D01*
X-12820568Y37638224D01*
X-12118308Y37721018D01*
X-12090761Y37727437D01*
X-11424243Y37963610D01*
X-11398800Y37975967D01*
X-10801084Y38353803D01*
X-10779007Y38371485D01*
X-10279743Y38872244D01*
X-10262128Y38894373D01*
X-9886079Y39493214D01*
X-9873798Y39518694D01*
X-9639618Y40185915D01*
X-9633281Y40213481D01*
X-9552586Y40915985D01*
X-9551756Y40930125D01*
X-9374047Y104905188D01*
X-9306564Y105318687D01*
X-9117908Y105681268D01*
X-8825348Y105966682D01*
X-8458212Y106146318D01*
X-8053069Y106202194D01*
X-7643533Y106128932D01*
X-7275666Y105934057D01*
X-6984824Y105636209D01*
X-6798760Y105263809D01*
X-6733702Y104842526D01*
X-6852174Y40986242D01*
X-6851413Y40972121D01*
X-6774226Y40270374D01*
X-6768037Y40242821D01*
X-6537687Y39575478D01*
X-6525562Y39549974D01*
X-6153439Y38950030D01*
X-6135978Y38927836D01*
X-5640481Y38424955D01*
X-5618548Y38407168D01*
X-5024174Y38026212D01*
X-4998852Y38013711D01*
X-4334989Y37773516D01*
X-4307531Y37766921D01*
X-3607002Y37679362D01*
X-3592894Y37678392D01*
X1314295Y37614908D01*
X1328688Y37615539D01*
X2044206Y37687735D01*
X2072315Y37693845D01*
X2753231Y37925214D01*
X2779244Y37937494D01*
X3390624Y38316165D01*
X3413207Y38333984D01*
X3923685Y38840532D01*
X3941678Y38862976D01*
X4325064Y39471410D01*
X4337544Y39497328D01*
X4574170Y40176436D01*
X4580498Y40204497D01*
X4658222Y40919435D01*
X4658964Y40933822D01*
X4324992Y105083150D01*
X4383619Y105464873D01*
X4553116Y105800548D01*
X4818327Y106067142D01*
X5153119Y106238387D01*
X5320582Y106265000D01*
X5728501Y106265000D01*
X5895987Y106238393D01*
X6230894Y106067162D01*
X6496252Y105800569D01*
X6665929Y105464866D01*
X6724763Y105083083D01*
X6572265Y72234829D01*
X6572265Y72234706D01*
X6572243Y72228728D01*
X6572242Y72228612D01*
X6485787Y40903114D01*
X6486550Y40888867D01*
X6564479Y40180925D01*
X6570752Y40153136D01*
X6804524Y39480376D01*
X6816834Y39454684D01*
X7194687Y38850960D01*
X7212415Y38828658D01*
X7715334Y38324349D01*
X7737586Y38306561D01*
X8340265Y37927044D01*
X8365923Y37914663D01*
X9038034Y37679035D01*
X9065806Y37672684D01*
X9773531Y37592801D01*
X9787775Y37592000D01*
X14599093Y37592000D01*
X14613329Y37592800D01*
X15320655Y37672592D01*
X15348412Y37678936D01*
X16020186Y37914300D01*
X16045832Y37926667D01*
X16648289Y38305774D01*
X16670536Y38323544D01*
X17173395Y38827339D01*
X17191124Y38849618D01*
X17569111Y39452778D01*
X17581430Y39478448D01*
X17815545Y40150659D01*
X17821837Y40178427D01*
X17900314Y40885899D01*
X17901088Y40900137D01*
X17781909Y105018276D01*
X17850922Y105372689D01*
X18042086Y105664035D01*
X18329335Y105861299D01*
X18669568Y105935029D01*
X19005596Y105873891D01*
X19291311Y105687363D01*
X19482285Y105404601D01*
X19551122Y105057194D01*
X19315380Y39366176D01*
X19236075Y38682799D01*
X19009409Y38040839D01*
X18645868Y37465218D01*
X18163609Y36984686D01*
X17586686Y36623212D01*
X16943918Y36398852D01*
X16260259Y36322000D01*
X8994159Y36322000D01*
X8980005Y36321209D01*
X8276694Y36242332D01*
X8249088Y36236061D01*
X7580722Y36003350D01*
X7555192Y35991120D01*
X6954979Y35616137D01*
X6932791Y35598555D01*
X6430554Y35099931D01*
X6412813Y35077871D01*
X6033506Y34480381D01*
X6021092Y34454940D01*
X5783561Y33788272D01*
X5777091Y33760712D01*
X5693138Y33057989D01*
X5692244Y33043841D01*
X5465937Y1700291D01*
X5387723Y1415261D01*
X5190195Y1219154D01*
X4921341Y1147462D01*
X4653798Y1219198D01*
X4458100Y1415093D01*
X4382190Y1699352D01*
X4413829Y33052668D01*
X4413055Y33066795D01*
X4335204Y33768786D01*
X4328986Y33796345D01*
X4097869Y34463756D01*
X4085712Y34489258D01*
X3712766Y35089060D01*
X3695273Y35111244D01*
X3198953Y35613757D01*
X3176987Y35631525D01*
X2581855Y36011881D01*
X2556505Y36024353D01*
X1892012Y36263728D01*
X1864533Y36270287D01*
X1163562Y36356837D01*
X1149446Y36357786D01*
X-3645385Y36412410D01*
X-3659716Y36411763D01*
X-4372130Y36339116D01*
X-4400117Y36333015D01*
X-5078130Y36102558D01*
X-5104038Y36090340D01*
X-5713159Y35713798D01*
X-5735670Y35696085D01*
X-6244911Y35192612D01*
X-6262879Y35170304D01*
X-6646335Y34565513D01*
X-6658847Y34539746D01*
X-6897012Y33864402D01*
X-6903432Y33836486D01*
X-6984190Y33124946D01*
X-6985000Y33110624D01*
X-6985000Y2436992D01*
X-7049348Y2030713D01*
X-7231503Y1673215D01*
X-7515215Y1389503D01*
X-7872713Y1207348D01*
X-8269017Y1144580D01*
X-8665827Y1207315D01*
X-9023946Y1389407D01*
X-9308426Y1673095D01*
X-9491520Y2030705D01*
X-9556970Y2437322D01*
X-9643048Y33245310D01*
X-9643896Y33259609D01*
X-9726407Y33969913D01*
X-9732886Y33997773D01*
X-9972263Y34671597D01*
X-9984813Y34697300D01*
X-10368913Y35300464D01*
X-10386896Y35322707D01*
X-10896237Y35824616D01*
X-10918742Y35842270D01*
X-11527486Y36217464D01*
X-11553371Y36229635D01*
X-12230640Y36459082D01*
X-12258592Y36465150D01*
X-12970032Y36537212D01*
X-12984342Y36537850D01*
X-17320976Y36486224D01*
X-17335050Y36485273D01*
X-18033944Y36398849D01*
X-18061344Y36392313D01*
X-18723996Y36153956D01*
X-18749281Y36141541D01*
X-19343092Y35762977D01*
X-19365019Y35745294D01*
X-19860776Y35245146D01*
X-19878265Y35223064D01*
X-20251578Y34625938D01*
X-20263769Y34600544D01*
X-20496274Y33935816D01*
X-20502569Y33908360D01*
X-20582827Y33208731D01*
X-20583653Y33194649D01*
X-20696847Y-3480322D01*
X-20759077Y-3854935D01*
X-20932135Y-4181211D01*
X-21199823Y-4435668D01*
X-21534446Y-4591978D01*
X-21901974Y-4634039D01*
X-22279594Y-4557529D01*
X-22617398Y-4370987D01*
X-22883697Y-4091705D01*
X-23053959Y-3745413D01*
X-23114000Y-3354295D01*
X-23114000Y18034000D01*
X-23114799Y18048220D01*
X-23194403Y18754724D01*
X-23200731Y18782449D01*
X-23435551Y19453526D01*
X-23447890Y19479149D01*
X-23826151Y20081148D01*
X-23843882Y20103383D01*
X-24346617Y20606118D01*
X-24368852Y20623849D01*
X-24970851Y21002110D01*
X-24996474Y21014449D01*
X-25667551Y21249269D01*
X-25695276Y21255597D01*
X-26401780Y21335201D01*
X-26416000Y21336000D01*
X-30861000Y21336000D01*
X-30875220Y21335201D01*
X-31581724Y21255597D01*
X-31609449Y21249269D01*
X-32280526Y21014449D01*
X-32306149Y21002110D01*
X-32908148Y20623849D01*
X-32930383Y20606118D01*
X-33433118Y20103383D01*
X-33450849Y20081148D01*
X-33829110Y19479149D01*
X-33841449Y19453526D01*
X-34076269Y18782449D01*
X-34082597Y18754724D01*
X-34162201Y18048220D01*
X-34163000Y18034000D01*
X-34163000Y-3292008D01*
X-34226663Y-3693961D01*
X-34406829Y-4047556D01*
X-34687444Y-4328171D01*
X-35041039Y-4508337D01*
X-35433000Y-4570417D01*
X-35824961Y-4508337D01*
X-36178556Y-4328171D01*
X-36459171Y-4047556D01*
X-36639337Y-3693961D01*
X-36703000Y-3292008D01*
X-36703000Y21956069D01*
X-36702868Y21984688D01*
X-36605061Y32645748D01*
X-36605727Y32659952D01*
X-36678608Y33366069D01*
X-36684663Y33393811D01*
X-36912608Y34066087D01*
X-36924674Y34091790D01*
X-37296287Y34696618D01*
X-37313763Y34718998D01*
X-37810468Y35226145D01*
X-37832480Y35244082D01*
X-38429448Y35628195D01*
X-38454894Y35640794D01*
X-39122283Y35882673D01*
X-39149893Y35889303D01*
X-39854342Y35976856D01*
X-39868529Y35977817D01*
X-44421505Y36030758D01*
X-44435810Y36030117D01*
X-45146978Y35957913D01*
X-45174919Y35951841D01*
X-45851910Y35722371D01*
X-45877784Y35710203D01*
X-46486283Y35335099D01*
X-46508779Y35317450D01*
X-47017940Y34815726D01*
X-47035918Y34793492D01*
X-47419935Y34190578D01*
X-47432484Y34164885D01*
X-47671889Y33491344D01*
X-47678371Y33463496D01*
X-47761031Y32753467D01*
X-47761882Y32739173D01*
X-47874852Y-3863134D01*
X-47936556Y-4245833D01*
X-48108679Y-4581847D01*
X-48376050Y-4848393D01*
X-48712592Y-5019478D01*
X-49085500Y-5078423D01*
X-49458408Y-5019478D01*
X-49794950Y-4848393D01*
X-50062321Y-4581847D01*
X-50234444Y-4245833D01*
X-50296148Y-3863134D01*
X-50409115Y32738287D01*
X-50409966Y32752583D01*
X-50492654Y33462733D01*
X-50499139Y33490586D01*
X-50738627Y34164231D01*
X-50751179Y34189927D01*
X-51135322Y34792908D01*
X-51153306Y34815144D01*
X-51662626Y35316885D01*
X-51685129Y35334533D01*
X-52293800Y35709595D01*
X-52319681Y35721761D01*
X-52996840Y35951123D01*
X-53024787Y35957190D01*
X-53736098Y36029224D01*
X-53750406Y36029861D01*
X-58078307Y35978339D01*
X-58092409Y35977385D01*
X-58792665Y35890636D01*
X-58820116Y35884075D01*
X-59483919Y35644808D01*
X-59509243Y35632346D01*
X-60103809Y35252378D01*
X-60125755Y35234631D01*
X-60621717Y34732730D01*
X-60639202Y34710573D01*
X-61012065Y34111526D01*
X-61024225Y34086056D01*
X-61255573Y33419452D01*
X-61261806Y33391924D01*
X-61340213Y32690685D01*
X-61341000Y32676573D01*
X-61341000Y-4432491D01*
X-61401303Y-4735653D01*
X-61565944Y-4982056D01*
X-61812347Y-5146697D01*
X-62103000Y-5204512D01*
X-62393653Y-5146697D01*
X-62640056Y-4982056D01*
X-62804697Y-4735653D01*
X-62865000Y-4432491D01*
X-62865000Y105270491D01*
X-62804697Y105573653D01*
X-62640056Y105820056D01*
X-62393653Y105984697D01*
X-62103029Y106042506D01*
X-61812964Y105984669D01*
X-61567283Y105820018D01*
X-61403544Y105573735D01*
X-61344331Y105270937D01*
X-61583218Y40652206D01*
X-61582469Y40637951D01*
X-61505110Y39929522D01*
X-61498855Y39901711D01*
X-61265440Y39228381D01*
X-61253139Y39202666D01*
X-60875426Y38598356D01*
X-60857700Y38576032D01*
X-60354719Y38071189D01*
X-60332461Y38053380D01*
X-59729552Y37673435D01*
X-59703882Y37661040D01*
X-59031419Y37425137D01*
X-59003632Y37418779D01*
X-58295494Y37338802D01*
X-58281241Y37338000D01*
X-53594000Y37338000D01*
X-53579780Y37338799D01*
X-52873276Y37418403D01*
X-52845551Y37424731D01*
X-52174474Y37659551D01*
X-52148851Y37671890D01*
X-51546852Y38050151D01*
X-51524617Y38067882D01*
X-51021882Y38570617D01*
X-51004151Y38592852D01*
X-50625890Y39194851D01*
X-50613551Y39220474D01*
X-50378731Y39891551D01*
X-50372403Y39919276D01*
X-50292799Y40625780D01*
X-50292000Y40640000D01*
X-50292000Y104891461D01*
X-50228050Y105289147D01*
X-50047379Y105637616D01*
X-49766569Y105911876D01*
X-49413934Y106084276D01*
X-49024713Y106137477D01*
X-48629686Y106066355D01*
X-48274730Y105878301D01*
X-47993790Y105591184D01*
X-47813496Y105232222D01*
X-47749382Y104825600D01*
X-47630874Y40887880D01*
X-47630051Y40873678D01*
X-47549326Y40168142D01*
X-47542961Y40140459D01*
X-47307441Y39470513D01*
X-47295082Y39444937D01*
X-46916549Y38844096D01*
X-46898815Y38821906D01*
X-46396206Y38320227D01*
X-46373984Y38302534D01*
X-45772442Y37925116D01*
X-45746843Y37912805D01*
X-45076462Y37678527D01*
X-45048767Y37672214D01*
X-44343082Y37592797D01*
X-44328879Y37592000D01*
X-40005000Y37592000D01*
X-39990780Y37592799D01*
X-39284276Y37672403D01*
X-39256551Y37678731D01*
X-38585474Y37913551D01*
X-38559851Y37925890D01*
X-37957852Y38304151D01*
X-37935617Y38321882D01*
X-37432882Y38824617D01*
X-37415151Y38846852D01*
X-37036890Y39448851D01*
X-37024551Y39474474D01*
X-36789731Y40145551D01*
X-36783403Y40173276D01*
X-36703799Y40879780D01*
X-36703000Y40894000D01*
X-36703000Y105146008D01*
X-36639337Y105547961D01*
X-36459171Y105901556D01*
X-36178556Y106182171D01*
X-36015995Y106265000D01*
X-34851334Y106265000D01*
X-34688985Y106182050D01*
G04 #@! TO.N,/C1+*
G36*
X-54609570Y-4502616D02*
X-57150000Y-4387142D01*
X-57150000Y34417000D01*
X-54483412Y34417000D01*
X-54609570Y-4502616D01*
X-54609570Y-4502616D01*
G37*
X-54609570Y-4502616D02*
X-57150000Y-4387142D01*
X-57150000Y34417000D01*
X-54483412Y34417000D01*
X-54609570Y-4502616D01*
G36*
X-42164000Y29210000D02*
X-42154333Y29161399D01*
X-42126803Y29120197D01*
X-42085601Y29092667D01*
X-42036996Y29083000D01*
X-41034429Y29083029D01*
X-41117188Y-4572000D01*
X-43560687Y-4572000D01*
X-43464812Y34417000D01*
X-42164000Y34417000D01*
X-42164000Y29210000D01*
X-42164000Y29210000D01*
G37*
X-42164000Y29210000D02*
X-42154333Y29161399D01*
X-42126803Y29120197D01*
X-42085601Y29092667D01*
X-42036996Y29083000D01*
X-41034429Y29083029D01*
X-41117188Y-4572000D01*
X-43560687Y-4572000D01*
X-43464812Y34417000D01*
X-42164000Y34417000D01*
X-42164000Y29210000D01*
G36*
X-99000Y1290500D02*
X-3401636Y1290500D01*
X-3464260Y34544000D01*
X-99000Y34544000D01*
X-99000Y1290500D01*
X-99000Y1290500D01*
G37*
X-99000Y1290500D02*
X-3401636Y1290500D01*
X-3464260Y34544000D01*
X-99000Y34544000D01*
X-99000Y1290500D01*
G36*
X-13716000Y1076058D02*
X-14699676Y1049024D01*
X-14747993Y1038025D01*
X-14788423Y1009374D01*
X-14814811Y967431D01*
X-14823187Y922072D01*
X-14823187Y-4411928D01*
X-16155202Y-4411928D01*
X-16093196Y920595D01*
X-16093187Y922311D01*
X-16156450Y34515001D01*
X-13716000Y34542558D01*
X-13716000Y1076058D01*
X-13716000Y1076058D01*
G37*
X-13716000Y1076058D02*
X-14699676Y1049024D01*
X-14747993Y1038025D01*
X-14788423Y1009374D01*
X-14814811Y967431D01*
X-14823187Y922072D01*
X-14823187Y-4411928D01*
X-16155202Y-4411928D01*
X-16093196Y920595D01*
X-16093187Y922311D01*
X-16156450Y34515001D01*
X-13716000Y34542558D01*
X-13716000Y1076058D01*
G36*
X-27305717Y-4257457D02*
X-29763119Y-4315017D01*
X-29951423Y17465398D01*
X-27431253Y17523077D01*
X-27305717Y-4257457D01*
X-27305717Y-4257457D01*
G37*
X-27305717Y-4257457D02*
X-29763119Y-4315017D01*
X-29951423Y17465398D01*
X-27431253Y17523077D01*
X-27305717Y-4257457D01*
G36*
X-54483000Y39121904D02*
X-57023229Y39237369D01*
X-57149005Y105773000D01*
X-54483000Y105773000D01*
X-54483000Y39121904D01*
X-54483000Y39121904D01*
G37*
X-54483000Y39121904D02*
X-57023229Y39237369D01*
X-57149005Y105773000D01*
X-54483000Y105773000D01*
X-54483000Y39121904D01*
G36*
X-40894000Y39248904D02*
X-43434229Y39364369D01*
X-43559765Y105773000D01*
X-40894000Y105773000D01*
X-40894000Y39248904D01*
X-40894000Y39248904D01*
G37*
X-40894000Y39248904D02*
X-43434229Y39364369D01*
X-43559765Y105773000D01*
X-40894000Y105773000D01*
X-40894000Y39248904D01*
G36*
X-27305000Y39248904D02*
X-29845229Y39364369D01*
X-29970765Y105773000D01*
X-27305000Y105773000D01*
X-27305000Y39248904D01*
X-27305000Y39248904D01*
G37*
X-27305000Y39248904D02*
X-29845229Y39364369D01*
X-29970765Y105773000D01*
X-27305000Y105773000D01*
X-27305000Y39248904D01*
G36*
X-13843000Y39121904D02*
X-16383229Y39237369D01*
X-16509005Y105773000D01*
X-13843000Y105773000D01*
X-13843000Y39121904D01*
X-13843000Y39121904D01*
G37*
X-13843000Y39121904D02*
X-16383229Y39237369D01*
X-16509005Y105773000D01*
X-13843000Y105773000D01*
X-13843000Y39121904D01*
G36*
X0Y39121904D02*
X-2540229Y39237369D01*
X-2666005Y105773000D01*
X0Y105773000D01*
X0Y39121904D01*
X0Y39121904D01*
G37*
X0Y39121904D02*
X-2540229Y39237369D01*
X-2666005Y105773000D01*
X0Y105773000D01*
X0Y39121904D01*
G36*
X13589408Y67056000D02*
X12573000Y67056000D01*
X12524399Y67046333D01*
X12483197Y67018803D01*
X12455667Y66977601D01*
X12446001Y66929581D01*
X12319606Y39312376D01*
X11175771Y39364369D01*
X11050235Y105773000D01*
X13713900Y105773000D01*
X13589408Y67056000D01*
X13589408Y67056000D01*
G37*
X13589408Y67056000D02*
X12573000Y67056000D01*
X12524399Y67046333D01*
X12483197Y67018803D01*
X12455667Y66977601D01*
X12446001Y66929581D01*
X12319606Y39312376D01*
X11175771Y39364369D01*
X11050235Y105773000D01*
X13713900Y105773000D01*
X13589408Y67056000D01*
D15*
G36*
X13988512Y5884844D02*
X14091947Y5842000D01*
X13843000Y5842000D01*
X13843000Y6030356D01*
X13988512Y5884844D01*
X13988512Y5884844D01*
G37*
X13988512Y5884844D02*
X14091947Y5842000D01*
X13843000Y5842000D01*
X13843000Y6030356D01*
X13988512Y5884844D01*
G36*
X13923356Y7650000D02*
X13843000Y7569644D01*
X13843000Y7730356D01*
X13923356Y7650000D01*
X13923356Y7650000D01*
G37*
X13923356Y7650000D02*
X13843000Y7569644D01*
X13843000Y7730356D01*
X13923356Y7650000D01*
G36*
X13973356Y9400000D02*
X13843000Y9269644D01*
X13843000Y9530356D01*
X13973356Y9400000D01*
X13973356Y9400000D01*
G37*
X13973356Y9400000D02*
X13843000Y9269644D01*
X13843000Y9530356D01*
X13973356Y9400000D01*
G36*
X13988512Y11484844D02*
X14278351Y11364789D01*
X14281843Y11347235D01*
X14287379Y11338950D01*
X13988512Y11215156D01*
X13843000Y11069644D01*
X13843000Y11630356D01*
X13988512Y11484844D01*
X13988512Y11484844D01*
G37*
X13988512Y11484844D02*
X14278351Y11364789D01*
X14281843Y11347235D01*
X14287379Y11338950D01*
X13988512Y11215156D01*
X13843000Y11069644D01*
X13843000Y11630356D01*
X13988512Y11484844D01*
G36*
X13923356Y13250000D02*
X13843000Y13169644D01*
X13843000Y13330356D01*
X13923356Y13250000D01*
X13923356Y13250000D01*
G37*
X13923356Y13250000D02*
X13843000Y13169644D01*
X13843000Y13330356D01*
X13923356Y13250000D01*
G36*
X13973356Y15000000D02*
X13843000Y14869644D01*
X13843000Y15130356D01*
X13973356Y15000000D01*
X13973356Y15000000D01*
G37*
X13973356Y15000000D02*
X13843000Y14869644D01*
X13843000Y15130356D01*
X13973356Y15000000D01*
G04 #@! TD*
M02*
