G04 #@! TF.GenerationSoftware,KiCad,Pcbnew,(5.0.0)*
G04 #@! TF.CreationDate,2019-05-02T23:43:43-07:00*
G04 #@! TF.ProjectId,SSB Cap Board - Rev2,5353422043617020426F617264202D20,rev?*
G04 #@! TF.SameCoordinates,Original*
G04 #@! TF.FileFunction,Soldermask,Bot*
G04 #@! TF.FilePolarity,Negative*
%FSLAX46Y46*%
G04 Gerber Fmt 4.6, Leading zero omitted, Abs format (unit mm)*
G04 Created by KiCad (PCBNEW (5.0.0)) date 05/02/19 23:43:43*
%MOMM*%
%LPD*%
G01*
G04 APERTURE LIST*
%ADD10R,1.650000X5.400000*%
%ADD11C,6.800000*%
%ADD12C,1.200000*%
G04 APERTURE END LIST*
D10*
G04 #@! TO.C,C505*
X42805000Y19695000D03*
X48505000Y19695000D03*
G04 #@! TD*
G04 #@! TO.C,C503*
X28095000Y14105000D03*
X22395000Y14105000D03*
G04 #@! TD*
G04 #@! TO.C,C502*
X62105000Y103395000D03*
X56405000Y103395000D03*
G04 #@! TD*
G04 #@! TO.C,C501*
X29205000Y103395000D03*
X34905000Y103395000D03*
G04 #@! TD*
G04 #@! TO.C,C500*
X62105000Y25295000D03*
X56405000Y25295000D03*
G04 #@! TD*
G04 #@! TO.C,C498*
X55295000Y-2695000D03*
X49595000Y-2695000D03*
G04 #@! TD*
G04 #@! TO.C,C452*
X48505000Y14095000D03*
X42805000Y14095000D03*
G04 #@! TD*
G04 #@! TO.C,C449*
X41695000Y53005000D03*
X35995000Y53005000D03*
G04 #@! TD*
G04 #@! TO.C,C496*
X21205000Y14095000D03*
X15505000Y14095000D03*
G04 #@! TD*
G04 #@! TO.C,C495*
X29205000Y2895000D03*
X34905000Y2895000D03*
G04 #@! TD*
G04 #@! TO.C,C494*
X48505000Y30895000D03*
X42805000Y30895000D03*
G04 #@! TD*
G04 #@! TO.C,C493*
X29205000Y97795000D03*
X34905000Y97795000D03*
G04 #@! TD*
G04 #@! TO.C,C492*
X62105000Y19695000D03*
X56405000Y19695000D03*
G04 #@! TD*
G04 #@! TO.C,C491*
X55295000Y2905000D03*
X49595000Y2905000D03*
G04 #@! TD*
G04 #@! TO.C,C490*
X48505000Y8495000D03*
X42805000Y8495000D03*
G04 #@! TD*
G04 #@! TO.C,C499*
X41695000Y58605000D03*
X35995000Y58605000D03*
G04 #@! TD*
G04 #@! TO.C,C497*
X22395000Y-2695000D03*
X28095000Y-2695000D03*
G04 #@! TD*
G04 #@! TO.C,C524*
X41695000Y47405000D03*
X35995000Y47405000D03*
G04 #@! TD*
G04 #@! TO.C,C523*
X34905000Y-2705000D03*
X29205000Y-2705000D03*
G04 #@! TD*
G04 #@! TO.C,C522*
X55295000Y81005000D03*
X49595000Y81005000D03*
G04 #@! TD*
G04 #@! TO.C,C521*
X34905000Y92195000D03*
X29205000Y92195000D03*
G04 #@! TD*
G04 #@! TO.C,C520*
X56405000Y14095000D03*
X62105000Y14095000D03*
G04 #@! TD*
G04 #@! TO.C,C519*
X49595000Y8505000D03*
X55295000Y8505000D03*
G04 #@! TD*
G04 #@! TO.C,C518*
X42805000Y2895000D03*
X48505000Y2895000D03*
G04 #@! TD*
G04 #@! TO.C,C480*
X35995000Y64205000D03*
X41695000Y64205000D03*
G04 #@! TD*
G04 #@! TO.C,C506*
X28095000Y2905000D03*
X22395000Y2905000D03*
G04 #@! TD*
G04 #@! TO.C,C515*
X48505000Y103395000D03*
X42805000Y103395000D03*
G04 #@! TD*
G04 #@! TO.C,C514*
X41695000Y-2695000D03*
X35995000Y-2695000D03*
G04 #@! TD*
G04 #@! TO.C,C513*
X62105000Y41795000D03*
X56405000Y41795000D03*
G04 #@! TD*
G04 #@! TO.C,C512*
X55295000Y86605000D03*
X49595000Y86605000D03*
G04 #@! TD*
G04 #@! TO.C,C511*
X34905000Y86595000D03*
X29205000Y86595000D03*
G04 #@! TD*
G04 #@! TO.C,C510*
X56405000Y8495000D03*
X62105000Y8495000D03*
G04 #@! TD*
G04 #@! TO.C,C509*
X49595000Y14105000D03*
X55295000Y14105000D03*
G04 #@! TD*
G04 #@! TO.C,C507*
X42805000Y-2705000D03*
X48505000Y-2705000D03*
G04 #@! TD*
G04 #@! TO.C,C516*
X35995000Y69805000D03*
X41695000Y69805000D03*
G04 #@! TD*
G04 #@! TO.C,C469*
X28095000Y8505000D03*
X22395000Y8505000D03*
G04 #@! TD*
G04 #@! TO.C,C468*
X48505000Y97795000D03*
X42805000Y97795000D03*
G04 #@! TD*
G04 #@! TO.C,C467*
X41695000Y2905000D03*
X35995000Y2905000D03*
G04 #@! TD*
G04 #@! TO.C,C466*
X49595000Y41805000D03*
X55295000Y41805000D03*
G04 #@! TD*
G04 #@! TO.C,C465*
X55295000Y92205000D03*
X49595000Y92205000D03*
G04 #@! TD*
G04 #@! TO.C,C464*
X48505000Y41795000D03*
X42805000Y41795000D03*
G04 #@! TD*
G04 #@! TO.C,C463*
X29205000Y80995000D03*
X34905000Y80995000D03*
G04 #@! TD*
G04 #@! TO.C,C461*
X62105000Y2895000D03*
X56405000Y2895000D03*
G04 #@! TD*
G04 #@! TO.C,C488*
X55295000Y19705000D03*
X49595000Y19705000D03*
G04 #@! TD*
G04 #@! TO.C,C460*
X35995000Y75405000D03*
X41695000Y75405000D03*
G04 #@! TD*
G04 #@! TO.C,C459*
X29205000Y8495000D03*
X34905000Y8495000D03*
G04 #@! TD*
G04 #@! TO.C,C458*
X48505000Y92195000D03*
X42805000Y92195000D03*
G04 #@! TD*
G04 #@! TO.C,C457*
X41695000Y8505000D03*
X35995000Y8505000D03*
G04 #@! TD*
G04 #@! TO.C,C455*
X55295000Y97805000D03*
X49595000Y97805000D03*
G04 #@! TD*
G04 #@! TO.C,C454*
X35995000Y41805000D03*
X41695000Y41805000D03*
G04 #@! TD*
G04 #@! TO.C,C453*
X29205000Y75395000D03*
X34905000Y75395000D03*
G04 #@! TD*
G04 #@! TO.C,C489*
X41695000Y19705000D03*
X35995000Y19705000D03*
G04 #@! TD*
G04 #@! TO.C,C487*
X49595000Y25305000D03*
X55295000Y25305000D03*
G04 #@! TD*
G04 #@! TO.C,C486*
X41695000Y81005000D03*
X35995000Y81005000D03*
G04 #@! TD*
G04 #@! TO.C,C485*
X48505000Y86595000D03*
X42805000Y86595000D03*
G04 #@! TD*
G04 #@! TO.C,C484*
X41695000Y14105000D03*
X35995000Y14105000D03*
G04 #@! TD*
G04 #@! TO.C,C483*
X62105000Y86595000D03*
X56405000Y86595000D03*
G04 #@! TD*
G04 #@! TO.C,C482*
X55295000Y103405000D03*
X49595000Y103405000D03*
G04 #@! TD*
G04 #@! TO.C,C481*
X62105000Y97795000D03*
X56405000Y97795000D03*
G04 #@! TD*
G04 #@! TO.C,C508*
X29205000Y69795000D03*
X34905000Y69795000D03*
G04 #@! TD*
G04 #@! TO.C,C478*
X15505000Y8495000D03*
X21205000Y8495000D03*
G04 #@! TD*
G04 #@! TO.C,C476*
X42805000Y25295000D03*
X48505000Y25295000D03*
G04 #@! TD*
G04 #@! TO.C,C475*
X35995000Y86605000D03*
X41695000Y86605000D03*
G04 #@! TD*
G04 #@! TO.C,C474*
X42805000Y80995000D03*
X48505000Y80995000D03*
G04 #@! TD*
G04 #@! TO.C,C473*
X62105000Y80995000D03*
X56405000Y80995000D03*
G04 #@! TD*
G04 #@! TO.C,C472*
X56405000Y-2705000D03*
X62105000Y-2705000D03*
G04 #@! TD*
G04 #@! TO.C,C471*
X49595000Y30905000D03*
X55295000Y30905000D03*
G04 #@! TD*
G04 #@! TO.C,C470*
X29205000Y64195000D03*
X34905000Y64195000D03*
G04 #@! TD*
G04 #@! TO.C,C579*
X15505000Y2895000D03*
X21205000Y2895000D03*
G04 #@! TD*
G04 #@! TO.C,C575*
X41695000Y92205000D03*
X35995000Y92205000D03*
G04 #@! TD*
G04 #@! TO.C,C574*
X48505000Y75395000D03*
X42805000Y75395000D03*
G04 #@! TD*
G04 #@! TO.C,C600*
X56405000Y75395000D03*
X62105000Y75395000D03*
G04 #@! TD*
G04 #@! TO.C,C572*
X62105000Y30895000D03*
X56405000Y30895000D03*
G04 #@! TD*
G04 #@! TO.C,C525*
X29205000Y58595000D03*
X34905000Y58595000D03*
G04 #@! TD*
G04 #@! TO.C,C569*
X15505000Y-2705000D03*
X21205000Y-2705000D03*
G04 #@! TD*
G04 #@! TO.C,C565*
X41695000Y97805000D03*
X35995000Y97805000D03*
G04 #@! TD*
G04 #@! TO.C,C526*
X42805000Y69795000D03*
X48505000Y69795000D03*
G04 #@! TD*
G04 #@! TO.C,C571*
X62105000Y69795000D03*
X56405000Y69795000D03*
G04 #@! TD*
G04 #@! TO.C,C598*
X41695000Y25305000D03*
X35995000Y25305000D03*
G04 #@! TD*
G04 #@! TO.C,C582*
X41695000Y103405000D03*
X35995000Y103405000D03*
G04 #@! TD*
G04 #@! TO.C,C580*
X62105000Y92195000D03*
X56405000Y92195000D03*
G04 #@! TD*
G04 #@! TO.C,C589*
X42805000Y64195000D03*
X48505000Y64195000D03*
G04 #@! TD*
G04 #@! TO.C,C587*
X56405000Y64195000D03*
X62105000Y64195000D03*
G04 #@! TD*
G04 #@! TO.C,C586*
X49595000Y47405000D03*
X55295000Y47405000D03*
G04 #@! TD*
G04 #@! TO.C,C581*
X29205000Y52995000D03*
X34905000Y52995000D03*
G04 #@! TD*
G04 #@! TO.C,C543*
X42805000Y58595000D03*
X48505000Y58595000D03*
G04 #@! TD*
G04 #@! TO.C,C541*
X56405000Y58595000D03*
X62105000Y58595000D03*
G04 #@! TD*
G04 #@! TO.C,C539*
X55295000Y53005000D03*
X49595000Y53005000D03*
G04 #@! TD*
G04 #@! TO.C,C538*
X34905000Y14095000D03*
X29205000Y14095000D03*
G04 #@! TD*
G04 #@! TO.C,C563*
X29205000Y47395000D03*
X34905000Y47395000D03*
G04 #@! TD*
G04 #@! TO.C,C533*
X42805000Y52995000D03*
X48505000Y52995000D03*
G04 #@! TD*
G04 #@! TO.C,C531*
X56405000Y52995000D03*
X62105000Y52995000D03*
G04 #@! TD*
G04 #@! TO.C,C529*
X55295000Y58605000D03*
X49595000Y58605000D03*
G04 #@! TD*
G04 #@! TO.C,C561*
X42805000Y47395000D03*
X48505000Y47395000D03*
G04 #@! TD*
G04 #@! TO.C,C559*
X56405000Y47395000D03*
X62105000Y47395000D03*
G04 #@! TD*
G04 #@! TO.C,C557*
X55295000Y64205000D03*
X49595000Y64205000D03*
G04 #@! TD*
G04 #@! TO.C,C549*
X29205000Y41795000D03*
X34905000Y41795000D03*
G04 #@! TD*
G04 #@! TO.C,C547*
X55295000Y69805000D03*
X49595000Y69805000D03*
G04 #@! TD*
G04 #@! TO.C,C426*
X49595000Y75405000D03*
X55295000Y75405000D03*
G04 #@! TD*
G04 #@! TO.C,C173*
X-62105000Y31805000D03*
X-56405000Y31805000D03*
G04 #@! TD*
G04 #@! TO.C,C300*
X-28095000Y80995000D03*
X-22395000Y80995000D03*
G04 #@! TD*
G04 #@! TO.C,C242*
X-28095000Y86595000D03*
X-22395000Y86595000D03*
G04 #@! TD*
G04 #@! TO.C,C239*
X-22395000Y58595000D03*
X-28095000Y58595000D03*
G04 #@! TD*
G04 #@! TO.C,C232*
X-22395000Y92195000D03*
X-28095000Y92195000D03*
G04 #@! TD*
G04 #@! TO.C,C250*
X-28095000Y64195000D03*
X-22395000Y64195000D03*
G04 #@! TD*
G04 #@! TO.C,C255*
X-22395000Y41795000D03*
X-28095000Y41795000D03*
G04 #@! TD*
G04 #@! TO.C,C64*
X-62105000Y26205000D03*
X-56405000Y26205000D03*
G04 #@! TD*
G04 #@! TO.C,C5*
X18605000Y92195000D03*
X12905000Y92195000D03*
G04 #@! TD*
G04 #@! TO.C,C23*
X18605000Y97795000D03*
X12905000Y97795000D03*
G04 #@! TD*
G04 #@! TO.C,C29*
X12905000Y75395000D03*
X18605000Y75395000D03*
G04 #@! TD*
G04 #@! TO.C,C129*
X18605000Y103395000D03*
X12905000Y103395000D03*
G04 #@! TD*
G04 #@! TO.C,C128*
X12905000Y80995000D03*
X18605000Y80995000D03*
G04 #@! TD*
G04 #@! TO.C,C127*
X18605000Y69795000D03*
X12905000Y69795000D03*
G04 #@! TD*
G04 #@! TO.C,C110*
X18605000Y86595000D03*
X12905000Y86595000D03*
G04 #@! TD*
G04 #@! TO.C,C307*
X-28095000Y75395000D03*
X-22395000Y75395000D03*
G04 #@! TD*
G04 #@! TO.C,C337*
X-22395000Y47395000D03*
X-28095000Y47395000D03*
G04 #@! TD*
G04 #@! TO.C,C326*
X-28095000Y103395000D03*
X-22395000Y103395000D03*
G04 #@! TD*
G04 #@! TO.C,C323*
X-22395000Y69795000D03*
X-28095000Y69795000D03*
G04 #@! TD*
G04 #@! TO.C,C391*
X-22395000Y97795000D03*
X-28095000Y97795000D03*
G04 #@! TD*
G04 #@! TO.C,C400*
X-22395000Y52995000D03*
X-28095000Y52995000D03*
G04 #@! TD*
G04 #@! TO.C,C342*
X-41695000Y-1805000D03*
X-35995000Y-1805000D03*
G04 #@! TD*
G04 #@! TO.C,C341*
X-42880365Y-1795000D03*
X-48580365Y-1795000D03*
G04 #@! TD*
G04 #@! TO.C,C340*
X-28095000Y3795000D03*
X-22395000Y3795000D03*
G04 #@! TD*
G04 #@! TO.C,C339*
X-15605000Y-1795000D03*
X-21305000Y-1795000D03*
G04 #@! TD*
G04 #@! TO.C,C338*
X-56405000Y41805000D03*
X-62105000Y41805000D03*
G04 #@! TD*
G04 #@! TO.C,C336*
X-29205000Y-1795000D03*
X-34905000Y-1795000D03*
G04 #@! TD*
G04 #@! TO.C,C335*
X-55295000Y26295000D03*
X-49595000Y26295000D03*
G04 #@! TD*
G04 #@! TO.C,C334*
X-42805000Y3805000D03*
X-48505000Y3805000D03*
G04 #@! TD*
G04 #@! TO.C,C333*
X-42805000Y31805000D03*
X-48505000Y31805000D03*
G04 #@! TD*
G04 #@! TO.C,C332*
X-28095000Y-1805000D03*
X-22395000Y-1805000D03*
G04 #@! TD*
G04 #@! TO.C,C376*
X-15605000Y3805000D03*
X-21305000Y3805000D03*
G04 #@! TD*
G04 #@! TO.C,C328*
X-56405000Y47405000D03*
X-62105000Y47405000D03*
G04 #@! TD*
G04 #@! TO.C,C327*
X-55295000Y97795000D03*
X-49595000Y97795000D03*
G04 #@! TD*
G04 #@! TO.C,C325*
X-55295000Y20695000D03*
X-49595000Y20695000D03*
G04 #@! TD*
G04 #@! TO.C,C324*
X-42805000Y9405000D03*
X-48505000Y9405000D03*
G04 #@! TD*
G04 #@! TO.C,C322*
X-55295000Y-1805000D03*
X-49595000Y-1805000D03*
G04 #@! TD*
G04 #@! TO.C,C321*
X-15605000Y9405000D03*
X-21305000Y9405000D03*
G04 #@! TD*
G04 #@! TO.C,C320*
X-56405000Y53005000D03*
X-62105000Y53005000D03*
G04 #@! TD*
G04 #@! TO.C,C319*
X-55295000Y92195000D03*
X-49595000Y92195000D03*
G04 #@! TD*
G04 #@! TO.C,C318*
X-1905000Y41805000D03*
X-7605000Y41805000D03*
G04 #@! TD*
G04 #@! TO.C,C317*
X-29205000Y9405000D03*
X-34905000Y9405000D03*
G04 #@! TD*
G04 #@! TO.C,C316*
X-55295000Y15095000D03*
X-49595000Y15095000D03*
G04 #@! TD*
G04 #@! TO.C,C331*
X-42805000Y15005000D03*
X-48505000Y15005000D03*
G04 #@! TD*
G04 #@! TO.C,C330*
X-41695000Y26195000D03*
X-35995000Y26195000D03*
G04 #@! TD*
G04 #@! TO.C,C329*
X-1905000Y3805000D03*
X-7605000Y3805000D03*
G04 #@! TD*
G04 #@! TO.C,C374*
X-15605000Y15005000D03*
X-21305000Y15005000D03*
G04 #@! TD*
G04 #@! TO.C,C373*
X-56405000Y58605000D03*
X-62105000Y58605000D03*
G04 #@! TD*
G04 #@! TO.C,C372*
X-55295000Y86595000D03*
X-49595000Y86595000D03*
G04 #@! TD*
G04 #@! TO.C,C371*
X-795000Y92195000D03*
X4905000Y92195000D03*
G04 #@! TD*
G04 #@! TO.C,C370*
X-55295000Y3795000D03*
X-49595000Y3795000D03*
G04 #@! TD*
G04 #@! TO.C,C369*
X-1905000Y47405000D03*
X-7605000Y47405000D03*
G04 #@! TD*
G04 #@! TO.C,C368*
X-14495000Y103395000D03*
X-8795000Y103395000D03*
G04 #@! TD*
G04 #@! TO.C,C367*
X-55295000Y9495000D03*
X-49595000Y9495000D03*
G04 #@! TD*
G04 #@! TO.C,C366*
X-42805000Y20605000D03*
X-48505000Y20605000D03*
G04 #@! TD*
G04 #@! TO.C,C365*
X-41695000Y20595000D03*
X-35995000Y20595000D03*
G04 #@! TD*
G04 #@! TO.C,C364*
X-1905000Y9405000D03*
X-7605000Y9405000D03*
G04 #@! TD*
G04 #@! TO.C,C363*
X-15605000Y20605000D03*
X-21305000Y20605000D03*
G04 #@! TD*
G04 #@! TO.C,C346*
X-56405000Y64205000D03*
X-62105000Y64205000D03*
G04 #@! TD*
G04 #@! TO.C,C344*
X-55295000Y80995000D03*
X-49595000Y80995000D03*
G04 #@! TD*
G04 #@! TO.C,C359*
X-795000Y86595000D03*
X4905000Y86595000D03*
G04 #@! TD*
G04 #@! TO.C,C358*
X-1905000Y53005000D03*
X-7605000Y53005000D03*
G04 #@! TD*
G04 #@! TO.C,C357*
X-14495000Y97795000D03*
X-8795000Y97795000D03*
G04 #@! TD*
G04 #@! TO.C,C356*
X-29205000Y15005000D03*
X-34905000Y15005000D03*
G04 #@! TD*
G04 #@! TO.C,C355*
X-56405000Y9405000D03*
X-62105000Y9405000D03*
G04 #@! TD*
G04 #@! TO.C,C354*
X-42805000Y26205000D03*
X-48505000Y26205000D03*
G04 #@! TD*
G04 #@! TO.C,C353*
X-41695000Y14995000D03*
X-35995000Y14995000D03*
G04 #@! TD*
G04 #@! TO.C,C352*
X-1905000Y15005000D03*
X-7605000Y15005000D03*
G04 #@! TD*
G04 #@! TO.C,C351*
X-15605000Y26205000D03*
X-21305000Y26205000D03*
G04 #@! TD*
G04 #@! TO.C,C350*
X-56405000Y69805000D03*
X-62105000Y69805000D03*
G04 #@! TD*
G04 #@! TO.C,C349*
X-55295000Y75395000D03*
X-49595000Y75395000D03*
G04 #@! TD*
G04 #@! TO.C,C348*
X-795000Y80995000D03*
X4905000Y80995000D03*
G04 #@! TD*
G04 #@! TO.C,C347*
X-1905000Y58605000D03*
X-7605000Y58605000D03*
G04 #@! TD*
G04 #@! TO.C,C362*
X-14495000Y92195000D03*
X-8795000Y92195000D03*
G04 #@! TD*
G04 #@! TO.C,C361*
X-15605000Y47405000D03*
X-21305000Y47405000D03*
G04 #@! TD*
G04 #@! TO.C,C360*
X-14495000Y31795000D03*
X-8795000Y31795000D03*
G04 #@! TD*
G04 #@! TO.C,C279*
X-56405000Y103405000D03*
X-62105000Y103405000D03*
G04 #@! TD*
G04 #@! TO.C,C278*
X-795000Y75395000D03*
X4905000Y75395000D03*
G04 #@! TD*
G04 #@! TO.C,C277*
X-14495000Y80995000D03*
X-8795000Y80995000D03*
G04 #@! TD*
G04 #@! TO.C,C276*
X-795000Y103395000D03*
X4905000Y103395000D03*
G04 #@! TD*
G04 #@! TO.C,C275*
X-28095000Y9395000D03*
X-22395000Y9395000D03*
G04 #@! TD*
G04 #@! TO.C,C274*
X-15605000Y41805000D03*
X-21305000Y41805000D03*
G04 #@! TD*
G04 #@! TO.C,C272*
X-55295000Y52995000D03*
X-49595000Y52995000D03*
G04 #@! TD*
G04 #@! TO.C,C271*
X-795000Y58595000D03*
X4905000Y58595000D03*
G04 #@! TD*
G04 #@! TO.C,C270*
X-1905000Y81005000D03*
X-7605000Y81005000D03*
G04 #@! TD*
G04 #@! TO.C,C269*
X-14495000Y69795000D03*
X-8795000Y69795000D03*
G04 #@! TD*
G04 #@! TO.C,C315*
X-15605000Y69805000D03*
X-21305000Y69805000D03*
G04 #@! TD*
G04 #@! TO.C,C267*
X-55295000Y103395000D03*
X-49595000Y103395000D03*
G04 #@! TD*
G04 #@! TO.C,C313*
X-14495000Y14995000D03*
X-8795000Y14995000D03*
G04 #@! TD*
G04 #@! TO.C,C312*
X-1905000Y103405000D03*
X-7605000Y103405000D03*
G04 #@! TD*
G04 #@! TO.C,C263*
X-15605000Y81005000D03*
X-21305000Y81005000D03*
G04 #@! TD*
G04 #@! TO.C,C256*
X-795000Y41795000D03*
X4905000Y41795000D03*
G04 #@! TD*
G04 #@! TO.C,C254*
X-1905000Y97805000D03*
X-7605000Y97805000D03*
G04 #@! TD*
G04 #@! TO.C,C253*
X-14495000Y52995000D03*
X-8795000Y52995000D03*
G04 #@! TD*
G04 #@! TO.C,C268*
X-15605000Y86605000D03*
X-21305000Y86605000D03*
G04 #@! TD*
G04 #@! TO.C,C306*
X-14495000Y47395000D03*
X-8795000Y47395000D03*
G04 #@! TD*
G04 #@! TO.C,C305*
X-15605000Y92205000D03*
X-21305000Y92205000D03*
G04 #@! TD*
G04 #@! TO.C,C297*
X-14495000Y41795000D03*
X-8795000Y41795000D03*
G04 #@! TD*
G04 #@! TO.C,C280*
X-15605000Y97805000D03*
X-21305000Y97805000D03*
G04 #@! TD*
G04 #@! TO.C,C290*
X-795000Y97795000D03*
X4905000Y97795000D03*
G04 #@! TD*
G04 #@! TO.C,C288*
X-15605000Y103405000D03*
X-21305000Y103405000D03*
G04 #@! TD*
G04 #@! TO.C,C375*
X-55295000Y47395000D03*
X-49595000Y47395000D03*
G04 #@! TD*
G04 #@! TO.C,C393*
X-41695000Y103395000D03*
X-35995000Y103395000D03*
G04 #@! TD*
G04 #@! TO.C,C69*
X11795000Y86605000D03*
X6095000Y86605000D03*
G04 #@! TD*
G04 #@! TO.C,C67*
X-795000Y3795000D03*
X4905000Y3795000D03*
G04 #@! TD*
G04 #@! TO.C,C66*
X-795000Y26195000D03*
X4905000Y26195000D03*
G04 #@! TD*
G04 #@! TO.C,C65*
X11795000Y47405000D03*
X6095000Y47405000D03*
G04 #@! TD*
G04 #@! TO.C,C79*
X-29205000Y47511105D03*
X-34905000Y47511105D03*
G04 #@! TD*
G04 #@! TO.C,C124*
X-42805000Y47405000D03*
X-48505000Y47405000D03*
G04 #@! TD*
G04 #@! TO.C,C123*
X-41695000Y92195000D03*
X-35995000Y92195000D03*
G04 #@! TD*
G04 #@! TO.C,C122*
X11795000Y41805000D03*
X6095000Y41805000D03*
G04 #@! TD*
G04 #@! TO.C,C121*
X11795000Y103415470D03*
X6095000Y103415470D03*
G04 #@! TD*
G04 #@! TO.C,C117*
X-29205000Y92205000D03*
X-34905000Y92205000D03*
G04 #@! TD*
G04 #@! TO.C,C116*
X-29205000Y53005000D03*
X-34905000Y53005000D03*
G04 #@! TD*
G04 #@! TO.C,C115*
X-42805000Y53005000D03*
X-48505000Y53005000D03*
G04 #@! TD*
G04 #@! TO.C,C114*
X-41695000Y86595000D03*
X-35995000Y86595000D03*
G04 #@! TD*
G04 #@! TO.C,C113*
X-56405000Y-1795000D03*
X-62105000Y-1795000D03*
G04 #@! TD*
G04 #@! TO.C,C112*
X-29205000Y81005000D03*
X-34905000Y81005000D03*
G04 #@! TD*
G04 #@! TO.C,C111*
X-42805000Y81005000D03*
X-48505000Y81005000D03*
G04 #@! TD*
G04 #@! TO.C,C159*
X-41695000Y58595000D03*
X-35995000Y58595000D03*
G04 #@! TD*
G04 #@! TO.C,C109*
X11795000Y75405000D03*
X6095000Y75405000D03*
G04 #@! TD*
G04 #@! TO.C,C107*
X-795000Y20595000D03*
X4905000Y20595000D03*
G04 #@! TD*
G04 #@! TO.C,C104*
X-795000Y9395000D03*
X4905000Y9395000D03*
G04 #@! TD*
G04 #@! TO.C,C103*
X-29205000Y103405000D03*
X-34905000Y103405000D03*
G04 #@! TD*
G04 #@! TO.C,C102*
X-29205000Y64205000D03*
X-34905000Y64205000D03*
G04 #@! TD*
G04 #@! TO.C,C101*
X-42805000Y64205000D03*
X-48505000Y64205000D03*
G04 #@! TD*
G04 #@! TO.C,C100*
X-41695000Y75395000D03*
X-35995000Y75395000D03*
G04 #@! TD*
G04 #@! TO.C,C99*
X11795000Y58605000D03*
X6095000Y58605000D03*
G04 #@! TD*
G04 #@! TO.C,C98*
X-42805000Y103405000D03*
X-48505000Y103405000D03*
G04 #@! TD*
G04 #@! TO.C,C28*
X-795000Y31795000D03*
X4905000Y31795000D03*
G04 #@! TD*
G04 #@! TO.C,C27*
X-14495000Y3795000D03*
X-8795000Y3795000D03*
G04 #@! TD*
G04 #@! TO.C,C26*
X-29205000Y41805000D03*
X-34905000Y41805000D03*
G04 #@! TD*
G04 #@! TO.C,C25*
X-42805000Y41805000D03*
X-48505000Y41805000D03*
G04 #@! TD*
G04 #@! TO.C,C24*
X-41695000Y97795000D03*
X-35995000Y97795000D03*
G04 #@! TD*
G04 #@! TO.C,C20*
X-42805000Y69805000D03*
X-48505000Y69805000D03*
G04 #@! TD*
G04 #@! TO.C,C19*
X-41695000Y69795000D03*
X-35995000Y69795000D03*
G04 #@! TD*
G04 #@! TO.C,C18*
X11795000Y64205000D03*
X6095000Y64205000D03*
G04 #@! TD*
G04 #@! TO.C,C6*
X-29205000Y75405000D03*
X-34905000Y75405000D03*
G04 #@! TD*
G04 #@! TO.C,C7*
X-42805000Y75405000D03*
X-48505000Y75405000D03*
G04 #@! TD*
G04 #@! TO.C,C8*
X-41695000Y64195000D03*
X-35995000Y64195000D03*
G04 #@! TD*
G04 #@! TO.C,C9*
X11795000Y69805000D03*
X6095000Y69805000D03*
G04 #@! TD*
G04 #@! TO.C,C17*
X-56405000Y15005000D03*
X-62105000Y15005000D03*
G04 #@! TD*
G04 #@! TO.C,C58*
X-29205000Y86605000D03*
X-34905000Y86605000D03*
G04 #@! TD*
G04 #@! TO.C,C57*
X-41695000Y47395000D03*
X-35995000Y47395000D03*
G04 #@! TD*
G04 #@! TO.C,C56*
X-42805000Y86605000D03*
X-48505000Y86605000D03*
G04 #@! TD*
G04 #@! TO.C,C55*
X-41695000Y52995000D03*
X-35995000Y52995000D03*
G04 #@! TD*
G04 #@! TO.C,C54*
X11795000Y81005000D03*
X6095000Y81005000D03*
G04 #@! TD*
G04 #@! TO.C,C30*
X-42805000Y92205000D03*
X-48505000Y92205000D03*
G04 #@! TD*
G04 #@! TO.C,C42*
X-29205000Y69805000D03*
X-34905000Y69805000D03*
G04 #@! TD*
G04 #@! TO.C,C218*
X-14495000Y58595000D03*
X-8795000Y58595000D03*
G04 #@! TD*
G04 #@! TO.C,C217*
X-1905000Y92205000D03*
X-7605000Y92205000D03*
G04 #@! TD*
G04 #@! TO.C,C216*
X-795000Y47395000D03*
X4905000Y47395000D03*
G04 #@! TD*
G04 #@! TO.C,C214*
X-55295000Y41795000D03*
X-49595000Y41795000D03*
G04 #@! TD*
G04 #@! TO.C,C210*
X-14495000Y9395000D03*
X-8795000Y9395000D03*
G04 #@! TD*
G04 #@! TO.C,C208*
X-15605000Y75405000D03*
X-21305000Y75405000D03*
G04 #@! TD*
G04 #@! TO.C,C207*
X-14495000Y64195000D03*
X-8795000Y64195000D03*
G04 #@! TD*
G04 #@! TO.C,C206*
X-1905000Y86605000D03*
X-7605000Y86605000D03*
G04 #@! TD*
G04 #@! TO.C,C205*
X-795000Y52995000D03*
X4905000Y52995000D03*
G04 #@! TD*
G04 #@! TO.C,C202*
X-56405000Y97805000D03*
X-62105000Y97805000D03*
G04 #@! TD*
G04 #@! TO.C,C204*
X-14495000Y20595000D03*
X-8795000Y20595000D03*
G04 #@! TD*
G04 #@! TO.C,C249*
X-15605000Y64205000D03*
X-21305000Y64205000D03*
G04 #@! TD*
G04 #@! TO.C,C248*
X-14495000Y75395000D03*
X-8795000Y75395000D03*
G04 #@! TD*
G04 #@! TO.C,C247*
X-1905000Y75405000D03*
X-7605000Y75405000D03*
G04 #@! TD*
G04 #@! TO.C,C246*
X-795000Y64195000D03*
X4905000Y64195000D03*
G04 #@! TD*
G04 #@! TO.C,C245*
X-55295000Y58595000D03*
X-49595000Y58595000D03*
G04 #@! TD*
G04 #@! TO.C,C244*
X-56405000Y86605000D03*
X-62105000Y86605000D03*
G04 #@! TD*
G04 #@! TO.C,C243*
X-28095000Y14995000D03*
X-22395000Y14995000D03*
G04 #@! TD*
G04 #@! TO.C,C241*
X-1905000Y31805000D03*
X-7605000Y31805000D03*
G04 #@! TD*
G04 #@! TO.C,C240*
X-14495000Y26195000D03*
X-8795000Y26195000D03*
G04 #@! TD*
G04 #@! TO.C,C238*
X-15605000Y58605000D03*
X-21305000Y58605000D03*
G04 #@! TD*
G04 #@! TO.C,C219*
X-1905000Y69805000D03*
X-7605000Y69805000D03*
G04 #@! TD*
G04 #@! TO.C,C235*
X-795000Y69795000D03*
X4905000Y69795000D03*
G04 #@! TD*
G04 #@! TO.C,C234*
X-55295000Y64195000D03*
X-49595000Y64195000D03*
G04 #@! TD*
G04 #@! TO.C,C233*
X-56405000Y81005000D03*
X-62105000Y81005000D03*
G04 #@! TD*
G04 #@! TO.C,C231*
X-1905000Y26205000D03*
X-7605000Y26205000D03*
G04 #@! TD*
G04 #@! TO.C,C230*
X-56405000Y92205000D03*
X-62105000Y92205000D03*
G04 #@! TD*
G04 #@! TO.C,C229*
X-41695000Y9395000D03*
X-35995000Y9395000D03*
G04 #@! TD*
G04 #@! TO.C,C228*
X-1905000Y20605000D03*
X-7605000Y20605000D03*
G04 #@! TD*
G04 #@! TO.C,C227*
X-15605000Y31805000D03*
X-21305000Y31805000D03*
G04 #@! TD*
G04 #@! TO.C,C226*
X-56405000Y75405000D03*
X-62105000Y75405000D03*
G04 #@! TD*
G04 #@! TO.C,C225*
X-55295000Y69795000D03*
X-49595000Y69795000D03*
G04 #@! TD*
G04 #@! TO.C,C224*
X-1905000Y64205000D03*
X-7605000Y64205000D03*
G04 #@! TD*
G04 #@! TO.C,C223*
X-14495000Y86595000D03*
X-8795000Y86595000D03*
G04 #@! TD*
G04 #@! TO.C,C222*
X-15605000Y53005000D03*
X-21305000Y53005000D03*
G04 #@! TD*
G04 #@! TO.C,C220*
X-41695000Y3795000D03*
X-35995000Y3795000D03*
G04 #@! TD*
G04 #@! TO.C,C151*
X-41695000Y41795000D03*
X-35995000Y41795000D03*
G04 #@! TD*
G04 #@! TO.C,C150*
X11795000Y97805000D03*
X6095000Y97805000D03*
G04 #@! TD*
G04 #@! TO.C,C130*
X11795000Y92205000D03*
X6095000Y92205000D03*
G04 #@! TD*
G04 #@! TO.C,C141*
X-795000Y14995000D03*
X4905000Y14995000D03*
G04 #@! TD*
G04 #@! TO.C,C187*
X-29205000Y97805000D03*
X-34905000Y97805000D03*
G04 #@! TD*
G04 #@! TO.C,C186*
X-29205000Y58605000D03*
X-34905000Y58605000D03*
G04 #@! TD*
G04 #@! TO.C,C185*
X-42805000Y58605000D03*
X-48505000Y58605000D03*
G04 #@! TD*
G04 #@! TO.C,C184*
X-41695000Y80995000D03*
X-35995000Y80995000D03*
G04 #@! TD*
G04 #@! TO.C,C183*
X11795000Y53005000D03*
X6095000Y53005000D03*
G04 #@! TD*
G04 #@! TO.C,C182*
X-42805000Y97805000D03*
X-48505000Y97805000D03*
G04 #@! TD*
G04 #@! TO.C,C181*
X-56405000Y20605000D03*
X-62105000Y20605000D03*
G04 #@! TD*
G04 #@! TO.C,C221*
X-29205000Y3805000D03*
X-34905000Y3805000D03*
G04 #@! TD*
G04 #@! TO.C,C345*
X-56405000Y3805000D03*
X-62105000Y3805000D03*
G04 #@! TD*
G04 #@! TO.C,C236*
X-55295000Y31895000D03*
X-49595000Y31895000D03*
G04 #@! TD*
D11*
G04 #@! TO.C,TP3*
X28400000Y34000000D03*
D12*
X30800000Y34000000D03*
X30097056Y32302944D03*
X28400000Y31600000D03*
X26702944Y32302944D03*
X26000000Y34000000D03*
X26702944Y35697056D03*
X28400000Y36400000D03*
X30097056Y35697056D03*
G04 #@! TD*
D11*
G04 #@! TO.C,TP4*
X28400000Y24500000D03*
D12*
X30800000Y24500000D03*
X30097056Y22802944D03*
X28400000Y22100000D03*
X26702944Y22802944D03*
X26000000Y24500000D03*
X26702944Y26197056D03*
X28400000Y26900000D03*
X30097056Y26197056D03*
G04 #@! TD*
D11*
G04 #@! TO.C,TP1*
X-28400000Y34000000D03*
D12*
X-26000000Y34000000D03*
X-26702944Y32302944D03*
X-28400000Y31600000D03*
X-30097056Y32302944D03*
X-30800000Y34000000D03*
X-30097056Y35697056D03*
X-28400000Y36400000D03*
X-26702944Y35697056D03*
G04 #@! TD*
D11*
G04 #@! TO.C,TP2*
X-28400000Y24500000D03*
D12*
X-26000000Y24500000D03*
X-26702944Y22802944D03*
X-28400000Y22100000D03*
X-30097056Y22802944D03*
X-30800000Y24500000D03*
X-30097056Y26197056D03*
X-28400000Y26900000D03*
X-26702944Y26197056D03*
G04 #@! TD*
M02*
