M48
;DRILL file {KiCad (5.0.0)} date 05/02/19 23:43:39
;FORMAT={-:-/ absolute / inch / decimal}
FMAT,2
INCH,TZ
T1C0.0197
T2C0.0220
T3C0.1260
%
G90
G05
M72
T1
X1.0236Y0.9646
X1.0513Y1.0314
X1.0513Y0.8978
X1.1181Y1.0591
X1.1181Y0.8701
X1.1849Y1.0314
X1.1849Y0.8978
X1.2126Y0.9646
X-1.2126Y0.9646
X-1.1849Y1.0314
X-1.1849Y0.8978
X-1.1181Y1.0591
X-1.1181Y0.8701
X-1.0513Y1.0314
X-1.0513Y0.8978
X-1.0236Y0.9646
X1.0236Y1.3386
X1.0513Y1.4054
X1.0513Y1.2718
X1.1181Y1.4331
X1.1181Y1.2441
X1.1849Y1.4054
X1.1849Y1.2718
X1.2126Y1.3386
X-1.2126Y1.3386
X-1.1849Y1.4054
X-1.1849Y1.2718
X-1.1181Y1.4331
X-1.1181Y1.2441
X-1.0513Y1.4054
X-1.0513Y1.2718
X-1.0236Y1.3386
T2
X-2.4449Y4.1378
X-2.4449Y4.0709
X-2.4449Y4.0039
X-2.4449Y3.9173
X-2.4449Y3.8504
X-2.4449Y3.7835
X-2.4449Y3.6969
X-2.4449Y3.6299
X-2.4449Y3.563
X-2.4449Y3.4764
X-2.4449Y3.4094
X-2.4449Y3.3425
X-2.4449Y3.2559
X-2.4449Y3.189
X-2.4449Y3.122
X-2.4449Y3.0354
X-2.4449Y2.9685
X-2.4449Y2.9016
X-2.4449Y2.815
X-2.4449Y2.748
X-2.4449Y2.6811
X-2.4449Y2.5945
X-2.4449Y2.5276
X-2.4449Y2.4606
X-2.4449Y2.374
X-2.4449Y2.3071
X-2.4449Y2.2402
X-2.4449Y2.1535
X-2.4449Y2.0866
X-2.4449Y2.0197
X-2.4449Y1.9331
X-2.4449Y1.8661
X-2.4449Y1.7992
X-2.4449Y1.7126
X-2.4449Y1.6457
X-2.4449Y1.5787
X-2.4449Y1.3189
X-2.4449Y1.252
X-2.4449Y1.185
X-2.4449Y1.0984
X-2.4449Y1.0315
X-2.4449Y0.9646
X-2.4449Y0.878
X-2.4449Y0.811
X-2.4449Y0.7441
X-2.4449Y0.6575
X-2.4449Y0.5906
X-2.4449Y0.5236
X-2.4449Y0.437
X-2.4449Y0.3701
X-2.4449Y0.3031
X-2.4449Y0.2165
X-2.4449Y0.1496
X-2.4449Y0.0827
X-2.4449Y-0.0039
X-2.4449Y-0.0709
X-2.4449Y-0.1378
X-2.2205Y4.1378
X-2.2205Y4.0709
X-2.2205Y4.0039
X-2.2205Y3.9173
X-2.2205Y3.8504
X-2.2205Y3.7835
X-2.2205Y3.6969
X-2.2205Y3.6299
X-2.2205Y3.563
X-2.2205Y3.4764
X-2.2205Y3.4094
X-2.2205Y3.3425
X-2.2205Y3.2559
X-2.2205Y3.189
X-2.2205Y3.122
X-2.2205Y3.0354
X-2.2205Y2.9685
X-2.2205Y2.9016
X-2.2205Y2.815
X-2.2205Y2.748
X-2.2205Y2.6811
X-2.2205Y2.5945
X-2.2205Y2.5276
X-2.2205Y2.4606
X-2.2205Y2.374
X-2.2205Y2.3071
X-2.2205Y2.2402
X-2.2205Y2.1535
X-2.2205Y2.0866
X-2.2205Y2.0197
X-2.2205Y1.9331
X-2.2205Y1.8661
X-2.2205Y1.7992
X-2.2205Y1.7126
X-2.2205Y1.6457
X-2.2205Y1.5787
X-2.2205Y1.3189
X-2.2205Y1.252
X-2.2205Y1.185
X-2.2205Y1.0984
X-2.2205Y1.0315
X-2.2205Y0.9646
X-2.2205Y0.878
X-2.2205Y0.811
X-2.2205Y0.7441
X-2.2205Y0.6575
X-2.2205Y0.5906
X-2.2205Y0.5236
X-2.2205Y0.437
X-2.2205Y0.3701
X-2.2205Y0.3031
X-2.2205Y0.2165
X-2.2205Y0.1496
X-2.2205Y0.0827
X-2.2205Y-0.0039
X-2.2205Y-0.0709
X-2.2205Y-0.1378
X-2.1772Y4.1378
X-2.1772Y4.0709
X-2.1772Y4.0039
X-2.1772Y3.9173
X-2.1772Y3.8504
X-2.1772Y3.7835
X-2.1772Y3.6969
X-2.1772Y3.6299
X-2.1772Y3.563
X-2.1772Y3.4764
X-2.1772Y3.4094
X-2.1772Y3.3425
X-2.1772Y3.2559
X-2.1772Y3.189
X-2.1772Y3.122
X-2.1772Y3.0354
X-2.1772Y2.9685
X-2.1772Y2.9016
X-2.1772Y2.815
X-2.1772Y2.748
X-2.1772Y2.6811
X-2.1772Y2.5945
X-2.1772Y2.5276
X-2.1772Y2.4606
X-2.1772Y2.374
X-2.1772Y2.3071
X-2.1772Y2.2402
X-2.1772Y2.1535
X-2.1772Y2.0866
X-2.1772Y2.0197
X-2.1772Y1.9331
X-2.1772Y1.8661
X-2.1772Y1.7992
X-2.1772Y1.7126
X-2.1772Y1.6457
X-2.1772Y1.5787
X-2.1772Y1.3189
X-2.1772Y1.252
X-2.1772Y1.185
X-2.1772Y1.0984
X-2.1772Y1.0315
X-2.1772Y0.9646
X-2.1772Y0.878
X-2.1772Y0.811
X-2.1772Y0.7441
X-2.1772Y0.6575
X-2.1772Y0.5906
X-2.1772Y0.5236
X-2.1772Y0.437
X-2.1772Y0.437
X-2.1772Y0.3701
X-2.1772Y0.3031
X-2.1772Y0.2165
X-2.1772Y0.1496
X-2.1772Y0.0827
X-2.1772Y-0.0039
X-2.1772Y-0.0709
X-2.1772Y-0.1378
X-1.9528Y4.1378
X-1.9528Y4.0709
X-1.9528Y4.0039
X-1.9528Y3.9173
X-1.9528Y3.8504
X-1.9528Y3.7835
X-1.9528Y3.6969
X-1.9528Y3.6299
X-1.9528Y3.563
X-1.9528Y3.4764
X-1.9528Y3.4094
X-1.9528Y3.3425
X-1.9528Y3.2559
X-1.9528Y3.189
X-1.9528Y3.122
X-1.9528Y3.0354
X-1.9528Y2.9685
X-1.9528Y2.9016
X-1.9528Y2.815
X-1.9528Y2.748
X-1.9528Y2.6811
X-1.9528Y2.5945
X-1.9528Y2.5276
X-1.9528Y2.4606
X-1.9528Y2.374
X-1.9528Y2.3071
X-1.9528Y2.2402
X-1.9528Y2.1535
X-1.9528Y2.0866
X-1.9528Y2.0197
X-1.9528Y1.9331
X-1.9528Y1.8661
X-1.9528Y1.7992
X-1.9528Y1.7126
X-1.9528Y1.6457
X-1.9528Y1.5787
X-1.9528Y1.3189
X-1.9528Y1.252
X-1.9528Y1.185
X-1.9528Y1.0984
X-1.9528Y1.0315
X-1.9528Y0.9646
X-1.9528Y0.878
X-1.9528Y0.811
X-1.9528Y0.7441
X-1.9528Y0.6575
X-1.9528Y0.5906
X-1.9528Y0.5236
X-1.9528Y0.437
X-1.9528Y0.3701
X-1.9528Y0.3031
X-1.9528Y0.2165
X-1.9528Y0.1496
X-1.9528Y0.0827
X-1.9528Y-0.0039
X-1.9528Y-0.0709
X-1.9528Y-0.1378
X-1.9094Y4.1378
X-1.9094Y4.0709
X-1.9094Y4.0039
X-1.9094Y3.9173
X-1.9094Y3.8504
X-1.9094Y3.7835
X-1.9094Y3.6969
X-1.9094Y3.6299
X-1.9094Y3.563
X-1.9094Y3.4764
X-1.9094Y3.4094
X-1.9094Y3.3425
X-1.9094Y3.2559
X-1.9094Y3.189
X-1.9094Y3.122
X-1.9094Y3.0354
X-1.9094Y2.9685
X-1.9094Y2.9016
X-1.9094Y2.815
X-1.9094Y2.748
X-1.9094Y2.6811
X-1.9094Y2.5945
X-1.9094Y2.5276
X-1.9094Y2.4606
X-1.9094Y2.374
X-1.9094Y2.3071
X-1.9094Y2.2402
X-1.9094Y2.1535
X-1.9094Y2.0866
X-1.9094Y2.0197
X-1.9094Y1.9331
X-1.9094Y1.8661
X-1.9094Y1.7992
X-1.9094Y1.7126
X-1.9094Y1.6457
X-1.9094Y1.5787
X-1.9094Y1.3189
X-1.9094Y1.252
X-1.9094Y1.185
X-1.9094Y1.0984
X-1.9094Y1.0315
X-1.9094Y0.9646
X-1.9094Y0.878
X-1.9094Y0.811
X-1.9094Y0.7441
X-1.9055Y0.6575
X-1.9055Y0.5906
X-1.9055Y0.5236
X-1.9055Y0.437
X-1.9055Y0.3701
X-1.9055Y0.3031
X-1.9055Y0.2165
X-1.9055Y0.1496
X-1.9055Y0.0827
X-1.9055Y-0.0039
X-1.9055Y-0.0709
X-1.9055Y-0.1378
X-1.685Y4.1378
X-1.685Y4.0709
X-1.685Y4.0039
X-1.685Y3.9173
X-1.685Y3.8504
X-1.685Y3.7835
X-1.685Y3.6969
X-1.685Y3.6299
X-1.685Y3.563
X-1.685Y3.4764
X-1.685Y3.4094
X-1.685Y3.3425
X-1.685Y3.2559
X-1.685Y3.189
X-1.685Y3.122
X-1.685Y3.0354
X-1.685Y2.9685
X-1.685Y2.9016
X-1.685Y2.815
X-1.685Y2.748
X-1.685Y2.6811
X-1.685Y2.5945
X-1.685Y2.5276
X-1.685Y2.4606
X-1.685Y2.374
X-1.685Y2.3071
X-1.685Y2.2402
X-1.685Y2.1535
X-1.685Y2.0866
X-1.685Y2.0197
X-1.685Y1.9331
X-1.685Y1.8661
X-1.685Y1.7992
X-1.685Y1.7126
X-1.685Y1.6457
X-1.685Y1.5787
X-1.685Y1.3189
X-1.685Y1.252
X-1.685Y1.185
X-1.685Y1.0984
X-1.685Y1.0315
X-1.685Y0.9646
X-1.685Y0.878
X-1.685Y0.811
X-1.685Y0.7441
X-1.6811Y0.6575
X-1.6811Y0.5906
X-1.6811Y0.5236
X-1.6811Y0.437
X-1.6811Y0.3701
X-1.6811Y0.3031
X-1.6811Y0.2165
X-1.6811Y0.1496
X-1.6811Y0.0827
X-1.6811Y-0.0039
X-1.6811Y-0.0709
X-1.6811Y-0.1378
X-1.6417Y4.1378
X-1.6417Y4.0709
X-1.6417Y4.0039
X-1.6417Y3.9173
X-1.6417Y3.8504
X-1.6417Y3.7835
X-1.6417Y3.6969
X-1.6417Y3.6299
X-1.6417Y3.563
X-1.6417Y3.4764
X-1.6417Y3.4094
X-1.6417Y3.3425
X-1.6417Y3.2559
X-1.6417Y3.189
X-1.6417Y3.122
X-1.6417Y3.0354
X-1.6417Y2.9685
X-1.6417Y2.9016
X-1.6417Y2.815
X-1.6417Y2.748
X-1.6417Y2.6811
X-1.6417Y2.5945
X-1.6417Y2.5276
X-1.6417Y2.4606
X-1.6417Y2.374
X-1.6417Y2.3071
X-1.6417Y2.2402
X-1.6417Y2.1535
X-1.6417Y2.0866
X-1.6417Y2.0197
X-1.6417Y1.9331
X-1.6417Y1.8661
X-1.6417Y1.7992
X-1.6417Y1.7126
X-1.6417Y1.6457
X-1.6417Y1.5787
X-1.6417Y1.0984
X-1.6417Y1.0315
X-1.6417Y0.9646
X-1.6417Y0.878
X-1.6417Y0.811
X-1.6417Y0.7441
X-1.6417Y0.6575
X-1.6417Y0.5906
X-1.6417Y0.5236
X-1.6417Y0.437
X-1.6417Y0.3701
X-1.6417Y0.3031
X-1.6417Y0.2165
X-1.6417Y0.1496
X-1.6417Y0.0827
X-1.6417Y-0.0039
X-1.6417Y-0.0709
X-1.6417Y-0.1378
X-1.4173Y4.1378
X-1.4173Y4.0709
X-1.4173Y4.0039
X-1.4173Y3.9173
X-1.4173Y3.8504
X-1.4173Y3.7835
X-1.4173Y3.6969
X-1.4173Y3.6299
X-1.4173Y3.563
X-1.4173Y3.4764
X-1.4173Y3.4094
X-1.4173Y3.3425
X-1.4173Y3.2559
X-1.4173Y3.189
X-1.4173Y3.122
X-1.4173Y3.0354
X-1.4173Y2.9685
X-1.4173Y2.9016
X-1.4173Y2.815
X-1.4173Y2.748
X-1.4173Y2.6811
X-1.4173Y2.5945
X-1.4173Y2.5276
X-1.4173Y2.4606
X-1.4173Y2.374
X-1.4173Y2.3071
X-1.4173Y2.2402
X-1.4173Y2.1535
X-1.4173Y2.0866
X-1.4173Y2.0197
X-1.4173Y1.9331
X-1.4173Y1.8661
X-1.4173Y1.7992
X-1.4173Y1.7126
X-1.4173Y1.6457
X-1.4173Y1.5787
X-1.4173Y1.0984
X-1.4173Y1.0315
X-1.4173Y0.9646
X-1.4173Y0.878
X-1.4173Y0.811
X-1.4173Y0.7441
X-1.4173Y0.6575
X-1.4173Y0.5906
X-1.4173Y0.5236
X-1.4173Y0.437
X-1.4173Y0.3701
X-1.4173Y0.3031
X-1.4173Y0.2165
X-1.4173Y0.1496
X-1.4173Y0.0827
X-1.4173Y-0.0039
X-1.4173Y-0.0709
X-1.4173Y-0.1378
X-1.374Y4.1378
X-1.374Y4.0709
X-1.374Y4.0039
X-1.374Y3.9173
X-1.374Y3.8504
X-1.374Y3.7835
X-1.374Y3.6969
X-1.374Y3.6299
X-1.374Y3.563
X-1.374Y3.4764
X-1.374Y3.4094
X-1.374Y3.3425
X-1.374Y3.2559
X-1.374Y3.189
X-1.374Y3.122
X-1.374Y3.0354
X-1.374Y2.9685
X-1.374Y2.9016
X-1.374Y2.815
X-1.374Y2.748
X-1.374Y2.6811
X-1.374Y2.5945
X-1.374Y2.5276
X-1.374Y2.4606
X-1.374Y2.374
X-1.374Y2.3071
X-1.374Y2.2402
X-1.374Y2.1535
X-1.374Y2.0866
X-1.374Y2.0197
X-1.374Y1.9331
X-1.374Y1.8661
X-1.374Y1.7992
X-1.374Y1.7126
X-1.374Y1.6457
X-1.374Y1.5787
X-1.374Y0.6575
X-1.374Y0.5906
X-1.374Y0.5236
X-1.374Y0.437
X-1.374Y0.3701
X-1.374Y0.3031
X-1.374Y0.2165
X-1.374Y0.1496
X-1.374Y0.0827
X-1.374Y0.0827
X-1.374Y-0.0039
X-1.374Y-0.0039
X-1.374Y-0.0709
X-1.374Y-0.0709
X-1.374Y-0.1378
X-1.374Y-0.1378
X-1.1496Y4.1378
X-1.1496Y4.0709
X-1.1496Y4.0039
X-1.1496Y3.9173
X-1.1496Y3.8504
X-1.1496Y3.7835
X-1.1496Y3.6969
X-1.1496Y3.6299
X-1.1496Y3.563
X-1.1496Y3.4764
X-1.1496Y3.4094
X-1.1496Y3.3425
X-1.1496Y3.2559
X-1.1496Y3.189
X-1.1496Y3.122
X-1.1496Y3.0354
X-1.1496Y2.9685
X-1.1496Y2.9016
X-1.1496Y2.815
X-1.1496Y2.748
X-1.1496Y2.6811
X-1.1496Y2.5945
X-1.1496Y2.5276
X-1.1496Y2.4606
X-1.1496Y2.374
X-1.1496Y2.3071
X-1.1496Y2.2402
X-1.1496Y2.1535
X-1.1496Y2.0866
X-1.1496Y2.0197
X-1.1496Y1.9331
X-1.1496Y1.8661
X-1.1496Y1.7992
X-1.1496Y1.7126
X-1.1496Y1.6457
X-1.1496Y1.5787
X-1.1496Y0.6575
X-1.1496Y0.5906
X-1.1496Y0.5236
X-1.1496Y0.437
X-1.1496Y0.3701
X-1.1496Y0.3031
X-1.1496Y0.2165
X-1.1496Y0.1496
X-1.1496Y0.0827
X-1.1496Y-0.0039
X-1.1496Y-0.0039
X-1.1496Y-0.0709
X-1.1496Y-0.0709
X-1.1496Y-0.1378
X-1.1496Y-0.1378
X-1.1063Y4.1378
X-1.1063Y4.0709
X-1.1063Y4.0039
X-1.1063Y3.9173
X-1.1063Y3.8504
X-1.1063Y3.7835
X-1.1063Y3.6969
X-1.1063Y3.6299
X-1.1063Y3.563
X-1.1063Y3.4764
X-1.1063Y3.4094
X-1.1063Y3.3425
X-1.1063Y3.2559
X-1.1063Y3.189
X-1.1063Y3.122
X-1.1063Y3.0354
X-1.1063Y2.9685
X-1.1063Y2.9016
X-1.1063Y2.815
X-1.1063Y2.748
X-1.1063Y2.6811
X-1.1063Y2.5945
X-1.1063Y2.5276
X-1.1063Y2.4606
X-1.1063Y2.374
X-1.1063Y2.3071
X-1.1063Y2.2402
X-1.1063Y2.1535
X-1.1063Y2.0866
X-1.1063Y2.0197
X-1.1063Y1.9331
X-1.1063Y1.8661
X-1.1063Y1.7992
X-1.1063Y1.7126
X-1.1063Y1.6457
X-1.1063Y1.5787
X-1.1063Y0.6575
X-1.1063Y0.5906
X-1.1063Y0.5236
X-1.1063Y0.437
X-1.1063Y0.3701
X-1.1063Y0.3031
X-1.1063Y0.2165
X-1.1063Y0.1496
X-1.1063Y0.0827
X-1.1063Y-0.0039
X-1.1063Y-0.0709
X-1.1063Y-0.1378
X-0.8819Y4.1378
X-0.8819Y4.0709
X-0.8819Y4.0039
X-0.8819Y3.9173
X-0.8819Y3.8504
X-0.8819Y3.7835
X-0.8819Y3.6969
X-0.8819Y3.6299
X-0.8819Y3.563
X-0.8819Y3.4764
X-0.8819Y3.4094
X-0.8819Y3.3425
X-0.8819Y3.2559
X-0.8819Y3.189
X-0.8819Y3.122
X-0.8819Y3.0354
X-0.8819Y2.9685
X-0.8819Y2.9016
X-0.8819Y2.815
X-0.8819Y2.748
X-0.8819Y2.6811
X-0.8819Y2.5945
X-0.8819Y2.5276
X-0.8819Y2.4606
X-0.8819Y2.374
X-0.8819Y2.3071
X-0.8819Y2.2402
X-0.8819Y2.1535
X-0.8819Y2.0866
X-0.8819Y2.0197
X-0.8819Y1.9331
X-0.8819Y1.8661
X-0.8819Y1.7992
X-0.8819Y1.7126
X-0.8819Y1.6457
X-0.8819Y1.5787
X-0.8819Y0.6575
X-0.8819Y0.5906
X-0.8819Y0.5236
X-0.8819Y0.437
X-0.8819Y0.3701
X-0.8819Y0.3031
X-0.8819Y0.2165
X-0.8819Y0.1496
X-0.8819Y0.0827
X-0.8819Y-0.0039
X-0.8819Y-0.0709
X-0.8819Y-0.1378
X-0.8386Y4.1378
X-0.8386Y4.0709
X-0.8386Y4.0039
X-0.8386Y3.9173
X-0.8386Y3.8504
X-0.8386Y3.7835
X-0.8386Y3.6969
X-0.8386Y3.6299
X-0.8386Y3.563
X-0.8386Y3.4764
X-0.8386Y3.4094
X-0.8386Y3.3425
X-0.8386Y3.2559
X-0.8386Y3.189
X-0.8386Y3.122
X-0.8386Y3.0354
X-0.8386Y2.9685
X-0.8386Y2.9016
X-0.8386Y2.815
X-0.8386Y2.748
X-0.8386Y2.6811
X-0.8386Y2.5945
X-0.8386Y2.5276
X-0.8386Y2.4606
X-0.8386Y2.374
X-0.8386Y2.3071
X-0.8386Y2.2402
X-0.8386Y2.1535
X-0.8386Y2.0866
X-0.8386Y2.0197
X-0.8386Y1.9331
X-0.8386Y1.8661
X-0.8386Y1.7992
X-0.8386Y1.7126
X-0.8386Y1.6457
X-0.8386Y1.5787
X-0.8386Y0.6575
X-0.8386Y0.5906
X-0.8386Y0.5236
X-0.8386Y0.437
X-0.8386Y0.3701
X-0.8386Y0.3031
X-0.8386Y0.2165
X-0.8386Y0.1496
X-0.8386Y0.0827
X-0.8386Y-0.0039
X-0.8386Y-0.0709
X-0.8386Y-0.1378
X-0.6142Y4.1378
X-0.6142Y4.0709
X-0.6142Y4.0039
X-0.6142Y3.9173
X-0.6142Y3.8504
X-0.6142Y3.7835
X-0.6142Y3.6969
X-0.6142Y3.6299
X-0.6142Y3.563
X-0.6142Y3.4764
X-0.6142Y3.4094
X-0.6142Y3.3425
X-0.6142Y3.2559
X-0.6142Y3.189
X-0.6142Y3.122
X-0.6142Y3.0354
X-0.6142Y2.9685
X-0.6142Y2.9016
X-0.6142Y2.815
X-0.6142Y2.748
X-0.6142Y2.6811
X-0.6142Y2.5945
X-0.6142Y2.5276
X-0.6142Y2.4606
X-0.6142Y2.374
X-0.6142Y2.3071
X-0.6142Y2.2402
X-0.6142Y2.1535
X-0.6142Y2.0866
X-0.6142Y2.0197
X-0.6142Y1.9331
X-0.6142Y1.8661
X-0.6142Y1.7992
X-0.6142Y1.7126
X-0.6142Y1.6457
X-0.6142Y1.5787
X-0.6142Y0.6575
X-0.6142Y0.5906
X-0.6142Y0.5236
X-0.6142Y0.437
X-0.6142Y0.3701
X-0.6142Y0.3031
X-0.6142Y0.2165
X-0.6142Y0.1496
X-0.6142Y0.0827
X-0.6142Y-0.0039
X-0.6142Y-0.0709
X-0.6142Y-0.1378
X-0.5709Y4.1378
X-0.5709Y4.0709
X-0.5709Y4.0039
X-0.5709Y3.9173
X-0.5709Y3.8504
X-0.5709Y3.7835
X-0.5709Y3.6969
X-0.5709Y3.6299
X-0.5709Y3.563
X-0.5709Y3.4764
X-0.5709Y3.4094
X-0.5709Y3.3425
X-0.5709Y3.2559
X-0.5709Y3.189
X-0.5709Y3.122
X-0.5709Y3.0354
X-0.5709Y2.9685
X-0.5709Y2.9016
X-0.5709Y2.815
X-0.5709Y2.748
X-0.5709Y2.6811
X-0.5709Y2.5945
X-0.5709Y2.5276
X-0.5709Y2.4606
X-0.5709Y2.374
X-0.5709Y2.3071
X-0.5709Y2.2402
X-0.5709Y2.1535
X-0.5709Y2.0866
X-0.5709Y2.0197
X-0.5709Y1.9331
X-0.5709Y1.8661
X-0.5709Y1.7992
X-0.5709Y1.7126
X-0.5709Y1.6457
X-0.5709Y1.5787
X-0.5709Y1.3189
X-0.5709Y1.252
X-0.5709Y1.185
X-0.5709Y1.0984
X-0.5709Y1.0315
X-0.5709Y0.9646
X-0.5709Y0.878
X-0.5709Y0.811
X-0.5709Y0.7441
X-0.5709Y0.6575
X-0.5709Y0.5906
X-0.5709Y0.5236
X-0.5709Y0.437
X-0.5709Y0.3701
X-0.5709Y0.3031
X-0.5709Y0.2165
X-0.5709Y0.1496
X-0.5709Y0.0827
X-0.3465Y4.1378
X-0.3465Y4.0709
X-0.3465Y4.0039
X-0.3465Y3.9173
X-0.3465Y3.8504
X-0.3465Y3.7835
X-0.3465Y3.6969
X-0.3465Y3.6299
X-0.3465Y3.563
X-0.3465Y3.4764
X-0.3465Y3.4094
X-0.3465Y3.3425
X-0.3465Y3.2559
X-0.3465Y3.189
X-0.3465Y3.122
X-0.3465Y3.0354
X-0.3465Y2.9685
X-0.3465Y2.9016
X-0.3465Y2.815
X-0.3465Y2.748
X-0.3465Y2.6811
X-0.3465Y2.5945
X-0.3465Y2.5276
X-0.3465Y2.4606
X-0.3465Y2.374
X-0.3465Y2.3071
X-0.3465Y2.2402
X-0.3465Y2.1535
X-0.3465Y2.0866
X-0.3465Y2.0197
X-0.3465Y1.9331
X-0.3465Y1.8661
X-0.3465Y1.7992
X-0.3465Y1.7126
X-0.3465Y1.6457
X-0.3465Y1.5787
X-0.3465Y1.3189
X-0.3465Y1.252
X-0.3465Y1.185
X-0.3465Y1.0984
X-0.3465Y1.0315
X-0.3465Y0.9646
X-0.3465Y0.878
X-0.3465Y0.811
X-0.3465Y0.7441
X-0.3465Y0.6575
X-0.3465Y0.5906
X-0.3465Y0.5236
X-0.3465Y0.437
X-0.3465Y0.3701
X-0.3465Y0.3031
X-0.3465Y0.2165
X-0.3465Y0.1496
X-0.3465Y0.0827
X-0.2992Y4.1378
X-0.2992Y4.0709
X-0.2992Y4.0039
X-0.2992Y3.9173
X-0.2992Y3.8504
X-0.2992Y3.7835
X-0.2992Y3.6969
X-0.2992Y3.6299
X-0.2992Y3.563
X-0.2992Y3.4764
X-0.2992Y3.4094
X-0.2992Y3.3425
X-0.2992Y3.2559
X-0.2992Y3.189
X-0.2992Y3.122
X-0.2992Y3.0354
X-0.2992Y2.9685
X-0.2992Y2.9016
X-0.2992Y2.815
X-0.2992Y2.748
X-0.2992Y2.6811
X-0.2992Y2.5945
X-0.2992Y2.5276
X-0.2992Y2.4606
X-0.2992Y2.374
X-0.2992Y2.3071
X-0.2992Y2.2402
X-0.2992Y2.1535
X-0.2992Y2.0866
X-0.2992Y2.0197
X-0.2992Y1.9331
X-0.2992Y1.8661
X-0.2992Y1.7992
X-0.2992Y1.7126
X-0.2992Y1.6457
X-0.2992Y1.5787
X-0.2992Y1.3189
X-0.2992Y1.252
X-0.2992Y1.185
X-0.2992Y1.0984
X-0.2992Y1.0315
X-0.2992Y0.9646
X-0.2992Y0.878
X-0.2992Y0.811
X-0.2992Y0.7441
X-0.2992Y0.6575
X-0.2992Y0.5906
X-0.2992Y0.5236
X-0.2992Y0.437
X-0.2992Y0.3701
X-0.2992Y0.3031
X-0.2992Y0.2165
X-0.2992Y0.1496
X-0.2992Y0.0827
X-0.0748Y4.1378
X-0.0748Y4.0709
X-0.0748Y4.0039
X-0.0748Y3.9173
X-0.0748Y3.8504
X-0.0748Y3.7835
X-0.0748Y3.6969
X-0.0748Y3.6299
X-0.0748Y3.563
X-0.0748Y3.4764
X-0.0748Y3.4094
X-0.0748Y3.3425
X-0.0748Y3.2559
X-0.0748Y3.189
X-0.0748Y3.122
X-0.0748Y3.0354
X-0.0748Y2.9685
X-0.0748Y2.9016
X-0.0748Y2.815
X-0.0748Y2.748
X-0.0748Y2.6811
X-0.0748Y2.5945
X-0.0748Y2.5276
X-0.0748Y2.4606
X-0.0748Y2.374
X-0.0748Y2.3071
X-0.0748Y2.2402
X-0.0748Y2.1535
X-0.0748Y2.0866
X-0.0748Y2.0197
X-0.0748Y1.9331
X-0.0748Y1.8661
X-0.0748Y1.7992
X-0.0748Y1.7126
X-0.0748Y1.6457
X-0.0748Y1.5787
X-0.0748Y1.3189
X-0.0748Y1.252
X-0.0748Y1.185
X-0.0748Y1.0984
X-0.0748Y1.0315
X-0.0748Y0.9646
X-0.0748Y0.878
X-0.0748Y0.811
X-0.0748Y0.7441
X-0.0748Y0.6575
X-0.0748Y0.5906
X-0.0748Y0.5236
X-0.0748Y0.437
X-0.0748Y0.3701
X-0.0748Y0.3031
X-0.0748Y0.2165
X-0.0748Y0.1496
X-0.0748Y0.0827
X-0.0315Y4.1378
X-0.0315Y4.0709
X-0.0315Y4.0039
X-0.0315Y3.9173
X-0.0315Y3.8504
X-0.0315Y3.7835
X-0.0315Y3.6969
X-0.0315Y3.6299
X-0.0315Y3.563
X-0.0315Y3.4764
X-0.0315Y3.4094
X-0.0315Y3.3425
X-0.0315Y3.2559
X-0.0315Y3.189
X-0.0315Y3.122
X-0.0315Y3.0354
X-0.0315Y2.9685
X-0.0315Y2.9016
X-0.0315Y2.815
X-0.0315Y2.748
X-0.0315Y2.6811
X-0.0315Y2.5945
X-0.0315Y2.5276
X-0.0315Y2.4606
X-0.0315Y2.374
X-0.0315Y2.3071
X-0.0315Y2.2402
X-0.0315Y2.1535
X-0.0315Y2.0866
X-0.0315Y2.0197
X-0.0315Y1.9331
X-0.0315Y1.8661
X-0.0315Y1.7992
X-0.0315Y1.7126
X-0.0315Y1.6457
X-0.0315Y1.5787
X-0.0315Y1.3189
X-0.0315Y1.252
X-0.0315Y1.185
X-0.0315Y1.0984
X-0.0315Y1.0315
X-0.0315Y0.9646
X-0.0315Y0.878
X-0.0315Y0.811
X-0.0315Y0.7441
X-0.0315Y0.6575
X-0.0315Y0.5906
X-0.0315Y0.5236
X-0.0315Y0.437
X-0.0315Y0.3701
X-0.0315Y0.3031
X-0.0315Y0.2165
X-0.0315Y0.1496
X-0.0315Y0.0827
X0.1929Y4.1378
X0.1929Y4.0709
X0.1929Y4.0039
X0.1929Y3.9173
X0.1929Y3.8504
X0.1929Y3.7835
X0.1929Y3.6969
X0.1929Y3.6299
X0.1929Y3.563
X0.1929Y3.4764
X0.1929Y3.4094
X0.1929Y3.3425
X0.1929Y3.2559
X0.1929Y3.189
X0.1929Y3.122
X0.1929Y3.0354
X0.1929Y2.9685
X0.1929Y2.9016
X0.1929Y2.815
X0.1929Y2.748
X0.1929Y2.6811
X0.1929Y2.5945
X0.1929Y2.5276
X0.1929Y2.4606
X0.1929Y2.374
X0.1929Y2.3071
X0.1929Y2.2402
X0.1929Y2.1535
X0.1929Y2.0866
X0.1929Y2.0197
X0.1929Y1.9331
X0.1929Y1.8661
X0.1929Y1.7992
X0.1929Y1.7126
X0.1929Y1.6457
X0.1929Y1.5787
X0.1929Y1.3189
X0.1929Y1.252
X0.1929Y1.185
X0.1929Y1.0984
X0.1929Y1.0315
X0.1929Y0.9646
X0.1929Y0.878
X0.1929Y0.811
X0.1929Y0.7441
X0.1929Y0.6575
X0.1929Y0.5906
X0.1929Y0.5236
X0.1929Y0.437
X0.1929Y0.3701
X0.1929Y0.3031
X0.1929Y0.2165
X0.1929Y0.1496
X0.1929Y0.0827
X0.2362Y4.1378
X0.2362Y4.0709
X0.2362Y4.0039
X0.2362Y3.9173
X0.2362Y3.8504
X0.2362Y3.7835
X0.2362Y3.6969
X0.2362Y3.6299
X0.2362Y3.563
X0.2362Y3.4764
X0.2362Y3.4094
X0.2362Y3.3425
X0.2362Y3.2559
X0.2362Y3.189
X0.2362Y3.122
X0.2362Y3.0354
X0.2362Y2.9685
X0.2362Y2.9016
X0.2362Y2.815
X0.2362Y2.748
X0.2362Y2.6811
X0.2362Y2.5945
X0.2362Y2.5276
X0.2362Y2.4606
X0.2362Y2.374
X0.2362Y2.3071
X0.2362Y2.2402
X0.2362Y2.1535
X0.2362Y2.0866
X0.2362Y2.0197
X0.2362Y1.9331
X0.2362Y1.8661
X0.2362Y1.7992
X0.2362Y1.7126
X0.2362Y1.6457
X0.2362Y1.5787
X0.3465Y0.626
X0.3465Y0.5551
X0.3465Y0.4882
X0.3465Y0.4055
X0.3465Y0.3346
X0.3465Y0.2677
X0.4646Y4.1378
X0.4646Y4.0709
X0.4646Y4.0039
X0.4646Y3.9173
X0.4646Y3.8504
X0.4646Y3.7835
X0.4646Y3.6969
X0.4646Y3.6299
X0.4646Y3.563
X0.4646Y3.4764
X0.4646Y3.4094
X0.4646Y3.3425
X0.4646Y3.2559
X0.4646Y3.189
X0.4646Y3.122
X0.4646Y3.0354
X0.4646Y2.9685
X0.4646Y2.9016
X0.4646Y2.815
X0.4646Y2.748
X0.4646Y2.6811
X0.4646Y2.5945
X0.4646Y2.5276
X0.4646Y2.4606
X0.4646Y2.374
X0.4646Y2.3071
X0.4646Y2.2402
X0.4646Y2.1535
X0.4646Y2.0866
X0.4646Y2.0197
X0.4646Y1.9331
X0.4646Y1.8661
X0.4646Y1.7992
X0.4646Y1.7126
X0.4646Y1.6457
X0.4646Y1.5787
X0.5079Y4.1378
X0.5079Y4.0709
X0.5079Y4.0039
X0.5079Y3.9173
X0.5079Y3.8504
X0.5079Y3.7835
X0.5079Y3.6969
X0.5079Y3.6299
X0.5079Y3.563
X0.5079Y3.4764
X0.5079Y3.4094
X0.5079Y3.3425
X0.5079Y3.2559
X0.5079Y3.189
X0.5079Y3.122
X0.5079Y3.0354
X0.5079Y2.9685
X0.5079Y2.9016
X0.5079Y2.815
X0.5079Y2.748
X0.5079Y2.6811
X0.5748Y0.626
X0.5748Y0.5551
X0.5748Y0.4882
X0.5748Y0.4055
X0.5748Y0.3346
X0.5748Y0.2677
X0.6181Y0.626
X0.6181Y0.5551
X0.6181Y0.4882
X0.6181Y0.4055
X0.6181Y0.3346
X0.6181Y0.2677
X0.6181Y0.185
X0.6181Y0.1142
X0.6181Y0.0472
X0.6181Y-0.0354
X0.6181Y-0.1063
X0.6181Y-0.1732
X0.7323Y4.1378
X0.7323Y4.0709
X0.7323Y4.0039
X0.7323Y3.9173
X0.7323Y3.8504
X0.7323Y3.7835
X0.7323Y3.6969
X0.7323Y3.6299
X0.7323Y3.563
X0.7323Y3.4764
X0.7323Y3.4094
X0.7323Y3.3425
X0.7323Y3.2559
X0.7323Y3.189
X0.7323Y3.122
X0.7323Y3.0354
X0.7323Y2.9685
X0.7323Y2.9016
X0.7323Y2.815
X0.7323Y2.748
X0.7323Y2.6811
X0.8386Y0.626
X0.8386Y0.5551
X0.8386Y0.4882
X0.8386Y0.4055
X0.8386Y0.3346
X0.8386Y0.2677
X0.8386Y0.185
X0.8386Y0.1142
X0.8386Y0.0472
X0.8386Y-0.0354
X0.8386Y-0.1063
X0.8386Y-0.1732
X0.8819Y0.626
X0.8819Y0.5551
X0.8819Y0.4882
X0.8819Y0.4055
X0.8819Y0.3346
X0.8819Y0.2677
X0.8819Y0.185
X0.8819Y0.1142
X0.8819Y0.0472
X0.8819Y-0.0354
X0.8819Y-0.1063
X0.8819Y-0.1732
X1.1063Y0.626
X1.1063Y0.5551
X1.1063Y0.4882
X1.1063Y0.4055
X1.1063Y0.3346
X1.1063Y0.2677
X1.1063Y0.185
X1.1063Y0.1142
X1.1063Y0.0472
X1.1063Y-0.0354
X1.1063Y-0.1063
X1.1063Y-0.1732
X1.1496Y4.1378
X1.1496Y4.0709
X1.1496Y4.0039
X1.1496Y3.9173
X1.1496Y3.8504
X1.1496Y3.7835
X1.1496Y3.7008
X1.1496Y3.6295
X1.1496Y3.563
X1.1496Y3.4764
X1.1496Y3.4094
X1.1496Y3.3425
X1.1496Y3.2559
X1.1496Y3.189
X1.1496Y3.122
X1.1496Y3.0354
X1.1496Y2.9681
X1.1496Y2.9016
X1.1496Y2.815
X1.1496Y2.748
X1.1496Y2.6811
X1.1496Y2.5945
X1.1496Y2.5276
X1.1496Y2.4606
X1.1496Y2.374
X1.1496Y2.3071
X1.1496Y2.2402
X1.1496Y2.1535
X1.1496Y2.0866
X1.1496Y2.0197
X1.1496Y1.9331
X1.1496Y1.8661
X1.1496Y1.7992
X1.1496Y1.7126
X1.1496Y1.6457
X1.1496Y1.5787
X1.1496Y0.626
X1.1496Y0.5551
X1.1496Y0.4882
X1.1496Y0.4055
X1.1496Y0.3346
X1.1496Y0.2677
X1.1496Y0.185
X1.1496Y0.1142
X1.1496Y0.0472
X1.1496Y-0.0354
X1.1496Y-0.1063
X1.1496Y-0.1732
X1.374Y4.1378
X1.374Y4.0709
X1.374Y4.0039
X1.374Y3.9173
X1.374Y3.8504
X1.374Y3.7835
X1.374Y3.7008
X1.374Y3.6295
X1.374Y3.563
X1.374Y3.4764
X1.374Y3.4094
X1.374Y3.3425
X1.374Y3.2559
X1.374Y3.189
X1.374Y3.122
X1.374Y3.0354
X1.374Y2.9685
X1.374Y2.9016
X1.374Y2.815
X1.374Y2.748
X1.374Y2.6811
X1.374Y2.5945
X1.374Y2.5276
X1.374Y2.4606
X1.374Y2.374
X1.374Y2.3071
X1.374Y2.2402
X1.374Y2.1535
X1.374Y2.0866
X1.374Y2.0197
X1.374Y1.9331
X1.374Y1.8661
X1.374Y1.7992
X1.374Y1.7126
X1.374Y1.6457
X1.374Y1.5787
X1.374Y0.626
X1.374Y0.5551
X1.374Y0.4882
X1.374Y0.4055
X1.374Y0.3346
X1.374Y0.2677
X1.374Y0.185
X1.374Y0.1142
X1.374Y0.0472
X1.374Y-0.0354
X1.374Y-0.1063
X1.374Y-0.1732
X1.4173Y4.1378
X1.4173Y4.0709
X1.4173Y4.0039
X1.4173Y3.9173
X1.4173Y3.8504
X1.4173Y3.7835
X1.4173Y3.7008
X1.4173Y3.6299
X1.4173Y3.563
X1.4173Y3.4764
X1.4173Y3.4094
X1.4173Y3.3425
X1.4173Y3.2559
X1.4173Y3.189
X1.4173Y3.122
X1.4173Y3.0354
X1.4173Y2.9685
X1.4173Y2.9016
X1.4173Y2.815
X1.4173Y2.748
X1.4173Y2.6811
X1.4173Y2.5945
X1.4173Y2.5276
X1.4173Y2.4606
X1.4173Y2.374
X1.4173Y2.3071
X1.4173Y2.2402
X1.4173Y2.1535
X1.4173Y2.0866
X1.4173Y2.0197
X1.4173Y1.9331
X1.4173Y1.8661
X1.4173Y1.7992
X1.4173Y1.7126
X1.4173Y1.6457
X1.4173Y1.5787
X1.4173Y1.0669
X1.4173Y0.9961
X1.4173Y0.9291
X1.4173Y0.8465
X1.4173Y0.7756
X1.4173Y0.7087
X1.4173Y0.626
X1.4173Y0.5551
X1.4173Y0.4882
X1.4173Y0.4055
X1.4173Y0.3346
X1.4173Y0.2677
X1.4173Y0.185
X1.4173Y0.1142
X1.4173Y0.0472
X1.4173Y-0.0354
X1.4173Y-0.1063
X1.4173Y-0.1732
X1.6417Y4.1378
X1.6417Y4.0709
X1.6417Y4.0039
X1.6417Y3.9173
X1.6417Y3.8504
X1.6417Y3.7835
X1.6417Y3.7008
X1.6417Y3.6299
X1.6417Y3.563
X1.6417Y3.4764
X1.6417Y3.4094
X1.6417Y3.3425
X1.6417Y3.2559
X1.6417Y3.189
X1.6417Y3.122
X1.6417Y3.0354
X1.6417Y2.9685
X1.6417Y2.9016
X1.6417Y2.815
X1.6417Y2.748
X1.6417Y2.6811
X1.6417Y2.5945
X1.6417Y2.5276
X1.6417Y2.4606
X1.6417Y2.374
X1.6417Y2.3071
X1.6417Y2.2402
X1.6417Y2.1535
X1.6417Y2.0866
X1.6417Y2.0197
X1.6417Y1.9331
X1.6417Y1.8661
X1.6417Y1.7992
X1.6417Y1.7126
X1.6417Y1.6457
X1.6417Y1.5787
X1.6417Y1.0669
X1.6417Y0.9961
X1.6417Y0.9291
X1.6417Y0.8465
X1.6417Y0.7756
X1.6417Y0.7087
X1.6417Y0.626
X1.6417Y0.5551
X1.6417Y0.4882
X1.6417Y0.4055
X1.6417Y0.3346
X1.6417Y0.2677
X1.6417Y0.185
X1.6417Y0.1142
X1.6417Y0.0472
X1.6417Y-0.0354
X1.6417Y-0.1063
X1.6417Y-0.1732
X1.685Y4.1378
X1.685Y4.0709
X1.685Y4.0039
X1.685Y3.9173
X1.685Y3.8504
X1.685Y3.7835
X1.685Y3.7008
X1.685Y3.6299
X1.685Y3.563
X1.685Y3.4764
X1.685Y3.4094
X1.685Y3.3425
X1.685Y3.2559
X1.685Y3.189
X1.685Y3.122
X1.685Y3.0354
X1.685Y2.9685
X1.685Y2.9016
X1.685Y2.815
X1.685Y2.748
X1.685Y2.6811
X1.685Y2.5945
X1.685Y2.5276
X1.685Y2.4606
X1.685Y2.374
X1.685Y2.3071
X1.685Y2.2402
X1.685Y2.1535
X1.685Y2.0866
X1.685Y2.0197
X1.685Y1.9331
X1.685Y1.8661
X1.685Y1.7992
X1.685Y1.7126
X1.685Y1.6457
X1.685Y1.5787
X1.685Y1.2874
X1.685Y1.2165
X1.685Y1.1496
X1.685Y1.0669
X1.685Y0.9961
X1.685Y0.9291
X1.685Y0.8465
X1.685Y0.7756
X1.685Y0.7087
X1.685Y0.626
X1.685Y0.5551
X1.685Y0.4882
X1.685Y0.4055
X1.685Y0.3346
X1.685Y0.2677
X1.685Y0.185
X1.685Y0.1142
X1.685Y0.0472
X1.685Y-0.0354
X1.685Y-0.1063
X1.685Y-0.1732
X1.9134Y4.1378
X1.9134Y4.0709
X1.9134Y4.0039
X1.9134Y3.9173
X1.9134Y3.8504
X1.9134Y3.7835
X1.9134Y3.7008
X1.9134Y3.6299
X1.9134Y3.563
X1.9134Y3.4764
X1.9134Y3.4094
X1.9134Y3.3425
X1.9134Y3.2559
X1.9134Y3.189
X1.9134Y3.122
X1.9134Y3.0354
X1.9134Y2.9685
X1.9134Y2.9016
X1.9134Y2.815
X1.9134Y2.748
X1.9134Y2.6811
X1.9134Y2.5945
X1.9134Y2.5276
X1.9134Y2.4606
X1.9134Y2.374
X1.9134Y2.3071
X1.9134Y2.2402
X1.9134Y2.1535
X1.9134Y2.0866
X1.9134Y2.0197
X1.9134Y1.9331
X1.9134Y1.8661
X1.9134Y1.7992
X1.9134Y1.7126
X1.9134Y1.6457
X1.9134Y1.5787
X1.9134Y1.2874
X1.9134Y1.2165
X1.9134Y1.1496
X1.9134Y1.0669
X1.9134Y0.9961
X1.9134Y0.9291
X1.9134Y0.8465
X1.9134Y0.7756
X1.9134Y0.7087
X1.9134Y0.626
X1.9134Y0.5551
X1.9134Y0.4882
X1.9134Y0.4055
X1.9134Y0.3346
X1.9134Y0.2677
X1.9134Y0.185
X1.9134Y0.1142
X1.9134Y0.0472
X1.9134Y-0.0354
X1.9134Y-0.1063
X1.9134Y-0.1732
X1.9528Y4.1378
X1.9528Y4.0709
X1.9528Y4.0039
X1.9528Y3.9173
X1.9528Y3.8504
X1.9528Y3.7835
X1.9528Y3.7008
X1.9528Y3.6299
X1.9528Y3.563
X1.9528Y3.4764
X1.9528Y3.4094
X1.9528Y3.3425
X1.9528Y3.2559
X1.9528Y3.189
X1.9528Y3.122
X1.9528Y3.0354
X1.9528Y2.9685
X1.9528Y2.9016
X1.9528Y2.815
X1.9528Y2.748
X1.9528Y2.6811
X1.9528Y2.5945
X1.9528Y2.5276
X1.9528Y2.4606
X1.9528Y2.374
X1.9528Y2.3071
X1.9528Y2.2402
X1.9528Y2.1535
X1.9528Y2.0866
X1.9528Y2.0197
X1.9528Y1.9331
X1.9528Y1.8661
X1.9528Y1.7992
X1.9528Y1.7126
X1.9528Y1.6457
X1.9528Y1.5787
X1.9528Y1.2874
X1.9528Y1.2165
X1.9528Y1.1496
X1.9528Y1.0669
X1.9528Y0.9961
X1.9528Y0.9291
X1.9528Y0.8465
X1.9528Y0.7756
X1.9528Y0.7087
X1.9528Y0.626
X1.9528Y0.5551
X1.9528Y0.4882
X1.9528Y0.4055
X1.9528Y0.3346
X1.9528Y0.2677
X1.9528Y0.185
X1.9528Y0.1142
X1.9528Y0.0472
X1.9528Y-0.0354
X1.9528Y-0.1063
X1.9528Y-0.1732
X2.1772Y4.1378
X2.1772Y4.0709
X2.1772Y4.0039
X2.1772Y3.9173
X2.1772Y3.8504
X2.1772Y3.7835
X2.1772Y3.7008
X2.1772Y3.6299
X2.1772Y3.563
X2.1772Y3.4764
X2.1772Y3.4094
X2.1772Y3.3425
X2.1772Y3.2559
X2.1772Y3.189
X2.1772Y3.122
X2.1772Y3.0354
X2.1772Y2.9685
X2.1772Y2.9016
X2.1772Y2.815
X2.1772Y2.748
X2.1772Y2.6811
X2.1772Y2.5945
X2.1772Y2.5276
X2.1772Y2.4606
X2.1772Y2.374
X2.1772Y2.3071
X2.1772Y2.2402
X2.1772Y2.1535
X2.1772Y2.0866
X2.1772Y2.0197
X2.1772Y1.9331
X2.1772Y1.8661
X2.1772Y1.7992
X2.1772Y1.7126
X2.1772Y1.6457
X2.1772Y1.5787
X2.1772Y1.2874
X2.1772Y1.2165
X2.1772Y1.1496
X2.1772Y1.0669
X2.1772Y0.9961
X2.1772Y0.9291
X2.1772Y0.8465
X2.1772Y0.7756
X2.1772Y0.7087
X2.1772Y0.626
X2.1772Y0.5551
X2.1772Y0.4882
X2.1772Y0.4055
X2.1772Y0.3346
X2.1772Y0.2677
X2.1772Y0.185
X2.1772Y0.1142
X2.1772Y0.0472
X2.1772Y-0.0354
X2.1772Y-0.1063
X2.1772Y-0.1732
X2.2205Y4.1378
X2.2205Y4.0709
X2.2205Y4.0039
X2.2205Y3.9173
X2.2205Y3.8504
X2.2205Y3.7835
X2.2205Y3.7008
X2.2205Y3.6299
X2.2205Y3.563
X2.2205Y3.4764
X2.2205Y3.4094
X2.2205Y3.3425
X2.2205Y3.2559
X2.2205Y3.189
X2.2205Y3.122
X2.2205Y3.0354
X2.2205Y2.9685
X2.2205Y2.9016
X2.2205Y2.815
X2.2205Y2.748
X2.2205Y2.6811
X2.2205Y2.5945
X2.2205Y2.5276
X2.2205Y2.4606
X2.2205Y2.374
X2.2205Y2.3071
X2.2205Y2.2402
X2.2205Y2.1535
X2.2205Y2.0866
X2.2205Y2.0197
X2.2205Y1.9331
X2.2205Y1.8661
X2.2205Y1.7992
X2.2205Y1.7126
X2.2205Y1.6457
X2.2205Y1.5787
X2.2205Y1.2874
X2.2205Y1.2165
X2.2205Y1.1496
X2.2205Y1.0669
X2.2205Y0.9961
X2.2205Y0.9291
X2.2205Y0.8465
X2.2205Y0.7756
X2.2205Y0.7087
X2.2205Y0.626
X2.2205Y0.5551
X2.2205Y0.4882
X2.2205Y0.4055
X2.2205Y0.3346
X2.2205Y0.2677
X2.2205Y0.185
X2.2205Y0.1142
X2.2205Y0.0472
X2.2205Y-0.0354
X2.2205Y-0.1063
X2.2205Y-0.1732
X2.4449Y4.1378
X2.4449Y4.0709
X2.4449Y4.0039
X2.4449Y3.9173
X2.4449Y3.8504
X2.4449Y3.7835
X2.4449Y3.7008
X2.4449Y3.6299
X2.4449Y3.563
X2.4449Y3.4764
X2.4449Y3.4094
X2.4449Y3.3425
X2.4449Y3.2559
X2.4449Y3.189
X2.4449Y3.122
X2.4449Y3.0354
X2.4449Y2.9685
X2.4449Y2.9016
X2.4449Y2.815
X2.4449Y2.748
X2.4449Y2.6811
X2.4449Y2.5945
X2.4449Y2.5276
X2.4449Y2.4606
X2.4449Y2.374
X2.4449Y2.3071
X2.4449Y2.2402
X2.4449Y2.1535
X2.4449Y2.0866
X2.4449Y2.0197
X2.4449Y1.9331
X2.4449Y1.8661
X2.4449Y1.7992
X2.4449Y1.7126
X2.4449Y1.6457
X2.4449Y1.5787
X2.4449Y1.2874
X2.4449Y1.2165
X2.4449Y1.1496
X2.4449Y1.0669
X2.4449Y0.9961
X2.4449Y0.9291
X2.4449Y0.8465
X2.4449Y0.7756
X2.4449Y0.7087
X2.4449Y0.626
X2.4449Y0.5551
X2.4449Y0.4882
X2.4449Y0.4055
X2.4449Y0.3346
X2.4449Y0.2677
X2.4449Y0.185
X2.4449Y0.1142
X2.4449Y0.0472
X2.4449Y-0.0354
X2.4449Y-0.1063
X2.4449Y-0.1732
T3
X1.1181Y0.9646
X-1.1181Y0.9646
X1.1181Y1.3386
X-1.1181Y1.3386
T0
M30
