M48
;DRILL file {KiCad (5.0.0)} date 05/01/19 16:30:45
;FORMAT={-:-/ absolute / metric / decimal}
FMAT,2
METRIC,TZ
T1C0.500
T2C0.559
T3C3.200
%
G90
G05
M71
T1
X-30.8Y34.
X-30.097Y35.697
X-30.097Y32.303
X-28.4Y36.4
X-28.4Y31.6
X-26.703Y35.697
X-26.703Y32.303
X-26.Y34.
X26.Y34.
X26.703Y35.697
X26.703Y32.303
X28.4Y36.4
X28.4Y31.6
X30.097Y35.697
X30.097Y32.303
X30.8Y34.
X-30.8Y24.5
X-30.097Y26.197
X-30.097Y22.803
X-28.4Y26.9
X-28.4Y22.1
X-26.703Y26.197
X-26.703Y22.803
X-26.Y24.5
X26.Y24.5
X26.703Y26.197
X26.703Y22.803
X28.4Y26.9
X28.4Y22.1
X30.097Y26.197
X30.097Y22.803
X30.8Y24.5
T2
X-62.1Y110.7
X-62.1Y109.
X-62.1Y107.3
X-62.1Y105.1
X-62.1Y103.4
X-62.1Y101.7
X-62.1Y99.5
X-62.1Y97.8
X-62.1Y96.1
X-62.1Y93.9
X-62.1Y92.2
X-62.1Y90.5
X-62.1Y88.3
X-62.1Y86.6
X-62.1Y84.9
X-62.1Y82.7
X-62.1Y81.
X-62.1Y79.3
X-62.1Y77.1
X-62.1Y75.4
X-62.1Y73.7
X-62.1Y71.5
X-62.1Y69.8
X-62.1Y68.1
X-62.1Y65.9
X-62.1Y64.2
X-62.1Y62.5
X-62.1Y60.3
X-62.1Y58.6
X-62.1Y56.9
X-62.1Y54.7
X-62.1Y53.
X-62.1Y51.3
X-62.1Y49.1
X-62.1Y47.4
X-62.1Y45.7
X-62.1Y43.5
X-62.1Y41.8
X-62.1Y40.1
X-62.1Y33.5
X-62.1Y31.8
X-62.1Y30.1
X-62.1Y27.9
X-62.1Y26.2
X-62.1Y24.5
X-62.1Y22.3
X-62.1Y20.6
X-62.1Y18.9
X-62.1Y16.7
X-62.1Y15.
X-62.1Y13.3
X-62.1Y11.1
X-62.1Y9.4
X-62.1Y7.7
X-62.1Y5.5
X-62.1Y3.8
X-62.1Y2.1
X-62.1Y-0.1
X-62.1Y-1.8
X-62.1Y-3.5
X-56.4Y110.7
X-56.4Y109.
X-56.4Y107.3
X-56.4Y105.1
X-56.4Y103.4
X-56.4Y101.7
X-56.4Y99.5
X-56.4Y97.8
X-56.4Y96.1
X-56.4Y93.9
X-56.4Y92.2
X-56.4Y90.5
X-56.4Y88.3
X-56.4Y86.6
X-56.4Y84.9
X-56.4Y82.7
X-56.4Y81.
X-56.4Y79.3
X-56.4Y77.1
X-56.4Y75.4
X-56.4Y73.7
X-56.4Y71.5
X-56.4Y69.8
X-56.4Y68.1
X-56.4Y65.9
X-56.4Y64.2
X-56.4Y62.5
X-56.4Y60.3
X-56.4Y58.6
X-56.4Y56.9
X-56.4Y54.7
X-56.4Y53.
X-56.4Y51.3
X-56.4Y49.1
X-56.4Y47.4
X-56.4Y45.7
X-56.4Y43.5
X-56.4Y41.8
X-56.4Y40.1
X-56.4Y33.5
X-56.4Y31.8
X-56.4Y30.1
X-56.4Y27.9
X-56.4Y26.2
X-56.4Y24.5
X-56.4Y22.3
X-56.4Y20.6
X-56.4Y18.9
X-56.4Y16.7
X-56.4Y15.
X-56.4Y13.3
X-56.4Y11.1
X-56.4Y9.4
X-56.4Y7.7
X-56.4Y5.5
X-56.4Y3.8
X-56.4Y2.1
X-56.4Y-0.1
X-56.4Y-1.8
X-56.4Y-3.5
X-54.4Y110.7
X-54.4Y109.
X-54.4Y107.3
X-54.4Y105.1
X-54.4Y103.4
X-54.4Y101.7
X-54.4Y99.5
X-54.4Y97.8
X-54.4Y96.1
X-54.4Y93.9
X-54.4Y92.2
X-54.4Y90.5
X-54.4Y88.3
X-54.4Y86.6
X-54.4Y84.9
X-54.4Y82.7
X-54.4Y81.
X-54.4Y79.3
X-54.4Y77.1
X-54.4Y75.4
X-54.4Y73.7
X-54.4Y71.5
X-54.4Y69.8
X-54.4Y68.1
X-54.4Y65.9
X-54.4Y64.2
X-54.4Y62.5
X-54.4Y60.3
X-54.4Y58.6
X-54.4Y56.9
X-54.4Y54.7
X-54.4Y53.
X-54.4Y51.3
X-54.4Y49.1
X-54.4Y47.4
X-54.4Y45.7
X-54.4Y43.5
X-54.4Y41.8
X-54.4Y40.1
X-54.4Y33.5
X-54.4Y31.8
X-54.4Y30.1
X-54.4Y27.9
X-54.4Y26.2
X-54.4Y24.5
X-54.4Y22.3
X-54.4Y20.6
X-54.4Y18.9
X-54.4Y16.7
X-54.4Y15.
X-54.4Y13.3
X-54.4Y11.1
X-54.4Y11.1
X-54.4Y9.4
X-54.4Y7.7
X-54.4Y5.5
X-54.4Y3.8
X-54.4Y2.1
X-54.4Y-0.1
X-54.4Y-1.8
X-54.4Y-3.5
X-48.7Y110.7
X-48.7Y109.
X-48.7Y107.3
X-48.7Y105.1
X-48.7Y103.4
X-48.7Y101.7
X-48.7Y99.5
X-48.7Y97.8
X-48.7Y96.1
X-48.7Y93.9
X-48.7Y92.2
X-48.7Y90.5
X-48.7Y88.3
X-48.7Y86.6
X-48.7Y84.9
X-48.7Y82.7
X-48.7Y81.
X-48.7Y79.3
X-48.7Y77.1
X-48.7Y75.4
X-48.7Y73.7
X-48.7Y71.5
X-48.7Y69.8
X-48.7Y68.1
X-48.7Y65.9
X-48.7Y64.2
X-48.7Y62.5
X-48.7Y60.3
X-48.7Y58.6
X-48.7Y56.9
X-48.7Y54.7
X-48.7Y53.
X-48.7Y51.3
X-48.7Y49.1
X-48.7Y47.4
X-48.7Y45.7
X-48.7Y43.5
X-48.7Y41.8
X-48.7Y40.1
X-48.7Y33.5
X-48.7Y31.8
X-48.7Y30.1
X-48.7Y27.9
X-48.7Y26.2
X-48.7Y24.5
X-48.7Y22.3
X-48.7Y20.6
X-48.7Y18.9
X-48.7Y16.7
X-48.7Y15.
X-48.7Y13.3
X-48.7Y11.1
X-48.7Y9.4
X-48.7Y7.7
X-48.7Y5.5
X-48.7Y3.8
X-48.7Y2.1
X-48.7Y-0.1
X-48.7Y-1.8
X-48.7Y-3.5
X-46.7Y110.7
X-46.7Y109.
X-46.7Y107.3
X-46.7Y105.1
X-46.7Y103.4
X-46.7Y101.7
X-46.7Y99.5
X-46.7Y97.8
X-46.7Y96.1
X-46.7Y93.9
X-46.7Y92.2
X-46.7Y90.5
X-46.7Y88.3
X-46.7Y86.6
X-46.7Y84.9
X-46.7Y82.7
X-46.7Y81.
X-46.7Y79.3
X-46.7Y77.1
X-46.7Y75.4
X-46.7Y73.7
X-46.7Y71.5
X-46.7Y69.8
X-46.7Y68.1
X-46.7Y65.9
X-46.7Y64.2
X-46.7Y62.5
X-46.7Y60.3
X-46.7Y58.6
X-46.7Y56.9
X-46.7Y54.7
X-46.7Y53.
X-46.7Y51.3
X-46.7Y49.1
X-46.7Y47.4
X-46.7Y45.7
X-46.7Y43.5
X-46.7Y41.8
X-46.7Y40.1
X-46.7Y33.5
X-46.7Y31.8
X-46.7Y30.1
X-46.7Y27.9
X-46.7Y26.2
X-46.7Y24.5
X-46.7Y22.3
X-46.7Y20.6
X-46.7Y18.9
X-46.6Y16.7
X-46.6Y15.
X-46.6Y13.3
X-46.6Y11.1
X-46.6Y9.4
X-46.6Y7.7
X-46.6Y5.5
X-46.6Y3.8
X-46.6Y2.1
X-46.6Y-0.1
X-46.6Y-1.8
X-46.6Y-3.5
X-41.Y110.7
X-41.Y109.
X-41.Y107.3
X-41.Y105.1
X-41.Y103.4
X-41.Y101.7
X-41.Y99.5
X-41.Y97.8
X-41.Y96.1
X-41.Y93.9
X-41.Y92.2
X-41.Y90.5
X-41.Y88.3
X-41.Y86.6
X-41.Y84.9
X-41.Y82.7
X-41.Y81.
X-41.Y79.3
X-41.Y77.1
X-41.Y75.4
X-41.Y73.7
X-41.Y71.5
X-41.Y69.8
X-41.Y68.1
X-41.Y65.9
X-41.Y64.2
X-41.Y62.5
X-41.Y60.3
X-41.Y58.6
X-41.Y56.9
X-41.Y54.7
X-41.Y53.
X-41.Y51.3
X-41.Y49.1
X-41.Y47.4
X-41.Y45.7
X-41.Y43.5
X-41.Y41.8
X-41.Y40.1
X-41.Y33.5
X-41.Y31.8
X-41.Y30.1
X-41.Y27.9
X-41.Y26.2
X-41.Y24.5
X-41.Y22.3
X-41.Y20.6
X-41.Y18.9
X-40.9Y16.7
X-40.9Y15.
X-40.9Y13.3
X-40.9Y11.1
X-40.9Y9.4
X-40.9Y7.7
X-40.9Y5.5
X-40.9Y3.8
X-40.9Y2.1
X-40.9Y-0.1
X-40.9Y-1.8
X-40.9Y-3.5
X-39.Y110.7
X-39.Y109.
X-39.Y107.3
X-39.Y105.1
X-39.Y103.4
X-39.Y101.7
X-39.Y99.5
X-39.Y97.8
X-39.Y96.1
X-39.Y93.9
X-39.Y92.2
X-39.Y90.5
X-39.Y88.3
X-39.Y86.6
X-39.Y84.9
X-39.Y82.7
X-39.Y81.
X-39.Y79.3
X-39.Y77.1
X-39.Y75.4
X-39.Y73.7
X-39.Y71.5
X-39.Y69.8
X-39.Y68.1
X-39.Y65.9
X-39.Y64.2
X-39.Y62.5
X-39.Y60.3
X-39.Y58.6
X-39.Y56.9
X-39.Y54.7
X-39.Y53.
X-39.Y51.3
X-39.Y49.1
X-39.Y47.4
X-39.Y45.7
X-39.Y43.5
X-39.Y41.8
X-39.Y40.1
X-39.Y27.9
X-39.Y26.2
X-39.Y24.5
X-39.Y22.3
X-39.Y20.6
X-39.Y18.9
X-39.Y16.7
X-39.Y15.
X-39.Y13.3
X-39.Y11.1
X-39.Y9.4
X-39.Y7.7
X-39.Y5.5
X-39.Y3.8
X-39.Y2.1
X-39.Y-0.1
X-39.Y-1.8
X-39.Y-3.5
X-33.3Y110.7
X-33.3Y109.
X-33.3Y107.3
X-33.3Y105.1
X-33.3Y103.4
X-33.3Y101.7
X-33.3Y99.5
X-33.3Y97.8
X-33.3Y96.1
X-33.3Y93.9
X-33.3Y92.2
X-33.3Y90.5
X-33.3Y88.3
X-33.3Y86.6
X-33.3Y84.9
X-33.3Y82.7
X-33.3Y81.
X-33.3Y79.3
X-33.3Y77.1
X-33.3Y75.4
X-33.3Y73.7
X-33.3Y71.5
X-33.3Y69.8
X-33.3Y68.1
X-33.3Y65.9
X-33.3Y64.2
X-33.3Y62.5
X-33.3Y60.3
X-33.3Y58.6
X-33.3Y56.9
X-33.3Y54.7
X-33.3Y53.
X-33.3Y51.3
X-33.3Y49.1
X-33.3Y47.4
X-33.3Y45.7
X-33.3Y43.5
X-33.3Y41.8
X-33.3Y40.1
X-33.3Y27.9
X-33.3Y26.2
X-33.3Y24.5
X-33.3Y22.3
X-33.3Y20.6
X-33.3Y18.9
X-33.3Y16.7
X-33.3Y15.
X-33.3Y13.3
X-33.3Y11.1
X-33.3Y9.4
X-33.3Y7.7
X-33.3Y5.5
X-33.3Y3.8
X-33.3Y2.1
X-33.3Y-0.1
X-33.3Y-1.8
X-33.3Y-3.5
X-31.3Y110.7
X-31.3Y109.
X-31.3Y107.3
X-31.3Y105.1
X-31.3Y103.4
X-31.3Y101.7
X-31.3Y99.5
X-31.3Y97.8
X-31.3Y96.1
X-31.3Y93.9
X-31.3Y92.2
X-31.3Y90.5
X-31.3Y88.3
X-31.3Y86.6
X-31.3Y84.9
X-31.3Y82.7
X-31.3Y81.
X-31.3Y79.3
X-31.3Y77.1
X-31.3Y75.4
X-31.3Y73.7
X-31.3Y71.5
X-31.3Y69.8
X-31.3Y68.1
X-31.3Y65.9
X-31.3Y64.2
X-31.3Y62.5
X-31.3Y60.3
X-31.3Y58.6
X-31.3Y56.9
X-31.3Y54.7
X-31.3Y53.
X-31.3Y51.3
X-31.3Y49.1
X-31.3Y47.4
X-31.3Y45.7
X-31.3Y43.5
X-31.3Y41.8
X-31.3Y40.1
X-31.3Y16.7
X-31.3Y15.
X-31.3Y13.3
X-31.3Y11.1
X-31.3Y9.4
X-31.3Y7.7
X-31.3Y5.5
X-31.3Y3.8
X-31.3Y2.1
X-31.3Y2.1
X-31.3Y-0.1
X-31.3Y-0.1
X-31.3Y-1.8
X-31.3Y-1.8
X-31.3Y-3.5
X-31.3Y-3.5
X-25.6Y110.7
X-25.6Y109.
X-25.6Y107.3
X-25.6Y105.1
X-25.6Y103.4
X-25.6Y101.7
X-25.6Y99.5
X-25.6Y97.8
X-25.6Y96.1
X-25.6Y93.9
X-25.6Y92.2
X-25.6Y90.5
X-25.6Y88.3
X-25.6Y86.6
X-25.6Y84.9
X-25.6Y82.7
X-25.6Y81.
X-25.6Y79.3
X-25.6Y77.1
X-25.6Y75.4
X-25.6Y73.7
X-25.6Y71.5
X-25.6Y69.8
X-25.6Y68.1
X-25.6Y65.9
X-25.6Y64.2
X-25.6Y62.5
X-25.6Y60.3
X-25.6Y58.6
X-25.6Y56.9
X-25.6Y54.7
X-25.6Y53.
X-25.6Y51.3
X-25.6Y49.1
X-25.6Y47.4
X-25.6Y45.7
X-25.6Y43.5
X-25.6Y41.8
X-25.6Y40.1
X-25.6Y16.7
X-25.6Y15.
X-25.6Y13.3
X-25.6Y11.1
X-25.6Y9.4
X-25.6Y7.7
X-25.6Y5.5
X-25.6Y3.8
X-25.6Y2.1
X-25.6Y-0.1
X-25.6Y-0.1
X-25.6Y-1.8
X-25.6Y-1.8
X-25.6Y-3.5
X-25.6Y-3.5
X-23.6Y110.7
X-23.6Y109.
X-23.6Y107.3
X-23.6Y105.1
X-23.6Y103.4
X-23.6Y101.7
X-23.6Y99.5
X-23.6Y97.8
X-23.6Y96.1
X-23.6Y93.9
X-23.6Y92.2
X-23.6Y90.5
X-23.6Y88.3
X-23.6Y86.6
X-23.6Y84.9
X-23.6Y82.7
X-23.6Y81.
X-23.6Y79.3
X-23.6Y77.1
X-23.6Y75.4
X-23.6Y73.7
X-23.6Y71.5
X-23.6Y69.8
X-23.6Y68.1
X-23.6Y65.9
X-23.6Y64.2
X-23.6Y62.5
X-23.6Y60.3
X-23.6Y58.6
X-23.6Y56.9
X-23.6Y54.7
X-23.6Y53.
X-23.6Y51.3
X-23.6Y49.1
X-23.6Y47.4
X-23.6Y45.7
X-23.6Y43.5
X-23.6Y41.8
X-23.6Y40.1
X-23.6Y16.7
X-23.6Y15.
X-23.6Y13.3
X-23.6Y11.1
X-23.6Y9.4
X-23.6Y7.7
X-23.6Y5.5
X-23.6Y3.8
X-23.6Y2.1
X-23.6Y-0.1
X-23.6Y-1.8
X-23.6Y-3.5
X-23.5Y33.5
X-23.5Y31.8
X-23.5Y30.1
X-17.9Y110.7
X-17.9Y109.
X-17.9Y107.3
X-17.9Y105.1
X-17.9Y103.4
X-17.9Y101.7
X-17.9Y99.5
X-17.9Y97.8
X-17.9Y96.1
X-17.9Y93.9
X-17.9Y92.2
X-17.9Y90.5
X-17.9Y88.3
X-17.9Y86.6
X-17.9Y84.9
X-17.9Y82.7
X-17.9Y81.
X-17.9Y79.3
X-17.9Y77.1
X-17.9Y75.4
X-17.9Y73.7
X-17.9Y71.5
X-17.9Y69.8
X-17.9Y68.1
X-17.9Y65.9
X-17.9Y64.2
X-17.9Y62.5
X-17.9Y60.3
X-17.9Y58.6
X-17.9Y56.9
X-17.9Y54.7
X-17.9Y53.
X-17.9Y51.3
X-17.9Y49.1
X-17.9Y47.4
X-17.9Y45.7
X-17.9Y43.5
X-17.9Y41.8
X-17.9Y40.1
X-17.9Y16.7
X-17.9Y15.
X-17.9Y13.3
X-17.9Y11.1
X-17.9Y9.4
X-17.9Y7.7
X-17.9Y5.5
X-17.9Y3.8
X-17.9Y2.1
X-17.9Y-0.1
X-17.9Y-1.8
X-17.9Y-3.5
X-17.8Y33.5
X-17.8Y31.8
X-17.8Y30.1
X-15.9Y110.7
X-15.9Y109.
X-15.9Y107.3
X-15.9Y105.1
X-15.9Y103.4
X-15.9Y101.7
X-15.9Y99.5
X-15.9Y97.8
X-15.9Y96.1
X-15.9Y93.9
X-15.9Y92.2
X-15.9Y90.5
X-15.9Y88.3
X-15.9Y86.6
X-15.9Y84.9
X-15.9Y82.7
X-15.9Y81.
X-15.9Y79.3
X-15.9Y77.1
X-15.9Y75.4
X-15.9Y73.7
X-15.9Y71.5
X-15.9Y69.8
X-15.9Y68.1
X-15.9Y65.9
X-15.9Y64.2
X-15.9Y62.5
X-15.9Y60.3
X-15.9Y58.6
X-15.9Y56.9
X-15.9Y54.7
X-15.9Y53.
X-15.9Y51.3
X-15.9Y49.1
X-15.9Y47.4
X-15.9Y45.7
X-15.9Y43.5
X-15.9Y41.8
X-15.9Y40.1
X-15.9Y33.5
X-15.9Y31.8
X-15.9Y30.1
X-15.9Y27.9
X-15.9Y26.2
X-15.9Y24.5
X-15.9Y22.3
X-15.9Y20.6
X-15.9Y18.9
X-15.9Y16.7
X-15.9Y15.
X-15.9Y13.3
X-15.9Y11.1
X-15.9Y9.4
X-15.9Y7.7
X-15.9Y5.5
X-15.9Y3.8
X-15.9Y2.1
X-15.9Y-0.1
X-15.9Y-1.8
X-15.9Y-3.5
X-10.2Y110.7
X-10.2Y109.
X-10.2Y107.3
X-10.2Y105.1
X-10.2Y103.4
X-10.2Y101.7
X-10.2Y99.5
X-10.2Y97.8
X-10.2Y96.1
X-10.2Y93.9
X-10.2Y92.2
X-10.2Y90.5
X-10.2Y88.3
X-10.2Y86.6
X-10.2Y84.9
X-10.2Y82.7
X-10.2Y81.
X-10.2Y79.3
X-10.2Y77.1
X-10.2Y75.4
X-10.2Y73.7
X-10.2Y71.5
X-10.2Y69.8
X-10.2Y68.1
X-10.2Y65.9
X-10.2Y64.2
X-10.2Y62.5
X-10.2Y60.3
X-10.2Y58.6
X-10.2Y56.9
X-10.2Y54.7
X-10.2Y53.
X-10.2Y51.3
X-10.2Y49.1
X-10.2Y47.4
X-10.2Y45.7
X-10.2Y43.5
X-10.2Y41.8
X-10.2Y40.1
X-10.2Y33.5
X-10.2Y31.8
X-10.2Y30.1
X-10.2Y27.9
X-10.2Y26.2
X-10.2Y24.5
X-10.2Y22.3
X-10.2Y20.6
X-10.2Y18.9
X-10.2Y16.7
X-10.2Y15.
X-10.2Y13.3
X-10.2Y11.1
X-10.2Y9.4
X-10.2Y7.7
X-10.2Y5.5
X-10.2Y3.8
X-10.2Y2.1
X-10.2Y-0.1
X-10.2Y-1.8
X-10.2Y-3.5
X-8.2Y110.7
X-8.2Y109.
X-8.2Y107.3
X-8.2Y105.1
X-8.2Y103.4
X-8.2Y101.7
X-8.2Y99.5
X-8.2Y97.8
X-8.2Y96.1
X-8.2Y93.9
X-8.2Y92.2
X-8.2Y90.5
X-8.2Y88.3
X-8.2Y86.6
X-8.2Y84.9
X-8.2Y82.7
X-8.2Y81.
X-8.2Y79.3
X-8.2Y77.1
X-8.2Y75.4
X-8.2Y73.7
X-8.2Y71.5
X-8.2Y69.8
X-8.2Y68.1
X-8.2Y65.9
X-8.2Y64.2
X-8.2Y62.5
X-8.2Y60.3
X-8.2Y58.6
X-8.2Y56.9
X-8.2Y54.7
X-8.2Y53.
X-8.2Y51.3
X-8.2Y49.1
X-8.2Y47.4
X-8.2Y45.7
X-8.2Y43.5
X-8.2Y41.8
X-8.2Y40.1
X-8.2Y33.5
X-8.2Y31.8
X-8.2Y30.1
X-8.2Y27.9
X-8.2Y26.2
X-8.2Y24.5
X-8.2Y22.3
X-8.2Y20.6
X-8.2Y18.9
X-8.2Y16.7
X-8.2Y15.
X-8.2Y13.3
X-8.2Y11.1
X-8.2Y9.4
X-8.2Y7.7
X-8.2Y5.5
X-8.2Y3.8
X-8.2Y2.1
X-2.5Y110.7
X-2.5Y109.
X-2.5Y107.3
X-2.5Y105.1
X-2.5Y103.4
X-2.5Y101.7
X-2.5Y99.5
X-2.5Y97.8
X-2.5Y96.1
X-2.5Y93.9
X-2.5Y92.2
X-2.5Y90.5
X-2.5Y88.3
X-2.5Y86.6
X-2.5Y84.9
X-2.5Y82.7
X-2.5Y81.
X-2.5Y79.3
X-2.5Y77.1
X-2.5Y75.4
X-2.5Y73.7
X-2.5Y71.5
X-2.5Y69.8
X-2.5Y68.1
X-2.5Y65.9
X-2.5Y64.2
X-2.5Y62.5
X-2.5Y60.3
X-2.5Y58.6
X-2.5Y56.9
X-2.5Y54.7
X-2.5Y53.
X-2.5Y51.3
X-2.5Y49.1
X-2.5Y47.4
X-2.5Y45.7
X-2.5Y43.5
X-2.5Y41.8
X-2.5Y40.1
X-2.5Y33.5
X-2.5Y31.8
X-2.5Y30.1
X-2.5Y27.9
X-2.5Y26.2
X-2.5Y24.5
X-2.5Y22.3
X-2.5Y20.6
X-2.5Y18.9
X-2.5Y16.7
X-2.5Y15.
X-2.5Y13.3
X-2.5Y11.1
X-2.5Y9.4
X-2.5Y7.7
X-2.5Y5.5
X-2.5Y3.8
X-2.5Y2.1
X-0.4Y110.7
X-0.4Y109.
X-0.4Y107.3
X-0.4Y105.1
X-0.4Y103.4
X-0.4Y101.7
X-0.4Y99.5
X-0.4Y97.8
X-0.4Y96.1
X-0.4Y93.9
X-0.4Y92.2
X-0.4Y90.5
X-0.4Y88.3
X-0.4Y86.6
X-0.4Y84.9
X-0.4Y82.7
X-0.4Y81.
X-0.4Y79.3
X-0.4Y77.1
X-0.4Y75.4
X-0.4Y73.7
X-0.4Y71.5
X-0.4Y69.8
X-0.4Y68.1
X-0.4Y65.9
X-0.4Y64.2
X-0.4Y62.5
X-0.4Y60.3
X-0.4Y58.6
X-0.4Y56.9
X-0.4Y54.7
X-0.4Y53.
X-0.4Y51.3
X-0.4Y49.1
X-0.4Y47.4
X-0.4Y45.7
X-0.4Y43.5
X-0.4Y41.8
X-0.4Y40.1
X-0.4Y33.5
X-0.4Y31.8
X-0.4Y30.1
X-0.4Y27.9
X-0.4Y26.2
X-0.4Y24.5
X-0.4Y22.3
X-0.4Y20.6
X-0.4Y18.9
X-0.4Y16.7
X-0.4Y15.
X-0.4Y13.3
X-0.4Y11.1
X-0.4Y9.4
X-0.4Y7.7
X-0.4Y5.5
X-0.4Y3.8
X-0.4Y2.1
X5.3Y110.7
X5.3Y109.
X5.3Y107.3
X5.3Y105.1
X5.3Y103.4
X5.3Y101.7
X5.3Y99.5
X5.3Y97.8
X5.3Y96.1
X5.3Y93.9
X5.3Y92.2
X5.3Y90.5
X5.3Y88.3
X5.3Y86.6
X5.3Y84.9
X5.3Y82.7
X5.3Y81.
X5.3Y79.3
X5.3Y77.1
X5.3Y75.4
X5.3Y73.7
X5.3Y71.5
X5.3Y69.8
X5.3Y68.1
X5.3Y65.9
X5.3Y64.2
X5.3Y62.5
X5.3Y60.3
X5.3Y58.6
X5.3Y56.9
X5.3Y54.7
X5.3Y53.
X5.3Y51.3
X5.3Y49.1
X5.3Y47.4
X5.3Y45.7
X5.3Y43.5
X5.3Y41.8
X5.3Y40.1
X5.3Y33.5
X5.3Y31.8
X5.3Y30.1
X5.3Y27.9
X5.3Y26.2
X5.3Y24.5
X5.3Y22.3
X5.3Y20.6
X5.3Y18.9
X5.3Y16.7
X5.3Y15.
X5.3Y13.3
X5.3Y11.1
X5.3Y9.4
X5.3Y7.7
X5.3Y5.5
X5.3Y3.8
X5.3Y2.1
X7.3Y110.7
X7.3Y109.
X7.3Y107.3
X7.3Y105.1
X7.3Y103.4
X7.3Y101.7
X7.3Y99.5
X7.3Y97.8
X7.3Y96.1
X7.3Y93.9
X7.3Y92.2
X7.3Y90.5
X7.3Y88.3
X7.3Y86.6
X7.3Y84.9
X7.3Y82.7
X7.3Y81.
X7.3Y79.3
X7.3Y77.1
X7.3Y75.4
X7.3Y73.7
X7.3Y71.5
X7.3Y69.8
X7.3Y68.1
X7.3Y65.9
X7.3Y64.2
X7.3Y62.5
X7.3Y60.3
X7.3Y58.6
X7.3Y56.9
X7.3Y54.7
X7.3Y53.
X7.3Y51.3
X7.3Y49.1
X7.3Y47.4
X7.3Y45.7
X7.3Y43.5
X7.3Y41.8
X7.3Y40.1
X7.3Y33.5
X7.3Y31.8
X7.3Y30.1
X7.3Y27.9
X7.3Y26.2
X7.3Y24.5
X7.3Y22.3
X7.3Y20.6
X7.3Y18.9
X7.3Y16.7
X7.3Y15.
X7.3Y13.3
X7.3Y11.1
X7.3Y9.4
X7.3Y7.7
X7.3Y5.5
X7.3Y3.8
X7.3Y2.1
X13.Y110.7
X13.Y109.
X13.Y107.3
X13.Y105.1
X13.Y103.4
X13.Y101.7
X13.Y99.5
X13.Y97.8
X13.Y96.1
X13.Y93.9
X13.Y92.2
X13.Y90.5
X13.Y88.3
X13.Y86.6
X13.Y84.9
X13.Y82.7
X13.Y81.
X13.Y79.3
X13.Y77.1
X13.Y75.4
X13.Y73.7
X13.Y71.5
X13.Y69.8
X13.Y68.1
X13.Y65.9
X13.Y64.2
X13.Y62.5
X13.Y60.3
X13.Y58.6
X13.Y56.9
X13.Y54.7
X13.Y53.
X13.Y51.3
X13.Y49.1
X13.Y47.4
X13.Y45.7
X13.Y43.5
X13.Y41.8
X13.Y40.1
X13.Y33.5
X13.Y31.8
X13.Y30.1
X13.Y27.9
X13.Y26.2
X13.Y24.5
X13.Y22.3
X13.Y20.6
X13.Y18.9
X13.Y16.7
X13.Y15.
X13.Y13.3
X13.Y11.1
X13.Y9.4
X13.Y7.7
X13.Y5.5
X13.Y3.8
X13.Y2.1
X15.Y105.1
X15.Y103.4
X15.Y101.7
X15.Y99.5
X15.Y97.8
X15.Y96.1
X15.Y93.9
X15.Y92.2
X15.Y90.5
X15.Y88.3
X15.Y86.6
X15.Y84.9
X15.Y82.7
X15.Y81.
X15.Y79.3
X15.Y77.1
X15.Y75.4
X15.Y73.7
X15.Y71.5
X15.Y69.8
X15.Y68.1
X15.Y65.9
X15.Y64.2
X15.Y62.5
X15.Y60.3
X15.Y58.6
X15.Y56.9
X15.Y54.7
X15.Y53.
X15.Y51.3
X15.Y49.1
X15.Y47.4
X15.Y45.7
X15.Y43.5
X15.Y41.8
X15.Y40.1
X15.1Y110.7
X15.1Y109.
X15.1Y107.3
X17.9Y15.9
X17.9Y14.1
X17.9Y12.4
X17.9Y10.3
X17.9Y8.5
X17.9Y6.8
X17.9Y4.7
X17.9Y2.9
X17.9Y1.2
X17.9Y-0.9
X17.9Y-2.7
X17.9Y-4.4
X20.8Y110.7
X20.8Y109.
X20.8Y107.3
X20.8Y105.1
X20.8Y103.4
X20.8Y101.7
X20.8Y99.5
X20.8Y97.8
X20.8Y96.1
X20.8Y93.9
X20.8Y92.2
X20.8Y90.5
X20.8Y88.3
X20.8Y86.6
X20.8Y84.9
X20.8Y82.7
X20.8Y81.
X20.8Y79.3
X20.8Y77.1
X20.8Y75.4
X20.8Y73.7
X20.8Y71.5
X20.8Y69.8
X20.8Y68.1
X20.8Y65.9
X20.8Y64.2
X20.8Y62.5
X20.8Y60.3
X20.8Y58.6
X20.8Y56.9
X20.8Y54.7
X20.8Y53.
X20.8Y51.3
X20.8Y49.1
X20.8Y47.4
X20.8Y45.7
X20.8Y43.5
X20.8Y41.8
X20.8Y40.1
X23.6Y15.9
X23.6Y14.1
X23.6Y12.4
X23.6Y10.3
X23.6Y8.5
X23.6Y6.8
X23.6Y4.7
X23.6Y2.9
X23.6Y1.2
X23.6Y-0.9
X23.6Y-2.7
X23.6Y-4.4
X25.6Y110.7
X25.6Y109.
X25.6Y107.3
X25.6Y105.1
X25.6Y103.4
X25.6Y101.7
X25.6Y99.5
X25.6Y97.8
X25.6Y96.1
X25.6Y94.
X25.6Y92.19
X25.6Y90.5
X25.6Y88.3
X25.6Y86.6
X25.6Y84.9
X25.6Y82.7
X25.6Y81.
X25.6Y79.3
X25.6Y77.1
X25.6Y75.39
X25.6Y73.7
X25.6Y71.5
X25.6Y69.8
X25.6Y68.1
X25.6Y65.9
X25.6Y64.2
X25.6Y62.5
X25.6Y60.3
X25.6Y58.6
X25.6Y56.9
X25.6Y54.7
X25.6Y53.
X25.6Y51.3
X25.6Y49.1
X25.6Y47.4
X25.6Y45.7
X25.6Y43.5
X25.6Y41.8
X25.6Y40.1
X25.6Y15.9
X25.6Y14.1
X25.6Y12.4
X25.6Y10.3
X25.6Y8.5
X25.6Y6.8
X25.6Y4.7
X25.6Y2.9
X25.6Y1.2
X25.6Y-0.9
X25.6Y-2.7
X25.6Y-4.4
X31.3Y110.7
X31.3Y109.
X31.3Y107.3
X31.3Y105.1
X31.3Y103.4
X31.3Y101.7
X31.3Y99.5
X31.3Y97.8
X31.3Y96.1
X31.3Y94.
X31.3Y92.19
X31.3Y90.5
X31.3Y88.3
X31.3Y86.6
X31.3Y84.9
X31.3Y82.7
X31.3Y81.
X31.3Y79.3
X31.3Y77.1
X31.3Y75.4
X31.3Y73.7
X31.3Y71.5
X31.3Y69.8
X31.3Y68.1
X31.3Y65.9
X31.3Y64.2
X31.3Y62.5
X31.3Y60.3
X31.3Y58.6
X31.3Y56.9
X31.3Y54.7
X31.3Y53.
X31.3Y51.3
X31.3Y49.1
X31.3Y47.4
X31.3Y45.7
X31.3Y43.5
X31.3Y41.8
X31.3Y40.1
X31.3Y15.9
X31.3Y14.1
X31.3Y12.4
X31.3Y10.3
X31.3Y8.5
X31.3Y6.8
X31.3Y4.7
X31.3Y2.9
X31.3Y1.2
X31.3Y-0.9
X31.3Y-2.7
X31.3Y-4.4
X33.3Y110.7
X33.3Y109.
X33.3Y107.3
X33.3Y105.1
X33.3Y103.4
X33.3Y101.7
X33.3Y99.5
X33.3Y97.8
X33.3Y96.1
X33.3Y94.
X33.3Y92.2
X33.3Y90.5
X33.3Y88.3
X33.3Y86.6
X33.3Y84.9
X33.3Y82.7
X33.3Y81.
X33.3Y79.3
X33.3Y77.1
X33.3Y75.4
X33.3Y73.7
X33.3Y71.5
X33.3Y69.8
X33.3Y68.1
X33.3Y65.9
X33.3Y64.2
X33.3Y62.5
X33.3Y60.3
X33.3Y58.6
X33.3Y56.9
X33.3Y54.7
X33.3Y53.
X33.3Y51.3
X33.3Y49.1
X33.3Y47.4
X33.3Y45.7
X33.3Y43.5
X33.3Y41.8
X33.3Y40.1
X33.3Y27.1
X33.3Y25.3
X33.3Y23.6
X33.3Y21.5
X33.3Y19.7
X33.3Y18.
X33.3Y15.9
X33.3Y14.1
X33.3Y12.4
X33.3Y10.3
X33.3Y8.5
X33.3Y6.8
X33.3Y4.7
X33.3Y2.9
X33.3Y1.2
X33.3Y-0.9
X33.3Y-2.7
X33.3Y-4.4
X39.Y110.7
X39.Y109.
X39.Y107.3
X39.Y105.1
X39.Y103.4
X39.Y101.7
X39.Y99.5
X39.Y97.8
X39.Y96.1
X39.Y94.
X39.Y92.2
X39.Y90.5
X39.Y88.3
X39.Y86.6
X39.Y84.9
X39.Y82.7
X39.Y81.
X39.Y79.3
X39.Y77.1
X39.Y75.4
X39.Y73.7
X39.Y71.5
X39.Y69.8
X39.Y68.1
X39.Y65.9
X39.Y64.2
X39.Y62.5
X39.Y60.3
X39.Y58.6
X39.Y56.9
X39.Y54.7
X39.Y53.
X39.Y51.3
X39.Y49.1
X39.Y47.4
X39.Y45.7
X39.Y43.5
X39.Y41.8
X39.Y40.1
X39.Y27.1
X39.Y25.3
X39.Y23.6
X39.Y21.5
X39.Y19.7
X39.Y18.
X39.Y15.9
X39.Y14.1
X39.Y12.4
X39.Y10.3
X39.Y8.5
X39.Y6.8
X39.Y4.7
X39.Y2.9
X39.Y1.2
X39.Y-0.9
X39.Y-2.7
X39.Y-4.4
X41.Y110.7
X41.Y109.
X41.Y107.3
X41.Y105.1
X41.Y103.4
X41.Y101.7
X41.Y99.5
X41.Y97.8
X41.Y96.1
X41.Y94.
X41.Y92.2
X41.Y90.5
X41.Y88.3
X41.Y86.6
X41.Y84.9
X41.Y82.7
X41.Y81.
X41.Y79.3
X41.Y77.1
X41.Y75.4
X41.Y73.7
X41.Y71.5
X41.Y69.8
X41.Y68.1
X41.Y65.9
X41.Y64.2
X41.Y62.5
X41.Y60.3
X41.Y58.6
X41.Y56.9
X41.Y54.7
X41.Y53.
X41.Y51.3
X41.Y49.1
X41.Y47.4
X41.Y45.7
X41.Y43.5
X41.Y41.8
X41.Y40.1
X41.Y32.7
X41.Y30.9
X41.Y29.2
X41.Y27.1
X41.Y25.3
X41.Y23.6
X41.Y21.5
X41.Y19.7
X41.Y18.
X41.Y15.9
X41.Y14.1
X41.Y12.4
X41.Y10.3
X41.Y8.5
X41.Y6.8
X41.Y4.7
X41.Y2.9
X41.Y1.2
X41.Y-0.9
X41.Y-2.7
X41.Y-4.4
X46.8Y110.7
X46.8Y109.
X46.8Y107.3
X46.8Y105.1
X46.8Y103.4
X46.8Y101.7
X46.8Y99.5
X46.8Y97.8
X46.8Y96.1
X46.8Y94.
X46.8Y92.2
X46.8Y90.5
X46.8Y88.3
X46.8Y86.6
X46.8Y84.9
X46.8Y82.7
X46.8Y81.
X46.8Y79.3
X46.8Y77.1
X46.8Y75.4
X46.8Y73.7
X46.8Y71.5
X46.8Y69.8
X46.8Y68.1
X46.8Y65.9
X46.8Y64.2
X46.8Y62.5
X46.8Y60.3
X46.8Y58.6
X46.8Y56.9
X46.8Y54.7
X46.8Y53.
X46.8Y51.3
X46.8Y49.1
X46.8Y47.4
X46.8Y45.7
X46.8Y43.5
X46.8Y41.8
X46.8Y40.1
X46.8Y32.7
X46.8Y30.9
X46.8Y29.2
X46.8Y27.1
X46.8Y25.3
X46.8Y23.6
X46.8Y21.5
X46.8Y19.7
X46.8Y18.
X46.8Y15.9
X46.8Y14.1
X46.8Y12.4
X46.8Y10.3
X46.8Y8.5
X46.8Y6.8
X46.8Y4.7
X46.8Y2.9
X46.8Y1.2
X46.8Y-0.9
X46.8Y-2.7
X46.8Y-4.4
X48.7Y110.7
X48.7Y109.
X48.7Y107.3
X48.7Y105.1
X48.7Y103.4
X48.7Y101.7
X48.7Y99.5
X48.7Y97.8
X48.7Y96.1
X48.7Y94.
X48.7Y92.2
X48.7Y90.5
X48.7Y88.3
X48.7Y86.6
X48.7Y84.9
X48.7Y82.7
X48.7Y81.
X48.7Y79.3
X48.7Y77.1
X48.7Y75.4
X48.7Y73.7
X48.7Y71.5
X48.7Y69.8
X48.7Y68.1
X48.7Y65.9
X48.7Y64.2
X48.7Y62.5
X48.7Y60.3
X48.7Y58.6
X48.7Y56.9
X48.7Y54.7
X48.7Y53.
X48.7Y51.3
X48.7Y49.1
X48.7Y47.4
X48.7Y45.7
X48.7Y43.5
X48.7Y41.8
X48.7Y40.1
X48.7Y32.7
X48.7Y30.9
X48.7Y29.2
X48.7Y27.1
X48.7Y25.3
X48.7Y23.6
X48.7Y21.5
X48.7Y19.7
X48.7Y18.
X48.7Y15.9
X48.7Y14.1
X48.7Y12.4
X48.7Y10.3
X48.7Y8.5
X48.7Y6.8
X48.7Y4.7
X48.7Y2.9
X48.7Y1.2
X48.7Y-0.9
X48.7Y-2.7
X48.7Y-4.4
X54.4Y110.7
X54.4Y109.
X54.4Y107.3
X54.4Y105.1
X54.4Y103.4
X54.4Y101.7
X54.4Y99.5
X54.4Y97.8
X54.4Y96.1
X54.4Y94.
X54.4Y92.2
X54.4Y90.5
X54.4Y88.3
X54.4Y86.6
X54.4Y84.9
X54.4Y82.7
X54.4Y81.
X54.4Y79.3
X54.4Y77.1
X54.4Y75.4
X54.4Y73.7
X54.4Y71.5
X54.4Y69.8
X54.4Y68.1
X54.4Y65.9
X54.4Y64.2
X54.4Y62.5
X54.4Y60.3
X54.4Y58.6
X54.4Y56.9
X54.4Y54.7
X54.4Y53.
X54.4Y51.3
X54.4Y49.1
X54.4Y47.4
X54.4Y45.7
X54.4Y43.5
X54.4Y41.8
X54.4Y40.1
X54.4Y32.7
X54.4Y30.9
X54.4Y29.2
X54.4Y27.1
X54.4Y25.3
X54.4Y23.6
X54.4Y21.5
X54.4Y19.7
X54.4Y18.
X54.4Y15.9
X54.4Y14.1
X54.4Y12.4
X54.4Y10.3
X54.4Y8.5
X54.4Y6.8
X54.4Y4.7
X54.4Y2.9
X54.4Y1.2
X54.4Y-0.9
X54.4Y-2.7
X54.4Y-4.4
X56.4Y110.7
X56.4Y109.
X56.4Y107.3
X56.4Y105.1
X56.4Y103.4
X56.4Y101.7
X56.4Y99.5
X56.4Y97.8
X56.4Y96.1
X56.4Y94.
X56.4Y92.2
X56.4Y90.5
X56.4Y88.3
X56.4Y86.6
X56.4Y84.9
X56.4Y82.7
X56.4Y81.
X56.4Y79.3
X56.4Y77.1
X56.4Y75.4
X56.4Y73.7
X56.4Y71.5
X56.4Y69.8
X56.4Y68.1
X56.4Y65.9
X56.4Y64.2
X56.4Y62.5
X56.4Y60.3
X56.4Y58.6
X56.4Y56.9
X56.4Y54.7
X56.4Y53.
X56.4Y51.3
X56.4Y49.1
X56.4Y47.4
X56.4Y45.7
X56.4Y43.5
X56.4Y41.8
X56.4Y40.1
X56.4Y32.7
X56.4Y30.9
X56.4Y29.2
X56.4Y27.1
X56.4Y25.3
X56.4Y23.6
X56.4Y21.5
X56.4Y19.7
X56.4Y18.
X56.4Y15.9
X56.4Y14.1
X56.4Y12.4
X56.4Y10.3
X56.4Y8.5
X56.4Y6.8
X56.4Y4.7
X56.4Y2.9
X56.4Y1.2
X56.4Y-0.9
X56.4Y-2.7
X56.4Y-4.4
X62.1Y110.7
X62.1Y109.
X62.1Y107.3
X62.1Y105.1
X62.1Y103.4
X62.1Y101.7
X62.1Y99.5
X62.1Y97.8
X62.1Y96.1
X62.1Y94.
X62.1Y92.2
X62.1Y90.5
X62.1Y88.3
X62.1Y86.6
X62.1Y84.9
X62.1Y82.7
X62.1Y81.
X62.1Y79.3
X62.1Y77.1
X62.1Y75.4
X62.1Y73.7
X62.1Y71.5
X62.1Y69.8
X62.1Y68.1
X62.1Y65.9
X62.1Y64.2
X62.1Y62.5
X62.1Y60.3
X62.1Y58.6
X62.1Y56.9
X62.1Y54.7
X62.1Y53.
X62.1Y51.3
X62.1Y49.1
X62.1Y47.4
X62.1Y45.7
X62.1Y43.5
X62.1Y41.8
X62.1Y40.1
X62.1Y32.7
X62.1Y30.9
X62.1Y29.2
X62.1Y27.1
X62.1Y25.3
X62.1Y23.6
X62.1Y21.5
X62.1Y19.7
X62.1Y18.
X62.1Y15.9
X62.1Y14.1
X62.1Y12.4
X62.1Y10.3
X62.1Y8.5
X62.1Y6.8
X62.1Y4.7
X62.1Y2.9
X62.1Y1.2
X62.1Y-0.9
X62.1Y-2.7
X62.1Y-4.4
T3
X-28.4Y34.
X28.4Y34.
X-28.4Y24.5
X28.4Y24.5
T0
M30
