G04 #@! TF.GenerationSoftware,KiCad,Pcbnew,(5.0.0)*
G04 #@! TF.CreationDate,2019-05-01T16:30:08-07:00*
G04 #@! TF.ProjectId,SSB Cap Board,5353422043617020426F6172642E6B69,rev?*
G04 #@! TF.SameCoordinates,Original*
G04 #@! TF.FileFunction,Soldermask,Top*
G04 #@! TF.FilePolarity,Negative*
%FSLAX46Y46*%
G04 Gerber Fmt 4.6, Leading zero omitted, Abs format (unit mm)*
G04 Created by KiCad (PCBNEW (5.0.0)) date 05/01/19 16:30:08*
%MOMM*%
%LPD*%
G01*
G04 APERTURE LIST*
%ADD10R,1.650000X5.400000*%
%ADD11C,6.800000*%
%ADD12C,1.200000*%
G04 APERTURE END LIST*
D10*
G04 #@! TO.C,C864*
X54395000Y25295000D03*
X48695000Y25295000D03*
G04 #@! TD*
G04 #@! TO.C,C849*
X56405000Y25305000D03*
X62105000Y25305000D03*
G04 #@! TD*
G04 #@! TO.C,C846*
X38995000Y25295000D03*
X33295000Y25295000D03*
G04 #@! TD*
G04 #@! TO.C,C967*
X41005000Y25305000D03*
X46705000Y25305000D03*
G04 #@! TD*
G04 #@! TO.C,C343*
X-41005000Y31795000D03*
X-46705000Y31795000D03*
G04 #@! TD*
G04 #@! TO.C,C337*
X-8195000Y109005000D03*
X-2495000Y109005000D03*
G04 #@! TD*
G04 #@! TO.C,C1*
X-41005000Y52995000D03*
X-46705000Y52995000D03*
G04 #@! TD*
G04 #@! TO.C,C326*
X-10205000Y108995000D03*
X-15905000Y108995000D03*
G04 #@! TD*
G04 #@! TO.C,C273*
X-54395000Y9405000D03*
X-48695000Y9405000D03*
G04 #@! TD*
G04 #@! TO.C,C264*
X-8195000Y3805000D03*
X-2495000Y3805000D03*
G04 #@! TD*
G04 #@! TO.C,C262*
X-56405000Y26195000D03*
X-62105000Y26195000D03*
G04 #@! TD*
G04 #@! TO.C,C261*
X-54395000Y-1795000D03*
X-48695000Y-1795000D03*
G04 #@! TD*
G04 #@! TO.C,C260*
X-25605000Y9395000D03*
X-31305000Y9395000D03*
G04 #@! TD*
G04 #@! TO.C,C259*
X-40905000Y14995000D03*
X-46605000Y14995000D03*
G04 #@! TD*
G04 #@! TO.C,C258*
X-38995000Y20605000D03*
X-33295000Y20605000D03*
G04 #@! TD*
G04 #@! TO.C,C257*
X-23595000Y-1795000D03*
X-17895000Y-1795000D03*
G04 #@! TD*
G04 #@! TO.C,C255*
X5295000Y108995000D03*
X-405000Y108995000D03*
G04 #@! TD*
G04 #@! TO.C,C314*
X-56405000Y20595000D03*
X-62105000Y20595000D03*
G04 #@! TD*
G04 #@! TO.C,C266*
X-54395000Y3805000D03*
X-48695000Y3805000D03*
G04 #@! TD*
G04 #@! TO.C,C265*
X-25605000Y3795000D03*
X-31305000Y3795000D03*
G04 #@! TD*
G04 #@! TO.C,C311*
X-40905000Y9395000D03*
X-46605000Y9395000D03*
G04 #@! TD*
G04 #@! TO.C,C310*
X-38995000Y26205000D03*
X-33295000Y26205000D03*
G04 #@! TD*
G04 #@! TO.C,C309*
X-23595000Y3805000D03*
X-17895000Y3805000D03*
G04 #@! TD*
G04 #@! TO.C,C308*
X-56405000Y86595000D03*
X-62105000Y86595000D03*
G04 #@! TD*
G04 #@! TO.C,C304*
X-56405000Y14995000D03*
X-62105000Y14995000D03*
G04 #@! TD*
G04 #@! TO.C,C303*
X-23595000Y109005000D03*
X-17895000Y109005000D03*
G04 #@! TD*
G04 #@! TO.C,C302*
X-25605000Y-1805000D03*
X-31305000Y-1805000D03*
G04 #@! TD*
G04 #@! TO.C,C301*
X-40905000Y3795000D03*
X-46605000Y3795000D03*
G04 #@! TD*
G04 #@! TO.C,C283*
X-38995000Y-1795000D03*
X-33295000Y-1795000D03*
G04 #@! TD*
G04 #@! TO.C,C282*
X-56405000Y80995000D03*
X-62105000Y80995000D03*
G04 #@! TD*
G04 #@! TO.C,C295*
X-56405000Y9395000D03*
X-62105000Y9395000D03*
G04 #@! TD*
G04 #@! TO.C,C294*
X-54395000Y15005000D03*
X-48695000Y15005000D03*
G04 #@! TD*
G04 #@! TO.C,C293*
X-23595000Y9405000D03*
X-17895000Y9405000D03*
G04 #@! TD*
G04 #@! TO.C,C292*
X-10205000Y31795000D03*
X-15905000Y31795000D03*
G04 #@! TD*
G04 #@! TO.C,C289*
X-56405000Y75395000D03*
X-62105000Y75395000D03*
G04 #@! TD*
G04 #@! TO.C,C287*
X-56405000Y3795000D03*
X-62105000Y3795000D03*
G04 #@! TD*
G04 #@! TO.C,C286*
X-54395000Y20605000D03*
X-48695000Y20605000D03*
G04 #@! TD*
G04 #@! TO.C,C285*
X-23595000Y15105000D03*
X-17895000Y15105000D03*
G04 #@! TD*
G04 #@! TO.C,C284*
X-10211000Y26195000D03*
X-15911000Y26195000D03*
G04 #@! TD*
G04 #@! TO.C,C299*
X-8195000Y9405000D03*
X-2495000Y9405000D03*
G04 #@! TD*
G04 #@! TO.C,C298*
X7305000Y3805000D03*
X13005000Y3805000D03*
G04 #@! TD*
G04 #@! TO.C,C281*
X-56405000Y69795000D03*
X-62105000Y69795000D03*
G04 #@! TD*
G04 #@! TO.C,C296*
X-56405000Y-1805000D03*
X-62105000Y-1805000D03*
G04 #@! TD*
G04 #@! TO.C,C377*
X-54395000Y26205000D03*
X-48695000Y26205000D03*
G04 #@! TD*
G04 #@! TO.C,C399*
X-10205000Y20595000D03*
X-15905000Y20595000D03*
G04 #@! TD*
G04 #@! TO.C,C398*
X-8195000Y15005000D03*
X-2495000Y15005000D03*
G04 #@! TD*
G04 #@! TO.C,C397*
X7305000Y9405000D03*
X13005000Y9405000D03*
G04 #@! TD*
G04 #@! TO.C,C396*
X-56405000Y64195000D03*
X-62105000Y64195000D03*
G04 #@! TD*
G04 #@! TO.C,C395*
X-54395000Y31805000D03*
X-48695000Y31805000D03*
G04 #@! TD*
G04 #@! TO.C,C390*
X-10205000Y14995000D03*
X-15905000Y14995000D03*
G04 #@! TD*
G04 #@! TO.C,C389*
X-8195000Y20605000D03*
X-2495000Y20605000D03*
G04 #@! TD*
G04 #@! TO.C,C388*
X7305000Y15005000D03*
X13005000Y15005000D03*
G04 #@! TD*
G04 #@! TO.C,C387*
X-56405000Y58595000D03*
X-62105000Y58595000D03*
G04 #@! TD*
G04 #@! TO.C,C386*
X-23504500Y31741500D03*
X-17804500Y31741500D03*
G04 #@! TD*
G04 #@! TO.C,C385*
X-10205000Y9395000D03*
X-15905000Y9395000D03*
G04 #@! TD*
G04 #@! TO.C,C384*
X-8195000Y26205000D03*
X-2495000Y26205000D03*
G04 #@! TD*
G04 #@! TO.C,C383*
X7305000Y20605000D03*
X13005000Y20605000D03*
G04 #@! TD*
G04 #@! TO.C,C382*
X-56405000Y52995000D03*
X-62105000Y52995000D03*
G04 #@! TD*
G04 #@! TO.C,C381*
X-10205000Y3795000D03*
X-15905000Y3795000D03*
G04 #@! TD*
G04 #@! TO.C,C380*
X-8195000Y31805000D03*
X-2495000Y31805000D03*
G04 #@! TD*
G04 #@! TO.C,C379*
X7305000Y26205000D03*
X13005000Y26205000D03*
G04 #@! TD*
G04 #@! TO.C,C378*
X-56405000Y47395000D03*
X-62105000Y47395000D03*
G04 #@! TD*
G04 #@! TO.C,C392*
X7305000Y31805000D03*
X13005000Y31805000D03*
G04 #@! TD*
G04 #@! TO.C,C93*
X-25605000Y58595000D03*
X-31305000Y58595000D03*
G04 #@! TD*
G04 #@! TO.C,C92*
X-38895000Y92205000D03*
X-33195000Y92205000D03*
G04 #@! TD*
G04 #@! TO.C,C91*
X-41005000Y47395000D03*
X-46705000Y47395000D03*
G04 #@! TD*
G04 #@! TO.C,C90*
X-54395000Y103405000D03*
X-48695000Y103405000D03*
G04 #@! TD*
G04 #@! TO.C,C89*
X-23595000Y47405000D03*
X-17895000Y47405000D03*
G04 #@! TD*
G04 #@! TO.C,C88*
X-10205000Y92195000D03*
X-15905000Y92195000D03*
G04 #@! TD*
G04 #@! TO.C,C87*
X-8195000Y58605000D03*
X-2495000Y58605000D03*
G04 #@! TD*
G04 #@! TO.C,C86*
X5295000Y80995000D03*
X-405000Y80995000D03*
G04 #@! TD*
G04 #@! TO.C,C85*
X7305000Y69805000D03*
X13005000Y69805000D03*
G04 #@! TD*
G04 #@! TO.C,C84*
X20795000Y69795000D03*
X15095000Y69795000D03*
G04 #@! TD*
G04 #@! TO.C,C83*
X-25605000Y64195000D03*
X-31305000Y64195000D03*
G04 #@! TD*
G04 #@! TO.C,C82*
X-38895000Y86605000D03*
X-33195000Y86605000D03*
G04 #@! TD*
G04 #@! TO.C,C81*
X-38895000Y81005000D03*
X-33195000Y81005000D03*
G04 #@! TD*
G04 #@! TO.C,C80*
X20795000Y64195000D03*
X15095000Y64195000D03*
G04 #@! TD*
G04 #@! TO.C,C251*
X-38995000Y3805000D03*
X-33295000Y3805000D03*
G04 #@! TD*
G04 #@! TO.C,C78*
X-25605000Y69795000D03*
X-31305000Y69795000D03*
G04 #@! TD*
G04 #@! TO.C,C77*
X20795000Y75395000D03*
X15095000Y75395000D03*
G04 #@! TD*
G04 #@! TO.C,C76*
X7305000Y64205000D03*
X13005000Y64205000D03*
G04 #@! TD*
G04 #@! TO.C,C75*
X-41005000Y58595000D03*
X-46705000Y58595000D03*
G04 #@! TD*
G04 #@! TO.C,C74*
X5295000Y86595000D03*
X-405000Y86595000D03*
G04 #@! TD*
G04 #@! TO.C,C73*
X-8195000Y53005000D03*
X-2495000Y53005000D03*
G04 #@! TD*
G04 #@! TO.C,C72*
X-10205000Y97795000D03*
X-15905000Y97795000D03*
G04 #@! TD*
G04 #@! TO.C,C71*
X5295000Y3795000D03*
X-405000Y3795000D03*
G04 #@! TD*
G04 #@! TO.C,C70*
X-54395000Y97805000D03*
X-48695000Y97805000D03*
G04 #@! TD*
G04 #@! TO.C,C68*
X-23595000Y41805000D03*
X-17895000Y41805000D03*
G04 #@! TD*
G04 #@! TO.C,C252*
X-56405000Y41795000D03*
X-62105000Y41795000D03*
G04 #@! TD*
G04 #@! TO.C,C120*
X-41005000Y108995000D03*
X-46705000Y108995000D03*
G04 #@! TD*
G04 #@! TO.C,C119*
X-56405000Y103395000D03*
X-62105000Y103395000D03*
G04 #@! TD*
G04 #@! TO.C,C118*
X-54395000Y69805000D03*
X-48695000Y69805000D03*
G04 #@! TD*
G04 #@! TO.C,C108*
X5295000Y31795000D03*
X-405000Y31795000D03*
G04 #@! TD*
G04 #@! TO.C,C106*
X-41005000Y103395000D03*
X-46705000Y103395000D03*
G04 #@! TD*
G04 #@! TO.C,C105*
X-56405000Y92195000D03*
X-62105000Y92195000D03*
G04 #@! TD*
G04 #@! TO.C,C97*
X-38895000Y109005000D03*
X-33195000Y109005000D03*
G04 #@! TD*
G04 #@! TO.C,C96*
X-41005000Y97795000D03*
X-46705000Y97795000D03*
G04 #@! TD*
G04 #@! TO.C,C95*
X-54395000Y47405000D03*
X-48695000Y47405000D03*
G04 #@! TD*
G04 #@! TO.C,C110*
X-25605000Y108995000D03*
X-31305000Y108995000D03*
G04 #@! TD*
G04 #@! TO.C,C23*
X20795000Y108995000D03*
X15095000Y108995000D03*
G04 #@! TD*
G04 #@! TO.C,C22*
X-54395000Y53005000D03*
X-48695000Y53005000D03*
G04 #@! TD*
G04 #@! TO.C,C16*
X-54395000Y58605000D03*
X-48695000Y58605000D03*
G04 #@! TD*
G04 #@! TO.C,C62*
X-41005000Y92195000D03*
X-46705000Y92195000D03*
G04 #@! TD*
G04 #@! TO.C,C2*
X-38995000Y47405000D03*
X-33295000Y47405000D03*
G04 #@! TD*
G04 #@! TO.C,C3*
X20795000Y103395000D03*
X15095000Y103395000D03*
G04 #@! TD*
G04 #@! TO.C,C4*
X-25605000Y103395000D03*
X-31305000Y103395000D03*
G04 #@! TD*
G04 #@! TO.C,C10*
X-10205000Y-1805000D03*
X-15905000Y-1805000D03*
G04 #@! TD*
G04 #@! TO.C,C11*
X-54395000Y64205000D03*
X-48695000Y64205000D03*
G04 #@! TD*
G04 #@! TO.C,C12*
X-41005000Y86595000D03*
X-46705000Y86595000D03*
G04 #@! TD*
G04 #@! TO.C,C13*
X-38995000Y53005000D03*
X-33295000Y53005000D03*
G04 #@! TD*
G04 #@! TO.C,C14*
X-25605000Y97795000D03*
X-31305000Y97795000D03*
G04 #@! TD*
G04 #@! TO.C,C15*
X-54395000Y75405000D03*
X-48695000Y75405000D03*
G04 #@! TD*
G04 #@! TO.C,C31*
X-41005000Y80995000D03*
X-46705000Y80995000D03*
G04 #@! TD*
G04 #@! TO.C,C61*
X-38995000Y58605000D03*
X-33295000Y58605000D03*
G04 #@! TD*
G04 #@! TO.C,C60*
X-25605000Y92195000D03*
X-31305000Y92195000D03*
G04 #@! TD*
G04 #@! TO.C,C59*
X20795000Y97795000D03*
X15095000Y97795000D03*
G04 #@! TD*
G04 #@! TO.C,C53*
X5295000Y26195000D03*
X-405000Y26195000D03*
G04 #@! TD*
G04 #@! TO.C,C51*
X-41005000Y75395000D03*
X-46705000Y75395000D03*
G04 #@! TD*
G04 #@! TO.C,C50*
X-38995000Y64205000D03*
X-33295000Y64205000D03*
G04 #@! TD*
G04 #@! TO.C,C49*
X-25605000Y86595000D03*
X-31305000Y86595000D03*
G04 #@! TD*
G04 #@! TO.C,C63*
X20795000Y92195000D03*
X15095000Y92195000D03*
G04 #@! TD*
G04 #@! TO.C,C47*
X7305000Y47405000D03*
X13005000Y47405000D03*
G04 #@! TD*
G04 #@! TO.C,C45*
X5295000Y103395000D03*
X-405000Y103395000D03*
G04 #@! TD*
G04 #@! TO.C,C44*
X7305000Y41805000D03*
X13005000Y41805000D03*
G04 #@! TD*
G04 #@! TO.C,C43*
X-38995000Y41805000D03*
X-33295000Y41805000D03*
G04 #@! TD*
G04 #@! TO.C,C41*
X-8195000Y41805000D03*
X-2495000Y41805000D03*
G04 #@! TD*
G04 #@! TO.C,C40*
X-10205000Y103395000D03*
X-15905000Y103395000D03*
G04 #@! TD*
G04 #@! TO.C,C39*
X5295000Y9395000D03*
X-405000Y9395000D03*
G04 #@! TD*
G04 #@! TO.C,C38*
X-8195000Y69805000D03*
X-2495000Y69805000D03*
G04 #@! TD*
G04 #@! TO.C,C37*
X5295000Y58595000D03*
X-405000Y58595000D03*
G04 #@! TD*
G04 #@! TO.C,C36*
X-8195000Y81005000D03*
X-2495000Y81005000D03*
G04 #@! TD*
G04 #@! TO.C,C35*
X-10205000Y69795000D03*
X-15905000Y69795000D03*
G04 #@! TD*
G04 #@! TO.C,C34*
X-23595000Y69805000D03*
X-17895000Y69805000D03*
G04 #@! TD*
G04 #@! TO.C,C94*
X20795000Y41795000D03*
X15095000Y41795000D03*
G04 #@! TD*
G04 #@! TO.C,C32*
X7305000Y97805000D03*
X13005000Y97805000D03*
G04 #@! TD*
G04 #@! TO.C,C33*
X5295000Y52995000D03*
X-405000Y52995000D03*
G04 #@! TD*
G04 #@! TO.C,C46*
X-23595000Y86605000D03*
X-17895000Y86605000D03*
G04 #@! TD*
G04 #@! TO.C,C215*
X-40905000Y-1805000D03*
X-46605000Y-1805000D03*
G04 #@! TD*
G04 #@! TO.C,C213*
X-38995000Y15005000D03*
X-33295000Y15005000D03*
G04 #@! TD*
G04 #@! TO.C,C212*
X-41005000Y20595000D03*
X-46705000Y20595000D03*
G04 #@! TD*
G04 #@! TO.C,C211*
X-25605000Y14995000D03*
X-31305000Y14995000D03*
G04 #@! TD*
G04 #@! TO.C,C209*
X-56405000Y31795000D03*
X-62105000Y31795000D03*
G04 #@! TD*
G04 #@! TO.C,C125*
X-10205000Y64195000D03*
X-15905000Y64195000D03*
G04 #@! TD*
G04 #@! TO.C,C203*
X-38995000Y9405000D03*
X-33295000Y9405000D03*
G04 #@! TD*
G04 #@! TO.C,C201*
X-41005000Y26195000D03*
X-46705000Y26195000D03*
G04 #@! TD*
G04 #@! TO.C,C200*
X-23595000Y75405000D03*
X-17895000Y75405000D03*
G04 #@! TD*
G04 #@! TO.C,C199*
X7305000Y103405000D03*
X13005000Y103405000D03*
G04 #@! TD*
G04 #@! TO.C,C198*
X-23595000Y103405000D03*
X-17895000Y103405000D03*
G04 #@! TD*
G04 #@! TO.C,C197*
X-8195000Y92205000D03*
X-2495000Y92205000D03*
G04 #@! TD*
G04 #@! TO.C,C196*
X-10205000Y58595000D03*
X-15905000Y58595000D03*
G04 #@! TD*
G04 #@! TO.C,C195*
X-23595000Y81005000D03*
X-17895000Y81005000D03*
G04 #@! TD*
G04 #@! TO.C,C194*
X5295000Y41795000D03*
X-405000Y41795000D03*
G04 #@! TD*
G04 #@! TO.C,C193*
X-8195000Y97805000D03*
X-2495000Y97805000D03*
G04 #@! TD*
G04 #@! TO.C,C192*
X-10205000Y52995000D03*
X-15905000Y52995000D03*
G04 #@! TD*
G04 #@! TO.C,C191*
X-8195000Y86605000D03*
X-2495000Y86605000D03*
G04 #@! TD*
G04 #@! TO.C,C190*
X5295000Y20595000D03*
X-405000Y20595000D03*
G04 #@! TD*
G04 #@! TO.C,C126*
X-54395000Y81005000D03*
X-48695000Y81005000D03*
G04 #@! TD*
G04 #@! TO.C,C48*
X-41005000Y69795000D03*
X-46705000Y69795000D03*
G04 #@! TD*
G04 #@! TO.C,C155*
X-25605000Y80995000D03*
X-31305000Y80995000D03*
G04 #@! TD*
G04 #@! TO.C,C154*
X20795000Y86595000D03*
X15095000Y86595000D03*
G04 #@! TD*
G04 #@! TO.C,C153*
X7305000Y53005000D03*
X13005000Y53005000D03*
G04 #@! TD*
G04 #@! TO.C,C152*
X5295000Y97795000D03*
X-405000Y97795000D03*
G04 #@! TD*
G04 #@! TO.C,C149*
X-54395000Y92205000D03*
X-48695000Y92205000D03*
G04 #@! TD*
G04 #@! TO.C,C148*
X5295000Y14995000D03*
X-405000Y14995000D03*
G04 #@! TD*
G04 #@! TO.C,C147*
X-54395000Y86605000D03*
X-48695000Y86605000D03*
G04 #@! TD*
G04 #@! TO.C,C146*
X-41005000Y64195000D03*
X-46705000Y64195000D03*
G04 #@! TD*
G04 #@! TO.C,C145*
X-38895000Y75405000D03*
X-33195000Y75405000D03*
G04 #@! TD*
G04 #@! TO.C,C144*
X-25605000Y75395000D03*
X-31305000Y75395000D03*
G04 #@! TD*
G04 #@! TO.C,C143*
X20795000Y80995000D03*
X15095000Y80995000D03*
G04 #@! TD*
G04 #@! TO.C,C142*
X7305000Y58605000D03*
X13005000Y58605000D03*
G04 #@! TD*
G04 #@! TO.C,C188*
X5295000Y92195000D03*
X-405000Y92195000D03*
G04 #@! TD*
G04 #@! TO.C,C140*
X-8195000Y47405000D03*
X-2495000Y47405000D03*
G04 #@! TD*
G04 #@! TO.C,C139*
X-23595000Y53005000D03*
X-17895000Y53005000D03*
G04 #@! TD*
G04 #@! TO.C,C138*
X20795000Y52995000D03*
X15095000Y52995000D03*
G04 #@! TD*
G04 #@! TO.C,C137*
X7305000Y86605000D03*
X13005000Y86605000D03*
G04 #@! TD*
G04 #@! TO.C,C136*
X5295000Y64195000D03*
X-405000Y64195000D03*
G04 #@! TD*
G04 #@! TO.C,C135*
X-8195000Y75405000D03*
X-2495000Y75405000D03*
G04 #@! TD*
G04 #@! TO.C,C134*
X-10205000Y75395000D03*
X-15905000Y75395000D03*
G04 #@! TD*
G04 #@! TO.C,C133*
X-23595000Y64205000D03*
X-17895000Y64205000D03*
G04 #@! TD*
G04 #@! TO.C,C132*
X-25605000Y41795000D03*
X-31305000Y41795000D03*
G04 #@! TD*
G04 #@! TO.C,C131*
X20795000Y47395000D03*
X15095000Y47395000D03*
G04 #@! TD*
G04 #@! TO.C,C128*
X7305000Y109005000D03*
X13005000Y109005000D03*
G04 #@! TD*
G04 #@! TO.C,C127*
X-54395000Y109005000D03*
X-48695000Y109005000D03*
G04 #@! TD*
G04 #@! TO.C,C189*
X-56405000Y97795000D03*
X-62105000Y97795000D03*
G04 #@! TD*
G04 #@! TO.C,C180*
X-54395000Y41805000D03*
X-48695000Y41805000D03*
G04 #@! TD*
G04 #@! TO.C,C179*
X-8195000Y103405000D03*
X-2495000Y103405000D03*
G04 #@! TD*
G04 #@! TO.C,C178*
X-10205000Y47395000D03*
X-15905000Y47395000D03*
G04 #@! TD*
G04 #@! TO.C,C177*
X-23595000Y92205000D03*
X-17895000Y92205000D03*
G04 #@! TD*
G04 #@! TO.C,C176*
X-10205000Y41795000D03*
X-15905000Y41795000D03*
G04 #@! TD*
G04 #@! TO.C,C175*
X-23595000Y97805000D03*
X-17895000Y97805000D03*
G04 #@! TD*
G04 #@! TO.C,C157*
X5295000Y47395000D03*
X-405000Y47395000D03*
G04 #@! TD*
G04 #@! TO.C,C156*
X7305000Y75405000D03*
X13005000Y75405000D03*
G04 #@! TD*
G04 #@! TO.C,C171*
X5295000Y75395000D03*
X-405000Y75395000D03*
G04 #@! TD*
G04 #@! TO.C,C170*
X-8195000Y64205000D03*
X-2495000Y64205000D03*
G04 #@! TD*
G04 #@! TO.C,C169*
X-10205000Y86595000D03*
X-15905000Y86595000D03*
G04 #@! TD*
G04 #@! TO.C,C168*
X-25605000Y47395000D03*
X-31305000Y47395000D03*
G04 #@! TD*
G04 #@! TO.C,C167*
X-41005000Y41795000D03*
X-46705000Y41795000D03*
G04 #@! TD*
G04 #@! TO.C,C166*
X-38895000Y97805000D03*
X-33195000Y97805000D03*
G04 #@! TD*
G04 #@! TO.C,C165*
X-25605000Y52995000D03*
X-31305000Y52995000D03*
G04 #@! TD*
G04 #@! TO.C,C164*
X20795000Y58595000D03*
X15095000Y58595000D03*
G04 #@! TD*
G04 #@! TO.C,C163*
X7305000Y81005000D03*
X13005000Y81005000D03*
G04 #@! TD*
G04 #@! TO.C,C162*
X5295000Y69795000D03*
X-405000Y69795000D03*
G04 #@! TD*
G04 #@! TO.C,C161*
X7305000Y92205000D03*
X13005000Y92205000D03*
G04 #@! TD*
G04 #@! TO.C,C160*
X-10205000Y80995000D03*
X-15905000Y80995000D03*
G04 #@! TD*
G04 #@! TO.C,C174*
X-23595000Y58605000D03*
X-17895000Y58605000D03*
G04 #@! TD*
G04 #@! TO.C,C172*
X-38895000Y103405000D03*
X-33195000Y103405000D03*
G04 #@! TD*
G04 #@! TO.C,C841*
X54395000Y108995000D03*
X48695000Y108995000D03*
G04 #@! TD*
G04 #@! TO.C,C840*
X38995000Y80995000D03*
X33295000Y80995000D03*
G04 #@! TD*
G04 #@! TO.C,C839*
X54395000Y92195000D03*
X48695000Y92195000D03*
G04 #@! TD*
G04 #@! TO.C,C838*
X41005000Y47405000D03*
X46705000Y47405000D03*
G04 #@! TD*
G04 #@! TO.C,C837*
X25605000Y47405000D03*
X31305000Y47405000D03*
G04 #@! TD*
G04 #@! TO.C,C835*
X56405000Y47405000D03*
X62105000Y47405000D03*
G04 #@! TD*
G04 #@! TO.C,C834*
X41005000Y53005000D03*
X46705000Y53005000D03*
G04 #@! TD*
G04 #@! TO.C,C833*
X54395000Y86595000D03*
X48695000Y86595000D03*
G04 #@! TD*
G04 #@! TO.C,C832*
X25605000Y75405000D03*
X31305000Y75405000D03*
G04 #@! TD*
G04 #@! TO.C,C827*
X56405000Y41805000D03*
X62105000Y41805000D03*
G04 #@! TD*
G04 #@! TO.C,C825*
X38995000Y75395000D03*
X33295000Y75395000D03*
G04 #@! TD*
G04 #@! TO.C,C820*
X54395000Y14095000D03*
X48695000Y14095000D03*
G04 #@! TD*
G04 #@! TO.C,C819*
X23595000Y14095000D03*
X17895000Y14095000D03*
G04 #@! TD*
G04 #@! TO.C,C818*
X25605000Y53005000D03*
X31305000Y53005000D03*
G04 #@! TD*
G04 #@! TO.C,C872*
X54395000Y19695000D03*
X48695000Y19695000D03*
G04 #@! TD*
G04 #@! TO.C,C870*
X56405000Y109005000D03*
X62105000Y109005000D03*
G04 #@! TD*
G04 #@! TO.C,C173*
X-56405000Y108995000D03*
X-62105000Y108995000D03*
G04 #@! TD*
G04 #@! TO.C,C860*
X41005000Y2905000D03*
X46705000Y2905000D03*
G04 #@! TD*
G04 #@! TO.C,C859*
X56405000Y58605000D03*
X62105000Y58605000D03*
G04 #@! TD*
G04 #@! TO.C,C858*
X41005000Y64205000D03*
X46705000Y64205000D03*
G04 #@! TD*
G04 #@! TO.C,C857*
X54395000Y75395000D03*
X48695000Y75395000D03*
G04 #@! TD*
G04 #@! TO.C,C856*
X38995000Y64195000D03*
X33295000Y64195000D03*
G04 #@! TD*
G04 #@! TO.C,C855*
X25605000Y81005000D03*
X31305000Y81005000D03*
G04 #@! TD*
G04 #@! TO.C,C848*
X56405000Y53005000D03*
X62105000Y53005000D03*
G04 #@! TD*
G04 #@! TO.C,C847*
X41005000Y58605000D03*
X46705000Y58605000D03*
G04 #@! TD*
G04 #@! TO.C,C862*
X54395000Y80995000D03*
X48695000Y80995000D03*
G04 #@! TD*
G04 #@! TO.C,C845*
X38995000Y69795000D03*
X33295000Y69795000D03*
G04 #@! TD*
G04 #@! TO.C,C813*
X25605000Y69805000D03*
X31305000Y69805000D03*
G04 #@! TD*
G04 #@! TO.C,C806*
X56405000Y8505000D03*
X62105000Y8505000D03*
G04 #@! TD*
G04 #@! TO.C,C805*
X41005000Y-2695000D03*
X46705000Y-2695000D03*
G04 #@! TD*
G04 #@! TO.C,C801*
X41005000Y41805000D03*
X46705000Y41805000D03*
G04 #@! TD*
G04 #@! TO.C,C966*
X41005000Y8505000D03*
X46705000Y8505000D03*
G04 #@! TD*
G04 #@! TO.C,C965*
X38995000Y19695000D03*
X33295000Y19695000D03*
G04 #@! TD*
G04 #@! TO.C,C961*
X38995000Y47395000D03*
X33295000Y47395000D03*
G04 #@! TD*
G04 #@! TO.C,C960*
X25605000Y92205000D03*
X31305000Y92205000D03*
G04 #@! TD*
G04 #@! TO.C,C959*
X38995000Y52995000D03*
X33295000Y52995000D03*
G04 #@! TD*
G04 #@! TO.C,C958*
X54395000Y64195000D03*
X48695000Y64195000D03*
G04 #@! TD*
G04 #@! TO.C,C957*
X41005000Y75405000D03*
X46705000Y75405000D03*
G04 #@! TD*
G04 #@! TO.C,C956*
X56405000Y69805000D03*
X62105000Y69805000D03*
G04 #@! TD*
G04 #@! TO.C,C955*
X41005000Y14105000D03*
X46705000Y14105000D03*
G04 #@! TD*
G04 #@! TO.C,C830*
X38995000Y14095000D03*
X33295000Y14095000D03*
G04 #@! TD*
G04 #@! TO.C,C952*
X25605000Y41805000D03*
X31305000Y41805000D03*
G04 #@! TD*
G04 #@! TO.C,C949*
X25605000Y97805000D03*
X31305000Y97805000D03*
G04 #@! TD*
G04 #@! TO.C,C943*
X56405000Y19705000D03*
X62105000Y19705000D03*
G04 #@! TD*
G04 #@! TO.C,C942*
X56405000Y30905000D03*
X62105000Y30905000D03*
G04 #@! TD*
G04 #@! TO.C,C954*
X25605000Y-2695000D03*
X31305000Y-2695000D03*
G04 #@! TD*
G04 #@! TO.C,C997*
X54395000Y58595000D03*
X48695000Y58595000D03*
G04 #@! TD*
G04 #@! TO.C,C996*
X41005000Y81005000D03*
X46705000Y81005000D03*
G04 #@! TD*
G04 #@! TO.C,C995*
X56405000Y75405000D03*
X62105000Y75405000D03*
G04 #@! TD*
G04 #@! TO.C,C994*
X41005000Y19705000D03*
X46705000Y19705000D03*
G04 #@! TD*
G04 #@! TO.C,C993*
X38995000Y8495000D03*
X33295000Y8495000D03*
G04 #@! TD*
G04 #@! TO.C,C989*
X25605000Y103405000D03*
X31305000Y103405000D03*
G04 #@! TD*
G04 #@! TO.C,C988*
X23595000Y-2705000D03*
X17895000Y-2705000D03*
G04 #@! TD*
G04 #@! TO.C,C987*
X38995000Y41795000D03*
X33295000Y41795000D03*
G04 #@! TD*
G04 #@! TO.C,C158*
X-38995000Y69805000D03*
X-33295000Y69805000D03*
G04 #@! TD*
G04 #@! TO.C,C969*
X56405000Y-2695000D03*
X62105000Y-2695000D03*
G04 #@! TD*
G04 #@! TO.C,C984*
X41005000Y86605000D03*
X46705000Y86605000D03*
G04 #@! TD*
G04 #@! TO.C,C983*
X56405000Y81005000D03*
X62105000Y81005000D03*
G04 #@! TD*
G04 #@! TO.C,C982*
X56405000Y64205000D03*
X62105000Y64205000D03*
G04 #@! TD*
G04 #@! TO.C,C981*
X38995000Y2895000D03*
X33295000Y2895000D03*
G04 #@! TD*
G04 #@! TO.C,C976*
X25605000Y109005000D03*
X31305000Y109005000D03*
G04 #@! TD*
G04 #@! TO.C,C975*
X54395000Y47395000D03*
X48695000Y47395000D03*
G04 #@! TD*
G04 #@! TO.C,C974*
X41005000Y92205000D03*
X46705000Y92205000D03*
G04 #@! TD*
G04 #@! TO.C,C973*
X56405000Y86605000D03*
X62105000Y86605000D03*
G04 #@! TD*
G04 #@! TO.C,C972*
X41005000Y109005000D03*
X46705000Y109005000D03*
G04 #@! TD*
G04 #@! TO.C,C970*
X25605000Y86605000D03*
X31305000Y86605000D03*
G04 #@! TD*
G04 #@! TO.C,C985*
X38995000Y58595000D03*
X33295000Y58595000D03*
G04 #@! TD*
G04 #@! TO.C,C904*
X54395000Y69795000D03*
X48695000Y69795000D03*
G04 #@! TD*
G04 #@! TO.C,C903*
X41005000Y69805000D03*
X46705000Y69805000D03*
G04 #@! TD*
G04 #@! TO.C,C897*
X56405000Y103405000D03*
X62105000Y103405000D03*
G04 #@! TD*
G04 #@! TO.C,C896*
X56405000Y14105000D03*
X62105000Y14105000D03*
G04 #@! TD*
G04 #@! TO.C,C894*
X54395000Y52995000D03*
X48695000Y52995000D03*
G04 #@! TD*
G04 #@! TO.C,C893*
X38995000Y97795000D03*
X33295000Y97795000D03*
G04 #@! TD*
G04 #@! TO.C,C939*
X23595000Y8495000D03*
X17895000Y8495000D03*
G04 #@! TD*
G04 #@! TO.C,C938*
X54395000Y8495000D03*
X48695000Y8495000D03*
G04 #@! TD*
G04 #@! TO.C,C886*
X38995000Y92195000D03*
X33295000Y92195000D03*
G04 #@! TD*
G04 #@! TO.C,C884*
X25605000Y64205000D03*
X31305000Y64205000D03*
G04 #@! TD*
G04 #@! TO.C,C883*
X54395000Y-2705000D03*
X48695000Y-2705000D03*
G04 #@! TD*
G04 #@! TO.C,C882*
X23595000Y2895000D03*
X17895000Y2895000D03*
G04 #@! TD*
G04 #@! TO.C,C881*
X54395000Y103395000D03*
X48695000Y103395000D03*
G04 #@! TD*
G04 #@! TO.C,C880*
X54395000Y2895000D03*
X48695000Y2895000D03*
G04 #@! TD*
G04 #@! TO.C,C936*
X25605000Y58605000D03*
X31305000Y58605000D03*
G04 #@! TD*
G04 #@! TO.C,C935*
X38995000Y86595000D03*
X33295000Y86595000D03*
G04 #@! TD*
G04 #@! TO.C,C934*
X54395000Y97795000D03*
X48695000Y97795000D03*
G04 #@! TD*
G04 #@! TO.C,C930*
X25605000Y2905000D03*
X31305000Y2905000D03*
G04 #@! TD*
G04 #@! TO.C,C926*
X25605000Y8505000D03*
X31305000Y8505000D03*
G04 #@! TD*
G04 #@! TO.C,C986*
X25605000Y14105000D03*
X31305000Y14105000D03*
G04 #@! TD*
G04 #@! TO.C,C905*
X38995000Y103395000D03*
X33295000Y103395000D03*
G04 #@! TD*
G04 #@! TO.C,C919*
X38995000Y-2705000D03*
X33295000Y-2705000D03*
G04 #@! TD*
G04 #@! TO.C,C918*
X41005000Y30905000D03*
X46705000Y30905000D03*
G04 #@! TD*
G04 #@! TO.C,C915*
X39045000Y108995000D03*
X33345000Y108995000D03*
G04 #@! TD*
G04 #@! TO.C,C914*
X54395000Y41795000D03*
X48695000Y41795000D03*
G04 #@! TD*
G04 #@! TO.C,C913*
X41005000Y97805000D03*
X46705000Y97805000D03*
G04 #@! TD*
G04 #@! TO.C,C912*
X56405000Y92205000D03*
X62105000Y92205000D03*
G04 #@! TD*
G04 #@! TO.C,C911*
X56405000Y2905000D03*
X62105000Y2905000D03*
G04 #@! TD*
G04 #@! TO.C,C908*
X54395000Y30895000D03*
X48695000Y30895000D03*
G04 #@! TD*
G04 #@! TO.C,C921*
X41005000Y103405000D03*
X46705000Y103405000D03*
G04 #@! TD*
G04 #@! TO.C,C1000*
X56405000Y97805000D03*
X62105000Y97805000D03*
G04 #@! TD*
D11*
G04 #@! TO.C,TP3*
X28400000Y34000000D03*
D12*
X30800000Y34000000D03*
X30097056Y32302944D03*
X28400000Y31600000D03*
X26702944Y32302944D03*
X26000000Y34000000D03*
X26702944Y35697056D03*
X28400000Y36400000D03*
X30097056Y35697056D03*
G04 #@! TD*
D11*
G04 #@! TO.C,TP4*
X28400000Y24500000D03*
D12*
X30800000Y24500000D03*
X30097056Y22802944D03*
X28400000Y22100000D03*
X26702944Y22802944D03*
X26000000Y24500000D03*
X26702944Y26197056D03*
X28400000Y26900000D03*
X30097056Y26197056D03*
G04 #@! TD*
D11*
G04 #@! TO.C,TP1*
X-28400000Y34000000D03*
D12*
X-26000000Y34000000D03*
X-26702944Y32302944D03*
X-28400000Y31600000D03*
X-30097056Y32302944D03*
X-30800000Y34000000D03*
X-30097056Y35697056D03*
X-28400000Y36400000D03*
X-26702944Y35697056D03*
G04 #@! TD*
D11*
G04 #@! TO.C,TP2*
X-28400000Y24500000D03*
D12*
X-26000000Y24500000D03*
X-26702944Y22802944D03*
X-28400000Y22100000D03*
X-30097056Y22802944D03*
X-30800000Y24500000D03*
X-30097056Y26197056D03*
X-28400000Y26900000D03*
X-26702944Y26197056D03*
G04 #@! TD*
M02*
