G04 #@! TF.GenerationSoftware,KiCad,Pcbnew,(5.0.0)*
G04 #@! TF.CreationDate,2019-05-01T16:30:08-07:00*
G04 #@! TF.ProjectId,SSB Cap Board,5353422043617020426F6172642E6B69,rev?*
G04 #@! TF.SameCoordinates,Original*
G04 #@! TF.FileFunction,Copper,L1,Top,Signal*
G04 #@! TF.FilePolarity,Positive*
%FSLAX46Y46*%
G04 Gerber Fmt 4.6, Leading zero omitted, Abs format (unit mm)*
G04 Created by KiCad (PCBNEW (5.0.0)) date 05/01/19 16:30:08*
%MOMM*%
%LPD*%
G01*
G04 APERTURE LIST*
G04 #@! TA.AperFunction,SMDPad,CuDef*
%ADD10R,1.250000X5.000000*%
G04 #@! TD*
G04 #@! TA.AperFunction,ComponentPad*
%ADD11C,6.400000*%
G04 #@! TD*
G04 #@! TA.AperFunction,ComponentPad*
%ADD12C,0.800000*%
G04 #@! TD*
G04 #@! TA.AperFunction,ViaPad*
%ADD13C,0.889000*%
G04 #@! TD*
G04 #@! TA.AperFunction,Conductor*
%ADD14C,0.254000*%
G04 #@! TD*
G04 APERTURE END LIST*
D10*
G04 #@! TO.P,C864,1*
G04 #@! TO.N,/C2+*
X54395000Y25295000D03*
G04 #@! TO.P,C864,2*
G04 #@! TO.N,/C2-*
X48695000Y25295000D03*
G04 #@! TD*
G04 #@! TO.P,C849,1*
G04 #@! TO.N,/C2+*
X56405000Y25305000D03*
G04 #@! TO.P,C849,2*
G04 #@! TO.N,/C2-*
X62105000Y25305000D03*
G04 #@! TD*
G04 #@! TO.P,C846,1*
G04 #@! TO.N,/C2+*
X38995000Y25295000D03*
G04 #@! TO.P,C846,2*
G04 #@! TO.N,/C2-*
X33295000Y25295000D03*
G04 #@! TD*
G04 #@! TO.P,C967,1*
G04 #@! TO.N,/C2+*
X41005000Y25305000D03*
G04 #@! TO.P,C967,2*
G04 #@! TO.N,/C2-*
X46705000Y25305000D03*
G04 #@! TD*
G04 #@! TO.P,C343,1*
G04 #@! TO.N,/C1+*
X-41005000Y31795000D03*
G04 #@! TO.P,C343,2*
G04 #@! TO.N,/C1-*
X-46705000Y31795000D03*
G04 #@! TD*
G04 #@! TO.P,C337,1*
G04 #@! TO.N,/C1+*
X-8195000Y109005000D03*
G04 #@! TO.P,C337,2*
G04 #@! TO.N,/C1-*
X-2495000Y109005000D03*
G04 #@! TD*
G04 #@! TO.P,C1,1*
G04 #@! TO.N,/C1+*
X-41005000Y52995000D03*
G04 #@! TO.P,C1,2*
G04 #@! TO.N,/C1-*
X-46705000Y52995000D03*
G04 #@! TD*
G04 #@! TO.P,C326,1*
G04 #@! TO.N,/C1+*
X-10205000Y108995000D03*
G04 #@! TO.P,C326,2*
G04 #@! TO.N,/C1-*
X-15905000Y108995000D03*
G04 #@! TD*
G04 #@! TO.P,C273,1*
G04 #@! TO.N,/C1+*
X-54395000Y9405000D03*
G04 #@! TO.P,C273,2*
G04 #@! TO.N,/C1-*
X-48695000Y9405000D03*
G04 #@! TD*
G04 #@! TO.P,C264,1*
G04 #@! TO.N,/C1+*
X-8195000Y3805000D03*
G04 #@! TO.P,C264,2*
G04 #@! TO.N,/C1-*
X-2495000Y3805000D03*
G04 #@! TD*
G04 #@! TO.P,C262,1*
G04 #@! TO.N,/C1+*
X-56405000Y26195000D03*
G04 #@! TO.P,C262,2*
G04 #@! TO.N,/C1-*
X-62105000Y26195000D03*
G04 #@! TD*
G04 #@! TO.P,C261,1*
G04 #@! TO.N,/C1+*
X-54395000Y-1795000D03*
G04 #@! TO.P,C261,2*
G04 #@! TO.N,/C1-*
X-48695000Y-1795000D03*
G04 #@! TD*
G04 #@! TO.P,C260,1*
G04 #@! TO.N,/C1+*
X-25605000Y9395000D03*
G04 #@! TO.P,C260,2*
G04 #@! TO.N,/C1-*
X-31305000Y9395000D03*
G04 #@! TD*
G04 #@! TO.P,C259,1*
G04 #@! TO.N,/C1+*
X-40905000Y14995000D03*
G04 #@! TO.P,C259,2*
G04 #@! TO.N,/C1-*
X-46605000Y14995000D03*
G04 #@! TD*
G04 #@! TO.P,C258,1*
G04 #@! TO.N,/C1+*
X-38995000Y20605000D03*
G04 #@! TO.P,C258,2*
G04 #@! TO.N,/C1-*
X-33295000Y20605000D03*
G04 #@! TD*
G04 #@! TO.P,C257,1*
G04 #@! TO.N,/C1+*
X-23595000Y-1795000D03*
G04 #@! TO.P,C257,2*
G04 #@! TO.N,/C1-*
X-17895000Y-1795000D03*
G04 #@! TD*
G04 #@! TO.P,C255,1*
G04 #@! TO.N,/C1+*
X5295000Y108995000D03*
G04 #@! TO.P,C255,2*
G04 #@! TO.N,/C1-*
X-405000Y108995000D03*
G04 #@! TD*
G04 #@! TO.P,C314,1*
G04 #@! TO.N,/C1+*
X-56405000Y20595000D03*
G04 #@! TO.P,C314,2*
G04 #@! TO.N,/C1-*
X-62105000Y20595000D03*
G04 #@! TD*
G04 #@! TO.P,C266,1*
G04 #@! TO.N,/C1+*
X-54395000Y3805000D03*
G04 #@! TO.P,C266,2*
G04 #@! TO.N,/C1-*
X-48695000Y3805000D03*
G04 #@! TD*
G04 #@! TO.P,C265,1*
G04 #@! TO.N,/C1+*
X-25605000Y3795000D03*
G04 #@! TO.P,C265,2*
G04 #@! TO.N,/C1-*
X-31305000Y3795000D03*
G04 #@! TD*
G04 #@! TO.P,C311,1*
G04 #@! TO.N,/C1+*
X-40905000Y9395000D03*
G04 #@! TO.P,C311,2*
G04 #@! TO.N,/C1-*
X-46605000Y9395000D03*
G04 #@! TD*
G04 #@! TO.P,C310,1*
G04 #@! TO.N,/C1+*
X-38995000Y26205000D03*
G04 #@! TO.P,C310,2*
G04 #@! TO.N,/C1-*
X-33295000Y26205000D03*
G04 #@! TD*
G04 #@! TO.P,C309,1*
G04 #@! TO.N,/C1+*
X-23595000Y3805000D03*
G04 #@! TO.P,C309,2*
G04 #@! TO.N,/C1-*
X-17895000Y3805000D03*
G04 #@! TD*
G04 #@! TO.P,C308,1*
G04 #@! TO.N,/C1+*
X-56405000Y86595000D03*
G04 #@! TO.P,C308,2*
G04 #@! TO.N,/C1-*
X-62105000Y86595000D03*
G04 #@! TD*
G04 #@! TO.P,C304,1*
G04 #@! TO.N,/C1+*
X-56405000Y14995000D03*
G04 #@! TO.P,C304,2*
G04 #@! TO.N,/C1-*
X-62105000Y14995000D03*
G04 #@! TD*
G04 #@! TO.P,C303,1*
G04 #@! TO.N,/C1+*
X-23595000Y109005000D03*
G04 #@! TO.P,C303,2*
G04 #@! TO.N,/C1-*
X-17895000Y109005000D03*
G04 #@! TD*
G04 #@! TO.P,C302,1*
G04 #@! TO.N,/C1+*
X-25605000Y-1805000D03*
G04 #@! TO.P,C302,2*
G04 #@! TO.N,/C1-*
X-31305000Y-1805000D03*
G04 #@! TD*
G04 #@! TO.P,C301,1*
G04 #@! TO.N,/C1+*
X-40905000Y3795000D03*
G04 #@! TO.P,C301,2*
G04 #@! TO.N,/C1-*
X-46605000Y3795000D03*
G04 #@! TD*
G04 #@! TO.P,C283,1*
G04 #@! TO.N,/C1+*
X-38995000Y-1795000D03*
G04 #@! TO.P,C283,2*
G04 #@! TO.N,/C1-*
X-33295000Y-1795000D03*
G04 #@! TD*
G04 #@! TO.P,C282,1*
G04 #@! TO.N,/C1+*
X-56405000Y80995000D03*
G04 #@! TO.P,C282,2*
G04 #@! TO.N,/C1-*
X-62105000Y80995000D03*
G04 #@! TD*
G04 #@! TO.P,C295,1*
G04 #@! TO.N,/C1+*
X-56405000Y9395000D03*
G04 #@! TO.P,C295,2*
G04 #@! TO.N,/C1-*
X-62105000Y9395000D03*
G04 #@! TD*
G04 #@! TO.P,C294,1*
G04 #@! TO.N,/C1+*
X-54395000Y15005000D03*
G04 #@! TO.P,C294,2*
G04 #@! TO.N,/C1-*
X-48695000Y15005000D03*
G04 #@! TD*
G04 #@! TO.P,C293,1*
G04 #@! TO.N,/C1+*
X-23595000Y9405000D03*
G04 #@! TO.P,C293,2*
G04 #@! TO.N,/C1-*
X-17895000Y9405000D03*
G04 #@! TD*
G04 #@! TO.P,C292,1*
G04 #@! TO.N,/C1+*
X-10205000Y31795000D03*
G04 #@! TO.P,C292,2*
G04 #@! TO.N,/C1-*
X-15905000Y31795000D03*
G04 #@! TD*
G04 #@! TO.P,C289,1*
G04 #@! TO.N,/C1+*
X-56405000Y75395000D03*
G04 #@! TO.P,C289,2*
G04 #@! TO.N,/C1-*
X-62105000Y75395000D03*
G04 #@! TD*
G04 #@! TO.P,C287,1*
G04 #@! TO.N,/C1+*
X-56405000Y3795000D03*
G04 #@! TO.P,C287,2*
G04 #@! TO.N,/C1-*
X-62105000Y3795000D03*
G04 #@! TD*
G04 #@! TO.P,C286,1*
G04 #@! TO.N,/C1+*
X-54395000Y20605000D03*
G04 #@! TO.P,C286,2*
G04 #@! TO.N,/C1-*
X-48695000Y20605000D03*
G04 #@! TD*
G04 #@! TO.P,C285,1*
G04 #@! TO.N,/C1+*
X-23595000Y15105000D03*
G04 #@! TO.P,C285,2*
G04 #@! TO.N,/C1-*
X-17895000Y15105000D03*
G04 #@! TD*
G04 #@! TO.P,C284,1*
G04 #@! TO.N,/C1+*
X-10211000Y26195000D03*
G04 #@! TO.P,C284,2*
G04 #@! TO.N,/C1-*
X-15911000Y26195000D03*
G04 #@! TD*
G04 #@! TO.P,C299,1*
G04 #@! TO.N,/C1+*
X-8195000Y9405000D03*
G04 #@! TO.P,C299,2*
G04 #@! TO.N,/C1-*
X-2495000Y9405000D03*
G04 #@! TD*
G04 #@! TO.P,C298,1*
G04 #@! TO.N,/C1+*
X7305000Y3805000D03*
G04 #@! TO.P,C298,2*
G04 #@! TO.N,/C1-*
X13005000Y3805000D03*
G04 #@! TD*
G04 #@! TO.P,C281,1*
G04 #@! TO.N,/C1+*
X-56405000Y69795000D03*
G04 #@! TO.P,C281,2*
G04 #@! TO.N,/C1-*
X-62105000Y69795000D03*
G04 #@! TD*
G04 #@! TO.P,C296,1*
G04 #@! TO.N,/C1+*
X-56405000Y-1805000D03*
G04 #@! TO.P,C296,2*
G04 #@! TO.N,/C1-*
X-62105000Y-1805000D03*
G04 #@! TD*
G04 #@! TO.P,C377,1*
G04 #@! TO.N,/C1+*
X-54395000Y26205000D03*
G04 #@! TO.P,C377,2*
G04 #@! TO.N,/C1-*
X-48695000Y26205000D03*
G04 #@! TD*
G04 #@! TO.P,C399,1*
G04 #@! TO.N,/C1+*
X-10205000Y20595000D03*
G04 #@! TO.P,C399,2*
G04 #@! TO.N,/C1-*
X-15905000Y20595000D03*
G04 #@! TD*
G04 #@! TO.P,C398,1*
G04 #@! TO.N,/C1+*
X-8195000Y15005000D03*
G04 #@! TO.P,C398,2*
G04 #@! TO.N,/C1-*
X-2495000Y15005000D03*
G04 #@! TD*
G04 #@! TO.P,C397,1*
G04 #@! TO.N,/C1+*
X7305000Y9405000D03*
G04 #@! TO.P,C397,2*
G04 #@! TO.N,/C1-*
X13005000Y9405000D03*
G04 #@! TD*
G04 #@! TO.P,C396,1*
G04 #@! TO.N,/C1+*
X-56405000Y64195000D03*
G04 #@! TO.P,C396,2*
G04 #@! TO.N,/C1-*
X-62105000Y64195000D03*
G04 #@! TD*
G04 #@! TO.P,C395,1*
G04 #@! TO.N,/C1+*
X-54395000Y31805000D03*
G04 #@! TO.P,C395,2*
G04 #@! TO.N,/C1-*
X-48695000Y31805000D03*
G04 #@! TD*
G04 #@! TO.P,C390,1*
G04 #@! TO.N,/C1+*
X-10205000Y14995000D03*
G04 #@! TO.P,C390,2*
G04 #@! TO.N,/C1-*
X-15905000Y14995000D03*
G04 #@! TD*
G04 #@! TO.P,C389,1*
G04 #@! TO.N,/C1+*
X-8195000Y20605000D03*
G04 #@! TO.P,C389,2*
G04 #@! TO.N,/C1-*
X-2495000Y20605000D03*
G04 #@! TD*
G04 #@! TO.P,C388,1*
G04 #@! TO.N,/C1+*
X7305000Y15005000D03*
G04 #@! TO.P,C388,2*
G04 #@! TO.N,/C1-*
X13005000Y15005000D03*
G04 #@! TD*
G04 #@! TO.P,C387,1*
G04 #@! TO.N,/C1+*
X-56405000Y58595000D03*
G04 #@! TO.P,C387,2*
G04 #@! TO.N,/C1-*
X-62105000Y58595000D03*
G04 #@! TD*
G04 #@! TO.P,C386,1*
G04 #@! TO.N,/C1+*
X-23504500Y31741500D03*
G04 #@! TO.P,C386,2*
G04 #@! TO.N,/C1-*
X-17804500Y31741500D03*
G04 #@! TD*
G04 #@! TO.P,C385,1*
G04 #@! TO.N,/C1+*
X-10205000Y9395000D03*
G04 #@! TO.P,C385,2*
G04 #@! TO.N,/C1-*
X-15905000Y9395000D03*
G04 #@! TD*
G04 #@! TO.P,C384,1*
G04 #@! TO.N,/C1+*
X-8195000Y26205000D03*
G04 #@! TO.P,C384,2*
G04 #@! TO.N,/C1-*
X-2495000Y26205000D03*
G04 #@! TD*
G04 #@! TO.P,C383,1*
G04 #@! TO.N,/C1+*
X7305000Y20605000D03*
G04 #@! TO.P,C383,2*
G04 #@! TO.N,/C1-*
X13005000Y20605000D03*
G04 #@! TD*
G04 #@! TO.P,C382,1*
G04 #@! TO.N,/C1+*
X-56405000Y52995000D03*
G04 #@! TO.P,C382,2*
G04 #@! TO.N,/C1-*
X-62105000Y52995000D03*
G04 #@! TD*
G04 #@! TO.P,C381,1*
G04 #@! TO.N,/C1+*
X-10205000Y3795000D03*
G04 #@! TO.P,C381,2*
G04 #@! TO.N,/C1-*
X-15905000Y3795000D03*
G04 #@! TD*
G04 #@! TO.P,C380,1*
G04 #@! TO.N,/C1+*
X-8195000Y31805000D03*
G04 #@! TO.P,C380,2*
G04 #@! TO.N,/C1-*
X-2495000Y31805000D03*
G04 #@! TD*
G04 #@! TO.P,C379,1*
G04 #@! TO.N,/C1+*
X7305000Y26205000D03*
G04 #@! TO.P,C379,2*
G04 #@! TO.N,/C1-*
X13005000Y26205000D03*
G04 #@! TD*
G04 #@! TO.P,C378,1*
G04 #@! TO.N,/C1+*
X-56405000Y47395000D03*
G04 #@! TO.P,C378,2*
G04 #@! TO.N,/C1-*
X-62105000Y47395000D03*
G04 #@! TD*
G04 #@! TO.P,C392,1*
G04 #@! TO.N,/C1+*
X7305000Y31805000D03*
G04 #@! TO.P,C392,2*
G04 #@! TO.N,/C1-*
X13005000Y31805000D03*
G04 #@! TD*
G04 #@! TO.P,C93,1*
G04 #@! TO.N,/C1+*
X-25605000Y58595000D03*
G04 #@! TO.P,C93,2*
G04 #@! TO.N,/C1-*
X-31305000Y58595000D03*
G04 #@! TD*
G04 #@! TO.P,C92,1*
G04 #@! TO.N,/C1+*
X-38895000Y92205000D03*
G04 #@! TO.P,C92,2*
G04 #@! TO.N,/C1-*
X-33195000Y92205000D03*
G04 #@! TD*
G04 #@! TO.P,C91,1*
G04 #@! TO.N,/C1+*
X-41005000Y47395000D03*
G04 #@! TO.P,C91,2*
G04 #@! TO.N,/C1-*
X-46705000Y47395000D03*
G04 #@! TD*
G04 #@! TO.P,C90,1*
G04 #@! TO.N,/C1+*
X-54395000Y103405000D03*
G04 #@! TO.P,C90,2*
G04 #@! TO.N,/C1-*
X-48695000Y103405000D03*
G04 #@! TD*
G04 #@! TO.P,C89,1*
G04 #@! TO.N,/C1+*
X-23595000Y47405000D03*
G04 #@! TO.P,C89,2*
G04 #@! TO.N,/C1-*
X-17895000Y47405000D03*
G04 #@! TD*
G04 #@! TO.P,C88,1*
G04 #@! TO.N,/C1+*
X-10205000Y92195000D03*
G04 #@! TO.P,C88,2*
G04 #@! TO.N,/C1-*
X-15905000Y92195000D03*
G04 #@! TD*
G04 #@! TO.P,C87,1*
G04 #@! TO.N,/C1+*
X-8195000Y58605000D03*
G04 #@! TO.P,C87,2*
G04 #@! TO.N,/C1-*
X-2495000Y58605000D03*
G04 #@! TD*
G04 #@! TO.P,C86,1*
G04 #@! TO.N,/C1+*
X5295000Y80995000D03*
G04 #@! TO.P,C86,2*
G04 #@! TO.N,/C1-*
X-405000Y80995000D03*
G04 #@! TD*
G04 #@! TO.P,C85,1*
G04 #@! TO.N,/C1+*
X7305000Y69805000D03*
G04 #@! TO.P,C85,2*
G04 #@! TO.N,/C1-*
X13005000Y69805000D03*
G04 #@! TD*
G04 #@! TO.P,C84,1*
G04 #@! TO.N,/C1+*
X20795000Y69795000D03*
G04 #@! TO.P,C84,2*
G04 #@! TO.N,/C1-*
X15095000Y69795000D03*
G04 #@! TD*
G04 #@! TO.P,C83,1*
G04 #@! TO.N,/C1+*
X-25605000Y64195000D03*
G04 #@! TO.P,C83,2*
G04 #@! TO.N,/C1-*
X-31305000Y64195000D03*
G04 #@! TD*
G04 #@! TO.P,C82,1*
G04 #@! TO.N,/C1+*
X-38895000Y86605000D03*
G04 #@! TO.P,C82,2*
G04 #@! TO.N,/C1-*
X-33195000Y86605000D03*
G04 #@! TD*
G04 #@! TO.P,C81,1*
G04 #@! TO.N,/C1+*
X-38895000Y81005000D03*
G04 #@! TO.P,C81,2*
G04 #@! TO.N,/C1-*
X-33195000Y81005000D03*
G04 #@! TD*
G04 #@! TO.P,C80,1*
G04 #@! TO.N,/C1+*
X20795000Y64195000D03*
G04 #@! TO.P,C80,2*
G04 #@! TO.N,/C1-*
X15095000Y64195000D03*
G04 #@! TD*
G04 #@! TO.P,C251,1*
G04 #@! TO.N,/C1+*
X-38995000Y3805000D03*
G04 #@! TO.P,C251,2*
G04 #@! TO.N,/C1-*
X-33295000Y3805000D03*
G04 #@! TD*
G04 #@! TO.P,C78,1*
G04 #@! TO.N,/C1+*
X-25605000Y69795000D03*
G04 #@! TO.P,C78,2*
G04 #@! TO.N,/C1-*
X-31305000Y69795000D03*
G04 #@! TD*
G04 #@! TO.P,C77,1*
G04 #@! TO.N,/C1+*
X20795000Y75395000D03*
G04 #@! TO.P,C77,2*
G04 #@! TO.N,/C1-*
X15095000Y75395000D03*
G04 #@! TD*
G04 #@! TO.P,C76,1*
G04 #@! TO.N,/C1+*
X7305000Y64205000D03*
G04 #@! TO.P,C76,2*
G04 #@! TO.N,/C1-*
X13005000Y64205000D03*
G04 #@! TD*
G04 #@! TO.P,C75,1*
G04 #@! TO.N,/C1+*
X-41005000Y58595000D03*
G04 #@! TO.P,C75,2*
G04 #@! TO.N,/C1-*
X-46705000Y58595000D03*
G04 #@! TD*
G04 #@! TO.P,C74,1*
G04 #@! TO.N,/C1+*
X5295000Y86595000D03*
G04 #@! TO.P,C74,2*
G04 #@! TO.N,/C1-*
X-405000Y86595000D03*
G04 #@! TD*
G04 #@! TO.P,C73,1*
G04 #@! TO.N,/C1+*
X-8195000Y53005000D03*
G04 #@! TO.P,C73,2*
G04 #@! TO.N,/C1-*
X-2495000Y53005000D03*
G04 #@! TD*
G04 #@! TO.P,C72,1*
G04 #@! TO.N,/C1+*
X-10205000Y97795000D03*
G04 #@! TO.P,C72,2*
G04 #@! TO.N,/C1-*
X-15905000Y97795000D03*
G04 #@! TD*
G04 #@! TO.P,C71,1*
G04 #@! TO.N,/C1+*
X5295000Y3795000D03*
G04 #@! TO.P,C71,2*
G04 #@! TO.N,/C1-*
X-405000Y3795000D03*
G04 #@! TD*
G04 #@! TO.P,C70,1*
G04 #@! TO.N,/C1+*
X-54395000Y97805000D03*
G04 #@! TO.P,C70,2*
G04 #@! TO.N,/C1-*
X-48695000Y97805000D03*
G04 #@! TD*
G04 #@! TO.P,C68,1*
G04 #@! TO.N,/C1+*
X-23595000Y41805000D03*
G04 #@! TO.P,C68,2*
G04 #@! TO.N,/C1-*
X-17895000Y41805000D03*
G04 #@! TD*
G04 #@! TO.P,C252,1*
G04 #@! TO.N,/C1+*
X-56405000Y41795000D03*
G04 #@! TO.P,C252,2*
G04 #@! TO.N,/C1-*
X-62105000Y41795000D03*
G04 #@! TD*
G04 #@! TO.P,C120,1*
G04 #@! TO.N,/C1+*
X-41005000Y108995000D03*
G04 #@! TO.P,C120,2*
G04 #@! TO.N,/C1-*
X-46705000Y108995000D03*
G04 #@! TD*
G04 #@! TO.P,C119,1*
G04 #@! TO.N,/C1+*
X-56405000Y103395000D03*
G04 #@! TO.P,C119,2*
G04 #@! TO.N,/C1-*
X-62105000Y103395000D03*
G04 #@! TD*
G04 #@! TO.P,C118,1*
G04 #@! TO.N,/C1+*
X-54395000Y69805000D03*
G04 #@! TO.P,C118,2*
G04 #@! TO.N,/C1-*
X-48695000Y69805000D03*
G04 #@! TD*
G04 #@! TO.P,C108,1*
G04 #@! TO.N,/C1+*
X5295000Y31795000D03*
G04 #@! TO.P,C108,2*
G04 #@! TO.N,/C1-*
X-405000Y31795000D03*
G04 #@! TD*
G04 #@! TO.P,C106,1*
G04 #@! TO.N,/C1+*
X-41005000Y103395000D03*
G04 #@! TO.P,C106,2*
G04 #@! TO.N,/C1-*
X-46705000Y103395000D03*
G04 #@! TD*
G04 #@! TO.P,C105,1*
G04 #@! TO.N,/C1+*
X-56405000Y92195000D03*
G04 #@! TO.P,C105,2*
G04 #@! TO.N,/C1-*
X-62105000Y92195000D03*
G04 #@! TD*
G04 #@! TO.P,C97,1*
G04 #@! TO.N,/C1+*
X-38895000Y109005000D03*
G04 #@! TO.P,C97,2*
G04 #@! TO.N,/C1-*
X-33195000Y109005000D03*
G04 #@! TD*
G04 #@! TO.P,C96,1*
G04 #@! TO.N,/C1+*
X-41005000Y97795000D03*
G04 #@! TO.P,C96,2*
G04 #@! TO.N,/C1-*
X-46705000Y97795000D03*
G04 #@! TD*
G04 #@! TO.P,C95,1*
G04 #@! TO.N,/C1+*
X-54395000Y47405000D03*
G04 #@! TO.P,C95,2*
G04 #@! TO.N,/C1-*
X-48695000Y47405000D03*
G04 #@! TD*
G04 #@! TO.P,C110,1*
G04 #@! TO.N,/C1+*
X-25605000Y108995000D03*
G04 #@! TO.P,C110,2*
G04 #@! TO.N,/C1-*
X-31305000Y108995000D03*
G04 #@! TD*
G04 #@! TO.P,C23,1*
G04 #@! TO.N,/C1+*
X20795000Y108995000D03*
G04 #@! TO.P,C23,2*
G04 #@! TO.N,/C1-*
X15095000Y108995000D03*
G04 #@! TD*
G04 #@! TO.P,C22,1*
G04 #@! TO.N,/C1+*
X-54395000Y53005000D03*
G04 #@! TO.P,C22,2*
G04 #@! TO.N,/C1-*
X-48695000Y53005000D03*
G04 #@! TD*
G04 #@! TO.P,C16,1*
G04 #@! TO.N,/C1+*
X-54395000Y58605000D03*
G04 #@! TO.P,C16,2*
G04 #@! TO.N,/C1-*
X-48695000Y58605000D03*
G04 #@! TD*
G04 #@! TO.P,C62,1*
G04 #@! TO.N,/C1+*
X-41005000Y92195000D03*
G04 #@! TO.P,C62,2*
G04 #@! TO.N,/C1-*
X-46705000Y92195000D03*
G04 #@! TD*
G04 #@! TO.P,C2,1*
G04 #@! TO.N,/C1+*
X-38995000Y47405000D03*
G04 #@! TO.P,C2,2*
G04 #@! TO.N,/C1-*
X-33295000Y47405000D03*
G04 #@! TD*
G04 #@! TO.P,C3,1*
G04 #@! TO.N,/C1+*
X20795000Y103395000D03*
G04 #@! TO.P,C3,2*
G04 #@! TO.N,/C1-*
X15095000Y103395000D03*
G04 #@! TD*
G04 #@! TO.P,C4,1*
G04 #@! TO.N,/C1+*
X-25605000Y103395000D03*
G04 #@! TO.P,C4,2*
G04 #@! TO.N,/C1-*
X-31305000Y103395000D03*
G04 #@! TD*
G04 #@! TO.P,C10,1*
G04 #@! TO.N,/C1+*
X-10205000Y-1805000D03*
G04 #@! TO.P,C10,2*
G04 #@! TO.N,/C1-*
X-15905000Y-1805000D03*
G04 #@! TD*
G04 #@! TO.P,C11,1*
G04 #@! TO.N,/C1+*
X-54395000Y64205000D03*
G04 #@! TO.P,C11,2*
G04 #@! TO.N,/C1-*
X-48695000Y64205000D03*
G04 #@! TD*
G04 #@! TO.P,C12,1*
G04 #@! TO.N,/C1+*
X-41005000Y86595000D03*
G04 #@! TO.P,C12,2*
G04 #@! TO.N,/C1-*
X-46705000Y86595000D03*
G04 #@! TD*
G04 #@! TO.P,C13,1*
G04 #@! TO.N,/C1+*
X-38995000Y53005000D03*
G04 #@! TO.P,C13,2*
G04 #@! TO.N,/C1-*
X-33295000Y53005000D03*
G04 #@! TD*
G04 #@! TO.P,C14,1*
G04 #@! TO.N,/C1+*
X-25605000Y97795000D03*
G04 #@! TO.P,C14,2*
G04 #@! TO.N,/C1-*
X-31305000Y97795000D03*
G04 #@! TD*
G04 #@! TO.P,C15,1*
G04 #@! TO.N,/C1+*
X-54395000Y75405000D03*
G04 #@! TO.P,C15,2*
G04 #@! TO.N,/C1-*
X-48695000Y75405000D03*
G04 #@! TD*
G04 #@! TO.P,C31,1*
G04 #@! TO.N,/C1+*
X-41005000Y80995000D03*
G04 #@! TO.P,C31,2*
G04 #@! TO.N,/C1-*
X-46705000Y80995000D03*
G04 #@! TD*
G04 #@! TO.P,C61,1*
G04 #@! TO.N,/C1+*
X-38995000Y58605000D03*
G04 #@! TO.P,C61,2*
G04 #@! TO.N,/C1-*
X-33295000Y58605000D03*
G04 #@! TD*
G04 #@! TO.P,C60,1*
G04 #@! TO.N,/C1+*
X-25605000Y92195000D03*
G04 #@! TO.P,C60,2*
G04 #@! TO.N,/C1-*
X-31305000Y92195000D03*
G04 #@! TD*
G04 #@! TO.P,C59,1*
G04 #@! TO.N,/C1+*
X20795000Y97795000D03*
G04 #@! TO.P,C59,2*
G04 #@! TO.N,/C1-*
X15095000Y97795000D03*
G04 #@! TD*
G04 #@! TO.P,C53,1*
G04 #@! TO.N,/C1+*
X5295000Y26195000D03*
G04 #@! TO.P,C53,2*
G04 #@! TO.N,/C1-*
X-405000Y26195000D03*
G04 #@! TD*
G04 #@! TO.P,C51,1*
G04 #@! TO.N,/C1+*
X-41005000Y75395000D03*
G04 #@! TO.P,C51,2*
G04 #@! TO.N,/C1-*
X-46705000Y75395000D03*
G04 #@! TD*
G04 #@! TO.P,C50,1*
G04 #@! TO.N,/C1+*
X-38995000Y64205000D03*
G04 #@! TO.P,C50,2*
G04 #@! TO.N,/C1-*
X-33295000Y64205000D03*
G04 #@! TD*
G04 #@! TO.P,C49,1*
G04 #@! TO.N,/C1+*
X-25605000Y86595000D03*
G04 #@! TO.P,C49,2*
G04 #@! TO.N,/C1-*
X-31305000Y86595000D03*
G04 #@! TD*
G04 #@! TO.P,C63,1*
G04 #@! TO.N,/C1+*
X20795000Y92195000D03*
G04 #@! TO.P,C63,2*
G04 #@! TO.N,/C1-*
X15095000Y92195000D03*
G04 #@! TD*
G04 #@! TO.P,C47,1*
G04 #@! TO.N,/C1+*
X7305000Y47405000D03*
G04 #@! TO.P,C47,2*
G04 #@! TO.N,/C1-*
X13005000Y47405000D03*
G04 #@! TD*
G04 #@! TO.P,C45,1*
G04 #@! TO.N,/C1+*
X5295000Y103395000D03*
G04 #@! TO.P,C45,2*
G04 #@! TO.N,/C1-*
X-405000Y103395000D03*
G04 #@! TD*
G04 #@! TO.P,C44,1*
G04 #@! TO.N,/C1+*
X7305000Y41805000D03*
G04 #@! TO.P,C44,2*
G04 #@! TO.N,/C1-*
X13005000Y41805000D03*
G04 #@! TD*
G04 #@! TO.P,C43,1*
G04 #@! TO.N,/C1+*
X-38995000Y41805000D03*
G04 #@! TO.P,C43,2*
G04 #@! TO.N,/C1-*
X-33295000Y41805000D03*
G04 #@! TD*
G04 #@! TO.P,C41,1*
G04 #@! TO.N,/C1+*
X-8195000Y41805000D03*
G04 #@! TO.P,C41,2*
G04 #@! TO.N,/C1-*
X-2495000Y41805000D03*
G04 #@! TD*
G04 #@! TO.P,C40,1*
G04 #@! TO.N,/C1+*
X-10205000Y103395000D03*
G04 #@! TO.P,C40,2*
G04 #@! TO.N,/C1-*
X-15905000Y103395000D03*
G04 #@! TD*
G04 #@! TO.P,C39,1*
G04 #@! TO.N,/C1+*
X5295000Y9395000D03*
G04 #@! TO.P,C39,2*
G04 #@! TO.N,/C1-*
X-405000Y9395000D03*
G04 #@! TD*
G04 #@! TO.P,C38,1*
G04 #@! TO.N,/C1+*
X-8195000Y69805000D03*
G04 #@! TO.P,C38,2*
G04 #@! TO.N,/C1-*
X-2495000Y69805000D03*
G04 #@! TD*
G04 #@! TO.P,C37,1*
G04 #@! TO.N,/C1+*
X5295000Y58595000D03*
G04 #@! TO.P,C37,2*
G04 #@! TO.N,/C1-*
X-405000Y58595000D03*
G04 #@! TD*
G04 #@! TO.P,C36,1*
G04 #@! TO.N,/C1+*
X-8195000Y81005000D03*
G04 #@! TO.P,C36,2*
G04 #@! TO.N,/C1-*
X-2495000Y81005000D03*
G04 #@! TD*
G04 #@! TO.P,C35,1*
G04 #@! TO.N,/C1+*
X-10205000Y69795000D03*
G04 #@! TO.P,C35,2*
G04 #@! TO.N,/C1-*
X-15905000Y69795000D03*
G04 #@! TD*
G04 #@! TO.P,C34,1*
G04 #@! TO.N,/C1+*
X-23595000Y69805000D03*
G04 #@! TO.P,C34,2*
G04 #@! TO.N,/C1-*
X-17895000Y69805000D03*
G04 #@! TD*
G04 #@! TO.P,C94,1*
G04 #@! TO.N,/C1+*
X20795000Y41795000D03*
G04 #@! TO.P,C94,2*
G04 #@! TO.N,/C1-*
X15095000Y41795000D03*
G04 #@! TD*
G04 #@! TO.P,C32,1*
G04 #@! TO.N,/C1+*
X7305000Y97805000D03*
G04 #@! TO.P,C32,2*
G04 #@! TO.N,/C1-*
X13005000Y97805000D03*
G04 #@! TD*
G04 #@! TO.P,C33,1*
G04 #@! TO.N,/C1+*
X5295000Y52995000D03*
G04 #@! TO.P,C33,2*
G04 #@! TO.N,/C1-*
X-405000Y52995000D03*
G04 #@! TD*
G04 #@! TO.P,C46,1*
G04 #@! TO.N,/C1+*
X-23595000Y86605000D03*
G04 #@! TO.P,C46,2*
G04 #@! TO.N,/C1-*
X-17895000Y86605000D03*
G04 #@! TD*
G04 #@! TO.P,C215,1*
G04 #@! TO.N,/C1+*
X-40905000Y-1805000D03*
G04 #@! TO.P,C215,2*
G04 #@! TO.N,/C1-*
X-46605000Y-1805000D03*
G04 #@! TD*
G04 #@! TO.P,C213,1*
G04 #@! TO.N,/C1+*
X-38995000Y15005000D03*
G04 #@! TO.P,C213,2*
G04 #@! TO.N,/C1-*
X-33295000Y15005000D03*
G04 #@! TD*
G04 #@! TO.P,C212,1*
G04 #@! TO.N,/C1+*
X-41005000Y20595000D03*
G04 #@! TO.P,C212,2*
G04 #@! TO.N,/C1-*
X-46705000Y20595000D03*
G04 #@! TD*
G04 #@! TO.P,C211,1*
G04 #@! TO.N,/C1+*
X-25605000Y14995000D03*
G04 #@! TO.P,C211,2*
G04 #@! TO.N,/C1-*
X-31305000Y14995000D03*
G04 #@! TD*
G04 #@! TO.P,C209,1*
G04 #@! TO.N,/C1+*
X-56405000Y31795000D03*
G04 #@! TO.P,C209,2*
G04 #@! TO.N,/C1-*
X-62105000Y31795000D03*
G04 #@! TD*
G04 #@! TO.P,C125,1*
G04 #@! TO.N,/C1+*
X-10205000Y64195000D03*
G04 #@! TO.P,C125,2*
G04 #@! TO.N,/C1-*
X-15905000Y64195000D03*
G04 #@! TD*
G04 #@! TO.P,C203,1*
G04 #@! TO.N,/C1+*
X-38995000Y9405000D03*
G04 #@! TO.P,C203,2*
G04 #@! TO.N,/C1-*
X-33295000Y9405000D03*
G04 #@! TD*
G04 #@! TO.P,C201,1*
G04 #@! TO.N,/C1+*
X-41005000Y26195000D03*
G04 #@! TO.P,C201,2*
G04 #@! TO.N,/C1-*
X-46705000Y26195000D03*
G04 #@! TD*
G04 #@! TO.P,C200,1*
G04 #@! TO.N,/C1+*
X-23595000Y75405000D03*
G04 #@! TO.P,C200,2*
G04 #@! TO.N,/C1-*
X-17895000Y75405000D03*
G04 #@! TD*
G04 #@! TO.P,C199,1*
G04 #@! TO.N,/C1+*
X7305000Y103405000D03*
G04 #@! TO.P,C199,2*
G04 #@! TO.N,/C1-*
X13005000Y103405000D03*
G04 #@! TD*
G04 #@! TO.P,C198,1*
G04 #@! TO.N,/C1+*
X-23595000Y103405000D03*
G04 #@! TO.P,C198,2*
G04 #@! TO.N,/C1-*
X-17895000Y103405000D03*
G04 #@! TD*
G04 #@! TO.P,C197,1*
G04 #@! TO.N,/C1+*
X-8195000Y92205000D03*
G04 #@! TO.P,C197,2*
G04 #@! TO.N,/C1-*
X-2495000Y92205000D03*
G04 #@! TD*
G04 #@! TO.P,C196,1*
G04 #@! TO.N,/C1+*
X-10205000Y58595000D03*
G04 #@! TO.P,C196,2*
G04 #@! TO.N,/C1-*
X-15905000Y58595000D03*
G04 #@! TD*
G04 #@! TO.P,C195,1*
G04 #@! TO.N,/C1+*
X-23595000Y81005000D03*
G04 #@! TO.P,C195,2*
G04 #@! TO.N,/C1-*
X-17895000Y81005000D03*
G04 #@! TD*
G04 #@! TO.P,C194,1*
G04 #@! TO.N,/C1+*
X5295000Y41795000D03*
G04 #@! TO.P,C194,2*
G04 #@! TO.N,/C1-*
X-405000Y41795000D03*
G04 #@! TD*
G04 #@! TO.P,C193,1*
G04 #@! TO.N,/C1+*
X-8195000Y97805000D03*
G04 #@! TO.P,C193,2*
G04 #@! TO.N,/C1-*
X-2495000Y97805000D03*
G04 #@! TD*
G04 #@! TO.P,C192,1*
G04 #@! TO.N,/C1+*
X-10205000Y52995000D03*
G04 #@! TO.P,C192,2*
G04 #@! TO.N,/C1-*
X-15905000Y52995000D03*
G04 #@! TD*
G04 #@! TO.P,C191,1*
G04 #@! TO.N,/C1+*
X-8195000Y86605000D03*
G04 #@! TO.P,C191,2*
G04 #@! TO.N,/C1-*
X-2495000Y86605000D03*
G04 #@! TD*
G04 #@! TO.P,C190,1*
G04 #@! TO.N,/C1+*
X5295000Y20595000D03*
G04 #@! TO.P,C190,2*
G04 #@! TO.N,/C1-*
X-405000Y20595000D03*
G04 #@! TD*
G04 #@! TO.P,C126,1*
G04 #@! TO.N,/C1+*
X-54395000Y81005000D03*
G04 #@! TO.P,C126,2*
G04 #@! TO.N,/C1-*
X-48695000Y81005000D03*
G04 #@! TD*
G04 #@! TO.P,C48,1*
G04 #@! TO.N,/C1+*
X-41005000Y69795000D03*
G04 #@! TO.P,C48,2*
G04 #@! TO.N,/C1-*
X-46705000Y69795000D03*
G04 #@! TD*
G04 #@! TO.P,C155,1*
G04 #@! TO.N,/C1+*
X-25605000Y80995000D03*
G04 #@! TO.P,C155,2*
G04 #@! TO.N,/C1-*
X-31305000Y80995000D03*
G04 #@! TD*
G04 #@! TO.P,C154,1*
G04 #@! TO.N,/C1+*
X20795000Y86595000D03*
G04 #@! TO.P,C154,2*
G04 #@! TO.N,/C1-*
X15095000Y86595000D03*
G04 #@! TD*
G04 #@! TO.P,C153,1*
G04 #@! TO.N,/C1+*
X7305000Y53005000D03*
G04 #@! TO.P,C153,2*
G04 #@! TO.N,/C1-*
X13005000Y53005000D03*
G04 #@! TD*
G04 #@! TO.P,C152,1*
G04 #@! TO.N,/C1+*
X5295000Y97795000D03*
G04 #@! TO.P,C152,2*
G04 #@! TO.N,/C1-*
X-405000Y97795000D03*
G04 #@! TD*
G04 #@! TO.P,C149,1*
G04 #@! TO.N,/C1+*
X-54395000Y92205000D03*
G04 #@! TO.P,C149,2*
G04 #@! TO.N,/C1-*
X-48695000Y92205000D03*
G04 #@! TD*
G04 #@! TO.P,C148,1*
G04 #@! TO.N,/C1+*
X5295000Y14995000D03*
G04 #@! TO.P,C148,2*
G04 #@! TO.N,/C1-*
X-405000Y14995000D03*
G04 #@! TD*
G04 #@! TO.P,C147,1*
G04 #@! TO.N,/C1+*
X-54395000Y86605000D03*
G04 #@! TO.P,C147,2*
G04 #@! TO.N,/C1-*
X-48695000Y86605000D03*
G04 #@! TD*
G04 #@! TO.P,C146,1*
G04 #@! TO.N,/C1+*
X-41005000Y64195000D03*
G04 #@! TO.P,C146,2*
G04 #@! TO.N,/C1-*
X-46705000Y64195000D03*
G04 #@! TD*
G04 #@! TO.P,C145,1*
G04 #@! TO.N,/C1+*
X-38895000Y75405000D03*
G04 #@! TO.P,C145,2*
G04 #@! TO.N,/C1-*
X-33195000Y75405000D03*
G04 #@! TD*
G04 #@! TO.P,C144,1*
G04 #@! TO.N,/C1+*
X-25605000Y75395000D03*
G04 #@! TO.P,C144,2*
G04 #@! TO.N,/C1-*
X-31305000Y75395000D03*
G04 #@! TD*
G04 #@! TO.P,C143,1*
G04 #@! TO.N,/C1+*
X20795000Y80995000D03*
G04 #@! TO.P,C143,2*
G04 #@! TO.N,/C1-*
X15095000Y80995000D03*
G04 #@! TD*
G04 #@! TO.P,C142,1*
G04 #@! TO.N,/C1+*
X7305000Y58605000D03*
G04 #@! TO.P,C142,2*
G04 #@! TO.N,/C1-*
X13005000Y58605000D03*
G04 #@! TD*
G04 #@! TO.P,C188,1*
G04 #@! TO.N,/C1+*
X5295000Y92195000D03*
G04 #@! TO.P,C188,2*
G04 #@! TO.N,/C1-*
X-405000Y92195000D03*
G04 #@! TD*
G04 #@! TO.P,C140,1*
G04 #@! TO.N,/C1+*
X-8195000Y47405000D03*
G04 #@! TO.P,C140,2*
G04 #@! TO.N,/C1-*
X-2495000Y47405000D03*
G04 #@! TD*
G04 #@! TO.P,C139,1*
G04 #@! TO.N,/C1+*
X-23595000Y53005000D03*
G04 #@! TO.P,C139,2*
G04 #@! TO.N,/C1-*
X-17895000Y53005000D03*
G04 #@! TD*
G04 #@! TO.P,C138,1*
G04 #@! TO.N,/C1+*
X20795000Y52995000D03*
G04 #@! TO.P,C138,2*
G04 #@! TO.N,/C1-*
X15095000Y52995000D03*
G04 #@! TD*
G04 #@! TO.P,C137,1*
G04 #@! TO.N,/C1+*
X7305000Y86605000D03*
G04 #@! TO.P,C137,2*
G04 #@! TO.N,/C1-*
X13005000Y86605000D03*
G04 #@! TD*
G04 #@! TO.P,C136,1*
G04 #@! TO.N,/C1+*
X5295000Y64195000D03*
G04 #@! TO.P,C136,2*
G04 #@! TO.N,/C1-*
X-405000Y64195000D03*
G04 #@! TD*
G04 #@! TO.P,C135,1*
G04 #@! TO.N,/C1+*
X-8195000Y75405000D03*
G04 #@! TO.P,C135,2*
G04 #@! TO.N,/C1-*
X-2495000Y75405000D03*
G04 #@! TD*
G04 #@! TO.P,C134,1*
G04 #@! TO.N,/C1+*
X-10205000Y75395000D03*
G04 #@! TO.P,C134,2*
G04 #@! TO.N,/C1-*
X-15905000Y75395000D03*
G04 #@! TD*
G04 #@! TO.P,C133,1*
G04 #@! TO.N,/C1+*
X-23595000Y64205000D03*
G04 #@! TO.P,C133,2*
G04 #@! TO.N,/C1-*
X-17895000Y64205000D03*
G04 #@! TD*
G04 #@! TO.P,C132,1*
G04 #@! TO.N,/C1+*
X-25605000Y41795000D03*
G04 #@! TO.P,C132,2*
G04 #@! TO.N,/C1-*
X-31305000Y41795000D03*
G04 #@! TD*
G04 #@! TO.P,C131,1*
G04 #@! TO.N,/C1+*
X20795000Y47395000D03*
G04 #@! TO.P,C131,2*
G04 #@! TO.N,/C1-*
X15095000Y47395000D03*
G04 #@! TD*
G04 #@! TO.P,C128,1*
G04 #@! TO.N,/C1+*
X7305000Y109005000D03*
G04 #@! TO.P,C128,2*
G04 #@! TO.N,/C1-*
X13005000Y109005000D03*
G04 #@! TD*
G04 #@! TO.P,C127,1*
G04 #@! TO.N,/C1+*
X-54395000Y109005000D03*
G04 #@! TO.P,C127,2*
G04 #@! TO.N,/C1-*
X-48695000Y109005000D03*
G04 #@! TD*
G04 #@! TO.P,C189,1*
G04 #@! TO.N,/C1+*
X-56405000Y97795000D03*
G04 #@! TO.P,C189,2*
G04 #@! TO.N,/C1-*
X-62105000Y97795000D03*
G04 #@! TD*
G04 #@! TO.P,C180,1*
G04 #@! TO.N,/C1+*
X-54395000Y41805000D03*
G04 #@! TO.P,C180,2*
G04 #@! TO.N,/C1-*
X-48695000Y41805000D03*
G04 #@! TD*
G04 #@! TO.P,C179,1*
G04 #@! TO.N,/C1+*
X-8195000Y103405000D03*
G04 #@! TO.P,C179,2*
G04 #@! TO.N,/C1-*
X-2495000Y103405000D03*
G04 #@! TD*
G04 #@! TO.P,C178,1*
G04 #@! TO.N,/C1+*
X-10205000Y47395000D03*
G04 #@! TO.P,C178,2*
G04 #@! TO.N,/C1-*
X-15905000Y47395000D03*
G04 #@! TD*
G04 #@! TO.P,C177,1*
G04 #@! TO.N,/C1+*
X-23595000Y92205000D03*
G04 #@! TO.P,C177,2*
G04 #@! TO.N,/C1-*
X-17895000Y92205000D03*
G04 #@! TD*
G04 #@! TO.P,C176,1*
G04 #@! TO.N,/C1+*
X-10205000Y41795000D03*
G04 #@! TO.P,C176,2*
G04 #@! TO.N,/C1-*
X-15905000Y41795000D03*
G04 #@! TD*
G04 #@! TO.P,C175,1*
G04 #@! TO.N,/C1+*
X-23595000Y97805000D03*
G04 #@! TO.P,C175,2*
G04 #@! TO.N,/C1-*
X-17895000Y97805000D03*
G04 #@! TD*
G04 #@! TO.P,C157,1*
G04 #@! TO.N,/C1+*
X5295000Y47395000D03*
G04 #@! TO.P,C157,2*
G04 #@! TO.N,/C1-*
X-405000Y47395000D03*
G04 #@! TD*
G04 #@! TO.P,C156,1*
G04 #@! TO.N,/C1+*
X7305000Y75405000D03*
G04 #@! TO.P,C156,2*
G04 #@! TO.N,/C1-*
X13005000Y75405000D03*
G04 #@! TD*
G04 #@! TO.P,C171,1*
G04 #@! TO.N,/C1+*
X5295000Y75395000D03*
G04 #@! TO.P,C171,2*
G04 #@! TO.N,/C1-*
X-405000Y75395000D03*
G04 #@! TD*
G04 #@! TO.P,C170,1*
G04 #@! TO.N,/C1+*
X-8195000Y64205000D03*
G04 #@! TO.P,C170,2*
G04 #@! TO.N,/C1-*
X-2495000Y64205000D03*
G04 #@! TD*
G04 #@! TO.P,C169,1*
G04 #@! TO.N,/C1+*
X-10205000Y86595000D03*
G04 #@! TO.P,C169,2*
G04 #@! TO.N,/C1-*
X-15905000Y86595000D03*
G04 #@! TD*
G04 #@! TO.P,C168,1*
G04 #@! TO.N,/C1+*
X-25605000Y47395000D03*
G04 #@! TO.P,C168,2*
G04 #@! TO.N,/C1-*
X-31305000Y47395000D03*
G04 #@! TD*
G04 #@! TO.P,C167,1*
G04 #@! TO.N,/C1+*
X-41005000Y41795000D03*
G04 #@! TO.P,C167,2*
G04 #@! TO.N,/C1-*
X-46705000Y41795000D03*
G04 #@! TD*
G04 #@! TO.P,C166,1*
G04 #@! TO.N,/C1+*
X-38895000Y97805000D03*
G04 #@! TO.P,C166,2*
G04 #@! TO.N,/C1-*
X-33195000Y97805000D03*
G04 #@! TD*
G04 #@! TO.P,C165,1*
G04 #@! TO.N,/C1+*
X-25605000Y52995000D03*
G04 #@! TO.P,C165,2*
G04 #@! TO.N,/C1-*
X-31305000Y52995000D03*
G04 #@! TD*
G04 #@! TO.P,C164,1*
G04 #@! TO.N,/C1+*
X20795000Y58595000D03*
G04 #@! TO.P,C164,2*
G04 #@! TO.N,/C1-*
X15095000Y58595000D03*
G04 #@! TD*
G04 #@! TO.P,C163,1*
G04 #@! TO.N,/C1+*
X7305000Y81005000D03*
G04 #@! TO.P,C163,2*
G04 #@! TO.N,/C1-*
X13005000Y81005000D03*
G04 #@! TD*
G04 #@! TO.P,C162,1*
G04 #@! TO.N,/C1+*
X5295000Y69795000D03*
G04 #@! TO.P,C162,2*
G04 #@! TO.N,/C1-*
X-405000Y69795000D03*
G04 #@! TD*
G04 #@! TO.P,C161,1*
G04 #@! TO.N,/C1+*
X7305000Y92205000D03*
G04 #@! TO.P,C161,2*
G04 #@! TO.N,/C1-*
X13005000Y92205000D03*
G04 #@! TD*
G04 #@! TO.P,C160,1*
G04 #@! TO.N,/C1+*
X-10205000Y80995000D03*
G04 #@! TO.P,C160,2*
G04 #@! TO.N,/C1-*
X-15905000Y80995000D03*
G04 #@! TD*
G04 #@! TO.P,C174,1*
G04 #@! TO.N,/C1+*
X-23595000Y58605000D03*
G04 #@! TO.P,C174,2*
G04 #@! TO.N,/C1-*
X-17895000Y58605000D03*
G04 #@! TD*
G04 #@! TO.P,C172,1*
G04 #@! TO.N,/C1+*
X-38895000Y103405000D03*
G04 #@! TO.P,C172,2*
G04 #@! TO.N,/C1-*
X-33195000Y103405000D03*
G04 #@! TD*
G04 #@! TO.P,C841,1*
G04 #@! TO.N,/C2+*
X54395000Y108995000D03*
G04 #@! TO.P,C841,2*
G04 #@! TO.N,/C2-*
X48695000Y108995000D03*
G04 #@! TD*
G04 #@! TO.P,C840,1*
G04 #@! TO.N,/C2+*
X38995000Y80995000D03*
G04 #@! TO.P,C840,2*
G04 #@! TO.N,/C2-*
X33295000Y80995000D03*
G04 #@! TD*
G04 #@! TO.P,C839,1*
G04 #@! TO.N,/C2+*
X54395000Y92195000D03*
G04 #@! TO.P,C839,2*
G04 #@! TO.N,/C2-*
X48695000Y92195000D03*
G04 #@! TD*
G04 #@! TO.P,C838,1*
G04 #@! TO.N,/C2+*
X41005000Y47405000D03*
G04 #@! TO.P,C838,2*
G04 #@! TO.N,/C2-*
X46705000Y47405000D03*
G04 #@! TD*
G04 #@! TO.P,C837,1*
G04 #@! TO.N,/C2+*
X25605000Y47405000D03*
G04 #@! TO.P,C837,2*
G04 #@! TO.N,/C2-*
X31305000Y47405000D03*
G04 #@! TD*
G04 #@! TO.P,C835,1*
G04 #@! TO.N,/C2+*
X56405000Y47405000D03*
G04 #@! TO.P,C835,2*
G04 #@! TO.N,/C2-*
X62105000Y47405000D03*
G04 #@! TD*
G04 #@! TO.P,C834,1*
G04 #@! TO.N,/C2+*
X41005000Y53005000D03*
G04 #@! TO.P,C834,2*
G04 #@! TO.N,/C2-*
X46705000Y53005000D03*
G04 #@! TD*
G04 #@! TO.P,C833,1*
G04 #@! TO.N,/C2+*
X54395000Y86595000D03*
G04 #@! TO.P,C833,2*
G04 #@! TO.N,/C2-*
X48695000Y86595000D03*
G04 #@! TD*
G04 #@! TO.P,C832,1*
G04 #@! TO.N,/C2+*
X25605000Y75405000D03*
G04 #@! TO.P,C832,2*
G04 #@! TO.N,/C2-*
X31305000Y75405000D03*
G04 #@! TD*
G04 #@! TO.P,C827,1*
G04 #@! TO.N,/C2+*
X56405000Y41805000D03*
G04 #@! TO.P,C827,2*
G04 #@! TO.N,/C2-*
X62105000Y41805000D03*
G04 #@! TD*
G04 #@! TO.P,C825,1*
G04 #@! TO.N,/C2+*
X38995000Y75395000D03*
G04 #@! TO.P,C825,2*
G04 #@! TO.N,/C2-*
X33295000Y75395000D03*
G04 #@! TD*
G04 #@! TO.P,C820,1*
G04 #@! TO.N,/C2+*
X54395000Y14095000D03*
G04 #@! TO.P,C820,2*
G04 #@! TO.N,/C2-*
X48695000Y14095000D03*
G04 #@! TD*
G04 #@! TO.P,C819,1*
G04 #@! TO.N,/C2+*
X23595000Y14095000D03*
G04 #@! TO.P,C819,2*
G04 #@! TO.N,/C2-*
X17895000Y14095000D03*
G04 #@! TD*
G04 #@! TO.P,C818,1*
G04 #@! TO.N,/C2+*
X25605000Y53005000D03*
G04 #@! TO.P,C818,2*
G04 #@! TO.N,/C2-*
X31305000Y53005000D03*
G04 #@! TD*
G04 #@! TO.P,C872,1*
G04 #@! TO.N,/C2+*
X54395000Y19695000D03*
G04 #@! TO.P,C872,2*
G04 #@! TO.N,/C2-*
X48695000Y19695000D03*
G04 #@! TD*
G04 #@! TO.P,C870,1*
G04 #@! TO.N,/C2+*
X56405000Y109005000D03*
G04 #@! TO.P,C870,2*
G04 #@! TO.N,/C2-*
X62105000Y109005000D03*
G04 #@! TD*
G04 #@! TO.P,C173,1*
G04 #@! TO.N,/C1+*
X-56405000Y108995000D03*
G04 #@! TO.P,C173,2*
G04 #@! TO.N,/C1-*
X-62105000Y108995000D03*
G04 #@! TD*
G04 #@! TO.P,C860,1*
G04 #@! TO.N,/C2+*
X41005000Y2905000D03*
G04 #@! TO.P,C860,2*
G04 #@! TO.N,/C2-*
X46705000Y2905000D03*
G04 #@! TD*
G04 #@! TO.P,C859,1*
G04 #@! TO.N,/C2+*
X56405000Y58605000D03*
G04 #@! TO.P,C859,2*
G04 #@! TO.N,/C2-*
X62105000Y58605000D03*
G04 #@! TD*
G04 #@! TO.P,C858,1*
G04 #@! TO.N,/C2+*
X41005000Y64205000D03*
G04 #@! TO.P,C858,2*
G04 #@! TO.N,/C2-*
X46705000Y64205000D03*
G04 #@! TD*
G04 #@! TO.P,C857,1*
G04 #@! TO.N,/C2+*
X54395000Y75395000D03*
G04 #@! TO.P,C857,2*
G04 #@! TO.N,/C2-*
X48695000Y75395000D03*
G04 #@! TD*
G04 #@! TO.P,C856,1*
G04 #@! TO.N,/C2+*
X38995000Y64195000D03*
G04 #@! TO.P,C856,2*
G04 #@! TO.N,/C2-*
X33295000Y64195000D03*
G04 #@! TD*
G04 #@! TO.P,C855,1*
G04 #@! TO.N,/C2+*
X25605000Y81005000D03*
G04 #@! TO.P,C855,2*
G04 #@! TO.N,/C2-*
X31305000Y81005000D03*
G04 #@! TD*
G04 #@! TO.P,C848,1*
G04 #@! TO.N,/C2+*
X56405000Y53005000D03*
G04 #@! TO.P,C848,2*
G04 #@! TO.N,/C2-*
X62105000Y53005000D03*
G04 #@! TD*
G04 #@! TO.P,C847,1*
G04 #@! TO.N,/C2+*
X41005000Y58605000D03*
G04 #@! TO.P,C847,2*
G04 #@! TO.N,/C2-*
X46705000Y58605000D03*
G04 #@! TD*
G04 #@! TO.P,C862,1*
G04 #@! TO.N,/C2+*
X54395000Y80995000D03*
G04 #@! TO.P,C862,2*
G04 #@! TO.N,/C2-*
X48695000Y80995000D03*
G04 #@! TD*
G04 #@! TO.P,C845,1*
G04 #@! TO.N,/C2+*
X38995000Y69795000D03*
G04 #@! TO.P,C845,2*
G04 #@! TO.N,/C2-*
X33295000Y69795000D03*
G04 #@! TD*
G04 #@! TO.P,C813,1*
G04 #@! TO.N,/C2+*
X25605000Y69805000D03*
G04 #@! TO.P,C813,2*
G04 #@! TO.N,/C2-*
X31305000Y69805000D03*
G04 #@! TD*
G04 #@! TO.P,C806,1*
G04 #@! TO.N,/C2+*
X56405000Y8505000D03*
G04 #@! TO.P,C806,2*
G04 #@! TO.N,/C2-*
X62105000Y8505000D03*
G04 #@! TD*
G04 #@! TO.P,C805,1*
G04 #@! TO.N,/C2+*
X41005000Y-2695000D03*
G04 #@! TO.P,C805,2*
G04 #@! TO.N,/C2-*
X46705000Y-2695000D03*
G04 #@! TD*
G04 #@! TO.P,C801,1*
G04 #@! TO.N,/C2+*
X41005000Y41805000D03*
G04 #@! TO.P,C801,2*
G04 #@! TO.N,/C2-*
X46705000Y41805000D03*
G04 #@! TD*
G04 #@! TO.P,C966,1*
G04 #@! TO.N,/C2+*
X41005000Y8505000D03*
G04 #@! TO.P,C966,2*
G04 #@! TO.N,/C2-*
X46705000Y8505000D03*
G04 #@! TD*
G04 #@! TO.P,C965,1*
G04 #@! TO.N,/C2+*
X38995000Y19695000D03*
G04 #@! TO.P,C965,2*
G04 #@! TO.N,/C2-*
X33295000Y19695000D03*
G04 #@! TD*
G04 #@! TO.P,C961,1*
G04 #@! TO.N,/C2+*
X38995000Y47395000D03*
G04 #@! TO.P,C961,2*
G04 #@! TO.N,/C2-*
X33295000Y47395000D03*
G04 #@! TD*
G04 #@! TO.P,C960,1*
G04 #@! TO.N,/C2+*
X25605000Y92205000D03*
G04 #@! TO.P,C960,2*
G04 #@! TO.N,/C2-*
X31305000Y92205000D03*
G04 #@! TD*
G04 #@! TO.P,C959,1*
G04 #@! TO.N,/C2+*
X38995000Y52995000D03*
G04 #@! TO.P,C959,2*
G04 #@! TO.N,/C2-*
X33295000Y52995000D03*
G04 #@! TD*
G04 #@! TO.P,C958,1*
G04 #@! TO.N,/C2+*
X54395000Y64195000D03*
G04 #@! TO.P,C958,2*
G04 #@! TO.N,/C2-*
X48695000Y64195000D03*
G04 #@! TD*
G04 #@! TO.P,C957,1*
G04 #@! TO.N,/C2+*
X41005000Y75405000D03*
G04 #@! TO.P,C957,2*
G04 #@! TO.N,/C2-*
X46705000Y75405000D03*
G04 #@! TD*
G04 #@! TO.P,C956,1*
G04 #@! TO.N,/C2+*
X56405000Y69805000D03*
G04 #@! TO.P,C956,2*
G04 #@! TO.N,/C2-*
X62105000Y69805000D03*
G04 #@! TD*
G04 #@! TO.P,C955,1*
G04 #@! TO.N,/C2+*
X41005000Y14105000D03*
G04 #@! TO.P,C955,2*
G04 #@! TO.N,/C2-*
X46705000Y14105000D03*
G04 #@! TD*
G04 #@! TO.P,C830,1*
G04 #@! TO.N,/C2+*
X38995000Y14095000D03*
G04 #@! TO.P,C830,2*
G04 #@! TO.N,/C2-*
X33295000Y14095000D03*
G04 #@! TD*
G04 #@! TO.P,C952,1*
G04 #@! TO.N,/C2+*
X25605000Y41805000D03*
G04 #@! TO.P,C952,2*
G04 #@! TO.N,/C2-*
X31305000Y41805000D03*
G04 #@! TD*
G04 #@! TO.P,C949,1*
G04 #@! TO.N,/C2+*
X25605000Y97805000D03*
G04 #@! TO.P,C949,2*
G04 #@! TO.N,/C2-*
X31305000Y97805000D03*
G04 #@! TD*
G04 #@! TO.P,C943,1*
G04 #@! TO.N,/C2+*
X56405000Y19705000D03*
G04 #@! TO.P,C943,2*
G04 #@! TO.N,/C2-*
X62105000Y19705000D03*
G04 #@! TD*
G04 #@! TO.P,C942,1*
G04 #@! TO.N,/C2+*
X56405000Y30905000D03*
G04 #@! TO.P,C942,2*
G04 #@! TO.N,/C2-*
X62105000Y30905000D03*
G04 #@! TD*
G04 #@! TO.P,C954,1*
G04 #@! TO.N,/C2+*
X25605000Y-2695000D03*
G04 #@! TO.P,C954,2*
G04 #@! TO.N,/C2-*
X31305000Y-2695000D03*
G04 #@! TD*
G04 #@! TO.P,C997,1*
G04 #@! TO.N,/C2+*
X54395000Y58595000D03*
G04 #@! TO.P,C997,2*
G04 #@! TO.N,/C2-*
X48695000Y58595000D03*
G04 #@! TD*
G04 #@! TO.P,C996,1*
G04 #@! TO.N,/C2+*
X41005000Y81005000D03*
G04 #@! TO.P,C996,2*
G04 #@! TO.N,/C2-*
X46705000Y81005000D03*
G04 #@! TD*
G04 #@! TO.P,C995,1*
G04 #@! TO.N,/C2+*
X56405000Y75405000D03*
G04 #@! TO.P,C995,2*
G04 #@! TO.N,/C2-*
X62105000Y75405000D03*
G04 #@! TD*
G04 #@! TO.P,C994,1*
G04 #@! TO.N,/C2+*
X41005000Y19705000D03*
G04 #@! TO.P,C994,2*
G04 #@! TO.N,/C2-*
X46705000Y19705000D03*
G04 #@! TD*
G04 #@! TO.P,C993,1*
G04 #@! TO.N,/C2+*
X38995000Y8495000D03*
G04 #@! TO.P,C993,2*
G04 #@! TO.N,/C2-*
X33295000Y8495000D03*
G04 #@! TD*
G04 #@! TO.P,C989,1*
G04 #@! TO.N,/C2+*
X25605000Y103405000D03*
G04 #@! TO.P,C989,2*
G04 #@! TO.N,/C2-*
X31305000Y103405000D03*
G04 #@! TD*
G04 #@! TO.P,C988,1*
G04 #@! TO.N,/C2+*
X23595000Y-2705000D03*
G04 #@! TO.P,C988,2*
G04 #@! TO.N,/C2-*
X17895000Y-2705000D03*
G04 #@! TD*
G04 #@! TO.P,C987,1*
G04 #@! TO.N,/C2+*
X38995000Y41795000D03*
G04 #@! TO.P,C987,2*
G04 #@! TO.N,/C2-*
X33295000Y41795000D03*
G04 #@! TD*
G04 #@! TO.P,C158,1*
G04 #@! TO.N,/C1+*
X-38995000Y69805000D03*
G04 #@! TO.P,C158,2*
G04 #@! TO.N,/C1-*
X-33295000Y69805000D03*
G04 #@! TD*
G04 #@! TO.P,C969,1*
G04 #@! TO.N,/C2+*
X56405000Y-2695000D03*
G04 #@! TO.P,C969,2*
G04 #@! TO.N,/C2-*
X62105000Y-2695000D03*
G04 #@! TD*
G04 #@! TO.P,C984,1*
G04 #@! TO.N,/C2+*
X41005000Y86605000D03*
G04 #@! TO.P,C984,2*
G04 #@! TO.N,/C2-*
X46705000Y86605000D03*
G04 #@! TD*
G04 #@! TO.P,C983,1*
G04 #@! TO.N,/C2+*
X56405000Y81005000D03*
G04 #@! TO.P,C983,2*
G04 #@! TO.N,/C2-*
X62105000Y81005000D03*
G04 #@! TD*
G04 #@! TO.P,C982,1*
G04 #@! TO.N,/C2+*
X56405000Y64205000D03*
G04 #@! TO.P,C982,2*
G04 #@! TO.N,/C2-*
X62105000Y64205000D03*
G04 #@! TD*
G04 #@! TO.P,C981,1*
G04 #@! TO.N,/C2+*
X38995000Y2895000D03*
G04 #@! TO.P,C981,2*
G04 #@! TO.N,/C2-*
X33295000Y2895000D03*
G04 #@! TD*
G04 #@! TO.P,C976,1*
G04 #@! TO.N,/C2+*
X25605000Y109005000D03*
G04 #@! TO.P,C976,2*
G04 #@! TO.N,/C2-*
X31305000Y109005000D03*
G04 #@! TD*
G04 #@! TO.P,C975,1*
G04 #@! TO.N,/C2+*
X54395000Y47395000D03*
G04 #@! TO.P,C975,2*
G04 #@! TO.N,/C2-*
X48695000Y47395000D03*
G04 #@! TD*
G04 #@! TO.P,C974,1*
G04 #@! TO.N,/C2+*
X41005000Y92205000D03*
G04 #@! TO.P,C974,2*
G04 #@! TO.N,/C2-*
X46705000Y92205000D03*
G04 #@! TD*
G04 #@! TO.P,C973,1*
G04 #@! TO.N,/C2+*
X56405000Y86605000D03*
G04 #@! TO.P,C973,2*
G04 #@! TO.N,/C2-*
X62105000Y86605000D03*
G04 #@! TD*
G04 #@! TO.P,C972,1*
G04 #@! TO.N,/C2+*
X41005000Y109005000D03*
G04 #@! TO.P,C972,2*
G04 #@! TO.N,/C2-*
X46705000Y109005000D03*
G04 #@! TD*
G04 #@! TO.P,C970,1*
G04 #@! TO.N,/C2+*
X25605000Y86605000D03*
G04 #@! TO.P,C970,2*
G04 #@! TO.N,/C2-*
X31305000Y86605000D03*
G04 #@! TD*
G04 #@! TO.P,C985,1*
G04 #@! TO.N,/C2+*
X38995000Y58595000D03*
G04 #@! TO.P,C985,2*
G04 #@! TO.N,/C2-*
X33295000Y58595000D03*
G04 #@! TD*
G04 #@! TO.P,C904,1*
G04 #@! TO.N,/C2+*
X54395000Y69795000D03*
G04 #@! TO.P,C904,2*
G04 #@! TO.N,/C2-*
X48695000Y69795000D03*
G04 #@! TD*
G04 #@! TO.P,C903,1*
G04 #@! TO.N,/C2+*
X41005000Y69805000D03*
G04 #@! TO.P,C903,2*
G04 #@! TO.N,/C2-*
X46705000Y69805000D03*
G04 #@! TD*
G04 #@! TO.P,C897,1*
G04 #@! TO.N,/C2+*
X56405000Y103405000D03*
G04 #@! TO.P,C897,2*
G04 #@! TO.N,/C2-*
X62105000Y103405000D03*
G04 #@! TD*
G04 #@! TO.P,C896,1*
G04 #@! TO.N,/C2+*
X56405000Y14105000D03*
G04 #@! TO.P,C896,2*
G04 #@! TO.N,/C2-*
X62105000Y14105000D03*
G04 #@! TD*
G04 #@! TO.P,C894,1*
G04 #@! TO.N,/C2+*
X54395000Y52995000D03*
G04 #@! TO.P,C894,2*
G04 #@! TO.N,/C2-*
X48695000Y52995000D03*
G04 #@! TD*
G04 #@! TO.P,C893,1*
G04 #@! TO.N,/C2+*
X38995000Y97795000D03*
G04 #@! TO.P,C893,2*
G04 #@! TO.N,/C2-*
X33295000Y97795000D03*
G04 #@! TD*
G04 #@! TO.P,C939,1*
G04 #@! TO.N,/C2+*
X23595000Y8495000D03*
G04 #@! TO.P,C939,2*
G04 #@! TO.N,/C2-*
X17895000Y8495000D03*
G04 #@! TD*
G04 #@! TO.P,C938,1*
G04 #@! TO.N,/C2+*
X54395000Y8495000D03*
G04 #@! TO.P,C938,2*
G04 #@! TO.N,/C2-*
X48695000Y8495000D03*
G04 #@! TD*
G04 #@! TO.P,C886,1*
G04 #@! TO.N,/C2+*
X38995000Y92195000D03*
G04 #@! TO.P,C886,2*
G04 #@! TO.N,/C2-*
X33295000Y92195000D03*
G04 #@! TD*
G04 #@! TO.P,C884,1*
G04 #@! TO.N,/C2+*
X25605000Y64205000D03*
G04 #@! TO.P,C884,2*
G04 #@! TO.N,/C2-*
X31305000Y64205000D03*
G04 #@! TD*
G04 #@! TO.P,C883,1*
G04 #@! TO.N,/C2+*
X54395000Y-2705000D03*
G04 #@! TO.P,C883,2*
G04 #@! TO.N,/C2-*
X48695000Y-2705000D03*
G04 #@! TD*
G04 #@! TO.P,C882,1*
G04 #@! TO.N,/C2+*
X23595000Y2895000D03*
G04 #@! TO.P,C882,2*
G04 #@! TO.N,/C2-*
X17895000Y2895000D03*
G04 #@! TD*
G04 #@! TO.P,C881,1*
G04 #@! TO.N,/C2+*
X54395000Y103395000D03*
G04 #@! TO.P,C881,2*
G04 #@! TO.N,/C2-*
X48695000Y103395000D03*
G04 #@! TD*
G04 #@! TO.P,C880,1*
G04 #@! TO.N,/C2+*
X54395000Y2895000D03*
G04 #@! TO.P,C880,2*
G04 #@! TO.N,/C2-*
X48695000Y2895000D03*
G04 #@! TD*
G04 #@! TO.P,C936,1*
G04 #@! TO.N,/C2+*
X25605000Y58605000D03*
G04 #@! TO.P,C936,2*
G04 #@! TO.N,/C2-*
X31305000Y58605000D03*
G04 #@! TD*
G04 #@! TO.P,C935,1*
G04 #@! TO.N,/C2+*
X38995000Y86595000D03*
G04 #@! TO.P,C935,2*
G04 #@! TO.N,/C2-*
X33295000Y86595000D03*
G04 #@! TD*
G04 #@! TO.P,C934,1*
G04 #@! TO.N,/C2+*
X54395000Y97795000D03*
G04 #@! TO.P,C934,2*
G04 #@! TO.N,/C2-*
X48695000Y97795000D03*
G04 #@! TD*
G04 #@! TO.P,C930,1*
G04 #@! TO.N,/C2+*
X25605000Y2905000D03*
G04 #@! TO.P,C930,2*
G04 #@! TO.N,/C2-*
X31305000Y2905000D03*
G04 #@! TD*
G04 #@! TO.P,C926,1*
G04 #@! TO.N,/C2+*
X25605000Y8505000D03*
G04 #@! TO.P,C926,2*
G04 #@! TO.N,/C2-*
X31305000Y8505000D03*
G04 #@! TD*
G04 #@! TO.P,C986,1*
G04 #@! TO.N,/C2+*
X25605000Y14105000D03*
G04 #@! TO.P,C986,2*
G04 #@! TO.N,/C2-*
X31305000Y14105000D03*
G04 #@! TD*
G04 #@! TO.P,C905,1*
G04 #@! TO.N,/C2+*
X38995000Y103395000D03*
G04 #@! TO.P,C905,2*
G04 #@! TO.N,/C2-*
X33295000Y103395000D03*
G04 #@! TD*
G04 #@! TO.P,C919,1*
G04 #@! TO.N,/C2+*
X38995000Y-2705000D03*
G04 #@! TO.P,C919,2*
G04 #@! TO.N,/C2-*
X33295000Y-2705000D03*
G04 #@! TD*
G04 #@! TO.P,C918,1*
G04 #@! TO.N,/C2+*
X41005000Y30905000D03*
G04 #@! TO.P,C918,2*
G04 #@! TO.N,/C2-*
X46705000Y30905000D03*
G04 #@! TD*
G04 #@! TO.P,C915,1*
G04 #@! TO.N,/C2+*
X39045000Y108995000D03*
G04 #@! TO.P,C915,2*
G04 #@! TO.N,/C2-*
X33345000Y108995000D03*
G04 #@! TD*
G04 #@! TO.P,C914,1*
G04 #@! TO.N,/C2+*
X54395000Y41795000D03*
G04 #@! TO.P,C914,2*
G04 #@! TO.N,/C2-*
X48695000Y41795000D03*
G04 #@! TD*
G04 #@! TO.P,C913,1*
G04 #@! TO.N,/C2+*
X41005000Y97805000D03*
G04 #@! TO.P,C913,2*
G04 #@! TO.N,/C2-*
X46705000Y97805000D03*
G04 #@! TD*
G04 #@! TO.P,C912,1*
G04 #@! TO.N,/C2+*
X56405000Y92205000D03*
G04 #@! TO.P,C912,2*
G04 #@! TO.N,/C2-*
X62105000Y92205000D03*
G04 #@! TD*
G04 #@! TO.P,C911,1*
G04 #@! TO.N,/C2+*
X56405000Y2905000D03*
G04 #@! TO.P,C911,2*
G04 #@! TO.N,/C2-*
X62105000Y2905000D03*
G04 #@! TD*
G04 #@! TO.P,C908,1*
G04 #@! TO.N,/C2+*
X54395000Y30895000D03*
G04 #@! TO.P,C908,2*
G04 #@! TO.N,/C2-*
X48695000Y30895000D03*
G04 #@! TD*
G04 #@! TO.P,C921,1*
G04 #@! TO.N,/C2+*
X41005000Y103405000D03*
G04 #@! TO.P,C921,2*
G04 #@! TO.N,/C2-*
X46705000Y103405000D03*
G04 #@! TD*
G04 #@! TO.P,C1000,1*
G04 #@! TO.N,/C2+*
X56405000Y97805000D03*
G04 #@! TO.P,C1000,2*
G04 #@! TO.N,/C2-*
X62105000Y97805000D03*
G04 #@! TD*
D11*
G04 #@! TO.P,TP3,1*
G04 #@! TO.N,/C2+*
X28400000Y34000000D03*
D12*
X30800000Y34000000D03*
X30097056Y32302944D03*
X28400000Y31600000D03*
X26702944Y32302944D03*
X26000000Y34000000D03*
X26702944Y35697056D03*
X28400000Y36400000D03*
X30097056Y35697056D03*
G04 #@! TD*
D11*
G04 #@! TO.P,TP4,1*
G04 #@! TO.N,/C2-*
X28400000Y24500000D03*
D12*
X30800000Y24500000D03*
X30097056Y22802944D03*
X28400000Y22100000D03*
X26702944Y22802944D03*
X26000000Y24500000D03*
X26702944Y26197056D03*
X28400000Y26900000D03*
X30097056Y26197056D03*
G04 #@! TD*
D11*
G04 #@! TO.P,TP1,1*
G04 #@! TO.N,/C1+*
X-28400000Y34000000D03*
D12*
X-26000000Y34000000D03*
X-26702944Y32302944D03*
X-28400000Y31600000D03*
X-30097056Y32302944D03*
X-30800000Y34000000D03*
X-30097056Y35697056D03*
X-28400000Y36400000D03*
X-26702944Y35697056D03*
G04 #@! TD*
D11*
G04 #@! TO.P,TP2,1*
G04 #@! TO.N,/C1-*
X-28400000Y24500000D03*
D12*
X-26000000Y24500000D03*
X-26702944Y22802944D03*
X-28400000Y22100000D03*
X-30097056Y22802944D03*
X-30800000Y24500000D03*
X-30097056Y26197056D03*
X-28400000Y26900000D03*
X-26702944Y26197056D03*
G04 #@! TD*
D13*
G04 #@! TO.N,/C1-*
X-17900000Y109000000D03*
X-17900000Y110700000D03*
X-17900000Y107300000D03*
X-17900000Y103400000D03*
X-17900000Y97800000D03*
X-17900000Y92200000D03*
X-17900000Y86600000D03*
X-17900000Y81000000D03*
X-17900000Y75400000D03*
X-17900000Y69800000D03*
X-17900000Y64200000D03*
X-17900000Y58600000D03*
X-17900000Y53000000D03*
X-17900000Y47400000D03*
X-17900000Y41800000D03*
X-17900000Y105100000D03*
X-17900000Y99500000D03*
X-17900000Y93900000D03*
X-17900000Y88300000D03*
X-17900000Y82700000D03*
X-17900000Y77100000D03*
X-17900000Y71500000D03*
X-17900000Y65900000D03*
X-17900000Y60300000D03*
X-17900000Y54700000D03*
X-17900000Y49100000D03*
X-17900000Y43500000D03*
X-17900000Y101700000D03*
X-17900000Y96100000D03*
X-17900000Y90500000D03*
X-17900000Y84900000D03*
X-17900000Y79300000D03*
X-17900000Y73700000D03*
X-17900000Y68100000D03*
X-17900000Y62500000D03*
X-17900000Y56900000D03*
X-17900000Y51300000D03*
X-17900000Y45700000D03*
X-17900000Y40100000D03*
X-31300000Y109000000D03*
X-31300000Y107300000D03*
X-31300000Y110700000D03*
X-31300000Y101700000D03*
X-31300000Y96100000D03*
X-31300000Y90500000D03*
X-31300000Y84900000D03*
X-31300000Y79300000D03*
X-31300000Y73700000D03*
X-31300000Y68100000D03*
X-31300000Y62500000D03*
X-31300000Y56900000D03*
X-31300000Y51300000D03*
X-31300000Y45700000D03*
X-31300000Y40100000D03*
X-31300000Y103400000D03*
X-31300000Y97800000D03*
X-31300000Y92200000D03*
X-31300000Y86600000D03*
X-31300000Y81000000D03*
X-31300000Y75400000D03*
X-31300000Y69800000D03*
X-31300000Y64200000D03*
X-31300000Y58600000D03*
X-31300000Y53000000D03*
X-31300000Y47400000D03*
X-31300000Y41800000D03*
X-31300000Y105100000D03*
X-31300000Y99500000D03*
X-31300000Y93900000D03*
X-31300000Y88300000D03*
X-31300000Y82700000D03*
X-31300000Y77100000D03*
X-31300000Y71500000D03*
X-31300000Y65900000D03*
X-31300000Y60300000D03*
X-31300000Y54700000D03*
X-31300000Y49100000D03*
X-31300000Y43500000D03*
X-33300000Y107300000D03*
X-33300000Y109000000D03*
X-33300000Y110700000D03*
X-33300000Y103400000D03*
X-33300000Y97800000D03*
X-33300000Y92200000D03*
X-33300000Y86600000D03*
X-33300000Y81000000D03*
X-33300000Y75400000D03*
X-33300000Y69800000D03*
X-33300000Y64200000D03*
X-33300000Y58600000D03*
X-33300000Y53000000D03*
X-33300000Y47400000D03*
X-33300000Y41800000D03*
X-33300000Y101700000D03*
X-33300000Y96100000D03*
X-33300000Y90500000D03*
X-33300000Y84900000D03*
X-33300000Y79300000D03*
X-33300000Y73700000D03*
X-33300000Y68100000D03*
X-33300000Y62500000D03*
X-33300000Y56900000D03*
X-33300000Y51300000D03*
X-33300000Y45700000D03*
X-33300000Y40100000D03*
X-33300000Y105100000D03*
X-33300000Y99500000D03*
X-33300000Y93900000D03*
X-33300000Y88300000D03*
X-33300000Y82700000D03*
X-33300000Y77100000D03*
X-33300000Y71500000D03*
X-33300000Y65900000D03*
X-33300000Y60300000D03*
X-33300000Y54700000D03*
X-33300000Y49100000D03*
X-33300000Y43500000D03*
X-46700000Y107300000D03*
X-46700000Y109000000D03*
X-46700000Y110700000D03*
X-46700000Y101700000D03*
X-46700000Y96100000D03*
X-46700000Y90500000D03*
X-46700000Y84900000D03*
X-46700000Y79300000D03*
X-46700000Y73700000D03*
X-46700000Y68100000D03*
X-46700000Y62500000D03*
X-46700000Y56900000D03*
X-46700000Y51300000D03*
X-46700000Y45700000D03*
X-46700000Y40100000D03*
X-46700000Y103400000D03*
X-46700000Y97800000D03*
X-46700000Y92200000D03*
X-46700000Y86600000D03*
X-46700000Y81000000D03*
X-46700000Y75400000D03*
X-46700000Y69800000D03*
X-46700000Y64200000D03*
X-46700000Y58600000D03*
X-46700000Y53000000D03*
X-46700000Y47400000D03*
X-46700000Y41800000D03*
X-46700000Y105100000D03*
X-46700000Y99500000D03*
X-46700000Y93900000D03*
X-46700000Y88300000D03*
X-46700000Y82700000D03*
X-46700000Y77100000D03*
X-46700000Y71500000D03*
X-46700000Y65900000D03*
X-46700000Y60300000D03*
X-46700000Y54700000D03*
X-46700000Y49100000D03*
X-46700000Y43500000D03*
X-48700000Y107300000D03*
X-48700000Y109000000D03*
X-48700000Y110700000D03*
X-48700000Y105100000D03*
X-48700000Y99500000D03*
X-48700000Y93900000D03*
X-48700000Y88300000D03*
X-48700000Y82700000D03*
X-48700000Y77100000D03*
X-48700000Y71500000D03*
X-48700000Y65900000D03*
X-48700000Y60300000D03*
X-48700000Y54700000D03*
X-48700000Y49100000D03*
X-48700000Y43500000D03*
X-48700000Y103400000D03*
X-48700000Y97800000D03*
X-48700000Y92200000D03*
X-48700000Y86600000D03*
X-48700000Y81000000D03*
X-48700000Y75400000D03*
X-48700000Y69800000D03*
X-48700000Y64200000D03*
X-48700000Y58600000D03*
X-48700000Y53000000D03*
X-48700000Y47400000D03*
X-48700000Y41800000D03*
X-48700000Y101700000D03*
X-48700000Y96100000D03*
X-48700000Y90500000D03*
X-48700000Y84900000D03*
X-48700000Y79300000D03*
X-48700000Y73700000D03*
X-48700000Y68100000D03*
X-48700000Y62500000D03*
X-48700000Y56900000D03*
X-48700000Y51300000D03*
X-48700000Y45700000D03*
X-48700000Y40100000D03*
X-62100000Y107300000D03*
X-62100000Y109000000D03*
X-62100000Y110700000D03*
X-62100000Y101700000D03*
X-62100000Y96100000D03*
X-62100000Y90500000D03*
X-62100000Y84900000D03*
X-62100000Y79300000D03*
X-62100000Y73700000D03*
X-62100000Y68100000D03*
X-62100000Y62500000D03*
X-62100000Y56900000D03*
X-62100000Y51300000D03*
X-62100000Y45700000D03*
X-62100000Y40100000D03*
X-62100000Y103400000D03*
X-62100000Y97800000D03*
X-62100000Y92200000D03*
X-62100000Y86600000D03*
X-62100000Y81000000D03*
X-62100000Y75400000D03*
X-62100000Y69800000D03*
X-62100000Y64200000D03*
X-62100000Y58600000D03*
X-62100000Y53000000D03*
X-62100000Y47400000D03*
X-62100000Y41800000D03*
X-62100000Y105100000D03*
X-62100000Y99500000D03*
X-62100000Y93900000D03*
X-62100000Y88300000D03*
X-62100000Y82700000D03*
X-62100000Y77100000D03*
X-62100000Y71500000D03*
X-62100000Y65900000D03*
X-62100000Y60300000D03*
X-62100000Y54700000D03*
X-62100000Y49100000D03*
X-62100000Y43500000D03*
X-15900000Y110700000D03*
X-15900000Y109000000D03*
X-15900000Y107300000D03*
X-15900000Y105100000D03*
X-15900000Y99500000D03*
X-15900000Y93900000D03*
X-15900000Y88300000D03*
X-15900000Y82700000D03*
X-15900000Y77100000D03*
X-15900000Y71500000D03*
X-15900000Y65900000D03*
X-15900000Y60300000D03*
X-15900000Y54700000D03*
X-15900000Y49100000D03*
X-15900000Y43500000D03*
X-15900000Y103400000D03*
X-15900000Y97800000D03*
X-15900000Y92200000D03*
X-15900000Y86600000D03*
X-15900000Y81000000D03*
X-15900000Y75400000D03*
X-15900000Y69800000D03*
X-15900000Y64200000D03*
X-15900000Y58600000D03*
X-15900000Y53000000D03*
X-15900000Y47400000D03*
X-15900000Y41800000D03*
X-15900000Y101700000D03*
X-15900000Y96100000D03*
X-15900000Y90500000D03*
X-15900000Y84900000D03*
X-15900000Y79300000D03*
X-15900000Y73700000D03*
X-15900000Y68100000D03*
X-15900000Y62500000D03*
X-15900000Y56900000D03*
X-15900000Y51300000D03*
X-15900000Y45700000D03*
X-15900000Y40100000D03*
X-2500000Y107300000D03*
X-2500000Y110700000D03*
X-2500000Y109000000D03*
X-2500000Y101700000D03*
X-2500000Y96100000D03*
X-2500000Y90500000D03*
X-2500000Y84900000D03*
X-2500000Y79300000D03*
X-2500000Y73700000D03*
X-2500000Y68100000D03*
X-2500000Y62500000D03*
X-2500000Y56900000D03*
X-2500000Y51300000D03*
X-2500000Y45700000D03*
X-2500000Y40100000D03*
X-2500000Y105100000D03*
X-2500000Y99500000D03*
X-2500000Y93900000D03*
X-2500000Y88300000D03*
X-2500000Y82700000D03*
X-2500000Y77100000D03*
X-2500000Y71500000D03*
X-2500000Y65900000D03*
X-2500000Y60300000D03*
X-2500000Y54700000D03*
X-2500000Y49100000D03*
X-2500000Y43500000D03*
X-2500000Y103400000D03*
X-2500000Y97800000D03*
X-2500000Y92200000D03*
X-2500000Y86600000D03*
X-2500000Y81000000D03*
X-2500000Y75400000D03*
X-2500000Y69800000D03*
X-2500000Y64200000D03*
X-2500000Y58600000D03*
X-2500000Y53000000D03*
X-2500000Y47400000D03*
X-2500000Y41800000D03*
X-400000Y107300000D03*
X-400000Y110700000D03*
X-400000Y109000000D03*
X-400000Y103400000D03*
X-400000Y97800000D03*
X-400000Y92200000D03*
X-400000Y86600000D03*
X-400000Y81000000D03*
X-400000Y75400000D03*
X-400000Y69800000D03*
X-400000Y64200000D03*
X-400000Y58600000D03*
X-400000Y53000000D03*
X-400000Y47400000D03*
X-400000Y41800000D03*
X-400000Y101700000D03*
X-400000Y96100000D03*
X-400000Y90500000D03*
X-400000Y84900000D03*
X-400000Y79300000D03*
X-400000Y73700000D03*
X-400000Y68100000D03*
X-400000Y62500000D03*
X-400000Y56900000D03*
X-400000Y51300000D03*
X-400000Y45700000D03*
X-400000Y40100000D03*
X-400000Y105100000D03*
X-400000Y99500000D03*
X-400000Y93900000D03*
X-400000Y88300000D03*
X-400000Y82700000D03*
X-400000Y77100000D03*
X-400000Y71500000D03*
X-400000Y65900000D03*
X-400000Y60300000D03*
X-400000Y54700000D03*
X-400000Y49100000D03*
X-400000Y43500000D03*
X13000000Y109000000D03*
X13000000Y107300000D03*
X13000000Y110700000D03*
X13000000Y103400000D03*
X13000000Y97800000D03*
X13000000Y92200000D03*
X13000000Y86600000D03*
X13000000Y81000000D03*
X13000000Y75400000D03*
X13000000Y69800000D03*
X13000000Y64200000D03*
X13000000Y58600000D03*
X13000000Y53000000D03*
X13000000Y47400000D03*
X13000000Y41800000D03*
X13000000Y105100000D03*
X13000000Y99500000D03*
X13000000Y93900000D03*
X13000000Y88300000D03*
X13000000Y82700000D03*
X13000000Y77100000D03*
X13000000Y71500000D03*
X13000000Y65900000D03*
X13000000Y60300000D03*
X13000000Y54700000D03*
X13000000Y49100000D03*
X13000000Y43500000D03*
X13000000Y101700000D03*
X13000000Y96100000D03*
X13000000Y90500000D03*
X13000000Y84900000D03*
X13000000Y79300000D03*
X13000000Y73700000D03*
X13000000Y68100000D03*
X13000000Y62500000D03*
X13000000Y56900000D03*
X13000000Y51300000D03*
X13000000Y45700000D03*
X13000000Y40100000D03*
X15100000Y109000000D03*
X15100000Y110700000D03*
X15100000Y107300000D03*
X15000000Y103400000D03*
X15000000Y97800000D03*
X15000000Y92200000D03*
X15000000Y86600000D03*
X15000000Y81000000D03*
X15000000Y75400000D03*
X15000000Y69800000D03*
X15000000Y64200000D03*
X15000000Y58600000D03*
X15000000Y53000000D03*
X15000000Y47400000D03*
X15000000Y41800000D03*
X15000000Y105100000D03*
X15000000Y99500000D03*
X15000000Y93900000D03*
X15000000Y88300000D03*
X15000000Y82700000D03*
X15000000Y77100000D03*
X15000000Y71500000D03*
X15000000Y65900000D03*
X15000000Y60300000D03*
X15000000Y54700000D03*
X15000000Y49100000D03*
X15000000Y43500000D03*
X15000000Y101700000D03*
X15000000Y96100000D03*
X15000000Y90500000D03*
X15000000Y84900000D03*
X15000000Y79300000D03*
X15000000Y73700000D03*
X15000000Y68100000D03*
X15000000Y62500000D03*
X15000000Y56900000D03*
X15000000Y51300000D03*
X15000000Y45700000D03*
X15000000Y40100000D03*
X13000000Y33500000D03*
X13000000Y31800000D03*
X13000000Y30100000D03*
X13000000Y27900000D03*
X13000000Y22300000D03*
X13000000Y11100000D03*
X13000000Y5500000D03*
X13000000Y24500000D03*
X13000000Y18900000D03*
X13000000Y13300000D03*
X13000000Y7700000D03*
X13000000Y2100000D03*
X13000000Y26200000D03*
X13000000Y20600000D03*
X13000000Y15000000D03*
X13000000Y9400000D03*
X13000000Y3800000D03*
X-400000Y30100000D03*
X-400000Y31800000D03*
X-400000Y33500000D03*
X-400000Y24500000D03*
X-400000Y18900000D03*
X-400000Y13300000D03*
X-400000Y7700000D03*
X-400000Y2100000D03*
X-400000Y27900000D03*
X-400000Y22300000D03*
X-400000Y16700000D03*
X-400000Y11100000D03*
X-400000Y5500000D03*
X-400000Y26200000D03*
X-400000Y20600000D03*
X-400000Y15000000D03*
X-400000Y9400000D03*
X-400000Y3800000D03*
X-2500000Y30100000D03*
X-2500000Y33500000D03*
X-2500000Y31800000D03*
X-2500000Y26200000D03*
X-2500000Y20600000D03*
X-2500000Y15000000D03*
X-2500000Y9400000D03*
X-2500000Y3800000D03*
X-2500000Y24500000D03*
X-2500000Y18900000D03*
X-2500000Y13300000D03*
X-2500000Y7700000D03*
X-2500000Y2100000D03*
X-2500000Y27900000D03*
X-2500000Y22300000D03*
X-2500000Y16700000D03*
X-2500000Y11100000D03*
X-2500000Y5500000D03*
X-15900000Y33500000D03*
X-15900000Y31800000D03*
X-15900000Y30100000D03*
X-15900000Y27900000D03*
X-15900000Y22300000D03*
X-15900000Y16700000D03*
X-15900000Y11100000D03*
X-15900000Y5500000D03*
X-15900000Y26200000D03*
X-15900000Y20600000D03*
X-15900000Y15000000D03*
X-15900000Y9400000D03*
X-15900000Y3800000D03*
X-15900000Y24500000D03*
X-15900000Y18900000D03*
X-15900000Y13300000D03*
X-15900000Y7700000D03*
X-15900000Y2100000D03*
X-17800000Y33500000D03*
X-17800000Y31800000D03*
X-17800000Y30100000D03*
X-17900000Y5500000D03*
X-17900000Y3800000D03*
X-17900000Y16700000D03*
X-17900000Y11100000D03*
X-17900000Y13300000D03*
X-17900000Y7700000D03*
X-17900000Y2100000D03*
X-17900000Y15000000D03*
X-17900000Y9400000D03*
X-31300000Y16700000D03*
X-31300000Y11100000D03*
X-31300000Y5500000D03*
X-31300000Y-100000D03*
X-31300000Y13300000D03*
X-31300000Y2100000D03*
X-31300000Y-3500000D03*
X-31300000Y15000000D03*
X-31300000Y3800000D03*
X-31300000Y-1800000D03*
X-33300000Y11100000D03*
X-33300000Y5500000D03*
X-31300000Y-100000D03*
X-33300000Y-100000D03*
X-31300000Y7700000D03*
X-31300000Y2100000D03*
X-31300000Y-3500000D03*
X-33300000Y-3500000D03*
X-31300000Y9400000D03*
X-33300000Y9400000D03*
X-31300000Y-1800000D03*
X-33300000Y-1800000D03*
X-33300000Y26200000D03*
X-33300000Y27900000D03*
X-33300000Y22300000D03*
X-33300000Y16700000D03*
X-33300000Y24500000D03*
X-33300000Y18900000D03*
X-33300000Y13300000D03*
X-33300000Y7700000D03*
X-33300000Y2100000D03*
X-33300000Y20600000D03*
X-33300000Y15000000D03*
X-33300000Y3800000D03*
X-46700000Y33500000D03*
X-46600000Y11100000D03*
X-46700000Y30100000D03*
X-46700000Y24500000D03*
X-46700000Y31800000D03*
X-46600000Y15000000D03*
X-46600000Y3800000D03*
X-48700000Y30100000D03*
X-48700000Y24500000D03*
X-46700000Y18900000D03*
X-46600000Y13300000D03*
X-46600000Y7700000D03*
X-48700000Y7700000D03*
X-46600000Y2100000D03*
X-48700000Y31800000D03*
X-46700000Y26200000D03*
X-46700000Y20600000D03*
X-48700000Y20600000D03*
X-46600000Y9400000D03*
X-48700000Y33500000D03*
X-46700000Y27900000D03*
X-46700000Y22300000D03*
X-46600000Y16700000D03*
X-48700000Y16700000D03*
X-48700000Y11100000D03*
X-46600000Y5500000D03*
X-48700000Y5500000D03*
X-48700000Y26200000D03*
X-48700000Y15000000D03*
X-48700000Y9400000D03*
X-48700000Y3800000D03*
X-48700000Y27900000D03*
X-48700000Y22300000D03*
X-48700000Y18900000D03*
X-48700000Y13300000D03*
X-48700000Y2100000D03*
X-62100000Y33500000D03*
X-62100000Y27900000D03*
X-62100000Y22300000D03*
X-62100000Y16700000D03*
X-62100000Y11100000D03*
X-62100000Y5500000D03*
X-62100000Y30100000D03*
X-62100000Y24500000D03*
X-62100000Y18900000D03*
X-62100000Y13300000D03*
X-62100000Y7700000D03*
X-62100000Y2100000D03*
X-62100000Y31800000D03*
X-62100000Y26200000D03*
X-62100000Y20600000D03*
X-62100000Y15000000D03*
X-62100000Y9400000D03*
X-62100000Y3800000D03*
X-15900000Y-100000D03*
X-15900000Y-3500000D03*
X-15900000Y-1800000D03*
X-17900000Y-100000D03*
X-17900000Y-1800000D03*
X-17900000Y-3500000D03*
X-46600000Y-100000D03*
X-46600000Y-3500000D03*
X-46600000Y-1800000D03*
X-48700000Y-100000D03*
X-48700000Y-3500000D03*
X-48700000Y-1800000D03*
X-62100000Y-1800000D03*
X-62100000Y-100000D03*
X-62100000Y-3500000D03*
X13000000Y16700000D03*
G04 #@! TO.N,/C1+*
X-23600000Y110700000D03*
X-23600000Y109000000D03*
X-23600000Y107300000D03*
X-23600000Y103400000D03*
X-23600000Y97800000D03*
X-23600000Y92200000D03*
X-23600000Y86600000D03*
X-23600000Y81000000D03*
X-23600000Y75400000D03*
X-23600000Y69800000D03*
X-23600000Y64200000D03*
X-23600000Y58600000D03*
X-23600000Y53000000D03*
X-23600000Y47400000D03*
X-23600000Y41800000D03*
X-23600000Y105100000D03*
X-23600000Y99500000D03*
X-23600000Y93900000D03*
X-23600000Y88300000D03*
X-23600000Y82700000D03*
X-23600000Y77100000D03*
X-23600000Y71500000D03*
X-23600000Y65900000D03*
X-23600000Y60300000D03*
X-23600000Y54700000D03*
X-23600000Y49100000D03*
X-23600000Y43500000D03*
X-23600000Y101700000D03*
X-23600000Y96100000D03*
X-23600000Y90500000D03*
X-23600000Y84900000D03*
X-23600000Y79300000D03*
X-23600000Y73700000D03*
X-23600000Y68100000D03*
X-23600000Y62500000D03*
X-23600000Y56900000D03*
X-23600000Y51300000D03*
X-23600000Y45700000D03*
X-23600000Y40100000D03*
X-25600000Y107300000D03*
X-25600000Y110700000D03*
X-25600000Y109000000D03*
X-25600000Y103400000D03*
X-25600000Y97800000D03*
X-25600000Y92200000D03*
X-25600000Y86600000D03*
X-25600000Y81000000D03*
X-25600000Y75400000D03*
X-25600000Y69800000D03*
X-25600000Y64200000D03*
X-25600000Y58600000D03*
X-25600000Y53000000D03*
X-25600000Y47400000D03*
X-25600000Y41800000D03*
X-25600000Y101700000D03*
X-25600000Y96100000D03*
X-25600000Y90500000D03*
X-25600000Y84900000D03*
X-25600000Y79300000D03*
X-25600000Y73700000D03*
X-25600000Y68100000D03*
X-25600000Y62500000D03*
X-25600000Y56900000D03*
X-25600000Y51300000D03*
X-25600000Y45700000D03*
X-25600000Y40100000D03*
X-25600000Y105100000D03*
X-25600000Y99500000D03*
X-25600000Y93900000D03*
X-25600000Y88300000D03*
X-25600000Y82700000D03*
X-25600000Y77100000D03*
X-25600000Y71500000D03*
X-25600000Y65900000D03*
X-25600000Y60300000D03*
X-25600000Y54700000D03*
X-25600000Y49100000D03*
X-25600000Y43500000D03*
X-39000000Y109000000D03*
X-39000000Y107300000D03*
X-39000000Y110700000D03*
X-39000000Y103400000D03*
X-39000000Y97800000D03*
X-39000000Y92200000D03*
X-39000000Y86600000D03*
X-39000000Y81000000D03*
X-39000000Y75400000D03*
X-39000000Y69800000D03*
X-39000000Y64200000D03*
X-39000000Y58600000D03*
X-39000000Y53000000D03*
X-39000000Y47400000D03*
X-39000000Y41800000D03*
X-39000000Y101700000D03*
X-39000000Y96100000D03*
X-39000000Y90500000D03*
X-39000000Y84900000D03*
X-39000000Y79300000D03*
X-39000000Y73700000D03*
X-39000000Y68100000D03*
X-39000000Y62500000D03*
X-39000000Y56900000D03*
X-39000000Y51300000D03*
X-39000000Y45700000D03*
X-39000000Y40100000D03*
X-39000000Y105100000D03*
X-39000000Y99500000D03*
X-39000000Y93900000D03*
X-39000000Y88300000D03*
X-39000000Y82700000D03*
X-39000000Y77100000D03*
X-39000000Y71500000D03*
X-39000000Y65900000D03*
X-39000000Y60300000D03*
X-39000000Y54700000D03*
X-39000000Y49100000D03*
X-39000000Y43500000D03*
X-41000000Y109000000D03*
X-41000000Y107300000D03*
X-41000000Y110700000D03*
X-41000000Y101700000D03*
X-41000000Y96100000D03*
X-41000000Y90500000D03*
X-41000000Y84900000D03*
X-41000000Y79300000D03*
X-41000000Y73700000D03*
X-41000000Y68100000D03*
X-41000000Y62500000D03*
X-41000000Y56900000D03*
X-41000000Y51300000D03*
X-41000000Y45700000D03*
X-41000000Y40100000D03*
X-41000000Y103400000D03*
X-41000000Y97800000D03*
X-41000000Y92200000D03*
X-41000000Y86600000D03*
X-41000000Y81000000D03*
X-41000000Y75400000D03*
X-41000000Y69800000D03*
X-41000000Y64200000D03*
X-41000000Y58600000D03*
X-41000000Y53000000D03*
X-41000000Y47400000D03*
X-41000000Y41800000D03*
X-41000000Y105100000D03*
X-41000000Y99500000D03*
X-41000000Y93900000D03*
X-41000000Y88300000D03*
X-41000000Y82700000D03*
X-41000000Y77100000D03*
X-41000000Y71500000D03*
X-41000000Y65900000D03*
X-41000000Y60300000D03*
X-41000000Y54700000D03*
X-41000000Y49100000D03*
X-41000000Y43500000D03*
X-54400000Y110700000D03*
X-54400000Y109000000D03*
X-54400000Y107300000D03*
X-54400000Y103400000D03*
X-54400000Y97800000D03*
X-54400000Y92200000D03*
X-54400000Y86600000D03*
X-54400000Y81000000D03*
X-54400000Y75400000D03*
X-54400000Y69800000D03*
X-54400000Y64200000D03*
X-54400000Y58600000D03*
X-54400000Y53000000D03*
X-54400000Y47400000D03*
X-54400000Y41800000D03*
X-54400000Y101700000D03*
X-54400000Y96100000D03*
X-54400000Y90500000D03*
X-54400000Y84900000D03*
X-54400000Y79300000D03*
X-54400000Y73700000D03*
X-54400000Y68100000D03*
X-54400000Y62500000D03*
X-54400000Y56900000D03*
X-54400000Y51300000D03*
X-54400000Y45700000D03*
X-54400000Y40100000D03*
X-54400000Y105100000D03*
X-54400000Y99500000D03*
X-54400000Y93900000D03*
X-54400000Y88300000D03*
X-54400000Y82700000D03*
X-54400000Y77100000D03*
X-54400000Y71500000D03*
X-54400000Y65900000D03*
X-54400000Y60300000D03*
X-54400000Y54700000D03*
X-54400000Y49100000D03*
X-54400000Y43500000D03*
X-56400000Y109000000D03*
X-56400000Y107300000D03*
X-56400000Y110700000D03*
X-56400000Y101700000D03*
X-56400000Y96100000D03*
X-56400000Y90500000D03*
X-56400000Y84900000D03*
X-56400000Y79300000D03*
X-56400000Y73700000D03*
X-56400000Y68100000D03*
X-56400000Y62500000D03*
X-56400000Y56900000D03*
X-56400000Y51300000D03*
X-56400000Y45700000D03*
X-56400000Y40100000D03*
X-56400000Y103400000D03*
X-56400000Y97800000D03*
X-56400000Y92200000D03*
X-56400000Y86600000D03*
X-56400000Y81000000D03*
X-56400000Y75400000D03*
X-56400000Y69800000D03*
X-56400000Y64200000D03*
X-56400000Y58600000D03*
X-56400000Y53000000D03*
X-56400000Y47400000D03*
X-56400000Y41800000D03*
X-56400000Y105100000D03*
X-56400000Y99500000D03*
X-56400000Y93900000D03*
X-56400000Y88300000D03*
X-56400000Y82700000D03*
X-56400000Y77100000D03*
X-56400000Y71500000D03*
X-56400000Y65900000D03*
X-56400000Y60300000D03*
X-56400000Y54700000D03*
X-56400000Y49100000D03*
X-56400000Y43500000D03*
X-10200000Y110700000D03*
X-10200000Y109000000D03*
X-10200000Y107300000D03*
X-10200000Y103400000D03*
X-10200000Y97800000D03*
X-10200000Y92200000D03*
X-10200000Y86600000D03*
X-10200000Y81000000D03*
X-10200000Y75400000D03*
X-10200000Y69800000D03*
X-10200000Y64200000D03*
X-10200000Y58600000D03*
X-10200000Y53000000D03*
X-10200000Y47400000D03*
X-10200000Y41800000D03*
X-10200000Y105100000D03*
X-10200000Y99500000D03*
X-10200000Y93900000D03*
X-10200000Y88300000D03*
X-10200000Y82700000D03*
X-10200000Y77100000D03*
X-10200000Y71500000D03*
X-10200000Y65900000D03*
X-10200000Y60300000D03*
X-10200000Y54700000D03*
X-10200000Y49100000D03*
X-10200000Y43500000D03*
X-10200000Y101700000D03*
X-10200000Y96100000D03*
X-10200000Y90500000D03*
X-10200000Y84900000D03*
X-10200000Y79300000D03*
X-10200000Y73700000D03*
X-10200000Y68100000D03*
X-10200000Y62500000D03*
X-10200000Y56900000D03*
X-10200000Y51300000D03*
X-10200000Y45700000D03*
X-10200000Y40100000D03*
X-8200000Y109000000D03*
X-8200000Y110700000D03*
X-8200000Y107300000D03*
X-8200000Y101700000D03*
X-8200000Y96100000D03*
X-8200000Y90500000D03*
X-8200000Y84900000D03*
X-8200000Y79300000D03*
X-8200000Y73700000D03*
X-8200000Y68100000D03*
X-8200000Y62500000D03*
X-8200000Y56900000D03*
X-8200000Y51300000D03*
X-8200000Y45700000D03*
X-8200000Y40100000D03*
X-8200000Y105100000D03*
X-8200000Y99500000D03*
X-8200000Y93900000D03*
X-8200000Y88300000D03*
X-8200000Y82700000D03*
X-8200000Y77100000D03*
X-8200000Y71500000D03*
X-8200000Y65900000D03*
X-8200000Y60300000D03*
X-8200000Y54700000D03*
X-8200000Y49100000D03*
X-8200000Y43500000D03*
X-8200000Y103400000D03*
X-8200000Y97800000D03*
X-8200000Y92200000D03*
X-8200000Y86600000D03*
X-8200000Y81000000D03*
X-8200000Y75400000D03*
X-8200000Y69800000D03*
X-8200000Y64200000D03*
X-8200000Y58600000D03*
X-8200000Y53000000D03*
X-8200000Y47400000D03*
X-8200000Y41800000D03*
X5300000Y109000000D03*
X5300000Y107300000D03*
X5300000Y110700000D03*
X5300000Y103400000D03*
X5300000Y97800000D03*
X5300000Y92200000D03*
X5300000Y86600000D03*
X5300000Y81000000D03*
X5300000Y75400000D03*
X5300000Y69800000D03*
X5300000Y64200000D03*
X5300000Y58600000D03*
X5300000Y53000000D03*
X5300000Y47400000D03*
X5300000Y41800000D03*
X5300000Y101700000D03*
X5300000Y96100000D03*
X5300000Y90500000D03*
X5300000Y84900000D03*
X5300000Y79300000D03*
X5300000Y73700000D03*
X5300000Y68100000D03*
X5300000Y62500000D03*
X5300000Y56900000D03*
X5300000Y51300000D03*
X5300000Y45700000D03*
X5300000Y40100000D03*
X5300000Y105100000D03*
X5300000Y99500000D03*
X5300000Y93900000D03*
X5300000Y88300000D03*
X5300000Y82700000D03*
X5300000Y77100000D03*
X5300000Y71500000D03*
X5300000Y65900000D03*
X5300000Y60300000D03*
X5300000Y54700000D03*
X5300000Y49100000D03*
X5300000Y43500000D03*
X7300000Y109000000D03*
X7300000Y107300000D03*
X7300000Y110700000D03*
X7300000Y103400000D03*
X7300000Y97800000D03*
X7300000Y92200000D03*
X7300000Y86600000D03*
X7300000Y81000000D03*
X7300000Y75400000D03*
X7300000Y69800000D03*
X7300000Y64200000D03*
X7300000Y58600000D03*
X7300000Y53000000D03*
X7300000Y47400000D03*
X7300000Y41800000D03*
X7300000Y101700000D03*
X7300000Y96100000D03*
X7300000Y90500000D03*
X7300000Y84900000D03*
X7300000Y79300000D03*
X7300000Y73700000D03*
X7300000Y68100000D03*
X7300000Y62500000D03*
X7300000Y56900000D03*
X7300000Y51300000D03*
X7300000Y45700000D03*
X7300000Y40100000D03*
X7300000Y105100000D03*
X7300000Y99500000D03*
X7300000Y93900000D03*
X7300000Y88300000D03*
X7300000Y82700000D03*
X7300000Y77100000D03*
X7300000Y71500000D03*
X7300000Y65900000D03*
X7300000Y60300000D03*
X7300000Y54700000D03*
X7300000Y49100000D03*
X7300000Y43500000D03*
X7300000Y33500000D03*
X7300000Y30100000D03*
X7300000Y31800000D03*
X20800000Y109000000D03*
X20800000Y110700000D03*
X20800000Y107300000D03*
X20800000Y103400000D03*
X20800000Y97800000D03*
X20800000Y92200000D03*
X20800000Y86600000D03*
X20800000Y81000000D03*
X20800000Y75400000D03*
X20800000Y69800000D03*
X20800000Y64200000D03*
X20800000Y58600000D03*
X20800000Y53000000D03*
X20800000Y47400000D03*
X20800000Y41800000D03*
X20800000Y105100000D03*
X20800000Y99500000D03*
X20800000Y93900000D03*
X20800000Y88300000D03*
X20800000Y82700000D03*
X20800000Y77100000D03*
X20800000Y71500000D03*
X20800000Y65900000D03*
X20800000Y60300000D03*
X20800000Y54700000D03*
X20800000Y49100000D03*
X20800000Y43500000D03*
X20800000Y101700000D03*
X20800000Y96100000D03*
X20800000Y90500000D03*
X20800000Y84900000D03*
X20800000Y79300000D03*
X20800000Y73700000D03*
X20800000Y68100000D03*
X20800000Y62500000D03*
X20800000Y56900000D03*
X20800000Y51300000D03*
X20800000Y45700000D03*
X20800000Y40100000D03*
X7300000Y27900000D03*
X7300000Y5500000D03*
X7300000Y9400000D03*
X7300000Y24500000D03*
X7300000Y18900000D03*
X7300000Y13300000D03*
X5300000Y33500000D03*
X7300000Y22300000D03*
X5300000Y22300000D03*
X7300000Y16700000D03*
X5300000Y16700000D03*
X7300000Y11100000D03*
X5300000Y11100000D03*
X5300000Y5500000D03*
X5300000Y31800000D03*
X7300000Y26200000D03*
X5300000Y26200000D03*
X7300000Y20600000D03*
X5300000Y20600000D03*
X7300000Y15000000D03*
X5300000Y15000000D03*
X5300000Y9400000D03*
X7300000Y3800000D03*
X5300000Y3800000D03*
X5300000Y30100000D03*
X5300000Y24500000D03*
X5300000Y18900000D03*
X5300000Y13300000D03*
X7300000Y7700000D03*
X5300000Y7700000D03*
X7300000Y2100000D03*
X5300000Y2100000D03*
X-8200000Y31800000D03*
X-8200000Y30100000D03*
X-8200000Y33500000D03*
X-10200000Y31800000D03*
X-10200000Y30100000D03*
X-10200000Y33500000D03*
X-8200000Y26200000D03*
X-8200000Y20600000D03*
X-8200000Y15000000D03*
X-8200000Y9400000D03*
X-8200000Y3800000D03*
X-8200000Y24500000D03*
X-8200000Y18900000D03*
X-8200000Y13300000D03*
X-8200000Y7700000D03*
X-8200000Y2100000D03*
X-8200000Y27900000D03*
X-8200000Y22300000D03*
X-8200000Y16700000D03*
X-8200000Y11100000D03*
X-8200000Y5500000D03*
X-10200000Y27900000D03*
X-10200000Y22300000D03*
X-10200000Y16700000D03*
X-10200000Y11100000D03*
X-10200000Y5500000D03*
X-10200000Y26200000D03*
X-10200000Y20600000D03*
X-10200000Y15000000D03*
X-10200000Y9400000D03*
X-10200000Y3800000D03*
X-10200000Y24500000D03*
X-10200000Y18900000D03*
X-10200000Y13300000D03*
X-10200000Y7700000D03*
X-10200000Y2100000D03*
X-23500000Y33500000D03*
X-23600000Y16700000D03*
X-23600000Y11100000D03*
X-23600000Y5500000D03*
X-23500000Y30100000D03*
X-23600000Y13300000D03*
X-23500000Y31800000D03*
X-23600000Y15000000D03*
X-23600000Y3800000D03*
X-25600000Y16700000D03*
X-25600000Y11100000D03*
X-23600000Y-100000D03*
X-25600000Y-100000D03*
X-25600000Y13300000D03*
X-23600000Y7700000D03*
X-23600000Y2100000D03*
X-23600000Y-3500000D03*
X-25600000Y-3500000D03*
X-25600000Y15000000D03*
X-23600000Y9400000D03*
X-25600000Y3800000D03*
X-23600000Y-1800000D03*
X-25600000Y-1800000D03*
X-25600000Y5500000D03*
X-25600000Y-100000D03*
X-25600000Y7700000D03*
X-25600000Y2100000D03*
X-25600000Y-3500000D03*
X-25600000Y9400000D03*
X-25600000Y-1800000D03*
X-39000000Y27900000D03*
X-39000000Y22300000D03*
X-39000000Y16700000D03*
X-39000000Y11100000D03*
X-39000000Y5500000D03*
X-39000000Y20600000D03*
X-39000000Y15000000D03*
X-39000000Y3800000D03*
X-41000000Y33500000D03*
X-41000000Y22300000D03*
X-40900000Y16700000D03*
X-40900000Y5500000D03*
X-41000000Y30100000D03*
X-39000000Y24500000D03*
X-39000000Y18900000D03*
X-39000000Y13300000D03*
X-39000000Y7700000D03*
X-39000000Y2100000D03*
X-41000000Y31800000D03*
X-39000000Y26200000D03*
X-41000000Y26200000D03*
X-41000000Y20600000D03*
X-40900000Y15000000D03*
X-39000000Y9400000D03*
X-40900000Y3800000D03*
X-41000000Y27900000D03*
X-40900000Y11100000D03*
X-41000000Y24500000D03*
X-41000000Y18900000D03*
X-40900000Y13300000D03*
X-40900000Y7700000D03*
X-40900000Y2100000D03*
X-40900000Y9400000D03*
X-54400000Y31800000D03*
X-54400000Y26200000D03*
X-54400000Y15000000D03*
X-54400000Y3800000D03*
X-54400000Y33500000D03*
X-54400000Y27900000D03*
X-54400000Y22300000D03*
X-54400000Y16700000D03*
X-54400000Y11100000D03*
X-54400000Y5500000D03*
X-54400000Y30100000D03*
X-54400000Y13300000D03*
X-56400000Y31800000D03*
X-54400000Y20600000D03*
X-54400000Y9400000D03*
X-56400000Y9400000D03*
X-56400000Y3800000D03*
X-56400000Y30100000D03*
X-54400000Y24500000D03*
X-54400000Y18900000D03*
X-56400000Y13300000D03*
X-54400000Y7700000D03*
X-56400000Y7700000D03*
X-54400000Y2100000D03*
X-56400000Y33500000D03*
X-56400000Y16700000D03*
X-54400000Y11100000D03*
X-56400000Y5500000D03*
X-56400000Y27900000D03*
X-56400000Y22300000D03*
X-56400000Y11100000D03*
X-56400000Y24500000D03*
X-56400000Y18900000D03*
X-56400000Y2100000D03*
X-56400000Y26200000D03*
X-56400000Y20600000D03*
X-56400000Y15000000D03*
X-10200000Y-100000D03*
X-10200000Y-1800000D03*
X-10200000Y-3500000D03*
X-39000000Y-3500000D03*
X-39000000Y-1800000D03*
X-40900000Y-3500000D03*
X-40900000Y-1800000D03*
X-40900000Y-100000D03*
X-39000000Y-100000D03*
X-54400000Y-100000D03*
X-54400000Y-3500000D03*
X-54400000Y-1800000D03*
X-56400000Y-1800000D03*
X-56400000Y-100000D03*
X-56400000Y-3500000D03*
X5300000Y27900000D03*
G04 #@! TO.N,/C2+*
X25600000Y43500000D03*
X25600000Y40100000D03*
X25600000Y41800000D03*
X25600000Y49100000D03*
X25600000Y54700000D03*
X25600000Y60300000D03*
X25600000Y65900000D03*
X25600000Y71500000D03*
X25600000Y77100000D03*
X25600000Y82700000D03*
X25600000Y88300000D03*
X25600000Y94000000D03*
X25600000Y99500000D03*
X25600000Y105100000D03*
X25600000Y110700000D03*
X25600000Y45700000D03*
X25600000Y51300000D03*
X25600000Y56900000D03*
X25600000Y62500000D03*
X25600000Y68100000D03*
X25600000Y73700000D03*
X25600000Y79300000D03*
X25600000Y84900000D03*
X25600000Y90500000D03*
X25600000Y96100000D03*
X25600000Y101700000D03*
X25600000Y107300000D03*
X25600000Y47400000D03*
X25600000Y53000000D03*
X25600000Y58600000D03*
X25600000Y64200000D03*
X25600000Y69800000D03*
X25600000Y75390000D03*
X25600000Y81000000D03*
X25600000Y86600000D03*
X25600000Y92190000D03*
X25600000Y97800000D03*
X25600000Y103400000D03*
X25600000Y109000000D03*
X39000000Y41800000D03*
X39000000Y40100000D03*
X39000000Y43500000D03*
X39000000Y49100000D03*
X39000000Y54700000D03*
X39000000Y60300000D03*
X39000000Y65900000D03*
X39000000Y71500000D03*
X39000000Y77100000D03*
X39000000Y82700000D03*
X39000000Y88300000D03*
X39000000Y94000000D03*
X39000000Y99500000D03*
X39000000Y105100000D03*
X39000000Y110700000D03*
X39000000Y47400000D03*
X39000000Y53000000D03*
X39000000Y58600000D03*
X39000000Y64200000D03*
X39000000Y69800000D03*
X39000000Y75400000D03*
X39000000Y81000000D03*
X39000000Y86600000D03*
X39000000Y92200000D03*
X39000000Y97800000D03*
X39000000Y103400000D03*
X39000000Y109000000D03*
X39000000Y45700000D03*
X39000000Y51300000D03*
X39000000Y56900000D03*
X39000000Y62500000D03*
X39000000Y68100000D03*
X39000000Y73700000D03*
X39000000Y79300000D03*
X39000000Y84900000D03*
X39000000Y90500000D03*
X39000000Y96100000D03*
X39000000Y101700000D03*
X39000000Y107300000D03*
X41000000Y110700000D03*
X41000000Y109000000D03*
X41000000Y107300000D03*
X41000000Y103400000D03*
X41000000Y97800000D03*
X41000000Y92200000D03*
X41000000Y86600000D03*
X41000000Y81000000D03*
X41000000Y75400000D03*
X41000000Y69800000D03*
X41000000Y64200000D03*
X41000000Y58600000D03*
X41000000Y53000000D03*
X41000000Y47400000D03*
X41000000Y41800000D03*
X41000000Y105100000D03*
X41000000Y99500000D03*
X41000000Y94000000D03*
X41000000Y88300000D03*
X41000000Y82700000D03*
X41000000Y77100000D03*
X41000000Y71500000D03*
X41000000Y65900000D03*
X41000000Y60300000D03*
X41000000Y54700000D03*
X41000000Y49100000D03*
X41000000Y43500000D03*
X41000000Y101700000D03*
X41000000Y96100000D03*
X41000000Y90500000D03*
X41000000Y84900000D03*
X41000000Y79300000D03*
X41000000Y73700000D03*
X41000000Y68100000D03*
X41000000Y62500000D03*
X41000000Y56900000D03*
X41000000Y51300000D03*
X41000000Y45700000D03*
X41000000Y40100000D03*
X54400000Y107300000D03*
X54400000Y110700000D03*
X54400000Y109000000D03*
X54400000Y101700000D03*
X54400000Y96100000D03*
X54400000Y90500000D03*
X54400000Y84900000D03*
X54400000Y79300000D03*
X54400000Y73700000D03*
X54400000Y68100000D03*
X54400000Y62500000D03*
X54400000Y56900000D03*
X54400000Y51300000D03*
X54400000Y45700000D03*
X54400000Y40100000D03*
X54400000Y103400000D03*
X54400000Y97800000D03*
X54400000Y92200000D03*
X54400000Y86600000D03*
X54400000Y81000000D03*
X54400000Y75400000D03*
X54400000Y69800000D03*
X54400000Y64200000D03*
X54400000Y58600000D03*
X54400000Y53000000D03*
X54400000Y47400000D03*
X54400000Y41800000D03*
X54400000Y105100000D03*
X54400000Y99500000D03*
X54400000Y94000000D03*
X54400000Y88300000D03*
X54400000Y82700000D03*
X54400000Y77100000D03*
X54400000Y71500000D03*
X54400000Y65900000D03*
X54400000Y60300000D03*
X54400000Y54700000D03*
X54400000Y49100000D03*
X54400000Y43500000D03*
X56400000Y107300000D03*
X56400000Y109000000D03*
X56400000Y110700000D03*
X56400000Y105100000D03*
X56400000Y99500000D03*
X56400000Y94000000D03*
X56400000Y88300000D03*
X56400000Y82700000D03*
X56400000Y77100000D03*
X56400000Y71500000D03*
X56400000Y65900000D03*
X56400000Y60300000D03*
X56400000Y54700000D03*
X56400000Y49100000D03*
X56400000Y43500000D03*
X56400000Y101700000D03*
X56400000Y96100000D03*
X56400000Y90500000D03*
X56400000Y84900000D03*
X56400000Y79300000D03*
X56400000Y73700000D03*
X56400000Y68100000D03*
X56400000Y62500000D03*
X56400000Y56900000D03*
X56400000Y51300000D03*
X56400000Y45700000D03*
X56400000Y40100000D03*
X56400000Y103400000D03*
X56400000Y97800000D03*
X56400000Y92200000D03*
X56400000Y86600000D03*
X56400000Y81000000D03*
X56400000Y75400000D03*
X56400000Y69800000D03*
X56400000Y64200000D03*
X56400000Y58600000D03*
X56400000Y53000000D03*
X56400000Y47400000D03*
X56400000Y41800000D03*
X39000000Y21500000D03*
X39000000Y15900000D03*
X39000000Y10300000D03*
X39000000Y4700000D03*
X39000000Y-900000D03*
X39000000Y19700000D03*
X39000000Y14100000D03*
X39000000Y8500000D03*
X39000000Y2900000D03*
X39000000Y-2700000D03*
X39000000Y18000000D03*
X39000000Y12400000D03*
X39000000Y6800000D03*
X39000000Y1200000D03*
X39000000Y-4400000D03*
X41000000Y21500000D03*
X41000000Y15900000D03*
X41000000Y10300000D03*
X41000000Y4700000D03*
X41000000Y-900000D03*
X41000000Y19700000D03*
X41000000Y14100000D03*
X41000000Y8500000D03*
X41000000Y2900000D03*
X41000000Y-2700000D03*
X41000000Y18000000D03*
X41000000Y12400000D03*
X41000000Y6800000D03*
X41000000Y1200000D03*
X41000000Y-4400000D03*
X54400000Y19700000D03*
X54400000Y14100000D03*
X54400000Y8500000D03*
X54400000Y2900000D03*
X54400000Y-2700000D03*
X54400000Y18000000D03*
X54400000Y12400000D03*
X54400000Y6800000D03*
X54400000Y1200000D03*
X54400000Y-4400000D03*
X54400000Y21500000D03*
X54400000Y15900000D03*
X54400000Y10300000D03*
X54400000Y4700000D03*
X54400000Y-900000D03*
X56400000Y19700000D03*
X56400000Y14100000D03*
X56400000Y8500000D03*
X56400000Y2900000D03*
X56400000Y-2700000D03*
X56400000Y21500000D03*
X56400000Y15900000D03*
X56400000Y10300000D03*
X56400000Y4700000D03*
X56400000Y-900000D03*
X56400000Y18000000D03*
X56400000Y12400000D03*
X56400000Y6800000D03*
X56400000Y1200000D03*
X56400000Y-4400000D03*
X41000000Y32700000D03*
X41000000Y30900000D03*
X41000000Y29200000D03*
X54400000Y30900000D03*
X54400000Y29200000D03*
X54400000Y32700000D03*
X56400000Y30900000D03*
X56400000Y32700000D03*
X56400000Y29200000D03*
X56400000Y23600000D03*
X56400000Y27100000D03*
X56400000Y25300000D03*
X54400000Y27100000D03*
X54400000Y23600000D03*
X54400000Y25300000D03*
X39000000Y23600000D03*
X39000000Y25300000D03*
X39000000Y27100000D03*
X41000000Y23600000D03*
X41000000Y25300000D03*
X41000000Y27100000D03*
X25600000Y15900000D03*
X25600000Y1200000D03*
X25600000Y-900000D03*
X25600000Y8500000D03*
X25600000Y6800000D03*
X25600000Y2900000D03*
X25600000Y10300000D03*
X25600000Y4700000D03*
X25600000Y-2700000D03*
X25600000Y-4400000D03*
X25600000Y14100000D03*
X25600000Y12400000D03*
X23600000Y10300000D03*
X23600000Y2900000D03*
X23600000Y4700000D03*
X23600000Y8500000D03*
X23600000Y6800000D03*
X23600000Y1200000D03*
X23600000Y-900000D03*
X23600000Y-2700000D03*
X23600000Y-4400000D03*
X23600000Y15900000D03*
X23600000Y14100000D03*
X23600000Y12400000D03*
G04 #@! TO.N,/C2-*
X31300000Y105100000D03*
X31300000Y103400000D03*
X31300000Y101700000D03*
X31300000Y97800000D03*
X31300000Y92190000D03*
X31300000Y86600000D03*
X31300000Y81000000D03*
X31300000Y75400000D03*
X31300000Y69800000D03*
X31300000Y64200000D03*
X31300000Y58600000D03*
X31300000Y96100000D03*
X31300000Y90500000D03*
X31300000Y84900000D03*
X31300000Y79300000D03*
X31300000Y73700000D03*
X31300000Y68100000D03*
X31300000Y62500000D03*
X31300000Y56900000D03*
X31300000Y99500000D03*
X31300000Y94000000D03*
X31300000Y88300000D03*
X31300000Y82700000D03*
X31300000Y77100000D03*
X31300000Y71500000D03*
X31300000Y65900000D03*
X31300000Y60300000D03*
X31300000Y53000000D03*
X31300000Y47400000D03*
X31300000Y41800000D03*
X31300000Y51300000D03*
X31300000Y45700000D03*
X31300000Y40100000D03*
X31300000Y54700000D03*
X31300000Y49100000D03*
X31300000Y43500000D03*
X31300000Y109000000D03*
X31300000Y107300000D03*
X31300000Y110700000D03*
X33300000Y109000000D03*
X33300000Y107300000D03*
X33300000Y110700000D03*
X33300000Y103400000D03*
X33300000Y97800000D03*
X33300000Y92200000D03*
X33300000Y86600000D03*
X33300000Y81000000D03*
X33300000Y75400000D03*
X33300000Y69800000D03*
X33300000Y64200000D03*
X33300000Y58600000D03*
X33300000Y53000000D03*
X33300000Y47400000D03*
X33300000Y41800000D03*
X33300000Y105100000D03*
X33300000Y99500000D03*
X33300000Y94000000D03*
X33300000Y88300000D03*
X33300000Y82700000D03*
X33300000Y77100000D03*
X33300000Y71500000D03*
X33300000Y65900000D03*
X33300000Y60300000D03*
X33300000Y54700000D03*
X33300000Y49100000D03*
X33300000Y43500000D03*
X33300000Y101700000D03*
X33300000Y96100000D03*
X33300000Y90500000D03*
X33300000Y84900000D03*
X33300000Y79300000D03*
X33300000Y73700000D03*
X33300000Y68100000D03*
X33300000Y62500000D03*
X33300000Y56900000D03*
X33300000Y51300000D03*
X33300000Y45700000D03*
X33300000Y40100000D03*
X46800000Y109000000D03*
X46800000Y110700000D03*
X46800000Y107300000D03*
X46800000Y105100000D03*
X46800000Y99500000D03*
X46800000Y94000000D03*
X46800000Y88300000D03*
X46800000Y82700000D03*
X46800000Y77100000D03*
X46800000Y71500000D03*
X46800000Y65900000D03*
X46800000Y60300000D03*
X46800000Y54700000D03*
X46800000Y49100000D03*
X46800000Y43500000D03*
X46800000Y101700000D03*
X46800000Y96100000D03*
X46800000Y90500000D03*
X46800000Y84900000D03*
X46800000Y79300000D03*
X46800000Y73700000D03*
X46800000Y68100000D03*
X46800000Y62500000D03*
X46800000Y56900000D03*
X46800000Y51300000D03*
X46800000Y45700000D03*
X46800000Y40100000D03*
X46800000Y103400000D03*
X46800000Y97800000D03*
X46800000Y92200000D03*
X46800000Y86600000D03*
X46800000Y81000000D03*
X46800000Y75400000D03*
X46800000Y69800000D03*
X46800000Y64200000D03*
X46800000Y58600000D03*
X46800000Y53000000D03*
X46800000Y47400000D03*
X46800000Y41800000D03*
X48700000Y110700000D03*
X48700000Y107300000D03*
X48700000Y109000000D03*
X48700000Y101700000D03*
X48700000Y96100000D03*
X48700000Y90500000D03*
X48700000Y84900000D03*
X48700000Y79300000D03*
X48700000Y73700000D03*
X48700000Y68100000D03*
X48700000Y62500000D03*
X48700000Y56900000D03*
X48700000Y51300000D03*
X48700000Y45700000D03*
X48700000Y40100000D03*
X48700000Y105100000D03*
X48700000Y99500000D03*
X48700000Y94000000D03*
X48700000Y88300000D03*
X48700000Y82700000D03*
X48700000Y77100000D03*
X48700000Y71500000D03*
X48700000Y65900000D03*
X48700000Y60300000D03*
X48700000Y54700000D03*
X48700000Y49100000D03*
X48700000Y43500000D03*
X48700000Y103400000D03*
X48700000Y97800000D03*
X48700000Y92200000D03*
X48700000Y86600000D03*
X48700000Y81000000D03*
X48700000Y75400000D03*
X48700000Y69800000D03*
X48700000Y64200000D03*
X48700000Y58600000D03*
X48700000Y53000000D03*
X48700000Y47400000D03*
X48700000Y41800000D03*
X62100000Y110700000D03*
X62100000Y107300000D03*
X62100000Y109000000D03*
X62100000Y105100000D03*
X62100000Y99500000D03*
X62100000Y94000000D03*
X62100000Y88300000D03*
X62100000Y82700000D03*
X62100000Y77100000D03*
X62100000Y71500000D03*
X62100000Y65900000D03*
X62100000Y60300000D03*
X62100000Y54700000D03*
X62100000Y49100000D03*
X62100000Y43500000D03*
X62100000Y101700000D03*
X62100000Y96100000D03*
X62100000Y90500000D03*
X62100000Y84900000D03*
X62100000Y79300000D03*
X62100000Y73700000D03*
X62100000Y68100000D03*
X62100000Y62500000D03*
X62100000Y56900000D03*
X62100000Y51300000D03*
X62100000Y45700000D03*
X62100000Y40100000D03*
X62100000Y103400000D03*
X62100000Y97800000D03*
X62100000Y92200000D03*
X62100000Y86600000D03*
X62100000Y81000000D03*
X62100000Y75400000D03*
X62100000Y69800000D03*
X62100000Y64200000D03*
X62100000Y58600000D03*
X62100000Y53000000D03*
X62100000Y47400000D03*
X62100000Y41800000D03*
X33300000Y19700000D03*
X33300000Y14100000D03*
X33300000Y8500000D03*
X33300000Y2900000D03*
X33300000Y-2700000D03*
X33300000Y18000000D03*
X33300000Y12400000D03*
X33300000Y6800000D03*
X33300000Y1200000D03*
X33300000Y-4400000D03*
X33300000Y21500000D03*
X33300000Y15900000D03*
X33300000Y10300000D03*
X33300000Y4700000D03*
X33300000Y-900000D03*
X46800000Y18000000D03*
X46800000Y12400000D03*
X46800000Y6800000D03*
X46800000Y1200000D03*
X46800000Y-4400000D03*
X46800000Y19700000D03*
X46800000Y14100000D03*
X46800000Y8500000D03*
X46800000Y2900000D03*
X46800000Y-2700000D03*
X46800000Y21500000D03*
X46800000Y15900000D03*
X46800000Y10300000D03*
X46800000Y4700000D03*
X46800000Y-900000D03*
X48700000Y21500000D03*
X48700000Y15900000D03*
X48700000Y10300000D03*
X48700000Y4700000D03*
X48700000Y-900000D03*
X48700000Y19700000D03*
X48700000Y14100000D03*
X48700000Y8500000D03*
X48700000Y2900000D03*
X48700000Y-2700000D03*
X48700000Y18000000D03*
X48700000Y12400000D03*
X48700000Y6800000D03*
X48700000Y1200000D03*
X48700000Y-4400000D03*
X62100000Y21500000D03*
X62100000Y15900000D03*
X62100000Y10300000D03*
X62100000Y4700000D03*
X62100000Y-900000D03*
X62100000Y18000000D03*
X62100000Y12400000D03*
X62100000Y6800000D03*
X62100000Y1200000D03*
X62100000Y-4400000D03*
X62100000Y19700000D03*
X62100000Y14100000D03*
X62100000Y8500000D03*
X62100000Y2900000D03*
X62100000Y-2700000D03*
X46800000Y29200000D03*
X46800000Y30900000D03*
X46800000Y32700000D03*
X48700000Y32700000D03*
X48700000Y30900000D03*
X48700000Y29200000D03*
X62100000Y32700000D03*
X62100000Y29200000D03*
X62100000Y30900000D03*
X33300000Y27100000D03*
X33300000Y23600000D03*
X33300000Y25300000D03*
X62100000Y25300000D03*
X62100000Y23600000D03*
X62100000Y27100000D03*
X46800000Y27100000D03*
X46800000Y25300000D03*
X46800000Y23600000D03*
X48700000Y23600000D03*
X48700000Y25300000D03*
X48700000Y27100000D03*
X31300000Y8500000D03*
X31300000Y15900000D03*
X31300000Y1200000D03*
X31300000Y-900000D03*
X31300000Y2900000D03*
X31300000Y6800000D03*
X31300000Y4700000D03*
X31300000Y10300000D03*
X31300000Y12400000D03*
X31300000Y-2700000D03*
X31300000Y-4400000D03*
X31300000Y14100000D03*
X17900000Y6800000D03*
X17900000Y10300000D03*
X17900000Y2900000D03*
X17900000Y4700000D03*
X17900000Y8500000D03*
X17900000Y1200000D03*
X17900000Y15900000D03*
X17900000Y14100000D03*
X17900000Y12400000D03*
X17900000Y-2700000D03*
X17900000Y-900000D03*
X17900000Y-4400000D03*
G04 #@! TD*
D14*
G04 #@! TO.N,/C2+*
G36*
X55883655Y112826549D02*
X56316489Y112605748D01*
X56659800Y112261891D01*
X56879909Y111828707D01*
X56956804Y111338671D01*
X56844697Y40959351D01*
X56845473Y40945133D01*
X56923928Y40238606D01*
X56930210Y40210873D01*
X57163894Y39539510D01*
X57176189Y39513871D01*
X57553385Y38911327D01*
X57571076Y38889066D01*
X58072878Y38385547D01*
X58095079Y38367780D01*
X58696330Y37988526D01*
X58721927Y37976143D01*
X59392488Y37740167D01*
X59420198Y37733790D01*
X60126453Y37652921D01*
X60140669Y37652097D01*
X63165952Y37646578D01*
X63567010Y37582570D01*
X63919912Y37402798D01*
X64200350Y37123129D01*
X64265000Y36997071D01*
X64265000Y35753936D01*
X64206764Y35638732D01*
X63928795Y35359491D01*
X63577968Y35180130D01*
X63178814Y35116723D01*
X60202873Y35116723D01*
X60188640Y35115923D01*
X59481458Y35036164D01*
X59453706Y35029823D01*
X58782054Y34794554D01*
X58756412Y34782192D01*
X58154035Y34403233D01*
X58131791Y34385470D01*
X57628953Y33881861D01*
X57611223Y33859589D01*
X57233189Y33256631D01*
X57220866Y33230970D01*
X56986627Y32558958D01*
X56980329Y32531197D01*
X56901655Y31823893D01*
X56900877Y31809658D01*
X56956910Y-4723586D01*
X56880221Y-5213085D01*
X56660721Y-5645973D01*
X56318293Y-5989941D01*
X55886393Y-6211383D01*
X55553922Y-6265000D01*
X55255280Y-6265000D01*
X54928552Y-6214148D01*
X54496448Y-5995135D01*
X54153364Y-5653126D01*
X53932994Y-5221710D01*
X53855399Y-4733262D01*
X53848591Y31815338D01*
X53847790Y31829555D01*
X53768074Y32535962D01*
X53761742Y32563684D01*
X53526851Y33234647D01*
X53514510Y33260265D01*
X53136222Y33862148D01*
X53118490Y33884378D01*
X52615767Y34387007D01*
X52593534Y34404734D01*
X51991581Y34782910D01*
X51965961Y34795247D01*
X51294954Y35030013D01*
X51267231Y35036340D01*
X50560809Y35115925D01*
X50546591Y35116723D01*
X44645366Y35116723D01*
X44631133Y35115923D01*
X43923952Y35036164D01*
X43896200Y35029823D01*
X43224549Y34794555D01*
X43198907Y34782193D01*
X42596530Y34403235D01*
X42574286Y34385472D01*
X42071449Y33881864D01*
X42053720Y33859592D01*
X41675685Y33256636D01*
X41663361Y33230975D01*
X41429121Y32558964D01*
X41422823Y32531203D01*
X41344148Y31823901D01*
X41343370Y31809667D01*
X41399516Y-4853665D01*
X41325956Y-5321191D01*
X41115706Y-5733834D01*
X40787898Y-6060977D01*
X40385458Y-6265000D01*
X39454468Y-6265000D01*
X39045719Y-6055025D01*
X38718385Y-5725625D01*
X38508794Y-5311235D01*
X38435884Y-4842378D01*
X38535893Y31833046D01*
X38535139Y31847214D01*
X38458049Y32551324D01*
X38451843Y32578969D01*
X38220569Y33248467D01*
X38208388Y33274048D01*
X37834443Y33875612D01*
X37816895Y33897856D01*
X37318888Y34401546D01*
X37296844Y34419345D01*
X36699562Y34800093D01*
X36674121Y34812563D01*
X36007291Y35051418D01*
X35979719Y35057938D01*
X35276529Y35143013D01*
X35262370Y35143927D01*
X33497460Y35159142D01*
X33480920Y35158204D01*
X32846383Y35080458D01*
X32814369Y35072200D01*
X32221400Y34833305D01*
X32192602Y34817063D01*
X31681390Y34433208D01*
X31657761Y34410084D01*
X31262951Y33907284D01*
X31246091Y33878844D01*
X30994441Y33291176D01*
X30985493Y33259348D01*
X30894056Y32626638D01*
X30893755Y32624416D01*
X30809580Y31959194D01*
X30583588Y31343210D01*
X30225441Y30793443D01*
X29753324Y30337807D01*
X29191185Y29999411D01*
X28560692Y29793193D01*
X27021078Y29475923D01*
X27007093Y29472200D01*
X26320725Y29246846D01*
X26294474Y29234767D01*
X25676816Y28860089D01*
X25653975Y28842388D01*
X25137003Y28337784D01*
X25118755Y28315378D01*
X24729234Y27706972D01*
X24716523Y27681022D01*
X24474618Y27000312D01*
X24468102Y26972159D01*
X24386337Y26254385D01*
X24385521Y26239936D01*
X24388892Y20505019D01*
X24389860Y20489440D01*
X24485874Y19716404D01*
X24493479Y19686188D01*
X24774832Y18959797D01*
X24789566Y18932341D01*
X25239323Y18296320D01*
X25249102Y18284153D01*
X25299187Y18229134D01*
X25735657Y17611775D01*
X26005679Y16914032D01*
X26098500Y16163696D01*
X26098500Y-4687785D01*
X26022405Y-5168228D01*
X25806161Y-5592630D01*
X25469353Y-5929438D01*
X25044951Y-6145682D01*
X24574449Y-6220202D01*
X24102234Y-6145809D01*
X23675717Y-5929810D01*
X23336269Y-5593140D01*
X23116773Y-5168415D01*
X23036844Y-4686848D01*
X22860243Y16798566D01*
X22860302Y16856227D01*
X22978698Y28340589D01*
X23079038Y29089120D01*
X23358570Y29790719D01*
X24299547Y31504641D01*
X24304864Y31515526D01*
X24544181Y32071208D01*
X24551593Y32094246D01*
X24681157Y32685235D01*
X24684063Y32709261D01*
X24699168Y33314098D01*
X24698893Y33326209D01*
X24392397Y37669212D01*
X24384732Y37906720D01*
X24823755Y111850696D01*
X24916927Y112203482D01*
X25157538Y112455247D01*
X25488670Y112558952D01*
X25808237Y112487626D01*
X26044369Y112262630D01*
X26135456Y111930781D01*
X25926626Y41020219D01*
X25927383Y41005987D01*
X26005017Y40298755D01*
X26011273Y40270992D01*
X26244443Y39598806D01*
X26256723Y39573133D01*
X26633719Y38969744D01*
X26651409Y38947450D01*
X27153300Y38443160D01*
X27175509Y38425365D01*
X27777092Y38045496D01*
X27802706Y38033093D01*
X28473773Y37796720D01*
X28501506Y37790332D01*
X29208359Y37709326D01*
X29222587Y37708500D01*
X35208795Y37697579D01*
X35223045Y37698355D01*
X35931111Y37776992D01*
X35958902Y37783295D01*
X36631610Y38017827D01*
X36657296Y38030168D01*
X37260776Y38408788D01*
X37283064Y38426546D01*
X37786932Y38930191D01*
X37804699Y38952470D01*
X38183586Y39555782D01*
X38195938Y39581463D01*
X38430768Y40254067D01*
X38437084Y40281855D01*
X38516034Y40989886D01*
X38516816Y41004135D01*
X38419838Y111211648D01*
X38496832Y111701712D01*
X38717026Y112134901D01*
X39060409Y112478758D01*
X39493297Y112699552D01*
X39973261Y112775639D01*
X40453512Y112699574D01*
X40886766Y112478820D01*
X41230597Y112134989D01*
X41451351Y111701735D01*
X41529000Y111211481D01*
X41529000Y41016436D01*
X41529797Y41002233D01*
X41609217Y40296536D01*
X41615530Y40268840D01*
X41849816Y39598448D01*
X41862128Y39572849D01*
X42239560Y38971299D01*
X42257254Y38949076D01*
X42758949Y38446465D01*
X42781139Y38428731D01*
X43381999Y38050203D01*
X43407576Y38037845D01*
X44077540Y37802336D01*
X44105224Y37795972D01*
X44810775Y37715264D01*
X44824976Y37714441D01*
X50632965Y37703846D01*
X50647214Y37704622D01*
X51355240Y37783249D01*
X51383030Y37789551D01*
X52055704Y38024057D01*
X52081389Y38036397D01*
X52684846Y38414976D01*
X52707133Y38432731D01*
X53210995Y38936324D01*
X53228762Y38958602D01*
X53607663Y39561858D01*
X53620016Y39587536D01*
X53854880Y40260085D01*
X53861198Y40287871D01*
X53940203Y40995855D01*
X53940986Y41010104D01*
X53850186Y111338638D01*
X53927222Y111828710D01*
X54147454Y112261910D01*
X54490862Y112605760D01*
X54923778Y112826553D01*
X55403749Y112902637D01*
X55883655Y112826549D01*
X55883655Y112826549D01*
G37*
X55883655Y112826549D02*
X56316489Y112605748D01*
X56659800Y112261891D01*
X56879909Y111828707D01*
X56956804Y111338671D01*
X56844697Y40959351D01*
X56845473Y40945133D01*
X56923928Y40238606D01*
X56930210Y40210873D01*
X57163894Y39539510D01*
X57176189Y39513871D01*
X57553385Y38911327D01*
X57571076Y38889066D01*
X58072878Y38385547D01*
X58095079Y38367780D01*
X58696330Y37988526D01*
X58721927Y37976143D01*
X59392488Y37740167D01*
X59420198Y37733790D01*
X60126453Y37652921D01*
X60140669Y37652097D01*
X63165952Y37646578D01*
X63567010Y37582570D01*
X63919912Y37402798D01*
X64200350Y37123129D01*
X64265000Y36997071D01*
X64265000Y35753936D01*
X64206764Y35638732D01*
X63928795Y35359491D01*
X63577968Y35180130D01*
X63178814Y35116723D01*
X60202873Y35116723D01*
X60188640Y35115923D01*
X59481458Y35036164D01*
X59453706Y35029823D01*
X58782054Y34794554D01*
X58756412Y34782192D01*
X58154035Y34403233D01*
X58131791Y34385470D01*
X57628953Y33881861D01*
X57611223Y33859589D01*
X57233189Y33256631D01*
X57220866Y33230970D01*
X56986627Y32558958D01*
X56980329Y32531197D01*
X56901655Y31823893D01*
X56900877Y31809658D01*
X56956910Y-4723586D01*
X56880221Y-5213085D01*
X56660721Y-5645973D01*
X56318293Y-5989941D01*
X55886393Y-6211383D01*
X55553922Y-6265000D01*
X55255280Y-6265000D01*
X54928552Y-6214148D01*
X54496448Y-5995135D01*
X54153364Y-5653126D01*
X53932994Y-5221710D01*
X53855399Y-4733262D01*
X53848591Y31815338D01*
X53847790Y31829555D01*
X53768074Y32535962D01*
X53761742Y32563684D01*
X53526851Y33234647D01*
X53514510Y33260265D01*
X53136222Y33862148D01*
X53118490Y33884378D01*
X52615767Y34387007D01*
X52593534Y34404734D01*
X51991581Y34782910D01*
X51965961Y34795247D01*
X51294954Y35030013D01*
X51267231Y35036340D01*
X50560809Y35115925D01*
X50546591Y35116723D01*
X44645366Y35116723D01*
X44631133Y35115923D01*
X43923952Y35036164D01*
X43896200Y35029823D01*
X43224549Y34794555D01*
X43198907Y34782193D01*
X42596530Y34403235D01*
X42574286Y34385472D01*
X42071449Y33881864D01*
X42053720Y33859592D01*
X41675685Y33256636D01*
X41663361Y33230975D01*
X41429121Y32558964D01*
X41422823Y32531203D01*
X41344148Y31823901D01*
X41343370Y31809667D01*
X41399516Y-4853665D01*
X41325956Y-5321191D01*
X41115706Y-5733834D01*
X40787898Y-6060977D01*
X40385458Y-6265000D01*
X39454468Y-6265000D01*
X39045719Y-6055025D01*
X38718385Y-5725625D01*
X38508794Y-5311235D01*
X38435884Y-4842378D01*
X38535893Y31833046D01*
X38535139Y31847214D01*
X38458049Y32551324D01*
X38451843Y32578969D01*
X38220569Y33248467D01*
X38208388Y33274048D01*
X37834443Y33875612D01*
X37816895Y33897856D01*
X37318888Y34401546D01*
X37296844Y34419345D01*
X36699562Y34800093D01*
X36674121Y34812563D01*
X36007291Y35051418D01*
X35979719Y35057938D01*
X35276529Y35143013D01*
X35262370Y35143927D01*
X33497460Y35159142D01*
X33480920Y35158204D01*
X32846383Y35080458D01*
X32814369Y35072200D01*
X32221400Y34833305D01*
X32192602Y34817063D01*
X31681390Y34433208D01*
X31657761Y34410084D01*
X31262951Y33907284D01*
X31246091Y33878844D01*
X30994441Y33291176D01*
X30985493Y33259348D01*
X30894056Y32626638D01*
X30893755Y32624416D01*
X30809580Y31959194D01*
X30583588Y31343210D01*
X30225441Y30793443D01*
X29753324Y30337807D01*
X29191185Y29999411D01*
X28560692Y29793193D01*
X27021078Y29475923D01*
X27007093Y29472200D01*
X26320725Y29246846D01*
X26294474Y29234767D01*
X25676816Y28860089D01*
X25653975Y28842388D01*
X25137003Y28337784D01*
X25118755Y28315378D01*
X24729234Y27706972D01*
X24716523Y27681022D01*
X24474618Y27000312D01*
X24468102Y26972159D01*
X24386337Y26254385D01*
X24385521Y26239936D01*
X24388892Y20505019D01*
X24389860Y20489440D01*
X24485874Y19716404D01*
X24493479Y19686188D01*
X24774832Y18959797D01*
X24789566Y18932341D01*
X25239323Y18296320D01*
X25249102Y18284153D01*
X25299187Y18229134D01*
X25735657Y17611775D01*
X26005679Y16914032D01*
X26098500Y16163696D01*
X26098500Y-4687785D01*
X26022405Y-5168228D01*
X25806161Y-5592630D01*
X25469353Y-5929438D01*
X25044951Y-6145682D01*
X24574449Y-6220202D01*
X24102234Y-6145809D01*
X23675717Y-5929810D01*
X23336269Y-5593140D01*
X23116773Y-5168415D01*
X23036844Y-4686848D01*
X22860243Y16798566D01*
X22860302Y16856227D01*
X22978698Y28340589D01*
X23079038Y29089120D01*
X23358570Y29790719D01*
X24299547Y31504641D01*
X24304864Y31515526D01*
X24544181Y32071208D01*
X24551593Y32094246D01*
X24681157Y32685235D01*
X24684063Y32709261D01*
X24699168Y33314098D01*
X24698893Y33326209D01*
X24392397Y37669212D01*
X24384732Y37906720D01*
X24823755Y111850696D01*
X24916927Y112203482D01*
X25157538Y112455247D01*
X25488670Y112558952D01*
X25808237Y112487626D01*
X26044369Y112262630D01*
X26135456Y111930781D01*
X25926626Y41020219D01*
X25927383Y41005987D01*
X26005017Y40298755D01*
X26011273Y40270992D01*
X26244443Y39598806D01*
X26256723Y39573133D01*
X26633719Y38969744D01*
X26651409Y38947450D01*
X27153300Y38443160D01*
X27175509Y38425365D01*
X27777092Y38045496D01*
X27802706Y38033093D01*
X28473773Y37796720D01*
X28501506Y37790332D01*
X29208359Y37709326D01*
X29222587Y37708500D01*
X35208795Y37697579D01*
X35223045Y37698355D01*
X35931111Y37776992D01*
X35958902Y37783295D01*
X36631610Y38017827D01*
X36657296Y38030168D01*
X37260776Y38408788D01*
X37283064Y38426546D01*
X37786932Y38930191D01*
X37804699Y38952470D01*
X38183586Y39555782D01*
X38195938Y39581463D01*
X38430768Y40254067D01*
X38437084Y40281855D01*
X38516034Y40989886D01*
X38516816Y41004135D01*
X38419838Y111211648D01*
X38496832Y111701712D01*
X38717026Y112134901D01*
X39060409Y112478758D01*
X39493297Y112699552D01*
X39973261Y112775639D01*
X40453512Y112699574D01*
X40886766Y112478820D01*
X41230597Y112134989D01*
X41451351Y111701735D01*
X41529000Y111211481D01*
X41529000Y41016436D01*
X41529797Y41002233D01*
X41609217Y40296536D01*
X41615530Y40268840D01*
X41849816Y39598448D01*
X41862128Y39572849D01*
X42239560Y38971299D01*
X42257254Y38949076D01*
X42758949Y38446465D01*
X42781139Y38428731D01*
X43381999Y38050203D01*
X43407576Y38037845D01*
X44077540Y37802336D01*
X44105224Y37795972D01*
X44810775Y37715264D01*
X44824976Y37714441D01*
X50632965Y37703846D01*
X50647214Y37704622D01*
X51355240Y37783249D01*
X51383030Y37789551D01*
X52055704Y38024057D01*
X52081389Y38036397D01*
X52684846Y38414976D01*
X52707133Y38432731D01*
X53210995Y38936324D01*
X53228762Y38958602D01*
X53607663Y39561858D01*
X53620016Y39587536D01*
X53854880Y40260085D01*
X53861198Y40287871D01*
X53940203Y40995855D01*
X53940986Y41010104D01*
X53850186Y111338638D01*
X53927222Y111828710D01*
X54147454Y112261910D01*
X54490862Y112605760D01*
X54923778Y112826553D01*
X55403749Y112902637D01*
X55883655Y112826549D01*
G04 #@! TO.N,/C2-*
G36*
X32769629Y112888823D02*
X33202430Y112668019D01*
X33545700Y112324161D01*
X33765762Y111890980D01*
X33842599Y111400964D01*
X33721184Y40555050D01*
X33649223Y40100446D01*
X33446292Y39698503D01*
X33130241Y39377800D01*
X32731306Y39169018D01*
X32287860Y39092166D01*
X31848564Y39155065D01*
X31450970Y39351705D01*
X31134507Y39662511D01*
X30930727Y40056494D01*
X30858318Y40504461D01*
X30736899Y111400964D01*
X30813736Y111890981D01*
X31033799Y112324162D01*
X31377069Y112668020D01*
X31809871Y112888823D01*
X32289750Y112964913D01*
X32769629Y112888823D01*
X32769629Y112888823D01*
G37*
X32769629Y112888823D02*
X33202430Y112668019D01*
X33545700Y112324161D01*
X33765762Y111890980D01*
X33842599Y111400964D01*
X33721184Y40555050D01*
X33649223Y40100446D01*
X33446292Y39698503D01*
X33130241Y39377800D01*
X32731306Y39169018D01*
X32287860Y39092166D01*
X31848564Y39155065D01*
X31450970Y39351705D01*
X31134507Y39662511D01*
X30930727Y40056494D01*
X30858318Y40504461D01*
X30736899Y111400964D01*
X30813736Y111890981D01*
X31033799Y112324162D01*
X31377069Y112668020D01*
X31809871Y112888823D01*
X32289750Y112964913D01*
X32769629Y112888823D01*
G36*
X48219738Y112758714D02*
X48670225Y112528888D01*
X49027520Y112170977D01*
X49256575Y111720095D01*
X49336485Y111210466D01*
X49215297Y40618452D01*
X49139972Y40147581D01*
X48927572Y39731957D01*
X48597250Y39402202D01*
X48181265Y39190516D01*
X47720250Y39117580D01*
X47259235Y39190516D01*
X46843250Y39402202D01*
X46512928Y39731957D01*
X46300528Y40147581D01*
X46225203Y40618452D01*
X46104015Y111210466D01*
X46183925Y111720095D01*
X46412980Y112170977D01*
X46770275Y112528888D01*
X47220762Y112758714D01*
X47720250Y112837913D01*
X48219738Y112758714D01*
X48219738Y112758714D01*
G37*
X48219738Y112758714D02*
X48670225Y112528888D01*
X49027520Y112170977D01*
X49256575Y111720095D01*
X49336485Y111210466D01*
X49215297Y40618452D01*
X49139972Y40147581D01*
X48927572Y39731957D01*
X48597250Y39402202D01*
X48181265Y39190516D01*
X47720250Y39117580D01*
X47259235Y39190516D01*
X46843250Y39402202D01*
X46512928Y39731957D01*
X46300528Y40147581D01*
X46225203Y40618452D01*
X46104015Y111210466D01*
X46183925Y111720095D01*
X46412980Y112170977D01*
X46770275Y112528888D01*
X47220762Y112758714D01*
X47720250Y112837913D01*
X48219738Y112758714D01*
G36*
X62912732Y112746661D02*
X63240043Y112526884D01*
X63457836Y112198254D01*
X63535138Y111798606D01*
X63102869Y40227333D01*
X63043267Y39935756D01*
X62884088Y39699463D01*
X62646839Y39541714D01*
X62367401Y39486349D01*
X62088584Y39541746D01*
X61852153Y39699504D01*
X61693989Y39935661D01*
X61635614Y40226834D01*
X61512109Y111798074D01*
X61591077Y112198231D01*
X61810236Y112526992D01*
X62138615Y112746716D01*
X62526079Y112823874D01*
X62912732Y112746661D01*
X62912732Y112746661D01*
G37*
X62912732Y112746661D02*
X63240043Y112526884D01*
X63457836Y112198254D01*
X63535138Y111798606D01*
X63102869Y40227333D01*
X63043267Y39935756D01*
X62884088Y39699463D01*
X62646839Y39541714D01*
X62367401Y39486349D01*
X62088584Y39541746D01*
X61852153Y39699504D01*
X61693989Y39935661D01*
X61635614Y40226834D01*
X61512109Y111798074D01*
X61591077Y112198231D01*
X61810236Y112526992D01*
X62138615Y112746716D01*
X62526079Y112823874D01*
X62912732Y112746661D01*
G36*
X48139672Y33391535D02*
X48546767Y33184356D01*
X48870020Y32861617D01*
X49077848Y32454855D01*
X49151548Y31993814D01*
X49209851Y-4562199D01*
X49134497Y-5042425D01*
X48918884Y-5466760D01*
X48582590Y-5803591D01*
X48158599Y-6019881D01*
X47688500Y-6094414D01*
X47218401Y-6019881D01*
X46794410Y-5803591D01*
X46458116Y-5466760D01*
X46242503Y-5042425D01*
X46167149Y-4562199D01*
X46225452Y31993814D01*
X46299152Y32454855D01*
X46506980Y32861617D01*
X46830233Y33184356D01*
X47237328Y33391535D01*
X47688500Y33462920D01*
X48139672Y33391535D01*
X48139672Y33391535D01*
G37*
X48139672Y33391535D02*
X48546767Y33184356D01*
X48870020Y32861617D01*
X49077848Y32454855D01*
X49151548Y31993814D01*
X49209851Y-4562199D01*
X49134497Y-5042425D01*
X48918884Y-5466760D01*
X48582590Y-5803591D01*
X48158599Y-6019881D01*
X47688500Y-6094414D01*
X47218401Y-6019881D01*
X46794410Y-5803591D01*
X46458116Y-5466760D01*
X46242503Y-5042425D01*
X46167149Y-4562199D01*
X46225452Y31993814D01*
X46299152Y32454855D01*
X46506980Y32861617D01*
X46830233Y33184356D01*
X47237328Y33391535D01*
X47688500Y33462920D01*
X48139672Y33391535D01*
G36*
X63062355Y33511862D02*
X63391161Y33292161D01*
X63610862Y32963355D01*
X63690500Y32562990D01*
X63690500Y-4740060D01*
X63610241Y-5146310D01*
X63388518Y-5480961D01*
X63056195Y-5706152D01*
X62663373Y-5788015D01*
X62272976Y-5714023D01*
X61941357Y-5495459D01*
X61719516Y-5166017D01*
X61639180Y-4763952D01*
X61657920Y32562931D01*
X61737751Y32963354D01*
X61957611Y33292173D01*
X62286545Y33511870D01*
X62674494Y33589013D01*
X63062355Y33511862D01*
X63062355Y33511862D01*
G37*
X63062355Y33511862D02*
X63391161Y33292161D01*
X63610862Y32963355D01*
X63690500Y32562990D01*
X63690500Y-4740060D01*
X63610241Y-5146310D01*
X63388518Y-5480961D01*
X63056195Y-5706152D01*
X62663373Y-5788015D01*
X62272976Y-5714023D01*
X61941357Y-5495459D01*
X61719516Y-5166017D01*
X61639180Y-4763952D01*
X61657920Y32562931D01*
X61737751Y32963354D01*
X61957611Y33292173D01*
X62286545Y33511870D01*
X62674494Y33589013D01*
X63062355Y33511862D01*
G36*
X33635225Y33345516D02*
X33860588Y33194639D01*
X34010920Y32968917D01*
X34065736Y32690279D01*
X33976722Y-4339070D01*
X33894484Y-4845251D01*
X33663117Y-5291434D01*
X33304086Y-5643150D01*
X32853238Y-5865284D01*
X32355352Y-5935689D01*
X31852290Y-5847695D01*
X31399833Y-5610333D01*
X31041344Y-5246271D01*
X30810991Y-4790209D01*
X30729162Y-4275762D01*
X30672733Y16207854D01*
X30765008Y16555418D01*
X31006691Y16797768D01*
X31369773Y16895235D01*
X31770418Y17000912D01*
X31826771Y17032863D01*
X32123269Y17322493D01*
X32156532Y17378083D01*
X32271605Y17776273D01*
X32276563Y17808556D01*
X32305590Y19047024D01*
X32304855Y19063967D01*
X32247211Y19584921D01*
X32239040Y19617762D01*
X32045860Y20104997D01*
X32029306Y20134515D01*
X31714306Y20553432D01*
X31690545Y20577530D01*
X31276093Y20898382D01*
X31246811Y20915348D01*
X30762337Y21115352D01*
X30729614Y21123983D01*
X30209521Y21188937D01*
X30192590Y21189910D01*
X28674300Y21175653D01*
X27984365Y21247304D01*
X27334820Y21469225D01*
X26751419Y21830908D01*
X26263778Y22313990D01*
X25896638Y22893965D01*
X25668624Y23541407D01*
X25590500Y24230628D01*
X25590500Y24849752D01*
X25666828Y25531108D01*
X25889684Y26171943D01*
X26248815Y26747579D01*
X26726413Y27229479D01*
X27298808Y27593759D01*
X27937616Y27822353D01*
X28618258Y27904789D01*
X29814499Y27915517D01*
X29830972Y27916739D01*
X30539204Y28015910D01*
X30570981Y28024680D01*
X31229831Y28302790D01*
X31258281Y28319443D01*
X31823356Y28757757D01*
X31846561Y28781171D01*
X32279788Y29350154D01*
X32296185Y29378752D01*
X32568376Y30040069D01*
X32576861Y30071924D01*
X32669676Y30781017D01*
X32670750Y30797500D01*
X32670750Y32689991D01*
X32726219Y32968852D01*
X32877095Y33194655D01*
X33102898Y33345531D01*
X33369232Y33398508D01*
X33635225Y33345516D01*
X33635225Y33345516D01*
G37*
X33635225Y33345516D02*
X33860588Y33194639D01*
X34010920Y32968917D01*
X34065736Y32690279D01*
X33976722Y-4339070D01*
X33894484Y-4845251D01*
X33663117Y-5291434D01*
X33304086Y-5643150D01*
X32853238Y-5865284D01*
X32355352Y-5935689D01*
X31852290Y-5847695D01*
X31399833Y-5610333D01*
X31041344Y-5246271D01*
X30810991Y-4790209D01*
X30729162Y-4275762D01*
X30672733Y16207854D01*
X30765008Y16555418D01*
X31006691Y16797768D01*
X31369773Y16895235D01*
X31770418Y17000912D01*
X31826771Y17032863D01*
X32123269Y17322493D01*
X32156532Y17378083D01*
X32271605Y17776273D01*
X32276563Y17808556D01*
X32305590Y19047024D01*
X32304855Y19063967D01*
X32247211Y19584921D01*
X32239040Y19617762D01*
X32045860Y20104997D01*
X32029306Y20134515D01*
X31714306Y20553432D01*
X31690545Y20577530D01*
X31276093Y20898382D01*
X31246811Y20915348D01*
X30762337Y21115352D01*
X30729614Y21123983D01*
X30209521Y21188937D01*
X30192590Y21189910D01*
X28674300Y21175653D01*
X27984365Y21247304D01*
X27334820Y21469225D01*
X26751419Y21830908D01*
X26263778Y22313990D01*
X25896638Y22893965D01*
X25668624Y23541407D01*
X25590500Y24230628D01*
X25590500Y24849752D01*
X25666828Y25531108D01*
X25889684Y26171943D01*
X26248815Y26747579D01*
X26726413Y27229479D01*
X27298808Y27593759D01*
X27937616Y27822353D01*
X28618258Y27904789D01*
X29814499Y27915517D01*
X29830972Y27916739D01*
X30539204Y28015910D01*
X30570981Y28024680D01*
X31229831Y28302790D01*
X31258281Y28319443D01*
X31823356Y28757757D01*
X31846561Y28781171D01*
X32279788Y29350154D01*
X32296185Y29378752D01*
X32568376Y30040069D01*
X32576861Y30071924D01*
X32669676Y30781017D01*
X32670750Y30797500D01*
X32670750Y32689991D01*
X32726219Y32968852D01*
X32877095Y33194655D01*
X33102898Y33345531D01*
X33369232Y33398508D01*
X33635225Y33345516D01*
G36*
X18215474Y16854702D02*
X18451716Y16688079D01*
X18608124Y16444959D01*
X18664142Y16148628D01*
X18546529Y-4903894D01*
X18451426Y-5252326D01*
X18207549Y-5494845D01*
X17875312Y-5583536D01*
X17544116Y-5494793D01*
X17301707Y-5252384D01*
X17208500Y-4904529D01*
X17208500Y16210855D01*
X17266665Y16496359D01*
X17424477Y16725587D01*
X17659387Y16874805D01*
X17934511Y16920322D01*
X18215474Y16854702D01*
X18215474Y16854702D01*
G37*
X18215474Y16854702D02*
X18451716Y16688079D01*
X18608124Y16444959D01*
X18664142Y16148628D01*
X18546529Y-4903894D01*
X18451426Y-5252326D01*
X18207549Y-5494845D01*
X17875312Y-5583536D01*
X17544116Y-5494793D01*
X17301707Y-5252384D01*
X17208500Y-4904529D01*
X17208500Y16210855D01*
X17266665Y16496359D01*
X17424477Y16725587D01*
X17659387Y16874805D01*
X17934511Y16920322D01*
X18215474Y16854702D01*
G04 #@! TO.N,/C1+*
G36*
X-8758795Y112444365D02*
X-8325314Y112223635D01*
X-7981203Y111879820D01*
X-7760104Y111446532D01*
X-7682047Y110956153D01*
X-7622316Y41363248D01*
X-7621501Y41348989D01*
X-7540833Y40640556D01*
X-7534444Y40612760D01*
X-7297723Y39940193D01*
X-7285294Y39914523D01*
X-6904458Y39311739D01*
X-6886613Y39289491D01*
X-6380869Y38786890D01*
X-6358510Y38769185D01*
X-5753363Y38392115D01*
X-5727617Y38379845D01*
X-5053587Y38147321D01*
X-5025751Y38141106D01*
X-4316829Y38064856D01*
X-4302565Y38064130D01*
X1171954Y38093563D01*
X1186090Y38094428D01*
X1888270Y38176923D01*
X1915815Y38183330D01*
X2582331Y38419169D01*
X2607775Y38431512D01*
X3205575Y38809001D01*
X3227657Y38826669D01*
X3727099Y39327089D01*
X3744724Y39349206D01*
X4121043Y39947744D01*
X4133337Y39973213D01*
X4367871Y40640189D01*
X4374223Y40667746D01*
X4455344Y41370086D01*
X4456182Y41384224D01*
X4693211Y110701849D01*
X4772486Y111192592D01*
X4994617Y111625981D01*
X5339569Y111969755D01*
X5773719Y112190405D01*
X6254733Y112266422D01*
X6735208Y112190364D01*
X7168688Y111969637D01*
X7512802Y111625820D01*
X7733903Y111192532D01*
X7811963Y110702151D01*
X7871680Y41600127D01*
X7872490Y41585916D01*
X7952616Y40879863D01*
X7958961Y40852157D01*
X8194108Y40181608D01*
X8206457Y40156007D01*
X8584845Y39554547D01*
X8602577Y39532334D01*
X9105254Y39030092D01*
X9127483Y39012378D01*
X9729269Y38634510D01*
X9754881Y38622184D01*
X10425634Y38387617D01*
X10453345Y38381296D01*
X11159466Y38301779D01*
X11173678Y38300981D01*
X16894132Y38300981D01*
X16908344Y38301779D01*
X17614470Y38381297D01*
X17642181Y38387618D01*
X18312938Y38622188D01*
X18338550Y38634514D01*
X18940338Y39012386D01*
X18962567Y39030100D01*
X19465244Y39532348D01*
X19482977Y39554562D01*
X19861364Y40156028D01*
X19873712Y40181629D01*
X20108855Y40852185D01*
X20115200Y40879891D01*
X20195321Y41585949D01*
X20196131Y41600161D01*
X20255835Y111489182D01*
X20345065Y111821248D01*
X20576068Y112052054D01*
X20891489Y112136522D01*
X21206762Y112052045D01*
X21437550Y111821259D01*
X21526504Y111489282D01*
X21526921Y38427989D01*
X21526921Y37040948D01*
X21463314Y36638123D01*
X21283248Y36283491D01*
X21002677Y36001600D01*
X20648894Y35819871D01*
X20246380Y35754374D01*
X11265019Y35712209D01*
X11250911Y35711356D01*
X10550076Y35629664D01*
X10522579Y35623302D01*
X9857092Y35388845D01*
X9831680Y35376567D01*
X9234406Y35000925D01*
X9212332Y34983337D01*
X8712769Y34485060D01*
X8695125Y34463032D01*
X8317944Y33866728D01*
X8305601Y33841347D01*
X8069429Y33176466D01*
X8062995Y33148986D01*
X7979497Y32448364D01*
X7978608Y32434259D01*
X7758810Y2212062D01*
X7684191Y1760101D01*
X7478772Y1361966D01*
X7160833Y1046330D01*
X6761214Y843812D01*
X6318729Y774059D01*
X5878031Y843940D01*
X5480622Y1046701D01*
X5165434Y1362459D01*
X4963391Y1760229D01*
X4892745Y2211007D01*
X4947343Y32486186D01*
X4946582Y32500299D01*
X4869450Y33201631D01*
X4863267Y33229167D01*
X4633153Y33896147D01*
X4621041Y33921639D01*
X4249307Y34521330D01*
X4231864Y34543517D01*
X3736869Y35046304D01*
X3714957Y35064090D01*
X3121145Y35445144D01*
X3095846Y35457653D01*
X2432541Y35698157D01*
X2405104Y35704770D01*
X1705063Y35792845D01*
X1690964Y35793826D01*
X-4277351Y35876284D01*
X-4291670Y35875673D01*
X-5003641Y35804886D01*
X-5031619Y35798864D01*
X-5709662Y35570454D01*
X-5735582Y35558320D01*
X-6345265Y35183887D01*
X-6367809Y35166257D01*
X-6878170Y34664815D01*
X-6896195Y34642585D01*
X-7281319Y34039598D01*
X-7293908Y34013896D01*
X-7534236Y33339985D01*
X-7540751Y33312117D01*
X-7624079Y32601505D01*
X-7624942Y32587199D01*
X-7743485Y1519887D01*
X-7837986Y1171638D01*
X-8081400Y929153D01*
X-8445862Y831743D01*
X-8812459Y735000D01*
X-8927612Y735000D01*
X-9000000Y749399D01*
X-9072388Y735000D01*
X-9286783Y692354D01*
X-9529905Y529905D01*
X-9692354Y286783D01*
X-9749399Y0D01*
X-9735000Y-72388D01*
X-9734999Y-4670598D01*
X-9745087Y-4680672D01*
X-10034308Y-4762527D01*
X-10315681Y-4692398D01*
X-10522207Y-4489923D01*
X-10602287Y-4193753D01*
X-10545548Y32543653D01*
X-10546338Y32557992D01*
X-10626177Y33270448D01*
X-10632568Y33298404D01*
X-10870217Y33974786D01*
X-10882716Y34000595D01*
X-11266057Y34606415D01*
X-11284029Y34628762D01*
X-11793518Y35133133D01*
X-11816045Y35150878D01*
X-12425704Y35528084D01*
X-12451638Y35540322D01*
X-13130384Y35771131D01*
X-13158402Y35777239D01*
X-13871628Y35849883D01*
X-13885975Y35850528D01*
X-19400773Y35786338D01*
X-19414785Y35785399D01*
X-20104773Y35700610D01*
X-20132059Y35694137D01*
X-20786617Y35459989D01*
X-20811817Y35447686D01*
X-21399031Y35075595D01*
X-21420917Y35058062D01*
X-21912154Y34566170D01*
X-21929659Y34544261D01*
X-22300969Y33956553D01*
X-22313238Y33931336D01*
X-22546515Y33276467D01*
X-22552951Y33249172D01*
X-22636822Y32559072D01*
X-22637743Y32545059D01*
X-22659542Y30430573D01*
X-22659057Y30418093D01*
X-22604191Y29796772D01*
X-22599566Y29772255D01*
X-22424289Y29173650D01*
X-22414959Y29150510D01*
X-22126035Y28597723D01*
X-22119713Y28586952D01*
X-21979199Y28372484D01*
X-21697168Y27831849D01*
X-21528963Y27252319D01*
X-21477719Y26644699D01*
X-21576552Y20072245D01*
X-21701984Y19247492D01*
X-22044221Y18486670D01*
X-22046948Y18482307D01*
X-22055442Y18466267D01*
X-22407027Y17669433D01*
X-22416773Y17634554D01*
X-22529163Y16770885D01*
X-22530213Y16752762D01*
X-22253727Y-3486035D01*
X-22315023Y-4001418D01*
X-22505556Y-4475073D01*
X-22813123Y-4882583D01*
X-23216387Y-5195683D01*
X-23687397Y-5392668D01*
X-24193604Y-5459898D01*
X-24703935Y-5392948D01*
X-25179823Y-5196591D01*
X-25588962Y-4884124D01*
X-25903655Y-4476703D01*
X-26102613Y-4001891D01*
X-26173498Y-3483541D01*
X-26282340Y16434451D01*
X-26200495Y16864003D01*
X-25969256Y17220228D01*
X-25620553Y17462669D01*
X-25193824Y17558119D01*
X-24959207Y17564293D01*
X-24939287Y17566397D01*
X-24360368Y17674253D01*
X-24322746Y17687650D01*
X-23805946Y17969956D01*
X-23774344Y17994374D01*
X-23370765Y18423213D01*
X-23358231Y18438836D01*
X-23353218Y18446208D01*
X-23346794Y18456716D01*
X-23051849Y18996389D01*
X-23042198Y19019017D01*
X-22856831Y19605429D01*
X-22851723Y19629493D01*
X-22782891Y20240642D01*
X-22782108Y20252932D01*
X-22683816Y26740189D01*
X-22684573Y26756098D01*
X-22750397Y27350203D01*
X-22757826Y27381115D01*
X-22969139Y27940257D01*
X-22984012Y27968356D01*
X-23327574Y28457496D01*
X-23347137Y28479431D01*
X-23800592Y28882407D01*
X-23822557Y28898090D01*
X-24350926Y29196147D01*
X-24375708Y29206834D01*
X-24955127Y29386513D01*
X-24968229Y29389824D01*
X-29250674Y30232272D01*
X-29916631Y30444101D01*
X-30511418Y30796927D01*
X-31011332Y31274786D01*
X-31390616Y31853056D01*
X-31629744Y32501962D01*
X-31717304Y33195290D01*
X-31718259Y33275512D01*
X-31719525Y33291950D01*
X-31818363Y33984235D01*
X-31827194Y34015931D01*
X-32100563Y34659589D01*
X-32117240Y34687954D01*
X-32546792Y35239780D01*
X-32570197Y35262907D01*
X-33127098Y35685860D01*
X-33155659Y35702199D01*
X-33802526Y35967887D01*
X-33834325Y35976340D01*
X-34527737Y36066930D01*
X-34544189Y36068000D01*
X-35020250Y36068000D01*
X-35034470Y36067201D01*
X-35733909Y35988393D01*
X-35761634Y35982065D01*
X-36426000Y35749593D01*
X-36451623Y35737254D01*
X-37047602Y35362776D01*
X-37069837Y35345045D01*
X-37567545Y34847337D01*
X-37585276Y34825102D01*
X-37959754Y34229123D01*
X-37972093Y34203500D01*
X-38204565Y33539134D01*
X-38210893Y33511409D01*
X-38289701Y32811970D01*
X-38290500Y32797750D01*
X-38290500Y-3641048D01*
X-38374309Y-4171527D01*
X-38613002Y-4641338D01*
X-38984898Y-5014677D01*
X-39453779Y-5255187D01*
X-39973954Y-5339435D01*
X-40494407Y-5259189D01*
X-40964683Y-5022262D01*
X-41338898Y-4651775D01*
X-41580522Y-4183895D01*
X-41667612Y-3654315D01*
X-41890315Y32615508D01*
X-41891204Y32629747D01*
X-41975428Y33336957D01*
X-41981949Y33364689D01*
X-42221693Y34035332D01*
X-42234231Y34060913D01*
X-42617430Y34661244D01*
X-42635354Y34683386D01*
X-43142727Y35183198D01*
X-43165136Y35200788D01*
X-43771154Y35574930D01*
X-43796921Y35587083D01*
X-44471088Y35816730D01*
X-44498915Y35822833D01*
X-45207310Y35896428D01*
X-45221560Y35897103D01*
X-50276779Y35852234D01*
X-50290855Y35851326D01*
X-50989978Y35767027D01*
X-51017397Y35760574D01*
X-51680744Y35524244D01*
X-51706066Y35511907D01*
X-52301004Y35135173D01*
X-52322983Y35117558D01*
X-52820248Y34618952D01*
X-52837805Y34596924D01*
X-53212934Y34000973D01*
X-53225203Y33975619D01*
X-53459745Y33311638D01*
X-53466123Y33284202D01*
X-53548539Y32584854D01*
X-53549410Y32570775D01*
X-53773249Y-3640547D01*
X-53860287Y-4170963D01*
X-54101766Y-4639866D01*
X-54475873Y-5011667D01*
X-54946257Y-5250242D01*
X-55467202Y-5332422D01*
X-55986385Y-5250108D01*
X-56454604Y-5011264D01*
X-56825985Y-4639305D01*
X-57064101Y-4170716D01*
X-57147169Y-3641446D01*
X-57091025Y32453844D01*
X-57091803Y32468079D01*
X-57170464Y33175394D01*
X-57176762Y33203156D01*
X-57410992Y33875182D01*
X-57423315Y33900844D01*
X-57801347Y34503815D01*
X-57819076Y34526087D01*
X-58321915Y35029709D01*
X-58344159Y35047472D01*
X-58946541Y35426441D01*
X-58972184Y35438804D01*
X-59643845Y35674079D01*
X-59671596Y35680420D01*
X-60378787Y35760181D01*
X-60393021Y35760981D01*
X-62725069Y35760981D01*
X-63125434Y35840619D01*
X-63454240Y36060320D01*
X-63673941Y36389126D01*
X-63751095Y36777004D01*
X-63673978Y37165421D01*
X-63454315Y37494934D01*
X-63125430Y37715538D01*
X-62724735Y37796283D01*
X-60246148Y37803364D01*
X-60231972Y37804198D01*
X-59527711Y37885356D01*
X-59500079Y37891727D01*
X-58831382Y38127126D01*
X-58805853Y38139469D01*
X-58206057Y38517376D01*
X-58183902Y38535076D01*
X-57682909Y39036650D01*
X-57665235Y39058825D01*
X-57288023Y39659058D01*
X-57275709Y39684602D01*
X-57041084Y40353572D01*
X-57034745Y40381211D01*
X-56954404Y41085565D01*
X-56953586Y41099742D01*
X-56835267Y110765485D01*
X-56759989Y111236983D01*
X-56547666Y111653349D01*
X-56217372Y111984026D01*
X-55801251Y112196831D01*
X-55339833Y112271050D01*
X-54878811Y112199407D01*
X-54462492Y111988864D01*
X-54131573Y111660014D01*
X-53918426Y111245026D01*
X-53842282Y110774502D01*
X-53604497Y41122514D01*
X-53603651Y41108303D01*
X-53521693Y40402321D01*
X-53515274Y40374626D01*
X-53278328Y39704563D01*
X-53265910Y39678989D01*
X-52885849Y39078421D01*
X-52868054Y39056251D01*
X-52363924Y38555272D01*
X-52341642Y38537616D01*
X-51738702Y38161329D01*
X-51713051Y38149071D01*
X-51041515Y37916332D01*
X-51013781Y37910088D01*
X-50307299Y37832558D01*
X-50293082Y37831801D01*
X-45188889Y37846385D01*
X-45174736Y37847216D01*
X-44471604Y37928113D01*
X-44444015Y37934464D01*
X-43776275Y38169116D01*
X-43750778Y38181421D01*
X-43151612Y38558168D01*
X-43129474Y38575815D01*
X-42628656Y39075935D01*
X-42610978Y39098048D01*
X-42233396Y39696687D01*
X-42221056Y39722167D01*
X-41985472Y40389579D01*
X-41979083Y40417159D01*
X-41897205Y41120177D01*
X-41896353Y41134329D01*
X-41599968Y110828973D01*
X-41517193Y111340455D01*
X-41285815Y111792787D01*
X-40926620Y112152120D01*
X-40474376Y112383674D01*
X-39972928Y112465024D01*
X-39473149Y112388135D01*
X-39021744Y112160412D01*
X-38662952Y111804198D01*
X-38431985Y111354452D01*
X-38349893Y110845303D01*
X-38170894Y41199852D01*
X-38170051Y41185574D01*
X-38087945Y40476312D01*
X-38081492Y40448490D01*
X-37842974Y39775509D01*
X-37830467Y39749834D01*
X-37447599Y39147168D01*
X-37429671Y39124936D01*
X-36921814Y38623063D01*
X-36899371Y38605399D01*
X-36292210Y38229699D01*
X-36266388Y38217498D01*
X-35590627Y37986972D01*
X-35562731Y37980848D01*
X-34852546Y37907153D01*
X-34838259Y37906480D01*
X-29689618Y37954266D01*
X-29675483Y37955188D01*
X-28973468Y38040463D01*
X-28945942Y38046980D01*
X-28280215Y38285528D01*
X-28254814Y38297976D01*
X-27658402Y38677964D01*
X-27636387Y38695726D01*
X-27138879Y39198302D01*
X-27121341Y39220496D01*
X-26747417Y39820728D01*
X-26735227Y39846253D01*
X-26503437Y40514363D01*
X-26497199Y40541954D01*
X-26419043Y41244798D01*
X-26418265Y41258942D01*
X-26477418Y110586027D01*
X-26387765Y111153903D01*
X-26131259Y111657057D01*
X-25731537Y112056039D01*
X-25227909Y112311613D01*
X-24669836Y112398659D01*
X-24110310Y112308740D01*
X-23605681Y112050741D01*
X-23205122Y111649785D01*
X-22947623Y111144902D01*
X-22856658Y110575272D01*
X-22738001Y41459203D01*
X-22737183Y41445032D01*
X-22656897Y40740976D01*
X-22650563Y40713348D01*
X-22416123Y40044635D01*
X-22403819Y40019100D01*
X-22026902Y39419040D01*
X-22009241Y39396870D01*
X-21508622Y38895352D01*
X-21486484Y38877651D01*
X-20887100Y38499657D01*
X-20861587Y38487307D01*
X-20193296Y38251667D01*
X-20165679Y38245284D01*
X-19461769Y38163735D01*
X-19447600Y38162892D01*
X-14140212Y38144256D01*
X-14125962Y38145007D01*
X-13417825Y38222435D01*
X-13390026Y38228691D01*
X-12716976Y38462048D01*
X-12691271Y38474343D01*
X-12087187Y38851881D01*
X-12064870Y38869598D01*
X-11560163Y39372313D01*
X-11542358Y39394559D01*
X-11162433Y39997145D01*
X-11150036Y40022802D01*
X-10914019Y40694924D01*
X-10907654Y40722698D01*
X-10827426Y41430523D01*
X-10826618Y41444770D01*
X-10795751Y110956205D01*
X-10717892Y111446522D01*
X-10496959Y111879794D01*
X-10152982Y112223618D01*
X-9719614Y112444358D01*
X-9239247Y112520418D01*
X-8758795Y112444365D01*
X-8758795Y112444365D01*
G37*
X-8758795Y112444365D02*
X-8325314Y112223635D01*
X-7981203Y111879820D01*
X-7760104Y111446532D01*
X-7682047Y110956153D01*
X-7622316Y41363248D01*
X-7621501Y41348989D01*
X-7540833Y40640556D01*
X-7534444Y40612760D01*
X-7297723Y39940193D01*
X-7285294Y39914523D01*
X-6904458Y39311739D01*
X-6886613Y39289491D01*
X-6380869Y38786890D01*
X-6358510Y38769185D01*
X-5753363Y38392115D01*
X-5727617Y38379845D01*
X-5053587Y38147321D01*
X-5025751Y38141106D01*
X-4316829Y38064856D01*
X-4302565Y38064130D01*
X1171954Y38093563D01*
X1186090Y38094428D01*
X1888270Y38176923D01*
X1915815Y38183330D01*
X2582331Y38419169D01*
X2607775Y38431512D01*
X3205575Y38809001D01*
X3227657Y38826669D01*
X3727099Y39327089D01*
X3744724Y39349206D01*
X4121043Y39947744D01*
X4133337Y39973213D01*
X4367871Y40640189D01*
X4374223Y40667746D01*
X4455344Y41370086D01*
X4456182Y41384224D01*
X4693211Y110701849D01*
X4772486Y111192592D01*
X4994617Y111625981D01*
X5339569Y111969755D01*
X5773719Y112190405D01*
X6254733Y112266422D01*
X6735208Y112190364D01*
X7168688Y111969637D01*
X7512802Y111625820D01*
X7733903Y111192532D01*
X7811963Y110702151D01*
X7871680Y41600127D01*
X7872490Y41585916D01*
X7952616Y40879863D01*
X7958961Y40852157D01*
X8194108Y40181608D01*
X8206457Y40156007D01*
X8584845Y39554547D01*
X8602577Y39532334D01*
X9105254Y39030092D01*
X9127483Y39012378D01*
X9729269Y38634510D01*
X9754881Y38622184D01*
X10425634Y38387617D01*
X10453345Y38381296D01*
X11159466Y38301779D01*
X11173678Y38300981D01*
X16894132Y38300981D01*
X16908344Y38301779D01*
X17614470Y38381297D01*
X17642181Y38387618D01*
X18312938Y38622188D01*
X18338550Y38634514D01*
X18940338Y39012386D01*
X18962567Y39030100D01*
X19465244Y39532348D01*
X19482977Y39554562D01*
X19861364Y40156028D01*
X19873712Y40181629D01*
X20108855Y40852185D01*
X20115200Y40879891D01*
X20195321Y41585949D01*
X20196131Y41600161D01*
X20255835Y111489182D01*
X20345065Y111821248D01*
X20576068Y112052054D01*
X20891489Y112136522D01*
X21206762Y112052045D01*
X21437550Y111821259D01*
X21526504Y111489282D01*
X21526921Y38427989D01*
X21526921Y37040948D01*
X21463314Y36638123D01*
X21283248Y36283491D01*
X21002677Y36001600D01*
X20648894Y35819871D01*
X20246380Y35754374D01*
X11265019Y35712209D01*
X11250911Y35711356D01*
X10550076Y35629664D01*
X10522579Y35623302D01*
X9857092Y35388845D01*
X9831680Y35376567D01*
X9234406Y35000925D01*
X9212332Y34983337D01*
X8712769Y34485060D01*
X8695125Y34463032D01*
X8317944Y33866728D01*
X8305601Y33841347D01*
X8069429Y33176466D01*
X8062995Y33148986D01*
X7979497Y32448364D01*
X7978608Y32434259D01*
X7758810Y2212062D01*
X7684191Y1760101D01*
X7478772Y1361966D01*
X7160833Y1046330D01*
X6761214Y843812D01*
X6318729Y774059D01*
X5878031Y843940D01*
X5480622Y1046701D01*
X5165434Y1362459D01*
X4963391Y1760229D01*
X4892745Y2211007D01*
X4947343Y32486186D01*
X4946582Y32500299D01*
X4869450Y33201631D01*
X4863267Y33229167D01*
X4633153Y33896147D01*
X4621041Y33921639D01*
X4249307Y34521330D01*
X4231864Y34543517D01*
X3736869Y35046304D01*
X3714957Y35064090D01*
X3121145Y35445144D01*
X3095846Y35457653D01*
X2432541Y35698157D01*
X2405104Y35704770D01*
X1705063Y35792845D01*
X1690964Y35793826D01*
X-4277351Y35876284D01*
X-4291670Y35875673D01*
X-5003641Y35804886D01*
X-5031619Y35798864D01*
X-5709662Y35570454D01*
X-5735582Y35558320D01*
X-6345265Y35183887D01*
X-6367809Y35166257D01*
X-6878170Y34664815D01*
X-6896195Y34642585D01*
X-7281319Y34039598D01*
X-7293908Y34013896D01*
X-7534236Y33339985D01*
X-7540751Y33312117D01*
X-7624079Y32601505D01*
X-7624942Y32587199D01*
X-7743485Y1519887D01*
X-7837986Y1171638D01*
X-8081400Y929153D01*
X-8445862Y831743D01*
X-8812459Y735000D01*
X-8927612Y735000D01*
X-9000000Y749399D01*
X-9072388Y735000D01*
X-9286783Y692354D01*
X-9529905Y529905D01*
X-9692354Y286783D01*
X-9749399Y0D01*
X-9735000Y-72388D01*
X-9734999Y-4670598D01*
X-9745087Y-4680672D01*
X-10034308Y-4762527D01*
X-10315681Y-4692398D01*
X-10522207Y-4489923D01*
X-10602287Y-4193753D01*
X-10545548Y32543653D01*
X-10546338Y32557992D01*
X-10626177Y33270448D01*
X-10632568Y33298404D01*
X-10870217Y33974786D01*
X-10882716Y34000595D01*
X-11266057Y34606415D01*
X-11284029Y34628762D01*
X-11793518Y35133133D01*
X-11816045Y35150878D01*
X-12425704Y35528084D01*
X-12451638Y35540322D01*
X-13130384Y35771131D01*
X-13158402Y35777239D01*
X-13871628Y35849883D01*
X-13885975Y35850528D01*
X-19400773Y35786338D01*
X-19414785Y35785399D01*
X-20104773Y35700610D01*
X-20132059Y35694137D01*
X-20786617Y35459989D01*
X-20811817Y35447686D01*
X-21399031Y35075595D01*
X-21420917Y35058062D01*
X-21912154Y34566170D01*
X-21929659Y34544261D01*
X-22300969Y33956553D01*
X-22313238Y33931336D01*
X-22546515Y33276467D01*
X-22552951Y33249172D01*
X-22636822Y32559072D01*
X-22637743Y32545059D01*
X-22659542Y30430573D01*
X-22659057Y30418093D01*
X-22604191Y29796772D01*
X-22599566Y29772255D01*
X-22424289Y29173650D01*
X-22414959Y29150510D01*
X-22126035Y28597723D01*
X-22119713Y28586952D01*
X-21979199Y28372484D01*
X-21697168Y27831849D01*
X-21528963Y27252319D01*
X-21477719Y26644699D01*
X-21576552Y20072245D01*
X-21701984Y19247492D01*
X-22044221Y18486670D01*
X-22046948Y18482307D01*
X-22055442Y18466267D01*
X-22407027Y17669433D01*
X-22416773Y17634554D01*
X-22529163Y16770885D01*
X-22530213Y16752762D01*
X-22253727Y-3486035D01*
X-22315023Y-4001418D01*
X-22505556Y-4475073D01*
X-22813123Y-4882583D01*
X-23216387Y-5195683D01*
X-23687397Y-5392668D01*
X-24193604Y-5459898D01*
X-24703935Y-5392948D01*
X-25179823Y-5196591D01*
X-25588962Y-4884124D01*
X-25903655Y-4476703D01*
X-26102613Y-4001891D01*
X-26173498Y-3483541D01*
X-26282340Y16434451D01*
X-26200495Y16864003D01*
X-25969256Y17220228D01*
X-25620553Y17462669D01*
X-25193824Y17558119D01*
X-24959207Y17564293D01*
X-24939287Y17566397D01*
X-24360368Y17674253D01*
X-24322746Y17687650D01*
X-23805946Y17969956D01*
X-23774344Y17994374D01*
X-23370765Y18423213D01*
X-23358231Y18438836D01*
X-23353218Y18446208D01*
X-23346794Y18456716D01*
X-23051849Y18996389D01*
X-23042198Y19019017D01*
X-22856831Y19605429D01*
X-22851723Y19629493D01*
X-22782891Y20240642D01*
X-22782108Y20252932D01*
X-22683816Y26740189D01*
X-22684573Y26756098D01*
X-22750397Y27350203D01*
X-22757826Y27381115D01*
X-22969139Y27940257D01*
X-22984012Y27968356D01*
X-23327574Y28457496D01*
X-23347137Y28479431D01*
X-23800592Y28882407D01*
X-23822557Y28898090D01*
X-24350926Y29196147D01*
X-24375708Y29206834D01*
X-24955127Y29386513D01*
X-24968229Y29389824D01*
X-29250674Y30232272D01*
X-29916631Y30444101D01*
X-30511418Y30796927D01*
X-31011332Y31274786D01*
X-31390616Y31853056D01*
X-31629744Y32501962D01*
X-31717304Y33195290D01*
X-31718259Y33275512D01*
X-31719525Y33291950D01*
X-31818363Y33984235D01*
X-31827194Y34015931D01*
X-32100563Y34659589D01*
X-32117240Y34687954D01*
X-32546792Y35239780D01*
X-32570197Y35262907D01*
X-33127098Y35685860D01*
X-33155659Y35702199D01*
X-33802526Y35967887D01*
X-33834325Y35976340D01*
X-34527737Y36066930D01*
X-34544189Y36068000D01*
X-35020250Y36068000D01*
X-35034470Y36067201D01*
X-35733909Y35988393D01*
X-35761634Y35982065D01*
X-36426000Y35749593D01*
X-36451623Y35737254D01*
X-37047602Y35362776D01*
X-37069837Y35345045D01*
X-37567545Y34847337D01*
X-37585276Y34825102D01*
X-37959754Y34229123D01*
X-37972093Y34203500D01*
X-38204565Y33539134D01*
X-38210893Y33511409D01*
X-38289701Y32811970D01*
X-38290500Y32797750D01*
X-38290500Y-3641048D01*
X-38374309Y-4171527D01*
X-38613002Y-4641338D01*
X-38984898Y-5014677D01*
X-39453779Y-5255187D01*
X-39973954Y-5339435D01*
X-40494407Y-5259189D01*
X-40964683Y-5022262D01*
X-41338898Y-4651775D01*
X-41580522Y-4183895D01*
X-41667612Y-3654315D01*
X-41890315Y32615508D01*
X-41891204Y32629747D01*
X-41975428Y33336957D01*
X-41981949Y33364689D01*
X-42221693Y34035332D01*
X-42234231Y34060913D01*
X-42617430Y34661244D01*
X-42635354Y34683386D01*
X-43142727Y35183198D01*
X-43165136Y35200788D01*
X-43771154Y35574930D01*
X-43796921Y35587083D01*
X-44471088Y35816730D01*
X-44498915Y35822833D01*
X-45207310Y35896428D01*
X-45221560Y35897103D01*
X-50276779Y35852234D01*
X-50290855Y35851326D01*
X-50989978Y35767027D01*
X-51017397Y35760574D01*
X-51680744Y35524244D01*
X-51706066Y35511907D01*
X-52301004Y35135173D01*
X-52322983Y35117558D01*
X-52820248Y34618952D01*
X-52837805Y34596924D01*
X-53212934Y34000973D01*
X-53225203Y33975619D01*
X-53459745Y33311638D01*
X-53466123Y33284202D01*
X-53548539Y32584854D01*
X-53549410Y32570775D01*
X-53773249Y-3640547D01*
X-53860287Y-4170963D01*
X-54101766Y-4639866D01*
X-54475873Y-5011667D01*
X-54946257Y-5250242D01*
X-55467202Y-5332422D01*
X-55986385Y-5250108D01*
X-56454604Y-5011264D01*
X-56825985Y-4639305D01*
X-57064101Y-4170716D01*
X-57147169Y-3641446D01*
X-57091025Y32453844D01*
X-57091803Y32468079D01*
X-57170464Y33175394D01*
X-57176762Y33203156D01*
X-57410992Y33875182D01*
X-57423315Y33900844D01*
X-57801347Y34503815D01*
X-57819076Y34526087D01*
X-58321915Y35029709D01*
X-58344159Y35047472D01*
X-58946541Y35426441D01*
X-58972184Y35438804D01*
X-59643845Y35674079D01*
X-59671596Y35680420D01*
X-60378787Y35760181D01*
X-60393021Y35760981D01*
X-62725069Y35760981D01*
X-63125434Y35840619D01*
X-63454240Y36060320D01*
X-63673941Y36389126D01*
X-63751095Y36777004D01*
X-63673978Y37165421D01*
X-63454315Y37494934D01*
X-63125430Y37715538D01*
X-62724735Y37796283D01*
X-60246148Y37803364D01*
X-60231972Y37804198D01*
X-59527711Y37885356D01*
X-59500079Y37891727D01*
X-58831382Y38127126D01*
X-58805853Y38139469D01*
X-58206057Y38517376D01*
X-58183902Y38535076D01*
X-57682909Y39036650D01*
X-57665235Y39058825D01*
X-57288023Y39659058D01*
X-57275709Y39684602D01*
X-57041084Y40353572D01*
X-57034745Y40381211D01*
X-56954404Y41085565D01*
X-56953586Y41099742D01*
X-56835267Y110765485D01*
X-56759989Y111236983D01*
X-56547666Y111653349D01*
X-56217372Y111984026D01*
X-55801251Y112196831D01*
X-55339833Y112271050D01*
X-54878811Y112199407D01*
X-54462492Y111988864D01*
X-54131573Y111660014D01*
X-53918426Y111245026D01*
X-53842282Y110774502D01*
X-53604497Y41122514D01*
X-53603651Y41108303D01*
X-53521693Y40402321D01*
X-53515274Y40374626D01*
X-53278328Y39704563D01*
X-53265910Y39678989D01*
X-52885849Y39078421D01*
X-52868054Y39056251D01*
X-52363924Y38555272D01*
X-52341642Y38537616D01*
X-51738702Y38161329D01*
X-51713051Y38149071D01*
X-51041515Y37916332D01*
X-51013781Y37910088D01*
X-50307299Y37832558D01*
X-50293082Y37831801D01*
X-45188889Y37846385D01*
X-45174736Y37847216D01*
X-44471604Y37928113D01*
X-44444015Y37934464D01*
X-43776275Y38169116D01*
X-43750778Y38181421D01*
X-43151612Y38558168D01*
X-43129474Y38575815D01*
X-42628656Y39075935D01*
X-42610978Y39098048D01*
X-42233396Y39696687D01*
X-42221056Y39722167D01*
X-41985472Y40389579D01*
X-41979083Y40417159D01*
X-41897205Y41120177D01*
X-41896353Y41134329D01*
X-41599968Y110828973D01*
X-41517193Y111340455D01*
X-41285815Y111792787D01*
X-40926620Y112152120D01*
X-40474376Y112383674D01*
X-39972928Y112465024D01*
X-39473149Y112388135D01*
X-39021744Y112160412D01*
X-38662952Y111804198D01*
X-38431985Y111354452D01*
X-38349893Y110845303D01*
X-38170894Y41199852D01*
X-38170051Y41185574D01*
X-38087945Y40476312D01*
X-38081492Y40448490D01*
X-37842974Y39775509D01*
X-37830467Y39749834D01*
X-37447599Y39147168D01*
X-37429671Y39124936D01*
X-36921814Y38623063D01*
X-36899371Y38605399D01*
X-36292210Y38229699D01*
X-36266388Y38217498D01*
X-35590627Y37986972D01*
X-35562731Y37980848D01*
X-34852546Y37907153D01*
X-34838259Y37906480D01*
X-29689618Y37954266D01*
X-29675483Y37955188D01*
X-28973468Y38040463D01*
X-28945942Y38046980D01*
X-28280215Y38285528D01*
X-28254814Y38297976D01*
X-27658402Y38677964D01*
X-27636387Y38695726D01*
X-27138879Y39198302D01*
X-27121341Y39220496D01*
X-26747417Y39820728D01*
X-26735227Y39846253D01*
X-26503437Y40514363D01*
X-26497199Y40541954D01*
X-26419043Y41244798D01*
X-26418265Y41258942D01*
X-26477418Y110586027D01*
X-26387765Y111153903D01*
X-26131259Y111657057D01*
X-25731537Y112056039D01*
X-25227909Y112311613D01*
X-24669836Y112398659D01*
X-24110310Y112308740D01*
X-23605681Y112050741D01*
X-23205122Y111649785D01*
X-22947623Y111144902D01*
X-22856658Y110575272D01*
X-22738001Y41459203D01*
X-22737183Y41445032D01*
X-22656897Y40740976D01*
X-22650563Y40713348D01*
X-22416123Y40044635D01*
X-22403819Y40019100D01*
X-22026902Y39419040D01*
X-22009241Y39396870D01*
X-21508622Y38895352D01*
X-21486484Y38877651D01*
X-20887100Y38499657D01*
X-20861587Y38487307D01*
X-20193296Y38251667D01*
X-20165679Y38245284D01*
X-19461769Y38163735D01*
X-19447600Y38162892D01*
X-14140212Y38144256D01*
X-14125962Y38145007D01*
X-13417825Y38222435D01*
X-13390026Y38228691D01*
X-12716976Y38462048D01*
X-12691271Y38474343D01*
X-12087187Y38851881D01*
X-12064870Y38869598D01*
X-11560163Y39372313D01*
X-11542358Y39394559D01*
X-11162433Y39997145D01*
X-11150036Y40022802D01*
X-10914019Y40694924D01*
X-10907654Y40722698D01*
X-10827426Y41430523D01*
X-10826618Y41444770D01*
X-10795751Y110956205D01*
X-10717892Y111446522D01*
X-10496959Y111879794D01*
X-10152982Y112223618D01*
X-9719614Y112444358D01*
X-9239247Y112520418D01*
X-8758795Y112444365D01*
G04 #@! TO.N,/C1-*
G36*
X-32960989Y28866962D02*
X-32733014Y28636440D01*
X-32647645Y28305618D01*
X-32755106Y18634124D01*
X-32752909Y18609150D01*
X-32682273Y18235043D01*
X-32663564Y18188787D01*
X-32454263Y17870764D01*
X-32419180Y17835285D01*
X-32103522Y17622435D01*
X-32057478Y17603210D01*
X-31684186Y17528388D01*
X-31683963Y17528343D01*
X-31333252Y17458701D01*
X-31056698Y17274380D01*
X-30871501Y16998411D01*
X-30803218Y16660155D01*
X-30739414Y-2911406D01*
X-30813994Y-3391399D01*
X-31028950Y-3815664D01*
X-31364710Y-4152520D01*
X-31788267Y-4368855D01*
X-32258045Y-4443417D01*
X-32729286Y-4368962D01*
X-33154660Y-4152830D01*
X-33492680Y-3816084D01*
X-33710416Y-3391528D01*
X-33788269Y-2910563D01*
X-33906063Y28304725D01*
X-33818330Y28636315D01*
X-33588498Y28867016D01*
X-33274079Y28951476D01*
X-32960989Y28866962D01*
X-32960989Y28866962D01*
G37*
X-32960989Y28866962D02*
X-32733014Y28636440D01*
X-32647645Y28305618D01*
X-32755106Y18634124D01*
X-32752909Y18609150D01*
X-32682273Y18235043D01*
X-32663564Y18188787D01*
X-32454263Y17870764D01*
X-32419180Y17835285D01*
X-32103522Y17622435D01*
X-32057478Y17603210D01*
X-31684186Y17528388D01*
X-31683963Y17528343D01*
X-31333252Y17458701D01*
X-31056698Y17274380D01*
X-30871501Y16998411D01*
X-30803218Y16660155D01*
X-30739414Y-2911406D01*
X-30813994Y-3391399D01*
X-31028950Y-3815664D01*
X-31364710Y-4152520D01*
X-31788267Y-4368855D01*
X-32258045Y-4443417D01*
X-32729286Y-4368962D01*
X-33154660Y-4152830D01*
X-33492680Y-3816084D01*
X-33710416Y-3391528D01*
X-33788269Y-2910563D01*
X-33906063Y28304725D01*
X-33818330Y28636315D01*
X-33588498Y28867016D01*
X-33274079Y28951476D01*
X-32960989Y28866962D01*
G36*
X63778Y1227000D02*
X-3238221Y1227000D01*
X-3175239Y34671000D01*
X126760Y34671000D01*
X63778Y1227000D01*
X63778Y1227000D01*
G37*
X63778Y1227000D02*
X-3238221Y1227000D01*
X-3175239Y34671000D01*
X126760Y34671000D01*
X63778Y1227000D01*
G36*
X13906735Y1077551D02*
X12235240Y1051651D01*
X12192164Y34544000D01*
X13969760Y34544000D01*
X13906735Y1077551D01*
X13906735Y1077551D01*
G37*
X13906735Y1077551D02*
X12235240Y1051651D01*
X12192164Y34544000D01*
X13969760Y34544000D01*
X13906735Y1077551D01*
G36*
X-15303296Y-4508500D02*
X-18605295Y-4508500D01*
X-18542204Y34613001D01*
X-15240205Y34613001D01*
X-15303296Y-4508500D01*
X-15303296Y-4508500D01*
G37*
X-15303296Y-4508500D02*
X-18605295Y-4508500D01*
X-18542204Y34613001D01*
X-15240205Y34613001D01*
X-15303296Y-4508500D01*
G36*
X-45847207Y-4381500D02*
X-49466293Y-4381500D01*
X-49403206Y34417000D01*
X-45910294Y34417000D01*
X-45847207Y-4381500D01*
X-45847207Y-4381500D01*
G37*
X-45847207Y-4381500D02*
X-49466293Y-4381500D01*
X-49403206Y34417000D01*
X-45910294Y34417000D01*
X-45847207Y-4381500D01*
G36*
X-61341000Y-4572000D02*
X-63627000Y-4572000D01*
X-63627000Y34417000D01*
X-61341000Y34417000D01*
X-61341000Y-4572000D01*
X-61341000Y-4572000D01*
G37*
X-61341000Y-4572000D02*
X-63627000Y-4572000D01*
X-63627000Y34417000D01*
X-61341000Y34417000D01*
X-61341000Y-4572000D01*
G36*
X15811387Y39181673D02*
X12319109Y39240864D01*
X12382389Y111760000D01*
X15748111Y111760000D01*
X15811387Y39181673D01*
X15811387Y39181673D01*
G37*
X15811387Y39181673D02*
X12319109Y39240864D01*
X12382389Y111760000D01*
X15748111Y111760000D01*
X15811387Y39181673D01*
G36*
X254111Y39116000D02*
X-3238056Y39116000D01*
X-2984943Y111569500D01*
X317389Y111569500D01*
X254111Y39116000D01*
X254111Y39116000D01*
G37*
X254111Y39116000D02*
X-3238056Y39116000D01*
X-2984943Y111569500D01*
X317389Y111569500D01*
X254111Y39116000D01*
G36*
X-15239685Y39370000D02*
X-18542000Y39370000D01*
X-18542000Y111633000D01*
X-15060130Y111633000D01*
X-15239685Y39370000D01*
X-15239685Y39370000D01*
G37*
X-15239685Y39370000D02*
X-18542000Y39370000D01*
X-18542000Y111633000D01*
X-15060130Y111633000D01*
X-15239685Y39370000D01*
G36*
X-30416932Y111383110D02*
X-30670039Y39247451D01*
X-34089096Y39365681D01*
X-34036096Y111501771D01*
X-30416932Y111383110D01*
X-30416932Y111383110D01*
G37*
X-30416932Y111383110D02*
X-30670039Y39247451D01*
X-34089096Y39365681D01*
X-34036096Y111501771D01*
X-30416932Y111383110D01*
G36*
X-45973673Y39304366D02*
X-49456204Y39245177D01*
X-49466482Y111508033D01*
X-45783840Y111567430D01*
X-45973673Y39304366D01*
X-45973673Y39304366D01*
G37*
X-45973673Y39304366D02*
X-49456204Y39245177D01*
X-49466482Y111508033D01*
X-45783840Y111567430D01*
X-45973673Y39304366D01*
G36*
X-61362143Y39164191D02*
X-62928829Y39178360D01*
X-63118669Y111507115D01*
X-61500044Y111521346D01*
X-61362143Y39164191D01*
X-61362143Y39164191D01*
G37*
X-61362143Y39164191D02*
X-62928829Y39178360D01*
X-63118669Y111507115D01*
X-61500044Y111521346D01*
X-61362143Y39164191D01*
G04 #@! TD*
M02*
