G04 #@! TF.GenerationSoftware,KiCad,Pcbnew,(5.0.0)*
G04 #@! TF.CreationDate,2019-05-01T16:30:08-07:00*
G04 #@! TF.ProjectId,SSB Cap Board,5353422043617020426F6172642E6B69,rev?*
G04 #@! TF.SameCoordinates,Original*
G04 #@! TF.FileFunction,Legend,Top*
G04 #@! TF.FilePolarity,Positive*
%FSLAX46Y46*%
G04 Gerber Fmt 4.6, Leading zero omitted, Abs format (unit mm)*
G04 Created by KiCad (PCBNEW (5.0.0)) date 05/01/19 16:30:08*
%MOMM*%
%LPD*%
G01*
G04 APERTURE LIST*
%ADD10C,0.300000*%
%ADD11C,0.150000*%
G04 APERTURE END LIST*
D10*
X-5990638Y145334092D02*
X-6847780Y145332836D01*
X-6419209Y145333464D02*
X-6421408Y146833462D01*
X-6563951Y146618967D01*
X-6706598Y146475901D01*
X-6849351Y146404263D01*
X-5421200Y146692072D02*
X-5349876Y146763605D01*
X-5207124Y146835243D01*
X-4849981Y146835767D01*
X-4707019Y146764548D01*
X-4635486Y146693224D01*
X-4563848Y146550472D01*
X-4563639Y146407615D01*
X-4634753Y146193224D01*
X-5490638Y145334826D01*
X-4562068Y145336187D01*
X-3847783Y145337234D02*
X-3562069Y145337653D01*
X-3419316Y145409291D01*
X-3347993Y145480825D01*
X-3205450Y145695320D01*
X-3134440Y145981138D01*
X-3135278Y146552566D01*
X-3206916Y146695318D01*
X-3278449Y146766642D01*
X-3421411Y146837861D01*
X-3707125Y146837442D01*
X-3849877Y146765804D01*
X-3921201Y146694271D01*
X-3992420Y146551309D01*
X-3991897Y146194167D01*
X-3920259Y146051415D01*
X-3848725Y145980091D01*
X-3705764Y145908872D01*
X-3420050Y145909291D01*
X-3277297Y145980929D01*
X-3205974Y146052462D01*
X-3134755Y146195424D01*
X-2490851Y145482081D02*
X-2419318Y145410758D01*
X-2490641Y145339224D01*
X-2562175Y145410548D01*
X-2490851Y145482081D01*
X-2490641Y145339224D01*
X-1704928Y145340376D02*
X-1419214Y145340795D01*
X-1276462Y145412433D01*
X-1205138Y145483967D01*
X-1062595Y145698462D01*
X-991586Y145984280D01*
X-992423Y146555708D01*
X-1064061Y146698460D01*
X-1135595Y146769784D01*
X-1278556Y146841003D01*
X-1564270Y146840584D01*
X-1707023Y146768946D01*
X-1778346Y146697413D01*
X-1849565Y146554451D01*
X-1849042Y146197309D01*
X-1777404Y146054557D01*
X-1705870Y145983233D01*
X-1562909Y145912014D01*
X-1277195Y145912433D01*
X-1134443Y145984071D01*
X-1063119Y146055604D01*
X-991900Y146198566D01*
X-421205Y146699403D02*
X-349881Y146770936D01*
X-207129Y146842574D01*
X150013Y146843098D01*
X292974Y146771879D01*
X364508Y146700555D01*
X436145Y146557803D01*
X436355Y146414946D01*
X365241Y146200556D01*
X-490643Y145342157D01*
X437926Y145343518D01*
X1866496Y145345613D02*
X1009354Y145344356D01*
X1437925Y145344985D02*
X1435725Y146844983D01*
X1293183Y146630488D01*
X1150535Y146487422D01*
X1007783Y146415784D01*
X3652208Y145348231D02*
X3650742Y146348230D01*
X3650951Y146205373D02*
X3722275Y146276907D01*
X3865027Y146348545D01*
X4079313Y146348859D01*
X4222275Y146277640D01*
X4293913Y146134888D01*
X4295065Y145349174D01*
X4293913Y146134888D02*
X4365132Y146277849D01*
X4507884Y146349487D01*
X4722169Y146349801D01*
X4865131Y146278582D01*
X4936769Y146135830D01*
X4937921Y145350117D01*
X5652206Y145351164D02*
X5650740Y146351163D01*
X5650949Y146208306D02*
X5722273Y146279839D01*
X5865025Y146351477D01*
X6079311Y146351791D01*
X6222272Y146280572D01*
X6293910Y146137820D01*
X6295063Y145352107D01*
X6293910Y146137820D02*
X6365129Y146280782D01*
X6507882Y146352420D01*
X6722167Y146352734D01*
X6865129Y146281515D01*
X6936767Y146138763D01*
X6937919Y145353049D01*
X65043368Y144016818D02*
X-64877632Y143826318D01*
X65087500Y113919000D02*
X65042508Y144603238D01*
X-64833500Y113728500D02*
X-64878492Y144412738D01*
X-64877632Y143826318D02*
X-63751989Y144414390D01*
X-64877632Y143826318D02*
X-63750270Y143241550D01*
X65043368Y144016818D02*
X63916006Y144601586D01*
X65043368Y144016818D02*
X63917725Y143428746D01*
X39282906Y127034723D02*
X39275081Y126034754D01*
X38930245Y127608928D02*
X38564730Y126540327D01*
X39493273Y126533062D01*
X40358214Y127526324D02*
X40501067Y127525206D01*
X40643361Y127452662D01*
X40714228Y127380677D01*
X40784537Y127237265D01*
X40853727Y126951001D01*
X40850933Y126593869D01*
X40777271Y126308722D01*
X40704727Y126166428D01*
X40632742Y126095561D01*
X40489330Y126025252D01*
X40346477Y126026370D01*
X40204183Y126098914D01*
X40133316Y126170900D01*
X40063007Y126314311D01*
X39993816Y126600576D01*
X39996611Y126957708D01*
X40070273Y127242854D01*
X40142817Y127385148D01*
X40214802Y127456016D01*
X40358214Y127526324D01*
X41490417Y126160281D02*
X41561285Y126088295D01*
X41489299Y126017428D01*
X41418432Y126089413D01*
X41490417Y126160281D01*
X41489299Y126017428D01*
X42929564Y127506204D02*
X42215300Y127511793D01*
X42138285Y126798088D01*
X42210270Y126868956D01*
X42353682Y126939264D01*
X42710813Y126936470D01*
X42853107Y126863926D01*
X42923975Y126791940D01*
X42994283Y126648529D01*
X42991489Y126291397D01*
X42918945Y126149103D01*
X42846960Y126078235D01*
X42703548Y126007927D01*
X42346416Y126010721D01*
X42204122Y126083265D01*
X42133255Y126155251D01*
X43500975Y127501733D02*
X44500944Y127493908D01*
X43846370Y125998984D01*
X45281604Y126844923D02*
X45139311Y126917467D01*
X45068443Y126989453D01*
X44998134Y127132864D01*
X44998693Y127204291D01*
X45071238Y127346585D01*
X45143223Y127417452D01*
X45286634Y127487761D01*
X45572340Y127485525D01*
X45714634Y127412981D01*
X45785501Y127340996D01*
X45855810Y127197584D01*
X45855251Y127126158D01*
X45782707Y126983864D01*
X45710722Y126912996D01*
X45567310Y126842688D01*
X45281604Y126844923D01*
X45138193Y126774615D01*
X45066207Y126703747D01*
X44993663Y126561453D01*
X44991428Y126275748D01*
X45061736Y126132336D01*
X45132604Y126060351D01*
X45274898Y125987807D01*
X45560603Y125985571D01*
X45704015Y126055880D01*
X45776000Y126126747D01*
X45848544Y126269041D01*
X45850780Y126554747D01*
X45780471Y126698158D01*
X45709604Y126770143D01*
X45567310Y126842688D01*
X47631968Y125969363D02*
X47639793Y126969333D01*
X47638675Y126826480D02*
X47710660Y126897347D01*
X47854072Y126967656D01*
X48068351Y126965979D01*
X48210645Y126893435D01*
X48280954Y126750023D01*
X48274806Y125964333D01*
X48280954Y126750023D02*
X48353498Y126892317D01*
X48496910Y126962626D01*
X48711189Y126960949D01*
X48853483Y126888405D01*
X48923791Y126744993D01*
X48917643Y125959303D01*
X49631907Y125953714D02*
X49639732Y126953684D01*
X49638614Y126810831D02*
X49710599Y126881698D01*
X49854011Y126952007D01*
X50068290Y126950330D01*
X50210584Y126877786D01*
X50280892Y126734374D01*
X50274745Y125948684D01*
X50280892Y126734374D02*
X50353437Y126876668D01*
X50496848Y126946977D01*
X50711127Y126945300D01*
X50853421Y126872756D01*
X50923730Y126729344D01*
X50917582Y125943654D01*
X24475542Y124729084D02*
X65052042Y124411584D01*
X24384000Y113030000D02*
X24480131Y125315487D01*
X64960500Y112712500D02*
X65056631Y124997987D01*
X65052042Y124411584D02*
X63920984Y123833996D01*
X65052042Y124411584D02*
X63930161Y125006801D01*
X24475542Y124729084D02*
X25597423Y124133867D01*
X24475542Y124729084D02*
X25606600Y125306672D01*
D11*
G04 #@! TO.C,C864*
X54395000Y22795000D02*
X48695000Y22795000D01*
X54395000Y27795000D02*
X48695000Y27795000D01*
G04 #@! TO.C,C849*
X56405000Y27805000D02*
X62105000Y27805000D01*
X56405000Y22805000D02*
X62105000Y22805000D01*
G04 #@! TO.C,C846*
X38995000Y22795000D02*
X33295000Y22795000D01*
X38995000Y27795000D02*
X33295000Y27795000D01*
G04 #@! TO.C,C967*
X41005000Y27805000D02*
X46705000Y27805000D01*
X41005000Y22805000D02*
X46705000Y22805000D01*
G04 #@! TO.C,C343*
X-41005000Y29295000D02*
X-46705000Y29295000D01*
X-41005000Y34295000D02*
X-46705000Y34295000D01*
G04 #@! TO.C,C337*
X-8195000Y111505000D02*
X-2495000Y111505000D01*
X-8195000Y106505000D02*
X-2495000Y106505000D01*
G04 #@! TO.C,C1*
X-41005000Y50495000D02*
X-46705000Y50495000D01*
X-41005000Y55495000D02*
X-46705000Y55495000D01*
G04 #@! TO.C,C326*
X-10205000Y106495000D02*
X-15905000Y106495000D01*
X-10205000Y111495000D02*
X-15905000Y111495000D01*
G04 #@! TO.C,C273*
X-54395000Y11905000D02*
X-48695000Y11905000D01*
X-54395000Y6905000D02*
X-48695000Y6905000D01*
G04 #@! TO.C,C264*
X-8195000Y6305000D02*
X-2495000Y6305000D01*
X-8195000Y1305000D02*
X-2495000Y1305000D01*
G04 #@! TO.C,C262*
X-56405000Y23695000D02*
X-62105000Y23695000D01*
X-56405000Y28695000D02*
X-62105000Y28695000D01*
G04 #@! TO.C,C261*
X-54395000Y705000D02*
X-48695000Y705000D01*
X-54395000Y-4295000D02*
X-48695000Y-4295000D01*
G04 #@! TO.C,C260*
X-25605000Y6895000D02*
X-31305000Y6895000D01*
X-25605000Y11895000D02*
X-31305000Y11895000D01*
G04 #@! TO.C,C259*
X-40905000Y12495000D02*
X-46605000Y12495000D01*
X-40905000Y17495000D02*
X-46605000Y17495000D01*
G04 #@! TO.C,C258*
X-38995000Y23105000D02*
X-33295000Y23105000D01*
X-38995000Y18105000D02*
X-33295000Y18105000D01*
G04 #@! TO.C,C257*
X-23595000Y705000D02*
X-17895000Y705000D01*
X-23595000Y-4295000D02*
X-17895000Y-4295000D01*
G04 #@! TO.C,C255*
X5295000Y106495000D02*
X-405000Y106495000D01*
X5295000Y111495000D02*
X-405000Y111495000D01*
G04 #@! TO.C,C314*
X-56405000Y18095000D02*
X-62105000Y18095000D01*
X-56405000Y23095000D02*
X-62105000Y23095000D01*
G04 #@! TO.C,C266*
X-54395000Y6305000D02*
X-48695000Y6305000D01*
X-54395000Y1305000D02*
X-48695000Y1305000D01*
G04 #@! TO.C,C265*
X-25605000Y1295000D02*
X-31305000Y1295000D01*
X-25605000Y6295000D02*
X-31305000Y6295000D01*
G04 #@! TO.C,C311*
X-40905000Y6895000D02*
X-46605000Y6895000D01*
X-40905000Y11895000D02*
X-46605000Y11895000D01*
G04 #@! TO.C,C310*
X-38995000Y28705000D02*
X-33295000Y28705000D01*
X-38995000Y23705000D02*
X-33295000Y23705000D01*
G04 #@! TO.C,C309*
X-23595000Y6305000D02*
X-17895000Y6305000D01*
X-23595000Y1305000D02*
X-17895000Y1305000D01*
G04 #@! TO.C,C308*
X-56405000Y84095000D02*
X-62105000Y84095000D01*
X-56405000Y89095000D02*
X-62105000Y89095000D01*
G04 #@! TO.C,C304*
X-56405000Y12495000D02*
X-62105000Y12495000D01*
X-56405000Y17495000D02*
X-62105000Y17495000D01*
G04 #@! TO.C,C303*
X-23595000Y111505000D02*
X-17895000Y111505000D01*
X-23595000Y106505000D02*
X-17895000Y106505000D01*
G04 #@! TO.C,C302*
X-25605000Y-4305000D02*
X-31305000Y-4305000D01*
X-25605000Y695000D02*
X-31305000Y695000D01*
G04 #@! TO.C,C301*
X-40905000Y1295000D02*
X-46605000Y1295000D01*
X-40905000Y6295000D02*
X-46605000Y6295000D01*
G04 #@! TO.C,C283*
X-38995000Y705000D02*
X-33295000Y705000D01*
X-38995000Y-4295000D02*
X-33295000Y-4295000D01*
G04 #@! TO.C,C282*
X-56405000Y78495000D02*
X-62105000Y78495000D01*
X-56405000Y83495000D02*
X-62105000Y83495000D01*
G04 #@! TO.C,C295*
X-56405000Y6895000D02*
X-62105000Y6895000D01*
X-56405000Y11895000D02*
X-62105000Y11895000D01*
G04 #@! TO.C,C294*
X-54395000Y17505000D02*
X-48695000Y17505000D01*
X-54395000Y12505000D02*
X-48695000Y12505000D01*
G04 #@! TO.C,C293*
X-23595000Y11905000D02*
X-17895000Y11905000D01*
X-23595000Y6905000D02*
X-17895000Y6905000D01*
G04 #@! TO.C,C292*
X-10205000Y29295000D02*
X-15905000Y29295000D01*
X-10205000Y34295000D02*
X-15905000Y34295000D01*
G04 #@! TO.C,C289*
X-56405000Y72895000D02*
X-62105000Y72895000D01*
X-56405000Y77895000D02*
X-62105000Y77895000D01*
G04 #@! TO.C,C287*
X-56405000Y1295000D02*
X-62105000Y1295000D01*
X-56405000Y6295000D02*
X-62105000Y6295000D01*
G04 #@! TO.C,C286*
X-54395000Y23105000D02*
X-48695000Y23105000D01*
X-54395000Y18105000D02*
X-48695000Y18105000D01*
G04 #@! TO.C,C285*
X-23595000Y17605000D02*
X-17895000Y17605000D01*
X-23595000Y12605000D02*
X-17895000Y12605000D01*
G04 #@! TO.C,C284*
X-10211000Y23695000D02*
X-15911000Y23695000D01*
X-10211000Y28695000D02*
X-15911000Y28695000D01*
G04 #@! TO.C,C299*
X-8195000Y11905000D02*
X-2495000Y11905000D01*
X-8195000Y6905000D02*
X-2495000Y6905000D01*
G04 #@! TO.C,C298*
X7305000Y6305000D02*
X13005000Y6305000D01*
X7305000Y1305000D02*
X13005000Y1305000D01*
G04 #@! TO.C,C281*
X-56405000Y67295000D02*
X-62105000Y67295000D01*
X-56405000Y72295000D02*
X-62105000Y72295000D01*
G04 #@! TO.C,C296*
X-56405000Y-4305000D02*
X-62105000Y-4305000D01*
X-56405000Y695000D02*
X-62105000Y695000D01*
G04 #@! TO.C,C377*
X-54395000Y28705000D02*
X-48695000Y28705000D01*
X-54395000Y23705000D02*
X-48695000Y23705000D01*
G04 #@! TO.C,C399*
X-10205000Y18095000D02*
X-15905000Y18095000D01*
X-10205000Y23095000D02*
X-15905000Y23095000D01*
G04 #@! TO.C,C398*
X-8195000Y17505000D02*
X-2495000Y17505000D01*
X-8195000Y12505000D02*
X-2495000Y12505000D01*
G04 #@! TO.C,C397*
X7305000Y11905000D02*
X13005000Y11905000D01*
X7305000Y6905000D02*
X13005000Y6905000D01*
G04 #@! TO.C,C396*
X-56405000Y61695000D02*
X-62105000Y61695000D01*
X-56405000Y66695000D02*
X-62105000Y66695000D01*
G04 #@! TO.C,C395*
X-54395000Y34305000D02*
X-48695000Y34305000D01*
X-54395000Y29305000D02*
X-48695000Y29305000D01*
G04 #@! TO.C,C390*
X-10205000Y12495000D02*
X-15905000Y12495000D01*
X-10205000Y17495000D02*
X-15905000Y17495000D01*
G04 #@! TO.C,C389*
X-8195000Y23105000D02*
X-2495000Y23105000D01*
X-8195000Y18105000D02*
X-2495000Y18105000D01*
G04 #@! TO.C,C388*
X7305000Y17505000D02*
X13005000Y17505000D01*
X7305000Y12505000D02*
X13005000Y12505000D01*
G04 #@! TO.C,C387*
X-56405000Y56095000D02*
X-62105000Y56095000D01*
X-56405000Y61095000D02*
X-62105000Y61095000D01*
G04 #@! TO.C,C386*
X-23504500Y34241500D02*
X-17804500Y34241500D01*
X-23504500Y29241500D02*
X-17804500Y29241500D01*
G04 #@! TO.C,C385*
X-10205000Y6895000D02*
X-15905000Y6895000D01*
X-10205000Y11895000D02*
X-15905000Y11895000D01*
G04 #@! TO.C,C384*
X-8195000Y28705000D02*
X-2495000Y28705000D01*
X-8195000Y23705000D02*
X-2495000Y23705000D01*
G04 #@! TO.C,C383*
X7305000Y23105000D02*
X13005000Y23105000D01*
X7305000Y18105000D02*
X13005000Y18105000D01*
G04 #@! TO.C,C382*
X-56405000Y50495000D02*
X-62105000Y50495000D01*
X-56405000Y55495000D02*
X-62105000Y55495000D01*
G04 #@! TO.C,C381*
X-10205000Y1295000D02*
X-15905000Y1295000D01*
X-10205000Y6295000D02*
X-15905000Y6295000D01*
G04 #@! TO.C,C380*
X-8195000Y34305000D02*
X-2495000Y34305000D01*
X-8195000Y29305000D02*
X-2495000Y29305000D01*
G04 #@! TO.C,C379*
X7305000Y28705000D02*
X13005000Y28705000D01*
X7305000Y23705000D02*
X13005000Y23705000D01*
G04 #@! TO.C,C378*
X-56405000Y44895000D02*
X-62105000Y44895000D01*
X-56405000Y49895000D02*
X-62105000Y49895000D01*
G04 #@! TO.C,C392*
X7305000Y34305000D02*
X13005000Y34305000D01*
X7305000Y29305000D02*
X13005000Y29305000D01*
G04 #@! TO.C,C93*
X-25605000Y56095000D02*
X-31305000Y56095000D01*
X-25605000Y61095000D02*
X-31305000Y61095000D01*
G04 #@! TO.C,C92*
X-38895000Y94705000D02*
X-33195000Y94705000D01*
X-38895000Y89705000D02*
X-33195000Y89705000D01*
G04 #@! TO.C,C91*
X-41005000Y44895000D02*
X-46705000Y44895000D01*
X-41005000Y49895000D02*
X-46705000Y49895000D01*
G04 #@! TO.C,C90*
X-54395000Y105905000D02*
X-48695000Y105905000D01*
X-54395000Y100905000D02*
X-48695000Y100905000D01*
G04 #@! TO.C,C89*
X-23595000Y49905000D02*
X-17895000Y49905000D01*
X-23595000Y44905000D02*
X-17895000Y44905000D01*
G04 #@! TO.C,C88*
X-10205000Y89695000D02*
X-15905000Y89695000D01*
X-10205000Y94695000D02*
X-15905000Y94695000D01*
G04 #@! TO.C,C87*
X-8195000Y61105000D02*
X-2495000Y61105000D01*
X-8195000Y56105000D02*
X-2495000Y56105000D01*
G04 #@! TO.C,C86*
X5295000Y78495000D02*
X-405000Y78495000D01*
X5295000Y83495000D02*
X-405000Y83495000D01*
G04 #@! TO.C,C85*
X7305000Y72305000D02*
X13005000Y72305000D01*
X7305000Y67305000D02*
X13005000Y67305000D01*
G04 #@! TO.C,C84*
X20795000Y67295000D02*
X15095000Y67295000D01*
X20795000Y72295000D02*
X15095000Y72295000D01*
G04 #@! TO.C,C83*
X-25605000Y61695000D02*
X-31305000Y61695000D01*
X-25605000Y66695000D02*
X-31305000Y66695000D01*
G04 #@! TO.C,C82*
X-38895000Y89105000D02*
X-33195000Y89105000D01*
X-38895000Y84105000D02*
X-33195000Y84105000D01*
G04 #@! TO.C,C81*
X-38895000Y83505000D02*
X-33195000Y83505000D01*
X-38895000Y78505000D02*
X-33195000Y78505000D01*
G04 #@! TO.C,C80*
X20795000Y61695000D02*
X15095000Y61695000D01*
X20795000Y66695000D02*
X15095000Y66695000D01*
G04 #@! TO.C,C251*
X-38995000Y6305000D02*
X-33295000Y6305000D01*
X-38995000Y1305000D02*
X-33295000Y1305000D01*
G04 #@! TO.C,C78*
X-25605000Y67295000D02*
X-31305000Y67295000D01*
X-25605000Y72295000D02*
X-31305000Y72295000D01*
G04 #@! TO.C,C77*
X20795000Y72895000D02*
X15095000Y72895000D01*
X20795000Y77895000D02*
X15095000Y77895000D01*
G04 #@! TO.C,C76*
X7305000Y66705000D02*
X13005000Y66705000D01*
X7305000Y61705000D02*
X13005000Y61705000D01*
G04 #@! TO.C,C75*
X-41005000Y56095000D02*
X-46705000Y56095000D01*
X-41005000Y61095000D02*
X-46705000Y61095000D01*
G04 #@! TO.C,C74*
X5295000Y84095000D02*
X-405000Y84095000D01*
X5295000Y89095000D02*
X-405000Y89095000D01*
G04 #@! TO.C,C73*
X-8195000Y55505000D02*
X-2495000Y55505000D01*
X-8195000Y50505000D02*
X-2495000Y50505000D01*
G04 #@! TO.C,C72*
X-10205000Y95295000D02*
X-15905000Y95295000D01*
X-10205000Y100295000D02*
X-15905000Y100295000D01*
G04 #@! TO.C,C71*
X5295000Y1295000D02*
X-405000Y1295000D01*
X5295000Y6295000D02*
X-405000Y6295000D01*
G04 #@! TO.C,C70*
X-54395000Y100305000D02*
X-48695000Y100305000D01*
X-54395000Y95305000D02*
X-48695000Y95305000D01*
G04 #@! TO.C,C68*
X-23595000Y44305000D02*
X-17895000Y44305000D01*
X-23595000Y39305000D02*
X-17895000Y39305000D01*
G04 #@! TO.C,C252*
X-56405000Y39295000D02*
X-62105000Y39295000D01*
X-56405000Y44295000D02*
X-62105000Y44295000D01*
G04 #@! TO.C,C120*
X-41005000Y106495000D02*
X-46705000Y106495000D01*
X-41005000Y111495000D02*
X-46705000Y111495000D01*
G04 #@! TO.C,C119*
X-56405000Y100895000D02*
X-62105000Y100895000D01*
X-56405000Y105895000D02*
X-62105000Y105895000D01*
G04 #@! TO.C,C118*
X-54395000Y72305000D02*
X-48695000Y72305000D01*
X-54395000Y67305000D02*
X-48695000Y67305000D01*
G04 #@! TO.C,C108*
X5295000Y29295000D02*
X-405000Y29295000D01*
X5295000Y34295000D02*
X-405000Y34295000D01*
G04 #@! TO.C,C106*
X-41005000Y100895000D02*
X-46705000Y100895000D01*
X-41005000Y105895000D02*
X-46705000Y105895000D01*
G04 #@! TO.C,C105*
X-56405000Y89695000D02*
X-62105000Y89695000D01*
X-56405000Y94695000D02*
X-62105000Y94695000D01*
G04 #@! TO.C,C97*
X-38895000Y111505000D02*
X-33195000Y111505000D01*
X-38895000Y106505000D02*
X-33195000Y106505000D01*
G04 #@! TO.C,C96*
X-41005000Y95295000D02*
X-46705000Y95295000D01*
X-41005000Y100295000D02*
X-46705000Y100295000D01*
G04 #@! TO.C,C95*
X-54395000Y49905000D02*
X-48695000Y49905000D01*
X-54395000Y44905000D02*
X-48695000Y44905000D01*
G04 #@! TO.C,C110*
X-25605000Y106495000D02*
X-31305000Y106495000D01*
X-25605000Y111495000D02*
X-31305000Y111495000D01*
G04 #@! TO.C,C23*
X20795000Y106495000D02*
X15095000Y106495000D01*
X20795000Y111495000D02*
X15095000Y111495000D01*
G04 #@! TO.C,C22*
X-54395000Y55505000D02*
X-48695000Y55505000D01*
X-54395000Y50505000D02*
X-48695000Y50505000D01*
G04 #@! TO.C,C16*
X-54395000Y61105000D02*
X-48695000Y61105000D01*
X-54395000Y56105000D02*
X-48695000Y56105000D01*
G04 #@! TO.C,C62*
X-41005000Y89695000D02*
X-46705000Y89695000D01*
X-41005000Y94695000D02*
X-46705000Y94695000D01*
G04 #@! TO.C,C2*
X-38995000Y49905000D02*
X-33295000Y49905000D01*
X-38995000Y44905000D02*
X-33295000Y44905000D01*
G04 #@! TO.C,C3*
X20795000Y100895000D02*
X15095000Y100895000D01*
X20795000Y105895000D02*
X15095000Y105895000D01*
G04 #@! TO.C,C4*
X-25605000Y100895000D02*
X-31305000Y100895000D01*
X-25605000Y105895000D02*
X-31305000Y105895000D01*
G04 #@! TO.C,C10*
X-10205000Y-4305000D02*
X-15905000Y-4305000D01*
X-10205000Y695000D02*
X-15905000Y695000D01*
G04 #@! TO.C,C11*
X-54395000Y66705000D02*
X-48695000Y66705000D01*
X-54395000Y61705000D02*
X-48695000Y61705000D01*
G04 #@! TO.C,C12*
X-41005000Y84095000D02*
X-46705000Y84095000D01*
X-41005000Y89095000D02*
X-46705000Y89095000D01*
G04 #@! TO.C,C13*
X-38995000Y55505000D02*
X-33295000Y55505000D01*
X-38995000Y50505000D02*
X-33295000Y50505000D01*
G04 #@! TO.C,C14*
X-25605000Y95295000D02*
X-31305000Y95295000D01*
X-25605000Y100295000D02*
X-31305000Y100295000D01*
G04 #@! TO.C,C15*
X-54395000Y77905000D02*
X-48695000Y77905000D01*
X-54395000Y72905000D02*
X-48695000Y72905000D01*
G04 #@! TO.C,C31*
X-41005000Y78495000D02*
X-46705000Y78495000D01*
X-41005000Y83495000D02*
X-46705000Y83495000D01*
G04 #@! TO.C,C61*
X-38995000Y61105000D02*
X-33295000Y61105000D01*
X-38995000Y56105000D02*
X-33295000Y56105000D01*
G04 #@! TO.C,C60*
X-25605000Y89695000D02*
X-31305000Y89695000D01*
X-25605000Y94695000D02*
X-31305000Y94695000D01*
G04 #@! TO.C,C59*
X20795000Y95295000D02*
X15095000Y95295000D01*
X20795000Y100295000D02*
X15095000Y100295000D01*
G04 #@! TO.C,C53*
X5295000Y23695000D02*
X-405000Y23695000D01*
X5295000Y28695000D02*
X-405000Y28695000D01*
G04 #@! TO.C,C51*
X-41005000Y72895000D02*
X-46705000Y72895000D01*
X-41005000Y77895000D02*
X-46705000Y77895000D01*
G04 #@! TO.C,C50*
X-38995000Y66705000D02*
X-33295000Y66705000D01*
X-38995000Y61705000D02*
X-33295000Y61705000D01*
G04 #@! TO.C,C49*
X-25605000Y84095000D02*
X-31305000Y84095000D01*
X-25605000Y89095000D02*
X-31305000Y89095000D01*
G04 #@! TO.C,C63*
X20795000Y89695000D02*
X15095000Y89695000D01*
X20795000Y94695000D02*
X15095000Y94695000D01*
G04 #@! TO.C,C47*
X7305000Y49905000D02*
X13005000Y49905000D01*
X7305000Y44905000D02*
X13005000Y44905000D01*
G04 #@! TO.C,C45*
X5295000Y100895000D02*
X-405000Y100895000D01*
X5295000Y105895000D02*
X-405000Y105895000D01*
G04 #@! TO.C,C44*
X7305000Y44305000D02*
X13005000Y44305000D01*
X7305000Y39305000D02*
X13005000Y39305000D01*
G04 #@! TO.C,C43*
X-38995000Y44305000D02*
X-33295000Y44305000D01*
X-38995000Y39305000D02*
X-33295000Y39305000D01*
G04 #@! TO.C,C41*
X-8195000Y44305000D02*
X-2495000Y44305000D01*
X-8195000Y39305000D02*
X-2495000Y39305000D01*
G04 #@! TO.C,C40*
X-10205000Y100895000D02*
X-15905000Y100895000D01*
X-10205000Y105895000D02*
X-15905000Y105895000D01*
G04 #@! TO.C,C39*
X5295000Y6895000D02*
X-405000Y6895000D01*
X5295000Y11895000D02*
X-405000Y11895000D01*
G04 #@! TO.C,C38*
X-8195000Y72305000D02*
X-2495000Y72305000D01*
X-8195000Y67305000D02*
X-2495000Y67305000D01*
G04 #@! TO.C,C37*
X5295000Y56095000D02*
X-405000Y56095000D01*
X5295000Y61095000D02*
X-405000Y61095000D01*
G04 #@! TO.C,C36*
X-8195000Y83505000D02*
X-2495000Y83505000D01*
X-8195000Y78505000D02*
X-2495000Y78505000D01*
G04 #@! TO.C,C35*
X-10205000Y67295000D02*
X-15905000Y67295000D01*
X-10205000Y72295000D02*
X-15905000Y72295000D01*
G04 #@! TO.C,C34*
X-23595000Y72305000D02*
X-17895000Y72305000D01*
X-23595000Y67305000D02*
X-17895000Y67305000D01*
G04 #@! TO.C,C94*
X20795000Y39295000D02*
X15095000Y39295000D01*
X20795000Y44295000D02*
X15095000Y44295000D01*
G04 #@! TO.C,C32*
X7305000Y100305000D02*
X13005000Y100305000D01*
X7305000Y95305000D02*
X13005000Y95305000D01*
G04 #@! TO.C,C33*
X5295000Y50495000D02*
X-405000Y50495000D01*
X5295000Y55495000D02*
X-405000Y55495000D01*
G04 #@! TO.C,C46*
X-23595000Y89105000D02*
X-17895000Y89105000D01*
X-23595000Y84105000D02*
X-17895000Y84105000D01*
G04 #@! TO.C,C215*
X-40905000Y-4305000D02*
X-46605000Y-4305000D01*
X-40905000Y695000D02*
X-46605000Y695000D01*
G04 #@! TO.C,C213*
X-38995000Y17505000D02*
X-33295000Y17505000D01*
X-38995000Y12505000D02*
X-33295000Y12505000D01*
G04 #@! TO.C,C212*
X-41005000Y18095000D02*
X-46705000Y18095000D01*
X-41005000Y23095000D02*
X-46705000Y23095000D01*
G04 #@! TO.C,C211*
X-25605000Y12495000D02*
X-31305000Y12495000D01*
X-25605000Y17495000D02*
X-31305000Y17495000D01*
G04 #@! TO.C,C209*
X-56405000Y29295000D02*
X-62105000Y29295000D01*
X-56405000Y34295000D02*
X-62105000Y34295000D01*
G04 #@! TO.C,C125*
X-10205000Y61695000D02*
X-15905000Y61695000D01*
X-10205000Y66695000D02*
X-15905000Y66695000D01*
G04 #@! TO.C,C203*
X-38995000Y11905000D02*
X-33295000Y11905000D01*
X-38995000Y6905000D02*
X-33295000Y6905000D01*
G04 #@! TO.C,C201*
X-41005000Y23695000D02*
X-46705000Y23695000D01*
X-41005000Y28695000D02*
X-46705000Y28695000D01*
G04 #@! TO.C,C200*
X-23595000Y77905000D02*
X-17895000Y77905000D01*
X-23595000Y72905000D02*
X-17895000Y72905000D01*
G04 #@! TO.C,C199*
X7305000Y105905000D02*
X13005000Y105905000D01*
X7305000Y100905000D02*
X13005000Y100905000D01*
G04 #@! TO.C,C198*
X-23595000Y105905000D02*
X-17895000Y105905000D01*
X-23595000Y100905000D02*
X-17895000Y100905000D01*
G04 #@! TO.C,C197*
X-8195000Y94705000D02*
X-2495000Y94705000D01*
X-8195000Y89705000D02*
X-2495000Y89705000D01*
G04 #@! TO.C,C196*
X-10205000Y56095000D02*
X-15905000Y56095000D01*
X-10205000Y61095000D02*
X-15905000Y61095000D01*
G04 #@! TO.C,C195*
X-23595000Y83505000D02*
X-17895000Y83505000D01*
X-23595000Y78505000D02*
X-17895000Y78505000D01*
G04 #@! TO.C,C194*
X5295000Y39295000D02*
X-405000Y39295000D01*
X5295000Y44295000D02*
X-405000Y44295000D01*
G04 #@! TO.C,C193*
X-8195000Y100305000D02*
X-2495000Y100305000D01*
X-8195000Y95305000D02*
X-2495000Y95305000D01*
G04 #@! TO.C,C192*
X-10205000Y50495000D02*
X-15905000Y50495000D01*
X-10205000Y55495000D02*
X-15905000Y55495000D01*
G04 #@! TO.C,C191*
X-8195000Y89105000D02*
X-2495000Y89105000D01*
X-8195000Y84105000D02*
X-2495000Y84105000D01*
G04 #@! TO.C,C190*
X5295000Y18095000D02*
X-405000Y18095000D01*
X5295000Y23095000D02*
X-405000Y23095000D01*
G04 #@! TO.C,C126*
X-54395000Y83505000D02*
X-48695000Y83505000D01*
X-54395000Y78505000D02*
X-48695000Y78505000D01*
G04 #@! TO.C,C48*
X-41005000Y67295000D02*
X-46705000Y67295000D01*
X-41005000Y72295000D02*
X-46705000Y72295000D01*
G04 #@! TO.C,C155*
X-25605000Y78495000D02*
X-31305000Y78495000D01*
X-25605000Y83495000D02*
X-31305000Y83495000D01*
G04 #@! TO.C,C154*
X20795000Y84095000D02*
X15095000Y84095000D01*
X20795000Y89095000D02*
X15095000Y89095000D01*
G04 #@! TO.C,C153*
X7305000Y55505000D02*
X13005000Y55505000D01*
X7305000Y50505000D02*
X13005000Y50505000D01*
G04 #@! TO.C,C152*
X5295000Y95295000D02*
X-405000Y95295000D01*
X5295000Y100295000D02*
X-405000Y100295000D01*
G04 #@! TO.C,C149*
X-54395000Y94705000D02*
X-48695000Y94705000D01*
X-54395000Y89705000D02*
X-48695000Y89705000D01*
G04 #@! TO.C,C148*
X5295000Y12495000D02*
X-405000Y12495000D01*
X5295000Y17495000D02*
X-405000Y17495000D01*
G04 #@! TO.C,C147*
X-54395000Y89105000D02*
X-48695000Y89105000D01*
X-54395000Y84105000D02*
X-48695000Y84105000D01*
G04 #@! TO.C,C146*
X-41005000Y61695000D02*
X-46705000Y61695000D01*
X-41005000Y66695000D02*
X-46705000Y66695000D01*
G04 #@! TO.C,C145*
X-38895000Y77905000D02*
X-33195000Y77905000D01*
X-38895000Y72905000D02*
X-33195000Y72905000D01*
G04 #@! TO.C,C144*
X-25605000Y72895000D02*
X-31305000Y72895000D01*
X-25605000Y77895000D02*
X-31305000Y77895000D01*
G04 #@! TO.C,C143*
X20795000Y78495000D02*
X15095000Y78495000D01*
X20795000Y83495000D02*
X15095000Y83495000D01*
G04 #@! TO.C,C142*
X7305000Y61105000D02*
X13005000Y61105000D01*
X7305000Y56105000D02*
X13005000Y56105000D01*
G04 #@! TO.C,C188*
X5295000Y89695000D02*
X-405000Y89695000D01*
X5295000Y94695000D02*
X-405000Y94695000D01*
G04 #@! TO.C,C140*
X-8195000Y49905000D02*
X-2495000Y49905000D01*
X-8195000Y44905000D02*
X-2495000Y44905000D01*
G04 #@! TO.C,C139*
X-23595000Y55505000D02*
X-17895000Y55505000D01*
X-23595000Y50505000D02*
X-17895000Y50505000D01*
G04 #@! TO.C,C138*
X20795000Y50495000D02*
X15095000Y50495000D01*
X20795000Y55495000D02*
X15095000Y55495000D01*
G04 #@! TO.C,C137*
X7305000Y89105000D02*
X13005000Y89105000D01*
X7305000Y84105000D02*
X13005000Y84105000D01*
G04 #@! TO.C,C136*
X5295000Y61695000D02*
X-405000Y61695000D01*
X5295000Y66695000D02*
X-405000Y66695000D01*
G04 #@! TO.C,C135*
X-8195000Y77905000D02*
X-2495000Y77905000D01*
X-8195000Y72905000D02*
X-2495000Y72905000D01*
G04 #@! TO.C,C134*
X-10205000Y72895000D02*
X-15905000Y72895000D01*
X-10205000Y77895000D02*
X-15905000Y77895000D01*
G04 #@! TO.C,C133*
X-23595000Y66705000D02*
X-17895000Y66705000D01*
X-23595000Y61705000D02*
X-17895000Y61705000D01*
G04 #@! TO.C,C132*
X-25605000Y39295000D02*
X-31305000Y39295000D01*
X-25605000Y44295000D02*
X-31305000Y44295000D01*
G04 #@! TO.C,C131*
X20795000Y44895000D02*
X15095000Y44895000D01*
X20795000Y49895000D02*
X15095000Y49895000D01*
G04 #@! TO.C,C128*
X7305000Y111505000D02*
X13005000Y111505000D01*
X7305000Y106505000D02*
X13005000Y106505000D01*
G04 #@! TO.C,C127*
X-54395000Y111505000D02*
X-48695000Y111505000D01*
X-54395000Y106505000D02*
X-48695000Y106505000D01*
G04 #@! TO.C,C189*
X-56405000Y95295000D02*
X-62105000Y95295000D01*
X-56405000Y100295000D02*
X-62105000Y100295000D01*
G04 #@! TO.C,C180*
X-54395000Y44305000D02*
X-48695000Y44305000D01*
X-54395000Y39305000D02*
X-48695000Y39305000D01*
G04 #@! TO.C,C179*
X-8195000Y105905000D02*
X-2495000Y105905000D01*
X-8195000Y100905000D02*
X-2495000Y100905000D01*
G04 #@! TO.C,C178*
X-10205000Y44895000D02*
X-15905000Y44895000D01*
X-10205000Y49895000D02*
X-15905000Y49895000D01*
G04 #@! TO.C,C177*
X-23595000Y94705000D02*
X-17895000Y94705000D01*
X-23595000Y89705000D02*
X-17895000Y89705000D01*
G04 #@! TO.C,C176*
X-10205000Y39295000D02*
X-15905000Y39295000D01*
X-10205000Y44295000D02*
X-15905000Y44295000D01*
G04 #@! TO.C,C175*
X-23595000Y100305000D02*
X-17895000Y100305000D01*
X-23595000Y95305000D02*
X-17895000Y95305000D01*
G04 #@! TO.C,C157*
X5295000Y44895000D02*
X-405000Y44895000D01*
X5295000Y49895000D02*
X-405000Y49895000D01*
G04 #@! TO.C,C156*
X7305000Y77905000D02*
X13005000Y77905000D01*
X7305000Y72905000D02*
X13005000Y72905000D01*
G04 #@! TO.C,C171*
X5295000Y72895000D02*
X-405000Y72895000D01*
X5295000Y77895000D02*
X-405000Y77895000D01*
G04 #@! TO.C,C170*
X-8195000Y66705000D02*
X-2495000Y66705000D01*
X-8195000Y61705000D02*
X-2495000Y61705000D01*
G04 #@! TO.C,C169*
X-10205000Y84095000D02*
X-15905000Y84095000D01*
X-10205000Y89095000D02*
X-15905000Y89095000D01*
G04 #@! TO.C,C168*
X-25605000Y44895000D02*
X-31305000Y44895000D01*
X-25605000Y49895000D02*
X-31305000Y49895000D01*
G04 #@! TO.C,C167*
X-41005000Y39295000D02*
X-46705000Y39295000D01*
X-41005000Y44295000D02*
X-46705000Y44295000D01*
G04 #@! TO.C,C166*
X-38895000Y100305000D02*
X-33195000Y100305000D01*
X-38895000Y95305000D02*
X-33195000Y95305000D01*
G04 #@! TO.C,C165*
X-25605000Y50495000D02*
X-31305000Y50495000D01*
X-25605000Y55495000D02*
X-31305000Y55495000D01*
G04 #@! TO.C,C164*
X20795000Y56095000D02*
X15095000Y56095000D01*
X20795000Y61095000D02*
X15095000Y61095000D01*
G04 #@! TO.C,C163*
X7305000Y83505000D02*
X13005000Y83505000D01*
X7305000Y78505000D02*
X13005000Y78505000D01*
G04 #@! TO.C,C162*
X5295000Y67295000D02*
X-405000Y67295000D01*
X5295000Y72295000D02*
X-405000Y72295000D01*
G04 #@! TO.C,C161*
X7305000Y94705000D02*
X13005000Y94705000D01*
X7305000Y89705000D02*
X13005000Y89705000D01*
G04 #@! TO.C,C160*
X-10205000Y78495000D02*
X-15905000Y78495000D01*
X-10205000Y83495000D02*
X-15905000Y83495000D01*
G04 #@! TO.C,C174*
X-23595000Y61105000D02*
X-17895000Y61105000D01*
X-23595000Y56105000D02*
X-17895000Y56105000D01*
G04 #@! TO.C,C172*
X-38895000Y105905000D02*
X-33195000Y105905000D01*
X-38895000Y100905000D02*
X-33195000Y100905000D01*
G04 #@! TO.C,C841*
X54395000Y106495000D02*
X48695000Y106495000D01*
X54395000Y111495000D02*
X48695000Y111495000D01*
G04 #@! TO.C,C840*
X38995000Y78495000D02*
X33295000Y78495000D01*
X38995000Y83495000D02*
X33295000Y83495000D01*
G04 #@! TO.C,C839*
X54395000Y89695000D02*
X48695000Y89695000D01*
X54395000Y94695000D02*
X48695000Y94695000D01*
G04 #@! TO.C,C838*
X41005000Y49905000D02*
X46705000Y49905000D01*
X41005000Y44905000D02*
X46705000Y44905000D01*
G04 #@! TO.C,C837*
X25605000Y49905000D02*
X31305000Y49905000D01*
X25605000Y44905000D02*
X31305000Y44905000D01*
G04 #@! TO.C,C835*
X56405000Y49905000D02*
X62105000Y49905000D01*
X56405000Y44905000D02*
X62105000Y44905000D01*
G04 #@! TO.C,C834*
X41005000Y55505000D02*
X46705000Y55505000D01*
X41005000Y50505000D02*
X46705000Y50505000D01*
G04 #@! TO.C,C833*
X54395000Y84095000D02*
X48695000Y84095000D01*
X54395000Y89095000D02*
X48695000Y89095000D01*
G04 #@! TO.C,C832*
X25605000Y77905000D02*
X31305000Y77905000D01*
X25605000Y72905000D02*
X31305000Y72905000D01*
G04 #@! TO.C,C827*
X56405000Y44305000D02*
X62105000Y44305000D01*
X56405000Y39305000D02*
X62105000Y39305000D01*
G04 #@! TO.C,C825*
X38995000Y72895000D02*
X33295000Y72895000D01*
X38995000Y77895000D02*
X33295000Y77895000D01*
G04 #@! TO.C,C820*
X54395000Y11595000D02*
X48695000Y11595000D01*
X54395000Y16595000D02*
X48695000Y16595000D01*
G04 #@! TO.C,C819*
X23595000Y11595000D02*
X17895000Y11595000D01*
X23595000Y16595000D02*
X17895000Y16595000D01*
G04 #@! TO.C,C818*
X25605000Y55505000D02*
X31305000Y55505000D01*
X25605000Y50505000D02*
X31305000Y50505000D01*
G04 #@! TO.C,C872*
X54395000Y17195000D02*
X48695000Y17195000D01*
X54395000Y22195000D02*
X48695000Y22195000D01*
G04 #@! TO.C,C870*
X56405000Y111505000D02*
X62105000Y111505000D01*
X56405000Y106505000D02*
X62105000Y106505000D01*
G04 #@! TO.C,C173*
X-56405000Y106495000D02*
X-62105000Y106495000D01*
X-56405000Y111495000D02*
X-62105000Y111495000D01*
G04 #@! TO.C,C860*
X41005000Y5405000D02*
X46705000Y5405000D01*
X41005000Y405000D02*
X46705000Y405000D01*
G04 #@! TO.C,C859*
X56405000Y61105000D02*
X62105000Y61105000D01*
X56405000Y56105000D02*
X62105000Y56105000D01*
G04 #@! TO.C,C858*
X41005000Y66705000D02*
X46705000Y66705000D01*
X41005000Y61705000D02*
X46705000Y61705000D01*
G04 #@! TO.C,C857*
X54395000Y72895000D02*
X48695000Y72895000D01*
X54395000Y77895000D02*
X48695000Y77895000D01*
G04 #@! TO.C,C856*
X38995000Y61695000D02*
X33295000Y61695000D01*
X38995000Y66695000D02*
X33295000Y66695000D01*
G04 #@! TO.C,C855*
X25605000Y83505000D02*
X31305000Y83505000D01*
X25605000Y78505000D02*
X31305000Y78505000D01*
G04 #@! TO.C,C848*
X56405000Y55505000D02*
X62105000Y55505000D01*
X56405000Y50505000D02*
X62105000Y50505000D01*
G04 #@! TO.C,C847*
X41005000Y61105000D02*
X46705000Y61105000D01*
X41005000Y56105000D02*
X46705000Y56105000D01*
G04 #@! TO.C,C862*
X54395000Y78495000D02*
X48695000Y78495000D01*
X54395000Y83495000D02*
X48695000Y83495000D01*
G04 #@! TO.C,C845*
X38995000Y67295000D02*
X33295000Y67295000D01*
X38995000Y72295000D02*
X33295000Y72295000D01*
G04 #@! TO.C,C813*
X25605000Y72305000D02*
X31305000Y72305000D01*
X25605000Y67305000D02*
X31305000Y67305000D01*
G04 #@! TO.C,C806*
X56405000Y11005000D02*
X62105000Y11005000D01*
X56405000Y6005000D02*
X62105000Y6005000D01*
G04 #@! TO.C,C805*
X41005000Y-195000D02*
X46705000Y-195000D01*
X41005000Y-5195000D02*
X46705000Y-5195000D01*
G04 #@! TO.C,C801*
X41005000Y44305000D02*
X46705000Y44305000D01*
X41005000Y39305000D02*
X46705000Y39305000D01*
G04 #@! TO.C,C966*
X41005000Y11005000D02*
X46705000Y11005000D01*
X41005000Y6005000D02*
X46705000Y6005000D01*
G04 #@! TO.C,C965*
X38995000Y17195000D02*
X33295000Y17195000D01*
X38995000Y22195000D02*
X33295000Y22195000D01*
G04 #@! TO.C,C961*
X38995000Y44895000D02*
X33295000Y44895000D01*
X38995000Y49895000D02*
X33295000Y49895000D01*
G04 #@! TO.C,C960*
X25605000Y94705000D02*
X31305000Y94705000D01*
X25605000Y89705000D02*
X31305000Y89705000D01*
G04 #@! TO.C,C959*
X38995000Y50495000D02*
X33295000Y50495000D01*
X38995000Y55495000D02*
X33295000Y55495000D01*
G04 #@! TO.C,C958*
X54395000Y61695000D02*
X48695000Y61695000D01*
X54395000Y66695000D02*
X48695000Y66695000D01*
G04 #@! TO.C,C957*
X41005000Y77905000D02*
X46705000Y77905000D01*
X41005000Y72905000D02*
X46705000Y72905000D01*
G04 #@! TO.C,C956*
X56405000Y72305000D02*
X62105000Y72305000D01*
X56405000Y67305000D02*
X62105000Y67305000D01*
G04 #@! TO.C,C955*
X41005000Y16605000D02*
X46705000Y16605000D01*
X41005000Y11605000D02*
X46705000Y11605000D01*
G04 #@! TO.C,C830*
X38995000Y11595000D02*
X33295000Y11595000D01*
X38995000Y16595000D02*
X33295000Y16595000D01*
G04 #@! TO.C,C952*
X25605000Y44305000D02*
X31305000Y44305000D01*
X25605000Y39305000D02*
X31305000Y39305000D01*
G04 #@! TO.C,C949*
X25605000Y100305000D02*
X31305000Y100305000D01*
X25605000Y95305000D02*
X31305000Y95305000D01*
G04 #@! TO.C,C943*
X56405000Y22205000D02*
X62105000Y22205000D01*
X56405000Y17205000D02*
X62105000Y17205000D01*
G04 #@! TO.C,C942*
X56405000Y33405000D02*
X62105000Y33405000D01*
X56405000Y28405000D02*
X62105000Y28405000D01*
G04 #@! TO.C,C954*
X25605000Y-195000D02*
X31305000Y-195000D01*
X25605000Y-5195000D02*
X31305000Y-5195000D01*
G04 #@! TO.C,C997*
X54395000Y56095000D02*
X48695000Y56095000D01*
X54395000Y61095000D02*
X48695000Y61095000D01*
G04 #@! TO.C,C996*
X41005000Y83505000D02*
X46705000Y83505000D01*
X41005000Y78505000D02*
X46705000Y78505000D01*
G04 #@! TO.C,C995*
X56405000Y77905000D02*
X62105000Y77905000D01*
X56405000Y72905000D02*
X62105000Y72905000D01*
G04 #@! TO.C,C994*
X41005000Y22205000D02*
X46705000Y22205000D01*
X41005000Y17205000D02*
X46705000Y17205000D01*
G04 #@! TO.C,C993*
X38995000Y5995000D02*
X33295000Y5995000D01*
X38995000Y10995000D02*
X33295000Y10995000D01*
G04 #@! TO.C,C989*
X25605000Y105905000D02*
X31305000Y105905000D01*
X25605000Y100905000D02*
X31305000Y100905000D01*
G04 #@! TO.C,C988*
X23595000Y-5205000D02*
X17895000Y-5205000D01*
X23595000Y-205000D02*
X17895000Y-205000D01*
G04 #@! TO.C,C987*
X38995000Y39295000D02*
X33295000Y39295000D01*
X38995000Y44295000D02*
X33295000Y44295000D01*
G04 #@! TO.C,C158*
X-38995000Y72305000D02*
X-33295000Y72305000D01*
X-38995000Y67305000D02*
X-33295000Y67305000D01*
G04 #@! TO.C,C969*
X56405000Y-195000D02*
X62105000Y-195000D01*
X56405000Y-5195000D02*
X62105000Y-5195000D01*
G04 #@! TO.C,C984*
X41005000Y89105000D02*
X46705000Y89105000D01*
X41005000Y84105000D02*
X46705000Y84105000D01*
G04 #@! TO.C,C983*
X56405000Y83505000D02*
X62105000Y83505000D01*
X56405000Y78505000D02*
X62105000Y78505000D01*
G04 #@! TO.C,C982*
X56405000Y66705000D02*
X62105000Y66705000D01*
X56405000Y61705000D02*
X62105000Y61705000D01*
G04 #@! TO.C,C981*
X38995000Y395000D02*
X33295000Y395000D01*
X38995000Y5395000D02*
X33295000Y5395000D01*
G04 #@! TO.C,C976*
X25605000Y111505000D02*
X31305000Y111505000D01*
X25605000Y106505000D02*
X31305000Y106505000D01*
G04 #@! TO.C,C975*
X54395000Y44895000D02*
X48695000Y44895000D01*
X54395000Y49895000D02*
X48695000Y49895000D01*
G04 #@! TO.C,C974*
X41005000Y94705000D02*
X46705000Y94705000D01*
X41005000Y89705000D02*
X46705000Y89705000D01*
G04 #@! TO.C,C973*
X56405000Y89105000D02*
X62105000Y89105000D01*
X56405000Y84105000D02*
X62105000Y84105000D01*
G04 #@! TO.C,C972*
X41005000Y111505000D02*
X46705000Y111505000D01*
X41005000Y106505000D02*
X46705000Y106505000D01*
G04 #@! TO.C,C970*
X25605000Y89105000D02*
X31305000Y89105000D01*
X25605000Y84105000D02*
X31305000Y84105000D01*
G04 #@! TO.C,C985*
X38995000Y56095000D02*
X33295000Y56095000D01*
X38995000Y61095000D02*
X33295000Y61095000D01*
G04 #@! TO.C,C904*
X54395000Y67295000D02*
X48695000Y67295000D01*
X54395000Y72295000D02*
X48695000Y72295000D01*
G04 #@! TO.C,C903*
X41005000Y72305000D02*
X46705000Y72305000D01*
X41005000Y67305000D02*
X46705000Y67305000D01*
G04 #@! TO.C,C897*
X56405000Y105905000D02*
X62105000Y105905000D01*
X56405000Y100905000D02*
X62105000Y100905000D01*
G04 #@! TO.C,C896*
X56405000Y16605000D02*
X62105000Y16605000D01*
X56405000Y11605000D02*
X62105000Y11605000D01*
G04 #@! TO.C,C894*
X54395000Y50495000D02*
X48695000Y50495000D01*
X54395000Y55495000D02*
X48695000Y55495000D01*
G04 #@! TO.C,C893*
X38995000Y95295000D02*
X33295000Y95295000D01*
X38995000Y100295000D02*
X33295000Y100295000D01*
G04 #@! TO.C,C939*
X23595000Y5995000D02*
X17895000Y5995000D01*
X23595000Y10995000D02*
X17895000Y10995000D01*
G04 #@! TO.C,C938*
X54395000Y5995000D02*
X48695000Y5995000D01*
X54395000Y10995000D02*
X48695000Y10995000D01*
G04 #@! TO.C,C886*
X38995000Y89695000D02*
X33295000Y89695000D01*
X38995000Y94695000D02*
X33295000Y94695000D01*
G04 #@! TO.C,C884*
X25605000Y66705000D02*
X31305000Y66705000D01*
X25605000Y61705000D02*
X31305000Y61705000D01*
G04 #@! TO.C,C883*
X54395000Y-5205000D02*
X48695000Y-5205000D01*
X54395000Y-205000D02*
X48695000Y-205000D01*
G04 #@! TO.C,C882*
X23595000Y395000D02*
X17895000Y395000D01*
X23595000Y5395000D02*
X17895000Y5395000D01*
G04 #@! TO.C,C881*
X54395000Y100895000D02*
X48695000Y100895000D01*
X54395000Y105895000D02*
X48695000Y105895000D01*
G04 #@! TO.C,C880*
X54395000Y395000D02*
X48695000Y395000D01*
X54395000Y5395000D02*
X48695000Y5395000D01*
G04 #@! TO.C,C936*
X25605000Y61105000D02*
X31305000Y61105000D01*
X25605000Y56105000D02*
X31305000Y56105000D01*
G04 #@! TO.C,C935*
X38995000Y84095000D02*
X33295000Y84095000D01*
X38995000Y89095000D02*
X33295000Y89095000D01*
G04 #@! TO.C,C934*
X54395000Y95295000D02*
X48695000Y95295000D01*
X54395000Y100295000D02*
X48695000Y100295000D01*
G04 #@! TO.C,C930*
X25605000Y5405000D02*
X31305000Y5405000D01*
X25605000Y405000D02*
X31305000Y405000D01*
G04 #@! TO.C,C926*
X25605000Y11005000D02*
X31305000Y11005000D01*
X25605000Y6005000D02*
X31305000Y6005000D01*
G04 #@! TO.C,C986*
X25605000Y16605000D02*
X31305000Y16605000D01*
X25605000Y11605000D02*
X31305000Y11605000D01*
G04 #@! TO.C,C905*
X38995000Y100895000D02*
X33295000Y100895000D01*
X38995000Y105895000D02*
X33295000Y105895000D01*
G04 #@! TO.C,C919*
X38995000Y-5205000D02*
X33295000Y-5205000D01*
X38995000Y-205000D02*
X33295000Y-205000D01*
G04 #@! TO.C,C918*
X41005000Y33405000D02*
X46705000Y33405000D01*
X41005000Y28405000D02*
X46705000Y28405000D01*
G04 #@! TO.C,C915*
X39045000Y106495000D02*
X33345000Y106495000D01*
X39045000Y111495000D02*
X33345000Y111495000D01*
G04 #@! TO.C,C914*
X54395000Y39295000D02*
X48695000Y39295000D01*
X54395000Y44295000D02*
X48695000Y44295000D01*
G04 #@! TO.C,C913*
X41005000Y100305000D02*
X46705000Y100305000D01*
X41005000Y95305000D02*
X46705000Y95305000D01*
G04 #@! TO.C,C912*
X56405000Y94705000D02*
X62105000Y94705000D01*
X56405000Y89705000D02*
X62105000Y89705000D01*
G04 #@! TO.C,C911*
X56405000Y5405000D02*
X62105000Y5405000D01*
X56405000Y405000D02*
X62105000Y405000D01*
G04 #@! TO.C,C908*
X54395000Y28395000D02*
X48695000Y28395000D01*
X54395000Y33395000D02*
X48695000Y33395000D01*
G04 #@! TO.C,C921*
X41005000Y105905000D02*
X46705000Y105905000D01*
X41005000Y100905000D02*
X46705000Y100905000D01*
G04 #@! TO.C,C1000*
X56405000Y100305000D02*
X62105000Y100305000D01*
X56405000Y95305000D02*
X62105000Y95305000D01*
G04 #@! TD*
M02*
