G04 #@! TF.GenerationSoftware,KiCad,Pcbnew,(5.0.0)*
G04 #@! TF.CreationDate,2019-05-01T16:30:08-07:00*
G04 #@! TF.ProjectId,SSB Cap Board,5353422043617020426F6172642E6B69,rev?*
G04 #@! TF.SameCoordinates,Original*
G04 #@! TF.FileFunction,Soldermask,Bot*
G04 #@! TF.FilePolarity,Negative*
%FSLAX46Y46*%
G04 Gerber Fmt 4.6, Leading zero omitted, Abs format (unit mm)*
G04 Created by KiCad (PCBNEW (5.0.0)) date 05/01/19 16:30:08*
%MOMM*%
%LPD*%
G01*
G04 APERTURE LIST*
%ADD10R,1.650000X5.400000*%
%ADD11C,6.800000*%
%ADD12C,1.200000*%
G04 APERTURE END LIST*
D10*
G04 #@! TO.C,C342*
X-38995000Y-1805000D03*
X-33295000Y-1805000D03*
G04 #@! TD*
G04 #@! TO.C,C341*
X-41080365Y-1795000D03*
X-46780365Y-1795000D03*
G04 #@! TD*
G04 #@! TO.C,C340*
X-23595000Y3795000D03*
X-17895000Y3795000D03*
G04 #@! TD*
G04 #@! TO.C,C339*
X-10205000Y-1795000D03*
X-15905000Y-1795000D03*
G04 #@! TD*
G04 #@! TO.C,C338*
X-56405000Y41805000D03*
X-62105000Y41805000D03*
G04 #@! TD*
G04 #@! TO.C,C336*
X-25605000Y-1795000D03*
X-31305000Y-1795000D03*
G04 #@! TD*
G04 #@! TO.C,C335*
X-54395000Y26295000D03*
X-48695000Y26295000D03*
G04 #@! TD*
G04 #@! TO.C,C334*
X-41005000Y3805000D03*
X-46705000Y3805000D03*
G04 #@! TD*
G04 #@! TO.C,C333*
X-41005000Y31805000D03*
X-46705000Y31805000D03*
G04 #@! TD*
G04 #@! TO.C,C332*
X-23595000Y-1805000D03*
X-17895000Y-1805000D03*
G04 #@! TD*
G04 #@! TO.C,C376*
X-10205000Y3805000D03*
X-15905000Y3805000D03*
G04 #@! TD*
G04 #@! TO.C,C328*
X-56405000Y47405000D03*
X-62105000Y47405000D03*
G04 #@! TD*
G04 #@! TO.C,C327*
X-54395000Y97795000D03*
X-48695000Y97795000D03*
G04 #@! TD*
G04 #@! TO.C,C325*
X-54395000Y20695000D03*
X-48695000Y20695000D03*
G04 #@! TD*
G04 #@! TO.C,C324*
X-41005000Y9405000D03*
X-46705000Y9405000D03*
G04 #@! TD*
G04 #@! TO.C,C322*
X-54395000Y-1805000D03*
X-48695000Y-1805000D03*
G04 #@! TD*
G04 #@! TO.C,C321*
X-10205000Y9405000D03*
X-15905000Y9405000D03*
G04 #@! TD*
G04 #@! TO.C,C320*
X-56405000Y53005000D03*
X-62105000Y53005000D03*
G04 #@! TD*
G04 #@! TO.C,C319*
X-54395000Y92195000D03*
X-48695000Y92195000D03*
G04 #@! TD*
G04 #@! TO.C,C318*
X5295000Y41805000D03*
X-405000Y41805000D03*
G04 #@! TD*
G04 #@! TO.C,C317*
X-25605000Y9405000D03*
X-31305000Y9405000D03*
G04 #@! TD*
G04 #@! TO.C,C316*
X-54395000Y15095000D03*
X-48695000Y15095000D03*
G04 #@! TD*
G04 #@! TO.C,C331*
X-41005000Y15005000D03*
X-46705000Y15005000D03*
G04 #@! TD*
G04 #@! TO.C,C330*
X-38995000Y26195000D03*
X-33295000Y26195000D03*
G04 #@! TD*
G04 #@! TO.C,C329*
X5295000Y3805000D03*
X-405000Y3805000D03*
G04 #@! TD*
G04 #@! TO.C,C374*
X-10205000Y15005000D03*
X-15905000Y15005000D03*
G04 #@! TD*
G04 #@! TO.C,C373*
X-56405000Y58605000D03*
X-62105000Y58605000D03*
G04 #@! TD*
G04 #@! TO.C,C372*
X-54395000Y86595000D03*
X-48695000Y86595000D03*
G04 #@! TD*
G04 #@! TO.C,C371*
X7305000Y92195000D03*
X13005000Y92195000D03*
G04 #@! TD*
G04 #@! TO.C,C370*
X-54395000Y3795000D03*
X-48695000Y3795000D03*
G04 #@! TD*
G04 #@! TO.C,C369*
X5295000Y47405000D03*
X-405000Y47405000D03*
G04 #@! TD*
G04 #@! TO.C,C368*
X-8195000Y103395000D03*
X-2495000Y103395000D03*
G04 #@! TD*
G04 #@! TO.C,C367*
X-54395000Y9495000D03*
X-48695000Y9495000D03*
G04 #@! TD*
G04 #@! TO.C,C366*
X-41005000Y20605000D03*
X-46705000Y20605000D03*
G04 #@! TD*
G04 #@! TO.C,C365*
X-38995000Y20595000D03*
X-33295000Y20595000D03*
G04 #@! TD*
G04 #@! TO.C,C364*
X5295000Y9405000D03*
X-405000Y9405000D03*
G04 #@! TD*
G04 #@! TO.C,C363*
X-10205000Y20605000D03*
X-15905000Y20605000D03*
G04 #@! TD*
G04 #@! TO.C,C346*
X-56405000Y64205000D03*
X-62105000Y64205000D03*
G04 #@! TD*
G04 #@! TO.C,C344*
X-54395000Y80995000D03*
X-48695000Y80995000D03*
G04 #@! TD*
G04 #@! TO.C,C359*
X7305000Y86595000D03*
X13005000Y86595000D03*
G04 #@! TD*
G04 #@! TO.C,C358*
X5295000Y53005000D03*
X-405000Y53005000D03*
G04 #@! TD*
G04 #@! TO.C,C357*
X-8195000Y97795000D03*
X-2495000Y97795000D03*
G04 #@! TD*
G04 #@! TO.C,C356*
X-25605000Y15005000D03*
X-31305000Y15005000D03*
G04 #@! TD*
G04 #@! TO.C,C355*
X-56405000Y9405000D03*
X-62105000Y9405000D03*
G04 #@! TD*
G04 #@! TO.C,C354*
X-41005000Y26205000D03*
X-46705000Y26205000D03*
G04 #@! TD*
G04 #@! TO.C,C353*
X-38995000Y14995000D03*
X-33295000Y14995000D03*
G04 #@! TD*
G04 #@! TO.C,C352*
X5295000Y15005000D03*
X-405000Y15005000D03*
G04 #@! TD*
G04 #@! TO.C,C351*
X-10205000Y26205000D03*
X-15905000Y26205000D03*
G04 #@! TD*
G04 #@! TO.C,C350*
X-56405000Y69805000D03*
X-62105000Y69805000D03*
G04 #@! TD*
G04 #@! TO.C,C349*
X-54395000Y75395000D03*
X-48695000Y75395000D03*
G04 #@! TD*
G04 #@! TO.C,C348*
X7305000Y80995000D03*
X13005000Y80995000D03*
G04 #@! TD*
G04 #@! TO.C,C347*
X5295000Y58605000D03*
X-405000Y58605000D03*
G04 #@! TD*
G04 #@! TO.C,C362*
X-8195000Y92195000D03*
X-2495000Y92195000D03*
G04 #@! TD*
G04 #@! TO.C,C361*
X-10205000Y47405000D03*
X-15905000Y47405000D03*
G04 #@! TD*
G04 #@! TO.C,C360*
X-8195000Y31795000D03*
X-2495000Y31795000D03*
G04 #@! TD*
G04 #@! TO.C,C279*
X-56405000Y103405000D03*
X-62105000Y103405000D03*
G04 #@! TD*
G04 #@! TO.C,C278*
X7305000Y75395000D03*
X13005000Y75395000D03*
G04 #@! TD*
G04 #@! TO.C,C277*
X-8195000Y80995000D03*
X-2495000Y80995000D03*
G04 #@! TD*
G04 #@! TO.C,C276*
X7305000Y103395000D03*
X13005000Y103395000D03*
G04 #@! TD*
G04 #@! TO.C,C275*
X-23595000Y9395000D03*
X-17895000Y9395000D03*
G04 #@! TD*
G04 #@! TO.C,C274*
X-10205000Y41805000D03*
X-15905000Y41805000D03*
G04 #@! TD*
G04 #@! TO.C,C272*
X-54395000Y52995000D03*
X-48695000Y52995000D03*
G04 #@! TD*
G04 #@! TO.C,C271*
X7305000Y58595000D03*
X13005000Y58595000D03*
G04 #@! TD*
G04 #@! TO.C,C270*
X5295000Y81005000D03*
X-405000Y81005000D03*
G04 #@! TD*
G04 #@! TO.C,C269*
X-8195000Y69795000D03*
X-2495000Y69795000D03*
G04 #@! TD*
G04 #@! TO.C,C315*
X-10205000Y69805000D03*
X-15905000Y69805000D03*
G04 #@! TD*
G04 #@! TO.C,C267*
X-54395000Y103395000D03*
X-48695000Y103395000D03*
G04 #@! TD*
G04 #@! TO.C,C313*
X-8195000Y14995000D03*
X-2495000Y14995000D03*
G04 #@! TD*
G04 #@! TO.C,C312*
X5295000Y103405000D03*
X-405000Y103405000D03*
G04 #@! TD*
G04 #@! TO.C,C263*
X-10205000Y81005000D03*
X-15905000Y81005000D03*
G04 #@! TD*
G04 #@! TO.C,C256*
X7305000Y41795000D03*
X13005000Y41795000D03*
G04 #@! TD*
G04 #@! TO.C,C254*
X5295000Y97805000D03*
X-405000Y97805000D03*
G04 #@! TD*
G04 #@! TO.C,C253*
X-8195000Y52995000D03*
X-2495000Y52995000D03*
G04 #@! TD*
G04 #@! TO.C,C268*
X-10205000Y86605000D03*
X-15905000Y86605000D03*
G04 #@! TD*
G04 #@! TO.C,C307*
X-8195000Y108995000D03*
X-2495000Y108995000D03*
G04 #@! TD*
G04 #@! TO.C,C306*
X-8195000Y47395000D03*
X-2495000Y47395000D03*
G04 #@! TD*
G04 #@! TO.C,C305*
X-10205000Y92205000D03*
X-15905000Y92205000D03*
G04 #@! TD*
G04 #@! TO.C,C297*
X-8195000Y41795000D03*
X-2495000Y41795000D03*
G04 #@! TD*
G04 #@! TO.C,C280*
X-10205000Y97805000D03*
X-15905000Y97805000D03*
G04 #@! TD*
G04 #@! TO.C,C290*
X7305000Y97795000D03*
X13005000Y97795000D03*
G04 #@! TD*
G04 #@! TO.C,C288*
X-10205000Y103405000D03*
X-15905000Y103405000D03*
G04 #@! TD*
G04 #@! TO.C,C375*
X-54395000Y47395000D03*
X-48695000Y47395000D03*
G04 #@! TD*
G04 #@! TO.C,C441*
X-23595000Y103395000D03*
X-17895000Y103395000D03*
G04 #@! TD*
G04 #@! TO.C,C393*
X-38995000Y103395000D03*
X-33295000Y103395000D03*
G04 #@! TD*
G04 #@! TO.C,C391*
X-38995000Y108995000D03*
X-33295000Y108995000D03*
G04 #@! TD*
G04 #@! TO.C,C410*
X-23595000Y69795000D03*
X-17895000Y69795000D03*
G04 #@! TD*
G04 #@! TO.C,C408*
X-23595000Y41795000D03*
X-17895000Y41795000D03*
G04 #@! TD*
G04 #@! TO.C,C69*
X20795000Y86605000D03*
X15095000Y86605000D03*
G04 #@! TD*
G04 #@! TO.C,C67*
X7305000Y3795000D03*
X13005000Y3795000D03*
G04 #@! TD*
G04 #@! TO.C,C66*
X7305000Y26195000D03*
X13005000Y26195000D03*
G04 #@! TD*
G04 #@! TO.C,C65*
X20795000Y47405000D03*
X15095000Y47405000D03*
G04 #@! TD*
G04 #@! TO.C,C79*
X-25605000Y47511105D03*
X-31305000Y47511105D03*
G04 #@! TD*
G04 #@! TO.C,C124*
X-41005000Y47405000D03*
X-46705000Y47405000D03*
G04 #@! TD*
G04 #@! TO.C,C123*
X-38995000Y92195000D03*
X-33295000Y92195000D03*
G04 #@! TD*
G04 #@! TO.C,C122*
X20795000Y41805000D03*
X15095000Y41805000D03*
G04 #@! TD*
G04 #@! TO.C,C121*
X20795000Y103415470D03*
X15095000Y103415470D03*
G04 #@! TD*
G04 #@! TO.C,C117*
X-25605000Y92205000D03*
X-31305000Y92205000D03*
G04 #@! TD*
G04 #@! TO.C,C116*
X-25605000Y53005000D03*
X-31305000Y53005000D03*
G04 #@! TD*
G04 #@! TO.C,C115*
X-41005000Y53005000D03*
X-46705000Y53005000D03*
G04 #@! TD*
G04 #@! TO.C,C114*
X-38995000Y86595000D03*
X-33295000Y86595000D03*
G04 #@! TD*
G04 #@! TO.C,C113*
X-23504500Y31731500D03*
X-17804500Y31731500D03*
G04 #@! TD*
G04 #@! TO.C,C112*
X-25605000Y81005000D03*
X-31305000Y81005000D03*
G04 #@! TD*
G04 #@! TO.C,C111*
X-41005000Y81005000D03*
X-46705000Y81005000D03*
G04 #@! TD*
G04 #@! TO.C,C159*
X-38995000Y58595000D03*
X-33295000Y58595000D03*
G04 #@! TD*
G04 #@! TO.C,C109*
X20795000Y75405000D03*
X15095000Y75405000D03*
G04 #@! TD*
G04 #@! TO.C,C107*
X7305000Y20595000D03*
X13005000Y20595000D03*
G04 #@! TD*
G04 #@! TO.C,C104*
X7305000Y9395000D03*
X13005000Y9395000D03*
G04 #@! TD*
G04 #@! TO.C,C103*
X-25605000Y103405000D03*
X-31305000Y103405000D03*
G04 #@! TD*
G04 #@! TO.C,C102*
X-25605000Y64205000D03*
X-31305000Y64205000D03*
G04 #@! TD*
G04 #@! TO.C,C101*
X-41005000Y64205000D03*
X-46705000Y64205000D03*
G04 #@! TD*
G04 #@! TO.C,C100*
X-38995000Y75395000D03*
X-33295000Y75395000D03*
G04 #@! TD*
G04 #@! TO.C,C99*
X20795000Y58605000D03*
X15095000Y58605000D03*
G04 #@! TD*
G04 #@! TO.C,C98*
X-41005000Y103405000D03*
X-46705000Y103405000D03*
G04 #@! TD*
G04 #@! TO.C,C29*
X-10205000Y109005000D03*
X-15905000Y109005000D03*
G04 #@! TD*
G04 #@! TO.C,C28*
X7305000Y31795000D03*
X13005000Y31795000D03*
G04 #@! TD*
G04 #@! TO.C,C27*
X-8195000Y3795000D03*
X-2495000Y3795000D03*
G04 #@! TD*
G04 #@! TO.C,C26*
X-25605000Y41805000D03*
X-31305000Y41805000D03*
G04 #@! TD*
G04 #@! TO.C,C25*
X-41005000Y41805000D03*
X-46705000Y41805000D03*
G04 #@! TD*
G04 #@! TO.C,C24*
X-38995000Y97795000D03*
X-33295000Y97795000D03*
G04 #@! TD*
G04 #@! TO.C,C21*
X5295000Y109005000D03*
X-405000Y109005000D03*
G04 #@! TD*
G04 #@! TO.C,C20*
X-41005000Y69805000D03*
X-46705000Y69805000D03*
G04 #@! TD*
G04 #@! TO.C,C19*
X-38995000Y69795000D03*
X-33295000Y69795000D03*
G04 #@! TD*
G04 #@! TO.C,C18*
X20795000Y64205000D03*
X15095000Y64205000D03*
G04 #@! TD*
G04 #@! TO.C,C64*
X-41005000Y109005000D03*
X-46705000Y109005000D03*
G04 #@! TD*
G04 #@! TO.C,C5*
X-23595000Y108995000D03*
X-17895000Y108995000D03*
G04 #@! TD*
G04 #@! TO.C,C6*
X-25605000Y75405000D03*
X-31305000Y75405000D03*
G04 #@! TD*
G04 #@! TO.C,C7*
X-41005000Y75405000D03*
X-46705000Y75405000D03*
G04 #@! TD*
G04 #@! TO.C,C8*
X-38995000Y64195000D03*
X-33295000Y64195000D03*
G04 #@! TD*
G04 #@! TO.C,C9*
X20795000Y69805000D03*
X15095000Y69805000D03*
G04 #@! TD*
G04 #@! TO.C,C17*
X-56405000Y15005000D03*
X-62105000Y15005000D03*
G04 #@! TD*
G04 #@! TO.C,C58*
X-25605000Y86605000D03*
X-31305000Y86605000D03*
G04 #@! TD*
G04 #@! TO.C,C57*
X-38995000Y47395000D03*
X-33295000Y47395000D03*
G04 #@! TD*
G04 #@! TO.C,C56*
X-41005000Y86605000D03*
X-46705000Y86605000D03*
G04 #@! TD*
G04 #@! TO.C,C55*
X-38995000Y52995000D03*
X-33295000Y52995000D03*
G04 #@! TD*
G04 #@! TO.C,C54*
X20795000Y81005000D03*
X15095000Y81005000D03*
G04 #@! TD*
G04 #@! TO.C,C52*
X-25605000Y109005000D03*
X-31305000Y109005000D03*
G04 #@! TD*
G04 #@! TO.C,C30*
X-41005000Y92205000D03*
X-46705000Y92205000D03*
G04 #@! TD*
G04 #@! TO.C,C42*
X-25605000Y69805000D03*
X-31305000Y69805000D03*
G04 #@! TD*
G04 #@! TO.C,C218*
X-8195000Y58595000D03*
X-2495000Y58595000D03*
G04 #@! TD*
G04 #@! TO.C,C217*
X5295000Y92205000D03*
X-405000Y92205000D03*
G04 #@! TD*
G04 #@! TO.C,C216*
X7305000Y47395000D03*
X13005000Y47395000D03*
G04 #@! TD*
G04 #@! TO.C,C214*
X-54395000Y41795000D03*
X-48695000Y41795000D03*
G04 #@! TD*
G04 #@! TO.C,C210*
X-8195000Y9395000D03*
X-2495000Y9395000D03*
G04 #@! TD*
G04 #@! TO.C,C208*
X-10205000Y75405000D03*
X-15905000Y75405000D03*
G04 #@! TD*
G04 #@! TO.C,C207*
X-8195000Y64195000D03*
X-2495000Y64195000D03*
G04 #@! TD*
G04 #@! TO.C,C206*
X5295000Y86605000D03*
X-405000Y86605000D03*
G04 #@! TD*
G04 #@! TO.C,C205*
X7305000Y52995000D03*
X13005000Y52995000D03*
G04 #@! TD*
G04 #@! TO.C,C202*
X-56405000Y97805000D03*
X-62105000Y97805000D03*
G04 #@! TD*
G04 #@! TO.C,C204*
X-8195000Y20595000D03*
X-2495000Y20595000D03*
G04 #@! TD*
G04 #@! TO.C,C250*
X-54395000Y108995000D03*
X-48695000Y108995000D03*
G04 #@! TD*
G04 #@! TO.C,C249*
X-10205000Y64205000D03*
X-15905000Y64205000D03*
G04 #@! TD*
G04 #@! TO.C,C248*
X-8195000Y75395000D03*
X-2495000Y75395000D03*
G04 #@! TD*
G04 #@! TO.C,C247*
X5295000Y75405000D03*
X-405000Y75405000D03*
G04 #@! TD*
G04 #@! TO.C,C246*
X7305000Y64195000D03*
X13005000Y64195000D03*
G04 #@! TD*
G04 #@! TO.C,C245*
X-54395000Y58595000D03*
X-48695000Y58595000D03*
G04 #@! TD*
G04 #@! TO.C,C244*
X-56405000Y86605000D03*
X-62105000Y86605000D03*
G04 #@! TD*
G04 #@! TO.C,C243*
X-23595000Y14995000D03*
X-17895000Y14995000D03*
G04 #@! TD*
G04 #@! TO.C,C242*
X7305000Y108995000D03*
X13005000Y108995000D03*
G04 #@! TD*
G04 #@! TO.C,C241*
X5295000Y31805000D03*
X-405000Y31805000D03*
G04 #@! TD*
G04 #@! TO.C,C240*
X-8195000Y26195000D03*
X-2495000Y26195000D03*
G04 #@! TD*
G04 #@! TO.C,C238*
X-10205000Y58605000D03*
X-15905000Y58605000D03*
G04 #@! TD*
G04 #@! TO.C,C219*
X5295000Y69805000D03*
X-405000Y69805000D03*
G04 #@! TD*
G04 #@! TO.C,C235*
X7305000Y69795000D03*
X13005000Y69795000D03*
G04 #@! TD*
G04 #@! TO.C,C234*
X-54395000Y64195000D03*
X-48695000Y64195000D03*
G04 #@! TD*
G04 #@! TO.C,C233*
X-56405000Y81005000D03*
X-62105000Y81005000D03*
G04 #@! TD*
G04 #@! TO.C,C231*
X5295000Y26205000D03*
X-405000Y26205000D03*
G04 #@! TD*
G04 #@! TO.C,C230*
X-56405000Y92205000D03*
X-62105000Y92205000D03*
G04 #@! TD*
G04 #@! TO.C,C229*
X-38995000Y9395000D03*
X-33295000Y9395000D03*
G04 #@! TD*
G04 #@! TO.C,C228*
X5295000Y20605000D03*
X-405000Y20605000D03*
G04 #@! TD*
G04 #@! TO.C,C227*
X-10205000Y31805000D03*
X-15905000Y31805000D03*
G04 #@! TD*
G04 #@! TO.C,C226*
X-56405000Y75405000D03*
X-62105000Y75405000D03*
G04 #@! TD*
G04 #@! TO.C,C225*
X-54395000Y69795000D03*
X-48695000Y69795000D03*
G04 #@! TD*
G04 #@! TO.C,C224*
X5295000Y64205000D03*
X-405000Y64205000D03*
G04 #@! TD*
G04 #@! TO.C,C223*
X-8195000Y86595000D03*
X-2495000Y86595000D03*
G04 #@! TD*
G04 #@! TO.C,C222*
X-10205000Y53005000D03*
X-15905000Y53005000D03*
G04 #@! TD*
G04 #@! TO.C,C237*
X-56405000Y109005000D03*
X-62105000Y109005000D03*
G04 #@! TD*
G04 #@! TO.C,C220*
X-38995000Y3795000D03*
X-33295000Y3795000D03*
G04 #@! TD*
G04 #@! TO.C,C151*
X-38995000Y41795000D03*
X-33295000Y41795000D03*
G04 #@! TD*
G04 #@! TO.C,C150*
X20795000Y97805000D03*
X15095000Y97805000D03*
G04 #@! TD*
G04 #@! TO.C,C130*
X20795000Y92205000D03*
X15095000Y92205000D03*
G04 #@! TD*
G04 #@! TO.C,C129*
X20795000Y109005000D03*
X15095000Y109005000D03*
G04 #@! TD*
G04 #@! TO.C,C141*
X7305000Y14995000D03*
X13005000Y14995000D03*
G04 #@! TD*
G04 #@! TO.C,C187*
X-25605000Y97805000D03*
X-31305000Y97805000D03*
G04 #@! TD*
G04 #@! TO.C,C186*
X-25605000Y58605000D03*
X-31305000Y58605000D03*
G04 #@! TD*
G04 #@! TO.C,C185*
X-41005000Y58605000D03*
X-46705000Y58605000D03*
G04 #@! TD*
G04 #@! TO.C,C184*
X-38995000Y80995000D03*
X-33295000Y80995000D03*
G04 #@! TD*
G04 #@! TO.C,C183*
X20795000Y53005000D03*
X15095000Y53005000D03*
G04 #@! TD*
G04 #@! TO.C,C182*
X-41005000Y97805000D03*
X-46705000Y97805000D03*
G04 #@! TD*
G04 #@! TO.C,C181*
X-56405000Y20605000D03*
X-62105000Y20605000D03*
G04 #@! TD*
G04 #@! TO.C,C221*
X-25605000Y3805000D03*
X-31305000Y3805000D03*
G04 #@! TD*
G04 #@! TO.C,C345*
X-56405000Y3805000D03*
X-62105000Y3805000D03*
G04 #@! TD*
G04 #@! TO.C,C236*
X-54395000Y31895000D03*
X-48695000Y31895000D03*
G04 #@! TD*
G04 #@! TO.C,C844*
X54395000Y19705000D03*
X48695000Y19705000D03*
G04 #@! TD*
G04 #@! TO.C,C843*
X56405000Y19695000D03*
X62105000Y19695000D03*
G04 #@! TD*
G04 #@! TO.C,C842*
X41005000Y75395000D03*
X46705000Y75395000D03*
G04 #@! TD*
G04 #@! TO.C,C836*
X38995000Y2905000D03*
X33295000Y2905000D03*
G04 #@! TD*
G04 #@! TO.C,C815*
X41005000Y69795000D03*
X46705000Y69795000D03*
G04 #@! TD*
G04 #@! TO.C,C829*
X54395000Y25305000D03*
X48695000Y25305000D03*
G04 #@! TD*
G04 #@! TO.C,C828*
X41005000Y-2705000D03*
X46705000Y-2705000D03*
G04 #@! TD*
G04 #@! TO.C,C826*
X25605000Y103395000D03*
X31305000Y103395000D03*
G04 #@! TD*
G04 #@! TO.C,C824*
X25605000Y69795000D03*
X31305000Y69795000D03*
G04 #@! TD*
G04 #@! TO.C,C823*
X41005000Y19695000D03*
X46705000Y19695000D03*
G04 #@! TD*
G04 #@! TO.C,C822*
X38995000Y8505000D03*
X33295000Y8505000D03*
G04 #@! TD*
G04 #@! TO.C,C821*
X25605000Y64195000D03*
X31305000Y64195000D03*
G04 #@! TD*
G04 #@! TO.C,C817*
X41005000Y97795000D03*
X46705000Y97795000D03*
G04 #@! TD*
G04 #@! TO.C,C816*
X41005000Y103395000D03*
X46705000Y103395000D03*
G04 #@! TD*
G04 #@! TO.C,C831*
X54395000Y-2695000D03*
X48695000Y-2695000D03*
G04 #@! TD*
G04 #@! TO.C,C875*
X41005000Y25295000D03*
X46705000Y25295000D03*
G04 #@! TD*
G04 #@! TO.C,C874*
X41005000Y92195000D03*
X46705000Y92195000D03*
G04 #@! TD*
G04 #@! TO.C,C873*
X54395000Y2905000D03*
X48695000Y2905000D03*
G04 #@! TD*
G04 #@! TO.C,C871*
X23595000Y2905000D03*
X17895000Y2905000D03*
G04 #@! TD*
G04 #@! TO.C,C869*
X41005000Y109095000D03*
X46705000Y109095000D03*
G04 #@! TD*
G04 #@! TO.C,C868*
X38995000Y109005000D03*
X33295000Y109005000D03*
G04 #@! TD*
G04 #@! TO.C,C867*
X41005000Y30895000D03*
X46705000Y30895000D03*
G04 #@! TD*
G04 #@! TO.C,C866*
X38995000Y-2695000D03*
X33295000Y-2695000D03*
G04 #@! TD*
G04 #@! TO.C,C865*
X25605000Y75395000D03*
X31305000Y75395000D03*
G04 #@! TD*
G04 #@! TO.C,C863*
X56405000Y108995000D03*
X62105000Y108995000D03*
G04 #@! TD*
G04 #@! TO.C,C854*
X41005000Y58595000D03*
X46705000Y58595000D03*
G04 #@! TD*
G04 #@! TO.C,C853*
X56405000Y2895000D03*
X62105000Y2895000D03*
G04 #@! TD*
G04 #@! TO.C,C852*
X25605000Y86595000D03*
X31305000Y86595000D03*
G04 #@! TD*
G04 #@! TO.C,C851*
X56405000Y-2705000D03*
X62105000Y-2705000D03*
G04 #@! TD*
G04 #@! TO.C,C850*
X25605000Y92195000D03*
X31305000Y92195000D03*
G04 #@! TD*
G04 #@! TO.C,C814*
X41005000Y64195000D03*
X46705000Y64195000D03*
G04 #@! TD*
G04 #@! TO.C,C812*
X56405000Y8495000D03*
X62105000Y8495000D03*
G04 #@! TD*
G04 #@! TO.C,C811*
X54395000Y30905000D03*
X48695000Y30905000D03*
G04 #@! TD*
G04 #@! TO.C,C810*
X25605000Y97795000D03*
X31305000Y97795000D03*
G04 #@! TD*
G04 #@! TO.C,C809*
X25605000Y41795000D03*
X31305000Y41795000D03*
G04 #@! TD*
G04 #@! TO.C,C808*
X23595000Y14105000D03*
X17895000Y14105000D03*
G04 #@! TD*
G04 #@! TO.C,C807*
X25605000Y80995000D03*
X31305000Y80995000D03*
G04 #@! TD*
G04 #@! TO.C,C804*
X41005000Y2895000D03*
X46705000Y2895000D03*
G04 #@! TD*
G04 #@! TO.C,C803*
X38995000Y25305000D03*
X33295000Y25305000D03*
G04 #@! TD*
G04 #@! TO.C,C802*
X25605000Y47395000D03*
X31305000Y47395000D03*
G04 #@! TD*
G04 #@! TO.C,C861*
X56405000Y103395000D03*
X62105000Y103395000D03*
G04 #@! TD*
G04 #@! TO.C,C968*
X56405000Y14095000D03*
X62105000Y14095000D03*
G04 #@! TD*
G04 #@! TO.C,C964*
X56405000Y97795000D03*
X62105000Y97795000D03*
G04 #@! TD*
G04 #@! TO.C,C963*
X23595000Y8505000D03*
X17895000Y8505000D03*
G04 #@! TD*
G04 #@! TO.C,C962*
X54395000Y41805000D03*
X48695000Y41805000D03*
G04 #@! TD*
G04 #@! TO.C,C953*
X56405000Y92195000D03*
X62105000Y92195000D03*
G04 #@! TD*
G04 #@! TO.C,C951*
X41005000Y41795000D03*
X46705000Y41795000D03*
G04 #@! TD*
G04 #@! TO.C,C950*
X38995000Y41805000D03*
X33295000Y41805000D03*
G04 #@! TD*
G04 #@! TO.C,C948*
X54395000Y69805000D03*
X48695000Y69805000D03*
G04 #@! TD*
G04 #@! TO.C,C947*
X56405000Y58595000D03*
X62105000Y58595000D03*
G04 #@! TD*
G04 #@! TO.C,C946*
X54395000Y81005000D03*
X48695000Y81005000D03*
G04 #@! TD*
G04 #@! TO.C,C945*
X38995000Y75405000D03*
X33295000Y75405000D03*
G04 #@! TD*
G04 #@! TO.C,C944*
X25605000Y-2705000D03*
X31305000Y-2705000D03*
G04 #@! TD*
G04 #@! TO.C,C941*
X56405000Y52995000D03*
X62105000Y52995000D03*
G04 #@! TD*
G04 #@! TO.C,C940*
X54395000Y86605000D03*
X48695000Y86605000D03*
G04 #@! TD*
G04 #@! TO.C,C876*
X38995000Y81005000D03*
X33295000Y81005000D03*
G04 #@! TD*
G04 #@! TO.C,C999*
X54395000Y109005000D03*
X48695000Y109005000D03*
G04 #@! TD*
G04 #@! TO.C,C998*
X54395000Y47405000D03*
X48695000Y47405000D03*
G04 #@! TD*
G04 #@! TO.C,C992*
X56405000Y86595000D03*
X62105000Y86595000D03*
G04 #@! TD*
G04 #@! TO.C,C991*
X54395000Y53005000D03*
X48695000Y53005000D03*
G04 #@! TD*
G04 #@! TO.C,C990*
X38995000Y47405000D03*
X33295000Y47405000D03*
G04 #@! TD*
G04 #@! TO.C,C980*
X56405000Y80995000D03*
X62105000Y80995000D03*
G04 #@! TD*
G04 #@! TO.C,C979*
X54395000Y58605000D03*
X48695000Y58605000D03*
G04 #@! TD*
G04 #@! TO.C,C978*
X38995000Y53005000D03*
X33295000Y53005000D03*
G04 #@! TD*
G04 #@! TO.C,C977*
X25605000Y14095000D03*
X31305000Y14095000D03*
G04 #@! TD*
G04 #@! TO.C,C971*
X41005000Y52995000D03*
X46705000Y52995000D03*
G04 #@! TD*
G04 #@! TO.C,C902*
X56405000Y75395000D03*
X62105000Y75395000D03*
G04 #@! TD*
G04 #@! TO.C,C901*
X56405000Y64195000D03*
X62105000Y64195000D03*
G04 #@! TD*
G04 #@! TO.C,C900*
X54395000Y75405000D03*
X48695000Y75405000D03*
G04 #@! TD*
G04 #@! TO.C,C899*
X38995000Y69805000D03*
X33295000Y69805000D03*
G04 #@! TD*
G04 #@! TO.C,C898*
X25605000Y2895000D03*
X31305000Y2895000D03*
G04 #@! TD*
G04 #@! TO.C,C895*
X41005000Y47395000D03*
X46705000Y47395000D03*
G04 #@! TD*
G04 #@! TO.C,C937*
X25605000Y58595000D03*
X31305000Y58595000D03*
G04 #@! TD*
G04 #@! TO.C,C889*
X38995000Y14105000D03*
X33295000Y14105000D03*
G04 #@! TD*
G04 #@! TO.C,C888*
X41005000Y14095000D03*
X46705000Y14095000D03*
G04 #@! TD*
G04 #@! TO.C,C887*
X54395000Y8505000D03*
X48695000Y8505000D03*
G04 #@! TD*
G04 #@! TO.C,C885*
X41005000Y86595000D03*
X46705000Y86595000D03*
G04 #@! TD*
G04 #@! TO.C,C879*
X25605000Y52995000D03*
X31305000Y52995000D03*
G04 #@! TD*
G04 #@! TO.C,C878*
X38995000Y19705000D03*
X33295000Y19705000D03*
G04 #@! TD*
G04 #@! TO.C,C877*
X41005000Y8495000D03*
X46705000Y8495000D03*
G04 #@! TD*
G04 #@! TO.C,C892*
X54395000Y14105000D03*
X48695000Y14105000D03*
G04 #@! TD*
G04 #@! TO.C,C891*
X56405000Y25195000D03*
X62105000Y25195000D03*
G04 #@! TD*
G04 #@! TO.C,C890*
X41005000Y80995000D03*
X46705000Y80995000D03*
G04 #@! TD*
G04 #@! TO.C,C933*
X56405000Y30895000D03*
X62105000Y30895000D03*
G04 #@! TD*
G04 #@! TO.C,C932*
X54395000Y92205000D03*
X48695000Y92205000D03*
G04 #@! TD*
G04 #@! TO.C,C931*
X38995000Y86605000D03*
X33295000Y86605000D03*
G04 #@! TD*
G04 #@! TO.C,C929*
X56405000Y41795000D03*
X62105000Y41795000D03*
G04 #@! TD*
G04 #@! TO.C,C928*
X54395000Y97805000D03*
X48695000Y97805000D03*
G04 #@! TD*
G04 #@! TO.C,C927*
X38995000Y92205000D03*
X33295000Y92205000D03*
G04 #@! TD*
G04 #@! TO.C,C925*
X54395000Y103405000D03*
X48695000Y103405000D03*
G04 #@! TD*
G04 #@! TO.C,C924*
X38995000Y97805000D03*
X33295000Y97805000D03*
G04 #@! TD*
G04 #@! TO.C,C922*
X38995000Y103405000D03*
X33295000Y103405000D03*
G04 #@! TD*
G04 #@! TO.C,C920*
X56405000Y47395000D03*
X62105000Y47395000D03*
G04 #@! TD*
G04 #@! TO.C,C917*
X54395000Y64205000D03*
X48695000Y64205000D03*
G04 #@! TD*
G04 #@! TO.C,C916*
X38995000Y58605000D03*
X33295000Y58605000D03*
G04 #@! TD*
G04 #@! TO.C,C910*
X23595000Y-2695000D03*
X17895000Y-2695000D03*
G04 #@! TD*
G04 #@! TO.C,C909*
X56405000Y69795000D03*
X62105000Y69795000D03*
G04 #@! TD*
G04 #@! TO.C,C907*
X38995000Y64205000D03*
X33295000Y64205000D03*
G04 #@! TD*
G04 #@! TO.C,C906*
X25605000Y8495000D03*
X31305000Y8495000D03*
G04 #@! TD*
G04 #@! TO.C,C592*
X-23595000Y64195000D03*
X-17895000Y64195000D03*
G04 #@! TD*
G04 #@! TO.C,C585*
X-23595000Y52995000D03*
X-17895000Y52995000D03*
G04 #@! TD*
G04 #@! TO.C,C583*
X-23595000Y47395000D03*
X-17895000Y47395000D03*
G04 #@! TD*
G04 #@! TO.C,C578*
X-23595000Y58595000D03*
X-17895000Y58595000D03*
G04 #@! TD*
G04 #@! TO.C,C599*
X-23595000Y92195000D03*
X-17895000Y92195000D03*
G04 #@! TD*
G04 #@! TO.C,C565*
X-23595000Y80995000D03*
X-17895000Y80995000D03*
G04 #@! TD*
G04 #@! TO.C,C559*
X-23595000Y86595000D03*
X-17895000Y86595000D03*
G04 #@! TD*
G04 #@! TO.C,C554*
X-23595000Y75395000D03*
X-17895000Y75395000D03*
G04 #@! TD*
G04 #@! TO.C,C701*
X-56405000Y26205000D03*
X-62105000Y26205000D03*
G04 #@! TD*
G04 #@! TO.C,C693*
X-56405000Y31805000D03*
X-62105000Y31805000D03*
G04 #@! TD*
G04 #@! TO.C,C518*
X-23595000Y97795000D03*
X-17895000Y97795000D03*
G04 #@! TD*
G04 #@! TO.C,C923*
X25605000Y108995000D03*
X31305000Y108995000D03*
G04 #@! TD*
G04 #@! TO.C,C681*
X-56405000Y-1795000D03*
X-62105000Y-1795000D03*
G04 #@! TD*
D11*
G04 #@! TO.C,TP3*
X28400000Y34000000D03*
D12*
X30800000Y34000000D03*
X30097056Y32302944D03*
X28400000Y31600000D03*
X26702944Y32302944D03*
X26000000Y34000000D03*
X26702944Y35697056D03*
X28400000Y36400000D03*
X30097056Y35697056D03*
G04 #@! TD*
D11*
G04 #@! TO.C,TP4*
X28400000Y24500000D03*
D12*
X30800000Y24500000D03*
X30097056Y22802944D03*
X28400000Y22100000D03*
X26702944Y22802944D03*
X26000000Y24500000D03*
X26702944Y26197056D03*
X28400000Y26900000D03*
X30097056Y26197056D03*
G04 #@! TD*
D11*
G04 #@! TO.C,TP1*
X-28400000Y34000000D03*
D12*
X-26000000Y34000000D03*
X-26702944Y32302944D03*
X-28400000Y31600000D03*
X-30097056Y32302944D03*
X-30800000Y34000000D03*
X-30097056Y35697056D03*
X-28400000Y36400000D03*
X-26702944Y35697056D03*
G04 #@! TD*
D11*
G04 #@! TO.C,TP2*
X-28400000Y24500000D03*
D12*
X-26000000Y24500000D03*
X-26702944Y22802944D03*
X-28400000Y22100000D03*
X-30097056Y22802944D03*
X-30800000Y24500000D03*
X-30097056Y26197056D03*
X-28400000Y26900000D03*
X-26702944Y26197056D03*
G04 #@! TD*
M02*
