G04 #@! TF.GenerationSoftware,KiCad,Pcbnew,(5.0.0)*
G04 #@! TF.CreationDate,2019-05-01T16:30:08-07:00*
G04 #@! TF.ProjectId,SSB Cap Board,5353422043617020426F6172642E6B69,rev?*
G04 #@! TF.SameCoordinates,Original*
G04 #@! TF.FileFunction,Copper,L2,Bot,Signal*
G04 #@! TF.FilePolarity,Positive*
%FSLAX46Y46*%
G04 Gerber Fmt 4.6, Leading zero omitted, Abs format (unit mm)*
G04 Created by KiCad (PCBNEW (5.0.0)) date 05/01/19 16:30:08*
%MOMM*%
%LPD*%
G01*
G04 APERTURE LIST*
G04 #@! TA.AperFunction,SMDPad,CuDef*
%ADD10R,1.250000X5.000000*%
G04 #@! TD*
G04 #@! TA.AperFunction,ComponentPad*
%ADD11C,6.400000*%
G04 #@! TD*
G04 #@! TA.AperFunction,ComponentPad*
%ADD12C,0.800000*%
G04 #@! TD*
G04 #@! TA.AperFunction,ViaPad*
%ADD13C,0.889000*%
G04 #@! TD*
G04 #@! TA.AperFunction,Conductor*
%ADD14C,0.254000*%
G04 #@! TD*
G04 APERTURE END LIST*
D10*
G04 #@! TO.P,C342,1*
G04 #@! TO.N,/C1+*
X-38995000Y-1805000D03*
G04 #@! TO.P,C342,2*
G04 #@! TO.N,/C1-*
X-33295000Y-1805000D03*
G04 #@! TD*
G04 #@! TO.P,C341,1*
G04 #@! TO.N,/C1+*
X-41080365Y-1795000D03*
G04 #@! TO.P,C341,2*
G04 #@! TO.N,/C1-*
X-46780365Y-1795000D03*
G04 #@! TD*
G04 #@! TO.P,C340,1*
G04 #@! TO.N,/C1+*
X-23595000Y3795000D03*
G04 #@! TO.P,C340,2*
G04 #@! TO.N,/C1-*
X-17895000Y3795000D03*
G04 #@! TD*
G04 #@! TO.P,C339,1*
G04 #@! TO.N,/C1+*
X-10205000Y-1795000D03*
G04 #@! TO.P,C339,2*
G04 #@! TO.N,/C1-*
X-15905000Y-1795000D03*
G04 #@! TD*
G04 #@! TO.P,C338,1*
G04 #@! TO.N,/C1+*
X-56405000Y41805000D03*
G04 #@! TO.P,C338,2*
G04 #@! TO.N,/C1-*
X-62105000Y41805000D03*
G04 #@! TD*
G04 #@! TO.P,C336,1*
G04 #@! TO.N,/C1+*
X-25605000Y-1795000D03*
G04 #@! TO.P,C336,2*
G04 #@! TO.N,/C1-*
X-31305000Y-1795000D03*
G04 #@! TD*
G04 #@! TO.P,C335,1*
G04 #@! TO.N,/C1+*
X-54395000Y26295000D03*
G04 #@! TO.P,C335,2*
G04 #@! TO.N,/C1-*
X-48695000Y26295000D03*
G04 #@! TD*
G04 #@! TO.P,C334,1*
G04 #@! TO.N,/C1+*
X-41005000Y3805000D03*
G04 #@! TO.P,C334,2*
G04 #@! TO.N,/C1-*
X-46705000Y3805000D03*
G04 #@! TD*
G04 #@! TO.P,C333,1*
G04 #@! TO.N,/C1+*
X-41005000Y31805000D03*
G04 #@! TO.P,C333,2*
G04 #@! TO.N,/C1-*
X-46705000Y31805000D03*
G04 #@! TD*
G04 #@! TO.P,C332,1*
G04 #@! TO.N,/C1+*
X-23595000Y-1805000D03*
G04 #@! TO.P,C332,2*
G04 #@! TO.N,/C1-*
X-17895000Y-1805000D03*
G04 #@! TD*
G04 #@! TO.P,C376,1*
G04 #@! TO.N,/C1+*
X-10205000Y3805000D03*
G04 #@! TO.P,C376,2*
G04 #@! TO.N,/C1-*
X-15905000Y3805000D03*
G04 #@! TD*
G04 #@! TO.P,C328,1*
G04 #@! TO.N,/C1+*
X-56405000Y47405000D03*
G04 #@! TO.P,C328,2*
G04 #@! TO.N,/C1-*
X-62105000Y47405000D03*
G04 #@! TD*
G04 #@! TO.P,C327,1*
G04 #@! TO.N,/C1+*
X-54395000Y97795000D03*
G04 #@! TO.P,C327,2*
G04 #@! TO.N,/C1-*
X-48695000Y97795000D03*
G04 #@! TD*
G04 #@! TO.P,C325,1*
G04 #@! TO.N,/C1+*
X-54395000Y20695000D03*
G04 #@! TO.P,C325,2*
G04 #@! TO.N,/C1-*
X-48695000Y20695000D03*
G04 #@! TD*
G04 #@! TO.P,C324,1*
G04 #@! TO.N,/C1+*
X-41005000Y9405000D03*
G04 #@! TO.P,C324,2*
G04 #@! TO.N,/C1-*
X-46705000Y9405000D03*
G04 #@! TD*
G04 #@! TO.P,C322,1*
G04 #@! TO.N,/C1+*
X-54395000Y-1805000D03*
G04 #@! TO.P,C322,2*
G04 #@! TO.N,/C1-*
X-48695000Y-1805000D03*
G04 #@! TD*
G04 #@! TO.P,C321,1*
G04 #@! TO.N,/C1+*
X-10205000Y9405000D03*
G04 #@! TO.P,C321,2*
G04 #@! TO.N,/C1-*
X-15905000Y9405000D03*
G04 #@! TD*
G04 #@! TO.P,C320,1*
G04 #@! TO.N,/C1+*
X-56405000Y53005000D03*
G04 #@! TO.P,C320,2*
G04 #@! TO.N,/C1-*
X-62105000Y53005000D03*
G04 #@! TD*
G04 #@! TO.P,C319,1*
G04 #@! TO.N,/C1+*
X-54395000Y92195000D03*
G04 #@! TO.P,C319,2*
G04 #@! TO.N,/C1-*
X-48695000Y92195000D03*
G04 #@! TD*
G04 #@! TO.P,C318,1*
G04 #@! TO.N,/C1+*
X5295000Y41805000D03*
G04 #@! TO.P,C318,2*
G04 #@! TO.N,/C1-*
X-405000Y41805000D03*
G04 #@! TD*
G04 #@! TO.P,C317,1*
G04 #@! TO.N,/C1+*
X-25605000Y9405000D03*
G04 #@! TO.P,C317,2*
G04 #@! TO.N,/C1-*
X-31305000Y9405000D03*
G04 #@! TD*
G04 #@! TO.P,C316,1*
G04 #@! TO.N,/C1+*
X-54395000Y15095000D03*
G04 #@! TO.P,C316,2*
G04 #@! TO.N,/C1-*
X-48695000Y15095000D03*
G04 #@! TD*
G04 #@! TO.P,C331,1*
G04 #@! TO.N,/C1+*
X-41005000Y15005000D03*
G04 #@! TO.P,C331,2*
G04 #@! TO.N,/C1-*
X-46705000Y15005000D03*
G04 #@! TD*
G04 #@! TO.P,C330,1*
G04 #@! TO.N,/C1+*
X-38995000Y26195000D03*
G04 #@! TO.P,C330,2*
G04 #@! TO.N,/C1-*
X-33295000Y26195000D03*
G04 #@! TD*
G04 #@! TO.P,C329,1*
G04 #@! TO.N,/C1+*
X5295000Y3805000D03*
G04 #@! TO.P,C329,2*
G04 #@! TO.N,/C1-*
X-405000Y3805000D03*
G04 #@! TD*
G04 #@! TO.P,C374,1*
G04 #@! TO.N,/C1+*
X-10205000Y15005000D03*
G04 #@! TO.P,C374,2*
G04 #@! TO.N,/C1-*
X-15905000Y15005000D03*
G04 #@! TD*
G04 #@! TO.P,C373,1*
G04 #@! TO.N,/C1+*
X-56405000Y58605000D03*
G04 #@! TO.P,C373,2*
G04 #@! TO.N,/C1-*
X-62105000Y58605000D03*
G04 #@! TD*
G04 #@! TO.P,C372,1*
G04 #@! TO.N,/C1+*
X-54395000Y86595000D03*
G04 #@! TO.P,C372,2*
G04 #@! TO.N,/C1-*
X-48695000Y86595000D03*
G04 #@! TD*
G04 #@! TO.P,C371,1*
G04 #@! TO.N,/C1+*
X7305000Y92195000D03*
G04 #@! TO.P,C371,2*
G04 #@! TO.N,/C1-*
X13005000Y92195000D03*
G04 #@! TD*
G04 #@! TO.P,C370,1*
G04 #@! TO.N,/C1+*
X-54395000Y3795000D03*
G04 #@! TO.P,C370,2*
G04 #@! TO.N,/C1-*
X-48695000Y3795000D03*
G04 #@! TD*
G04 #@! TO.P,C369,1*
G04 #@! TO.N,/C1+*
X5295000Y47405000D03*
G04 #@! TO.P,C369,2*
G04 #@! TO.N,/C1-*
X-405000Y47405000D03*
G04 #@! TD*
G04 #@! TO.P,C368,1*
G04 #@! TO.N,/C1+*
X-8195000Y103395000D03*
G04 #@! TO.P,C368,2*
G04 #@! TO.N,/C1-*
X-2495000Y103395000D03*
G04 #@! TD*
G04 #@! TO.P,C367,1*
G04 #@! TO.N,/C1+*
X-54395000Y9495000D03*
G04 #@! TO.P,C367,2*
G04 #@! TO.N,/C1-*
X-48695000Y9495000D03*
G04 #@! TD*
G04 #@! TO.P,C366,1*
G04 #@! TO.N,/C1+*
X-41005000Y20605000D03*
G04 #@! TO.P,C366,2*
G04 #@! TO.N,/C1-*
X-46705000Y20605000D03*
G04 #@! TD*
G04 #@! TO.P,C365,1*
G04 #@! TO.N,/C1+*
X-38995000Y20595000D03*
G04 #@! TO.P,C365,2*
G04 #@! TO.N,/C1-*
X-33295000Y20595000D03*
G04 #@! TD*
G04 #@! TO.P,C364,1*
G04 #@! TO.N,/C1+*
X5295000Y9405000D03*
G04 #@! TO.P,C364,2*
G04 #@! TO.N,/C1-*
X-405000Y9405000D03*
G04 #@! TD*
G04 #@! TO.P,C363,1*
G04 #@! TO.N,/C1+*
X-10205000Y20605000D03*
G04 #@! TO.P,C363,2*
G04 #@! TO.N,/C1-*
X-15905000Y20605000D03*
G04 #@! TD*
G04 #@! TO.P,C346,1*
G04 #@! TO.N,/C1+*
X-56405000Y64205000D03*
G04 #@! TO.P,C346,2*
G04 #@! TO.N,/C1-*
X-62105000Y64205000D03*
G04 #@! TD*
G04 #@! TO.P,C344,1*
G04 #@! TO.N,/C1+*
X-54395000Y80995000D03*
G04 #@! TO.P,C344,2*
G04 #@! TO.N,/C1-*
X-48695000Y80995000D03*
G04 #@! TD*
G04 #@! TO.P,C359,1*
G04 #@! TO.N,/C1+*
X7305000Y86595000D03*
G04 #@! TO.P,C359,2*
G04 #@! TO.N,/C1-*
X13005000Y86595000D03*
G04 #@! TD*
G04 #@! TO.P,C358,1*
G04 #@! TO.N,/C1+*
X5295000Y53005000D03*
G04 #@! TO.P,C358,2*
G04 #@! TO.N,/C1-*
X-405000Y53005000D03*
G04 #@! TD*
G04 #@! TO.P,C357,1*
G04 #@! TO.N,/C1+*
X-8195000Y97795000D03*
G04 #@! TO.P,C357,2*
G04 #@! TO.N,/C1-*
X-2495000Y97795000D03*
G04 #@! TD*
G04 #@! TO.P,C356,1*
G04 #@! TO.N,/C1+*
X-25605000Y15005000D03*
G04 #@! TO.P,C356,2*
G04 #@! TO.N,/C1-*
X-31305000Y15005000D03*
G04 #@! TD*
G04 #@! TO.P,C355,1*
G04 #@! TO.N,/C1+*
X-56405000Y9405000D03*
G04 #@! TO.P,C355,2*
G04 #@! TO.N,/C1-*
X-62105000Y9405000D03*
G04 #@! TD*
G04 #@! TO.P,C354,1*
G04 #@! TO.N,/C1+*
X-41005000Y26205000D03*
G04 #@! TO.P,C354,2*
G04 #@! TO.N,/C1-*
X-46705000Y26205000D03*
G04 #@! TD*
G04 #@! TO.P,C353,1*
G04 #@! TO.N,/C1+*
X-38995000Y14995000D03*
G04 #@! TO.P,C353,2*
G04 #@! TO.N,/C1-*
X-33295000Y14995000D03*
G04 #@! TD*
G04 #@! TO.P,C352,1*
G04 #@! TO.N,/C1+*
X5295000Y15005000D03*
G04 #@! TO.P,C352,2*
G04 #@! TO.N,/C1-*
X-405000Y15005000D03*
G04 #@! TD*
G04 #@! TO.P,C351,1*
G04 #@! TO.N,/C1+*
X-10205000Y26205000D03*
G04 #@! TO.P,C351,2*
G04 #@! TO.N,/C1-*
X-15905000Y26205000D03*
G04 #@! TD*
G04 #@! TO.P,C350,1*
G04 #@! TO.N,/C1+*
X-56405000Y69805000D03*
G04 #@! TO.P,C350,2*
G04 #@! TO.N,/C1-*
X-62105000Y69805000D03*
G04 #@! TD*
G04 #@! TO.P,C349,1*
G04 #@! TO.N,/C1+*
X-54395000Y75395000D03*
G04 #@! TO.P,C349,2*
G04 #@! TO.N,/C1-*
X-48695000Y75395000D03*
G04 #@! TD*
G04 #@! TO.P,C348,1*
G04 #@! TO.N,/C1+*
X7305000Y80995000D03*
G04 #@! TO.P,C348,2*
G04 #@! TO.N,/C1-*
X13005000Y80995000D03*
G04 #@! TD*
G04 #@! TO.P,C347,1*
G04 #@! TO.N,/C1+*
X5295000Y58605000D03*
G04 #@! TO.P,C347,2*
G04 #@! TO.N,/C1-*
X-405000Y58605000D03*
G04 #@! TD*
G04 #@! TO.P,C362,1*
G04 #@! TO.N,/C1+*
X-8195000Y92195000D03*
G04 #@! TO.P,C362,2*
G04 #@! TO.N,/C1-*
X-2495000Y92195000D03*
G04 #@! TD*
G04 #@! TO.P,C361,1*
G04 #@! TO.N,/C1+*
X-10205000Y47405000D03*
G04 #@! TO.P,C361,2*
G04 #@! TO.N,/C1-*
X-15905000Y47405000D03*
G04 #@! TD*
G04 #@! TO.P,C360,1*
G04 #@! TO.N,/C1+*
X-8195000Y31795000D03*
G04 #@! TO.P,C360,2*
G04 #@! TO.N,/C1-*
X-2495000Y31795000D03*
G04 #@! TD*
G04 #@! TO.P,C279,1*
G04 #@! TO.N,/C1+*
X-56405000Y103405000D03*
G04 #@! TO.P,C279,2*
G04 #@! TO.N,/C1-*
X-62105000Y103405000D03*
G04 #@! TD*
G04 #@! TO.P,C278,1*
G04 #@! TO.N,/C1+*
X7305000Y75395000D03*
G04 #@! TO.P,C278,2*
G04 #@! TO.N,/C1-*
X13005000Y75395000D03*
G04 #@! TD*
G04 #@! TO.P,C277,1*
G04 #@! TO.N,/C1+*
X-8195000Y80995000D03*
G04 #@! TO.P,C277,2*
G04 #@! TO.N,/C1-*
X-2495000Y80995000D03*
G04 #@! TD*
G04 #@! TO.P,C276,1*
G04 #@! TO.N,/C1+*
X7305000Y103395000D03*
G04 #@! TO.P,C276,2*
G04 #@! TO.N,/C1-*
X13005000Y103395000D03*
G04 #@! TD*
G04 #@! TO.P,C275,1*
G04 #@! TO.N,/C1+*
X-23595000Y9395000D03*
G04 #@! TO.P,C275,2*
G04 #@! TO.N,/C1-*
X-17895000Y9395000D03*
G04 #@! TD*
G04 #@! TO.P,C274,1*
G04 #@! TO.N,/C1+*
X-10205000Y41805000D03*
G04 #@! TO.P,C274,2*
G04 #@! TO.N,/C1-*
X-15905000Y41805000D03*
G04 #@! TD*
G04 #@! TO.P,C272,1*
G04 #@! TO.N,/C1+*
X-54395000Y52995000D03*
G04 #@! TO.P,C272,2*
G04 #@! TO.N,/C1-*
X-48695000Y52995000D03*
G04 #@! TD*
G04 #@! TO.P,C271,1*
G04 #@! TO.N,/C1+*
X7305000Y58595000D03*
G04 #@! TO.P,C271,2*
G04 #@! TO.N,/C1-*
X13005000Y58595000D03*
G04 #@! TD*
G04 #@! TO.P,C270,1*
G04 #@! TO.N,/C1+*
X5295000Y81005000D03*
G04 #@! TO.P,C270,2*
G04 #@! TO.N,/C1-*
X-405000Y81005000D03*
G04 #@! TD*
G04 #@! TO.P,C269,1*
G04 #@! TO.N,/C1+*
X-8195000Y69795000D03*
G04 #@! TO.P,C269,2*
G04 #@! TO.N,/C1-*
X-2495000Y69795000D03*
G04 #@! TD*
G04 #@! TO.P,C315,1*
G04 #@! TO.N,/C1+*
X-10205000Y69805000D03*
G04 #@! TO.P,C315,2*
G04 #@! TO.N,/C1-*
X-15905000Y69805000D03*
G04 #@! TD*
G04 #@! TO.P,C267,1*
G04 #@! TO.N,/C1+*
X-54395000Y103395000D03*
G04 #@! TO.P,C267,2*
G04 #@! TO.N,/C1-*
X-48695000Y103395000D03*
G04 #@! TD*
G04 #@! TO.P,C313,1*
G04 #@! TO.N,/C1+*
X-8195000Y14995000D03*
G04 #@! TO.P,C313,2*
G04 #@! TO.N,/C1-*
X-2495000Y14995000D03*
G04 #@! TD*
G04 #@! TO.P,C312,1*
G04 #@! TO.N,/C1+*
X5295000Y103405000D03*
G04 #@! TO.P,C312,2*
G04 #@! TO.N,/C1-*
X-405000Y103405000D03*
G04 #@! TD*
G04 #@! TO.P,C263,1*
G04 #@! TO.N,/C1+*
X-10205000Y81005000D03*
G04 #@! TO.P,C263,2*
G04 #@! TO.N,/C1-*
X-15905000Y81005000D03*
G04 #@! TD*
G04 #@! TO.P,C256,1*
G04 #@! TO.N,/C1+*
X7305000Y41795000D03*
G04 #@! TO.P,C256,2*
G04 #@! TO.N,/C1-*
X13005000Y41795000D03*
G04 #@! TD*
G04 #@! TO.P,C254,1*
G04 #@! TO.N,/C1+*
X5295000Y97805000D03*
G04 #@! TO.P,C254,2*
G04 #@! TO.N,/C1-*
X-405000Y97805000D03*
G04 #@! TD*
G04 #@! TO.P,C253,1*
G04 #@! TO.N,/C1+*
X-8195000Y52995000D03*
G04 #@! TO.P,C253,2*
G04 #@! TO.N,/C1-*
X-2495000Y52995000D03*
G04 #@! TD*
G04 #@! TO.P,C268,1*
G04 #@! TO.N,/C1+*
X-10205000Y86605000D03*
G04 #@! TO.P,C268,2*
G04 #@! TO.N,/C1-*
X-15905000Y86605000D03*
G04 #@! TD*
G04 #@! TO.P,C307,1*
G04 #@! TO.N,/C1+*
X-8195000Y108995000D03*
G04 #@! TO.P,C307,2*
G04 #@! TO.N,/C1-*
X-2495000Y108995000D03*
G04 #@! TD*
G04 #@! TO.P,C306,1*
G04 #@! TO.N,/C1+*
X-8195000Y47395000D03*
G04 #@! TO.P,C306,2*
G04 #@! TO.N,/C1-*
X-2495000Y47395000D03*
G04 #@! TD*
G04 #@! TO.P,C305,1*
G04 #@! TO.N,/C1+*
X-10205000Y92205000D03*
G04 #@! TO.P,C305,2*
G04 #@! TO.N,/C1-*
X-15905000Y92205000D03*
G04 #@! TD*
G04 #@! TO.P,C297,1*
G04 #@! TO.N,/C1+*
X-8195000Y41795000D03*
G04 #@! TO.P,C297,2*
G04 #@! TO.N,/C1-*
X-2495000Y41795000D03*
G04 #@! TD*
G04 #@! TO.P,C280,1*
G04 #@! TO.N,/C1+*
X-10205000Y97805000D03*
G04 #@! TO.P,C280,2*
G04 #@! TO.N,/C1-*
X-15905000Y97805000D03*
G04 #@! TD*
G04 #@! TO.P,C290,1*
G04 #@! TO.N,/C1+*
X7305000Y97795000D03*
G04 #@! TO.P,C290,2*
G04 #@! TO.N,/C1-*
X13005000Y97795000D03*
G04 #@! TD*
G04 #@! TO.P,C288,1*
G04 #@! TO.N,/C1+*
X-10205000Y103405000D03*
G04 #@! TO.P,C288,2*
G04 #@! TO.N,/C1-*
X-15905000Y103405000D03*
G04 #@! TD*
G04 #@! TO.P,C375,1*
G04 #@! TO.N,/C1+*
X-54395000Y47395000D03*
G04 #@! TO.P,C375,2*
G04 #@! TO.N,/C1-*
X-48695000Y47395000D03*
G04 #@! TD*
G04 #@! TO.P,C441,1*
G04 #@! TO.N,/C1+*
X-23595000Y103395000D03*
G04 #@! TO.P,C441,2*
G04 #@! TO.N,/C1-*
X-17895000Y103395000D03*
G04 #@! TD*
G04 #@! TO.P,C393,1*
G04 #@! TO.N,/C1+*
X-38995000Y103395000D03*
G04 #@! TO.P,C393,2*
G04 #@! TO.N,/C1-*
X-33295000Y103395000D03*
G04 #@! TD*
G04 #@! TO.P,C391,1*
G04 #@! TO.N,/C1+*
X-38995000Y108995000D03*
G04 #@! TO.P,C391,2*
G04 #@! TO.N,/C1-*
X-33295000Y108995000D03*
G04 #@! TD*
G04 #@! TO.P,C410,1*
G04 #@! TO.N,/C1+*
X-23595000Y69795000D03*
G04 #@! TO.P,C410,2*
G04 #@! TO.N,/C1-*
X-17895000Y69795000D03*
G04 #@! TD*
G04 #@! TO.P,C408,1*
G04 #@! TO.N,/C1+*
X-23595000Y41795000D03*
G04 #@! TO.P,C408,2*
G04 #@! TO.N,/C1-*
X-17895000Y41795000D03*
G04 #@! TD*
G04 #@! TO.P,C69,1*
G04 #@! TO.N,/C1+*
X20795000Y86605000D03*
G04 #@! TO.P,C69,2*
G04 #@! TO.N,/C1-*
X15095000Y86605000D03*
G04 #@! TD*
G04 #@! TO.P,C67,1*
G04 #@! TO.N,/C1+*
X7305000Y3795000D03*
G04 #@! TO.P,C67,2*
G04 #@! TO.N,/C1-*
X13005000Y3795000D03*
G04 #@! TD*
G04 #@! TO.P,C66,1*
G04 #@! TO.N,/C1+*
X7305000Y26195000D03*
G04 #@! TO.P,C66,2*
G04 #@! TO.N,/C1-*
X13005000Y26195000D03*
G04 #@! TD*
G04 #@! TO.P,C65,1*
G04 #@! TO.N,/C1+*
X20795000Y47405000D03*
G04 #@! TO.P,C65,2*
G04 #@! TO.N,/C1-*
X15095000Y47405000D03*
G04 #@! TD*
G04 #@! TO.P,C79,1*
G04 #@! TO.N,/C1+*
X-25605000Y47511105D03*
G04 #@! TO.P,C79,2*
G04 #@! TO.N,/C1-*
X-31305000Y47511105D03*
G04 #@! TD*
G04 #@! TO.P,C124,1*
G04 #@! TO.N,/C1+*
X-41005000Y47405000D03*
G04 #@! TO.P,C124,2*
G04 #@! TO.N,/C1-*
X-46705000Y47405000D03*
G04 #@! TD*
G04 #@! TO.P,C123,1*
G04 #@! TO.N,/C1+*
X-38995000Y92195000D03*
G04 #@! TO.P,C123,2*
G04 #@! TO.N,/C1-*
X-33295000Y92195000D03*
G04 #@! TD*
G04 #@! TO.P,C122,1*
G04 #@! TO.N,/C1+*
X20795000Y41805000D03*
G04 #@! TO.P,C122,2*
G04 #@! TO.N,/C1-*
X15095000Y41805000D03*
G04 #@! TD*
G04 #@! TO.P,C121,1*
G04 #@! TO.N,/C1+*
X20795000Y103415470D03*
G04 #@! TO.P,C121,2*
G04 #@! TO.N,/C1-*
X15095000Y103415470D03*
G04 #@! TD*
G04 #@! TO.P,C117,1*
G04 #@! TO.N,/C1+*
X-25605000Y92205000D03*
G04 #@! TO.P,C117,2*
G04 #@! TO.N,/C1-*
X-31305000Y92205000D03*
G04 #@! TD*
G04 #@! TO.P,C116,1*
G04 #@! TO.N,/C1+*
X-25605000Y53005000D03*
G04 #@! TO.P,C116,2*
G04 #@! TO.N,/C1-*
X-31305000Y53005000D03*
G04 #@! TD*
G04 #@! TO.P,C115,1*
G04 #@! TO.N,/C1+*
X-41005000Y53005000D03*
G04 #@! TO.P,C115,2*
G04 #@! TO.N,/C1-*
X-46705000Y53005000D03*
G04 #@! TD*
G04 #@! TO.P,C114,1*
G04 #@! TO.N,/C1+*
X-38995000Y86595000D03*
G04 #@! TO.P,C114,2*
G04 #@! TO.N,/C1-*
X-33295000Y86595000D03*
G04 #@! TD*
G04 #@! TO.P,C113,1*
G04 #@! TO.N,/C1+*
X-23504500Y31731500D03*
G04 #@! TO.P,C113,2*
G04 #@! TO.N,/C1-*
X-17804500Y31731500D03*
G04 #@! TD*
G04 #@! TO.P,C112,1*
G04 #@! TO.N,/C1+*
X-25605000Y81005000D03*
G04 #@! TO.P,C112,2*
G04 #@! TO.N,/C1-*
X-31305000Y81005000D03*
G04 #@! TD*
G04 #@! TO.P,C111,1*
G04 #@! TO.N,/C1+*
X-41005000Y81005000D03*
G04 #@! TO.P,C111,2*
G04 #@! TO.N,/C1-*
X-46705000Y81005000D03*
G04 #@! TD*
G04 #@! TO.P,C159,1*
G04 #@! TO.N,/C1+*
X-38995000Y58595000D03*
G04 #@! TO.P,C159,2*
G04 #@! TO.N,/C1-*
X-33295000Y58595000D03*
G04 #@! TD*
G04 #@! TO.P,C109,1*
G04 #@! TO.N,/C1+*
X20795000Y75405000D03*
G04 #@! TO.P,C109,2*
G04 #@! TO.N,/C1-*
X15095000Y75405000D03*
G04 #@! TD*
G04 #@! TO.P,C107,1*
G04 #@! TO.N,/C1+*
X7305000Y20595000D03*
G04 #@! TO.P,C107,2*
G04 #@! TO.N,/C1-*
X13005000Y20595000D03*
G04 #@! TD*
G04 #@! TO.P,C104,1*
G04 #@! TO.N,/C1+*
X7305000Y9395000D03*
G04 #@! TO.P,C104,2*
G04 #@! TO.N,/C1-*
X13005000Y9395000D03*
G04 #@! TD*
G04 #@! TO.P,C103,1*
G04 #@! TO.N,/C1+*
X-25605000Y103405000D03*
G04 #@! TO.P,C103,2*
G04 #@! TO.N,/C1-*
X-31305000Y103405000D03*
G04 #@! TD*
G04 #@! TO.P,C102,1*
G04 #@! TO.N,/C1+*
X-25605000Y64205000D03*
G04 #@! TO.P,C102,2*
G04 #@! TO.N,/C1-*
X-31305000Y64205000D03*
G04 #@! TD*
G04 #@! TO.P,C101,1*
G04 #@! TO.N,/C1+*
X-41005000Y64205000D03*
G04 #@! TO.P,C101,2*
G04 #@! TO.N,/C1-*
X-46705000Y64205000D03*
G04 #@! TD*
G04 #@! TO.P,C100,1*
G04 #@! TO.N,/C1+*
X-38995000Y75395000D03*
G04 #@! TO.P,C100,2*
G04 #@! TO.N,/C1-*
X-33295000Y75395000D03*
G04 #@! TD*
G04 #@! TO.P,C99,1*
G04 #@! TO.N,/C1+*
X20795000Y58605000D03*
G04 #@! TO.P,C99,2*
G04 #@! TO.N,/C1-*
X15095000Y58605000D03*
G04 #@! TD*
G04 #@! TO.P,C98,1*
G04 #@! TO.N,/C1+*
X-41005000Y103405000D03*
G04 #@! TO.P,C98,2*
G04 #@! TO.N,/C1-*
X-46705000Y103405000D03*
G04 #@! TD*
G04 #@! TO.P,C29,1*
G04 #@! TO.N,/C1+*
X-10205000Y109005000D03*
G04 #@! TO.P,C29,2*
G04 #@! TO.N,/C1-*
X-15905000Y109005000D03*
G04 #@! TD*
G04 #@! TO.P,C28,1*
G04 #@! TO.N,/C1+*
X7305000Y31795000D03*
G04 #@! TO.P,C28,2*
G04 #@! TO.N,/C1-*
X13005000Y31795000D03*
G04 #@! TD*
G04 #@! TO.P,C27,1*
G04 #@! TO.N,/C1+*
X-8195000Y3795000D03*
G04 #@! TO.P,C27,2*
G04 #@! TO.N,/C1-*
X-2495000Y3795000D03*
G04 #@! TD*
G04 #@! TO.P,C26,1*
G04 #@! TO.N,/C1+*
X-25605000Y41805000D03*
G04 #@! TO.P,C26,2*
G04 #@! TO.N,/C1-*
X-31305000Y41805000D03*
G04 #@! TD*
G04 #@! TO.P,C25,1*
G04 #@! TO.N,/C1+*
X-41005000Y41805000D03*
G04 #@! TO.P,C25,2*
G04 #@! TO.N,/C1-*
X-46705000Y41805000D03*
G04 #@! TD*
G04 #@! TO.P,C24,1*
G04 #@! TO.N,/C1+*
X-38995000Y97795000D03*
G04 #@! TO.P,C24,2*
G04 #@! TO.N,/C1-*
X-33295000Y97795000D03*
G04 #@! TD*
G04 #@! TO.P,C21,1*
G04 #@! TO.N,/C1+*
X5295000Y109005000D03*
G04 #@! TO.P,C21,2*
G04 #@! TO.N,/C1-*
X-405000Y109005000D03*
G04 #@! TD*
G04 #@! TO.P,C20,1*
G04 #@! TO.N,/C1+*
X-41005000Y69805000D03*
G04 #@! TO.P,C20,2*
G04 #@! TO.N,/C1-*
X-46705000Y69805000D03*
G04 #@! TD*
G04 #@! TO.P,C19,1*
G04 #@! TO.N,/C1+*
X-38995000Y69795000D03*
G04 #@! TO.P,C19,2*
G04 #@! TO.N,/C1-*
X-33295000Y69795000D03*
G04 #@! TD*
G04 #@! TO.P,C18,1*
G04 #@! TO.N,/C1+*
X20795000Y64205000D03*
G04 #@! TO.P,C18,2*
G04 #@! TO.N,/C1-*
X15095000Y64205000D03*
G04 #@! TD*
G04 #@! TO.P,C64,1*
G04 #@! TO.N,/C1+*
X-41005000Y109005000D03*
G04 #@! TO.P,C64,2*
G04 #@! TO.N,/C1-*
X-46705000Y109005000D03*
G04 #@! TD*
G04 #@! TO.P,C5,1*
G04 #@! TO.N,/C1+*
X-23595000Y108995000D03*
G04 #@! TO.P,C5,2*
G04 #@! TO.N,/C1-*
X-17895000Y108995000D03*
G04 #@! TD*
G04 #@! TO.P,C6,1*
G04 #@! TO.N,/C1+*
X-25605000Y75405000D03*
G04 #@! TO.P,C6,2*
G04 #@! TO.N,/C1-*
X-31305000Y75405000D03*
G04 #@! TD*
G04 #@! TO.P,C7,1*
G04 #@! TO.N,/C1+*
X-41005000Y75405000D03*
G04 #@! TO.P,C7,2*
G04 #@! TO.N,/C1-*
X-46705000Y75405000D03*
G04 #@! TD*
G04 #@! TO.P,C8,1*
G04 #@! TO.N,/C1+*
X-38995000Y64195000D03*
G04 #@! TO.P,C8,2*
G04 #@! TO.N,/C1-*
X-33295000Y64195000D03*
G04 #@! TD*
G04 #@! TO.P,C9,1*
G04 #@! TO.N,/C1+*
X20795000Y69805000D03*
G04 #@! TO.P,C9,2*
G04 #@! TO.N,/C1-*
X15095000Y69805000D03*
G04 #@! TD*
G04 #@! TO.P,C17,1*
G04 #@! TO.N,/C1+*
X-56405000Y15005000D03*
G04 #@! TO.P,C17,2*
G04 #@! TO.N,/C1-*
X-62105000Y15005000D03*
G04 #@! TD*
G04 #@! TO.P,C58,1*
G04 #@! TO.N,/C1+*
X-25605000Y86605000D03*
G04 #@! TO.P,C58,2*
G04 #@! TO.N,/C1-*
X-31305000Y86605000D03*
G04 #@! TD*
G04 #@! TO.P,C57,1*
G04 #@! TO.N,/C1+*
X-38995000Y47395000D03*
G04 #@! TO.P,C57,2*
G04 #@! TO.N,/C1-*
X-33295000Y47395000D03*
G04 #@! TD*
G04 #@! TO.P,C56,1*
G04 #@! TO.N,/C1+*
X-41005000Y86605000D03*
G04 #@! TO.P,C56,2*
G04 #@! TO.N,/C1-*
X-46705000Y86605000D03*
G04 #@! TD*
G04 #@! TO.P,C55,1*
G04 #@! TO.N,/C1+*
X-38995000Y52995000D03*
G04 #@! TO.P,C55,2*
G04 #@! TO.N,/C1-*
X-33295000Y52995000D03*
G04 #@! TD*
G04 #@! TO.P,C54,1*
G04 #@! TO.N,/C1+*
X20795000Y81005000D03*
G04 #@! TO.P,C54,2*
G04 #@! TO.N,/C1-*
X15095000Y81005000D03*
G04 #@! TD*
G04 #@! TO.P,C52,1*
G04 #@! TO.N,/C1+*
X-25605000Y109005000D03*
G04 #@! TO.P,C52,2*
G04 #@! TO.N,/C1-*
X-31305000Y109005000D03*
G04 #@! TD*
G04 #@! TO.P,C30,1*
G04 #@! TO.N,/C1+*
X-41005000Y92205000D03*
G04 #@! TO.P,C30,2*
G04 #@! TO.N,/C1-*
X-46705000Y92205000D03*
G04 #@! TD*
G04 #@! TO.P,C42,1*
G04 #@! TO.N,/C1+*
X-25605000Y69805000D03*
G04 #@! TO.P,C42,2*
G04 #@! TO.N,/C1-*
X-31305000Y69805000D03*
G04 #@! TD*
G04 #@! TO.P,C218,1*
G04 #@! TO.N,/C1+*
X-8195000Y58595000D03*
G04 #@! TO.P,C218,2*
G04 #@! TO.N,/C1-*
X-2495000Y58595000D03*
G04 #@! TD*
G04 #@! TO.P,C217,1*
G04 #@! TO.N,/C1+*
X5295000Y92205000D03*
G04 #@! TO.P,C217,2*
G04 #@! TO.N,/C1-*
X-405000Y92205000D03*
G04 #@! TD*
G04 #@! TO.P,C216,1*
G04 #@! TO.N,/C1+*
X7305000Y47395000D03*
G04 #@! TO.P,C216,2*
G04 #@! TO.N,/C1-*
X13005000Y47395000D03*
G04 #@! TD*
G04 #@! TO.P,C214,1*
G04 #@! TO.N,/C1+*
X-54395000Y41795000D03*
G04 #@! TO.P,C214,2*
G04 #@! TO.N,/C1-*
X-48695000Y41795000D03*
G04 #@! TD*
G04 #@! TO.P,C210,1*
G04 #@! TO.N,/C1+*
X-8195000Y9395000D03*
G04 #@! TO.P,C210,2*
G04 #@! TO.N,/C1-*
X-2495000Y9395000D03*
G04 #@! TD*
G04 #@! TO.P,C208,1*
G04 #@! TO.N,/C1+*
X-10205000Y75405000D03*
G04 #@! TO.P,C208,2*
G04 #@! TO.N,/C1-*
X-15905000Y75405000D03*
G04 #@! TD*
G04 #@! TO.P,C207,1*
G04 #@! TO.N,/C1+*
X-8195000Y64195000D03*
G04 #@! TO.P,C207,2*
G04 #@! TO.N,/C1-*
X-2495000Y64195000D03*
G04 #@! TD*
G04 #@! TO.P,C206,1*
G04 #@! TO.N,/C1+*
X5295000Y86605000D03*
G04 #@! TO.P,C206,2*
G04 #@! TO.N,/C1-*
X-405000Y86605000D03*
G04 #@! TD*
G04 #@! TO.P,C205,1*
G04 #@! TO.N,/C1+*
X7305000Y52995000D03*
G04 #@! TO.P,C205,2*
G04 #@! TO.N,/C1-*
X13005000Y52995000D03*
G04 #@! TD*
G04 #@! TO.P,C202,1*
G04 #@! TO.N,/C1+*
X-56405000Y97805000D03*
G04 #@! TO.P,C202,2*
G04 #@! TO.N,/C1-*
X-62105000Y97805000D03*
G04 #@! TD*
G04 #@! TO.P,C204,1*
G04 #@! TO.N,/C1+*
X-8195000Y20595000D03*
G04 #@! TO.P,C204,2*
G04 #@! TO.N,/C1-*
X-2495000Y20595000D03*
G04 #@! TD*
G04 #@! TO.P,C250,1*
G04 #@! TO.N,/C1+*
X-54395000Y108995000D03*
G04 #@! TO.P,C250,2*
G04 #@! TO.N,/C1-*
X-48695000Y108995000D03*
G04 #@! TD*
G04 #@! TO.P,C249,1*
G04 #@! TO.N,/C1+*
X-10205000Y64205000D03*
G04 #@! TO.P,C249,2*
G04 #@! TO.N,/C1-*
X-15905000Y64205000D03*
G04 #@! TD*
G04 #@! TO.P,C248,1*
G04 #@! TO.N,/C1+*
X-8195000Y75395000D03*
G04 #@! TO.P,C248,2*
G04 #@! TO.N,/C1-*
X-2495000Y75395000D03*
G04 #@! TD*
G04 #@! TO.P,C247,1*
G04 #@! TO.N,/C1+*
X5295000Y75405000D03*
G04 #@! TO.P,C247,2*
G04 #@! TO.N,/C1-*
X-405000Y75405000D03*
G04 #@! TD*
G04 #@! TO.P,C246,1*
G04 #@! TO.N,/C1+*
X7305000Y64195000D03*
G04 #@! TO.P,C246,2*
G04 #@! TO.N,/C1-*
X13005000Y64195000D03*
G04 #@! TD*
G04 #@! TO.P,C245,1*
G04 #@! TO.N,/C1+*
X-54395000Y58595000D03*
G04 #@! TO.P,C245,2*
G04 #@! TO.N,/C1-*
X-48695000Y58595000D03*
G04 #@! TD*
G04 #@! TO.P,C244,1*
G04 #@! TO.N,/C1+*
X-56405000Y86605000D03*
G04 #@! TO.P,C244,2*
G04 #@! TO.N,/C1-*
X-62105000Y86605000D03*
G04 #@! TD*
G04 #@! TO.P,C243,1*
G04 #@! TO.N,/C1+*
X-23595000Y14995000D03*
G04 #@! TO.P,C243,2*
G04 #@! TO.N,/C1-*
X-17895000Y14995000D03*
G04 #@! TD*
G04 #@! TO.P,C242,1*
G04 #@! TO.N,/C1+*
X7305000Y108995000D03*
G04 #@! TO.P,C242,2*
G04 #@! TO.N,/C1-*
X13005000Y108995000D03*
G04 #@! TD*
G04 #@! TO.P,C241,1*
G04 #@! TO.N,/C1+*
X5295000Y31805000D03*
G04 #@! TO.P,C241,2*
G04 #@! TO.N,/C1-*
X-405000Y31805000D03*
G04 #@! TD*
G04 #@! TO.P,C240,1*
G04 #@! TO.N,/C1+*
X-8195000Y26195000D03*
G04 #@! TO.P,C240,2*
G04 #@! TO.N,/C1-*
X-2495000Y26195000D03*
G04 #@! TD*
G04 #@! TO.P,C238,1*
G04 #@! TO.N,/C1+*
X-10205000Y58605000D03*
G04 #@! TO.P,C238,2*
G04 #@! TO.N,/C1-*
X-15905000Y58605000D03*
G04 #@! TD*
G04 #@! TO.P,C219,1*
G04 #@! TO.N,/C1+*
X5295000Y69805000D03*
G04 #@! TO.P,C219,2*
G04 #@! TO.N,/C1-*
X-405000Y69805000D03*
G04 #@! TD*
G04 #@! TO.P,C235,1*
G04 #@! TO.N,/C1+*
X7305000Y69795000D03*
G04 #@! TO.P,C235,2*
G04 #@! TO.N,/C1-*
X13005000Y69795000D03*
G04 #@! TD*
G04 #@! TO.P,C234,1*
G04 #@! TO.N,/C1+*
X-54395000Y64195000D03*
G04 #@! TO.P,C234,2*
G04 #@! TO.N,/C1-*
X-48695000Y64195000D03*
G04 #@! TD*
G04 #@! TO.P,C233,1*
G04 #@! TO.N,/C1+*
X-56405000Y81005000D03*
G04 #@! TO.P,C233,2*
G04 #@! TO.N,/C1-*
X-62105000Y81005000D03*
G04 #@! TD*
G04 #@! TO.P,C231,1*
G04 #@! TO.N,/C1+*
X5295000Y26205000D03*
G04 #@! TO.P,C231,2*
G04 #@! TO.N,/C1-*
X-405000Y26205000D03*
G04 #@! TD*
G04 #@! TO.P,C230,1*
G04 #@! TO.N,/C1+*
X-56405000Y92205000D03*
G04 #@! TO.P,C230,2*
G04 #@! TO.N,/C1-*
X-62105000Y92205000D03*
G04 #@! TD*
G04 #@! TO.P,C229,1*
G04 #@! TO.N,/C1+*
X-38995000Y9395000D03*
G04 #@! TO.P,C229,2*
G04 #@! TO.N,/C1-*
X-33295000Y9395000D03*
G04 #@! TD*
G04 #@! TO.P,C228,1*
G04 #@! TO.N,/C1+*
X5295000Y20605000D03*
G04 #@! TO.P,C228,2*
G04 #@! TO.N,/C1-*
X-405000Y20605000D03*
G04 #@! TD*
G04 #@! TO.P,C227,1*
G04 #@! TO.N,/C1+*
X-10205000Y31805000D03*
G04 #@! TO.P,C227,2*
G04 #@! TO.N,/C1-*
X-15905000Y31805000D03*
G04 #@! TD*
G04 #@! TO.P,C226,1*
G04 #@! TO.N,/C1+*
X-56405000Y75405000D03*
G04 #@! TO.P,C226,2*
G04 #@! TO.N,/C1-*
X-62105000Y75405000D03*
G04 #@! TD*
G04 #@! TO.P,C225,1*
G04 #@! TO.N,/C1+*
X-54395000Y69795000D03*
G04 #@! TO.P,C225,2*
G04 #@! TO.N,/C1-*
X-48695000Y69795000D03*
G04 #@! TD*
G04 #@! TO.P,C224,1*
G04 #@! TO.N,/C1+*
X5295000Y64205000D03*
G04 #@! TO.P,C224,2*
G04 #@! TO.N,/C1-*
X-405000Y64205000D03*
G04 #@! TD*
G04 #@! TO.P,C223,1*
G04 #@! TO.N,/C1+*
X-8195000Y86595000D03*
G04 #@! TO.P,C223,2*
G04 #@! TO.N,/C1-*
X-2495000Y86595000D03*
G04 #@! TD*
G04 #@! TO.P,C222,1*
G04 #@! TO.N,/C1+*
X-10205000Y53005000D03*
G04 #@! TO.P,C222,2*
G04 #@! TO.N,/C1-*
X-15905000Y53005000D03*
G04 #@! TD*
G04 #@! TO.P,C237,1*
G04 #@! TO.N,/C1+*
X-56405000Y109005000D03*
G04 #@! TO.P,C237,2*
G04 #@! TO.N,/C1-*
X-62105000Y109005000D03*
G04 #@! TD*
G04 #@! TO.P,C220,1*
G04 #@! TO.N,/C1+*
X-38995000Y3795000D03*
G04 #@! TO.P,C220,2*
G04 #@! TO.N,/C1-*
X-33295000Y3795000D03*
G04 #@! TD*
G04 #@! TO.P,C151,1*
G04 #@! TO.N,/C1+*
X-38995000Y41795000D03*
G04 #@! TO.P,C151,2*
G04 #@! TO.N,/C1-*
X-33295000Y41795000D03*
G04 #@! TD*
G04 #@! TO.P,C150,1*
G04 #@! TO.N,/C1+*
X20795000Y97805000D03*
G04 #@! TO.P,C150,2*
G04 #@! TO.N,/C1-*
X15095000Y97805000D03*
G04 #@! TD*
G04 #@! TO.P,C130,1*
G04 #@! TO.N,/C1+*
X20795000Y92205000D03*
G04 #@! TO.P,C130,2*
G04 #@! TO.N,/C1-*
X15095000Y92205000D03*
G04 #@! TD*
G04 #@! TO.P,C129,1*
G04 #@! TO.N,/C1+*
X20795000Y109005000D03*
G04 #@! TO.P,C129,2*
G04 #@! TO.N,/C1-*
X15095000Y109005000D03*
G04 #@! TD*
G04 #@! TO.P,C141,1*
G04 #@! TO.N,/C1+*
X7305000Y14995000D03*
G04 #@! TO.P,C141,2*
G04 #@! TO.N,/C1-*
X13005000Y14995000D03*
G04 #@! TD*
G04 #@! TO.P,C187,1*
G04 #@! TO.N,/C1+*
X-25605000Y97805000D03*
G04 #@! TO.P,C187,2*
G04 #@! TO.N,/C1-*
X-31305000Y97805000D03*
G04 #@! TD*
G04 #@! TO.P,C186,1*
G04 #@! TO.N,/C1+*
X-25605000Y58605000D03*
G04 #@! TO.P,C186,2*
G04 #@! TO.N,/C1-*
X-31305000Y58605000D03*
G04 #@! TD*
G04 #@! TO.P,C185,1*
G04 #@! TO.N,/C1+*
X-41005000Y58605000D03*
G04 #@! TO.P,C185,2*
G04 #@! TO.N,/C1-*
X-46705000Y58605000D03*
G04 #@! TD*
G04 #@! TO.P,C184,1*
G04 #@! TO.N,/C1+*
X-38995000Y80995000D03*
G04 #@! TO.P,C184,2*
G04 #@! TO.N,/C1-*
X-33295000Y80995000D03*
G04 #@! TD*
G04 #@! TO.P,C183,1*
G04 #@! TO.N,/C1+*
X20795000Y53005000D03*
G04 #@! TO.P,C183,2*
G04 #@! TO.N,/C1-*
X15095000Y53005000D03*
G04 #@! TD*
G04 #@! TO.P,C182,1*
G04 #@! TO.N,/C1+*
X-41005000Y97805000D03*
G04 #@! TO.P,C182,2*
G04 #@! TO.N,/C1-*
X-46705000Y97805000D03*
G04 #@! TD*
G04 #@! TO.P,C181,1*
G04 #@! TO.N,/C1+*
X-56405000Y20605000D03*
G04 #@! TO.P,C181,2*
G04 #@! TO.N,/C1-*
X-62105000Y20605000D03*
G04 #@! TD*
G04 #@! TO.P,C221,1*
G04 #@! TO.N,/C1+*
X-25605000Y3805000D03*
G04 #@! TO.P,C221,2*
G04 #@! TO.N,/C1-*
X-31305000Y3805000D03*
G04 #@! TD*
G04 #@! TO.P,C345,1*
G04 #@! TO.N,/C1+*
X-56405000Y3805000D03*
G04 #@! TO.P,C345,2*
G04 #@! TO.N,/C1-*
X-62105000Y3805000D03*
G04 #@! TD*
G04 #@! TO.P,C236,1*
G04 #@! TO.N,/C1+*
X-54395000Y31895000D03*
G04 #@! TO.P,C236,2*
G04 #@! TO.N,/C1-*
X-48695000Y31895000D03*
G04 #@! TD*
G04 #@! TO.P,C844,1*
G04 #@! TO.N,/C2+*
X54395000Y19705000D03*
G04 #@! TO.P,C844,2*
G04 #@! TO.N,/C2-*
X48695000Y19705000D03*
G04 #@! TD*
G04 #@! TO.P,C843,1*
G04 #@! TO.N,/C2+*
X56405000Y19695000D03*
G04 #@! TO.P,C843,2*
G04 #@! TO.N,/C2-*
X62105000Y19695000D03*
G04 #@! TD*
G04 #@! TO.P,C842,1*
G04 #@! TO.N,/C2+*
X41005000Y75395000D03*
G04 #@! TO.P,C842,2*
G04 #@! TO.N,/C2-*
X46705000Y75395000D03*
G04 #@! TD*
G04 #@! TO.P,C836,1*
G04 #@! TO.N,/C2+*
X38995000Y2905000D03*
G04 #@! TO.P,C836,2*
G04 #@! TO.N,/C2-*
X33295000Y2905000D03*
G04 #@! TD*
G04 #@! TO.P,C815,1*
G04 #@! TO.N,/C2+*
X41005000Y69795000D03*
G04 #@! TO.P,C815,2*
G04 #@! TO.N,/C2-*
X46705000Y69795000D03*
G04 #@! TD*
G04 #@! TO.P,C829,1*
G04 #@! TO.N,/C2+*
X54395000Y25305000D03*
G04 #@! TO.P,C829,2*
G04 #@! TO.N,/C2-*
X48695000Y25305000D03*
G04 #@! TD*
G04 #@! TO.P,C828,1*
G04 #@! TO.N,/C2+*
X41005000Y-2705000D03*
G04 #@! TO.P,C828,2*
G04 #@! TO.N,/C2-*
X46705000Y-2705000D03*
G04 #@! TD*
G04 #@! TO.P,C826,1*
G04 #@! TO.N,/C2+*
X25605000Y103395000D03*
G04 #@! TO.P,C826,2*
G04 #@! TO.N,/C2-*
X31305000Y103395000D03*
G04 #@! TD*
G04 #@! TO.P,C824,1*
G04 #@! TO.N,/C2+*
X25605000Y69795000D03*
G04 #@! TO.P,C824,2*
G04 #@! TO.N,/C2-*
X31305000Y69795000D03*
G04 #@! TD*
G04 #@! TO.P,C823,1*
G04 #@! TO.N,/C2+*
X41005000Y19695000D03*
G04 #@! TO.P,C823,2*
G04 #@! TO.N,/C2-*
X46705000Y19695000D03*
G04 #@! TD*
G04 #@! TO.P,C822,1*
G04 #@! TO.N,/C2+*
X38995000Y8505000D03*
G04 #@! TO.P,C822,2*
G04 #@! TO.N,/C2-*
X33295000Y8505000D03*
G04 #@! TD*
G04 #@! TO.P,C821,1*
G04 #@! TO.N,/C2+*
X25605000Y64195000D03*
G04 #@! TO.P,C821,2*
G04 #@! TO.N,/C2-*
X31305000Y64195000D03*
G04 #@! TD*
G04 #@! TO.P,C817,1*
G04 #@! TO.N,/C2+*
X41005000Y97795000D03*
G04 #@! TO.P,C817,2*
G04 #@! TO.N,/C2-*
X46705000Y97795000D03*
G04 #@! TD*
G04 #@! TO.P,C816,1*
G04 #@! TO.N,/C2+*
X41005000Y103395000D03*
G04 #@! TO.P,C816,2*
G04 #@! TO.N,/C2-*
X46705000Y103395000D03*
G04 #@! TD*
G04 #@! TO.P,C831,1*
G04 #@! TO.N,/C2+*
X54395000Y-2695000D03*
G04 #@! TO.P,C831,2*
G04 #@! TO.N,/C2-*
X48695000Y-2695000D03*
G04 #@! TD*
G04 #@! TO.P,C875,1*
G04 #@! TO.N,/C2+*
X41005000Y25295000D03*
G04 #@! TO.P,C875,2*
G04 #@! TO.N,/C2-*
X46705000Y25295000D03*
G04 #@! TD*
G04 #@! TO.P,C874,1*
G04 #@! TO.N,/C2+*
X41005000Y92195000D03*
G04 #@! TO.P,C874,2*
G04 #@! TO.N,/C2-*
X46705000Y92195000D03*
G04 #@! TD*
G04 #@! TO.P,C873,1*
G04 #@! TO.N,/C2+*
X54395000Y2905000D03*
G04 #@! TO.P,C873,2*
G04 #@! TO.N,/C2-*
X48695000Y2905000D03*
G04 #@! TD*
G04 #@! TO.P,C871,1*
G04 #@! TO.N,/C2+*
X23595000Y2905000D03*
G04 #@! TO.P,C871,2*
G04 #@! TO.N,/C2-*
X17895000Y2905000D03*
G04 #@! TD*
G04 #@! TO.P,C869,1*
G04 #@! TO.N,/C2+*
X41005000Y109095000D03*
G04 #@! TO.P,C869,2*
G04 #@! TO.N,/C2-*
X46705000Y109095000D03*
G04 #@! TD*
G04 #@! TO.P,C868,1*
G04 #@! TO.N,/C2+*
X38995000Y109005000D03*
G04 #@! TO.P,C868,2*
G04 #@! TO.N,/C2-*
X33295000Y109005000D03*
G04 #@! TD*
G04 #@! TO.P,C867,1*
G04 #@! TO.N,/C2+*
X41005000Y30895000D03*
G04 #@! TO.P,C867,2*
G04 #@! TO.N,/C2-*
X46705000Y30895000D03*
G04 #@! TD*
G04 #@! TO.P,C866,1*
G04 #@! TO.N,/C2+*
X38995000Y-2695000D03*
G04 #@! TO.P,C866,2*
G04 #@! TO.N,/C2-*
X33295000Y-2695000D03*
G04 #@! TD*
G04 #@! TO.P,C865,1*
G04 #@! TO.N,/C2+*
X25605000Y75395000D03*
G04 #@! TO.P,C865,2*
G04 #@! TO.N,/C2-*
X31305000Y75395000D03*
G04 #@! TD*
G04 #@! TO.P,C863,1*
G04 #@! TO.N,/C2+*
X56405000Y108995000D03*
G04 #@! TO.P,C863,2*
G04 #@! TO.N,/C2-*
X62105000Y108995000D03*
G04 #@! TD*
G04 #@! TO.P,C854,1*
G04 #@! TO.N,/C2+*
X41005000Y58595000D03*
G04 #@! TO.P,C854,2*
G04 #@! TO.N,/C2-*
X46705000Y58595000D03*
G04 #@! TD*
G04 #@! TO.P,C853,1*
G04 #@! TO.N,/C2+*
X56405000Y2895000D03*
G04 #@! TO.P,C853,2*
G04 #@! TO.N,/C2-*
X62105000Y2895000D03*
G04 #@! TD*
G04 #@! TO.P,C852,1*
G04 #@! TO.N,/C2+*
X25605000Y86595000D03*
G04 #@! TO.P,C852,2*
G04 #@! TO.N,/C2-*
X31305000Y86595000D03*
G04 #@! TD*
G04 #@! TO.P,C851,1*
G04 #@! TO.N,/C2+*
X56405000Y-2705000D03*
G04 #@! TO.P,C851,2*
G04 #@! TO.N,/C2-*
X62105000Y-2705000D03*
G04 #@! TD*
G04 #@! TO.P,C850,1*
G04 #@! TO.N,/C2+*
X25605000Y92195000D03*
G04 #@! TO.P,C850,2*
G04 #@! TO.N,/C2-*
X31305000Y92195000D03*
G04 #@! TD*
G04 #@! TO.P,C814,1*
G04 #@! TO.N,/C2+*
X41005000Y64195000D03*
G04 #@! TO.P,C814,2*
G04 #@! TO.N,/C2-*
X46705000Y64195000D03*
G04 #@! TD*
G04 #@! TO.P,C812,1*
G04 #@! TO.N,/C2+*
X56405000Y8495000D03*
G04 #@! TO.P,C812,2*
G04 #@! TO.N,/C2-*
X62105000Y8495000D03*
G04 #@! TD*
G04 #@! TO.P,C811,1*
G04 #@! TO.N,/C2+*
X54395000Y30905000D03*
G04 #@! TO.P,C811,2*
G04 #@! TO.N,/C2-*
X48695000Y30905000D03*
G04 #@! TD*
G04 #@! TO.P,C810,1*
G04 #@! TO.N,/C2+*
X25605000Y97795000D03*
G04 #@! TO.P,C810,2*
G04 #@! TO.N,/C2-*
X31305000Y97795000D03*
G04 #@! TD*
G04 #@! TO.P,C809,1*
G04 #@! TO.N,/C2+*
X25605000Y41795000D03*
G04 #@! TO.P,C809,2*
G04 #@! TO.N,/C2-*
X31305000Y41795000D03*
G04 #@! TD*
G04 #@! TO.P,C808,1*
G04 #@! TO.N,/C2+*
X23595000Y14105000D03*
G04 #@! TO.P,C808,2*
G04 #@! TO.N,/C2-*
X17895000Y14105000D03*
G04 #@! TD*
G04 #@! TO.P,C807,1*
G04 #@! TO.N,/C2+*
X25605000Y80995000D03*
G04 #@! TO.P,C807,2*
G04 #@! TO.N,/C2-*
X31305000Y80995000D03*
G04 #@! TD*
G04 #@! TO.P,C804,1*
G04 #@! TO.N,/C2+*
X41005000Y2895000D03*
G04 #@! TO.P,C804,2*
G04 #@! TO.N,/C2-*
X46705000Y2895000D03*
G04 #@! TD*
G04 #@! TO.P,C803,1*
G04 #@! TO.N,/C2+*
X38995000Y25305000D03*
G04 #@! TO.P,C803,2*
G04 #@! TO.N,/C2-*
X33295000Y25305000D03*
G04 #@! TD*
G04 #@! TO.P,C802,1*
G04 #@! TO.N,/C2+*
X25605000Y47395000D03*
G04 #@! TO.P,C802,2*
G04 #@! TO.N,/C2-*
X31305000Y47395000D03*
G04 #@! TD*
G04 #@! TO.P,C861,1*
G04 #@! TO.N,/C2+*
X56405000Y103395000D03*
G04 #@! TO.P,C861,2*
G04 #@! TO.N,/C2-*
X62105000Y103395000D03*
G04 #@! TD*
G04 #@! TO.P,C968,1*
G04 #@! TO.N,/C2+*
X56405000Y14095000D03*
G04 #@! TO.P,C968,2*
G04 #@! TO.N,/C2-*
X62105000Y14095000D03*
G04 #@! TD*
G04 #@! TO.P,C964,1*
G04 #@! TO.N,/C2+*
X56405000Y97795000D03*
G04 #@! TO.P,C964,2*
G04 #@! TO.N,/C2-*
X62105000Y97795000D03*
G04 #@! TD*
G04 #@! TO.P,C963,1*
G04 #@! TO.N,/C2+*
X23595000Y8505000D03*
G04 #@! TO.P,C963,2*
G04 #@! TO.N,/C2-*
X17895000Y8505000D03*
G04 #@! TD*
G04 #@! TO.P,C962,1*
G04 #@! TO.N,/C2+*
X54395000Y41805000D03*
G04 #@! TO.P,C962,2*
G04 #@! TO.N,/C2-*
X48695000Y41805000D03*
G04 #@! TD*
G04 #@! TO.P,C953,1*
G04 #@! TO.N,/C2+*
X56405000Y92195000D03*
G04 #@! TO.P,C953,2*
G04 #@! TO.N,/C2-*
X62105000Y92195000D03*
G04 #@! TD*
G04 #@! TO.P,C951,1*
G04 #@! TO.N,/C2+*
X41005000Y41795000D03*
G04 #@! TO.P,C951,2*
G04 #@! TO.N,/C2-*
X46705000Y41795000D03*
G04 #@! TD*
G04 #@! TO.P,C950,1*
G04 #@! TO.N,/C2+*
X38995000Y41805000D03*
G04 #@! TO.P,C950,2*
G04 #@! TO.N,/C2-*
X33295000Y41805000D03*
G04 #@! TD*
G04 #@! TO.P,C948,1*
G04 #@! TO.N,/C2+*
X54395000Y69805000D03*
G04 #@! TO.P,C948,2*
G04 #@! TO.N,/C2-*
X48695000Y69805000D03*
G04 #@! TD*
G04 #@! TO.P,C947,1*
G04 #@! TO.N,/C2+*
X56405000Y58595000D03*
G04 #@! TO.P,C947,2*
G04 #@! TO.N,/C2-*
X62105000Y58595000D03*
G04 #@! TD*
G04 #@! TO.P,C946,1*
G04 #@! TO.N,/C2+*
X54395000Y81005000D03*
G04 #@! TO.P,C946,2*
G04 #@! TO.N,/C2-*
X48695000Y81005000D03*
G04 #@! TD*
G04 #@! TO.P,C945,1*
G04 #@! TO.N,/C2+*
X38995000Y75405000D03*
G04 #@! TO.P,C945,2*
G04 #@! TO.N,/C2-*
X33295000Y75405000D03*
G04 #@! TD*
G04 #@! TO.P,C944,1*
G04 #@! TO.N,/C2+*
X25605000Y-2705000D03*
G04 #@! TO.P,C944,2*
G04 #@! TO.N,/C2-*
X31305000Y-2705000D03*
G04 #@! TD*
G04 #@! TO.P,C941,1*
G04 #@! TO.N,/C2+*
X56405000Y52995000D03*
G04 #@! TO.P,C941,2*
G04 #@! TO.N,/C2-*
X62105000Y52995000D03*
G04 #@! TD*
G04 #@! TO.P,C940,1*
G04 #@! TO.N,/C2+*
X54395000Y86605000D03*
G04 #@! TO.P,C940,2*
G04 #@! TO.N,/C2-*
X48695000Y86605000D03*
G04 #@! TD*
G04 #@! TO.P,C876,1*
G04 #@! TO.N,/C2+*
X38995000Y81005000D03*
G04 #@! TO.P,C876,2*
G04 #@! TO.N,/C2-*
X33295000Y81005000D03*
G04 #@! TD*
G04 #@! TO.P,C999,1*
G04 #@! TO.N,/C2+*
X54395000Y109005000D03*
G04 #@! TO.P,C999,2*
G04 #@! TO.N,/C2-*
X48695000Y109005000D03*
G04 #@! TD*
G04 #@! TO.P,C998,1*
G04 #@! TO.N,/C2+*
X54395000Y47405000D03*
G04 #@! TO.P,C998,2*
G04 #@! TO.N,/C2-*
X48695000Y47405000D03*
G04 #@! TD*
G04 #@! TO.P,C992,1*
G04 #@! TO.N,/C2+*
X56405000Y86595000D03*
G04 #@! TO.P,C992,2*
G04 #@! TO.N,/C2-*
X62105000Y86595000D03*
G04 #@! TD*
G04 #@! TO.P,C991,1*
G04 #@! TO.N,/C2+*
X54395000Y53005000D03*
G04 #@! TO.P,C991,2*
G04 #@! TO.N,/C2-*
X48695000Y53005000D03*
G04 #@! TD*
G04 #@! TO.P,C990,1*
G04 #@! TO.N,/C2+*
X38995000Y47405000D03*
G04 #@! TO.P,C990,2*
G04 #@! TO.N,/C2-*
X33295000Y47405000D03*
G04 #@! TD*
G04 #@! TO.P,C980,1*
G04 #@! TO.N,/C2+*
X56405000Y80995000D03*
G04 #@! TO.P,C980,2*
G04 #@! TO.N,/C2-*
X62105000Y80995000D03*
G04 #@! TD*
G04 #@! TO.P,C979,1*
G04 #@! TO.N,/C2+*
X54395000Y58605000D03*
G04 #@! TO.P,C979,2*
G04 #@! TO.N,/C2-*
X48695000Y58605000D03*
G04 #@! TD*
G04 #@! TO.P,C978,1*
G04 #@! TO.N,/C2+*
X38995000Y53005000D03*
G04 #@! TO.P,C978,2*
G04 #@! TO.N,/C2-*
X33295000Y53005000D03*
G04 #@! TD*
G04 #@! TO.P,C977,1*
G04 #@! TO.N,/C2+*
X25605000Y14095000D03*
G04 #@! TO.P,C977,2*
G04 #@! TO.N,/C2-*
X31305000Y14095000D03*
G04 #@! TD*
G04 #@! TO.P,C971,1*
G04 #@! TO.N,/C2+*
X41005000Y52995000D03*
G04 #@! TO.P,C971,2*
G04 #@! TO.N,/C2-*
X46705000Y52995000D03*
G04 #@! TD*
G04 #@! TO.P,C902,1*
G04 #@! TO.N,/C2+*
X56405000Y75395000D03*
G04 #@! TO.P,C902,2*
G04 #@! TO.N,/C2-*
X62105000Y75395000D03*
G04 #@! TD*
G04 #@! TO.P,C901,1*
G04 #@! TO.N,/C2+*
X56405000Y64195000D03*
G04 #@! TO.P,C901,2*
G04 #@! TO.N,/C2-*
X62105000Y64195000D03*
G04 #@! TD*
G04 #@! TO.P,C900,1*
G04 #@! TO.N,/C2+*
X54395000Y75405000D03*
G04 #@! TO.P,C900,2*
G04 #@! TO.N,/C2-*
X48695000Y75405000D03*
G04 #@! TD*
G04 #@! TO.P,C899,1*
G04 #@! TO.N,/C2+*
X38995000Y69805000D03*
G04 #@! TO.P,C899,2*
G04 #@! TO.N,/C2-*
X33295000Y69805000D03*
G04 #@! TD*
G04 #@! TO.P,C898,1*
G04 #@! TO.N,/C2+*
X25605000Y2895000D03*
G04 #@! TO.P,C898,2*
G04 #@! TO.N,/C2-*
X31305000Y2895000D03*
G04 #@! TD*
G04 #@! TO.P,C895,1*
G04 #@! TO.N,/C2+*
X41005000Y47395000D03*
G04 #@! TO.P,C895,2*
G04 #@! TO.N,/C2-*
X46705000Y47395000D03*
G04 #@! TD*
G04 #@! TO.P,C937,1*
G04 #@! TO.N,/C2+*
X25605000Y58595000D03*
G04 #@! TO.P,C937,2*
G04 #@! TO.N,/C2-*
X31305000Y58595000D03*
G04 #@! TD*
G04 #@! TO.P,C889,1*
G04 #@! TO.N,/C2+*
X38995000Y14105000D03*
G04 #@! TO.P,C889,2*
G04 #@! TO.N,/C2-*
X33295000Y14105000D03*
G04 #@! TD*
G04 #@! TO.P,C888,1*
G04 #@! TO.N,/C2+*
X41005000Y14095000D03*
G04 #@! TO.P,C888,2*
G04 #@! TO.N,/C2-*
X46705000Y14095000D03*
G04 #@! TD*
G04 #@! TO.P,C887,1*
G04 #@! TO.N,/C2+*
X54395000Y8505000D03*
G04 #@! TO.P,C887,2*
G04 #@! TO.N,/C2-*
X48695000Y8505000D03*
G04 #@! TD*
G04 #@! TO.P,C885,1*
G04 #@! TO.N,/C2+*
X41005000Y86595000D03*
G04 #@! TO.P,C885,2*
G04 #@! TO.N,/C2-*
X46705000Y86595000D03*
G04 #@! TD*
G04 #@! TO.P,C879,1*
G04 #@! TO.N,/C2+*
X25605000Y52995000D03*
G04 #@! TO.P,C879,2*
G04 #@! TO.N,/C2-*
X31305000Y52995000D03*
G04 #@! TD*
G04 #@! TO.P,C878,1*
G04 #@! TO.N,/C2+*
X38995000Y19705000D03*
G04 #@! TO.P,C878,2*
G04 #@! TO.N,/C2-*
X33295000Y19705000D03*
G04 #@! TD*
G04 #@! TO.P,C877,1*
G04 #@! TO.N,/C2+*
X41005000Y8495000D03*
G04 #@! TO.P,C877,2*
G04 #@! TO.N,/C2-*
X46705000Y8495000D03*
G04 #@! TD*
G04 #@! TO.P,C892,1*
G04 #@! TO.N,/C2+*
X54395000Y14105000D03*
G04 #@! TO.P,C892,2*
G04 #@! TO.N,/C2-*
X48695000Y14105000D03*
G04 #@! TD*
G04 #@! TO.P,C891,1*
G04 #@! TO.N,/C2+*
X56405000Y25195000D03*
G04 #@! TO.P,C891,2*
G04 #@! TO.N,/C2-*
X62105000Y25195000D03*
G04 #@! TD*
G04 #@! TO.P,C890,1*
G04 #@! TO.N,/C2+*
X41005000Y80995000D03*
G04 #@! TO.P,C890,2*
G04 #@! TO.N,/C2-*
X46705000Y80995000D03*
G04 #@! TD*
G04 #@! TO.P,C933,1*
G04 #@! TO.N,/C2+*
X56405000Y30895000D03*
G04 #@! TO.P,C933,2*
G04 #@! TO.N,/C2-*
X62105000Y30895000D03*
G04 #@! TD*
G04 #@! TO.P,C932,1*
G04 #@! TO.N,/C2+*
X54395000Y92205000D03*
G04 #@! TO.P,C932,2*
G04 #@! TO.N,/C2-*
X48695000Y92205000D03*
G04 #@! TD*
G04 #@! TO.P,C931,1*
G04 #@! TO.N,/C2+*
X38995000Y86605000D03*
G04 #@! TO.P,C931,2*
G04 #@! TO.N,/C2-*
X33295000Y86605000D03*
G04 #@! TD*
G04 #@! TO.P,C929,1*
G04 #@! TO.N,/C2+*
X56405000Y41795000D03*
G04 #@! TO.P,C929,2*
G04 #@! TO.N,/C2-*
X62105000Y41795000D03*
G04 #@! TD*
G04 #@! TO.P,C928,1*
G04 #@! TO.N,/C2+*
X54395000Y97805000D03*
G04 #@! TO.P,C928,2*
G04 #@! TO.N,/C2-*
X48695000Y97805000D03*
G04 #@! TD*
G04 #@! TO.P,C927,1*
G04 #@! TO.N,/C2+*
X38995000Y92205000D03*
G04 #@! TO.P,C927,2*
G04 #@! TO.N,/C2-*
X33295000Y92205000D03*
G04 #@! TD*
G04 #@! TO.P,C925,1*
G04 #@! TO.N,/C2+*
X54395000Y103405000D03*
G04 #@! TO.P,C925,2*
G04 #@! TO.N,/C2-*
X48695000Y103405000D03*
G04 #@! TD*
G04 #@! TO.P,C924,1*
G04 #@! TO.N,/C2+*
X38995000Y97805000D03*
G04 #@! TO.P,C924,2*
G04 #@! TO.N,/C2-*
X33295000Y97805000D03*
G04 #@! TD*
G04 #@! TO.P,C922,1*
G04 #@! TO.N,/C2+*
X38995000Y103405000D03*
G04 #@! TO.P,C922,2*
G04 #@! TO.N,/C2-*
X33295000Y103405000D03*
G04 #@! TD*
G04 #@! TO.P,C920,1*
G04 #@! TO.N,/C2+*
X56405000Y47395000D03*
G04 #@! TO.P,C920,2*
G04 #@! TO.N,/C2-*
X62105000Y47395000D03*
G04 #@! TD*
G04 #@! TO.P,C917,1*
G04 #@! TO.N,/C2+*
X54395000Y64205000D03*
G04 #@! TO.P,C917,2*
G04 #@! TO.N,/C2-*
X48695000Y64205000D03*
G04 #@! TD*
G04 #@! TO.P,C916,1*
G04 #@! TO.N,/C2+*
X38995000Y58605000D03*
G04 #@! TO.P,C916,2*
G04 #@! TO.N,/C2-*
X33295000Y58605000D03*
G04 #@! TD*
G04 #@! TO.P,C910,1*
G04 #@! TO.N,/C2+*
X23595000Y-2695000D03*
G04 #@! TO.P,C910,2*
G04 #@! TO.N,/C2-*
X17895000Y-2695000D03*
G04 #@! TD*
G04 #@! TO.P,C909,1*
G04 #@! TO.N,/C2+*
X56405000Y69795000D03*
G04 #@! TO.P,C909,2*
G04 #@! TO.N,/C2-*
X62105000Y69795000D03*
G04 #@! TD*
G04 #@! TO.P,C907,1*
G04 #@! TO.N,/C2+*
X38995000Y64205000D03*
G04 #@! TO.P,C907,2*
G04 #@! TO.N,/C2-*
X33295000Y64205000D03*
G04 #@! TD*
G04 #@! TO.P,C906,1*
G04 #@! TO.N,/C2+*
X25605000Y8495000D03*
G04 #@! TO.P,C906,2*
G04 #@! TO.N,/C2-*
X31305000Y8495000D03*
G04 #@! TD*
G04 #@! TO.P,C592,1*
G04 #@! TO.N,/C1+*
X-23595000Y64195000D03*
G04 #@! TO.P,C592,2*
G04 #@! TO.N,/C1-*
X-17895000Y64195000D03*
G04 #@! TD*
G04 #@! TO.P,C585,1*
G04 #@! TO.N,/C1+*
X-23595000Y52995000D03*
G04 #@! TO.P,C585,2*
G04 #@! TO.N,/C1-*
X-17895000Y52995000D03*
G04 #@! TD*
G04 #@! TO.P,C583,1*
G04 #@! TO.N,/C1+*
X-23595000Y47395000D03*
G04 #@! TO.P,C583,2*
G04 #@! TO.N,/C1-*
X-17895000Y47395000D03*
G04 #@! TD*
G04 #@! TO.P,C578,1*
G04 #@! TO.N,/C1+*
X-23595000Y58595000D03*
G04 #@! TO.P,C578,2*
G04 #@! TO.N,/C1-*
X-17895000Y58595000D03*
G04 #@! TD*
G04 #@! TO.P,C599,1*
G04 #@! TO.N,/C1+*
X-23595000Y92195000D03*
G04 #@! TO.P,C599,2*
G04 #@! TO.N,/C1-*
X-17895000Y92195000D03*
G04 #@! TD*
G04 #@! TO.P,C565,1*
G04 #@! TO.N,/C1+*
X-23595000Y80995000D03*
G04 #@! TO.P,C565,2*
G04 #@! TO.N,/C1-*
X-17895000Y80995000D03*
G04 #@! TD*
G04 #@! TO.P,C559,1*
G04 #@! TO.N,/C1+*
X-23595000Y86595000D03*
G04 #@! TO.P,C559,2*
G04 #@! TO.N,/C1-*
X-17895000Y86595000D03*
G04 #@! TD*
G04 #@! TO.P,C554,1*
G04 #@! TO.N,/C1+*
X-23595000Y75395000D03*
G04 #@! TO.P,C554,2*
G04 #@! TO.N,/C1-*
X-17895000Y75395000D03*
G04 #@! TD*
G04 #@! TO.P,C701,1*
G04 #@! TO.N,/C1+*
X-56405000Y26205000D03*
G04 #@! TO.P,C701,2*
G04 #@! TO.N,/C1-*
X-62105000Y26205000D03*
G04 #@! TD*
G04 #@! TO.P,C693,1*
G04 #@! TO.N,/C1+*
X-56405000Y31805000D03*
G04 #@! TO.P,C693,2*
G04 #@! TO.N,/C1-*
X-62105000Y31805000D03*
G04 #@! TD*
G04 #@! TO.P,C518,1*
G04 #@! TO.N,/C1+*
X-23595000Y97795000D03*
G04 #@! TO.P,C518,2*
G04 #@! TO.N,/C1-*
X-17895000Y97795000D03*
G04 #@! TD*
G04 #@! TO.P,C923,1*
G04 #@! TO.N,/C2+*
X25605000Y108995000D03*
G04 #@! TO.P,C923,2*
G04 #@! TO.N,/C2-*
X31305000Y108995000D03*
G04 #@! TD*
G04 #@! TO.P,C681,1*
G04 #@! TO.N,/C1+*
X-56405000Y-1795000D03*
G04 #@! TO.P,C681,2*
G04 #@! TO.N,/C1-*
X-62105000Y-1795000D03*
G04 #@! TD*
D11*
G04 #@! TO.P,TP3,1*
G04 #@! TO.N,/C2+*
X28400000Y34000000D03*
D12*
X30800000Y34000000D03*
X30097056Y32302944D03*
X28400000Y31600000D03*
X26702944Y32302944D03*
X26000000Y34000000D03*
X26702944Y35697056D03*
X28400000Y36400000D03*
X30097056Y35697056D03*
G04 #@! TD*
D11*
G04 #@! TO.P,TP4,1*
G04 #@! TO.N,/C2-*
X28400000Y24500000D03*
D12*
X30800000Y24500000D03*
X30097056Y22802944D03*
X28400000Y22100000D03*
X26702944Y22802944D03*
X26000000Y24500000D03*
X26702944Y26197056D03*
X28400000Y26900000D03*
X30097056Y26197056D03*
G04 #@! TD*
D11*
G04 #@! TO.P,TP1,1*
G04 #@! TO.N,/C1+*
X-28400000Y34000000D03*
D12*
X-26000000Y34000000D03*
X-26702944Y32302944D03*
X-28400000Y31600000D03*
X-30097056Y32302944D03*
X-30800000Y34000000D03*
X-30097056Y35697056D03*
X-28400000Y36400000D03*
X-26702944Y35697056D03*
G04 #@! TD*
D11*
G04 #@! TO.P,TP2,1*
G04 #@! TO.N,/C1-*
X-28400000Y24500000D03*
D12*
X-26000000Y24500000D03*
X-26702944Y22802944D03*
X-28400000Y22100000D03*
X-30097056Y22802944D03*
X-30800000Y24500000D03*
X-30097056Y26197056D03*
X-28400000Y26900000D03*
X-26702944Y26197056D03*
G04 #@! TD*
D13*
G04 #@! TO.N,/C1-*
X-17900000Y109000000D03*
X-17900000Y110700000D03*
X-17900000Y107300000D03*
X-17900000Y103400000D03*
X-17900000Y97800000D03*
X-17900000Y92200000D03*
X-17900000Y86600000D03*
X-17900000Y81000000D03*
X-17900000Y75400000D03*
X-17900000Y69800000D03*
X-17900000Y64200000D03*
X-17900000Y58600000D03*
X-17900000Y53000000D03*
X-17900000Y47400000D03*
X-17900000Y41800000D03*
X-17900000Y105100000D03*
X-17900000Y99500000D03*
X-17900000Y93900000D03*
X-17900000Y88300000D03*
X-17900000Y82700000D03*
X-17900000Y77100000D03*
X-17900000Y71500000D03*
X-17900000Y65900000D03*
X-17900000Y60300000D03*
X-17900000Y54700000D03*
X-17900000Y49100000D03*
X-17900000Y43500000D03*
X-17900000Y101700000D03*
X-17900000Y96100000D03*
X-17900000Y90500000D03*
X-17900000Y84900000D03*
X-17900000Y79300000D03*
X-17900000Y73700000D03*
X-17900000Y68100000D03*
X-17900000Y62500000D03*
X-17900000Y56900000D03*
X-17900000Y51300000D03*
X-17900000Y45700000D03*
X-17900000Y40100000D03*
X-31300000Y109000000D03*
X-31300000Y107300000D03*
X-31300000Y110700000D03*
X-31300000Y101700000D03*
X-31300000Y96100000D03*
X-31300000Y90500000D03*
X-31300000Y84900000D03*
X-31300000Y79300000D03*
X-31300000Y73700000D03*
X-31300000Y68100000D03*
X-31300000Y62500000D03*
X-31300000Y56900000D03*
X-31300000Y51300000D03*
X-31300000Y45700000D03*
X-31300000Y40100000D03*
X-31300000Y103400000D03*
X-31300000Y97800000D03*
X-31300000Y92200000D03*
X-31300000Y86600000D03*
X-31300000Y81000000D03*
X-31300000Y75400000D03*
X-31300000Y69800000D03*
X-31300000Y64200000D03*
X-31300000Y58600000D03*
X-31300000Y53000000D03*
X-31300000Y47400000D03*
X-31300000Y41800000D03*
X-31300000Y105100000D03*
X-31300000Y99500000D03*
X-31300000Y93900000D03*
X-31300000Y88300000D03*
X-31300000Y82700000D03*
X-31300000Y77100000D03*
X-31300000Y71500000D03*
X-31300000Y65900000D03*
X-31300000Y60300000D03*
X-31300000Y54700000D03*
X-31300000Y49100000D03*
X-31300000Y43500000D03*
X-33300000Y107300000D03*
X-33300000Y109000000D03*
X-33300000Y110700000D03*
X-33300000Y103400000D03*
X-33300000Y97800000D03*
X-33300000Y92200000D03*
X-33300000Y86600000D03*
X-33300000Y81000000D03*
X-33300000Y75400000D03*
X-33300000Y69800000D03*
X-33300000Y64200000D03*
X-33300000Y58600000D03*
X-33300000Y53000000D03*
X-33300000Y47400000D03*
X-33300000Y41800000D03*
X-33300000Y101700000D03*
X-33300000Y96100000D03*
X-33300000Y90500000D03*
X-33300000Y84900000D03*
X-33300000Y79300000D03*
X-33300000Y73700000D03*
X-33300000Y68100000D03*
X-33300000Y62500000D03*
X-33300000Y56900000D03*
X-33300000Y51300000D03*
X-33300000Y45700000D03*
X-33300000Y40100000D03*
X-33300000Y105100000D03*
X-33300000Y99500000D03*
X-33300000Y93900000D03*
X-33300000Y88300000D03*
X-33300000Y82700000D03*
X-33300000Y77100000D03*
X-33300000Y71500000D03*
X-33300000Y65900000D03*
X-33300000Y60300000D03*
X-33300000Y54700000D03*
X-33300000Y49100000D03*
X-33300000Y43500000D03*
X-46700000Y107300000D03*
X-46700000Y109000000D03*
X-46700000Y110700000D03*
X-46700000Y101700000D03*
X-46700000Y96100000D03*
X-46700000Y90500000D03*
X-46700000Y84900000D03*
X-46700000Y79300000D03*
X-46700000Y73700000D03*
X-46700000Y68100000D03*
X-46700000Y62500000D03*
X-46700000Y56900000D03*
X-46700000Y51300000D03*
X-46700000Y45700000D03*
X-46700000Y40100000D03*
X-46700000Y103400000D03*
X-46700000Y97800000D03*
X-46700000Y92200000D03*
X-46700000Y86600000D03*
X-46700000Y81000000D03*
X-46700000Y75400000D03*
X-46700000Y69800000D03*
X-46700000Y64200000D03*
X-46700000Y58600000D03*
X-46700000Y53000000D03*
X-46700000Y47400000D03*
X-46700000Y41800000D03*
X-46700000Y105100000D03*
X-46700000Y99500000D03*
X-46700000Y93900000D03*
X-46700000Y88300000D03*
X-46700000Y82700000D03*
X-46700000Y77100000D03*
X-46700000Y71500000D03*
X-46700000Y65900000D03*
X-46700000Y60300000D03*
X-46700000Y54700000D03*
X-46700000Y49100000D03*
X-46700000Y43500000D03*
X-48700000Y107300000D03*
X-48700000Y109000000D03*
X-48700000Y110700000D03*
X-48700000Y105100000D03*
X-48700000Y99500000D03*
X-48700000Y93900000D03*
X-48700000Y88300000D03*
X-48700000Y82700000D03*
X-48700000Y77100000D03*
X-48700000Y71500000D03*
X-48700000Y65900000D03*
X-48700000Y60300000D03*
X-48700000Y54700000D03*
X-48700000Y49100000D03*
X-48700000Y43500000D03*
X-48700000Y103400000D03*
X-48700000Y97800000D03*
X-48700000Y92200000D03*
X-48700000Y86600000D03*
X-48700000Y81000000D03*
X-48700000Y75400000D03*
X-48700000Y69800000D03*
X-48700000Y64200000D03*
X-48700000Y58600000D03*
X-48700000Y53000000D03*
X-48700000Y47400000D03*
X-48700000Y41800000D03*
X-48700000Y101700000D03*
X-48700000Y96100000D03*
X-48700000Y90500000D03*
X-48700000Y84900000D03*
X-48700000Y79300000D03*
X-48700000Y73700000D03*
X-48700000Y68100000D03*
X-48700000Y62500000D03*
X-48700000Y56900000D03*
X-48700000Y51300000D03*
X-48700000Y45700000D03*
X-48700000Y40100000D03*
X-62100000Y107300000D03*
X-62100000Y109000000D03*
X-62100000Y110700000D03*
X-62100000Y101700000D03*
X-62100000Y96100000D03*
X-62100000Y90500000D03*
X-62100000Y84900000D03*
X-62100000Y79300000D03*
X-62100000Y73700000D03*
X-62100000Y68100000D03*
X-62100000Y62500000D03*
X-62100000Y56900000D03*
X-62100000Y51300000D03*
X-62100000Y45700000D03*
X-62100000Y40100000D03*
X-62100000Y103400000D03*
X-62100000Y97800000D03*
X-62100000Y92200000D03*
X-62100000Y86600000D03*
X-62100000Y81000000D03*
X-62100000Y75400000D03*
X-62100000Y69800000D03*
X-62100000Y64200000D03*
X-62100000Y58600000D03*
X-62100000Y53000000D03*
X-62100000Y47400000D03*
X-62100000Y41800000D03*
X-62100000Y105100000D03*
X-62100000Y99500000D03*
X-62100000Y93900000D03*
X-62100000Y88300000D03*
X-62100000Y82700000D03*
X-62100000Y77100000D03*
X-62100000Y71500000D03*
X-62100000Y65900000D03*
X-62100000Y60300000D03*
X-62100000Y54700000D03*
X-62100000Y49100000D03*
X-62100000Y43500000D03*
X-15900000Y110700000D03*
X-15900000Y109000000D03*
X-15900000Y107300000D03*
X-15900000Y105100000D03*
X-15900000Y99500000D03*
X-15900000Y93900000D03*
X-15900000Y88300000D03*
X-15900000Y82700000D03*
X-15900000Y77100000D03*
X-15900000Y71500000D03*
X-15900000Y65900000D03*
X-15900000Y60300000D03*
X-15900000Y54700000D03*
X-15900000Y49100000D03*
X-15900000Y43500000D03*
X-15900000Y103400000D03*
X-15900000Y97800000D03*
X-15900000Y92200000D03*
X-15900000Y86600000D03*
X-15900000Y81000000D03*
X-15900000Y75400000D03*
X-15900000Y69800000D03*
X-15900000Y64200000D03*
X-15900000Y58600000D03*
X-15900000Y53000000D03*
X-15900000Y47400000D03*
X-15900000Y41800000D03*
X-15900000Y101700000D03*
X-15900000Y96100000D03*
X-15900000Y90500000D03*
X-15900000Y84900000D03*
X-15900000Y79300000D03*
X-15900000Y73700000D03*
X-15900000Y68100000D03*
X-15900000Y62500000D03*
X-15900000Y56900000D03*
X-15900000Y51300000D03*
X-15900000Y45700000D03*
X-15900000Y40100000D03*
X-2500000Y107300000D03*
X-2500000Y110700000D03*
X-2500000Y109000000D03*
X-2500000Y101700000D03*
X-2500000Y96100000D03*
X-2500000Y90500000D03*
X-2500000Y84900000D03*
X-2500000Y79300000D03*
X-2500000Y73700000D03*
X-2500000Y68100000D03*
X-2500000Y62500000D03*
X-2500000Y56900000D03*
X-2500000Y51300000D03*
X-2500000Y45700000D03*
X-2500000Y40100000D03*
X-2500000Y105100000D03*
X-2500000Y99500000D03*
X-2500000Y93900000D03*
X-2500000Y88300000D03*
X-2500000Y82700000D03*
X-2500000Y77100000D03*
X-2500000Y71500000D03*
X-2500000Y65900000D03*
X-2500000Y60300000D03*
X-2500000Y54700000D03*
X-2500000Y49100000D03*
X-2500000Y43500000D03*
X-2500000Y103400000D03*
X-2500000Y97800000D03*
X-2500000Y92200000D03*
X-2500000Y86600000D03*
X-2500000Y81000000D03*
X-2500000Y75400000D03*
X-2500000Y69800000D03*
X-2500000Y64200000D03*
X-2500000Y58600000D03*
X-2500000Y53000000D03*
X-2500000Y47400000D03*
X-2500000Y41800000D03*
X-400000Y107300000D03*
X-400000Y110700000D03*
X-400000Y109000000D03*
X-400000Y103400000D03*
X-400000Y97800000D03*
X-400000Y92200000D03*
X-400000Y86600000D03*
X-400000Y81000000D03*
X-400000Y75400000D03*
X-400000Y69800000D03*
X-400000Y64200000D03*
X-400000Y58600000D03*
X-400000Y53000000D03*
X-400000Y47400000D03*
X-400000Y41800000D03*
X-400000Y101700000D03*
X-400000Y96100000D03*
X-400000Y90500000D03*
X-400000Y84900000D03*
X-400000Y79300000D03*
X-400000Y73700000D03*
X-400000Y68100000D03*
X-400000Y62500000D03*
X-400000Y56900000D03*
X-400000Y51300000D03*
X-400000Y45700000D03*
X-400000Y40100000D03*
X-400000Y105100000D03*
X-400000Y99500000D03*
X-400000Y93900000D03*
X-400000Y88300000D03*
X-400000Y82700000D03*
X-400000Y77100000D03*
X-400000Y71500000D03*
X-400000Y65900000D03*
X-400000Y60300000D03*
X-400000Y54700000D03*
X-400000Y49100000D03*
X-400000Y43500000D03*
X13000000Y109000000D03*
X13000000Y107300000D03*
X13000000Y110700000D03*
X13000000Y103400000D03*
X13000000Y97800000D03*
X13000000Y92200000D03*
X13000000Y86600000D03*
X13000000Y81000000D03*
X13000000Y75400000D03*
X13000000Y69800000D03*
X13000000Y64200000D03*
X13000000Y58600000D03*
X13000000Y53000000D03*
X13000000Y47400000D03*
X13000000Y41800000D03*
X13000000Y105100000D03*
X13000000Y99500000D03*
X13000000Y93900000D03*
X13000000Y88300000D03*
X13000000Y82700000D03*
X13000000Y77100000D03*
X13000000Y71500000D03*
X13000000Y65900000D03*
X13000000Y60300000D03*
X13000000Y54700000D03*
X13000000Y49100000D03*
X13000000Y43500000D03*
X13000000Y101700000D03*
X13000000Y96100000D03*
X13000000Y90500000D03*
X13000000Y84900000D03*
X13000000Y79300000D03*
X13000000Y73700000D03*
X13000000Y68100000D03*
X13000000Y62500000D03*
X13000000Y56900000D03*
X13000000Y51300000D03*
X13000000Y45700000D03*
X13000000Y40100000D03*
X15100000Y109000000D03*
X15100000Y110700000D03*
X15100000Y107300000D03*
X15000000Y103400000D03*
X15000000Y97800000D03*
X15000000Y92200000D03*
X15000000Y86600000D03*
X15000000Y81000000D03*
X15000000Y75400000D03*
X15000000Y69800000D03*
X15000000Y64200000D03*
X15000000Y58600000D03*
X15000000Y53000000D03*
X15000000Y47400000D03*
X15000000Y41800000D03*
X15000000Y105100000D03*
X15000000Y99500000D03*
X15000000Y93900000D03*
X15000000Y88300000D03*
X15000000Y82700000D03*
X15000000Y77100000D03*
X15000000Y71500000D03*
X15000000Y65900000D03*
X15000000Y60300000D03*
X15000000Y54700000D03*
X15000000Y49100000D03*
X15000000Y43500000D03*
X15000000Y101700000D03*
X15000000Y96100000D03*
X15000000Y90500000D03*
X15000000Y84900000D03*
X15000000Y79300000D03*
X15000000Y73700000D03*
X15000000Y68100000D03*
X15000000Y62500000D03*
X15000000Y56900000D03*
X15000000Y51300000D03*
X15000000Y45700000D03*
X15000000Y40100000D03*
X13000000Y33500000D03*
X13000000Y31800000D03*
X13000000Y30100000D03*
X13000000Y27900000D03*
X13000000Y22300000D03*
X13000000Y11100000D03*
X13000000Y5500000D03*
X13000000Y24500000D03*
X13000000Y18900000D03*
X13000000Y13300000D03*
X13000000Y7700000D03*
X13000000Y2100000D03*
X13000000Y26200000D03*
X13000000Y20600000D03*
X13000000Y15000000D03*
X13000000Y9400000D03*
X13000000Y3800000D03*
X-400000Y30100000D03*
X-400000Y31800000D03*
X-400000Y33500000D03*
X-400000Y24500000D03*
X-400000Y18900000D03*
X-400000Y13300000D03*
X-400000Y7700000D03*
X-400000Y2100000D03*
X-400000Y27900000D03*
X-400000Y22300000D03*
X-400000Y16700000D03*
X-400000Y11100000D03*
X-400000Y5500000D03*
X-400000Y26200000D03*
X-400000Y20600000D03*
X-400000Y15000000D03*
X-400000Y9400000D03*
X-400000Y3800000D03*
X-2500000Y30100000D03*
X-2500000Y33500000D03*
X-2500000Y31800000D03*
X-2500000Y26200000D03*
X-2500000Y20600000D03*
X-2500000Y15000000D03*
X-2500000Y9400000D03*
X-2500000Y3800000D03*
X-2500000Y24500000D03*
X-2500000Y18900000D03*
X-2500000Y13300000D03*
X-2500000Y7700000D03*
X-2500000Y2100000D03*
X-2500000Y27900000D03*
X-2500000Y22300000D03*
X-2500000Y16700000D03*
X-2500000Y11100000D03*
X-2500000Y5500000D03*
X-15900000Y33500000D03*
X-15900000Y31800000D03*
X-15900000Y30100000D03*
X-15900000Y27900000D03*
X-15900000Y22300000D03*
X-15900000Y16700000D03*
X-15900000Y11100000D03*
X-15900000Y5500000D03*
X-15900000Y26200000D03*
X-15900000Y20600000D03*
X-15900000Y15000000D03*
X-15900000Y9400000D03*
X-15900000Y3800000D03*
X-15900000Y24500000D03*
X-15900000Y18900000D03*
X-15900000Y13300000D03*
X-15900000Y7700000D03*
X-15900000Y2100000D03*
X-17800000Y33500000D03*
X-17800000Y31800000D03*
X-17800000Y30100000D03*
X-17900000Y5500000D03*
X-17900000Y3800000D03*
X-17900000Y16700000D03*
X-17900000Y11100000D03*
X-17900000Y13300000D03*
X-17900000Y7700000D03*
X-17900000Y2100000D03*
X-17900000Y15000000D03*
X-17900000Y9400000D03*
X-31300000Y16700000D03*
X-31300000Y11100000D03*
X-31300000Y5500000D03*
X-31300000Y-100000D03*
X-31300000Y13300000D03*
X-31300000Y2100000D03*
X-31300000Y-3500000D03*
X-31300000Y15000000D03*
X-31300000Y3800000D03*
X-31300000Y-1800000D03*
X-33300000Y11100000D03*
X-33300000Y5500000D03*
X-31300000Y-100000D03*
X-33300000Y-100000D03*
X-31300000Y7700000D03*
X-31300000Y2100000D03*
X-31300000Y-3500000D03*
X-33300000Y-3500000D03*
X-31300000Y9400000D03*
X-33300000Y9400000D03*
X-31300000Y-1800000D03*
X-33300000Y-1800000D03*
X-33300000Y26200000D03*
X-33300000Y27900000D03*
X-33300000Y22300000D03*
X-33300000Y16700000D03*
X-33300000Y24500000D03*
X-33300000Y18900000D03*
X-33300000Y13300000D03*
X-33300000Y7700000D03*
X-33300000Y2100000D03*
X-33300000Y20600000D03*
X-33300000Y15000000D03*
X-33300000Y3800000D03*
X-46700000Y33500000D03*
X-46600000Y11100000D03*
X-46700000Y30100000D03*
X-46700000Y24500000D03*
X-46700000Y31800000D03*
X-46600000Y15000000D03*
X-46600000Y3800000D03*
X-48700000Y30100000D03*
X-48700000Y24500000D03*
X-46700000Y18900000D03*
X-46600000Y13300000D03*
X-46600000Y7700000D03*
X-48700000Y7700000D03*
X-46600000Y2100000D03*
X-48700000Y31800000D03*
X-46700000Y26200000D03*
X-46700000Y20600000D03*
X-48700000Y20600000D03*
X-46600000Y9400000D03*
X-48700000Y33500000D03*
X-46700000Y27900000D03*
X-46700000Y22300000D03*
X-46600000Y16700000D03*
X-48700000Y16700000D03*
X-48700000Y11100000D03*
X-46600000Y5500000D03*
X-48700000Y5500000D03*
X-48700000Y26200000D03*
X-48700000Y15000000D03*
X-48700000Y9400000D03*
X-48700000Y3800000D03*
X-48700000Y27900000D03*
X-48700000Y22300000D03*
X-48700000Y18900000D03*
X-48700000Y13300000D03*
X-48700000Y2100000D03*
X-62100000Y33500000D03*
X-62100000Y27900000D03*
X-62100000Y22300000D03*
X-62100000Y16700000D03*
X-62100000Y11100000D03*
X-62100000Y5500000D03*
X-62100000Y30100000D03*
X-62100000Y24500000D03*
X-62100000Y18900000D03*
X-62100000Y13300000D03*
X-62100000Y7700000D03*
X-62100000Y2100000D03*
X-62100000Y31800000D03*
X-62100000Y26200000D03*
X-62100000Y20600000D03*
X-62100000Y15000000D03*
X-62100000Y9400000D03*
X-62100000Y3800000D03*
X-15900000Y-100000D03*
X-15900000Y-3500000D03*
X-15900000Y-1800000D03*
X-17900000Y-100000D03*
X-17900000Y-1800000D03*
X-17900000Y-3500000D03*
X-46600000Y-100000D03*
X-46600000Y-3500000D03*
X-46600000Y-1800000D03*
X-48700000Y-100000D03*
X-48700000Y-3500000D03*
X-48700000Y-1800000D03*
X-62100000Y-1800000D03*
X-62100000Y-100000D03*
X-62100000Y-3500000D03*
X13000000Y16700000D03*
G04 #@! TO.N,/C1+*
X-23600000Y110700000D03*
X-23600000Y109000000D03*
X-23600000Y107300000D03*
X-23600000Y103400000D03*
X-23600000Y97800000D03*
X-23600000Y92200000D03*
X-23600000Y86600000D03*
X-23600000Y81000000D03*
X-23600000Y75400000D03*
X-23600000Y69800000D03*
X-23600000Y64200000D03*
X-23600000Y58600000D03*
X-23600000Y53000000D03*
X-23600000Y47400000D03*
X-23600000Y41800000D03*
X-23600000Y105100000D03*
X-23600000Y99500000D03*
X-23600000Y93900000D03*
X-23600000Y88300000D03*
X-23600000Y82700000D03*
X-23600000Y77100000D03*
X-23600000Y71500000D03*
X-23600000Y65900000D03*
X-23600000Y60300000D03*
X-23600000Y54700000D03*
X-23600000Y49100000D03*
X-23600000Y43500000D03*
X-23600000Y101700000D03*
X-23600000Y96100000D03*
X-23600000Y90500000D03*
X-23600000Y84900000D03*
X-23600000Y79300000D03*
X-23600000Y73700000D03*
X-23600000Y68100000D03*
X-23600000Y62500000D03*
X-23600000Y56900000D03*
X-23600000Y51300000D03*
X-23600000Y45700000D03*
X-23600000Y40100000D03*
X-25600000Y107300000D03*
X-25600000Y110700000D03*
X-25600000Y109000000D03*
X-25600000Y103400000D03*
X-25600000Y97800000D03*
X-25600000Y92200000D03*
X-25600000Y86600000D03*
X-25600000Y81000000D03*
X-25600000Y75400000D03*
X-25600000Y69800000D03*
X-25600000Y64200000D03*
X-25600000Y58600000D03*
X-25600000Y53000000D03*
X-25600000Y47400000D03*
X-25600000Y41800000D03*
X-25600000Y101700000D03*
X-25600000Y96100000D03*
X-25600000Y90500000D03*
X-25600000Y84900000D03*
X-25600000Y79300000D03*
X-25600000Y73700000D03*
X-25600000Y68100000D03*
X-25600000Y62500000D03*
X-25600000Y56900000D03*
X-25600000Y51300000D03*
X-25600000Y45700000D03*
X-25600000Y40100000D03*
X-25600000Y105100000D03*
X-25600000Y99500000D03*
X-25600000Y93900000D03*
X-25600000Y88300000D03*
X-25600000Y82700000D03*
X-25600000Y77100000D03*
X-25600000Y71500000D03*
X-25600000Y65900000D03*
X-25600000Y60300000D03*
X-25600000Y54700000D03*
X-25600000Y49100000D03*
X-25600000Y43500000D03*
X-39000000Y109000000D03*
X-39000000Y107300000D03*
X-39000000Y110700000D03*
X-39000000Y103400000D03*
X-39000000Y97800000D03*
X-39000000Y92200000D03*
X-39000000Y86600000D03*
X-39000000Y81000000D03*
X-39000000Y75400000D03*
X-39000000Y69800000D03*
X-39000000Y64200000D03*
X-39000000Y58600000D03*
X-39000000Y53000000D03*
X-39000000Y47400000D03*
X-39000000Y41800000D03*
X-39000000Y101700000D03*
X-39000000Y96100000D03*
X-39000000Y90500000D03*
X-39000000Y84900000D03*
X-39000000Y79300000D03*
X-39000000Y73700000D03*
X-39000000Y68100000D03*
X-39000000Y62500000D03*
X-39000000Y56900000D03*
X-39000000Y51300000D03*
X-39000000Y45700000D03*
X-39000000Y40100000D03*
X-39000000Y105100000D03*
X-39000000Y99500000D03*
X-39000000Y93900000D03*
X-39000000Y88300000D03*
X-39000000Y82700000D03*
X-39000000Y77100000D03*
X-39000000Y71500000D03*
X-39000000Y65900000D03*
X-39000000Y60300000D03*
X-39000000Y54700000D03*
X-39000000Y49100000D03*
X-39000000Y43500000D03*
X-41000000Y109000000D03*
X-41000000Y107300000D03*
X-41000000Y110700000D03*
X-41000000Y101700000D03*
X-41000000Y96100000D03*
X-41000000Y90500000D03*
X-41000000Y84900000D03*
X-41000000Y79300000D03*
X-41000000Y73700000D03*
X-41000000Y68100000D03*
X-41000000Y62500000D03*
X-41000000Y56900000D03*
X-41000000Y51300000D03*
X-41000000Y45700000D03*
X-41000000Y40100000D03*
X-41000000Y103400000D03*
X-41000000Y97800000D03*
X-41000000Y92200000D03*
X-41000000Y86600000D03*
X-41000000Y81000000D03*
X-41000000Y75400000D03*
X-41000000Y69800000D03*
X-41000000Y64200000D03*
X-41000000Y58600000D03*
X-41000000Y53000000D03*
X-41000000Y47400000D03*
X-41000000Y41800000D03*
X-41000000Y105100000D03*
X-41000000Y99500000D03*
X-41000000Y93900000D03*
X-41000000Y88300000D03*
X-41000000Y82700000D03*
X-41000000Y77100000D03*
X-41000000Y71500000D03*
X-41000000Y65900000D03*
X-41000000Y60300000D03*
X-41000000Y54700000D03*
X-41000000Y49100000D03*
X-41000000Y43500000D03*
X-54400000Y110700000D03*
X-54400000Y109000000D03*
X-54400000Y107300000D03*
X-54400000Y103400000D03*
X-54400000Y97800000D03*
X-54400000Y92200000D03*
X-54400000Y86600000D03*
X-54400000Y81000000D03*
X-54400000Y75400000D03*
X-54400000Y69800000D03*
X-54400000Y64200000D03*
X-54400000Y58600000D03*
X-54400000Y53000000D03*
X-54400000Y47400000D03*
X-54400000Y41800000D03*
X-54400000Y101700000D03*
X-54400000Y96100000D03*
X-54400000Y90500000D03*
X-54400000Y84900000D03*
X-54400000Y79300000D03*
X-54400000Y73700000D03*
X-54400000Y68100000D03*
X-54400000Y62500000D03*
X-54400000Y56900000D03*
X-54400000Y51300000D03*
X-54400000Y45700000D03*
X-54400000Y40100000D03*
X-54400000Y105100000D03*
X-54400000Y99500000D03*
X-54400000Y93900000D03*
X-54400000Y88300000D03*
X-54400000Y82700000D03*
X-54400000Y77100000D03*
X-54400000Y71500000D03*
X-54400000Y65900000D03*
X-54400000Y60300000D03*
X-54400000Y54700000D03*
X-54400000Y49100000D03*
X-54400000Y43500000D03*
X-56400000Y109000000D03*
X-56400000Y107300000D03*
X-56400000Y110700000D03*
X-56400000Y101700000D03*
X-56400000Y96100000D03*
X-56400000Y90500000D03*
X-56400000Y84900000D03*
X-56400000Y79300000D03*
X-56400000Y73700000D03*
X-56400000Y68100000D03*
X-56400000Y62500000D03*
X-56400000Y56900000D03*
X-56400000Y51300000D03*
X-56400000Y45700000D03*
X-56400000Y40100000D03*
X-56400000Y103400000D03*
X-56400000Y97800000D03*
X-56400000Y92200000D03*
X-56400000Y86600000D03*
X-56400000Y81000000D03*
X-56400000Y75400000D03*
X-56400000Y69800000D03*
X-56400000Y64200000D03*
X-56400000Y58600000D03*
X-56400000Y53000000D03*
X-56400000Y47400000D03*
X-56400000Y41800000D03*
X-56400000Y105100000D03*
X-56400000Y99500000D03*
X-56400000Y93900000D03*
X-56400000Y88300000D03*
X-56400000Y82700000D03*
X-56400000Y77100000D03*
X-56400000Y71500000D03*
X-56400000Y65900000D03*
X-56400000Y60300000D03*
X-56400000Y54700000D03*
X-56400000Y49100000D03*
X-56400000Y43500000D03*
X-10200000Y110700000D03*
X-10200000Y109000000D03*
X-10200000Y107300000D03*
X-10200000Y103400000D03*
X-10200000Y97800000D03*
X-10200000Y92200000D03*
X-10200000Y86600000D03*
X-10200000Y81000000D03*
X-10200000Y75400000D03*
X-10200000Y69800000D03*
X-10200000Y64200000D03*
X-10200000Y58600000D03*
X-10200000Y53000000D03*
X-10200000Y47400000D03*
X-10200000Y41800000D03*
X-10200000Y105100000D03*
X-10200000Y99500000D03*
X-10200000Y93900000D03*
X-10200000Y88300000D03*
X-10200000Y82700000D03*
X-10200000Y77100000D03*
X-10200000Y71500000D03*
X-10200000Y65900000D03*
X-10200000Y60300000D03*
X-10200000Y54700000D03*
X-10200000Y49100000D03*
X-10200000Y43500000D03*
X-10200000Y101700000D03*
X-10200000Y96100000D03*
X-10200000Y90500000D03*
X-10200000Y84900000D03*
X-10200000Y79300000D03*
X-10200000Y73700000D03*
X-10200000Y68100000D03*
X-10200000Y62500000D03*
X-10200000Y56900000D03*
X-10200000Y51300000D03*
X-10200000Y45700000D03*
X-10200000Y40100000D03*
X-8200000Y109000000D03*
X-8200000Y110700000D03*
X-8200000Y107300000D03*
X-8200000Y101700000D03*
X-8200000Y96100000D03*
X-8200000Y90500000D03*
X-8200000Y84900000D03*
X-8200000Y79300000D03*
X-8200000Y73700000D03*
X-8200000Y68100000D03*
X-8200000Y62500000D03*
X-8200000Y56900000D03*
X-8200000Y51300000D03*
X-8200000Y45700000D03*
X-8200000Y40100000D03*
X-8200000Y105100000D03*
X-8200000Y99500000D03*
X-8200000Y93900000D03*
X-8200000Y88300000D03*
X-8200000Y82700000D03*
X-8200000Y77100000D03*
X-8200000Y71500000D03*
X-8200000Y65900000D03*
X-8200000Y60300000D03*
X-8200000Y54700000D03*
X-8200000Y49100000D03*
X-8200000Y43500000D03*
X-8200000Y103400000D03*
X-8200000Y97800000D03*
X-8200000Y92200000D03*
X-8200000Y86600000D03*
X-8200000Y81000000D03*
X-8200000Y75400000D03*
X-8200000Y69800000D03*
X-8200000Y64200000D03*
X-8200000Y58600000D03*
X-8200000Y53000000D03*
X-8200000Y47400000D03*
X-8200000Y41800000D03*
X5300000Y109000000D03*
X5300000Y107300000D03*
X5300000Y110700000D03*
X5300000Y103400000D03*
X5300000Y97800000D03*
X5300000Y92200000D03*
X5300000Y86600000D03*
X5300000Y81000000D03*
X5300000Y75400000D03*
X5300000Y69800000D03*
X5300000Y64200000D03*
X5300000Y58600000D03*
X5300000Y53000000D03*
X5300000Y47400000D03*
X5300000Y41800000D03*
X5300000Y101700000D03*
X5300000Y96100000D03*
X5300000Y90500000D03*
X5300000Y84900000D03*
X5300000Y79300000D03*
X5300000Y73700000D03*
X5300000Y68100000D03*
X5300000Y62500000D03*
X5300000Y56900000D03*
X5300000Y51300000D03*
X5300000Y45700000D03*
X5300000Y40100000D03*
X5300000Y105100000D03*
X5300000Y99500000D03*
X5300000Y93900000D03*
X5300000Y88300000D03*
X5300000Y82700000D03*
X5300000Y77100000D03*
X5300000Y71500000D03*
X5300000Y65900000D03*
X5300000Y60300000D03*
X5300000Y54700000D03*
X5300000Y49100000D03*
X5300000Y43500000D03*
X7300000Y109000000D03*
X7300000Y107300000D03*
X7300000Y110700000D03*
X7300000Y103400000D03*
X7300000Y97800000D03*
X7300000Y92200000D03*
X7300000Y86600000D03*
X7300000Y81000000D03*
X7300000Y75400000D03*
X7300000Y69800000D03*
X7300000Y64200000D03*
X7300000Y58600000D03*
X7300000Y53000000D03*
X7300000Y47400000D03*
X7300000Y41800000D03*
X7300000Y101700000D03*
X7300000Y96100000D03*
X7300000Y90500000D03*
X7300000Y84900000D03*
X7300000Y79300000D03*
X7300000Y73700000D03*
X7300000Y68100000D03*
X7300000Y62500000D03*
X7300000Y56900000D03*
X7300000Y51300000D03*
X7300000Y45700000D03*
X7300000Y40100000D03*
X7300000Y105100000D03*
X7300000Y99500000D03*
X7300000Y93900000D03*
X7300000Y88300000D03*
X7300000Y82700000D03*
X7300000Y77100000D03*
X7300000Y71500000D03*
X7300000Y65900000D03*
X7300000Y60300000D03*
X7300000Y54700000D03*
X7300000Y49100000D03*
X7300000Y43500000D03*
X7300000Y33500000D03*
X7300000Y30100000D03*
X7300000Y31800000D03*
X20800000Y109000000D03*
X20800000Y110700000D03*
X20800000Y107300000D03*
X20800000Y103400000D03*
X20800000Y97800000D03*
X20800000Y92200000D03*
X20800000Y86600000D03*
X20800000Y81000000D03*
X20800000Y75400000D03*
X20800000Y69800000D03*
X20800000Y64200000D03*
X20800000Y58600000D03*
X20800000Y53000000D03*
X20800000Y47400000D03*
X20800000Y41800000D03*
X20800000Y105100000D03*
X20800000Y99500000D03*
X20800000Y93900000D03*
X20800000Y88300000D03*
X20800000Y82700000D03*
X20800000Y77100000D03*
X20800000Y71500000D03*
X20800000Y65900000D03*
X20800000Y60300000D03*
X20800000Y54700000D03*
X20800000Y49100000D03*
X20800000Y43500000D03*
X20800000Y101700000D03*
X20800000Y96100000D03*
X20800000Y90500000D03*
X20800000Y84900000D03*
X20800000Y79300000D03*
X20800000Y73700000D03*
X20800000Y68100000D03*
X20800000Y62500000D03*
X20800000Y56900000D03*
X20800000Y51300000D03*
X20800000Y45700000D03*
X20800000Y40100000D03*
X7300000Y27900000D03*
X7300000Y5500000D03*
X7300000Y9400000D03*
X7300000Y24500000D03*
X7300000Y18900000D03*
X7300000Y13300000D03*
X5300000Y33500000D03*
X7300000Y22300000D03*
X5300000Y22300000D03*
X7300000Y16700000D03*
X5300000Y16700000D03*
X7300000Y11100000D03*
X5300000Y11100000D03*
X5300000Y5500000D03*
X5300000Y31800000D03*
X7300000Y26200000D03*
X5300000Y26200000D03*
X7300000Y20600000D03*
X5300000Y20600000D03*
X7300000Y15000000D03*
X5300000Y15000000D03*
X5300000Y9400000D03*
X7300000Y3800000D03*
X5300000Y3800000D03*
X5300000Y30100000D03*
X5300000Y24500000D03*
X5300000Y18900000D03*
X5300000Y13300000D03*
X7300000Y7700000D03*
X5300000Y7700000D03*
X7300000Y2100000D03*
X5300000Y2100000D03*
X-8200000Y31800000D03*
X-8200000Y30100000D03*
X-8200000Y33500000D03*
X-10200000Y31800000D03*
X-10200000Y30100000D03*
X-10200000Y33500000D03*
X-8200000Y26200000D03*
X-8200000Y20600000D03*
X-8200000Y15000000D03*
X-8200000Y9400000D03*
X-8200000Y3800000D03*
X-8200000Y24500000D03*
X-8200000Y18900000D03*
X-8200000Y13300000D03*
X-8200000Y7700000D03*
X-8200000Y2100000D03*
X-8200000Y27900000D03*
X-8200000Y22300000D03*
X-8200000Y16700000D03*
X-8200000Y11100000D03*
X-8200000Y5500000D03*
X-10200000Y27900000D03*
X-10200000Y22300000D03*
X-10200000Y16700000D03*
X-10200000Y11100000D03*
X-10200000Y5500000D03*
X-10200000Y26200000D03*
X-10200000Y20600000D03*
X-10200000Y15000000D03*
X-10200000Y9400000D03*
X-10200000Y3800000D03*
X-10200000Y24500000D03*
X-10200000Y18900000D03*
X-10200000Y13300000D03*
X-10200000Y7700000D03*
X-10200000Y2100000D03*
X-23500000Y33500000D03*
X-23600000Y16700000D03*
X-23600000Y11100000D03*
X-23600000Y5500000D03*
X-23500000Y30100000D03*
X-23600000Y13300000D03*
X-23500000Y31800000D03*
X-23600000Y15000000D03*
X-23600000Y3800000D03*
X-25600000Y16700000D03*
X-25600000Y11100000D03*
X-23600000Y-100000D03*
X-25600000Y-100000D03*
X-25600000Y13300000D03*
X-23600000Y7700000D03*
X-23600000Y2100000D03*
X-23600000Y-3500000D03*
X-25600000Y-3500000D03*
X-25600000Y15000000D03*
X-23600000Y9400000D03*
X-25600000Y3800000D03*
X-23600000Y-1800000D03*
X-25600000Y-1800000D03*
X-25600000Y5500000D03*
X-25600000Y-100000D03*
X-25600000Y7700000D03*
X-25600000Y2100000D03*
X-25600000Y-3500000D03*
X-25600000Y9400000D03*
X-25600000Y-1800000D03*
X-39000000Y27900000D03*
X-39000000Y22300000D03*
X-39000000Y16700000D03*
X-39000000Y11100000D03*
X-39000000Y5500000D03*
X-39000000Y20600000D03*
X-39000000Y15000000D03*
X-39000000Y3800000D03*
X-41000000Y33500000D03*
X-41000000Y22300000D03*
X-40900000Y16700000D03*
X-40900000Y5500000D03*
X-41000000Y30100000D03*
X-39000000Y24500000D03*
X-39000000Y18900000D03*
X-39000000Y13300000D03*
X-39000000Y7700000D03*
X-39000000Y2100000D03*
X-41000000Y31800000D03*
X-39000000Y26200000D03*
X-41000000Y26200000D03*
X-41000000Y20600000D03*
X-40900000Y15000000D03*
X-39000000Y9400000D03*
X-40900000Y3800000D03*
X-41000000Y27900000D03*
X-40900000Y11100000D03*
X-41000000Y24500000D03*
X-41000000Y18900000D03*
X-40900000Y13300000D03*
X-40900000Y7700000D03*
X-40900000Y2100000D03*
X-40900000Y9400000D03*
X-54400000Y31800000D03*
X-54400000Y26200000D03*
X-54400000Y15000000D03*
X-54400000Y3800000D03*
X-54400000Y33500000D03*
X-54400000Y27900000D03*
X-54400000Y22300000D03*
X-54400000Y16700000D03*
X-54400000Y11100000D03*
X-54400000Y5500000D03*
X-54400000Y30100000D03*
X-54400000Y13300000D03*
X-56400000Y31800000D03*
X-54400000Y20600000D03*
X-54400000Y9400000D03*
X-56400000Y9400000D03*
X-56400000Y3800000D03*
X-56400000Y30100000D03*
X-54400000Y24500000D03*
X-54400000Y18900000D03*
X-56400000Y13300000D03*
X-54400000Y7700000D03*
X-56400000Y7700000D03*
X-54400000Y2100000D03*
X-56400000Y33500000D03*
X-56400000Y16700000D03*
X-54400000Y11100000D03*
X-56400000Y5500000D03*
X-56400000Y27900000D03*
X-56400000Y22300000D03*
X-56400000Y11100000D03*
X-56400000Y24500000D03*
X-56400000Y18900000D03*
X-56400000Y2100000D03*
X-56400000Y26200000D03*
X-56400000Y20600000D03*
X-56400000Y15000000D03*
X-10200000Y-100000D03*
X-10200000Y-1800000D03*
X-10200000Y-3500000D03*
X-39000000Y-3500000D03*
X-39000000Y-1800000D03*
X-40900000Y-3500000D03*
X-40900000Y-1800000D03*
X-40900000Y-100000D03*
X-39000000Y-100000D03*
X-54400000Y-100000D03*
X-54400000Y-3500000D03*
X-54400000Y-1800000D03*
X-56400000Y-1800000D03*
X-56400000Y-100000D03*
X-56400000Y-3500000D03*
X5300000Y27900000D03*
G04 #@! TO.N,/C2+*
X25600000Y43500000D03*
X25600000Y40100000D03*
X25600000Y41800000D03*
X25600000Y49100000D03*
X25600000Y54700000D03*
X25600000Y60300000D03*
X25600000Y65900000D03*
X25600000Y71500000D03*
X25600000Y77100000D03*
X25600000Y82700000D03*
X25600000Y88300000D03*
X25600000Y94000000D03*
X25600000Y99500000D03*
X25600000Y105100000D03*
X25600000Y110700000D03*
X25600000Y45700000D03*
X25600000Y51300000D03*
X25600000Y56900000D03*
X25600000Y62500000D03*
X25600000Y68100000D03*
X25600000Y73700000D03*
X25600000Y79300000D03*
X25600000Y84900000D03*
X25600000Y90500000D03*
X25600000Y96100000D03*
X25600000Y101700000D03*
X25600000Y107300000D03*
X25600000Y47400000D03*
X25600000Y53000000D03*
X25600000Y58600000D03*
X25600000Y64200000D03*
X25600000Y69800000D03*
X25600000Y75390000D03*
X25600000Y81000000D03*
X25600000Y86600000D03*
X25600000Y92190000D03*
X25600000Y97800000D03*
X25600000Y103400000D03*
X25600000Y109000000D03*
X39000000Y41800000D03*
X39000000Y40100000D03*
X39000000Y43500000D03*
X39000000Y49100000D03*
X39000000Y54700000D03*
X39000000Y60300000D03*
X39000000Y65900000D03*
X39000000Y71500000D03*
X39000000Y77100000D03*
X39000000Y82700000D03*
X39000000Y88300000D03*
X39000000Y94000000D03*
X39000000Y99500000D03*
X39000000Y105100000D03*
X39000000Y110700000D03*
X39000000Y47400000D03*
X39000000Y53000000D03*
X39000000Y58600000D03*
X39000000Y64200000D03*
X39000000Y69800000D03*
X39000000Y75400000D03*
X39000000Y81000000D03*
X39000000Y86600000D03*
X39000000Y92200000D03*
X39000000Y97800000D03*
X39000000Y103400000D03*
X39000000Y109000000D03*
X39000000Y45700000D03*
X39000000Y51300000D03*
X39000000Y56900000D03*
X39000000Y62500000D03*
X39000000Y68100000D03*
X39000000Y73700000D03*
X39000000Y79300000D03*
X39000000Y84900000D03*
X39000000Y90500000D03*
X39000000Y96100000D03*
X39000000Y101700000D03*
X39000000Y107300000D03*
X41000000Y110700000D03*
X41000000Y109000000D03*
X41000000Y107300000D03*
X41000000Y103400000D03*
X41000000Y97800000D03*
X41000000Y92200000D03*
X41000000Y86600000D03*
X41000000Y81000000D03*
X41000000Y75400000D03*
X41000000Y69800000D03*
X41000000Y64200000D03*
X41000000Y58600000D03*
X41000000Y53000000D03*
X41000000Y47400000D03*
X41000000Y41800000D03*
X41000000Y105100000D03*
X41000000Y99500000D03*
X41000000Y94000000D03*
X41000000Y88300000D03*
X41000000Y82700000D03*
X41000000Y77100000D03*
X41000000Y71500000D03*
X41000000Y65900000D03*
X41000000Y60300000D03*
X41000000Y54700000D03*
X41000000Y49100000D03*
X41000000Y43500000D03*
X41000000Y101700000D03*
X41000000Y96100000D03*
X41000000Y90500000D03*
X41000000Y84900000D03*
X41000000Y79300000D03*
X41000000Y73700000D03*
X41000000Y68100000D03*
X41000000Y62500000D03*
X41000000Y56900000D03*
X41000000Y51300000D03*
X41000000Y45700000D03*
X41000000Y40100000D03*
X54400000Y107300000D03*
X54400000Y110700000D03*
X54400000Y109000000D03*
X54400000Y101700000D03*
X54400000Y96100000D03*
X54400000Y90500000D03*
X54400000Y84900000D03*
X54400000Y79300000D03*
X54400000Y73700000D03*
X54400000Y68100000D03*
X54400000Y62500000D03*
X54400000Y56900000D03*
X54400000Y51300000D03*
X54400000Y45700000D03*
X54400000Y40100000D03*
X54400000Y103400000D03*
X54400000Y97800000D03*
X54400000Y92200000D03*
X54400000Y86600000D03*
X54400000Y81000000D03*
X54400000Y75400000D03*
X54400000Y69800000D03*
X54400000Y64200000D03*
X54400000Y58600000D03*
X54400000Y53000000D03*
X54400000Y47400000D03*
X54400000Y41800000D03*
X54400000Y105100000D03*
X54400000Y99500000D03*
X54400000Y94000000D03*
X54400000Y88300000D03*
X54400000Y82700000D03*
X54400000Y77100000D03*
X54400000Y71500000D03*
X54400000Y65900000D03*
X54400000Y60300000D03*
X54400000Y54700000D03*
X54400000Y49100000D03*
X54400000Y43500000D03*
X56400000Y107300000D03*
X56400000Y109000000D03*
X56400000Y110700000D03*
X56400000Y105100000D03*
X56400000Y99500000D03*
X56400000Y94000000D03*
X56400000Y88300000D03*
X56400000Y82700000D03*
X56400000Y77100000D03*
X56400000Y71500000D03*
X56400000Y65900000D03*
X56400000Y60300000D03*
X56400000Y54700000D03*
X56400000Y49100000D03*
X56400000Y43500000D03*
X56400000Y101700000D03*
X56400000Y96100000D03*
X56400000Y90500000D03*
X56400000Y84900000D03*
X56400000Y79300000D03*
X56400000Y73700000D03*
X56400000Y68100000D03*
X56400000Y62500000D03*
X56400000Y56900000D03*
X56400000Y51300000D03*
X56400000Y45700000D03*
X56400000Y40100000D03*
X56400000Y103400000D03*
X56400000Y97800000D03*
X56400000Y92200000D03*
X56400000Y86600000D03*
X56400000Y81000000D03*
X56400000Y75400000D03*
X56400000Y69800000D03*
X56400000Y64200000D03*
X56400000Y58600000D03*
X56400000Y53000000D03*
X56400000Y47400000D03*
X56400000Y41800000D03*
X39000000Y21500000D03*
X39000000Y15900000D03*
X39000000Y10300000D03*
X39000000Y4700000D03*
X39000000Y-900000D03*
X39000000Y19700000D03*
X39000000Y14100000D03*
X39000000Y8500000D03*
X39000000Y2900000D03*
X39000000Y-2700000D03*
X39000000Y18000000D03*
X39000000Y12400000D03*
X39000000Y6800000D03*
X39000000Y1200000D03*
X39000000Y-4400000D03*
X41000000Y21500000D03*
X41000000Y15900000D03*
X41000000Y10300000D03*
X41000000Y4700000D03*
X41000000Y-900000D03*
X41000000Y19700000D03*
X41000000Y14100000D03*
X41000000Y8500000D03*
X41000000Y2900000D03*
X41000000Y-2700000D03*
X41000000Y18000000D03*
X41000000Y12400000D03*
X41000000Y6800000D03*
X41000000Y1200000D03*
X41000000Y-4400000D03*
X54400000Y19700000D03*
X54400000Y14100000D03*
X54400000Y8500000D03*
X54400000Y2900000D03*
X54400000Y-2700000D03*
X54400000Y18000000D03*
X54400000Y12400000D03*
X54400000Y6800000D03*
X54400000Y1200000D03*
X54400000Y-4400000D03*
X54400000Y21500000D03*
X54400000Y15900000D03*
X54400000Y10300000D03*
X54400000Y4700000D03*
X54400000Y-900000D03*
X56400000Y19700000D03*
X56400000Y14100000D03*
X56400000Y8500000D03*
X56400000Y2900000D03*
X56400000Y-2700000D03*
X56400000Y21500000D03*
X56400000Y15900000D03*
X56400000Y10300000D03*
X56400000Y4700000D03*
X56400000Y-900000D03*
X56400000Y18000000D03*
X56400000Y12400000D03*
X56400000Y6800000D03*
X56400000Y1200000D03*
X56400000Y-4400000D03*
X41000000Y32700000D03*
X41000000Y30900000D03*
X41000000Y29200000D03*
X54400000Y30900000D03*
X54400000Y29200000D03*
X54400000Y32700000D03*
X56400000Y30900000D03*
X56400000Y32700000D03*
X56400000Y29200000D03*
X56400000Y23600000D03*
X56400000Y27100000D03*
X56400000Y25300000D03*
X54400000Y27100000D03*
X54400000Y23600000D03*
X54400000Y25300000D03*
X39000000Y23600000D03*
X39000000Y25300000D03*
X39000000Y27100000D03*
X41000000Y23600000D03*
X41000000Y25300000D03*
X41000000Y27100000D03*
X25600000Y15900000D03*
X25600000Y1200000D03*
X25600000Y-900000D03*
X25600000Y8500000D03*
X25600000Y6800000D03*
X25600000Y2900000D03*
X25600000Y10300000D03*
X25600000Y4700000D03*
X25600000Y-2700000D03*
X25600000Y-4400000D03*
X25600000Y14100000D03*
X25600000Y12400000D03*
X23600000Y10300000D03*
X23600000Y2900000D03*
X23600000Y4700000D03*
X23600000Y8500000D03*
X23600000Y6800000D03*
X23600000Y1200000D03*
X23600000Y-900000D03*
X23600000Y-2700000D03*
X23600000Y-4400000D03*
X23600000Y15900000D03*
X23600000Y14100000D03*
X23600000Y12400000D03*
G04 #@! TO.N,/C2-*
X31300000Y105100000D03*
X31300000Y103400000D03*
X31300000Y101700000D03*
X31300000Y97800000D03*
X31300000Y92190000D03*
X31300000Y86600000D03*
X31300000Y81000000D03*
X31300000Y75400000D03*
X31300000Y69800000D03*
X31300000Y64200000D03*
X31300000Y58600000D03*
X31300000Y96100000D03*
X31300000Y90500000D03*
X31300000Y84900000D03*
X31300000Y79300000D03*
X31300000Y73700000D03*
X31300000Y68100000D03*
X31300000Y62500000D03*
X31300000Y56900000D03*
X31300000Y99500000D03*
X31300000Y94000000D03*
X31300000Y88300000D03*
X31300000Y82700000D03*
X31300000Y77100000D03*
X31300000Y71500000D03*
X31300000Y65900000D03*
X31300000Y60300000D03*
X31300000Y53000000D03*
X31300000Y47400000D03*
X31300000Y41800000D03*
X31300000Y51300000D03*
X31300000Y45700000D03*
X31300000Y40100000D03*
X31300000Y54700000D03*
X31300000Y49100000D03*
X31300000Y43500000D03*
X31300000Y109000000D03*
X31300000Y107300000D03*
X31300000Y110700000D03*
X33300000Y109000000D03*
X33300000Y107300000D03*
X33300000Y110700000D03*
X33300000Y103400000D03*
X33300000Y97800000D03*
X33300000Y92200000D03*
X33300000Y86600000D03*
X33300000Y81000000D03*
X33300000Y75400000D03*
X33300000Y69800000D03*
X33300000Y64200000D03*
X33300000Y58600000D03*
X33300000Y53000000D03*
X33300000Y47400000D03*
X33300000Y41800000D03*
X33300000Y105100000D03*
X33300000Y99500000D03*
X33300000Y94000000D03*
X33300000Y88300000D03*
X33300000Y82700000D03*
X33300000Y77100000D03*
X33300000Y71500000D03*
X33300000Y65900000D03*
X33300000Y60300000D03*
X33300000Y54700000D03*
X33300000Y49100000D03*
X33300000Y43500000D03*
X33300000Y101700000D03*
X33300000Y96100000D03*
X33300000Y90500000D03*
X33300000Y84900000D03*
X33300000Y79300000D03*
X33300000Y73700000D03*
X33300000Y68100000D03*
X33300000Y62500000D03*
X33300000Y56900000D03*
X33300000Y51300000D03*
X33300000Y45700000D03*
X33300000Y40100000D03*
X46800000Y109000000D03*
X46800000Y110700000D03*
X46800000Y107300000D03*
X46800000Y105100000D03*
X46800000Y99500000D03*
X46800000Y94000000D03*
X46800000Y88300000D03*
X46800000Y82700000D03*
X46800000Y77100000D03*
X46800000Y71500000D03*
X46800000Y65900000D03*
X46800000Y60300000D03*
X46800000Y54700000D03*
X46800000Y49100000D03*
X46800000Y43500000D03*
X46800000Y101700000D03*
X46800000Y96100000D03*
X46800000Y90500000D03*
X46800000Y84900000D03*
X46800000Y79300000D03*
X46800000Y73700000D03*
X46800000Y68100000D03*
X46800000Y62500000D03*
X46800000Y56900000D03*
X46800000Y51300000D03*
X46800000Y45700000D03*
X46800000Y40100000D03*
X46800000Y103400000D03*
X46800000Y97800000D03*
X46800000Y92200000D03*
X46800000Y86600000D03*
X46800000Y81000000D03*
X46800000Y75400000D03*
X46800000Y69800000D03*
X46800000Y64200000D03*
X46800000Y58600000D03*
X46800000Y53000000D03*
X46800000Y47400000D03*
X46800000Y41800000D03*
X48700000Y110700000D03*
X48700000Y107300000D03*
X48700000Y109000000D03*
X48700000Y101700000D03*
X48700000Y96100000D03*
X48700000Y90500000D03*
X48700000Y84900000D03*
X48700000Y79300000D03*
X48700000Y73700000D03*
X48700000Y68100000D03*
X48700000Y62500000D03*
X48700000Y56900000D03*
X48700000Y51300000D03*
X48700000Y45700000D03*
X48700000Y40100000D03*
X48700000Y105100000D03*
X48700000Y99500000D03*
X48700000Y94000000D03*
X48700000Y88300000D03*
X48700000Y82700000D03*
X48700000Y77100000D03*
X48700000Y71500000D03*
X48700000Y65900000D03*
X48700000Y60300000D03*
X48700000Y54700000D03*
X48700000Y49100000D03*
X48700000Y43500000D03*
X48700000Y103400000D03*
X48700000Y97800000D03*
X48700000Y92200000D03*
X48700000Y86600000D03*
X48700000Y81000000D03*
X48700000Y75400000D03*
X48700000Y69800000D03*
X48700000Y64200000D03*
X48700000Y58600000D03*
X48700000Y53000000D03*
X48700000Y47400000D03*
X48700000Y41800000D03*
X62100000Y110700000D03*
X62100000Y107300000D03*
X62100000Y109000000D03*
X62100000Y105100000D03*
X62100000Y99500000D03*
X62100000Y94000000D03*
X62100000Y88300000D03*
X62100000Y82700000D03*
X62100000Y77100000D03*
X62100000Y71500000D03*
X62100000Y65900000D03*
X62100000Y60300000D03*
X62100000Y54700000D03*
X62100000Y49100000D03*
X62100000Y43500000D03*
X62100000Y101700000D03*
X62100000Y96100000D03*
X62100000Y90500000D03*
X62100000Y84900000D03*
X62100000Y79300000D03*
X62100000Y73700000D03*
X62100000Y68100000D03*
X62100000Y62500000D03*
X62100000Y56900000D03*
X62100000Y51300000D03*
X62100000Y45700000D03*
X62100000Y40100000D03*
X62100000Y103400000D03*
X62100000Y97800000D03*
X62100000Y92200000D03*
X62100000Y86600000D03*
X62100000Y81000000D03*
X62100000Y75400000D03*
X62100000Y69800000D03*
X62100000Y64200000D03*
X62100000Y58600000D03*
X62100000Y53000000D03*
X62100000Y47400000D03*
X62100000Y41800000D03*
X33300000Y19700000D03*
X33300000Y14100000D03*
X33300000Y8500000D03*
X33300000Y2900000D03*
X33300000Y-2700000D03*
X33300000Y18000000D03*
X33300000Y12400000D03*
X33300000Y6800000D03*
X33300000Y1200000D03*
X33300000Y-4400000D03*
X33300000Y21500000D03*
X33300000Y15900000D03*
X33300000Y10300000D03*
X33300000Y4700000D03*
X33300000Y-900000D03*
X46800000Y18000000D03*
X46800000Y12400000D03*
X46800000Y6800000D03*
X46800000Y1200000D03*
X46800000Y-4400000D03*
X46800000Y19700000D03*
X46800000Y14100000D03*
X46800000Y8500000D03*
X46800000Y2900000D03*
X46800000Y-2700000D03*
X46800000Y21500000D03*
X46800000Y15900000D03*
X46800000Y10300000D03*
X46800000Y4700000D03*
X46800000Y-900000D03*
X48700000Y21500000D03*
X48700000Y15900000D03*
X48700000Y10300000D03*
X48700000Y4700000D03*
X48700000Y-900000D03*
X48700000Y19700000D03*
X48700000Y14100000D03*
X48700000Y8500000D03*
X48700000Y2900000D03*
X48700000Y-2700000D03*
X48700000Y18000000D03*
X48700000Y12400000D03*
X48700000Y6800000D03*
X48700000Y1200000D03*
X48700000Y-4400000D03*
X62100000Y21500000D03*
X62100000Y15900000D03*
X62100000Y10300000D03*
X62100000Y4700000D03*
X62100000Y-900000D03*
X62100000Y18000000D03*
X62100000Y12400000D03*
X62100000Y6800000D03*
X62100000Y1200000D03*
X62100000Y-4400000D03*
X62100000Y19700000D03*
X62100000Y14100000D03*
X62100000Y8500000D03*
X62100000Y2900000D03*
X62100000Y-2700000D03*
X46800000Y29200000D03*
X46800000Y30900000D03*
X46800000Y32700000D03*
X48700000Y32700000D03*
X48700000Y30900000D03*
X48700000Y29200000D03*
X62100000Y32700000D03*
X62100000Y29200000D03*
X62100000Y30900000D03*
X33300000Y27100000D03*
X33300000Y23600000D03*
X33300000Y25300000D03*
X62100000Y25300000D03*
X62100000Y23600000D03*
X62100000Y27100000D03*
X46800000Y27100000D03*
X46800000Y25300000D03*
X46800000Y23600000D03*
X48700000Y23600000D03*
X48700000Y25300000D03*
X48700000Y27100000D03*
X31300000Y8500000D03*
X31300000Y15900000D03*
X31300000Y1200000D03*
X31300000Y-900000D03*
X31300000Y2900000D03*
X31300000Y6800000D03*
X31300000Y4700000D03*
X31300000Y10300000D03*
X31300000Y12400000D03*
X31300000Y-2700000D03*
X31300000Y-4400000D03*
X31300000Y14100000D03*
X17900000Y6800000D03*
X17900000Y10300000D03*
X17900000Y2900000D03*
X17900000Y4700000D03*
X17900000Y8500000D03*
X17900000Y1200000D03*
X17900000Y15900000D03*
X17900000Y14100000D03*
X17900000Y12400000D03*
X17900000Y-2700000D03*
X17900000Y-900000D03*
X17900000Y-4400000D03*
G04 #@! TD*
D14*
G04 #@! TO.N,/C2-*
G36*
X33273319Y112690256D02*
X33608526Y112356049D01*
X33823240Y111934205D01*
X33897762Y111456447D01*
X33665525Y41158909D01*
X33666280Y41144657D01*
X33743878Y40436432D01*
X33750140Y40408630D01*
X33983705Y39735539D01*
X33996010Y39709833D01*
X34373782Y39105769D01*
X34391508Y39083455D01*
X34894463Y38578836D01*
X34916719Y38561036D01*
X35519531Y38181271D01*
X35545196Y38168881D01*
X36217512Y37933094D01*
X36245293Y37926740D01*
X36953257Y37846802D01*
X36967506Y37846000D01*
X42695511Y37846000D01*
X42709741Y37846800D01*
X43416782Y37926526D01*
X43444529Y37932864D01*
X44116061Y38168040D01*
X44141699Y38180397D01*
X44743997Y38559210D01*
X44766239Y38576967D01*
X45269055Y39080394D01*
X45286785Y39102658D01*
X45664867Y39705416D01*
X45677193Y39731069D01*
X45911554Y40402886D01*
X45917858Y40430640D01*
X45996726Y41137777D01*
X45997509Y41152008D01*
X45912786Y110956412D01*
X45999054Y111506176D01*
X46246194Y111993464D01*
X46631656Y112380704D01*
X47117805Y112630087D01*
X47657129Y112717263D01*
X48194927Y112633578D01*
X48680156Y112387170D01*
X49064972Y112002356D01*
X49311384Y111517124D01*
X49396623Y110969339D01*
X49159789Y41032182D01*
X49160542Y41017929D01*
X49238090Y40309661D01*
X49244352Y40281858D01*
X49477886Y39608716D01*
X49490189Y39583008D01*
X49867948Y38978893D01*
X49885675Y38956577D01*
X50388635Y38451911D01*
X50410891Y38434109D01*
X51013724Y38054306D01*
X51039390Y38041915D01*
X51711737Y37806103D01*
X51739519Y37799748D01*
X52447520Y37719802D01*
X52461770Y37719000D01*
X57977618Y37719000D01*
X57991806Y37719795D01*
X58696756Y37799045D01*
X58724423Y37805345D01*
X59394182Y38039138D01*
X59419760Y38051424D01*
X60020891Y38428088D01*
X60043103Y38445747D01*
X60545599Y38946481D01*
X60563335Y38968630D01*
X60942109Y39568434D01*
X60954485Y39593969D01*
X61190629Y40262902D01*
X61197026Y40290547D01*
X61278752Y40995215D01*
X61279597Y41009400D01*
X61527214Y111492450D01*
X61613496Y111912242D01*
X61848552Y112255004D01*
X62198170Y112479734D01*
X62607993Y112551303D01*
X63023210Y112458726D01*
X63373328Y112216364D01*
X63606396Y111859991D01*
X63690500Y111429782D01*
X63690500Y-4984739D01*
X63604140Y-5409591D01*
X63366146Y-5756265D01*
X63339928Y-5773000D01*
X61911517Y-5773000D01*
X61816156Y-5706468D01*
X61578508Y-5342035D01*
X61492196Y-4902912D01*
X61411436Y31950666D01*
X61410609Y31964856D01*
X61329774Y32669806D01*
X61323410Y32697466D01*
X61088034Y33366859D01*
X61075686Y33392415D01*
X60697525Y33992818D01*
X60679810Y34014993D01*
X60177751Y34516416D01*
X60155553Y34534104D01*
X59554672Y34911505D01*
X59529100Y34923820D01*
X58859410Y35158349D01*
X58831742Y35164678D01*
X58126690Y35244620D01*
X58112500Y35245429D01*
X52604788Y35250525D01*
X52590505Y35249733D01*
X51880850Y35170082D01*
X51853002Y35163723D01*
X51179099Y34927486D01*
X51153376Y34915065D01*
X50549314Y34534192D01*
X50527018Y34516337D01*
X50023357Y34010096D01*
X50005616Y33987709D01*
X49627834Y33381710D01*
X49615545Y33355925D01*
X49382753Y32680823D01*
X49376537Y32652943D01*
X49300512Y31942890D01*
X49299792Y31928603D01*
X49519404Y-4467519D01*
X49441619Y-4976508D01*
X49214374Y-5427200D01*
X48870655Y-5773000D01*
X46945701Y-5773000D01*
X46599440Y-5427802D01*
X46368379Y-4976717D01*
X46286103Y-4466390D01*
X46174214Y31953604D01*
X46173376Y31967785D01*
X46092012Y32672270D01*
X46085631Y32699910D01*
X45849926Y33368762D01*
X45837569Y33394296D01*
X45459284Y33994145D01*
X45441568Y34016298D01*
X44939575Y34517220D01*
X44917383Y34534890D01*
X44316726Y34911892D01*
X44291166Y34924194D01*
X43621812Y35158469D01*
X43594158Y35164791D01*
X42889501Y35244650D01*
X42875319Y35245458D01*
X37470095Y35250514D01*
X37455942Y35249736D01*
X36752664Y35171541D01*
X36725057Y35165298D01*
X36056563Y34933282D01*
X36031023Y34921079D01*
X35430520Y34546766D01*
X35408318Y34529210D01*
X34905632Y34031192D01*
X34887870Y34009155D01*
X34507970Y33412170D01*
X34495530Y33386746D01*
X34257286Y32720447D01*
X34250785Y32692899D01*
X34166032Y31990381D01*
X34165122Y31976236D01*
X33859448Y-4434035D01*
X33779405Y-4915137D01*
X33559774Y-5339282D01*
X33220232Y-5675217D01*
X33026353Y-5773000D01*
X31629240Y-5773000D01*
X31430227Y-5670612D01*
X31095949Y-5332960D01*
X30882835Y-4908303D01*
X30810376Y-4428456D01*
X30963001Y15254106D01*
X30962298Y15268468D01*
X30886689Y15982282D01*
X30880457Y16010310D01*
X30646435Y16688898D01*
X30634066Y16714809D01*
X30253592Y17323486D01*
X30235718Y17345957D01*
X29728240Y17853611D01*
X29705776Y17871492D01*
X29097231Y18252177D01*
X29071324Y18264556D01*
X28392817Y18498814D01*
X28364791Y18505056D01*
X27651003Y18580912D01*
X27636641Y18581620D01*
X22303648Y18542116D01*
X22303006Y18542109D01*
X22270830Y18541708D01*
X22270185Y18541698D01*
X20476522Y18510230D01*
X20456787Y18508336D01*
X19897356Y18410110D01*
X19859959Y18397298D01*
X19357830Y18131819D01*
X19326184Y18108128D01*
X18930009Y17701118D01*
X18907181Y17668845D01*
X18655342Y17159739D01*
X18643543Y17122010D01*
X18560442Y16560133D01*
X18559081Y16540354D01*
X18605361Y11634737D01*
X18605500Y11605138D01*
X18605500Y-4590950D01*
X18547879Y-4887800D01*
X18390154Y-5131098D01*
X18152860Y-5297721D01*
X17871093Y-5363321D01*
X17596668Y-5317752D01*
X17362669Y-5168527D01*
X17205970Y-4939462D01*
X17149135Y-4654435D01*
X17257252Y18104038D01*
X17335255Y18778250D01*
X17556737Y19412336D01*
X17911753Y19982501D01*
X18383047Y20461035D01*
X18947732Y20824702D01*
X19578369Y21055828D01*
X20251315Y21144100D01*
X21582271Y21170720D01*
X21601438Y21172564D01*
X22203311Y21276971D01*
X22239719Y21289179D01*
X22782872Y21568707D01*
X22813967Y21591239D01*
X23248743Y22020333D01*
X23271682Y22051128D01*
X23558332Y22590556D01*
X23571018Y22626801D01*
X23683335Y23227248D01*
X23685430Y23246389D01*
X23747185Y25108380D01*
X23747238Y25110485D01*
X23748983Y25215730D01*
X23749000Y25217835D01*
X23749000Y26574410D01*
X23813634Y26984930D01*
X23996736Y27346747D01*
X24282163Y27634804D01*
X24642286Y27821219D01*
X25052189Y27889615D01*
X27405833Y27911208D01*
X27419942Y27912125D01*
X28120648Y27997013D01*
X28148125Y28003503D01*
X28812762Y28241101D01*
X28838126Y28253501D01*
X29433847Y28632066D01*
X29455845Y28649763D01*
X29953209Y29150587D01*
X29970754Y29172708D01*
X30345180Y29771040D01*
X30357404Y29796489D01*
X30492665Y30183299D01*
X30851049Y30331746D01*
X32068254Y31548951D01*
X32727000Y33139306D01*
X32727000Y34860694D01*
X32068254Y36451049D01*
X30851049Y37668254D01*
X30692159Y37734068D01*
X30692694Y37972805D01*
X30692694Y37972809D01*
X30693121Y38163304D01*
X30693121Y38163308D01*
X30857285Y111435127D01*
X30934187Y111916349D01*
X31150725Y112341662D01*
X31487519Y112679823D01*
X31668716Y112773000D01*
X33109546Y112773000D01*
X33273319Y112690256D01*
X33273319Y112690256D01*
G37*
X33273319Y112690256D02*
X33608526Y112356049D01*
X33823240Y111934205D01*
X33897762Y111456447D01*
X33665525Y41158909D01*
X33666280Y41144657D01*
X33743878Y40436432D01*
X33750140Y40408630D01*
X33983705Y39735539D01*
X33996010Y39709833D01*
X34373782Y39105769D01*
X34391508Y39083455D01*
X34894463Y38578836D01*
X34916719Y38561036D01*
X35519531Y38181271D01*
X35545196Y38168881D01*
X36217512Y37933094D01*
X36245293Y37926740D01*
X36953257Y37846802D01*
X36967506Y37846000D01*
X42695511Y37846000D01*
X42709741Y37846800D01*
X43416782Y37926526D01*
X43444529Y37932864D01*
X44116061Y38168040D01*
X44141699Y38180397D01*
X44743997Y38559210D01*
X44766239Y38576967D01*
X45269055Y39080394D01*
X45286785Y39102658D01*
X45664867Y39705416D01*
X45677193Y39731069D01*
X45911554Y40402886D01*
X45917858Y40430640D01*
X45996726Y41137777D01*
X45997509Y41152008D01*
X45912786Y110956412D01*
X45999054Y111506176D01*
X46246194Y111993464D01*
X46631656Y112380704D01*
X47117805Y112630087D01*
X47657129Y112717263D01*
X48194927Y112633578D01*
X48680156Y112387170D01*
X49064972Y112002356D01*
X49311384Y111517124D01*
X49396623Y110969339D01*
X49159789Y41032182D01*
X49160542Y41017929D01*
X49238090Y40309661D01*
X49244352Y40281858D01*
X49477886Y39608716D01*
X49490189Y39583008D01*
X49867948Y38978893D01*
X49885675Y38956577D01*
X50388635Y38451911D01*
X50410891Y38434109D01*
X51013724Y38054306D01*
X51039390Y38041915D01*
X51711737Y37806103D01*
X51739519Y37799748D01*
X52447520Y37719802D01*
X52461770Y37719000D01*
X57977618Y37719000D01*
X57991806Y37719795D01*
X58696756Y37799045D01*
X58724423Y37805345D01*
X59394182Y38039138D01*
X59419760Y38051424D01*
X60020891Y38428088D01*
X60043103Y38445747D01*
X60545599Y38946481D01*
X60563335Y38968630D01*
X60942109Y39568434D01*
X60954485Y39593969D01*
X61190629Y40262902D01*
X61197026Y40290547D01*
X61278752Y40995215D01*
X61279597Y41009400D01*
X61527214Y111492450D01*
X61613496Y111912242D01*
X61848552Y112255004D01*
X62198170Y112479734D01*
X62607993Y112551303D01*
X63023210Y112458726D01*
X63373328Y112216364D01*
X63606396Y111859991D01*
X63690500Y111429782D01*
X63690500Y-4984739D01*
X63604140Y-5409591D01*
X63366146Y-5756265D01*
X63339928Y-5773000D01*
X61911517Y-5773000D01*
X61816156Y-5706468D01*
X61578508Y-5342035D01*
X61492196Y-4902912D01*
X61411436Y31950666D01*
X61410609Y31964856D01*
X61329774Y32669806D01*
X61323410Y32697466D01*
X61088034Y33366859D01*
X61075686Y33392415D01*
X60697525Y33992818D01*
X60679810Y34014993D01*
X60177751Y34516416D01*
X60155553Y34534104D01*
X59554672Y34911505D01*
X59529100Y34923820D01*
X58859410Y35158349D01*
X58831742Y35164678D01*
X58126690Y35244620D01*
X58112500Y35245429D01*
X52604788Y35250525D01*
X52590505Y35249733D01*
X51880850Y35170082D01*
X51853002Y35163723D01*
X51179099Y34927486D01*
X51153376Y34915065D01*
X50549314Y34534192D01*
X50527018Y34516337D01*
X50023357Y34010096D01*
X50005616Y33987709D01*
X49627834Y33381710D01*
X49615545Y33355925D01*
X49382753Y32680823D01*
X49376537Y32652943D01*
X49300512Y31942890D01*
X49299792Y31928603D01*
X49519404Y-4467519D01*
X49441619Y-4976508D01*
X49214374Y-5427200D01*
X48870655Y-5773000D01*
X46945701Y-5773000D01*
X46599440Y-5427802D01*
X46368379Y-4976717D01*
X46286103Y-4466390D01*
X46174214Y31953604D01*
X46173376Y31967785D01*
X46092012Y32672270D01*
X46085631Y32699910D01*
X45849926Y33368762D01*
X45837569Y33394296D01*
X45459284Y33994145D01*
X45441568Y34016298D01*
X44939575Y34517220D01*
X44917383Y34534890D01*
X44316726Y34911892D01*
X44291166Y34924194D01*
X43621812Y35158469D01*
X43594158Y35164791D01*
X42889501Y35244650D01*
X42875319Y35245458D01*
X37470095Y35250514D01*
X37455942Y35249736D01*
X36752664Y35171541D01*
X36725057Y35165298D01*
X36056563Y34933282D01*
X36031023Y34921079D01*
X35430520Y34546766D01*
X35408318Y34529210D01*
X34905632Y34031192D01*
X34887870Y34009155D01*
X34507970Y33412170D01*
X34495530Y33386746D01*
X34257286Y32720447D01*
X34250785Y32692899D01*
X34166032Y31990381D01*
X34165122Y31976236D01*
X33859448Y-4434035D01*
X33779405Y-4915137D01*
X33559774Y-5339282D01*
X33220232Y-5675217D01*
X33026353Y-5773000D01*
X31629240Y-5773000D01*
X31430227Y-5670612D01*
X31095949Y-5332960D01*
X30882835Y-4908303D01*
X30810376Y-4428456D01*
X30963001Y15254106D01*
X30962298Y15268468D01*
X30886689Y15982282D01*
X30880457Y16010310D01*
X30646435Y16688898D01*
X30634066Y16714809D01*
X30253592Y17323486D01*
X30235718Y17345957D01*
X29728240Y17853611D01*
X29705776Y17871492D01*
X29097231Y18252177D01*
X29071324Y18264556D01*
X28392817Y18498814D01*
X28364791Y18505056D01*
X27651003Y18580912D01*
X27636641Y18581620D01*
X22303648Y18542116D01*
X22303006Y18542109D01*
X22270830Y18541708D01*
X22270185Y18541698D01*
X20476522Y18510230D01*
X20456787Y18508336D01*
X19897356Y18410110D01*
X19859959Y18397298D01*
X19357830Y18131819D01*
X19326184Y18108128D01*
X18930009Y17701118D01*
X18907181Y17668845D01*
X18655342Y17159739D01*
X18643543Y17122010D01*
X18560442Y16560133D01*
X18559081Y16540354D01*
X18605361Y11634737D01*
X18605500Y11605138D01*
X18605500Y-4590950D01*
X18547879Y-4887800D01*
X18390154Y-5131098D01*
X18152860Y-5297721D01*
X17871093Y-5363321D01*
X17596668Y-5317752D01*
X17362669Y-5168527D01*
X17205970Y-4939462D01*
X17149135Y-4654435D01*
X17257252Y18104038D01*
X17335255Y18778250D01*
X17556737Y19412336D01*
X17911753Y19982501D01*
X18383047Y20461035D01*
X18947732Y20824702D01*
X19578369Y21055828D01*
X20251315Y21144100D01*
X21582271Y21170720D01*
X21601438Y21172564D01*
X22203311Y21276971D01*
X22239719Y21289179D01*
X22782872Y21568707D01*
X22813967Y21591239D01*
X23248743Y22020333D01*
X23271682Y22051128D01*
X23558332Y22590556D01*
X23571018Y22626801D01*
X23683335Y23227248D01*
X23685430Y23246389D01*
X23747185Y25108380D01*
X23747238Y25110485D01*
X23748983Y25215730D01*
X23749000Y25217835D01*
X23749000Y26574410D01*
X23813634Y26984930D01*
X23996736Y27346747D01*
X24282163Y27634804D01*
X24642286Y27821219D01*
X25052189Y27889615D01*
X27405833Y27911208D01*
X27419942Y27912125D01*
X28120648Y27997013D01*
X28148125Y28003503D01*
X28812762Y28241101D01*
X28838126Y28253501D01*
X29433847Y28632066D01*
X29455845Y28649763D01*
X29953209Y29150587D01*
X29970754Y29172708D01*
X30345180Y29771040D01*
X30357404Y29796489D01*
X30492665Y30183299D01*
X30851049Y30331746D01*
X32068254Y31548951D01*
X32727000Y33139306D01*
X32727000Y34860694D01*
X32068254Y36451049D01*
X30851049Y37668254D01*
X30692159Y37734068D01*
X30692694Y37972805D01*
X30692694Y37972809D01*
X30693121Y38163304D01*
X30693121Y38163308D01*
X30857285Y111435127D01*
X30934187Y111916349D01*
X31150725Y112341662D01*
X31487519Y112679823D01*
X31668716Y112773000D01*
X33109546Y112773000D01*
X33273319Y112690256D01*
G04 #@! TO.N,/C2+*
G36*
X40511841Y112824110D02*
X40997559Y112577761D01*
X41382985Y112192980D01*
X41630147Y111707678D01*
X41716273Y111159635D01*
X41595509Y40681950D01*
X41513906Y40171818D01*
X41283416Y39720796D01*
X40924952Y39362945D01*
X40473536Y39133230D01*
X39973250Y39054080D01*
X39472964Y39133230D01*
X39021548Y39362945D01*
X38663084Y39720796D01*
X38432594Y40171818D01*
X38350990Y40681950D01*
X38230227Y111146974D01*
X38316229Y111696659D01*
X38563146Y112183929D01*
X38948424Y112571177D01*
X39434428Y112820579D01*
X39973643Y112907764D01*
X40511841Y112824110D01*
X40511841Y112824110D01*
G37*
X40511841Y112824110D02*
X40997559Y112577761D01*
X41382985Y112192980D01*
X41630147Y111707678D01*
X41716273Y111159635D01*
X41595509Y40681950D01*
X41513906Y40171818D01*
X41283416Y39720796D01*
X40924952Y39362945D01*
X40473536Y39133230D01*
X39973250Y39054080D01*
X39472964Y39133230D01*
X39021548Y39362945D01*
X38663084Y39720796D01*
X38432594Y40171818D01*
X38350990Y40681950D01*
X38230227Y111146974D01*
X38316229Y111696659D01*
X38563146Y112183929D01*
X38948424Y112571177D01*
X39434428Y112820579D01*
X39973643Y112907764D01*
X40511841Y112824110D01*
G36*
X55941915Y112951078D02*
X56427130Y112704667D01*
X56811928Y112319852D01*
X57058316Y111834624D01*
X57143530Y111286844D01*
X56902035Y40999649D01*
X56819581Y40489273D01*
X56588367Y40038176D01*
X56229320Y39680361D01*
X55777435Y39450700D01*
X55276772Y39371579D01*
X54776865Y39450757D01*
X54325910Y39680530D01*
X53968030Y40038410D01*
X53738257Y40489365D01*
X53657500Y40999242D01*
X53657500Y111273766D01*
X53744412Y111823713D01*
X53992101Y112311055D01*
X54378003Y112698268D01*
X54864506Y112947609D01*
X55404119Y113034764D01*
X55941915Y112951078D01*
X55941915Y112951078D01*
G37*
X55941915Y112951078D02*
X56427130Y112704667D01*
X56811928Y112319852D01*
X57058316Y111834624D01*
X57143530Y111286844D01*
X56902035Y40999649D01*
X56819581Y40489273D01*
X56588367Y40038176D01*
X56229320Y39680361D01*
X55777435Y39450700D01*
X55276772Y39371579D01*
X54776865Y39450757D01*
X54325910Y39680530D01*
X53968030Y40038410D01*
X53738257Y40489365D01*
X53657500Y40999242D01*
X53657500Y111273766D01*
X53744412Y111823713D01*
X53992101Y112311055D01*
X54378003Y112698268D01*
X54864506Y112947609D01*
X55404119Y113034764D01*
X55941915Y112951078D01*
G36*
X40535155Y33383639D02*
X40984374Y33153667D01*
X41340089Y32795680D01*
X41567196Y32345000D01*
X41644817Y31836057D01*
X41412784Y-4593021D01*
X41332106Y-5084163D01*
X41108781Y-5517675D01*
X40762866Y-5861393D01*
X40327944Y-6081951D01*
X39846311Y-6157920D01*
X39366705Y-6081802D01*
X38934286Y-5860953D01*
X38591499Y-5517071D01*
X38372030Y-5083956D01*
X38295890Y-4594144D01*
X38411906Y31834877D01*
X38494237Y32345221D01*
X38725344Y32796306D01*
X39084304Y33154126D01*
X39536124Y33383795D01*
X40036689Y33462913D01*
X40535155Y33383639D01*
X40535155Y33383639D01*
G37*
X40535155Y33383639D02*
X40984374Y33153667D01*
X41340089Y32795680D01*
X41567196Y32345000D01*
X41644817Y31836057D01*
X41412784Y-4593021D01*
X41332106Y-5084163D01*
X41108781Y-5517675D01*
X40762866Y-5861393D01*
X40327944Y-6081951D01*
X39846311Y-6157920D01*
X39366705Y-6081802D01*
X38934286Y-5860953D01*
X38591499Y-5517071D01*
X38372030Y-5083956D01*
X38295890Y-4594144D01*
X38411906Y31834877D01*
X38494237Y32345221D01*
X38725344Y32796306D01*
X39084304Y33154126D01*
X39536124Y33383795D01*
X40036689Y33462913D01*
X40535155Y33383639D01*
G36*
X55889683Y33473314D02*
X56340733Y33243553D01*
X56698730Y32885682D01*
X56928651Y32434710D01*
X57009582Y31924779D01*
X57022392Y-4554999D01*
X56943190Y-5059638D01*
X56717415Y-5506617D01*
X56365312Y-5862693D01*
X55920891Y-6093473D01*
X55427214Y-6176641D01*
X54936125Y-6103858D01*
X54492095Y-5882118D01*
X54138966Y-5533362D01*
X53911708Y-5092125D01*
X53831216Y-4592062D01*
X53773253Y31925013D01*
X53853228Y32434666D01*
X54082335Y32885552D01*
X54439675Y33243460D01*
X54890198Y33473283D01*
X55389727Y33552482D01*
X55889683Y33473314D01*
X55889683Y33473314D01*
G37*
X55889683Y33473314D02*
X56340733Y33243553D01*
X56698730Y32885682D01*
X56928651Y32434710D01*
X57009582Y31924779D01*
X57022392Y-4554999D01*
X56943190Y-5059638D01*
X56717415Y-5506617D01*
X56365312Y-5862693D01*
X55920891Y-6093473D01*
X55427214Y-6176641D01*
X54936125Y-6103858D01*
X54492095Y-5882118D01*
X54138966Y-5533362D01*
X53911708Y-5092125D01*
X53831216Y-4592062D01*
X53773253Y31925013D01*
X53853228Y32434666D01*
X54082335Y32885552D01*
X54439675Y33243460D01*
X54890198Y33473283D01*
X55389727Y33552482D01*
X55889683Y33473314D01*
G36*
X25025328Y16564013D02*
X25432029Y16356788D01*
X25754788Y16034029D01*
X25962013Y15627328D01*
X26035000Y15166508D01*
X26035000Y-4562008D01*
X25958905Y-5042451D01*
X25742661Y-5466853D01*
X25405853Y-5803661D01*
X24981451Y-6019905D01*
X24511035Y-6094412D01*
X24041773Y-6019822D01*
X23618795Y-5803420D01*
X23283766Y-5466536D01*
X23069705Y-5042369D01*
X22996174Y-4562694D01*
X23105172Y15165862D01*
X23180630Y15627422D01*
X23389954Y16034343D01*
X23714420Y16357022D01*
X24122492Y16564093D01*
X24574465Y16635423D01*
X25025328Y16564013D01*
X25025328Y16564013D01*
G37*
X25025328Y16564013D02*
X25432029Y16356788D01*
X25754788Y16034029D01*
X25962013Y15627328D01*
X26035000Y15166508D01*
X26035000Y-4562008D01*
X25958905Y-5042451D01*
X25742661Y-5466853D01*
X25405853Y-5803661D01*
X24981451Y-6019905D01*
X24511035Y-6094412D01*
X24041773Y-6019822D01*
X23618795Y-5803420D01*
X23283766Y-5466536D01*
X23069705Y-5042369D01*
X22996174Y-4562694D01*
X23105172Y15165862D01*
X23180630Y15627422D01*
X23389954Y16034343D01*
X23714420Y16357022D01*
X24122492Y16564093D01*
X24574465Y16635423D01*
X25025328Y16564013D01*
G36*
X25821343Y112771894D02*
X26097441Y112586573D01*
X26281217Y112309440D01*
X26346929Y111970424D01*
X25913224Y34399231D01*
X25848504Y34088814D01*
X25675427Y33838774D01*
X25418657Y33675851D01*
X25118232Y33625674D01*
X24812786Y33696229D01*
X24555811Y33876636D01*
X24385420Y34140359D01*
X24324230Y34461044D01*
X24634015Y111969276D01*
X24702888Y112309301D01*
X24889261Y112586725D01*
X25167426Y112771987D01*
X25495173Y112837010D01*
X25821343Y112771894D01*
X25821343Y112771894D01*
G37*
X25821343Y112771894D02*
X26097441Y112586573D01*
X26281217Y112309440D01*
X26346929Y111970424D01*
X25913224Y34399231D01*
X25848504Y34088814D01*
X25675427Y33838774D01*
X25418657Y33675851D01*
X25118232Y33625674D01*
X24812786Y33696229D01*
X24555811Y33876636D01*
X24385420Y34140359D01*
X24324230Y34461044D01*
X24634015Y111969276D01*
X24702888Y112309301D01*
X24889261Y112586725D01*
X25167426Y112771987D01*
X25495173Y112837010D01*
X25821343Y112771894D01*
G04 #@! TO.N,/C1-*
G36*
X-16215892Y113004912D02*
X-15721662Y112752468D01*
X-15329895Y112359399D01*
X-15079092Y111864328D01*
X-14992357Y111305916D01*
X-15223869Y41583578D01*
X-15223134Y41569505D01*
X-15147513Y40870063D01*
X-15141407Y40842592D01*
X-14913614Y40176974D01*
X-14901609Y40151523D01*
X-14532829Y39552409D01*
X-14515514Y39530226D01*
X-14023852Y39027031D01*
X-14002076Y39009206D01*
X-13411672Y38626636D01*
X-13386506Y38614044D01*
X-12726348Y38370882D01*
X-12699027Y38364141D01*
X-12001526Y38272326D01*
X-11987474Y38271265D01*
X-6600570Y38164245D01*
X-6586173Y38164776D01*
X-5870165Y38232014D01*
X-5842014Y38237930D01*
X-5159505Y38464581D01*
X-5133407Y38476681D01*
X-4519414Y38851116D01*
X-4496708Y38868778D01*
X-3982731Y39371786D01*
X-3964583Y39394106D01*
X-3576994Y39999881D01*
X-3564334Y40025711D01*
X-3323016Y40703172D01*
X-3316495Y40731190D01*
X-3233829Y41445582D01*
X-3232987Y41459963D01*
X-3114830Y110759348D01*
X-3023719Y111333158D01*
X-2765653Y111842470D01*
X-2363895Y112248170D01*
X-1857125Y112511200D01*
X-1294310Y112606208D01*
X-736366Y112523519D01*
X-232217Y112271007D01*
X168018Y111873843D01*
X424404Y111371652D01*
X512935Y110804445D01*
X250961Y41322680D01*
X251711Y41308414D01*
X329130Y40599481D01*
X335391Y40571651D01*
X569086Y39897880D01*
X581402Y39872149D01*
X959582Y39267534D01*
X977329Y39245202D01*
X1480915Y38740245D01*
X1503200Y38722436D01*
X2106786Y38342614D01*
X2132483Y38330229D01*
X2805616Y38094704D01*
X2833429Y38088367D01*
X3542149Y38009021D01*
X3556413Y38008232D01*
X9260044Y38014236D01*
X9274251Y38015048D01*
X9980116Y38095269D01*
X10007814Y38101617D01*
X10678174Y38336776D01*
X10703768Y38349123D01*
X11305060Y38727447D01*
X11327268Y38745176D01*
X11829389Y39247725D01*
X11847099Y39269948D01*
X12224911Y39871563D01*
X12237236Y39897167D01*
X12471824Y40567726D01*
X12478148Y40595430D01*
X12557767Y41301364D01*
X12558567Y41315572D01*
X12572609Y111272480D01*
X12663430Y111833340D01*
X12921621Y112327816D01*
X13322516Y112715704D01*
X13825239Y112957454D01*
X14378895Y113028465D01*
X14940362Y112921933D01*
X15443031Y112649289D01*
X15838784Y112236508D01*
X16090023Y111722809D01*
X16174320Y111147131D01*
X15501187Y39060712D01*
X15409550Y38343314D01*
X15153108Y37667077D01*
X14275673Y35982403D01*
X14269519Y35968653D01*
X14003610Y35265395D01*
X13996379Y35236204D01*
X13903287Y34490138D01*
X13902312Y34475106D01*
X13720249Y1096843D01*
X13629525Y764311D01*
X13397360Y533408D01*
X13081041Y448959D01*
X12765373Y533439D01*
X12534131Y764265D01*
X12444590Y1096429D01*
X12388211Y32217118D01*
X12387394Y32231272D01*
X12307229Y32934503D01*
X12300907Y32962100D01*
X12066943Y33630098D01*
X12054664Y33655608D01*
X11678527Y34255177D01*
X11660902Y34277333D01*
X11161287Y34778676D01*
X11139192Y34796378D01*
X10540925Y35174581D01*
X10515457Y35186947D01*
X9848271Y35423215D01*
X9820697Y35429632D01*
X9117747Y35512224D01*
X9103595Y35513090D01*
X3400272Y35543108D01*
X3385952Y35542374D01*
X2674304Y35465431D01*
X2646367Y35459164D01*
X1970039Y35224760D01*
X1944215Y35212394D01*
X1337585Y34832442D01*
X1315188Y34814606D01*
X809087Y34308419D01*
X791254Y34286018D01*
X411407Y33679322D01*
X399046Y33653497D01*
X164757Y32977129D01*
X158495Y32949190D01*
X81675Y32237529D01*
X80943Y32223209D01*
X243939Y2231812D01*
X161350Y1693332D01*
X-79548Y1216063D01*
X-456552Y837004D01*
X-655941Y735000D01*
X-2270326Y735000D01*
X-2470201Y836431D01*
X-2851096Y1215261D01*
X-3096806Y1692992D01*
X-3185064Y2233125D01*
X-3348340Y32275945D01*
X-3349210Y32290111D01*
X-3432092Y32993772D01*
X-3438527Y33021373D01*
X-3675392Y33689132D01*
X-3687788Y33714618D01*
X-4066839Y34313223D01*
X-4084578Y34335326D01*
X-4586940Y34834965D01*
X-4609139Y34852584D01*
X-5209795Y35228377D01*
X-5235348Y35240634D01*
X-5904385Y35473866D01*
X-5932021Y35480151D01*
X-6636121Y35559207D01*
X-6650291Y35560000D01*
X-11938000Y35560000D01*
X-11952220Y35559201D01*
X-12658724Y35479597D01*
X-12686449Y35473269D01*
X-13357526Y35238449D01*
X-13383149Y35226110D01*
X-13985148Y34847849D01*
X-14007383Y34830118D01*
X-14510118Y34327383D01*
X-14527849Y34305148D01*
X-14906110Y33703149D01*
X-14918449Y33677526D01*
X-15153269Y33006449D01*
X-15159597Y32978724D01*
X-15239201Y32272220D01*
X-15240000Y32258000D01*
X-15240000Y-3767867D01*
X-15324170Y-4293330D01*
X-15563566Y-4757121D01*
X-15935849Y-5122929D01*
X-16403767Y-5354152D01*
X-16920701Y-5427681D01*
X-17442153Y-5336492D01*
X-17910828Y-5089936D01*
X-18281510Y-4711728D01*
X-18518597Y-4238190D01*
X-18600846Y-3704905D01*
X-18550185Y16103302D01*
X-18550956Y16117595D01*
X-18629549Y16827823D01*
X-18635869Y16855699D01*
X-18871301Y17530364D01*
X-18883695Y17556119D01*
X-19264038Y18161048D01*
X-19281878Y18183379D01*
X-19787870Y18687932D01*
X-19810253Y18705709D01*
X-20416263Y19084329D01*
X-20442053Y19096650D01*
X-21117386Y19330158D01*
X-21145279Y19336399D01*
X-21855728Y19412970D01*
X-21870023Y19413699D01*
X-27284510Y19384431D01*
X-27298605Y19383570D01*
X-27998747Y19301528D01*
X-28026215Y19295158D01*
X-28690997Y19060649D01*
X-28716382Y19048374D01*
X-29313033Y18672959D01*
X-29335085Y18655386D01*
X-29834194Y18157571D01*
X-29851824Y18135565D01*
X-30228786Y17539890D01*
X-30241127Y17514536D01*
X-30477359Y16850364D01*
X-30483800Y16822913D01*
X-30567659Y16122987D01*
X-30568557Y16108895D01*
X-30719670Y-2780207D01*
X-30806878Y-3289369D01*
X-31046381Y-3735279D01*
X-31415125Y-4082007D01*
X-31874913Y-4293641D01*
X-32378745Y-4348325D01*
X-32895489Y-4240621D01*
X-33356872Y-3982895D01*
X-33719973Y-3598903D01*
X-33951514Y-3123844D01*
X-34031727Y-2591592D01*
X-33972546Y22205537D01*
X-33972239Y22242440D01*
X-33827603Y32415201D01*
X-33828208Y32429521D01*
X-33898706Y33141508D01*
X-33904717Y33169488D01*
X-34132846Y33847612D01*
X-34144969Y33873536D01*
X-34519145Y34483362D01*
X-34536765Y34505914D01*
X-35037985Y35016475D01*
X-35060207Y35034508D01*
X-35663021Y35419878D01*
X-35688717Y35432478D01*
X-36362514Y35673088D01*
X-36390379Y35679614D01*
X-37100943Y35763245D01*
X-37115249Y35764115D01*
X-42116026Y35785349D01*
X-42130203Y35784616D01*
X-42834806Y35708512D01*
X-42862474Y35702341D01*
X-43532643Y35471838D01*
X-43558254Y35459684D01*
X-44160597Y35086268D01*
X-44182873Y35068735D01*
X-44687381Y34571011D01*
X-44705213Y34548974D01*
X-45086748Y33951740D01*
X-45099248Y33926297D01*
X-45338800Y33259309D01*
X-45345344Y33231727D01*
X-45430979Y32528219D01*
X-45431905Y32514053D01*
X-45764246Y-3260746D01*
X-45835966Y-3770537D01*
X-46033522Y-4236855D01*
X-46344704Y-4636415D01*
X-46748441Y-4942161D01*
X-47217395Y-5133390D01*
X-47719816Y-5197150D01*
X-48222167Y-5129156D01*
X-48690052Y-4934030D01*
X-49091873Y-4624944D01*
X-49400495Y-4222771D01*
X-49595085Y-3754661D01*
X-49663616Y-3243934D01*
X-49774486Y32540092D01*
X-49775321Y32554243D01*
X-49856364Y33257251D01*
X-49862719Y33284835D01*
X-50097463Y33952430D01*
X-50109770Y33977921D01*
X-50486555Y34576938D01*
X-50504203Y34599070D01*
X-51004310Y35099751D01*
X-51026421Y35117424D01*
X-51625005Y35494896D01*
X-51650482Y35507233D01*
X-52317807Y35742744D01*
X-52345384Y35749131D01*
X-53048299Y35830981D01*
X-53062449Y35831832D01*
X-58039730Y35852966D01*
X-58053949Y35852228D01*
X-58760618Y35775663D01*
X-58788364Y35769456D01*
X-59460291Y35537597D01*
X-59485961Y35525372D01*
X-60089467Y35149841D01*
X-60111774Y35132212D01*
X-60616613Y34631831D01*
X-60634440Y34609681D01*
X-61015308Y34009529D01*
X-61027759Y33983968D01*
X-61265568Y33314124D01*
X-61272022Y33286434D01*
X-61354852Y32580472D01*
X-61355716Y32566260D01*
X-61526011Y-4273204D01*
X-61609912Y-4686265D01*
X-61837998Y-5025493D01*
X-62178279Y-5252009D01*
X-62579218Y-5331520D01*
X-62979366Y-5251954D01*
X-63318610Y-5025377D01*
X-63545368Y-4686254D01*
X-63627636Y-4273678D01*
X-63689864Y111969840D01*
X-63608070Y112382962D01*
X-63381712Y112722901D01*
X-63042653Y112950579D01*
X-62642389Y113031445D01*
X-62242949Y112953164D01*
X-61904152Y112727656D01*
X-61677799Y112389429D01*
X-61596039Y111977694D01*
X-61655568Y41682176D01*
X-61654776Y41667909D01*
X-61575255Y40959073D01*
X-61568910Y40931256D01*
X-61333159Y40258060D01*
X-61320764Y40232363D01*
X-60940683Y39628782D01*
X-60922864Y39606499D01*
X-60417634Y39102998D01*
X-60395290Y39085255D01*
X-59790410Y38707243D01*
X-59764669Y38694936D01*
X-59090669Y38461494D01*
X-59062831Y38455244D01*
X-58353727Y38378152D01*
X-58339458Y38377409D01*
X-52682791Y38401582D01*
X-52668637Y38402434D01*
X-51965499Y38484355D01*
X-51937914Y38490747D01*
X-51270404Y38726426D01*
X-51244921Y38738771D01*
X-50646222Y39116490D01*
X-50624108Y39134174D01*
X-50123980Y39635159D01*
X-50106333Y39657304D01*
X-49729639Y40256649D01*
X-49717338Y40282153D01*
X-49482802Y40950065D01*
X-49476457Y40977661D01*
X-49395740Y41680938D01*
X-49394912Y41695094D01*
X-49216917Y111178484D01*
X-49136495Y111678933D01*
X-48910231Y112121194D01*
X-48558590Y112472102D01*
X-48115861Y112697440D01*
X-47625220Y112775236D01*
X-47134707Y112697890D01*
X-46692018Y112472942D01*
X-46340359Y112122351D01*
X-46114065Y111680344D01*
X-46033626Y111180104D01*
X-45855490Y41738429D01*
X-45854653Y41724196D01*
X-45773062Y41017144D01*
X-45766649Y40989406D01*
X-45529607Y40318294D01*
X-45517176Y40292682D01*
X-45136593Y39691236D01*
X-45118769Y39669036D01*
X-44613772Y39167481D01*
X-44591451Y39149809D01*
X-43987416Y38773348D01*
X-43961719Y38761093D01*
X-43289002Y38528646D01*
X-43261220Y38522423D01*
X-42553626Y38445670D01*
X-42539388Y38444930D01*
X-37246941Y38467548D01*
X-37232802Y38468398D01*
X-36530416Y38550145D01*
X-36502860Y38556524D01*
X-35835988Y38791704D01*
X-35810526Y38804023D01*
X-35212246Y39180970D01*
X-35190143Y39198619D01*
X-34690131Y39698636D01*
X-34672482Y39720739D01*
X-34295541Y40319023D01*
X-34283222Y40344485D01*
X-34048050Y41011360D01*
X-34041672Y41038917D01*
X-33959932Y41741304D01*
X-33959082Y41755443D01*
X-33661539Y111559008D01*
X-33589835Y112000756D01*
X-33390080Y112389924D01*
X-33080103Y112698583D01*
X-32690085Y112896679D01*
X-32258004Y112964925D01*
X-31826085Y112896668D01*
X-31436266Y112698551D01*
X-31126535Y112389882D01*
X-30927078Y112000743D01*
X-30855728Y111559100D01*
X-30610662Y40244823D01*
X-30676883Y39832042D01*
X-30866567Y39471300D01*
X-31161516Y39190014D01*
X-31549712Y39008833D01*
X-31549828Y39008779D01*
X-31955795Y38818806D01*
X-31989893Y38795418D01*
X-32313318Y38485103D01*
X-32338096Y38452001D01*
X-32544697Y38054238D01*
X-32557528Y38014932D01*
X-32625405Y37571884D01*
X-32626862Y37551191D01*
X-32547899Y30681483D01*
X-32546955Y30667419D01*
X-32460940Y29968999D01*
X-32454424Y29941616D01*
X-32216679Y29279296D01*
X-32204292Y29254020D01*
X-31826496Y28660337D01*
X-31808846Y28638411D01*
X-31309557Y28142527D01*
X-31287510Y28125027D01*
X-30691256Y27751303D01*
X-30665896Y27739089D01*
X-30001965Y27505881D01*
X-29974538Y27499553D01*
X-29275545Y27418318D01*
X-29261475Y27417470D01*
X-21949551Y27383461D01*
X-21935211Y27384206D01*
X-21222598Y27461812D01*
X-21194626Y27468115D01*
X-20517584Y27703603D01*
X-20491738Y27716019D01*
X-19884779Y28097385D01*
X-19862378Y28115283D01*
X-19356439Y28623089D01*
X-19338624Y28645556D01*
X-18959495Y29253915D01*
X-18947174Y29279806D01*
X-18714181Y29957710D01*
X-18707982Y29985704D01*
X-18633000Y30698598D01*
X-18632307Y30712941D01*
X-18668871Y35100571D01*
X-18668974Y35131328D01*
X-18545114Y111305314D01*
X-18455707Y111864503D01*
X-18202641Y112359780D01*
X-17809040Y112752741D01*
X-17313352Y113005003D01*
X-16764031Y113091915D01*
X-16215892Y113004912D01*
X-16215892Y113004912D01*
G37*
X-16215892Y113004912D02*
X-15721662Y112752468D01*
X-15329895Y112359399D01*
X-15079092Y111864328D01*
X-14992357Y111305916D01*
X-15223869Y41583578D01*
X-15223134Y41569505D01*
X-15147513Y40870063D01*
X-15141407Y40842592D01*
X-14913614Y40176974D01*
X-14901609Y40151523D01*
X-14532829Y39552409D01*
X-14515514Y39530226D01*
X-14023852Y39027031D01*
X-14002076Y39009206D01*
X-13411672Y38626636D01*
X-13386506Y38614044D01*
X-12726348Y38370882D01*
X-12699027Y38364141D01*
X-12001526Y38272326D01*
X-11987474Y38271265D01*
X-6600570Y38164245D01*
X-6586173Y38164776D01*
X-5870165Y38232014D01*
X-5842014Y38237930D01*
X-5159505Y38464581D01*
X-5133407Y38476681D01*
X-4519414Y38851116D01*
X-4496708Y38868778D01*
X-3982731Y39371786D01*
X-3964583Y39394106D01*
X-3576994Y39999881D01*
X-3564334Y40025711D01*
X-3323016Y40703172D01*
X-3316495Y40731190D01*
X-3233829Y41445582D01*
X-3232987Y41459963D01*
X-3114830Y110759348D01*
X-3023719Y111333158D01*
X-2765653Y111842470D01*
X-2363895Y112248170D01*
X-1857125Y112511200D01*
X-1294310Y112606208D01*
X-736366Y112523519D01*
X-232217Y112271007D01*
X168018Y111873843D01*
X424404Y111371652D01*
X512935Y110804445D01*
X250961Y41322680D01*
X251711Y41308414D01*
X329130Y40599481D01*
X335391Y40571651D01*
X569086Y39897880D01*
X581402Y39872149D01*
X959582Y39267534D01*
X977329Y39245202D01*
X1480915Y38740245D01*
X1503200Y38722436D01*
X2106786Y38342614D01*
X2132483Y38330229D01*
X2805616Y38094704D01*
X2833429Y38088367D01*
X3542149Y38009021D01*
X3556413Y38008232D01*
X9260044Y38014236D01*
X9274251Y38015048D01*
X9980116Y38095269D01*
X10007814Y38101617D01*
X10678174Y38336776D01*
X10703768Y38349123D01*
X11305060Y38727447D01*
X11327268Y38745176D01*
X11829389Y39247725D01*
X11847099Y39269948D01*
X12224911Y39871563D01*
X12237236Y39897167D01*
X12471824Y40567726D01*
X12478148Y40595430D01*
X12557767Y41301364D01*
X12558567Y41315572D01*
X12572609Y111272480D01*
X12663430Y111833340D01*
X12921621Y112327816D01*
X13322516Y112715704D01*
X13825239Y112957454D01*
X14378895Y113028465D01*
X14940362Y112921933D01*
X15443031Y112649289D01*
X15838784Y112236508D01*
X16090023Y111722809D01*
X16174320Y111147131D01*
X15501187Y39060712D01*
X15409550Y38343314D01*
X15153108Y37667077D01*
X14275673Y35982403D01*
X14269519Y35968653D01*
X14003610Y35265395D01*
X13996379Y35236204D01*
X13903287Y34490138D01*
X13902312Y34475106D01*
X13720249Y1096843D01*
X13629525Y764311D01*
X13397360Y533408D01*
X13081041Y448959D01*
X12765373Y533439D01*
X12534131Y764265D01*
X12444590Y1096429D01*
X12388211Y32217118D01*
X12387394Y32231272D01*
X12307229Y32934503D01*
X12300907Y32962100D01*
X12066943Y33630098D01*
X12054664Y33655608D01*
X11678527Y34255177D01*
X11660902Y34277333D01*
X11161287Y34778676D01*
X11139192Y34796378D01*
X10540925Y35174581D01*
X10515457Y35186947D01*
X9848271Y35423215D01*
X9820697Y35429632D01*
X9117747Y35512224D01*
X9103595Y35513090D01*
X3400272Y35543108D01*
X3385952Y35542374D01*
X2674304Y35465431D01*
X2646367Y35459164D01*
X1970039Y35224760D01*
X1944215Y35212394D01*
X1337585Y34832442D01*
X1315188Y34814606D01*
X809087Y34308419D01*
X791254Y34286018D01*
X411407Y33679322D01*
X399046Y33653497D01*
X164757Y32977129D01*
X158495Y32949190D01*
X81675Y32237529D01*
X80943Y32223209D01*
X243939Y2231812D01*
X161350Y1693332D01*
X-79548Y1216063D01*
X-456552Y837004D01*
X-655941Y735000D01*
X-2270326Y735000D01*
X-2470201Y836431D01*
X-2851096Y1215261D01*
X-3096806Y1692992D01*
X-3185064Y2233125D01*
X-3348340Y32275945D01*
X-3349210Y32290111D01*
X-3432092Y32993772D01*
X-3438527Y33021373D01*
X-3675392Y33689132D01*
X-3687788Y33714618D01*
X-4066839Y34313223D01*
X-4084578Y34335326D01*
X-4586940Y34834965D01*
X-4609139Y34852584D01*
X-5209795Y35228377D01*
X-5235348Y35240634D01*
X-5904385Y35473866D01*
X-5932021Y35480151D01*
X-6636121Y35559207D01*
X-6650291Y35560000D01*
X-11938000Y35560000D01*
X-11952220Y35559201D01*
X-12658724Y35479597D01*
X-12686449Y35473269D01*
X-13357526Y35238449D01*
X-13383149Y35226110D01*
X-13985148Y34847849D01*
X-14007383Y34830118D01*
X-14510118Y34327383D01*
X-14527849Y34305148D01*
X-14906110Y33703149D01*
X-14918449Y33677526D01*
X-15153269Y33006449D01*
X-15159597Y32978724D01*
X-15239201Y32272220D01*
X-15240000Y32258000D01*
X-15240000Y-3767867D01*
X-15324170Y-4293330D01*
X-15563566Y-4757121D01*
X-15935849Y-5122929D01*
X-16403767Y-5354152D01*
X-16920701Y-5427681D01*
X-17442153Y-5336492D01*
X-17910828Y-5089936D01*
X-18281510Y-4711728D01*
X-18518597Y-4238190D01*
X-18600846Y-3704905D01*
X-18550185Y16103302D01*
X-18550956Y16117595D01*
X-18629549Y16827823D01*
X-18635869Y16855699D01*
X-18871301Y17530364D01*
X-18883695Y17556119D01*
X-19264038Y18161048D01*
X-19281878Y18183379D01*
X-19787870Y18687932D01*
X-19810253Y18705709D01*
X-20416263Y19084329D01*
X-20442053Y19096650D01*
X-21117386Y19330158D01*
X-21145279Y19336399D01*
X-21855728Y19412970D01*
X-21870023Y19413699D01*
X-27284510Y19384431D01*
X-27298605Y19383570D01*
X-27998747Y19301528D01*
X-28026215Y19295158D01*
X-28690997Y19060649D01*
X-28716382Y19048374D01*
X-29313033Y18672959D01*
X-29335085Y18655386D01*
X-29834194Y18157571D01*
X-29851824Y18135565D01*
X-30228786Y17539890D01*
X-30241127Y17514536D01*
X-30477359Y16850364D01*
X-30483800Y16822913D01*
X-30567659Y16122987D01*
X-30568557Y16108895D01*
X-30719670Y-2780207D01*
X-30806878Y-3289369D01*
X-31046381Y-3735279D01*
X-31415125Y-4082007D01*
X-31874913Y-4293641D01*
X-32378745Y-4348325D01*
X-32895489Y-4240621D01*
X-33356872Y-3982895D01*
X-33719973Y-3598903D01*
X-33951514Y-3123844D01*
X-34031727Y-2591592D01*
X-33972546Y22205537D01*
X-33972239Y22242440D01*
X-33827603Y32415201D01*
X-33828208Y32429521D01*
X-33898706Y33141508D01*
X-33904717Y33169488D01*
X-34132846Y33847612D01*
X-34144969Y33873536D01*
X-34519145Y34483362D01*
X-34536765Y34505914D01*
X-35037985Y35016475D01*
X-35060207Y35034508D01*
X-35663021Y35419878D01*
X-35688717Y35432478D01*
X-36362514Y35673088D01*
X-36390379Y35679614D01*
X-37100943Y35763245D01*
X-37115249Y35764115D01*
X-42116026Y35785349D01*
X-42130203Y35784616D01*
X-42834806Y35708512D01*
X-42862474Y35702341D01*
X-43532643Y35471838D01*
X-43558254Y35459684D01*
X-44160597Y35086268D01*
X-44182873Y35068735D01*
X-44687381Y34571011D01*
X-44705213Y34548974D01*
X-45086748Y33951740D01*
X-45099248Y33926297D01*
X-45338800Y33259309D01*
X-45345344Y33231727D01*
X-45430979Y32528219D01*
X-45431905Y32514053D01*
X-45764246Y-3260746D01*
X-45835966Y-3770537D01*
X-46033522Y-4236855D01*
X-46344704Y-4636415D01*
X-46748441Y-4942161D01*
X-47217395Y-5133390D01*
X-47719816Y-5197150D01*
X-48222167Y-5129156D01*
X-48690052Y-4934030D01*
X-49091873Y-4624944D01*
X-49400495Y-4222771D01*
X-49595085Y-3754661D01*
X-49663616Y-3243934D01*
X-49774486Y32540092D01*
X-49775321Y32554243D01*
X-49856364Y33257251D01*
X-49862719Y33284835D01*
X-50097463Y33952430D01*
X-50109770Y33977921D01*
X-50486555Y34576938D01*
X-50504203Y34599070D01*
X-51004310Y35099751D01*
X-51026421Y35117424D01*
X-51625005Y35494896D01*
X-51650482Y35507233D01*
X-52317807Y35742744D01*
X-52345384Y35749131D01*
X-53048299Y35830981D01*
X-53062449Y35831832D01*
X-58039730Y35852966D01*
X-58053949Y35852228D01*
X-58760618Y35775663D01*
X-58788364Y35769456D01*
X-59460291Y35537597D01*
X-59485961Y35525372D01*
X-60089467Y35149841D01*
X-60111774Y35132212D01*
X-60616613Y34631831D01*
X-60634440Y34609681D01*
X-61015308Y34009529D01*
X-61027759Y33983968D01*
X-61265568Y33314124D01*
X-61272022Y33286434D01*
X-61354852Y32580472D01*
X-61355716Y32566260D01*
X-61526011Y-4273204D01*
X-61609912Y-4686265D01*
X-61837998Y-5025493D01*
X-62178279Y-5252009D01*
X-62579218Y-5331520D01*
X-62979366Y-5251954D01*
X-63318610Y-5025377D01*
X-63545368Y-4686254D01*
X-63627636Y-4273678D01*
X-63689864Y111969840D01*
X-63608070Y112382962D01*
X-63381712Y112722901D01*
X-63042653Y112950579D01*
X-62642389Y113031445D01*
X-62242949Y112953164D01*
X-61904152Y112727656D01*
X-61677799Y112389429D01*
X-61596039Y111977694D01*
X-61655568Y41682176D01*
X-61654776Y41667909D01*
X-61575255Y40959073D01*
X-61568910Y40931256D01*
X-61333159Y40258060D01*
X-61320764Y40232363D01*
X-60940683Y39628782D01*
X-60922864Y39606499D01*
X-60417634Y39102998D01*
X-60395290Y39085255D01*
X-59790410Y38707243D01*
X-59764669Y38694936D01*
X-59090669Y38461494D01*
X-59062831Y38455244D01*
X-58353727Y38378152D01*
X-58339458Y38377409D01*
X-52682791Y38401582D01*
X-52668637Y38402434D01*
X-51965499Y38484355D01*
X-51937914Y38490747D01*
X-51270404Y38726426D01*
X-51244921Y38738771D01*
X-50646222Y39116490D01*
X-50624108Y39134174D01*
X-50123980Y39635159D01*
X-50106333Y39657304D01*
X-49729639Y40256649D01*
X-49717338Y40282153D01*
X-49482802Y40950065D01*
X-49476457Y40977661D01*
X-49395740Y41680938D01*
X-49394912Y41695094D01*
X-49216917Y111178484D01*
X-49136495Y111678933D01*
X-48910231Y112121194D01*
X-48558590Y112472102D01*
X-48115861Y112697440D01*
X-47625220Y112775236D01*
X-47134707Y112697890D01*
X-46692018Y112472942D01*
X-46340359Y112122351D01*
X-46114065Y111680344D01*
X-46033626Y111180104D01*
X-45855490Y41738429D01*
X-45854653Y41724196D01*
X-45773062Y41017144D01*
X-45766649Y40989406D01*
X-45529607Y40318294D01*
X-45517176Y40292682D01*
X-45136593Y39691236D01*
X-45118769Y39669036D01*
X-44613772Y39167481D01*
X-44591451Y39149809D01*
X-43987416Y38773348D01*
X-43961719Y38761093D01*
X-43289002Y38528646D01*
X-43261220Y38522423D01*
X-42553626Y38445670D01*
X-42539388Y38444930D01*
X-37246941Y38467548D01*
X-37232802Y38468398D01*
X-36530416Y38550145D01*
X-36502860Y38556524D01*
X-35835988Y38791704D01*
X-35810526Y38804023D01*
X-35212246Y39180970D01*
X-35190143Y39198619D01*
X-34690131Y39698636D01*
X-34672482Y39720739D01*
X-34295541Y40319023D01*
X-34283222Y40344485D01*
X-34048050Y41011360D01*
X-34041672Y41038917D01*
X-33959932Y41741304D01*
X-33959082Y41755443D01*
X-33661539Y111559008D01*
X-33589835Y112000756D01*
X-33390080Y112389924D01*
X-33080103Y112698583D01*
X-32690085Y112896679D01*
X-32258004Y112964925D01*
X-31826085Y112896668D01*
X-31436266Y112698551D01*
X-31126535Y112389882D01*
X-30927078Y112000743D01*
X-30855728Y111559100D01*
X-30610662Y40244823D01*
X-30676883Y39832042D01*
X-30866567Y39471300D01*
X-31161516Y39190014D01*
X-31549712Y39008833D01*
X-31549828Y39008779D01*
X-31955795Y38818806D01*
X-31989893Y38795418D01*
X-32313318Y38485103D01*
X-32338096Y38452001D01*
X-32544697Y38054238D01*
X-32557528Y38014932D01*
X-32625405Y37571884D01*
X-32626862Y37551191D01*
X-32547899Y30681483D01*
X-32546955Y30667419D01*
X-32460940Y29968999D01*
X-32454424Y29941616D01*
X-32216679Y29279296D01*
X-32204292Y29254020D01*
X-31826496Y28660337D01*
X-31808846Y28638411D01*
X-31309557Y28142527D01*
X-31287510Y28125027D01*
X-30691256Y27751303D01*
X-30665896Y27739089D01*
X-30001965Y27505881D01*
X-29974538Y27499553D01*
X-29275545Y27418318D01*
X-29261475Y27417470D01*
X-21949551Y27383461D01*
X-21935211Y27384206D01*
X-21222598Y27461812D01*
X-21194626Y27468115D01*
X-20517584Y27703603D01*
X-20491738Y27716019D01*
X-19884779Y28097385D01*
X-19862378Y28115283D01*
X-19356439Y28623089D01*
X-19338624Y28645556D01*
X-18959495Y29253915D01*
X-18947174Y29279806D01*
X-18714181Y29957710D01*
X-18707982Y29985704D01*
X-18633000Y30698598D01*
X-18632307Y30712941D01*
X-18668871Y35100571D01*
X-18668974Y35131328D01*
X-18545114Y111305314D01*
X-18455707Y111864503D01*
X-18202641Y112359780D01*
X-17809040Y112752741D01*
X-17313352Y113005003D01*
X-16764031Y113091915D01*
X-16215892Y113004912D01*
G04 #@! TO.N,/C1+*
G36*
X-53847589Y-4381500D02*
X-57149794Y-4381500D01*
X-57086706Y34544000D01*
X-53721412Y34544000D01*
X-53847589Y-4381500D01*
X-53847589Y-4381500D01*
G37*
X-53847589Y-4381500D02*
X-57149794Y-4381500D01*
X-57086706Y34544000D01*
X-53721412Y34544000D01*
X-53847589Y-4381500D01*
G36*
X-38417089Y-4572000D02*
X-41719294Y-4572000D01*
X-41656206Y34353500D01*
X-38290912Y34353500D01*
X-38417089Y-4572000D01*
X-38417089Y-4572000D01*
G37*
X-38417089Y-4572000D02*
X-41719294Y-4572000D01*
X-41656206Y34353500D01*
X-38290912Y34353500D01*
X-38417089Y-4572000D01*
G36*
X8001000Y1227000D02*
X4698483Y1227000D01*
X4635740Y34544000D01*
X8001000Y34544000D01*
X8001000Y1227000D01*
X8001000Y1227000D01*
G37*
X8001000Y1227000D02*
X4698483Y1227000D01*
X4635740Y34544000D01*
X8001000Y34544000D01*
X8001000Y1227000D01*
G36*
X-8656242Y34460136D02*
X-8187586Y34221343D01*
X-7815657Y33849414D01*
X-7576864Y33380758D01*
X-7493000Y32851258D01*
X-7493000Y1981009D01*
X-7562970Y1629246D01*
X-7755142Y1341642D01*
X-7926715Y1227000D01*
X-8879153Y1227000D01*
X-9000000Y1251038D01*
X-9120847Y1227000D01*
X-9478752Y1155808D01*
X-9884617Y884617D01*
X-10155808Y478752D01*
X-10251038Y0D01*
X-10227000Y-120847D01*
X-10226999Y-4367432D01*
X-10520453Y-4288192D01*
X-10759801Y-4046045D01*
X-10849084Y-3699436D01*
X-10795258Y929576D01*
X-10795251Y930434D01*
X-10795042Y973329D01*
X-10795040Y974187D01*
X-10855073Y32851485D01*
X-10772172Y33380706D01*
X-10534199Y33849282D01*
X-10162933Y34221247D01*
X-9694808Y34460102D01*
X-9175735Y34542415D01*
X-8656242Y34460136D01*
X-8656242Y34460136D01*
G37*
X-8656242Y34460136D02*
X-8187586Y34221343D01*
X-7815657Y33849414D01*
X-7576864Y33380758D01*
X-7493000Y32851258D01*
X-7493000Y1981009D01*
X-7562970Y1629246D01*
X-7755142Y1341642D01*
X-7926715Y1227000D01*
X-8879153Y1227000D01*
X-9000000Y1251038D01*
X-9120847Y1227000D01*
X-9478752Y1155808D01*
X-9884617Y884617D01*
X-10155808Y478752D01*
X-10251038Y0D01*
X-10227000Y-120847D01*
X-10226999Y-4367432D01*
X-10520453Y-4288192D01*
X-10759801Y-4046045D01*
X-10849084Y-3699436D01*
X-10795258Y929576D01*
X-10795251Y930434D01*
X-10795042Y973329D01*
X-10795040Y974187D01*
X-10855073Y32851485D01*
X-10772172Y33380706D01*
X-10534199Y33849282D01*
X-10162933Y34221247D01*
X-9694808Y34460102D01*
X-9175735Y34542415D01*
X-8656242Y34460136D01*
G36*
X-22860734Y-4318000D02*
X-26163093Y-4318000D01*
X-26351398Y17462500D01*
X-22986270Y17462500D01*
X-22860734Y-4318000D01*
X-22860734Y-4318000D01*
G37*
X-22860734Y-4318000D02*
X-26163093Y-4318000D01*
X-26351398Y17462500D01*
X-22986270Y17462500D01*
X-22860734Y-4318000D01*
G04 #@! TD*
M02*
