M48
;DRILL file {KiCad (5.0.0)} date 01/14/21 10:17:46
;FORMAT={-:-/ absolute / metric / decimal}
FMAT,2
METRIC,TZ
T1C0.305
T2C0.559
T3C0.889
%
G90
G05
M71
T1
X1.27Y6.477
X1.651Y12.192
X2.032Y11.684
X2.413Y12.192
X2.6Y8.814
X2.769Y14.122
X2.794Y11.684
X3.277Y8.5
X3.454Y6.579
X5.842Y7.747
X5.949Y9.017
X7.488Y13.975
X7.818Y14.524
X8.138Y13.975
X8.382Y9.398
X8.407Y6.198
X8.433Y10.465
X8.484Y7.874
X9.741Y12.078
X9.855Y0.787
X9.881Y1.753
X10.262Y11.582
X11.201Y13.919
X11.849Y13.919
X12.5Y13.906
X12.954Y9.284
X13.157Y13.919
X13.614Y9.258
X13.818Y13.919
X13.856Y2.984
X13.945Y2.311
X14.478Y2.769
X26.479Y12.954
X27.114Y13.208
X27.432Y12.573
X27.673Y3.01
X27.724Y3.708
X28.384Y3.873
X30.693Y11.792
X31.496Y11.792
X32.385Y8.128
X32.512Y9.525
X34.798Y9.144
X37.795Y11.506
X38.481Y5.588
X38.913Y11.532
X38.921Y9.957
T2
X14.389Y7.823
X15.354Y7.823
X16.319Y7.823
X17.285Y7.823
X18.25Y7.823
X22.301Y7.874
X23.266Y7.874
X24.232Y7.874
X25.197Y7.874
X26.162Y7.874
X29.5Y14.75
X32.817Y14.745
X38.329Y4.216
X39.548Y1.194
T3
X0.Y7.731
X19.75Y12.3
X21.082Y1.397
X34.861Y1.397
X6.731Y2.667
X22.415Y2.667
X22.415Y12.335
X34.861Y2.667
X6.35Y15.494
X19.748Y2.667
X5.397Y2.667
X0.Y12.065
X21.096Y12.3
X21.082Y13.605
X37.529Y1.321
X0.Y14.097
X18.415Y2.667
X21.082Y2.667
X18.415Y13.605
X19.748Y13.605
X22.415Y13.605
X18.415Y1.397
X19.748Y1.397
X0.Y10.033
X18.415Y12.335
X8.064Y1.397
X36.195Y2.667
X4.064Y1.397
X40.894Y3.175
X40.894Y5.207
X9.906Y15.494
X36.195Y1.397
X40.894Y7.366
X33.528Y1.397
X6.731Y1.397
X5.397Y1.397
X40.894Y1.143
X22.415Y1.397
X37.529Y2.667
X33.528Y2.667
X8.064Y2.667
X4.064Y2.667
T0
M30
