M48
;DRILL file {KiCad (5.0.0)} date 06/25/19 10:28:34
;FORMAT={-:-/ absolute / metric / decimal}
FMAT,2
METRIC,TZ
T1C0.305
T2C0.559
T3C0.762
T4C0.813
T5C0.889
%
G90
G05
M71
T1
X1.651Y12.387
X2.8Y6.9
X3.9Y13.5
X6.Y7.85
X6.Y6.55
X8.5Y7.85
X8.509Y9.144
X8.509Y6.55
X28.448Y7.823
X31.496Y13.716
X32.258Y10.414
X32.258Y9.08
X34.7Y9.05
X36.45Y13.9
X38.1Y10.414
X38.54Y13.013
X38.608Y4.445
T2
X9.906Y13.081
X13.564Y3.556
X14.389Y7.823
X15.354Y7.823
X16.319Y7.823
X17.285Y7.823
X18.25Y7.823
X22.301Y7.874
X23.266Y7.874
X24.232Y7.874
X25.197Y7.874
X26.162Y7.874
X26.949Y12.167
X28.384Y3.429
X30.226Y14.732
T3
X37.529Y2.667
X21.082Y1.397
X5.651Y1.397
X4.318Y2.667
X19.748Y1.397
X8.319Y1.397
X33.528Y1.397
X22.415Y13.605
X6.985Y1.397
X34.861Y2.667
X34.861Y1.397
X18.415Y1.397
X19.75Y12.3
X21.082Y13.605
X8.319Y2.667
X21.082Y2.667
X33.528Y2.667
X6.985Y2.667
X22.415Y12.335
X19.748Y2.667
X37.529Y1.397
X21.082Y12.335
X22.415Y1.397
X5.639Y2.667
X19.748Y13.605
X18.415Y13.605
X4.318Y1.397
X36.195Y2.667
X22.415Y2.667
X18.415Y12.335
X18.415Y2.667
X36.195Y1.397
T4
X11.938Y0.887
T5
X0.Y2.921
X0.Y14.097
X0.Y7.731
X0.Y10.033
X9.906Y15.494
X40.894Y1.143
X0.Y12.065
X40.894Y3.175
X40.894Y7.366
X40.894Y11.938
X6.35Y15.494
X40.894Y5.207
T0
M30
