G04 #@! TF.GenerationSoftware,KiCad,Pcbnew,(5.0.0)*
G04 #@! TF.CreationDate,2019-06-25T10:28:51-07:00*
G04 #@! TF.ProjectId,Buffer,4275666665722E6B696361645F706362,rev?*
G04 #@! TF.SameCoordinates,Original*
G04 #@! TF.FileFunction,Copper,L2,Inr,Signal*
G04 #@! TF.FilePolarity,Positive*
%FSLAX46Y46*%
G04 Gerber Fmt 4.6, Leading zero omitted, Abs format (unit mm)*
G04 Created by KiCad (PCBNEW (5.0.0)) date 06/25/19 10:28:51*
%MOMM*%
%LPD*%
G01*
G04 APERTURE LIST*
G04 #@! TA.AperFunction,ViaPad*
%ADD10C,1.016000*%
G04 #@! TD*
G04 #@! TA.AperFunction,ViaPad*
%ADD11C,1.270000*%
G04 #@! TD*
G04 #@! TA.AperFunction,ViaPad*
%ADD12C,0.635000*%
G04 #@! TD*
G04 #@! TA.AperFunction,ViaPad*
%ADD13C,0.889000*%
G04 #@! TD*
G04 #@! TA.AperFunction,Conductor*
%ADD14C,0.508000*%
G04 #@! TD*
G04 #@! TA.AperFunction,Conductor*
%ADD15C,0.254000*%
G04 #@! TD*
G04 APERTURE END LIST*
D10*
G04 #@! TO.N,/GNDA1*
G04 #@! TO.C,TP2*
X19750000Y12300000D03*
G04 #@! TD*
D11*
G04 #@! TO.N,/GNDA1*
G04 #@! TO.C,TP1*
X9906000Y15494000D03*
G04 #@! TD*
D10*
G04 #@! TO.N,/GNDA1*
G04 #@! TO.C,TP2*
X21082000Y12334900D03*
G04 #@! TD*
G04 #@! TO.N,/GNDA1*
G04 #@! TO.C,TP2*
X18415000Y12334900D03*
G04 #@! TD*
G04 #@! TO.N,/GNDA1*
G04 #@! TO.C,TP2*
X18415000Y13604900D03*
G04 #@! TD*
G04 #@! TO.N,/GNDA1*
G04 #@! TO.C,TP2*
X22415500Y12334900D03*
G04 #@! TD*
G04 #@! TO.N,/GNDA1*
G04 #@! TO.C,TP2*
X21082000Y13604900D03*
G04 #@! TD*
G04 #@! TO.N,/GNDA1*
G04 #@! TO.C,TP2*
X22415500Y13604900D03*
G04 #@! TD*
G04 #@! TO.N,/GNDA1*
G04 #@! TO.C,TP2*
X19748500Y13604900D03*
G04 #@! TD*
G04 #@! TO.N,/Vc2Pos*
G04 #@! TO.C,TP2*
X21082000Y1397000D03*
G04 #@! TD*
G04 #@! TO.N,/Vc2Pos*
G04 #@! TO.C,TP2*
X22415500Y1397000D03*
G04 #@! TD*
G04 #@! TO.N,/LfNeg*
G04 #@! TO.C,TP2*
X8318500Y1397000D03*
G04 #@! TD*
G04 #@! TO.N,/CfNeg*
G04 #@! TO.C,TP2*
X37528500Y1397000D03*
G04 #@! TD*
G04 #@! TO.N,/CfNeg*
G04 #@! TO.C,TP2*
X36195000Y1397000D03*
G04 #@! TD*
G04 #@! TO.N,/CfNeg*
G04 #@! TO.C,TP2*
X33528000Y2667000D03*
G04 #@! TD*
G04 #@! TO.N,/CfNeg*
G04 #@! TO.C,TP2*
X33528000Y1397000D03*
G04 #@! TD*
G04 #@! TO.N,/CfNeg*
G04 #@! TO.C,TP2*
X36195000Y2667000D03*
G04 #@! TD*
G04 #@! TO.N,/CfNeg*
G04 #@! TO.C,TP2*
X34861500Y2667000D03*
G04 #@! TD*
G04 #@! TO.N,/CfNeg*
G04 #@! TO.C,TP2*
X34861500Y1397000D03*
G04 #@! TD*
G04 #@! TO.N,/CfNeg*
G04 #@! TO.C,TP2*
X37528500Y2667000D03*
G04 #@! TD*
D11*
G04 #@! TO.N,/PWMA2*
G04 #@! TO.C,TP11*
X40894000Y7366000D03*
G04 #@! TD*
D10*
G04 #@! TO.N,/Vc2Pos*
G04 #@! TO.C,TP2*
X19748500Y1397000D03*
G04 #@! TD*
G04 #@! TO.N,/Vc2Pos*
G04 #@! TO.C,TP2*
X18415000Y1397000D03*
G04 #@! TD*
G04 #@! TO.N,/Vc2Pos*
G04 #@! TO.C,TP2*
X22415500Y2667000D03*
G04 #@! TD*
G04 #@! TO.N,/Vc2Pos*
G04 #@! TO.C,TP2*
X21082000Y2667000D03*
G04 #@! TD*
G04 #@! TO.N,/Vc2Pos*
G04 #@! TO.C,TP2*
X19748500Y2667000D03*
G04 #@! TD*
G04 #@! TO.N,/Vc2Pos*
G04 #@! TO.C,TP2*
X18415000Y2667000D03*
G04 #@! TD*
G04 #@! TO.N,/LfNeg*
G04 #@! TO.C,TP2*
X6985000Y2667000D03*
G04 #@! TD*
G04 #@! TO.N,/LfNeg*
G04 #@! TO.C,TP2*
X5638800Y2667000D03*
G04 #@! TD*
G04 #@! TO.N,/LfNeg*
G04 #@! TO.C,TP2*
X8318500Y2667000D03*
G04 #@! TD*
G04 #@! TO.N,/LfNeg*
G04 #@! TO.C,TP2*
X6985000Y1397000D03*
G04 #@! TD*
G04 #@! TO.N,/LfNeg*
G04 #@! TO.C,TP2*
X5651500Y1397000D03*
G04 #@! TD*
G04 #@! TO.N,/LfNeg*
G04 #@! TO.C,TP2*
X4318000Y2667000D03*
G04 #@! TD*
G04 #@! TO.N,/LfNeg*
G04 #@! TO.C,TP2*
X4318000Y1397000D03*
G04 #@! TD*
D11*
G04 #@! TO.N,/GNDI*
G04 #@! TO.C,TP16*
X0Y12065000D03*
G04 #@! TD*
G04 #@! TO.N,/5.5V_Iso*
G04 #@! TO.C,TP15*
X6350000Y15494000D03*
G04 #@! TD*
G04 #@! TO.N,/5V*
G04 #@! TO.C,TP17*
X0Y14097000D03*
G04 #@! TD*
G04 #@! TO.N,/GNDI*
G04 #@! TO.C,TP5*
X40894000Y3175000D03*
G04 #@! TD*
G04 #@! TO.N,/PWMB2*
G04 #@! TO.C,TP10*
X40894000Y11938000D03*
G04 #@! TD*
G04 #@! TO.N,/Disable2*
G04 #@! TO.C,TP9*
X40894000Y5207000D03*
G04 #@! TD*
G04 #@! TO.N,/Disable1*
G04 #@! TO.C,TP6*
X0Y7731000D03*
G04 #@! TD*
G04 #@! TO.N,/5V*
G04 #@! TO.C,TP4*
X40894000Y1143000D03*
G04 #@! TD*
G04 #@! TO.N,/PWMB1*
G04 #@! TO.C,TP3*
X0Y2921000D03*
G04 #@! TD*
G04 #@! TO.N,/PWMA1*
G04 #@! TO.C,TP2*
X0Y10033000D03*
G04 #@! TD*
D12*
G04 #@! TO.N,/GNDI*
X38100000Y10414000D03*
X2800000Y6900000D03*
X1651000Y12387000D03*
X38540000Y13013000D03*
X38608000Y4445000D03*
G04 #@! TO.N,/VDDI1*
X3900000Y13500000D03*
X6000000Y6550000D03*
G04 #@! TO.N,/VDDB1*
X8500000Y7850000D03*
D11*
X11938000Y887420D03*
D12*
G04 #@! TO.N,/VDDB2*
X32258000Y9080500D03*
X31496000Y13716000D03*
G04 #@! TO.N,/Disable1*
X6000000Y7850000D03*
G04 #@! TO.N,/Disable2*
X34700000Y9050000D03*
D13*
G04 #@! TO.N,/CfNeg*
X23266400Y7874000D03*
X26162000Y7874000D03*
X25196800Y7874000D03*
X24231600Y7874000D03*
X22301200Y7874000D03*
X28384500Y3429000D03*
D12*
X28448000Y7823200D03*
G04 #@! TO.N,/5V*
X36450000Y13900000D03*
D13*
G04 #@! TO.N,/5.5V_Iso*
X30226000Y14732000D03*
G04 #@! TO.N,/LfNeg*
X16319500Y7823200D03*
X14389100Y7823200D03*
X18249900Y7823200D03*
X17284700Y7823200D03*
X15354300Y7823200D03*
X13563600Y3556000D03*
D12*
X8509000Y6550000D03*
G04 #@! TO.N,/GNDA1*
X8509000Y9144000D03*
D13*
X9906000Y13081000D03*
X26949400Y12166600D03*
D12*
X32258000Y10414000D03*
G04 #@! TD*
D14*
G04 #@! TO.N,/VDDB1*
X11938000Y1785445D02*
X10210800Y3512645D01*
X11938000Y887420D02*
X11938000Y1785445D01*
X10210800Y3512645D02*
X10210800Y6908800D01*
X9269600Y7850000D02*
X8500000Y7850000D01*
X10210800Y6908800D02*
X9269600Y7850000D01*
G04 #@! TO.N,/GNDA1*
X9906000Y13709617D02*
X9906000Y14987590D01*
X9906000Y13081000D02*
X9906000Y13709617D01*
G04 #@! TD*
D15*
G04 #@! TO.N,/GNDI*
G36*
X5488676Y14918482D02*
X5715000Y14692158D01*
X5715000Y8488000D01*
X5604332Y8442159D01*
X5407841Y8245668D01*
X5301500Y7988940D01*
X5301500Y7711060D01*
X5407841Y7454332D01*
X5604332Y7257841D01*
X5715000Y7212001D01*
X5715000Y7187999D01*
X5604332Y7142159D01*
X5407841Y6945668D01*
X5301500Y6688940D01*
X5301500Y6411060D01*
X5407841Y6154332D01*
X5604332Y5957841D01*
X5715000Y5912000D01*
X5715000Y3683000D01*
X3683000Y3683000D01*
X3634399Y3673333D01*
X3593197Y3645803D01*
X3565667Y3604601D01*
X3556000Y3556000D01*
X3556000Y3150439D01*
X3429000Y2843833D01*
X3429000Y2490167D01*
X3556000Y2183561D01*
X3556000Y1880439D01*
X3429000Y1573833D01*
X3429000Y1220167D01*
X3556000Y913561D01*
X3556000Y481000D01*
X481000Y481000D01*
X481000Y2020526D01*
X575518Y2059676D01*
X861324Y2345482D01*
X1016000Y2718905D01*
X1016000Y3123095D01*
X861324Y3496518D01*
X575518Y3782324D01*
X481000Y3821474D01*
X481000Y6830526D01*
X575518Y6869676D01*
X861324Y7155482D01*
X1016000Y7528905D01*
X1016000Y7933095D01*
X861324Y8306518D01*
X575518Y8592324D01*
X481000Y8631474D01*
X481000Y9132526D01*
X575518Y9171676D01*
X861324Y9457482D01*
X1016000Y9830905D01*
X1016000Y10235095D01*
X861324Y10608518D01*
X575518Y10894324D01*
X481000Y10933474D01*
X481000Y13196526D01*
X575518Y13235676D01*
X861324Y13521482D01*
X909976Y13638940D01*
X3201500Y13638940D01*
X3201500Y13361060D01*
X3307841Y13104332D01*
X3504332Y12907841D01*
X3761060Y12801500D01*
X4038940Y12801500D01*
X4295668Y12907841D01*
X4492159Y13104332D01*
X4598500Y13361060D01*
X4598500Y13638940D01*
X4492159Y13895668D01*
X4295668Y14092159D01*
X4038940Y14198500D01*
X3761060Y14198500D01*
X3504332Y14092159D01*
X3307841Y13895668D01*
X3201500Y13638940D01*
X909976Y13638940D01*
X1016000Y13894905D01*
X1016000Y14299095D01*
X861324Y14672518D01*
X575518Y14958324D01*
X481000Y14997474D01*
X481000Y15013000D01*
X5449526Y15013000D01*
X5488676Y14918482D01*
X5488676Y14918482D01*
G37*
X5488676Y14918482D02*
X5715000Y14692158D01*
X5715000Y8488000D01*
X5604332Y8442159D01*
X5407841Y8245668D01*
X5301500Y7988940D01*
X5301500Y7711060D01*
X5407841Y7454332D01*
X5604332Y7257841D01*
X5715000Y7212001D01*
X5715000Y7187999D01*
X5604332Y7142159D01*
X5407841Y6945668D01*
X5301500Y6688940D01*
X5301500Y6411060D01*
X5407841Y6154332D01*
X5604332Y5957841D01*
X5715000Y5912000D01*
X5715000Y3683000D01*
X3683000Y3683000D01*
X3634399Y3673333D01*
X3593197Y3645803D01*
X3565667Y3604601D01*
X3556000Y3556000D01*
X3556000Y3150439D01*
X3429000Y2843833D01*
X3429000Y2490167D01*
X3556000Y2183561D01*
X3556000Y1880439D01*
X3429000Y1573833D01*
X3429000Y1220167D01*
X3556000Y913561D01*
X3556000Y481000D01*
X481000Y481000D01*
X481000Y2020526D01*
X575518Y2059676D01*
X861324Y2345482D01*
X1016000Y2718905D01*
X1016000Y3123095D01*
X861324Y3496518D01*
X575518Y3782324D01*
X481000Y3821474D01*
X481000Y6830526D01*
X575518Y6869676D01*
X861324Y7155482D01*
X1016000Y7528905D01*
X1016000Y7933095D01*
X861324Y8306518D01*
X575518Y8592324D01*
X481000Y8631474D01*
X481000Y9132526D01*
X575518Y9171676D01*
X861324Y9457482D01*
X1016000Y9830905D01*
X1016000Y10235095D01*
X861324Y10608518D01*
X575518Y10894324D01*
X481000Y10933474D01*
X481000Y13196526D01*
X575518Y13235676D01*
X861324Y13521482D01*
X909976Y13638940D01*
X3201500Y13638940D01*
X3201500Y13361060D01*
X3307841Y13104332D01*
X3504332Y12907841D01*
X3761060Y12801500D01*
X4038940Y12801500D01*
X4295668Y12907841D01*
X4492159Y13104332D01*
X4598500Y13361060D01*
X4598500Y13638940D01*
X4492159Y13895668D01*
X4295668Y14092159D01*
X4038940Y14198500D01*
X3761060Y14198500D01*
X3504332Y14092159D01*
X3307841Y13895668D01*
X3201500Y13638940D01*
X909976Y13638940D01*
X1016000Y13894905D01*
X1016000Y14299095D01*
X861324Y14672518D01*
X575518Y14958324D01*
X481000Y14997474D01*
X481000Y15013000D01*
X5449526Y15013000D01*
X5488676Y14918482D01*
G36*
X40413001Y12838475D02*
X40318482Y12799324D01*
X40032676Y12513518D01*
X39878000Y12140095D01*
X39878000Y11735905D01*
X40032676Y11362482D01*
X40318482Y11076676D01*
X40413001Y11037525D01*
X40413001Y8266475D01*
X40318482Y8227324D01*
X40032676Y7941518D01*
X39878000Y7568095D01*
X39878000Y7163905D01*
X40032676Y6790482D01*
X40318482Y6504676D01*
X40413000Y6465525D01*
X40413000Y6107475D01*
X40318482Y6068324D01*
X40032676Y5782518D01*
X39878000Y5409095D01*
X39878000Y5004905D01*
X40032676Y4631482D01*
X40318482Y4345676D01*
X40413000Y4306525D01*
X40413000Y2043474D01*
X40318482Y2004324D01*
X40032676Y1718518D01*
X39878000Y1345095D01*
X39878000Y940905D01*
X40032676Y567482D01*
X40119158Y481000D01*
X38290500Y481000D01*
X38290500Y913561D01*
X38417500Y1220167D01*
X38417500Y1573833D01*
X38290500Y1880439D01*
X38290500Y2183561D01*
X38417500Y2490167D01*
X38417500Y2843833D01*
X38282158Y3170578D01*
X38227586Y3225150D01*
X38187839Y3321107D01*
X38160308Y3362309D01*
X38119107Y3389839D01*
X37894601Y3482833D01*
X37870309Y3487665D01*
X37705333Y3556000D01*
X37351667Y3556000D01*
X37198364Y3492500D01*
X36525136Y3492500D01*
X36371833Y3556000D01*
X36018167Y3556000D01*
X36009666Y3552479D01*
X36002812Y3555307D01*
X35939203Y3707173D01*
X35887797Y13474376D01*
X36054332Y13307841D01*
X36311060Y13201500D01*
X36588940Y13201500D01*
X36845668Y13307841D01*
X37042159Y13504332D01*
X37148500Y13761060D01*
X37148500Y14038940D01*
X37042159Y14295668D01*
X36845668Y14492159D01*
X36588940Y14598500D01*
X36311060Y14598500D01*
X36054332Y14492159D01*
X35883340Y14321167D01*
X35879699Y15013000D01*
X40413001Y15013000D01*
X40413001Y12838475D01*
X40413001Y12838475D01*
G37*
X40413001Y12838475D02*
X40318482Y12799324D01*
X40032676Y12513518D01*
X39878000Y12140095D01*
X39878000Y11735905D01*
X40032676Y11362482D01*
X40318482Y11076676D01*
X40413001Y11037525D01*
X40413001Y8266475D01*
X40318482Y8227324D01*
X40032676Y7941518D01*
X39878000Y7568095D01*
X39878000Y7163905D01*
X40032676Y6790482D01*
X40318482Y6504676D01*
X40413000Y6465525D01*
X40413000Y6107475D01*
X40318482Y6068324D01*
X40032676Y5782518D01*
X39878000Y5409095D01*
X39878000Y5004905D01*
X40032676Y4631482D01*
X40318482Y4345676D01*
X40413000Y4306525D01*
X40413000Y2043474D01*
X40318482Y2004324D01*
X40032676Y1718518D01*
X39878000Y1345095D01*
X39878000Y940905D01*
X40032676Y567482D01*
X40119158Y481000D01*
X38290500Y481000D01*
X38290500Y913561D01*
X38417500Y1220167D01*
X38417500Y1573833D01*
X38290500Y1880439D01*
X38290500Y2183561D01*
X38417500Y2490167D01*
X38417500Y2843833D01*
X38282158Y3170578D01*
X38227586Y3225150D01*
X38187839Y3321107D01*
X38160308Y3362309D01*
X38119107Y3389839D01*
X37894601Y3482833D01*
X37870309Y3487665D01*
X37705333Y3556000D01*
X37351667Y3556000D01*
X37198364Y3492500D01*
X36525136Y3492500D01*
X36371833Y3556000D01*
X36018167Y3556000D01*
X36009666Y3552479D01*
X36002812Y3555307D01*
X35939203Y3707173D01*
X35887797Y13474376D01*
X36054332Y13307841D01*
X36311060Y13201500D01*
X36588940Y13201500D01*
X36845668Y13307841D01*
X37042159Y13504332D01*
X37148500Y13761060D01*
X37148500Y14038940D01*
X37042159Y14295668D01*
X36845668Y14492159D01*
X36588940Y14598500D01*
X36311060Y14598500D01*
X36054332Y14492159D01*
X35883340Y14321167D01*
X35879699Y15013000D01*
X40413001Y15013000D01*
X40413001Y12838475D01*
G04 #@! TO.N,/GNDA1*
G36*
X11280567Y13988912D02*
X11326338Y13942382D01*
X11597857Y13781924D01*
X11660694Y13764271D01*
X14778542Y13720665D01*
X14928080Y13657608D01*
X14991516Y13508233D01*
X15031628Y11081419D01*
X15041956Y11033311D01*
X15137372Y10811613D01*
X15165465Y10770793D01*
X15206381Y10744096D01*
X15430111Y10653546D01*
X15478433Y10644272D01*
X24397838Y10691716D01*
X24446344Y10701624D01*
X24670192Y10795647D01*
X24711256Y10823381D01*
X24738548Y10864634D01*
X24830509Y11089337D01*
X24839970Y11137932D01*
X24829832Y13753436D01*
X24892720Y13906518D01*
X25045559Y13970000D01*
X29908494Y13970000D01*
X30061798Y13906500D01*
X30390202Y13906500D01*
X30543506Y13970000D01*
X30845160Y13970000D01*
X30797500Y13854940D01*
X30797500Y13577060D01*
X30903841Y13320332D01*
X31100332Y13123841D01*
X31357060Y13017500D01*
X31634940Y13017500D01*
X31891668Y13123841D01*
X32088159Y13320332D01*
X32194500Y13577060D01*
X32194500Y13854940D01*
X32146840Y13970000D01*
X32236692Y13970000D01*
X32388420Y13907680D01*
X32452542Y13756703D01*
X32500406Y9736143D01*
X32396940Y9779000D01*
X32119060Y9779000D01*
X31862332Y9672659D01*
X31665841Y9476168D01*
X31559500Y9219440D01*
X31559500Y8941560D01*
X31580857Y8890000D01*
X15113796Y8890000D01*
X15112646Y8890002D01*
X8444611Y8914162D01*
X8292528Y8977641D01*
X8229600Y9129954D01*
X8229600Y13687476D01*
X8265323Y13817044D01*
X8979038Y15013000D01*
X10697895Y15013000D01*
X11280567Y13988912D01*
X11280567Y13988912D01*
G37*
X11280567Y13988912D02*
X11326338Y13942382D01*
X11597857Y13781924D01*
X11660694Y13764271D01*
X14778542Y13720665D01*
X14928080Y13657608D01*
X14991516Y13508233D01*
X15031628Y11081419D01*
X15041956Y11033311D01*
X15137372Y10811613D01*
X15165465Y10770793D01*
X15206381Y10744096D01*
X15430111Y10653546D01*
X15478433Y10644272D01*
X24397838Y10691716D01*
X24446344Y10701624D01*
X24670192Y10795647D01*
X24711256Y10823381D01*
X24738548Y10864634D01*
X24830509Y11089337D01*
X24839970Y11137932D01*
X24829832Y13753436D01*
X24892720Y13906518D01*
X25045559Y13970000D01*
X29908494Y13970000D01*
X30061798Y13906500D01*
X30390202Y13906500D01*
X30543506Y13970000D01*
X30845160Y13970000D01*
X30797500Y13854940D01*
X30797500Y13577060D01*
X30903841Y13320332D01*
X31100332Y13123841D01*
X31357060Y13017500D01*
X31634940Y13017500D01*
X31891668Y13123841D01*
X32088159Y13320332D01*
X32194500Y13577060D01*
X32194500Y13854940D01*
X32146840Y13970000D01*
X32236692Y13970000D01*
X32388420Y13907680D01*
X32452542Y13756703D01*
X32500406Y9736143D01*
X32396940Y9779000D01*
X32119060Y9779000D01*
X31862332Y9672659D01*
X31665841Y9476168D01*
X31559500Y9219440D01*
X31559500Y8941560D01*
X31580857Y8890000D01*
X15113796Y8890000D01*
X15112646Y8890002D01*
X8444611Y8914162D01*
X8292528Y8977641D01*
X8229600Y9129954D01*
X8229600Y13687476D01*
X8265323Y13817044D01*
X8979038Y15013000D01*
X10697895Y15013000D01*
X11280567Y13988912D01*
G04 #@! TD*
M02*
