G04 #@! TF.GenerationSoftware,KiCad,Pcbnew,(5.0.0)*
G04 #@! TF.CreationDate,2019-06-25T10:28:51-07:00*
G04 #@! TF.ProjectId,Buffer,4275666665722E6B696361645F706362,rev?*
G04 #@! TF.SameCoordinates,Original*
G04 #@! TF.FileFunction,Soldermask,Top*
G04 #@! TF.FilePolarity,Negative*
%FSLAX46Y46*%
G04 Gerber Fmt 4.6, Leading zero omitted, Abs format (unit mm)*
G04 Created by KiCad (PCBNEW (5.0.0)) date 06/25/19 10:28:51*
%MOMM*%
%LPD*%
G01*
G04 APERTURE LIST*
%ADD10C,1.016000*%
%ADD11R,1.750000X0.300000*%
%ADD12C,1.270000*%
%ADD13R,1.500000X1.016000*%
%ADD14R,0.711000X0.508000*%
%ADD15R,0.508000X0.711000*%
%ADD16R,0.889000X1.000000*%
%ADD17R,1.300000X1.400000*%
%ADD18C,0.350000*%
%ADD19C,0.254000*%
G04 APERTURE END LIST*
D10*
G04 #@! TO.C,TP2*
X19750000Y12300000D03*
G04 #@! TD*
D11*
G04 #@! TO.C,Inf1*
X9854000Y6548200D03*
X9854000Y7198200D03*
X9854000Y7848200D03*
X9854000Y9148200D03*
X9854000Y9798200D03*
X4604000Y6548200D03*
X4604000Y7198200D03*
X4604000Y7848200D03*
X4604000Y8498200D03*
X4604000Y9148200D03*
X4604000Y9798200D03*
X4604000Y10448200D03*
X9854000Y10448200D03*
G04 #@! TD*
G04 #@! TO.C,Inf2*
X30850300Y6468200D03*
X36100300Y6468200D03*
X36100300Y7118200D03*
X36100300Y7768200D03*
X36100300Y8418200D03*
X36100300Y9068200D03*
X36100300Y9718200D03*
X36100300Y10368200D03*
X30850300Y7118200D03*
X30850300Y7768200D03*
X30850300Y9068200D03*
X30850300Y9718200D03*
X30850300Y10368200D03*
G04 #@! TD*
D12*
G04 #@! TO.C,TP1*
X9906000Y15494000D03*
G04 #@! TD*
D10*
G04 #@! TO.C,TP2*
X21082000Y12334900D03*
G04 #@! TD*
G04 #@! TO.C,TP2*
X18415000Y12334900D03*
G04 #@! TD*
G04 #@! TO.C,TP2*
X18415000Y13604900D03*
G04 #@! TD*
G04 #@! TO.C,TP2*
X22415500Y12334900D03*
G04 #@! TD*
G04 #@! TO.C,TP2*
X21082000Y13604900D03*
G04 #@! TD*
G04 #@! TO.C,TP2*
X22415500Y13604900D03*
G04 #@! TD*
G04 #@! TO.C,TP2*
X19748500Y13604900D03*
G04 #@! TD*
G04 #@! TO.C,TP2*
X21082000Y1397000D03*
G04 #@! TD*
G04 #@! TO.C,TP2*
X22415500Y1397000D03*
G04 #@! TD*
G04 #@! TO.C,TP2*
X8318500Y1397000D03*
G04 #@! TD*
G04 #@! TO.C,TP2*
X37528500Y1397000D03*
G04 #@! TD*
G04 #@! TO.C,TP2*
X36195000Y1397000D03*
G04 #@! TD*
G04 #@! TO.C,TP2*
X33528000Y2667000D03*
G04 #@! TD*
G04 #@! TO.C,TP2*
X33528000Y1397000D03*
G04 #@! TD*
G04 #@! TO.C,TP2*
X36195000Y2667000D03*
G04 #@! TD*
G04 #@! TO.C,TP2*
X34861500Y2667000D03*
G04 #@! TD*
G04 #@! TO.C,TP2*
X34861500Y1397000D03*
G04 #@! TD*
G04 #@! TO.C,TP2*
X37528500Y2667000D03*
G04 #@! TD*
D12*
G04 #@! TO.C,TP11*
X40894000Y7366000D03*
G04 #@! TD*
D10*
G04 #@! TO.C,TP2*
X19748500Y1397000D03*
G04 #@! TD*
G04 #@! TO.C,TP2*
X18415000Y1397000D03*
G04 #@! TD*
G04 #@! TO.C,TP2*
X22415500Y2667000D03*
G04 #@! TD*
G04 #@! TO.C,TP2*
X21082000Y2667000D03*
G04 #@! TD*
G04 #@! TO.C,TP2*
X19748500Y2667000D03*
G04 #@! TD*
G04 #@! TO.C,TP2*
X18415000Y2667000D03*
G04 #@! TD*
G04 #@! TO.C,TP2*
X6985000Y2667000D03*
G04 #@! TD*
G04 #@! TO.C,TP2*
X5638800Y2667000D03*
G04 #@! TD*
G04 #@! TO.C,TP2*
X8318500Y2667000D03*
G04 #@! TD*
G04 #@! TO.C,TP2*
X6985000Y1397000D03*
G04 #@! TD*
G04 #@! TO.C,TP2*
X5651500Y1397000D03*
G04 #@! TD*
G04 #@! TO.C,TP2*
X4318000Y2667000D03*
G04 #@! TD*
G04 #@! TO.C,TP2*
X4318000Y1397000D03*
G04 #@! TD*
D13*
G04 #@! TO.C,C13*
X20307300Y6777700D03*
X20307300Y8995700D03*
G04 #@! TD*
D12*
G04 #@! TO.C,TP16*
X0Y12065000D03*
G04 #@! TD*
G04 #@! TO.C,TP15*
X6350000Y15494000D03*
G04 #@! TD*
G04 #@! TO.C,TP17*
X0Y14097000D03*
G04 #@! TD*
G04 #@! TO.C,TP5*
X40894000Y3175000D03*
G04 #@! TD*
G04 #@! TO.C,TP10*
X40894000Y11938000D03*
G04 #@! TD*
G04 #@! TO.C,TP9*
X40894000Y5207000D03*
G04 #@! TD*
G04 #@! TO.C,TP6*
X0Y7731000D03*
G04 #@! TD*
G04 #@! TO.C,TP4*
X40894000Y1143000D03*
G04 #@! TD*
G04 #@! TO.C,TP3*
X0Y2921000D03*
G04 #@! TD*
G04 #@! TO.C,TP2*
X0Y10033000D03*
G04 #@! TD*
D14*
G04 #@! TO.C,C1*
X2794000Y13521000D03*
X2794000Y12387000D03*
G04 #@! TD*
G04 #@! TO.C,C2*
X2800000Y9167000D03*
X2800000Y8033000D03*
G04 #@! TD*
G04 #@! TO.C,C3*
X2800000Y10233000D03*
X2800000Y11367000D03*
G04 #@! TD*
D15*
G04 #@! TO.C,C4*
X8767500Y11811000D03*
X9901500Y11811000D03*
G04 #@! TD*
D16*
G04 #@! TO.C,C5*
X10759561Y4005246D03*
X12459561Y4005246D03*
G04 #@! TD*
G04 #@! TO.C,C6*
X12445693Y2325142D03*
X10745693Y2325142D03*
G04 #@! TD*
G04 #@! TO.C,C7*
X29934800Y4978400D03*
X31634800Y4978400D03*
G04 #@! TD*
D15*
G04 #@! TO.C,C8*
X32317000Y11684000D03*
X31183000Y11684000D03*
G04 #@! TD*
D16*
G04 #@! TO.C,C9*
X31634800Y3632200D03*
X29934800Y3632200D03*
G04 #@! TD*
D14*
G04 #@! TO.C,C10*
X38100000Y5933000D03*
X38100000Y7067000D03*
G04 #@! TD*
G04 #@! TO.C,C11*
X38100000Y8233000D03*
X38100000Y9367000D03*
G04 #@! TD*
G04 #@! TO.C,C12*
X37592000Y11879000D03*
X37592000Y13013000D03*
G04 #@! TD*
D17*
G04 #@! TO.C,D1*
X8943000Y4508500D03*
X6043000Y4508500D03*
G04 #@! TD*
D15*
G04 #@! TO.C,D2*
X11833000Y10400000D03*
X12967000Y10400000D03*
G04 #@! TD*
G04 #@! TO.C,D3*
X12967000Y5400000D03*
X11833000Y5400000D03*
G04 #@! TD*
G04 #@! TO.C,D4*
X28667000Y4900000D03*
X27533000Y4900000D03*
G04 #@! TD*
G04 #@! TO.C,D5*
X28967000Y9900000D03*
X27833000Y9900000D03*
G04 #@! TD*
D17*
G04 #@! TO.C,D6*
X33221000Y4445000D03*
X36121000Y4445000D03*
G04 #@! TD*
D18*
G04 #@! TO.C,Q1*
X14561193Y6700042D03*
X15561193Y6700042D03*
X16561193Y6700042D03*
X17561193Y6700042D03*
X18561193Y6700042D03*
X14561193Y6200042D03*
X15561193Y6200042D03*
X16561193Y6200042D03*
X17561193Y6200042D03*
X18561193Y6200042D03*
X15561193Y5700042D03*
X16561193Y5700042D03*
X17561193Y5700042D03*
X18561193Y5700042D03*
X14561193Y5200042D03*
X15561193Y5200042D03*
X16561193Y5200042D03*
X17561193Y5200042D03*
X18561193Y5200042D03*
X14561193Y4700042D03*
X15561193Y4700042D03*
X16561193Y4700042D03*
X17561193Y4700042D03*
X18561193Y4700042D03*
G04 #@! TD*
G04 #@! TO.C,Q2*
X18548493Y8822342D03*
X17548493Y8822342D03*
X16548493Y8822342D03*
X15548493Y8822342D03*
X14548493Y8822342D03*
X18548493Y9322342D03*
X17548493Y9322342D03*
X16548493Y9322342D03*
X15548493Y9322342D03*
X14548493Y9322342D03*
X18548493Y9822342D03*
X17548493Y9822342D03*
X16548493Y9822342D03*
X15548493Y9822342D03*
X18548493Y10322342D03*
X17548493Y10322342D03*
X16548493Y10322342D03*
X15548493Y10322342D03*
X14548493Y10322342D03*
X18548493Y10822342D03*
X17548493Y10822342D03*
X16548493Y10822342D03*
X15548493Y10822342D03*
X14548493Y10822342D03*
G04 #@! TD*
G04 #@! TO.C,Q3*
X22079200Y6763542D03*
X23079200Y6763542D03*
X24079200Y6763542D03*
X25079200Y6763542D03*
X26079200Y6763542D03*
X22079200Y6263542D03*
X23079200Y6263542D03*
X24079200Y6263542D03*
X25079200Y6263542D03*
X26079200Y6263542D03*
X22079200Y5763542D03*
X23079200Y5763542D03*
X24079200Y5763542D03*
X25079200Y5763542D03*
X22079200Y5263542D03*
X23079200Y5263542D03*
X24079200Y5263542D03*
X25079200Y5263542D03*
X26079200Y5263542D03*
X22079200Y4763542D03*
X23079200Y4763542D03*
X24079200Y4763542D03*
X25079200Y4763542D03*
X26079200Y4763542D03*
G04 #@! TD*
G04 #@! TO.C,Q4*
X26067793Y8885842D03*
X25067793Y8885842D03*
X24067793Y8885842D03*
X23067793Y8885842D03*
X22067793Y8885842D03*
X26067793Y9385842D03*
X25067793Y9385842D03*
X24067793Y9385842D03*
X23067793Y9385842D03*
X22067793Y9385842D03*
X25067793Y9885842D03*
X24067793Y9885842D03*
X23067793Y9885842D03*
X22067793Y9885842D03*
X26067793Y10385842D03*
X25067793Y10385842D03*
X24067793Y10385842D03*
X23067793Y10385842D03*
X22067793Y10385842D03*
X26067793Y10885842D03*
X25067793Y10885842D03*
X24067793Y10885842D03*
X23067793Y10885842D03*
X22067793Y10885842D03*
G04 #@! TD*
D15*
G04 #@! TO.C,R1*
X1638000Y14497000D03*
X2772000Y14497000D03*
G04 #@! TD*
D14*
G04 #@! TO.C,R2*
X1700000Y11367000D03*
X1700000Y10233000D03*
G04 #@! TD*
G04 #@! TO.C,R3*
X1700000Y9167001D03*
X1700000Y8032999D03*
G04 #@! TD*
D15*
G04 #@! TO.C,R4*
X6333000Y13700000D03*
X7467000Y13700000D03*
G04 #@! TD*
G04 #@! TO.C,R5*
X7490001Y12527872D03*
X6356001Y12527872D03*
G04 #@! TD*
G04 #@! TO.C,R6*
X12967000Y11800000D03*
X11833000Y11800000D03*
G04 #@! TD*
G04 #@! TO.C,R7*
X12967000Y6800000D03*
X11833000Y6800000D03*
G04 #@! TD*
G04 #@! TO.C,R8*
X28667000Y6300000D03*
X27533000Y6300000D03*
G04 #@! TD*
G04 #@! TO.C,R9*
X27833000Y11200000D03*
X28967000Y11200000D03*
G04 #@! TD*
G04 #@! TO.C,R10*
X32317000Y12700000D03*
X31183000Y12700000D03*
G04 #@! TD*
D14*
G04 #@! TO.C,R11*
X30226000Y11635942D03*
X30226000Y12769942D03*
G04 #@! TD*
G04 #@! TO.C,R12*
X39100000Y8233000D03*
X39100000Y9367000D03*
G04 #@! TD*
G04 #@! TO.C,R13*
X39100000Y7067000D03*
X39100000Y5933000D03*
G04 #@! TD*
G04 #@! TO.C,R14*
X36449000Y13013000D03*
X36449000Y11879000D03*
G04 #@! TD*
D19*
G36*
X11918803Y11969603D02*
X11963400Y11861937D01*
X11963400Y10337663D01*
X11918803Y10229997D01*
X11836400Y10195864D01*
X11753997Y10229997D01*
X11709400Y10337663D01*
X11709400Y11861937D01*
X11753997Y11969603D01*
X11836400Y12003736D01*
X11918803Y11969603D01*
X11918803Y11969603D01*
G37*
X11918803Y11969603D02*
X11963400Y11861937D01*
X11963400Y10337663D01*
X11918803Y10229997D01*
X11836400Y10195864D01*
X11753997Y10229997D01*
X11709400Y10337663D01*
X11709400Y11861937D01*
X11753997Y11969603D01*
X11836400Y12003736D01*
X11918803Y11969603D01*
G36*
X13051643Y11941271D02*
X13096240Y11833605D01*
X13096240Y10309331D01*
X13051643Y10201665D01*
X12969240Y10167532D01*
X12886837Y10201665D01*
X12842240Y10309331D01*
X12842240Y11833605D01*
X12886837Y11941271D01*
X12969240Y11975404D01*
X13051643Y11941271D01*
X13051643Y11941271D01*
G37*
X13051643Y11941271D02*
X13096240Y11833605D01*
X13096240Y10309331D01*
X13051643Y10201665D01*
X12969240Y10167532D01*
X12886837Y10201665D01*
X12842240Y10309331D01*
X12842240Y11833605D01*
X12886837Y11941271D01*
X12969240Y11975404D01*
X13051643Y11941271D01*
G36*
X11914839Y6974539D02*
X11958320Y6869567D01*
X11958320Y5330139D01*
X11914212Y5224029D01*
X11833150Y5190810D01*
X11751560Y5225025D01*
X11707535Y5332243D01*
X11711271Y6869301D01*
X11755063Y6974483D01*
X11835088Y7007573D01*
X11914839Y6974539D01*
X11914839Y6974539D01*
G37*
X11914839Y6974539D02*
X11958320Y6869567D01*
X11958320Y5330139D01*
X11914212Y5224029D01*
X11833150Y5190810D01*
X11751560Y5225025D01*
X11707535Y5332243D01*
X11711271Y6869301D01*
X11755063Y6974483D01*
X11835088Y7007573D01*
X11914839Y6974539D01*
G36*
X13050219Y6982159D02*
X13093700Y6877187D01*
X13093700Y5337759D01*
X13049592Y5231649D01*
X12968530Y5198430D01*
X12886940Y5232645D01*
X12842915Y5339863D01*
X12846651Y6876921D01*
X12890443Y6982103D01*
X12970468Y7015193D01*
X13050219Y6982159D01*
X13050219Y6982159D01*
G37*
X13050219Y6982159D02*
X13093700Y6877187D01*
X13093700Y5337759D01*
X13049592Y5231649D01*
X12968530Y5198430D01*
X12886940Y5232645D01*
X12842915Y5339863D01*
X12846651Y6876921D01*
X12890443Y6982103D01*
X12970468Y7015193D01*
X13050219Y6982159D01*
G36*
X27913742Y11383207D02*
X27958132Y11276328D01*
X27959967Y9824442D01*
X27915536Y9716887D01*
X27833299Y9682793D01*
X27750917Y9716917D01*
X27706320Y9824583D01*
X27706320Y11276467D01*
X27750545Y11383235D01*
X27832073Y11417005D01*
X27913742Y11383207D01*
X27913742Y11383207D01*
G37*
X27913742Y11383207D02*
X27958132Y11276328D01*
X27959967Y9824442D01*
X27915536Y9716887D01*
X27833299Y9682793D01*
X27750917Y9716917D01*
X27706320Y9824583D01*
X27706320Y11276467D01*
X27750545Y11383235D01*
X27832073Y11417005D01*
X27913742Y11383207D01*
G36*
X29051662Y11395907D02*
X29096052Y11289028D01*
X29097887Y9837142D01*
X29053456Y9729587D01*
X28971219Y9695493D01*
X28888837Y9729617D01*
X28844240Y9837283D01*
X28844240Y11289167D01*
X28888465Y11395935D01*
X28969993Y11429705D01*
X29051662Y11395907D01*
X29051662Y11395907D01*
G37*
X29051662Y11395907D02*
X29096052Y11289028D01*
X29097887Y9837142D01*
X29053456Y9729587D01*
X28971219Y9695493D01*
X28888837Y9729617D01*
X28844240Y9837283D01*
X28844240Y11289167D01*
X28888465Y11395935D01*
X28969993Y11429705D01*
X29051662Y11395907D01*
G36*
X27615761Y6401383D02*
X27660959Y6294790D01*
X27662781Y4853289D01*
X27616202Y4738144D01*
X27528008Y4699279D01*
X27444388Y4731774D01*
X27398980Y4839159D01*
X27398980Y6280661D01*
X27445364Y6395026D01*
X27532858Y6433560D01*
X27615761Y6401383D01*
X27615761Y6401383D01*
G37*
X27615761Y6401383D02*
X27660959Y6294790D01*
X27662781Y4853289D01*
X27616202Y4738144D01*
X27528008Y4699279D01*
X27444388Y4731774D01*
X27398980Y4839159D01*
X27398980Y6280661D01*
X27445364Y6395026D01*
X27532858Y6433560D01*
X27615761Y6401383D01*
G36*
X28751942Y6399101D02*
X28796332Y6292222D01*
X28798167Y4840336D01*
X28753736Y4732781D01*
X28671499Y4698687D01*
X28589117Y4732811D01*
X28544520Y4840477D01*
X28544520Y6292361D01*
X28588745Y6399129D01*
X28670273Y6432899D01*
X28751942Y6399101D01*
X28751942Y6399101D01*
G37*
X28751942Y6399101D02*
X28796332Y6292222D01*
X28798167Y4840336D01*
X28753736Y4732781D01*
X28671499Y4698687D01*
X28589117Y4732811D01*
X28544520Y4840477D01*
X28544520Y6292361D01*
X28588745Y6399129D01*
X28670273Y6432899D01*
X28751942Y6399101D01*
M02*
