G04 #@! TF.GenerationSoftware,KiCad,Pcbnew,(5.0.0)*
G04 #@! TF.CreationDate,2019-06-25T10:28:51-07:00*
G04 #@! TF.ProjectId,Buffer,4275666665722E6B696361645F706362,rev?*
G04 #@! TF.SameCoordinates,Original*
G04 #@! TF.FileFunction,Legend,Top*
G04 #@! TF.FilePolarity,Positive*
%FSLAX46Y46*%
G04 Gerber Fmt 4.6, Leading zero omitted, Abs format (unit mm)*
G04 Created by KiCad (PCBNEW (5.0.0)) date 06/25/19 10:28:51*
%MOMM*%
%LPD*%
G01*
G04 APERTURE LIST*
%ADD10C,0.111125*%
%ADD11C,0.150000*%
%ADD12C,0.100000*%
%ADD13C,0.120000*%
%ADD14C,0.300000*%
G04 APERTURE END LIST*
D10*
X24816064Y14487448D02*
X24816064Y15185948D01*
X24985397Y15185948D01*
X25027731Y15152687D01*
X25048897Y15119425D01*
X25070064Y15052901D01*
X25070064Y14953115D01*
X25048897Y14886591D01*
X25027731Y14853329D01*
X24985397Y14820067D01*
X24816064Y14820067D01*
X25260564Y14487448D02*
X25260564Y14953115D01*
X25260564Y15185948D02*
X25239397Y15152687D01*
X25260564Y15119425D01*
X25281731Y15152687D01*
X25260564Y15185948D01*
X25260564Y15119425D01*
X25535731Y14487448D02*
X25493397Y14520710D01*
X25472231Y14587234D01*
X25472231Y15185948D01*
X25895564Y14487448D02*
X25895564Y14853329D01*
X25874397Y14919853D01*
X25832064Y14953115D01*
X25747397Y14953115D01*
X25705064Y14919853D01*
X25895564Y14520710D02*
X25853231Y14487448D01*
X25747397Y14487448D01*
X25705064Y14520710D01*
X25683897Y14587234D01*
X25683897Y14653758D01*
X25705064Y14720282D01*
X25747397Y14753544D01*
X25853231Y14753544D01*
X25895564Y14786806D01*
X26064897Y14953115D02*
X26149564Y14487448D01*
X26234231Y14820067D01*
X26318897Y14487448D01*
X26403564Y14953115D01*
X26763397Y14487448D02*
X26763397Y14853329D01*
X26742231Y14919853D01*
X26699897Y14953115D01*
X26615231Y14953115D01*
X26572897Y14919853D01*
X26763397Y14520710D02*
X26721064Y14487448D01*
X26615231Y14487448D01*
X26572897Y14520710D01*
X26551731Y14587234D01*
X26551731Y14653758D01*
X26572897Y14720282D01*
X26615231Y14753544D01*
X26721064Y14753544D01*
X26763397Y14786806D01*
X27546564Y15152687D02*
X27504231Y15185948D01*
X27440731Y15185948D01*
X27377231Y15152687D01*
X27334897Y15086163D01*
X27313731Y15019639D01*
X27292564Y14886591D01*
X27292564Y14786806D01*
X27313731Y14653758D01*
X27334897Y14587234D01*
X27377231Y14520710D01*
X27440731Y14487448D01*
X27483064Y14487448D01*
X27546564Y14520710D01*
X27567731Y14553972D01*
X27567731Y14786806D01*
X27483064Y14786806D01*
X27758231Y14487448D02*
X27758231Y14953115D01*
X27758231Y14820067D02*
X27779397Y14886591D01*
X27800564Y14919853D01*
X27842897Y14953115D01*
X27885231Y14953115D01*
X28096897Y14487448D02*
X28054564Y14520710D01*
X28033397Y14553972D01*
X28012231Y14620496D01*
X28012231Y14820067D01*
X28033397Y14886591D01*
X28054564Y14919853D01*
X28096897Y14953115D01*
X28160397Y14953115D01*
X28202731Y14919853D01*
X28223897Y14886591D01*
X28245064Y14820067D01*
X28245064Y14620496D01*
X28223897Y14553972D01*
X28202731Y14520710D01*
X28160397Y14487448D01*
X28096897Y14487448D01*
X28626064Y14953115D02*
X28626064Y14487448D01*
X28435564Y14953115D02*
X28435564Y14587234D01*
X28456731Y14520710D01*
X28499064Y14487448D01*
X28562564Y14487448D01*
X28604897Y14520710D01*
X28626064Y14553972D01*
X28837731Y14953115D02*
X28837731Y14254615D01*
X28837731Y14919853D02*
X28880064Y14953115D01*
X28964731Y14953115D01*
X29007064Y14919853D01*
X29028231Y14886591D01*
X29049397Y14820067D01*
X29049397Y14620496D01*
X29028231Y14553972D01*
X29007064Y14520710D01*
X28964731Y14487448D01*
X28880064Y14487448D01*
X28837731Y14520710D01*
X24816064Y14027073D02*
X24816064Y13461621D01*
X24837231Y13395097D01*
X24858397Y13361835D01*
X24900731Y13328573D01*
X24985397Y13328573D01*
X25027731Y13361835D01*
X25048897Y13395097D01*
X25070064Y13461621D01*
X25070064Y14027073D01*
X25535731Y13395097D02*
X25514564Y13361835D01*
X25451064Y13328573D01*
X25408731Y13328573D01*
X25345231Y13361835D01*
X25302897Y13428359D01*
X25281731Y13494883D01*
X25260564Y13627931D01*
X25260564Y13727716D01*
X25281731Y13860764D01*
X25302897Y13927288D01*
X25345231Y13993812D01*
X25408731Y14027073D01*
X25451064Y14027073D01*
X25514564Y13993812D01*
X25535731Y13960550D01*
X26213064Y13694454D02*
X26276564Y13661192D01*
X26297731Y13627931D01*
X26318897Y13561407D01*
X26318897Y13461621D01*
X26297731Y13395097D01*
X26276564Y13361835D01*
X26234231Y13328573D01*
X26064897Y13328573D01*
X26064897Y14027073D01*
X26213064Y14027073D01*
X26255397Y13993812D01*
X26276564Y13960550D01*
X26297731Y13894026D01*
X26297731Y13827502D01*
X26276564Y13760978D01*
X26255397Y13727716D01*
X26213064Y13694454D01*
X26064897Y13694454D01*
X26678731Y13361835D02*
X26636397Y13328573D01*
X26551731Y13328573D01*
X26509397Y13361835D01*
X26488231Y13428359D01*
X26488231Y13694454D01*
X26509397Y13760978D01*
X26551731Y13794240D01*
X26636397Y13794240D01*
X26678731Y13760978D01*
X26699897Y13694454D01*
X26699897Y13627931D01*
X26488231Y13561407D01*
X26890397Y13328573D02*
X26890397Y13794240D01*
X26890397Y13661192D02*
X26911564Y13727716D01*
X26932731Y13760978D01*
X26975064Y13794240D01*
X27017397Y13794240D01*
X27165564Y13328573D02*
X27165564Y14027073D01*
X27207897Y13594669D02*
X27334897Y13328573D01*
X27334897Y13794240D02*
X27165564Y13528145D01*
X27694731Y13361835D02*
X27652397Y13328573D01*
X27567731Y13328573D01*
X27525397Y13361835D01*
X27504231Y13428359D01*
X27504231Y13694454D01*
X27525397Y13760978D01*
X27567731Y13794240D01*
X27652397Y13794240D01*
X27694731Y13760978D01*
X27715897Y13694454D01*
X27715897Y13627931D01*
X27504231Y13561407D01*
X27969897Y13328573D02*
X27927564Y13361835D01*
X27906397Y13428359D01*
X27906397Y14027073D01*
X28308564Y13361835D02*
X28266231Y13328573D01*
X28181564Y13328573D01*
X28139231Y13361835D01*
X28118064Y13428359D01*
X28118064Y13694454D01*
X28139231Y13760978D01*
X28181564Y13794240D01*
X28266231Y13794240D01*
X28308564Y13760978D01*
X28329731Y13694454D01*
X28329731Y13627931D01*
X28118064Y13561407D01*
X28477897Y13794240D02*
X28583731Y13328573D01*
X28689564Y13794240D02*
X28583731Y13328573D01*
X28541397Y13162264D01*
X28520231Y13129002D01*
X28477897Y13095740D01*
X8436768Y13911110D02*
X8500268Y13877848D01*
X8606102Y13877848D01*
X8648435Y13911110D01*
X8669602Y13944372D01*
X8690768Y14010896D01*
X8690768Y14077420D01*
X8669602Y14143944D01*
X8648435Y14177206D01*
X8606102Y14210467D01*
X8521435Y14243729D01*
X8479102Y14276991D01*
X8457935Y14310253D01*
X8436768Y14376777D01*
X8436768Y14443301D01*
X8457935Y14509825D01*
X8479102Y14543087D01*
X8521435Y14576348D01*
X8627268Y14576348D01*
X8690768Y14543087D01*
X8860102Y13911110D02*
X8923602Y13877848D01*
X9029435Y13877848D01*
X9071768Y13911110D01*
X9092935Y13944372D01*
X9114102Y14010896D01*
X9114102Y14077420D01*
X9092935Y14143944D01*
X9071768Y14177206D01*
X9029435Y14210467D01*
X8944768Y14243729D01*
X8902435Y14276991D01*
X8881268Y14310253D01*
X8860102Y14376777D01*
X8860102Y14443301D01*
X8881268Y14509825D01*
X8902435Y14543087D01*
X8944768Y14576348D01*
X9050602Y14576348D01*
X9114102Y14543087D01*
X9452768Y14243729D02*
X9516268Y14210467D01*
X9537435Y14177206D01*
X9558602Y14110682D01*
X9558602Y14010896D01*
X9537435Y13944372D01*
X9516268Y13911110D01*
X9473935Y13877848D01*
X9304602Y13877848D01*
X9304602Y14576348D01*
X9452768Y14576348D01*
X9495102Y14543087D01*
X9516268Y14509825D01*
X9537435Y14443301D01*
X9537435Y14376777D01*
X9516268Y14310253D01*
X9495102Y14276991D01*
X9452768Y14243729D01*
X9304602Y14243729D01*
X10235935Y14243729D02*
X10087768Y14243729D01*
X10087768Y13877848D02*
X10087768Y14576348D01*
X10299435Y14576348D01*
X10659268Y14343515D02*
X10659268Y13877848D01*
X10468768Y14343515D02*
X10468768Y13977634D01*
X10489935Y13911110D01*
X10532268Y13877848D01*
X10595768Y13877848D01*
X10638102Y13911110D01*
X10659268Y13944372D01*
X10934435Y13877848D02*
X10892102Y13911110D01*
X10870935Y13977634D01*
X10870935Y14576348D01*
X11167268Y13877848D02*
X11124935Y13911110D01*
X11103768Y13977634D01*
X11103768Y14576348D01*
X11823435Y14243729D02*
X11886935Y14210467D01*
X11908102Y14177206D01*
X11929268Y14110682D01*
X11929268Y14010896D01*
X11908102Y13944372D01*
X11886935Y13911110D01*
X11844602Y13877848D01*
X11675268Y13877848D01*
X11675268Y14576348D01*
X11823435Y14576348D01*
X11865768Y14543087D01*
X11886935Y14509825D01*
X11908102Y14443301D01*
X11908102Y14376777D01*
X11886935Y14310253D01*
X11865768Y14276991D01*
X11823435Y14243729D01*
X11675268Y14243729D01*
X12119768Y13877848D02*
X12119768Y14343515D01*
X12119768Y14210467D02*
X12140935Y14276991D01*
X12162102Y14310253D01*
X12204435Y14343515D01*
X12246768Y14343515D01*
X12394935Y13877848D02*
X12394935Y14343515D01*
X12394935Y14576348D02*
X12373768Y14543087D01*
X12394935Y14509825D01*
X12416102Y14543087D01*
X12394935Y14576348D01*
X12394935Y14509825D01*
X12797102Y13877848D02*
X12797102Y14576348D01*
X12797102Y13911110D02*
X12754768Y13877848D01*
X12670102Y13877848D01*
X12627768Y13911110D01*
X12606602Y13944372D01*
X12585435Y14010896D01*
X12585435Y14210467D01*
X12606602Y14276991D01*
X12627768Y14310253D01*
X12670102Y14343515D01*
X12754768Y14343515D01*
X12797102Y14310253D01*
X13199268Y14343515D02*
X13199268Y13778063D01*
X13178102Y13711539D01*
X13156935Y13678277D01*
X13114602Y13645015D01*
X13051102Y13645015D01*
X13008768Y13678277D01*
X13199268Y13911110D02*
X13156935Y13877848D01*
X13072268Y13877848D01*
X13029935Y13911110D01*
X13008768Y13944372D01*
X12987602Y14010896D01*
X12987602Y14210467D01*
X13008768Y14276991D01*
X13029935Y14310253D01*
X13072268Y14343515D01*
X13156935Y14343515D01*
X13199268Y14310253D01*
X13580268Y13911110D02*
X13537935Y13877848D01*
X13453268Y13877848D01*
X13410935Y13911110D01*
X13389768Y13977634D01*
X13389768Y14243729D01*
X13410935Y14310253D01*
X13453268Y14343515D01*
X13537935Y14343515D01*
X13580268Y14310253D01*
X13601435Y14243729D01*
X13601435Y14177206D01*
X13389768Y14110682D01*
X14384602Y13877848D02*
X14236435Y14210467D01*
X14130602Y13877848D02*
X14130602Y14576348D01*
X14299935Y14576348D01*
X14342268Y14543087D01*
X14363435Y14509825D01*
X14384602Y14443301D01*
X14384602Y14343515D01*
X14363435Y14276991D01*
X14342268Y14243729D01*
X14299935Y14210467D01*
X14130602Y14210467D01*
X14744435Y13911110D02*
X14702102Y13877848D01*
X14617435Y13877848D01*
X14575102Y13911110D01*
X14553935Y13977634D01*
X14553935Y14243729D01*
X14575102Y14310253D01*
X14617435Y14343515D01*
X14702102Y14343515D01*
X14744435Y14310253D01*
X14765602Y14243729D01*
X14765602Y14177206D01*
X14553935Y14110682D01*
X14913768Y14343515D02*
X15019602Y13877848D01*
X15125435Y14343515D01*
X15294768Y13944372D02*
X15315935Y13911110D01*
X15294768Y13877848D01*
X15273602Y13911110D01*
X15294768Y13944372D01*
X15294768Y13877848D01*
X15993268Y14243729D02*
X16056768Y14210467D01*
X16077935Y14177206D01*
X16099102Y14110682D01*
X16099102Y14010896D01*
X16077935Y13944372D01*
X16056768Y13911110D01*
X16014435Y13877848D01*
X15845102Y13877848D01*
X15845102Y14576348D01*
X15993268Y14576348D01*
X16035602Y14543087D01*
X16056768Y14509825D01*
X16077935Y14443301D01*
X16077935Y14376777D01*
X16056768Y14310253D01*
X16035602Y14276991D01*
X15993268Y14243729D01*
X15845102Y14243729D01*
X11908102Y12718973D02*
X11908102Y13417473D01*
X12162102Y12718973D02*
X11971602Y13118116D01*
X12162102Y13417473D02*
X11908102Y13018331D01*
X12352602Y12785497D02*
X12373768Y12752235D01*
X12352602Y12718973D01*
X12331435Y12752235D01*
X12352602Y12785497D01*
X12352602Y12718973D01*
X13051102Y13084854D02*
X12902935Y13084854D01*
X12902935Y12718973D02*
X12902935Y13417473D01*
X13114602Y13417473D01*
X13453268Y12752235D02*
X13410935Y12718973D01*
X13326268Y12718973D01*
X13283935Y12752235D01*
X13262768Y12818759D01*
X13262768Y13084854D01*
X13283935Y13151378D01*
X13326268Y13184640D01*
X13410935Y13184640D01*
X13453268Y13151378D01*
X13474435Y13084854D01*
X13474435Y13018331D01*
X13262768Y12951807D01*
X13664935Y12718973D02*
X13664935Y13184640D01*
X13664935Y13051592D02*
X13686102Y13118116D01*
X13707268Y13151378D01*
X13749602Y13184640D01*
X13791935Y13184640D01*
X13940102Y13184640D02*
X13940102Y12718973D01*
X13940102Y13118116D02*
X13961268Y13151378D01*
X14003602Y13184640D01*
X14067102Y13184640D01*
X14109435Y13151378D01*
X14130602Y13084854D01*
X14130602Y12718973D01*
X14532768Y12718973D02*
X14532768Y13084854D01*
X14511602Y13151378D01*
X14469268Y13184640D01*
X14384602Y13184640D01*
X14342268Y13151378D01*
X14532768Y12752235D02*
X14490435Y12718973D01*
X14384602Y12718973D01*
X14342268Y12752235D01*
X14321102Y12818759D01*
X14321102Y12885283D01*
X14342268Y12951807D01*
X14384602Y12985069D01*
X14490435Y12985069D01*
X14532768Y13018331D01*
X14744435Y13184640D02*
X14744435Y12718973D01*
X14744435Y13118116D02*
X14765602Y13151378D01*
X14807935Y13184640D01*
X14871435Y13184640D01*
X14913768Y13151378D01*
X14934935Y13084854D01*
X14934935Y12718973D01*
X15337102Y12718973D02*
X15337102Y13417473D01*
X15337102Y12752235D02*
X15294768Y12718973D01*
X15210102Y12718973D01*
X15167768Y12752235D01*
X15146602Y12785497D01*
X15125435Y12852021D01*
X15125435Y13051592D01*
X15146602Y13118116D01*
X15167768Y13151378D01*
X15210102Y13184640D01*
X15294768Y13184640D01*
X15337102Y13151378D01*
X15718102Y12752235D02*
X15675768Y12718973D01*
X15591102Y12718973D01*
X15548768Y12752235D01*
X15527602Y12818759D01*
X15527602Y13084854D01*
X15548768Y13151378D01*
X15591102Y13184640D01*
X15675768Y13184640D01*
X15718102Y13151378D01*
X15739268Y13084854D01*
X15739268Y13018331D01*
X15527602Y12951807D01*
X15887435Y13184640D02*
X16120268Y13184640D01*
X15887435Y12718973D01*
X16120268Y12718973D01*
D11*
G04 #@! TO.C,Inf1*
X9729000Y5998200D02*
X4729000Y5998200D01*
X9729000Y10998200D02*
X4729000Y10998200D01*
X4729000Y10998200D02*
X4729000Y5998200D01*
X9729000Y10998200D02*
X9729000Y5998200D01*
G04 #@! TO.C,Inf2*
X30975300Y5918200D02*
X30975300Y10918200D01*
X35975300Y5918200D02*
X35975300Y10918200D01*
X30975300Y5918200D02*
X35975300Y5918200D01*
X30975300Y10918200D02*
X35975300Y10918200D01*
G04 #@! TO.C,C13*
X21069300Y7632700D02*
X21069300Y8140700D01*
X19545300Y7632700D02*
X19545300Y8140700D01*
G04 #@! TO.C,C1*
X2494000Y13054000D02*
X2494000Y12854000D01*
X3094000Y13054000D02*
X3094000Y12854000D01*
G04 #@! TO.C,C2*
X2500000Y8700000D02*
X2500000Y8500000D01*
X3100000Y8700000D02*
X3100000Y8500000D01*
G04 #@! TO.C,C3*
X3100000Y10700000D02*
X3100000Y10900000D01*
X2500000Y10700000D02*
X2500000Y10900000D01*
G04 #@! TO.C,C4*
X9234500Y11511000D02*
X9434500Y11511000D01*
X9234500Y12111000D02*
X9434500Y12111000D01*
G04 #@! TO.C,C5*
X11482561Y3497246D02*
X11736561Y3497246D01*
X11482561Y4513246D02*
X11736561Y4513246D01*
G04 #@! TO.C,C6*
X11468693Y2833142D02*
X11722693Y2833142D01*
X11468693Y1817142D02*
X11722693Y1817142D01*
G04 #@! TO.C,C7*
X30911800Y4470400D02*
X30657800Y4470400D01*
X30911800Y5486400D02*
X30657800Y5486400D01*
G04 #@! TO.C,C8*
X31650000Y11984000D02*
X31850000Y11984000D01*
X31650000Y11384000D02*
X31850000Y11384000D01*
G04 #@! TO.C,C9*
X30911800Y4140200D02*
X30657800Y4140200D01*
X30911800Y3124200D02*
X30657800Y3124200D01*
G04 #@! TO.C,C10*
X38400000Y6600000D02*
X38400000Y6400000D01*
X37800000Y6600000D02*
X37800000Y6400000D01*
G04 #@! TO.C,C11*
X38400000Y8700000D02*
X38400000Y8900000D01*
X37800000Y8700000D02*
X37800000Y8900000D01*
G04 #@! TO.C,C12*
X37892000Y12346000D02*
X37892000Y12546000D01*
X37292000Y12346000D02*
X37292000Y12546000D01*
D12*
G04 #@! TO.C,D1*
X8693000Y5508500D02*
X7493000Y5508500D01*
X8693000Y3508500D02*
X7493000Y3508500D01*
X8993000Y5308500D02*
X8993000Y5508500D01*
X8993000Y5508500D02*
X8693000Y5508500D01*
X5993000Y5308500D02*
X5993000Y5508500D01*
X5993000Y5508500D02*
X6293000Y5508500D01*
X6293000Y3508500D02*
X5993000Y3508500D01*
X5993000Y3508500D02*
X5993000Y3708500D01*
X8993000Y3708500D02*
X8993000Y3508500D01*
X8993000Y3508500D02*
X8693000Y3508500D01*
D13*
G04 #@! TO.C,D2*
X11400000Y10700000D02*
X11400000Y10100000D01*
D11*
X12300000Y10100000D02*
X12500000Y10100000D01*
X12300000Y10700000D02*
X12500000Y10700000D01*
G04 #@! TO.C,D3*
X12300000Y5700000D02*
X12500000Y5700000D01*
X12300000Y5100000D02*
X12500000Y5100000D01*
D13*
X11400000Y5700000D02*
X11400000Y5100000D01*
G04 #@! TO.C,D4*
X29100000Y4600000D02*
X29100000Y5200000D01*
D11*
X28200000Y5200000D02*
X28000000Y5200000D01*
X28200000Y4600000D02*
X28000000Y4600000D01*
D13*
G04 #@! TO.C,D5*
X29400000Y9600000D02*
X29400000Y10200000D01*
D11*
X28500000Y10200000D02*
X28300000Y10200000D01*
X28500000Y9600000D02*
X28300000Y9600000D01*
D12*
G04 #@! TO.C,D6*
X33471000Y3445000D02*
X34671000Y3445000D01*
X33471000Y5445000D02*
X34671000Y5445000D01*
X33171000Y3645000D02*
X33171000Y3445000D01*
X33171000Y3445000D02*
X33471000Y3445000D01*
X36171000Y3645000D02*
X36171000Y3445000D01*
X36171000Y3445000D02*
X35871000Y3445000D01*
X35871000Y5445000D02*
X36171000Y5445000D01*
X36171000Y5445000D02*
X36171000Y5245000D01*
X33171000Y5245000D02*
X33171000Y5445000D01*
X33171000Y5445000D02*
X33471000Y5445000D01*
D11*
G04 #@! TO.C,Q1*
X14411193Y7225042D02*
X14411193Y7100042D01*
X14036193Y6850042D02*
X14161193Y6850042D01*
X14186193Y7075042D02*
X14336193Y7075042D01*
X14336193Y7075042D02*
X14336193Y7225042D01*
D14*
X14336193Y7225042D02*
X14036193Y7225042D01*
X14036193Y7225042D02*
X14036193Y6925042D01*
D11*
X14036193Y6925042D02*
X14186193Y6925042D01*
X14186193Y6925042D02*
X14186193Y7150042D01*
X18936193Y7075042D02*
X18936193Y4325042D01*
X18936193Y4325042D02*
X14186193Y4325042D01*
X14186193Y7075042D02*
X18936193Y7075042D01*
X14186193Y4325042D02*
X14186193Y7075042D01*
G04 #@! TO.C,Q2*
X14173493Y8447342D02*
X14173493Y11197342D01*
X14173493Y11197342D02*
X18923493Y11197342D01*
X18923493Y8447342D02*
X14173493Y8447342D01*
X18923493Y11197342D02*
X18923493Y8447342D01*
X14173493Y11047342D02*
X14173493Y11272342D01*
X14023493Y11047342D02*
X14173493Y11047342D01*
D14*
X14023493Y11347342D02*
X14023493Y11047342D01*
X14323493Y11347342D02*
X14023493Y11347342D01*
D11*
X14323493Y11197342D02*
X14323493Y11347342D01*
X14173493Y11197342D02*
X14323493Y11197342D01*
X14023493Y10972342D02*
X14148493Y10972342D01*
X14398493Y11347342D02*
X14398493Y11222342D01*
G04 #@! TO.C,Q3*
X26454200Y7138542D02*
X26454200Y4388542D01*
X26454200Y4388542D02*
X21704200Y4388542D01*
X21704200Y7138542D02*
X26454200Y7138542D01*
X21704200Y4388542D02*
X21704200Y7138542D01*
X26454200Y4538542D02*
X26454200Y4313542D01*
X26604200Y4538542D02*
X26454200Y4538542D01*
D14*
X26604200Y4238542D02*
X26604200Y4538542D01*
X26304200Y4238542D02*
X26604200Y4238542D01*
D11*
X26304200Y4388542D02*
X26304200Y4238542D01*
X26454200Y4388542D02*
X26304200Y4388542D01*
X26604200Y4613542D02*
X26479200Y4613542D01*
X26229200Y4238542D02*
X26229200Y4363542D01*
G04 #@! TO.C,Q4*
X26217793Y8360842D02*
X26217793Y8485842D01*
X26592793Y8735842D02*
X26467793Y8735842D01*
X26442793Y8510842D02*
X26292793Y8510842D01*
X26292793Y8510842D02*
X26292793Y8360842D01*
D14*
X26292793Y8360842D02*
X26592793Y8360842D01*
X26592793Y8360842D02*
X26592793Y8660842D01*
D11*
X26592793Y8660842D02*
X26442793Y8660842D01*
X26442793Y8660842D02*
X26442793Y8435842D01*
X21692793Y8510842D02*
X21692793Y11260842D01*
X21692793Y11260842D02*
X26442793Y11260842D01*
X26442793Y8510842D02*
X21692793Y8510842D01*
X26442793Y11260842D02*
X26442793Y8510842D01*
G04 #@! TO.C,C13*
D10*
X20569464Y4921250D02*
X20602726Y4900083D01*
X20635988Y4836583D01*
X20635988Y4794250D01*
X20602726Y4730750D01*
X20536202Y4688416D01*
X20469678Y4667250D01*
X20336630Y4646083D01*
X20236845Y4646083D01*
X20103797Y4667250D01*
X20037273Y4688416D01*
X19970750Y4730750D01*
X19937488Y4794250D01*
X19937488Y4836583D01*
X19970750Y4900083D01*
X20004011Y4921250D01*
X20635988Y5344583D02*
X20635988Y5090583D01*
X20635988Y5217583D02*
X19937488Y5217583D01*
X20037273Y5175250D01*
X20103797Y5132916D01*
X20137059Y5090583D01*
X19937488Y5492750D02*
X19937488Y5767916D01*
X20203583Y5619750D01*
X20203583Y5683250D01*
X20236845Y5725583D01*
X20270107Y5746750D01*
X20336630Y5767916D01*
X20502940Y5767916D01*
X20569464Y5746750D01*
X20602726Y5725583D01*
X20635988Y5683250D01*
X20635988Y5556250D01*
X20602726Y5513916D01*
X20569464Y5492750D01*
G04 #@! TO.C,C1*
X2027464Y13235516D02*
X2060726Y13214350D01*
X2093988Y13150850D01*
X2093988Y13108516D01*
X2060726Y13045016D01*
X1994202Y13002683D01*
X1927678Y12981516D01*
X1794630Y12960350D01*
X1694845Y12960350D01*
X1561797Y12981516D01*
X1495273Y13002683D01*
X1428750Y13045016D01*
X1395488Y13108516D01*
X1395488Y13150850D01*
X1428750Y13214350D01*
X1462011Y13235516D01*
X2093988Y13658850D02*
X2093988Y13404850D01*
X2093988Y13531850D02*
X1395488Y13531850D01*
X1495273Y13489516D01*
X1561797Y13447183D01*
X1595059Y13404850D01*
G04 #@! TO.C,C2*
X3049464Y7001916D02*
X3082726Y6980750D01*
X3115988Y6917250D01*
X3115988Y6874916D01*
X3082726Y6811416D01*
X3016202Y6769083D01*
X2949678Y6747916D01*
X2816630Y6726750D01*
X2716845Y6726750D01*
X2583797Y6747916D01*
X2517273Y6769083D01*
X2450750Y6811416D01*
X2417488Y6874916D01*
X2417488Y6917250D01*
X2450750Y6980750D01*
X2484011Y7001916D01*
X2484011Y7171250D02*
X2450750Y7192416D01*
X2417488Y7234750D01*
X2417488Y7340583D01*
X2450750Y7382916D01*
X2484011Y7404083D01*
X2550535Y7425250D01*
X2617059Y7425250D01*
X2716845Y7404083D01*
X3115988Y7150083D01*
X3115988Y7425250D01*
G04 #@! TO.C,C3*
X3687535Y11554883D02*
X3654273Y11576050D01*
X3621011Y11639550D01*
X3621011Y11681883D01*
X3654273Y11745383D01*
X3720797Y11787716D01*
X3787321Y11808883D01*
X3920369Y11830050D01*
X4020154Y11830050D01*
X4153202Y11808883D01*
X4219726Y11787716D01*
X4286250Y11745383D01*
X4319511Y11681883D01*
X4319511Y11639550D01*
X4286250Y11576050D01*
X4252988Y11554883D01*
X4319511Y11406716D02*
X4319511Y11131550D01*
X4053416Y11279716D01*
X4053416Y11216216D01*
X4020154Y11173883D01*
X3986892Y11152716D01*
X3920369Y11131550D01*
X3754059Y11131550D01*
X3687535Y11152716D01*
X3654273Y11173883D01*
X3621011Y11216216D01*
X3621011Y11343216D01*
X3654273Y11385550D01*
X3687535Y11406716D01*
G04 #@! TO.C,C4*
X8815916Y12577535D02*
X8794750Y12544273D01*
X8731250Y12511011D01*
X8688916Y12511011D01*
X8625416Y12544273D01*
X8583083Y12610797D01*
X8561916Y12677321D01*
X8540750Y12810369D01*
X8540750Y12910154D01*
X8561916Y13043202D01*
X8583083Y13109726D01*
X8625416Y13176250D01*
X8688916Y13209511D01*
X8731250Y13209511D01*
X8794750Y13176250D01*
X8815916Y13142988D01*
X9196916Y12976678D02*
X9196916Y12511011D01*
X9091083Y13242773D02*
X8985250Y12743845D01*
X9260416Y12743845D01*
G04 #@! TO.C,C5*
X9577916Y2417535D02*
X9556750Y2384273D01*
X9493250Y2351011D01*
X9450916Y2351011D01*
X9387416Y2384273D01*
X9345083Y2450797D01*
X9323916Y2517321D01*
X9302750Y2650369D01*
X9302750Y2750154D01*
X9323916Y2883202D01*
X9345083Y2949726D01*
X9387416Y3016250D01*
X9450916Y3049511D01*
X9493250Y3049511D01*
X9556750Y3016250D01*
X9577916Y2982988D01*
X9980083Y3049511D02*
X9768416Y3049511D01*
X9747250Y2716892D01*
X9768416Y2750154D01*
X9810750Y2783416D01*
X9916583Y2783416D01*
X9958916Y2750154D01*
X9980083Y2716892D01*
X10001250Y2650369D01*
X10001250Y2484059D01*
X9980083Y2417535D01*
X9958916Y2384273D01*
X9916583Y2351011D01*
X9810750Y2351011D01*
X9768416Y2384273D01*
X9747250Y2417535D01*
G04 #@! TO.C,C6*
X9577916Y1401535D02*
X9556750Y1368273D01*
X9493250Y1335011D01*
X9450916Y1335011D01*
X9387416Y1368273D01*
X9345083Y1434797D01*
X9323916Y1501321D01*
X9302750Y1634369D01*
X9302750Y1734154D01*
X9323916Y1867202D01*
X9345083Y1933726D01*
X9387416Y2000250D01*
X9450916Y2033511D01*
X9493250Y2033511D01*
X9556750Y2000250D01*
X9577916Y1966988D01*
X9958916Y2033511D02*
X9874250Y2033511D01*
X9831916Y2000250D01*
X9810750Y1966988D01*
X9768416Y1867202D01*
X9747250Y1734154D01*
X9747250Y1468059D01*
X9768416Y1401535D01*
X9789583Y1368273D01*
X9831916Y1335011D01*
X9916583Y1335011D01*
X9958916Y1368273D01*
X9980083Y1401535D01*
X10001250Y1468059D01*
X10001250Y1634369D01*
X9980083Y1700892D01*
X9958916Y1734154D01*
X9916583Y1767416D01*
X9831916Y1767416D01*
X9789583Y1734154D01*
X9768416Y1700892D01*
X9747250Y1634369D01*
G04 #@! TO.C,C7*
X30151916Y2163535D02*
X30130750Y2130273D01*
X30067250Y2097011D01*
X30024916Y2097011D01*
X29961416Y2130273D01*
X29919083Y2196797D01*
X29897916Y2263321D01*
X29876750Y2396369D01*
X29876750Y2496154D01*
X29897916Y2629202D01*
X29919083Y2695726D01*
X29961416Y2762250D01*
X30024916Y2795511D01*
X30067250Y2795511D01*
X30130750Y2762250D01*
X30151916Y2728988D01*
X30300083Y2795511D02*
X30596416Y2795511D01*
X30405916Y2097011D01*
G04 #@! TO.C,C8*
X33987316Y11409135D02*
X33966150Y11375873D01*
X33902650Y11342611D01*
X33860316Y11342611D01*
X33796816Y11375873D01*
X33754483Y11442397D01*
X33733316Y11508921D01*
X33712150Y11641969D01*
X33712150Y11741754D01*
X33733316Y11874802D01*
X33754483Y11941326D01*
X33796816Y12007850D01*
X33860316Y12041111D01*
X33902650Y12041111D01*
X33966150Y12007850D01*
X33987316Y11974588D01*
X34241316Y11741754D02*
X34198983Y11775016D01*
X34177816Y11808278D01*
X34156650Y11874802D01*
X34156650Y11908064D01*
X34177816Y11974588D01*
X34198983Y12007850D01*
X34241316Y12041111D01*
X34325983Y12041111D01*
X34368316Y12007850D01*
X34389483Y11974588D01*
X34410650Y11908064D01*
X34410650Y11874802D01*
X34389483Y11808278D01*
X34368316Y11775016D01*
X34325983Y11741754D01*
X34241316Y11741754D01*
X34198983Y11708492D01*
X34177816Y11675230D01*
X34156650Y11608707D01*
X34156650Y11475659D01*
X34177816Y11409135D01*
X34198983Y11375873D01*
X34241316Y11342611D01*
X34325983Y11342611D01*
X34368316Y11375873D01*
X34389483Y11409135D01*
X34410650Y11475659D01*
X34410650Y11608707D01*
X34389483Y11675230D01*
X34368316Y11708492D01*
X34325983Y11741754D01*
G04 #@! TO.C,C9*
X30151916Y1147535D02*
X30130750Y1114273D01*
X30067250Y1081011D01*
X30024916Y1081011D01*
X29961416Y1114273D01*
X29919083Y1180797D01*
X29897916Y1247321D01*
X29876750Y1380369D01*
X29876750Y1480154D01*
X29897916Y1613202D01*
X29919083Y1679726D01*
X29961416Y1746250D01*
X30024916Y1779511D01*
X30067250Y1779511D01*
X30130750Y1746250D01*
X30151916Y1712988D01*
X30363583Y1081011D02*
X30448250Y1081011D01*
X30490583Y1114273D01*
X30511750Y1147535D01*
X30554083Y1247321D01*
X30575250Y1380369D01*
X30575250Y1646464D01*
X30554083Y1712988D01*
X30532916Y1746250D01*
X30490583Y1779511D01*
X30405916Y1779511D01*
X30363583Y1746250D01*
X30342416Y1712988D01*
X30321250Y1646464D01*
X30321250Y1480154D01*
X30342416Y1413630D01*
X30363583Y1380369D01*
X30405916Y1347107D01*
X30490583Y1347107D01*
X30532916Y1380369D01*
X30554083Y1413630D01*
X30575250Y1480154D01*
G04 #@! TO.C,C10*
X37917664Y4540250D02*
X37950926Y4519083D01*
X37984188Y4455583D01*
X37984188Y4413250D01*
X37950926Y4349750D01*
X37884402Y4307416D01*
X37817878Y4286250D01*
X37684830Y4265083D01*
X37585045Y4265083D01*
X37451997Y4286250D01*
X37385473Y4307416D01*
X37318950Y4349750D01*
X37285688Y4413250D01*
X37285688Y4455583D01*
X37318950Y4519083D01*
X37352211Y4540250D01*
X37984188Y4963583D02*
X37984188Y4709583D01*
X37984188Y4836583D02*
X37285688Y4836583D01*
X37385473Y4794250D01*
X37451997Y4751916D01*
X37485259Y4709583D01*
X37285688Y5238750D02*
X37285688Y5281083D01*
X37318950Y5323416D01*
X37352211Y5344583D01*
X37418735Y5365750D01*
X37551783Y5386916D01*
X37718092Y5386916D01*
X37851140Y5365750D01*
X37917664Y5344583D01*
X37950926Y5323416D01*
X37984188Y5281083D01*
X37984188Y5238750D01*
X37950926Y5196416D01*
X37917664Y5175250D01*
X37851140Y5154083D01*
X37718092Y5132916D01*
X37551783Y5132916D01*
X37418735Y5154083D01*
X37352211Y5175250D01*
X37318950Y5196416D01*
X37285688Y5238750D01*
G04 #@! TO.C,C11*
X38324064Y10102850D02*
X38357326Y10081683D01*
X38390588Y10018183D01*
X38390588Y9975850D01*
X38357326Y9912350D01*
X38290802Y9870016D01*
X38224278Y9848850D01*
X38091230Y9827683D01*
X37991445Y9827683D01*
X37858397Y9848850D01*
X37791873Y9870016D01*
X37725350Y9912350D01*
X37692088Y9975850D01*
X37692088Y10018183D01*
X37725350Y10081683D01*
X37758611Y10102850D01*
X38390588Y10526183D02*
X38390588Y10272183D01*
X38390588Y10399183D02*
X37692088Y10399183D01*
X37791873Y10356850D01*
X37858397Y10314516D01*
X37891659Y10272183D01*
X38390588Y10949516D02*
X38390588Y10695516D01*
X38390588Y10822516D02*
X37692088Y10822516D01*
X37791873Y10780183D01*
X37858397Y10737850D01*
X37891659Y10695516D01*
G04 #@! TO.C,C12*
X38933664Y11550650D02*
X38966926Y11529483D01*
X39000188Y11465983D01*
X39000188Y11423650D01*
X38966926Y11360150D01*
X38900402Y11317816D01*
X38833878Y11296650D01*
X38700830Y11275483D01*
X38601045Y11275483D01*
X38467997Y11296650D01*
X38401473Y11317816D01*
X38334950Y11360150D01*
X38301688Y11423650D01*
X38301688Y11465983D01*
X38334950Y11529483D01*
X38368211Y11550650D01*
X39000188Y11973983D02*
X39000188Y11719983D01*
X39000188Y11846983D02*
X38301688Y11846983D01*
X38401473Y11804650D01*
X38467997Y11762316D01*
X38501259Y11719983D01*
X38368211Y12143316D02*
X38334950Y12164483D01*
X38301688Y12206816D01*
X38301688Y12312650D01*
X38334950Y12354983D01*
X38368211Y12376150D01*
X38434735Y12397316D01*
X38501259Y12397316D01*
X38601045Y12376150D01*
X39000188Y12122150D01*
X39000188Y12397316D01*
G04 #@! TO.C,D1*
X4243916Y4256011D02*
X4243916Y4954511D01*
X4349750Y4954511D01*
X4413250Y4921250D01*
X4455583Y4854726D01*
X4476750Y4788202D01*
X4497916Y4655154D01*
X4497916Y4555369D01*
X4476750Y4422321D01*
X4455583Y4355797D01*
X4413250Y4289273D01*
X4349750Y4256011D01*
X4243916Y4256011D01*
X4921250Y4256011D02*
X4667250Y4256011D01*
X4794250Y4256011D02*
X4794250Y4954511D01*
X4751916Y4854726D01*
X4709583Y4788202D01*
X4667250Y4754940D01*
G04 #@! TO.C,D2*
X11914716Y9132811D02*
X11914716Y9831311D01*
X12020550Y9831311D01*
X12084050Y9798050D01*
X12126383Y9731526D01*
X12147550Y9665002D01*
X12168716Y9531954D01*
X12168716Y9432169D01*
X12147550Y9299121D01*
X12126383Y9232597D01*
X12084050Y9166073D01*
X12020550Y9132811D01*
X11914716Y9132811D01*
X12338050Y9764788D02*
X12359216Y9798050D01*
X12401550Y9831311D01*
X12507383Y9831311D01*
X12549716Y9798050D01*
X12570883Y9764788D01*
X12592050Y9698264D01*
X12592050Y9631740D01*
X12570883Y9531954D01*
X12316883Y9132811D01*
X12592050Y9132811D01*
G04 #@! TO.C,D3*
X10344716Y4918911D02*
X10344716Y5617411D01*
X10450550Y5617411D01*
X10514050Y5584150D01*
X10556383Y5517626D01*
X10577550Y5451102D01*
X10598716Y5318054D01*
X10598716Y5218269D01*
X10577550Y5085221D01*
X10556383Y5018697D01*
X10514050Y4952173D01*
X10450550Y4918911D01*
X10344716Y4918911D01*
X10746883Y5617411D02*
X11022050Y5617411D01*
X10873883Y5351316D01*
X10937383Y5351316D01*
X10979716Y5318054D01*
X11000883Y5284792D01*
X11022050Y5218269D01*
X11022050Y5051959D01*
X11000883Y4985435D01*
X10979716Y4952173D01*
X10937383Y4918911D01*
X10810383Y4918911D01*
X10768050Y4952173D01*
X10746883Y4985435D01*
G04 #@! TO.C,D4*
X27187716Y3643169D02*
X27187716Y4341669D01*
X27293550Y4341669D01*
X27357050Y4308408D01*
X27399383Y4241884D01*
X27420550Y4175360D01*
X27441716Y4042312D01*
X27441716Y3942527D01*
X27420550Y3809479D01*
X27399383Y3742955D01*
X27357050Y3676431D01*
X27293550Y3643169D01*
X27187716Y3643169D01*
X27822716Y4108836D02*
X27822716Y3643169D01*
X27716883Y4374931D02*
X27611050Y3876003D01*
X27886216Y3876003D01*
G04 #@! TO.C,D5*
X28706916Y8644211D02*
X28706916Y9342711D01*
X28812750Y9342711D01*
X28876250Y9309450D01*
X28918583Y9242926D01*
X28939750Y9176402D01*
X28960916Y9043354D01*
X28960916Y8943569D01*
X28939750Y8810521D01*
X28918583Y8743997D01*
X28876250Y8677473D01*
X28812750Y8644211D01*
X28706916Y8644211D01*
X29363083Y9342711D02*
X29151416Y9342711D01*
X29130250Y9010092D01*
X29151416Y9043354D01*
X29193750Y9076616D01*
X29299583Y9076616D01*
X29341916Y9043354D01*
X29363083Y9010092D01*
X29384250Y8943569D01*
X29384250Y8777259D01*
X29363083Y8710735D01*
X29341916Y8677473D01*
X29299583Y8644211D01*
X29193750Y8644211D01*
X29151416Y8677473D01*
X29130250Y8710735D01*
G04 #@! TO.C,D6*
X34165116Y2376411D02*
X34165116Y3074911D01*
X34270950Y3074911D01*
X34334450Y3041650D01*
X34376783Y2975126D01*
X34397950Y2908602D01*
X34419116Y2775554D01*
X34419116Y2675769D01*
X34397950Y2542721D01*
X34376783Y2476197D01*
X34334450Y2409673D01*
X34270950Y2376411D01*
X34165116Y2376411D01*
X34800116Y3074911D02*
X34715450Y3074911D01*
X34673116Y3041650D01*
X34651950Y3008388D01*
X34609616Y2908602D01*
X34588450Y2775554D01*
X34588450Y2509459D01*
X34609616Y2442935D01*
X34630783Y2409673D01*
X34673116Y2376411D01*
X34757783Y2376411D01*
X34800116Y2409673D01*
X34821283Y2442935D01*
X34842450Y2509459D01*
X34842450Y2675769D01*
X34821283Y2742292D01*
X34800116Y2775554D01*
X34757783Y2808816D01*
X34673116Y2808816D01*
X34630783Y2775554D01*
X34609616Y2742292D01*
X34588450Y2675769D01*
G04 #@! TO.C,R1*
X3964516Y14365211D02*
X3816350Y14697830D01*
X3710516Y14365211D02*
X3710516Y15063711D01*
X3879850Y15063711D01*
X3922183Y15030450D01*
X3943350Y14997188D01*
X3964516Y14930664D01*
X3964516Y14830878D01*
X3943350Y14764354D01*
X3922183Y14731092D01*
X3879850Y14697830D01*
X3710516Y14697830D01*
X4387850Y14365211D02*
X4133850Y14365211D01*
X4260850Y14365211D02*
X4260850Y15063711D01*
X4218516Y14963926D01*
X4176183Y14897402D01*
X4133850Y14864140D01*
G04 #@! TO.C,R2*
X1966988Y12168716D02*
X1634369Y12020550D01*
X1966988Y11914716D02*
X1268488Y11914716D01*
X1268488Y12084050D01*
X1301750Y12126383D01*
X1335011Y12147550D01*
X1401535Y12168716D01*
X1501321Y12168716D01*
X1567845Y12147550D01*
X1601107Y12126383D01*
X1634369Y12084050D01*
X1634369Y11914716D01*
X1335011Y12338050D02*
X1301750Y12359216D01*
X1268488Y12401550D01*
X1268488Y12507383D01*
X1301750Y12549716D01*
X1335011Y12570883D01*
X1401535Y12592050D01*
X1468059Y12592050D01*
X1567845Y12570883D01*
X1966988Y12316883D01*
X1966988Y12592050D01*
G04 #@! TO.C,R3*
X1992388Y6428316D02*
X1659769Y6280150D01*
X1992388Y6174316D02*
X1293888Y6174316D01*
X1293888Y6343650D01*
X1327150Y6385983D01*
X1360411Y6407150D01*
X1426935Y6428316D01*
X1526721Y6428316D01*
X1593245Y6407150D01*
X1626507Y6385983D01*
X1659769Y6343650D01*
X1659769Y6174316D01*
X1293888Y6576483D02*
X1293888Y6851650D01*
X1559983Y6703483D01*
X1559983Y6766983D01*
X1593245Y6809316D01*
X1626507Y6830483D01*
X1693030Y6851650D01*
X1859340Y6851650D01*
X1925864Y6830483D01*
X1959126Y6809316D01*
X1992388Y6766983D01*
X1992388Y6639983D01*
X1959126Y6597650D01*
X1925864Y6576483D01*
G04 #@! TO.C,R4*
X5234516Y13298411D02*
X5086350Y13631030D01*
X4980516Y13298411D02*
X4980516Y13996911D01*
X5149850Y13996911D01*
X5192183Y13963650D01*
X5213350Y13930388D01*
X5234516Y13863864D01*
X5234516Y13764078D01*
X5213350Y13697554D01*
X5192183Y13664292D01*
X5149850Y13631030D01*
X4980516Y13631030D01*
X5615516Y13764078D02*
X5615516Y13298411D01*
X5509683Y14030173D02*
X5403850Y13531245D01*
X5679016Y13531245D01*
G04 #@! TO.C,R5*
X5259916Y12180811D02*
X5111750Y12513430D01*
X5005916Y12180811D02*
X5005916Y12879311D01*
X5175250Y12879311D01*
X5217583Y12846050D01*
X5238750Y12812788D01*
X5259916Y12746264D01*
X5259916Y12646478D01*
X5238750Y12579954D01*
X5217583Y12546692D01*
X5175250Y12513430D01*
X5005916Y12513430D01*
X5662083Y12879311D02*
X5450416Y12879311D01*
X5429250Y12546692D01*
X5450416Y12579954D01*
X5492750Y12613216D01*
X5598583Y12613216D01*
X5640916Y12579954D01*
X5662083Y12546692D01*
X5683250Y12480169D01*
X5683250Y12313859D01*
X5662083Y12247335D01*
X5640916Y12214073D01*
X5598583Y12180811D01*
X5492750Y12180811D01*
X5450416Y12214073D01*
X5429250Y12247335D01*
G04 #@! TO.C,R6*
X10822516Y11647411D02*
X10674350Y11980030D01*
X10568516Y11647411D02*
X10568516Y12345911D01*
X10737850Y12345911D01*
X10780183Y12312650D01*
X10801350Y12279388D01*
X10822516Y12212864D01*
X10822516Y12113078D01*
X10801350Y12046554D01*
X10780183Y12013292D01*
X10737850Y11980030D01*
X10568516Y11980030D01*
X11203516Y12345911D02*
X11118850Y12345911D01*
X11076516Y12312650D01*
X11055350Y12279388D01*
X11013016Y12179602D01*
X10991850Y12046554D01*
X10991850Y11780459D01*
X11013016Y11713935D01*
X11034183Y11680673D01*
X11076516Y11647411D01*
X11161183Y11647411D01*
X11203516Y11680673D01*
X11224683Y11713935D01*
X11245850Y11780459D01*
X11245850Y11946769D01*
X11224683Y12013292D01*
X11203516Y12046554D01*
X11161183Y12079816D01*
X11076516Y12079816D01*
X11034183Y12046554D01*
X11013016Y12013292D01*
X10991850Y11946769D01*
G04 #@! TO.C,R7*
X12249716Y7435469D02*
X12101550Y7768088D01*
X11995716Y7435469D02*
X11995716Y8133969D01*
X12165050Y8133969D01*
X12207383Y8100708D01*
X12228550Y8067446D01*
X12249716Y8000922D01*
X12249716Y7901136D01*
X12228550Y7834612D01*
X12207383Y7801350D01*
X12165050Y7768088D01*
X11995716Y7768088D01*
X12397883Y8133969D02*
X12694216Y8133969D01*
X12503716Y7435469D01*
G04 #@! TO.C,R8*
X27517916Y6910069D02*
X27369750Y7242688D01*
X27263916Y6910069D02*
X27263916Y7608569D01*
X27433250Y7608569D01*
X27475583Y7575308D01*
X27496750Y7542046D01*
X27517916Y7475522D01*
X27517916Y7375736D01*
X27496750Y7309212D01*
X27475583Y7275950D01*
X27433250Y7242688D01*
X27263916Y7242688D01*
X27771916Y7309212D02*
X27729583Y7342474D01*
X27708416Y7375736D01*
X27687250Y7442260D01*
X27687250Y7475522D01*
X27708416Y7542046D01*
X27729583Y7575308D01*
X27771916Y7608569D01*
X27856583Y7608569D01*
X27898916Y7575308D01*
X27920083Y7542046D01*
X27941250Y7475522D01*
X27941250Y7442260D01*
X27920083Y7375736D01*
X27898916Y7342474D01*
X27856583Y7309212D01*
X27771916Y7309212D01*
X27729583Y7275950D01*
X27708416Y7242688D01*
X27687250Y7176165D01*
X27687250Y7043117D01*
X27708416Y6976593D01*
X27729583Y6943331D01*
X27771916Y6910069D01*
X27856583Y6910069D01*
X27898916Y6943331D01*
X27920083Y6976593D01*
X27941250Y7043117D01*
X27941250Y7176165D01*
X27920083Y7242688D01*
X27898916Y7275950D01*
X27856583Y7309212D01*
G04 #@! TO.C,R9*
X28008416Y11900011D02*
X27860250Y12232630D01*
X27754416Y11900011D02*
X27754416Y12598511D01*
X27923750Y12598511D01*
X27966083Y12565250D01*
X27987250Y12531988D01*
X28008416Y12465464D01*
X28008416Y12365678D01*
X27987250Y12299154D01*
X27966083Y12265892D01*
X27923750Y12232630D01*
X27754416Y12232630D01*
X28220083Y11900011D02*
X28304750Y11900011D01*
X28347083Y11933273D01*
X28368250Y11966535D01*
X28410583Y12066321D01*
X28431750Y12199369D01*
X28431750Y12465464D01*
X28410583Y12531988D01*
X28389416Y12565250D01*
X28347083Y12598511D01*
X28262416Y12598511D01*
X28220083Y12565250D01*
X28198916Y12531988D01*
X28177750Y12465464D01*
X28177750Y12299154D01*
X28198916Y12232630D01*
X28220083Y12199369D01*
X28262416Y12166107D01*
X28347083Y12166107D01*
X28389416Y12199369D01*
X28410583Y12232630D01*
X28431750Y12299154D01*
G04 #@! TO.C,R10*
X33775650Y12434811D02*
X33627483Y12767430D01*
X33521650Y12434811D02*
X33521650Y13133311D01*
X33690983Y13133311D01*
X33733316Y13100050D01*
X33754483Y13066788D01*
X33775650Y13000264D01*
X33775650Y12900478D01*
X33754483Y12833954D01*
X33733316Y12800692D01*
X33690983Y12767430D01*
X33521650Y12767430D01*
X34198983Y12434811D02*
X33944983Y12434811D01*
X34071983Y12434811D02*
X34071983Y13133311D01*
X34029650Y13033526D01*
X33987316Y12967002D01*
X33944983Y12933740D01*
X34474150Y13133311D02*
X34516483Y13133311D01*
X34558816Y13100050D01*
X34579983Y13066788D01*
X34601150Y13000264D01*
X34622316Y12867216D01*
X34622316Y12700907D01*
X34601150Y12567859D01*
X34579983Y12501335D01*
X34558816Y12468073D01*
X34516483Y12434811D01*
X34474150Y12434811D01*
X34431816Y12468073D01*
X34410650Y12501335D01*
X34389483Y12567859D01*
X34368316Y12700907D01*
X34368316Y12867216D01*
X34389483Y13000264D01*
X34410650Y13066788D01*
X34431816Y13100050D01*
X34474150Y13133311D01*
G04 #@! TO.C,R11*
X29525988Y12211050D02*
X29193369Y12062883D01*
X29525988Y11957050D02*
X28827488Y11957050D01*
X28827488Y12126383D01*
X28860750Y12168716D01*
X28894011Y12189883D01*
X28960535Y12211050D01*
X29060321Y12211050D01*
X29126845Y12189883D01*
X29160107Y12168716D01*
X29193369Y12126383D01*
X29193369Y11957050D01*
X29525988Y12634383D02*
X29525988Y12380383D01*
X29525988Y12507383D02*
X28827488Y12507383D01*
X28927273Y12465050D01*
X28993797Y12422716D01*
X29027059Y12380383D01*
X29525988Y13057716D02*
X29525988Y12803716D01*
X29525988Y12930716D02*
X28827488Y12930716D01*
X28927273Y12888383D01*
X28993797Y12846050D01*
X29027059Y12803716D01*
G04 #@! TO.C,R12*
X39355788Y10153650D02*
X39023169Y10005483D01*
X39355788Y9899650D02*
X38657288Y9899650D01*
X38657288Y10068983D01*
X38690550Y10111316D01*
X38723811Y10132483D01*
X38790335Y10153650D01*
X38890121Y10153650D01*
X38956645Y10132483D01*
X38989907Y10111316D01*
X39023169Y10068983D01*
X39023169Y9899650D01*
X39355788Y10576983D02*
X39355788Y10322983D01*
X39355788Y10449983D02*
X38657288Y10449983D01*
X38757073Y10407650D01*
X38823597Y10365316D01*
X38856859Y10322983D01*
X38723811Y10746316D02*
X38690550Y10767483D01*
X38657288Y10809816D01*
X38657288Y10915650D01*
X38690550Y10957983D01*
X38723811Y10979150D01*
X38790335Y11000316D01*
X38856859Y11000316D01*
X38956645Y10979150D01*
X39355788Y10725150D01*
X39355788Y11000316D01*
G04 #@! TO.C,R13*
X39787588Y4616450D02*
X39454969Y4468283D01*
X39787588Y4362450D02*
X39089088Y4362450D01*
X39089088Y4531783D01*
X39122350Y4574116D01*
X39155611Y4595283D01*
X39222135Y4616450D01*
X39321921Y4616450D01*
X39388445Y4595283D01*
X39421707Y4574116D01*
X39454969Y4531783D01*
X39454969Y4362450D01*
X39787588Y5039783D02*
X39787588Y4785783D01*
X39787588Y4912783D02*
X39089088Y4912783D01*
X39188873Y4870450D01*
X39255397Y4828116D01*
X39288659Y4785783D01*
X39089088Y5187950D02*
X39089088Y5463116D01*
X39355183Y5314950D01*
X39355183Y5378450D01*
X39388445Y5420783D01*
X39421707Y5441950D01*
X39488230Y5463116D01*
X39654540Y5463116D01*
X39721064Y5441950D01*
X39754326Y5420783D01*
X39787588Y5378450D01*
X39787588Y5251450D01*
X39754326Y5209116D01*
X39721064Y5187950D01*
G04 #@! TO.C,R14*
X35774388Y12211050D02*
X35441769Y12062883D01*
X35774388Y11957050D02*
X35075888Y11957050D01*
X35075888Y12126383D01*
X35109150Y12168716D01*
X35142411Y12189883D01*
X35208935Y12211050D01*
X35308721Y12211050D01*
X35375245Y12189883D01*
X35408507Y12168716D01*
X35441769Y12126383D01*
X35441769Y11957050D01*
X35774388Y12634383D02*
X35774388Y12380383D01*
X35774388Y12507383D02*
X35075888Y12507383D01*
X35175673Y12465050D01*
X35242197Y12422716D01*
X35275459Y12380383D01*
X35308721Y13015383D02*
X35774388Y13015383D01*
X35042626Y12909550D02*
X35541554Y12803716D01*
X35541554Y13078883D01*
G04 #@! TD*
M02*
