G04 #@! TF.GenerationSoftware,KiCad,Pcbnew,(5.0.0)*
G04 #@! TF.CreationDate,2021-01-14T10:17:43-08:00*
G04 #@! TF.ProjectId,Buffer - Rev D,427566666572202D2052657620442E6B,rev?*
G04 #@! TF.SameCoordinates,Original*
G04 #@! TF.FileFunction,Copper,L3,Inr,Signal*
G04 #@! TF.FilePolarity,Positive*
%FSLAX46Y46*%
G04 Gerber Fmt 4.6, Leading zero omitted, Abs format (unit mm)*
G04 Created by KiCad (PCBNEW (5.0.0)) date 01/14/21 10:17:43*
%MOMM*%
%LPD*%
G01*
G04 APERTURE LIST*
G04 #@! TA.AperFunction,ViaPad*
%ADD10C,1.270000*%
G04 #@! TD*
G04 #@! TA.AperFunction,ViaPad*
%ADD11C,0.635000*%
G04 #@! TD*
G04 #@! TA.AperFunction,ViaPad*
%ADD12C,0.889000*%
G04 #@! TD*
G04 #@! TA.AperFunction,Conductor*
%ADD13C,0.330200*%
G04 #@! TD*
G04 #@! TA.AperFunction,Conductor*
%ADD14C,0.635000*%
G04 #@! TD*
G04 #@! TA.AperFunction,Conductor*
%ADD15C,1.270000*%
G04 #@! TD*
G04 #@! TA.AperFunction,Conductor*
%ADD16C,0.254000*%
G04 #@! TD*
G04 APERTURE END LIST*
D10*
G04 #@! TO.N,/Vc2Neg*
G04 #@! TO.C,TP2*
X21096200Y12300000D03*
G04 #@! TD*
G04 #@! TO.N,/Vc2Neg*
G04 #@! TO.C,TP2*
X19750000Y12300000D03*
G04 #@! TD*
G04 #@! TO.N,/Vc2Neg*
G04 #@! TO.C,TP1*
X9906000Y15494000D03*
G04 #@! TD*
G04 #@! TO.N,/Vc2Neg*
G04 #@! TO.C,TP2*
X18415000Y12334900D03*
G04 #@! TD*
G04 #@! TO.N,/Vc2Neg*
G04 #@! TO.C,TP2*
X18415000Y13604900D03*
G04 #@! TD*
G04 #@! TO.N,/Vc2Neg*
G04 #@! TO.C,TP2*
X22415500Y12334900D03*
G04 #@! TD*
G04 #@! TO.N,/Vc2Neg*
G04 #@! TO.C,TP2*
X21082000Y13604900D03*
G04 #@! TD*
G04 #@! TO.N,/Vc2Neg*
G04 #@! TO.C,TP2*
X22415500Y13604900D03*
G04 #@! TD*
G04 #@! TO.N,/Vc2Neg*
G04 #@! TO.C,TP2*
X19748500Y13604900D03*
G04 #@! TD*
G04 #@! TO.N,/Vc2Pos*
G04 #@! TO.C,TP2*
X21082000Y1397000D03*
G04 #@! TD*
G04 #@! TO.N,/Vc2Pos*
G04 #@! TO.C,TP2*
X22415500Y1397000D03*
G04 #@! TD*
G04 #@! TO.N,/LfNeg*
G04 #@! TO.C,TP2*
X8064500Y1397000D03*
G04 #@! TD*
G04 #@! TO.N,/CfNeg*
G04 #@! TO.C,TP2*
X37528500Y1320800D03*
G04 #@! TD*
G04 #@! TO.N,/CfNeg*
G04 #@! TO.C,TP2*
X36195000Y1397000D03*
G04 #@! TD*
G04 #@! TO.N,/CfNeg*
G04 #@! TO.C,TP2*
X33528000Y2667000D03*
G04 #@! TD*
G04 #@! TO.N,/CfNeg*
G04 #@! TO.C,TP2*
X33528000Y1397000D03*
G04 #@! TD*
G04 #@! TO.N,/CfNeg*
G04 #@! TO.C,TP2*
X36195000Y2667000D03*
G04 #@! TD*
G04 #@! TO.N,/CfNeg*
G04 #@! TO.C,TP2*
X34861500Y2667000D03*
G04 #@! TD*
G04 #@! TO.N,/CfNeg*
G04 #@! TO.C,TP2*
X34861500Y1397000D03*
G04 #@! TD*
G04 #@! TO.N,/CfNeg*
G04 #@! TO.C,TP2*
X37528500Y2667000D03*
G04 #@! TD*
G04 #@! TO.N,/PWM2*
G04 #@! TO.C,TP11*
X40894000Y7366000D03*
G04 #@! TD*
G04 #@! TO.N,/Vc2Pos*
G04 #@! TO.C,TP2*
X19748500Y1397000D03*
G04 #@! TD*
G04 #@! TO.N,/Vc2Pos*
G04 #@! TO.C,TP2*
X18415000Y1397000D03*
G04 #@! TD*
G04 #@! TO.N,/Vc2Pos*
G04 #@! TO.C,TP2*
X22415500Y2667000D03*
G04 #@! TD*
G04 #@! TO.N,/Vc2Pos*
G04 #@! TO.C,TP2*
X21082000Y2667000D03*
G04 #@! TD*
G04 #@! TO.N,/Vc2Pos*
G04 #@! TO.C,TP2*
X19748500Y2667000D03*
G04 #@! TD*
G04 #@! TO.N,/Vc2Pos*
G04 #@! TO.C,TP2*
X18415000Y2667000D03*
G04 #@! TD*
G04 #@! TO.N,/LfNeg*
G04 #@! TO.C,TP2*
X6731000Y2667000D03*
G04 #@! TD*
G04 #@! TO.N,/LfNeg*
G04 #@! TO.C,TP2*
X5397500Y2667000D03*
G04 #@! TD*
G04 #@! TO.N,/LfNeg*
G04 #@! TO.C,TP2*
X8064500Y2667000D03*
G04 #@! TD*
G04 #@! TO.N,/LfNeg*
G04 #@! TO.C,TP2*
X6731000Y1397000D03*
G04 #@! TD*
G04 #@! TO.N,/LfNeg*
G04 #@! TO.C,TP2*
X5397500Y1397000D03*
G04 #@! TD*
G04 #@! TO.N,/LfNeg*
G04 #@! TO.C,TP2*
X4064000Y2667000D03*
G04 #@! TD*
G04 #@! TO.N,/LfNeg*
G04 #@! TO.C,TP2*
X4064000Y1397000D03*
G04 #@! TD*
G04 #@! TO.N,/5.5V_Iso*
G04 #@! TO.C,TP15*
X6350000Y15494000D03*
G04 #@! TD*
G04 #@! TO.N,/5V*
G04 #@! TO.C,TP17*
X0Y14097000D03*
G04 #@! TD*
G04 #@! TO.N,/GNDI*
G04 #@! TO.C,TP5*
X40894000Y3175000D03*
G04 #@! TD*
G04 #@! TO.N,/EnableL2*
G04 #@! TO.C,TP9*
X40894000Y5207000D03*
G04 #@! TD*
G04 #@! TO.N,/EnableL1*
G04 #@! TO.C,TP6*
X0Y7731000D03*
G04 #@! TD*
G04 #@! TO.N,/5V*
G04 #@! TO.C,TP4*
X40894000Y1143000D03*
G04 #@! TD*
G04 #@! TO.N,/GNDI*
G04 #@! TO.C,TP3*
X0Y12065000D03*
G04 #@! TD*
G04 #@! TO.N,/PWMA1*
G04 #@! TO.C,TP2*
X0Y10033000D03*
G04 #@! TD*
D11*
G04 #@! TO.N,/GNDI*
X38912800Y11531600D03*
X3276600Y8500000D03*
X2600000Y8813800D03*
X38921000Y9956800D03*
D12*
X38328600Y4216400D03*
D11*
X1651000Y12192000D03*
X2794000Y11684000D03*
X2032000Y11684000D03*
X2413000Y12192000D03*
X5948920Y9017000D03*
G04 #@! TO.N,/VDDB1*
X9880600Y1752600D03*
X9855200Y787400D03*
X8483600Y7874000D03*
D12*
G04 #@! TO.N,/CfNeg*
X23266400Y7874000D03*
X26162000Y7874000D03*
X25196800Y7874000D03*
X24231600Y7874000D03*
X22301200Y7874000D03*
D11*
X28384500Y3873500D03*
X27724100Y3708400D03*
X32385000Y8128000D03*
X27673300Y3009900D03*
D12*
G04 #@! TO.N,/5V*
X39547800Y1193800D03*
D11*
X2768600Y14122400D03*
X3454400Y6578600D03*
X37795200Y11506200D03*
D12*
G04 #@! TO.N,/5.5V_Iso*
X32816800Y14744700D03*
D11*
X8432800Y10464800D03*
X8138160Y13975080D03*
X7818120Y14523720D03*
X7487920Y13975080D03*
D12*
X29500000Y14750000D03*
D11*
X32512000Y9525000D03*
D12*
G04 #@! TO.N,/LfNeg*
X16319500Y7823200D03*
X14389100Y7823200D03*
X18249900Y7823200D03*
X17284700Y7823200D03*
X15354300Y7823200D03*
D11*
X13855700Y2984500D03*
X14478000Y2768600D03*
X13944600Y2311400D03*
X8407402Y6197600D03*
G04 #@! TO.N,/Vc2Neg*
X12499915Y13906500D03*
X13157200Y13919200D03*
X13817600Y13919200D03*
X30693185Y11791941D03*
X31496000Y11791941D03*
X27114500Y13208000D03*
X27432000Y12573000D03*
X26479500Y12954000D03*
X8382000Y9398000D03*
X13614400Y9258300D03*
X12954000Y9283700D03*
X11849100Y13919200D03*
X11201400Y13919200D03*
X9740900Y12077700D03*
X10261600Y11582400D03*
G04 #@! TO.N,/Enable1*
X1270000Y6477000D03*
X5841997Y7747003D03*
G04 #@! TO.N,/Enable2*
X38481000Y5588000D03*
X34798000Y9144000D03*
G04 #@! TD*
D13*
G04 #@! TO.N,/5V*
X2768600Y14122400D02*
X3352800Y14122400D01*
X3352800Y14122400D02*
X4267200Y13208000D01*
X4267200Y13208000D02*
X4267200Y7391400D01*
X4267200Y7391400D02*
X3454400Y6578600D01*
X39547800Y1193800D02*
X39547800Y1822417D01*
X39547800Y1822417D02*
X39547800Y7924800D01*
X39547800Y7924800D02*
X37719000Y9753600D01*
X37719000Y9753600D02*
X37719000Y11506200D01*
X37719000Y11506200D02*
X37719000Y11506200D01*
D14*
G04 #@! TO.N,/5.5V_Iso*
X6343301Y14795500D02*
X6471891Y14924090D01*
D15*
X6981510Y13975080D02*
X6350000Y14606590D01*
X7487920Y13975080D02*
X6981510Y13975080D01*
D13*
G04 #@! TO.N,/LfNeg*
X14338300Y7874000D02*
X14389100Y7823200D01*
G04 #@! TO.N,/Enable2*
X34925000Y9144000D02*
X34798000Y9144000D01*
X38481000Y5588000D02*
X34925000Y9144000D01*
G04 #@! TD*
D16*
G04 #@! TO.N,/5.5V_Iso*
G36*
X9044676Y14918482D02*
X9330482Y14632676D01*
X9703905Y14478000D01*
X10108095Y14478000D01*
X10481518Y14632676D01*
X10767324Y14918482D01*
X10806474Y15013000D01*
X33137007Y15013000D01*
X33369789Y14917091D01*
X33870785Y14535152D01*
X34256477Y14037046D01*
X34500838Y13456390D01*
X34588516Y12824110D01*
X34600965Y11168510D01*
X34545248Y10877436D01*
X34389258Y10640601D01*
X34154418Y10481631D01*
X33864072Y10422238D01*
X33656295Y10421172D01*
X33623552Y10416705D01*
X33304827Y10329842D01*
X33248188Y10296883D01*
X33015195Y10062692D01*
X32982527Y10005885D01*
X32897327Y9686824D01*
X32820799Y9401218D01*
X32635782Y9216201D01*
X32366325Y9144000D01*
X29417221Y9144000D01*
X29243991Y9190417D01*
X29129417Y9304991D01*
X29078673Y9494370D01*
X29078667Y9494392D01*
X29019100Y9716542D01*
X28986188Y9773501D01*
X28823468Y9936047D01*
X28766474Y9968898D01*
X28544261Y10028229D01*
X28511365Y10032527D01*
X8726252Y10011456D01*
X8520940Y10096500D01*
X8243060Y10096500D01*
X8035973Y10010721D01*
X7855595Y10010529D01*
X7266675Y10076295D01*
X6713960Y10269179D01*
X6218073Y10580292D01*
X5803908Y10994017D01*
X5492268Y11489571D01*
X5298792Y12042086D01*
X5279112Y12216640D01*
X9042400Y12216640D01*
X9042400Y11938760D01*
X9148741Y11682032D01*
X9345232Y11485541D01*
X9587182Y11385321D01*
X9669441Y11186732D01*
X9865932Y10990241D01*
X10122660Y10883900D01*
X10400540Y10883900D01*
X10657268Y10990241D01*
X10853759Y11186732D01*
X10960100Y11443460D01*
X10960100Y11721340D01*
X10853759Y11978068D01*
X10657268Y12174559D01*
X10415318Y12274779D01*
X10333059Y12473368D01*
X10136568Y12669859D01*
X9879840Y12776200D01*
X9601960Y12776200D01*
X9345232Y12669859D01*
X9148741Y12473368D01*
X9042400Y12216640D01*
X5279112Y12216640D01*
X5233204Y12623805D01*
X5298777Y13205780D01*
X5492208Y13758577D01*
X5680436Y14058140D01*
X10502900Y14058140D01*
X10502900Y13780260D01*
X10609241Y13523532D01*
X10805732Y13327041D01*
X11062460Y13220700D01*
X11340340Y13220700D01*
X11525250Y13297293D01*
X11710160Y13220700D01*
X11988040Y13220700D01*
X12159177Y13291588D01*
X12360975Y13208000D01*
X12638855Y13208000D01*
X12843888Y13292928D01*
X13018260Y13220700D01*
X13296140Y13220700D01*
X13487400Y13299923D01*
X13678660Y13220700D01*
X13956540Y13220700D01*
X14213268Y13327041D01*
X14409759Y13523532D01*
X14516100Y13780260D01*
X14516100Y13806995D01*
X17399000Y13806995D01*
X17399000Y13402805D01*
X17553676Y13029382D01*
X17613158Y12969900D01*
X17553676Y12910418D01*
X17399000Y12536995D01*
X17399000Y12132805D01*
X17553676Y11759382D01*
X17839482Y11473576D01*
X18212905Y11318900D01*
X18617095Y11318900D01*
X18990518Y11473576D01*
X19065050Y11548108D01*
X19174482Y11438676D01*
X19547905Y11284000D01*
X19952095Y11284000D01*
X20325518Y11438676D01*
X20423100Y11536258D01*
X20520682Y11438676D01*
X20894105Y11284000D01*
X21298295Y11284000D01*
X21671718Y11438676D01*
X21773300Y11540258D01*
X21839982Y11473576D01*
X22213405Y11318900D01*
X22617595Y11318900D01*
X22991018Y11473576D01*
X23276824Y11759382D01*
X23431500Y12132805D01*
X23431500Y12536995D01*
X23276824Y12910418D01*
X23217342Y12969900D01*
X23276824Y13029382D01*
X23303150Y13092940D01*
X25781000Y13092940D01*
X25781000Y12815060D01*
X25887341Y12558332D01*
X26083832Y12361841D01*
X26340560Y12255500D01*
X26618440Y12255500D01*
X26779780Y12322330D01*
X26839841Y12177332D01*
X27036332Y11980841D01*
X27293060Y11874500D01*
X27570940Y11874500D01*
X27707054Y11930881D01*
X29994685Y11930881D01*
X29994685Y11653001D01*
X30101026Y11396273D01*
X30297517Y11199782D01*
X30554245Y11093441D01*
X30832125Y11093441D01*
X31088853Y11199782D01*
X31094593Y11205522D01*
X31100332Y11199782D01*
X31357060Y11093441D01*
X31634940Y11093441D01*
X31891668Y11199782D01*
X32088159Y11396273D01*
X32194500Y11653001D01*
X32194500Y11930881D01*
X32088159Y12187609D01*
X31891668Y12384100D01*
X31634940Y12490441D01*
X31357060Y12490441D01*
X31100332Y12384100D01*
X31094593Y12378361D01*
X31088853Y12384100D01*
X30832125Y12490441D01*
X30554245Y12490441D01*
X30297517Y12384100D01*
X30101026Y12187609D01*
X29994685Y11930881D01*
X27707054Y11930881D01*
X27827668Y11980841D01*
X28024159Y12177332D01*
X28130500Y12434060D01*
X28130500Y12711940D01*
X28024159Y12968668D01*
X27827668Y13165159D01*
X27813000Y13171235D01*
X27813000Y13346940D01*
X27706659Y13603668D01*
X27510168Y13800159D01*
X27253440Y13906500D01*
X26975560Y13906500D01*
X26718832Y13800159D01*
X26571173Y13652500D01*
X26340560Y13652500D01*
X26083832Y13546159D01*
X25887341Y13349668D01*
X25781000Y13092940D01*
X23303150Y13092940D01*
X23431500Y13402805D01*
X23431500Y13806995D01*
X23276824Y14180418D01*
X22991018Y14466224D01*
X22617595Y14620900D01*
X22213405Y14620900D01*
X21839982Y14466224D01*
X21748750Y14374992D01*
X21657518Y14466224D01*
X21284095Y14620900D01*
X20879905Y14620900D01*
X20506482Y14466224D01*
X20415250Y14374992D01*
X20324018Y14466224D01*
X19950595Y14620900D01*
X19546405Y14620900D01*
X19172982Y14466224D01*
X19081750Y14374992D01*
X18990518Y14466224D01*
X18617095Y14620900D01*
X18212905Y14620900D01*
X17839482Y14466224D01*
X17553676Y14180418D01*
X17399000Y13806995D01*
X14516100Y13806995D01*
X14516100Y14058140D01*
X14409759Y14314868D01*
X14213268Y14511359D01*
X13956540Y14617700D01*
X13678660Y14617700D01*
X13487400Y14538477D01*
X13296140Y14617700D01*
X13018260Y14617700D01*
X12813227Y14532772D01*
X12638855Y14605000D01*
X12360975Y14605000D01*
X12189838Y14534112D01*
X11988040Y14617700D01*
X11710160Y14617700D01*
X11525250Y14541107D01*
X11340340Y14617700D01*
X11062460Y14617700D01*
X10805732Y14511359D01*
X10609241Y14314868D01*
X10502900Y14058140D01*
X5680436Y14058140D01*
X5803799Y14254470D01*
X6217930Y14668601D01*
X6713823Y14980192D01*
X6807583Y15013000D01*
X9005526Y15013000D01*
X9044676Y14918482D01*
X9044676Y14918482D01*
G37*
X9044676Y14918482D02*
X9330482Y14632676D01*
X9703905Y14478000D01*
X10108095Y14478000D01*
X10481518Y14632676D01*
X10767324Y14918482D01*
X10806474Y15013000D01*
X33137007Y15013000D01*
X33369789Y14917091D01*
X33870785Y14535152D01*
X34256477Y14037046D01*
X34500838Y13456390D01*
X34588516Y12824110D01*
X34600965Y11168510D01*
X34545248Y10877436D01*
X34389258Y10640601D01*
X34154418Y10481631D01*
X33864072Y10422238D01*
X33656295Y10421172D01*
X33623552Y10416705D01*
X33304827Y10329842D01*
X33248188Y10296883D01*
X33015195Y10062692D01*
X32982527Y10005885D01*
X32897327Y9686824D01*
X32820799Y9401218D01*
X32635782Y9216201D01*
X32366325Y9144000D01*
X29417221Y9144000D01*
X29243991Y9190417D01*
X29129417Y9304991D01*
X29078673Y9494370D01*
X29078667Y9494392D01*
X29019100Y9716542D01*
X28986188Y9773501D01*
X28823468Y9936047D01*
X28766474Y9968898D01*
X28544261Y10028229D01*
X28511365Y10032527D01*
X8726252Y10011456D01*
X8520940Y10096500D01*
X8243060Y10096500D01*
X8035973Y10010721D01*
X7855595Y10010529D01*
X7266675Y10076295D01*
X6713960Y10269179D01*
X6218073Y10580292D01*
X5803908Y10994017D01*
X5492268Y11489571D01*
X5298792Y12042086D01*
X5279112Y12216640D01*
X9042400Y12216640D01*
X9042400Y11938760D01*
X9148741Y11682032D01*
X9345232Y11485541D01*
X9587182Y11385321D01*
X9669441Y11186732D01*
X9865932Y10990241D01*
X10122660Y10883900D01*
X10400540Y10883900D01*
X10657268Y10990241D01*
X10853759Y11186732D01*
X10960100Y11443460D01*
X10960100Y11721340D01*
X10853759Y11978068D01*
X10657268Y12174559D01*
X10415318Y12274779D01*
X10333059Y12473368D01*
X10136568Y12669859D01*
X9879840Y12776200D01*
X9601960Y12776200D01*
X9345232Y12669859D01*
X9148741Y12473368D01*
X9042400Y12216640D01*
X5279112Y12216640D01*
X5233204Y12623805D01*
X5298777Y13205780D01*
X5492208Y13758577D01*
X5680436Y14058140D01*
X10502900Y14058140D01*
X10502900Y13780260D01*
X10609241Y13523532D01*
X10805732Y13327041D01*
X11062460Y13220700D01*
X11340340Y13220700D01*
X11525250Y13297293D01*
X11710160Y13220700D01*
X11988040Y13220700D01*
X12159177Y13291588D01*
X12360975Y13208000D01*
X12638855Y13208000D01*
X12843888Y13292928D01*
X13018260Y13220700D01*
X13296140Y13220700D01*
X13487400Y13299923D01*
X13678660Y13220700D01*
X13956540Y13220700D01*
X14213268Y13327041D01*
X14409759Y13523532D01*
X14516100Y13780260D01*
X14516100Y13806995D01*
X17399000Y13806995D01*
X17399000Y13402805D01*
X17553676Y13029382D01*
X17613158Y12969900D01*
X17553676Y12910418D01*
X17399000Y12536995D01*
X17399000Y12132805D01*
X17553676Y11759382D01*
X17839482Y11473576D01*
X18212905Y11318900D01*
X18617095Y11318900D01*
X18990518Y11473576D01*
X19065050Y11548108D01*
X19174482Y11438676D01*
X19547905Y11284000D01*
X19952095Y11284000D01*
X20325518Y11438676D01*
X20423100Y11536258D01*
X20520682Y11438676D01*
X20894105Y11284000D01*
X21298295Y11284000D01*
X21671718Y11438676D01*
X21773300Y11540258D01*
X21839982Y11473576D01*
X22213405Y11318900D01*
X22617595Y11318900D01*
X22991018Y11473576D01*
X23276824Y11759382D01*
X23431500Y12132805D01*
X23431500Y12536995D01*
X23276824Y12910418D01*
X23217342Y12969900D01*
X23276824Y13029382D01*
X23303150Y13092940D01*
X25781000Y13092940D01*
X25781000Y12815060D01*
X25887341Y12558332D01*
X26083832Y12361841D01*
X26340560Y12255500D01*
X26618440Y12255500D01*
X26779780Y12322330D01*
X26839841Y12177332D01*
X27036332Y11980841D01*
X27293060Y11874500D01*
X27570940Y11874500D01*
X27707054Y11930881D01*
X29994685Y11930881D01*
X29994685Y11653001D01*
X30101026Y11396273D01*
X30297517Y11199782D01*
X30554245Y11093441D01*
X30832125Y11093441D01*
X31088853Y11199782D01*
X31094593Y11205522D01*
X31100332Y11199782D01*
X31357060Y11093441D01*
X31634940Y11093441D01*
X31891668Y11199782D01*
X32088159Y11396273D01*
X32194500Y11653001D01*
X32194500Y11930881D01*
X32088159Y12187609D01*
X31891668Y12384100D01*
X31634940Y12490441D01*
X31357060Y12490441D01*
X31100332Y12384100D01*
X31094593Y12378361D01*
X31088853Y12384100D01*
X30832125Y12490441D01*
X30554245Y12490441D01*
X30297517Y12384100D01*
X30101026Y12187609D01*
X29994685Y11930881D01*
X27707054Y11930881D01*
X27827668Y11980841D01*
X28024159Y12177332D01*
X28130500Y12434060D01*
X28130500Y12711940D01*
X28024159Y12968668D01*
X27827668Y13165159D01*
X27813000Y13171235D01*
X27813000Y13346940D01*
X27706659Y13603668D01*
X27510168Y13800159D01*
X27253440Y13906500D01*
X26975560Y13906500D01*
X26718832Y13800159D01*
X26571173Y13652500D01*
X26340560Y13652500D01*
X26083832Y13546159D01*
X25887341Y13349668D01*
X25781000Y13092940D01*
X23303150Y13092940D01*
X23431500Y13402805D01*
X23431500Y13806995D01*
X23276824Y14180418D01*
X22991018Y14466224D01*
X22617595Y14620900D01*
X22213405Y14620900D01*
X21839982Y14466224D01*
X21748750Y14374992D01*
X21657518Y14466224D01*
X21284095Y14620900D01*
X20879905Y14620900D01*
X20506482Y14466224D01*
X20415250Y14374992D01*
X20324018Y14466224D01*
X19950595Y14620900D01*
X19546405Y14620900D01*
X19172982Y14466224D01*
X19081750Y14374992D01*
X18990518Y14466224D01*
X18617095Y14620900D01*
X18212905Y14620900D01*
X17839482Y14466224D01*
X17553676Y14180418D01*
X17399000Y13806995D01*
X14516100Y13806995D01*
X14516100Y14058140D01*
X14409759Y14314868D01*
X14213268Y14511359D01*
X13956540Y14617700D01*
X13678660Y14617700D01*
X13487400Y14538477D01*
X13296140Y14617700D01*
X13018260Y14617700D01*
X12813227Y14532772D01*
X12638855Y14605000D01*
X12360975Y14605000D01*
X12189838Y14534112D01*
X11988040Y14617700D01*
X11710160Y14617700D01*
X11525250Y14541107D01*
X11340340Y14617700D01*
X11062460Y14617700D01*
X10805732Y14511359D01*
X10609241Y14314868D01*
X10502900Y14058140D01*
X5680436Y14058140D01*
X5803799Y14254470D01*
X6217930Y14668601D01*
X6713823Y14980192D01*
X6807583Y15013000D01*
X9005526Y15013000D01*
X9044676Y14918482D01*
G04 #@! TO.N,/LfNeg*
G36*
X14782800Y1828087D02*
X10655300Y1804833D01*
X10655300Y1906697D01*
X10537359Y2191432D01*
X10531773Y2197018D01*
X10540997Y3580553D01*
X10531654Y3629218D01*
X10504399Y3670602D01*
X10463382Y3698406D01*
X10414000Y3708400D01*
X7670800Y3708400D01*
X7670800Y6858000D01*
X11912600Y6858000D01*
X11961201Y6867667D01*
X12010893Y6904579D01*
X13002117Y8116075D01*
X14782800Y8139051D01*
X14782800Y1828087D01*
X14782800Y1828087D01*
G37*
X14782800Y1828087D02*
X10655300Y1804833D01*
X10655300Y1906697D01*
X10537359Y2191432D01*
X10531773Y2197018D01*
X10540997Y3580553D01*
X10531654Y3629218D01*
X10504399Y3670602D01*
X10463382Y3698406D01*
X10414000Y3708400D01*
X7670800Y3708400D01*
X7670800Y6858000D01*
X11912600Y6858000D01*
X11961201Y6867667D01*
X12010893Y6904579D01*
X13002117Y8116075D01*
X14782800Y8139051D01*
X14782800Y1828087D01*
G04 #@! TO.N,/CfNeg*
G36*
X32655402Y8294359D02*
X32719606Y8143527D01*
X32764467Y4689239D01*
X32721204Y4544586D01*
X31629339Y2928625D01*
X31423179Y2818551D01*
X25997641Y2795464D01*
X25844510Y2858321D01*
X25781000Y3011187D01*
X25781000Y8140837D01*
X25844196Y8293404D01*
X25996763Y8356600D01*
X32503749Y8356600D01*
X32655402Y8294359D01*
X32655402Y8294359D01*
G37*
X32655402Y8294359D02*
X32719606Y8143527D01*
X32764467Y4689239D01*
X32721204Y4544586D01*
X31629339Y2928625D01*
X31423179Y2818551D01*
X25997641Y2795464D01*
X25844510Y2858321D01*
X25781000Y3011187D01*
X25781000Y8140837D01*
X25844196Y8293404D01*
X25996763Y8356600D01*
X32503749Y8356600D01*
X32655402Y8294359D01*
G04 #@! TD*
M02*
