G04 #@! TF.GenerationSoftware,KiCad,Pcbnew,(5.0.0)*
G04 #@! TF.CreationDate,2019-10-07T11:46:54-07:00*
G04 #@! TF.ProjectId,Buffer - Rev C,427566666572202D2052657620432E6B,rev?*
G04 #@! TF.SameCoordinates,Original*
G04 #@! TF.FileFunction,Copper,L2,Inr,Signal*
G04 #@! TF.FilePolarity,Positive*
%FSLAX46Y46*%
G04 Gerber Fmt 4.6, Leading zero omitted, Abs format (unit mm)*
G04 Created by KiCad (PCBNEW (5.0.0)) date 10/07/19 11:46:54*
%MOMM*%
%LPD*%
G01*
G04 APERTURE LIST*
G04 #@! TA.AperFunction,ViaPad*
%ADD10C,1.270000*%
G04 #@! TD*
G04 #@! TA.AperFunction,ViaPad*
%ADD11C,0.889000*%
G04 #@! TD*
G04 #@! TA.AperFunction,ViaPad*
%ADD12C,0.635000*%
G04 #@! TD*
G04 #@! TA.AperFunction,Conductor*
%ADD13C,0.508000*%
G04 #@! TD*
G04 #@! TA.AperFunction,Conductor*
%ADD14C,0.254000*%
G04 #@! TD*
G04 APERTURE END LIST*
D10*
G04 #@! TO.N,/Vc2Neg*
G04 #@! TO.C,TP2*
X21096200Y12300000D03*
G04 #@! TD*
G04 #@! TO.N,/Vc2Neg*
G04 #@! TO.C,TP2*
X19750000Y12300000D03*
G04 #@! TD*
G04 #@! TO.N,/Vc2Neg*
G04 #@! TO.C,TP1*
X9906000Y15494000D03*
G04 #@! TD*
G04 #@! TO.N,/Vc2Neg*
G04 #@! TO.C,TP2*
X18415000Y12334900D03*
G04 #@! TD*
G04 #@! TO.N,/Vc2Neg*
G04 #@! TO.C,TP2*
X18415000Y13604900D03*
G04 #@! TD*
G04 #@! TO.N,/Vc2Neg*
G04 #@! TO.C,TP2*
X22415500Y12334900D03*
G04 #@! TD*
G04 #@! TO.N,/Vc2Neg*
G04 #@! TO.C,TP2*
X21082000Y13604900D03*
G04 #@! TD*
G04 #@! TO.N,/Vc2Neg*
G04 #@! TO.C,TP2*
X22415500Y13604900D03*
G04 #@! TD*
G04 #@! TO.N,/Vc2Neg*
G04 #@! TO.C,TP2*
X19748500Y13604900D03*
G04 #@! TD*
G04 #@! TO.N,/Vc2Pos*
G04 #@! TO.C,TP2*
X21082000Y1397000D03*
G04 #@! TD*
G04 #@! TO.N,/Vc2Pos*
G04 #@! TO.C,TP2*
X22415500Y1397000D03*
G04 #@! TD*
G04 #@! TO.N,/LfNeg*
G04 #@! TO.C,TP2*
X8318500Y1397000D03*
G04 #@! TD*
G04 #@! TO.N,/CfNeg*
G04 #@! TO.C,TP2*
X37528500Y1320800D03*
G04 #@! TD*
G04 #@! TO.N,/CfNeg*
G04 #@! TO.C,TP2*
X36195000Y1397000D03*
G04 #@! TD*
G04 #@! TO.N,/CfNeg*
G04 #@! TO.C,TP2*
X33528000Y2667000D03*
G04 #@! TD*
G04 #@! TO.N,/CfNeg*
G04 #@! TO.C,TP2*
X33528000Y1397000D03*
G04 #@! TD*
G04 #@! TO.N,/CfNeg*
G04 #@! TO.C,TP2*
X36195000Y2667000D03*
G04 #@! TD*
G04 #@! TO.N,/CfNeg*
G04 #@! TO.C,TP2*
X34861500Y2667000D03*
G04 #@! TD*
G04 #@! TO.N,/CfNeg*
G04 #@! TO.C,TP2*
X34861500Y1397000D03*
G04 #@! TD*
G04 #@! TO.N,/CfNeg*
G04 #@! TO.C,TP2*
X37528500Y2667000D03*
G04 #@! TD*
G04 #@! TO.N,/PWM2*
G04 #@! TO.C,TP11*
X40894000Y7366000D03*
G04 #@! TD*
G04 #@! TO.N,/Vc2Pos*
G04 #@! TO.C,TP2*
X19748500Y1397000D03*
G04 #@! TD*
G04 #@! TO.N,/Vc2Pos*
G04 #@! TO.C,TP2*
X18415000Y1397000D03*
G04 #@! TD*
G04 #@! TO.N,/Vc2Pos*
G04 #@! TO.C,TP2*
X22415500Y2667000D03*
G04 #@! TD*
G04 #@! TO.N,/Vc2Pos*
G04 #@! TO.C,TP2*
X21082000Y2667000D03*
G04 #@! TD*
G04 #@! TO.N,/Vc2Pos*
G04 #@! TO.C,TP2*
X19748500Y2667000D03*
G04 #@! TD*
G04 #@! TO.N,/Vc2Pos*
G04 #@! TO.C,TP2*
X18415000Y2667000D03*
G04 #@! TD*
G04 #@! TO.N,/LfNeg*
G04 #@! TO.C,TP2*
X6985000Y2667000D03*
G04 #@! TD*
G04 #@! TO.N,/LfNeg*
G04 #@! TO.C,TP2*
X5651500Y2667000D03*
G04 #@! TD*
G04 #@! TO.N,/LfNeg*
G04 #@! TO.C,TP2*
X8318500Y2667000D03*
G04 #@! TD*
G04 #@! TO.N,/LfNeg*
G04 #@! TO.C,TP2*
X6985000Y1397000D03*
G04 #@! TD*
G04 #@! TO.N,/LfNeg*
G04 #@! TO.C,TP2*
X5651500Y1397000D03*
G04 #@! TD*
G04 #@! TO.N,/LfNeg*
G04 #@! TO.C,TP2*
X4318000Y2667000D03*
G04 #@! TD*
G04 #@! TO.N,/LfNeg*
G04 #@! TO.C,TP2*
X4318000Y1397000D03*
G04 #@! TD*
G04 #@! TO.N,/5.5V_Iso*
G04 #@! TO.C,TP15*
X6350000Y15494000D03*
G04 #@! TD*
G04 #@! TO.N,/5V*
G04 #@! TO.C,TP17*
X0Y14097000D03*
G04 #@! TD*
G04 #@! TO.N,/GNDI*
G04 #@! TO.C,TP5*
X40894000Y3175000D03*
G04 #@! TD*
G04 #@! TO.N,/EnableL2*
G04 #@! TO.C,TP9*
X40894000Y5207000D03*
G04 #@! TD*
G04 #@! TO.N,/EnableL1*
G04 #@! TO.C,TP6*
X0Y7731000D03*
G04 #@! TD*
G04 #@! TO.N,/5V*
G04 #@! TO.C,TP4*
X40894000Y1143000D03*
G04 #@! TD*
G04 #@! TO.N,/GNDI*
G04 #@! TO.C,TP3*
X0Y12065000D03*
G04 #@! TD*
G04 #@! TO.N,/PWMA1*
G04 #@! TO.C,TP2*
X0Y10033000D03*
G04 #@! TD*
D11*
G04 #@! TO.N,/Vc2Neg*
X28956000Y12598400D03*
D12*
G04 #@! TO.N,/GNDI*
X38912800Y11531600D03*
D11*
G04 #@! TO.N,/LfNeg*
X13208000Y3505200D03*
D12*
G04 #@! TO.N,/GNDI*
X2794000Y12954000D03*
X5842000Y8509000D03*
X37465000Y8418200D03*
X3276600Y8500000D03*
X2600000Y8813800D03*
X38921000Y9956800D03*
D11*
X38328600Y4216400D03*
X1651012Y11938000D03*
G04 #@! TO.N,/5V*
X39547800Y1193800D03*
D12*
X2768600Y14122400D03*
G04 #@! TO.N,/VDDB1*
X8500000Y7850000D03*
D11*
X10515600Y1473200D03*
X10693400Y2032000D03*
G04 #@! TO.N,/CfNeg*
X23266400Y7874000D03*
X26162000Y7874000D03*
X25196800Y7874000D03*
X24231600Y7874000D03*
X22301200Y7874000D03*
D12*
X28448000Y7823200D03*
D11*
X29972000Y4064000D03*
X29718000Y3683000D03*
D12*
X32105600Y7747000D03*
G04 #@! TO.N,/5V*
X3454400Y6578600D03*
X37795200Y11506200D03*
D11*
G04 #@! TO.N,/5.5V_Iso*
X30226000Y14732000D03*
X7416800Y14706600D03*
X8255000Y14706600D03*
D12*
X8432800Y10464800D03*
X32512000Y9652000D03*
D11*
G04 #@! TO.N,/LfNeg*
X16319500Y7823200D03*
X14389100Y7823200D03*
X18249900Y7823200D03*
X17284700Y7823200D03*
X15354300Y7823200D03*
D12*
X8509000Y6550000D03*
D11*
X13563600Y3505200D03*
D12*
G04 #@! TO.N,/Vc2Neg*
X8509000Y9144000D03*
D11*
X26949400Y12166600D03*
X9906000Y14097000D03*
X9906000Y13716006D03*
D12*
G04 #@! TO.N,/Enable1*
X1270000Y6477000D03*
X6096000Y7620000D03*
G04 #@! TO.N,/Enable2*
X38481000Y5588000D03*
X34798000Y9144000D03*
G04 #@! TD*
D13*
G04 #@! TO.N,/VDDB1*
X10604500Y2422025D02*
X10591800Y2434725D01*
X10604500Y1524000D02*
X10604500Y1524000D01*
X10591800Y2434725D02*
X10591800Y6807200D01*
X9549000Y7850000D02*
X8500000Y7850000D01*
X10591800Y6807200D02*
X9549000Y7850000D01*
X10604500Y1524000D02*
X10604500Y2422025D01*
X10591800Y2434725D02*
X10591800Y2434725D01*
G04 #@! TD*
D14*
G04 #@! TO.N,/GNDI*
G36*
X5488676Y14918482D02*
X5774482Y14632676D01*
X5969000Y14552104D01*
X5969000Y8318500D01*
X5957060Y8318500D01*
X5700332Y8212159D01*
X5503841Y8015668D01*
X5397500Y7758940D01*
X5397500Y7481060D01*
X5503841Y7224332D01*
X5700332Y7027841D01*
X5957060Y6921500D01*
X5969000Y6921500D01*
X5969000Y3683000D01*
X481000Y3683000D01*
X481000Y6615940D01*
X571500Y6615940D01*
X571500Y6338060D01*
X677841Y6081332D01*
X874332Y5884841D01*
X1131060Y5778500D01*
X1408940Y5778500D01*
X1665668Y5884841D01*
X1862159Y6081332D01*
X1968500Y6338060D01*
X1968500Y6615940D01*
X1926416Y6717540D01*
X2755900Y6717540D01*
X2755900Y6439660D01*
X2862241Y6182932D01*
X3058732Y5986441D01*
X3315460Y5880100D01*
X3593340Y5880100D01*
X3850068Y5986441D01*
X4046559Y6182932D01*
X4152900Y6439660D01*
X4152900Y6717540D01*
X4046559Y6974268D01*
X3850068Y7170759D01*
X3593340Y7277100D01*
X3315460Y7277100D01*
X3058732Y7170759D01*
X2862241Y6974268D01*
X2755900Y6717540D01*
X1926416Y6717540D01*
X1862159Y6872668D01*
X1665668Y7069159D01*
X1408940Y7175500D01*
X1131060Y7175500D01*
X874332Y7069159D01*
X677841Y6872668D01*
X571500Y6615940D01*
X481000Y6615940D01*
X481000Y6830526D01*
X575518Y6869676D01*
X861324Y7155482D01*
X1016000Y7528905D01*
X1016000Y7933095D01*
X861324Y8306518D01*
X575518Y8592324D01*
X481000Y8631474D01*
X481000Y9132526D01*
X575518Y9171676D01*
X861324Y9457482D01*
X1016000Y9830905D01*
X1016000Y10235095D01*
X861324Y10608518D01*
X575518Y10894324D01*
X481000Y10933474D01*
X481000Y13196526D01*
X575518Y13235676D01*
X861324Y13521482D01*
X1016000Y13894905D01*
X1016000Y14261340D01*
X2070100Y14261340D01*
X2070100Y13983460D01*
X2176441Y13726732D01*
X2372932Y13530241D01*
X2629660Y13423900D01*
X2907540Y13423900D01*
X3164268Y13530241D01*
X3360759Y13726732D01*
X3467100Y13983460D01*
X3467100Y14261340D01*
X3360759Y14518068D01*
X3164268Y14714559D01*
X2907540Y14820900D01*
X2629660Y14820900D01*
X2372932Y14714559D01*
X2176441Y14518068D01*
X2070100Y14261340D01*
X1016000Y14261340D01*
X1016000Y14299095D01*
X861324Y14672518D01*
X575518Y14958324D01*
X481000Y14997474D01*
X481000Y15013000D01*
X5449526Y15013000D01*
X5488676Y14918482D01*
X5488676Y14918482D01*
G37*
X5488676Y14918482D02*
X5774482Y14632676D01*
X5969000Y14552104D01*
X5969000Y8318500D01*
X5957060Y8318500D01*
X5700332Y8212159D01*
X5503841Y8015668D01*
X5397500Y7758940D01*
X5397500Y7481060D01*
X5503841Y7224332D01*
X5700332Y7027841D01*
X5957060Y6921500D01*
X5969000Y6921500D01*
X5969000Y3683000D01*
X481000Y3683000D01*
X481000Y6615940D01*
X571500Y6615940D01*
X571500Y6338060D01*
X677841Y6081332D01*
X874332Y5884841D01*
X1131060Y5778500D01*
X1408940Y5778500D01*
X1665668Y5884841D01*
X1862159Y6081332D01*
X1968500Y6338060D01*
X1968500Y6615940D01*
X1926416Y6717540D01*
X2755900Y6717540D01*
X2755900Y6439660D01*
X2862241Y6182932D01*
X3058732Y5986441D01*
X3315460Y5880100D01*
X3593340Y5880100D01*
X3850068Y5986441D01*
X4046559Y6182932D01*
X4152900Y6439660D01*
X4152900Y6717540D01*
X4046559Y6974268D01*
X3850068Y7170759D01*
X3593340Y7277100D01*
X3315460Y7277100D01*
X3058732Y7170759D01*
X2862241Y6974268D01*
X2755900Y6717540D01*
X1926416Y6717540D01*
X1862159Y6872668D01*
X1665668Y7069159D01*
X1408940Y7175500D01*
X1131060Y7175500D01*
X874332Y7069159D01*
X677841Y6872668D01*
X571500Y6615940D01*
X481000Y6615940D01*
X481000Y6830526D01*
X575518Y6869676D01*
X861324Y7155482D01*
X1016000Y7528905D01*
X1016000Y7933095D01*
X861324Y8306518D01*
X575518Y8592324D01*
X481000Y8631474D01*
X481000Y9132526D01*
X575518Y9171676D01*
X861324Y9457482D01*
X1016000Y9830905D01*
X1016000Y10235095D01*
X861324Y10608518D01*
X575518Y10894324D01*
X481000Y10933474D01*
X481000Y13196526D01*
X575518Y13235676D01*
X861324Y13521482D01*
X1016000Y13894905D01*
X1016000Y14261340D01*
X2070100Y14261340D01*
X2070100Y13983460D01*
X2176441Y13726732D01*
X2372932Y13530241D01*
X2629660Y13423900D01*
X2907540Y13423900D01*
X3164268Y13530241D01*
X3360759Y13726732D01*
X3467100Y13983460D01*
X3467100Y14261340D01*
X3360759Y14518068D01*
X3164268Y14714559D01*
X2907540Y14820900D01*
X2629660Y14820900D01*
X2372932Y14714559D01*
X2176441Y14518068D01*
X2070100Y14261340D01*
X1016000Y14261340D01*
X1016000Y14299095D01*
X861324Y14672518D01*
X575518Y14958324D01*
X481000Y14997474D01*
X481000Y15013000D01*
X5449526Y15013000D01*
X5488676Y14918482D01*
G36*
X40413001Y8266475D02*
X40318482Y8227324D01*
X40032676Y7941518D01*
X39878000Y7568095D01*
X39878000Y7163905D01*
X40032676Y6790482D01*
X40318482Y6504676D01*
X40413000Y6465525D01*
X40413000Y6107475D01*
X40318482Y6068324D01*
X40032676Y5782518D01*
X39878000Y5409095D01*
X39878000Y5004905D01*
X40032676Y4631482D01*
X40318482Y4345676D01*
X40413000Y4306525D01*
X40413000Y2540000D01*
X38823763Y2540000D01*
X38671196Y2603196D01*
X38608000Y2755763D01*
X38608000Y3238500D01*
X38598333Y3287101D01*
X38505339Y3511607D01*
X38477808Y3552809D01*
X38436607Y3580339D01*
X38212101Y3673333D01*
X38163500Y3683000D01*
X36154982Y3683000D01*
X36002789Y3745802D01*
X35939174Y3897655D01*
X35929392Y5726940D01*
X37782500Y5726940D01*
X37782500Y5449060D01*
X37888841Y5192332D01*
X38085332Y4995841D01*
X38342060Y4889500D01*
X38619940Y4889500D01*
X38876668Y4995841D01*
X39073159Y5192332D01*
X39179500Y5449060D01*
X39179500Y5726940D01*
X39073159Y5983668D01*
X38876668Y6180159D01*
X38619940Y6286500D01*
X38342060Y6286500D01*
X38085332Y6180159D01*
X37888841Y5983668D01*
X37782500Y5726940D01*
X35929392Y5726940D01*
X35897744Y11645140D01*
X37096700Y11645140D01*
X37096700Y11367260D01*
X37203041Y11110532D01*
X37399532Y10914041D01*
X37656260Y10807700D01*
X37934140Y10807700D01*
X38190868Y10914041D01*
X38387359Y11110532D01*
X38493700Y11367260D01*
X38493700Y11645140D01*
X38387359Y11901868D01*
X38190868Y12098359D01*
X37934140Y12204700D01*
X37656260Y12204700D01*
X37399532Y12098359D01*
X37203041Y11901868D01*
X37096700Y11645140D01*
X35897744Y11645140D01*
X35879733Y15013000D01*
X40413001Y15013000D01*
X40413001Y8266475D01*
X40413001Y8266475D01*
G37*
X40413001Y8266475D02*
X40318482Y8227324D01*
X40032676Y7941518D01*
X39878000Y7568095D01*
X39878000Y7163905D01*
X40032676Y6790482D01*
X40318482Y6504676D01*
X40413000Y6465525D01*
X40413000Y6107475D01*
X40318482Y6068324D01*
X40032676Y5782518D01*
X39878000Y5409095D01*
X39878000Y5004905D01*
X40032676Y4631482D01*
X40318482Y4345676D01*
X40413000Y4306525D01*
X40413000Y2540000D01*
X38823763Y2540000D01*
X38671196Y2603196D01*
X38608000Y2755763D01*
X38608000Y3238500D01*
X38598333Y3287101D01*
X38505339Y3511607D01*
X38477808Y3552809D01*
X38436607Y3580339D01*
X38212101Y3673333D01*
X38163500Y3683000D01*
X36154982Y3683000D01*
X36002789Y3745802D01*
X35939174Y3897655D01*
X35929392Y5726940D01*
X37782500Y5726940D01*
X37782500Y5449060D01*
X37888841Y5192332D01*
X38085332Y4995841D01*
X38342060Y4889500D01*
X38619940Y4889500D01*
X38876668Y4995841D01*
X39073159Y5192332D01*
X39179500Y5449060D01*
X39179500Y5726940D01*
X39073159Y5983668D01*
X38876668Y6180159D01*
X38619940Y6286500D01*
X38342060Y6286500D01*
X38085332Y6180159D01*
X37888841Y5983668D01*
X37782500Y5726940D01*
X35929392Y5726940D01*
X35897744Y11645140D01*
X37096700Y11645140D01*
X37096700Y11367260D01*
X37203041Y11110532D01*
X37399532Y10914041D01*
X37656260Y10807700D01*
X37934140Y10807700D01*
X38190868Y10914041D01*
X38387359Y11110532D01*
X38493700Y11367260D01*
X38493700Y11645140D01*
X38387359Y11901868D01*
X38190868Y12098359D01*
X37934140Y12204700D01*
X37656260Y12204700D01*
X37399532Y12098359D01*
X37203041Y11901868D01*
X37096700Y11645140D01*
X35897744Y11645140D01*
X35879733Y15013000D01*
X40413001Y15013000D01*
X40413001Y8266475D01*
G04 #@! TO.N,/Vc2Neg*
G36*
X11358907Y14154776D02*
X11404072Y14115949D01*
X11661734Y13983966D01*
X11719634Y13970000D01*
X29908494Y13970000D01*
X30061798Y13906500D01*
X30390202Y13906500D01*
X30543506Y13970000D01*
X32236692Y13970000D01*
X32388420Y13907680D01*
X32452542Y13756703D01*
X32493092Y10350500D01*
X32373060Y10350500D01*
X32116332Y10244159D01*
X31919841Y10047668D01*
X31813500Y9790940D01*
X31813500Y9513060D01*
X31919841Y9256332D01*
X32116332Y9059841D01*
X32373060Y8953500D01*
X32444262Y8953500D01*
X32292241Y8890000D01*
X15113796Y8890000D01*
X15112646Y8890002D01*
X8444611Y8914162D01*
X8292528Y8977641D01*
X8229600Y9129954D01*
X8229600Y9792918D01*
X8293860Y9766300D01*
X8571740Y9766300D01*
X8828468Y9872641D01*
X9024959Y10069132D01*
X9131300Y10325860D01*
X9131300Y10603740D01*
X9024959Y10860468D01*
X8828468Y11056959D01*
X8571740Y11163300D01*
X8293860Y11163300D01*
X8229600Y11136682D01*
X8229600Y13687476D01*
X8265323Y13817044D01*
X8303550Y13881100D01*
X8419202Y13881100D01*
X8722608Y14006774D01*
X8954826Y14238992D01*
X9080500Y14542398D01*
X9080500Y14870802D01*
X9021600Y15013000D01*
X10740986Y15013000D01*
X11358907Y14154776D01*
X11358907Y14154776D01*
G37*
X11358907Y14154776D02*
X11404072Y14115949D01*
X11661734Y13983966D01*
X11719634Y13970000D01*
X29908494Y13970000D01*
X30061798Y13906500D01*
X30390202Y13906500D01*
X30543506Y13970000D01*
X32236692Y13970000D01*
X32388420Y13907680D01*
X32452542Y13756703D01*
X32493092Y10350500D01*
X32373060Y10350500D01*
X32116332Y10244159D01*
X31919841Y10047668D01*
X31813500Y9790940D01*
X31813500Y9513060D01*
X31919841Y9256332D01*
X32116332Y9059841D01*
X32373060Y8953500D01*
X32444262Y8953500D01*
X32292241Y8890000D01*
X15113796Y8890000D01*
X15112646Y8890002D01*
X8444611Y8914162D01*
X8292528Y8977641D01*
X8229600Y9129954D01*
X8229600Y9792918D01*
X8293860Y9766300D01*
X8571740Y9766300D01*
X8828468Y9872641D01*
X9024959Y10069132D01*
X9131300Y10325860D01*
X9131300Y10603740D01*
X9024959Y10860468D01*
X8828468Y11056959D01*
X8571740Y11163300D01*
X8293860Y11163300D01*
X8229600Y11136682D01*
X8229600Y13687476D01*
X8265323Y13817044D01*
X8303550Y13881100D01*
X8419202Y13881100D01*
X8722608Y14006774D01*
X8954826Y14238992D01*
X9080500Y14542398D01*
X9080500Y14870802D01*
X9021600Y15013000D01*
X10740986Y15013000D01*
X11358907Y14154776D01*
G04 #@! TD*
M02*
