M48
;DRILL file {KiCad (5.0.0)} date 10/07/19 11:46:57
;FORMAT={-:-/ absolute / metric / decimal}
FMAT,2
METRIC,TZ
T1C0.305
T2C0.559
T3C0.889
%
G90
G05
M71
T1
X1.27Y6.477
X2.6Y8.814
X2.769Y14.122
X2.794Y12.954
X3.277Y8.5
X3.454Y6.579
X5.842Y8.509
X6.096Y7.62
X8.433Y10.465
X8.5Y7.85
X8.509Y9.144
X8.509Y6.55
X28.448Y7.823
X32.106Y7.747
X32.512Y9.652
X34.798Y9.144
X37.465Y8.418
X37.795Y11.506
X38.481Y5.588
X38.913Y11.532
X38.921Y9.957
T2
X1.651Y11.938
X7.417Y14.707
X8.255Y14.707
X9.906Y14.097
X9.906Y13.716
X10.516Y1.473
X10.693Y2.032
X13.208Y3.505
X13.564Y3.505
X14.389Y7.823
X15.354Y7.823
X16.319Y7.823
X17.285Y7.823
X18.25Y7.823
X22.301Y7.874
X23.266Y7.874
X24.232Y7.874
X25.197Y7.874
X26.162Y7.874
X26.949Y12.167
X28.956Y12.598
X29.718Y3.683
X29.972Y4.064
X30.226Y14.732
X38.329Y4.216
X39.548Y1.194
T3
X21.096Y12.3
X21.082Y1.397
X22.415Y12.335
X8.319Y1.397
X33.528Y1.397
X18.415Y2.667
X40.894Y3.175
X0.Y14.097
X34.861Y1.397
X18.415Y12.335
X34.861Y2.667
X5.651Y1.397
X0.Y12.065
X18.415Y13.605
X22.415Y2.667
X6.985Y2.667
X4.318Y1.397
X36.195Y2.667
X8.319Y2.667
X37.529Y2.667
X22.415Y13.605
X21.082Y13.605
X0.Y7.731
X5.651Y2.667
X6.35Y15.494
X40.894Y7.366
X19.75Y12.3
X19.748Y13.605
X40.894Y5.207
X6.985Y1.397
X19.748Y1.397
X0.Y10.033
X40.894Y1.143
X37.529Y1.321
X18.415Y1.397
X19.748Y2.667
X22.415Y1.397
X9.906Y15.494
X33.528Y2.667
X4.318Y2.667
X21.082Y2.667
X36.195Y1.397
T0
M30
