G04 #@! TF.GenerationSoftware,KiCad,Pcbnew,(5.0.0)*
G04 #@! TF.CreationDate,2019-10-07T11:46:54-07:00*
G04 #@! TF.ProjectId,Buffer - Rev C,427566666572202D2052657620432E6B,rev?*
G04 #@! TF.SameCoordinates,Original*
G04 #@! TF.FileFunction,Copper,L1,Top,Signal*
G04 #@! TF.FilePolarity,Positive*
%FSLAX46Y46*%
G04 Gerber Fmt 4.6, Leading zero omitted, Abs format (unit mm)*
G04 Created by KiCad (PCBNEW (5.0.0)) date 10/07/19 11:46:54*
%MOMM*%
%LPD*%
G01*
G04 APERTURE LIST*
G04 #@! TA.AperFunction,SMDPad,CuDef*
%ADD10R,1.750000X0.300000*%
G04 #@! TD*
G04 #@! TA.AperFunction,ComponentPad*
%ADD11C,1.270000*%
G04 #@! TD*
G04 #@! TA.AperFunction,SMDPad,CuDef*
%ADD12R,1.000000X0.889000*%
G04 #@! TD*
G04 #@! TA.AperFunction,SMDPad,CuDef*
%ADD13R,0.711000X0.508000*%
G04 #@! TD*
G04 #@! TA.AperFunction,SMDPad,CuDef*
%ADD14R,1.500000X1.016000*%
G04 #@! TD*
G04 #@! TA.AperFunction,SMDPad,CuDef*
%ADD15R,1.193800X1.193800*%
G04 #@! TD*
G04 #@! TA.AperFunction,SMDPad,CuDef*
%ADD16R,0.889000X1.000000*%
G04 #@! TD*
G04 #@! TA.AperFunction,SMDPad,CuDef*
%ADD17R,0.508000X0.711000*%
G04 #@! TD*
G04 #@! TA.AperFunction,BGAPad,CuDef*
%ADD18C,0.400000*%
G04 #@! TD*
G04 #@! TA.AperFunction,SMDPad,CuDef*
%ADD19R,1.300000X1.400000*%
G04 #@! TD*
G04 #@! TA.AperFunction,ViaPad*
%ADD20C,0.889000*%
G04 #@! TD*
G04 #@! TA.AperFunction,ViaPad*
%ADD21C,0.635000*%
G04 #@! TD*
G04 #@! TA.AperFunction,Conductor*
%ADD22C,0.330200*%
G04 #@! TD*
G04 #@! TA.AperFunction,Conductor*
%ADD23C,0.635000*%
G04 #@! TD*
G04 #@! TA.AperFunction,Conductor*
%ADD24C,0.508000*%
G04 #@! TD*
G04 #@! TA.AperFunction,Conductor*
%ADD25C,0.762000*%
G04 #@! TD*
G04 #@! TA.AperFunction,Conductor*
%ADD26C,1.270000*%
G04 #@! TD*
G04 #@! TA.AperFunction,Conductor*
%ADD27C,0.152400*%
G04 #@! TD*
G04 #@! TA.AperFunction,Conductor*
%ADD28C,0.254000*%
G04 #@! TD*
G04 APERTURE END LIST*
D10*
G04 #@! TO.P,U2,14*
G04 #@! TO.N,/5.5V_Iso*
X9854000Y10450000D03*
G04 #@! TO.P,U2,1*
G04 #@! TO.N,Net-(U2-Pad1)*
X4604000Y10450000D03*
G04 #@! TO.P,U2,2*
G04 #@! TO.N,/In1*
X4604000Y9800000D03*
G04 #@! TO.P,U2,3*
G04 #@! TO.N,Net-(U2-Pad3)*
X4604000Y9150000D03*
G04 #@! TO.P,U2,4*
G04 #@! TO.N,/GNDI*
X4604000Y8500000D03*
G04 #@! TO.P,U2,5*
G04 #@! TO.N,/Enable1*
X4604000Y7850000D03*
G04 #@! TO.P,U2,6*
G04 #@! TO.N,/DT1*
X4604000Y7200000D03*
G04 #@! TO.P,U2,7*
G04 #@! TO.N,/5V*
X4604000Y6550000D03*
G04 #@! TO.P,U2,13*
G04 #@! TO.N,/OutA1*
X9854000Y9800000D03*
G04 #@! TO.P,U2,12*
G04 #@! TO.N,/Vc2Neg*
X9854000Y9150000D03*
G04 #@! TO.P,U2,10*
G04 #@! TO.N,/VDDB1*
X9854000Y7850000D03*
G04 #@! TO.P,U2,9*
G04 #@! TO.N,/OutB1*
X9854000Y7200000D03*
G04 #@! TO.P,U2,8*
G04 #@! TO.N,/LfNeg*
X9854000Y6550000D03*
G04 #@! TD*
D11*
G04 #@! TO.P,TP2,1*
G04 #@! TO.N,/Vc2Neg*
X21096200Y12300000D03*
G04 #@! TD*
G04 #@! TO.P,TP2,1*
G04 #@! TO.N,/Vc2Neg*
X19750000Y12300000D03*
G04 #@! TD*
D12*
G04 #@! TO.P,C8,2*
G04 #@! TO.N,/Vc2Neg*
X30693185Y11791941D03*
G04 #@! TO.P,C8,1*
G04 #@! TO.N,/5.5V_Iso*
X30693185Y13491941D03*
G04 #@! TD*
G04 #@! TO.P,C4,2*
G04 #@! TO.N,/Vc2Neg*
X8509000Y11977000D03*
G04 #@! TO.P,C4,1*
G04 #@! TO.N,/5.5V_Iso*
X8509000Y13677000D03*
G04 #@! TD*
G04 #@! TO.P,C2,2*
G04 #@! TO.N,/Vc2Neg*
X31963185Y11791941D03*
G04 #@! TO.P,C2,1*
G04 #@! TO.N,/5.5V_Iso*
X31963185Y13491941D03*
G04 #@! TD*
G04 #@! TO.P,C11,2*
G04 #@! TO.N,/Vc2Neg*
X7112000Y11977000D03*
G04 #@! TO.P,C11,1*
G04 #@! TO.N,/5.5V_Iso*
X7112000Y13677000D03*
G04 #@! TD*
D13*
G04 #@! TO.P,R11,2*
G04 #@! TO.N,/EnableL1*
X1300000Y8367000D03*
G04 #@! TO.P,R11,1*
G04 #@! TO.N,/Enable1*
X1300000Y7233000D03*
G04 #@! TD*
G04 #@! TO.P,R4,2*
G04 #@! TO.N,/Enable2*
X39370000Y5021000D03*
G04 #@! TO.P,R4,1*
G04 #@! TO.N,/EnableL2*
X39370000Y6155000D03*
G04 #@! TD*
D14*
G04 #@! TO.P,0.47uF1,2*
G04 #@! TO.N,/Vc2Neg*
X20307300Y8995700D03*
G04 #@! TO.P,0.47uF1,1*
G04 #@! TO.N,/Vc2Pos*
X20307300Y6777700D03*
G04 #@! TD*
D15*
G04 #@! TO.P,D8,2*
G04 #@! TO.N,/LfNeg*
X13338000Y1460500D03*
G04 #@! TO.P,D8,1*
G04 #@! TO.N,/VDDB1*
X10541000Y1460500D03*
G04 #@! TD*
G04 #@! TO.P,D7,2*
G04 #@! TO.N,/CfNeg*
X28953000Y2032000D03*
G04 #@! TO.P,D7,1*
G04 #@! TO.N,/VDDA2*
X31750000Y2032000D03*
G04 #@! TD*
D10*
G04 #@! TO.P,U1,14*
G04 #@! TO.N,/VDDA2*
X30850300Y6468200D03*
G04 #@! TO.P,U1,1*
G04 #@! TO.N,Net-(U1-Pad1)*
X36100300Y6468200D03*
G04 #@! TO.P,U1,2*
G04 #@! TO.N,/In2*
X36100300Y7118200D03*
G04 #@! TO.P,U1,3*
G04 #@! TO.N,Net-(U1-Pad3)*
X36100300Y7768200D03*
G04 #@! TO.P,U1,4*
G04 #@! TO.N,/GNDI*
X36100300Y8418200D03*
G04 #@! TO.P,U1,5*
G04 #@! TO.N,/Enable2*
X36100300Y9068200D03*
G04 #@! TO.P,U1,6*
G04 #@! TO.N,/DT2*
X36100300Y9718200D03*
G04 #@! TO.P,U1,7*
G04 #@! TO.N,/5V*
X36100300Y10368200D03*
G04 #@! TO.P,U1,13*
G04 #@! TO.N,/OutA2*
X30850300Y7118200D03*
G04 #@! TO.P,U1,12*
G04 #@! TO.N,/CfNeg*
X30850300Y7768200D03*
G04 #@! TO.P,U1,10*
G04 #@! TO.N,/5.5V_Iso*
X30850300Y9068200D03*
G04 #@! TO.P,U1,9*
G04 #@! TO.N,/OutB2*
X30850300Y9718200D03*
G04 #@! TO.P,U1,8*
G04 #@! TO.N,/Vc2Neg*
X30850300Y10368200D03*
G04 #@! TD*
D11*
G04 #@! TO.P,TP1,1*
G04 #@! TO.N,/Vc2Neg*
X9906000Y15494000D03*
G04 #@! TD*
G04 #@! TO.P,TP2,1*
G04 #@! TO.N,/Vc2Neg*
X18415000Y12334900D03*
G04 #@! TD*
G04 #@! TO.P,TP2,1*
G04 #@! TO.N,/Vc2Neg*
X18415000Y13604900D03*
G04 #@! TD*
G04 #@! TO.P,TP2,1*
G04 #@! TO.N,/Vc2Neg*
X22415500Y12334900D03*
G04 #@! TD*
G04 #@! TO.P,TP2,1*
G04 #@! TO.N,/Vc2Neg*
X21082000Y13604900D03*
G04 #@! TD*
G04 #@! TO.P,TP2,1*
G04 #@! TO.N,/Vc2Neg*
X22415500Y13604900D03*
G04 #@! TD*
G04 #@! TO.P,TP2,1*
G04 #@! TO.N,/Vc2Neg*
X19748500Y13604900D03*
G04 #@! TD*
G04 #@! TO.P,TP2,1*
G04 #@! TO.N,/Vc2Pos*
X21082000Y1397000D03*
G04 #@! TD*
G04 #@! TO.P,TP2,1*
G04 #@! TO.N,/Vc2Pos*
X22415500Y1397000D03*
G04 #@! TD*
G04 #@! TO.P,TP2,1*
G04 #@! TO.N,/LfNeg*
X8318500Y1397000D03*
G04 #@! TD*
G04 #@! TO.P,TP2,1*
G04 #@! TO.N,/CfNeg*
X37528500Y1320800D03*
G04 #@! TD*
G04 #@! TO.P,TP2,1*
G04 #@! TO.N,/CfNeg*
X36195000Y1397000D03*
G04 #@! TD*
G04 #@! TO.P,TP2,1*
G04 #@! TO.N,/CfNeg*
X33528000Y2667000D03*
G04 #@! TD*
G04 #@! TO.P,TP2,1*
G04 #@! TO.N,/CfNeg*
X33528000Y1397000D03*
G04 #@! TD*
G04 #@! TO.P,TP2,1*
G04 #@! TO.N,/CfNeg*
X36195000Y2667000D03*
G04 #@! TD*
G04 #@! TO.P,TP2,1*
G04 #@! TO.N,/CfNeg*
X34861500Y2667000D03*
G04 #@! TD*
G04 #@! TO.P,TP2,1*
G04 #@! TO.N,/CfNeg*
X34861500Y1397000D03*
G04 #@! TD*
G04 #@! TO.P,TP2,1*
G04 #@! TO.N,/CfNeg*
X37528500Y2667000D03*
G04 #@! TD*
G04 #@! TO.P,TP11,1*
G04 #@! TO.N,/PWM2*
X40894000Y7366000D03*
G04 #@! TD*
G04 #@! TO.P,TP2,1*
G04 #@! TO.N,/Vc2Pos*
X19748500Y1397000D03*
G04 #@! TD*
G04 #@! TO.P,TP2,1*
G04 #@! TO.N,/Vc2Pos*
X18415000Y1397000D03*
G04 #@! TD*
G04 #@! TO.P,TP2,1*
G04 #@! TO.N,/Vc2Pos*
X22415500Y2667000D03*
G04 #@! TD*
G04 #@! TO.P,TP2,1*
G04 #@! TO.N,/Vc2Pos*
X21082000Y2667000D03*
G04 #@! TD*
G04 #@! TO.P,TP2,1*
G04 #@! TO.N,/Vc2Pos*
X19748500Y2667000D03*
G04 #@! TD*
G04 #@! TO.P,TP2,1*
G04 #@! TO.N,/Vc2Pos*
X18415000Y2667000D03*
G04 #@! TD*
G04 #@! TO.P,TP2,1*
G04 #@! TO.N,/LfNeg*
X6985000Y2667000D03*
G04 #@! TD*
G04 #@! TO.P,TP2,1*
G04 #@! TO.N,/LfNeg*
X5651500Y2667000D03*
G04 #@! TD*
G04 #@! TO.P,TP2,1*
G04 #@! TO.N,/LfNeg*
X8318500Y2667000D03*
G04 #@! TD*
G04 #@! TO.P,TP2,1*
G04 #@! TO.N,/LfNeg*
X6985000Y1397000D03*
G04 #@! TD*
G04 #@! TO.P,TP2,1*
G04 #@! TO.N,/LfNeg*
X5651500Y1397000D03*
G04 #@! TD*
G04 #@! TO.P,TP2,1*
G04 #@! TO.N,/LfNeg*
X4318000Y2667000D03*
G04 #@! TD*
G04 #@! TO.P,TP2,1*
G04 #@! TO.N,/LfNeg*
X4318000Y1397000D03*
G04 #@! TD*
G04 #@! TO.P,TP15,1*
G04 #@! TO.N,/5.5V_Iso*
X6350000Y15494000D03*
G04 #@! TD*
G04 #@! TO.P,TP17,1*
G04 #@! TO.N,/5V*
X0Y14097000D03*
G04 #@! TD*
G04 #@! TO.P,TP5,1*
G04 #@! TO.N,/GNDI*
X40894000Y3175000D03*
G04 #@! TD*
G04 #@! TO.P,TP9,1*
G04 #@! TO.N,/EnableL2*
X40894000Y5207000D03*
G04 #@! TD*
G04 #@! TO.P,TP6,1*
G04 #@! TO.N,/EnableL1*
X0Y7731000D03*
G04 #@! TD*
G04 #@! TO.P,TP4,1*
G04 #@! TO.N,/5V*
X40894000Y1143000D03*
G04 #@! TD*
G04 #@! TO.P,TP3,1*
G04 #@! TO.N,/GNDI*
X0Y12065000D03*
G04 #@! TD*
G04 #@! TO.P,TP2,1*
G04 #@! TO.N,/PWMA1*
X0Y10033000D03*
G04 #@! TD*
D13*
G04 #@! TO.P,C1,2*
G04 #@! TO.N,/GNDI*
X1600000Y12933000D03*
G04 #@! TO.P,C1,1*
G04 #@! TO.N,/5V*
X1600000Y14067000D03*
G04 #@! TD*
G04 #@! TO.P,C3,1*
G04 #@! TO.N,/In1*
X2600000Y10473000D03*
G04 #@! TO.P,C3,2*
G04 #@! TO.N,/GNDI*
X2600000Y9339000D03*
G04 #@! TD*
D16*
G04 #@! TO.P,C5,2*
G04 #@! TO.N,/LfNeg*
X12459561Y4259246D03*
G04 #@! TO.P,C5,1*
G04 #@! TO.N,/VDDB1*
X10759561Y4259246D03*
G04 #@! TD*
G04 #@! TO.P,C6,2*
G04 #@! TO.N,/LfNeg*
X12445693Y2921000D03*
G04 #@! TO.P,C6,1*
G04 #@! TO.N,/VDDB1*
X10745693Y2921000D03*
G04 #@! TD*
G04 #@! TO.P,C7,2*
G04 #@! TO.N,/CfNeg*
X29934800Y4978400D03*
G04 #@! TO.P,C7,1*
G04 #@! TO.N,/VDDA2*
X31634800Y4978400D03*
G04 #@! TD*
G04 #@! TO.P,C9,2*
G04 #@! TO.N,/CfNeg*
X29934800Y3632200D03*
G04 #@! TO.P,C9,1*
G04 #@! TO.N,/VDDA2*
X31634800Y3632200D03*
G04 #@! TD*
D13*
G04 #@! TO.P,C10,2*
G04 #@! TO.N,/GNDI*
X38227000Y8441000D03*
G04 #@! TO.P,C10,1*
G04 #@! TO.N,/In2*
X38227000Y7307000D03*
G04 #@! TD*
D17*
G04 #@! TO.P,C12,2*
G04 #@! TO.N,/GNDI*
X38921000Y10541000D03*
G04 #@! TO.P,C12,1*
G04 #@! TO.N,/5V*
X37787000Y10541000D03*
G04 #@! TD*
G04 #@! TO.P,D2,2*
G04 #@! TO.N,/GateA1*
X12967000Y10400000D03*
G04 #@! TO.P,D2,1*
G04 #@! TO.N,/OutA1*
X11833000Y10400000D03*
G04 #@! TD*
G04 #@! TO.P,D3,2*
G04 #@! TO.N,/GateB1*
X12967000Y5527000D03*
G04 #@! TO.P,D3,1*
G04 #@! TO.N,/OutB1*
X11833000Y5527000D03*
G04 #@! TD*
G04 #@! TO.P,D4,2*
G04 #@! TO.N,/GateA2*
X27533000Y4900000D03*
G04 #@! TO.P,D4,1*
G04 #@! TO.N,/OutA2*
X28667000Y4900000D03*
G04 #@! TD*
G04 #@! TO.P,D5,2*
G04 #@! TO.N,/GateB2*
X27833000Y9900000D03*
G04 #@! TO.P,D5,1*
G04 #@! TO.N,/OutB2*
X28967000Y9900000D03*
G04 #@! TD*
D18*
G04 #@! TO.P,Q1,S*
G04 #@! TO.N,/LfNeg*
X18561193Y4700042D03*
G04 #@! TO.P,Q1,D*
G04 #@! TO.N,/Vc2Pos*
X17561193Y4700042D03*
G04 #@! TO.P,Q1,S*
G04 #@! TO.N,/LfNeg*
X16561193Y4700042D03*
G04 #@! TO.P,Q1,D*
G04 #@! TO.N,/Vc2Pos*
X15561193Y4700042D03*
G04 #@! TO.P,Q1,S*
G04 #@! TO.N,/LfNeg*
X14561193Y4700042D03*
X18561193Y5200042D03*
G04 #@! TO.P,Q1,D*
G04 #@! TO.N,/Vc2Pos*
X17561193Y5200042D03*
G04 #@! TO.P,Q1,S*
G04 #@! TO.N,/LfNeg*
X16561193Y5200042D03*
G04 #@! TO.P,Q1,D*
G04 #@! TO.N,/Vc2Pos*
X15561193Y5200042D03*
G04 #@! TO.P,Q1,S*
G04 #@! TO.N,/LfNeg*
X14561193Y5200042D03*
X18561193Y5700042D03*
G04 #@! TO.P,Q1,D*
G04 #@! TO.N,/Vc2Pos*
X17561193Y5700042D03*
G04 #@! TO.P,Q1,S2*
G04 #@! TO.N,/LfNeg*
X16561193Y5700042D03*
G04 #@! TO.P,Q1,D*
G04 #@! TO.N,/Vc2Pos*
X15561193Y5700042D03*
G04 #@! TO.P,Q1,S*
G04 #@! TO.N,/LfNeg*
X18561193Y6200042D03*
G04 #@! TO.P,Q1,D*
G04 #@! TO.N,/Vc2Pos*
X17561193Y6200042D03*
G04 #@! TO.P,Q1,S*
G04 #@! TO.N,/LfNeg*
X16561193Y6200042D03*
G04 #@! TO.P,Q1,D*
G04 #@! TO.N,/Vc2Pos*
X15561193Y6200042D03*
G04 #@! TO.P,Q1,G*
G04 #@! TO.N,/GateB1*
X14561193Y6200042D03*
G04 #@! TO.P,Q1,S*
G04 #@! TO.N,/LfNeg*
X18561193Y6700042D03*
G04 #@! TO.P,Q1,D*
G04 #@! TO.N,/Vc2Pos*
X17561193Y6700042D03*
G04 #@! TO.P,Q1,S*
G04 #@! TO.N,/LfNeg*
X16561193Y6700042D03*
G04 #@! TO.P,Q1,D*
G04 #@! TO.N,/Vc2Pos*
X15561193Y6700042D03*
G04 #@! TO.P,Q1,G*
G04 #@! TO.N,/GateB1*
X14561193Y6700042D03*
G04 #@! TD*
G04 #@! TO.P,Q2,S*
G04 #@! TO.N,/Vc2Neg*
X18548493Y8822342D03*
G04 #@! TO.P,Q2,D*
G04 #@! TO.N,/LfNeg*
X17548493Y8822342D03*
G04 #@! TO.P,Q2,S*
G04 #@! TO.N,/Vc2Neg*
X16548493Y8822342D03*
G04 #@! TO.P,Q2,D*
G04 #@! TO.N,/LfNeg*
X15548493Y8822342D03*
G04 #@! TO.P,Q2,S*
G04 #@! TO.N,/Vc2Neg*
X14548493Y8822342D03*
X18548493Y9322342D03*
G04 #@! TO.P,Q2,D*
G04 #@! TO.N,/LfNeg*
X17548493Y9322342D03*
G04 #@! TO.P,Q2,S*
G04 #@! TO.N,/Vc2Neg*
X16548493Y9322342D03*
G04 #@! TO.P,Q2,D*
G04 #@! TO.N,/LfNeg*
X15548493Y9322342D03*
G04 #@! TO.P,Q2,S*
G04 #@! TO.N,/Vc2Neg*
X14548493Y9322342D03*
X18548493Y9822342D03*
G04 #@! TO.P,Q2,D*
G04 #@! TO.N,/LfNeg*
X17548493Y9822342D03*
G04 #@! TO.P,Q2,S2*
G04 #@! TO.N,/Vc2Neg*
X16548493Y9822342D03*
G04 #@! TO.P,Q2,D*
G04 #@! TO.N,/LfNeg*
X15548493Y9822342D03*
G04 #@! TO.P,Q2,S*
G04 #@! TO.N,/Vc2Neg*
X18548493Y10322342D03*
G04 #@! TO.P,Q2,D*
G04 #@! TO.N,/LfNeg*
X17548493Y10322342D03*
G04 #@! TO.P,Q2,S*
G04 #@! TO.N,/Vc2Neg*
X16548493Y10322342D03*
G04 #@! TO.P,Q2,D*
G04 #@! TO.N,/LfNeg*
X15548493Y10322342D03*
G04 #@! TO.P,Q2,G*
G04 #@! TO.N,/GateA1*
X14548493Y10322342D03*
G04 #@! TO.P,Q2,S*
G04 #@! TO.N,/Vc2Neg*
X18548493Y10822342D03*
G04 #@! TO.P,Q2,D*
G04 #@! TO.N,/LfNeg*
X17548493Y10822342D03*
G04 #@! TO.P,Q2,S*
G04 #@! TO.N,/Vc2Neg*
X16548493Y10822342D03*
G04 #@! TO.P,Q2,D*
G04 #@! TO.N,/LfNeg*
X15548493Y10822342D03*
G04 #@! TO.P,Q2,G*
G04 #@! TO.N,/GateA1*
X14548493Y10822342D03*
G04 #@! TD*
G04 #@! TO.P,Q3,S*
G04 #@! TO.N,/CfNeg*
X22079200Y6763542D03*
G04 #@! TO.P,Q3,D*
G04 #@! TO.N,/Vc2Pos*
X23079200Y6763542D03*
G04 #@! TO.P,Q3,S*
G04 #@! TO.N,/CfNeg*
X24079200Y6763542D03*
G04 #@! TO.P,Q3,D*
G04 #@! TO.N,/Vc2Pos*
X25079200Y6763542D03*
G04 #@! TO.P,Q3,S*
G04 #@! TO.N,/CfNeg*
X26079200Y6763542D03*
X22079200Y6263542D03*
G04 #@! TO.P,Q3,D*
G04 #@! TO.N,/Vc2Pos*
X23079200Y6263542D03*
G04 #@! TO.P,Q3,S*
G04 #@! TO.N,/CfNeg*
X24079200Y6263542D03*
G04 #@! TO.P,Q3,D*
G04 #@! TO.N,/Vc2Pos*
X25079200Y6263542D03*
G04 #@! TO.P,Q3,S*
G04 #@! TO.N,/CfNeg*
X26079200Y6263542D03*
X22079200Y5763542D03*
G04 #@! TO.P,Q3,D*
G04 #@! TO.N,/Vc2Pos*
X23079200Y5763542D03*
G04 #@! TO.P,Q3,S2*
G04 #@! TO.N,/CfNeg*
X24079200Y5763542D03*
G04 #@! TO.P,Q3,D*
G04 #@! TO.N,/Vc2Pos*
X25079200Y5763542D03*
G04 #@! TO.P,Q3,S*
G04 #@! TO.N,/CfNeg*
X22079200Y5263542D03*
G04 #@! TO.P,Q3,D*
G04 #@! TO.N,/Vc2Pos*
X23079200Y5263542D03*
G04 #@! TO.P,Q3,S*
G04 #@! TO.N,/CfNeg*
X24079200Y5263542D03*
G04 #@! TO.P,Q3,D*
G04 #@! TO.N,/Vc2Pos*
X25079200Y5263542D03*
G04 #@! TO.P,Q3,G*
G04 #@! TO.N,/GateA2*
X26079200Y5263542D03*
G04 #@! TO.P,Q3,S*
G04 #@! TO.N,/CfNeg*
X22079200Y4763542D03*
G04 #@! TO.P,Q3,D*
G04 #@! TO.N,/Vc2Pos*
X23079200Y4763542D03*
G04 #@! TO.P,Q3,S*
G04 #@! TO.N,/CfNeg*
X24079200Y4763542D03*
G04 #@! TO.P,Q3,D*
G04 #@! TO.N,/Vc2Pos*
X25079200Y4763542D03*
G04 #@! TO.P,Q3,G*
G04 #@! TO.N,/GateA2*
X26079200Y4763542D03*
G04 #@! TD*
G04 #@! TO.P,Q4,S*
G04 #@! TO.N,/Vc2Neg*
X22067793Y10885842D03*
G04 #@! TO.P,Q4,D*
G04 #@! TO.N,/CfNeg*
X23067793Y10885842D03*
G04 #@! TO.P,Q4,S*
G04 #@! TO.N,/Vc2Neg*
X24067793Y10885842D03*
G04 #@! TO.P,Q4,D*
G04 #@! TO.N,/CfNeg*
X25067793Y10885842D03*
G04 #@! TO.P,Q4,S*
G04 #@! TO.N,/Vc2Neg*
X26067793Y10885842D03*
X22067793Y10385842D03*
G04 #@! TO.P,Q4,D*
G04 #@! TO.N,/CfNeg*
X23067793Y10385842D03*
G04 #@! TO.P,Q4,S*
G04 #@! TO.N,/Vc2Neg*
X24067793Y10385842D03*
G04 #@! TO.P,Q4,D*
G04 #@! TO.N,/CfNeg*
X25067793Y10385842D03*
G04 #@! TO.P,Q4,S*
G04 #@! TO.N,/Vc2Neg*
X26067793Y10385842D03*
X22067793Y9885842D03*
G04 #@! TO.P,Q4,D*
G04 #@! TO.N,/CfNeg*
X23067793Y9885842D03*
G04 #@! TO.P,Q4,S2*
G04 #@! TO.N,/Vc2Neg*
X24067793Y9885842D03*
G04 #@! TO.P,Q4,D*
G04 #@! TO.N,/CfNeg*
X25067793Y9885842D03*
G04 #@! TO.P,Q4,S*
G04 #@! TO.N,/Vc2Neg*
X22067793Y9385842D03*
G04 #@! TO.P,Q4,D*
G04 #@! TO.N,/CfNeg*
X23067793Y9385842D03*
G04 #@! TO.P,Q4,S*
G04 #@! TO.N,/Vc2Neg*
X24067793Y9385842D03*
G04 #@! TO.P,Q4,D*
G04 #@! TO.N,/CfNeg*
X25067793Y9385842D03*
G04 #@! TO.P,Q4,G*
G04 #@! TO.N,/GateB2*
X26067793Y9385842D03*
G04 #@! TO.P,Q4,S*
G04 #@! TO.N,/Vc2Neg*
X22067793Y8885842D03*
G04 #@! TO.P,Q4,D*
G04 #@! TO.N,/CfNeg*
X23067793Y8885842D03*
G04 #@! TO.P,Q4,S*
G04 #@! TO.N,/Vc2Neg*
X24067793Y8885842D03*
G04 #@! TO.P,Q4,D*
G04 #@! TO.N,/CfNeg*
X25067793Y8885842D03*
G04 #@! TO.P,Q4,G*
G04 #@! TO.N,/GateB2*
X26067793Y8885842D03*
G04 #@! TD*
D17*
G04 #@! TO.P,R1,2*
G04 #@! TO.N,/GNDI*
X38921000Y9398000D03*
G04 #@! TO.P,R1,1*
G04 #@! TO.N,/DT2*
X37787000Y9398000D03*
G04 #@! TD*
D13*
G04 #@! TO.P,R2,1*
G04 #@! TO.N,/PWMA1*
X1300000Y9339000D03*
G04 #@! TO.P,R2,2*
G04 #@! TO.N,/In1*
X1300000Y10473000D03*
G04 #@! TD*
G04 #@! TO.P,R3,1*
G04 #@! TO.N,/GNDI*
X2600000Y8367000D03*
G04 #@! TO.P,R3,2*
G04 #@! TO.N,/DT1*
X2600000Y7233000D03*
G04 #@! TD*
G04 #@! TO.P,R5,2*
G04 #@! TO.N,/5.5V_Iso*
X5842000Y13013000D03*
G04 #@! TO.P,R5,1*
G04 #@! TO.N,Net-(D1-Pad2)*
X5842000Y11879000D03*
G04 #@! TD*
D17*
G04 #@! TO.P,R6,2*
G04 #@! TO.N,/OutA1*
X11833000Y11800000D03*
G04 #@! TO.P,R6,1*
G04 #@! TO.N,/GateA1*
X12967000Y11800000D03*
G04 #@! TD*
G04 #@! TO.P,R7,2*
G04 #@! TO.N,/OutB1*
X11833000Y6927000D03*
G04 #@! TO.P,R7,1*
G04 #@! TO.N,/GateB1*
X12967000Y6927000D03*
G04 #@! TD*
G04 #@! TO.P,R8,2*
G04 #@! TO.N,/GateA2*
X27533000Y6300000D03*
G04 #@! TO.P,R8,1*
G04 #@! TO.N,/OutA2*
X28667000Y6300000D03*
G04 #@! TD*
G04 #@! TO.P,R9,2*
G04 #@! TO.N,/GateB2*
X27833000Y11200000D03*
G04 #@! TO.P,R9,1*
G04 #@! TO.N,/OutB2*
X28967000Y11200000D03*
G04 #@! TD*
D13*
G04 #@! TO.P,R10,2*
G04 #@! TO.N,Net-(D6-Pad2)*
X33528000Y12133000D03*
G04 #@! TO.P,R10,1*
G04 #@! TO.N,/5.5V_Iso*
X33528000Y13267000D03*
G04 #@! TD*
G04 #@! TO.P,R13,2*
G04 #@! TO.N,/In2*
X39497000Y7307000D03*
G04 #@! TO.P,R13,1*
G04 #@! TO.N,/PWM2*
X39497000Y8441000D03*
G04 #@! TD*
D19*
G04 #@! TO.P,D1,1*
G04 #@! TO.N,/VDDB1*
X8943000Y4508500D03*
G04 #@! TO.P,D1,2*
G04 #@! TO.N,Net-(D1-Pad2)*
X6043000Y4508500D03*
G04 #@! TD*
G04 #@! TO.P,D6,1*
G04 #@! TO.N,/VDDA2*
X33221000Y4445000D03*
G04 #@! TO.P,D6,2*
G04 #@! TO.N,Net-(D6-Pad2)*
X36121000Y4445000D03*
G04 #@! TD*
D20*
G04 #@! TO.N,/Vc2Neg*
X28956000Y12598400D03*
D21*
G04 #@! TO.N,/GNDI*
X38912800Y11531600D03*
D20*
G04 #@! TO.N,/LfNeg*
X13208000Y3505200D03*
D21*
G04 #@! TO.N,/GNDI*
X2794000Y12954000D03*
X5842000Y8509000D03*
X37465000Y8418200D03*
X3276600Y8500000D03*
X2600000Y8813800D03*
X38921000Y9956800D03*
D20*
X38328600Y4216400D03*
X1651012Y11938000D03*
G04 #@! TO.N,/5V*
X39547800Y1193800D03*
D21*
X2768600Y14122400D03*
G04 #@! TO.N,/VDDB1*
X8500000Y7850000D03*
D20*
X10515600Y1473200D03*
X10693400Y2032000D03*
G04 #@! TO.N,/CfNeg*
X23266400Y7874000D03*
X26162000Y7874000D03*
X25196800Y7874000D03*
X24231600Y7874000D03*
X22301200Y7874000D03*
D21*
X28448000Y7823200D03*
D20*
X29972000Y4064000D03*
X29718000Y3683000D03*
D21*
X32105600Y7747000D03*
G04 #@! TO.N,/5V*
X3454400Y6578600D03*
X37795200Y11506200D03*
D20*
G04 #@! TO.N,/5.5V_Iso*
X30226000Y14732000D03*
X7416800Y14706600D03*
X8255000Y14706600D03*
D21*
X8432800Y10464800D03*
X32512000Y9652000D03*
D20*
G04 #@! TO.N,/LfNeg*
X16319500Y7823200D03*
X14389100Y7823200D03*
X18249900Y7823200D03*
X17284700Y7823200D03*
X15354300Y7823200D03*
D21*
X8509000Y6550000D03*
D20*
X13563600Y3505200D03*
D21*
G04 #@! TO.N,/Vc2Neg*
X8509000Y9144000D03*
D20*
X26949400Y12166600D03*
X9906000Y14097000D03*
X9906000Y13716006D03*
D21*
G04 #@! TO.N,/Enable1*
X1270000Y6477000D03*
X6096000Y7620000D03*
G04 #@! TO.N,/Enable2*
X38481000Y5588000D03*
X34798000Y9144000D03*
G04 #@! TD*
D22*
G04 #@! TO.N,/GNDI*
X1600000Y12933000D02*
X2773000Y12933000D01*
X2773000Y12933000D02*
X2794000Y12954000D01*
X2701500Y9339000D02*
X2600000Y8813800D01*
X2600000Y9339000D02*
X2701500Y9339000D01*
D23*
X2600000Y9339000D02*
X2600000Y8367001D01*
D22*
X5833000Y8500000D02*
X5842000Y8509000D01*
X5818200Y8509000D02*
X5842000Y8509000D01*
D24*
X38921000Y10541000D02*
X38921000Y9956800D01*
D22*
X38912800Y10549200D02*
X38921000Y10541000D01*
X38912800Y11531600D02*
X38912800Y10549200D01*
X38204200Y8418200D02*
X38227000Y8441000D01*
X36100300Y8418200D02*
X37465000Y8418200D01*
X38227000Y8441000D02*
X38311400Y8441000D01*
X38227000Y8441000D02*
X38438400Y8441000D01*
X38921000Y8923600D02*
X38684200Y8686800D01*
X38921000Y9398000D02*
X38921000Y8923600D01*
X38438400Y8441000D02*
X38684200Y8686800D01*
X38684200Y8686800D02*
X39014400Y9017000D01*
X37465000Y8418200D02*
X38204200Y8418200D01*
X3089800Y8500000D02*
X3276600Y8500000D01*
X5842000Y8509000D02*
X3098800Y8509000D01*
X2956801Y8367001D02*
X3098800Y8509000D01*
X2600000Y8367001D02*
X2956801Y8367001D01*
X3276600Y8500000D02*
X4604000Y8500000D01*
X2600000Y8813800D02*
X2769500Y9271000D01*
D24*
X38921000Y9956800D02*
X38921000Y9398000D01*
D25*
X39370000Y3175000D02*
X38773099Y3771901D01*
X38773099Y3771901D02*
X38328600Y4216400D01*
X40260590Y3175000D02*
X39370000Y3175000D01*
X895395Y12065000D02*
X633410Y12065000D01*
X1022395Y11938000D02*
X895395Y12065000D01*
X1651012Y11938000D02*
X1022395Y11938000D01*
X1600000Y11989012D02*
X1651012Y11938000D01*
X1600000Y12933000D02*
X1600000Y11989012D01*
D22*
G04 #@! TO.N,/VDDB1*
X9853600Y7848600D02*
X9854000Y7848200D01*
X8534400Y4917100D02*
X8943000Y4508500D01*
X8534400Y7848600D02*
X9853600Y7848600D01*
D26*
X10759561Y2934868D02*
X10745693Y2921000D01*
X10759561Y4259246D02*
X10759561Y2934868D01*
X10591800Y2767107D02*
X10745693Y2921000D01*
X10591800Y1524000D02*
X10591800Y2767107D01*
X9192254Y4259246D02*
X8943000Y4508500D01*
X10759561Y4259246D02*
X9192254Y4259246D01*
D22*
G04 #@! TO.N,Net-(D1-Pad2)*
X6043000Y4254500D02*
X6043000Y4304500D01*
D23*
X6159500Y4508500D02*
X6043000Y4508500D01*
X7366000Y5715000D02*
X6159500Y4508500D01*
X7366000Y9906000D02*
X7366000Y5715000D01*
X5842000Y11879000D02*
X5842000Y11430000D01*
X5842000Y11430000D02*
X7366000Y9906000D01*
G04 #@! TO.N,/GateB1*
X14561193Y6700042D02*
X14561193Y6200042D01*
G04 #@! TO.N,Net-(D6-Pad2)*
X36121000Y4495000D02*
X36121000Y4445000D01*
X33528000Y12006000D02*
X33528000Y7088000D01*
X33528000Y7088000D02*
X36121000Y4495000D01*
D25*
G04 #@! TO.N,/CfNeg*
X29731600Y3429000D02*
X29934800Y3632200D01*
D22*
X28503000Y7768200D02*
X28448000Y7823200D01*
X30850300Y7768200D02*
X28503000Y7768200D01*
X28448000Y7823200D02*
X28448000Y7823200D01*
X26079200Y6763542D02*
X26351458Y7035800D01*
X27660600Y7035800D02*
X28448000Y7823200D01*
X26351458Y7035800D02*
X27660600Y7035800D01*
D23*
X26079200Y6763542D02*
X26079200Y6263542D01*
D26*
X29934800Y4978400D02*
X29934800Y3632200D01*
D22*
X29731600Y3429000D02*
X30110711Y3361544D01*
X29207000Y2904400D02*
X29731600Y3429000D01*
X29207000Y2904400D02*
X29207000Y2904400D01*
X32084400Y7768200D02*
X32105600Y7747000D01*
X30850300Y7768200D02*
X32084400Y7768200D01*
D26*
X29768800Y3632200D02*
X29210000Y3073400D01*
X29934800Y3632200D02*
X29768800Y3632200D01*
X28953000Y2816400D02*
X29210000Y3073400D01*
X28953000Y2032000D02*
X28953000Y2816400D01*
D22*
G04 #@! TO.N,/5V*
X425710Y14105200D02*
X417510Y14097000D01*
D27*
X358610Y14067000D02*
X328610Y14097000D01*
D22*
X1600000Y14067000D02*
X358610Y14067000D01*
X2713200Y14067000D02*
X2768600Y14122400D01*
X1600000Y14067000D02*
X2713200Y14067000D01*
X4575400Y6578600D02*
X4604000Y6550000D01*
X3454400Y6578600D02*
X4575400Y6578600D01*
X37795200Y10549200D02*
X37787000Y10541000D01*
X37795200Y11506200D02*
X37795200Y10549200D01*
X37614200Y10368200D02*
X37787000Y10541000D01*
X36100300Y10368200D02*
X37614200Y10368200D01*
D23*
X39547800Y1193800D02*
X40324090Y1193800D01*
D22*
G04 #@! TO.N,/5.5V_Iso*
X30226000Y14732000D02*
X30226000Y14732000D01*
X30226000Y14732000D02*
X30226000Y14859000D01*
D25*
X8509000Y13677000D02*
X7112000Y13677000D01*
D26*
X6350000Y14478000D02*
X6350000Y14606590D01*
X5911590Y14606590D02*
X6350000Y14606590D01*
X5842000Y14537000D02*
X5911590Y14606590D01*
D22*
X9839200Y10464800D02*
X9854000Y10450000D01*
X8432800Y10464800D02*
X9839200Y10464800D01*
X30850300Y9068200D02*
X32055500Y9068200D01*
X32512000Y9524700D02*
X32512000Y9652000D01*
X32055500Y9068200D02*
X32512000Y9524700D01*
G04 #@! TO.N,/LfNeg*
X9852200Y6550000D02*
X9854000Y6548200D01*
X8509000Y6550000D02*
X9852200Y6550000D01*
D25*
X14561193Y5200042D02*
X14561193Y4700042D01*
D22*
X14561193Y3969393D02*
X14561193Y5200042D01*
X13208000Y3505200D02*
X14097000Y3505200D01*
X14097000Y3505200D02*
X14561193Y3969393D01*
G04 #@! TO.N,/PWMA1*
X1300000Y9339000D02*
X948000Y9339000D01*
X417510Y9869490D02*
X417510Y10033000D01*
X948000Y9339000D02*
X417510Y9869490D01*
D23*
G04 #@! TO.N,/GateA1*
X14548493Y10822342D02*
X14548493Y10322342D01*
D24*
G04 #@! TO.N,/GateA2*
X27533000Y6300000D02*
X27533000Y4900000D01*
D23*
X26079200Y5263542D02*
X26079200Y4763542D01*
D22*
G04 #@! TO.N,/VDDA2*
X31634800Y5683700D02*
X30850300Y6468200D01*
X31634800Y4978400D02*
X31634800Y5683700D01*
D24*
G04 #@! TO.N,/OutB1*
X11833000Y6927000D02*
X11833000Y5527000D01*
D22*
X11560000Y7200000D02*
X11833000Y6927000D01*
X9854000Y7200000D02*
X11560000Y7200000D01*
G04 #@! TO.N,/OutA1*
X11231200Y9798200D02*
X11833000Y10400000D01*
X9854000Y9798200D02*
X11231200Y9798200D01*
D24*
X11833000Y11800000D02*
X11833000Y10400000D01*
D22*
G04 #@! TO.N,/OutA2*
X30850300Y7118200D02*
X29617058Y7118200D01*
X29388558Y7118200D02*
X30850300Y7118200D01*
X28634000Y6262142D02*
X28634000Y6363642D01*
X28634000Y6363642D02*
X29388558Y7118200D01*
D24*
X28667000Y6300000D02*
X28667000Y4900000D01*
D22*
G04 #@! TO.N,/OutB2*
X28888000Y11112500D02*
X28951500Y11176000D01*
X29075800Y9718200D02*
X28888000Y9906000D01*
X30850300Y9718200D02*
X29075800Y9718200D01*
D24*
X28951500Y11176000D02*
X28951500Y9969500D01*
D22*
G04 #@! TO.N,/Vc2Neg*
X8513200Y9148200D02*
X8509000Y9144000D01*
X9854000Y9148200D02*
X8513200Y9148200D01*
D23*
X14548493Y9322342D02*
X14548493Y8822342D01*
D22*
X14222635Y9148200D02*
X14548493Y8822342D01*
X9854000Y9148200D02*
X14222635Y9148200D01*
D23*
X26067793Y10885842D02*
X26067793Y10385842D01*
D25*
X7112000Y11977000D02*
X8509000Y11977000D01*
D22*
X26067793Y11284993D02*
X26067793Y10385842D01*
X26949400Y12166600D02*
X26067793Y11284993D01*
D25*
X30693185Y11791941D02*
X31963185Y11791941D01*
D22*
X30850300Y11634826D02*
X30693185Y11791941D01*
X30850300Y10368200D02*
X30850300Y11634826D01*
D25*
X28956000Y12598400D02*
X29184600Y12598400D01*
X29991059Y11791941D02*
X30693185Y11791941D01*
X29184600Y12598400D02*
X29991059Y11791941D01*
X9906000Y14860590D02*
X9906000Y14097000D01*
X9906000Y14097000D02*
X9906000Y13716006D01*
X9906000Y12319000D02*
X9906000Y13716006D01*
X8509000Y11977000D02*
X9564000Y11977000D01*
X9564000Y11977000D02*
X9906000Y12319000D01*
D22*
G04 #@! TO.N,/PWM2*
X39598500Y8441000D02*
X40476490Y7563010D01*
X39497000Y8441000D02*
X39598500Y8441000D01*
G04 #@! TO.N,/Enable1*
X1300000Y7233000D02*
X1300000Y6507000D01*
X1300000Y6507000D02*
X1270000Y6477000D01*
X5866000Y7850000D02*
X6096000Y7620000D01*
X4604000Y7850000D02*
X5866000Y7850000D01*
G04 #@! TO.N,/In1*
X2989000Y10473000D02*
X2600000Y10473000D01*
X4604000Y9800000D02*
X3662000Y9800000D01*
X3662000Y9800000D02*
X2989000Y10473000D01*
X1300000Y10473000D02*
X2600000Y10473000D01*
G04 #@! TO.N,/DT1*
X4571001Y7232999D02*
X4604000Y7200000D01*
X2600000Y7232999D02*
X4571001Y7232999D01*
G04 #@! TO.N,/DT2*
X37466800Y9718200D02*
X36100300Y9718200D01*
X37787000Y9398000D02*
X37466800Y9718200D01*
G04 #@! TO.N,/In2*
X38227000Y7307000D02*
X39497000Y7307000D01*
X37145800Y7307000D02*
X36957000Y7118200D01*
X38227000Y7307000D02*
X37145800Y7307000D01*
X36100300Y7118200D02*
X36957000Y7118200D01*
D23*
G04 #@! TO.N,/GateB2*
X26067793Y9385842D02*
X26067793Y8885842D01*
D22*
G04 #@! TO.N,/EnableL1*
X1198500Y8367000D02*
X1183500Y8382000D01*
X1300000Y8367000D02*
X1198500Y8367000D01*
X1183500Y8382000D02*
X635000Y8382000D01*
X417510Y8148510D02*
X417510Y7731000D01*
X635000Y8366000D02*
X417510Y8148510D01*
X635000Y8382000D02*
X635000Y8366000D01*
G04 #@! TO.N,/Enable2*
X39370000Y5021000D02*
X39175000Y5021000D01*
X39175000Y5021000D02*
X38481000Y5588000D01*
X38608000Y5588000D02*
X38481000Y5588000D01*
X38481000Y5588000D02*
X38608000Y5588000D01*
X34873800Y9068200D02*
X34798000Y9144000D01*
X36100300Y9068200D02*
X34873800Y9068200D01*
G04 #@! TO.N,/EnableL2*
X39370000Y6155000D02*
X39641200Y6155000D01*
X39641200Y6155000D02*
X40476490Y5319710D01*
G04 #@! TD*
D28*
G04 #@! TO.N,/Vc2Pos*
G36*
X20830657Y7087565D02*
X20894552Y6936196D01*
X20915855Y4560973D01*
X20924097Y4517093D01*
X21001997Y4311604D01*
X21024915Y4273289D01*
X21107140Y4178729D01*
X21150318Y4146494D01*
X21389906Y4037331D01*
X21442563Y4025900D01*
X22326974Y4025900D01*
X22378007Y4036605D01*
X22611665Y4139140D01*
X22654095Y4169449D01*
X22768021Y4293281D01*
X22792877Y4333120D01*
X22876719Y4548086D01*
X22885400Y4594233D01*
X22885400Y4786882D01*
X22885399Y4787319D01*
X22885392Y4789355D01*
X22885390Y4789732D01*
X22873091Y6708446D01*
X22886645Y6775569D01*
X22892855Y6790061D01*
X22904282Y6813357D01*
X22924925Y6850514D01*
X22970517Y6901581D01*
X23027207Y6929376D01*
X23103084Y6932947D01*
X23169772Y6903131D01*
X23222286Y6847619D01*
X23225729Y6842453D01*
X23250165Y6776774D01*
X23251703Y6764473D01*
X23253664Y6732584D01*
X23250759Y4788912D01*
X23250760Y4788159D01*
X23250777Y4784326D01*
X23250783Y4783545D01*
X23252367Y4633859D01*
X23261911Y4586884D01*
X23351460Y4369216D01*
X23377736Y4329124D01*
X23602377Y4097463D01*
X23644048Y4068919D01*
X23871981Y3972445D01*
X23921483Y3962400D01*
X24271643Y3962400D01*
X24326028Y3974634D01*
X24571760Y4091081D01*
X24615668Y4125426D01*
X24796873Y4346899D01*
X24817139Y4381791D01*
X24888548Y4567742D01*
X24896845Y4607230D01*
X24904197Y4761612D01*
X24904305Y4764635D01*
X24904664Y4779737D01*
X24904700Y4782755D01*
X24904700Y6257030D01*
X24904690Y6258653D01*
X24904586Y6266792D01*
X24904554Y6268424D01*
X24893391Y6703774D01*
X24902077Y6772165D01*
X24922664Y6821864D01*
X24931525Y6837814D01*
X24977117Y6888881D01*
X25033807Y6916676D01*
X25109684Y6920247D01*
X25176372Y6890431D01*
X25228886Y6834919D01*
X25232329Y6829753D01*
X25256765Y6764074D01*
X25258337Y6751495D01*
X25260300Y6719976D01*
X25260300Y4821706D01*
X25258746Y4793652D01*
X25257159Y4779370D01*
X25256562Y4772094D01*
X25254623Y4735675D01*
X25254444Y4728381D01*
X25271534Y724225D01*
X25208769Y571178D01*
X25175214Y557200D01*
X15447884Y557200D01*
X15443565Y558987D01*
X15380449Y711932D01*
X15388842Y4564444D01*
X15399393Y4617488D01*
X15399393Y5282596D01*
X15390504Y5327285D01*
X15392390Y6193074D01*
X15392381Y6194832D01*
X15392278Y6203662D01*
X15392245Y6205436D01*
X15381091Y6640441D01*
X15389777Y6708832D01*
X15410364Y6758531D01*
X15419225Y6774481D01*
X15464817Y6825548D01*
X15521507Y6853343D01*
X15597384Y6856914D01*
X15664072Y6827098D01*
X15716586Y6771586D01*
X15720029Y6766420D01*
X15744465Y6700741D01*
X15746037Y6688162D01*
X15748000Y6656643D01*
X15748000Y4773825D01*
X15748081Y4769297D01*
X15748888Y4746676D01*
X15749130Y4742155D01*
X15765547Y4512321D01*
X15776166Y4469799D01*
X15863818Y4272541D01*
X15888260Y4236160D01*
X16019868Y4099069D01*
X16061689Y4070190D01*
X16290729Y3972569D01*
X16340524Y3962400D01*
X16823129Y3962400D01*
X16875608Y3973750D01*
X17114551Y4082175D01*
X17157649Y4114195D01*
X17262994Y4234589D01*
X17283843Y4267484D01*
X17360715Y4443890D01*
X17370615Y4481557D01*
X17387685Y4646571D01*
X17388358Y4660118D01*
X17388227Y4694830D01*
X17387777Y4702660D01*
X17387912Y4702668D01*
X17386170Y4732403D01*
X17373947Y6639155D01*
X17383345Y6707863D01*
X17404264Y6758364D01*
X17413125Y6774314D01*
X17458717Y6825381D01*
X17515407Y6853176D01*
X17591284Y6856747D01*
X17657972Y6826931D01*
X17710486Y6771419D01*
X17713929Y6766253D01*
X17738365Y6700574D01*
X17739937Y6687995D01*
X17741900Y6656476D01*
X17741900Y4758206D01*
X17740346Y4730142D01*
X17734958Y4681650D01*
X17734181Y4667875D01*
X17734046Y4598990D01*
X17734769Y4585212D01*
X17747672Y4464782D01*
X17753769Y4437254D01*
X17799061Y4304677D01*
X17811080Y4279174D01*
X17884777Y4159415D01*
X17930417Y4115431D01*
X18197546Y3964349D01*
X18258758Y3947900D01*
X19146588Y3938747D01*
X19206359Y3952996D01*
X19471002Y4090224D01*
X19517088Y4130866D01*
X19619559Y4279449D01*
X19636184Y4313522D01*
X19692311Y4492360D01*
X19698137Y4529822D01*
X19708876Y6935264D01*
X19772420Y7087233D01*
X19924675Y7150100D01*
X20678722Y7150100D01*
X20830657Y7087565D01*
X20830657Y7087565D01*
G37*
X20830657Y7087565D02*
X20894552Y6936196D01*
X20915855Y4560973D01*
X20924097Y4517093D01*
X21001997Y4311604D01*
X21024915Y4273289D01*
X21107140Y4178729D01*
X21150318Y4146494D01*
X21389906Y4037331D01*
X21442563Y4025900D01*
X22326974Y4025900D01*
X22378007Y4036605D01*
X22611665Y4139140D01*
X22654095Y4169449D01*
X22768021Y4293281D01*
X22792877Y4333120D01*
X22876719Y4548086D01*
X22885400Y4594233D01*
X22885400Y4786882D01*
X22885399Y4787319D01*
X22885392Y4789355D01*
X22885390Y4789732D01*
X22873091Y6708446D01*
X22886645Y6775569D01*
X22892855Y6790061D01*
X22904282Y6813357D01*
X22924925Y6850514D01*
X22970517Y6901581D01*
X23027207Y6929376D01*
X23103084Y6932947D01*
X23169772Y6903131D01*
X23222286Y6847619D01*
X23225729Y6842453D01*
X23250165Y6776774D01*
X23251703Y6764473D01*
X23253664Y6732584D01*
X23250759Y4788912D01*
X23250760Y4788159D01*
X23250777Y4784326D01*
X23250783Y4783545D01*
X23252367Y4633859D01*
X23261911Y4586884D01*
X23351460Y4369216D01*
X23377736Y4329124D01*
X23602377Y4097463D01*
X23644048Y4068919D01*
X23871981Y3972445D01*
X23921483Y3962400D01*
X24271643Y3962400D01*
X24326028Y3974634D01*
X24571760Y4091081D01*
X24615668Y4125426D01*
X24796873Y4346899D01*
X24817139Y4381791D01*
X24888548Y4567742D01*
X24896845Y4607230D01*
X24904197Y4761612D01*
X24904305Y4764635D01*
X24904664Y4779737D01*
X24904700Y4782755D01*
X24904700Y6257030D01*
X24904690Y6258653D01*
X24904586Y6266792D01*
X24904554Y6268424D01*
X24893391Y6703774D01*
X24902077Y6772165D01*
X24922664Y6821864D01*
X24931525Y6837814D01*
X24977117Y6888881D01*
X25033807Y6916676D01*
X25109684Y6920247D01*
X25176372Y6890431D01*
X25228886Y6834919D01*
X25232329Y6829753D01*
X25256765Y6764074D01*
X25258337Y6751495D01*
X25260300Y6719976D01*
X25260300Y4821706D01*
X25258746Y4793652D01*
X25257159Y4779370D01*
X25256562Y4772094D01*
X25254623Y4735675D01*
X25254444Y4728381D01*
X25271534Y724225D01*
X25208769Y571178D01*
X25175214Y557200D01*
X15447884Y557200D01*
X15443565Y558987D01*
X15380449Y711932D01*
X15388842Y4564444D01*
X15399393Y4617488D01*
X15399393Y5282596D01*
X15390504Y5327285D01*
X15392390Y6193074D01*
X15392381Y6194832D01*
X15392278Y6203662D01*
X15392245Y6205436D01*
X15381091Y6640441D01*
X15389777Y6708832D01*
X15410364Y6758531D01*
X15419225Y6774481D01*
X15464817Y6825548D01*
X15521507Y6853343D01*
X15597384Y6856914D01*
X15664072Y6827098D01*
X15716586Y6771586D01*
X15720029Y6766420D01*
X15744465Y6700741D01*
X15746037Y6688162D01*
X15748000Y6656643D01*
X15748000Y4773825D01*
X15748081Y4769297D01*
X15748888Y4746676D01*
X15749130Y4742155D01*
X15765547Y4512321D01*
X15776166Y4469799D01*
X15863818Y4272541D01*
X15888260Y4236160D01*
X16019868Y4099069D01*
X16061689Y4070190D01*
X16290729Y3972569D01*
X16340524Y3962400D01*
X16823129Y3962400D01*
X16875608Y3973750D01*
X17114551Y4082175D01*
X17157649Y4114195D01*
X17262994Y4234589D01*
X17283843Y4267484D01*
X17360715Y4443890D01*
X17370615Y4481557D01*
X17387685Y4646571D01*
X17388358Y4660118D01*
X17388227Y4694830D01*
X17387777Y4702660D01*
X17387912Y4702668D01*
X17386170Y4732403D01*
X17373947Y6639155D01*
X17383345Y6707863D01*
X17404264Y6758364D01*
X17413125Y6774314D01*
X17458717Y6825381D01*
X17515407Y6853176D01*
X17591284Y6856747D01*
X17657972Y6826931D01*
X17710486Y6771419D01*
X17713929Y6766253D01*
X17738365Y6700574D01*
X17739937Y6687995D01*
X17741900Y6656476D01*
X17741900Y4758206D01*
X17740346Y4730142D01*
X17734958Y4681650D01*
X17734181Y4667875D01*
X17734046Y4598990D01*
X17734769Y4585212D01*
X17747672Y4464782D01*
X17753769Y4437254D01*
X17799061Y4304677D01*
X17811080Y4279174D01*
X17884777Y4159415D01*
X17930417Y4115431D01*
X18197546Y3964349D01*
X18258758Y3947900D01*
X19146588Y3938747D01*
X19206359Y3952996D01*
X19471002Y4090224D01*
X19517088Y4130866D01*
X19619559Y4279449D01*
X19636184Y4313522D01*
X19692311Y4492360D01*
X19698137Y4529822D01*
X19708876Y6935264D01*
X19772420Y7087233D01*
X19924675Y7150100D01*
X20678722Y7150100D01*
X20830657Y7087565D01*
G04 #@! TO.N,/Vc2Neg*
G36*
X24194938Y14669123D02*
X24258472Y14517130D01*
X24268258Y12245594D01*
X24268255Y12242710D01*
X24257011Y10682811D01*
X24257009Y10682340D01*
X24257001Y10680052D01*
X24257000Y10679608D01*
X24257000Y8936505D01*
X24255446Y8908446D01*
X24249532Y8855221D01*
X24240289Y8813137D01*
X24217244Y8775850D01*
X24217094Y8775700D01*
X24052241Y8775700D01*
X23970913Y8742013D01*
X23942633Y8763613D01*
X23922236Y8791913D01*
X23905351Y8845966D01*
X23903952Y8855762D01*
X23901400Y8891664D01*
X23901400Y10346629D01*
X23901391Y10348171D01*
X23901297Y10355912D01*
X23901268Y10357467D01*
X23889168Y10853539D01*
X23888696Y10861815D01*
X23884985Y10903088D01*
X23883972Y10911321D01*
X23840214Y11191367D01*
X23827362Y11230452D01*
X23733547Y11410477D01*
X23708874Y11443402D01*
X23557404Y11588814D01*
X23518360Y11614403D01*
X23306619Y11702759D01*
X23260966Y11712512D01*
X23003823Y11719105D01*
X22960324Y11712602D01*
X22754893Y11643967D01*
X22716220Y11623016D01*
X22524099Y11470644D01*
X22495939Y11439430D01*
X22384472Y11264651D01*
X22368045Y11225954D01*
X22262636Y10786030D01*
X22260017Y10771337D01*
X22251277Y10697356D01*
X22250400Y10682456D01*
X22250400Y8936505D01*
X22248846Y8908443D01*
X22241154Y8839212D01*
X22235116Y8811725D01*
X22234985Y8805126D01*
X22233880Y8805310D01*
X22228957Y8775700D01*
X22121841Y8775700D01*
X21900020Y8683819D01*
X18581322Y8661913D01*
X18429259Y8724900D01*
X18402287Y8724900D01*
X18398239Y8730516D01*
X18382878Y8782532D01*
X18378454Y8822346D01*
X18376900Y8850406D01*
X18376900Y10311131D01*
X18376890Y10312754D01*
X18376786Y10320893D01*
X18376754Y10322525D01*
X18364750Y10790673D01*
X18364180Y10799875D01*
X18359662Y10845713D01*
X18358425Y10854846D01*
X18303842Y11171245D01*
X18290893Y11209150D01*
X18198246Y11383875D01*
X18174137Y11415861D01*
X18001833Y11581784D01*
X17959718Y11608688D01*
X17731348Y11697382D01*
X17682115Y11705955D01*
X17416261Y11699138D01*
X17379396Y11692676D01*
X17203782Y11634204D01*
X17170401Y11617277D01*
X16964613Y11471234D01*
X16930184Y11434598D01*
X16800321Y11225192D01*
X16782805Y11178066D01*
X16731339Y10852114D01*
X16730174Y10842240D01*
X16726289Y10792722D01*
X16725900Y10782789D01*
X16725900Y8885705D01*
X16724346Y8857646D01*
X16718432Y8804421D01*
X16709189Y8762337D01*
X16686144Y8725050D01*
X16676405Y8715311D01*
X16655485Y8696587D01*
X16645640Y8688710D01*
X16617681Y8675682D01*
X16498859Y8724900D01*
X16402821Y8724900D01*
X16391639Y8740415D01*
X16376278Y8792431D01*
X16371854Y8832245D01*
X16370300Y8860305D01*
X16370300Y10319980D01*
X16370392Y10326758D01*
X16382838Y10787281D01*
X16382872Y10788995D01*
X16382988Y10797573D01*
X16383000Y10799290D01*
X16383000Y14516237D01*
X16446196Y14668804D01*
X16598763Y14732000D01*
X24042675Y14732000D01*
X24194938Y14669123D01*
X24194938Y14669123D01*
G37*
X24194938Y14669123D02*
X24258472Y14517130D01*
X24268258Y12245594D01*
X24268255Y12242710D01*
X24257011Y10682811D01*
X24257009Y10682340D01*
X24257001Y10680052D01*
X24257000Y10679608D01*
X24257000Y8936505D01*
X24255446Y8908446D01*
X24249532Y8855221D01*
X24240289Y8813137D01*
X24217244Y8775850D01*
X24217094Y8775700D01*
X24052241Y8775700D01*
X23970913Y8742013D01*
X23942633Y8763613D01*
X23922236Y8791913D01*
X23905351Y8845966D01*
X23903952Y8855762D01*
X23901400Y8891664D01*
X23901400Y10346629D01*
X23901391Y10348171D01*
X23901297Y10355912D01*
X23901268Y10357467D01*
X23889168Y10853539D01*
X23888696Y10861815D01*
X23884985Y10903088D01*
X23883972Y10911321D01*
X23840214Y11191367D01*
X23827362Y11230452D01*
X23733547Y11410477D01*
X23708874Y11443402D01*
X23557404Y11588814D01*
X23518360Y11614403D01*
X23306619Y11702759D01*
X23260966Y11712512D01*
X23003823Y11719105D01*
X22960324Y11712602D01*
X22754893Y11643967D01*
X22716220Y11623016D01*
X22524099Y11470644D01*
X22495939Y11439430D01*
X22384472Y11264651D01*
X22368045Y11225954D01*
X22262636Y10786030D01*
X22260017Y10771337D01*
X22251277Y10697356D01*
X22250400Y10682456D01*
X22250400Y8936505D01*
X22248846Y8908443D01*
X22241154Y8839212D01*
X22235116Y8811725D01*
X22234985Y8805126D01*
X22233880Y8805310D01*
X22228957Y8775700D01*
X22121841Y8775700D01*
X21900020Y8683819D01*
X18581322Y8661913D01*
X18429259Y8724900D01*
X18402287Y8724900D01*
X18398239Y8730516D01*
X18382878Y8782532D01*
X18378454Y8822346D01*
X18376900Y8850406D01*
X18376900Y10311131D01*
X18376890Y10312754D01*
X18376786Y10320893D01*
X18376754Y10322525D01*
X18364750Y10790673D01*
X18364180Y10799875D01*
X18359662Y10845713D01*
X18358425Y10854846D01*
X18303842Y11171245D01*
X18290893Y11209150D01*
X18198246Y11383875D01*
X18174137Y11415861D01*
X18001833Y11581784D01*
X17959718Y11608688D01*
X17731348Y11697382D01*
X17682115Y11705955D01*
X17416261Y11699138D01*
X17379396Y11692676D01*
X17203782Y11634204D01*
X17170401Y11617277D01*
X16964613Y11471234D01*
X16930184Y11434598D01*
X16800321Y11225192D01*
X16782805Y11178066D01*
X16731339Y10852114D01*
X16730174Y10842240D01*
X16726289Y10792722D01*
X16725900Y10782789D01*
X16725900Y8885705D01*
X16724346Y8857646D01*
X16718432Y8804421D01*
X16709189Y8762337D01*
X16686144Y8725050D01*
X16676405Y8715311D01*
X16655485Y8696587D01*
X16645640Y8688710D01*
X16617681Y8675682D01*
X16498859Y8724900D01*
X16402821Y8724900D01*
X16391639Y8740415D01*
X16376278Y8792431D01*
X16371854Y8832245D01*
X16370300Y8860305D01*
X16370300Y10319980D01*
X16370392Y10326758D01*
X16382838Y10787281D01*
X16382872Y10788995D01*
X16382988Y10797573D01*
X16383000Y10799290D01*
X16383000Y14516237D01*
X16446196Y14668804D01*
X16598763Y14732000D01*
X24042675Y14732000D01*
X24194938Y14669123D01*
G04 #@! TO.N,/LfNeg*
G36*
X15638672Y10941731D02*
X15691186Y10886219D01*
X15694629Y10881053D01*
X15719065Y10815374D01*
X15720637Y10802795D01*
X15722600Y10771276D01*
X15722600Y8889659D01*
X15722615Y8887716D01*
X15722764Y8877978D01*
X15722809Y8876026D01*
X15731294Y8599530D01*
X15742598Y8550914D01*
X15843772Y8328114D01*
X15872936Y8287611D01*
X15885776Y8275674D01*
X15926544Y8250197D01*
X16146749Y8165261D01*
X16194064Y8156762D01*
X16836782Y8164918D01*
X16872744Y8170593D01*
X17044833Y8223892D01*
X17077706Y8239536D01*
X17132896Y8276329D01*
X17173793Y8320911D01*
X17310481Y8570043D01*
X17326110Y8628487D01*
X17372095Y10835755D01*
X17386809Y10895303D01*
X17423432Y10931926D01*
X17456979Y10948700D01*
X17490248Y10962480D01*
X17502159Y10966450D01*
X17575240Y10966450D01*
X17595396Y10959731D01*
X17618231Y10950875D01*
X17644236Y10939317D01*
X17702824Y10893471D01*
X17730822Y10814105D01*
X17741863Y10173775D01*
X17741900Y10169454D01*
X17741900Y9421321D01*
X17741903Y9420466D01*
X17741932Y9416156D01*
X17741941Y9415287D01*
X17752364Y8647448D01*
X17768441Y8587304D01*
X17910389Y8332832D01*
X17953116Y8287555D01*
X18014814Y8248292D01*
X18047491Y8233502D01*
X18217949Y8183865D01*
X18253456Y8178800D01*
X18384795Y8178800D01*
X18417768Y8165142D01*
X18537010Y8165142D01*
X18656604Y8115604D01*
X18719800Y7963037D01*
X18719800Y7143068D01*
X18719820Y7140805D01*
X18720022Y7129473D01*
X18720083Y7127203D01*
X18732338Y6784079D01*
X18732500Y6774991D01*
X18732500Y6655844D01*
X18732501Y6655418D01*
X18732508Y6653330D01*
X18732510Y6652921D01*
X18745055Y4745923D01*
X18743508Y4716203D01*
X18737732Y4664221D01*
X18728489Y4622137D01*
X18705444Y4584850D01*
X18695705Y4575111D01*
X18674785Y4556387D01*
X18664940Y4548510D01*
X18635510Y4534797D01*
X18629085Y4533512D01*
X18615149Y4531125D01*
X18587214Y4527134D01*
X18527334Y4526609D01*
X18462977Y4548061D01*
X18430833Y4572613D01*
X18410939Y4600215D01*
X18395578Y4652231D01*
X18391154Y4692045D01*
X18389600Y4720105D01*
X18389600Y6180830D01*
X18389590Y6182453D01*
X18389486Y6190592D01*
X18389454Y6192225D01*
X18378117Y6634344D01*
X18378005Y6637337D01*
X18377268Y6652298D01*
X18377085Y6655289D01*
X18347891Y7055501D01*
X18335009Y7102679D01*
X18228415Y7317653D01*
X18198661Y7356464D01*
X18169944Y7381803D01*
X18130833Y7405366D01*
X17920768Y7484792D01*
X17875852Y7493000D01*
X17200313Y7493000D01*
X17151712Y7483333D01*
X16927205Y7390339D01*
X16886003Y7362809D01*
X16868791Y7345597D01*
X16841261Y7304395D01*
X16748267Y7079888D01*
X16738600Y7031287D01*
X16738600Y4758205D01*
X16737046Y4730146D01*
X16731132Y4676921D01*
X16721889Y4634837D01*
X16698844Y4597550D01*
X16689105Y4587811D01*
X16668185Y4569087D01*
X16658340Y4561210D01*
X16628910Y4547497D01*
X16622485Y4546212D01*
X16608549Y4543825D01*
X16580614Y4539834D01*
X16520734Y4539309D01*
X16456377Y4560761D01*
X16424233Y4585313D01*
X16404339Y4612915D01*
X16388978Y4664931D01*
X16384554Y4704745D01*
X16383000Y4732805D01*
X16383000Y6193530D01*
X16382990Y6195153D01*
X16382886Y6203292D01*
X16382854Y6204924D01*
X16370840Y6673454D01*
X16372842Y6689215D01*
X16376166Y6714341D01*
X16377248Y6732931D01*
X16372260Y7060437D01*
X16361471Y7109761D01*
X16265040Y7328358D01*
X16235881Y7369585D01*
X16233114Y7372189D01*
X16192895Y7397759D01*
X15975292Y7484055D01*
X15928474Y7493000D01*
X14058763Y7493000D01*
X13906196Y7556196D01*
X13843000Y7708763D01*
X13843000Y7959614D01*
X13906949Y8112893D01*
X14060873Y8175275D01*
X14123431Y8174637D01*
X14246221Y8092591D01*
X14548493Y8032465D01*
X14850766Y8092591D01*
X15048240Y8224539D01*
X15086255Y8236996D01*
X15122909Y8256082D01*
X15168737Y8290453D01*
X15205225Y8333484D01*
X15332069Y8577535D01*
X15346319Y8632125D01*
X15354126Y8881179D01*
X15354162Y8882589D01*
X15354306Y8889705D01*
X15354327Y8891141D01*
X15366946Y10305781D01*
X15366947Y10307979D01*
X15366855Y10318949D01*
X15366817Y10321139D01*
X15355691Y10755074D01*
X15364377Y10823465D01*
X15384964Y10873164D01*
X15393825Y10889114D01*
X15439417Y10940181D01*
X15496107Y10967976D01*
X15571984Y10971547D01*
X15638672Y10941731D01*
X15638672Y10941731D01*
G37*
X15638672Y10941731D02*
X15691186Y10886219D01*
X15694629Y10881053D01*
X15719065Y10815374D01*
X15720637Y10802795D01*
X15722600Y10771276D01*
X15722600Y8889659D01*
X15722615Y8887716D01*
X15722764Y8877978D01*
X15722809Y8876026D01*
X15731294Y8599530D01*
X15742598Y8550914D01*
X15843772Y8328114D01*
X15872936Y8287611D01*
X15885776Y8275674D01*
X15926544Y8250197D01*
X16146749Y8165261D01*
X16194064Y8156762D01*
X16836782Y8164918D01*
X16872744Y8170593D01*
X17044833Y8223892D01*
X17077706Y8239536D01*
X17132896Y8276329D01*
X17173793Y8320911D01*
X17310481Y8570043D01*
X17326110Y8628487D01*
X17372095Y10835755D01*
X17386809Y10895303D01*
X17423432Y10931926D01*
X17456979Y10948700D01*
X17490248Y10962480D01*
X17502159Y10966450D01*
X17575240Y10966450D01*
X17595396Y10959731D01*
X17618231Y10950875D01*
X17644236Y10939317D01*
X17702824Y10893471D01*
X17730822Y10814105D01*
X17741863Y10173775D01*
X17741900Y10169454D01*
X17741900Y9421321D01*
X17741903Y9420466D01*
X17741932Y9416156D01*
X17741941Y9415287D01*
X17752364Y8647448D01*
X17768441Y8587304D01*
X17910389Y8332832D01*
X17953116Y8287555D01*
X18014814Y8248292D01*
X18047491Y8233502D01*
X18217949Y8183865D01*
X18253456Y8178800D01*
X18384795Y8178800D01*
X18417768Y8165142D01*
X18537010Y8165142D01*
X18656604Y8115604D01*
X18719800Y7963037D01*
X18719800Y7143068D01*
X18719820Y7140805D01*
X18720022Y7129473D01*
X18720083Y7127203D01*
X18732338Y6784079D01*
X18732500Y6774991D01*
X18732500Y6655844D01*
X18732501Y6655418D01*
X18732508Y6653330D01*
X18732510Y6652921D01*
X18745055Y4745923D01*
X18743508Y4716203D01*
X18737732Y4664221D01*
X18728489Y4622137D01*
X18705444Y4584850D01*
X18695705Y4575111D01*
X18674785Y4556387D01*
X18664940Y4548510D01*
X18635510Y4534797D01*
X18629085Y4533512D01*
X18615149Y4531125D01*
X18587214Y4527134D01*
X18527334Y4526609D01*
X18462977Y4548061D01*
X18430833Y4572613D01*
X18410939Y4600215D01*
X18395578Y4652231D01*
X18391154Y4692045D01*
X18389600Y4720105D01*
X18389600Y6180830D01*
X18389590Y6182453D01*
X18389486Y6190592D01*
X18389454Y6192225D01*
X18378117Y6634344D01*
X18378005Y6637337D01*
X18377268Y6652298D01*
X18377085Y6655289D01*
X18347891Y7055501D01*
X18335009Y7102679D01*
X18228415Y7317653D01*
X18198661Y7356464D01*
X18169944Y7381803D01*
X18130833Y7405366D01*
X17920768Y7484792D01*
X17875852Y7493000D01*
X17200313Y7493000D01*
X17151712Y7483333D01*
X16927205Y7390339D01*
X16886003Y7362809D01*
X16868791Y7345597D01*
X16841261Y7304395D01*
X16748267Y7079888D01*
X16738600Y7031287D01*
X16738600Y4758205D01*
X16737046Y4730146D01*
X16731132Y4676921D01*
X16721889Y4634837D01*
X16698844Y4597550D01*
X16689105Y4587811D01*
X16668185Y4569087D01*
X16658340Y4561210D01*
X16628910Y4547497D01*
X16622485Y4546212D01*
X16608549Y4543825D01*
X16580614Y4539834D01*
X16520734Y4539309D01*
X16456377Y4560761D01*
X16424233Y4585313D01*
X16404339Y4612915D01*
X16388978Y4664931D01*
X16384554Y4704745D01*
X16383000Y4732805D01*
X16383000Y6193530D01*
X16382990Y6195153D01*
X16382886Y6203292D01*
X16382854Y6204924D01*
X16370840Y6673454D01*
X16372842Y6689215D01*
X16376166Y6714341D01*
X16377248Y6732931D01*
X16372260Y7060437D01*
X16361471Y7109761D01*
X16265040Y7328358D01*
X16235881Y7369585D01*
X16233114Y7372189D01*
X16192895Y7397759D01*
X15975292Y7484055D01*
X15928474Y7493000D01*
X14058763Y7493000D01*
X13906196Y7556196D01*
X13843000Y7708763D01*
X13843000Y7959614D01*
X13906949Y8112893D01*
X14060873Y8175275D01*
X14123431Y8174637D01*
X14246221Y8092591D01*
X14548493Y8032465D01*
X14850766Y8092591D01*
X15048240Y8224539D01*
X15086255Y8236996D01*
X15122909Y8256082D01*
X15168737Y8290453D01*
X15205225Y8333484D01*
X15332069Y8577535D01*
X15346319Y8632125D01*
X15354126Y8881179D01*
X15354162Y8882589D01*
X15354306Y8889705D01*
X15354327Y8891141D01*
X15366946Y10305781D01*
X15366947Y10307979D01*
X15366855Y10318949D01*
X15366817Y10321139D01*
X15355691Y10755074D01*
X15364377Y10823465D01*
X15384964Y10873164D01*
X15393825Y10889114D01*
X15439417Y10940181D01*
X15496107Y10967976D01*
X15571984Y10971547D01*
X15638672Y10941731D01*
G04 #@! TO.N,/CfNeg*
G36*
X23169772Y11005231D02*
X23222286Y10949719D01*
X23225729Y10944553D01*
X23250165Y10878874D01*
X23251737Y10866295D01*
X23253700Y10834776D01*
X23253700Y9179489D01*
X23253709Y9177962D01*
X23253801Y9170313D01*
X23253829Y9168780D01*
X23263047Y8786310D01*
X23275175Y8735130D01*
X23385058Y8502488D01*
X23416884Y8460611D01*
X23500391Y8388492D01*
X23539116Y8365580D01*
X23746641Y8288371D01*
X23790925Y8280400D01*
X23812113Y8280400D01*
X23937068Y8228642D01*
X24198518Y8228642D01*
X24323473Y8280400D01*
X24402987Y8280400D01*
X24448121Y8288690D01*
X24659056Y8368888D01*
X24698296Y8392677D01*
X24736670Y8426787D01*
X24766910Y8467003D01*
X24873132Y8689551D01*
X24885381Y8738354D01*
X24904220Y9143328D01*
X24904323Y9146278D01*
X24904666Y9161032D01*
X24904700Y9163984D01*
X24904700Y10359130D01*
X24904690Y10360753D01*
X24904586Y10368892D01*
X24904554Y10370524D01*
X24893391Y10805874D01*
X24902077Y10874265D01*
X24922664Y10923964D01*
X24931525Y10939914D01*
X24977117Y10990981D01*
X25033807Y11018776D01*
X25109684Y11022347D01*
X25176372Y10992531D01*
X25228886Y10937019D01*
X25232329Y10931853D01*
X25256765Y10866174D01*
X25258337Y10853595D01*
X25260300Y10822076D01*
X25260300Y8679096D01*
X25268415Y8634427D01*
X25346972Y8425352D01*
X25370280Y8386391D01*
X25463551Y8279795D01*
X25506649Y8247775D01*
X25745592Y8139350D01*
X25798071Y8128000D01*
X25906743Y8128000D01*
X26067793Y8095965D01*
X26228843Y8128000D01*
X26351538Y8128000D01*
X26498688Y8070270D01*
X26567327Y7927885D01*
X26577331Y7795330D01*
X26551027Y7679749D01*
X26464205Y7599051D01*
X26370316Y7553726D01*
X26267683Y7528646D01*
X24722384Y7482921D01*
X24687124Y7476836D01*
X24518572Y7422424D01*
X24486411Y7406745D01*
X24431454Y7369555D01*
X24390292Y7323611D01*
X24259814Y7076162D01*
X24245155Y7016243D01*
X24256883Y4834743D01*
X24255334Y4805337D01*
X24249531Y4753119D01*
X24240289Y4711037D01*
X24217244Y4673750D01*
X24207505Y4664011D01*
X24186585Y4645287D01*
X24176740Y4637410D01*
X24147310Y4623697D01*
X24140885Y4622412D01*
X24126949Y4620025D01*
X24099014Y4616034D01*
X24039134Y4615509D01*
X23974777Y4636961D01*
X23942633Y4661513D01*
X23922739Y4689115D01*
X23907378Y4741131D01*
X23902954Y4780945D01*
X23901400Y4809005D01*
X23901400Y6269730D01*
X23901390Y6271353D01*
X23901286Y6279491D01*
X23901254Y6281123D01*
X23895917Y6489276D01*
X23888129Y6523780D01*
X23877865Y7119131D01*
X23863314Y7176006D01*
X23772530Y7348816D01*
X23733945Y7393076D01*
X23725950Y7398790D01*
X23691701Y7416136D01*
X23511355Y7475314D01*
X23473475Y7481632D01*
X22720741Y7491804D01*
X22686893Y7487684D01*
X22523441Y7444938D01*
X22491909Y7431960D01*
X22447086Y7405992D01*
X22400717Y7359520D01*
X22280067Y7150186D01*
X22263100Y7086768D01*
X22263100Y6447493D01*
X22260067Y6442954D01*
X22250400Y6394353D01*
X22250400Y4834405D01*
X22248846Y4806346D01*
X22242932Y4753121D01*
X22233689Y4711037D01*
X22210644Y4673750D01*
X22200905Y4664011D01*
X22179985Y4645287D01*
X22170140Y4637410D01*
X22140710Y4623697D01*
X22134285Y4622412D01*
X22120349Y4620025D01*
X22092414Y4616034D01*
X22032534Y4615509D01*
X21968177Y4636961D01*
X21936033Y4661513D01*
X21916139Y4689115D01*
X21900778Y4741131D01*
X21896354Y4780945D01*
X21894800Y4809005D01*
X21894800Y6670288D01*
X21894738Y6674249D01*
X21894120Y6694054D01*
X21893935Y6698015D01*
X21844494Y7489067D01*
X21844000Y7504886D01*
X21844000Y8068093D01*
X21900683Y8214152D01*
X21933170Y8230257D01*
X21937068Y8228642D01*
X22198518Y8228642D01*
X22412488Y8317271D01*
X22493567Y8324591D01*
X22538556Y8337291D01*
X22744390Y8439330D01*
X22783640Y8469578D01*
X22806379Y8507168D01*
X22889497Y8721343D01*
X22898100Y8767291D01*
X22898100Y10371830D01*
X22898090Y10373453D01*
X22897986Y10381592D01*
X22897954Y10383224D01*
X22886791Y10818574D01*
X22895477Y10886965D01*
X22916064Y10936664D01*
X22924925Y10952614D01*
X22970517Y11003681D01*
X23027207Y11031476D01*
X23103084Y11035047D01*
X23169772Y11005231D01*
X23169772Y11005231D01*
G37*
X23169772Y11005231D02*
X23222286Y10949719D01*
X23225729Y10944553D01*
X23250165Y10878874D01*
X23251737Y10866295D01*
X23253700Y10834776D01*
X23253700Y9179489D01*
X23253709Y9177962D01*
X23253801Y9170313D01*
X23253829Y9168780D01*
X23263047Y8786310D01*
X23275175Y8735130D01*
X23385058Y8502488D01*
X23416884Y8460611D01*
X23500391Y8388492D01*
X23539116Y8365580D01*
X23746641Y8288371D01*
X23790925Y8280400D01*
X23812113Y8280400D01*
X23937068Y8228642D01*
X24198518Y8228642D01*
X24323473Y8280400D01*
X24402987Y8280400D01*
X24448121Y8288690D01*
X24659056Y8368888D01*
X24698296Y8392677D01*
X24736670Y8426787D01*
X24766910Y8467003D01*
X24873132Y8689551D01*
X24885381Y8738354D01*
X24904220Y9143328D01*
X24904323Y9146278D01*
X24904666Y9161032D01*
X24904700Y9163984D01*
X24904700Y10359130D01*
X24904690Y10360753D01*
X24904586Y10368892D01*
X24904554Y10370524D01*
X24893391Y10805874D01*
X24902077Y10874265D01*
X24922664Y10923964D01*
X24931525Y10939914D01*
X24977117Y10990981D01*
X25033807Y11018776D01*
X25109684Y11022347D01*
X25176372Y10992531D01*
X25228886Y10937019D01*
X25232329Y10931853D01*
X25256765Y10866174D01*
X25258337Y10853595D01*
X25260300Y10822076D01*
X25260300Y8679096D01*
X25268415Y8634427D01*
X25346972Y8425352D01*
X25370280Y8386391D01*
X25463551Y8279795D01*
X25506649Y8247775D01*
X25745592Y8139350D01*
X25798071Y8128000D01*
X25906743Y8128000D01*
X26067793Y8095965D01*
X26228843Y8128000D01*
X26351538Y8128000D01*
X26498688Y8070270D01*
X26567327Y7927885D01*
X26577331Y7795330D01*
X26551027Y7679749D01*
X26464205Y7599051D01*
X26370316Y7553726D01*
X26267683Y7528646D01*
X24722384Y7482921D01*
X24687124Y7476836D01*
X24518572Y7422424D01*
X24486411Y7406745D01*
X24431454Y7369555D01*
X24390292Y7323611D01*
X24259814Y7076162D01*
X24245155Y7016243D01*
X24256883Y4834743D01*
X24255334Y4805337D01*
X24249531Y4753119D01*
X24240289Y4711037D01*
X24217244Y4673750D01*
X24207505Y4664011D01*
X24186585Y4645287D01*
X24176740Y4637410D01*
X24147310Y4623697D01*
X24140885Y4622412D01*
X24126949Y4620025D01*
X24099014Y4616034D01*
X24039134Y4615509D01*
X23974777Y4636961D01*
X23942633Y4661513D01*
X23922739Y4689115D01*
X23907378Y4741131D01*
X23902954Y4780945D01*
X23901400Y4809005D01*
X23901400Y6269730D01*
X23901390Y6271353D01*
X23901286Y6279491D01*
X23901254Y6281123D01*
X23895917Y6489276D01*
X23888129Y6523780D01*
X23877865Y7119131D01*
X23863314Y7176006D01*
X23772530Y7348816D01*
X23733945Y7393076D01*
X23725950Y7398790D01*
X23691701Y7416136D01*
X23511355Y7475314D01*
X23473475Y7481632D01*
X22720741Y7491804D01*
X22686893Y7487684D01*
X22523441Y7444938D01*
X22491909Y7431960D01*
X22447086Y7405992D01*
X22400717Y7359520D01*
X22280067Y7150186D01*
X22263100Y7086768D01*
X22263100Y6447493D01*
X22260067Y6442954D01*
X22250400Y6394353D01*
X22250400Y4834405D01*
X22248846Y4806346D01*
X22242932Y4753121D01*
X22233689Y4711037D01*
X22210644Y4673750D01*
X22200905Y4664011D01*
X22179985Y4645287D01*
X22170140Y4637410D01*
X22140710Y4623697D01*
X22134285Y4622412D01*
X22120349Y4620025D01*
X22092414Y4616034D01*
X22032534Y4615509D01*
X21968177Y4636961D01*
X21936033Y4661513D01*
X21916139Y4689115D01*
X21900778Y4741131D01*
X21896354Y4780945D01*
X21894800Y4809005D01*
X21894800Y6670288D01*
X21894738Y6674249D01*
X21894120Y6694054D01*
X21893935Y6698015D01*
X21844494Y7489067D01*
X21844000Y7504886D01*
X21844000Y8068093D01*
X21900683Y8214152D01*
X21933170Y8230257D01*
X21937068Y8228642D01*
X22198518Y8228642D01*
X22412488Y8317271D01*
X22493567Y8324591D01*
X22538556Y8337291D01*
X22744390Y8439330D01*
X22783640Y8469578D01*
X22806379Y8507168D01*
X22889497Y8721343D01*
X22898100Y8767291D01*
X22898100Y10371830D01*
X22898090Y10373453D01*
X22897986Y10381592D01*
X22897954Y10383224D01*
X22886791Y10818574D01*
X22895477Y10886965D01*
X22916064Y10936664D01*
X22924925Y10952614D01*
X22970517Y11003681D01*
X23027207Y11031476D01*
X23103084Y11035047D01*
X23169772Y11005231D01*
G04 #@! TO.N,/GateB2*
G36*
X27990800Y8788400D02*
X25958800Y8788400D01*
X25958800Y9474200D01*
X27000200Y9474200D01*
X27048801Y9483867D01*
X27097764Y9519897D01*
X27605764Y10129497D01*
X27629451Y10173022D01*
X27635177Y10213242D01*
X27612266Y11404600D01*
X27990800Y11404600D01*
X27990800Y8788400D01*
X27990800Y8788400D01*
G37*
X27990800Y8788400D02*
X25958800Y8788400D01*
X25958800Y9474200D01*
X27000200Y9474200D01*
X27048801Y9483867D01*
X27097764Y9519897D01*
X27605764Y10129497D01*
X27629451Y10173022D01*
X27635177Y10213242D01*
X27612266Y11404600D01*
X27990800Y11404600D01*
X27990800Y8788400D01*
G04 #@! TO.N,/GateA1*
G36*
X13517913Y11114926D02*
X13540843Y11070997D01*
X13578839Y11039188D01*
X13629739Y11023999D01*
X14665176Y10941713D01*
X14676745Y10174311D01*
X12827000Y10160923D01*
X12827000Y12065000D01*
X13239843Y12065000D01*
X13517913Y11114926D01*
X13517913Y11114926D01*
G37*
X13517913Y11114926D02*
X13540843Y11070997D01*
X13578839Y11039188D01*
X13629739Y11023999D01*
X14665176Y10941713D01*
X14676745Y10174311D01*
X12827000Y10160923D01*
X12827000Y12065000D01*
X13239843Y12065000D01*
X13517913Y11114926D01*
G04 #@! TO.N,/GateA2*
G36*
X27787600Y4635765D02*
X26009600Y4657990D01*
X26009600Y5348666D01*
X26851141Y5370812D01*
X26899471Y5381754D01*
X26937603Y5407965D01*
X27344003Y5814365D01*
X27371533Y5855567D01*
X27381125Y5908545D01*
X27361085Y6489700D01*
X27606819Y6489700D01*
X27660600Y6479002D01*
X27714381Y6489700D01*
X27714382Y6489700D01*
X27787600Y6504264D01*
X27787600Y4635765D01*
X27787600Y4635765D01*
G37*
X27787600Y4635765D02*
X26009600Y4657990D01*
X26009600Y5348666D01*
X26851141Y5370812D01*
X26899471Y5381754D01*
X26937603Y5407965D01*
X27344003Y5814365D01*
X27371533Y5855567D01*
X27381125Y5908545D01*
X27361085Y6489700D01*
X27606819Y6489700D01*
X27660600Y6479002D01*
X27714381Y6489700D01*
X27714382Y6489700D01*
X27787600Y6504264D01*
X27787600Y4635765D01*
G04 #@! TO.N,/OutB2*
G36*
X29486728Y9806431D02*
X29517491Y9760391D01*
X29580634Y9718200D01*
X29519573Y9677400D01*
X28851412Y9677400D01*
X28835572Y10342677D01*
X29486728Y9806431D01*
X29486728Y9806431D01*
G37*
X29486728Y9806431D02*
X29517491Y9760391D01*
X29580634Y9718200D01*
X29519573Y9677400D01*
X28851412Y9677400D01*
X28835572Y10342677D01*
X29486728Y9806431D01*
G04 #@! TO.N,/5.5V_Iso*
G36*
X34036000Y13208000D02*
X29718000Y13208000D01*
X29718000Y15013000D01*
X34036000Y15013000D01*
X34036000Y13208000D01*
X34036000Y13208000D01*
G37*
X34036000Y13208000D02*
X29718000Y13208000D01*
X29718000Y15013000D01*
X34036000Y15013000D01*
X34036000Y13208000D01*
G36*
X8255000Y13335000D02*
X5461000Y13335000D01*
X5461000Y15013000D01*
X8255000Y15013000D01*
X8255000Y13335000D01*
X8255000Y13335000D01*
G37*
X8255000Y13335000D02*
X5461000Y13335000D01*
X5461000Y15013000D01*
X8255000Y15013000D01*
X8255000Y13335000D01*
G36*
X6096000Y12827000D02*
X5461000Y12827000D01*
X5461000Y13462000D01*
X6096000Y13462000D01*
X6096000Y12827000D01*
X6096000Y12827000D01*
G37*
X6096000Y12827000D02*
X5461000Y12827000D01*
X5461000Y13462000D01*
X6096000Y13462000D01*
X6096000Y12827000D01*
G04 #@! TO.N,/GateB1*
G36*
X13220735Y7163633D02*
X13673583Y6877623D01*
X13741400Y6858000D01*
X14755915Y6858000D01*
X14746137Y6017071D01*
X13713209Y5994369D01*
X13664833Y5983636D01*
X13624246Y5955208D01*
X13607774Y5933854D01*
X13200451Y5270500D01*
X12827000Y5270500D01*
X12827000Y7172581D01*
X13220735Y7163633D01*
X13220735Y7163633D01*
G37*
X13220735Y7163633D02*
X13673583Y6877623D01*
X13741400Y6858000D01*
X14755915Y6858000D01*
X14746137Y6017071D01*
X13713209Y5994369D01*
X13664833Y5983636D01*
X13624246Y5955208D01*
X13607774Y5933854D01*
X13200451Y5270500D01*
X12827000Y5270500D01*
X12827000Y7172581D01*
X13220735Y7163633D01*
G04 #@! TO.N,/LfNeg*
G36*
X13639800Y1027197D02*
X12827000Y1017521D01*
X12827000Y2413000D01*
X12817333Y2461601D01*
X12789803Y2502803D01*
X12748601Y2530333D01*
X12700000Y2540000D01*
X12128500Y2540000D01*
X12128500Y4636410D01*
X13639800Y4647283D01*
X13639800Y1027197D01*
X13639800Y1027197D01*
G37*
X13639800Y1027197D02*
X12827000Y1017521D01*
X12827000Y2413000D01*
X12817333Y2461601D01*
X12789803Y2502803D01*
X12748601Y2530333D01*
X12700000Y2540000D01*
X12128500Y2540000D01*
X12128500Y4636410D01*
X13639800Y4647283D01*
X13639800Y1027197D01*
G04 #@! TO.N,/5.5V_Iso*
G36*
X8890000Y13334318D02*
X8305800Y13331175D01*
X8305800Y14034014D01*
X8890000Y14034014D01*
X8890000Y13334318D01*
X8890000Y13334318D01*
G37*
X8890000Y13334318D02*
X8305800Y13331175D01*
X8305800Y14034014D01*
X8890000Y14034014D01*
X8890000Y13334318D01*
G04 #@! TO.N,/VDDA2*
G36*
X31830583Y6443009D02*
X31877000Y6269779D01*
X31877000Y6096000D01*
X31881327Y6063130D01*
X31966401Y5745630D01*
X31999271Y5688697D01*
X32231697Y5456271D01*
X32288630Y5423401D01*
X32606130Y5338327D01*
X32639000Y5334000D01*
X33070991Y5334000D01*
X33349852Y5278531D01*
X33575655Y5127655D01*
X33726531Y4901852D01*
X33782000Y4622991D01*
X33782000Y4588721D01*
X33693046Y4256741D01*
X33462259Y4025954D01*
X32733130Y3830584D01*
X32676197Y3797714D01*
X32397286Y3518803D01*
X32364416Y3461870D01*
X32262327Y3080870D01*
X32258000Y3048000D01*
X32258000Y1921721D01*
X32186061Y1653241D01*
X32001759Y1468939D01*
X31750000Y1401481D01*
X31498241Y1468939D01*
X31313939Y1653241D01*
X31242000Y1921721D01*
X31242000Y6269779D01*
X31288417Y6443009D01*
X31347451Y6502043D01*
X31725300Y6502043D01*
X31763876Y6509716D01*
X31830583Y6443009D01*
X31830583Y6443009D01*
G37*
X31830583Y6443009D02*
X31877000Y6269779D01*
X31877000Y6096000D01*
X31881327Y6063130D01*
X31966401Y5745630D01*
X31999271Y5688697D01*
X32231697Y5456271D01*
X32288630Y5423401D01*
X32606130Y5338327D01*
X32639000Y5334000D01*
X33070991Y5334000D01*
X33349852Y5278531D01*
X33575655Y5127655D01*
X33726531Y4901852D01*
X33782000Y4622991D01*
X33782000Y4588721D01*
X33693046Y4256741D01*
X33462259Y4025954D01*
X32733130Y3830584D01*
X32676197Y3797714D01*
X32397286Y3518803D01*
X32364416Y3461870D01*
X32262327Y3080870D01*
X32258000Y3048000D01*
X32258000Y1921721D01*
X32186061Y1653241D01*
X32001759Y1468939D01*
X31750000Y1401481D01*
X31498241Y1468939D01*
X31313939Y1653241D01*
X31242000Y1921721D01*
X31242000Y6269779D01*
X31288417Y6443009D01*
X31347451Y6502043D01*
X31725300Y6502043D01*
X31763876Y6509716D01*
X31830583Y6443009D01*
G04 #@! TD*
M02*
