G04 #@! TF.GenerationSoftware,KiCad,Pcbnew,(5.1.9)-1*
G04 #@! TF.CreationDate,2021-10-23T14:42:36-07:00*
G04 #@! TF.ProjectId,Buffer - Rev D,42756666-6572-4202-9d20-52657620442e,rev?*
G04 #@! TF.SameCoordinates,Original*
G04 #@! TF.FileFunction,Copper,L1,Top*
G04 #@! TF.FilePolarity,Positive*
%FSLAX46Y46*%
G04 Gerber Fmt 4.6, Leading zero omitted, Abs format (unit mm)*
G04 Created by KiCad (PCBNEW (5.1.9)-1) date 2021-10-23 14:42:36*
%MOMM*%
%LPD*%
G01*
G04 APERTURE LIST*
G04 #@! TA.AperFunction,Profile*
%ADD10C,0.200000*%
G04 #@! TD*
G04 #@! TA.AperFunction,SMDPad,CuDef*
%ADD11R,1.750000X0.300000*%
G04 #@! TD*
G04 #@! TA.AperFunction,SMDPad,CuDef*
%ADD12R,1.300000X1.400000*%
G04 #@! TD*
G04 #@! TA.AperFunction,ComponentPad*
%ADD13C,1.270000*%
G04 #@! TD*
G04 #@! TA.AperFunction,SMDPad,CuDef*
%ADD14R,1.000000X0.889000*%
G04 #@! TD*
G04 #@! TA.AperFunction,SMDPad,CuDef*
%ADD15R,0.711000X0.508000*%
G04 #@! TD*
G04 #@! TA.AperFunction,SMDPad,CuDef*
%ADD16R,1.500000X1.016000*%
G04 #@! TD*
G04 #@! TA.AperFunction,SMDPad,CuDef*
%ADD17R,1.193800X1.193800*%
G04 #@! TD*
G04 #@! TA.AperFunction,SMDPad,CuDef*
%ADD18R,0.889000X1.000000*%
G04 #@! TD*
G04 #@! TA.AperFunction,SMDPad,CuDef*
%ADD19R,0.508000X0.711000*%
G04 #@! TD*
G04 #@! TA.AperFunction,SMDPad,CuDef*
%ADD20C,0.400000*%
G04 #@! TD*
G04 #@! TA.AperFunction,ViaPad*
%ADD21C,0.635000*%
G04 #@! TD*
G04 #@! TA.AperFunction,ViaPad*
%ADD22C,0.889000*%
G04 #@! TD*
G04 #@! TA.AperFunction,Conductor*
%ADD23C,0.330200*%
G04 #@! TD*
G04 #@! TA.AperFunction,Conductor*
%ADD24C,0.635000*%
G04 #@! TD*
G04 #@! TA.AperFunction,Conductor*
%ADD25C,0.508000*%
G04 #@! TD*
G04 #@! TA.AperFunction,Conductor*
%ADD26C,0.762000*%
G04 #@! TD*
G04 #@! TA.AperFunction,Conductor*
%ADD27C,1.270000*%
G04 #@! TD*
G04 #@! TA.AperFunction,Conductor*
%ADD28C,0.152400*%
G04 #@! TD*
G04 #@! TA.AperFunction,Conductor*
%ADD29C,0.254000*%
G04 #@! TD*
G04 #@! TA.AperFunction,Conductor*
%ADD30C,0.500000*%
G04 #@! TD*
G04 APERTURE END LIST*
D10*
X126959360Y-92776040D02*
X126959360Y-108270040D01*
X167853360Y-92776040D02*
X126959360Y-92776040D01*
X167853360Y-108270040D02*
X167853360Y-92776040D01*
X126959360Y-108270040D02*
X167853360Y-108270040D01*
D11*
X136813360Y-97820040D03*
X131563360Y-97820040D03*
X131563360Y-98470040D03*
X131563360Y-99120040D03*
X131563360Y-99770040D03*
X131563360Y-100420040D03*
X131563360Y-101070040D03*
X131563360Y-101720040D03*
X136813360Y-98470040D03*
X136813360Y-99120040D03*
X136813360Y-100420040D03*
X136813360Y-101070040D03*
X136813360Y-101720040D03*
X157809660Y-101801840D03*
X163059660Y-101801840D03*
X163059660Y-101151840D03*
X163059660Y-100501840D03*
X163059660Y-99851840D03*
X163059660Y-99201840D03*
X163059660Y-98551840D03*
X163059660Y-97901840D03*
X157809660Y-101151840D03*
X157809660Y-100501840D03*
X157809660Y-99201840D03*
X157809660Y-98551840D03*
X157809660Y-97901840D03*
D12*
X133002360Y-103761540D03*
X135902360Y-103761540D03*
X163080360Y-103825040D03*
X160180360Y-103825040D03*
D13*
X148055560Y-95970040D03*
X146709360Y-95970040D03*
D14*
X157652545Y-94016099D03*
X157652545Y-95716099D03*
X135468360Y-96293040D03*
X135468360Y-94593040D03*
X158922545Y-94016099D03*
X158922545Y-95716099D03*
X134071360Y-96293040D03*
X134071360Y-94593040D03*
D15*
X128259360Y-99903040D03*
X128259360Y-101037040D03*
X166329360Y-103249040D03*
X166329360Y-102115040D03*
D16*
X147266660Y-99274340D03*
X147266660Y-101492340D03*
D17*
X140297360Y-106809540D03*
X137500360Y-106809540D03*
X155912360Y-106238040D03*
X158709360Y-106238040D03*
D13*
X136865360Y-92776040D03*
X145374360Y-95935140D03*
X145374360Y-94665140D03*
X149374860Y-95935140D03*
X148041360Y-94665140D03*
X149374860Y-94665140D03*
X146707860Y-94665140D03*
X148041360Y-106873040D03*
X149374860Y-106873040D03*
X135023860Y-106873040D03*
X164487860Y-106949240D03*
X163154360Y-106873040D03*
X160487360Y-105603040D03*
X160487360Y-106873040D03*
X163154360Y-105603040D03*
X161820860Y-105603040D03*
X161820860Y-106873040D03*
X164487860Y-105603040D03*
X167853360Y-100904040D03*
X146707860Y-106873040D03*
X145374360Y-106873040D03*
X149374860Y-105603040D03*
X148041360Y-105603040D03*
X146707860Y-105603040D03*
X145374360Y-105603040D03*
X133690360Y-105603040D03*
X132356860Y-105603040D03*
X135023860Y-105603040D03*
X133690360Y-106873040D03*
X132356860Y-106873040D03*
X131023360Y-105603040D03*
X131023360Y-106873040D03*
X133309360Y-92776040D03*
X126959360Y-94173040D03*
X167853360Y-105095040D03*
X167853360Y-103063040D03*
X126959360Y-100539040D03*
X167853360Y-107127040D03*
X126959360Y-96205040D03*
X126959360Y-98237040D03*
D15*
X128559360Y-95337040D03*
X128559360Y-94203040D03*
X129559360Y-97797040D03*
X129559360Y-98931040D03*
D18*
X139418921Y-104010794D03*
X137718921Y-104010794D03*
X139405053Y-105349040D03*
X137705053Y-105349040D03*
X156894160Y-103291640D03*
X158594160Y-103291640D03*
X156894160Y-104637840D03*
X158594160Y-104637840D03*
D15*
X165186360Y-99829040D03*
X165186360Y-100963040D03*
D19*
X165880360Y-97729040D03*
X164746360Y-97729040D03*
X139926360Y-97870040D03*
X138792360Y-97870040D03*
X139926360Y-102743040D03*
X138792360Y-102743040D03*
X154492360Y-103370040D03*
X155626360Y-103370040D03*
X154792360Y-98370040D03*
X155926360Y-98370040D03*
D20*
X145520553Y-103569998D03*
X144520553Y-103569998D03*
X143520553Y-103569998D03*
X142520553Y-103569998D03*
X141520553Y-103569998D03*
X145520553Y-103069998D03*
X144520553Y-103069998D03*
X143520553Y-103069998D03*
X142520553Y-103069998D03*
X141520553Y-103069998D03*
X145520553Y-102569998D03*
X144520553Y-102569998D03*
X143520553Y-102569998D03*
X142520553Y-102569998D03*
X145520553Y-102069998D03*
X144520553Y-102069998D03*
X143520553Y-102069998D03*
X142520553Y-102069998D03*
X141520553Y-102069998D03*
X145520553Y-101569998D03*
X144520553Y-101569998D03*
X143520553Y-101569998D03*
X142520553Y-101569998D03*
X141520553Y-101569998D03*
X145507853Y-99447698D03*
X144507853Y-99447698D03*
X143507853Y-99447698D03*
X142507853Y-99447698D03*
X141507853Y-99447698D03*
X145507853Y-98947698D03*
X144507853Y-98947698D03*
X143507853Y-98947698D03*
X142507853Y-98947698D03*
X141507853Y-98947698D03*
X145507853Y-98447698D03*
X144507853Y-98447698D03*
X143507853Y-98447698D03*
X142507853Y-98447698D03*
X145507853Y-97947698D03*
X144507853Y-97947698D03*
X143507853Y-97947698D03*
X142507853Y-97947698D03*
X141507853Y-97947698D03*
X145507853Y-97447698D03*
X144507853Y-97447698D03*
X143507853Y-97447698D03*
X142507853Y-97447698D03*
X141507853Y-97447698D03*
X149038560Y-101506498D03*
X150038560Y-101506498D03*
X151038560Y-101506498D03*
X152038560Y-101506498D03*
X153038560Y-101506498D03*
X149038560Y-102006498D03*
X150038560Y-102006498D03*
X151038560Y-102006498D03*
X152038560Y-102006498D03*
X153038560Y-102006498D03*
X149038560Y-102506498D03*
X150038560Y-102506498D03*
X151038560Y-102506498D03*
X152038560Y-102506498D03*
X149038560Y-103006498D03*
X150038560Y-103006498D03*
X151038560Y-103006498D03*
X152038560Y-103006498D03*
X153038560Y-103006498D03*
X149038560Y-103506498D03*
X150038560Y-103506498D03*
X151038560Y-103506498D03*
X152038560Y-103506498D03*
X153038560Y-103506498D03*
X149027153Y-97384198D03*
X150027153Y-97384198D03*
X151027153Y-97384198D03*
X152027153Y-97384198D03*
X153027153Y-97384198D03*
X149027153Y-97884198D03*
X150027153Y-97884198D03*
X151027153Y-97884198D03*
X152027153Y-97884198D03*
X153027153Y-97884198D03*
X149027153Y-98384198D03*
X150027153Y-98384198D03*
X151027153Y-98384198D03*
X152027153Y-98384198D03*
X149027153Y-98884198D03*
X150027153Y-98884198D03*
X151027153Y-98884198D03*
X152027153Y-98884198D03*
X153027153Y-98884198D03*
X149027153Y-99384198D03*
X150027153Y-99384198D03*
X151027153Y-99384198D03*
X152027153Y-99384198D03*
X153027153Y-99384198D03*
D19*
X165880360Y-98872040D03*
X164746360Y-98872040D03*
D15*
X128259360Y-98931040D03*
X128259360Y-97797040D03*
X129559360Y-99903040D03*
X129559360Y-101037040D03*
X132801360Y-95257040D03*
X132801360Y-96391040D03*
D19*
X138792360Y-96470040D03*
X139926360Y-96470040D03*
X138792360Y-101343040D03*
X139926360Y-101343040D03*
X154492360Y-101970040D03*
X155626360Y-101970040D03*
X154792360Y-97070040D03*
X155926360Y-97070040D03*
D15*
X160487360Y-94241040D03*
X160487360Y-95375040D03*
X166456360Y-100963040D03*
X166456360Y-99829040D03*
D21*
X165872160Y-96738440D03*
X130235960Y-99770040D03*
X129559360Y-99456240D03*
X165880360Y-98313240D03*
D22*
X165287960Y-104053640D03*
D21*
X128610360Y-96078040D03*
X129753360Y-96586040D03*
X128991360Y-96586040D03*
X129372360Y-96078040D03*
X132908280Y-99253040D03*
X136839960Y-106517440D03*
X136814560Y-107482640D03*
X135442960Y-100396040D03*
D22*
X150225760Y-100396040D03*
X153121360Y-100396040D03*
X152156160Y-100396040D03*
X151190960Y-100396040D03*
X149260560Y-100396040D03*
D21*
X155343860Y-104396540D03*
X154683460Y-104561640D03*
X159344360Y-100142040D03*
X154632660Y-105260140D03*
D22*
X166507160Y-107076240D03*
D21*
X129727960Y-94147640D03*
X130413760Y-101691440D03*
X164754560Y-96763840D03*
D22*
X159776160Y-93525340D03*
D21*
X135392160Y-97805240D03*
X135097520Y-94294960D03*
X134777480Y-93746320D03*
X134447280Y-94294960D03*
D22*
X156459360Y-93520040D03*
D21*
X159471360Y-98745040D03*
D22*
X143278860Y-100446840D03*
X141348460Y-100446840D03*
X145209260Y-100446840D03*
X144244060Y-100446840D03*
X142313660Y-100446840D03*
D21*
X140815060Y-105285540D03*
X141437360Y-105501440D03*
X140903960Y-105958640D03*
X135366762Y-102072440D03*
X139459275Y-94363540D03*
X140116560Y-94350840D03*
X140776960Y-94350840D03*
X157652545Y-96478099D03*
X158455360Y-96478099D03*
X154073860Y-95062040D03*
X154391360Y-95697040D03*
X153438860Y-95316040D03*
X135341360Y-98872040D03*
X140573760Y-99011740D03*
X139913360Y-98986340D03*
X138808460Y-94350840D03*
X138160760Y-94350840D03*
X136700260Y-96192340D03*
X137220960Y-96687640D03*
X128229360Y-101793040D03*
X132801357Y-100523037D03*
X165440360Y-102682040D03*
X161757360Y-99126040D03*
D23*
X129660860Y-98931040D02*
X129559360Y-99456240D01*
X129559360Y-98931040D02*
X129660860Y-98931040D01*
D24*
X129559360Y-98931040D02*
X129559360Y-99903039D01*
D25*
X165880360Y-97729040D02*
X165880360Y-98313240D01*
D23*
X165872160Y-97720840D02*
X165880360Y-97729040D01*
X165872160Y-96738440D02*
X165872160Y-97720840D01*
X165163560Y-99851840D02*
X165186360Y-99829040D01*
X163059660Y-99851840D02*
X164424360Y-99851840D01*
X165186360Y-99829040D02*
X165270760Y-99829040D01*
X165186360Y-99829040D02*
X165397760Y-99829040D01*
X165880360Y-99346440D02*
X165643560Y-99583240D01*
X165880360Y-98872040D02*
X165880360Y-99346440D01*
X165397760Y-99829040D02*
X165643560Y-99583240D01*
X165643560Y-99583240D02*
X165973760Y-99253040D01*
X164424360Y-99851840D02*
X165163560Y-99851840D01*
X130049160Y-99770040D02*
X130235960Y-99770040D01*
X130235960Y-99770040D02*
X131563360Y-99770040D01*
X129559360Y-99456240D02*
X129728860Y-98999040D01*
D25*
X165880360Y-98313240D02*
X165880360Y-98872040D01*
D26*
X166329360Y-105095040D02*
X165732459Y-104498139D01*
X165732459Y-104498139D02*
X165287960Y-104053640D01*
X167219950Y-105095040D02*
X166329360Y-105095040D01*
D23*
X129559360Y-99903039D02*
X129726767Y-99735632D01*
D26*
X127981755Y-96332040D02*
X127592770Y-96205040D01*
X128610372Y-96332040D02*
X127981755Y-96332040D01*
X128559360Y-96281028D02*
X128610372Y-96332040D01*
X127981755Y-96332040D02*
X128737359Y-96332040D01*
X128610372Y-96332040D02*
X128737359Y-96332040D01*
X128737359Y-96332040D02*
X128864360Y-96459041D01*
X128864360Y-96459041D02*
X128864360Y-96459050D01*
D23*
X132908280Y-99400120D02*
X132908280Y-99253040D01*
X131563360Y-99770040D02*
X132538360Y-99770040D01*
X132538360Y-99770040D02*
X132908280Y-99400120D01*
X136812960Y-100421440D02*
X136813360Y-100421840D01*
X135493760Y-103352940D02*
X135902360Y-103761540D01*
X135466960Y-100420040D02*
X135442960Y-100396040D01*
X136813360Y-100420040D02*
X135466960Y-100420040D01*
X133002360Y-104015540D02*
X133002360Y-103965540D01*
D24*
X133002360Y-103711540D02*
X133002360Y-103761540D01*
X133817360Y-102896540D02*
X133002360Y-103711540D01*
X133817360Y-98296040D02*
X133817360Y-102896540D01*
X132801360Y-96391040D02*
X132801360Y-97280040D01*
X132801360Y-97280040D02*
X133817360Y-98296040D01*
X141520553Y-101569998D02*
X141520553Y-102069998D01*
X163080360Y-103775040D02*
X163080360Y-103825040D01*
X160487360Y-95443040D02*
X160487360Y-101182040D01*
X160487360Y-101182040D02*
X163080360Y-103775040D01*
D26*
X156690960Y-104841040D02*
X156169360Y-105196640D01*
D24*
X153038560Y-101506498D02*
X153038560Y-102006498D01*
D27*
X156894160Y-103291640D02*
X156894160Y-104637840D01*
D23*
X156690960Y-104841040D02*
X157070071Y-104908496D01*
X156166360Y-105365640D02*
X156690960Y-104841040D01*
X156166360Y-105365640D02*
X156166360Y-105365640D01*
D27*
X156728160Y-104637840D02*
X156169360Y-105196640D01*
X156894160Y-104637840D02*
X156728160Y-104637840D01*
X155912360Y-105453640D02*
X156169360Y-105196640D01*
X155912360Y-106238040D02*
X155912360Y-105453640D01*
D23*
X159014860Y-100501840D02*
X159344360Y-100172340D01*
X159344360Y-100172340D02*
X159344360Y-100142040D01*
X157809660Y-100501840D02*
X159014860Y-100501840D01*
D26*
X156169360Y-105196640D02*
X156894160Y-104637840D01*
D23*
X127385070Y-94164840D02*
X127376870Y-94173040D01*
D28*
X127317970Y-94203040D02*
X127287970Y-94173040D01*
D23*
X128559360Y-94203040D02*
X127317970Y-94203040D01*
X129672560Y-94203040D02*
X129727960Y-94147640D01*
X128559360Y-94203040D02*
X129672560Y-94203040D01*
X131534760Y-101691440D02*
X131563360Y-101720040D01*
X130413760Y-101691440D02*
X131534760Y-101691440D01*
X164754560Y-97720840D02*
X164746360Y-97729040D01*
X164754560Y-96763840D02*
X164754560Y-97720840D01*
X164573560Y-97901840D02*
X164746360Y-97729040D01*
X163059660Y-97901840D02*
X164573560Y-97901840D01*
D24*
X166507160Y-107076240D02*
X167283450Y-107076240D01*
D23*
X157185360Y-93538040D02*
X157185360Y-93538040D01*
D26*
X135468360Y-94593040D02*
X134630160Y-94593040D01*
D27*
X133309360Y-93792040D02*
X133309360Y-93663450D01*
X132870950Y-93663450D02*
X133309360Y-93663450D01*
X132801360Y-93733040D02*
X132870950Y-93663450D01*
D23*
X136798560Y-97805240D02*
X136813360Y-97820040D01*
X135392160Y-97805240D02*
X136798560Y-97805240D01*
D26*
X134630160Y-94593040D02*
X134071360Y-94593040D01*
D23*
X157185360Y-93538046D02*
X157312354Y-93665040D01*
X157185360Y-93411040D02*
X157185360Y-93538046D01*
D26*
X156955419Y-94016099D02*
X156903859Y-93964539D01*
X156903859Y-93964539D02*
X156459360Y-93520040D01*
X157652545Y-94016099D02*
X156955419Y-94016099D01*
D23*
X159014860Y-99201840D02*
X159471360Y-98745340D01*
X159471360Y-98745340D02*
X159471360Y-98745040D01*
X157809660Y-99201840D02*
X159014860Y-99201840D01*
X136813360Y-101721840D02*
X135717362Y-101721840D01*
X135684261Y-101754941D02*
X135366762Y-102072440D01*
X135717362Y-101721840D02*
X135684261Y-101754941D01*
X128259360Y-98931040D02*
X127907360Y-98931040D01*
X127376870Y-98400550D02*
X127376870Y-98237040D01*
X127907360Y-98931040D02*
X127376870Y-98400550D01*
D24*
X141507853Y-97447698D02*
X141507853Y-97947698D01*
D25*
X154492360Y-101970040D02*
X154492360Y-103370040D01*
D24*
X153038560Y-103006498D02*
X153038560Y-103506498D01*
D23*
X158594160Y-102586340D02*
X157809660Y-101801840D01*
X158594160Y-103291640D02*
X158594160Y-102586340D01*
D25*
X138792360Y-101343040D02*
X138792360Y-102743040D01*
D23*
X138519360Y-101070040D02*
X138792360Y-101343040D01*
X136813360Y-101070040D02*
X138519360Y-101070040D01*
X138190560Y-98471840D02*
X138792360Y-97870040D01*
X136813360Y-98471840D02*
X138190560Y-98471840D01*
D25*
X138792360Y-96470040D02*
X138792360Y-97870040D01*
D23*
X157809660Y-101151840D02*
X156576418Y-101151840D01*
X156347918Y-101151840D02*
X157809660Y-101151840D01*
X155593360Y-102007898D02*
X155593360Y-101906398D01*
X155593360Y-101906398D02*
X156347918Y-101151840D01*
D25*
X155626360Y-101970040D02*
X155626360Y-103370040D01*
D23*
X155847360Y-97157540D02*
X155910860Y-97094040D01*
X156035160Y-98551840D02*
X155847360Y-98364040D01*
X157809660Y-98551840D02*
X156035160Y-98551840D01*
D25*
X155910860Y-97094040D02*
X155910860Y-98300540D01*
D24*
X141507853Y-98947698D02*
X141507853Y-99447698D01*
X153027153Y-97384198D02*
X153027153Y-97884198D01*
D26*
X134071360Y-96293040D02*
X135468360Y-96293040D01*
X157652545Y-96478099D02*
X157652545Y-96478099D01*
D23*
X157809660Y-96635214D02*
X157652545Y-96478099D01*
D26*
X135468360Y-96293040D02*
X135523860Y-96293040D01*
X136794240Y-93632588D02*
X136794240Y-94081600D01*
X136794240Y-93480570D02*
X136794240Y-93632588D01*
X136865360Y-93409450D02*
X136794240Y-93480570D01*
X136794240Y-94530612D02*
X136794240Y-94081600D01*
X136853228Y-94589600D02*
X136794240Y-94530612D01*
X136865360Y-94589600D02*
X136853228Y-94589600D01*
X158201360Y-96478099D02*
X158455360Y-96478099D01*
X157652545Y-96478099D02*
X158201360Y-96478099D01*
D25*
X158455360Y-96478099D02*
X158455360Y-97256140D01*
D23*
X135589360Y-99120040D02*
X135341360Y-98872040D01*
X136813360Y-99120040D02*
X135589360Y-99120040D01*
D26*
X135468360Y-96293040D02*
X135468360Y-96293040D01*
D23*
X166557860Y-99829040D02*
X167435850Y-100707030D01*
X166456360Y-99829040D02*
X166557860Y-99829040D01*
X128259360Y-101037040D02*
X128259360Y-101763040D01*
X128259360Y-101763040D02*
X128229360Y-101793040D01*
X131563360Y-100420040D02*
X132768560Y-100420040D01*
X132801357Y-100452837D02*
X132801357Y-100523037D01*
X132768560Y-100420040D02*
X132801357Y-100452837D01*
X129948360Y-97797040D02*
X129559360Y-97797040D01*
X131563360Y-98470040D02*
X130621360Y-98470040D01*
X130621360Y-98470040D02*
X129948360Y-97797040D01*
X128259360Y-97797040D02*
X129559360Y-97797040D01*
X131530361Y-101037041D02*
X131563360Y-101070040D01*
X129559360Y-101037041D02*
X131530361Y-101037041D01*
X165186360Y-100963040D02*
X166456360Y-100963040D01*
X164105160Y-100963040D02*
X163916360Y-101151840D01*
X165186360Y-100963040D02*
X164105160Y-100963040D01*
X163059660Y-101151840D02*
X163916360Y-101151840D01*
X166329360Y-103249040D02*
X166134360Y-103249040D01*
X166134360Y-103249040D02*
X165440360Y-102682040D01*
X165567360Y-102682040D02*
X165440360Y-102682040D01*
X165440360Y-102682040D02*
X165567360Y-102682040D01*
X161833160Y-99201840D02*
X161757360Y-99126040D01*
X163059660Y-99201840D02*
X161833160Y-99201840D01*
X166329360Y-102115040D02*
X166600560Y-102115040D01*
X166600560Y-102115040D02*
X167435850Y-102950330D01*
X128157860Y-99903040D02*
X128142860Y-99888040D01*
X128259360Y-99903040D02*
X128157860Y-99903040D01*
X128142860Y-99888040D02*
X127594360Y-99888040D01*
X127376870Y-100121530D02*
X127376870Y-100539040D01*
X127594360Y-99904040D02*
X127376870Y-100121530D01*
X127594360Y-99888040D02*
X127594360Y-99904040D01*
X164426160Y-98551840D02*
X163059660Y-98551840D01*
X164746360Y-98872040D02*
X164426160Y-98551840D01*
D24*
X153027153Y-98884198D02*
X153027153Y-99384198D01*
D29*
X147790017Y-101182475D02*
X147853912Y-101333844D01*
X147875215Y-103709067D01*
X147877877Y-103733821D01*
X147883457Y-103752947D01*
X147961357Y-103958436D01*
X147972421Y-103980738D01*
X147984275Y-103996751D01*
X148066500Y-104091311D01*
X148084599Y-104108406D01*
X148109678Y-104123546D01*
X148349266Y-104232709D01*
X148372825Y-104240762D01*
X148401923Y-104244140D01*
X149286334Y-104244140D01*
X149311110Y-104241700D01*
X149337367Y-104233435D01*
X149571025Y-104130900D01*
X149592733Y-104118710D01*
X149613455Y-104100591D01*
X149727381Y-103976759D01*
X149742360Y-103956873D01*
X149752237Y-103936920D01*
X149836079Y-103721954D01*
X149842809Y-103697985D01*
X149844760Y-103675807D01*
X149844760Y-103483158D01*
X149844759Y-103482721D01*
X149844752Y-103480685D01*
X149844750Y-103480308D01*
X149832451Y-101561594D01*
X149846005Y-101494471D01*
X149852215Y-101479979D01*
X149863642Y-101456683D01*
X149884285Y-101419526D01*
X149929877Y-101368459D01*
X149986567Y-101340664D01*
X150062444Y-101337093D01*
X150129132Y-101366909D01*
X150181646Y-101422421D01*
X150185089Y-101427587D01*
X150209525Y-101493266D01*
X150211063Y-101505567D01*
X150213024Y-101537456D01*
X150210119Y-103481128D01*
X150210120Y-103481881D01*
X150210137Y-103485714D01*
X150210143Y-103486495D01*
X150211727Y-103636181D01*
X150214429Y-103660930D01*
X150221271Y-103683156D01*
X150310820Y-103900824D01*
X150322503Y-103922809D01*
X150337096Y-103940916D01*
X150561737Y-104172577D01*
X150580737Y-104188665D01*
X150603408Y-104201121D01*
X150831341Y-104297595D01*
X150855109Y-104305005D01*
X150880843Y-104307640D01*
X151231003Y-104307640D01*
X151255779Y-104305200D01*
X151285388Y-104295406D01*
X151531120Y-104178959D01*
X151552465Y-104166144D01*
X151575028Y-104144614D01*
X151756233Y-103923141D01*
X151770033Y-103902420D01*
X151776499Y-103888249D01*
X151847908Y-103702298D01*
X151854512Y-103678293D01*
X151856205Y-103662810D01*
X151863557Y-103508428D01*
X151863665Y-103505405D01*
X151864024Y-103490303D01*
X151864060Y-103487285D01*
X151864060Y-102013010D01*
X151864050Y-102011387D01*
X151863946Y-102003248D01*
X151863914Y-102001616D01*
X151852751Y-101566266D01*
X151861437Y-101497875D01*
X151882024Y-101448176D01*
X151890885Y-101432226D01*
X151936477Y-101381159D01*
X151993167Y-101353364D01*
X152069044Y-101349793D01*
X152135732Y-101379609D01*
X152188246Y-101435121D01*
X152191689Y-101440287D01*
X152216125Y-101505966D01*
X152217625Y-101517964D01*
X152219585Y-101550265D01*
X152207244Y-105511832D01*
X152179554Y-105626160D01*
X151114015Y-107712840D01*
X143596543Y-107712840D01*
X143472386Y-107639999D01*
X142385558Y-105754686D01*
X142351760Y-105628382D01*
X142351760Y-102076343D01*
X142351750Y-102074720D01*
X142351646Y-102066581D01*
X142351614Y-102064949D01*
X142340451Y-101629599D01*
X142349137Y-101561208D01*
X142369724Y-101511509D01*
X142378585Y-101495559D01*
X142424177Y-101444492D01*
X142480867Y-101416697D01*
X142556744Y-101413126D01*
X142623432Y-101442942D01*
X142675946Y-101498454D01*
X142679389Y-101503620D01*
X142703825Y-101569299D01*
X142705397Y-101581878D01*
X142707360Y-101613397D01*
X142707360Y-103496215D01*
X142707441Y-103500743D01*
X142708248Y-103523364D01*
X142708490Y-103527885D01*
X142724907Y-103757719D01*
X142729106Y-103782258D01*
X142735526Y-103800241D01*
X142823178Y-103997499D01*
X142835469Y-104019150D01*
X142847620Y-104033880D01*
X142979228Y-104170971D01*
X142998147Y-104187154D01*
X143021049Y-104199850D01*
X143250089Y-104297471D01*
X143273838Y-104304940D01*
X143299884Y-104307640D01*
X143782489Y-104307640D01*
X143807265Y-104305200D01*
X143834968Y-104296290D01*
X144073911Y-104187865D01*
X144095464Y-104175405D01*
X144117009Y-104155845D01*
X144222354Y-104035451D01*
X144236833Y-104015198D01*
X144243203Y-104002556D01*
X144320075Y-103826150D01*
X144327736Y-103802461D01*
X144329975Y-103788483D01*
X144347045Y-103623469D01*
X144347718Y-103609922D01*
X144347587Y-103575210D01*
X144347137Y-103567380D01*
X144347272Y-103567372D01*
X144345530Y-103537637D01*
X144333307Y-101630885D01*
X144342705Y-101562177D01*
X144363624Y-101511676D01*
X144372485Y-101495726D01*
X144418077Y-101444659D01*
X144474767Y-101416864D01*
X144550644Y-101413293D01*
X144617332Y-101443109D01*
X144669846Y-101498621D01*
X144673289Y-101503787D01*
X144697725Y-101569466D01*
X144699297Y-101582045D01*
X144701260Y-101613564D01*
X144701260Y-103511834D01*
X144699706Y-103539898D01*
X144694318Y-103588390D01*
X144693541Y-103602165D01*
X144693406Y-103671050D01*
X144694129Y-103684828D01*
X144707032Y-103805258D01*
X144713129Y-103832786D01*
X144758421Y-103965363D01*
X144770440Y-103990866D01*
X144844137Y-104110625D01*
X144859201Y-104130447D01*
X144877842Y-104146950D01*
X144889777Y-104154609D01*
X145156906Y-104305691D01*
X145179673Y-104315765D01*
X145203968Y-104321203D01*
X145218118Y-104322140D01*
X146105948Y-104331293D01*
X146130748Y-104329109D01*
X146165719Y-104317044D01*
X146430362Y-104179816D01*
X146451234Y-104166244D01*
X146476448Y-104139174D01*
X146578919Y-103990591D01*
X146590977Y-103968809D01*
X146595544Y-103956518D01*
X146651671Y-103777680D01*
X146656761Y-103753310D01*
X146657497Y-103740218D01*
X146668236Y-101334776D01*
X146731780Y-101182807D01*
X146884035Y-101119940D01*
X147638082Y-101119940D01*
X147790017Y-101182475D01*
G04 #@! TA.AperFunction,Conductor*
D30*
G36*
X147790017Y-101182475D02*
G01*
X147853912Y-101333844D01*
X147875215Y-103709067D01*
X147877877Y-103733821D01*
X147883457Y-103752947D01*
X147961357Y-103958436D01*
X147972421Y-103980738D01*
X147984275Y-103996751D01*
X148066500Y-104091311D01*
X148084599Y-104108406D01*
X148109678Y-104123546D01*
X148349266Y-104232709D01*
X148372825Y-104240762D01*
X148401923Y-104244140D01*
X149286334Y-104244140D01*
X149311110Y-104241700D01*
X149337367Y-104233435D01*
X149571025Y-104130900D01*
X149592733Y-104118710D01*
X149613455Y-104100591D01*
X149727381Y-103976759D01*
X149742360Y-103956873D01*
X149752237Y-103936920D01*
X149836079Y-103721954D01*
X149842809Y-103697985D01*
X149844760Y-103675807D01*
X149844760Y-103483158D01*
X149844759Y-103482721D01*
X149844752Y-103480685D01*
X149844750Y-103480308D01*
X149832451Y-101561594D01*
X149846005Y-101494471D01*
X149852215Y-101479979D01*
X149863642Y-101456683D01*
X149884285Y-101419526D01*
X149929877Y-101368459D01*
X149986567Y-101340664D01*
X150062444Y-101337093D01*
X150129132Y-101366909D01*
X150181646Y-101422421D01*
X150185089Y-101427587D01*
X150209525Y-101493266D01*
X150211063Y-101505567D01*
X150213024Y-101537456D01*
X150210119Y-103481128D01*
X150210120Y-103481881D01*
X150210137Y-103485714D01*
X150210143Y-103486495D01*
X150211727Y-103636181D01*
X150214429Y-103660930D01*
X150221271Y-103683156D01*
X150310820Y-103900824D01*
X150322503Y-103922809D01*
X150337096Y-103940916D01*
X150561737Y-104172577D01*
X150580737Y-104188665D01*
X150603408Y-104201121D01*
X150831341Y-104297595D01*
X150855109Y-104305005D01*
X150880843Y-104307640D01*
X151231003Y-104307640D01*
X151255779Y-104305200D01*
X151285388Y-104295406D01*
X151531120Y-104178959D01*
X151552465Y-104166144D01*
X151575028Y-104144614D01*
X151756233Y-103923141D01*
X151770033Y-103902420D01*
X151776499Y-103888249D01*
X151847908Y-103702298D01*
X151854512Y-103678293D01*
X151856205Y-103662810D01*
X151863557Y-103508428D01*
X151863665Y-103505405D01*
X151864024Y-103490303D01*
X151864060Y-103487285D01*
X151864060Y-102013010D01*
X151864050Y-102011387D01*
X151863946Y-102003248D01*
X151863914Y-102001616D01*
X151852751Y-101566266D01*
X151861437Y-101497875D01*
X151882024Y-101448176D01*
X151890885Y-101432226D01*
X151936477Y-101381159D01*
X151993167Y-101353364D01*
X152069044Y-101349793D01*
X152135732Y-101379609D01*
X152188246Y-101435121D01*
X152191689Y-101440287D01*
X152216125Y-101505966D01*
X152217625Y-101517964D01*
X152219585Y-101550265D01*
X152207244Y-105511832D01*
X152179554Y-105626160D01*
X151114015Y-107712840D01*
X143596543Y-107712840D01*
X143472386Y-107639999D01*
X142385558Y-105754686D01*
X142351760Y-105628382D01*
X142351760Y-102076343D01*
X142351750Y-102074720D01*
X142351646Y-102066581D01*
X142351614Y-102064949D01*
X142340451Y-101629599D01*
X142349137Y-101561208D01*
X142369724Y-101511509D01*
X142378585Y-101495559D01*
X142424177Y-101444492D01*
X142480867Y-101416697D01*
X142556744Y-101413126D01*
X142623432Y-101442942D01*
X142675946Y-101498454D01*
X142679389Y-101503620D01*
X142703825Y-101569299D01*
X142705397Y-101581878D01*
X142707360Y-101613397D01*
X142707360Y-103496215D01*
X142707441Y-103500743D01*
X142708248Y-103523364D01*
X142708490Y-103527885D01*
X142724907Y-103757719D01*
X142729106Y-103782258D01*
X142735526Y-103800241D01*
X142823178Y-103997499D01*
X142835469Y-104019150D01*
X142847620Y-104033880D01*
X142979228Y-104170971D01*
X142998147Y-104187154D01*
X143021049Y-104199850D01*
X143250089Y-104297471D01*
X143273838Y-104304940D01*
X143299884Y-104307640D01*
X143782489Y-104307640D01*
X143807265Y-104305200D01*
X143834968Y-104296290D01*
X144073911Y-104187865D01*
X144095464Y-104175405D01*
X144117009Y-104155845D01*
X144222354Y-104035451D01*
X144236833Y-104015198D01*
X144243203Y-104002556D01*
X144320075Y-103826150D01*
X144327736Y-103802461D01*
X144329975Y-103788483D01*
X144347045Y-103623469D01*
X144347718Y-103609922D01*
X144347587Y-103575210D01*
X144347137Y-103567380D01*
X144347272Y-103567372D01*
X144345530Y-103537637D01*
X144333307Y-101630885D01*
X144342705Y-101562177D01*
X144363624Y-101511676D01*
X144372485Y-101495726D01*
X144418077Y-101444659D01*
X144474767Y-101416864D01*
X144550644Y-101413293D01*
X144617332Y-101443109D01*
X144669846Y-101498621D01*
X144673289Y-101503787D01*
X144697725Y-101569466D01*
X144699297Y-101582045D01*
X144701260Y-101613564D01*
X144701260Y-103511834D01*
X144699706Y-103539898D01*
X144694318Y-103588390D01*
X144693541Y-103602165D01*
X144693406Y-103671050D01*
X144694129Y-103684828D01*
X144707032Y-103805258D01*
X144713129Y-103832786D01*
X144758421Y-103965363D01*
X144770440Y-103990866D01*
X144844137Y-104110625D01*
X144859201Y-104130447D01*
X144877842Y-104146950D01*
X144889777Y-104154609D01*
X145156906Y-104305691D01*
X145179673Y-104315765D01*
X145203968Y-104321203D01*
X145218118Y-104322140D01*
X146105948Y-104331293D01*
X146130748Y-104329109D01*
X146165719Y-104317044D01*
X146430362Y-104179816D01*
X146451234Y-104166244D01*
X146476448Y-104139174D01*
X146578919Y-103990591D01*
X146590977Y-103968809D01*
X146595544Y-103956518D01*
X146651671Y-103777680D01*
X146656761Y-103753310D01*
X146657497Y-103740218D01*
X146668236Y-101334776D01*
X146731780Y-101182807D01*
X146884035Y-101119940D01*
X147638082Y-101119940D01*
X147790017Y-101182475D01*
G37*
G04 #@! TD.AperFunction*
D29*
X151154298Y-93600917D02*
X151217832Y-93752910D01*
X151227618Y-96024446D01*
X151227615Y-96027330D01*
X151216371Y-97587229D01*
X151216369Y-97587700D01*
X151216361Y-97589988D01*
X151216360Y-97590432D01*
X151216360Y-99333535D01*
X151214806Y-99361594D01*
X151208892Y-99414819D01*
X151199649Y-99456903D01*
X151176604Y-99494190D01*
X151176454Y-99494340D01*
X151102150Y-99494340D01*
X150930794Y-99528425D01*
X150901993Y-99506427D01*
X150881596Y-99478127D01*
X150864711Y-99424074D01*
X150863312Y-99414278D01*
X150860760Y-99378376D01*
X150860760Y-97923411D01*
X150860751Y-97921869D01*
X150860657Y-97914128D01*
X150860628Y-97912573D01*
X150848528Y-97416501D01*
X150848056Y-97408225D01*
X150844345Y-97366952D01*
X150843332Y-97358719D01*
X150799574Y-97078673D01*
X150793338Y-97054570D01*
X150786722Y-97039588D01*
X150692907Y-96859563D01*
X150679293Y-96838718D01*
X150668234Y-96826638D01*
X150516764Y-96681226D01*
X150497200Y-96665828D01*
X150477720Y-96655637D01*
X150265979Y-96567281D01*
X150242173Y-96559992D01*
X150220326Y-96557528D01*
X149963183Y-96550935D01*
X149938352Y-96552739D01*
X149919684Y-96557438D01*
X149714253Y-96626073D01*
X149691526Y-96636239D01*
X149675580Y-96647024D01*
X149483459Y-96799396D01*
X149465563Y-96816704D01*
X149455299Y-96830610D01*
X149343832Y-97005389D01*
X149332567Y-97027591D01*
X149327405Y-97044086D01*
X149221996Y-97484010D01*
X149219377Y-97498703D01*
X149210637Y-97572684D01*
X149209760Y-97587584D01*
X149209760Y-99333535D01*
X149208206Y-99361597D01*
X149200514Y-99430828D01*
X149194476Y-99458315D01*
X149193706Y-99464807D01*
X149193240Y-99464730D01*
X149188316Y-99494340D01*
X149171750Y-99494340D01*
X148997544Y-99528992D01*
X148859380Y-99586221D01*
X145540682Y-99608127D01*
X145472276Y-99579792D01*
X145372287Y-99559903D01*
X145357599Y-99539524D01*
X145342238Y-99487508D01*
X145337814Y-99447694D01*
X145336260Y-99419634D01*
X145336260Y-97958909D01*
X145336250Y-97957286D01*
X145336146Y-97949147D01*
X145336114Y-97947515D01*
X145324110Y-97479367D01*
X145323540Y-97470165D01*
X145319022Y-97424327D01*
X145317785Y-97415194D01*
X145263202Y-97098795D01*
X145256586Y-97074794D01*
X145250253Y-97060890D01*
X145157606Y-96886165D01*
X145143844Y-96865419D01*
X145133497Y-96854179D01*
X144961193Y-96688256D01*
X144941653Y-96672828D01*
X144919078Y-96661352D01*
X144690708Y-96572658D01*
X144666729Y-96565963D01*
X144641475Y-96564085D01*
X144375621Y-96570902D01*
X144350915Y-96573976D01*
X144338756Y-96577364D01*
X144163142Y-96635836D01*
X144140405Y-96645978D01*
X144129761Y-96652763D01*
X143923973Y-96798806D01*
X143905180Y-96815135D01*
X143889544Y-96835442D01*
X143759681Y-97044848D01*
X143748696Y-97067190D01*
X143742165Y-97091974D01*
X143690699Y-97417926D01*
X143689534Y-97427800D01*
X143685649Y-97477318D01*
X143685260Y-97487251D01*
X143685260Y-99384335D01*
X143683706Y-99412394D01*
X143677792Y-99465619D01*
X143668549Y-99507703D01*
X143645504Y-99544990D01*
X143635765Y-99554729D01*
X143614845Y-99573453D01*
X143605000Y-99581330D01*
X143577041Y-99594358D01*
X143541876Y-99579792D01*
X143367670Y-99545140D01*
X143362181Y-99545140D01*
X143350999Y-99529625D01*
X143335638Y-99477609D01*
X143331214Y-99437795D01*
X143329660Y-99409735D01*
X143329660Y-97950060D01*
X143329752Y-97943282D01*
X143342198Y-97482759D01*
X143342232Y-97481045D01*
X143342348Y-97472467D01*
X143342360Y-97470750D01*
X143342360Y-93753803D01*
X143405556Y-93601236D01*
X143558123Y-93538040D01*
X151002035Y-93538040D01*
X151154298Y-93600917D01*
G04 #@! TA.AperFunction,Conductor*
D30*
G36*
X151154298Y-93600917D02*
G01*
X151217832Y-93752910D01*
X151227618Y-96024446D01*
X151227615Y-96027330D01*
X151216371Y-97587229D01*
X151216369Y-97587700D01*
X151216361Y-97589988D01*
X151216360Y-97590432D01*
X151216360Y-99333535D01*
X151214806Y-99361594D01*
X151208892Y-99414819D01*
X151199649Y-99456903D01*
X151176604Y-99494190D01*
X151176454Y-99494340D01*
X151102150Y-99494340D01*
X150930794Y-99528425D01*
X150901993Y-99506427D01*
X150881596Y-99478127D01*
X150864711Y-99424074D01*
X150863312Y-99414278D01*
X150860760Y-99378376D01*
X150860760Y-97923411D01*
X150860751Y-97921869D01*
X150860657Y-97914128D01*
X150860628Y-97912573D01*
X150848528Y-97416501D01*
X150848056Y-97408225D01*
X150844345Y-97366952D01*
X150843332Y-97358719D01*
X150799574Y-97078673D01*
X150793338Y-97054570D01*
X150786722Y-97039588D01*
X150692907Y-96859563D01*
X150679293Y-96838718D01*
X150668234Y-96826638D01*
X150516764Y-96681226D01*
X150497200Y-96665828D01*
X150477720Y-96655637D01*
X150265979Y-96567281D01*
X150242173Y-96559992D01*
X150220326Y-96557528D01*
X149963183Y-96550935D01*
X149938352Y-96552739D01*
X149919684Y-96557438D01*
X149714253Y-96626073D01*
X149691526Y-96636239D01*
X149675580Y-96647024D01*
X149483459Y-96799396D01*
X149465563Y-96816704D01*
X149455299Y-96830610D01*
X149343832Y-97005389D01*
X149332567Y-97027591D01*
X149327405Y-97044086D01*
X149221996Y-97484010D01*
X149219377Y-97498703D01*
X149210637Y-97572684D01*
X149209760Y-97587584D01*
X149209760Y-99333535D01*
X149208206Y-99361597D01*
X149200514Y-99430828D01*
X149194476Y-99458315D01*
X149193706Y-99464807D01*
X149193240Y-99464730D01*
X149188316Y-99494340D01*
X149171750Y-99494340D01*
X148997544Y-99528992D01*
X148859380Y-99586221D01*
X145540682Y-99608127D01*
X145472276Y-99579792D01*
X145372287Y-99559903D01*
X145357599Y-99539524D01*
X145342238Y-99487508D01*
X145337814Y-99447694D01*
X145336260Y-99419634D01*
X145336260Y-97958909D01*
X145336250Y-97957286D01*
X145336146Y-97949147D01*
X145336114Y-97947515D01*
X145324110Y-97479367D01*
X145323540Y-97470165D01*
X145319022Y-97424327D01*
X145317785Y-97415194D01*
X145263202Y-97098795D01*
X145256586Y-97074794D01*
X145250253Y-97060890D01*
X145157606Y-96886165D01*
X145143844Y-96865419D01*
X145133497Y-96854179D01*
X144961193Y-96688256D01*
X144941653Y-96672828D01*
X144919078Y-96661352D01*
X144690708Y-96572658D01*
X144666729Y-96565963D01*
X144641475Y-96564085D01*
X144375621Y-96570902D01*
X144350915Y-96573976D01*
X144338756Y-96577364D01*
X144163142Y-96635836D01*
X144140405Y-96645978D01*
X144129761Y-96652763D01*
X143923973Y-96798806D01*
X143905180Y-96815135D01*
X143889544Y-96835442D01*
X143759681Y-97044848D01*
X143748696Y-97067190D01*
X143742165Y-97091974D01*
X143690699Y-97417926D01*
X143689534Y-97427800D01*
X143685649Y-97477318D01*
X143685260Y-97487251D01*
X143685260Y-99384335D01*
X143683706Y-99412394D01*
X143677792Y-99465619D01*
X143668549Y-99507703D01*
X143645504Y-99544990D01*
X143635765Y-99554729D01*
X143614845Y-99573453D01*
X143605000Y-99581330D01*
X143577041Y-99594358D01*
X143541876Y-99579792D01*
X143367670Y-99545140D01*
X143362181Y-99545140D01*
X143350999Y-99529625D01*
X143335638Y-99477609D01*
X143331214Y-99437795D01*
X143329660Y-99409735D01*
X143329660Y-97950060D01*
X143329752Y-97943282D01*
X143342198Y-97482759D01*
X143342232Y-97481045D01*
X143342348Y-97472467D01*
X143342360Y-97470750D01*
X143342360Y-93753803D01*
X143405556Y-93601236D01*
X143558123Y-93538040D01*
X151002035Y-93538040D01*
X151154298Y-93600917D01*
G37*
G04 #@! TD.AperFunction*
D29*
X142598032Y-97328309D02*
X142650546Y-97383821D01*
X142653989Y-97388987D01*
X142678425Y-97454666D01*
X142679997Y-97467245D01*
X142681960Y-97498764D01*
X142681960Y-99380381D01*
X142681975Y-99382324D01*
X142682124Y-99392062D01*
X142682169Y-99394014D01*
X142690654Y-99670510D01*
X142693853Y-99695200D01*
X142701958Y-99719126D01*
X142803132Y-99941926D01*
X142815598Y-99963476D01*
X142832296Y-99982429D01*
X142845136Y-99994366D01*
X142864943Y-100009448D01*
X142885904Y-100019843D01*
X143106109Y-100104779D01*
X143130104Y-100111419D01*
X143153424Y-100113278D01*
X143796142Y-100105122D01*
X143832104Y-100099447D01*
X144004193Y-100046148D01*
X144037066Y-100030504D01*
X144092256Y-99993711D01*
X144111518Y-99977937D01*
X144133153Y-99949129D01*
X144269841Y-99699997D01*
X144279619Y-99677101D01*
X144285470Y-99641553D01*
X144331455Y-97434285D01*
X144346169Y-97374737D01*
X144382792Y-97338114D01*
X144416339Y-97321340D01*
X144449608Y-97307560D01*
X144461519Y-97303590D01*
X144534600Y-97303590D01*
X144554756Y-97310309D01*
X144577591Y-97319165D01*
X144603596Y-97330723D01*
X144662184Y-97376569D01*
X144690182Y-97455935D01*
X144701223Y-98096265D01*
X144701260Y-98100586D01*
X144701260Y-98848719D01*
X144701263Y-98849574D01*
X144701292Y-98853884D01*
X144701301Y-98854753D01*
X144711724Y-99622592D01*
X144714500Y-99647333D01*
X144722050Y-99671057D01*
X144727801Y-99682736D01*
X144869749Y-99937208D01*
X144883949Y-99957657D01*
X144901867Y-99974943D01*
X144912476Y-99982485D01*
X144974174Y-100021748D01*
X145006851Y-100036538D01*
X145177309Y-100086175D01*
X145212816Y-100091240D01*
X145374461Y-100091240D01*
X145443124Y-100104898D01*
X145496370Y-100104898D01*
X145615964Y-100154436D01*
X145679160Y-100307003D01*
X145679160Y-101126972D01*
X145679180Y-101129235D01*
X145679382Y-101140567D01*
X145679443Y-101142837D01*
X145691698Y-101485961D01*
X145691860Y-101495049D01*
X145691860Y-101614196D01*
X145691861Y-101614622D01*
X145691868Y-101616710D01*
X145691870Y-101617119D01*
X145704415Y-103524117D01*
X145702868Y-103553837D01*
X145697092Y-103605819D01*
X145687849Y-103647903D01*
X145664804Y-103685190D01*
X145655065Y-103694929D01*
X145634145Y-103713653D01*
X145624300Y-103721530D01*
X145594870Y-103735243D01*
X145588445Y-103736528D01*
X145574509Y-103738915D01*
X145546574Y-103742906D01*
X145486694Y-103743431D01*
X145422337Y-103721979D01*
X145390193Y-103697427D01*
X145370299Y-103669825D01*
X145354938Y-103617809D01*
X145350514Y-103577995D01*
X145348960Y-103549935D01*
X145348960Y-102089210D01*
X145348950Y-102087587D01*
X145348846Y-102079448D01*
X145348814Y-102077815D01*
X145337477Y-101635696D01*
X145337365Y-101632703D01*
X145336628Y-101617742D01*
X145336445Y-101614751D01*
X145307251Y-101214539D01*
X145303015Y-101190006D01*
X145294369Y-101167361D01*
X145187775Y-100952387D01*
X145174582Y-100931274D01*
X145158021Y-100913576D01*
X145129304Y-100888237D01*
X145109111Y-100873674D01*
X145090193Y-100864674D01*
X144880128Y-100785248D01*
X144856089Y-100778768D01*
X144835212Y-100777040D01*
X144159673Y-100777040D01*
X144134897Y-100779480D01*
X144111072Y-100786707D01*
X143886565Y-100879701D01*
X143864609Y-100891437D01*
X143845363Y-100907231D01*
X143828151Y-100924443D01*
X143812357Y-100943689D01*
X143800621Y-100965645D01*
X143707627Y-101190152D01*
X143700400Y-101213976D01*
X143697960Y-101238753D01*
X143697960Y-103511835D01*
X143696406Y-103539894D01*
X143690492Y-103593119D01*
X143681249Y-103635203D01*
X143658204Y-103672490D01*
X143648465Y-103682229D01*
X143627545Y-103700953D01*
X143617700Y-103708830D01*
X143588270Y-103722543D01*
X143581845Y-103723828D01*
X143567909Y-103726215D01*
X143539974Y-103730206D01*
X143480094Y-103730731D01*
X143415737Y-103709279D01*
X143383593Y-103684727D01*
X143363699Y-103657125D01*
X143348338Y-103605109D01*
X143343914Y-103565295D01*
X143342360Y-103537235D01*
X143342360Y-102076510D01*
X143342350Y-102074887D01*
X143342246Y-102066748D01*
X143342214Y-102065116D01*
X143330200Y-101596586D01*
X143332199Y-101580850D01*
X143335526Y-101555699D01*
X143336608Y-101537109D01*
X143331620Y-101209603D01*
X143328803Y-101184867D01*
X143320831Y-101160279D01*
X143224400Y-100941682D01*
X143212168Y-100919998D01*
X143195241Y-100900455D01*
X143192474Y-100897851D01*
X143172759Y-100882648D01*
X143152255Y-100872281D01*
X142934652Y-100785985D01*
X142910721Y-100779119D01*
X142887834Y-100777040D01*
X141018123Y-100777040D01*
X140865556Y-100713844D01*
X140802360Y-100561277D01*
X140802360Y-100310426D01*
X140866309Y-100157147D01*
X141020233Y-100094765D01*
X141076084Y-100095335D01*
X141209955Y-100166890D01*
X141355986Y-100211188D01*
X141507853Y-100226146D01*
X141659721Y-100211188D01*
X141805752Y-100166890D01*
X141940336Y-100094954D01*
X141995939Y-100049322D01*
X142045615Y-100033044D01*
X142068400Y-100023010D01*
X142082269Y-100013958D01*
X142128097Y-99979587D01*
X142146454Y-99962769D01*
X142164585Y-99936556D01*
X142291429Y-99692505D01*
X142300690Y-99669395D01*
X142305679Y-99637915D01*
X142313486Y-99388861D01*
X142313522Y-99387451D01*
X142313666Y-99380335D01*
X142313687Y-99378899D01*
X142326306Y-97964259D01*
X142326307Y-97962061D01*
X142326215Y-97951091D01*
X142326177Y-97948901D01*
X142315051Y-97514966D01*
X142323737Y-97446575D01*
X142344324Y-97396876D01*
X142353185Y-97380926D01*
X142398777Y-97329859D01*
X142455467Y-97302064D01*
X142531344Y-97298493D01*
X142598032Y-97328309D01*
G04 #@! TA.AperFunction,Conductor*
D30*
G36*
X142598032Y-97328309D02*
G01*
X142650546Y-97383821D01*
X142653989Y-97388987D01*
X142678425Y-97454666D01*
X142679997Y-97467245D01*
X142681960Y-97498764D01*
X142681960Y-99380381D01*
X142681975Y-99382324D01*
X142682124Y-99392062D01*
X142682169Y-99394014D01*
X142690654Y-99670510D01*
X142693853Y-99695200D01*
X142701958Y-99719126D01*
X142803132Y-99941926D01*
X142815598Y-99963476D01*
X142832296Y-99982429D01*
X142845136Y-99994366D01*
X142864943Y-100009448D01*
X142885904Y-100019843D01*
X143106109Y-100104779D01*
X143130104Y-100111419D01*
X143153424Y-100113278D01*
X143796142Y-100105122D01*
X143832104Y-100099447D01*
X144004193Y-100046148D01*
X144037066Y-100030504D01*
X144092256Y-99993711D01*
X144111518Y-99977937D01*
X144133153Y-99949129D01*
X144269841Y-99699997D01*
X144279619Y-99677101D01*
X144285470Y-99641553D01*
X144331455Y-97434285D01*
X144346169Y-97374737D01*
X144382792Y-97338114D01*
X144416339Y-97321340D01*
X144449608Y-97307560D01*
X144461519Y-97303590D01*
X144534600Y-97303590D01*
X144554756Y-97310309D01*
X144577591Y-97319165D01*
X144603596Y-97330723D01*
X144662184Y-97376569D01*
X144690182Y-97455935D01*
X144701223Y-98096265D01*
X144701260Y-98100586D01*
X144701260Y-98848719D01*
X144701263Y-98849574D01*
X144701292Y-98853884D01*
X144701301Y-98854753D01*
X144711724Y-99622592D01*
X144714500Y-99647333D01*
X144722050Y-99671057D01*
X144727801Y-99682736D01*
X144869749Y-99937208D01*
X144883949Y-99957657D01*
X144901867Y-99974943D01*
X144912476Y-99982485D01*
X144974174Y-100021748D01*
X145006851Y-100036538D01*
X145177309Y-100086175D01*
X145212816Y-100091240D01*
X145374461Y-100091240D01*
X145443124Y-100104898D01*
X145496370Y-100104898D01*
X145615964Y-100154436D01*
X145679160Y-100307003D01*
X145679160Y-101126972D01*
X145679180Y-101129235D01*
X145679382Y-101140567D01*
X145679443Y-101142837D01*
X145691698Y-101485961D01*
X145691860Y-101495049D01*
X145691860Y-101614196D01*
X145691861Y-101614622D01*
X145691868Y-101616710D01*
X145691870Y-101617119D01*
X145704415Y-103524117D01*
X145702868Y-103553837D01*
X145697092Y-103605819D01*
X145687849Y-103647903D01*
X145664804Y-103685190D01*
X145655065Y-103694929D01*
X145634145Y-103713653D01*
X145624300Y-103721530D01*
X145594870Y-103735243D01*
X145588445Y-103736528D01*
X145574509Y-103738915D01*
X145546574Y-103742906D01*
X145486694Y-103743431D01*
X145422337Y-103721979D01*
X145390193Y-103697427D01*
X145370299Y-103669825D01*
X145354938Y-103617809D01*
X145350514Y-103577995D01*
X145348960Y-103549935D01*
X145348960Y-102089210D01*
X145348950Y-102087587D01*
X145348846Y-102079448D01*
X145348814Y-102077815D01*
X145337477Y-101635696D01*
X145337365Y-101632703D01*
X145336628Y-101617742D01*
X145336445Y-101614751D01*
X145307251Y-101214539D01*
X145303015Y-101190006D01*
X145294369Y-101167361D01*
X145187775Y-100952387D01*
X145174582Y-100931274D01*
X145158021Y-100913576D01*
X145129304Y-100888237D01*
X145109111Y-100873674D01*
X145090193Y-100864674D01*
X144880128Y-100785248D01*
X144856089Y-100778768D01*
X144835212Y-100777040D01*
X144159673Y-100777040D01*
X144134897Y-100779480D01*
X144111072Y-100786707D01*
X143886565Y-100879701D01*
X143864609Y-100891437D01*
X143845363Y-100907231D01*
X143828151Y-100924443D01*
X143812357Y-100943689D01*
X143800621Y-100965645D01*
X143707627Y-101190152D01*
X143700400Y-101213976D01*
X143697960Y-101238753D01*
X143697960Y-103511835D01*
X143696406Y-103539894D01*
X143690492Y-103593119D01*
X143681249Y-103635203D01*
X143658204Y-103672490D01*
X143648465Y-103682229D01*
X143627545Y-103700953D01*
X143617700Y-103708830D01*
X143588270Y-103722543D01*
X143581845Y-103723828D01*
X143567909Y-103726215D01*
X143539974Y-103730206D01*
X143480094Y-103730731D01*
X143415737Y-103709279D01*
X143383593Y-103684727D01*
X143363699Y-103657125D01*
X143348338Y-103605109D01*
X143343914Y-103565295D01*
X143342360Y-103537235D01*
X143342360Y-102076510D01*
X143342350Y-102074887D01*
X143342246Y-102066748D01*
X143342214Y-102065116D01*
X143330200Y-101596586D01*
X143332199Y-101580850D01*
X143335526Y-101555699D01*
X143336608Y-101537109D01*
X143331620Y-101209603D01*
X143328803Y-101184867D01*
X143320831Y-101160279D01*
X143224400Y-100941682D01*
X143212168Y-100919998D01*
X143195241Y-100900455D01*
X143192474Y-100897851D01*
X143172759Y-100882648D01*
X143152255Y-100872281D01*
X142934652Y-100785985D01*
X142910721Y-100779119D01*
X142887834Y-100777040D01*
X141018123Y-100777040D01*
X140865556Y-100713844D01*
X140802360Y-100561277D01*
X140802360Y-100310426D01*
X140866309Y-100157147D01*
X141020233Y-100094765D01*
X141076084Y-100095335D01*
X141209955Y-100166890D01*
X141355986Y-100211188D01*
X141507853Y-100226146D01*
X141659721Y-100211188D01*
X141805752Y-100166890D01*
X141940336Y-100094954D01*
X141995939Y-100049322D01*
X142045615Y-100033044D01*
X142068400Y-100023010D01*
X142082269Y-100013958D01*
X142128097Y-99979587D01*
X142146454Y-99962769D01*
X142164585Y-99936556D01*
X142291429Y-99692505D01*
X142300690Y-99669395D01*
X142305679Y-99637915D01*
X142313486Y-99388861D01*
X142313522Y-99387451D01*
X142313666Y-99380335D01*
X142313687Y-99378899D01*
X142326306Y-97964259D01*
X142326307Y-97962061D01*
X142326215Y-97951091D01*
X142326177Y-97948901D01*
X142315051Y-97514966D01*
X142323737Y-97446575D01*
X142344324Y-97396876D01*
X142353185Y-97380926D01*
X142398777Y-97329859D01*
X142455467Y-97302064D01*
X142531344Y-97298493D01*
X142598032Y-97328309D01*
G37*
G04 #@! TD.AperFunction*
D29*
X154950160Y-99481640D02*
X152918160Y-99481640D01*
X152918160Y-98795840D01*
X153959560Y-98795840D01*
X153984336Y-98793400D01*
X154008161Y-98786173D01*
X154030117Y-98774437D01*
X154057124Y-98750143D01*
X154565124Y-98140543D01*
X154579111Y-98119947D01*
X154588811Y-98097018D01*
X154593851Y-98072638D01*
X154594537Y-98056798D01*
X154571626Y-96865440D01*
X154950160Y-96865440D01*
X154950160Y-99481640D01*
G04 #@! TA.AperFunction,Conductor*
D30*
G36*
X154950160Y-99481640D02*
G01*
X152918160Y-99481640D01*
X152918160Y-98795840D01*
X153959560Y-98795840D01*
X153984336Y-98793400D01*
X154008161Y-98786173D01*
X154030117Y-98774437D01*
X154057124Y-98750143D01*
X154565124Y-98140543D01*
X154579111Y-98119947D01*
X154588811Y-98097018D01*
X154593851Y-98072638D01*
X154594537Y-98056798D01*
X154571626Y-96865440D01*
X154950160Y-96865440D01*
X154950160Y-99481640D01*
G37*
G04 #@! TD.AperFunction*
D29*
X140477273Y-97155114D02*
X140486575Y-97178208D01*
X140500203Y-97199043D01*
X140517634Y-97216819D01*
X140538199Y-97230852D01*
X140561105Y-97240605D01*
X140589099Y-97246041D01*
X141624536Y-97328327D01*
X141636105Y-98095729D01*
X139786360Y-98109117D01*
X139786360Y-96205040D01*
X140199203Y-96205040D01*
X140477273Y-97155114D01*
G04 #@! TA.AperFunction,Conductor*
D30*
G36*
X140477273Y-97155114D02*
G01*
X140486575Y-97178208D01*
X140500203Y-97199043D01*
X140517634Y-97216819D01*
X140538199Y-97230852D01*
X140561105Y-97240605D01*
X140589099Y-97246041D01*
X141624536Y-97328327D01*
X141636105Y-98095729D01*
X139786360Y-98109117D01*
X139786360Y-96205040D01*
X140199203Y-96205040D01*
X140477273Y-97155114D01*
G37*
G04 #@! TD.AperFunction*
D29*
X154746960Y-103634275D02*
X152968960Y-103612050D01*
X152968960Y-102921374D01*
X153810501Y-102899228D01*
X153835205Y-102896137D01*
X153858831Y-102888286D01*
X153880471Y-102875976D01*
X153896963Y-102862075D01*
X154303363Y-102455675D01*
X154319157Y-102436429D01*
X154330893Y-102414473D01*
X154338120Y-102390648D01*
X154340485Y-102361495D01*
X154319615Y-101756272D01*
X154746960Y-101756272D01*
X154746960Y-103634275D01*
G04 #@! TA.AperFunction,Conductor*
D30*
G36*
X154746960Y-103634275D02*
G01*
X152968960Y-103612050D01*
X152968960Y-102921374D01*
X153810501Y-102899228D01*
X153835205Y-102896137D01*
X153858831Y-102888286D01*
X153880471Y-102875976D01*
X153896963Y-102862075D01*
X154303363Y-102455675D01*
X154319157Y-102436429D01*
X154330893Y-102414473D01*
X154338120Y-102390648D01*
X154340485Y-102361495D01*
X154319615Y-101756272D01*
X154746960Y-101756272D01*
X154746960Y-103634275D01*
G37*
G04 #@! TD.AperFunction*
D29*
X156461635Y-98476413D02*
X156483475Y-98503025D01*
X156542956Y-98551840D01*
X156493241Y-98592640D01*
X155810772Y-98592640D01*
X155794932Y-97927363D01*
X156461635Y-98476413D01*
G04 #@! TA.AperFunction,Conductor*
D30*
G36*
X156461635Y-98476413D02*
G01*
X156483475Y-98503025D01*
X156542956Y-98551840D01*
X156493241Y-98592640D01*
X155810772Y-98592640D01*
X155794932Y-97927363D01*
X156461635Y-98476413D01*
G37*
G04 #@! TD.AperFunction*
D29*
X160995360Y-94427040D02*
X156677360Y-94427040D01*
X156677360Y-93257040D01*
X160995360Y-93257040D01*
X160995360Y-94427040D01*
G04 #@! TA.AperFunction,Conductor*
D30*
G36*
X160995360Y-94427040D02*
G01*
X156677360Y-94427040D01*
X156677360Y-93257040D01*
X160995360Y-93257040D01*
X160995360Y-94427040D01*
G37*
G04 #@! TD.AperFunction*
D29*
X135854440Y-94930135D02*
X132420360Y-94934865D01*
X132420360Y-93257040D01*
X135854440Y-93257040D01*
X135854440Y-94930135D01*
G04 #@! TA.AperFunction,Conductor*
D30*
G36*
X135854440Y-94930135D02*
G01*
X132420360Y-94934865D01*
X132420360Y-93257040D01*
X135854440Y-93257040D01*
X135854440Y-94930135D01*
G37*
G04 #@! TD.AperFunction*
D29*
X133055360Y-95443040D02*
X132420360Y-95443040D01*
X132420360Y-94808040D01*
X133055360Y-94808040D01*
X133055360Y-95443040D01*
G04 #@! TA.AperFunction,Conductor*
D30*
G36*
X133055360Y-95443040D02*
G01*
X132420360Y-95443040D01*
X132420360Y-94808040D01*
X133055360Y-94808040D01*
X133055360Y-95443040D01*
G37*
G04 #@! TD.AperFunction*
D29*
X140180095Y-101106407D02*
X140632943Y-101392417D01*
X140655194Y-101403584D01*
X140679197Y-101410196D01*
X140700760Y-101412040D01*
X141715275Y-101412040D01*
X141705497Y-102252969D01*
X140672569Y-102275671D01*
X140647853Y-102278655D01*
X140624193Y-102286404D01*
X140602499Y-102298619D01*
X140583606Y-102314832D01*
X140567134Y-102336186D01*
X140159811Y-102999540D01*
X139786360Y-102999540D01*
X139786360Y-101097459D01*
X140180095Y-101106407D01*
G04 #@! TA.AperFunction,Conductor*
D30*
G36*
X140180095Y-101106407D02*
G01*
X140632943Y-101392417D01*
X140655194Y-101403584D01*
X140679197Y-101410196D01*
X140700760Y-101412040D01*
X141715275Y-101412040D01*
X141705497Y-102252969D01*
X140672569Y-102275671D01*
X140647853Y-102278655D01*
X140624193Y-102286404D01*
X140602499Y-102298619D01*
X140583606Y-102314832D01*
X140567134Y-102336186D01*
X140159811Y-102999540D01*
X139786360Y-102999540D01*
X139786360Y-101097459D01*
X140180095Y-101106407D01*
G37*
G04 #@! TD.AperFunction*
D29*
X135849360Y-94935722D02*
X135265160Y-94938865D01*
X135265160Y-94236026D01*
X135849360Y-94236026D01*
X135849360Y-94935722D01*
G04 #@! TA.AperFunction,Conductor*
D30*
G36*
X135849360Y-94935722D02*
G01*
X135265160Y-94938865D01*
X135265160Y-94236026D01*
X135849360Y-94236026D01*
X135849360Y-94935722D01*
G37*
G04 #@! TD.AperFunction*
D29*
X159227819Y-101785376D02*
X159402824Y-101960381D01*
X159557358Y-102537110D01*
X159566128Y-102560411D01*
X159579275Y-102581553D01*
X159590228Y-102594043D01*
X159813357Y-102817172D01*
X159832603Y-102832966D01*
X159854559Y-102844702D01*
X159870290Y-102850042D01*
X160175090Y-102931713D01*
X160207960Y-102936040D01*
X160216639Y-102936040D01*
X160485119Y-103007979D01*
X160669421Y-103192281D01*
X160741360Y-103460761D01*
X160741360Y-103681319D01*
X160652406Y-104013299D01*
X160421619Y-104244086D01*
X159692490Y-104439456D01*
X159669189Y-104448226D01*
X159648047Y-104461373D01*
X159635557Y-104472326D01*
X159356646Y-104751237D01*
X159340852Y-104770483D01*
X159329116Y-104792439D01*
X159323776Y-104808170D01*
X159221687Y-105189170D01*
X159217360Y-105222040D01*
X159217360Y-106348319D01*
X159145421Y-106616799D01*
X158961119Y-106801101D01*
X158709360Y-106868559D01*
X158457601Y-106801101D01*
X158273299Y-106616799D01*
X158201360Y-106348319D01*
X158201360Y-102368561D01*
X158290314Y-102036581D01*
X158521101Y-101805794D01*
X158688887Y-101760836D01*
X158774287Y-101752425D01*
X158860469Y-101726281D01*
X158878132Y-101716840D01*
X158972039Y-101716840D01*
X159227819Y-101785376D01*
G04 #@! TA.AperFunction,Conductor*
D30*
G36*
X159227819Y-101785376D02*
G01*
X159402824Y-101960381D01*
X159557358Y-102537110D01*
X159566128Y-102560411D01*
X159579275Y-102581553D01*
X159590228Y-102594043D01*
X159813357Y-102817172D01*
X159832603Y-102832966D01*
X159854559Y-102844702D01*
X159870290Y-102850042D01*
X160175090Y-102931713D01*
X160207960Y-102936040D01*
X160216639Y-102936040D01*
X160485119Y-103007979D01*
X160669421Y-103192281D01*
X160741360Y-103460761D01*
X160741360Y-103681319D01*
X160652406Y-104013299D01*
X160421619Y-104244086D01*
X159692490Y-104439456D01*
X159669189Y-104448226D01*
X159648047Y-104461373D01*
X159635557Y-104472326D01*
X159356646Y-104751237D01*
X159340852Y-104770483D01*
X159329116Y-104792439D01*
X159323776Y-104808170D01*
X159221687Y-105189170D01*
X159217360Y-105222040D01*
X159217360Y-106348319D01*
X159145421Y-106616799D01*
X158961119Y-106801101D01*
X158709360Y-106868559D01*
X158457601Y-106801101D01*
X158273299Y-106616799D01*
X158201360Y-106348319D01*
X158201360Y-102368561D01*
X158290314Y-102036581D01*
X158521101Y-101805794D01*
X158688887Y-101760836D01*
X158774287Y-101752425D01*
X158860469Y-101726281D01*
X158878132Y-101716840D01*
X158972039Y-101716840D01*
X159227819Y-101785376D01*
G37*
G04 #@! TD.AperFunction*
D29*
X141646763Y-102980637D02*
X141691360Y-103088303D01*
X141691360Y-106622531D01*
X141622608Y-106968170D01*
X141433905Y-107250585D01*
X141151490Y-107439288D01*
X140805851Y-107508040D01*
X140560869Y-107508040D01*
X140257707Y-107447737D01*
X140011304Y-107283096D01*
X139846663Y-107036693D01*
X139786360Y-106733531D01*
X139786360Y-106199940D01*
X139783920Y-106175164D01*
X139776693Y-106151339D01*
X139676260Y-105908872D01*
X139664524Y-105886916D01*
X139648730Y-105867670D01*
X139629484Y-105851876D01*
X139607528Y-105840140D01*
X139171195Y-105659405D01*
X139100560Y-105488877D01*
X139100560Y-104583549D01*
X139169312Y-104237910D01*
X139358015Y-103955495D01*
X139640430Y-103766792D01*
X139986069Y-103698040D01*
X140929360Y-103698040D01*
X140954136Y-103695600D01*
X140977961Y-103688373D01*
X141247369Y-103576781D01*
X141269325Y-103565045D01*
X141288570Y-103549251D01*
X141304365Y-103530006D01*
X141316101Y-103508049D01*
X141427693Y-103238641D01*
X141434920Y-103214816D01*
X141437360Y-103190040D01*
X141437360Y-103088303D01*
X141481957Y-102980637D01*
X141564360Y-102946504D01*
X141646763Y-102980637D01*
G04 #@! TA.AperFunction,Conductor*
D30*
G36*
X141646763Y-102980637D02*
G01*
X141691360Y-103088303D01*
X141691360Y-106622531D01*
X141622608Y-106968170D01*
X141433905Y-107250585D01*
X141151490Y-107439288D01*
X140805851Y-107508040D01*
X140560869Y-107508040D01*
X140257707Y-107447737D01*
X140011304Y-107283096D01*
X139846663Y-107036693D01*
X139786360Y-106733531D01*
X139786360Y-106199940D01*
X139783920Y-106175164D01*
X139776693Y-106151339D01*
X139676260Y-105908872D01*
X139664524Y-105886916D01*
X139648730Y-105867670D01*
X139629484Y-105851876D01*
X139607528Y-105840140D01*
X139171195Y-105659405D01*
X139100560Y-105488877D01*
X139100560Y-104583549D01*
X139169312Y-104237910D01*
X139358015Y-103955495D01*
X139640430Y-103766792D01*
X139986069Y-103698040D01*
X140929360Y-103698040D01*
X140954136Y-103695600D01*
X140977961Y-103688373D01*
X141247369Y-103576781D01*
X141269325Y-103565045D01*
X141288570Y-103549251D01*
X141304365Y-103530006D01*
X141316101Y-103508049D01*
X141427693Y-103238641D01*
X141434920Y-103214816D01*
X141437360Y-103190040D01*
X141437360Y-103088303D01*
X141481957Y-102980637D01*
X141564360Y-102946504D01*
X141646763Y-102980637D01*
G37*
G04 #@! TD.AperFunction*
D29*
X130007360Y-96840040D02*
X127848360Y-96840040D01*
X127848360Y-95189040D01*
X130007360Y-95189040D01*
X130007360Y-96840040D01*
G04 #@! TA.AperFunction,Conductor*
D30*
G36*
X130007360Y-96840040D02*
G01*
X127848360Y-96840040D01*
X127848360Y-95189040D01*
X130007360Y-95189040D01*
X130007360Y-96840040D01*
G37*
G04 #@! TD.AperFunction*
D29*
X137365216Y-103271589D02*
X137703751Y-103496855D01*
X137930744Y-103834240D01*
X138014390Y-104245162D01*
X138029162Y-107140550D01*
X137970363Y-107443208D01*
X137806966Y-107689445D01*
X137772098Y-107712840D01*
X136767155Y-107712840D01*
X136732138Y-107689577D01*
X136565766Y-107442956D01*
X136503364Y-107139109D01*
X136488410Y-105030625D01*
X136483889Y-104997932D01*
X136405426Y-104711876D01*
X136396519Y-104688627D01*
X136383247Y-104667563D01*
X136372434Y-104655350D01*
X136161949Y-104446352D01*
X136142648Y-104430626D01*
X136120650Y-104418968D01*
X136105190Y-104413761D01*
X135818730Y-104337368D01*
X135818730Y-104337367D01*
X135565851Y-104269609D01*
X135404791Y-104108549D01*
X135341360Y-103871819D01*
X135341360Y-103778261D01*
X135421806Y-103478031D01*
X135629351Y-103270486D01*
X135929581Y-103190040D01*
X136953870Y-103190040D01*
X137365216Y-103271589D01*
G04 #@! TA.AperFunction,Conductor*
D30*
G36*
X137365216Y-103271589D02*
G01*
X137703751Y-103496855D01*
X137930744Y-103834240D01*
X138014390Y-104245162D01*
X138029162Y-107140550D01*
X137970363Y-107443208D01*
X137806966Y-107689445D01*
X137772098Y-107712840D01*
X136767155Y-107712840D01*
X136732138Y-107689577D01*
X136565766Y-107442956D01*
X136503364Y-107139109D01*
X136488410Y-105030625D01*
X136483889Y-104997932D01*
X136405426Y-104711876D01*
X136396519Y-104688627D01*
X136383247Y-104667563D01*
X136372434Y-104655350D01*
X136161949Y-104446352D01*
X136142648Y-104430626D01*
X136120650Y-104418968D01*
X136105190Y-104413761D01*
X135818730Y-104337368D01*
X135818730Y-104337367D01*
X135565851Y-104269609D01*
X135404791Y-104108549D01*
X135341360Y-103871819D01*
X135341360Y-103778261D01*
X135421806Y-103478031D01*
X135629351Y-103270486D01*
X135929581Y-103190040D01*
X136953870Y-103190040D01*
X137365216Y-103271589D01*
G37*
G04 #@! TD.AperFunction*
D29*
X141524019Y-98876164D02*
X141661836Y-99013981D01*
X141712280Y-99202240D01*
X141661836Y-99390499D01*
X141524019Y-99528316D01*
X141451022Y-99547875D01*
X141437270Y-99545140D01*
X141259650Y-99545140D01*
X141085444Y-99579792D01*
X141077120Y-99583240D01*
X140057081Y-99583240D01*
X139852101Y-99528316D01*
X139714284Y-99390499D01*
X139663840Y-99202240D01*
X139714284Y-99013981D01*
X139852101Y-98876164D01*
X140057081Y-98821240D01*
X141319039Y-98821240D01*
X141524019Y-98876164D01*
G04 #@! TA.AperFunction,Conductor*
D30*
G36*
X141524019Y-98876164D02*
G01*
X141661836Y-99013981D01*
X141712280Y-99202240D01*
X141661836Y-99390499D01*
X141524019Y-99528316D01*
X141451022Y-99547875D01*
X141437270Y-99545140D01*
X141259650Y-99545140D01*
X141085444Y-99579792D01*
X141077120Y-99583240D01*
X140057081Y-99583240D01*
X139852101Y-99528316D01*
X139714284Y-99390499D01*
X139663840Y-99202240D01*
X139714284Y-99013981D01*
X139852101Y-98876164D01*
X140057081Y-98821240D01*
X141319039Y-98821240D01*
X141524019Y-98876164D01*
G37*
G04 #@! TD.AperFunction*
D29*
X141419367Y-93426851D02*
X141659087Y-93772749D01*
X141749861Y-94183409D01*
X141677697Y-94591314D01*
X141453642Y-94939405D01*
X141112470Y-95173855D01*
X140694571Y-95260862D01*
X137569172Y-95282318D01*
X137147785Y-95201127D01*
X136800632Y-94971315D01*
X136568441Y-94625746D01*
X136486849Y-94217384D01*
X136568255Y-93806389D01*
X136800243Y-93457363D01*
X136984389Y-93333240D01*
X141275315Y-93333240D01*
X141419367Y-93426851D01*
G04 #@! TA.AperFunction,Conductor*
D30*
G36*
X141419367Y-93426851D02*
G01*
X141659087Y-93772749D01*
X141749861Y-94183409D01*
X141677697Y-94591314D01*
X141453642Y-94939405D01*
X141112470Y-95173855D01*
X140694571Y-95260862D01*
X137569172Y-95282318D01*
X137147785Y-95201127D01*
X136800632Y-94971315D01*
X136568441Y-94625746D01*
X136486849Y-94217384D01*
X136568255Y-93806389D01*
X136800243Y-93457363D01*
X136984389Y-93333240D01*
X141275315Y-93333240D01*
X141419367Y-93426851D01*
G37*
G04 #@! TD.AperFunction*
D29*
X150096406Y-97238325D02*
X150157557Y-97284188D01*
X150205060Y-97355442D01*
X150213060Y-97419444D01*
X150213060Y-99094376D01*
X150213097Y-99097436D01*
X150225797Y-99624400D01*
X150228833Y-99649110D01*
X150236632Y-99672754D01*
X150248894Y-99694421D01*
X150269750Y-99717457D01*
X150549150Y-99958757D01*
X150569497Y-99973104D01*
X150592251Y-99983207D01*
X150616539Y-99988676D01*
X150632160Y-99989640D01*
X150771473Y-99989640D01*
X150835455Y-100016142D01*
X150962424Y-100041398D01*
X151091882Y-100041398D01*
X151218851Y-100016142D01*
X151282833Y-99989640D01*
X151483060Y-99989640D01*
X151507836Y-99987200D01*
X151531661Y-99979973D01*
X151553617Y-99968237D01*
X151567434Y-99957561D01*
X151796034Y-99754361D01*
X151812931Y-99736077D01*
X151825936Y-99714847D01*
X151834550Y-99691488D01*
X151838523Y-99665342D01*
X151863923Y-99119339D01*
X151864060Y-99113437D01*
X151864060Y-97906840D01*
X151864018Y-97903585D01*
X151851817Y-97427731D01*
X151867866Y-97371559D01*
X151910375Y-97295043D01*
X151958832Y-97260430D01*
X152035313Y-97237486D01*
X152103006Y-97251025D01*
X152164157Y-97296888D01*
X152211660Y-97368142D01*
X152219660Y-97432144D01*
X152219660Y-99710240D01*
X152222100Y-99735016D01*
X152229327Y-99758841D01*
X152241063Y-99780797D01*
X152251083Y-99793870D01*
X152517783Y-100098670D01*
X152535935Y-100115709D01*
X152557062Y-100128880D01*
X152580353Y-100137676D01*
X152613360Y-100142040D01*
X152856667Y-100142040D01*
X152875286Y-100147688D01*
X153027153Y-100162646D01*
X153179021Y-100147688D01*
X153197640Y-100142040D01*
X153502360Y-100142040D01*
X153502360Y-100709482D01*
X153341024Y-100720862D01*
X153316481Y-100725039D01*
X153293224Y-100733925D01*
X153272148Y-100747176D01*
X153254062Y-100764285D01*
X153239661Y-100784594D01*
X153229499Y-100807322D01*
X153223966Y-100831596D01*
X153222960Y-100847547D01*
X153222960Y-101589840D01*
X152841960Y-101589840D01*
X152841960Y-100883602D01*
X152839520Y-100858826D01*
X152832293Y-100835001D01*
X152820557Y-100813045D01*
X152804763Y-100793799D01*
X152785517Y-100778005D01*
X152763561Y-100766269D01*
X152739736Y-100759042D01*
X152711204Y-100756658D01*
X151589566Y-100789847D01*
X151564872Y-100793019D01*
X151541272Y-100800947D01*
X151522145Y-100811611D01*
X151259483Y-100989360D01*
X151240331Y-101005267D01*
X151224650Y-101024605D01*
X151213043Y-101046630D01*
X151205957Y-101070497D01*
X151203662Y-101095223D01*
X151216322Y-103450047D01*
X151205923Y-103543641D01*
X151194258Y-103578636D01*
X151156924Y-103615970D01*
X151123054Y-103643066D01*
X151093313Y-103649014D01*
X151024733Y-103658811D01*
X150965218Y-103651372D01*
X150913138Y-103621612D01*
X150888934Y-103597408D01*
X150870182Y-103559903D01*
X150860760Y-103475108D01*
X150860760Y-101996240D01*
X150860718Y-101992985D01*
X150855185Y-101777182D01*
X150852111Y-101752476D01*
X150847349Y-101738115D01*
X150835341Y-101041648D01*
X150832474Y-101016917D01*
X150824837Y-100993221D01*
X150812725Y-100971470D01*
X150796601Y-100952500D01*
X150782215Y-100940520D01*
X150604415Y-100813423D01*
X150582839Y-100800999D01*
X150559255Y-100793024D01*
X150532276Y-100789752D01*
X149592476Y-100777052D01*
X149567669Y-100779157D01*
X149543749Y-100786061D01*
X149527095Y-100794150D01*
X149285795Y-100933947D01*
X149265580Y-100948479D01*
X149248588Y-100966675D01*
X149235473Y-100987837D01*
X149226738Y-101011151D01*
X149222460Y-101043837D01*
X149222460Y-101815062D01*
X149219427Y-101820736D01*
X149212200Y-101844561D01*
X149209760Y-101869337D01*
X149209760Y-103449708D01*
X149199323Y-103543641D01*
X149187658Y-103578636D01*
X149150324Y-103615970D01*
X149116454Y-103643066D01*
X149086713Y-103649014D01*
X149018133Y-103658811D01*
X148958618Y-103651372D01*
X148906538Y-103621612D01*
X148882334Y-103597408D01*
X148863582Y-103559903D01*
X148854160Y-103475108D01*
X148854160Y-101589840D01*
X148853913Y-101581918D01*
X148803360Y-100773070D01*
X148803360Y-100004091D01*
X148805824Y-100003869D01*
X148835455Y-100016142D01*
X148962424Y-100041398D01*
X149091882Y-100041398D01*
X149218851Y-100016142D01*
X149338454Y-99966601D01*
X149357174Y-99954093D01*
X149741879Y-99919362D01*
X149766336Y-99914703D01*
X149789414Y-99905364D01*
X149810226Y-99891701D01*
X149827973Y-99874240D01*
X149841973Y-99853653D01*
X149851687Y-99830730D01*
X149856743Y-99806352D01*
X149857460Y-99792876D01*
X149857460Y-97894140D01*
X149857418Y-97890885D01*
X149845217Y-97415031D01*
X149861266Y-97358859D01*
X149903775Y-97282343D01*
X149952232Y-97247730D01*
X150028713Y-97224786D01*
X150096406Y-97238325D01*
G04 #@! TA.AperFunction,Conductor*
D30*
G36*
X150096406Y-97238325D02*
G01*
X150157557Y-97284188D01*
X150205060Y-97355442D01*
X150213060Y-97419444D01*
X150213060Y-99094376D01*
X150213097Y-99097436D01*
X150225797Y-99624400D01*
X150228833Y-99649110D01*
X150236632Y-99672754D01*
X150248894Y-99694421D01*
X150269750Y-99717457D01*
X150549150Y-99958757D01*
X150569497Y-99973104D01*
X150592251Y-99983207D01*
X150616539Y-99988676D01*
X150632160Y-99989640D01*
X150771473Y-99989640D01*
X150835455Y-100016142D01*
X150962424Y-100041398D01*
X151091882Y-100041398D01*
X151218851Y-100016142D01*
X151282833Y-99989640D01*
X151483060Y-99989640D01*
X151507836Y-99987200D01*
X151531661Y-99979973D01*
X151553617Y-99968237D01*
X151567434Y-99957561D01*
X151796034Y-99754361D01*
X151812931Y-99736077D01*
X151825936Y-99714847D01*
X151834550Y-99691488D01*
X151838523Y-99665342D01*
X151863923Y-99119339D01*
X151864060Y-99113437D01*
X151864060Y-97906840D01*
X151864018Y-97903585D01*
X151851817Y-97427731D01*
X151867866Y-97371559D01*
X151910375Y-97295043D01*
X151958832Y-97260430D01*
X152035313Y-97237486D01*
X152103006Y-97251025D01*
X152164157Y-97296888D01*
X152211660Y-97368142D01*
X152219660Y-97432144D01*
X152219660Y-99710240D01*
X152222100Y-99735016D01*
X152229327Y-99758841D01*
X152241063Y-99780797D01*
X152251083Y-99793870D01*
X152517783Y-100098670D01*
X152535935Y-100115709D01*
X152557062Y-100128880D01*
X152580353Y-100137676D01*
X152613360Y-100142040D01*
X152856667Y-100142040D01*
X152875286Y-100147688D01*
X153027153Y-100162646D01*
X153179021Y-100147688D01*
X153197640Y-100142040D01*
X153502360Y-100142040D01*
X153502360Y-100709482D01*
X153341024Y-100720862D01*
X153316481Y-100725039D01*
X153293224Y-100733925D01*
X153272148Y-100747176D01*
X153254062Y-100764285D01*
X153239661Y-100784594D01*
X153229499Y-100807322D01*
X153223966Y-100831596D01*
X153222960Y-100847547D01*
X153222960Y-101589840D01*
X152841960Y-101589840D01*
X152841960Y-100883602D01*
X152839520Y-100858826D01*
X152832293Y-100835001D01*
X152820557Y-100813045D01*
X152804763Y-100793799D01*
X152785517Y-100778005D01*
X152763561Y-100766269D01*
X152739736Y-100759042D01*
X152711204Y-100756658D01*
X151589566Y-100789847D01*
X151564872Y-100793019D01*
X151541272Y-100800947D01*
X151522145Y-100811611D01*
X151259483Y-100989360D01*
X151240331Y-101005267D01*
X151224650Y-101024605D01*
X151213043Y-101046630D01*
X151205957Y-101070497D01*
X151203662Y-101095223D01*
X151216322Y-103450047D01*
X151205923Y-103543641D01*
X151194258Y-103578636D01*
X151156924Y-103615970D01*
X151123054Y-103643066D01*
X151093313Y-103649014D01*
X151024733Y-103658811D01*
X150965218Y-103651372D01*
X150913138Y-103621612D01*
X150888934Y-103597408D01*
X150870182Y-103559903D01*
X150860760Y-103475108D01*
X150860760Y-101996240D01*
X150860718Y-101992985D01*
X150855185Y-101777182D01*
X150852111Y-101752476D01*
X150847349Y-101738115D01*
X150835341Y-101041648D01*
X150832474Y-101016917D01*
X150824837Y-100993221D01*
X150812725Y-100971470D01*
X150796601Y-100952500D01*
X150782215Y-100940520D01*
X150604415Y-100813423D01*
X150582839Y-100800999D01*
X150559255Y-100793024D01*
X150532276Y-100789752D01*
X149592476Y-100777052D01*
X149567669Y-100779157D01*
X149543749Y-100786061D01*
X149527095Y-100794150D01*
X149285795Y-100933947D01*
X149265580Y-100948479D01*
X149248588Y-100966675D01*
X149235473Y-100987837D01*
X149226738Y-101011151D01*
X149222460Y-101043837D01*
X149222460Y-101815062D01*
X149219427Y-101820736D01*
X149212200Y-101844561D01*
X149209760Y-101869337D01*
X149209760Y-103449708D01*
X149199323Y-103543641D01*
X149187658Y-103578636D01*
X149150324Y-103615970D01*
X149116454Y-103643066D01*
X149086713Y-103649014D01*
X149018133Y-103658811D01*
X148958618Y-103651372D01*
X148906538Y-103621612D01*
X148882334Y-103597408D01*
X148863582Y-103559903D01*
X148854160Y-103475108D01*
X148854160Y-101589840D01*
X148853913Y-101581918D01*
X148803360Y-100773070D01*
X148803360Y-100004091D01*
X148805824Y-100003869D01*
X148835455Y-100016142D01*
X148962424Y-100041398D01*
X149091882Y-100041398D01*
X149218851Y-100016142D01*
X149338454Y-99966601D01*
X149357174Y-99954093D01*
X149741879Y-99919362D01*
X149766336Y-99914703D01*
X149789414Y-99905364D01*
X149810226Y-99891701D01*
X149827973Y-99874240D01*
X149841973Y-99853653D01*
X149851687Y-99830730D01*
X149856743Y-99806352D01*
X149857460Y-99792876D01*
X149857460Y-97894140D01*
X149857418Y-97890885D01*
X149845217Y-97415031D01*
X149861266Y-97358859D01*
X149903775Y-97282343D01*
X149952232Y-97247730D01*
X150028713Y-97224786D01*
X150096406Y-97238325D01*
G37*
G04 #@! TD.AperFunction*
D29*
X156332360Y-106894779D02*
X154353260Y-106922076D01*
X154353260Y-104426101D01*
X156332360Y-104398804D01*
X156332360Y-106894779D01*
G04 #@! TA.AperFunction,Conductor*
D30*
G36*
X156332360Y-106894779D02*
G01*
X154353260Y-106922076D01*
X154353260Y-104426101D01*
X156332360Y-104398804D01*
X156332360Y-106894779D01*
G37*
G04 #@! TD.AperFunction*
D29*
X159344360Y-97980425D02*
X159331213Y-97983040D01*
X158871023Y-97983040D01*
X158860469Y-97977399D01*
X158774287Y-97951255D01*
X158684660Y-97942428D01*
X157944456Y-97942428D01*
X157931652Y-97938544D01*
X157840232Y-97929540D01*
X157312360Y-97929540D01*
X157312360Y-95443040D01*
X159344360Y-95443040D01*
X159344360Y-97980425D01*
G04 #@! TA.AperFunction,Conductor*
D30*
G36*
X159344360Y-97980425D02*
G01*
X159331213Y-97983040D01*
X158871023Y-97983040D01*
X158860469Y-97977399D01*
X158774287Y-97951255D01*
X158684660Y-97942428D01*
X157944456Y-97942428D01*
X157931652Y-97938544D01*
X157840232Y-97929540D01*
X157312360Y-97929540D01*
X157312360Y-95443040D01*
X159344360Y-95443040D01*
X159344360Y-97980425D01*
G37*
G04 #@! TD.AperFunction*
D29*
X154833619Y-94896994D02*
X155064406Y-95127781D01*
X155148879Y-95443040D01*
X155064406Y-95758299D01*
X154833619Y-95989086D01*
X154501639Y-96078040D01*
X154391360Y-96078040D01*
X154366584Y-96080480D01*
X154026378Y-96148151D01*
X154002553Y-96155378D01*
X153980597Y-96167114D01*
X153692185Y-96359825D01*
X153672939Y-96375619D01*
X153657145Y-96394865D01*
X153464434Y-96683277D01*
X153452698Y-96705233D01*
X153445471Y-96729058D01*
X153377800Y-97069264D01*
X153375360Y-97094040D01*
X153375360Y-97830777D01*
X153293566Y-98028246D01*
X153121360Y-98099576D01*
X152949154Y-98028246D01*
X152867360Y-97830777D01*
X152867360Y-95963549D01*
X152956665Y-95514585D01*
X153203896Y-95144576D01*
X153573905Y-94897345D01*
X154022869Y-94808040D01*
X154501639Y-94808040D01*
X154833619Y-94896994D01*
G04 #@! TA.AperFunction,Conductor*
D30*
G36*
X154833619Y-94896994D02*
G01*
X155064406Y-95127781D01*
X155148879Y-95443040D01*
X155064406Y-95758299D01*
X154833619Y-95989086D01*
X154501639Y-96078040D01*
X154391360Y-96078040D01*
X154366584Y-96080480D01*
X154026378Y-96148151D01*
X154002553Y-96155378D01*
X153980597Y-96167114D01*
X153692185Y-96359825D01*
X153672939Y-96375619D01*
X153657145Y-96394865D01*
X153464434Y-96683277D01*
X153452698Y-96705233D01*
X153445471Y-96729058D01*
X153377800Y-97069264D01*
X153375360Y-97094040D01*
X153375360Y-97830777D01*
X153293566Y-98028246D01*
X153121360Y-98099576D01*
X152949154Y-98028246D01*
X152867360Y-97830777D01*
X152867360Y-95963549D01*
X152956665Y-95514585D01*
X153203896Y-95144576D01*
X153573905Y-94897345D01*
X154022869Y-94808040D01*
X154501639Y-94808040D01*
X154833619Y-94896994D01*
G37*
G04 #@! TD.AperFunction*
D29*
X137513994Y-96044125D02*
X137686675Y-96216806D01*
X137749880Y-96452690D01*
X137686675Y-96688574D01*
X137513994Y-96861255D01*
X137261389Y-96928940D01*
X134196031Y-96928940D01*
X133943426Y-96861255D01*
X133770745Y-96688574D01*
X133707540Y-96452690D01*
X133770745Y-96216806D01*
X133943426Y-96044125D01*
X134196031Y-95976440D01*
X137261389Y-95976440D01*
X137513994Y-96044125D01*
G04 #@! TA.AperFunction,Conductor*
D30*
G36*
X137513994Y-96044125D02*
G01*
X137686675Y-96216806D01*
X137749880Y-96452690D01*
X137686675Y-96688574D01*
X137513994Y-96861255D01*
X137261389Y-96928940D01*
X134196031Y-96928940D01*
X133943426Y-96861255D01*
X133770745Y-96688574D01*
X133707540Y-96452690D01*
X133770745Y-96216806D01*
X133943426Y-96044125D01*
X134196031Y-95976440D01*
X137261389Y-95976440D01*
X137513994Y-96044125D01*
G37*
G04 #@! TD.AperFunction*
M02*
