M48
; DRILL file {KiCad (5.1.9)-1} date 10/23/21 14:42:39
; FORMAT={-:-/ absolute / inch / decimal}
; #@! TF.CreationDate,2021-10-23T14:42:39-07:00
; #@! TF.GenerationSoftware,Kicad,Pcbnew,(5.1.9)-1
FMAT,2
INCH
T1C0.0120
T2C0.0220
T3C0.0350
%
G90
G05
T1
X5.0484Y-4.0076
X5.0634Y-3.7826
X5.0784Y-3.8026
X5.0934Y-3.7826
X5.1008Y-3.9156
X5.1074Y-3.7066
X5.1084Y-3.8026
X5.1274Y-3.928
X5.1344Y-4.0036
X5.2284Y-3.9576
X5.2326Y-3.9076
X5.2932Y-3.7124
X5.3062Y-3.6908
X5.3188Y-3.7124
X5.3284Y-3.8926
X5.3294Y-4.0186
X5.3304Y-3.8506
X5.3324Y-3.9526
X5.3819Y-3.7871
X5.3864Y-4.2316
X5.3874Y-4.1936
X5.4024Y-3.8066
X5.4394Y-3.7146
X5.4649Y-3.7146
X5.4905Y-3.7151
X5.5084Y-3.8971
X5.5164Y-3.7146
X5.5344Y-3.8981
X5.5424Y-3.7146
X5.5439Y-4.1451
X5.5474Y-4.1716
X5.5684Y-4.1536
X6.0409Y-3.7526
X6.0659Y-3.7426
X6.0784Y-3.7676
X6.0879Y-4.1441
X6.0899Y-4.1166
X6.1159Y-4.1101
X6.2068Y-3.7984
X6.2384Y-3.7984
X6.2734Y-3.9426
X6.2784Y-3.8876
X6.3684Y-3.9026
X6.4864Y-3.8096
X6.5134Y-4.0426
X6.5304Y-3.8086
X6.5307Y-3.8706
T2
X5.5649Y-3.9546
X5.6029Y-3.9546
X5.6409Y-3.9546
X5.6789Y-3.9546
X5.7169Y-3.9546
X5.8764Y-3.9526
X5.9144Y-3.9526
X5.9524Y-3.9526
X5.9904Y-3.9526
X6.0284Y-3.9526
X6.1598Y-3.6819
X6.2904Y-3.6821
X6.5074Y-4.0966
X6.5554Y-4.2156
T3
X4.9984Y-3.7076
X4.9984Y-3.7876
X4.9984Y-3.8676
X4.9984Y-3.9582
X5.1584Y-4.1576
X5.1584Y-4.2076
X5.2109Y-4.1576
X5.2109Y-4.2076
X5.2484Y-3.6526
X5.2634Y-4.1576
X5.2634Y-4.2076
X5.3159Y-4.1576
X5.3159Y-4.2076
X5.3884Y-3.6526
X5.7234Y-3.727
X5.7234Y-3.777
X5.7234Y-4.1576
X5.7234Y-4.2076
X5.7759Y-3.727
X5.7759Y-4.1576
X5.7759Y-4.2076
X5.776Y-3.7783
X5.8284Y-3.727
X5.8284Y-4.1576
X5.8284Y-4.2076
X5.829Y-3.7783
X5.8809Y-3.727
X5.8809Y-3.777
X5.8809Y-4.1576
X5.8809Y-4.2076
X6.3184Y-4.1576
X6.3184Y-4.2076
X6.3709Y-4.1576
X6.3709Y-4.2076
X6.4234Y-4.1576
X6.4234Y-4.2076
X6.4759Y-4.1576
X6.4759Y-4.2106
X6.6084Y-3.9726
X6.6084Y-4.0576
X6.6084Y-4.1376
X6.6084Y-4.2176
T0
M30
