G04 #@! TF.GenerationSoftware,KiCad,Pcbnew,(5.1.9)-1*
G04 #@! TF.CreationDate,2021-10-23T14:42:36-07:00*
G04 #@! TF.ProjectId,Buffer - Rev D,42756666-6572-4202-9d20-52657620442e,rev?*
G04 #@! TF.SameCoordinates,Original*
G04 #@! TF.FileFunction,Soldermask,Top*
G04 #@! TF.FilePolarity,Negative*
%FSLAX46Y46*%
G04 Gerber Fmt 4.6, Leading zero omitted, Abs format (unit mm)*
G04 Created by KiCad (PCBNEW (5.1.9)-1) date 2021-10-23 14:42:36*
%MOMM*%
%LPD*%
G01*
G04 APERTURE LIST*
G04 #@! TA.AperFunction,Profile*
%ADD10C,0.200000*%
G04 #@! TD*
%ADD11R,1.750000X0.300000*%
%ADD12R,1.300000X1.400000*%
%ADD13C,1.270000*%
%ADD14R,1.000000X0.889000*%
%ADD15R,0.711000X0.508000*%
%ADD16R,1.500000X1.016000*%
%ADD17R,1.193800X1.193800*%
%ADD18R,0.889000X1.000000*%
%ADD19R,0.508000X0.711000*%
%ADD20C,0.350000*%
%ADD21C,0.254000*%
%ADD22C,0.500000*%
G04 APERTURE END LIST*
D10*
X126959360Y-92776040D02*
X126959360Y-108270040D01*
X167853360Y-92776040D02*
X126959360Y-92776040D01*
X167853360Y-108270040D02*
X167853360Y-92776040D01*
X126959360Y-108270040D02*
X167853360Y-108270040D01*
D11*
X136813360Y-97820040D03*
X131563360Y-97820040D03*
X131563360Y-98470040D03*
X131563360Y-99120040D03*
X131563360Y-99770040D03*
X131563360Y-100420040D03*
X131563360Y-101070040D03*
X131563360Y-101720040D03*
X136813360Y-98470040D03*
X136813360Y-99120040D03*
X136813360Y-100420040D03*
X136813360Y-101070040D03*
X136813360Y-101720040D03*
X157809660Y-101801840D03*
X163059660Y-101801840D03*
X163059660Y-101151840D03*
X163059660Y-100501840D03*
X163059660Y-99851840D03*
X163059660Y-99201840D03*
X163059660Y-98551840D03*
X163059660Y-97901840D03*
X157809660Y-101151840D03*
X157809660Y-100501840D03*
X157809660Y-99201840D03*
X157809660Y-98551840D03*
X157809660Y-97901840D03*
D12*
X133002360Y-103761540D03*
X135902360Y-103761540D03*
X163080360Y-103825040D03*
X160180360Y-103825040D03*
D13*
X148055560Y-95970040D03*
X146709360Y-95970040D03*
D14*
X157652545Y-94016099D03*
X157652545Y-95716099D03*
X135468360Y-96293040D03*
X135468360Y-94593040D03*
X158922545Y-94016099D03*
X158922545Y-95716099D03*
X134071360Y-96293040D03*
X134071360Y-94593040D03*
D15*
X128259360Y-99903040D03*
X128259360Y-101037040D03*
X166329360Y-103249040D03*
X166329360Y-102115040D03*
D16*
X147266660Y-99274340D03*
X147266660Y-101492340D03*
D17*
X140297360Y-106809540D03*
X137500360Y-106809540D03*
X155912360Y-106238040D03*
X158709360Y-106238040D03*
D13*
X136865360Y-92776040D03*
X145374360Y-95935140D03*
X145374360Y-94665140D03*
X149374860Y-95935140D03*
X148041360Y-94665140D03*
X149374860Y-94665140D03*
X146707860Y-94665140D03*
X148041360Y-106873040D03*
X149374860Y-106873040D03*
X135023860Y-106873040D03*
X164487860Y-106949240D03*
X163154360Y-106873040D03*
X160487360Y-105603040D03*
X160487360Y-106873040D03*
X163154360Y-105603040D03*
X161820860Y-105603040D03*
X161820860Y-106873040D03*
X164487860Y-105603040D03*
X167853360Y-100904040D03*
X146707860Y-106873040D03*
X145374360Y-106873040D03*
X149374860Y-105603040D03*
X148041360Y-105603040D03*
X146707860Y-105603040D03*
X145374360Y-105603040D03*
X133690360Y-105603040D03*
X132356860Y-105603040D03*
X135023860Y-105603040D03*
X133690360Y-106873040D03*
X132356860Y-106873040D03*
X131023360Y-105603040D03*
X131023360Y-106873040D03*
X133309360Y-92776040D03*
X126959360Y-94173040D03*
X167853360Y-105095040D03*
X167853360Y-103063040D03*
X126959360Y-100539040D03*
X167853360Y-107127040D03*
X126959360Y-96205040D03*
X126959360Y-98237040D03*
D15*
X128559360Y-95337040D03*
X128559360Y-94203040D03*
X129559360Y-97797040D03*
X129559360Y-98931040D03*
D18*
X139418921Y-104010794D03*
X137718921Y-104010794D03*
X139405053Y-105349040D03*
X137705053Y-105349040D03*
X156894160Y-103291640D03*
X158594160Y-103291640D03*
X156894160Y-104637840D03*
X158594160Y-104637840D03*
D15*
X165186360Y-99829040D03*
X165186360Y-100963040D03*
D19*
X165880360Y-97729040D03*
X164746360Y-97729040D03*
X139926360Y-97870040D03*
X138792360Y-97870040D03*
X139926360Y-102743040D03*
X138792360Y-102743040D03*
X154492360Y-103370040D03*
X155626360Y-103370040D03*
X154792360Y-98370040D03*
X155926360Y-98370040D03*
D20*
X145520553Y-103569998D03*
X144520553Y-103569998D03*
X143520553Y-103569998D03*
X142520553Y-103569998D03*
X141520553Y-103569998D03*
X145520553Y-103069998D03*
X144520553Y-103069998D03*
X143520553Y-103069998D03*
X142520553Y-103069998D03*
X141520553Y-103069998D03*
X145520553Y-102569998D03*
X144520553Y-102569998D03*
X143520553Y-102569998D03*
X142520553Y-102569998D03*
X145520553Y-102069998D03*
X144520553Y-102069998D03*
X143520553Y-102069998D03*
X142520553Y-102069998D03*
X141520553Y-102069998D03*
X145520553Y-101569998D03*
X144520553Y-101569998D03*
X143520553Y-101569998D03*
X142520553Y-101569998D03*
X141520553Y-101569998D03*
X145507853Y-99447698D03*
X144507853Y-99447698D03*
X143507853Y-99447698D03*
X142507853Y-99447698D03*
X141507853Y-99447698D03*
X145507853Y-98947698D03*
X144507853Y-98947698D03*
X143507853Y-98947698D03*
X142507853Y-98947698D03*
X141507853Y-98947698D03*
X145507853Y-98447698D03*
X144507853Y-98447698D03*
X143507853Y-98447698D03*
X142507853Y-98447698D03*
X145507853Y-97947698D03*
X144507853Y-97947698D03*
X143507853Y-97947698D03*
X142507853Y-97947698D03*
X141507853Y-97947698D03*
X145507853Y-97447698D03*
X144507853Y-97447698D03*
X143507853Y-97447698D03*
X142507853Y-97447698D03*
X141507853Y-97447698D03*
X149038560Y-101506498D03*
X150038560Y-101506498D03*
X151038560Y-101506498D03*
X152038560Y-101506498D03*
X153038560Y-101506498D03*
X149038560Y-102006498D03*
X150038560Y-102006498D03*
X151038560Y-102006498D03*
X152038560Y-102006498D03*
X153038560Y-102006498D03*
X149038560Y-102506498D03*
X150038560Y-102506498D03*
X151038560Y-102506498D03*
X152038560Y-102506498D03*
X149038560Y-103006498D03*
X150038560Y-103006498D03*
X151038560Y-103006498D03*
X152038560Y-103006498D03*
X153038560Y-103006498D03*
X149038560Y-103506498D03*
X150038560Y-103506498D03*
X151038560Y-103506498D03*
X152038560Y-103506498D03*
X153038560Y-103506498D03*
X149027153Y-97384198D03*
X150027153Y-97384198D03*
X151027153Y-97384198D03*
X152027153Y-97384198D03*
X153027153Y-97384198D03*
X149027153Y-97884198D03*
X150027153Y-97884198D03*
X151027153Y-97884198D03*
X152027153Y-97884198D03*
X153027153Y-97884198D03*
X149027153Y-98384198D03*
X150027153Y-98384198D03*
X151027153Y-98384198D03*
X152027153Y-98384198D03*
X149027153Y-98884198D03*
X150027153Y-98884198D03*
X151027153Y-98884198D03*
X152027153Y-98884198D03*
X153027153Y-98884198D03*
X149027153Y-99384198D03*
X150027153Y-99384198D03*
X151027153Y-99384198D03*
X152027153Y-99384198D03*
X153027153Y-99384198D03*
D19*
X165880360Y-98872040D03*
X164746360Y-98872040D03*
D15*
X128259360Y-98931040D03*
X128259360Y-97797040D03*
X129559360Y-99903040D03*
X129559360Y-101037040D03*
X132801360Y-95257040D03*
X132801360Y-96391040D03*
D19*
X138792360Y-96470040D03*
X139926360Y-96470040D03*
X138792360Y-101343040D03*
X139926360Y-101343040D03*
X154492360Y-101970040D03*
X155626360Y-101970040D03*
X154792360Y-97070040D03*
X155926360Y-97070040D03*
D15*
X160487360Y-94241040D03*
X160487360Y-95375040D03*
X166456360Y-100963040D03*
X166456360Y-99829040D03*
D21*
X138878163Y-96300437D02*
X138922760Y-96408103D01*
X138922760Y-97932377D01*
X138878163Y-98040043D01*
X138795760Y-98074176D01*
X138713357Y-98040043D01*
X138668760Y-97932377D01*
X138668760Y-96408103D01*
X138713357Y-96300437D01*
X138795760Y-96266304D01*
X138878163Y-96300437D01*
D22*
G36*
X138878163Y-96300437D02*
G01*
X138922760Y-96408103D01*
X138922760Y-97932377D01*
X138878163Y-98040043D01*
X138795760Y-98074176D01*
X138713357Y-98040043D01*
X138668760Y-97932377D01*
X138668760Y-96408103D01*
X138713357Y-96300437D01*
X138795760Y-96266304D01*
X138878163Y-96300437D01*
G37*
D21*
X140011003Y-96328769D02*
X140055600Y-96436435D01*
X140055600Y-97960709D01*
X140011003Y-98068375D01*
X139928600Y-98102508D01*
X139846197Y-98068375D01*
X139801600Y-97960709D01*
X139801600Y-96436435D01*
X139846197Y-96328769D01*
X139928600Y-96294636D01*
X140011003Y-96328769D01*
D22*
G36*
X140011003Y-96328769D02*
G01*
X140055600Y-96436435D01*
X140055600Y-97960709D01*
X140011003Y-98068375D01*
X139928600Y-98102508D01*
X139846197Y-98068375D01*
X139801600Y-97960709D01*
X139801600Y-96436435D01*
X139846197Y-96328769D01*
X139928600Y-96294636D01*
X140011003Y-96328769D01*
G37*
D21*
X138874199Y-101168501D02*
X138917680Y-101273473D01*
X138917680Y-102812901D01*
X138873572Y-102919011D01*
X138792510Y-102952230D01*
X138710920Y-102918015D01*
X138666895Y-102810797D01*
X138670631Y-101273739D01*
X138714423Y-101168557D01*
X138794448Y-101135467D01*
X138874199Y-101168501D01*
D22*
G36*
X138874199Y-101168501D02*
G01*
X138917680Y-101273473D01*
X138917680Y-102812901D01*
X138873572Y-102919011D01*
X138792510Y-102952230D01*
X138710920Y-102918015D01*
X138666895Y-102810797D01*
X138670631Y-101273739D01*
X138714423Y-101168557D01*
X138794448Y-101135467D01*
X138874199Y-101168501D01*
G37*
D21*
X140009579Y-101160881D02*
X140053060Y-101265853D01*
X140053060Y-102805281D01*
X140008952Y-102911391D01*
X139927890Y-102944610D01*
X139846300Y-102910395D01*
X139802275Y-102803177D01*
X139806011Y-101266119D01*
X139849803Y-101160937D01*
X139929828Y-101127847D01*
X140009579Y-101160881D01*
D22*
G36*
X140009579Y-101160881D02*
G01*
X140053060Y-101265853D01*
X140053060Y-102805281D01*
X140008952Y-102911391D01*
X139927890Y-102944610D01*
X139846300Y-102910395D01*
X139802275Y-102803177D01*
X139806011Y-101266119D01*
X139849803Y-101160937D01*
X139929828Y-101127847D01*
X140009579Y-101160881D01*
G37*
D21*
X154873102Y-96886833D02*
X154917492Y-96993712D01*
X154919327Y-98445598D01*
X154874896Y-98553153D01*
X154792659Y-98587247D01*
X154710277Y-98553123D01*
X154665680Y-98445457D01*
X154665680Y-96993573D01*
X154709905Y-96886805D01*
X154791433Y-96853035D01*
X154873102Y-96886833D01*
D22*
G36*
X154873102Y-96886833D02*
G01*
X154917492Y-96993712D01*
X154919327Y-98445598D01*
X154874896Y-98553153D01*
X154792659Y-98587247D01*
X154710277Y-98553123D01*
X154665680Y-98445457D01*
X154665680Y-96993573D01*
X154709905Y-96886805D01*
X154791433Y-96853035D01*
X154873102Y-96886833D01*
G37*
D21*
X156011022Y-96874133D02*
X156055412Y-96981012D01*
X156057247Y-98432898D01*
X156012816Y-98540453D01*
X155930579Y-98574547D01*
X155848197Y-98540423D01*
X155803600Y-98432757D01*
X155803600Y-96980873D01*
X155847825Y-96874105D01*
X155929353Y-96840335D01*
X156011022Y-96874133D01*
D22*
G36*
X156011022Y-96874133D02*
G01*
X156055412Y-96981012D01*
X156057247Y-98432898D01*
X156012816Y-98540453D01*
X155930579Y-98574547D01*
X155848197Y-98540423D01*
X155803600Y-98432757D01*
X155803600Y-96980873D01*
X155847825Y-96874105D01*
X155929353Y-96840335D01*
X156011022Y-96874133D01*
G37*
D21*
X154575121Y-101868657D02*
X154620319Y-101975250D01*
X154622141Y-103416751D01*
X154575562Y-103531896D01*
X154487368Y-103570761D01*
X154403748Y-103538266D01*
X154358340Y-103430881D01*
X154358340Y-101989379D01*
X154404724Y-101875014D01*
X154492218Y-101836480D01*
X154575121Y-101868657D01*
D22*
G36*
X154575121Y-101868657D02*
G01*
X154620319Y-101975250D01*
X154622141Y-103416751D01*
X154575562Y-103531896D01*
X154487368Y-103570761D01*
X154403748Y-103538266D01*
X154358340Y-103430881D01*
X154358340Y-101989379D01*
X154404724Y-101875014D01*
X154492218Y-101836480D01*
X154575121Y-101868657D01*
G37*
D21*
X155711302Y-101870939D02*
X155755692Y-101977818D01*
X155757527Y-103429704D01*
X155713096Y-103537259D01*
X155630859Y-103571353D01*
X155548477Y-103537229D01*
X155503880Y-103429563D01*
X155503880Y-101977679D01*
X155548105Y-101870911D01*
X155629633Y-101837141D01*
X155711302Y-101870939D01*
D22*
G36*
X155711302Y-101870939D02*
G01*
X155755692Y-101977818D01*
X155757527Y-103429704D01*
X155713096Y-103537259D01*
X155630859Y-103571353D01*
X155548477Y-103537229D01*
X155503880Y-103429563D01*
X155503880Y-101977679D01*
X155548105Y-101870911D01*
X155629633Y-101837141D01*
X155711302Y-101870939D01*
G37*
M02*
