G04 #@! TF.GenerationSoftware,KiCad,Pcbnew,(5.1.9)-1*
G04 #@! TF.CreationDate,2021-10-23T14:42:36-07:00*
G04 #@! TF.ProjectId,Buffer - Rev D,42756666-6572-4202-9d20-52657620442e,rev?*
G04 #@! TF.SameCoordinates,Original*
G04 #@! TF.FileFunction,Legend,Bot*
G04 #@! TF.FilePolarity,Positive*
%FSLAX46Y46*%
G04 Gerber Fmt 4.6, Leading zero omitted, Abs format (unit mm)*
G04 Created by KiCad (PCBNEW (5.1.9)-1) date 2021-10-23 14:42:36*
%MOMM*%
%LPD*%
G01*
G04 APERTURE LIST*
G04 #@! TA.AperFunction,Profile*
%ADD10C,0.200000*%
G04 #@! TD*
%ADD11C,0.063500*%
G04 APERTURE END LIST*
D10*
X126959360Y-92776040D02*
X126959360Y-108270040D01*
X167853360Y-92776040D02*
X126959360Y-92776040D01*
X167853360Y-108270040D02*
X167853360Y-92776040D01*
X126959360Y-108270040D02*
X167853360Y-108270040D01*
D11*
X151430445Y-94869549D02*
X151212731Y-94869549D01*
X151321588Y-95377549D02*
X151321588Y-94869549D01*
X151085731Y-95377549D02*
X151085731Y-94869549D01*
X150940588Y-94869549D01*
X150904302Y-94893740D01*
X150886160Y-94917930D01*
X150868017Y-94966311D01*
X150868017Y-95038882D01*
X150886160Y-95087263D01*
X150904302Y-95111454D01*
X150940588Y-95135644D01*
X151085731Y-95135644D01*
X150650302Y-95087263D02*
X150686588Y-95063073D01*
X150704731Y-95038882D01*
X150722874Y-94990501D01*
X150722874Y-94966311D01*
X150704731Y-94917930D01*
X150686588Y-94893740D01*
X150650302Y-94869549D01*
X150577731Y-94869549D01*
X150541445Y-94893740D01*
X150523302Y-94917930D01*
X150505160Y-94966311D01*
X150505160Y-94990501D01*
X150523302Y-95038882D01*
X150541445Y-95063073D01*
X150577731Y-95087263D01*
X150650302Y-95087263D01*
X150686588Y-95111454D01*
X150704731Y-95135644D01*
X150722874Y-95184025D01*
X150722874Y-95280787D01*
X150704731Y-95329168D01*
X150686588Y-95353359D01*
X150650302Y-95377549D01*
X150577731Y-95377549D01*
X150541445Y-95353359D01*
X150523302Y-95329168D01*
X150505160Y-95280787D01*
X150505160Y-95184025D01*
X150523302Y-95135644D01*
X150541445Y-95111454D01*
X150577731Y-95087263D01*
X136587169Y-105448825D02*
X136587169Y-105666540D01*
X137095169Y-105557682D02*
X136587169Y-105557682D01*
X137095169Y-105793540D02*
X136587169Y-105793540D01*
X136587169Y-105938682D01*
X136611360Y-105974968D01*
X136635550Y-105993111D01*
X136683931Y-106011254D01*
X136756502Y-106011254D01*
X136804883Y-105993111D01*
X136829074Y-105974968D01*
X136853264Y-105938682D01*
X136853264Y-105793540D01*
X137095169Y-106374111D02*
X137095169Y-106156397D01*
X137095169Y-106265254D02*
X136587169Y-106265254D01*
X136659740Y-106228968D01*
X136708121Y-106192682D01*
X136732312Y-106156397D01*
X136635550Y-106519254D02*
X136611360Y-106537397D01*
X136587169Y-106573682D01*
X136587169Y-106664397D01*
X136611360Y-106700682D01*
X136635550Y-106718825D01*
X136683931Y-106736968D01*
X136732312Y-106736968D01*
X136804883Y-106718825D01*
X137095169Y-106501111D01*
X137095169Y-106736968D01*
X158177169Y-104940825D02*
X158177169Y-105158540D01*
X158685169Y-105049682D02*
X158177169Y-105049682D01*
X158685169Y-105285540D02*
X158177169Y-105285540D01*
X158177169Y-105430682D01*
X158201360Y-105466968D01*
X158225550Y-105485111D01*
X158273931Y-105503254D01*
X158346502Y-105503254D01*
X158394883Y-105485111D01*
X158419074Y-105466968D01*
X158443264Y-105430682D01*
X158443264Y-105285540D01*
X158685169Y-105866111D02*
X158685169Y-105648397D01*
X158685169Y-105757254D02*
X158177169Y-105757254D01*
X158249740Y-105720968D01*
X158298121Y-105684682D01*
X158322312Y-105648397D01*
X158177169Y-105993111D02*
X158177169Y-106228968D01*
X158370693Y-106101968D01*
X158370693Y-106156397D01*
X158394883Y-106192682D01*
X158419074Y-106210825D01*
X158467455Y-106228968D01*
X158588407Y-106228968D01*
X158636788Y-106210825D01*
X158660979Y-106192682D01*
X158685169Y-106156397D01*
X158685169Y-106047540D01*
X158660979Y-106011254D01*
X158636788Y-105993111D01*
X150671469Y-105122254D02*
X150671469Y-105339968D01*
X151179469Y-105231111D02*
X150671469Y-105231111D01*
X151179469Y-105466968D02*
X150671469Y-105466968D01*
X150671469Y-105612111D01*
X150695660Y-105648397D01*
X150719850Y-105666540D01*
X150768231Y-105684682D01*
X150840802Y-105684682D01*
X150889183Y-105666540D01*
X150913374Y-105648397D01*
X150937564Y-105612111D01*
X150937564Y-105466968D01*
X150671469Y-105811682D02*
X150671469Y-106065682D01*
X151179469Y-105902397D01*
M02*
