G04 #@! TF.GenerationSoftware,KiCad,Pcbnew,(5.1.9)-1*
G04 #@! TF.CreationDate,2021-10-23T14:42:36-07:00*
G04 #@! TF.ProjectId,Buffer - Rev D,42756666-6572-4202-9d20-52657620442e,rev?*
G04 #@! TF.SameCoordinates,Original*
G04 #@! TF.FileFunction,Copper,L4,Bot*
G04 #@! TF.FilePolarity,Positive*
%FSLAX46Y46*%
G04 Gerber Fmt 4.6, Leading zero omitted, Abs format (unit mm)*
G04 Created by KiCad (PCBNEW (5.1.9)-1) date 2021-10-23 14:42:36*
%MOMM*%
%LPD*%
G01*
G04 APERTURE LIST*
G04 #@! TA.AperFunction,Profile*
%ADD10C,0.200000*%
G04 #@! TD*
G04 #@! TA.AperFunction,ComponentPad*
%ADD11C,1.270000*%
G04 #@! TD*
G04 #@! TA.AperFunction,SMDPad,CuDef*
%ADD12R,5.080000X2.540000*%
G04 #@! TD*
G04 #@! TA.AperFunction,ViaPad*
%ADD13C,0.635000*%
G04 #@! TD*
G04 #@! TA.AperFunction,ViaPad*
%ADD14C,0.889000*%
G04 #@! TD*
G04 #@! TA.AperFunction,Conductor*
%ADD15C,0.330200*%
G04 #@! TD*
G04 #@! TA.AperFunction,Conductor*
%ADD16C,0.254000*%
G04 #@! TD*
G04 #@! TA.AperFunction,Conductor*
%ADD17C,0.500000*%
G04 #@! TD*
G04 APERTURE END LIST*
D10*
X126959360Y-92776040D02*
X126959360Y-108270040D01*
X167853360Y-92776040D02*
X126959360Y-92776040D01*
X167853360Y-108270040D02*
X167853360Y-92776040D01*
X126959360Y-108270040D02*
X167853360Y-108270040D01*
D11*
X148055560Y-95970040D03*
X146709360Y-95970040D03*
X136865360Y-92776040D03*
D12*
X147393660Y-95173140D03*
D11*
X145374360Y-95935140D03*
X145374360Y-94665140D03*
X149374860Y-95935140D03*
X148041360Y-94665140D03*
X149374860Y-94665140D03*
X146707860Y-94665140D03*
X148041360Y-106873040D03*
X149374860Y-106873040D03*
X135023860Y-106873040D03*
X164487860Y-106949240D03*
X163154360Y-106873040D03*
X160487360Y-105603040D03*
X160487360Y-106873040D03*
X163154360Y-105603040D03*
X161820860Y-105603040D03*
X161820860Y-106873040D03*
X164487860Y-105603040D03*
X167853360Y-100904040D03*
X146707860Y-106873040D03*
X145374360Y-106873040D03*
X149374860Y-105603040D03*
X148041360Y-105603040D03*
X146707860Y-105603040D03*
X145374360Y-105603040D03*
X133690360Y-105603040D03*
X132356860Y-105603040D03*
X135023860Y-105603040D03*
X133690360Y-106873040D03*
X132356860Y-106873040D03*
X131023360Y-105603040D03*
X131023360Y-106873040D03*
D12*
X133309360Y-106111040D03*
X162519360Y-106111040D03*
D11*
X133309360Y-92776040D03*
X126959360Y-94173040D03*
X167853360Y-105095040D03*
X167853360Y-103063040D03*
X126959360Y-100539040D03*
X167853360Y-107127040D03*
X126959360Y-96205040D03*
X126959360Y-98237040D03*
D12*
X147393660Y-106111040D03*
D13*
X165872160Y-96738440D03*
X130235960Y-99770040D03*
X129559360Y-99456240D03*
X165880360Y-98313240D03*
D14*
X165287960Y-104053640D03*
D13*
X128610360Y-96078040D03*
X129753360Y-96586040D03*
X128991360Y-96586040D03*
X129372360Y-96078040D03*
X132908280Y-99253040D03*
X136839960Y-106517440D03*
X136814560Y-107482640D03*
X135442960Y-100396040D03*
D14*
X150225760Y-100396040D03*
X153121360Y-100396040D03*
X152156160Y-100396040D03*
X151190960Y-100396040D03*
X149260560Y-100396040D03*
D13*
X155343860Y-104396540D03*
X154683460Y-104561640D03*
X159344360Y-100142040D03*
X154632660Y-105260140D03*
D14*
X166507160Y-107076240D03*
D13*
X129727960Y-94147640D03*
X130413760Y-101691440D03*
X164754560Y-96763840D03*
D14*
X159776160Y-93525340D03*
D13*
X135392160Y-97805240D03*
X135097520Y-94294960D03*
X134777480Y-93746320D03*
X134447280Y-94294960D03*
D14*
X156459360Y-93520040D03*
D13*
X159471360Y-98745040D03*
D14*
X143278860Y-100446840D03*
X141348460Y-100446840D03*
X145209260Y-100446840D03*
X144244060Y-100446840D03*
X142313660Y-100446840D03*
D13*
X140815060Y-105285540D03*
X141437360Y-105501440D03*
X140903960Y-105958640D03*
X135366762Y-102072440D03*
X139459275Y-94363540D03*
X140116560Y-94350840D03*
X140776960Y-94350840D03*
X157652545Y-96478099D03*
X158455360Y-96478099D03*
X154073860Y-95062040D03*
X154391360Y-95697040D03*
X153438860Y-95316040D03*
X135341360Y-98872040D03*
X140573760Y-99011740D03*
X139913360Y-98986340D03*
X138808460Y-94350840D03*
X138160760Y-94350840D03*
X136700260Y-96192340D03*
X137220960Y-96687640D03*
X128229360Y-101793040D03*
X132801357Y-100523037D03*
X165440360Y-102682040D03*
X161757360Y-99126040D03*
D15*
X133309360Y-105437940D02*
X133474460Y-105437940D01*
X132352345Y-100523037D02*
X132801357Y-100523037D01*
X129499363Y-100523037D02*
X132352345Y-100523037D01*
X128229360Y-101793040D02*
X129499363Y-100523037D01*
D16*
X145691724Y-100156017D02*
X145755360Y-100309002D01*
X145755360Y-100693809D01*
X145636757Y-100906328D01*
X142056406Y-103114986D01*
X142036600Y-103130071D01*
X142020118Y-103148730D01*
X142011922Y-103161658D01*
X141861128Y-103434592D01*
X141851282Y-103457458D01*
X141846087Y-103481807D01*
X141845295Y-103497093D01*
X141853511Y-104458408D01*
X141790995Y-104612113D01*
X141637830Y-104675940D01*
X136305073Y-104675940D01*
X136280297Y-104678380D01*
X136256610Y-104685550D01*
X136032631Y-104778017D01*
X136010661Y-104789728D01*
X135991397Y-104805499D01*
X135975580Y-104824726D01*
X135963933Y-104846393D01*
X135870415Y-105069935D01*
X135863104Y-105093734D01*
X135860577Y-105118353D01*
X135850963Y-107166251D01*
X135787400Y-107318190D01*
X135635162Y-107381040D01*
X130350123Y-107381040D01*
X130197556Y-107317844D01*
X130134360Y-107165277D01*
X130134360Y-105060282D01*
X130168371Y-104943068D01*
X130259838Y-104862263D01*
X134556494Y-102833286D01*
X134664622Y-102809040D01*
X135617317Y-102809040D01*
X135642093Y-102806600D01*
X135665918Y-102799373D01*
X135680278Y-102792335D01*
X135953674Y-102636269D01*
X135973982Y-102621866D01*
X135991089Y-102603779D01*
X136000071Y-102590548D01*
X137374172Y-100263441D01*
X137587596Y-100140763D01*
X145538364Y-100093296D01*
X145691724Y-100156017D01*
G04 #@! TA.AperFunction,Conductor*
D17*
G36*
X145691724Y-100156017D02*
G01*
X145755360Y-100309002D01*
X145755360Y-100693809D01*
X145636757Y-100906328D01*
X142056406Y-103114986D01*
X142036600Y-103130071D01*
X142020118Y-103148730D01*
X142011922Y-103161658D01*
X141861128Y-103434592D01*
X141851282Y-103457458D01*
X141846087Y-103481807D01*
X141845295Y-103497093D01*
X141853511Y-104458408D01*
X141790995Y-104612113D01*
X141637830Y-104675940D01*
X136305073Y-104675940D01*
X136280297Y-104678380D01*
X136256610Y-104685550D01*
X136032631Y-104778017D01*
X136010661Y-104789728D01*
X135991397Y-104805499D01*
X135975580Y-104824726D01*
X135963933Y-104846393D01*
X135870415Y-105069935D01*
X135863104Y-105093734D01*
X135860577Y-105118353D01*
X135850963Y-107166251D01*
X135787400Y-107318190D01*
X135635162Y-107381040D01*
X130350123Y-107381040D01*
X130197556Y-107317844D01*
X130134360Y-107165277D01*
X130134360Y-105060282D01*
X130168371Y-104943068D01*
X130259838Y-104862263D01*
X134556494Y-102833286D01*
X134664622Y-102809040D01*
X135617317Y-102809040D01*
X135642093Y-102806600D01*
X135665918Y-102799373D01*
X135680278Y-102792335D01*
X135953674Y-102636269D01*
X135973982Y-102621866D01*
X135991089Y-102603779D01*
X136000071Y-102590548D01*
X137374172Y-100263441D01*
X137587596Y-100140763D01*
X145538364Y-100093296D01*
X145691724Y-100156017D01*
G37*
G04 #@! TD.AperFunction*
D16*
X157821160Y-100136218D02*
X159182152Y-102404537D01*
X159196992Y-102424527D01*
X159207795Y-102435097D01*
X159356550Y-102564242D01*
X159376860Y-102578642D01*
X159390410Y-102585340D01*
X164430471Y-104713365D01*
X164449458Y-104741781D01*
X164599819Y-104892142D01*
X164776625Y-105010280D01*
X164932360Y-105074787D01*
X164932360Y-107161583D01*
X164868352Y-107314918D01*
X164714320Y-107377236D01*
X156166945Y-107283179D01*
X156015846Y-107219126D01*
X155953460Y-107067334D01*
X155953460Y-103888540D01*
X155951020Y-103863764D01*
X155943793Y-103839939D01*
X155850799Y-103615433D01*
X155839062Y-103593476D01*
X155823268Y-103574231D01*
X155804023Y-103558437D01*
X155782067Y-103546701D01*
X155557561Y-103453707D01*
X155533737Y-103446480D01*
X155508960Y-103444040D01*
X151373136Y-103444040D01*
X151195307Y-103370381D01*
X148750019Y-100925093D01*
X148676360Y-100747264D01*
X148676360Y-100230803D01*
X148739556Y-100078236D01*
X148892123Y-100015040D01*
X157607138Y-100015040D01*
X157821160Y-100136218D01*
G04 #@! TA.AperFunction,Conductor*
D17*
G36*
X157821160Y-100136218D02*
G01*
X159182152Y-102404537D01*
X159196992Y-102424527D01*
X159207795Y-102435097D01*
X159356550Y-102564242D01*
X159376860Y-102578642D01*
X159390410Y-102585340D01*
X164430471Y-104713365D01*
X164449458Y-104741781D01*
X164599819Y-104892142D01*
X164776625Y-105010280D01*
X164932360Y-105074787D01*
X164932360Y-107161583D01*
X164868352Y-107314918D01*
X164714320Y-107377236D01*
X156166945Y-107283179D01*
X156015846Y-107219126D01*
X155953460Y-107067334D01*
X155953460Y-103888540D01*
X155951020Y-103863764D01*
X155943793Y-103839939D01*
X155850799Y-103615433D01*
X155839062Y-103593476D01*
X155823268Y-103574231D01*
X155804023Y-103558437D01*
X155782067Y-103546701D01*
X155557561Y-103453707D01*
X155533737Y-103446480D01*
X155508960Y-103444040D01*
X151373136Y-103444040D01*
X151195307Y-103370381D01*
X148750019Y-100925093D01*
X148676360Y-100747264D01*
X148676360Y-100230803D01*
X148739556Y-100078236D01*
X148892123Y-100015040D01*
X157607138Y-100015040D01*
X157821160Y-100136218D01*
G37*
G04 #@! TD.AperFunction*
D16*
X150962360Y-96839602D02*
X143850360Y-96815077D01*
X143850360Y-93665040D01*
X150962360Y-93665040D01*
X150962360Y-96839602D01*
G04 #@! TA.AperFunction,Conductor*
D17*
G36*
X150962360Y-96839602D02*
G01*
X143850360Y-96815077D01*
X143850360Y-93665040D01*
X150962360Y-93665040D01*
X150962360Y-96839602D01*
G37*
G04 #@! TD.AperFunction*
D16*
X151089360Y-107889040D02*
X143596360Y-107889040D01*
X143596360Y-104587040D01*
X151089360Y-104587040D01*
X151089360Y-107889040D01*
G04 #@! TA.AperFunction,Conductor*
D17*
G36*
X151089360Y-107889040D02*
G01*
X143596360Y-107889040D01*
X143596360Y-104587040D01*
X151089360Y-104587040D01*
X151089360Y-107889040D01*
G37*
G04 #@! TD.AperFunction*
D16*
X141652892Y-99253040D02*
X134960360Y-99253040D01*
X134960360Y-98448444D01*
X135025202Y-98491770D01*
X135166188Y-98550168D01*
X135315859Y-98579940D01*
X135468461Y-98579940D01*
X135618132Y-98550168D01*
X135759118Y-98491770D01*
X135886002Y-98406988D01*
X135993908Y-98299082D01*
X136078690Y-98172198D01*
X136137088Y-98031212D01*
X136166860Y-97881541D01*
X136166860Y-97728939D01*
X136137088Y-97579268D01*
X136078690Y-97438282D01*
X135993908Y-97311398D01*
X135886002Y-97203492D01*
X135759118Y-97118710D01*
X135618132Y-97060312D01*
X135468461Y-97030540D01*
X135315859Y-97030540D01*
X135166188Y-97060312D01*
X135025202Y-97118710D01*
X134960360Y-97162036D01*
X134960360Y-95125540D01*
X141640928Y-95125540D01*
X141652892Y-99253040D01*
G04 #@! TA.AperFunction,Conductor*
D17*
G36*
X141652892Y-99253040D02*
G01*
X134960360Y-99253040D01*
X134960360Y-98448444D01*
X135025202Y-98491770D01*
X135166188Y-98550168D01*
X135315859Y-98579940D01*
X135468461Y-98579940D01*
X135618132Y-98550168D01*
X135759118Y-98491770D01*
X135886002Y-98406988D01*
X135993908Y-98299082D01*
X136078690Y-98172198D01*
X136137088Y-98031212D01*
X136166860Y-97881541D01*
X136166860Y-97728939D01*
X136137088Y-97579268D01*
X136078690Y-97438282D01*
X135993908Y-97311398D01*
X135886002Y-97203492D01*
X135759118Y-97118710D01*
X135618132Y-97060312D01*
X135468461Y-97030540D01*
X135315859Y-97030540D01*
X135166188Y-97060312D01*
X135025202Y-97118710D01*
X134960360Y-97162036D01*
X134960360Y-95125540D01*
X141640928Y-95125540D01*
X141652892Y-99253040D01*
G37*
G04 #@! TD.AperFunction*
D16*
X160106360Y-98300963D02*
X160073108Y-98251198D01*
X159965202Y-98143292D01*
X159838318Y-98058510D01*
X159697332Y-98000112D01*
X159547661Y-97970340D01*
X159395059Y-97970340D01*
X159245388Y-98000112D01*
X159104402Y-98058510D01*
X158977518Y-98143292D01*
X158869612Y-98251198D01*
X158784830Y-98378082D01*
X158726432Y-98519068D01*
X158696660Y-98668739D01*
X158696660Y-98821341D01*
X158706745Y-98872040D01*
X152867360Y-98872040D01*
X152867360Y-94782640D01*
X160106360Y-94782640D01*
X160106360Y-98300963D01*
G04 #@! TA.AperFunction,Conductor*
D17*
G36*
X160106360Y-98300963D02*
G01*
X160073108Y-98251198D01*
X159965202Y-98143292D01*
X159838318Y-98058510D01*
X159697332Y-98000112D01*
X159547661Y-97970340D01*
X159395059Y-97970340D01*
X159245388Y-98000112D01*
X159104402Y-98058510D01*
X158977518Y-98143292D01*
X158869612Y-98251198D01*
X158784830Y-98378082D01*
X158726432Y-98519068D01*
X158696660Y-98668739D01*
X158696660Y-98821341D01*
X158706745Y-98872040D01*
X152867360Y-98872040D01*
X152867360Y-94782640D01*
X160106360Y-94782640D01*
X160106360Y-98300963D01*
G37*
G04 #@! TD.AperFunction*
M02*
