G04 #@! TF.GenerationSoftware,KiCad,Pcbnew,(5.1.9)-1*
G04 #@! TF.CreationDate,2021-10-23T14:42:36-07:00*
G04 #@! TF.ProjectId,Buffer - Rev D,42756666-6572-4202-9d20-52657620442e,rev?*
G04 #@! TF.SameCoordinates,Original*
G04 #@! TF.FileFunction,Legend,Top*
G04 #@! TF.FilePolarity,Positive*
%FSLAX46Y46*%
G04 Gerber Fmt 4.6, Leading zero omitted, Abs format (unit mm)*
G04 Created by KiCad (PCBNEW (5.1.9)-1) date 2021-10-23 14:42:36*
%MOMM*%
%LPD*%
G01*
G04 APERTURE LIST*
%ADD10C,0.111125*%
G04 #@! TA.AperFunction,Profile*
%ADD11C,0.200000*%
G04 #@! TD*
%ADD12C,0.150000*%
%ADD13C,0.100000*%
%ADD14C,0.120000*%
%ADD15C,0.300000*%
%ADD16C,0.063500*%
G04 APERTURE END LIST*
D10*
X151369024Y-93712287D02*
X151369024Y-93204287D01*
X151538357Y-93204287D01*
X151580691Y-93228478D01*
X151601857Y-93252668D01*
X151623024Y-93301049D01*
X151623024Y-93373620D01*
X151601857Y-93422001D01*
X151580691Y-93446192D01*
X151538357Y-93470382D01*
X151369024Y-93470382D01*
X151813524Y-93712287D02*
X151813524Y-93373620D01*
X151813524Y-93204287D02*
X151792357Y-93228478D01*
X151813524Y-93252668D01*
X151834691Y-93228478D01*
X151813524Y-93204287D01*
X151813524Y-93252668D01*
X152088691Y-93712287D02*
X152046357Y-93688097D01*
X152025191Y-93639716D01*
X152025191Y-93204287D01*
X152448524Y-93712287D02*
X152448524Y-93446192D01*
X152427357Y-93397811D01*
X152385024Y-93373620D01*
X152300357Y-93373620D01*
X152258024Y-93397811D01*
X152448524Y-93688097D02*
X152406191Y-93712287D01*
X152300357Y-93712287D01*
X152258024Y-93688097D01*
X152236857Y-93639716D01*
X152236857Y-93591335D01*
X152258024Y-93542954D01*
X152300357Y-93518763D01*
X152406191Y-93518763D01*
X152448524Y-93494573D01*
X152617857Y-93373620D02*
X152702524Y-93712287D01*
X152787191Y-93470382D01*
X152871857Y-93712287D01*
X152956524Y-93373620D01*
X153316357Y-93712287D02*
X153316357Y-93446192D01*
X153295191Y-93397811D01*
X153252857Y-93373620D01*
X153168191Y-93373620D01*
X153125857Y-93397811D01*
X153316357Y-93688097D02*
X153274024Y-93712287D01*
X153168191Y-93712287D01*
X153125857Y-93688097D01*
X153104691Y-93639716D01*
X153104691Y-93591335D01*
X153125857Y-93542954D01*
X153168191Y-93518763D01*
X153274024Y-93518763D01*
X153316357Y-93494573D01*
X154099524Y-93228478D02*
X154057191Y-93204287D01*
X153993691Y-93204287D01*
X153930191Y-93228478D01*
X153887857Y-93276858D01*
X153866691Y-93325239D01*
X153845524Y-93422001D01*
X153845524Y-93494573D01*
X153866691Y-93591335D01*
X153887857Y-93639716D01*
X153930191Y-93688097D01*
X153993691Y-93712287D01*
X154036024Y-93712287D01*
X154099524Y-93688097D01*
X154120691Y-93663906D01*
X154120691Y-93494573D01*
X154036024Y-93494573D01*
X154311191Y-93712287D02*
X154311191Y-93373620D01*
X154311191Y-93470382D02*
X154332357Y-93422001D01*
X154353524Y-93397811D01*
X154395857Y-93373620D01*
X154438191Y-93373620D01*
X154649857Y-93712287D02*
X154607524Y-93688097D01*
X154586357Y-93663906D01*
X154565191Y-93615525D01*
X154565191Y-93470382D01*
X154586357Y-93422001D01*
X154607524Y-93397811D01*
X154649857Y-93373620D01*
X154713357Y-93373620D01*
X154755691Y-93397811D01*
X154776857Y-93422001D01*
X154798024Y-93470382D01*
X154798024Y-93615525D01*
X154776857Y-93663906D01*
X154755691Y-93688097D01*
X154713357Y-93712287D01*
X154649857Y-93712287D01*
X155179024Y-93373620D02*
X155179024Y-93712287D01*
X154988524Y-93373620D02*
X154988524Y-93639716D01*
X155009691Y-93688097D01*
X155052024Y-93712287D01*
X155115524Y-93712287D01*
X155157857Y-93688097D01*
X155179024Y-93663906D01*
X155390691Y-93373620D02*
X155390691Y-93881620D01*
X155390691Y-93397811D02*
X155433024Y-93373620D01*
X155517691Y-93373620D01*
X155560024Y-93397811D01*
X155581191Y-93422001D01*
X155602357Y-93470382D01*
X155602357Y-93615525D01*
X155581191Y-93663906D01*
X155560024Y-93688097D01*
X155517691Y-93712287D01*
X155433024Y-93712287D01*
X155390691Y-93688097D01*
X151369024Y-94077412D02*
X151369024Y-94488650D01*
X151390191Y-94537031D01*
X151411357Y-94561222D01*
X151453691Y-94585412D01*
X151538357Y-94585412D01*
X151580691Y-94561222D01*
X151601857Y-94537031D01*
X151623024Y-94488650D01*
X151623024Y-94077412D01*
X152088691Y-94537031D02*
X152067524Y-94561222D01*
X152004024Y-94585412D01*
X151961691Y-94585412D01*
X151898191Y-94561222D01*
X151855857Y-94512841D01*
X151834691Y-94464460D01*
X151813524Y-94367698D01*
X151813524Y-94295126D01*
X151834691Y-94198364D01*
X151855857Y-94149983D01*
X151898191Y-94101603D01*
X151961691Y-94077412D01*
X152004024Y-94077412D01*
X152067524Y-94101603D01*
X152088691Y-94125793D01*
X152766024Y-94319317D02*
X152829524Y-94343507D01*
X152850691Y-94367698D01*
X152871857Y-94416079D01*
X152871857Y-94488650D01*
X152850691Y-94537031D01*
X152829524Y-94561222D01*
X152787191Y-94585412D01*
X152617857Y-94585412D01*
X152617857Y-94077412D01*
X152766024Y-94077412D01*
X152808357Y-94101603D01*
X152829524Y-94125793D01*
X152850691Y-94174174D01*
X152850691Y-94222555D01*
X152829524Y-94270936D01*
X152808357Y-94295126D01*
X152766024Y-94319317D01*
X152617857Y-94319317D01*
X153231691Y-94561222D02*
X153189357Y-94585412D01*
X153104691Y-94585412D01*
X153062357Y-94561222D01*
X153041191Y-94512841D01*
X153041191Y-94319317D01*
X153062357Y-94270936D01*
X153104691Y-94246745D01*
X153189357Y-94246745D01*
X153231691Y-94270936D01*
X153252857Y-94319317D01*
X153252857Y-94367698D01*
X153041191Y-94416079D01*
X153443357Y-94585412D02*
X153443357Y-94246745D01*
X153443357Y-94343507D02*
X153464524Y-94295126D01*
X153485691Y-94270936D01*
X153528024Y-94246745D01*
X153570357Y-94246745D01*
X153718524Y-94585412D02*
X153718524Y-94077412D01*
X153760857Y-94391888D02*
X153887857Y-94585412D01*
X153887857Y-94246745D02*
X153718524Y-94440269D01*
X154247691Y-94561222D02*
X154205357Y-94585412D01*
X154120691Y-94585412D01*
X154078357Y-94561222D01*
X154057191Y-94512841D01*
X154057191Y-94319317D01*
X154078357Y-94270936D01*
X154120691Y-94246745D01*
X154205357Y-94246745D01*
X154247691Y-94270936D01*
X154268857Y-94319317D01*
X154268857Y-94367698D01*
X154057191Y-94416079D01*
X154522857Y-94585412D02*
X154480524Y-94561222D01*
X154459357Y-94512841D01*
X154459357Y-94077412D01*
X154861524Y-94561222D02*
X154819191Y-94585412D01*
X154734524Y-94585412D01*
X154692191Y-94561222D01*
X154671024Y-94512841D01*
X154671024Y-94319317D01*
X154692191Y-94270936D01*
X154734524Y-94246745D01*
X154819191Y-94246745D01*
X154861524Y-94270936D01*
X154882691Y-94319317D01*
X154882691Y-94367698D01*
X154671024Y-94416079D01*
X155030857Y-94246745D02*
X155136691Y-94585412D01*
X155242524Y-94246745D02*
X155136691Y-94585412D01*
X155094357Y-94706364D01*
X155073191Y-94730555D01*
X155030857Y-94754745D01*
X138490695Y-93708734D02*
X138554195Y-93732924D01*
X138660028Y-93732924D01*
X138702362Y-93708734D01*
X138723528Y-93684543D01*
X138744695Y-93636162D01*
X138744695Y-93587781D01*
X138723528Y-93539400D01*
X138702362Y-93515210D01*
X138660028Y-93491019D01*
X138575362Y-93466829D01*
X138533028Y-93442638D01*
X138511862Y-93418448D01*
X138490695Y-93370067D01*
X138490695Y-93321686D01*
X138511862Y-93273305D01*
X138533028Y-93249115D01*
X138575362Y-93224924D01*
X138681195Y-93224924D01*
X138744695Y-93249115D01*
X138914028Y-93708734D02*
X138977528Y-93732924D01*
X139083362Y-93732924D01*
X139125695Y-93708734D01*
X139146862Y-93684543D01*
X139168028Y-93636162D01*
X139168028Y-93587781D01*
X139146862Y-93539400D01*
X139125695Y-93515210D01*
X139083362Y-93491019D01*
X138998695Y-93466829D01*
X138956362Y-93442638D01*
X138935195Y-93418448D01*
X138914028Y-93370067D01*
X138914028Y-93321686D01*
X138935195Y-93273305D01*
X138956362Y-93249115D01*
X138998695Y-93224924D01*
X139104528Y-93224924D01*
X139168028Y-93249115D01*
X139506695Y-93466829D02*
X139570195Y-93491019D01*
X139591362Y-93515210D01*
X139612528Y-93563591D01*
X139612528Y-93636162D01*
X139591362Y-93684543D01*
X139570195Y-93708734D01*
X139527862Y-93732924D01*
X139358528Y-93732924D01*
X139358528Y-93224924D01*
X139506695Y-93224924D01*
X139549028Y-93249115D01*
X139570195Y-93273305D01*
X139591362Y-93321686D01*
X139591362Y-93370067D01*
X139570195Y-93418448D01*
X139549028Y-93442638D01*
X139506695Y-93466829D01*
X139358528Y-93466829D01*
X140289862Y-93466829D02*
X140141695Y-93466829D01*
X140141695Y-93732924D02*
X140141695Y-93224924D01*
X140353362Y-93224924D01*
X140713195Y-93394257D02*
X140713195Y-93732924D01*
X140522695Y-93394257D02*
X140522695Y-93660353D01*
X140543862Y-93708734D01*
X140586195Y-93732924D01*
X140649695Y-93732924D01*
X140692028Y-93708734D01*
X140713195Y-93684543D01*
X140988362Y-93732924D02*
X140946028Y-93708734D01*
X140924862Y-93660353D01*
X140924862Y-93224924D01*
X141221195Y-93732924D02*
X141178862Y-93708734D01*
X141157695Y-93660353D01*
X141157695Y-93224924D01*
X141877362Y-93466829D02*
X141940862Y-93491019D01*
X141962028Y-93515210D01*
X141983195Y-93563591D01*
X141983195Y-93636162D01*
X141962028Y-93684543D01*
X141940862Y-93708734D01*
X141898528Y-93732924D01*
X141729195Y-93732924D01*
X141729195Y-93224924D01*
X141877362Y-93224924D01*
X141919695Y-93249115D01*
X141940862Y-93273305D01*
X141962028Y-93321686D01*
X141962028Y-93370067D01*
X141940862Y-93418448D01*
X141919695Y-93442638D01*
X141877362Y-93466829D01*
X141729195Y-93466829D01*
X142173695Y-93732924D02*
X142173695Y-93394257D01*
X142173695Y-93491019D02*
X142194862Y-93442638D01*
X142216028Y-93418448D01*
X142258362Y-93394257D01*
X142300695Y-93394257D01*
X142448862Y-93732924D02*
X142448862Y-93394257D01*
X142448862Y-93224924D02*
X142427695Y-93249115D01*
X142448862Y-93273305D01*
X142470028Y-93249115D01*
X142448862Y-93224924D01*
X142448862Y-93273305D01*
X142851028Y-93732924D02*
X142851028Y-93224924D01*
X142851028Y-93708734D02*
X142808695Y-93732924D01*
X142724028Y-93732924D01*
X142681695Y-93708734D01*
X142660528Y-93684543D01*
X142639362Y-93636162D01*
X142639362Y-93491019D01*
X142660528Y-93442638D01*
X142681695Y-93418448D01*
X142724028Y-93394257D01*
X142808695Y-93394257D01*
X142851028Y-93418448D01*
X143253195Y-93394257D02*
X143253195Y-93805495D01*
X143232028Y-93853876D01*
X143210862Y-93878067D01*
X143168528Y-93902257D01*
X143105028Y-93902257D01*
X143062695Y-93878067D01*
X143253195Y-93708734D02*
X143210862Y-93732924D01*
X143126195Y-93732924D01*
X143083862Y-93708734D01*
X143062695Y-93684543D01*
X143041528Y-93636162D01*
X143041528Y-93491019D01*
X143062695Y-93442638D01*
X143083862Y-93418448D01*
X143126195Y-93394257D01*
X143210862Y-93394257D01*
X143253195Y-93418448D01*
X143634195Y-93708734D02*
X143591862Y-93732924D01*
X143507195Y-93732924D01*
X143464862Y-93708734D01*
X143443695Y-93660353D01*
X143443695Y-93466829D01*
X143464862Y-93418448D01*
X143507195Y-93394257D01*
X143591862Y-93394257D01*
X143634195Y-93418448D01*
X143655362Y-93466829D01*
X143655362Y-93515210D01*
X143443695Y-93563591D01*
X141940862Y-94606049D02*
X141792695Y-94364144D01*
X141686862Y-94606049D02*
X141686862Y-94098049D01*
X141856195Y-94098049D01*
X141898528Y-94122240D01*
X141919695Y-94146430D01*
X141940862Y-94194811D01*
X141940862Y-94267382D01*
X141919695Y-94315763D01*
X141898528Y-94339954D01*
X141856195Y-94364144D01*
X141686862Y-94364144D01*
X142300695Y-94581859D02*
X142258362Y-94606049D01*
X142173695Y-94606049D01*
X142131362Y-94581859D01*
X142110195Y-94533478D01*
X142110195Y-94339954D01*
X142131362Y-94291573D01*
X142173695Y-94267382D01*
X142258362Y-94267382D01*
X142300695Y-94291573D01*
X142321862Y-94339954D01*
X142321862Y-94388335D01*
X142110195Y-94436716D01*
X142470028Y-94267382D02*
X142575862Y-94606049D01*
X142681695Y-94267382D01*
X142851028Y-94557668D02*
X142872195Y-94581859D01*
X142851028Y-94606049D01*
X142829862Y-94581859D01*
X142851028Y-94557668D01*
X142851028Y-94606049D01*
X143401362Y-94606049D02*
X143401362Y-94098049D01*
X143507195Y-94098049D01*
X143570695Y-94122240D01*
X143613028Y-94170620D01*
X143634195Y-94219001D01*
X143655362Y-94315763D01*
X143655362Y-94388335D01*
X143634195Y-94485097D01*
X143613028Y-94533478D01*
X143570695Y-94581859D01*
X143507195Y-94606049D01*
X143401362Y-94606049D01*
X139464362Y-95479174D02*
X139464362Y-94971174D01*
X139718362Y-95479174D02*
X139527862Y-95188888D01*
X139718362Y-94971174D02*
X139464362Y-95261460D01*
X139908862Y-95430793D02*
X139930028Y-95454984D01*
X139908862Y-95479174D01*
X139887695Y-95454984D01*
X139908862Y-95430793D01*
X139908862Y-95479174D01*
X140607362Y-95213079D02*
X140459195Y-95213079D01*
X140459195Y-95479174D02*
X140459195Y-94971174D01*
X140670862Y-94971174D01*
X141009528Y-95454984D02*
X140967195Y-95479174D01*
X140882528Y-95479174D01*
X140840195Y-95454984D01*
X140819028Y-95406603D01*
X140819028Y-95213079D01*
X140840195Y-95164698D01*
X140882528Y-95140507D01*
X140967195Y-95140507D01*
X141009528Y-95164698D01*
X141030695Y-95213079D01*
X141030695Y-95261460D01*
X140819028Y-95309841D01*
X141221195Y-95479174D02*
X141221195Y-95140507D01*
X141221195Y-95237269D02*
X141242362Y-95188888D01*
X141263528Y-95164698D01*
X141305862Y-95140507D01*
X141348195Y-95140507D01*
X141496362Y-95140507D02*
X141496362Y-95479174D01*
X141496362Y-95188888D02*
X141517528Y-95164698D01*
X141559862Y-95140507D01*
X141623362Y-95140507D01*
X141665695Y-95164698D01*
X141686862Y-95213079D01*
X141686862Y-95479174D01*
X142089028Y-95479174D02*
X142089028Y-95213079D01*
X142067862Y-95164698D01*
X142025528Y-95140507D01*
X141940862Y-95140507D01*
X141898528Y-95164698D01*
X142089028Y-95454984D02*
X142046695Y-95479174D01*
X141940862Y-95479174D01*
X141898528Y-95454984D01*
X141877362Y-95406603D01*
X141877362Y-95358222D01*
X141898528Y-95309841D01*
X141940862Y-95285650D01*
X142046695Y-95285650D01*
X142089028Y-95261460D01*
X142300695Y-95140507D02*
X142300695Y-95479174D01*
X142300695Y-95188888D02*
X142321862Y-95164698D01*
X142364195Y-95140507D01*
X142427695Y-95140507D01*
X142470028Y-95164698D01*
X142491195Y-95213079D01*
X142491195Y-95479174D01*
X142893362Y-95479174D02*
X142893362Y-94971174D01*
X142893362Y-95454984D02*
X142851028Y-95479174D01*
X142766362Y-95479174D01*
X142724028Y-95454984D01*
X142702862Y-95430793D01*
X142681695Y-95382412D01*
X142681695Y-95237269D01*
X142702862Y-95188888D01*
X142724028Y-95164698D01*
X142766362Y-95140507D01*
X142851028Y-95140507D01*
X142893362Y-95164698D01*
X143274362Y-95454984D02*
X143232028Y-95479174D01*
X143147362Y-95479174D01*
X143105028Y-95454984D01*
X143083862Y-95406603D01*
X143083862Y-95213079D01*
X143105028Y-95164698D01*
X143147362Y-95140507D01*
X143232028Y-95140507D01*
X143274362Y-95164698D01*
X143295528Y-95213079D01*
X143295528Y-95261460D01*
X143083862Y-95309841D01*
X143443695Y-95140507D02*
X143676528Y-95140507D01*
X143443695Y-95479174D01*
X143676528Y-95479174D01*
D11*
X126959360Y-92776040D02*
X126959360Y-108270040D01*
X167853360Y-92776040D02*
X126959360Y-92776040D01*
X167853360Y-108270040D02*
X167853360Y-92776040D01*
X126959360Y-108270040D02*
X167853360Y-108270040D01*
D12*
X136688360Y-97270040D02*
X136688360Y-102270040D01*
X131688360Y-97270040D02*
X131688360Y-102270040D01*
X136688360Y-97270040D02*
X131688360Y-97270040D01*
X136688360Y-102270040D02*
X131688360Y-102270040D01*
X133288360Y-97820040D02*
G75*
G03*
X133288360Y-97820040I-200000J0D01*
G01*
X157934660Y-102351840D02*
X157934660Y-97351840D01*
X162934660Y-102351840D02*
X162934660Y-97351840D01*
X157934660Y-102351840D02*
X162934660Y-102351840D01*
X157934660Y-97351840D02*
X162934660Y-97351840D01*
X161734660Y-101801840D02*
G75*
G03*
X161734660Y-101801840I-200000J0D01*
G01*
D13*
X135952360Y-104761540D02*
X135652360Y-104761540D01*
X135952360Y-104561540D02*
X135952360Y-104761540D01*
X132952360Y-104761540D02*
X132952360Y-104561540D01*
X133252360Y-104761540D02*
X132952360Y-104761540D01*
X132952360Y-102761540D02*
X133252360Y-102761540D01*
X132952360Y-102961540D02*
X132952360Y-102761540D01*
X135952360Y-102761540D02*
X135652360Y-102761540D01*
X135952360Y-102961540D02*
X135952360Y-102761540D01*
X135652360Y-104761540D02*
X134452360Y-104761540D01*
X135652360Y-102761540D02*
X134452360Y-102761540D01*
D14*
X134702360Y-103761540D02*
X134202360Y-104261540D01*
X134702360Y-103761540D02*
X134202360Y-103261540D01*
X134202360Y-104261540D02*
X134202360Y-103261540D01*
X134702360Y-104161540D02*
X134702360Y-103361540D01*
X134702360Y-103761540D02*
X135102360Y-103761540D01*
X134202360Y-103761540D02*
X133802360Y-103761540D01*
D13*
X160130360Y-102825040D02*
X160430360Y-102825040D01*
X160130360Y-103025040D02*
X160130360Y-102825040D01*
X163130360Y-102825040D02*
X163130360Y-103025040D01*
X162830360Y-102825040D02*
X163130360Y-102825040D01*
X163130360Y-104825040D02*
X162830360Y-104825040D01*
X163130360Y-104625040D02*
X163130360Y-104825040D01*
X160130360Y-104825040D02*
X160430360Y-104825040D01*
X160130360Y-104625040D02*
X160130360Y-104825040D01*
X160430360Y-102825040D02*
X161630360Y-102825040D01*
X160430360Y-104825040D02*
X161630360Y-104825040D01*
D14*
X161380360Y-103825040D02*
X161880360Y-103325040D01*
X161380360Y-103825040D02*
X161880360Y-104325040D01*
X161880360Y-103325040D02*
X161880360Y-104325040D01*
X161380360Y-103425040D02*
X161380360Y-104225040D01*
X161380360Y-103825040D02*
X160980360Y-103825040D01*
X161880360Y-103825040D02*
X162280360Y-103825040D01*
D12*
X157144545Y-94739099D02*
X157144545Y-94993099D01*
X158160545Y-94739099D02*
X158160545Y-94993099D01*
X135976360Y-95316040D02*
X135976360Y-95570040D01*
X134960360Y-95316040D02*
X134960360Y-95570040D01*
X158414545Y-94739099D02*
X158414545Y-94993099D01*
X159430545Y-94739099D02*
X159430545Y-94993099D01*
X134579360Y-95316040D02*
X134579360Y-95570040D01*
X133563360Y-95316040D02*
X133563360Y-95570040D01*
X146504660Y-100637340D02*
X146504660Y-100129340D01*
X148028660Y-100637340D02*
X148028660Y-100129340D01*
D14*
X138135360Y-106047540D02*
X139786360Y-106047540D01*
X138135360Y-107571540D02*
X139786360Y-107571540D01*
D13*
X138147360Y-106809540D02*
X138547360Y-106809540D01*
X138547360Y-106809540D02*
X138547360Y-106459540D01*
X138547360Y-106809540D02*
X138547360Y-107159540D01*
X138547360Y-106809540D02*
X139147360Y-106409540D01*
X139147360Y-106409540D02*
X139147360Y-107209540D01*
X139147360Y-107209540D02*
X138547360Y-106809540D01*
X139147360Y-106809540D02*
X139647360Y-106809540D01*
D15*
X136611360Y-106809540D02*
G75*
G03*
X136611360Y-106809540I-127000J0D01*
G01*
D14*
X158074360Y-107000040D02*
X156423360Y-107000040D01*
X158074360Y-105476040D02*
X156423360Y-105476040D01*
D13*
X158062360Y-106238040D02*
X157662360Y-106238040D01*
X157662360Y-106238040D02*
X157662360Y-106588040D01*
X157662360Y-106238040D02*
X157662360Y-105888040D01*
X157662360Y-106238040D02*
X157062360Y-106638040D01*
X157062360Y-106638040D02*
X157062360Y-105838040D01*
X157062360Y-105838040D02*
X157662360Y-106238040D01*
X157062360Y-106238040D02*
X156562360Y-106238040D01*
D15*
X159852360Y-106238040D02*
G75*
G03*
X159852360Y-106238040I-127000J0D01*
G01*
D12*
X128859360Y-94670040D02*
X128859360Y-94870040D01*
X128259360Y-94670040D02*
X128259360Y-94870040D01*
X129259360Y-98264040D02*
X129259360Y-98464040D01*
X129859360Y-98264040D02*
X129859360Y-98464040D01*
X138441921Y-103502794D02*
X138695921Y-103502794D01*
X138441921Y-104518794D02*
X138695921Y-104518794D01*
X138428053Y-104841040D02*
X138682053Y-104841040D01*
X138428053Y-105857040D02*
X138682053Y-105857040D01*
X157871160Y-103799640D02*
X157617160Y-103799640D01*
X157871160Y-102783640D02*
X157617160Y-102783640D01*
X157871160Y-105145840D02*
X157617160Y-105145840D01*
X157871160Y-104129840D02*
X157617160Y-104129840D01*
X164886360Y-100496040D02*
X164886360Y-100296040D01*
X165486360Y-100496040D02*
X165486360Y-100296040D01*
X165213360Y-97429040D02*
X165413360Y-97429040D01*
X165213360Y-98029040D02*
X165413360Y-98029040D01*
X139259360Y-97570040D02*
X139459360Y-97570040D01*
X139259360Y-98170040D02*
X139459360Y-98170040D01*
D14*
X138359360Y-97570040D02*
X138359360Y-98170040D01*
D12*
X139259360Y-102443040D02*
X139459360Y-102443040D01*
X139259360Y-103043040D02*
X139459360Y-103043040D01*
D14*
X138359360Y-102443040D02*
X138359360Y-103043040D01*
D12*
X155159360Y-103670040D02*
X154959360Y-103670040D01*
X155159360Y-103070040D02*
X154959360Y-103070040D01*
D14*
X156059360Y-103670040D02*
X156059360Y-103070040D01*
D12*
X155459360Y-98670040D02*
X155259360Y-98670040D01*
X155459360Y-98070040D02*
X155259360Y-98070040D01*
D14*
X156359360Y-98670040D02*
X156359360Y-98070040D01*
D12*
X141145553Y-103944998D02*
X141145553Y-101194998D01*
X141145553Y-101194998D02*
X145895553Y-101194998D01*
X145895553Y-103944998D02*
X141145553Y-103944998D01*
X145895553Y-101194998D02*
X145895553Y-103944998D01*
X141145553Y-101344998D02*
X141145553Y-101119998D01*
X140995553Y-101344998D02*
X141145553Y-101344998D01*
D15*
X140995553Y-101044998D02*
X140995553Y-101344998D01*
X141295553Y-101044998D02*
X140995553Y-101044998D01*
D12*
X141295553Y-101194998D02*
X141295553Y-101044998D01*
X141145553Y-101194998D02*
X141295553Y-101194998D01*
X140995553Y-101419998D02*
X141120553Y-101419998D01*
X141370553Y-101044998D02*
X141370553Y-101169998D01*
X141132853Y-99822698D02*
X141132853Y-97072698D01*
X141132853Y-97072698D02*
X145882853Y-97072698D01*
X145882853Y-99822698D02*
X141132853Y-99822698D01*
X145882853Y-97072698D02*
X145882853Y-99822698D01*
X141132853Y-97222698D02*
X141132853Y-96997698D01*
X140982853Y-97222698D02*
X141132853Y-97222698D01*
D15*
X140982853Y-96922698D02*
X140982853Y-97222698D01*
X141282853Y-96922698D02*
X140982853Y-96922698D01*
D12*
X141282853Y-97072698D02*
X141282853Y-96922698D01*
X141132853Y-97072698D02*
X141282853Y-97072698D01*
X140982853Y-97297698D02*
X141107853Y-97297698D01*
X141357853Y-96922698D02*
X141357853Y-97047698D01*
X153413560Y-101131498D02*
X153413560Y-103881498D01*
X153413560Y-103881498D02*
X148663560Y-103881498D01*
X148663560Y-101131498D02*
X153413560Y-101131498D01*
X148663560Y-103881498D02*
X148663560Y-101131498D01*
X153413560Y-103731498D02*
X153413560Y-103956498D01*
X153563560Y-103731498D02*
X153413560Y-103731498D01*
D15*
X153563560Y-104031498D02*
X153563560Y-103731498D01*
X153263560Y-104031498D02*
X153563560Y-104031498D01*
D12*
X153263560Y-103881498D02*
X153263560Y-104031498D01*
X153413560Y-103881498D02*
X153263560Y-103881498D01*
X153563560Y-103656498D02*
X153438560Y-103656498D01*
X153188560Y-104031498D02*
X153188560Y-103906498D01*
X153402153Y-97009198D02*
X153402153Y-99759198D01*
X153402153Y-99759198D02*
X148652153Y-99759198D01*
X148652153Y-97009198D02*
X153402153Y-97009198D01*
X148652153Y-99759198D02*
X148652153Y-97009198D01*
X153402153Y-99609198D02*
X153402153Y-99834198D01*
X153552153Y-99609198D02*
X153402153Y-99609198D01*
D15*
X153552153Y-99909198D02*
X153552153Y-99609198D01*
X153252153Y-99909198D02*
X153552153Y-99909198D01*
D12*
X153252153Y-99759198D02*
X153252153Y-99909198D01*
X153402153Y-99759198D02*
X153252153Y-99759198D01*
X153552153Y-99534198D02*
X153427153Y-99534198D01*
X153177153Y-99909198D02*
X153177153Y-99784198D01*
D16*
X133781074Y-98466849D02*
X133781074Y-98878087D01*
X133799217Y-98926468D01*
X133817360Y-98950659D01*
X133853645Y-98974849D01*
X133926217Y-98974849D01*
X133962502Y-98950659D01*
X133980645Y-98926468D01*
X133998788Y-98878087D01*
X133998788Y-98466849D01*
X134162074Y-98515230D02*
X134180217Y-98491040D01*
X134216502Y-98466849D01*
X134307217Y-98466849D01*
X134343502Y-98491040D01*
X134361645Y-98515230D01*
X134379788Y-98563611D01*
X134379788Y-98611992D01*
X134361645Y-98684563D01*
X134143931Y-98974849D01*
X134379788Y-98974849D01*
X160247874Y-99495549D02*
X160247874Y-99906787D01*
X160266017Y-99955168D01*
X160284160Y-99979359D01*
X160320445Y-100003549D01*
X160393017Y-100003549D01*
X160429302Y-99979359D01*
X160447445Y-99955168D01*
X160465588Y-99906787D01*
X160465588Y-99495549D01*
X160846588Y-100003549D02*
X160628874Y-100003549D01*
X160737731Y-100003549D02*
X160737731Y-99495549D01*
X160701445Y-99568120D01*
X160665160Y-99616501D01*
X160628874Y-99640692D01*
X131318785Y-104329809D02*
X131318785Y-103821809D01*
X131409500Y-103821809D01*
X131463928Y-103846000D01*
X131500214Y-103894380D01*
X131518357Y-103942761D01*
X131536500Y-104039523D01*
X131536500Y-104112095D01*
X131518357Y-104208857D01*
X131500214Y-104257238D01*
X131463928Y-104305619D01*
X131409500Y-104329809D01*
X131318785Y-104329809D01*
X131899357Y-104329809D02*
X131681642Y-104329809D01*
X131790500Y-104329809D02*
X131790500Y-103821809D01*
X131754214Y-103894380D01*
X131717928Y-103942761D01*
X131681642Y-103966952D01*
X164118785Y-103729809D02*
X164118785Y-103221809D01*
X164209500Y-103221809D01*
X164263928Y-103246000D01*
X164300214Y-103294380D01*
X164318357Y-103342761D01*
X164336500Y-103439523D01*
X164336500Y-103512095D01*
X164318357Y-103608857D01*
X164300214Y-103657238D01*
X164263928Y-103705619D01*
X164209500Y-103729809D01*
X164118785Y-103729809D01*
X164663071Y-103221809D02*
X164590500Y-103221809D01*
X164554214Y-103246000D01*
X164536071Y-103270190D01*
X164499785Y-103342761D01*
X164481642Y-103439523D01*
X164481642Y-103633047D01*
X164499785Y-103681428D01*
X164517928Y-103705619D01*
X164554214Y-103729809D01*
X164626785Y-103729809D01*
X164663071Y-103705619D01*
X164681214Y-103681428D01*
X164699357Y-103633047D01*
X164699357Y-103512095D01*
X164681214Y-103463714D01*
X164663071Y-103439523D01*
X164626785Y-103415333D01*
X164554214Y-103415333D01*
X164517928Y-103439523D01*
X164499785Y-103463714D01*
X164481642Y-103512095D01*
X147574774Y-96961849D02*
X147792488Y-96961849D01*
X147683631Y-97469849D02*
X147683631Y-96961849D01*
X147919488Y-97469849D02*
X147919488Y-96961849D01*
X148064631Y-96961849D01*
X148100917Y-96986040D01*
X148119060Y-97010230D01*
X148137202Y-97058611D01*
X148137202Y-97131182D01*
X148119060Y-97179563D01*
X148100917Y-97203754D01*
X148064631Y-97227944D01*
X147919488Y-97227944D01*
X148282345Y-97010230D02*
X148300488Y-96986040D01*
X148336774Y-96961849D01*
X148427488Y-96961849D01*
X148463774Y-96986040D01*
X148481917Y-97010230D01*
X148500060Y-97058611D01*
X148500060Y-97106992D01*
X148481917Y-97179563D01*
X148264202Y-97469849D01*
X148500060Y-97469849D01*
X146228574Y-96961849D02*
X146446288Y-96961849D01*
X146337431Y-97469849D02*
X146337431Y-96961849D01*
X146573288Y-97469849D02*
X146573288Y-96961849D01*
X146718431Y-96961849D01*
X146754717Y-96986040D01*
X146772860Y-97010230D01*
X146791002Y-97058611D01*
X146791002Y-97131182D01*
X146772860Y-97179563D01*
X146754717Y-97203754D01*
X146718431Y-97227944D01*
X146573288Y-97227944D01*
X146936145Y-97010230D02*
X146954288Y-96986040D01*
X146990574Y-96961849D01*
X147081288Y-96961849D01*
X147117574Y-96986040D01*
X147135717Y-97010230D01*
X147153860Y-97058611D01*
X147153860Y-97106992D01*
X147135717Y-97179563D01*
X146918002Y-97469849D01*
X147153860Y-97469849D01*
X157849388Y-94937156D02*
X157873579Y-94952275D01*
X157897769Y-94997632D01*
X157897769Y-95027870D01*
X157873579Y-95073228D01*
X157825198Y-95103466D01*
X157776817Y-95118585D01*
X157680055Y-95133704D01*
X157607483Y-95133704D01*
X157510721Y-95118585D01*
X157462340Y-95103466D01*
X157413960Y-95073228D01*
X157389769Y-95027870D01*
X157389769Y-94997632D01*
X157413960Y-94952275D01*
X157438150Y-94937156D01*
X157607483Y-94755728D02*
X157583293Y-94785966D01*
X157559102Y-94801085D01*
X157510721Y-94816204D01*
X157486531Y-94816204D01*
X157438150Y-94801085D01*
X157413960Y-94785966D01*
X157389769Y-94755728D01*
X157389769Y-94695251D01*
X157413960Y-94665013D01*
X157438150Y-94649894D01*
X157486531Y-94634775D01*
X157510721Y-94634775D01*
X157559102Y-94649894D01*
X157583293Y-94665013D01*
X157607483Y-94695251D01*
X157607483Y-94755728D01*
X157631674Y-94785966D01*
X157655864Y-94801085D01*
X157704245Y-94816204D01*
X157801007Y-94816204D01*
X157849388Y-94801085D01*
X157873579Y-94785966D01*
X157897769Y-94755728D01*
X157897769Y-94695251D01*
X157873579Y-94665013D01*
X157849388Y-94649894D01*
X157801007Y-94634775D01*
X157704245Y-94634775D01*
X157655864Y-94649894D01*
X157631674Y-94665013D01*
X157607483Y-94695251D01*
X135675188Y-95508656D02*
X135699379Y-95523775D01*
X135723569Y-95569132D01*
X135723569Y-95599370D01*
X135699379Y-95644728D01*
X135650998Y-95674966D01*
X135602617Y-95690085D01*
X135505855Y-95705204D01*
X135433283Y-95705204D01*
X135336521Y-95690085D01*
X135288140Y-95674966D01*
X135239760Y-95644728D01*
X135215569Y-95599370D01*
X135215569Y-95569132D01*
X135239760Y-95523775D01*
X135263950Y-95508656D01*
X135384902Y-95236513D02*
X135723569Y-95236513D01*
X135191379Y-95312109D02*
X135554236Y-95387704D01*
X135554236Y-95191156D01*
X159182888Y-94924456D02*
X159207079Y-94939575D01*
X159231269Y-94984932D01*
X159231269Y-95015170D01*
X159207079Y-95060528D01*
X159158698Y-95090766D01*
X159110317Y-95105885D01*
X159013555Y-95121004D01*
X158940983Y-95121004D01*
X158844221Y-95105885D01*
X158795840Y-95090766D01*
X158747460Y-95060528D01*
X158723269Y-95015170D01*
X158723269Y-94984932D01*
X158747460Y-94939575D01*
X158771650Y-94924456D01*
X158771650Y-94803504D02*
X158747460Y-94788385D01*
X158723269Y-94758147D01*
X158723269Y-94682551D01*
X158747460Y-94652313D01*
X158771650Y-94637194D01*
X158820031Y-94622075D01*
X158868412Y-94622075D01*
X158940983Y-94637194D01*
X159231269Y-94818623D01*
X159231269Y-94622075D01*
X134252788Y-95593625D02*
X134276979Y-95605720D01*
X134301169Y-95642006D01*
X134301169Y-95666197D01*
X134276979Y-95702482D01*
X134228598Y-95726673D01*
X134180217Y-95738768D01*
X134083455Y-95750863D01*
X134010883Y-95750863D01*
X133914121Y-95738768D01*
X133865740Y-95726673D01*
X133817360Y-95702482D01*
X133793169Y-95666197D01*
X133793169Y-95642006D01*
X133817360Y-95605720D01*
X133841550Y-95593625D01*
X134301169Y-95351720D02*
X134301169Y-95496863D01*
X134301169Y-95424292D02*
X133793169Y-95424292D01*
X133865740Y-95448482D01*
X133914121Y-95472673D01*
X133938312Y-95496863D01*
X134301169Y-95109816D02*
X134301169Y-95254959D01*
X134301169Y-95182387D02*
X133793169Y-95182387D01*
X133865740Y-95206578D01*
X133914121Y-95230768D01*
X133938312Y-95254959D01*
X128471869Y-103257168D02*
X128229964Y-103384168D01*
X128471869Y-103474882D02*
X127963869Y-103474882D01*
X127963869Y-103329740D01*
X127988060Y-103293454D01*
X128012250Y-103275311D01*
X128060631Y-103257168D01*
X128133202Y-103257168D01*
X128181583Y-103275311D01*
X128205774Y-103293454D01*
X128229964Y-103329740D01*
X128229964Y-103474882D01*
X128471869Y-102894311D02*
X128471869Y-103112025D01*
X128471869Y-103003168D02*
X127963869Y-103003168D01*
X128036440Y-103039454D01*
X128084821Y-103075740D01*
X128109012Y-103112025D01*
X128471869Y-102531454D02*
X128471869Y-102749168D01*
X128471869Y-102640311D02*
X127963869Y-102640311D01*
X128036440Y-102676597D01*
X128084821Y-102712882D01*
X128109012Y-102749168D01*
X166609969Y-104218740D02*
X166368064Y-104345740D01*
X166609969Y-104436454D02*
X166101969Y-104436454D01*
X166101969Y-104291311D01*
X166126160Y-104255025D01*
X166150350Y-104236882D01*
X166198731Y-104218740D01*
X166271302Y-104218740D01*
X166319683Y-104236882D01*
X166343874Y-104255025D01*
X166368064Y-104291311D01*
X166368064Y-104436454D01*
X166271302Y-103892168D02*
X166609969Y-103892168D01*
X166077779Y-103982882D02*
X166440636Y-104073597D01*
X166440636Y-103837740D01*
X145924088Y-100446840D02*
X145948279Y-100464982D01*
X145972469Y-100519411D01*
X145972469Y-100555697D01*
X145948279Y-100610125D01*
X145899898Y-100646411D01*
X145851517Y-100664554D01*
X145754755Y-100682697D01*
X145682183Y-100682697D01*
X145585421Y-100664554D01*
X145537040Y-100646411D01*
X145488660Y-100610125D01*
X145464469Y-100555697D01*
X145464469Y-100519411D01*
X145488660Y-100464982D01*
X145512850Y-100446840D01*
X145464469Y-100210982D02*
X145464469Y-100174697D01*
X145488660Y-100138411D01*
X145512850Y-100120268D01*
X145561231Y-100102125D01*
X145657993Y-100083982D01*
X145778945Y-100083982D01*
X145875707Y-100102125D01*
X145924088Y-100120268D01*
X145948279Y-100138411D01*
X145972469Y-100174697D01*
X145972469Y-100210982D01*
X145948279Y-100247268D01*
X145924088Y-100265411D01*
X145875707Y-100283554D01*
X145778945Y-100301697D01*
X145657993Y-100301697D01*
X145561231Y-100283554D01*
X145512850Y-100265411D01*
X145488660Y-100247268D01*
X145464469Y-100210982D01*
X141245045Y-107191749D02*
X141245045Y-106683749D01*
X141335760Y-106683749D01*
X141390188Y-106707940D01*
X141426474Y-106756320D01*
X141444617Y-106804701D01*
X141462760Y-106901463D01*
X141462760Y-106974035D01*
X141444617Y-107070797D01*
X141426474Y-107119178D01*
X141390188Y-107167559D01*
X141335760Y-107191749D01*
X141245045Y-107191749D01*
X141680474Y-106901463D02*
X141644188Y-106877273D01*
X141626045Y-106853082D01*
X141607902Y-106804701D01*
X141607902Y-106780511D01*
X141626045Y-106732130D01*
X141644188Y-106707940D01*
X141680474Y-106683749D01*
X141753045Y-106683749D01*
X141789331Y-106707940D01*
X141807474Y-106732130D01*
X141825617Y-106780511D01*
X141825617Y-106804701D01*
X141807474Y-106853082D01*
X141789331Y-106877273D01*
X141753045Y-106901463D01*
X141680474Y-106901463D01*
X141644188Y-106925654D01*
X141626045Y-106949844D01*
X141607902Y-106998225D01*
X141607902Y-107094987D01*
X141626045Y-107143368D01*
X141644188Y-107167559D01*
X141680474Y-107191749D01*
X141753045Y-107191749D01*
X141789331Y-107167559D01*
X141807474Y-107143368D01*
X141825617Y-107094987D01*
X141825617Y-106998225D01*
X141807474Y-106949844D01*
X141789331Y-106925654D01*
X141753045Y-106901463D01*
X157056545Y-107725149D02*
X157056545Y-107217149D01*
X157147260Y-107217149D01*
X157201688Y-107241340D01*
X157237974Y-107289720D01*
X157256117Y-107338101D01*
X157274260Y-107434863D01*
X157274260Y-107507435D01*
X157256117Y-107604197D01*
X157237974Y-107652578D01*
X157201688Y-107700959D01*
X157147260Y-107725149D01*
X157056545Y-107725149D01*
X157401260Y-107217149D02*
X157655260Y-107217149D01*
X157491974Y-107725149D01*
X136384574Y-91354849D02*
X136602288Y-91354849D01*
X136493431Y-91862849D02*
X136493431Y-91354849D01*
X136729288Y-91862849D02*
X136729288Y-91354849D01*
X136874431Y-91354849D01*
X136910717Y-91379040D01*
X136928860Y-91403230D01*
X136947002Y-91451611D01*
X136947002Y-91524182D01*
X136928860Y-91572563D01*
X136910717Y-91596754D01*
X136874431Y-91620944D01*
X136729288Y-91620944D01*
X137309860Y-91862849D02*
X137092145Y-91862849D01*
X137201002Y-91862849D02*
X137201002Y-91354849D01*
X137164717Y-91427420D01*
X137128431Y-91475801D01*
X137092145Y-91499992D01*
X144893574Y-96926949D02*
X145111288Y-96926949D01*
X145002431Y-97434949D02*
X145002431Y-96926949D01*
X145238288Y-97434949D02*
X145238288Y-96926949D01*
X145383431Y-96926949D01*
X145419717Y-96951140D01*
X145437860Y-96975330D01*
X145456002Y-97023711D01*
X145456002Y-97096282D01*
X145437860Y-97144663D01*
X145419717Y-97168854D01*
X145383431Y-97193044D01*
X145238288Y-97193044D01*
X145601145Y-96975330D02*
X145619288Y-96951140D01*
X145655574Y-96926949D01*
X145746288Y-96926949D01*
X145782574Y-96951140D01*
X145800717Y-96975330D01*
X145818860Y-97023711D01*
X145818860Y-97072092D01*
X145800717Y-97144663D01*
X145583002Y-97434949D01*
X145818860Y-97434949D01*
X144893574Y-95656949D02*
X145111288Y-95656949D01*
X145002431Y-96164949D02*
X145002431Y-95656949D01*
X145238288Y-96164949D02*
X145238288Y-95656949D01*
X145383431Y-95656949D01*
X145419717Y-95681140D01*
X145437860Y-95705330D01*
X145456002Y-95753711D01*
X145456002Y-95826282D01*
X145437860Y-95874663D01*
X145419717Y-95898854D01*
X145383431Y-95923044D01*
X145238288Y-95923044D01*
X145601145Y-95705330D02*
X145619288Y-95681140D01*
X145655574Y-95656949D01*
X145746288Y-95656949D01*
X145782574Y-95681140D01*
X145800717Y-95705330D01*
X145818860Y-95753711D01*
X145818860Y-95802092D01*
X145800717Y-95874663D01*
X145583002Y-96164949D01*
X145818860Y-96164949D01*
X148894074Y-96926949D02*
X149111788Y-96926949D01*
X149002931Y-97434949D02*
X149002931Y-96926949D01*
X149238788Y-97434949D02*
X149238788Y-96926949D01*
X149383931Y-96926949D01*
X149420217Y-96951140D01*
X149438360Y-96975330D01*
X149456502Y-97023711D01*
X149456502Y-97096282D01*
X149438360Y-97144663D01*
X149420217Y-97168854D01*
X149383931Y-97193044D01*
X149238788Y-97193044D01*
X149601645Y-96975330D02*
X149619788Y-96951140D01*
X149656074Y-96926949D01*
X149746788Y-96926949D01*
X149783074Y-96951140D01*
X149801217Y-96975330D01*
X149819360Y-97023711D01*
X149819360Y-97072092D01*
X149801217Y-97144663D01*
X149583502Y-97434949D01*
X149819360Y-97434949D01*
X147560574Y-95656949D02*
X147778288Y-95656949D01*
X147669431Y-96164949D02*
X147669431Y-95656949D01*
X147905288Y-96164949D02*
X147905288Y-95656949D01*
X148050431Y-95656949D01*
X148086717Y-95681140D01*
X148104860Y-95705330D01*
X148123002Y-95753711D01*
X148123002Y-95826282D01*
X148104860Y-95874663D01*
X148086717Y-95898854D01*
X148050431Y-95923044D01*
X147905288Y-95923044D01*
X148268145Y-95705330D02*
X148286288Y-95681140D01*
X148322574Y-95656949D01*
X148413288Y-95656949D01*
X148449574Y-95681140D01*
X148467717Y-95705330D01*
X148485860Y-95753711D01*
X148485860Y-95802092D01*
X148467717Y-95874663D01*
X148250002Y-96164949D01*
X148485860Y-96164949D01*
X148894074Y-95656949D02*
X149111788Y-95656949D01*
X149002931Y-96164949D02*
X149002931Y-95656949D01*
X149238788Y-96164949D02*
X149238788Y-95656949D01*
X149383931Y-95656949D01*
X149420217Y-95681140D01*
X149438360Y-95705330D01*
X149456502Y-95753711D01*
X149456502Y-95826282D01*
X149438360Y-95874663D01*
X149420217Y-95898854D01*
X149383931Y-95923044D01*
X149238788Y-95923044D01*
X149601645Y-95705330D02*
X149619788Y-95681140D01*
X149656074Y-95656949D01*
X149746788Y-95656949D01*
X149783074Y-95681140D01*
X149801217Y-95705330D01*
X149819360Y-95753711D01*
X149819360Y-95802092D01*
X149801217Y-95874663D01*
X149583502Y-96164949D01*
X149819360Y-96164949D01*
X146227074Y-95656949D02*
X146444788Y-95656949D01*
X146335931Y-96164949D02*
X146335931Y-95656949D01*
X146571788Y-96164949D02*
X146571788Y-95656949D01*
X146716931Y-95656949D01*
X146753217Y-95681140D01*
X146771360Y-95705330D01*
X146789502Y-95753711D01*
X146789502Y-95826282D01*
X146771360Y-95874663D01*
X146753217Y-95898854D01*
X146716931Y-95923044D01*
X146571788Y-95923044D01*
X146934645Y-95705330D02*
X146952788Y-95681140D01*
X146989074Y-95656949D01*
X147079788Y-95656949D01*
X147116074Y-95681140D01*
X147134217Y-95705330D01*
X147152360Y-95753711D01*
X147152360Y-95802092D01*
X147134217Y-95874663D01*
X146916502Y-96164949D01*
X147152360Y-96164949D01*
X147560574Y-107864849D02*
X147778288Y-107864849D01*
X147669431Y-108372849D02*
X147669431Y-107864849D01*
X147905288Y-108372849D02*
X147905288Y-107864849D01*
X148050431Y-107864849D01*
X148086717Y-107889040D01*
X148104860Y-107913230D01*
X148123002Y-107961611D01*
X148123002Y-108034182D01*
X148104860Y-108082563D01*
X148086717Y-108106754D01*
X148050431Y-108130944D01*
X147905288Y-108130944D01*
X148268145Y-107913230D02*
X148286288Y-107889040D01*
X148322574Y-107864849D01*
X148413288Y-107864849D01*
X148449574Y-107889040D01*
X148467717Y-107913230D01*
X148485860Y-107961611D01*
X148485860Y-108009992D01*
X148467717Y-108082563D01*
X148250002Y-108372849D01*
X148485860Y-108372849D01*
X148894074Y-107864849D02*
X149111788Y-107864849D01*
X149002931Y-108372849D02*
X149002931Y-107864849D01*
X149238788Y-108372849D02*
X149238788Y-107864849D01*
X149383931Y-107864849D01*
X149420217Y-107889040D01*
X149438360Y-107913230D01*
X149456502Y-107961611D01*
X149456502Y-108034182D01*
X149438360Y-108082563D01*
X149420217Y-108106754D01*
X149383931Y-108130944D01*
X149238788Y-108130944D01*
X149601645Y-107913230D02*
X149619788Y-107889040D01*
X149656074Y-107864849D01*
X149746788Y-107864849D01*
X149783074Y-107889040D01*
X149801217Y-107913230D01*
X149819360Y-107961611D01*
X149819360Y-108009992D01*
X149801217Y-108082563D01*
X149583502Y-108372849D01*
X149819360Y-108372849D01*
X134530374Y-108118849D02*
X134748088Y-108118849D01*
X134639231Y-108626849D02*
X134639231Y-108118849D01*
X134875088Y-108626849D02*
X134875088Y-108118849D01*
X135020231Y-108118849D01*
X135056517Y-108143040D01*
X135074660Y-108167230D01*
X135092802Y-108215611D01*
X135092802Y-108288182D01*
X135074660Y-108336563D01*
X135056517Y-108360754D01*
X135020231Y-108384944D01*
X134875088Y-108384944D01*
X135237945Y-108167230D02*
X135256088Y-108143040D01*
X135292374Y-108118849D01*
X135383088Y-108118849D01*
X135419374Y-108143040D01*
X135437517Y-108167230D01*
X135455660Y-108215611D01*
X135455660Y-108263992D01*
X135437517Y-108336563D01*
X135219802Y-108626849D01*
X135455660Y-108626849D01*
X164007074Y-107941049D02*
X164224788Y-107941049D01*
X164115931Y-108449049D02*
X164115931Y-107941049D01*
X164351788Y-108449049D02*
X164351788Y-107941049D01*
X164496931Y-107941049D01*
X164533217Y-107965240D01*
X164551360Y-107989430D01*
X164569502Y-108037811D01*
X164569502Y-108110382D01*
X164551360Y-108158763D01*
X164533217Y-108182954D01*
X164496931Y-108207144D01*
X164351788Y-108207144D01*
X164714645Y-107989430D02*
X164732788Y-107965240D01*
X164769074Y-107941049D01*
X164859788Y-107941049D01*
X164896074Y-107965240D01*
X164914217Y-107989430D01*
X164932360Y-108037811D01*
X164932360Y-108086192D01*
X164914217Y-108158763D01*
X164696502Y-108449049D01*
X164932360Y-108449049D01*
X162673574Y-107864849D02*
X162891288Y-107864849D01*
X162782431Y-108372849D02*
X162782431Y-107864849D01*
X163018288Y-108372849D02*
X163018288Y-107864849D01*
X163163431Y-107864849D01*
X163199717Y-107889040D01*
X163217860Y-107913230D01*
X163236002Y-107961611D01*
X163236002Y-108034182D01*
X163217860Y-108082563D01*
X163199717Y-108106754D01*
X163163431Y-108130944D01*
X163018288Y-108130944D01*
X163381145Y-107913230D02*
X163399288Y-107889040D01*
X163435574Y-107864849D01*
X163526288Y-107864849D01*
X163562574Y-107889040D01*
X163580717Y-107913230D01*
X163598860Y-107961611D01*
X163598860Y-108009992D01*
X163580717Y-108082563D01*
X163363002Y-108372849D01*
X163598860Y-108372849D01*
X160006574Y-106594849D02*
X160224288Y-106594849D01*
X160115431Y-107102849D02*
X160115431Y-106594849D01*
X160351288Y-107102849D02*
X160351288Y-106594849D01*
X160496431Y-106594849D01*
X160532717Y-106619040D01*
X160550860Y-106643230D01*
X160569002Y-106691611D01*
X160569002Y-106764182D01*
X160550860Y-106812563D01*
X160532717Y-106836754D01*
X160496431Y-106860944D01*
X160351288Y-106860944D01*
X160714145Y-106643230D02*
X160732288Y-106619040D01*
X160768574Y-106594849D01*
X160859288Y-106594849D01*
X160895574Y-106619040D01*
X160913717Y-106643230D01*
X160931860Y-106691611D01*
X160931860Y-106739992D01*
X160913717Y-106812563D01*
X160696002Y-107102849D01*
X160931860Y-107102849D01*
X160006574Y-107864849D02*
X160224288Y-107864849D01*
X160115431Y-108372849D02*
X160115431Y-107864849D01*
X160351288Y-108372849D02*
X160351288Y-107864849D01*
X160496431Y-107864849D01*
X160532717Y-107889040D01*
X160550860Y-107913230D01*
X160569002Y-107961611D01*
X160569002Y-108034182D01*
X160550860Y-108082563D01*
X160532717Y-108106754D01*
X160496431Y-108130944D01*
X160351288Y-108130944D01*
X160714145Y-107913230D02*
X160732288Y-107889040D01*
X160768574Y-107864849D01*
X160859288Y-107864849D01*
X160895574Y-107889040D01*
X160913717Y-107913230D01*
X160931860Y-107961611D01*
X160931860Y-108009992D01*
X160913717Y-108082563D01*
X160696002Y-108372849D01*
X160931860Y-108372849D01*
X162673574Y-106594849D02*
X162891288Y-106594849D01*
X162782431Y-107102849D02*
X162782431Y-106594849D01*
X163018288Y-107102849D02*
X163018288Y-106594849D01*
X163163431Y-106594849D01*
X163199717Y-106619040D01*
X163217860Y-106643230D01*
X163236002Y-106691611D01*
X163236002Y-106764182D01*
X163217860Y-106812563D01*
X163199717Y-106836754D01*
X163163431Y-106860944D01*
X163018288Y-106860944D01*
X163381145Y-106643230D02*
X163399288Y-106619040D01*
X163435574Y-106594849D01*
X163526288Y-106594849D01*
X163562574Y-106619040D01*
X163580717Y-106643230D01*
X163598860Y-106691611D01*
X163598860Y-106739992D01*
X163580717Y-106812563D01*
X163363002Y-107102849D01*
X163598860Y-107102849D01*
X161340074Y-106594849D02*
X161557788Y-106594849D01*
X161448931Y-107102849D02*
X161448931Y-106594849D01*
X161684788Y-107102849D02*
X161684788Y-106594849D01*
X161829931Y-106594849D01*
X161866217Y-106619040D01*
X161884360Y-106643230D01*
X161902502Y-106691611D01*
X161902502Y-106764182D01*
X161884360Y-106812563D01*
X161866217Y-106836754D01*
X161829931Y-106860944D01*
X161684788Y-106860944D01*
X162047645Y-106643230D02*
X162065788Y-106619040D01*
X162102074Y-106594849D01*
X162192788Y-106594849D01*
X162229074Y-106619040D01*
X162247217Y-106643230D01*
X162265360Y-106691611D01*
X162265360Y-106739992D01*
X162247217Y-106812563D01*
X162029502Y-107102849D01*
X162265360Y-107102849D01*
X161340074Y-107864849D02*
X161557788Y-107864849D01*
X161448931Y-108372849D02*
X161448931Y-107864849D01*
X161684788Y-108372849D02*
X161684788Y-107864849D01*
X161829931Y-107864849D01*
X161866217Y-107889040D01*
X161884360Y-107913230D01*
X161902502Y-107961611D01*
X161902502Y-108034182D01*
X161884360Y-108082563D01*
X161866217Y-108106754D01*
X161829931Y-108130944D01*
X161684788Y-108130944D01*
X162047645Y-107913230D02*
X162065788Y-107889040D01*
X162102074Y-107864849D01*
X162192788Y-107864849D01*
X162229074Y-107889040D01*
X162247217Y-107913230D01*
X162265360Y-107961611D01*
X162265360Y-108009992D01*
X162247217Y-108082563D01*
X162029502Y-108372849D01*
X162265360Y-108372849D01*
X164007074Y-106594849D02*
X164224788Y-106594849D01*
X164115931Y-107102849D02*
X164115931Y-106594849D01*
X164351788Y-107102849D02*
X164351788Y-106594849D01*
X164496931Y-106594849D01*
X164533217Y-106619040D01*
X164551360Y-106643230D01*
X164569502Y-106691611D01*
X164569502Y-106764182D01*
X164551360Y-106812563D01*
X164533217Y-106836754D01*
X164496931Y-106860944D01*
X164351788Y-106860944D01*
X164714645Y-106643230D02*
X164732788Y-106619040D01*
X164769074Y-106594849D01*
X164859788Y-106594849D01*
X164896074Y-106619040D01*
X164914217Y-106643230D01*
X164932360Y-106691611D01*
X164932360Y-106739992D01*
X164914217Y-106812563D01*
X164696502Y-107102849D01*
X164932360Y-107102849D01*
X168718169Y-98899254D02*
X168718169Y-98681540D01*
X169226169Y-98790397D02*
X168718169Y-98790397D01*
X169226169Y-98554540D02*
X168718169Y-98554540D01*
X168718169Y-98409397D01*
X168742360Y-98373111D01*
X168766550Y-98354968D01*
X168814931Y-98336825D01*
X168887502Y-98336825D01*
X168935883Y-98354968D01*
X168960074Y-98373111D01*
X168984264Y-98409397D01*
X168984264Y-98554540D01*
X169226169Y-97973968D02*
X169226169Y-98191682D01*
X169226169Y-98082825D02*
X168718169Y-98082825D01*
X168790740Y-98119111D01*
X168839121Y-98155397D01*
X168863312Y-98191682D01*
X169226169Y-97611111D02*
X169226169Y-97828825D01*
X169226169Y-97719968D02*
X168718169Y-97719968D01*
X168790740Y-97756254D01*
X168839121Y-97792540D01*
X168863312Y-97828825D01*
X146227074Y-107864849D02*
X146444788Y-107864849D01*
X146335931Y-108372849D02*
X146335931Y-107864849D01*
X146571788Y-108372849D02*
X146571788Y-107864849D01*
X146716931Y-107864849D01*
X146753217Y-107889040D01*
X146771360Y-107913230D01*
X146789502Y-107961611D01*
X146789502Y-108034182D01*
X146771360Y-108082563D01*
X146753217Y-108106754D01*
X146716931Y-108130944D01*
X146571788Y-108130944D01*
X146934645Y-107913230D02*
X146952788Y-107889040D01*
X146989074Y-107864849D01*
X147079788Y-107864849D01*
X147116074Y-107889040D01*
X147134217Y-107913230D01*
X147152360Y-107961611D01*
X147152360Y-108009992D01*
X147134217Y-108082563D01*
X146916502Y-108372849D01*
X147152360Y-108372849D01*
X144893574Y-107864849D02*
X145111288Y-107864849D01*
X145002431Y-108372849D02*
X145002431Y-107864849D01*
X145238288Y-108372849D02*
X145238288Y-107864849D01*
X145383431Y-107864849D01*
X145419717Y-107889040D01*
X145437860Y-107913230D01*
X145456002Y-107961611D01*
X145456002Y-108034182D01*
X145437860Y-108082563D01*
X145419717Y-108106754D01*
X145383431Y-108130944D01*
X145238288Y-108130944D01*
X145601145Y-107913230D02*
X145619288Y-107889040D01*
X145655574Y-107864849D01*
X145746288Y-107864849D01*
X145782574Y-107889040D01*
X145800717Y-107913230D01*
X145818860Y-107961611D01*
X145818860Y-108009992D01*
X145800717Y-108082563D01*
X145583002Y-108372849D01*
X145818860Y-108372849D01*
X148894074Y-106594849D02*
X149111788Y-106594849D01*
X149002931Y-107102849D02*
X149002931Y-106594849D01*
X149238788Y-107102849D02*
X149238788Y-106594849D01*
X149383931Y-106594849D01*
X149420217Y-106619040D01*
X149438360Y-106643230D01*
X149456502Y-106691611D01*
X149456502Y-106764182D01*
X149438360Y-106812563D01*
X149420217Y-106836754D01*
X149383931Y-106860944D01*
X149238788Y-106860944D01*
X149601645Y-106643230D02*
X149619788Y-106619040D01*
X149656074Y-106594849D01*
X149746788Y-106594849D01*
X149783074Y-106619040D01*
X149801217Y-106643230D01*
X149819360Y-106691611D01*
X149819360Y-106739992D01*
X149801217Y-106812563D01*
X149583502Y-107102849D01*
X149819360Y-107102849D01*
X147560574Y-106594849D02*
X147778288Y-106594849D01*
X147669431Y-107102849D02*
X147669431Y-106594849D01*
X147905288Y-107102849D02*
X147905288Y-106594849D01*
X148050431Y-106594849D01*
X148086717Y-106619040D01*
X148104860Y-106643230D01*
X148123002Y-106691611D01*
X148123002Y-106764182D01*
X148104860Y-106812563D01*
X148086717Y-106836754D01*
X148050431Y-106860944D01*
X147905288Y-106860944D01*
X148268145Y-106643230D02*
X148286288Y-106619040D01*
X148322574Y-106594849D01*
X148413288Y-106594849D01*
X148449574Y-106619040D01*
X148467717Y-106643230D01*
X148485860Y-106691611D01*
X148485860Y-106739992D01*
X148467717Y-106812563D01*
X148250002Y-107102849D01*
X148485860Y-107102849D01*
X147699669Y-106083825D02*
X147699669Y-105866111D01*
X148207669Y-105974968D02*
X147699669Y-105974968D01*
X148207669Y-105739111D02*
X147699669Y-105739111D01*
X147699669Y-105593968D01*
X147723860Y-105557682D01*
X147748050Y-105539540D01*
X147796431Y-105521397D01*
X147869002Y-105521397D01*
X147917383Y-105539540D01*
X147941574Y-105557682D01*
X147965764Y-105593968D01*
X147965764Y-105739111D01*
X147748050Y-105376254D02*
X147723860Y-105358111D01*
X147699669Y-105321825D01*
X147699669Y-105231111D01*
X147723860Y-105194825D01*
X147748050Y-105176682D01*
X147796431Y-105158540D01*
X147844812Y-105158540D01*
X147917383Y-105176682D01*
X148207669Y-105394397D01*
X148207669Y-105158540D01*
X144893574Y-106594849D02*
X145111288Y-106594849D01*
X145002431Y-107102849D02*
X145002431Y-106594849D01*
X145238288Y-107102849D02*
X145238288Y-106594849D01*
X145383431Y-106594849D01*
X145419717Y-106619040D01*
X145437860Y-106643230D01*
X145456002Y-106691611D01*
X145456002Y-106764182D01*
X145437860Y-106812563D01*
X145419717Y-106836754D01*
X145383431Y-106860944D01*
X145238288Y-106860944D01*
X145601145Y-106643230D02*
X145619288Y-106619040D01*
X145655574Y-106594849D01*
X145746288Y-106594849D01*
X145782574Y-106619040D01*
X145800717Y-106643230D01*
X145818860Y-106691611D01*
X145818860Y-106739992D01*
X145800717Y-106812563D01*
X145583002Y-107102849D01*
X145818860Y-107102849D01*
X133209574Y-106594849D02*
X133427288Y-106594849D01*
X133318431Y-107102849D02*
X133318431Y-106594849D01*
X133554288Y-107102849D02*
X133554288Y-106594849D01*
X133699431Y-106594849D01*
X133735717Y-106619040D01*
X133753860Y-106643230D01*
X133772002Y-106691611D01*
X133772002Y-106764182D01*
X133753860Y-106812563D01*
X133735717Y-106836754D01*
X133699431Y-106860944D01*
X133554288Y-106860944D01*
X133917145Y-106643230D02*
X133935288Y-106619040D01*
X133971574Y-106594849D01*
X134062288Y-106594849D01*
X134098574Y-106619040D01*
X134116717Y-106643230D01*
X134134860Y-106691611D01*
X134134860Y-106739992D01*
X134116717Y-106812563D01*
X133899002Y-107102849D01*
X134134860Y-107102849D01*
X131876074Y-106594849D02*
X132093788Y-106594849D01*
X131984931Y-107102849D02*
X131984931Y-106594849D01*
X132220788Y-107102849D02*
X132220788Y-106594849D01*
X132365931Y-106594849D01*
X132402217Y-106619040D01*
X132420360Y-106643230D01*
X132438502Y-106691611D01*
X132438502Y-106764182D01*
X132420360Y-106812563D01*
X132402217Y-106836754D01*
X132365931Y-106860944D01*
X132220788Y-106860944D01*
X132583645Y-106643230D02*
X132601788Y-106619040D01*
X132638074Y-106594849D01*
X132728788Y-106594849D01*
X132765074Y-106619040D01*
X132783217Y-106643230D01*
X132801360Y-106691611D01*
X132801360Y-106739992D01*
X132783217Y-106812563D01*
X132565502Y-107102849D01*
X132801360Y-107102849D01*
X134479574Y-106594849D02*
X134697288Y-106594849D01*
X134588431Y-107102849D02*
X134588431Y-106594849D01*
X134824288Y-107102849D02*
X134824288Y-106594849D01*
X134969431Y-106594849D01*
X135005717Y-106619040D01*
X135023860Y-106643230D01*
X135042002Y-106691611D01*
X135042002Y-106764182D01*
X135023860Y-106812563D01*
X135005717Y-106836754D01*
X134969431Y-106860944D01*
X134824288Y-106860944D01*
X135187145Y-106643230D02*
X135205288Y-106619040D01*
X135241574Y-106594849D01*
X135332288Y-106594849D01*
X135368574Y-106619040D01*
X135386717Y-106643230D01*
X135404860Y-106691611D01*
X135404860Y-106739992D01*
X135386717Y-106812563D01*
X135169002Y-107102849D01*
X135404860Y-107102849D01*
X133209574Y-107864849D02*
X133427288Y-107864849D01*
X133318431Y-108372849D02*
X133318431Y-107864849D01*
X133554288Y-108372849D02*
X133554288Y-107864849D01*
X133699431Y-107864849D01*
X133735717Y-107889040D01*
X133753860Y-107913230D01*
X133772002Y-107961611D01*
X133772002Y-108034182D01*
X133753860Y-108082563D01*
X133735717Y-108106754D01*
X133699431Y-108130944D01*
X133554288Y-108130944D01*
X133917145Y-107913230D02*
X133935288Y-107889040D01*
X133971574Y-107864849D01*
X134062288Y-107864849D01*
X134098574Y-107889040D01*
X134116717Y-107913230D01*
X134134860Y-107961611D01*
X134134860Y-108009992D01*
X134116717Y-108082563D01*
X133899002Y-108372849D01*
X134134860Y-108372849D01*
X131876074Y-107864849D02*
X132093788Y-107864849D01*
X131984931Y-108372849D02*
X131984931Y-107864849D01*
X132220788Y-108372849D02*
X132220788Y-107864849D01*
X132365931Y-107864849D01*
X132402217Y-107889040D01*
X132420360Y-107913230D01*
X132438502Y-107961611D01*
X132438502Y-108034182D01*
X132420360Y-108082563D01*
X132402217Y-108106754D01*
X132365931Y-108130944D01*
X132220788Y-108130944D01*
X132583645Y-107913230D02*
X132601788Y-107889040D01*
X132638074Y-107864849D01*
X132728788Y-107864849D01*
X132765074Y-107889040D01*
X132783217Y-107913230D01*
X132801360Y-107961611D01*
X132801360Y-108009992D01*
X132783217Y-108082563D01*
X132565502Y-108372849D01*
X132801360Y-108372849D01*
X130542574Y-106594849D02*
X130760288Y-106594849D01*
X130651431Y-107102849D02*
X130651431Y-106594849D01*
X130887288Y-107102849D02*
X130887288Y-106594849D01*
X131032431Y-106594849D01*
X131068717Y-106619040D01*
X131086860Y-106643230D01*
X131105002Y-106691611D01*
X131105002Y-106764182D01*
X131086860Y-106812563D01*
X131068717Y-106836754D01*
X131032431Y-106860944D01*
X130887288Y-106860944D01*
X131250145Y-106643230D02*
X131268288Y-106619040D01*
X131304574Y-106594849D01*
X131395288Y-106594849D01*
X131431574Y-106619040D01*
X131449717Y-106643230D01*
X131467860Y-106691611D01*
X131467860Y-106739992D01*
X131449717Y-106812563D01*
X131232002Y-107102849D01*
X131467860Y-107102849D01*
X130542574Y-107864849D02*
X130760288Y-107864849D01*
X130651431Y-108372849D02*
X130651431Y-107864849D01*
X130887288Y-108372849D02*
X130887288Y-107864849D01*
X131032431Y-107864849D01*
X131068717Y-107889040D01*
X131086860Y-107913230D01*
X131105002Y-107961611D01*
X131105002Y-108034182D01*
X131086860Y-108082563D01*
X131068717Y-108106754D01*
X131032431Y-108130944D01*
X130887288Y-108130944D01*
X131250145Y-107913230D02*
X131268288Y-107889040D01*
X131304574Y-107864849D01*
X131395288Y-107864849D01*
X131431574Y-107889040D01*
X131449717Y-107913230D01*
X131467860Y-107961611D01*
X131467860Y-108009992D01*
X131449717Y-108082563D01*
X131232002Y-108372849D01*
X131467860Y-108372849D01*
X132647145Y-93767849D02*
X132864860Y-93767849D01*
X132756002Y-94275849D02*
X132756002Y-93767849D01*
X132991860Y-94275849D02*
X132991860Y-93767849D01*
X133137002Y-93767849D01*
X133173288Y-93792040D01*
X133191431Y-93816230D01*
X133209574Y-93864611D01*
X133209574Y-93937182D01*
X133191431Y-93985563D01*
X133173288Y-94009754D01*
X133137002Y-94033944D01*
X132991860Y-94033944D01*
X133572431Y-94275849D02*
X133354717Y-94275849D01*
X133463574Y-94275849D02*
X133463574Y-93767849D01*
X133427288Y-93840420D01*
X133391002Y-93888801D01*
X133354717Y-93912992D01*
X133917145Y-93767849D02*
X133735717Y-93767849D01*
X133717574Y-94009754D01*
X133735717Y-93985563D01*
X133772002Y-93961373D01*
X133862717Y-93961373D01*
X133899002Y-93985563D01*
X133917145Y-94009754D01*
X133935288Y-94058135D01*
X133935288Y-94179087D01*
X133917145Y-94227468D01*
X133899002Y-94251659D01*
X133862717Y-94275849D01*
X133772002Y-94275849D01*
X133735717Y-94251659D01*
X133717574Y-94227468D01*
X126347945Y-91926349D02*
X126565660Y-91926349D01*
X126456802Y-92434349D02*
X126456802Y-91926349D01*
X126692660Y-92434349D02*
X126692660Y-91926349D01*
X126837802Y-91926349D01*
X126874088Y-91950540D01*
X126892231Y-91974730D01*
X126910374Y-92023111D01*
X126910374Y-92095682D01*
X126892231Y-92144063D01*
X126874088Y-92168254D01*
X126837802Y-92192444D01*
X126692660Y-92192444D01*
X127273231Y-92434349D02*
X127055517Y-92434349D01*
X127164374Y-92434349D02*
X127164374Y-91926349D01*
X127128088Y-91998920D01*
X127091802Y-92047301D01*
X127055517Y-92071492D01*
X127400231Y-91926349D02*
X127654231Y-91926349D01*
X127490945Y-92434349D01*
X166305169Y-105575825D02*
X166305169Y-105358111D01*
X166813169Y-105466968D02*
X166305169Y-105466968D01*
X166813169Y-105231111D02*
X166305169Y-105231111D01*
X166305169Y-105085968D01*
X166329360Y-105049682D01*
X166353550Y-105031540D01*
X166401931Y-105013397D01*
X166474502Y-105013397D01*
X166522883Y-105031540D01*
X166547074Y-105049682D01*
X166571264Y-105085968D01*
X166571264Y-105231111D01*
X166305169Y-104668682D02*
X166305169Y-104850111D01*
X166547074Y-104868254D01*
X166522883Y-104850111D01*
X166498693Y-104813825D01*
X166498693Y-104723111D01*
X166522883Y-104686825D01*
X166547074Y-104668682D01*
X166595455Y-104650540D01*
X166716407Y-104650540D01*
X166764788Y-104668682D01*
X166788979Y-104686825D01*
X166813169Y-104723111D01*
X166813169Y-104813825D01*
X166788979Y-104850111D01*
X166764788Y-104868254D01*
X169035669Y-103543825D02*
X169035669Y-103326111D01*
X169543669Y-103434968D02*
X169035669Y-103434968D01*
X169543669Y-103199111D02*
X169035669Y-103199111D01*
X169035669Y-103053968D01*
X169059860Y-103017682D01*
X169084050Y-102999540D01*
X169132431Y-102981397D01*
X169205002Y-102981397D01*
X169253383Y-102999540D01*
X169277574Y-103017682D01*
X169301764Y-103053968D01*
X169301764Y-103199111D01*
X169543669Y-102799968D02*
X169543669Y-102727397D01*
X169519479Y-102691111D01*
X169495288Y-102672968D01*
X169422717Y-102636682D01*
X169325955Y-102618540D01*
X169132431Y-102618540D01*
X169084050Y-102636682D01*
X169059860Y-102654825D01*
X169035669Y-102691111D01*
X169035669Y-102763682D01*
X169059860Y-102799968D01*
X169084050Y-102818111D01*
X169132431Y-102836254D01*
X169253383Y-102836254D01*
X169301764Y-102818111D01*
X169325955Y-102799968D01*
X169350145Y-102763682D01*
X169350145Y-102691111D01*
X169325955Y-102654825D01*
X169301764Y-102636682D01*
X169253383Y-102618540D01*
X125411169Y-101019825D02*
X125411169Y-100802111D01*
X125919169Y-100910968D02*
X125411169Y-100910968D01*
X125919169Y-100675111D02*
X125411169Y-100675111D01*
X125411169Y-100529968D01*
X125435360Y-100493682D01*
X125459550Y-100475540D01*
X125507931Y-100457397D01*
X125580502Y-100457397D01*
X125628883Y-100475540D01*
X125653074Y-100493682D01*
X125677264Y-100529968D01*
X125677264Y-100675111D01*
X125411169Y-100130825D02*
X125411169Y-100203397D01*
X125435360Y-100239682D01*
X125459550Y-100257825D01*
X125532121Y-100294111D01*
X125628883Y-100312254D01*
X125822407Y-100312254D01*
X125870788Y-100294111D01*
X125894979Y-100275968D01*
X125919169Y-100239682D01*
X125919169Y-100167111D01*
X125894979Y-100130825D01*
X125870788Y-100112682D01*
X125822407Y-100094540D01*
X125701455Y-100094540D01*
X125653074Y-100112682D01*
X125628883Y-100130825D01*
X125604693Y-100167111D01*
X125604693Y-100239682D01*
X125628883Y-100275968D01*
X125653074Y-100294111D01*
X125701455Y-100312254D01*
X166305169Y-107607825D02*
X166305169Y-107390111D01*
X166813169Y-107498968D02*
X166305169Y-107498968D01*
X166813169Y-107263111D02*
X166305169Y-107263111D01*
X166305169Y-107117968D01*
X166329360Y-107081682D01*
X166353550Y-107063540D01*
X166401931Y-107045397D01*
X166474502Y-107045397D01*
X166522883Y-107063540D01*
X166547074Y-107081682D01*
X166571264Y-107117968D01*
X166571264Y-107263111D01*
X166474502Y-106718825D02*
X166813169Y-106718825D01*
X166280979Y-106809540D02*
X166643836Y-106900254D01*
X166643836Y-106664397D01*
X125284169Y-96558825D02*
X125284169Y-96341111D01*
X125792169Y-96449968D02*
X125284169Y-96449968D01*
X125792169Y-96214111D02*
X125284169Y-96214111D01*
X125284169Y-96068968D01*
X125308360Y-96032682D01*
X125332550Y-96014540D01*
X125380931Y-95996397D01*
X125453502Y-95996397D01*
X125501883Y-96014540D01*
X125526074Y-96032682D01*
X125550264Y-96068968D01*
X125550264Y-96214111D01*
X125284169Y-95869397D02*
X125284169Y-95633540D01*
X125477693Y-95760540D01*
X125477693Y-95706111D01*
X125501883Y-95669825D01*
X125526074Y-95651682D01*
X125574455Y-95633540D01*
X125695407Y-95633540D01*
X125743788Y-95651682D01*
X125767979Y-95669825D01*
X125792169Y-95706111D01*
X125792169Y-95814968D01*
X125767979Y-95851254D01*
X125743788Y-95869397D01*
X126478574Y-99228849D02*
X126696288Y-99228849D01*
X126587431Y-99736849D02*
X126587431Y-99228849D01*
X126823288Y-99736849D02*
X126823288Y-99228849D01*
X126968431Y-99228849D01*
X127004717Y-99253040D01*
X127022860Y-99277230D01*
X127041002Y-99325611D01*
X127041002Y-99398182D01*
X127022860Y-99446563D01*
X127004717Y-99470754D01*
X126968431Y-99494944D01*
X126823288Y-99494944D01*
X127186145Y-99277230D02*
X127204288Y-99253040D01*
X127240574Y-99228849D01*
X127331288Y-99228849D01*
X127367574Y-99253040D01*
X127385717Y-99277230D01*
X127403860Y-99325611D01*
X127403860Y-99373992D01*
X127385717Y-99446563D01*
X127168002Y-99736849D01*
X127403860Y-99736849D01*
X128740788Y-93436540D02*
X128764979Y-93454682D01*
X128789169Y-93509111D01*
X128789169Y-93545397D01*
X128764979Y-93599825D01*
X128716598Y-93636111D01*
X128668217Y-93654254D01*
X128571455Y-93672397D01*
X128498883Y-93672397D01*
X128402121Y-93654254D01*
X128353740Y-93636111D01*
X128305360Y-93599825D01*
X128281169Y-93545397D01*
X128281169Y-93509111D01*
X128305360Y-93454682D01*
X128329550Y-93436540D01*
X128789169Y-93073682D02*
X128789169Y-93291397D01*
X128789169Y-93182540D02*
X128281169Y-93182540D01*
X128353740Y-93218825D01*
X128402121Y-93255111D01*
X128426312Y-93291397D01*
X130785688Y-96865440D02*
X130809879Y-96883582D01*
X130834069Y-96938011D01*
X130834069Y-96974297D01*
X130809879Y-97028725D01*
X130761498Y-97065011D01*
X130713117Y-97083154D01*
X130616355Y-97101297D01*
X130543783Y-97101297D01*
X130447021Y-97083154D01*
X130398640Y-97065011D01*
X130350260Y-97028725D01*
X130326069Y-96974297D01*
X130326069Y-96938011D01*
X130350260Y-96883582D01*
X130374450Y-96865440D01*
X130326069Y-96738440D02*
X130326069Y-96502582D01*
X130519593Y-96629582D01*
X130519593Y-96575154D01*
X130543783Y-96538868D01*
X130567974Y-96520725D01*
X130616355Y-96502582D01*
X130737307Y-96502582D01*
X130785688Y-96520725D01*
X130809879Y-96538868D01*
X130834069Y-96575154D01*
X130834069Y-96684011D01*
X130809879Y-96720297D01*
X130785688Y-96738440D01*
X138503660Y-104222368D02*
X138485517Y-104246559D01*
X138431088Y-104270749D01*
X138394802Y-104270749D01*
X138340374Y-104246559D01*
X138304088Y-104198178D01*
X138285945Y-104149797D01*
X138267802Y-104053035D01*
X138267802Y-103980463D01*
X138285945Y-103883701D01*
X138304088Y-103835320D01*
X138340374Y-103786940D01*
X138394802Y-103762749D01*
X138431088Y-103762749D01*
X138485517Y-103786940D01*
X138503660Y-103811130D01*
X138848374Y-103762749D02*
X138666945Y-103762749D01*
X138648802Y-104004654D01*
X138666945Y-103980463D01*
X138703231Y-103956273D01*
X138793945Y-103956273D01*
X138830231Y-103980463D01*
X138848374Y-104004654D01*
X138866517Y-104053035D01*
X138866517Y-104173987D01*
X138848374Y-104222368D01*
X138830231Y-104246559D01*
X138793945Y-104270749D01*
X138703231Y-104270749D01*
X138666945Y-104246559D01*
X138648802Y-104222368D01*
X138503660Y-105517768D02*
X138485517Y-105541959D01*
X138431088Y-105566149D01*
X138394802Y-105566149D01*
X138340374Y-105541959D01*
X138304088Y-105493578D01*
X138285945Y-105445197D01*
X138267802Y-105348435D01*
X138267802Y-105275863D01*
X138285945Y-105179101D01*
X138304088Y-105130720D01*
X138340374Y-105082340D01*
X138394802Y-105058149D01*
X138431088Y-105058149D01*
X138485517Y-105082340D01*
X138503660Y-105106530D01*
X138830231Y-105058149D02*
X138757660Y-105058149D01*
X138721374Y-105082340D01*
X138703231Y-105106530D01*
X138666945Y-105179101D01*
X138648802Y-105275863D01*
X138648802Y-105469387D01*
X138666945Y-105517768D01*
X138685088Y-105541959D01*
X138721374Y-105566149D01*
X138793945Y-105566149D01*
X138830231Y-105541959D01*
X138848374Y-105517768D01*
X138866517Y-105469387D01*
X138866517Y-105348435D01*
X138848374Y-105300054D01*
X138830231Y-105275863D01*
X138793945Y-105251673D01*
X138721374Y-105251673D01*
X138685088Y-105275863D01*
X138666945Y-105300054D01*
X138648802Y-105348435D01*
X157703943Y-103536568D02*
X157688824Y-103560759D01*
X157643467Y-103584949D01*
X157613229Y-103584949D01*
X157567871Y-103560759D01*
X157537633Y-103512378D01*
X157522514Y-103463997D01*
X157507395Y-103367235D01*
X157507395Y-103294663D01*
X157522514Y-103197901D01*
X157537633Y-103149520D01*
X157567871Y-103101140D01*
X157613229Y-103076949D01*
X157643467Y-103076949D01*
X157688824Y-103101140D01*
X157703943Y-103125330D01*
X157809776Y-103076949D02*
X158021443Y-103076949D01*
X157885371Y-103584949D01*
X157703943Y-104870068D02*
X157688824Y-104894259D01*
X157643467Y-104918449D01*
X157613229Y-104918449D01*
X157567871Y-104894259D01*
X157537633Y-104845878D01*
X157522514Y-104797497D01*
X157507395Y-104700735D01*
X157507395Y-104628163D01*
X157522514Y-104531401D01*
X157537633Y-104483020D01*
X157567871Y-104434640D01*
X157613229Y-104410449D01*
X157643467Y-104410449D01*
X157688824Y-104434640D01*
X157703943Y-104458830D01*
X157855133Y-104918449D02*
X157915610Y-104918449D01*
X157945848Y-104894259D01*
X157960967Y-104870068D01*
X157991205Y-104797497D01*
X158006324Y-104700735D01*
X158006324Y-104507211D01*
X157991205Y-104458830D01*
X157976086Y-104434640D01*
X157945848Y-104410449D01*
X157885371Y-104410449D01*
X157855133Y-104434640D01*
X157840014Y-104458830D01*
X157824895Y-104507211D01*
X157824895Y-104628163D01*
X157840014Y-104676544D01*
X157855133Y-104700735D01*
X157885371Y-104724925D01*
X157945848Y-104724925D01*
X157976086Y-104700735D01*
X157991205Y-104676544D01*
X158006324Y-104628163D01*
X165367788Y-102050668D02*
X165391979Y-102068811D01*
X165416169Y-102123240D01*
X165416169Y-102159525D01*
X165391979Y-102213954D01*
X165343598Y-102250240D01*
X165295217Y-102268382D01*
X165198455Y-102286525D01*
X165125883Y-102286525D01*
X165029121Y-102268382D01*
X164980740Y-102250240D01*
X164932360Y-102213954D01*
X164908169Y-102159525D01*
X164908169Y-102123240D01*
X164932360Y-102068811D01*
X164956550Y-102050668D01*
X165416169Y-101687811D02*
X165416169Y-101905525D01*
X165416169Y-101796668D02*
X164908169Y-101796668D01*
X164980740Y-101832954D01*
X165029121Y-101869240D01*
X165053312Y-101905525D01*
X164908169Y-101451954D02*
X164908169Y-101415668D01*
X164932360Y-101379382D01*
X164956550Y-101361240D01*
X165004931Y-101343097D01*
X165101693Y-101324954D01*
X165222645Y-101324954D01*
X165319407Y-101343097D01*
X165367788Y-101361240D01*
X165391979Y-101379382D01*
X165416169Y-101415668D01*
X165416169Y-101451954D01*
X165391979Y-101488240D01*
X165367788Y-101506382D01*
X165319407Y-101524525D01*
X165222645Y-101542668D01*
X165101693Y-101542668D01*
X165004931Y-101524525D01*
X164956550Y-101506382D01*
X164932360Y-101488240D01*
X164908169Y-101451954D01*
X166516231Y-97961268D02*
X166498088Y-97985459D01*
X166443660Y-98009649D01*
X166407374Y-98009649D01*
X166352945Y-97985459D01*
X166316660Y-97937078D01*
X166298517Y-97888697D01*
X166280374Y-97791935D01*
X166280374Y-97719363D01*
X166298517Y-97622601D01*
X166316660Y-97574220D01*
X166352945Y-97525840D01*
X166407374Y-97501649D01*
X166443660Y-97501649D01*
X166498088Y-97525840D01*
X166516231Y-97550030D01*
X166879088Y-98009649D02*
X166661374Y-98009649D01*
X166770231Y-98009649D02*
X166770231Y-97501649D01*
X166733945Y-97574220D01*
X166697660Y-97622601D01*
X166661374Y-97646792D01*
X167024231Y-97550030D02*
X167042374Y-97525840D01*
X167078660Y-97501649D01*
X167169374Y-97501649D01*
X167205660Y-97525840D01*
X167223802Y-97550030D01*
X167241945Y-97598411D01*
X167241945Y-97646792D01*
X167223802Y-97719363D01*
X167006088Y-98009649D01*
X167241945Y-98009649D01*
X138184345Y-98936749D02*
X138184345Y-98428749D01*
X138275060Y-98428749D01*
X138329488Y-98452940D01*
X138365774Y-98501320D01*
X138383917Y-98549701D01*
X138402060Y-98646463D01*
X138402060Y-98719035D01*
X138383917Y-98815797D01*
X138365774Y-98864178D01*
X138329488Y-98912559D01*
X138275060Y-98936749D01*
X138184345Y-98936749D01*
X138547202Y-98477130D02*
X138565345Y-98452940D01*
X138601631Y-98428749D01*
X138692345Y-98428749D01*
X138728631Y-98452940D01*
X138746774Y-98477130D01*
X138764917Y-98525511D01*
X138764917Y-98573892D01*
X138746774Y-98646463D01*
X138529060Y-98936749D01*
X138764917Y-98936749D01*
X138476445Y-100613149D02*
X138476445Y-100105149D01*
X138567160Y-100105149D01*
X138621588Y-100129340D01*
X138657874Y-100177720D01*
X138676017Y-100226101D01*
X138694160Y-100322863D01*
X138694160Y-100395435D01*
X138676017Y-100492197D01*
X138657874Y-100540578D01*
X138621588Y-100588959D01*
X138567160Y-100613149D01*
X138476445Y-100613149D01*
X138821160Y-100105149D02*
X139057017Y-100105149D01*
X138930017Y-100298673D01*
X138984445Y-100298673D01*
X139020731Y-100322863D01*
X139038874Y-100347054D01*
X139057017Y-100395435D01*
X139057017Y-100516387D01*
X139038874Y-100564768D01*
X139020731Y-100588959D01*
X138984445Y-100613149D01*
X138875588Y-100613149D01*
X138839302Y-100588959D01*
X138821160Y-100564768D01*
X154326045Y-101362449D02*
X154326045Y-100854449D01*
X154416760Y-100854449D01*
X154471188Y-100878640D01*
X154507474Y-100927020D01*
X154525617Y-100975401D01*
X154543760Y-101072163D01*
X154543760Y-101144735D01*
X154525617Y-101241497D01*
X154507474Y-101289878D01*
X154471188Y-101338259D01*
X154416760Y-101362449D01*
X154326045Y-101362449D01*
X154870331Y-101023782D02*
X154870331Y-101362449D01*
X154779617Y-100830259D02*
X154688902Y-101193116D01*
X154924760Y-101193116D01*
X155126145Y-96523749D02*
X155126145Y-96015749D01*
X155216860Y-96015749D01*
X155271288Y-96039940D01*
X155307574Y-96088320D01*
X155325717Y-96136701D01*
X155343860Y-96233463D01*
X155343860Y-96306035D01*
X155325717Y-96402797D01*
X155307574Y-96451178D01*
X155271288Y-96499559D01*
X155216860Y-96523749D01*
X155126145Y-96523749D01*
X155688574Y-96015749D02*
X155507145Y-96015749D01*
X155489002Y-96257654D01*
X155507145Y-96233463D01*
X155543431Y-96209273D01*
X155634145Y-96209273D01*
X155670431Y-96233463D01*
X155688574Y-96257654D01*
X155706717Y-96306035D01*
X155706717Y-96426987D01*
X155688574Y-96475368D01*
X155670431Y-96499559D01*
X155634145Y-96523749D01*
X155543431Y-96523749D01*
X155507145Y-96499559D01*
X155489002Y-96475368D01*
X143064774Y-105144630D02*
X143028488Y-105120440D01*
X142992202Y-105072059D01*
X142937774Y-104999487D01*
X142901488Y-104975297D01*
X142865202Y-104975297D01*
X142883345Y-105096249D02*
X142847060Y-105072059D01*
X142810774Y-105023678D01*
X142792631Y-104926916D01*
X142792631Y-104757582D01*
X142810774Y-104660820D01*
X142847060Y-104612440D01*
X142883345Y-104588249D01*
X142955917Y-104588249D01*
X142992202Y-104612440D01*
X143028488Y-104660820D01*
X143046631Y-104757582D01*
X143046631Y-104926916D01*
X143028488Y-105023678D01*
X142992202Y-105072059D01*
X142955917Y-105096249D01*
X142883345Y-105096249D01*
X143409488Y-105096249D02*
X143191774Y-105096249D01*
X143300631Y-105096249D02*
X143300631Y-104588249D01*
X143264345Y-104660820D01*
X143228060Y-104709201D01*
X143191774Y-104733392D01*
X143788674Y-96153030D02*
X143752388Y-96128840D01*
X143716102Y-96080459D01*
X143661674Y-96007887D01*
X143625388Y-95983697D01*
X143589102Y-95983697D01*
X143607245Y-96104649D02*
X143570960Y-96080459D01*
X143534674Y-96032078D01*
X143516531Y-95935316D01*
X143516531Y-95765982D01*
X143534674Y-95669220D01*
X143570960Y-95620840D01*
X143607245Y-95596649D01*
X143679817Y-95596649D01*
X143716102Y-95620840D01*
X143752388Y-95669220D01*
X143770531Y-95765982D01*
X143770531Y-95935316D01*
X143752388Y-96032078D01*
X143716102Y-96080459D01*
X143679817Y-96104649D01*
X143607245Y-96104649D01*
X143915674Y-95645030D02*
X143933817Y-95620840D01*
X143970102Y-95596649D01*
X144060817Y-95596649D01*
X144097102Y-95620840D01*
X144115245Y-95645030D01*
X144133388Y-95693411D01*
X144133388Y-95741792D01*
X144115245Y-95814363D01*
X143897531Y-96104649D01*
X144133388Y-96104649D01*
X151115281Y-105538330D02*
X151078995Y-105514140D01*
X151042709Y-105465759D01*
X150988281Y-105393187D01*
X150951995Y-105368997D01*
X150915709Y-105368997D01*
X150933852Y-105489949D02*
X150897567Y-105465759D01*
X150861281Y-105417378D01*
X150843138Y-105320616D01*
X150843138Y-105151282D01*
X150861281Y-105054520D01*
X150897567Y-105006140D01*
X150933852Y-104981949D01*
X151006424Y-104981949D01*
X151042709Y-105006140D01*
X151078995Y-105054520D01*
X151097138Y-105151282D01*
X151097138Y-105320616D01*
X151078995Y-105417378D01*
X151042709Y-105465759D01*
X151006424Y-105489949D01*
X150933852Y-105489949D01*
X151224138Y-104981949D02*
X151459995Y-104981949D01*
X151332995Y-105175473D01*
X151387424Y-105175473D01*
X151423709Y-105199663D01*
X151441852Y-105223854D01*
X151459995Y-105272235D01*
X151459995Y-105393187D01*
X151441852Y-105441568D01*
X151423709Y-105465759D01*
X151387424Y-105489949D01*
X151278567Y-105489949D01*
X151242281Y-105465759D01*
X151224138Y-105441568D01*
X150940867Y-96212388D02*
X150904581Y-96188198D01*
X150868295Y-96139817D01*
X150813867Y-96067245D01*
X150777581Y-96043055D01*
X150741295Y-96043055D01*
X150759438Y-96164007D02*
X150723153Y-96139817D01*
X150686867Y-96091436D01*
X150668724Y-95994674D01*
X150668724Y-95825340D01*
X150686867Y-95728578D01*
X150723153Y-95680198D01*
X150759438Y-95656007D01*
X150832010Y-95656007D01*
X150868295Y-95680198D01*
X150904581Y-95728578D01*
X150922724Y-95825340D01*
X150922724Y-95994674D01*
X150904581Y-96091436D01*
X150868295Y-96139817D01*
X150832010Y-96164007D01*
X150759438Y-96164007D01*
X151249295Y-95825340D02*
X151249295Y-96164007D01*
X151158581Y-95631817D02*
X151067867Y-95994674D01*
X151303724Y-95994674D01*
X166557960Y-99152649D02*
X166430960Y-98910744D01*
X166340245Y-99152649D02*
X166340245Y-98644649D01*
X166485388Y-98644649D01*
X166521674Y-98668840D01*
X166539817Y-98693030D01*
X166557960Y-98741411D01*
X166557960Y-98813982D01*
X166539817Y-98862363D01*
X166521674Y-98886554D01*
X166485388Y-98910744D01*
X166340245Y-98910744D01*
X166920817Y-99152649D02*
X166703102Y-99152649D01*
X166811960Y-99152649D02*
X166811960Y-98644649D01*
X166775674Y-98717220D01*
X166739388Y-98765601D01*
X166703102Y-98789792D01*
X128489169Y-97157540D02*
X128247264Y-97284540D01*
X128489169Y-97375254D02*
X127981169Y-97375254D01*
X127981169Y-97230111D01*
X128005360Y-97193825D01*
X128029550Y-97175682D01*
X128077931Y-97157540D01*
X128150502Y-97157540D01*
X128198883Y-97175682D01*
X128223074Y-97193825D01*
X128247264Y-97230111D01*
X128247264Y-97375254D01*
X128029550Y-97012397D02*
X128005360Y-96994254D01*
X127981169Y-96957968D01*
X127981169Y-96867254D01*
X128005360Y-96830968D01*
X128029550Y-96812825D01*
X128077931Y-96794682D01*
X128126312Y-96794682D01*
X128198883Y-96812825D01*
X128489169Y-97030540D01*
X128489169Y-96794682D01*
X129729169Y-101983540D02*
X129487264Y-102110540D01*
X129729169Y-102201254D02*
X129221169Y-102201254D01*
X129221169Y-102056111D01*
X129245360Y-102019825D01*
X129269550Y-102001682D01*
X129317931Y-101983540D01*
X129390502Y-101983540D01*
X129438883Y-102001682D01*
X129463074Y-102019825D01*
X129487264Y-102056111D01*
X129487264Y-102201254D01*
X129221169Y-101856540D02*
X129221169Y-101620682D01*
X129414693Y-101747682D01*
X129414693Y-101693254D01*
X129438883Y-101656968D01*
X129463074Y-101638825D01*
X129511455Y-101620682D01*
X129632407Y-101620682D01*
X129680788Y-101638825D01*
X129704979Y-101656968D01*
X129729169Y-101693254D01*
X129729169Y-101802111D01*
X129704979Y-101838397D01*
X129680788Y-101856540D01*
X132015169Y-96014540D02*
X131773264Y-96141540D01*
X132015169Y-96232254D02*
X131507169Y-96232254D01*
X131507169Y-96087111D01*
X131531360Y-96050825D01*
X131555550Y-96032682D01*
X131603931Y-96014540D01*
X131676502Y-96014540D01*
X131724883Y-96032682D01*
X131749074Y-96050825D01*
X131773264Y-96087111D01*
X131773264Y-96232254D01*
X131507169Y-95669825D02*
X131507169Y-95851254D01*
X131749074Y-95869397D01*
X131724883Y-95851254D01*
X131700693Y-95814968D01*
X131700693Y-95724254D01*
X131724883Y-95687968D01*
X131749074Y-95669825D01*
X131797455Y-95651682D01*
X131918407Y-95651682D01*
X131966788Y-95669825D01*
X131990979Y-95687968D01*
X132015169Y-95724254D01*
X132015169Y-95814968D01*
X131990979Y-95851254D01*
X131966788Y-95869397D01*
X139214860Y-98936749D02*
X139087860Y-98694844D01*
X138997145Y-98936749D02*
X138997145Y-98428749D01*
X139142288Y-98428749D01*
X139178574Y-98452940D01*
X139196717Y-98477130D01*
X139214860Y-98525511D01*
X139214860Y-98598082D01*
X139196717Y-98646463D01*
X139178574Y-98670654D01*
X139142288Y-98694844D01*
X138997145Y-98694844D01*
X139541431Y-98428749D02*
X139468860Y-98428749D01*
X139432574Y-98452940D01*
X139414431Y-98477130D01*
X139378145Y-98549701D01*
X139360002Y-98646463D01*
X139360002Y-98839987D01*
X139378145Y-98888368D01*
X139396288Y-98912559D01*
X139432574Y-98936749D01*
X139505145Y-98936749D01*
X139541431Y-98912559D01*
X139559574Y-98888368D01*
X139577717Y-98839987D01*
X139577717Y-98719035D01*
X139559574Y-98670654D01*
X139541431Y-98646463D01*
X139505145Y-98622273D01*
X139432574Y-98622273D01*
X139396288Y-98646463D01*
X139378145Y-98670654D01*
X139360002Y-98719035D01*
X139735560Y-100621391D02*
X139608560Y-100379486D01*
X139517845Y-100621391D02*
X139517845Y-100113391D01*
X139662988Y-100113391D01*
X139699274Y-100137582D01*
X139717417Y-100161772D01*
X139735560Y-100210153D01*
X139735560Y-100282724D01*
X139717417Y-100331105D01*
X139699274Y-100355296D01*
X139662988Y-100379486D01*
X139517845Y-100379486D01*
X139862560Y-100113391D02*
X140116560Y-100113391D01*
X139953274Y-100621391D01*
X155420060Y-101362449D02*
X155293060Y-101120544D01*
X155202345Y-101362449D02*
X155202345Y-100854449D01*
X155347488Y-100854449D01*
X155383774Y-100878640D01*
X155401917Y-100902830D01*
X155420060Y-100951211D01*
X155420060Y-101023782D01*
X155401917Y-101072163D01*
X155383774Y-101096354D01*
X155347488Y-101120544D01*
X155202345Y-101120544D01*
X155637774Y-101072163D02*
X155601488Y-101047973D01*
X155583345Y-101023782D01*
X155565202Y-100975401D01*
X155565202Y-100951211D01*
X155583345Y-100902830D01*
X155601488Y-100878640D01*
X155637774Y-100854449D01*
X155710345Y-100854449D01*
X155746631Y-100878640D01*
X155764774Y-100902830D01*
X155782917Y-100951211D01*
X155782917Y-100975401D01*
X155764774Y-101023782D01*
X155746631Y-101047973D01*
X155710345Y-101072163D01*
X155637774Y-101072163D01*
X155601488Y-101096354D01*
X155583345Y-101120544D01*
X155565202Y-101168925D01*
X155565202Y-101265687D01*
X155583345Y-101314068D01*
X155601488Y-101338259D01*
X155637774Y-101362449D01*
X155710345Y-101362449D01*
X155746631Y-101338259D01*
X155764774Y-101314068D01*
X155782917Y-101265687D01*
X155782917Y-101168925D01*
X155764774Y-101120544D01*
X155746631Y-101096354D01*
X155710345Y-101072163D01*
X156143960Y-96523749D02*
X156016960Y-96281844D01*
X155926245Y-96523749D02*
X155926245Y-96015749D01*
X156071388Y-96015749D01*
X156107674Y-96039940D01*
X156125817Y-96064130D01*
X156143960Y-96112511D01*
X156143960Y-96185082D01*
X156125817Y-96233463D01*
X156107674Y-96257654D01*
X156071388Y-96281844D01*
X155926245Y-96281844D01*
X156325388Y-96523749D02*
X156397960Y-96523749D01*
X156434245Y-96499559D01*
X156452388Y-96475368D01*
X156488674Y-96402797D01*
X156506817Y-96306035D01*
X156506817Y-96112511D01*
X156488674Y-96064130D01*
X156470531Y-96039940D01*
X156434245Y-96015749D01*
X156361674Y-96015749D01*
X156325388Y-96039940D01*
X156307245Y-96064130D01*
X156289102Y-96112511D01*
X156289102Y-96233463D01*
X156307245Y-96281844D01*
X156325388Y-96306035D01*
X156361674Y-96330225D01*
X156434245Y-96330225D01*
X156470531Y-96306035D01*
X156488674Y-96281844D01*
X156506817Y-96233463D01*
X161783969Y-95065668D02*
X161542064Y-95192668D01*
X161783969Y-95283382D02*
X161275969Y-95283382D01*
X161275969Y-95138240D01*
X161300160Y-95101954D01*
X161324350Y-95083811D01*
X161372731Y-95065668D01*
X161445302Y-95065668D01*
X161493683Y-95083811D01*
X161517874Y-95101954D01*
X161542064Y-95138240D01*
X161542064Y-95283382D01*
X161783969Y-94702811D02*
X161783969Y-94920525D01*
X161783969Y-94811668D02*
X161275969Y-94811668D01*
X161348540Y-94847954D01*
X161396921Y-94884240D01*
X161421112Y-94920525D01*
X161275969Y-94466954D02*
X161275969Y-94430668D01*
X161300160Y-94394382D01*
X161324350Y-94376240D01*
X161372731Y-94358097D01*
X161469493Y-94339954D01*
X161590445Y-94339954D01*
X161687207Y-94358097D01*
X161735588Y-94376240D01*
X161759779Y-94394382D01*
X161783969Y-94430668D01*
X161783969Y-94466954D01*
X161759779Y-94503240D01*
X161735588Y-94521382D01*
X161687207Y-94539525D01*
X161590445Y-94557668D01*
X161469493Y-94557668D01*
X161372731Y-94539525D01*
X161324350Y-94521382D01*
X161300160Y-94503240D01*
X161275969Y-94466954D01*
X167613269Y-99853568D02*
X167371364Y-99980568D01*
X167613269Y-100071282D02*
X167105269Y-100071282D01*
X167105269Y-99926140D01*
X167129460Y-99889854D01*
X167153650Y-99871711D01*
X167202031Y-99853568D01*
X167274602Y-99853568D01*
X167322983Y-99871711D01*
X167347174Y-99889854D01*
X167371364Y-99926140D01*
X167371364Y-100071282D01*
X167613269Y-99490711D02*
X167613269Y-99708425D01*
X167613269Y-99599568D02*
X167105269Y-99599568D01*
X167177840Y-99635854D01*
X167226221Y-99672140D01*
X167250412Y-99708425D01*
X167105269Y-99363711D02*
X167105269Y-99127854D01*
X167298793Y-99254854D01*
X167298793Y-99200425D01*
X167322983Y-99164140D01*
X167347174Y-99145997D01*
X167395555Y-99127854D01*
X167516507Y-99127854D01*
X167564888Y-99145997D01*
X167589079Y-99164140D01*
X167613269Y-99200425D01*
X167613269Y-99309282D01*
X167589079Y-99345568D01*
X167564888Y-99363711D01*
M02*
