G04 #@! TF.GenerationSoftware,KiCad,Pcbnew,(5.1.9)-1*
G04 #@! TF.CreationDate,2021-10-23T14:42:36-07:00*
G04 #@! TF.ProjectId,Buffer - Rev D,42756666-6572-4202-9d20-52657620442e,rev?*
G04 #@! TF.SameCoordinates,Original*
G04 #@! TF.FileFunction,Soldermask,Bot*
G04 #@! TF.FilePolarity,Negative*
%FSLAX46Y46*%
G04 Gerber Fmt 4.6, Leading zero omitted, Abs format (unit mm)*
G04 Created by KiCad (PCBNEW (5.1.9)-1) date 2021-10-23 14:42:36*
%MOMM*%
%LPD*%
G01*
G04 APERTURE LIST*
G04 #@! TA.AperFunction,Profile*
%ADD10C,0.200000*%
G04 #@! TD*
%ADD11C,1.270000*%
%ADD12R,5.080000X2.540000*%
G04 APERTURE END LIST*
D10*
X126959360Y-92776040D02*
X126959360Y-108270040D01*
X167853360Y-92776040D02*
X126959360Y-92776040D01*
X167853360Y-108270040D02*
X167853360Y-92776040D01*
X126959360Y-108270040D02*
X167853360Y-108270040D01*
D11*
X148055560Y-95970040D03*
X146709360Y-95970040D03*
X136865360Y-92776040D03*
D12*
X147393660Y-95173140D03*
D11*
X145374360Y-95935140D03*
X145374360Y-94665140D03*
X149374860Y-95935140D03*
X148041360Y-94665140D03*
X149374860Y-94665140D03*
X146707860Y-94665140D03*
X148041360Y-106873040D03*
X149374860Y-106873040D03*
X135023860Y-106873040D03*
X164487860Y-106949240D03*
X163154360Y-106873040D03*
X160487360Y-105603040D03*
X160487360Y-106873040D03*
X163154360Y-105603040D03*
X161820860Y-105603040D03*
X161820860Y-106873040D03*
X164487860Y-105603040D03*
X167853360Y-100904040D03*
X146707860Y-106873040D03*
X145374360Y-106873040D03*
X149374860Y-105603040D03*
X148041360Y-105603040D03*
X146707860Y-105603040D03*
X145374360Y-105603040D03*
X133690360Y-105603040D03*
X132356860Y-105603040D03*
X135023860Y-105603040D03*
X133690360Y-106873040D03*
X132356860Y-106873040D03*
X131023360Y-105603040D03*
X131023360Y-106873040D03*
D12*
X133309360Y-106111040D03*
X162519360Y-106111040D03*
D11*
X133309360Y-92776040D03*
X126959360Y-94173040D03*
X167853360Y-105095040D03*
X167853360Y-103063040D03*
X126959360Y-100539040D03*
X167853360Y-107127040D03*
X126959360Y-96205040D03*
X126959360Y-98237040D03*
D12*
X147393660Y-106111040D03*
M02*
