G04 #@! TF.GenerationSoftware,KiCad,Pcbnew,(5.1.9)-1*
G04 #@! TF.CreationDate,2021-10-23T14:42:36-07:00*
G04 #@! TF.ProjectId,Buffer - Rev D,42756666-6572-4202-9d20-52657620442e,rev?*
G04 #@! TF.SameCoordinates,Original*
G04 #@! TF.FileFunction,Copper,L2,Inr*
G04 #@! TF.FilePolarity,Positive*
%FSLAX46Y46*%
G04 Gerber Fmt 4.6, Leading zero omitted, Abs format (unit mm)*
G04 Created by KiCad (PCBNEW (5.1.9)-1) date 2021-10-23 14:42:36*
%MOMM*%
%LPD*%
G01*
G04 APERTURE LIST*
G04 #@! TA.AperFunction,Profile*
%ADD10C,0.200000*%
G04 #@! TD*
G04 #@! TA.AperFunction,ComponentPad*
%ADD11C,1.270000*%
G04 #@! TD*
G04 #@! TA.AperFunction,ViaPad*
%ADD12C,0.635000*%
G04 #@! TD*
G04 #@! TA.AperFunction,ViaPad*
%ADD13C,0.889000*%
G04 #@! TD*
G04 #@! TA.AperFunction,Conductor*
%ADD14C,0.508000*%
G04 #@! TD*
G04 #@! TA.AperFunction,Conductor*
%ADD15C,0.254000*%
G04 #@! TD*
G04 #@! TA.AperFunction,Conductor*
%ADD16C,0.500000*%
G04 #@! TD*
G04 APERTURE END LIST*
D10*
X126959360Y-92776040D02*
X126959360Y-108270040D01*
X167853360Y-92776040D02*
X126959360Y-92776040D01*
X167853360Y-108270040D02*
X167853360Y-92776040D01*
X126959360Y-108270040D02*
X167853360Y-108270040D01*
D11*
X148055560Y-95970040D03*
X146709360Y-95970040D03*
X136865360Y-92776040D03*
X145374360Y-95935140D03*
X145374360Y-94665140D03*
X149374860Y-95935140D03*
X148041360Y-94665140D03*
X149374860Y-94665140D03*
X146707860Y-94665140D03*
X148041360Y-106873040D03*
X149374860Y-106873040D03*
X135023860Y-106873040D03*
X164487860Y-106949240D03*
X163154360Y-106873040D03*
X160487360Y-105603040D03*
X160487360Y-106873040D03*
X163154360Y-105603040D03*
X161820860Y-105603040D03*
X161820860Y-106873040D03*
X164487860Y-105603040D03*
X167853360Y-100904040D03*
X146707860Y-106873040D03*
X145374360Y-106873040D03*
X149374860Y-105603040D03*
X148041360Y-105603040D03*
X146707860Y-105603040D03*
X145374360Y-105603040D03*
X133690360Y-105603040D03*
X132356860Y-105603040D03*
X135023860Y-105603040D03*
X133690360Y-106873040D03*
X132356860Y-106873040D03*
X131023360Y-105603040D03*
X131023360Y-106873040D03*
X133309360Y-92776040D03*
X126959360Y-94173040D03*
X167853360Y-105095040D03*
X167853360Y-103063040D03*
X126959360Y-100539040D03*
X167853360Y-107127040D03*
X126959360Y-96205040D03*
X126959360Y-98237040D03*
D12*
X165872160Y-96738440D03*
X130235960Y-99770040D03*
X129559360Y-99456240D03*
X165880360Y-98313240D03*
D13*
X165287960Y-104053640D03*
D12*
X128610360Y-96078040D03*
X129753360Y-96586040D03*
X128991360Y-96586040D03*
X129372360Y-96078040D03*
X132908280Y-99253040D03*
X136839960Y-106517440D03*
X136814560Y-107482640D03*
X135442960Y-100396040D03*
D13*
X150225760Y-100396040D03*
X153121360Y-100396040D03*
X152156160Y-100396040D03*
X151190960Y-100396040D03*
X149260560Y-100396040D03*
D12*
X155343860Y-104396540D03*
X154683460Y-104561640D03*
X159344360Y-100142040D03*
X154632660Y-105260140D03*
D13*
X166507160Y-107076240D03*
D12*
X129727960Y-94147640D03*
X130413760Y-101691440D03*
X164754560Y-96763840D03*
D13*
X159776160Y-93525340D03*
D12*
X135392160Y-97805240D03*
X135097520Y-94294960D03*
X134777480Y-93746320D03*
X134447280Y-94294960D03*
D13*
X156459360Y-93520040D03*
D12*
X159471360Y-98745040D03*
D13*
X143278860Y-100446840D03*
X141348460Y-100446840D03*
X145209260Y-100446840D03*
X144244060Y-100446840D03*
X142313660Y-100446840D03*
D12*
X140815060Y-105285540D03*
X141437360Y-105501440D03*
X140903960Y-105958640D03*
X135366762Y-102072440D03*
X139459275Y-94363540D03*
X140116560Y-94350840D03*
X140776960Y-94350840D03*
X157652545Y-96478099D03*
X158455360Y-96478099D03*
X154073860Y-95062040D03*
X154391360Y-95697040D03*
X153438860Y-95316040D03*
X135341360Y-98872040D03*
X140573760Y-99011740D03*
X139913360Y-98986340D03*
X138808460Y-94350840D03*
X138160760Y-94350840D03*
X136700260Y-96192340D03*
X137220960Y-96687640D03*
X128229360Y-101793040D03*
X132801357Y-100523037D03*
X165440360Y-102682040D03*
X161757360Y-99126040D03*
D14*
X136814560Y-106542840D02*
X136839960Y-106517440D01*
D15*
X132408992Y-93257296D02*
X132520181Y-93423702D01*
X132661698Y-93565219D01*
X132828104Y-93676408D01*
X132928360Y-93717935D01*
X132928360Y-99836115D01*
X132870153Y-99824537D01*
X132732561Y-99824537D01*
X132597612Y-99851380D01*
X132470493Y-99904034D01*
X132356089Y-99980476D01*
X132258796Y-100077769D01*
X132182354Y-100192173D01*
X132129700Y-100319292D01*
X132102857Y-100454241D01*
X132102857Y-100591833D01*
X132129700Y-100726782D01*
X132182354Y-100853901D01*
X132258796Y-100968305D01*
X132356089Y-101065598D01*
X132470493Y-101142040D01*
X132597612Y-101194694D01*
X132732561Y-101221537D01*
X132870153Y-101221537D01*
X132928360Y-101209959D01*
X132928360Y-104587040D01*
X127440360Y-104587040D01*
X127440360Y-101724244D01*
X127530860Y-101724244D01*
X127530860Y-101861836D01*
X127557703Y-101996785D01*
X127610357Y-102123904D01*
X127686799Y-102238308D01*
X127784092Y-102335601D01*
X127898496Y-102412043D01*
X128025615Y-102464697D01*
X128160564Y-102491540D01*
X128298156Y-102491540D01*
X128433105Y-102464697D01*
X128560224Y-102412043D01*
X128674628Y-102335601D01*
X128771921Y-102238308D01*
X128848363Y-102123904D01*
X128901017Y-101996785D01*
X128927860Y-101861836D01*
X128927860Y-101724244D01*
X128907651Y-101622644D01*
X129715260Y-101622644D01*
X129715260Y-101760236D01*
X129742103Y-101895185D01*
X129794757Y-102022304D01*
X129871199Y-102136708D01*
X129968492Y-102234001D01*
X130082896Y-102310443D01*
X130210015Y-102363097D01*
X130344964Y-102389940D01*
X130482556Y-102389940D01*
X130617505Y-102363097D01*
X130744624Y-102310443D01*
X130859028Y-102234001D01*
X130956321Y-102136708D01*
X131032763Y-102022304D01*
X131085417Y-101895185D01*
X131112260Y-101760236D01*
X131112260Y-101622644D01*
X131085417Y-101487695D01*
X131032763Y-101360576D01*
X130956321Y-101246172D01*
X130859028Y-101148879D01*
X130744624Y-101072437D01*
X130617505Y-101019783D01*
X130482556Y-100992940D01*
X130344964Y-100992940D01*
X130210015Y-101019783D01*
X130082896Y-101072437D01*
X129968492Y-101148879D01*
X129871199Y-101246172D01*
X129794757Y-101360576D01*
X129742103Y-101487695D01*
X129715260Y-101622644D01*
X128907651Y-101622644D01*
X128901017Y-101589295D01*
X128848363Y-101462176D01*
X128771921Y-101347772D01*
X128674628Y-101250479D01*
X128560224Y-101174037D01*
X128433105Y-101121383D01*
X128298156Y-101094540D01*
X128160564Y-101094540D01*
X128025615Y-101121383D01*
X127898496Y-101174037D01*
X127784092Y-101250479D01*
X127686799Y-101347772D01*
X127610357Y-101462176D01*
X127557703Y-101589295D01*
X127530860Y-101724244D01*
X127440360Y-101724244D01*
X127440360Y-101439514D01*
X127440616Y-101439408D01*
X127607022Y-101328219D01*
X127748539Y-101186702D01*
X127859728Y-101020296D01*
X127936316Y-100835396D01*
X127975360Y-100639107D01*
X127975360Y-100438973D01*
X127936316Y-100242684D01*
X127859728Y-100057784D01*
X127748539Y-99891378D01*
X127607022Y-99749861D01*
X127440616Y-99638672D01*
X127440360Y-99638566D01*
X127440360Y-99137514D01*
X127440616Y-99137408D01*
X127607022Y-99026219D01*
X127748539Y-98884702D01*
X127859728Y-98718296D01*
X127936316Y-98533396D01*
X127975360Y-98337107D01*
X127975360Y-98136973D01*
X127936316Y-97940684D01*
X127859728Y-97755784D01*
X127748539Y-97589378D01*
X127607022Y-97447861D01*
X127440616Y-97336672D01*
X127440360Y-97336566D01*
X127440360Y-95073514D01*
X127440616Y-95073408D01*
X127607022Y-94962219D01*
X127748539Y-94820702D01*
X127859728Y-94654296D01*
X127936316Y-94469396D01*
X127975360Y-94273107D01*
X127975360Y-94078844D01*
X129029460Y-94078844D01*
X129029460Y-94216436D01*
X129056303Y-94351385D01*
X129108957Y-94478504D01*
X129185399Y-94592908D01*
X129282692Y-94690201D01*
X129397096Y-94766643D01*
X129524215Y-94819297D01*
X129659164Y-94846140D01*
X129796756Y-94846140D01*
X129931705Y-94819297D01*
X130058824Y-94766643D01*
X130173228Y-94690201D01*
X130270521Y-94592908D01*
X130346963Y-94478504D01*
X130399617Y-94351385D01*
X130426460Y-94216436D01*
X130426460Y-94078844D01*
X130399617Y-93943895D01*
X130346963Y-93816776D01*
X130270521Y-93702372D01*
X130173228Y-93605079D01*
X130058824Y-93528637D01*
X129931705Y-93475983D01*
X129796756Y-93449140D01*
X129659164Y-93449140D01*
X129524215Y-93475983D01*
X129397096Y-93528637D01*
X129282692Y-93605079D01*
X129185399Y-93702372D01*
X129108957Y-93816776D01*
X129056303Y-93943895D01*
X129029460Y-94078844D01*
X127975360Y-94078844D01*
X127975360Y-94072973D01*
X127936316Y-93876684D01*
X127859728Y-93691784D01*
X127748539Y-93525378D01*
X127607022Y-93383861D01*
X127440616Y-93272672D01*
X127440360Y-93272566D01*
X127440360Y-93257040D01*
X132408886Y-93257040D01*
X132408992Y-93257296D01*
G04 #@! TA.AperFunction,Conductor*
D16*
G36*
X132408992Y-93257296D02*
G01*
X132520181Y-93423702D01*
X132661698Y-93565219D01*
X132828104Y-93676408D01*
X132928360Y-93717935D01*
X132928360Y-99836115D01*
X132870153Y-99824537D01*
X132732561Y-99824537D01*
X132597612Y-99851380D01*
X132470493Y-99904034D01*
X132356089Y-99980476D01*
X132258796Y-100077769D01*
X132182354Y-100192173D01*
X132129700Y-100319292D01*
X132102857Y-100454241D01*
X132102857Y-100591833D01*
X132129700Y-100726782D01*
X132182354Y-100853901D01*
X132258796Y-100968305D01*
X132356089Y-101065598D01*
X132470493Y-101142040D01*
X132597612Y-101194694D01*
X132732561Y-101221537D01*
X132870153Y-101221537D01*
X132928360Y-101209959D01*
X132928360Y-104587040D01*
X127440360Y-104587040D01*
X127440360Y-101724244D01*
X127530860Y-101724244D01*
X127530860Y-101861836D01*
X127557703Y-101996785D01*
X127610357Y-102123904D01*
X127686799Y-102238308D01*
X127784092Y-102335601D01*
X127898496Y-102412043D01*
X128025615Y-102464697D01*
X128160564Y-102491540D01*
X128298156Y-102491540D01*
X128433105Y-102464697D01*
X128560224Y-102412043D01*
X128674628Y-102335601D01*
X128771921Y-102238308D01*
X128848363Y-102123904D01*
X128901017Y-101996785D01*
X128927860Y-101861836D01*
X128927860Y-101724244D01*
X128907651Y-101622644D01*
X129715260Y-101622644D01*
X129715260Y-101760236D01*
X129742103Y-101895185D01*
X129794757Y-102022304D01*
X129871199Y-102136708D01*
X129968492Y-102234001D01*
X130082896Y-102310443D01*
X130210015Y-102363097D01*
X130344964Y-102389940D01*
X130482556Y-102389940D01*
X130617505Y-102363097D01*
X130744624Y-102310443D01*
X130859028Y-102234001D01*
X130956321Y-102136708D01*
X131032763Y-102022304D01*
X131085417Y-101895185D01*
X131112260Y-101760236D01*
X131112260Y-101622644D01*
X131085417Y-101487695D01*
X131032763Y-101360576D01*
X130956321Y-101246172D01*
X130859028Y-101148879D01*
X130744624Y-101072437D01*
X130617505Y-101019783D01*
X130482556Y-100992940D01*
X130344964Y-100992940D01*
X130210015Y-101019783D01*
X130082896Y-101072437D01*
X129968492Y-101148879D01*
X129871199Y-101246172D01*
X129794757Y-101360576D01*
X129742103Y-101487695D01*
X129715260Y-101622644D01*
X128907651Y-101622644D01*
X128901017Y-101589295D01*
X128848363Y-101462176D01*
X128771921Y-101347772D01*
X128674628Y-101250479D01*
X128560224Y-101174037D01*
X128433105Y-101121383D01*
X128298156Y-101094540D01*
X128160564Y-101094540D01*
X128025615Y-101121383D01*
X127898496Y-101174037D01*
X127784092Y-101250479D01*
X127686799Y-101347772D01*
X127610357Y-101462176D01*
X127557703Y-101589295D01*
X127530860Y-101724244D01*
X127440360Y-101724244D01*
X127440360Y-101439514D01*
X127440616Y-101439408D01*
X127607022Y-101328219D01*
X127748539Y-101186702D01*
X127859728Y-101020296D01*
X127936316Y-100835396D01*
X127975360Y-100639107D01*
X127975360Y-100438973D01*
X127936316Y-100242684D01*
X127859728Y-100057784D01*
X127748539Y-99891378D01*
X127607022Y-99749861D01*
X127440616Y-99638672D01*
X127440360Y-99638566D01*
X127440360Y-99137514D01*
X127440616Y-99137408D01*
X127607022Y-99026219D01*
X127748539Y-98884702D01*
X127859728Y-98718296D01*
X127936316Y-98533396D01*
X127975360Y-98337107D01*
X127975360Y-98136973D01*
X127936316Y-97940684D01*
X127859728Y-97755784D01*
X127748539Y-97589378D01*
X127607022Y-97447861D01*
X127440616Y-97336672D01*
X127440360Y-97336566D01*
X127440360Y-95073514D01*
X127440616Y-95073408D01*
X127607022Y-94962219D01*
X127748539Y-94820702D01*
X127859728Y-94654296D01*
X127936316Y-94469396D01*
X127975360Y-94273107D01*
X127975360Y-94078844D01*
X129029460Y-94078844D01*
X129029460Y-94216436D01*
X129056303Y-94351385D01*
X129108957Y-94478504D01*
X129185399Y-94592908D01*
X129282692Y-94690201D01*
X129397096Y-94766643D01*
X129524215Y-94819297D01*
X129659164Y-94846140D01*
X129796756Y-94846140D01*
X129931705Y-94819297D01*
X130058824Y-94766643D01*
X130173228Y-94690201D01*
X130270521Y-94592908D01*
X130346963Y-94478504D01*
X130399617Y-94351385D01*
X130426460Y-94216436D01*
X130426460Y-94078844D01*
X130399617Y-93943895D01*
X130346963Y-93816776D01*
X130270521Y-93702372D01*
X130173228Y-93605079D01*
X130058824Y-93528637D01*
X129931705Y-93475983D01*
X129796756Y-93449140D01*
X129659164Y-93449140D01*
X129524215Y-93475983D01*
X129397096Y-93528637D01*
X129282692Y-93605079D01*
X129185399Y-93702372D01*
X129108957Y-93816776D01*
X129056303Y-93943895D01*
X129029460Y-94078844D01*
X127975360Y-94078844D01*
X127975360Y-94072973D01*
X127936316Y-93876684D01*
X127859728Y-93691784D01*
X127748539Y-93525378D01*
X127607022Y-93383861D01*
X127440616Y-93272672D01*
X127440360Y-93272566D01*
X127440360Y-93257040D01*
X132408886Y-93257040D01*
X132408992Y-93257296D01*
G37*
G04 #@! TD.AperFunction*
D15*
X167372361Y-100003566D02*
X167372104Y-100003672D01*
X167205698Y-100114861D01*
X167064181Y-100256378D01*
X166952992Y-100422784D01*
X166876404Y-100607684D01*
X166837360Y-100803973D01*
X166837360Y-101004107D01*
X166876404Y-101200396D01*
X166952992Y-101385296D01*
X167064181Y-101551702D01*
X167205698Y-101693219D01*
X167372104Y-101804408D01*
X167372360Y-101804514D01*
X167372360Y-102162566D01*
X167372104Y-102162672D01*
X167205698Y-102273861D01*
X167064181Y-102415378D01*
X166952992Y-102581784D01*
X166876404Y-102766684D01*
X166837360Y-102962973D01*
X166837360Y-103163107D01*
X166876404Y-103359396D01*
X166952992Y-103544296D01*
X167064181Y-103710702D01*
X167205698Y-103852219D01*
X167372104Y-103963408D01*
X167372360Y-103963514D01*
X167372360Y-105730040D01*
X165783123Y-105730040D01*
X165630556Y-105666844D01*
X165567360Y-105514277D01*
X165567360Y-105031540D01*
X165564920Y-105006764D01*
X165557693Y-104982939D01*
X165464699Y-104758433D01*
X165452962Y-104736476D01*
X165437168Y-104717231D01*
X165417923Y-104701437D01*
X165395967Y-104689701D01*
X165171461Y-104596707D01*
X165147637Y-104589480D01*
X165122860Y-104587040D01*
X163114342Y-104587040D01*
X162962149Y-104524238D01*
X162898534Y-104372385D01*
X162889127Y-102613244D01*
X164741860Y-102613244D01*
X164741860Y-102750836D01*
X164768703Y-102885785D01*
X164821357Y-103012904D01*
X164897799Y-103127308D01*
X164995092Y-103224601D01*
X165109496Y-103301043D01*
X165236615Y-103353697D01*
X165371564Y-103380540D01*
X165509156Y-103380540D01*
X165644105Y-103353697D01*
X165771224Y-103301043D01*
X165885628Y-103224601D01*
X165982921Y-103127308D01*
X166059363Y-103012904D01*
X166112017Y-102885785D01*
X166138860Y-102750836D01*
X166138860Y-102613244D01*
X166112017Y-102478295D01*
X166059363Y-102351176D01*
X165982921Y-102236772D01*
X165885628Y-102139479D01*
X165771224Y-102063037D01*
X165644105Y-102010383D01*
X165509156Y-101983540D01*
X165371564Y-101983540D01*
X165236615Y-102010383D01*
X165109496Y-102063037D01*
X164995092Y-102139479D01*
X164897799Y-102236772D01*
X164821357Y-102351176D01*
X164768703Y-102478295D01*
X164741860Y-102613244D01*
X162889127Y-102613244D01*
X162857479Y-96695044D01*
X164056060Y-96695044D01*
X164056060Y-96832636D01*
X164082903Y-96967585D01*
X164135557Y-97094704D01*
X164211999Y-97209108D01*
X164309292Y-97306401D01*
X164423696Y-97382843D01*
X164550815Y-97435497D01*
X164685764Y-97462340D01*
X164823356Y-97462340D01*
X164958305Y-97435497D01*
X165085424Y-97382843D01*
X165199828Y-97306401D01*
X165297121Y-97209108D01*
X165373563Y-97094704D01*
X165426217Y-96967585D01*
X165453060Y-96832636D01*
X165453060Y-96695044D01*
X165426217Y-96560095D01*
X165373563Y-96432976D01*
X165297121Y-96318572D01*
X165199828Y-96221279D01*
X165085424Y-96144837D01*
X164958305Y-96092183D01*
X164823356Y-96065340D01*
X164685764Y-96065340D01*
X164550815Y-96092183D01*
X164423696Y-96144837D01*
X164309292Y-96221279D01*
X164211999Y-96318572D01*
X164135557Y-96432976D01*
X164082903Y-96560095D01*
X164056060Y-96695044D01*
X162857479Y-96695044D01*
X162839093Y-93257040D01*
X167372361Y-93257040D01*
X167372361Y-100003566D01*
G04 #@! TA.AperFunction,Conductor*
D16*
G36*
X167372361Y-100003566D02*
G01*
X167372104Y-100003672D01*
X167205698Y-100114861D01*
X167064181Y-100256378D01*
X166952992Y-100422784D01*
X166876404Y-100607684D01*
X166837360Y-100803973D01*
X166837360Y-101004107D01*
X166876404Y-101200396D01*
X166952992Y-101385296D01*
X167064181Y-101551702D01*
X167205698Y-101693219D01*
X167372104Y-101804408D01*
X167372360Y-101804514D01*
X167372360Y-102162566D01*
X167372104Y-102162672D01*
X167205698Y-102273861D01*
X167064181Y-102415378D01*
X166952992Y-102581784D01*
X166876404Y-102766684D01*
X166837360Y-102962973D01*
X166837360Y-103163107D01*
X166876404Y-103359396D01*
X166952992Y-103544296D01*
X167064181Y-103710702D01*
X167205698Y-103852219D01*
X167372104Y-103963408D01*
X167372360Y-103963514D01*
X167372360Y-105730040D01*
X165783123Y-105730040D01*
X165630556Y-105666844D01*
X165567360Y-105514277D01*
X165567360Y-105031540D01*
X165564920Y-105006764D01*
X165557693Y-104982939D01*
X165464699Y-104758433D01*
X165452962Y-104736476D01*
X165437168Y-104717231D01*
X165417923Y-104701437D01*
X165395967Y-104689701D01*
X165171461Y-104596707D01*
X165147637Y-104589480D01*
X165122860Y-104587040D01*
X163114342Y-104587040D01*
X162962149Y-104524238D01*
X162898534Y-104372385D01*
X162889127Y-102613244D01*
X164741860Y-102613244D01*
X164741860Y-102750836D01*
X164768703Y-102885785D01*
X164821357Y-103012904D01*
X164897799Y-103127308D01*
X164995092Y-103224601D01*
X165109496Y-103301043D01*
X165236615Y-103353697D01*
X165371564Y-103380540D01*
X165509156Y-103380540D01*
X165644105Y-103353697D01*
X165771224Y-103301043D01*
X165885628Y-103224601D01*
X165982921Y-103127308D01*
X166059363Y-103012904D01*
X166112017Y-102885785D01*
X166138860Y-102750836D01*
X166138860Y-102613244D01*
X166112017Y-102478295D01*
X166059363Y-102351176D01*
X165982921Y-102236772D01*
X165885628Y-102139479D01*
X165771224Y-102063037D01*
X165644105Y-102010383D01*
X165509156Y-101983540D01*
X165371564Y-101983540D01*
X165236615Y-102010383D01*
X165109496Y-102063037D01*
X164995092Y-102139479D01*
X164897799Y-102236772D01*
X164821357Y-102351176D01*
X164768703Y-102478295D01*
X164741860Y-102613244D01*
X162889127Y-102613244D01*
X162857479Y-96695044D01*
X164056060Y-96695044D01*
X164056060Y-96832636D01*
X164082903Y-96967585D01*
X164135557Y-97094704D01*
X164211999Y-97209108D01*
X164309292Y-97306401D01*
X164423696Y-97382843D01*
X164550815Y-97435497D01*
X164685764Y-97462340D01*
X164823356Y-97462340D01*
X164958305Y-97435497D01*
X165085424Y-97382843D01*
X165199828Y-97306401D01*
X165297121Y-97209108D01*
X165373563Y-97094704D01*
X165426217Y-96967585D01*
X165453060Y-96832636D01*
X165453060Y-96695044D01*
X165426217Y-96560095D01*
X165373563Y-96432976D01*
X165297121Y-96318572D01*
X165199828Y-96221279D01*
X165085424Y-96144837D01*
X164958305Y-96092183D01*
X164823356Y-96065340D01*
X164685764Y-96065340D01*
X164550815Y-96092183D01*
X164423696Y-96144837D01*
X164309292Y-96221279D01*
X164211999Y-96318572D01*
X164135557Y-96432976D01*
X164082903Y-96560095D01*
X164056060Y-96695044D01*
X162857479Y-96695044D01*
X162839093Y-93257040D01*
X167372361Y-93257040D01*
X167372361Y-100003566D01*
G37*
G04 #@! TD.AperFunction*
D15*
X138503461Y-100224114D02*
X138842648Y-100450752D01*
X139069286Y-100789939D01*
X139151360Y-101202550D01*
X139151360Y-106828530D01*
X139069286Y-107241141D01*
X138842648Y-107580328D01*
X138644330Y-107712840D01*
X136540556Y-107712840D01*
X136384100Y-107608300D01*
X136178164Y-107300094D01*
X136115337Y-106984245D01*
X136116060Y-106980612D01*
X136116060Y-106765468D01*
X136103360Y-106701620D01*
X136103360Y-106508761D01*
X136175299Y-106240281D01*
X136359601Y-106055979D01*
X136961730Y-105894639D01*
X136985031Y-105885869D01*
X137006173Y-105872722D01*
X137018663Y-105861769D01*
X137251089Y-105629343D01*
X137266883Y-105610097D01*
X137278619Y-105588141D01*
X137283959Y-105572410D01*
X137369033Y-105254910D01*
X137373360Y-105222040D01*
X137373360Y-102206040D01*
X137370920Y-102181263D01*
X137281478Y-101731610D01*
X137274251Y-101707786D01*
X137262515Y-101685830D01*
X137007807Y-101304633D01*
X136992013Y-101285387D01*
X136972767Y-101269593D01*
X136591570Y-101014885D01*
X136569614Y-101003149D01*
X136545790Y-100995922D01*
X136096137Y-100906480D01*
X136071360Y-100904040D01*
X135358081Y-100904040D01*
X135153101Y-100849116D01*
X135015284Y-100711299D01*
X134964840Y-100523040D01*
X135015284Y-100334781D01*
X135153101Y-100196964D01*
X135358081Y-100142040D01*
X138090850Y-100142040D01*
X138503461Y-100224114D01*
G04 #@! TA.AperFunction,Conductor*
D16*
G36*
X138503461Y-100224114D02*
G01*
X138842648Y-100450752D01*
X139069286Y-100789939D01*
X139151360Y-101202550D01*
X139151360Y-106828530D01*
X139069286Y-107241141D01*
X138842648Y-107580328D01*
X138644330Y-107712840D01*
X136540556Y-107712840D01*
X136384100Y-107608300D01*
X136178164Y-107300094D01*
X136115337Y-106984245D01*
X136116060Y-106980612D01*
X136116060Y-106765468D01*
X136103360Y-106701620D01*
X136103360Y-106508761D01*
X136175299Y-106240281D01*
X136359601Y-106055979D01*
X136961730Y-105894639D01*
X136985031Y-105885869D01*
X137006173Y-105872722D01*
X137018663Y-105861769D01*
X137251089Y-105629343D01*
X137266883Y-105610097D01*
X137278619Y-105588141D01*
X137283959Y-105572410D01*
X137369033Y-105254910D01*
X137373360Y-105222040D01*
X137373360Y-102206040D01*
X137370920Y-102181263D01*
X137281478Y-101731610D01*
X137274251Y-101707786D01*
X137262515Y-101685830D01*
X137007807Y-101304633D01*
X136992013Y-101285387D01*
X136972767Y-101269593D01*
X136591570Y-101014885D01*
X136569614Y-101003149D01*
X136545790Y-100995922D01*
X136096137Y-100906480D01*
X136071360Y-100904040D01*
X135358081Y-100904040D01*
X135153101Y-100849116D01*
X135015284Y-100711299D01*
X134964840Y-100523040D01*
X135015284Y-100334781D01*
X135153101Y-100196964D01*
X135358081Y-100142040D01*
X138090850Y-100142040D01*
X138503461Y-100224114D01*
G37*
G04 #@! TD.AperFunction*
D15*
X138344307Y-93979459D02*
X138362152Y-93996819D01*
X138387939Y-94012763D01*
X138631048Y-94125475D01*
X138654553Y-94133683D01*
X138684659Y-94137256D01*
X155883110Y-94111223D01*
X155933135Y-94161248D01*
X156068339Y-94251588D01*
X156218571Y-94313816D01*
X156378055Y-94345540D01*
X156540665Y-94345540D01*
X156700149Y-94313816D01*
X156839033Y-94256288D01*
X156867860Y-94325807D01*
X156867860Y-99164277D01*
X156804664Y-99316844D01*
X156652097Y-99380040D01*
X151597870Y-99380040D01*
X151597301Y-99380039D01*
X138209449Y-99355271D01*
X138057464Y-99292282D01*
X137994032Y-99140484D01*
X137979389Y-96075916D01*
X137976830Y-96051152D01*
X137969548Y-96027502D01*
X137876021Y-95803977D01*
X137864206Y-95782063D01*
X137848343Y-95762874D01*
X137829042Y-95747149D01*
X137807324Y-95735607D01*
X137583354Y-95643149D01*
X137559521Y-95635951D01*
X137534893Y-95633540D01*
X136560720Y-95633540D01*
X136408091Y-95570279D01*
X136344966Y-95417593D01*
X136346890Y-93257040D01*
X137734558Y-93257040D01*
X138344307Y-93979459D01*
G04 #@! TA.AperFunction,Conductor*
D16*
G36*
X138344307Y-93979459D02*
G01*
X138362152Y-93996819D01*
X138387939Y-94012763D01*
X138631048Y-94125475D01*
X138654553Y-94133683D01*
X138684659Y-94137256D01*
X155883110Y-94111223D01*
X155933135Y-94161248D01*
X156068339Y-94251588D01*
X156218571Y-94313816D01*
X156378055Y-94345540D01*
X156540665Y-94345540D01*
X156700149Y-94313816D01*
X156839033Y-94256288D01*
X156867860Y-94325807D01*
X156867860Y-99164277D01*
X156804664Y-99316844D01*
X156652097Y-99380040D01*
X151597870Y-99380040D01*
X151597301Y-99380039D01*
X138209449Y-99355271D01*
X138057464Y-99292282D01*
X137994032Y-99140484D01*
X137979389Y-96075916D01*
X137976830Y-96051152D01*
X137969548Y-96027502D01*
X137876021Y-95803977D01*
X137864206Y-95782063D01*
X137848343Y-95762874D01*
X137829042Y-95747149D01*
X137807324Y-95735607D01*
X137583354Y-95643149D01*
X137559521Y-95635951D01*
X137534893Y-95633540D01*
X136560720Y-95633540D01*
X136408091Y-95570279D01*
X136344966Y-95417593D01*
X136346890Y-93257040D01*
X137734558Y-93257040D01*
X138344307Y-93979459D01*
G37*
G04 #@! TD.AperFunction*
M02*
