%FSLAX45Y45*%
G04 Gerber Fmt 4.5, Leading zero omitted, Abs format (unit mm)*
G04 Created by KiCad (PCBNEW (5.0.0)) date 11/01/19 16:10:53*
%MOMM*%
%LPD*%
G01*
G04 APERTURE LIST*
%ADD10C,0.200000*%
%ADD11C,0.300000*%
G04 APERTURE END LIST*
D10*
X0Y1549400D02*
X0Y0D01*
X4089400Y1549400D02*
X0Y1549400D01*
X4089400Y0D02*
X4089400Y1549400D01*
X0Y0D02*
X4089400Y0D01*
D10*
X111760Y662940D02*
X142240Y632460D01*
X142240Y662940D02*
X111760Y632460D01*
X149860Y1234440D02*
X180340Y1203960D01*
X180340Y1234440D02*
X149860Y1203960D01*
X187960Y1183640D02*
X218440Y1153160D01*
X218440Y1183640D02*
X187960Y1153160D01*
X226060Y1234440D02*
X256540Y1203960D01*
X256540Y1234440D02*
X226060Y1203960D01*
X244760Y896620D02*
X275240Y866140D01*
X275240Y896620D02*
X244760Y866140D01*
X261620Y1427480D02*
X292100Y1397000D01*
X292100Y1427480D02*
X261620Y1397000D01*
X264160Y1183640D02*
X294640Y1153160D01*
X294640Y1183640D02*
X264160Y1153160D01*
X312420Y865240D02*
X342900Y834760D01*
X342900Y865240D02*
X312420Y834760D01*
X330200Y673100D02*
X360680Y642620D01*
X360680Y673100D02*
X330200Y642620D01*
X568960Y789940D02*
X599440Y759460D01*
X599440Y789940D02*
X568960Y759460D01*
X579652Y916940D02*
X610132Y886460D01*
X610132Y916940D02*
X579652Y886460D01*
X733552Y1412748D02*
X764032Y1382268D01*
X764032Y1412748D02*
X733552Y1382268D01*
X766572Y1467612D02*
X797052Y1437132D01*
X797052Y1467612D02*
X766572Y1437132D01*
X798576Y1412748D02*
X829056Y1382268D01*
X829056Y1412748D02*
X798576Y1382268D01*
X822960Y955040D02*
X853440Y924560D01*
X853440Y955040D02*
X822960Y924560D01*
X825500Y635000D02*
X855980Y604520D01*
X855980Y635000D02*
X825500Y604520D01*
X828040Y1061720D02*
X858520Y1031240D01*
X858520Y1061720D02*
X828040Y1031240D01*
X833120Y802640D02*
X863600Y772160D01*
X863600Y802640D02*
X833120Y772160D01*
X958850Y1223010D02*
X989330Y1192530D01*
X989330Y1223010D02*
X958850Y1192530D01*
X970280Y93980D02*
X1000760Y63500D01*
X1000760Y93980D02*
X970280Y63500D01*
X972820Y190500D02*
X1003300Y160020D01*
X1003300Y190500D02*
X972820Y160020D01*
X1010920Y1173480D02*
X1041400Y1143000D01*
X1041400Y1173480D02*
X1010920Y1143000D01*
X1104900Y1407160D02*
X1135380Y1376680D01*
X1135380Y1407160D02*
X1104900Y1376680D01*
X1169670Y1407160D02*
X1200150Y1376680D01*
X1200150Y1407160D02*
X1169670Y1376680D01*
X1234752Y1405890D02*
X1265232Y1375410D01*
X1265232Y1405890D02*
X1234752Y1375410D01*
X1280160Y943610D02*
X1310640Y913130D01*
X1310640Y943610D02*
X1280160Y913130D01*
X1300480Y1407160D02*
X1330960Y1376680D01*
X1330960Y1407160D02*
X1300480Y1376680D01*
X1346200Y941070D02*
X1376680Y910590D01*
X1376680Y941070D02*
X1346200Y910590D01*
X1366520Y1407160D02*
X1397000Y1376680D01*
X1397000Y1407160D02*
X1366520Y1376680D01*
X1370330Y313690D02*
X1400810Y283210D01*
X1400810Y313690D02*
X1370330Y283210D01*
X1379220Y246380D02*
X1409700Y215900D01*
X1409700Y246380D02*
X1379220Y215900D01*
X1432560Y292100D02*
X1463040Y261620D01*
X1463040Y292100D02*
X1432560Y261620D01*
X2632710Y1310640D02*
X2663190Y1280160D01*
X2663190Y1310640D02*
X2632710Y1280160D01*
X2696210Y1336040D02*
X2726690Y1305560D01*
X2726690Y1336040D02*
X2696210Y1305560D01*
X2727960Y1272540D02*
X2758440Y1242060D01*
X2758440Y1272540D02*
X2727960Y1242060D01*
X2752090Y316230D02*
X2782570Y285750D01*
X2782570Y316230D02*
X2752090Y285750D01*
X2757170Y386080D02*
X2787650Y355600D01*
X2787650Y386080D02*
X2757170Y355600D01*
X2823210Y402590D02*
X2853690Y372110D01*
X2853690Y402590D02*
X2823210Y372110D01*
X3054078Y1194434D02*
X3084558Y1163954D01*
X3084558Y1194434D02*
X3054078Y1163954D01*
X3134360Y1194434D02*
X3164840Y1163954D01*
X3164840Y1194434D02*
X3134360Y1163954D01*
X3223260Y828040D02*
X3253740Y797560D01*
X3253740Y828040D02*
X3223260Y797560D01*
X3235960Y967740D02*
X3266440Y937260D01*
X3266440Y967740D02*
X3235960Y937260D01*
X3464560Y929640D02*
X3495040Y899160D01*
X3495040Y929640D02*
X3464560Y899160D01*
X3764280Y1165860D02*
X3794760Y1135380D01*
X3794760Y1165860D02*
X3764280Y1135380D01*
X3832860Y574040D02*
X3863340Y543560D01*
X3863340Y574040D02*
X3832860Y543560D01*
X3876040Y1168400D02*
X3906520Y1137920D01*
X3906520Y1168400D02*
X3876040Y1137920D01*
X3876860Y1010920D02*
X3907340Y980440D01*
X3907340Y1010920D02*
X3876860Y980440D01*
X1466850Y782320D02*
G75*
G03X1466850Y782320I-27940J0D01*
G01*
X1563370Y782320D02*
G75*
G03X1563370Y782320I-27940J0D01*
G01*
X1659890Y782320D02*
G75*
G03X1659890Y782320I-27940J0D01*
G01*
X1756410Y782320D02*
G75*
G03X1756410Y782320I-27940J0D01*
G01*
X1852930Y782320D02*
G75*
G03X1852930Y782320I-27940J0D01*
G01*
X2258060Y787400D02*
G75*
G03X2258060Y787400I-27940J0D01*
G01*
X2354580Y787400D02*
G75*
G03X2354580Y787400I-27940J0D01*
G01*
X2451100Y787400D02*
G75*
G03X2451100Y787400I-27940J0D01*
G01*
X2547620Y787400D02*
G75*
G03X2547620Y787400I-27940J0D01*
G01*
X2644140Y787400D02*
G75*
G03X2644140Y787400I-27940J0D01*
G01*
X2977940Y1475000D02*
G75*
G03X2977940Y1475000I-27940J0D01*
G01*
X3309620Y1474470D02*
G75*
G03X3309620Y1474470I-27940J0D01*
G01*
X3860800Y421640D02*
G75*
G03X3860800Y421640I-27940J0D01*
G01*
X3982720Y119380D02*
G75*
G03X3982720Y119380I-27940J0D01*
G01*
X406400Y184150D02*
X406400Y95250D01*
X361950Y139700D02*
X450850Y139700D01*
X990600Y1593850D02*
X990600Y1504950D01*
X946150Y1549400D02*
X1035050Y1549400D01*
X0Y817550D02*
X0Y728650D01*
X-44450Y773100D02*
X44450Y773100D01*
X3352800Y184150D02*
X3352800Y95250D01*
X3308350Y139700D02*
X3397250Y139700D01*
X2108200Y184150D02*
X2108200Y95250D01*
X2063750Y139700D02*
X2152650Y139700D01*
X806450Y184150D02*
X806450Y95250D01*
X762000Y139700D02*
X850900Y139700D01*
X406400Y311150D02*
X406400Y222250D01*
X361950Y266700D02*
X450850Y266700D01*
X0Y1250950D02*
X0Y1162050D01*
X-44450Y1206500D02*
X44450Y1206500D01*
X4089400Y565150D02*
X4089400Y476250D01*
X4044950Y520700D02*
X4133850Y520700D01*
X3352800Y311150D02*
X3352800Y222250D01*
X3308350Y266700D02*
X3397250Y266700D01*
X3486150Y311150D02*
X3486150Y222250D01*
X3441700Y266700D02*
X3530600Y266700D01*
X1974850Y1404940D02*
X1974850Y1316040D01*
X1930400Y1360490D02*
X2019300Y1360490D01*
X1841500Y184150D02*
X1841500Y95250D01*
X1797050Y139700D02*
X1885950Y139700D01*
X806450Y311150D02*
X806450Y222250D01*
X762000Y266700D02*
X850900Y266700D01*
X2241550Y1404940D02*
X2241550Y1316040D01*
X2197100Y1360490D02*
X2286000Y1360490D01*
X3619500Y311150D02*
X3619500Y222250D01*
X3575050Y266700D02*
X3663950Y266700D01*
X3486150Y184150D02*
X3486150Y95250D01*
X3441700Y139700D02*
X3530600Y139700D01*
X539750Y184150D02*
X539750Y95250D01*
X495300Y139700D02*
X584200Y139700D01*
X635000Y1593850D02*
X635000Y1504950D01*
X590550Y1549400D02*
X679450Y1549400D01*
X539750Y311150D02*
X539750Y222250D01*
X495300Y266700D02*
X584200Y266700D01*
X1975000Y1274450D02*
X1975000Y1185550D01*
X1930550Y1230000D02*
X2019450Y1230000D01*
X2108200Y1404940D02*
X2108200Y1316040D01*
X2063750Y1360490D02*
X2152650Y1360490D01*
X1841500Y1404940D02*
X1841500Y1316040D01*
X1797050Y1360490D02*
X1885950Y1360490D01*
X1841500Y311150D02*
X1841500Y222250D01*
X1797050Y266700D02*
X1885950Y266700D01*
X673100Y184150D02*
X673100Y95250D01*
X628650Y139700D02*
X717550Y139700D01*
X1974850Y311150D02*
X1974850Y222250D01*
X1930400Y266700D02*
X2019300Y266700D01*
X2109620Y1274450D02*
X2109620Y1185550D01*
X2065170Y1230000D02*
X2154070Y1230000D01*
X0Y1047750D02*
X0Y958850D01*
X-44450Y1003300D02*
X44450Y1003300D01*
X2241550Y1277940D02*
X2241550Y1189040D01*
X2197100Y1233490D02*
X2286000Y1233490D01*
X4089400Y781050D02*
X4089400Y692150D01*
X4044950Y736600D02*
X4133850Y736600D01*
X4089400Y361950D02*
X4089400Y273050D01*
X4044950Y317500D02*
X4133850Y317500D01*
X2241550Y311150D02*
X2241550Y222250D01*
X2197100Y266700D02*
X2286000Y266700D01*
X1974850Y184150D02*
X1974850Y95250D01*
X1930400Y139700D02*
X2019300Y139700D01*
X4089400Y158750D02*
X4089400Y69850D01*
X4044950Y114300D02*
X4133850Y114300D01*
X1841500Y1277940D02*
X1841500Y1189040D01*
X1797050Y1233490D02*
X1885950Y1233490D01*
X3752850Y311150D02*
X3752850Y222250D01*
X3708400Y266700D02*
X3797300Y266700D01*
X0Y1454150D02*
X0Y1365250D01*
X-44450Y1409700D02*
X44450Y1409700D01*
X2108200Y311150D02*
X2108200Y222250D01*
X2063750Y266700D02*
X2152650Y266700D01*
X673100Y311150D02*
X673100Y222250D01*
X628650Y266700D02*
X717550Y266700D01*
X3619500Y184150D02*
X3619500Y95250D01*
X3575050Y139700D02*
X3663950Y139700D01*
X3752850Y176530D02*
X3752850Y87630D01*
X3708400Y132080D02*
X3797300Y132080D01*
X2241550Y184150D02*
X2241550Y95250D01*
X2197100Y139700D02*
X2286000Y139700D01*
D11*
X276428Y-475714D02*
X276428Y-175714D01*
X347857Y-175714D01*
X390714Y-190000D01*
X419286Y-218571D01*
X433571Y-247143D01*
X447857Y-304286D01*
X447857Y-347143D01*
X433571Y-404286D01*
X419286Y-432857D01*
X390714Y-461429D01*
X347857Y-475714D01*
X276428Y-475714D01*
X576428Y-475714D02*
X576428Y-275714D01*
X576428Y-332857D02*
X590714Y-304286D01*
X605000Y-290000D01*
X633571Y-275714D01*
X662143Y-275714D01*
X762143Y-475714D02*
X762143Y-275714D01*
X762143Y-175714D02*
X747857Y-190000D01*
X762143Y-204286D01*
X776428Y-190000D01*
X762143Y-175714D01*
X762143Y-204286D01*
X947857Y-475714D02*
X919286Y-461429D01*
X905000Y-432857D01*
X905000Y-175714D01*
X1105000Y-475714D02*
X1076428Y-461429D01*
X1062143Y-432857D01*
X1062143Y-175714D01*
X1447857Y-475714D02*
X1447857Y-175714D01*
X1547857Y-390000D01*
X1647857Y-175714D01*
X1647857Y-475714D01*
X1919286Y-475714D02*
X1919286Y-318572D01*
X1905000Y-290000D01*
X1876428Y-275714D01*
X1819286Y-275714D01*
X1790714Y-290000D01*
X1919286Y-461429D02*
X1890714Y-475714D01*
X1819286Y-475714D01*
X1790714Y-461429D01*
X1776428Y-432857D01*
X1776428Y-404286D01*
X1790714Y-375714D01*
X1819286Y-361429D01*
X1890714Y-361429D01*
X1919286Y-347143D01*
X2062143Y-275714D02*
X2062143Y-575714D01*
X2062143Y-290000D02*
X2090714Y-275714D01*
X2147857Y-275714D01*
X2176428Y-290000D01*
X2190714Y-304286D01*
X2205000Y-332857D01*
X2205000Y-418571D01*
X2190714Y-447143D01*
X2176428Y-461429D01*
X2147857Y-475714D01*
X2090714Y-475714D01*
X2062143Y-461429D01*
X2333571Y-447143D02*
X2347857Y-461429D01*
X2333571Y-475714D01*
X2319286Y-461429D01*
X2333571Y-447143D01*
X2333571Y-475714D01*
X2333571Y-290000D02*
X2347857Y-304286D01*
X2333571Y-318572D01*
X2319286Y-304286D01*
X2333571Y-290000D01*
X2333571Y-318572D01*
X-40480Y-954760D02*
X-10000Y-985240D01*
X-10000Y-954760D02*
X-40480Y-985240D01*
X333571Y-805714D02*
X362143Y-805714D01*
X390714Y-820000D01*
X405000Y-834286D01*
X419286Y-862857D01*
X433571Y-920000D01*
X433571Y-991429D01*
X419286Y-1048571D01*
X405000Y-1077143D01*
X390714Y-1091429D01*
X362143Y-1105714D01*
X333571Y-1105714D01*
X305000Y-1091429D01*
X290714Y-1077143D01*
X276428Y-1048571D01*
X262143Y-991429D01*
X262143Y-920000D01*
X276428Y-862857D01*
X290714Y-834286D01*
X305000Y-820000D01*
X333571Y-805714D01*
X562143Y-1077143D02*
X576428Y-1091429D01*
X562143Y-1105714D01*
X547857Y-1091429D01*
X562143Y-1077143D01*
X562143Y-1105714D01*
X676428Y-805714D02*
X862143Y-805714D01*
X762143Y-920000D01*
X805000Y-920000D01*
X833571Y-934286D01*
X847857Y-948571D01*
X862143Y-977143D01*
X862143Y-1048571D01*
X847857Y-1077143D01*
X833571Y-1091429D01*
X805000Y-1105714D01*
X719286Y-1105714D01*
X690714Y-1091429D01*
X676428Y-1077143D01*
X1047857Y-805714D02*
X1076428Y-805714D01*
X1105000Y-820000D01*
X1119286Y-834286D01*
X1133571Y-862857D01*
X1147857Y-920000D01*
X1147857Y-991429D01*
X1133571Y-1048571D01*
X1119286Y-1077143D01*
X1105000Y-1091429D01*
X1076428Y-1105714D01*
X1047857Y-1105714D01*
X1019286Y-1091429D01*
X1005000Y-1077143D01*
X990714Y-1048571D01*
X976428Y-991429D01*
X976428Y-920000D01*
X990714Y-862857D01*
X1005000Y-834286D01*
X1019286Y-820000D01*
X1047857Y-805714D01*
X1276428Y-1105714D02*
X1276428Y-905714D01*
X1276428Y-934286D02*
X1290714Y-920000D01*
X1319286Y-905714D01*
X1362143Y-905714D01*
X1390714Y-920000D01*
X1405000Y-948571D01*
X1405000Y-1105714D01*
X1405000Y-948571D02*
X1419286Y-920000D01*
X1447857Y-905714D01*
X1490714Y-905714D01*
X1519286Y-920000D01*
X1533571Y-948571D01*
X1533571Y-1105714D01*
X1676428Y-1105714D02*
X1676428Y-905714D01*
X1676428Y-934286D02*
X1690714Y-920000D01*
X1719286Y-905714D01*
X1762143Y-905714D01*
X1790714Y-920000D01*
X1805000Y-948571D01*
X1805000Y-1105714D01*
X1805000Y-948571D02*
X1819286Y-920000D01*
X1847857Y-905714D01*
X1890714Y-905714D01*
X1919286Y-920000D01*
X1933571Y-948571D01*
X1933571Y-1105714D01*
X2519286Y-791429D02*
X2262143Y-1177143D01*
X2905000Y-805714D02*
X2933571Y-805714D01*
X2962143Y-820000D01*
X2976428Y-834286D01*
X2990714Y-862857D01*
X3005000Y-920000D01*
X3005000Y-991429D01*
X2990714Y-1048571D01*
X2976428Y-1077143D01*
X2962143Y-1091429D01*
X2933571Y-1105714D01*
X2905000Y-1105714D01*
X2876428Y-1091429D01*
X2862143Y-1077143D01*
X2847857Y-1048571D01*
X2833571Y-991429D01*
X2833571Y-920000D01*
X2847857Y-862857D01*
X2862143Y-834286D01*
X2876428Y-820000D01*
X2905000Y-805714D01*
X3133571Y-1077143D02*
X3147857Y-1091429D01*
X3133571Y-1105714D01*
X3119286Y-1091429D01*
X3133571Y-1077143D01*
X3133571Y-1105714D01*
X3333571Y-805714D02*
X3362143Y-805714D01*
X3390714Y-820000D01*
X3405000Y-834286D01*
X3419286Y-862857D01*
X3433571Y-920000D01*
X3433571Y-991429D01*
X3419286Y-1048571D01*
X3405000Y-1077143D01*
X3390714Y-1091429D01*
X3362143Y-1105714D01*
X3333571Y-1105714D01*
X3305000Y-1091429D01*
X3290714Y-1077143D01*
X3276428Y-1048571D01*
X3262143Y-991429D01*
X3262143Y-920000D01*
X3276428Y-862857D01*
X3290714Y-834286D01*
X3305000Y-820000D01*
X3333571Y-805714D01*
X3719286Y-1105714D02*
X3547857Y-1105714D01*
X3633571Y-1105714D02*
X3633571Y-805714D01*
X3605000Y-848571D01*
X3576428Y-877143D01*
X3547857Y-891429D01*
X3833571Y-834286D02*
X3847857Y-820000D01*
X3876428Y-805714D01*
X3947857Y-805714D01*
X3976428Y-820000D01*
X3990714Y-834286D01*
X4005000Y-862857D01*
X4005000Y-891429D01*
X3990714Y-934286D01*
X3819286Y-1105714D01*
X4005000Y-1105714D01*
X4119286Y-805714D02*
X4119286Y-862857D01*
X4233571Y-805714D02*
X4233571Y-862857D01*
X4676428Y-1220000D02*
X4662143Y-1205714D01*
X4633571Y-1162857D01*
X4619286Y-1134286D01*
X4605000Y-1091429D01*
X4590714Y-1020000D01*
X4590714Y-962857D01*
X4605000Y-891429D01*
X4619286Y-848571D01*
X4633571Y-820000D01*
X4662143Y-777143D01*
X4676428Y-762857D01*
X4919286Y-905714D02*
X4919286Y-1105714D01*
X4847857Y-791429D02*
X4776428Y-1005714D01*
X4962143Y-1005714D01*
X5047857Y-805714D02*
X5247857Y-805714D01*
X5119286Y-1105714D01*
X5590714Y-1105714D02*
X5590714Y-805714D01*
X5719286Y-1105714D02*
X5719286Y-948571D01*
X5705000Y-920000D01*
X5676428Y-905714D01*
X5633571Y-905714D01*
X5605000Y-920000D01*
X5590714Y-934286D01*
X5905000Y-1105714D02*
X5876428Y-1091429D01*
X5862143Y-1077143D01*
X5847857Y-1048571D01*
X5847857Y-962857D01*
X5862143Y-934286D01*
X5876428Y-920000D01*
X5905000Y-905714D01*
X5947857Y-905714D01*
X5976428Y-920000D01*
X5990714Y-934286D01*
X6005000Y-962857D01*
X6005000Y-1048571D01*
X5990714Y-1077143D01*
X5976428Y-1091429D01*
X5947857Y-1105714D01*
X5905000Y-1105714D01*
X6176428Y-1105714D02*
X6147857Y-1091429D01*
X6133571Y-1062857D01*
X6133571Y-805714D01*
X6405000Y-1091429D02*
X6376428Y-1105714D01*
X6319286Y-1105714D01*
X6290714Y-1091429D01*
X6276428Y-1062857D01*
X6276428Y-948571D01*
X6290714Y-920000D01*
X6319286Y-905714D01*
X6376428Y-905714D01*
X6405000Y-920000D01*
X6419286Y-948571D01*
X6419286Y-977143D01*
X6276428Y-1005714D01*
X6533571Y-1091429D02*
X6562143Y-1105714D01*
X6619286Y-1105714D01*
X6647857Y-1091429D01*
X6662143Y-1062857D01*
X6662143Y-1048571D01*
X6647857Y-1020000D01*
X6619286Y-1005714D01*
X6576428Y-1005714D01*
X6547857Y-991429D01*
X6533571Y-962857D01*
X6533571Y-948571D01*
X6547857Y-920000D01*
X6576428Y-905714D01*
X6619286Y-905714D01*
X6647857Y-920000D01*
X6762143Y-1220000D02*
X6776428Y-1205714D01*
X6805000Y-1162857D01*
X6819286Y-1134286D01*
X6833571Y-1091429D01*
X6847857Y-1020000D01*
X6847857Y-962857D01*
X6833571Y-891429D01*
X6819286Y-848571D01*
X6805000Y-820000D01*
X6776428Y-777143D01*
X6762143Y-762857D01*
X-10000Y-1366000D02*
G75*
G03X-10000Y-1366000I-27940J0D01*
G01*
X333571Y-1201714D02*
X362143Y-1201714D01*
X390714Y-1216000D01*
X405000Y-1230286D01*
X419286Y-1258857D01*
X433571Y-1316000D01*
X433571Y-1387429D01*
X419286Y-1444571D01*
X405000Y-1473143D01*
X390714Y-1487429D01*
X362143Y-1501714D01*
X333571Y-1501714D01*
X305000Y-1487429D01*
X290714Y-1473143D01*
X276428Y-1444571D01*
X262143Y-1387429D01*
X262143Y-1316000D01*
X276428Y-1258857D01*
X290714Y-1230286D01*
X305000Y-1216000D01*
X333571Y-1201714D01*
X562143Y-1473143D02*
X576428Y-1487429D01*
X562143Y-1501714D01*
X547857Y-1487429D01*
X562143Y-1473143D01*
X562143Y-1501714D01*
X847857Y-1201714D02*
X705000Y-1201714D01*
X690714Y-1344572D01*
X705000Y-1330286D01*
X733571Y-1316000D01*
X805000Y-1316000D01*
X833571Y-1330286D01*
X847857Y-1344572D01*
X862143Y-1373143D01*
X862143Y-1444571D01*
X847857Y-1473143D01*
X833571Y-1487429D01*
X805000Y-1501714D01*
X733571Y-1501714D01*
X705000Y-1487429D01*
X690714Y-1473143D01*
X1119286Y-1201714D02*
X1062143Y-1201714D01*
X1033571Y-1216000D01*
X1019286Y-1230286D01*
X990714Y-1273143D01*
X976428Y-1330286D01*
X976428Y-1444571D01*
X990714Y-1473143D01*
X1005000Y-1487429D01*
X1033571Y-1501714D01*
X1090714Y-1501714D01*
X1119286Y-1487429D01*
X1133571Y-1473143D01*
X1147857Y-1444571D01*
X1147857Y-1373143D01*
X1133571Y-1344572D01*
X1119286Y-1330286D01*
X1090714Y-1316000D01*
X1033571Y-1316000D01*
X1005000Y-1330286D01*
X990714Y-1344572D01*
X976428Y-1373143D01*
X1276428Y-1501714D02*
X1276428Y-1301714D01*
X1276428Y-1330286D02*
X1290714Y-1316000D01*
X1319286Y-1301714D01*
X1362143Y-1301714D01*
X1390714Y-1316000D01*
X1405000Y-1344572D01*
X1405000Y-1501714D01*
X1405000Y-1344572D02*
X1419286Y-1316000D01*
X1447857Y-1301714D01*
X1490714Y-1301714D01*
X1519286Y-1316000D01*
X1533571Y-1344572D01*
X1533571Y-1501714D01*
X1676428Y-1501714D02*
X1676428Y-1301714D01*
X1676428Y-1330286D02*
X1690714Y-1316000D01*
X1719286Y-1301714D01*
X1762143Y-1301714D01*
X1790714Y-1316000D01*
X1805000Y-1344572D01*
X1805000Y-1501714D01*
X1805000Y-1344572D02*
X1819286Y-1316000D01*
X1847857Y-1301714D01*
X1890714Y-1301714D01*
X1919286Y-1316000D01*
X1933571Y-1344572D01*
X1933571Y-1501714D01*
X2519286Y-1187429D02*
X2262143Y-1573143D01*
X2905000Y-1201714D02*
X2933571Y-1201714D01*
X2962143Y-1216000D01*
X2976428Y-1230286D01*
X2990714Y-1258857D01*
X3005000Y-1316000D01*
X3005000Y-1387429D01*
X2990714Y-1444571D01*
X2976428Y-1473143D01*
X2962143Y-1487429D01*
X2933571Y-1501714D01*
X2905000Y-1501714D01*
X2876428Y-1487429D01*
X2862143Y-1473143D01*
X2847857Y-1444571D01*
X2833571Y-1387429D01*
X2833571Y-1316000D01*
X2847857Y-1258857D01*
X2862143Y-1230286D01*
X2876428Y-1216000D01*
X2905000Y-1201714D01*
X3133571Y-1473143D02*
X3147857Y-1487429D01*
X3133571Y-1501714D01*
X3119286Y-1487429D01*
X3133571Y-1473143D01*
X3133571Y-1501714D01*
X3333571Y-1201714D02*
X3362143Y-1201714D01*
X3390714Y-1216000D01*
X3405000Y-1230286D01*
X3419286Y-1258857D01*
X3433571Y-1316000D01*
X3433571Y-1387429D01*
X3419286Y-1444571D01*
X3405000Y-1473143D01*
X3390714Y-1487429D01*
X3362143Y-1501714D01*
X3333571Y-1501714D01*
X3305000Y-1487429D01*
X3290714Y-1473143D01*
X3276428Y-1444571D01*
X3262143Y-1387429D01*
X3262143Y-1316000D01*
X3276428Y-1258857D01*
X3290714Y-1230286D01*
X3305000Y-1216000D01*
X3333571Y-1201714D01*
X3547857Y-1230286D02*
X3562143Y-1216000D01*
X3590714Y-1201714D01*
X3662143Y-1201714D01*
X3690714Y-1216000D01*
X3705000Y-1230286D01*
X3719286Y-1258857D01*
X3719286Y-1287429D01*
X3705000Y-1330286D01*
X3533571Y-1501714D01*
X3719286Y-1501714D01*
X3833571Y-1230286D02*
X3847857Y-1216000D01*
X3876428Y-1201714D01*
X3947857Y-1201714D01*
X3976428Y-1216000D01*
X3990714Y-1230286D01*
X4005000Y-1258857D01*
X4005000Y-1287429D01*
X3990714Y-1330286D01*
X3819286Y-1501714D01*
X4005000Y-1501714D01*
X4119286Y-1201714D02*
X4119286Y-1258857D01*
X4233571Y-1201714D02*
X4233571Y-1258857D01*
X4676428Y-1616000D02*
X4662143Y-1601714D01*
X4633571Y-1558857D01*
X4619286Y-1530286D01*
X4605000Y-1487429D01*
X4590714Y-1416000D01*
X4590714Y-1358857D01*
X4605000Y-1287429D01*
X4619286Y-1244572D01*
X4633571Y-1216000D01*
X4662143Y-1173143D01*
X4676428Y-1158857D01*
X4947857Y-1501714D02*
X4776428Y-1501714D01*
X4862143Y-1501714D02*
X4862143Y-1201714D01*
X4833571Y-1244572D01*
X4805000Y-1273143D01*
X4776428Y-1287429D01*
X5205000Y-1301714D02*
X5205000Y-1501714D01*
X5133571Y-1187429D02*
X5062143Y-1401714D01*
X5247857Y-1401714D01*
X5590714Y-1501714D02*
X5590714Y-1201714D01*
X5719286Y-1501714D02*
X5719286Y-1344572D01*
X5705000Y-1316000D01*
X5676428Y-1301714D01*
X5633571Y-1301714D01*
X5605000Y-1316000D01*
X5590714Y-1330286D01*
X5905000Y-1501714D02*
X5876428Y-1487429D01*
X5862143Y-1473143D01*
X5847857Y-1444571D01*
X5847857Y-1358857D01*
X5862143Y-1330286D01*
X5876428Y-1316000D01*
X5905000Y-1301714D01*
X5947857Y-1301714D01*
X5976428Y-1316000D01*
X5990714Y-1330286D01*
X6005000Y-1358857D01*
X6005000Y-1444571D01*
X5990714Y-1473143D01*
X5976428Y-1487429D01*
X5947857Y-1501714D01*
X5905000Y-1501714D01*
X6176428Y-1501714D02*
X6147857Y-1487429D01*
X6133571Y-1458857D01*
X6133571Y-1201714D01*
X6405000Y-1487429D02*
X6376428Y-1501714D01*
X6319286Y-1501714D01*
X6290714Y-1487429D01*
X6276428Y-1458857D01*
X6276428Y-1344572D01*
X6290714Y-1316000D01*
X6319286Y-1301714D01*
X6376428Y-1301714D01*
X6405000Y-1316000D01*
X6419286Y-1344572D01*
X6419286Y-1373143D01*
X6276428Y-1401714D01*
X6533571Y-1487429D02*
X6562143Y-1501714D01*
X6619286Y-1501714D01*
X6647857Y-1487429D01*
X6662143Y-1458857D01*
X6662143Y-1444571D01*
X6647857Y-1416000D01*
X6619286Y-1401714D01*
X6576428Y-1401714D01*
X6547857Y-1387429D01*
X6533571Y-1358857D01*
X6533571Y-1344572D01*
X6547857Y-1316000D01*
X6576428Y-1301714D01*
X6619286Y-1301714D01*
X6647857Y-1316000D01*
X6762143Y-1616000D02*
X6776428Y-1601714D01*
X6805000Y-1558857D01*
X6819286Y-1530286D01*
X6833571Y-1487429D01*
X6847857Y-1416000D01*
X6847857Y-1358857D01*
X6833571Y-1287429D01*
X6819286Y-1244572D01*
X6805000Y-1216000D01*
X6776428Y-1173143D01*
X6762143Y-1158857D01*
X-54450Y-1717550D02*
X-54450Y-1806450D01*
X-98900Y-1762000D02*
X-10000Y-1762000D01*
X333571Y-1597714D02*
X362143Y-1597714D01*
X390714Y-1612000D01*
X405000Y-1626286D01*
X419286Y-1654857D01*
X433571Y-1712000D01*
X433571Y-1783429D01*
X419286Y-1840571D01*
X405000Y-1869143D01*
X390714Y-1883429D01*
X362143Y-1897714D01*
X333571Y-1897714D01*
X305000Y-1883429D01*
X290714Y-1869143D01*
X276428Y-1840571D01*
X262143Y-1783429D01*
X262143Y-1712000D01*
X276428Y-1654857D01*
X290714Y-1626286D01*
X305000Y-1612000D01*
X333571Y-1597714D01*
X562143Y-1869143D02*
X576428Y-1883429D01*
X562143Y-1897714D01*
X547857Y-1883429D01*
X562143Y-1869143D01*
X562143Y-1897714D01*
X747857Y-1726286D02*
X719286Y-1712000D01*
X705000Y-1697714D01*
X690714Y-1669143D01*
X690714Y-1654857D01*
X705000Y-1626286D01*
X719286Y-1612000D01*
X747857Y-1597714D01*
X805000Y-1597714D01*
X833571Y-1612000D01*
X847857Y-1626286D01*
X862143Y-1654857D01*
X862143Y-1669143D01*
X847857Y-1697714D01*
X833571Y-1712000D01*
X805000Y-1726286D01*
X747857Y-1726286D01*
X719286Y-1740571D01*
X705000Y-1754857D01*
X690714Y-1783429D01*
X690714Y-1840571D01*
X705000Y-1869143D01*
X719286Y-1883429D01*
X747857Y-1897714D01*
X805000Y-1897714D01*
X833571Y-1883429D01*
X847857Y-1869143D01*
X862143Y-1840571D01*
X862143Y-1783429D01*
X847857Y-1754857D01*
X833571Y-1740571D01*
X805000Y-1726286D01*
X1005000Y-1897714D02*
X1062143Y-1897714D01*
X1090714Y-1883429D01*
X1105000Y-1869143D01*
X1133571Y-1826286D01*
X1147857Y-1769143D01*
X1147857Y-1654857D01*
X1133571Y-1626286D01*
X1119286Y-1612000D01*
X1090714Y-1597714D01*
X1033571Y-1597714D01*
X1005000Y-1612000D01*
X990714Y-1626286D01*
X976428Y-1654857D01*
X976428Y-1726286D01*
X990714Y-1754857D01*
X1005000Y-1769143D01*
X1033571Y-1783429D01*
X1090714Y-1783429D01*
X1119286Y-1769143D01*
X1133571Y-1754857D01*
X1147857Y-1726286D01*
X1276428Y-1897714D02*
X1276428Y-1697714D01*
X1276428Y-1726286D02*
X1290714Y-1712000D01*
X1319286Y-1697714D01*
X1362143Y-1697714D01*
X1390714Y-1712000D01*
X1405000Y-1740571D01*
X1405000Y-1897714D01*
X1405000Y-1740571D02*
X1419286Y-1712000D01*
X1447857Y-1697714D01*
X1490714Y-1697714D01*
X1519286Y-1712000D01*
X1533571Y-1740571D01*
X1533571Y-1897714D01*
X1676428Y-1897714D02*
X1676428Y-1697714D01*
X1676428Y-1726286D02*
X1690714Y-1712000D01*
X1719286Y-1697714D01*
X1762143Y-1697714D01*
X1790714Y-1712000D01*
X1805000Y-1740571D01*
X1805000Y-1897714D01*
X1805000Y-1740571D02*
X1819286Y-1712000D01*
X1847857Y-1697714D01*
X1890714Y-1697714D01*
X1919286Y-1712000D01*
X1933571Y-1740571D01*
X1933571Y-1897714D01*
X2519286Y-1583429D02*
X2262143Y-1969143D01*
X2905000Y-1597714D02*
X2933571Y-1597714D01*
X2962143Y-1612000D01*
X2976428Y-1626286D01*
X2990714Y-1654857D01*
X3005000Y-1712000D01*
X3005000Y-1783429D01*
X2990714Y-1840571D01*
X2976428Y-1869143D01*
X2962143Y-1883429D01*
X2933571Y-1897714D01*
X2905000Y-1897714D01*
X2876428Y-1883429D01*
X2862143Y-1869143D01*
X2847857Y-1840571D01*
X2833571Y-1783429D01*
X2833571Y-1712000D01*
X2847857Y-1654857D01*
X2862143Y-1626286D01*
X2876428Y-1612000D01*
X2905000Y-1597714D01*
X3133571Y-1869143D02*
X3147857Y-1883429D01*
X3133571Y-1897714D01*
X3119286Y-1883429D01*
X3133571Y-1869143D01*
X3133571Y-1897714D01*
X3333571Y-1597714D02*
X3362143Y-1597714D01*
X3390714Y-1612000D01*
X3405000Y-1626286D01*
X3419286Y-1654857D01*
X3433571Y-1712000D01*
X3433571Y-1783429D01*
X3419286Y-1840571D01*
X3405000Y-1869143D01*
X3390714Y-1883429D01*
X3362143Y-1897714D01*
X3333571Y-1897714D01*
X3305000Y-1883429D01*
X3290714Y-1869143D01*
X3276428Y-1840571D01*
X3262143Y-1783429D01*
X3262143Y-1712000D01*
X3276428Y-1654857D01*
X3290714Y-1626286D01*
X3305000Y-1612000D01*
X3333571Y-1597714D01*
X3533571Y-1597714D02*
X3719286Y-1597714D01*
X3619286Y-1712000D01*
X3662143Y-1712000D01*
X3690714Y-1726286D01*
X3705000Y-1740571D01*
X3719286Y-1769143D01*
X3719286Y-1840571D01*
X3705000Y-1869143D01*
X3690714Y-1883429D01*
X3662143Y-1897714D01*
X3576428Y-1897714D01*
X3547857Y-1883429D01*
X3533571Y-1869143D01*
X3990714Y-1597714D02*
X3847857Y-1597714D01*
X3833571Y-1740571D01*
X3847857Y-1726286D01*
X3876428Y-1712000D01*
X3947857Y-1712000D01*
X3976428Y-1726286D01*
X3990714Y-1740571D01*
X4005000Y-1769143D01*
X4005000Y-1840571D01*
X3990714Y-1869143D01*
X3976428Y-1883429D01*
X3947857Y-1897714D01*
X3876428Y-1897714D01*
X3847857Y-1883429D01*
X3833571Y-1869143D01*
X4119286Y-1597714D02*
X4119286Y-1654857D01*
X4233571Y-1597714D02*
X4233571Y-1654857D01*
X4676428Y-2012000D02*
X4662143Y-1997714D01*
X4633571Y-1954857D01*
X4619286Y-1926286D01*
X4605000Y-1883429D01*
X4590714Y-1812000D01*
X4590714Y-1754857D01*
X4605000Y-1683429D01*
X4619286Y-1640571D01*
X4633571Y-1612000D01*
X4662143Y-1569143D01*
X4676428Y-1554857D01*
X4919286Y-1697714D02*
X4919286Y-1897714D01*
X4847857Y-1583429D02*
X4776428Y-1797714D01*
X4962143Y-1797714D01*
X5062143Y-1626286D02*
X5076428Y-1612000D01*
X5105000Y-1597714D01*
X5176428Y-1597714D01*
X5205000Y-1612000D01*
X5219286Y-1626286D01*
X5233571Y-1654857D01*
X5233571Y-1683429D01*
X5219286Y-1726286D01*
X5047857Y-1897714D01*
X5233571Y-1897714D01*
X5590714Y-1897714D02*
X5590714Y-1597714D01*
X5719286Y-1897714D02*
X5719286Y-1740571D01*
X5705000Y-1712000D01*
X5676428Y-1697714D01*
X5633571Y-1697714D01*
X5605000Y-1712000D01*
X5590714Y-1726286D01*
X5905000Y-1897714D02*
X5876428Y-1883429D01*
X5862143Y-1869143D01*
X5847857Y-1840571D01*
X5847857Y-1754857D01*
X5862143Y-1726286D01*
X5876428Y-1712000D01*
X5905000Y-1697714D01*
X5947857Y-1697714D01*
X5976428Y-1712000D01*
X5990714Y-1726286D01*
X6005000Y-1754857D01*
X6005000Y-1840571D01*
X5990714Y-1869143D01*
X5976428Y-1883429D01*
X5947857Y-1897714D01*
X5905000Y-1897714D01*
X6176428Y-1897714D02*
X6147857Y-1883429D01*
X6133571Y-1854857D01*
X6133571Y-1597714D01*
X6405000Y-1883429D02*
X6376428Y-1897714D01*
X6319286Y-1897714D01*
X6290714Y-1883429D01*
X6276428Y-1854857D01*
X6276428Y-1740571D01*
X6290714Y-1712000D01*
X6319286Y-1697714D01*
X6376428Y-1697714D01*
X6405000Y-1712000D01*
X6419286Y-1740571D01*
X6419286Y-1769143D01*
X6276428Y-1797714D01*
X6533571Y-1883429D02*
X6562143Y-1897714D01*
X6619286Y-1897714D01*
X6647857Y-1883429D01*
X6662143Y-1854857D01*
X6662143Y-1840571D01*
X6647857Y-1812000D01*
X6619286Y-1797714D01*
X6576428Y-1797714D01*
X6547857Y-1783429D01*
X6533571Y-1754857D01*
X6533571Y-1740571D01*
X6547857Y-1712000D01*
X6576428Y-1697714D01*
X6619286Y-1697714D01*
X6647857Y-1712000D01*
X6762143Y-2012000D02*
X6776428Y-1997714D01*
X6805000Y-1954857D01*
X6819286Y-1926286D01*
X6833571Y-1883429D01*
X6847857Y-1812000D01*
X6847857Y-1754857D01*
X6833571Y-1683429D01*
X6819286Y-1640571D01*
X6805000Y-1612000D01*
X6776428Y-1569143D01*
X6762143Y-1554857D01*
M02*
