G04 #@! TF.GenerationSoftware,KiCad,Pcbnew,(5.0.0)*
G04 #@! TF.CreationDate,2019-11-01T16:10:57-07:00*
G04 #@! TF.ProjectId,Buffer - Rev D,427566666572202D2052657620442E6B,rev?*
G04 #@! TF.SameCoordinates,Original*
G04 #@! TF.FileFunction,Soldermask,Top*
G04 #@! TF.FilePolarity,Negative*
%FSLAX46Y46*%
G04 Gerber Fmt 4.6, Leading zero omitted, Abs format (unit mm)*
G04 Created by KiCad (PCBNEW (5.0.0)) date 11/01/19 16:10:57*
%MOMM*%
%LPD*%
G01*
G04 APERTURE LIST*
%ADD10R,1.750000X0.300000*%
%ADD11C,1.270000*%
%ADD12R,1.000000X0.889000*%
%ADD13R,0.711000X0.508000*%
%ADD14R,1.500000X1.016000*%
%ADD15R,1.193800X1.193800*%
%ADD16R,0.889000X1.000000*%
%ADD17R,0.508000X0.711000*%
%ADD18C,0.350000*%
%ADD19R,1.300000X1.400000*%
%ADD20C,0.254000*%
G04 APERTURE END LIST*
D10*
G04 #@! TO.C,U2*
X9854000Y10450000D03*
X4604000Y10450000D03*
X4604000Y9800000D03*
X4604000Y9150000D03*
X4604000Y8500000D03*
X4604000Y7850000D03*
X4604000Y7200000D03*
X4604000Y6550000D03*
X9854000Y9800000D03*
X9854000Y9150000D03*
X9854000Y7850000D03*
X9854000Y7200000D03*
X9854000Y6550000D03*
G04 #@! TD*
D11*
G04 #@! TO.C,TP2*
X21096200Y12300000D03*
G04 #@! TD*
G04 #@! TO.C,TP2*
X19750000Y12300000D03*
G04 #@! TD*
D12*
G04 #@! TO.C,C8*
X30693185Y14253941D03*
X30693185Y12553941D03*
G04 #@! TD*
G04 #@! TO.C,C4*
X8509000Y11977000D03*
X8509000Y13677000D03*
G04 #@! TD*
G04 #@! TO.C,C2*
X31963185Y14253941D03*
X31963185Y12553941D03*
G04 #@! TD*
G04 #@! TO.C,C11*
X7112000Y11977000D03*
X7112000Y13677000D03*
G04 #@! TD*
D13*
G04 #@! TO.C,R11*
X1300000Y8367000D03*
X1300000Y7233000D03*
G04 #@! TD*
G04 #@! TO.C,R4*
X39370000Y5021000D03*
X39370000Y6155000D03*
G04 #@! TD*
D14*
G04 #@! TO.C,0.47uF1*
X20307300Y8995700D03*
X20307300Y6777700D03*
G04 #@! TD*
D15*
G04 #@! TO.C,D8*
X13338000Y1460500D03*
X10541000Y1460500D03*
G04 #@! TD*
G04 #@! TO.C,D7*
X28953000Y2032000D03*
X31750000Y2032000D03*
G04 #@! TD*
D10*
G04 #@! TO.C,U1*
X30850300Y6468200D03*
X36100300Y6468200D03*
X36100300Y7118200D03*
X36100300Y7768200D03*
X36100300Y8418200D03*
X36100300Y9068200D03*
X36100300Y9718200D03*
X36100300Y10368200D03*
X30850300Y7118200D03*
X30850300Y7768200D03*
X30850300Y9068200D03*
X30850300Y9718200D03*
X30850300Y10368200D03*
G04 #@! TD*
D11*
G04 #@! TO.C,TP1*
X9906000Y15494000D03*
G04 #@! TD*
G04 #@! TO.C,TP2*
X18415000Y12334900D03*
G04 #@! TD*
G04 #@! TO.C,TP2*
X18415000Y13604900D03*
G04 #@! TD*
G04 #@! TO.C,TP2*
X22415500Y12334900D03*
G04 #@! TD*
G04 #@! TO.C,TP2*
X21082000Y13604900D03*
G04 #@! TD*
G04 #@! TO.C,TP2*
X22415500Y13604900D03*
G04 #@! TD*
G04 #@! TO.C,TP2*
X19748500Y13604900D03*
G04 #@! TD*
G04 #@! TO.C,TP2*
X21082000Y1397000D03*
G04 #@! TD*
G04 #@! TO.C,TP2*
X22415500Y1397000D03*
G04 #@! TD*
G04 #@! TO.C,TP2*
X8064500Y1397000D03*
G04 #@! TD*
G04 #@! TO.C,TP2*
X37528500Y1320800D03*
G04 #@! TD*
G04 #@! TO.C,TP2*
X36195000Y1397000D03*
G04 #@! TD*
G04 #@! TO.C,TP2*
X33528000Y2667000D03*
G04 #@! TD*
G04 #@! TO.C,TP2*
X33528000Y1397000D03*
G04 #@! TD*
G04 #@! TO.C,TP2*
X36195000Y2667000D03*
G04 #@! TD*
G04 #@! TO.C,TP2*
X34861500Y2667000D03*
G04 #@! TD*
G04 #@! TO.C,TP2*
X34861500Y1397000D03*
G04 #@! TD*
G04 #@! TO.C,TP2*
X37528500Y2667000D03*
G04 #@! TD*
G04 #@! TO.C,TP11*
X40894000Y7366000D03*
G04 #@! TD*
G04 #@! TO.C,TP2*
X19748500Y1397000D03*
G04 #@! TD*
G04 #@! TO.C,TP2*
X18415000Y1397000D03*
G04 #@! TD*
G04 #@! TO.C,TP2*
X22415500Y2667000D03*
G04 #@! TD*
G04 #@! TO.C,TP2*
X21082000Y2667000D03*
G04 #@! TD*
G04 #@! TO.C,TP2*
X19748500Y2667000D03*
G04 #@! TD*
G04 #@! TO.C,TP2*
X18415000Y2667000D03*
G04 #@! TD*
G04 #@! TO.C,TP2*
X6731000Y2667000D03*
G04 #@! TD*
G04 #@! TO.C,TP2*
X5397500Y2667000D03*
G04 #@! TD*
G04 #@! TO.C,TP2*
X8064500Y2667000D03*
G04 #@! TD*
G04 #@! TO.C,TP2*
X6731000Y1397000D03*
G04 #@! TD*
G04 #@! TO.C,TP2*
X5397500Y1397000D03*
G04 #@! TD*
G04 #@! TO.C,TP2*
X4064000Y2667000D03*
G04 #@! TD*
G04 #@! TO.C,TP2*
X4064000Y1397000D03*
G04 #@! TD*
G04 #@! TO.C,TP15*
X6350000Y15494000D03*
G04 #@! TD*
G04 #@! TO.C,TP17*
X0Y14097000D03*
G04 #@! TD*
G04 #@! TO.C,TP5*
X40894000Y3175000D03*
G04 #@! TD*
G04 #@! TO.C,TP9*
X40894000Y5207000D03*
G04 #@! TD*
G04 #@! TO.C,TP6*
X0Y7731000D03*
G04 #@! TD*
G04 #@! TO.C,TP4*
X40894000Y1143000D03*
G04 #@! TD*
G04 #@! TO.C,TP3*
X0Y12065000D03*
G04 #@! TD*
G04 #@! TO.C,TP2*
X0Y10033000D03*
G04 #@! TD*
D13*
G04 #@! TO.C,C1*
X1600000Y12933000D03*
X1600000Y14067000D03*
G04 #@! TD*
G04 #@! TO.C,C3*
X2600000Y10473000D03*
X2600000Y9339000D03*
G04 #@! TD*
D16*
G04 #@! TO.C,C5*
X12459561Y4259246D03*
X10759561Y4259246D03*
G04 #@! TD*
G04 #@! TO.C,C6*
X12445693Y2921000D03*
X10745693Y2921000D03*
G04 #@! TD*
G04 #@! TO.C,C7*
X29934800Y4978400D03*
X31634800Y4978400D03*
G04 #@! TD*
G04 #@! TO.C,C9*
X29934800Y3632200D03*
X31634800Y3632200D03*
G04 #@! TD*
D13*
G04 #@! TO.C,C10*
X38227000Y8441000D03*
X38227000Y7307000D03*
G04 #@! TD*
D17*
G04 #@! TO.C,C12*
X38921000Y10541000D03*
X37787000Y10541000D03*
G04 #@! TD*
G04 #@! TO.C,D2*
X12967000Y10400000D03*
X11833000Y10400000D03*
G04 #@! TD*
G04 #@! TO.C,D3*
X12967000Y5527000D03*
X11833000Y5527000D03*
G04 #@! TD*
G04 #@! TO.C,D4*
X27533000Y4900000D03*
X28667000Y4900000D03*
G04 #@! TD*
G04 #@! TO.C,D5*
X27833000Y9900000D03*
X28967000Y9900000D03*
G04 #@! TD*
D18*
G04 #@! TO.C,Q1*
X18561193Y4700042D03*
X17561193Y4700042D03*
X16561193Y4700042D03*
X15561193Y4700042D03*
X14561193Y4700042D03*
X18561193Y5200042D03*
X17561193Y5200042D03*
X16561193Y5200042D03*
X15561193Y5200042D03*
X14561193Y5200042D03*
X18561193Y5700042D03*
X17561193Y5700042D03*
X16561193Y5700042D03*
X15561193Y5700042D03*
X18561193Y6200042D03*
X17561193Y6200042D03*
X16561193Y6200042D03*
X15561193Y6200042D03*
X14561193Y6200042D03*
X18561193Y6700042D03*
X17561193Y6700042D03*
X16561193Y6700042D03*
X15561193Y6700042D03*
X14561193Y6700042D03*
G04 #@! TD*
G04 #@! TO.C,Q2*
X18548493Y8822342D03*
X17548493Y8822342D03*
X16548493Y8822342D03*
X15548493Y8822342D03*
X14548493Y8822342D03*
X18548493Y9322342D03*
X17548493Y9322342D03*
X16548493Y9322342D03*
X15548493Y9322342D03*
X14548493Y9322342D03*
X18548493Y9822342D03*
X17548493Y9822342D03*
X16548493Y9822342D03*
X15548493Y9822342D03*
X18548493Y10322342D03*
X17548493Y10322342D03*
X16548493Y10322342D03*
X15548493Y10322342D03*
X14548493Y10322342D03*
X18548493Y10822342D03*
X17548493Y10822342D03*
X16548493Y10822342D03*
X15548493Y10822342D03*
X14548493Y10822342D03*
G04 #@! TD*
G04 #@! TO.C,Q3*
X22079200Y6763542D03*
X23079200Y6763542D03*
X24079200Y6763542D03*
X25079200Y6763542D03*
X26079200Y6763542D03*
X22079200Y6263542D03*
X23079200Y6263542D03*
X24079200Y6263542D03*
X25079200Y6263542D03*
X26079200Y6263542D03*
X22079200Y5763542D03*
X23079200Y5763542D03*
X24079200Y5763542D03*
X25079200Y5763542D03*
X22079200Y5263542D03*
X23079200Y5263542D03*
X24079200Y5263542D03*
X25079200Y5263542D03*
X26079200Y5263542D03*
X22079200Y4763542D03*
X23079200Y4763542D03*
X24079200Y4763542D03*
X25079200Y4763542D03*
X26079200Y4763542D03*
G04 #@! TD*
G04 #@! TO.C,Q4*
X22067793Y10885842D03*
X23067793Y10885842D03*
X24067793Y10885842D03*
X25067793Y10885842D03*
X26067793Y10885842D03*
X22067793Y10385842D03*
X23067793Y10385842D03*
X24067793Y10385842D03*
X25067793Y10385842D03*
X26067793Y10385842D03*
X22067793Y9885842D03*
X23067793Y9885842D03*
X24067793Y9885842D03*
X25067793Y9885842D03*
X22067793Y9385842D03*
X23067793Y9385842D03*
X24067793Y9385842D03*
X25067793Y9385842D03*
X26067793Y9385842D03*
X22067793Y8885842D03*
X23067793Y8885842D03*
X24067793Y8885842D03*
X25067793Y8885842D03*
X26067793Y8885842D03*
G04 #@! TD*
D17*
G04 #@! TO.C,R1*
X38921000Y9398000D03*
X37787000Y9398000D03*
G04 #@! TD*
D13*
G04 #@! TO.C,R2*
X1300000Y9339000D03*
X1300000Y10473000D03*
G04 #@! TD*
G04 #@! TO.C,R3*
X2600000Y8367000D03*
X2600000Y7233000D03*
G04 #@! TD*
G04 #@! TO.C,R5*
X5842000Y13013000D03*
X5842000Y11879000D03*
G04 #@! TD*
D17*
G04 #@! TO.C,R6*
X11833000Y11800000D03*
X12967000Y11800000D03*
G04 #@! TD*
G04 #@! TO.C,R7*
X11833000Y6927000D03*
X12967000Y6927000D03*
G04 #@! TD*
G04 #@! TO.C,R8*
X27533000Y6300000D03*
X28667000Y6300000D03*
G04 #@! TD*
G04 #@! TO.C,R9*
X27833000Y11200000D03*
X28967000Y11200000D03*
G04 #@! TD*
D13*
G04 #@! TO.C,R10*
X33528000Y14029000D03*
X33528000Y12895000D03*
G04 #@! TD*
G04 #@! TO.C,R13*
X39497000Y7307000D03*
X39497000Y8441000D03*
G04 #@! TD*
D19*
G04 #@! TO.C,D1*
X8943000Y4508500D03*
X6043000Y4508500D03*
G04 #@! TD*
G04 #@! TO.C,D6*
X33221000Y4445000D03*
X36121000Y4445000D03*
G04 #@! TD*
D20*
G36*
X11918803Y11969603D02*
X11963400Y11861937D01*
X11963400Y10337663D01*
X11918803Y10229997D01*
X11836400Y10195864D01*
X11753997Y10229997D01*
X11709400Y10337663D01*
X11709400Y11861937D01*
X11753997Y11969603D01*
X11836400Y12003736D01*
X11918803Y11969603D01*
X11918803Y11969603D01*
G37*
X11918803Y11969603D02*
X11963400Y11861937D01*
X11963400Y10337663D01*
X11918803Y10229997D01*
X11836400Y10195864D01*
X11753997Y10229997D01*
X11709400Y10337663D01*
X11709400Y11861937D01*
X11753997Y11969603D01*
X11836400Y12003736D01*
X11918803Y11969603D01*
G36*
X13051643Y11941271D02*
X13096240Y11833605D01*
X13096240Y10309331D01*
X13051643Y10201665D01*
X12969240Y10167532D01*
X12886837Y10201665D01*
X12842240Y10309331D01*
X12842240Y11833605D01*
X12886837Y11941271D01*
X12969240Y11975404D01*
X13051643Y11941271D01*
X13051643Y11941271D01*
G37*
X13051643Y11941271D02*
X13096240Y11833605D01*
X13096240Y10309331D01*
X13051643Y10201665D01*
X12969240Y10167532D01*
X12886837Y10201665D01*
X12842240Y10309331D01*
X12842240Y11833605D01*
X12886837Y11941271D01*
X12969240Y11975404D01*
X13051643Y11941271D01*
G36*
X11914839Y7101539D02*
X11958320Y6996567D01*
X11958320Y5457139D01*
X11914212Y5351029D01*
X11833150Y5317810D01*
X11751560Y5352025D01*
X11707535Y5459243D01*
X11711271Y6996301D01*
X11755063Y7101483D01*
X11835088Y7134573D01*
X11914839Y7101539D01*
X11914839Y7101539D01*
G37*
X11914839Y7101539D02*
X11958320Y6996567D01*
X11958320Y5457139D01*
X11914212Y5351029D01*
X11833150Y5317810D01*
X11751560Y5352025D01*
X11707535Y5459243D01*
X11711271Y6996301D01*
X11755063Y7101483D01*
X11835088Y7134573D01*
X11914839Y7101539D01*
G36*
X13050219Y7109159D02*
X13093700Y7004187D01*
X13093700Y5464759D01*
X13049592Y5358649D01*
X12968530Y5325430D01*
X12886940Y5359645D01*
X12842915Y5466863D01*
X12846651Y7003921D01*
X12890443Y7109103D01*
X12970468Y7142193D01*
X13050219Y7109159D01*
X13050219Y7109159D01*
G37*
X13050219Y7109159D02*
X13093700Y7004187D01*
X13093700Y5464759D01*
X13049592Y5358649D01*
X12968530Y5325430D01*
X12886940Y5359645D01*
X12842915Y5466863D01*
X12846651Y7003921D01*
X12890443Y7109103D01*
X12970468Y7142193D01*
X13050219Y7109159D01*
G36*
X27913742Y11383207D02*
X27958132Y11276328D01*
X27959967Y9824442D01*
X27915536Y9716887D01*
X27833299Y9682793D01*
X27750917Y9716917D01*
X27706320Y9824583D01*
X27706320Y11276467D01*
X27750545Y11383235D01*
X27832073Y11417005D01*
X27913742Y11383207D01*
X27913742Y11383207D01*
G37*
X27913742Y11383207D02*
X27958132Y11276328D01*
X27959967Y9824442D01*
X27915536Y9716887D01*
X27833299Y9682793D01*
X27750917Y9716917D01*
X27706320Y9824583D01*
X27706320Y11276467D01*
X27750545Y11383235D01*
X27832073Y11417005D01*
X27913742Y11383207D01*
G36*
X29051662Y11395907D02*
X29096052Y11289028D01*
X29097887Y9837142D01*
X29053456Y9729587D01*
X28971219Y9695493D01*
X28888837Y9729617D01*
X28844240Y9837283D01*
X28844240Y11289167D01*
X28888465Y11395935D01*
X28969993Y11429705D01*
X29051662Y11395907D01*
X29051662Y11395907D01*
G37*
X29051662Y11395907D02*
X29096052Y11289028D01*
X29097887Y9837142D01*
X29053456Y9729587D01*
X28971219Y9695493D01*
X28888837Y9729617D01*
X28844240Y9837283D01*
X28844240Y11289167D01*
X28888465Y11395935D01*
X28969993Y11429705D01*
X29051662Y11395907D01*
G36*
X27615761Y6401383D02*
X27660959Y6294790D01*
X27662781Y4853289D01*
X27616202Y4738144D01*
X27528008Y4699279D01*
X27444388Y4731774D01*
X27398980Y4839159D01*
X27398980Y6280661D01*
X27445364Y6395026D01*
X27532858Y6433560D01*
X27615761Y6401383D01*
X27615761Y6401383D01*
G37*
X27615761Y6401383D02*
X27660959Y6294790D01*
X27662781Y4853289D01*
X27616202Y4738144D01*
X27528008Y4699279D01*
X27444388Y4731774D01*
X27398980Y4839159D01*
X27398980Y6280661D01*
X27445364Y6395026D01*
X27532858Y6433560D01*
X27615761Y6401383D01*
G36*
X28751942Y6399101D02*
X28796332Y6292222D01*
X28798167Y4840336D01*
X28753736Y4732781D01*
X28671499Y4698687D01*
X28589117Y4732811D01*
X28544520Y4840477D01*
X28544520Y6292361D01*
X28588745Y6399129D01*
X28670273Y6432899D01*
X28751942Y6399101D01*
X28751942Y6399101D01*
G37*
X28751942Y6399101D02*
X28796332Y6292222D01*
X28798167Y4840336D01*
X28753736Y4732781D01*
X28671499Y4698687D01*
X28589117Y4732811D01*
X28544520Y4840477D01*
X28544520Y6292361D01*
X28588745Y6399129D01*
X28670273Y6432899D01*
X28751942Y6399101D01*
M02*
