M48
; DRILL file {KiCad (5.1.9)-1} date 02/22/21 11:59:31
; FORMAT={-:-/ absolute / inch / decimal}
; #@! TF.CreationDate,2021-02-22T11:59:31-08:00
; #@! TF.GenerationSoftware,Kicad,Pcbnew,(5.1.9)-1
FMAT,2
INCH
T1C0.0120
T2C0.0220
T3C0.0320
T4C0.0331
T5C0.0469
T6C0.0750
T7C0.2402
T8C0.0441
T9C0.0500
T10C0.1260
%
G90
G05
T1
X0.4092Y2.1084
X0.4843Y2.185
X0.5394Y3.1063
X1.3307Y0.7205
X1.3583Y0.7205
X1.3858Y0.7205
X1.4134Y0.7205
X1.4409Y0.7205
X1.4843Y0.6969
X1.6004Y0.8051
X1.6732Y1.2598
X1.6732Y1.2323
X1.6732Y1.2047
X1.6732Y1.1772
X1.7559Y0.8504
X3.3071Y2.0772
X3.3465Y2.3622
X3.4291Y2.4154
X3.4776Y2.4146
X3.5039Y2.4134
X3.5669Y2.0157
X3.5806Y2.4154
X4.2161Y2.0021
X4.271Y2.0576
T2
X0.1476Y1.6142
X0.1535Y1.1417
X0.2205Y2.3858
X0.2244Y2.1024
X0.2559Y0.878
X0.3307Y2.3583
X0.3386Y2.4646
X0.3583Y2.878
X0.3622Y0.6673
X0.3937Y1.685
X0.3957Y1.0846
X0.3957Y1.0394
X0.4252Y0.9685
X0.4705Y0.6673
X0.5315Y2.6654
X0.5315Y0.9547
X0.5433Y2.8701
X0.6496Y3.3307
X0.6772Y2.3819
X0.8268Y3.3091
X0.9906Y2.6343
X1.1102Y2.5669
X1.1772Y1.0787
X1.1772Y1.0394
X1.265Y3.0079
X1.3295Y2.5539
X1.3583Y3.2421
X1.3661Y2.9961
X1.4291Y0.4685
X1.4331Y3.3189
X1.4488Y1.0197
X1.4488Y0.9843
X1.4567Y2.6791
X1.4921Y3.3189
X1.5138Y3.1673
X1.5189Y2.5799
X1.5453Y2.3661
X1.5512Y0.6811
X1.5551Y2.9961
X1.6142Y1.4213
X1.6142Y1.3858
X1.6142Y1.3504
X1.7059Y3.1268
X1.7126Y2.2559
X1.7185Y3.2736
X1.7283Y0.7205
X1.7441Y2.5866
X1.748Y0.689
X1.7618Y2.6575
X1.7677Y0.7205
X1.7933Y3.2461
X1.8319Y2.9972
X1.8406Y2.8642
X1.8937Y3.0039
X1.9488Y2.5787
X1.9606Y3.0039
X1.9724Y2.3898
X1.9882Y2.874
X2.0039Y2.5787
X2.0831Y2.7528
X2.1213Y2.752
X2.1575Y2.752
X2.1673Y3.2717
X2.1937Y2.7524
X2.2283Y2.752
X2.302Y3.0067
X2.4488Y2.3661
X2.5551Y3.1614
X2.5571Y2.8484
X2.6086Y2.3953
X2.7559Y2.8465
X2.7756Y3.1614
X2.9972Y3.1602
X3.0Y3.0
X3.0236Y2.1811
X3.1031Y0.5725
X3.5394Y2.5394
X3.6846Y2.5626
X3.8937Y2.315
X3.9331Y2.315
X3.9724Y2.315
X4.1535Y2.8622
X4.2715Y2.2559
X4.3189Y1.6126
X4.4102Y2.2618
X4.4524Y2.5358
X4.5197Y3.1614
X4.5394Y2.9961
X4.5906Y2.5315
X4.626Y2.5315
X4.6496Y2.0591
X4.6583Y2.2291
X4.6614Y2.5315
X4.7165Y2.2953
X4.8366Y1.9697
X4.8543Y2.8661
X4.8583Y3.1614
X4.9016Y2.6693
X5.0394Y1.378
X5.0657Y2.4945
X5.0709Y1.8504
X5.0827Y1.063
X5.1444Y2.2611
T3
X0.1299Y3.0591
X0.2126Y2.878
X0.3386Y3.3898
X0.6496Y3.4173
X0.8268Y0.4016
X1.3071Y1.4409
X1.3071Y1.3858
X1.3071Y1.3268
X1.3622Y1.4409
X1.3622Y1.3858
X1.3622Y1.3268
X1.6181Y1.7087
X1.6181Y1.6575
X1.6693Y1.7087
X1.6693Y1.6575
X1.7205Y1.7087
X1.7205Y1.6575
X1.8661Y1.8957
X1.9193Y1.8957
X1.9705Y1.8957
X2.0866Y0.7854
X2.0866Y0.7343
X2.1142Y1.0591
X2.1417Y0.7854
X2.1417Y0.7343
X2.1673Y1.0591
X2.1969Y0.7854
X2.1969Y0.7343
X2.2185Y1.0591
X2.2425Y2.5535
X2.6042Y0.246
X2.6732Y0.4409
X2.685Y1.4547
X2.685Y1.4035
X2.685Y1.3524
X2.685Y1.3012
X2.7402Y1.4547
X2.7402Y1.4035
X2.7402Y1.3524
X2.7402Y1.3012
X2.7504Y2.3481
X2.7531Y0.5725
X2.8307Y0.4409
X3.1031Y2.1825
X3.2717Y2.5748
X3.2795Y1.4488
X3.2795Y1.3937
X3.2795Y1.3386
X3.2795Y1.2835
X3.3386Y1.4488
X3.3386Y1.3937
X3.3386Y1.3386
X3.3386Y1.2835
T4
X0.9874Y2.9984
X3.2748Y2.9984
T5
X0.126Y0.5134
X0.126Y0.4134
T6
X1.044Y0.1205
X1.2Y0.1205
X2.155Y0.122
X2.311Y0.122
T7
X0.8858Y1.9689
X0.8972Y1.2823
X3.8366Y1.8327
X3.8366Y1.2382
T8
X3.8917Y2.9394
X4.9252Y2.9984
T9
X1.0799Y2.9984
X3.1823Y3.0575
T10
X0.126Y3.4961
X0.126Y0.126
X5.189Y3.4961
X5.189Y0.126
T0
M30
