%FSLAX45Y45*%
G04 Gerber Fmt 4.5, Leading zero omitted, Abs format (unit mm)*
G04 Created by KiCad (PCBNEW (5.1.9)-1) date 2021-02-22 11:59:32*
%MOMM*%
%LPD*%
G01*
G04 APERTURE LIST*
%TA.AperFunction,Profile*%
%ADD10C,0.150000*%
%TD*%
%ADD11C,0.200000*%
%ADD12C,0.300000*%
G04 APERTURE END LIST*
D10*
X320000Y0D02*
G75*
G02*
X0Y320000I0J320000D01*
G01*
X13500000Y320000D02*
G75*
G02*
X13180000Y0I-320000J0D01*
G01*
X13180000Y9200000D02*
G75*
G02*
X13500000Y8880000I0J-320000D01*
G01*
X0Y8880000D02*
G75*
G02*
X320000Y9200000I320000J0D01*
G01*
X320000Y9200000D02*
X13180000Y9200000D01*
X320000Y0D02*
X13180000Y0D01*
X13500000Y320000D02*
X13500000Y8880000D01*
X0Y8880000D02*
X0Y320000D01*
D11*
X1024026Y5370506D02*
X1054506Y5340026D01*
X1054506Y5370506D02*
X1024026Y5340026D01*
X1214760Y5565240D02*
X1245240Y5534760D01*
X1245240Y5565240D02*
X1214760Y5534760D01*
X1354760Y7905240D02*
X1385240Y7874760D01*
X1385240Y7905240D02*
X1354760Y7874760D01*
X3364760Y1845240D02*
X3395240Y1814760D01*
X3395240Y1845240D02*
X3364760Y1814760D01*
X3434760Y1845240D02*
X3465240Y1814760D01*
X3465240Y1845240D02*
X3434760Y1814760D01*
X3504760Y1845240D02*
X3535240Y1814760D01*
X3535240Y1845240D02*
X3504760Y1814760D01*
X3574760Y1845240D02*
X3605240Y1814760D01*
X3605240Y1845240D02*
X3574760Y1814760D01*
X3644760Y1845240D02*
X3675240Y1814760D01*
X3675240Y1845240D02*
X3644760Y1814760D01*
X3754760Y1785240D02*
X3785240Y1754760D01*
X3785240Y1785240D02*
X3754760Y1754760D01*
X4049760Y2060240D02*
X4080240Y2029760D01*
X4080240Y2060240D02*
X4049760Y2029760D01*
X4234760Y3215240D02*
X4265240Y3184760D01*
X4265240Y3215240D02*
X4234760Y3184760D01*
X4234760Y3145240D02*
X4265240Y3114760D01*
X4265240Y3145240D02*
X4234760Y3114760D01*
X4234760Y3075240D02*
X4265240Y3044760D01*
X4265240Y3075240D02*
X4234760Y3044760D01*
X4234760Y3005240D02*
X4265240Y2974760D01*
X4265240Y3005240D02*
X4234760Y2974760D01*
X4444760Y2175240D02*
X4475240Y2144760D01*
X4475240Y2175240D02*
X4444760Y2144760D01*
X8384760Y5291332D02*
X8415240Y5260852D01*
X8415240Y5291332D02*
X8384760Y5260852D01*
X8484760Y6015240D02*
X8515240Y5984760D01*
X8515240Y6015240D02*
X8484760Y5984760D01*
X8694760Y6150240D02*
X8725240Y6119760D01*
X8725240Y6150240D02*
X8694760Y6119760D01*
X8817968Y6148448D02*
X8848448Y6117968D01*
X8848448Y6148448D02*
X8817968Y6117968D01*
X8884760Y6145240D02*
X8915240Y6114760D01*
X8915240Y6145240D02*
X8884760Y6114760D01*
X9044760Y5135240D02*
X9075240Y5104760D01*
X9075240Y5135240D02*
X9044760Y5104760D01*
X9079588Y6150412D02*
X9110068Y6119932D01*
X9110068Y6150412D02*
X9079588Y6119932D01*
X10693758Y5100454D02*
X10724238Y5069974D01*
X10724238Y5100454D02*
X10693758Y5069974D01*
X10833204Y5241424D02*
X10863684Y5210944D01*
X10863684Y5241424D02*
X10833204Y5210944D01*
X402940Y4100000D02*
G75*
G03*
X402940Y4100000I-27940J0D01*
G01*
X417940Y2900000D02*
G75*
G03*
X417940Y2900000I-27940J0D01*
G01*
X587940Y6060000D02*
G75*
G03*
X587940Y6060000I-27940J0D01*
G01*
X597940Y5340000D02*
G75*
G03*
X597940Y5340000I-27940J0D01*
G01*
X677940Y2230000D02*
G75*
G03*
X677940Y2230000I-27940J0D01*
G01*
X867940Y5990000D02*
G75*
G03*
X867940Y5990000I-27940J0D01*
G01*
X887940Y6260000D02*
G75*
G03*
X887940Y6260000I-27940J0D01*
G01*
X937940Y7310000D02*
G75*
G03*
X937940Y7310000I-27940J0D01*
G01*
X947940Y1695000D02*
G75*
G03*
X947940Y1695000I-27940J0D01*
G01*
X1027940Y4280000D02*
G75*
G03*
X1027940Y4280000I-27940J0D01*
G01*
X1032940Y2755000D02*
G75*
G03*
X1032940Y2755000I-27940J0D01*
G01*
X1032940Y2640000D02*
G75*
G03*
X1032940Y2640000I-27940J0D01*
G01*
X1107940Y2460000D02*
G75*
G03*
X1107940Y2460000I-27940J0D01*
G01*
X1222940Y1695000D02*
G75*
G03*
X1222940Y1695000I-27940J0D01*
G01*
X1377940Y6770000D02*
G75*
G03*
X1377940Y6770000I-27940J0D01*
G01*
X1377940Y2425000D02*
G75*
G03*
X1377940Y2425000I-27940J0D01*
G01*
X1407940Y7290000D02*
G75*
G03*
X1407940Y7290000I-27940J0D01*
G01*
X1677940Y8460000D02*
G75*
G03*
X1677940Y8460000I-27940J0D01*
G01*
X1747940Y6050000D02*
G75*
G03*
X1747940Y6050000I-27940J0D01*
G01*
X2127940Y8405000D02*
G75*
G03*
X2127940Y8405000I-27940J0D01*
G01*
X2543940Y6691000D02*
G75*
G03*
X2543940Y6691000I-27940J0D01*
G01*
X2847940Y6520000D02*
G75*
G03*
X2847940Y6520000I-27940J0D01*
G01*
X3017940Y2740000D02*
G75*
G03*
X3017940Y2740000I-27940J0D01*
G01*
X3017940Y2640000D02*
G75*
G03*
X3017940Y2640000I-27940J0D01*
G01*
X3240940Y7640000D02*
G75*
G03*
X3240940Y7640000I-27940J0D01*
G01*
X3404940Y6487000D02*
G75*
G03*
X3404940Y6487000I-27940J0D01*
G01*
X3477940Y8235000D02*
G75*
G03*
X3477940Y8235000I-27940J0D01*
G01*
X3497940Y7610000D02*
G75*
G03*
X3497940Y7610000I-27940J0D01*
G01*
X3657940Y1190000D02*
G75*
G03*
X3657940Y1190000I-27940J0D01*
G01*
X3667940Y8430000D02*
G75*
G03*
X3667940Y8430000I-27940J0D01*
G01*
X3707940Y2590000D02*
G75*
G03*
X3707940Y2590000I-27940J0D01*
G01*
X3707940Y2500000D02*
G75*
G03*
X3707940Y2500000I-27940J0D01*
G01*
X3727940Y6805000D02*
G75*
G03*
X3727940Y6805000I-27940J0D01*
G01*
X3817940Y8430000D02*
G75*
G03*
X3817940Y8430000I-27940J0D01*
G01*
X3872940Y8045000D02*
G75*
G03*
X3872940Y8045000I-27940J0D01*
G01*
X3885940Y6553000D02*
G75*
G03*
X3885940Y6553000I-27940J0D01*
G01*
X3952940Y6010000D02*
G75*
G03*
X3952940Y6010000I-27940J0D01*
G01*
X3967940Y1730000D02*
G75*
G03*
X3967940Y1730000I-27940J0D01*
G01*
X3977940Y7610000D02*
G75*
G03*
X3977940Y7610000I-27940J0D01*
G01*
X4127940Y3610000D02*
G75*
G03*
X4127940Y3610000I-27940J0D01*
G01*
X4127940Y3520000D02*
G75*
G03*
X4127940Y3520000I-27940J0D01*
G01*
X4127940Y3430000D02*
G75*
G03*
X4127940Y3430000I-27940J0D01*
G01*
X4360940Y7942000D02*
G75*
G03*
X4360940Y7942000I-27940J0D01*
G01*
X4377940Y5730000D02*
G75*
G03*
X4377940Y5730000I-27940J0D01*
G01*
X4392940Y8315000D02*
G75*
G03*
X4392940Y8315000I-27940J0D01*
G01*
X4417940Y1830000D02*
G75*
G03*
X4417940Y1830000I-27940J0D01*
G01*
X4457940Y6570000D02*
G75*
G03*
X4457940Y6570000I-27940J0D01*
G01*
X4467940Y1750000D02*
G75*
G03*
X4467940Y1750000I-27940J0D01*
G01*
X4502940Y6750000D02*
G75*
G03*
X4502940Y6750000I-27940J0D01*
G01*
X4517940Y1830000D02*
G75*
G03*
X4517940Y1830000I-27940J0D01*
G01*
X4582940Y8245000D02*
G75*
G03*
X4582940Y8245000I-27940J0D01*
G01*
X4680940Y7613000D02*
G75*
G03*
X4680940Y7613000I-27940J0D01*
G01*
X4702940Y7275000D02*
G75*
G03*
X4702940Y7275000I-27940J0D01*
G01*
X4837940Y7630000D02*
G75*
G03*
X4837940Y7630000I-27940J0D01*
G01*
X4977940Y6550000D02*
G75*
G03*
X4977940Y6550000I-27940J0D01*
G01*
X5007940Y7630000D02*
G75*
G03*
X5007940Y7630000I-27940J0D01*
G01*
X5037940Y6070000D02*
G75*
G03*
X5037940Y6070000I-27940J0D01*
G01*
X5077940Y7300000D02*
G75*
G03*
X5077940Y7300000I-27940J0D01*
G01*
X5117940Y6550000D02*
G75*
G03*
X5117940Y6550000I-27940J0D01*
G01*
X5318940Y6992000D02*
G75*
G03*
X5318940Y6992000I-27940J0D01*
G01*
X5415940Y6990000D02*
G75*
G03*
X5415940Y6990000I-27940J0D01*
G01*
X5507940Y6990000D02*
G75*
G03*
X5507940Y6990000I-27940J0D01*
G01*
X5532940Y8310000D02*
G75*
G03*
X5532940Y8310000I-27940J0D01*
G01*
X5599940Y6991000D02*
G75*
G03*
X5599940Y6991000I-27940J0D01*
G01*
X5687940Y6990000D02*
G75*
G03*
X5687940Y6990000I-27940J0D01*
G01*
X5874904Y7636964D02*
G75*
G03*
X5874904Y7636964I-27940J0D01*
G01*
X6247940Y6010000D02*
G75*
G03*
X6247940Y6010000I-27940J0D01*
G01*
X6517940Y8030000D02*
G75*
G03*
X6517940Y8030000I-27940J0D01*
G01*
X6522940Y7235000D02*
G75*
G03*
X6522940Y7235000I-27940J0D01*
G01*
X6653822Y6084118D02*
G75*
G03*
X6653822Y6084118I-27940J0D01*
G01*
X7027940Y7230000D02*
G75*
G03*
X7027940Y7230000I-27940J0D01*
G01*
X7077940Y8030000D02*
G75*
G03*
X7077940Y8030000I-27940J0D01*
G01*
X7640940Y8027000D02*
G75*
G03*
X7640940Y8027000I-27940J0D01*
G01*
X7647940Y7620000D02*
G75*
G03*
X7647940Y7620000I-27940J0D01*
G01*
X7707940Y5540000D02*
G75*
G03*
X7707940Y5540000I-27940J0D01*
G01*
X7909880Y1454141D02*
G75*
G03*
X7909880Y1454141I-27940J0D01*
G01*
X9017940Y6450000D02*
G75*
G03*
X9017940Y6450000I-27940J0D01*
G01*
X9386940Y6509000D02*
G75*
G03*
X9386940Y6509000I-27940J0D01*
G01*
X9917940Y5880000D02*
G75*
G03*
X9917940Y5880000I-27940J0D01*
G01*
X10017940Y5880000D02*
G75*
G03*
X10017940Y5880000I-27940J0D01*
G01*
X10117940Y5880000D02*
G75*
G03*
X10117940Y5880000I-27940J0D01*
G01*
X10577940Y7270000D02*
G75*
G03*
X10577940Y7270000I-27940J0D01*
G01*
X10877440Y5730000D02*
G75*
G03*
X10877440Y5730000I-27940J0D01*
G01*
X10997940Y4096000D02*
G75*
G03*
X10997940Y4096000I-27940J0D01*
G01*
X11229940Y5745000D02*
G75*
G03*
X11229940Y5745000I-27940J0D01*
G01*
X11336940Y6441000D02*
G75*
G03*
X11336940Y6441000I-27940J0D01*
G01*
X11507940Y8030000D02*
G75*
G03*
X11507940Y8030000I-27940J0D01*
G01*
X11557940Y7610000D02*
G75*
G03*
X11557940Y7610000I-27940J0D01*
G01*
X11687940Y6430000D02*
G75*
G03*
X11687940Y6430000I-27940J0D01*
G01*
X11777940Y6430000D02*
G75*
G03*
X11777940Y6430000I-27940J0D01*
G01*
X11837940Y5230000D02*
G75*
G03*
X11837940Y5230000I-27940J0D01*
G01*
X11859940Y5662000D02*
G75*
G03*
X11859940Y5662000I-27940J0D01*
G01*
X11867940Y6430000D02*
G75*
G03*
X11867940Y6430000I-27940J0D01*
G01*
X12007940Y5830000D02*
G75*
G03*
X12007940Y5830000I-27940J0D01*
G01*
X12312940Y5003000D02*
G75*
G03*
X12312940Y5003000I-27940J0D01*
G01*
X12357940Y7280000D02*
G75*
G03*
X12357940Y7280000I-27940J0D01*
G01*
X12367940Y8030000D02*
G75*
G03*
X12367940Y8030000I-27940J0D01*
G01*
X12477940Y6780000D02*
G75*
G03*
X12477940Y6780000I-27940J0D01*
G01*
X12827940Y3500000D02*
G75*
G03*
X12827940Y3500000I-27940J0D01*
G01*
X12894940Y6336000D02*
G75*
G03*
X12894940Y6336000I-27940J0D01*
G01*
X12907940Y4700000D02*
G75*
G03*
X12907940Y4700000I-27940J0D01*
G01*
X12937940Y2700000D02*
G75*
G03*
X12937940Y2700000I-27940J0D01*
G01*
X13094840Y5743100D02*
G75*
G03*
X13094840Y5743100I-27940J0D01*
G01*
X330000Y7810640D02*
X330000Y7729360D01*
X289360Y7770000D02*
X370640Y7770000D01*
X540000Y7350640D02*
X540000Y7269360D01*
X499360Y7310000D02*
X580640Y7310000D01*
X860000Y8650640D02*
X860000Y8569360D01*
X819360Y8610000D02*
X900640Y8610000D01*
X1650000Y8720640D02*
X1650000Y8639360D01*
X1609360Y8680000D02*
X1690640Y8680000D01*
X2100000Y1060640D02*
X2100000Y979360D01*
X2059360Y1020000D02*
X2140640Y1020000D01*
X3320000Y3700640D02*
X3320000Y3619360D01*
X3279360Y3660000D02*
X3360640Y3660000D01*
X3320000Y3560640D02*
X3320000Y3479360D01*
X3279360Y3520000D02*
X3360640Y3520000D01*
X3320000Y3410640D02*
X3320000Y3329360D01*
X3279360Y3370000D02*
X3360640Y3370000D01*
X3460000Y3700640D02*
X3460000Y3619360D01*
X3419360Y3660000D02*
X3500640Y3660000D01*
X3460000Y3560640D02*
X3460000Y3479360D01*
X3419360Y3520000D02*
X3500640Y3520000D01*
X3460000Y3410640D02*
X3460000Y3329360D01*
X3419360Y3370000D02*
X3500640Y3370000D01*
X4110000Y4380640D02*
X4110000Y4299360D01*
X4069360Y4340000D02*
X4150640Y4340000D01*
X4110000Y4250640D02*
X4110000Y4169360D01*
X4069360Y4210000D02*
X4150640Y4210000D01*
X4240000Y4380640D02*
X4240000Y4299360D01*
X4199360Y4340000D02*
X4280640Y4340000D01*
X4240000Y4250640D02*
X4240000Y4169360D01*
X4199360Y4210000D02*
X4280640Y4210000D01*
X4370000Y4380640D02*
X4370000Y4299360D01*
X4329360Y4340000D02*
X4410640Y4340000D01*
X4370000Y4250640D02*
X4370000Y4169360D01*
X4329360Y4210000D02*
X4410640Y4210000D01*
X4740000Y4855640D02*
X4740000Y4774360D01*
X4699360Y4815000D02*
X4780640Y4815000D01*
X4875000Y4855640D02*
X4875000Y4774360D01*
X4834360Y4815000D02*
X4915640Y4815000D01*
X5005000Y4855640D02*
X5005000Y4774360D01*
X4964360Y4815000D02*
X5045640Y4815000D01*
X5300000Y2035640D02*
X5300000Y1954360D01*
X5259360Y1995000D02*
X5340640Y1995000D01*
X5300000Y1905640D02*
X5300000Y1824360D01*
X5259360Y1865000D02*
X5340640Y1865000D01*
X5370000Y2730640D02*
X5370000Y2649360D01*
X5329360Y2690000D02*
X5410640Y2690000D01*
X5440000Y2035640D02*
X5440000Y1954360D01*
X5399360Y1995000D02*
X5480640Y1995000D01*
X5440000Y1905640D02*
X5440000Y1824360D01*
X5399360Y1865000D02*
X5480640Y1865000D01*
X5505000Y2730640D02*
X5505000Y2649360D01*
X5464360Y2690000D02*
X5545640Y2690000D01*
X5580000Y2035640D02*
X5580000Y1954360D01*
X5539360Y1995000D02*
X5620640Y1995000D01*
X5580000Y1905640D02*
X5580000Y1824360D01*
X5539360Y1865000D02*
X5620640Y1865000D01*
X5635000Y2730640D02*
X5635000Y2649360D01*
X5594360Y2690000D02*
X5675640Y2690000D01*
X5696000Y6526640D02*
X5696000Y6445360D01*
X5655360Y6486000D02*
X5736640Y6486000D01*
X6614780Y665420D02*
X6614780Y584140D01*
X6574140Y624780D02*
X6655420Y624780D01*
X6790000Y1160640D02*
X6790000Y1079360D01*
X6749360Y1120000D02*
X6830640Y1120000D01*
X6820000Y3735640D02*
X6820000Y3654360D01*
X6779360Y3695000D02*
X6860640Y3695000D01*
X6820000Y3605640D02*
X6820000Y3524360D01*
X6779360Y3565000D02*
X6860640Y3565000D01*
X6820000Y3475640D02*
X6820000Y3394360D01*
X6779360Y3435000D02*
X6860640Y3435000D01*
X6820000Y3345640D02*
X6820000Y3264360D01*
X6779360Y3305000D02*
X6860640Y3305000D01*
X6960000Y3735640D02*
X6960000Y3654360D01*
X6919360Y3695000D02*
X7000640Y3695000D01*
X6960000Y3605640D02*
X6960000Y3524360D01*
X6919360Y3565000D02*
X7000640Y3565000D01*
X6960000Y3475640D02*
X6960000Y3394360D01*
X6919360Y3435000D02*
X7000640Y3435000D01*
X6960000Y3345640D02*
X6960000Y3264360D01*
X6919360Y3305000D02*
X7000640Y3305000D01*
X6985900Y6004740D02*
X6985900Y5923460D01*
X6945260Y5964100D02*
X7026540Y5964100D01*
X6992940Y1494782D02*
X6992940Y1413502D01*
X6952300Y1454142D02*
X7033580Y1454142D01*
X7190000Y1160640D02*
X7190000Y1079360D01*
X7149360Y1120000D02*
X7230640Y1120000D01*
X7881940Y5584181D02*
X7881940Y5502901D01*
X7841300Y5543541D02*
X7922580Y5543541D01*
X8310000Y6580640D02*
X8310000Y6499360D01*
X8269360Y6540000D02*
X8350640Y6540000D01*
X8330000Y3720640D02*
X8330000Y3639360D01*
X8289360Y3680000D02*
X8370640Y3680000D01*
X8330000Y3580640D02*
X8330000Y3499360D01*
X8289360Y3540000D02*
X8370640Y3540000D01*
X8330000Y3440640D02*
X8330000Y3359360D01*
X8289360Y3400000D02*
X8370640Y3400000D01*
X8330000Y3300640D02*
X8330000Y3219360D01*
X8289360Y3260000D02*
X8370640Y3260000D01*
X8480000Y3720640D02*
X8480000Y3639360D01*
X8439360Y3680000D02*
X8520640Y3680000D01*
X8480000Y3580640D02*
X8480000Y3499360D01*
X8439360Y3540000D02*
X8520640Y3540000D01*
X8480000Y3440640D02*
X8480000Y3359360D01*
X8439360Y3400000D02*
X8520640Y3400000D01*
X8480000Y3300640D02*
X8480000Y3219360D01*
X8439360Y3260000D02*
X8520640Y3260000D01*
X2537699Y7586301D02*
X2537699Y7645699D01*
X2478301Y7645699D01*
X2478301Y7586301D01*
X2537699Y7586301D01*
X8347699Y7586301D02*
X8347699Y7645699D01*
X8288301Y7645699D01*
X8288301Y7586301D01*
X8347699Y7586301D01*
X320000Y1244500D02*
X379500Y1304000D01*
X320000Y1363500D01*
X260500Y1304000D01*
X320000Y1244500D01*
X320000Y990500D02*
X379500Y1050000D01*
X320000Y1109500D01*
X260500Y1050000D01*
X320000Y990500D01*
X2556630Y401250D02*
X2747130Y210750D01*
X2747130Y401250D02*
X2556630Y210750D01*
X2747130Y306000D02*
G75*
G03*
X2747130Y306000I-95250J0D01*
G01*
X2952870Y401250D02*
X3143370Y210750D01*
X3143370Y401250D02*
X2952870Y210750D01*
X3143370Y306000D02*
G75*
G03*
X3143370Y306000I-95250J0D01*
G01*
X5378510Y405250D02*
X5569010Y214750D01*
X5569010Y405250D02*
X5378510Y214750D01*
X5569010Y310000D02*
G75*
G03*
X5569010Y310000I-95250J0D01*
G01*
X5774750Y405250D02*
X5965250Y214750D01*
X5965250Y405250D02*
X5774750Y214750D01*
X5965250Y310000D02*
G75*
G03*
X5965250Y310000I-95250J0D01*
G01*
X1945000Y5306000D02*
X2555000Y4696000D01*
X2555000Y5306000D02*
X1945000Y4696000D01*
X2250000Y5306000D02*
X2250000Y4696000D01*
X1945000Y5001000D02*
X2555000Y5001000D01*
X1974000Y3562000D02*
X2584000Y2952000D01*
X2584000Y3562000D02*
X1974000Y2952000D01*
X2279000Y3562000D02*
X2279000Y2952000D01*
X1974000Y3257000D02*
X2584000Y3257000D01*
X9440000Y4960000D02*
X10050000Y4350000D01*
X10050000Y4960000D02*
X9440000Y4350000D01*
X9745000Y4960000D02*
X9745000Y4350000D01*
X9440000Y4655000D02*
X10050000Y4655000D01*
X9440000Y3450000D02*
X10050000Y2840000D01*
X10050000Y3450000D02*
X9440000Y2840000D01*
X9745000Y3450000D02*
X9745000Y2840000D01*
X9440000Y3145000D02*
X10050000Y3145000D01*
X9829000Y7522000D02*
X9941000Y7410000D01*
X9941000Y7522000D02*
X9829000Y7410000D01*
X9924598Y7426402D02*
X9924598Y7505598D01*
X9845402Y7505598D01*
X9845402Y7426402D01*
X9924598Y7426402D01*
X12454000Y7672000D02*
X12566000Y7560000D01*
X12566000Y7672000D02*
X12454000Y7560000D01*
X12549598Y7576402D02*
X12549598Y7655598D01*
X12470402Y7655598D01*
X12470402Y7576402D01*
X12549598Y7576402D01*
X2679500Y7679500D02*
X2806500Y7552500D01*
X2806500Y7679500D02*
X2679500Y7552500D01*
X2743000Y7552500D02*
X2806500Y7616000D01*
X2743000Y7679500D01*
X2679500Y7616000D01*
X2743000Y7552500D01*
X8019500Y7829500D02*
X8146500Y7702500D01*
X8146500Y7829500D02*
X8019500Y7702500D01*
X8083000Y7702500D02*
X8146500Y7766000D01*
X8083000Y7829500D01*
X8019500Y7766000D01*
X8083000Y7702500D01*
X320000Y9040000D02*
X320000Y8720000D01*
X160000Y8880000D02*
X480000Y8880000D01*
X480000Y8880000D02*
G75*
G03*
X480000Y8880000I-160000J0D01*
G01*
X320000Y480000D02*
X320000Y160000D01*
X160000Y320000D02*
X480000Y320000D01*
X480000Y320000D02*
G75*
G03*
X480000Y320000I-160000J0D01*
G01*
X13180000Y9040000D02*
X13180000Y8720000D01*
X13020000Y8880000D02*
X13340000Y8880000D01*
X13340000Y8880000D02*
G75*
G03*
X13340000Y8880000I-160000J0D01*
G01*
X13180000Y480000D02*
X13180000Y160000D01*
X13020000Y320000D02*
X13340000Y320000D01*
X13340000Y320000D02*
G75*
G03*
X13340000Y320000I-160000J0D01*
G01*
D12*
X278928Y-473214D02*
X278928Y-173214D01*
X350357Y-173214D01*
X393214Y-187500D01*
X421786Y-216071D01*
X436071Y-244643D01*
X450357Y-301786D01*
X450357Y-344643D01*
X436071Y-401786D01*
X421786Y-430357D01*
X393214Y-458929D01*
X350357Y-473214D01*
X278928Y-473214D01*
X578928Y-473214D02*
X578928Y-273214D01*
X578928Y-330357D02*
X593214Y-301786D01*
X607500Y-287500D01*
X636071Y-273214D01*
X664643Y-273214D01*
X764643Y-473214D02*
X764643Y-273214D01*
X764643Y-173214D02*
X750357Y-187500D01*
X764643Y-201786D01*
X778928Y-187500D01*
X764643Y-173214D01*
X764643Y-201786D01*
X950357Y-473214D02*
X921786Y-458929D01*
X907500Y-430357D01*
X907500Y-173214D01*
X1107500Y-473214D02*
X1078928Y-458929D01*
X1064643Y-430357D01*
X1064643Y-173214D01*
X1450357Y-473214D02*
X1450357Y-173214D01*
X1550357Y-387500D01*
X1650357Y-173214D01*
X1650357Y-473214D01*
X1921786Y-473214D02*
X1921786Y-316072D01*
X1907500Y-287500D01*
X1878928Y-273214D01*
X1821786Y-273214D01*
X1793214Y-287500D01*
X1921786Y-458929D02*
X1893214Y-473214D01*
X1821786Y-473214D01*
X1793214Y-458929D01*
X1778928Y-430357D01*
X1778928Y-401786D01*
X1793214Y-373214D01*
X1821786Y-358929D01*
X1893214Y-358929D01*
X1921786Y-344643D01*
X2064643Y-273214D02*
X2064643Y-573214D01*
X2064643Y-287500D02*
X2093214Y-273214D01*
X2150357Y-273214D01*
X2178928Y-287500D01*
X2193214Y-301786D01*
X2207500Y-330357D01*
X2207500Y-416071D01*
X2193214Y-444643D01*
X2178928Y-458929D01*
X2150357Y-473214D01*
X2093214Y-473214D01*
X2064643Y-458929D01*
X2336071Y-444643D02*
X2350357Y-458929D01*
X2336071Y-473214D01*
X2321786Y-458929D01*
X2336071Y-444643D01*
X2336071Y-473214D01*
X2336071Y-287500D02*
X2350357Y-301786D01*
X2336071Y-316072D01*
X2321786Y-301786D01*
X2336071Y-287500D01*
X2336071Y-316072D01*
X-37980Y-952260D02*
X-7500Y-982740D01*
X-7500Y-952260D02*
X-37980Y-982740D01*
X336071Y-803214D02*
X364643Y-803214D01*
X393214Y-817500D01*
X407500Y-831786D01*
X421786Y-860357D01*
X436071Y-917500D01*
X436071Y-988929D01*
X421786Y-1046071D01*
X407500Y-1074643D01*
X393214Y-1088929D01*
X364643Y-1103214D01*
X336071Y-1103214D01*
X307500Y-1088929D01*
X293214Y-1074643D01*
X278928Y-1046071D01*
X264643Y-988929D01*
X264643Y-917500D01*
X278928Y-860357D01*
X293214Y-831786D01*
X307500Y-817500D01*
X336071Y-803214D01*
X564643Y-1074643D02*
X578928Y-1088929D01*
X564643Y-1103214D01*
X550357Y-1088929D01*
X564643Y-1074643D01*
X564643Y-1103214D01*
X678928Y-803214D02*
X864643Y-803214D01*
X764643Y-917500D01*
X807500Y-917500D01*
X836071Y-931786D01*
X850357Y-946071D01*
X864643Y-974643D01*
X864643Y-1046071D01*
X850357Y-1074643D01*
X836071Y-1088929D01*
X807500Y-1103214D01*
X721786Y-1103214D01*
X693214Y-1088929D01*
X678928Y-1074643D01*
X1050357Y-803214D02*
X1078928Y-803214D01*
X1107500Y-817500D01*
X1121786Y-831786D01*
X1136071Y-860357D01*
X1150357Y-917500D01*
X1150357Y-988929D01*
X1136071Y-1046071D01*
X1121786Y-1074643D01*
X1107500Y-1088929D01*
X1078928Y-1103214D01*
X1050357Y-1103214D01*
X1021786Y-1088929D01*
X1007500Y-1074643D01*
X993214Y-1046071D01*
X978928Y-988929D01*
X978928Y-917500D01*
X993214Y-860357D01*
X1007500Y-831786D01*
X1021786Y-817500D01*
X1050357Y-803214D01*
X1278928Y-1103214D02*
X1278928Y-903214D01*
X1278928Y-931786D02*
X1293214Y-917500D01*
X1321786Y-903214D01*
X1364643Y-903214D01*
X1393214Y-917500D01*
X1407500Y-946071D01*
X1407500Y-1103214D01*
X1407500Y-946071D02*
X1421786Y-917500D01*
X1450357Y-903214D01*
X1493214Y-903214D01*
X1521786Y-917500D01*
X1536071Y-946071D01*
X1536071Y-1103214D01*
X1678928Y-1103214D02*
X1678928Y-903214D01*
X1678928Y-931786D02*
X1693214Y-917500D01*
X1721786Y-903214D01*
X1764643Y-903214D01*
X1793214Y-917500D01*
X1807500Y-946071D01*
X1807500Y-1103214D01*
X1807500Y-946071D02*
X1821786Y-917500D01*
X1850357Y-903214D01*
X1893214Y-903214D01*
X1921786Y-917500D01*
X1936071Y-946071D01*
X1936071Y-1103214D01*
X2521786Y-788929D02*
X2264643Y-1174643D01*
X2907500Y-803214D02*
X2936071Y-803214D01*
X2964643Y-817500D01*
X2978928Y-831786D01*
X2993214Y-860357D01*
X3007500Y-917500D01*
X3007500Y-988929D01*
X2993214Y-1046071D01*
X2978928Y-1074643D01*
X2964643Y-1088929D01*
X2936071Y-1103214D01*
X2907500Y-1103214D01*
X2878928Y-1088929D01*
X2864643Y-1074643D01*
X2850357Y-1046071D01*
X2836071Y-988929D01*
X2836071Y-917500D01*
X2850357Y-860357D01*
X2864643Y-831786D01*
X2878928Y-817500D01*
X2907500Y-803214D01*
X3136071Y-1074643D02*
X3150357Y-1088929D01*
X3136071Y-1103214D01*
X3121786Y-1088929D01*
X3136071Y-1074643D01*
X3136071Y-1103214D01*
X3336071Y-803214D02*
X3364643Y-803214D01*
X3393214Y-817500D01*
X3407500Y-831786D01*
X3421786Y-860357D01*
X3436071Y-917500D01*
X3436071Y-988929D01*
X3421786Y-1046071D01*
X3407500Y-1074643D01*
X3393214Y-1088929D01*
X3364643Y-1103214D01*
X3336071Y-1103214D01*
X3307500Y-1088929D01*
X3293214Y-1074643D01*
X3278928Y-1046071D01*
X3264643Y-988929D01*
X3264643Y-917500D01*
X3278928Y-860357D01*
X3293214Y-831786D01*
X3307500Y-817500D01*
X3336071Y-803214D01*
X3721786Y-1103214D02*
X3550357Y-1103214D01*
X3636071Y-1103214D02*
X3636071Y-803214D01*
X3607500Y-846071D01*
X3578928Y-874643D01*
X3550357Y-888929D01*
X3836071Y-831786D02*
X3850357Y-817500D01*
X3878928Y-803214D01*
X3950357Y-803214D01*
X3978928Y-817500D01*
X3993214Y-831786D01*
X4007500Y-860357D01*
X4007500Y-888929D01*
X3993214Y-931786D01*
X3821786Y-1103214D01*
X4007500Y-1103214D01*
X4121786Y-803214D02*
X4121786Y-860357D01*
X4236071Y-803214D02*
X4236071Y-860357D01*
X4678928Y-1217500D02*
X4664643Y-1203214D01*
X4636071Y-1160357D01*
X4621786Y-1131786D01*
X4607500Y-1088929D01*
X4593214Y-1017500D01*
X4593214Y-960357D01*
X4607500Y-888929D01*
X4621786Y-846071D01*
X4636071Y-817500D01*
X4664643Y-774643D01*
X4678928Y-760357D01*
X4778928Y-831786D02*
X4793214Y-817500D01*
X4821786Y-803214D01*
X4893214Y-803214D01*
X4921786Y-817500D01*
X4936071Y-831786D01*
X4950357Y-860357D01*
X4950357Y-888929D01*
X4936071Y-931786D01*
X4764643Y-1103214D01*
X4950357Y-1103214D01*
X5207500Y-903214D02*
X5207500Y-1103214D01*
X5136071Y-788929D02*
X5064643Y-1003214D01*
X5250357Y-1003214D01*
X5593214Y-1103214D02*
X5593214Y-803214D01*
X5721786Y-1103214D02*
X5721786Y-946071D01*
X5707500Y-917500D01*
X5678928Y-903214D01*
X5636071Y-903214D01*
X5607500Y-917500D01*
X5593214Y-931786D01*
X5907500Y-1103214D02*
X5878928Y-1088929D01*
X5864643Y-1074643D01*
X5850357Y-1046071D01*
X5850357Y-960357D01*
X5864643Y-931786D01*
X5878928Y-917500D01*
X5907500Y-903214D01*
X5950357Y-903214D01*
X5978928Y-917500D01*
X5993214Y-931786D01*
X6007500Y-960357D01*
X6007500Y-1046071D01*
X5993214Y-1074643D01*
X5978928Y-1088929D01*
X5950357Y-1103214D01*
X5907500Y-1103214D01*
X6178928Y-1103214D02*
X6150357Y-1088929D01*
X6136071Y-1060357D01*
X6136071Y-803214D01*
X6407500Y-1088929D02*
X6378928Y-1103214D01*
X6321786Y-1103214D01*
X6293214Y-1088929D01*
X6278928Y-1060357D01*
X6278928Y-946071D01*
X6293214Y-917500D01*
X6321786Y-903214D01*
X6378928Y-903214D01*
X6407500Y-917500D01*
X6421786Y-946071D01*
X6421786Y-974643D01*
X6278928Y-1003214D01*
X6536071Y-1088929D02*
X6564643Y-1103214D01*
X6621786Y-1103214D01*
X6650357Y-1088929D01*
X6664643Y-1060357D01*
X6664643Y-1046071D01*
X6650357Y-1017500D01*
X6621786Y-1003214D01*
X6578928Y-1003214D01*
X6550357Y-988929D01*
X6536071Y-960357D01*
X6536071Y-946071D01*
X6550357Y-917500D01*
X6578928Y-903214D01*
X6621786Y-903214D01*
X6650357Y-917500D01*
X6764643Y-1217500D02*
X6778928Y-1203214D01*
X6807500Y-1160357D01*
X6821786Y-1131786D01*
X6836071Y-1088929D01*
X6850357Y-1017500D01*
X6850357Y-960357D01*
X6836071Y-888929D01*
X6821786Y-846071D01*
X6807500Y-817500D01*
X6778928Y-774643D01*
X6764643Y-760357D01*
X-7500Y-1363500D02*
G75*
G03*
X-7500Y-1363500I-27940J0D01*
G01*
X336071Y-1199214D02*
X364643Y-1199214D01*
X393214Y-1213500D01*
X407500Y-1227786D01*
X421786Y-1256357D01*
X436071Y-1313500D01*
X436071Y-1384929D01*
X421786Y-1442071D01*
X407500Y-1470643D01*
X393214Y-1484929D01*
X364643Y-1499214D01*
X336071Y-1499214D01*
X307500Y-1484929D01*
X293214Y-1470643D01*
X278928Y-1442071D01*
X264643Y-1384929D01*
X264643Y-1313500D01*
X278928Y-1256357D01*
X293214Y-1227786D01*
X307500Y-1213500D01*
X336071Y-1199214D01*
X564643Y-1470643D02*
X578928Y-1484929D01*
X564643Y-1499214D01*
X550357Y-1484929D01*
X564643Y-1470643D01*
X564643Y-1499214D01*
X850357Y-1199214D02*
X707500Y-1199214D01*
X693214Y-1342072D01*
X707500Y-1327786D01*
X736071Y-1313500D01*
X807500Y-1313500D01*
X836071Y-1327786D01*
X850357Y-1342072D01*
X864643Y-1370643D01*
X864643Y-1442071D01*
X850357Y-1470643D01*
X836071Y-1484929D01*
X807500Y-1499214D01*
X736071Y-1499214D01*
X707500Y-1484929D01*
X693214Y-1470643D01*
X1121786Y-1199214D02*
X1064643Y-1199214D01*
X1036071Y-1213500D01*
X1021786Y-1227786D01*
X993214Y-1270643D01*
X978928Y-1327786D01*
X978928Y-1442071D01*
X993214Y-1470643D01*
X1007500Y-1484929D01*
X1036071Y-1499214D01*
X1093214Y-1499214D01*
X1121786Y-1484929D01*
X1136071Y-1470643D01*
X1150357Y-1442071D01*
X1150357Y-1370643D01*
X1136071Y-1342072D01*
X1121786Y-1327786D01*
X1093214Y-1313500D01*
X1036071Y-1313500D01*
X1007500Y-1327786D01*
X993214Y-1342072D01*
X978928Y-1370643D01*
X1278928Y-1499214D02*
X1278928Y-1299214D01*
X1278928Y-1327786D02*
X1293214Y-1313500D01*
X1321786Y-1299214D01*
X1364643Y-1299214D01*
X1393214Y-1313500D01*
X1407500Y-1342072D01*
X1407500Y-1499214D01*
X1407500Y-1342072D02*
X1421786Y-1313500D01*
X1450357Y-1299214D01*
X1493214Y-1299214D01*
X1521786Y-1313500D01*
X1536071Y-1342072D01*
X1536071Y-1499214D01*
X1678928Y-1499214D02*
X1678928Y-1299214D01*
X1678928Y-1327786D02*
X1693214Y-1313500D01*
X1721786Y-1299214D01*
X1764643Y-1299214D01*
X1793214Y-1313500D01*
X1807500Y-1342072D01*
X1807500Y-1499214D01*
X1807500Y-1342072D02*
X1821786Y-1313500D01*
X1850357Y-1299214D01*
X1893214Y-1299214D01*
X1921786Y-1313500D01*
X1936071Y-1342072D01*
X1936071Y-1499214D01*
X2521786Y-1184929D02*
X2264643Y-1570643D01*
X2907500Y-1199214D02*
X2936071Y-1199214D01*
X2964643Y-1213500D01*
X2978928Y-1227786D01*
X2993214Y-1256357D01*
X3007500Y-1313500D01*
X3007500Y-1384929D01*
X2993214Y-1442071D01*
X2978928Y-1470643D01*
X2964643Y-1484929D01*
X2936071Y-1499214D01*
X2907500Y-1499214D01*
X2878928Y-1484929D01*
X2864643Y-1470643D01*
X2850357Y-1442071D01*
X2836071Y-1384929D01*
X2836071Y-1313500D01*
X2850357Y-1256357D01*
X2864643Y-1227786D01*
X2878928Y-1213500D01*
X2907500Y-1199214D01*
X3136071Y-1470643D02*
X3150357Y-1484929D01*
X3136071Y-1499214D01*
X3121786Y-1484929D01*
X3136071Y-1470643D01*
X3136071Y-1499214D01*
X3336071Y-1199214D02*
X3364643Y-1199214D01*
X3393214Y-1213500D01*
X3407500Y-1227786D01*
X3421786Y-1256357D01*
X3436071Y-1313500D01*
X3436071Y-1384929D01*
X3421786Y-1442071D01*
X3407500Y-1470643D01*
X3393214Y-1484929D01*
X3364643Y-1499214D01*
X3336071Y-1499214D01*
X3307500Y-1484929D01*
X3293214Y-1470643D01*
X3278928Y-1442071D01*
X3264643Y-1384929D01*
X3264643Y-1313500D01*
X3278928Y-1256357D01*
X3293214Y-1227786D01*
X3307500Y-1213500D01*
X3336071Y-1199214D01*
X3550357Y-1227786D02*
X3564643Y-1213500D01*
X3593214Y-1199214D01*
X3664643Y-1199214D01*
X3693214Y-1213500D01*
X3707500Y-1227786D01*
X3721786Y-1256357D01*
X3721786Y-1284929D01*
X3707500Y-1327786D01*
X3536071Y-1499214D01*
X3721786Y-1499214D01*
X3836071Y-1227786D02*
X3850357Y-1213500D01*
X3878928Y-1199214D01*
X3950357Y-1199214D01*
X3978928Y-1213500D01*
X3993214Y-1227786D01*
X4007500Y-1256357D01*
X4007500Y-1284929D01*
X3993214Y-1327786D01*
X3821786Y-1499214D01*
X4007500Y-1499214D01*
X4121786Y-1199214D02*
X4121786Y-1256357D01*
X4236071Y-1199214D02*
X4236071Y-1256357D01*
X4678928Y-1613500D02*
X4664643Y-1599214D01*
X4636071Y-1556357D01*
X4621786Y-1527786D01*
X4607500Y-1484929D01*
X4593214Y-1413500D01*
X4593214Y-1356357D01*
X4607500Y-1284929D01*
X4621786Y-1242072D01*
X4636071Y-1213500D01*
X4664643Y-1170643D01*
X4678928Y-1156357D01*
X4950357Y-1499214D02*
X4778928Y-1499214D01*
X4864643Y-1499214D02*
X4864643Y-1199214D01*
X4836071Y-1242072D01*
X4807500Y-1270643D01*
X4778928Y-1284929D01*
X5136071Y-1199214D02*
X5164643Y-1199214D01*
X5193214Y-1213500D01*
X5207500Y-1227786D01*
X5221786Y-1256357D01*
X5236071Y-1313500D01*
X5236071Y-1384929D01*
X5221786Y-1442071D01*
X5207500Y-1470643D01*
X5193214Y-1484929D01*
X5164643Y-1499214D01*
X5136071Y-1499214D01*
X5107500Y-1484929D01*
X5093214Y-1470643D01*
X5078928Y-1442071D01*
X5064643Y-1384929D01*
X5064643Y-1313500D01*
X5078928Y-1256357D01*
X5093214Y-1227786D01*
X5107500Y-1213500D01*
X5136071Y-1199214D01*
X5336071Y-1199214D02*
X5521786Y-1199214D01*
X5421786Y-1313500D01*
X5464643Y-1313500D01*
X5493214Y-1327786D01*
X5507500Y-1342072D01*
X5521786Y-1370643D01*
X5521786Y-1442071D01*
X5507500Y-1470643D01*
X5493214Y-1484929D01*
X5464643Y-1499214D01*
X5378928Y-1499214D01*
X5350357Y-1484929D01*
X5336071Y-1470643D01*
X5878928Y-1499214D02*
X5878928Y-1199214D01*
X6007500Y-1499214D02*
X6007500Y-1342072D01*
X5993214Y-1313500D01*
X5964643Y-1299214D01*
X5921786Y-1299214D01*
X5893214Y-1313500D01*
X5878928Y-1327786D01*
X6193214Y-1499214D02*
X6164643Y-1484929D01*
X6150357Y-1470643D01*
X6136071Y-1442071D01*
X6136071Y-1356357D01*
X6150357Y-1327786D01*
X6164643Y-1313500D01*
X6193214Y-1299214D01*
X6236071Y-1299214D01*
X6264643Y-1313500D01*
X6278928Y-1327786D01*
X6293214Y-1356357D01*
X6293214Y-1442071D01*
X6278928Y-1470643D01*
X6264643Y-1484929D01*
X6236071Y-1499214D01*
X6193214Y-1499214D01*
X6464643Y-1499214D02*
X6436071Y-1484929D01*
X6421786Y-1456357D01*
X6421786Y-1199214D01*
X6693214Y-1484929D02*
X6664643Y-1499214D01*
X6607500Y-1499214D01*
X6578928Y-1484929D01*
X6564643Y-1456357D01*
X6564643Y-1342072D01*
X6578928Y-1313500D01*
X6607500Y-1299214D01*
X6664643Y-1299214D01*
X6693214Y-1313500D01*
X6707500Y-1342072D01*
X6707500Y-1370643D01*
X6564643Y-1399214D01*
X6821786Y-1484929D02*
X6850357Y-1499214D01*
X6907500Y-1499214D01*
X6936071Y-1484929D01*
X6950357Y-1456357D01*
X6950357Y-1442071D01*
X6936071Y-1413500D01*
X6907500Y-1399214D01*
X6864643Y-1399214D01*
X6836071Y-1384929D01*
X6821786Y-1356357D01*
X6821786Y-1342072D01*
X6836071Y-1313500D01*
X6864643Y-1299214D01*
X6907500Y-1299214D01*
X6936071Y-1313500D01*
X7050357Y-1613500D02*
X7064643Y-1599214D01*
X7093214Y-1556357D01*
X7107500Y-1527786D01*
X7121786Y-1484929D01*
X7136071Y-1413500D01*
X7136071Y-1356357D01*
X7121786Y-1284929D01*
X7107500Y-1242072D01*
X7093214Y-1213500D01*
X7064643Y-1170643D01*
X7050357Y-1156357D01*
X-48140Y-1718860D02*
X-48140Y-1800140D01*
X-88780Y-1759500D02*
X-7500Y-1759500D01*
X336071Y-1595214D02*
X364643Y-1595214D01*
X393214Y-1609500D01*
X407500Y-1623786D01*
X421786Y-1652357D01*
X436071Y-1709500D01*
X436071Y-1780929D01*
X421786Y-1838071D01*
X407500Y-1866643D01*
X393214Y-1880929D01*
X364643Y-1895214D01*
X336071Y-1895214D01*
X307500Y-1880929D01*
X293214Y-1866643D01*
X278928Y-1838071D01*
X264643Y-1780929D01*
X264643Y-1709500D01*
X278928Y-1652357D01*
X293214Y-1623786D01*
X307500Y-1609500D01*
X336071Y-1595214D01*
X564643Y-1866643D02*
X578928Y-1880929D01*
X564643Y-1895214D01*
X550357Y-1880929D01*
X564643Y-1866643D01*
X564643Y-1895214D01*
X750357Y-1723786D02*
X721786Y-1709500D01*
X707500Y-1695214D01*
X693214Y-1666643D01*
X693214Y-1652357D01*
X707500Y-1623786D01*
X721786Y-1609500D01*
X750357Y-1595214D01*
X807500Y-1595214D01*
X836071Y-1609500D01*
X850357Y-1623786D01*
X864643Y-1652357D01*
X864643Y-1666643D01*
X850357Y-1695214D01*
X836071Y-1709500D01*
X807500Y-1723786D01*
X750357Y-1723786D01*
X721786Y-1738071D01*
X707500Y-1752357D01*
X693214Y-1780929D01*
X693214Y-1838071D01*
X707500Y-1866643D01*
X721786Y-1880929D01*
X750357Y-1895214D01*
X807500Y-1895214D01*
X836071Y-1880929D01*
X850357Y-1866643D01*
X864643Y-1838071D01*
X864643Y-1780929D01*
X850357Y-1752357D01*
X836071Y-1738071D01*
X807500Y-1723786D01*
X1150357Y-1895214D02*
X978928Y-1895214D01*
X1064643Y-1895214D02*
X1064643Y-1595214D01*
X1036071Y-1638071D01*
X1007500Y-1666643D01*
X978928Y-1680929D01*
X1278928Y-1895214D02*
X1278928Y-1695214D01*
X1278928Y-1723786D02*
X1293214Y-1709500D01*
X1321786Y-1695214D01*
X1364643Y-1695214D01*
X1393214Y-1709500D01*
X1407500Y-1738071D01*
X1407500Y-1895214D01*
X1407500Y-1738071D02*
X1421786Y-1709500D01*
X1450357Y-1695214D01*
X1493214Y-1695214D01*
X1521786Y-1709500D01*
X1536071Y-1738071D01*
X1536071Y-1895214D01*
X1678928Y-1895214D02*
X1678928Y-1695214D01*
X1678928Y-1723786D02*
X1693214Y-1709500D01*
X1721786Y-1695214D01*
X1764643Y-1695214D01*
X1793214Y-1709500D01*
X1807500Y-1738071D01*
X1807500Y-1895214D01*
X1807500Y-1738071D02*
X1821786Y-1709500D01*
X1850357Y-1695214D01*
X1893214Y-1695214D01*
X1921786Y-1709500D01*
X1936071Y-1738071D01*
X1936071Y-1895214D01*
X2521786Y-1580929D02*
X2264643Y-1966643D01*
X2907500Y-1595214D02*
X2936071Y-1595214D01*
X2964643Y-1609500D01*
X2978928Y-1623786D01*
X2993214Y-1652357D01*
X3007500Y-1709500D01*
X3007500Y-1780929D01*
X2993214Y-1838071D01*
X2978928Y-1866643D01*
X2964643Y-1880929D01*
X2936071Y-1895214D01*
X2907500Y-1895214D01*
X2878928Y-1880929D01*
X2864643Y-1866643D01*
X2850357Y-1838071D01*
X2836071Y-1780929D01*
X2836071Y-1709500D01*
X2850357Y-1652357D01*
X2864643Y-1623786D01*
X2878928Y-1609500D01*
X2907500Y-1595214D01*
X3136071Y-1866643D02*
X3150357Y-1880929D01*
X3136071Y-1895214D01*
X3121786Y-1880929D01*
X3136071Y-1866643D01*
X3136071Y-1895214D01*
X3336071Y-1595214D02*
X3364643Y-1595214D01*
X3393214Y-1609500D01*
X3407500Y-1623786D01*
X3421786Y-1652357D01*
X3436071Y-1709500D01*
X3436071Y-1780929D01*
X3421786Y-1838071D01*
X3407500Y-1866643D01*
X3393214Y-1880929D01*
X3364643Y-1895214D01*
X3336071Y-1895214D01*
X3307500Y-1880929D01*
X3293214Y-1866643D01*
X3278928Y-1838071D01*
X3264643Y-1780929D01*
X3264643Y-1709500D01*
X3278928Y-1652357D01*
X3293214Y-1623786D01*
X3307500Y-1609500D01*
X3336071Y-1595214D01*
X3536071Y-1595214D02*
X3721786Y-1595214D01*
X3621786Y-1709500D01*
X3664643Y-1709500D01*
X3693214Y-1723786D01*
X3707500Y-1738071D01*
X3721786Y-1766643D01*
X3721786Y-1838071D01*
X3707500Y-1866643D01*
X3693214Y-1880929D01*
X3664643Y-1895214D01*
X3578928Y-1895214D01*
X3550357Y-1880929D01*
X3536071Y-1866643D01*
X3836071Y-1623786D02*
X3850357Y-1609500D01*
X3878928Y-1595214D01*
X3950357Y-1595214D01*
X3978928Y-1609500D01*
X3993214Y-1623786D01*
X4007500Y-1652357D01*
X4007500Y-1680929D01*
X3993214Y-1723786D01*
X3821786Y-1895214D01*
X4007500Y-1895214D01*
X4121786Y-1595214D02*
X4121786Y-1652357D01*
X4236071Y-1595214D02*
X4236071Y-1652357D01*
X4678928Y-2009500D02*
X4664643Y-1995214D01*
X4636071Y-1952357D01*
X4621786Y-1923786D01*
X4607500Y-1880929D01*
X4593214Y-1809500D01*
X4593214Y-1752357D01*
X4607500Y-1680929D01*
X4621786Y-1638071D01*
X4636071Y-1609500D01*
X4664643Y-1566643D01*
X4678928Y-1552357D01*
X4936071Y-1595214D02*
X4793214Y-1595214D01*
X4778928Y-1738071D01*
X4793214Y-1723786D01*
X4821786Y-1709500D01*
X4893214Y-1709500D01*
X4921786Y-1723786D01*
X4936071Y-1738071D01*
X4950357Y-1766643D01*
X4950357Y-1838071D01*
X4936071Y-1866643D01*
X4921786Y-1880929D01*
X4893214Y-1895214D01*
X4821786Y-1895214D01*
X4793214Y-1880929D01*
X4778928Y-1866643D01*
X5050357Y-1595214D02*
X5236071Y-1595214D01*
X5136071Y-1709500D01*
X5178928Y-1709500D01*
X5207500Y-1723786D01*
X5221786Y-1738071D01*
X5236071Y-1766643D01*
X5236071Y-1838071D01*
X5221786Y-1866643D01*
X5207500Y-1880929D01*
X5178928Y-1895214D01*
X5093214Y-1895214D01*
X5064643Y-1880929D01*
X5050357Y-1866643D01*
X5593214Y-1895214D02*
X5593214Y-1595214D01*
X5721786Y-1895214D02*
X5721786Y-1738071D01*
X5707500Y-1709500D01*
X5678928Y-1695214D01*
X5636071Y-1695214D01*
X5607500Y-1709500D01*
X5593214Y-1723786D01*
X5907500Y-1895214D02*
X5878928Y-1880929D01*
X5864643Y-1866643D01*
X5850357Y-1838071D01*
X5850357Y-1752357D01*
X5864643Y-1723786D01*
X5878928Y-1709500D01*
X5907500Y-1695214D01*
X5950357Y-1695214D01*
X5978928Y-1709500D01*
X5993214Y-1723786D01*
X6007500Y-1752357D01*
X6007500Y-1838071D01*
X5993214Y-1866643D01*
X5978928Y-1880929D01*
X5950357Y-1895214D01*
X5907500Y-1895214D01*
X6178928Y-1895214D02*
X6150357Y-1880929D01*
X6136071Y-1852357D01*
X6136071Y-1595214D01*
X6407500Y-1880929D02*
X6378928Y-1895214D01*
X6321786Y-1895214D01*
X6293214Y-1880929D01*
X6278928Y-1852357D01*
X6278928Y-1738071D01*
X6293214Y-1709500D01*
X6321786Y-1695214D01*
X6378928Y-1695214D01*
X6407500Y-1709500D01*
X6421786Y-1738071D01*
X6421786Y-1766643D01*
X6278928Y-1795214D01*
X6536071Y-1880929D02*
X6564643Y-1895214D01*
X6621786Y-1895214D01*
X6650357Y-1880929D01*
X6664643Y-1852357D01*
X6664643Y-1838071D01*
X6650357Y-1809500D01*
X6621786Y-1795214D01*
X6578928Y-1795214D01*
X6550357Y-1780929D01*
X6536071Y-1752357D01*
X6536071Y-1738071D01*
X6550357Y-1709500D01*
X6578928Y-1695214D01*
X6621786Y-1695214D01*
X6650357Y-1709500D01*
X6764643Y-2009500D02*
X6778928Y-1995214D01*
X6807500Y-1952357D01*
X6821786Y-1923786D01*
X6836071Y-1880929D01*
X6850357Y-1809500D01*
X6850357Y-1752357D01*
X6836071Y-1680929D01*
X6821786Y-1638071D01*
X6807500Y-1609500D01*
X6778928Y-1566643D01*
X6764643Y-1552357D01*
X-19801Y-2185199D02*
X-19801Y-2125801D01*
X-79199Y-2125801D01*
X-79199Y-2185199D01*
X-19801Y-2185199D01*
X336071Y-1991214D02*
X364643Y-1991214D01*
X393214Y-2005500D01*
X407500Y-2019786D01*
X421786Y-2048357D01*
X436071Y-2105500D01*
X436071Y-2176929D01*
X421786Y-2234072D01*
X407500Y-2262643D01*
X393214Y-2276929D01*
X364643Y-2291214D01*
X336071Y-2291214D01*
X307500Y-2276929D01*
X293214Y-2262643D01*
X278928Y-2234072D01*
X264643Y-2176929D01*
X264643Y-2105500D01*
X278928Y-2048357D01*
X293214Y-2019786D01*
X307500Y-2005500D01*
X336071Y-1991214D01*
X564643Y-2262643D02*
X578928Y-2276929D01*
X564643Y-2291214D01*
X550357Y-2276929D01*
X564643Y-2262643D01*
X564643Y-2291214D01*
X750357Y-2119786D02*
X721786Y-2105500D01*
X707500Y-2091214D01*
X693214Y-2062643D01*
X693214Y-2048357D01*
X707500Y-2019786D01*
X721786Y-2005500D01*
X750357Y-1991214D01*
X807500Y-1991214D01*
X836071Y-2005500D01*
X850357Y-2019786D01*
X864643Y-2048357D01*
X864643Y-2062643D01*
X850357Y-2091214D01*
X836071Y-2105500D01*
X807500Y-2119786D01*
X750357Y-2119786D01*
X721786Y-2134072D01*
X707500Y-2148357D01*
X693214Y-2176929D01*
X693214Y-2234072D01*
X707500Y-2262643D01*
X721786Y-2276929D01*
X750357Y-2291214D01*
X807500Y-2291214D01*
X836071Y-2276929D01*
X850357Y-2262643D01*
X864643Y-2234072D01*
X864643Y-2176929D01*
X850357Y-2148357D01*
X836071Y-2134072D01*
X807500Y-2119786D01*
X1121786Y-2091214D02*
X1121786Y-2291214D01*
X1050357Y-1976929D02*
X978928Y-2191214D01*
X1164643Y-2191214D01*
X1278928Y-2291214D02*
X1278928Y-2091214D01*
X1278928Y-2119786D02*
X1293214Y-2105500D01*
X1321786Y-2091214D01*
X1364643Y-2091214D01*
X1393214Y-2105500D01*
X1407500Y-2134072D01*
X1407500Y-2291214D01*
X1407500Y-2134072D02*
X1421786Y-2105500D01*
X1450357Y-2091214D01*
X1493214Y-2091214D01*
X1521786Y-2105500D01*
X1536071Y-2134072D01*
X1536071Y-2291214D01*
X1678928Y-2291214D02*
X1678928Y-2091214D01*
X1678928Y-2119786D02*
X1693214Y-2105500D01*
X1721786Y-2091214D01*
X1764643Y-2091214D01*
X1793214Y-2105500D01*
X1807500Y-2134072D01*
X1807500Y-2291214D01*
X1807500Y-2134072D02*
X1821786Y-2105500D01*
X1850357Y-2091214D01*
X1893214Y-2091214D01*
X1921786Y-2105500D01*
X1936071Y-2134072D01*
X1936071Y-2291214D01*
X2521786Y-1976929D02*
X2264643Y-2362643D01*
X2907500Y-1991214D02*
X2936071Y-1991214D01*
X2964643Y-2005500D01*
X2978928Y-2019786D01*
X2993214Y-2048357D01*
X3007500Y-2105500D01*
X3007500Y-2176929D01*
X2993214Y-2234072D01*
X2978928Y-2262643D01*
X2964643Y-2276929D01*
X2936071Y-2291214D01*
X2907500Y-2291214D01*
X2878928Y-2276929D01*
X2864643Y-2262643D01*
X2850357Y-2234072D01*
X2836071Y-2176929D01*
X2836071Y-2105500D01*
X2850357Y-2048357D01*
X2864643Y-2019786D01*
X2878928Y-2005500D01*
X2907500Y-1991214D01*
X3136071Y-2262643D02*
X3150357Y-2276929D01*
X3136071Y-2291214D01*
X3121786Y-2276929D01*
X3136071Y-2262643D01*
X3136071Y-2291214D01*
X3336071Y-1991214D02*
X3364643Y-1991214D01*
X3393214Y-2005500D01*
X3407500Y-2019786D01*
X3421786Y-2048357D01*
X3436071Y-2105500D01*
X3436071Y-2176929D01*
X3421786Y-2234072D01*
X3407500Y-2262643D01*
X3393214Y-2276929D01*
X3364643Y-2291214D01*
X3336071Y-2291214D01*
X3307500Y-2276929D01*
X3293214Y-2262643D01*
X3278928Y-2234072D01*
X3264643Y-2176929D01*
X3264643Y-2105500D01*
X3278928Y-2048357D01*
X3293214Y-2019786D01*
X3307500Y-2005500D01*
X3336071Y-1991214D01*
X3536071Y-1991214D02*
X3721786Y-1991214D01*
X3621786Y-2105500D01*
X3664643Y-2105500D01*
X3693214Y-2119786D01*
X3707500Y-2134072D01*
X3721786Y-2162643D01*
X3721786Y-2234072D01*
X3707500Y-2262643D01*
X3693214Y-2276929D01*
X3664643Y-2291214D01*
X3578928Y-2291214D01*
X3550357Y-2276929D01*
X3536071Y-2262643D01*
X3821786Y-1991214D02*
X4007500Y-1991214D01*
X3907500Y-2105500D01*
X3950357Y-2105500D01*
X3978928Y-2119786D01*
X3993214Y-2134072D01*
X4007500Y-2162643D01*
X4007500Y-2234072D01*
X3993214Y-2262643D01*
X3978928Y-2276929D01*
X3950357Y-2291214D01*
X3864643Y-2291214D01*
X3836071Y-2276929D01*
X3821786Y-2262643D01*
X4121786Y-1991214D02*
X4121786Y-2048357D01*
X4236071Y-1991214D02*
X4236071Y-2048357D01*
X4678928Y-2405500D02*
X4664643Y-2391214D01*
X4636071Y-2348357D01*
X4621786Y-2319786D01*
X4607500Y-2276929D01*
X4593214Y-2205500D01*
X4593214Y-2148357D01*
X4607500Y-2076929D01*
X4621786Y-2034071D01*
X4636071Y-2005500D01*
X4664643Y-1962643D01*
X4678928Y-1948357D01*
X4778928Y-2019786D02*
X4793214Y-2005500D01*
X4821786Y-1991214D01*
X4893214Y-1991214D01*
X4921786Y-2005500D01*
X4936071Y-2019786D01*
X4950357Y-2048357D01*
X4950357Y-2076929D01*
X4936071Y-2119786D01*
X4764643Y-2291214D01*
X4950357Y-2291214D01*
X5307500Y-2291214D02*
X5307500Y-1991214D01*
X5436071Y-2291214D02*
X5436071Y-2134072D01*
X5421786Y-2105500D01*
X5393214Y-2091214D01*
X5350357Y-2091214D01*
X5321786Y-2105500D01*
X5307500Y-2119786D01*
X5621786Y-2291214D02*
X5593214Y-2276929D01*
X5578928Y-2262643D01*
X5564643Y-2234072D01*
X5564643Y-2148357D01*
X5578928Y-2119786D01*
X5593214Y-2105500D01*
X5621786Y-2091214D01*
X5664643Y-2091214D01*
X5693214Y-2105500D01*
X5707500Y-2119786D01*
X5721786Y-2148357D01*
X5721786Y-2234072D01*
X5707500Y-2262643D01*
X5693214Y-2276929D01*
X5664643Y-2291214D01*
X5621786Y-2291214D01*
X5893214Y-2291214D02*
X5864643Y-2276929D01*
X5850357Y-2248357D01*
X5850357Y-1991214D01*
X6121786Y-2276929D02*
X6093214Y-2291214D01*
X6036071Y-2291214D01*
X6007500Y-2276929D01*
X5993214Y-2248357D01*
X5993214Y-2134072D01*
X6007500Y-2105500D01*
X6036071Y-2091214D01*
X6093214Y-2091214D01*
X6121786Y-2105500D01*
X6136071Y-2134072D01*
X6136071Y-2162643D01*
X5993214Y-2191214D01*
X6250357Y-2276929D02*
X6278928Y-2291214D01*
X6336071Y-2291214D01*
X6364643Y-2276929D01*
X6378928Y-2248357D01*
X6378928Y-2234072D01*
X6364643Y-2205500D01*
X6336071Y-2191214D01*
X6293214Y-2191214D01*
X6264643Y-2176929D01*
X6250357Y-2148357D01*
X6250357Y-2134072D01*
X6264643Y-2105500D01*
X6293214Y-2091214D01*
X6336071Y-2091214D01*
X6364643Y-2105500D01*
X6478928Y-2405500D02*
X6493214Y-2391214D01*
X6521786Y-2348357D01*
X6536071Y-2319786D01*
X6550357Y-2276929D01*
X6564643Y-2205500D01*
X6564643Y-2148357D01*
X6550357Y-2076929D01*
X6536071Y-2034071D01*
X6521786Y-2005500D01*
X6493214Y-1962643D01*
X6478928Y-1948357D01*
X-67000Y-2611000D02*
X-7500Y-2551500D01*
X-67000Y-2492000D01*
X-126500Y-2551500D01*
X-67000Y-2611000D01*
X436071Y-2687214D02*
X264643Y-2687214D01*
X350357Y-2687214D02*
X350357Y-2387214D01*
X321786Y-2430072D01*
X293214Y-2458643D01*
X264643Y-2472929D01*
X564643Y-2658643D02*
X578928Y-2672929D01*
X564643Y-2687214D01*
X550357Y-2672929D01*
X564643Y-2658643D01*
X564643Y-2687214D01*
X864643Y-2687214D02*
X693214Y-2687214D01*
X778928Y-2687214D02*
X778928Y-2387214D01*
X750357Y-2430072D01*
X721786Y-2458643D01*
X693214Y-2472929D01*
X1007500Y-2687214D02*
X1064643Y-2687214D01*
X1093214Y-2672929D01*
X1107500Y-2658643D01*
X1136071Y-2615786D01*
X1150357Y-2558643D01*
X1150357Y-2444357D01*
X1136071Y-2415786D01*
X1121786Y-2401500D01*
X1093214Y-2387214D01*
X1036071Y-2387214D01*
X1007500Y-2401500D01*
X993214Y-2415786D01*
X978928Y-2444357D01*
X978928Y-2515786D01*
X993214Y-2544357D01*
X1007500Y-2558643D01*
X1036071Y-2572929D01*
X1093214Y-2572929D01*
X1121786Y-2558643D01*
X1136071Y-2544357D01*
X1150357Y-2515786D01*
X1278928Y-2687214D02*
X1278928Y-2487214D01*
X1278928Y-2515786D02*
X1293214Y-2501500D01*
X1321786Y-2487214D01*
X1364643Y-2487214D01*
X1393214Y-2501500D01*
X1407500Y-2530072D01*
X1407500Y-2687214D01*
X1407500Y-2530072D02*
X1421786Y-2501500D01*
X1450357Y-2487214D01*
X1493214Y-2487214D01*
X1521786Y-2501500D01*
X1536071Y-2530072D01*
X1536071Y-2687214D01*
X1678928Y-2687214D02*
X1678928Y-2487214D01*
X1678928Y-2515786D02*
X1693214Y-2501500D01*
X1721786Y-2487214D01*
X1764643Y-2487214D01*
X1793214Y-2501500D01*
X1807500Y-2530072D01*
X1807500Y-2687214D01*
X1807500Y-2530072D02*
X1821786Y-2501500D01*
X1850357Y-2487214D01*
X1893214Y-2487214D01*
X1921786Y-2501500D01*
X1936071Y-2530072D01*
X1936071Y-2687214D01*
X2521786Y-2372929D02*
X2264643Y-2758643D01*
X2907500Y-2387214D02*
X2936071Y-2387214D01*
X2964643Y-2401500D01*
X2978928Y-2415786D01*
X2993214Y-2444357D01*
X3007500Y-2501500D01*
X3007500Y-2572929D01*
X2993214Y-2630072D01*
X2978928Y-2658643D01*
X2964643Y-2672929D01*
X2936071Y-2687214D01*
X2907500Y-2687214D01*
X2878928Y-2672929D01*
X2864643Y-2658643D01*
X2850357Y-2630072D01*
X2836071Y-2572929D01*
X2836071Y-2501500D01*
X2850357Y-2444357D01*
X2864643Y-2415786D01*
X2878928Y-2401500D01*
X2907500Y-2387214D01*
X3136071Y-2658643D02*
X3150357Y-2672929D01*
X3136071Y-2687214D01*
X3121786Y-2672929D01*
X3136071Y-2658643D01*
X3136071Y-2687214D01*
X3336071Y-2387214D02*
X3364643Y-2387214D01*
X3393214Y-2401500D01*
X3407500Y-2415786D01*
X3421786Y-2444357D01*
X3436071Y-2501500D01*
X3436071Y-2572929D01*
X3421786Y-2630072D01*
X3407500Y-2658643D01*
X3393214Y-2672929D01*
X3364643Y-2687214D01*
X3336071Y-2687214D01*
X3307500Y-2672929D01*
X3293214Y-2658643D01*
X3278928Y-2630072D01*
X3264643Y-2572929D01*
X3264643Y-2501500D01*
X3278928Y-2444357D01*
X3293214Y-2415786D01*
X3307500Y-2401500D01*
X3336071Y-2387214D01*
X3693214Y-2487214D02*
X3693214Y-2687214D01*
X3621786Y-2372929D02*
X3550357Y-2587214D01*
X3736071Y-2587214D01*
X3821786Y-2387214D02*
X4021786Y-2387214D01*
X3893214Y-2687214D01*
X4121786Y-2387214D02*
X4121786Y-2444357D01*
X4236071Y-2387214D02*
X4236071Y-2444357D01*
X4678928Y-2801500D02*
X4664643Y-2787214D01*
X4636071Y-2744357D01*
X4621786Y-2715786D01*
X4607500Y-2672929D01*
X4593214Y-2601500D01*
X4593214Y-2544357D01*
X4607500Y-2472929D01*
X4621786Y-2430072D01*
X4636071Y-2401500D01*
X4664643Y-2358643D01*
X4678928Y-2344357D01*
X4778928Y-2415786D02*
X4793214Y-2401500D01*
X4821786Y-2387214D01*
X4893214Y-2387214D01*
X4921786Y-2401500D01*
X4936071Y-2415786D01*
X4950357Y-2444357D01*
X4950357Y-2472929D01*
X4936071Y-2515786D01*
X4764643Y-2687214D01*
X4950357Y-2687214D01*
X5307500Y-2687214D02*
X5307500Y-2387214D01*
X5436071Y-2687214D02*
X5436071Y-2530072D01*
X5421786Y-2501500D01*
X5393214Y-2487214D01*
X5350357Y-2487214D01*
X5321786Y-2501500D01*
X5307500Y-2515786D01*
X5621786Y-2687214D02*
X5593214Y-2672929D01*
X5578928Y-2658643D01*
X5564643Y-2630072D01*
X5564643Y-2544357D01*
X5578928Y-2515786D01*
X5593214Y-2501500D01*
X5621786Y-2487214D01*
X5664643Y-2487214D01*
X5693214Y-2501500D01*
X5707500Y-2515786D01*
X5721786Y-2544357D01*
X5721786Y-2630072D01*
X5707500Y-2658643D01*
X5693214Y-2672929D01*
X5664643Y-2687214D01*
X5621786Y-2687214D01*
X5893214Y-2687214D02*
X5864643Y-2672929D01*
X5850357Y-2644357D01*
X5850357Y-2387214D01*
X6121786Y-2672929D02*
X6093214Y-2687214D01*
X6036071Y-2687214D01*
X6007500Y-2672929D01*
X5993214Y-2644357D01*
X5993214Y-2530072D01*
X6007500Y-2501500D01*
X6036071Y-2487214D01*
X6093214Y-2487214D01*
X6121786Y-2501500D01*
X6136071Y-2530072D01*
X6136071Y-2558643D01*
X5993214Y-2587214D01*
X6250357Y-2672929D02*
X6278928Y-2687214D01*
X6336071Y-2687214D01*
X6364643Y-2672929D01*
X6378928Y-2644357D01*
X6378928Y-2630072D01*
X6364643Y-2601500D01*
X6336071Y-2587214D01*
X6293214Y-2587214D01*
X6264643Y-2572929D01*
X6250357Y-2544357D01*
X6250357Y-2530072D01*
X6264643Y-2501500D01*
X6293214Y-2487214D01*
X6336071Y-2487214D01*
X6364643Y-2501500D01*
X6478928Y-2801500D02*
X6493214Y-2787214D01*
X6521786Y-2744357D01*
X6536071Y-2715786D01*
X6550357Y-2672929D01*
X6564643Y-2601500D01*
X6564643Y-2544357D01*
X6550357Y-2472929D01*
X6536071Y-2430072D01*
X6521786Y-2401500D01*
X6493214Y-2358643D01*
X6478928Y-2344357D01*
X-198000Y-2852250D02*
X-7500Y-3042750D01*
X-7500Y-2852250D02*
X-198000Y-3042750D01*
X-7500Y-2947500D02*
G75*
G03*
X-7500Y-2947500I-95250J0D01*
G01*
X436071Y-3083214D02*
X264643Y-3083214D01*
X350357Y-3083214D02*
X350357Y-2783214D01*
X321786Y-2826071D01*
X293214Y-2854643D01*
X264643Y-2868929D01*
X564643Y-3054643D02*
X578928Y-3068929D01*
X564643Y-3083214D01*
X550357Y-3068929D01*
X564643Y-3054643D01*
X564643Y-3083214D01*
X721786Y-3083214D02*
X778928Y-3083214D01*
X807500Y-3068929D01*
X821786Y-3054643D01*
X850357Y-3011786D01*
X864643Y-2954643D01*
X864643Y-2840357D01*
X850357Y-2811786D01*
X836071Y-2797500D01*
X807500Y-2783214D01*
X750357Y-2783214D01*
X721786Y-2797500D01*
X707500Y-2811786D01*
X693214Y-2840357D01*
X693214Y-2911786D01*
X707500Y-2940357D01*
X721786Y-2954643D01*
X750357Y-2968929D01*
X807500Y-2968929D01*
X836071Y-2954643D01*
X850357Y-2940357D01*
X864643Y-2911786D01*
X1150357Y-3083214D02*
X978928Y-3083214D01*
X1064643Y-3083214D02*
X1064643Y-2783214D01*
X1036071Y-2826071D01*
X1007500Y-2854643D01*
X978928Y-2868929D01*
X1278928Y-3083214D02*
X1278928Y-2883214D01*
X1278928Y-2911786D02*
X1293214Y-2897500D01*
X1321786Y-2883214D01*
X1364643Y-2883214D01*
X1393214Y-2897500D01*
X1407500Y-2926071D01*
X1407500Y-3083214D01*
X1407500Y-2926071D02*
X1421786Y-2897500D01*
X1450357Y-2883214D01*
X1493214Y-2883214D01*
X1521786Y-2897500D01*
X1536071Y-2926071D01*
X1536071Y-3083214D01*
X1678928Y-3083214D02*
X1678928Y-2883214D01*
X1678928Y-2911786D02*
X1693214Y-2897500D01*
X1721786Y-2883214D01*
X1764643Y-2883214D01*
X1793214Y-2897500D01*
X1807500Y-2926071D01*
X1807500Y-3083214D01*
X1807500Y-2926071D02*
X1821786Y-2897500D01*
X1850357Y-2883214D01*
X1893214Y-2883214D01*
X1921786Y-2897500D01*
X1936071Y-2926071D01*
X1936071Y-3083214D01*
X2521786Y-2768929D02*
X2264643Y-3154643D01*
X2907500Y-2783214D02*
X2936071Y-2783214D01*
X2964643Y-2797500D01*
X2978928Y-2811786D01*
X2993214Y-2840357D01*
X3007500Y-2897500D01*
X3007500Y-2968929D01*
X2993214Y-3026071D01*
X2978928Y-3054643D01*
X2964643Y-3068929D01*
X2936071Y-3083214D01*
X2907500Y-3083214D01*
X2878928Y-3068929D01*
X2864643Y-3054643D01*
X2850357Y-3026071D01*
X2836071Y-2968929D01*
X2836071Y-2897500D01*
X2850357Y-2840357D01*
X2864643Y-2811786D01*
X2878928Y-2797500D01*
X2907500Y-2783214D01*
X3136071Y-3054643D02*
X3150357Y-3068929D01*
X3136071Y-3083214D01*
X3121786Y-3068929D01*
X3136071Y-3054643D01*
X3136071Y-3083214D01*
X3336071Y-2783214D02*
X3364643Y-2783214D01*
X3393214Y-2797500D01*
X3407500Y-2811786D01*
X3421786Y-2840357D01*
X3436071Y-2897500D01*
X3436071Y-2968929D01*
X3421786Y-3026071D01*
X3407500Y-3054643D01*
X3393214Y-3068929D01*
X3364643Y-3083214D01*
X3336071Y-3083214D01*
X3307500Y-3068929D01*
X3293214Y-3054643D01*
X3278928Y-3026071D01*
X3264643Y-2968929D01*
X3264643Y-2897500D01*
X3278928Y-2840357D01*
X3293214Y-2811786D01*
X3307500Y-2797500D01*
X3336071Y-2783214D01*
X3536071Y-2783214D02*
X3736071Y-2783214D01*
X3607500Y-3083214D01*
X3993214Y-2783214D02*
X3850357Y-2783214D01*
X3836071Y-2926071D01*
X3850357Y-2911786D01*
X3878928Y-2897500D01*
X3950357Y-2897500D01*
X3978928Y-2911786D01*
X3993214Y-2926071D01*
X4007500Y-2954643D01*
X4007500Y-3026071D01*
X3993214Y-3054643D01*
X3978928Y-3068929D01*
X3950357Y-3083214D01*
X3878928Y-3083214D01*
X3850357Y-3068929D01*
X3836071Y-3054643D01*
X4121786Y-2783214D02*
X4121786Y-2840357D01*
X4236071Y-2783214D02*
X4236071Y-2840357D01*
X4678928Y-3197500D02*
X4664643Y-3183214D01*
X4636071Y-3140357D01*
X4621786Y-3111786D01*
X4607500Y-3068929D01*
X4593214Y-2997500D01*
X4593214Y-2940357D01*
X4607500Y-2868929D01*
X4621786Y-2826071D01*
X4636071Y-2797500D01*
X4664643Y-2754643D01*
X4678928Y-2740357D01*
X4921786Y-2883214D02*
X4921786Y-3083214D01*
X4850357Y-2768929D02*
X4778928Y-2983214D01*
X4964643Y-2983214D01*
X5307500Y-3083214D02*
X5307500Y-2783214D01*
X5436071Y-3083214D02*
X5436071Y-2926071D01*
X5421786Y-2897500D01*
X5393214Y-2883214D01*
X5350357Y-2883214D01*
X5321786Y-2897500D01*
X5307500Y-2911786D01*
X5621786Y-3083214D02*
X5593214Y-3068929D01*
X5578928Y-3054643D01*
X5564643Y-3026071D01*
X5564643Y-2940357D01*
X5578928Y-2911786D01*
X5593214Y-2897500D01*
X5621786Y-2883214D01*
X5664643Y-2883214D01*
X5693214Y-2897500D01*
X5707500Y-2911786D01*
X5721786Y-2940357D01*
X5721786Y-3026071D01*
X5707500Y-3054643D01*
X5693214Y-3068929D01*
X5664643Y-3083214D01*
X5621786Y-3083214D01*
X5893214Y-3083214D02*
X5864643Y-3068929D01*
X5850357Y-3040357D01*
X5850357Y-2783214D01*
X6121786Y-3068929D02*
X6093214Y-3083214D01*
X6036071Y-3083214D01*
X6007500Y-3068929D01*
X5993214Y-3040357D01*
X5993214Y-2926071D01*
X6007500Y-2897500D01*
X6036071Y-2883214D01*
X6093214Y-2883214D01*
X6121786Y-2897500D01*
X6136071Y-2926071D01*
X6136071Y-2954643D01*
X5993214Y-2983214D01*
X6250357Y-3068929D02*
X6278928Y-3083214D01*
X6336071Y-3083214D01*
X6364643Y-3068929D01*
X6378928Y-3040357D01*
X6378928Y-3026071D01*
X6364643Y-2997500D01*
X6336071Y-2983214D01*
X6293214Y-2983214D01*
X6264643Y-2968929D01*
X6250357Y-2940357D01*
X6250357Y-2926071D01*
X6264643Y-2897500D01*
X6293214Y-2883214D01*
X6336071Y-2883214D01*
X6364643Y-2897500D01*
X6478928Y-3197500D02*
X6493214Y-3183214D01*
X6521786Y-3140357D01*
X6536071Y-3111786D01*
X6550357Y-3068929D01*
X6564643Y-2997500D01*
X6564643Y-2940357D01*
X6550357Y-2868929D01*
X6536071Y-2826071D01*
X6521786Y-2797500D01*
X6493214Y-2754643D01*
X6478928Y-2740357D01*
X-617500Y-3038500D02*
X-7500Y-3648500D01*
X-7500Y-3038500D02*
X-617500Y-3648500D01*
X-312500Y-3038500D02*
X-312500Y-3648500D01*
X-617500Y-3343500D02*
X-7500Y-3343500D01*
X407500Y-3179214D02*
X350357Y-3179214D01*
X321786Y-3193500D01*
X307500Y-3207786D01*
X278928Y-3250643D01*
X264643Y-3307786D01*
X264643Y-3422071D01*
X278928Y-3450643D01*
X293214Y-3464929D01*
X321786Y-3479214D01*
X378928Y-3479214D01*
X407500Y-3464929D01*
X421786Y-3450643D01*
X436071Y-3422071D01*
X436071Y-3350643D01*
X421786Y-3322071D01*
X407500Y-3307786D01*
X378928Y-3293500D01*
X321786Y-3293500D01*
X293214Y-3307786D01*
X278928Y-3322071D01*
X264643Y-3350643D01*
X564643Y-3450643D02*
X578928Y-3464929D01*
X564643Y-3479214D01*
X550357Y-3464929D01*
X564643Y-3450643D01*
X564643Y-3479214D01*
X864643Y-3479214D02*
X693214Y-3479214D01*
X778928Y-3479214D02*
X778928Y-3179214D01*
X750357Y-3222071D01*
X721786Y-3250643D01*
X693214Y-3264929D01*
X1050357Y-3179214D02*
X1078928Y-3179214D01*
X1107500Y-3193500D01*
X1121786Y-3207786D01*
X1136071Y-3236357D01*
X1150357Y-3293500D01*
X1150357Y-3364929D01*
X1136071Y-3422071D01*
X1121786Y-3450643D01*
X1107500Y-3464929D01*
X1078928Y-3479214D01*
X1050357Y-3479214D01*
X1021786Y-3464929D01*
X1007500Y-3450643D01*
X993214Y-3422071D01*
X978928Y-3364929D01*
X978928Y-3293500D01*
X993214Y-3236357D01*
X1007500Y-3207786D01*
X1021786Y-3193500D01*
X1050357Y-3179214D01*
X1278928Y-3479214D02*
X1278928Y-3279214D01*
X1278928Y-3307786D02*
X1293214Y-3293500D01*
X1321786Y-3279214D01*
X1364643Y-3279214D01*
X1393214Y-3293500D01*
X1407500Y-3322071D01*
X1407500Y-3479214D01*
X1407500Y-3322071D02*
X1421786Y-3293500D01*
X1450357Y-3279214D01*
X1493214Y-3279214D01*
X1521786Y-3293500D01*
X1536071Y-3322071D01*
X1536071Y-3479214D01*
X1678928Y-3479214D02*
X1678928Y-3279214D01*
X1678928Y-3307786D02*
X1693214Y-3293500D01*
X1721786Y-3279214D01*
X1764643Y-3279214D01*
X1793214Y-3293500D01*
X1807500Y-3322071D01*
X1807500Y-3479214D01*
X1807500Y-3322071D02*
X1821786Y-3293500D01*
X1850357Y-3279214D01*
X1893214Y-3279214D01*
X1921786Y-3293500D01*
X1936071Y-3322071D01*
X1936071Y-3479214D01*
X2521786Y-3164929D02*
X2264643Y-3550643D01*
X2907500Y-3179214D02*
X2936071Y-3179214D01*
X2964643Y-3193500D01*
X2978928Y-3207786D01*
X2993214Y-3236357D01*
X3007500Y-3293500D01*
X3007500Y-3364929D01*
X2993214Y-3422071D01*
X2978928Y-3450643D01*
X2964643Y-3464929D01*
X2936071Y-3479214D01*
X2907500Y-3479214D01*
X2878928Y-3464929D01*
X2864643Y-3450643D01*
X2850357Y-3422071D01*
X2836071Y-3364929D01*
X2836071Y-3293500D01*
X2850357Y-3236357D01*
X2864643Y-3207786D01*
X2878928Y-3193500D01*
X2907500Y-3179214D01*
X3136071Y-3450643D02*
X3150357Y-3464929D01*
X3136071Y-3479214D01*
X3121786Y-3464929D01*
X3136071Y-3450643D01*
X3136071Y-3479214D01*
X3264643Y-3207786D02*
X3278928Y-3193500D01*
X3307500Y-3179214D01*
X3378928Y-3179214D01*
X3407500Y-3193500D01*
X3421786Y-3207786D01*
X3436071Y-3236357D01*
X3436071Y-3264929D01*
X3421786Y-3307786D01*
X3250357Y-3479214D01*
X3436071Y-3479214D01*
X3693214Y-3279214D02*
X3693214Y-3479214D01*
X3621786Y-3164929D02*
X3550357Y-3379214D01*
X3736071Y-3379214D01*
X3907500Y-3179214D02*
X3936071Y-3179214D01*
X3964643Y-3193500D01*
X3978928Y-3207786D01*
X3993214Y-3236357D01*
X4007500Y-3293500D01*
X4007500Y-3364929D01*
X3993214Y-3422071D01*
X3978928Y-3450643D01*
X3964643Y-3464929D01*
X3936071Y-3479214D01*
X3907500Y-3479214D01*
X3878928Y-3464929D01*
X3864643Y-3450643D01*
X3850357Y-3422071D01*
X3836071Y-3364929D01*
X3836071Y-3293500D01*
X3850357Y-3236357D01*
X3864643Y-3207786D01*
X3878928Y-3193500D01*
X3907500Y-3179214D01*
X4121786Y-3179214D02*
X4121786Y-3236357D01*
X4236071Y-3179214D02*
X4236071Y-3236357D01*
X4678928Y-3593500D02*
X4664643Y-3579214D01*
X4636071Y-3536357D01*
X4621786Y-3507786D01*
X4607500Y-3464929D01*
X4593214Y-3393500D01*
X4593214Y-3336357D01*
X4607500Y-3264929D01*
X4621786Y-3222071D01*
X4636071Y-3193500D01*
X4664643Y-3150643D01*
X4678928Y-3136357D01*
X4921786Y-3279214D02*
X4921786Y-3479214D01*
X4850357Y-3164929D02*
X4778928Y-3379214D01*
X4964643Y-3379214D01*
X5307500Y-3479214D02*
X5307500Y-3179214D01*
X5436071Y-3479214D02*
X5436071Y-3322071D01*
X5421786Y-3293500D01*
X5393214Y-3279214D01*
X5350357Y-3279214D01*
X5321786Y-3293500D01*
X5307500Y-3307786D01*
X5621786Y-3479214D02*
X5593214Y-3464929D01*
X5578928Y-3450643D01*
X5564643Y-3422071D01*
X5564643Y-3336357D01*
X5578928Y-3307786D01*
X5593214Y-3293500D01*
X5621786Y-3279214D01*
X5664643Y-3279214D01*
X5693214Y-3293500D01*
X5707500Y-3307786D01*
X5721786Y-3336357D01*
X5721786Y-3422071D01*
X5707500Y-3450643D01*
X5693214Y-3464929D01*
X5664643Y-3479214D01*
X5621786Y-3479214D01*
X5893214Y-3479214D02*
X5864643Y-3464929D01*
X5850357Y-3436357D01*
X5850357Y-3179214D01*
X6121786Y-3464929D02*
X6093214Y-3479214D01*
X6036071Y-3479214D01*
X6007500Y-3464929D01*
X5993214Y-3436357D01*
X5993214Y-3322071D01*
X6007500Y-3293500D01*
X6036071Y-3279214D01*
X6093214Y-3279214D01*
X6121786Y-3293500D01*
X6136071Y-3322071D01*
X6136071Y-3350643D01*
X5993214Y-3379214D01*
X6250357Y-3464929D02*
X6278928Y-3479214D01*
X6336071Y-3479214D01*
X6364643Y-3464929D01*
X6378928Y-3436357D01*
X6378928Y-3422071D01*
X6364643Y-3393500D01*
X6336071Y-3379214D01*
X6293214Y-3379214D01*
X6264643Y-3364929D01*
X6250357Y-3336357D01*
X6250357Y-3322071D01*
X6264643Y-3293500D01*
X6293214Y-3279214D01*
X6336071Y-3279214D01*
X6364643Y-3293500D01*
X6478928Y-3593500D02*
X6493214Y-3579214D01*
X6521786Y-3536357D01*
X6536071Y-3507786D01*
X6550357Y-3464929D01*
X6564643Y-3393500D01*
X6564643Y-3336357D01*
X6550357Y-3264929D01*
X6536071Y-3222071D01*
X6521786Y-3193500D01*
X6493214Y-3150643D01*
X6478928Y-3136357D01*
X-119500Y-4027500D02*
X-7500Y-4139500D01*
X-7500Y-4027500D02*
X-119500Y-4139500D01*
X-23902Y-4123098D02*
X-23902Y-4043902D01*
X-103098Y-4043902D01*
X-103098Y-4123098D01*
X-23902Y-4123098D01*
X436071Y-4219214D02*
X264643Y-4219214D01*
X350357Y-4219214D02*
X350357Y-3919214D01*
X321786Y-3962071D01*
X293214Y-3990643D01*
X264643Y-4004929D01*
X564643Y-4190643D02*
X578928Y-4204929D01*
X564643Y-4219214D01*
X550357Y-4204929D01*
X564643Y-4190643D01*
X564643Y-4219214D01*
X864643Y-4219214D02*
X693214Y-4219214D01*
X778928Y-4219214D02*
X778928Y-3919214D01*
X750357Y-3962071D01*
X721786Y-3990643D01*
X693214Y-4004929D01*
X978928Y-3947786D02*
X993214Y-3933500D01*
X1021786Y-3919214D01*
X1093214Y-3919214D01*
X1121786Y-3933500D01*
X1136071Y-3947786D01*
X1150357Y-3976357D01*
X1150357Y-4004929D01*
X1136071Y-4047786D01*
X964643Y-4219214D01*
X1150357Y-4219214D01*
X1278928Y-4219214D02*
X1278928Y-4019214D01*
X1278928Y-4047786D02*
X1293214Y-4033500D01*
X1321786Y-4019214D01*
X1364643Y-4019214D01*
X1393214Y-4033500D01*
X1407500Y-4062071D01*
X1407500Y-4219214D01*
X1407500Y-4062071D02*
X1421786Y-4033500D01*
X1450357Y-4019214D01*
X1493214Y-4019214D01*
X1521786Y-4033500D01*
X1536071Y-4062071D01*
X1536071Y-4219214D01*
X1678928Y-4219214D02*
X1678928Y-4019214D01*
X1678928Y-4047786D02*
X1693214Y-4033500D01*
X1721786Y-4019214D01*
X1764643Y-4019214D01*
X1793214Y-4033500D01*
X1807500Y-4062071D01*
X1807500Y-4219214D01*
X1807500Y-4062071D02*
X1821786Y-4033500D01*
X1850357Y-4019214D01*
X1893214Y-4019214D01*
X1921786Y-4033500D01*
X1936071Y-4062071D01*
X1936071Y-4219214D01*
X2521786Y-3904929D02*
X2264643Y-4290643D01*
X2907500Y-3919214D02*
X2936071Y-3919214D01*
X2964643Y-3933500D01*
X2978928Y-3947786D01*
X2993214Y-3976357D01*
X3007500Y-4033500D01*
X3007500Y-4104929D01*
X2993214Y-4162071D01*
X2978928Y-4190643D01*
X2964643Y-4204929D01*
X2936071Y-4219214D01*
X2907500Y-4219214D01*
X2878928Y-4204929D01*
X2864643Y-4190643D01*
X2850357Y-4162071D01*
X2836071Y-4104929D01*
X2836071Y-4033500D01*
X2850357Y-3976357D01*
X2864643Y-3947786D01*
X2878928Y-3933500D01*
X2907500Y-3919214D01*
X3136071Y-4190643D02*
X3150357Y-4204929D01*
X3136071Y-4219214D01*
X3121786Y-4204929D01*
X3136071Y-4190643D01*
X3136071Y-4219214D01*
X3336071Y-3919214D02*
X3364643Y-3919214D01*
X3393214Y-3933500D01*
X3407500Y-3947786D01*
X3421786Y-3976357D01*
X3436071Y-4033500D01*
X3436071Y-4104929D01*
X3421786Y-4162071D01*
X3407500Y-4190643D01*
X3393214Y-4204929D01*
X3364643Y-4219214D01*
X3336071Y-4219214D01*
X3307500Y-4204929D01*
X3293214Y-4190643D01*
X3278928Y-4162071D01*
X3264643Y-4104929D01*
X3264643Y-4033500D01*
X3278928Y-3976357D01*
X3293214Y-3947786D01*
X3307500Y-3933500D01*
X3336071Y-3919214D01*
X3693214Y-4019214D02*
X3693214Y-4219214D01*
X3621786Y-3904929D02*
X3550357Y-4119214D01*
X3736071Y-4119214D01*
X3978928Y-4019214D02*
X3978928Y-4219214D01*
X3907500Y-3904929D02*
X3836071Y-4119214D01*
X4021786Y-4119214D01*
X4121786Y-3919214D02*
X4121786Y-3976357D01*
X4236071Y-3919214D02*
X4236071Y-3976357D01*
X4678928Y-4333500D02*
X4664643Y-4319214D01*
X4636071Y-4276357D01*
X4621786Y-4247786D01*
X4607500Y-4204929D01*
X4593214Y-4133500D01*
X4593214Y-4076357D01*
X4607500Y-4004929D01*
X4621786Y-3962071D01*
X4636071Y-3933500D01*
X4664643Y-3890643D01*
X4678928Y-3876357D01*
X4778928Y-3947786D02*
X4793214Y-3933500D01*
X4821786Y-3919214D01*
X4893214Y-3919214D01*
X4921786Y-3933500D01*
X4936071Y-3947786D01*
X4950357Y-3976357D01*
X4950357Y-4004929D01*
X4936071Y-4047786D01*
X4764643Y-4219214D01*
X4950357Y-4219214D01*
X5307500Y-4219214D02*
X5307500Y-3919214D01*
X5436071Y-4219214D02*
X5436071Y-4062071D01*
X5421786Y-4033500D01*
X5393214Y-4019214D01*
X5350357Y-4019214D01*
X5321786Y-4033500D01*
X5307500Y-4047786D01*
X5621786Y-4219214D02*
X5593214Y-4204929D01*
X5578928Y-4190643D01*
X5564643Y-4162071D01*
X5564643Y-4076357D01*
X5578928Y-4047786D01*
X5593214Y-4033500D01*
X5621786Y-4019214D01*
X5664643Y-4019214D01*
X5693214Y-4033500D01*
X5707500Y-4047786D01*
X5721786Y-4076357D01*
X5721786Y-4162071D01*
X5707500Y-4190643D01*
X5693214Y-4204929D01*
X5664643Y-4219214D01*
X5621786Y-4219214D01*
X5893214Y-4219214D02*
X5864643Y-4204929D01*
X5850357Y-4176357D01*
X5850357Y-3919214D01*
X6121786Y-4204929D02*
X6093214Y-4219214D01*
X6036071Y-4219214D01*
X6007500Y-4204929D01*
X5993214Y-4176357D01*
X5993214Y-4062071D01*
X6007500Y-4033500D01*
X6036071Y-4019214D01*
X6093214Y-4019214D01*
X6121786Y-4033500D01*
X6136071Y-4062071D01*
X6136071Y-4090643D01*
X5993214Y-4119214D01*
X6250357Y-4204929D02*
X6278928Y-4219214D01*
X6336071Y-4219214D01*
X6364643Y-4204929D01*
X6378928Y-4176357D01*
X6378928Y-4162071D01*
X6364643Y-4133500D01*
X6336071Y-4119214D01*
X6293214Y-4119214D01*
X6264643Y-4104929D01*
X6250357Y-4076357D01*
X6250357Y-4062071D01*
X6264643Y-4033500D01*
X6293214Y-4019214D01*
X6336071Y-4019214D01*
X6364643Y-4033500D01*
X6478928Y-4333500D02*
X6493214Y-4319214D01*
X6521786Y-4276357D01*
X6536071Y-4247786D01*
X6550357Y-4204929D01*
X6564643Y-4133500D01*
X6564643Y-4076357D01*
X6550357Y-4004929D01*
X6536071Y-3962071D01*
X6521786Y-3933500D01*
X6493214Y-3890643D01*
X6478928Y-3876357D01*
X7021786Y-4333500D02*
X7007500Y-4319214D01*
X6978928Y-4276357D01*
X6964643Y-4247786D01*
X6950357Y-4204929D01*
X6936071Y-4133500D01*
X6936071Y-4076357D01*
X6950357Y-4004929D01*
X6964643Y-3962071D01*
X6978928Y-3933500D01*
X7007500Y-3890643D01*
X7021786Y-3876357D01*
X7136071Y-4019214D02*
X7136071Y-4219214D01*
X7136071Y-4047786D02*
X7150357Y-4033500D01*
X7178928Y-4019214D01*
X7221786Y-4019214D01*
X7250357Y-4033500D01*
X7264643Y-4062071D01*
X7264643Y-4219214D01*
X7450357Y-4219214D02*
X7421786Y-4204929D01*
X7407500Y-4190643D01*
X7393214Y-4162071D01*
X7393214Y-4076357D01*
X7407500Y-4047786D01*
X7421786Y-4033500D01*
X7450357Y-4019214D01*
X7493214Y-4019214D01*
X7521786Y-4033500D01*
X7536071Y-4047786D01*
X7550357Y-4076357D01*
X7550357Y-4162071D01*
X7536071Y-4190643D01*
X7521786Y-4204929D01*
X7493214Y-4219214D01*
X7450357Y-4219214D01*
X7636071Y-4019214D02*
X7750357Y-4019214D01*
X7678928Y-3919214D02*
X7678928Y-4176357D01*
X7693214Y-4204929D01*
X7721786Y-4219214D01*
X7750357Y-4219214D01*
X8078928Y-4019214D02*
X8078928Y-4319214D01*
X8078928Y-4033500D02*
X8107500Y-4019214D01*
X8164643Y-4019214D01*
X8193214Y-4033500D01*
X8207500Y-4047786D01*
X8221786Y-4076357D01*
X8221786Y-4162071D01*
X8207500Y-4190643D01*
X8193214Y-4204929D01*
X8164643Y-4219214D01*
X8107500Y-4219214D01*
X8078928Y-4204929D01*
X8393214Y-4219214D02*
X8364643Y-4204929D01*
X8350357Y-4176357D01*
X8350357Y-3919214D01*
X8636071Y-4219214D02*
X8636071Y-4062071D01*
X8621786Y-4033500D01*
X8593214Y-4019214D01*
X8536071Y-4019214D01*
X8507500Y-4033500D01*
X8636071Y-4204929D02*
X8607500Y-4219214D01*
X8536071Y-4219214D01*
X8507500Y-4204929D01*
X8493214Y-4176357D01*
X8493214Y-4147786D01*
X8507500Y-4119214D01*
X8536071Y-4104929D01*
X8607500Y-4104929D01*
X8636071Y-4090643D01*
X8736071Y-4019214D02*
X8850357Y-4019214D01*
X8778928Y-3919214D02*
X8778928Y-4176357D01*
X8793214Y-4204929D01*
X8821786Y-4219214D01*
X8850357Y-4219214D01*
X9064643Y-4204929D02*
X9036071Y-4219214D01*
X8978928Y-4219214D01*
X8950357Y-4204929D01*
X8936071Y-4176357D01*
X8936071Y-4062071D01*
X8950357Y-4033500D01*
X8978928Y-4019214D01*
X9036071Y-4019214D01*
X9064643Y-4033500D01*
X9078928Y-4062071D01*
X9078928Y-4090643D01*
X8936071Y-4119214D01*
X9336071Y-4219214D02*
X9336071Y-3919214D01*
X9336071Y-4204929D02*
X9307500Y-4219214D01*
X9250357Y-4219214D01*
X9221786Y-4204929D01*
X9207500Y-4190643D01*
X9193214Y-4162071D01*
X9193214Y-4076357D01*
X9207500Y-4047786D01*
X9221786Y-4033500D01*
X9250357Y-4019214D01*
X9307500Y-4019214D01*
X9336071Y-4033500D01*
X9450357Y-4333500D02*
X9464643Y-4319214D01*
X9493214Y-4276357D01*
X9507500Y-4247786D01*
X9521786Y-4204929D01*
X9536071Y-4133500D01*
X9536071Y-4076357D01*
X9521786Y-4004929D01*
X9507500Y-3962071D01*
X9493214Y-3933500D01*
X9464643Y-3890643D01*
X9450357Y-3876357D01*
X-134500Y-4416000D02*
X-7500Y-4543000D01*
X-7500Y-4416000D02*
X-134500Y-4543000D01*
X-71000Y-4543000D02*
X-7500Y-4479500D01*
X-71000Y-4416000D01*
X-134500Y-4479500D01*
X-71000Y-4543000D01*
X436071Y-4615214D02*
X264643Y-4615214D01*
X350357Y-4615214D02*
X350357Y-4315214D01*
X321786Y-4358072D01*
X293214Y-4386643D01*
X264643Y-4400929D01*
X564643Y-4586643D02*
X578928Y-4600929D01*
X564643Y-4615214D01*
X550357Y-4600929D01*
X564643Y-4586643D01*
X564643Y-4615214D01*
X693214Y-4343786D02*
X707500Y-4329500D01*
X736071Y-4315214D01*
X807500Y-4315214D01*
X836071Y-4329500D01*
X850357Y-4343786D01*
X864643Y-4372357D01*
X864643Y-4400929D01*
X850357Y-4443786D01*
X678928Y-4615214D01*
X864643Y-4615214D01*
X964643Y-4315214D02*
X1164643Y-4315214D01*
X1036071Y-4615214D01*
X1278928Y-4615214D02*
X1278928Y-4415214D01*
X1278928Y-4443786D02*
X1293214Y-4429500D01*
X1321786Y-4415214D01*
X1364643Y-4415214D01*
X1393214Y-4429500D01*
X1407500Y-4458072D01*
X1407500Y-4615214D01*
X1407500Y-4458072D02*
X1421786Y-4429500D01*
X1450357Y-4415214D01*
X1493214Y-4415214D01*
X1521786Y-4429500D01*
X1536071Y-4458072D01*
X1536071Y-4615214D01*
X1678928Y-4615214D02*
X1678928Y-4415214D01*
X1678928Y-4443786D02*
X1693214Y-4429500D01*
X1721786Y-4415214D01*
X1764643Y-4415214D01*
X1793214Y-4429500D01*
X1807500Y-4458072D01*
X1807500Y-4615214D01*
X1807500Y-4458072D02*
X1821786Y-4429500D01*
X1850357Y-4415214D01*
X1893214Y-4415214D01*
X1921786Y-4429500D01*
X1936071Y-4458072D01*
X1936071Y-4615214D01*
X2521786Y-4300929D02*
X2264643Y-4686643D01*
X2907500Y-4315214D02*
X2936071Y-4315214D01*
X2964643Y-4329500D01*
X2978928Y-4343786D01*
X2993214Y-4372357D01*
X3007500Y-4429500D01*
X3007500Y-4500929D01*
X2993214Y-4558072D01*
X2978928Y-4586643D01*
X2964643Y-4600929D01*
X2936071Y-4615214D01*
X2907500Y-4615214D01*
X2878928Y-4600929D01*
X2864643Y-4586643D01*
X2850357Y-4558072D01*
X2836071Y-4500929D01*
X2836071Y-4429500D01*
X2850357Y-4372357D01*
X2864643Y-4343786D01*
X2878928Y-4329500D01*
X2907500Y-4315214D01*
X3136071Y-4586643D02*
X3150357Y-4600929D01*
X3136071Y-4615214D01*
X3121786Y-4600929D01*
X3136071Y-4586643D01*
X3136071Y-4615214D01*
X3336071Y-4315214D02*
X3364643Y-4315214D01*
X3393214Y-4329500D01*
X3407500Y-4343786D01*
X3421786Y-4372357D01*
X3436071Y-4429500D01*
X3436071Y-4500929D01*
X3421786Y-4558072D01*
X3407500Y-4586643D01*
X3393214Y-4600929D01*
X3364643Y-4615214D01*
X3336071Y-4615214D01*
X3307500Y-4600929D01*
X3293214Y-4586643D01*
X3278928Y-4558072D01*
X3264643Y-4500929D01*
X3264643Y-4429500D01*
X3278928Y-4372357D01*
X3293214Y-4343786D01*
X3307500Y-4329500D01*
X3336071Y-4315214D01*
X3707500Y-4315214D02*
X3564643Y-4315214D01*
X3550357Y-4458072D01*
X3564643Y-4443786D01*
X3593214Y-4429500D01*
X3664643Y-4429500D01*
X3693214Y-4443786D01*
X3707500Y-4458072D01*
X3721786Y-4486643D01*
X3721786Y-4558072D01*
X3707500Y-4586643D01*
X3693214Y-4600929D01*
X3664643Y-4615214D01*
X3593214Y-4615214D01*
X3564643Y-4600929D01*
X3550357Y-4586643D01*
X3907500Y-4315214D02*
X3936071Y-4315214D01*
X3964643Y-4329500D01*
X3978928Y-4343786D01*
X3993214Y-4372357D01*
X4007500Y-4429500D01*
X4007500Y-4500929D01*
X3993214Y-4558072D01*
X3978928Y-4586643D01*
X3964643Y-4600929D01*
X3936071Y-4615214D01*
X3907500Y-4615214D01*
X3878928Y-4600929D01*
X3864643Y-4586643D01*
X3850357Y-4558072D01*
X3836071Y-4500929D01*
X3836071Y-4429500D01*
X3850357Y-4372357D01*
X3864643Y-4343786D01*
X3878928Y-4329500D01*
X3907500Y-4315214D01*
X4121786Y-4315214D02*
X4121786Y-4372357D01*
X4236071Y-4315214D02*
X4236071Y-4372357D01*
X4678928Y-4729500D02*
X4664643Y-4715214D01*
X4636071Y-4672357D01*
X4621786Y-4643786D01*
X4607500Y-4600929D01*
X4593214Y-4529500D01*
X4593214Y-4472357D01*
X4607500Y-4400929D01*
X4621786Y-4358072D01*
X4636071Y-4329500D01*
X4664643Y-4286643D01*
X4678928Y-4272357D01*
X4778928Y-4343786D02*
X4793214Y-4329500D01*
X4821786Y-4315214D01*
X4893214Y-4315214D01*
X4921786Y-4329500D01*
X4936071Y-4343786D01*
X4950357Y-4372357D01*
X4950357Y-4400929D01*
X4936071Y-4443786D01*
X4764643Y-4615214D01*
X4950357Y-4615214D01*
X5307500Y-4615214D02*
X5307500Y-4315214D01*
X5436071Y-4615214D02*
X5436071Y-4458072D01*
X5421786Y-4429500D01*
X5393214Y-4415214D01*
X5350357Y-4415214D01*
X5321786Y-4429500D01*
X5307500Y-4443786D01*
X5621786Y-4615214D02*
X5593214Y-4600929D01*
X5578928Y-4586643D01*
X5564643Y-4558072D01*
X5564643Y-4472357D01*
X5578928Y-4443786D01*
X5593214Y-4429500D01*
X5621786Y-4415214D01*
X5664643Y-4415214D01*
X5693214Y-4429500D01*
X5707500Y-4443786D01*
X5721786Y-4472357D01*
X5721786Y-4558072D01*
X5707500Y-4586643D01*
X5693214Y-4600929D01*
X5664643Y-4615214D01*
X5621786Y-4615214D01*
X5893214Y-4615214D02*
X5864643Y-4600929D01*
X5850357Y-4572357D01*
X5850357Y-4315214D01*
X6121786Y-4600929D02*
X6093214Y-4615214D01*
X6036071Y-4615214D01*
X6007500Y-4600929D01*
X5993214Y-4572357D01*
X5993214Y-4458072D01*
X6007500Y-4429500D01*
X6036071Y-4415214D01*
X6093214Y-4415214D01*
X6121786Y-4429500D01*
X6136071Y-4458072D01*
X6136071Y-4486643D01*
X5993214Y-4515214D01*
X6250357Y-4600929D02*
X6278928Y-4615214D01*
X6336071Y-4615214D01*
X6364643Y-4600929D01*
X6378928Y-4572357D01*
X6378928Y-4558072D01*
X6364643Y-4529500D01*
X6336071Y-4515214D01*
X6293214Y-4515214D01*
X6264643Y-4500929D01*
X6250357Y-4472357D01*
X6250357Y-4458072D01*
X6264643Y-4429500D01*
X6293214Y-4415214D01*
X6336071Y-4415214D01*
X6364643Y-4429500D01*
X6478928Y-4729500D02*
X6493214Y-4715214D01*
X6521786Y-4672357D01*
X6536071Y-4643786D01*
X6550357Y-4600929D01*
X6564643Y-4529500D01*
X6564643Y-4472357D01*
X6550357Y-4400929D01*
X6536071Y-4358072D01*
X6521786Y-4329500D01*
X6493214Y-4286643D01*
X6478928Y-4272357D01*
X7021786Y-4729500D02*
X7007500Y-4715214D01*
X6978928Y-4672357D01*
X6964643Y-4643786D01*
X6950357Y-4600929D01*
X6936071Y-4529500D01*
X6936071Y-4472357D01*
X6950357Y-4400929D01*
X6964643Y-4358072D01*
X6978928Y-4329500D01*
X7007500Y-4286643D01*
X7021786Y-4272357D01*
X7136071Y-4415214D02*
X7136071Y-4615214D01*
X7136071Y-4443786D02*
X7150357Y-4429500D01*
X7178928Y-4415214D01*
X7221786Y-4415214D01*
X7250357Y-4429500D01*
X7264643Y-4458072D01*
X7264643Y-4615214D01*
X7450357Y-4615214D02*
X7421786Y-4600929D01*
X7407500Y-4586643D01*
X7393214Y-4558072D01*
X7393214Y-4472357D01*
X7407500Y-4443786D01*
X7421786Y-4429500D01*
X7450357Y-4415214D01*
X7493214Y-4415214D01*
X7521786Y-4429500D01*
X7536071Y-4443786D01*
X7550357Y-4472357D01*
X7550357Y-4558072D01*
X7536071Y-4586643D01*
X7521786Y-4600929D01*
X7493214Y-4615214D01*
X7450357Y-4615214D01*
X7636071Y-4415214D02*
X7750357Y-4415214D01*
X7678928Y-4315214D02*
X7678928Y-4572357D01*
X7693214Y-4600929D01*
X7721786Y-4615214D01*
X7750357Y-4615214D01*
X8078928Y-4415214D02*
X8078928Y-4715214D01*
X8078928Y-4429500D02*
X8107500Y-4415214D01*
X8164643Y-4415214D01*
X8193214Y-4429500D01*
X8207500Y-4443786D01*
X8221786Y-4472357D01*
X8221786Y-4558072D01*
X8207500Y-4586643D01*
X8193214Y-4600929D01*
X8164643Y-4615214D01*
X8107500Y-4615214D01*
X8078928Y-4600929D01*
X8393214Y-4615214D02*
X8364643Y-4600929D01*
X8350357Y-4572357D01*
X8350357Y-4315214D01*
X8636071Y-4615214D02*
X8636071Y-4458072D01*
X8621786Y-4429500D01*
X8593214Y-4415214D01*
X8536071Y-4415214D01*
X8507500Y-4429500D01*
X8636071Y-4600929D02*
X8607500Y-4615214D01*
X8536071Y-4615214D01*
X8507500Y-4600929D01*
X8493214Y-4572357D01*
X8493214Y-4543786D01*
X8507500Y-4515214D01*
X8536071Y-4500929D01*
X8607500Y-4500929D01*
X8636071Y-4486643D01*
X8736071Y-4415214D02*
X8850357Y-4415214D01*
X8778928Y-4315214D02*
X8778928Y-4572357D01*
X8793214Y-4600929D01*
X8821786Y-4615214D01*
X8850357Y-4615214D01*
X9064643Y-4600929D02*
X9036071Y-4615214D01*
X8978928Y-4615214D01*
X8950357Y-4600929D01*
X8936071Y-4572357D01*
X8936071Y-4458072D01*
X8950357Y-4429500D01*
X8978928Y-4415214D01*
X9036071Y-4415214D01*
X9064643Y-4429500D01*
X9078928Y-4458072D01*
X9078928Y-4486643D01*
X8936071Y-4515214D01*
X9336071Y-4615214D02*
X9336071Y-4315214D01*
X9336071Y-4600929D02*
X9307500Y-4615214D01*
X9250357Y-4615214D01*
X9221786Y-4600929D01*
X9207500Y-4586643D01*
X9193214Y-4558072D01*
X9193214Y-4472357D01*
X9207500Y-4443786D01*
X9221786Y-4429500D01*
X9250357Y-4415214D01*
X9307500Y-4415214D01*
X9336071Y-4429500D01*
X9450357Y-4729500D02*
X9464643Y-4715214D01*
X9493214Y-4672357D01*
X9507500Y-4643786D01*
X9521786Y-4600929D01*
X9536071Y-4529500D01*
X9536071Y-4472357D01*
X9521786Y-4400929D01*
X9507500Y-4358072D01*
X9493214Y-4329500D01*
X9464643Y-4286643D01*
X9450357Y-4272357D01*
X-167500Y-4715500D02*
X-167500Y-5035500D01*
X-327500Y-4875500D02*
X-7500Y-4875500D01*
X-7500Y-4875500D02*
G75*
G03*
X-7500Y-4875500I-160000J0D01*
G01*
X250357Y-4711214D02*
X436071Y-4711214D01*
X336071Y-4825500D01*
X378928Y-4825500D01*
X407500Y-4839786D01*
X421786Y-4854072D01*
X436071Y-4882643D01*
X436071Y-4954072D01*
X421786Y-4982643D01*
X407500Y-4996929D01*
X378928Y-5011214D01*
X293214Y-5011214D01*
X264643Y-4996929D01*
X250357Y-4982643D01*
X564643Y-4982643D02*
X578928Y-4996929D01*
X564643Y-5011214D01*
X550357Y-4996929D01*
X564643Y-4982643D01*
X564643Y-5011214D01*
X693214Y-4739786D02*
X707500Y-4725500D01*
X736071Y-4711214D01*
X807500Y-4711214D01*
X836071Y-4725500D01*
X850357Y-4739786D01*
X864643Y-4768357D01*
X864643Y-4796929D01*
X850357Y-4839786D01*
X678928Y-5011214D01*
X864643Y-5011214D01*
X1050357Y-4711214D02*
X1078928Y-4711214D01*
X1107500Y-4725500D01*
X1121786Y-4739786D01*
X1136071Y-4768357D01*
X1150357Y-4825500D01*
X1150357Y-4896929D01*
X1136071Y-4954072D01*
X1121786Y-4982643D01*
X1107500Y-4996929D01*
X1078928Y-5011214D01*
X1050357Y-5011214D01*
X1021786Y-4996929D01*
X1007500Y-4982643D01*
X993214Y-4954072D01*
X978928Y-4896929D01*
X978928Y-4825500D01*
X993214Y-4768357D01*
X1007500Y-4739786D01*
X1021786Y-4725500D01*
X1050357Y-4711214D01*
X1278928Y-5011214D02*
X1278928Y-4811214D01*
X1278928Y-4839786D02*
X1293214Y-4825500D01*
X1321786Y-4811214D01*
X1364643Y-4811214D01*
X1393214Y-4825500D01*
X1407500Y-4854072D01*
X1407500Y-5011214D01*
X1407500Y-4854072D02*
X1421786Y-4825500D01*
X1450357Y-4811214D01*
X1493214Y-4811214D01*
X1521786Y-4825500D01*
X1536071Y-4854072D01*
X1536071Y-5011214D01*
X1678928Y-5011214D02*
X1678928Y-4811214D01*
X1678928Y-4839786D02*
X1693214Y-4825500D01*
X1721786Y-4811214D01*
X1764643Y-4811214D01*
X1793214Y-4825500D01*
X1807500Y-4854072D01*
X1807500Y-5011214D01*
X1807500Y-4854072D02*
X1821786Y-4825500D01*
X1850357Y-4811214D01*
X1893214Y-4811214D01*
X1921786Y-4825500D01*
X1936071Y-4854072D01*
X1936071Y-5011214D01*
X2521786Y-4696929D02*
X2264643Y-5082643D01*
X2907500Y-4711214D02*
X2936071Y-4711214D01*
X2964643Y-4725500D01*
X2978928Y-4739786D01*
X2993214Y-4768357D01*
X3007500Y-4825500D01*
X3007500Y-4896929D01*
X2993214Y-4954072D01*
X2978928Y-4982643D01*
X2964643Y-4996929D01*
X2936071Y-5011214D01*
X2907500Y-5011214D01*
X2878928Y-4996929D01*
X2864643Y-4982643D01*
X2850357Y-4954072D01*
X2836071Y-4896929D01*
X2836071Y-4825500D01*
X2850357Y-4768357D01*
X2864643Y-4739786D01*
X2878928Y-4725500D01*
X2907500Y-4711214D01*
X3136071Y-4982643D02*
X3150357Y-4996929D01*
X3136071Y-5011214D01*
X3121786Y-4996929D01*
X3136071Y-4982643D01*
X3136071Y-5011214D01*
X3436071Y-5011214D02*
X3264643Y-5011214D01*
X3350357Y-5011214D02*
X3350357Y-4711214D01*
X3321786Y-4754072D01*
X3293214Y-4782643D01*
X3264643Y-4796929D01*
X3550357Y-4739786D02*
X3564643Y-4725500D01*
X3593214Y-4711214D01*
X3664643Y-4711214D01*
X3693214Y-4725500D01*
X3707500Y-4739786D01*
X3721786Y-4768357D01*
X3721786Y-4796929D01*
X3707500Y-4839786D01*
X3536071Y-5011214D01*
X3721786Y-5011214D01*
X3978928Y-4711214D02*
X3921786Y-4711214D01*
X3893214Y-4725500D01*
X3878928Y-4739786D01*
X3850357Y-4782643D01*
X3836071Y-4839786D01*
X3836071Y-4954072D01*
X3850357Y-4982643D01*
X3864643Y-4996929D01*
X3893214Y-5011214D01*
X3950357Y-5011214D01*
X3978928Y-4996929D01*
X3993214Y-4982643D01*
X4007500Y-4954072D01*
X4007500Y-4882643D01*
X3993214Y-4854072D01*
X3978928Y-4839786D01*
X3950357Y-4825500D01*
X3893214Y-4825500D01*
X3864643Y-4839786D01*
X3850357Y-4854072D01*
X3836071Y-4882643D01*
X4121786Y-4711214D02*
X4121786Y-4768357D01*
X4236071Y-4711214D02*
X4236071Y-4768357D01*
X4678928Y-5125500D02*
X4664643Y-5111214D01*
X4636071Y-5068357D01*
X4621786Y-5039786D01*
X4607500Y-4996929D01*
X4593214Y-4925500D01*
X4593214Y-4868357D01*
X4607500Y-4796929D01*
X4621786Y-4754072D01*
X4636071Y-4725500D01*
X4664643Y-4682643D01*
X4678928Y-4668357D01*
X4921786Y-4811214D02*
X4921786Y-5011214D01*
X4850357Y-4696929D02*
X4778928Y-4911214D01*
X4964643Y-4911214D01*
X5307500Y-5011214D02*
X5307500Y-4711214D01*
X5436071Y-5011214D02*
X5436071Y-4854072D01*
X5421786Y-4825500D01*
X5393214Y-4811214D01*
X5350357Y-4811214D01*
X5321786Y-4825500D01*
X5307500Y-4839786D01*
X5621786Y-5011214D02*
X5593214Y-4996929D01*
X5578928Y-4982643D01*
X5564643Y-4954072D01*
X5564643Y-4868357D01*
X5578928Y-4839786D01*
X5593214Y-4825500D01*
X5621786Y-4811214D01*
X5664643Y-4811214D01*
X5693214Y-4825500D01*
X5707500Y-4839786D01*
X5721786Y-4868357D01*
X5721786Y-4954072D01*
X5707500Y-4982643D01*
X5693214Y-4996929D01*
X5664643Y-5011214D01*
X5621786Y-5011214D01*
X5893214Y-5011214D02*
X5864643Y-4996929D01*
X5850357Y-4968357D01*
X5850357Y-4711214D01*
X6121786Y-4996929D02*
X6093214Y-5011214D01*
X6036071Y-5011214D01*
X6007500Y-4996929D01*
X5993214Y-4968357D01*
X5993214Y-4854072D01*
X6007500Y-4825500D01*
X6036071Y-4811214D01*
X6093214Y-4811214D01*
X6121786Y-4825500D01*
X6136071Y-4854072D01*
X6136071Y-4882643D01*
X5993214Y-4911214D01*
X6250357Y-4996929D02*
X6278928Y-5011214D01*
X6336071Y-5011214D01*
X6364643Y-4996929D01*
X6378928Y-4968357D01*
X6378928Y-4954072D01*
X6364643Y-4925500D01*
X6336071Y-4911214D01*
X6293214Y-4911214D01*
X6264643Y-4896929D01*
X6250357Y-4868357D01*
X6250357Y-4854072D01*
X6264643Y-4825500D01*
X6293214Y-4811214D01*
X6336071Y-4811214D01*
X6364643Y-4825500D01*
X6478928Y-5125500D02*
X6493214Y-5111214D01*
X6521786Y-5068357D01*
X6536071Y-5039786D01*
X6550357Y-4996929D01*
X6564643Y-4925500D01*
X6564643Y-4868357D01*
X6550357Y-4796929D01*
X6536071Y-4754072D01*
X6521786Y-4725500D01*
X6493214Y-4682643D01*
X6478928Y-4668357D01*
X7021786Y-5125500D02*
X7007500Y-5111214D01*
X6978928Y-5068357D01*
X6964643Y-5039786D01*
X6950357Y-4996929D01*
X6936071Y-4925500D01*
X6936071Y-4868357D01*
X6950357Y-4796929D01*
X6964643Y-4754072D01*
X6978928Y-4725500D01*
X7007500Y-4682643D01*
X7021786Y-4668357D01*
X7136071Y-4811214D02*
X7136071Y-5011214D01*
X7136071Y-4839786D02*
X7150357Y-4825500D01*
X7178928Y-4811214D01*
X7221786Y-4811214D01*
X7250357Y-4825500D01*
X7264643Y-4854072D01*
X7264643Y-5011214D01*
X7450357Y-5011214D02*
X7421786Y-4996929D01*
X7407500Y-4982643D01*
X7393214Y-4954072D01*
X7393214Y-4868357D01*
X7407500Y-4839786D01*
X7421786Y-4825500D01*
X7450357Y-4811214D01*
X7493214Y-4811214D01*
X7521786Y-4825500D01*
X7536071Y-4839786D01*
X7550357Y-4868357D01*
X7550357Y-4954072D01*
X7536071Y-4982643D01*
X7521786Y-4996929D01*
X7493214Y-5011214D01*
X7450357Y-5011214D01*
X7636071Y-4811214D02*
X7750357Y-4811214D01*
X7678928Y-4711214D02*
X7678928Y-4968357D01*
X7693214Y-4996929D01*
X7721786Y-5011214D01*
X7750357Y-5011214D01*
X8078928Y-4811214D02*
X8078928Y-5111214D01*
X8078928Y-4825500D02*
X8107500Y-4811214D01*
X8164643Y-4811214D01*
X8193214Y-4825500D01*
X8207500Y-4839786D01*
X8221786Y-4868357D01*
X8221786Y-4954072D01*
X8207500Y-4982643D01*
X8193214Y-4996929D01*
X8164643Y-5011214D01*
X8107500Y-5011214D01*
X8078928Y-4996929D01*
X8393214Y-5011214D02*
X8364643Y-4996929D01*
X8350357Y-4968357D01*
X8350357Y-4711214D01*
X8636071Y-5011214D02*
X8636071Y-4854072D01*
X8621786Y-4825500D01*
X8593214Y-4811214D01*
X8536071Y-4811214D01*
X8507500Y-4825500D01*
X8636071Y-4996929D02*
X8607500Y-5011214D01*
X8536071Y-5011214D01*
X8507500Y-4996929D01*
X8493214Y-4968357D01*
X8493214Y-4939786D01*
X8507500Y-4911214D01*
X8536071Y-4896929D01*
X8607500Y-4896929D01*
X8636071Y-4882643D01*
X8736071Y-4811214D02*
X8850357Y-4811214D01*
X8778928Y-4711214D02*
X8778928Y-4968357D01*
X8793214Y-4996929D01*
X8821786Y-5011214D01*
X8850357Y-5011214D01*
X9064643Y-4996929D02*
X9036071Y-5011214D01*
X8978928Y-5011214D01*
X8950357Y-4996929D01*
X8936071Y-4968357D01*
X8936071Y-4854072D01*
X8950357Y-4825500D01*
X8978928Y-4811214D01*
X9036071Y-4811214D01*
X9064643Y-4825500D01*
X9078928Y-4854072D01*
X9078928Y-4882643D01*
X8936071Y-4911214D01*
X9336071Y-5011214D02*
X9336071Y-4711214D01*
X9336071Y-4996929D02*
X9307500Y-5011214D01*
X9250357Y-5011214D01*
X9221786Y-4996929D01*
X9207500Y-4982643D01*
X9193214Y-4954072D01*
X9193214Y-4868357D01*
X9207500Y-4839786D01*
X9221786Y-4825500D01*
X9250357Y-4811214D01*
X9307500Y-4811214D01*
X9336071Y-4825500D01*
X9450357Y-5125500D02*
X9464643Y-5111214D01*
X9493214Y-5068357D01*
X9507500Y-5039786D01*
X9521786Y-4996929D01*
X9536071Y-4925500D01*
X9536071Y-4868357D01*
X9521786Y-4796929D01*
X9507500Y-4754072D01*
X9493214Y-4725500D01*
X9464643Y-4682643D01*
X9450357Y-4668357D01*
M02*
