G04 #@! TF.GenerationSoftware,KiCad,Pcbnew,(5.1.9)-1*
G04 #@! TF.CreationDate,2021-02-22T11:59:36-08:00*
G04 #@! TF.ProjectId,UnfolderBuffer,556e666f-6c64-4657-9242-75666665722e,rev?*
G04 #@! TF.SameCoordinates,Original*
G04 #@! TF.FileFunction,Soldermask,Top*
G04 #@! TF.FilePolarity,Negative*
%FSLAX46Y46*%
G04 Gerber Fmt 4.6, Leading zero omitted, Abs format (unit mm)*
G04 Created by KiCad (PCBNEW (5.1.9)-1) date 2021-02-22 11:59:36*
%MOMM*%
%LPD*%
G01*
G04 APERTURE LIST*
%ADD10R,0.800000X1.600000*%
%ADD11R,1.600000X0.800000*%
%ADD12C,2.540000*%
%ADD13R,1.000000X0.889000*%
%ADD14R,1.397000X1.800000*%
%ADD15R,1.800000X1.397000*%
%ADD16O,2.190000X1.740000*%
%ADD17R,0.650000X1.060000*%
%ADD18R,3.250000X2.150000*%
%ADD19R,0.950000X2.150000*%
%ADD20R,0.508000X0.711000*%
%ADD21R,0.711000X0.508000*%
%ADD22R,3.400000X0.980000*%
%ADD23R,0.889000X1.000000*%
%ADD24C,1.348000*%
%ADD25R,0.500000X1.450000*%
%ADD26C,1.270000*%
%ADD27C,10.160000*%
%ADD28R,1.930400X5.511800*%
%ADD29C,1.120000*%
%ADD30R,1.500000X1.016000*%
%ADD31R,1.016000X1.500000*%
%ADD32R,2.743000X2.159000*%
%ADD33C,3.200000*%
%ADD34R,3.200000X5.700000*%
%ADD35R,0.740000X4.310000*%
%ADD36R,0.740000X2.730000*%
%ADD37R,0.890000X0.740000*%
%ADD38R,0.650000X1.050000*%
%ADD39R,2.000000X0.600000*%
%ADD40R,2.540000X5.080000*%
%ADD41R,0.406400X1.803400*%
%ADD42R,0.600000X2.000000*%
%ADD43R,2.700000X1.600000*%
%ADD44R,1.600000X2.700000*%
G04 APERTURE END LIST*
D10*
X47000000Y90000000D03*
X55000000Y90000000D03*
X51000000Y90000000D03*
D11*
X131000000Y27000000D03*
X131000000Y35000000D03*
X2000000Y41000000D03*
X131000000Y31000000D03*
X2000000Y29000000D03*
X2000000Y37000000D03*
X131000000Y47000000D03*
X131000000Y51000000D03*
X2000000Y50000000D03*
X2000000Y46000000D03*
X131000000Y39000000D03*
X131000000Y43000000D03*
X2000000Y33000000D03*
D12*
X113400000Y20800000D03*
X71000000Y87900000D03*
X19000000Y16900000D03*
D13*
X37000000Y27050000D03*
X37000000Y28750000D03*
D14*
X49359000Y16640340D03*
X46241000Y16640340D03*
D15*
X7000000Y46041000D03*
X7000000Y49159000D03*
X9200000Y10041000D03*
X9200000Y13159000D03*
D16*
X3200000Y13040000D03*
G36*
G01*
X4044442Y9630000D02*
X2355558Y9630000D01*
G75*
G02*
X2105000Y9880558I0J250558D01*
G01*
X2105000Y11119442D01*
G75*
G02*
X2355558Y11370000I250558J0D01*
G01*
X4044442Y11370000D01*
G75*
G02*
X4295000Y11119442I0J-250558D01*
G01*
X4295000Y9880558D01*
G75*
G02*
X4044442Y9630000I-250558J0D01*
G01*
G37*
D17*
X13650000Y77800000D03*
X12700000Y77800000D03*
X11750000Y77800000D03*
X11750000Y75600000D03*
X13650000Y75600000D03*
X12700000Y75600000D03*
D18*
X78600000Y69900000D03*
D19*
X80900000Y64100000D03*
X78600000Y64100000D03*
X76300000Y64100000D03*
D20*
X10433000Y73100000D03*
X11567000Y73100000D03*
D21*
X12700000Y74067000D03*
X12700000Y72933000D03*
D20*
X11633000Y71700000D03*
X12767000Y71700000D03*
D22*
X12300000Y81015000D03*
X12300000Y83385000D03*
D15*
X5400000Y77859000D03*
X5400000Y74741000D03*
D14*
X13759000Y86100000D03*
X10641000Y86100000D03*
D15*
X7600000Y77859000D03*
X7600000Y74741000D03*
D13*
X9800000Y77850000D03*
X9800000Y76150000D03*
D14*
X13759000Y88400000D03*
X10641000Y88400000D03*
D23*
X13650000Y90300000D03*
X11950000Y90300000D03*
D13*
X15400000Y77550000D03*
X15400000Y75850000D03*
D14*
X77741000Y60800000D03*
X80859000Y60800000D03*
D15*
X71500000Y62759000D03*
X71500000Y59641000D03*
X73800000Y59641000D03*
X73800000Y62759000D03*
D24*
X83180000Y76160000D03*
X25080000Y76160000D03*
D25*
X79330000Y77860000D03*
X79330000Y74460000D03*
X78530000Y77860000D03*
X78530000Y74460000D03*
X77730000Y77860000D03*
X77730000Y74460000D03*
X76930000Y77860000D03*
X76930000Y74460000D03*
X76130000Y77860000D03*
X76130000Y74460000D03*
X75330000Y77860000D03*
X75330000Y74460000D03*
X74530000Y77860000D03*
X74530000Y74460000D03*
X73730000Y77860000D03*
X73730000Y74460000D03*
X72930000Y77860000D03*
X72930000Y74460000D03*
X72130000Y77860000D03*
X72130000Y74460000D03*
X71330000Y77860000D03*
X71330000Y74460000D03*
X70530000Y77860000D03*
X70530000Y74460000D03*
X69730000Y77860000D03*
X69730000Y74460000D03*
X68930000Y77860000D03*
X68930000Y74460000D03*
X68130000Y77860000D03*
X68130000Y74460000D03*
X67330000Y77860000D03*
X67330000Y74460000D03*
X66530000Y77860000D03*
X66530000Y74460000D03*
X65730000Y77860000D03*
X65730000Y74460000D03*
X64930000Y77860000D03*
X64930000Y74460000D03*
X64130000Y77860000D03*
X64130000Y74460000D03*
X63330000Y77860000D03*
X63330000Y74460000D03*
X62530000Y77860000D03*
X62530000Y74460000D03*
X61730000Y77860000D03*
X61730000Y74460000D03*
X60930000Y77860000D03*
X60930000Y74460000D03*
X60130000Y77860000D03*
X60130000Y74460000D03*
X59330000Y77860000D03*
X59330000Y74460000D03*
X58530000Y77860000D03*
X58530000Y74460000D03*
X57730000Y77860000D03*
X57730000Y74460000D03*
X56930000Y77860000D03*
X56930000Y74460000D03*
X56130000Y77860000D03*
X56130000Y74460000D03*
X55330000Y77860000D03*
X55330000Y74460000D03*
X54530000Y77860000D03*
X54530000Y74460000D03*
X50530000Y77860000D03*
X50530000Y74460000D03*
X49730000Y77860000D03*
X49730000Y74460000D03*
X48930000Y77860000D03*
X48930000Y74460000D03*
X48130000Y77860000D03*
X48130000Y74460000D03*
X47330000Y77860000D03*
X47330000Y74460000D03*
X46530000Y77860000D03*
X46530000Y74460000D03*
X45730000Y77860000D03*
X45730000Y74460000D03*
X44930000Y77860000D03*
X44930000Y74460000D03*
X44130000Y77860000D03*
X44130000Y74460000D03*
X43330000Y77860000D03*
X43330000Y74460000D03*
X42530000Y77860000D03*
X42530000Y74460000D03*
X41730000Y77860000D03*
X41730000Y74460000D03*
X40930000Y77860000D03*
X40930000Y74460000D03*
X40130000Y77860000D03*
X40130000Y74460000D03*
X39330000Y77860000D03*
X39330000Y74460000D03*
X38530000Y77860000D03*
X38530000Y74460000D03*
X37730000Y77860000D03*
X37730000Y74460000D03*
X36930000Y77860000D03*
X36930000Y74460000D03*
X36130000Y77860000D03*
X36130000Y74460000D03*
X35330000Y77860000D03*
X35330000Y74460000D03*
X34530000Y77860000D03*
X34530000Y74460000D03*
X33730000Y77860000D03*
X33730000Y74460000D03*
X32930000Y77860000D03*
X32930000Y74460000D03*
X32130000Y77860000D03*
X32130000Y74460000D03*
X31330000Y77860000D03*
X31330000Y74460000D03*
X30530000Y77860000D03*
X30530000Y74460000D03*
X29730000Y77860000D03*
X29730000Y74460000D03*
D26*
X80830000Y77660000D03*
X27430000Y76160000D03*
D25*
X28930000Y77860000D03*
X28930000Y74460000D03*
D27*
X97450000Y46550000D03*
X97450000Y31450000D03*
X22500000Y50010000D03*
X22790000Y32570000D03*
D13*
X107120000Y45150000D03*
X107120000Y46850000D03*
D28*
X65623000Y35160000D03*
X60797000Y35160000D03*
D23*
X107106120Y48300000D03*
X108806120Y48300000D03*
D12*
X58700000Y3100000D03*
X54737600Y3100000D03*
X30481200Y3060000D03*
X26518800Y3060000D03*
D20*
X41232040Y18405640D03*
X42366040Y18405640D03*
X41239660Y19535940D03*
X42373660Y19535940D03*
D21*
X40024520Y19607640D03*
X40024520Y18473640D03*
D29*
X125100000Y76160000D03*
X98850000Y74660000D03*
D25*
X123600000Y74460000D03*
X122800000Y74460000D03*
X122000000Y74460000D03*
X121200000Y74460000D03*
X120400000Y74460000D03*
X119600000Y74460000D03*
X118800000Y74460000D03*
X118000000Y74460000D03*
X117200000Y74460000D03*
X116400000Y74460000D03*
X115600000Y74460000D03*
X114800000Y74460000D03*
X114000000Y74460000D03*
X113200000Y74460000D03*
X112400000Y74460000D03*
X111600000Y74460000D03*
X110800000Y74460000D03*
X110000000Y74460000D03*
X109200000Y74460000D03*
X108400000Y74460000D03*
X107600000Y74460000D03*
X106800000Y74460000D03*
X106000000Y74460000D03*
X105200000Y74460000D03*
X104400000Y74460000D03*
X103600000Y74460000D03*
X102800000Y74460000D03*
X102000000Y74460000D03*
X101200000Y74460000D03*
X100400000Y74460000D03*
X123600000Y77860000D03*
X122800000Y77860000D03*
X122000000Y77860000D03*
X121200000Y77860000D03*
X120400000Y77860000D03*
X119600000Y77860000D03*
X118800000Y77860000D03*
X118000000Y77860000D03*
X117200000Y77860000D03*
X116400000Y77860000D03*
X115600000Y77860000D03*
X114800000Y77860000D03*
X114000000Y77860000D03*
X113200000Y77860000D03*
X112400000Y77860000D03*
X111600000Y77860000D03*
X110800000Y77860000D03*
X110000000Y77860000D03*
X109200000Y77860000D03*
X108400000Y77860000D03*
X107600000Y77860000D03*
X106800000Y77860000D03*
X106000000Y77860000D03*
X105200000Y77860000D03*
X104400000Y77860000D03*
X103600000Y77860000D03*
X102800000Y77860000D03*
X102000000Y77860000D03*
X101200000Y77860000D03*
X100400000Y77860000D03*
D13*
X13330000Y20360000D03*
X13330000Y18660000D03*
X7971600Y20027100D03*
X7971600Y18327100D03*
D23*
X7038920Y26110520D03*
X8738920Y26110520D03*
D13*
X12250000Y22550000D03*
X12250000Y24250000D03*
X104600000Y59650000D03*
X104600000Y61350000D03*
D30*
X102830400Y61473440D03*
X102830400Y59255440D03*
D23*
X107088340Y49823440D03*
X108788340Y49823440D03*
X112750000Y54000000D03*
X114450000Y54000000D03*
D31*
X115009000Y52300000D03*
X112791000Y52300000D03*
D13*
X55540820Y66657220D03*
X55540820Y68357220D03*
X49970000Y68050000D03*
X49970000Y66350000D03*
X98575900Y54360780D03*
X98575900Y56060780D03*
X104219780Y53890880D03*
X104219780Y55590880D03*
D23*
X8850000Y66300000D03*
X10550000Y66300000D03*
D31*
X8593500Y64623580D03*
X10811500Y64623580D03*
D13*
X2847040Y57019720D03*
X2847040Y58719720D03*
D23*
X10367260Y51146760D03*
X12067260Y51146760D03*
D13*
X8366460Y56928280D03*
X8366460Y58628280D03*
D23*
X14850000Y56800000D03*
X16550000Y56800000D03*
D31*
X17109000Y58800000D03*
X14891000Y58800000D03*
D13*
X48300000Y59850000D03*
X48300000Y61550000D03*
X57270000Y66450000D03*
X57270000Y68150000D03*
D15*
X59129760Y67988560D03*
X59129760Y64870560D03*
D23*
X59000000Y59220000D03*
X60700000Y59220000D03*
X86490660Y47817560D03*
X88190660Y47817560D03*
X87850000Y62500000D03*
X86150000Y62500000D03*
X86523680Y49270440D03*
X88223680Y49270440D03*
D15*
X84720000Y45771000D03*
X84720000Y48889000D03*
D14*
X85441000Y64500000D03*
X88559000Y64500000D03*
X46241000Y18930000D03*
X49359000Y18930000D03*
X41093480Y16625100D03*
X44211480Y16625100D03*
D23*
X35450000Y27200000D03*
X33750000Y27200000D03*
D13*
X39800000Y12750000D03*
X39800000Y14450000D03*
D23*
X33750000Y28800000D03*
X35450000Y28800000D03*
D15*
X31900000Y27741000D03*
X31900000Y30859000D03*
X37900000Y15059000D03*
X37900000Y11941000D03*
D23*
X41280000Y84280000D03*
X39580000Y84280000D03*
X32770000Y84300000D03*
X34470000Y84300000D03*
D13*
X42440000Y65700000D03*
X42440000Y67400000D03*
X26600000Y65210000D03*
X26600000Y66910000D03*
D32*
X43000000Y35270500D03*
X43000000Y39690500D03*
D33*
X3200000Y3200000D03*
X131800000Y88800000D03*
X3200000Y88800000D03*
X131800000Y3200000D03*
D23*
X66147800Y4755280D03*
X64447800Y4755280D03*
X64441080Y3076340D03*
X66141080Y3076340D03*
D13*
X101210000Y63230000D03*
X101210000Y61530000D03*
X96912200Y54400000D03*
X96912200Y56100000D03*
X111200000Y54050000D03*
X111200000Y55750000D03*
X4500000Y53450000D03*
X4500000Y55150000D03*
D28*
X65213000Y49100000D03*
X60387000Y49100000D03*
X60287000Y19850000D03*
X65113000Y19850000D03*
D34*
X47550000Y35100000D03*
X57250000Y35100000D03*
D23*
X11850000Y66300000D03*
X13550000Y66300000D03*
D13*
X14820000Y62260000D03*
X14820000Y60560000D03*
D35*
X36420000Y35160000D03*
D36*
X40000000Y35160000D03*
D37*
X39925000Y32835000D03*
X39925000Y37485000D03*
D14*
X15379000Y30330000D03*
X12261000Y30330000D03*
X12229000Y32800000D03*
X9111000Y32800000D03*
X5881000Y30390000D03*
X8999000Y30390000D03*
D23*
X7049080Y27540540D03*
X8749080Y27540540D03*
D13*
X107140000Y43650000D03*
X107140000Y41950000D03*
X111050000Y46550000D03*
X111050000Y48250000D03*
X111050000Y42990000D03*
X111050000Y44690000D03*
D15*
X7020000Y44019000D03*
X7020000Y40901000D03*
D23*
X10392660Y52637740D03*
X12092660Y52637740D03*
D30*
X11400000Y49009000D03*
X11400000Y46791000D03*
X13300000Y44591000D03*
X13300000Y46809000D03*
D23*
X53474080Y64890320D03*
X55174080Y64890320D03*
D13*
X59836820Y61060520D03*
X59836820Y62760520D03*
D20*
X86841680Y50751780D03*
X85707680Y50751780D03*
X87673640Y50731460D03*
X88807640Y50731460D03*
D21*
X37700000Y19667000D03*
X37700000Y18533000D03*
D20*
X44567000Y22500000D03*
X43433000Y22500000D03*
D21*
X39900000Y30242840D03*
X39900000Y31376840D03*
X38863740Y19630500D03*
X38863740Y18496500D03*
D20*
X35567000Y25700000D03*
X34433000Y25700000D03*
X32133000Y25700000D03*
X33267000Y25700000D03*
X43587000Y84230000D03*
X42453000Y84230000D03*
X31467000Y84300000D03*
X30333000Y84300000D03*
D21*
X40880000Y67482420D03*
X40880000Y66348420D03*
X27850000Y68027000D03*
X27850000Y66893000D03*
D10*
X39000000Y90000000D03*
X31000000Y90000000D03*
X43000000Y90000000D03*
X27000000Y90000000D03*
D38*
X10498900Y18118540D03*
X9548900Y20418540D03*
X11448900Y20418540D03*
X9590000Y24600000D03*
X8640000Y24600000D03*
X7690000Y24600000D03*
X7690000Y22300000D03*
X9590000Y22300000D03*
X52770000Y68642880D03*
X53720000Y66342880D03*
X51820000Y66342880D03*
X100389420Y53682320D03*
X102289420Y53682320D03*
X101339420Y55982320D03*
X5590240Y59182280D03*
X6540240Y56882280D03*
X4640240Y56882280D03*
D39*
X57083440Y63241480D03*
X57083440Y60701480D03*
X57083440Y61971480D03*
X57083440Y59431480D03*
X51683440Y59431480D03*
X51683440Y60701480D03*
X51683440Y61971480D03*
X51683440Y63241480D03*
D26*
X80851400Y55435420D03*
X78819400Y55435420D03*
X76787400Y55435420D03*
X74485400Y55435420D03*
X69675400Y55435420D03*
X82248400Y49085420D03*
X82248400Y45529420D03*
X78819400Y14541420D03*
X73993400Y14541420D03*
X71961400Y14541420D03*
X69929400Y14541420D03*
X67897400Y14541420D03*
D40*
X68913400Y49085420D03*
X68913400Y35001120D03*
X68913400Y19875420D03*
X79851300Y35001120D03*
D41*
X91583280Y59949120D03*
X90948280Y59949120D03*
X90287880Y59949120D03*
X89627480Y59949120D03*
X88992480Y59949120D03*
X88332080Y59949120D03*
X87671680Y59949120D03*
X87036680Y59949120D03*
X86376280Y59949120D03*
X85741280Y59949120D03*
X85741280Y52760920D03*
X86376280Y52760920D03*
X87036680Y52760920D03*
X87671680Y52760920D03*
X88332080Y52760920D03*
X88992480Y52760920D03*
X89627480Y52760920D03*
X90287880Y52760920D03*
X90948280Y52760920D03*
X91583280Y52760920D03*
D42*
X38595000Y28200000D03*
X41135000Y28200000D03*
X39865000Y28200000D03*
X42405000Y28200000D03*
X42405000Y22800000D03*
X41135000Y22800000D03*
X39865000Y22800000D03*
X38595000Y22800000D03*
D19*
X47040360Y14008220D03*
X44740360Y14008220D03*
X42440360Y14008220D03*
D18*
X44740360Y8208220D03*
D41*
X30232640Y23955540D03*
X30867640Y23955540D03*
X31528040Y23955540D03*
X32188440Y23955540D03*
X32823440Y23955540D03*
X33483840Y23955540D03*
X34144240Y23955540D03*
X34779240Y23955540D03*
X35439640Y23955540D03*
X36074640Y23955540D03*
X36074640Y16767340D03*
X35439640Y16767340D03*
X34779240Y16767340D03*
X34144240Y16767340D03*
X33483840Y16767340D03*
X32823440Y16767340D03*
X32188440Y16767340D03*
X31528040Y16767340D03*
X30867640Y16767340D03*
X30232640Y16767340D03*
D21*
X41200000Y30233000D03*
X41200000Y31367000D03*
D43*
X16700000Y39980000D03*
X16700000Y42780000D03*
X13580000Y40000000D03*
X13580000Y42800000D03*
X107610000Y37390000D03*
X107610000Y40190000D03*
D15*
X45700000Y43641000D03*
X45700000Y46759000D03*
X55000000Y24959000D03*
X55000000Y21841000D03*
D43*
X104610000Y37390000D03*
X104610000Y40190000D03*
D44*
X36000000Y43000000D03*
X38800000Y43000000D03*
X38800000Y39900000D03*
X36000000Y39900000D03*
D13*
X114760000Y62720000D03*
X114760000Y61020000D03*
X120140000Y60510000D03*
X120140000Y62210000D03*
X113090000Y61010000D03*
X113090000Y62710000D03*
D28*
X57513000Y49080000D03*
X52687000Y49080000D03*
D42*
X105955000Y59360000D03*
X108495000Y59360000D03*
X107225000Y59360000D03*
X109765000Y59360000D03*
X109765000Y53960000D03*
X108495000Y53960000D03*
X107225000Y53960000D03*
X105955000Y53960000D03*
X9755000Y57080000D03*
X11025000Y57080000D03*
X12295000Y57080000D03*
X13565000Y57080000D03*
X13565000Y62480000D03*
X11025000Y62480000D03*
X12295000Y62480000D03*
X9755000Y62480000D03*
D38*
X116670000Y60360000D03*
X118570000Y60360000D03*
X117620000Y62660000D03*
D42*
X121905000Y65900000D03*
X124445000Y65900000D03*
X123175000Y65900000D03*
X125715000Y65900000D03*
X125715000Y60500000D03*
X124445000Y60500000D03*
X123175000Y60500000D03*
X121905000Y60500000D03*
D13*
X120290000Y66350000D03*
X120290000Y68050000D03*
D30*
X118600000Y65851000D03*
X118600000Y68069000D03*
D23*
X124690000Y56890000D03*
X122990000Y56890000D03*
X130270000Y60490000D03*
X128570000Y60490000D03*
D31*
X130669000Y58830000D03*
X128451000Y58830000D03*
D13*
X35340000Y65530000D03*
X35340000Y67230000D03*
D23*
X114780000Y68170000D03*
X116480000Y68170000D03*
D13*
X126960000Y62250000D03*
X126960000Y60550000D03*
D23*
X122860000Y51520000D03*
X124560000Y51520000D03*
D13*
X124680000Y53330000D03*
X124680000Y55030000D03*
D23*
X122980000Y58350000D03*
X124680000Y58350000D03*
D13*
X121470000Y55010000D03*
X121470000Y56710000D03*
D23*
X118320000Y55010000D03*
X120020000Y55010000D03*
D21*
X33770000Y67237000D03*
X33770000Y66103000D03*
D10*
X35000000Y90000000D03*
D15*
X50300000Y43641000D03*
X50300000Y46759000D03*
X52700000Y24959000D03*
X52700000Y21841000D03*
X47950000Y43691000D03*
X47950000Y46809000D03*
X57300000Y24959000D03*
X57300000Y21841000D03*
M02*
