G04 #@! TF.GenerationSoftware,KiCad,Pcbnew,(5.1.9)-1*
G04 #@! TF.CreationDate,2021-02-22T11:59:36-08:00*
G04 #@! TF.ProjectId,UnfolderBuffer,556e666f-6c64-4657-9242-75666665722e,rev?*
G04 #@! TF.SameCoordinates,Original*
G04 #@! TF.FileFunction,Copper,L3,Inr*
G04 #@! TF.FilePolarity,Positive*
%FSLAX46Y46*%
G04 Gerber Fmt 4.6, Leading zero omitted, Abs format (unit mm)*
G04 Created by KiCad (PCBNEW (5.1.9)-1) date 2021-02-22 11:59:36*
%MOMM*%
%LPD*%
G01*
G04 APERTURE LIST*
G04 #@! TA.AperFunction,ComponentPad*
%ADD10O,2.190000X1.740000*%
G04 #@! TD*
G04 #@! TA.AperFunction,ComponentPad*
%ADD11C,1.348000*%
G04 #@! TD*
G04 #@! TA.AperFunction,ComponentPad*
%ADD12C,10.160000*%
G04 #@! TD*
G04 #@! TA.AperFunction,ComponentPad*
%ADD13C,2.540000*%
G04 #@! TD*
G04 #@! TA.AperFunction,ViaPad*
%ADD14C,1.270000*%
G04 #@! TD*
G04 #@! TA.AperFunction,ViaPad*
%ADD15C,0.889000*%
G04 #@! TD*
G04 #@! TA.AperFunction,ViaPad*
%ADD16C,0.635000*%
G04 #@! TD*
G04 #@! TA.AperFunction,ViaPad*
%ADD17C,0.609600*%
G04 #@! TD*
G04 #@! TA.AperFunction,Conductor*
%ADD18C,0.457200*%
G04 #@! TD*
G04 #@! TA.AperFunction,Conductor*
%ADD19C,0.635000*%
G04 #@! TD*
G04 #@! TA.AperFunction,Conductor*
%ADD20C,0.990600*%
G04 #@! TD*
G04 #@! TA.AperFunction,Conductor*
%ADD21C,0.254000*%
G04 #@! TD*
G04 #@! TA.AperFunction,Conductor*
%ADD22C,0.100000*%
G04 #@! TD*
G04 APERTURE END LIST*
D10*
X3200000Y13040000D03*
G04 #@! TA.AperFunction,ComponentPad*
G36*
G01*
X4044442Y9630000D02*
X2355558Y9630000D01*
G75*
G02*
X2105000Y9880558I0J250558D01*
G01*
X2105000Y11119442D01*
G75*
G02*
X2355558Y11370000I250558J0D01*
G01*
X4044442Y11370000D01*
G75*
G02*
X4295000Y11119442I0J-250558D01*
G01*
X4295000Y9880558D01*
G75*
G02*
X4044442Y9630000I-250558J0D01*
G01*
G37*
G04 #@! TD.AperFunction*
D11*
X83180000Y76160000D03*
X25080000Y76160000D03*
D12*
X97450000Y46550000D03*
X97450000Y31450000D03*
X22500000Y50010000D03*
X22790000Y32570000D03*
D13*
X58700000Y3100000D03*
X54737600Y3100000D03*
X30481200Y3060000D03*
X26518800Y3060000D03*
D14*
X53000000Y19950000D03*
X53000000Y18650000D03*
X54400000Y18650000D03*
X43700000Y42100000D03*
X41100000Y42100000D03*
X42400000Y42100000D03*
X43700000Y43400000D03*
X41100000Y43400000D03*
X42400000Y43400000D03*
X55800000Y19950000D03*
X54400000Y19950000D03*
X55800000Y18650000D03*
X55050000Y26900000D03*
X53700000Y26900000D03*
X56350000Y26900000D03*
X47400000Y48150000D03*
X48750000Y48150000D03*
X50050000Y48150000D03*
D15*
X3750000Y41000000D03*
X10000000Y42800000D03*
D14*
X56960000Y64860000D03*
X21000000Y10200000D03*
D15*
X13500000Y67700000D03*
D14*
X3300000Y77700000D03*
D15*
X13800000Y72900000D03*
D16*
X36600000Y18300000D03*
X33800000Y18300000D03*
D15*
X52910000Y69920000D03*
X56600000Y69900000D03*
X55720000Y69910000D03*
X53880000Y69900000D03*
X54800000Y69900000D03*
X32130000Y76400000D03*
X38450000Y80450000D03*
X58469638Y76369638D03*
X70000000Y72300000D03*
X64950000Y72350000D03*
X76200000Y76200000D03*
X105500000Y72700000D03*
X115300000Y76100000D03*
X123300000Y72800000D03*
X116600000Y64300000D03*
X118400000Y64300000D03*
X117500000Y64300000D03*
X44900000Y18300000D03*
X44400000Y17500000D03*
X43900000Y18300000D03*
X10050000Y27550000D03*
X10050000Y26400000D03*
X9200000Y16950000D03*
X89900000Y64500000D03*
X98900000Y58800000D03*
X99900000Y58800000D03*
X100900000Y58800000D03*
D14*
X78819400Y55435414D03*
D16*
X85000000Y60000000D03*
D14*
X69929400Y14541420D03*
D15*
X8600000Y62600000D03*
X17200000Y60500000D03*
X8400000Y59900000D03*
X50100000Y60700000D03*
X62200000Y60100000D03*
X118320000Y56620000D03*
X130669000Y57431000D03*
X44300000Y65700000D03*
X118100000Y52300000D03*
D14*
X69859000Y59641000D03*
D16*
X87100000Y61350000D03*
X88332080Y61332080D03*
X89000000Y61300000D03*
X90948280Y61351720D03*
D15*
X37900000Y84300000D03*
X9100000Y73100000D03*
D14*
X5400000Y73100000D03*
D15*
X34700000Y76100000D03*
X5600000Y60600000D03*
D16*
X34500000Y18300000D03*
D15*
X39500000Y76100000D03*
X46530000Y76130000D03*
D14*
X8600000Y86100000D03*
D15*
X34500000Y82350000D03*
D16*
X35200000Y18300000D03*
X35900000Y18300000D03*
D15*
X39400000Y17300000D03*
X36300000Y11900000D03*
X28200000Y65200000D03*
X11950000Y16950000D03*
X3900000Y29000000D03*
X129100000Y27000000D03*
D16*
X13700000Y78900000D03*
D15*
X39250000Y60100000D03*
X13500000Y24250000D03*
X38580000Y65530000D03*
X46750000Y72750000D03*
X43330000Y79420000D03*
D14*
X66147800Y6247800D03*
D15*
X49500000Y65500000D03*
X5700000Y53400000D03*
X113090000Y64410000D03*
X93590000Y65090000D03*
X50900000Y65500000D03*
X112020000Y57450000D03*
X128670000Y63360000D03*
X66258823Y60841177D03*
D16*
X44600000Y21600000D03*
X40650000Y20450000D03*
D15*
X44750000Y67500000D03*
X45550000Y82450000D03*
X25160000Y66910000D03*
X21000000Y84050000D03*
D14*
X33200000Y36600000D03*
X33200000Y33700000D03*
X33200000Y35200000D03*
X34600000Y36600000D03*
X34600000Y35200000D03*
X34600000Y33700000D03*
X16500000Y86800000D03*
D15*
X64900000Y80300000D03*
X70500000Y80300000D03*
X76130000Y80270000D03*
X123400000Y80300000D03*
X114800000Y80300000D03*
X16500000Y84600000D03*
X78819400Y14541408D03*
X49800000Y76300000D03*
X55050000Y83100000D03*
X76800000Y55400000D03*
X50500000Y73000000D03*
D16*
X37700000Y17700000D03*
D15*
X48100000Y76300000D03*
X43650000Y83150000D03*
X6500000Y22300000D03*
X10800000Y24600000D03*
X108495000Y57300000D03*
X43500000Y57300000D03*
D14*
X71900000Y11200000D03*
X67900000Y11200000D03*
X83100000Y65400000D03*
D17*
X108484440Y52261840D03*
X107089980Y50852140D03*
D16*
X10392660Y53552660D03*
X12300000Y55500000D03*
D14*
X83300000Y35400000D03*
X83300000Y36800000D03*
D16*
X84000000Y52760920D03*
D14*
X83300000Y34000000D03*
X83300000Y32600000D03*
X84800000Y36800000D03*
X84800000Y35400000D03*
X84800000Y34000000D03*
X84800000Y32600000D03*
D16*
X90600000Y51200000D03*
D14*
X68200000Y33050000D03*
X69600000Y33050000D03*
X68200000Y36950000D03*
X68200000Y35650000D03*
X68200000Y34350000D03*
X69600000Y34350000D03*
X69600000Y36950000D03*
X69600000Y35650000D03*
D15*
X122850000Y50030000D03*
X109700000Y40960000D03*
X128000000Y35000000D03*
X36800000Y25900000D03*
D16*
X42500000Y31300000D03*
X42500000Y30600000D03*
X42500000Y29900000D03*
X42500000Y32000000D03*
D15*
X41000000Y36100000D03*
X41000000Y35200000D03*
X41000000Y34300000D03*
X36800000Y25000000D03*
X29900000Y27400000D03*
X29900000Y26400000D03*
X37000000Y68050000D03*
X36400000Y84300000D03*
X124500000Y67800000D03*
X33770000Y64870000D03*
X119800000Y58300000D03*
X128800000Y47000000D03*
D18*
X8200000Y41000000D02*
X10000000Y42800000D01*
X3750000Y41000000D02*
X8200000Y41000000D01*
D19*
X38350000Y59200000D02*
X39250000Y60100000D01*
X19300000Y59200000D02*
X38350000Y59200000D01*
X13950000Y53850000D02*
X19300000Y59200000D01*
X13950000Y25250000D02*
X13950000Y53850000D01*
X13500000Y24800000D02*
X13950000Y25250000D01*
X13500000Y24250000D02*
X13500000Y24800000D01*
D18*
X43450000Y20450000D02*
X44600000Y21600000D01*
X40650000Y20450000D02*
X43450000Y20450000D01*
X44750000Y75646926D02*
X44750000Y67500000D01*
X44750000Y78150000D02*
X44750000Y75646926D01*
X45650000Y79050000D02*
X44750000Y78150000D01*
X45550000Y82450000D02*
X45650000Y79050000D01*
X96941408Y14541408D02*
X78819400Y14541408D01*
X98741408Y14541408D02*
X96941408Y14541408D01*
X116050000Y58100000D02*
X116050000Y31850000D01*
X76296926Y63400000D02*
X110750000Y63400000D01*
X65896926Y73800000D02*
X76296926Y63400000D01*
X55500000Y73800000D02*
X65896926Y73800000D01*
X53000000Y76300000D02*
X55500000Y73800000D01*
X110750000Y63400000D02*
X116050000Y58100000D01*
X49800000Y76300000D02*
X53000000Y76300000D01*
X105400000Y21200000D02*
X98741408Y14541408D01*
X116050000Y31850000D02*
X105400000Y21200000D01*
X105800000Y21600000D02*
X105400000Y21200000D01*
X60725000Y71475000D02*
X76800000Y55400000D01*
X52025000Y71475000D02*
X52625000Y71475000D01*
X50500000Y73000000D02*
X52025000Y71475000D01*
X52625000Y71475000D02*
X60725000Y71475000D01*
X37300000Y17300000D02*
X37700000Y17700000D01*
X14916980Y22933020D02*
X20550000Y17300000D01*
X20550000Y17300000D02*
X37300000Y17300000D01*
X48100000Y76300000D02*
X48100000Y71500000D01*
X14916980Y53243710D02*
X19773270Y58100000D01*
X14916980Y52816980D02*
X14916980Y53243710D01*
X14916980Y52816980D02*
X14916980Y22933020D01*
X19773270Y58100000D02*
X40000000Y58100000D01*
X48100000Y66200000D02*
X48100000Y71500000D01*
X40000000Y58100000D02*
X48100000Y66200000D01*
X13200690Y54900690D02*
X13400000Y55100000D01*
X13400000Y55100000D02*
X13775000Y55475000D01*
X12950000Y54650000D02*
X13775000Y55475000D01*
X12750000Y54450000D02*
X12950000Y54650000D01*
X12750000Y26550000D02*
X12750000Y54450000D01*
X10800000Y24600000D02*
X12750000Y26550000D01*
X41850000Y66650000D02*
X41850000Y81350000D01*
X35900000Y60700000D02*
X41850000Y66650000D01*
X41850000Y81350000D02*
X43650000Y83150000D01*
X19000000Y60700000D02*
X35900000Y60700000D01*
X13775000Y55475000D02*
X19000000Y60700000D01*
D20*
X71900000Y11200000D02*
X67900000Y11200000D01*
X100700000Y11200000D02*
X71900000Y11200000D01*
X126900000Y37400000D02*
X100700000Y11200000D01*
X126900000Y58500000D02*
X126900000Y37400000D01*
X117900000Y67500000D02*
X126900000Y58500000D01*
X85200000Y67500000D02*
X117900000Y67500000D01*
X83100000Y65400000D02*
X85200000Y67500000D01*
D18*
X10392660Y53552660D02*
X10392660Y53592660D01*
D21*
X128497176Y90565396D02*
X128216227Y89887126D01*
X128073000Y89167077D01*
X128073000Y88432923D01*
X128216227Y87712874D01*
X128497176Y87034604D01*
X128905050Y86424176D01*
X129424176Y85905050D01*
X130034604Y85497176D01*
X130712874Y85216227D01*
X131432923Y85073000D01*
X132167077Y85073000D01*
X132887126Y85216227D01*
X133565396Y85497176D01*
X134098001Y85853050D01*
X134098000Y6146950D01*
X133565396Y6502824D01*
X132887126Y6783773D01*
X132167077Y6927000D01*
X131432923Y6927000D01*
X130712874Y6783773D01*
X130034604Y6502824D01*
X129424176Y6094950D01*
X128905050Y5575824D01*
X128497176Y4965396D01*
X128216227Y4287126D01*
X128073000Y3567077D01*
X128073000Y2832923D01*
X128216227Y2112874D01*
X128497176Y1434604D01*
X128853050Y902000D01*
X61306084Y902000D01*
X61338622Y934538D01*
X61710383Y1490917D01*
X61966456Y2109132D01*
X62097000Y2765425D01*
X62097000Y3434575D01*
X61966456Y4090868D01*
X61710383Y4709083D01*
X61338622Y5265462D01*
X60865462Y5738622D01*
X60309083Y6110383D01*
X59690868Y6366456D01*
X59034575Y6497000D01*
X58365425Y6497000D01*
X57709132Y6366456D01*
X57090917Y6110383D01*
X56718800Y5861742D01*
X56346683Y6110383D01*
X55728468Y6366456D01*
X55072175Y6497000D01*
X54403025Y6497000D01*
X53746732Y6366456D01*
X53128517Y6110383D01*
X52572138Y5738622D01*
X52098978Y5265462D01*
X51727217Y4709083D01*
X51471144Y4090868D01*
X51340600Y3434575D01*
X51340600Y2765425D01*
X51471144Y2109132D01*
X51727217Y1490917D01*
X52098978Y934538D01*
X52131516Y902000D01*
X33124808Y902000D01*
X33491583Y1450917D01*
X33747656Y2069132D01*
X33878200Y2725425D01*
X33878200Y3394575D01*
X33747656Y4050868D01*
X33491583Y4669083D01*
X33119822Y5225462D01*
X32646662Y5698622D01*
X32090283Y6070383D01*
X31472068Y6326456D01*
X30815775Y6457000D01*
X30146625Y6457000D01*
X29490332Y6326456D01*
X28872117Y6070383D01*
X28500000Y5821742D01*
X28127883Y6070383D01*
X27509668Y6326456D01*
X26853375Y6457000D01*
X26184225Y6457000D01*
X25527932Y6326456D01*
X24909717Y6070383D01*
X24353338Y5698622D01*
X23880178Y5225462D01*
X23508417Y4669083D01*
X23252344Y4050868D01*
X23121800Y3394575D01*
X23121800Y2725425D01*
X23252344Y2069132D01*
X23508417Y1450917D01*
X23842858Y950391D01*
X6266278Y1080588D01*
X6502824Y1434604D01*
X6783773Y2112874D01*
X6927000Y2832923D01*
X6927000Y3567077D01*
X6783773Y4287126D01*
X6502824Y4965396D01*
X6094950Y5575824D01*
X5575824Y6094950D01*
X4965396Y6502824D01*
X4287126Y6783773D01*
X3567077Y6927000D01*
X2832923Y6927000D01*
X2112874Y6783773D01*
X1434604Y6502824D01*
X902000Y6146950D01*
X902000Y10343994D01*
X19538000Y10343994D01*
X19538000Y10056006D01*
X19594184Y9773550D01*
X19704392Y9507483D01*
X19864390Y9268029D01*
X20068029Y9064390D01*
X20307483Y8904392D01*
X20573550Y8794184D01*
X20856006Y8738000D01*
X21143994Y8738000D01*
X21426450Y8794184D01*
X21692517Y8904392D01*
X21931971Y9064390D01*
X22135610Y9268029D01*
X22295608Y9507483D01*
X22405816Y9773550D01*
X22462000Y10056006D01*
X22462000Y10343994D01*
X22405816Y10626450D01*
X22295608Y10892517D01*
X22135610Y11131971D01*
X21931971Y11335610D01*
X21692517Y11495608D01*
X21426450Y11605816D01*
X21143994Y11662000D01*
X20856006Y11662000D01*
X20573550Y11605816D01*
X20307483Y11495608D01*
X20068029Y11335610D01*
X19864390Y11131971D01*
X19704392Y10892517D01*
X19594184Y10626450D01*
X19538000Y10343994D01*
X902000Y10343994D01*
X902000Y13040000D01*
X1269789Y13040000D01*
X1302554Y12707330D01*
X1399590Y12387444D01*
X1557169Y12092636D01*
X1769234Y11834234D01*
X2027636Y11622169D01*
X2322444Y11464590D01*
X2642330Y11367554D01*
X2891632Y11343000D01*
X3508368Y11343000D01*
X3757670Y11367554D01*
X4077556Y11464590D01*
X4372364Y11622169D01*
X4630766Y11834234D01*
X4842831Y12092636D01*
X5000410Y12387444D01*
X5097446Y12707330D01*
X5130211Y13040000D01*
X5097446Y13372670D01*
X5000410Y13692556D01*
X4842831Y13987364D01*
X4630766Y14245766D01*
X4372364Y14457831D01*
X4077556Y14615410D01*
X3757670Y14712446D01*
X3508368Y14737000D01*
X2891632Y14737000D01*
X2642330Y14712446D01*
X2322444Y14615410D01*
X2027636Y14457831D01*
X1769234Y14245766D01*
X1557169Y13987364D01*
X1399590Y13692556D01*
X1302554Y13372670D01*
X1269789Y13040000D01*
X902000Y13040000D01*
X902000Y22425232D01*
X5228500Y22425232D01*
X5228500Y22174768D01*
X5277363Y21929117D01*
X5373212Y21697719D01*
X5512362Y21489466D01*
X5689466Y21312362D01*
X5897719Y21173212D01*
X6129117Y21077363D01*
X6374768Y21028500D01*
X6625232Y21028500D01*
X6870883Y21077363D01*
X7102281Y21173212D01*
X7310534Y21312362D01*
X7487638Y21489466D01*
X7626788Y21697719D01*
X7722637Y21929117D01*
X7771500Y22174768D01*
X7771500Y22425232D01*
X7722637Y22670883D01*
X7626788Y22902281D01*
X7487638Y23110534D01*
X7310534Y23287638D01*
X7102281Y23426788D01*
X6870883Y23522637D01*
X6625232Y23571500D01*
X6374768Y23571500D01*
X6129117Y23522637D01*
X5897719Y23426788D01*
X5689466Y23287638D01*
X5512362Y23110534D01*
X5373212Y22902281D01*
X5277363Y22670883D01*
X5228500Y22425232D01*
X902000Y22425232D01*
X902000Y24725232D01*
X9528500Y24725232D01*
X9528500Y24474768D01*
X9577363Y24229117D01*
X9673212Y23997719D01*
X9812362Y23789466D01*
X9989466Y23612362D01*
X10197719Y23473212D01*
X10429117Y23377363D01*
X10674768Y23328500D01*
X10925232Y23328500D01*
X11170883Y23377363D01*
X11402281Y23473212D01*
X11610534Y23612362D01*
X11787638Y23789466D01*
X11926788Y23997719D01*
X12022637Y24229117D01*
X12047635Y24354792D01*
X13459758Y25766914D01*
X13500033Y25799967D01*
X13631946Y25960703D01*
X13729965Y26144085D01*
X13790326Y26343066D01*
X13805600Y26498147D01*
X13805600Y26498156D01*
X13810706Y26549999D01*
X13805600Y26601842D01*
X13805600Y53243710D01*
X13856274Y53243710D01*
X13861380Y53191867D01*
X13861380Y52868832D01*
X13861381Y22984873D01*
X13856274Y22933020D01*
X13876655Y22726086D01*
X13937015Y22527106D01*
X14035034Y22343723D01*
X14133893Y22223264D01*
X14166948Y22182987D01*
X14207223Y22149934D01*
X19766914Y16590242D01*
X19799967Y16549967D01*
X19960703Y16418054D01*
X20144085Y16320035D01*
X20343066Y16259674D01*
X20498147Y16244400D01*
X20498156Y16244400D01*
X20549999Y16239294D01*
X20601842Y16244400D01*
X37248157Y16244400D01*
X37300000Y16239294D01*
X37351843Y16244400D01*
X37351853Y16244400D01*
X37506934Y16259674D01*
X37705915Y16320035D01*
X37889297Y16418054D01*
X38050033Y16549967D01*
X38083090Y16590247D01*
X38133682Y16640839D01*
X38242124Y16685757D01*
X38429576Y16811009D01*
X38588991Y16970424D01*
X38714243Y17157876D01*
X38800518Y17366162D01*
X38844500Y17587277D01*
X38844500Y17812723D01*
X38800518Y18033838D01*
X38714243Y18242124D01*
X38588991Y18429576D01*
X38429576Y18588991D01*
X38242124Y18714243D01*
X38033838Y18800518D01*
X37812723Y18844500D01*
X37587277Y18844500D01*
X37366162Y18800518D01*
X37157876Y18714243D01*
X36970424Y18588991D01*
X36811009Y18429576D01*
X36761580Y18355600D01*
X20987244Y18355600D01*
X15972580Y23370263D01*
X15972580Y30195909D01*
X16135129Y29803482D01*
X16174932Y29577929D01*
X16183260Y29549992D01*
X16195259Y29528178D01*
X16331401Y29329638D01*
X16403239Y29156205D01*
X17191957Y27975805D01*
X18195805Y26971957D01*
X19376205Y26183239D01*
X20687796Y25639961D01*
X21773000Y25424100D01*
X21773000Y20000000D01*
X21775440Y19975224D01*
X21782667Y19951399D01*
X21794403Y19929443D01*
X21810197Y19910197D01*
X21829443Y19894403D01*
X21851399Y19882667D01*
X21875224Y19875440D01*
X21900000Y19873000D01*
X27170954Y19873000D01*
X27173000Y19099664D01*
X27175440Y19075224D01*
X27182667Y19051399D01*
X27194403Y19029443D01*
X27210197Y19010197D01*
X27229443Y18994403D01*
X27251399Y18982667D01*
X27275224Y18975440D01*
X27300000Y18973000D01*
X46273000Y18973000D01*
X46273000Y16400000D01*
X46275440Y16375224D01*
X46282667Y16351399D01*
X46294403Y16329443D01*
X46310197Y16310197D01*
X46329443Y16294403D01*
X46351399Y16282667D01*
X46375224Y16275440D01*
X46400000Y16273000D01*
X83500000Y16273000D01*
X83523566Y16275206D01*
X83547459Y16282201D01*
X83569529Y16293723D01*
X83588927Y16309330D01*
X83604907Y16328421D01*
X83616855Y16350262D01*
X83624313Y16374015D01*
X83626994Y16398767D01*
X83675773Y21423000D01*
X104130156Y21423000D01*
X98304165Y15597008D01*
X79528222Y15597008D01*
X79421681Y15668196D01*
X79190283Y15764045D01*
X78944632Y15812908D01*
X78694168Y15812908D01*
X78448517Y15764045D01*
X78217119Y15668196D01*
X78008866Y15529046D01*
X77831762Y15351942D01*
X77692612Y15143689D01*
X77596763Y14912291D01*
X77547900Y14666640D01*
X77547900Y14416176D01*
X77596763Y14170525D01*
X77692612Y13939127D01*
X77831762Y13730874D01*
X78008866Y13553770D01*
X78217119Y13414620D01*
X78448517Y13318771D01*
X78694168Y13269908D01*
X78944632Y13269908D01*
X79190283Y13318771D01*
X79421681Y13414620D01*
X79528222Y13485808D01*
X98689565Y13485808D01*
X98741408Y13480702D01*
X98793251Y13485808D01*
X98793261Y13485808D01*
X98948342Y13501082D01*
X99147323Y13561443D01*
X99330705Y13659462D01*
X99491441Y13791375D01*
X99524498Y13831655D01*
X106183087Y20490243D01*
X106183092Y20490249D01*
X106583087Y20890244D01*
X116759758Y31066914D01*
X116800033Y31099967D01*
X116834631Y31142124D01*
X116931945Y31260702D01*
X116931946Y31260703D01*
X117029965Y31444085D01*
X117090326Y31643066D01*
X117105600Y31798147D01*
X117105600Y31798156D01*
X117110706Y31849999D01*
X117105600Y31901842D01*
X117105600Y50155232D01*
X121578500Y50155232D01*
X121578500Y49904768D01*
X121627363Y49659117D01*
X121723212Y49427719D01*
X121862362Y49219466D01*
X122039466Y49042362D01*
X122247719Y48903212D01*
X122479117Y48807363D01*
X122724768Y48758500D01*
X122975232Y48758500D01*
X123220883Y48807363D01*
X123452281Y48903212D01*
X123660534Y49042362D01*
X123837638Y49219466D01*
X123976788Y49427719D01*
X124072637Y49659117D01*
X124121500Y49904768D01*
X124121500Y50155232D01*
X124072637Y50400883D01*
X123976788Y50632281D01*
X123837638Y50840534D01*
X123660534Y51017638D01*
X123452281Y51156788D01*
X123220883Y51252637D01*
X122975232Y51301500D01*
X122724768Y51301500D01*
X122479117Y51252637D01*
X122247719Y51156788D01*
X122039466Y51017638D01*
X121862362Y50840534D01*
X121723212Y50632281D01*
X121627363Y50400883D01*
X121578500Y50155232D01*
X117105600Y50155232D01*
X117105600Y58048157D01*
X117110706Y58100000D01*
X117105600Y58151843D01*
X117105600Y58151853D01*
X117090326Y58306934D01*
X117054441Y58425232D01*
X118528500Y58425232D01*
X118528500Y58174768D01*
X118577363Y57929117D01*
X118673212Y57697719D01*
X118812362Y57489466D01*
X118989466Y57312362D01*
X119197719Y57173212D01*
X119429117Y57077363D01*
X119674768Y57028500D01*
X119925232Y57028500D01*
X120170883Y57077363D01*
X120402281Y57173212D01*
X120610534Y57312362D01*
X120787638Y57489466D01*
X120926788Y57697719D01*
X121022637Y57929117D01*
X121071500Y58174768D01*
X121071500Y58425232D01*
X121022637Y58670883D01*
X120926788Y58902281D01*
X120787638Y59110534D01*
X120610534Y59287638D01*
X120402281Y59426788D01*
X120170883Y59522637D01*
X119925232Y59571500D01*
X119674768Y59571500D01*
X119429117Y59522637D01*
X119197719Y59426788D01*
X118989466Y59287638D01*
X118812362Y59110534D01*
X118673212Y58902281D01*
X118577363Y58670883D01*
X118528500Y58425232D01*
X117054441Y58425232D01*
X117029965Y58505915D01*
X116998406Y58564959D01*
X116931946Y58689298D01*
X116833087Y58809757D01*
X116833086Y58809758D01*
X116800033Y58850033D01*
X116759757Y58883087D01*
X111533090Y64109753D01*
X111500033Y64150033D01*
X111339297Y64281946D01*
X111155915Y64379965D01*
X110956934Y64440326D01*
X110801853Y64455600D01*
X110801843Y64455600D01*
X110750000Y64460706D01*
X110698157Y64455600D01*
X94695327Y64455600D01*
X94716788Y64487719D01*
X94736468Y64535232D01*
X111818500Y64535232D01*
X111818500Y64284768D01*
X111867363Y64039117D01*
X111963212Y63807719D01*
X112102362Y63599466D01*
X112279466Y63422362D01*
X112487719Y63283212D01*
X112719117Y63187363D01*
X112964768Y63138500D01*
X113215232Y63138500D01*
X113460883Y63187363D01*
X113692281Y63283212D01*
X113900534Y63422362D01*
X114077638Y63599466D01*
X114216788Y63807719D01*
X114312637Y64039117D01*
X114361500Y64284768D01*
X114361500Y64535232D01*
X114312637Y64780883D01*
X114216788Y65012281D01*
X114077638Y65220534D01*
X113900534Y65397638D01*
X113692281Y65536788D01*
X113460883Y65632637D01*
X113215232Y65681500D01*
X112964768Y65681500D01*
X112719117Y65632637D01*
X112487719Y65536788D01*
X112279466Y65397638D01*
X112102362Y65220534D01*
X111963212Y65012281D01*
X111867363Y64780883D01*
X111818500Y64535232D01*
X94736468Y64535232D01*
X94812637Y64719117D01*
X94861500Y64964768D01*
X94861500Y65215232D01*
X94812637Y65460883D01*
X94716788Y65692281D01*
X94577638Y65900534D01*
X94400534Y66077638D01*
X94250780Y66177700D01*
X117352286Y66177700D01*
X125577700Y57952285D01*
X125577701Y37947716D01*
X100152286Y12522300D01*
X72528076Y12522300D01*
X72326450Y12605816D01*
X72043994Y12662000D01*
X71756006Y12662000D01*
X71473550Y12605816D01*
X71271924Y12522300D01*
X68528076Y12522300D01*
X68326450Y12605816D01*
X68043994Y12662000D01*
X67756006Y12662000D01*
X67473550Y12605816D01*
X67207483Y12495608D01*
X66968029Y12335610D01*
X66764390Y12131971D01*
X66604392Y11892517D01*
X66494184Y11626450D01*
X66438000Y11343994D01*
X66438000Y11056006D01*
X66494184Y10773550D01*
X66604392Y10507483D01*
X66764390Y10268029D01*
X66968029Y10064390D01*
X67207483Y9904392D01*
X67473550Y9794184D01*
X67756006Y9738000D01*
X68043994Y9738000D01*
X68326450Y9794184D01*
X68528076Y9877700D01*
X71271924Y9877700D01*
X71473550Y9794184D01*
X71756006Y9738000D01*
X72043994Y9738000D01*
X72326450Y9794184D01*
X72528076Y9877700D01*
X100635049Y9877700D01*
X100700000Y9871303D01*
X100764951Y9877700D01*
X100764959Y9877700D01*
X100959216Y9896833D01*
X101208471Y9972443D01*
X101438185Y10095228D01*
X101639531Y10260469D01*
X101680941Y10310927D01*
X126803148Y35433133D01*
X126777363Y35370883D01*
X126728500Y35125232D01*
X126728500Y34874768D01*
X126777363Y34629117D01*
X126873212Y34397719D01*
X127012362Y34189466D01*
X127189466Y34012362D01*
X127397719Y33873212D01*
X127629117Y33777363D01*
X127874768Y33728500D01*
X128125232Y33728500D01*
X128370883Y33777363D01*
X128602281Y33873212D01*
X128810534Y34012362D01*
X128987638Y34189466D01*
X129126788Y34397719D01*
X129222637Y34629117D01*
X129271500Y34874768D01*
X129271500Y35125232D01*
X129222637Y35370883D01*
X129126788Y35602281D01*
X128987638Y35810534D01*
X128810534Y35987638D01*
X128602281Y36126788D01*
X128370883Y36222637D01*
X128125232Y36271500D01*
X127874768Y36271500D01*
X127629117Y36222637D01*
X127566867Y36196852D01*
X127789079Y36419064D01*
X127839531Y36460469D01*
X127880936Y36510921D01*
X127880940Y36510925D01*
X127978886Y36630273D01*
X128004772Y36661815D01*
X128127557Y36891529D01*
X128185569Y37082771D01*
X128203167Y37140783D01*
X128205628Y37165766D01*
X128222300Y37335041D01*
X128222300Y37335048D01*
X128228697Y37399999D01*
X128222300Y37464950D01*
X128222300Y45863030D01*
X128429117Y45777363D01*
X128674768Y45728500D01*
X128925232Y45728500D01*
X129170883Y45777363D01*
X129402281Y45873212D01*
X129610534Y46012362D01*
X129787638Y46189466D01*
X129926788Y46397719D01*
X130022637Y46629117D01*
X130071500Y46874768D01*
X130071500Y47125232D01*
X130022637Y47370883D01*
X129926788Y47602281D01*
X129787638Y47810534D01*
X129610534Y47987638D01*
X129402281Y48126788D01*
X129170883Y48222637D01*
X128925232Y48271500D01*
X128674768Y48271500D01*
X128429117Y48222637D01*
X128222300Y48136970D01*
X128222300Y58435050D01*
X128228697Y58500001D01*
X128222300Y58564952D01*
X128222300Y58564959D01*
X128203167Y58759216D01*
X128165592Y58883087D01*
X128127557Y59008471D01*
X128004772Y59238185D01*
X127930997Y59328079D01*
X127880940Y59389075D01*
X127880936Y59389079D01*
X127839531Y59439531D01*
X127789080Y59480935D01*
X123784783Y63485232D01*
X127398500Y63485232D01*
X127398500Y63234768D01*
X127447363Y62989117D01*
X127543212Y62757719D01*
X127682362Y62549466D01*
X127859466Y62372362D01*
X128067719Y62233212D01*
X128299117Y62137363D01*
X128544768Y62088500D01*
X128795232Y62088500D01*
X129040883Y62137363D01*
X129272281Y62233212D01*
X129480534Y62372362D01*
X129657638Y62549466D01*
X129796788Y62757719D01*
X129892637Y62989117D01*
X129941500Y63234768D01*
X129941500Y63485232D01*
X129892637Y63730883D01*
X129796788Y63962281D01*
X129657638Y64170534D01*
X129480534Y64347638D01*
X129272281Y64486788D01*
X129040883Y64582637D01*
X128795232Y64631500D01*
X128544768Y64631500D01*
X128299117Y64582637D01*
X128067719Y64486788D01*
X127859466Y64347638D01*
X127682362Y64170534D01*
X127543212Y63962281D01*
X127447363Y63730883D01*
X127398500Y63485232D01*
X123784783Y63485232D01*
X119344783Y67925232D01*
X123228500Y67925232D01*
X123228500Y67674768D01*
X123277363Y67429117D01*
X123373212Y67197719D01*
X123512362Y66989466D01*
X123689466Y66812362D01*
X123897719Y66673212D01*
X124129117Y66577363D01*
X124374768Y66528500D01*
X124625232Y66528500D01*
X124870883Y66577363D01*
X125102281Y66673212D01*
X125310534Y66812362D01*
X125487638Y66989466D01*
X125626788Y67197719D01*
X125722637Y67429117D01*
X125771500Y67674768D01*
X125771500Y67925232D01*
X125722637Y68170883D01*
X125626788Y68402281D01*
X125487638Y68610534D01*
X125310534Y68787638D01*
X125102281Y68926788D01*
X124870883Y69022637D01*
X124625232Y69071500D01*
X124374768Y69071500D01*
X124129117Y69022637D01*
X123897719Y68926788D01*
X123689466Y68787638D01*
X123512362Y68610534D01*
X123373212Y68402281D01*
X123277363Y68170883D01*
X123228500Y67925232D01*
X119344783Y67925232D01*
X118880941Y68389073D01*
X118839531Y68439531D01*
X118638185Y68604772D01*
X118408471Y68727557D01*
X118159216Y68803167D01*
X117964959Y68822300D01*
X117964951Y68822300D01*
X117900000Y68828697D01*
X117835049Y68822300D01*
X85264950Y68822300D01*
X85199999Y68828697D01*
X85135048Y68822300D01*
X85135041Y68822300D01*
X84965766Y68805628D01*
X84940783Y68803167D01*
X84889591Y68787638D01*
X84691529Y68727557D01*
X84461815Y68604772D01*
X84260469Y68439531D01*
X84219059Y68389073D01*
X82609110Y66779124D01*
X82407483Y66695608D01*
X82168029Y66535610D01*
X81964390Y66331971D01*
X81804392Y66092517D01*
X81694184Y65826450D01*
X81638000Y65543994D01*
X81638000Y65256006D01*
X81694184Y64973550D01*
X81804392Y64707483D01*
X81964390Y64468029D01*
X81976819Y64455600D01*
X76734170Y64455600D01*
X66680016Y74509753D01*
X66646959Y74550033D01*
X66486223Y74681946D01*
X66302841Y74779965D01*
X66103860Y74840326D01*
X65948779Y74855600D01*
X65948769Y74855600D01*
X65896926Y74860706D01*
X65845083Y74855600D01*
X55937244Y74855600D01*
X53783090Y77009753D01*
X53750033Y77050033D01*
X53589297Y77181946D01*
X53405915Y77279965D01*
X53206934Y77340326D01*
X53051853Y77355600D01*
X53051843Y77355600D01*
X53000000Y77360706D01*
X52948157Y77355600D01*
X50508822Y77355600D01*
X50402281Y77426788D01*
X50170883Y77522637D01*
X49925232Y77571500D01*
X49674768Y77571500D01*
X49429117Y77522637D01*
X49197719Y77426788D01*
X48989466Y77287638D01*
X48950000Y77248172D01*
X48910534Y77287638D01*
X48702281Y77426788D01*
X48470883Y77522637D01*
X48225232Y77571500D01*
X47974768Y77571500D01*
X47729117Y77522637D01*
X47497719Y77426788D01*
X47289466Y77287638D01*
X47112362Y77110534D01*
X46973212Y76902281D01*
X46877363Y76670883D01*
X46828500Y76425232D01*
X46828500Y76174768D01*
X46877363Y75929117D01*
X46973212Y75697719D01*
X47044400Y75591178D01*
X47044401Y71551853D01*
X47044400Y66637244D01*
X39562757Y59155600D01*
X19825112Y59155600D01*
X19773269Y59160706D01*
X19721426Y59155600D01*
X19721417Y59155600D01*
X19566336Y59140326D01*
X19367355Y59079965D01*
X19183973Y58981946D01*
X19023237Y58850033D01*
X18990184Y58809758D01*
X14207223Y54026796D01*
X14166948Y53993743D01*
X14133895Y53953468D01*
X14133893Y53953466D01*
X14035034Y53833007D01*
X13994408Y53757000D01*
X13937015Y53649625D01*
X13876654Y53450644D01*
X13861380Y53295563D01*
X13861380Y53295553D01*
X13856274Y53243710D01*
X13805600Y53243710D01*
X13805600Y54012757D01*
X14558087Y54765243D01*
X19437244Y59644400D01*
X35848157Y59644400D01*
X35900000Y59639294D01*
X35951843Y59644400D01*
X35951853Y59644400D01*
X36106934Y59659674D01*
X36305915Y59720035D01*
X36489297Y59818054D01*
X36650033Y59949967D01*
X36683090Y59990247D01*
X42559758Y65866914D01*
X42600033Y65899967D01*
X42676439Y65993067D01*
X42731946Y66060703D01*
X42829965Y66244085D01*
X42890326Y66443066D01*
X42910707Y66650000D01*
X42905600Y66701853D01*
X42905600Y80912757D01*
X43895209Y81902365D01*
X44020883Y81927363D01*
X44252281Y82023212D01*
X44329224Y82074624D01*
X44423212Y81847719D01*
X44515730Y81709255D01*
X44581464Y79474308D01*
X44040247Y78933090D01*
X43999967Y78900033D01*
X43868054Y78739297D01*
X43770035Y78555914D01*
X43709674Y78356933D01*
X43694400Y78201852D01*
X43694400Y78201843D01*
X43689294Y78150000D01*
X43694400Y78098157D01*
X43694401Y75698788D01*
X43694400Y75698778D01*
X43694401Y68208823D01*
X43623212Y68102281D01*
X43527363Y67870883D01*
X43478500Y67625232D01*
X43478500Y67374768D01*
X43527363Y67129117D01*
X43623212Y66897719D01*
X43762362Y66689466D01*
X43939466Y66512362D01*
X44147719Y66373212D01*
X44379117Y66277363D01*
X44624768Y66228500D01*
X44875232Y66228500D01*
X45120883Y66277363D01*
X45352281Y66373212D01*
X45560534Y66512362D01*
X45737638Y66689466D01*
X45876788Y66897719D01*
X45972637Y67129117D01*
X46021500Y67374768D01*
X46021500Y67625232D01*
X45972637Y67870883D01*
X45876788Y68102281D01*
X45805600Y68208822D01*
X45805600Y77712757D01*
X45896837Y77803994D01*
X79368000Y77803994D01*
X79368000Y77516006D01*
X79424184Y77233550D01*
X79534392Y76967483D01*
X79694390Y76728029D01*
X79898029Y76524390D01*
X80137483Y76364392D01*
X80403550Y76254184D01*
X80686006Y76198000D01*
X80973994Y76198000D01*
X81256450Y76254184D01*
X81522517Y76364392D01*
X81715960Y76493646D01*
X81679000Y76307836D01*
X81679000Y76012164D01*
X81736682Y75722174D01*
X81849831Y75449010D01*
X82014097Y75203168D01*
X82223168Y74994097D01*
X82469010Y74829831D01*
X82742174Y74716682D01*
X83032164Y74659000D01*
X83327836Y74659000D01*
X83617826Y74716682D01*
X83810783Y74796608D01*
X97463000Y74796608D01*
X97463000Y74523392D01*
X97516302Y74255427D01*
X97620857Y74003009D01*
X97772647Y73775839D01*
X97965839Y73582647D01*
X98193009Y73430857D01*
X98445427Y73326302D01*
X98713392Y73273000D01*
X98986608Y73273000D01*
X99254573Y73326302D01*
X99506991Y73430857D01*
X99734161Y73582647D01*
X99927353Y73775839D01*
X100079143Y74003009D01*
X100183698Y74255427D01*
X100237000Y74523392D01*
X100237000Y74796608D01*
X100183698Y75064573D01*
X100079143Y75316991D01*
X99927353Y75544161D01*
X99734161Y75737353D01*
X99506991Y75889143D01*
X99254573Y75993698D01*
X98986608Y76047000D01*
X98713392Y76047000D01*
X98445427Y75993698D01*
X98193009Y75889143D01*
X97965839Y75737353D01*
X97772647Y75544161D01*
X97620857Y75316991D01*
X97516302Y75064573D01*
X97463000Y74796608D01*
X83810783Y74796608D01*
X83890990Y74829831D01*
X84136832Y74994097D01*
X84345903Y75203168D01*
X84510169Y75449010D01*
X84623318Y75722174D01*
X84681000Y76012164D01*
X84681000Y76296608D01*
X123713000Y76296608D01*
X123713000Y76023392D01*
X123766302Y75755427D01*
X123870857Y75503009D01*
X124022647Y75275839D01*
X124215839Y75082647D01*
X124443009Y74930857D01*
X124695427Y74826302D01*
X124963392Y74773000D01*
X125236608Y74773000D01*
X125504573Y74826302D01*
X125756991Y74930857D01*
X125984161Y75082647D01*
X126177353Y75275839D01*
X126329143Y75503009D01*
X126433698Y75755427D01*
X126487000Y76023392D01*
X126487000Y76296608D01*
X126433698Y76564573D01*
X126329143Y76816991D01*
X126177353Y77044161D01*
X125984161Y77237353D01*
X125756991Y77389143D01*
X125504573Y77493698D01*
X125236608Y77547000D01*
X124963392Y77547000D01*
X124695427Y77493698D01*
X124443009Y77389143D01*
X124215839Y77237353D01*
X124022647Y77044161D01*
X123870857Y76816991D01*
X123766302Y76564573D01*
X123713000Y76296608D01*
X84681000Y76296608D01*
X84681000Y76307836D01*
X84623318Y76597826D01*
X84510169Y76870990D01*
X84345903Y77116832D01*
X84136832Y77325903D01*
X83890990Y77490169D01*
X83617826Y77603318D01*
X83327836Y77661000D01*
X83032164Y77661000D01*
X82742174Y77603318D01*
X82469010Y77490169D01*
X82258941Y77349805D01*
X82292000Y77516006D01*
X82292000Y77803994D01*
X82235816Y78086450D01*
X82125608Y78352517D01*
X81965610Y78591971D01*
X81761971Y78795610D01*
X81522517Y78955608D01*
X81256450Y79065816D01*
X80973994Y79122000D01*
X80686006Y79122000D01*
X80403550Y79065816D01*
X80137483Y78955608D01*
X79898029Y78795610D01*
X79694390Y78591971D01*
X79534392Y78352517D01*
X79424184Y78086450D01*
X79368000Y77803994D01*
X45896837Y77803994D01*
X46370760Y78277916D01*
X46421759Y78322342D01*
X46475820Y78392313D01*
X46531945Y78460702D01*
X46539324Y78474507D01*
X46548889Y78486887D01*
X46588260Y78566061D01*
X46629965Y78644085D01*
X46634509Y78659065D01*
X46641474Y78673071D01*
X46664642Y78758401D01*
X46690325Y78843065D01*
X46691859Y78858641D01*
X46695959Y78873741D01*
X46702038Y78961991D01*
X46710706Y79049999D01*
X46704077Y79117308D01*
X46665609Y80425232D01*
X63628500Y80425232D01*
X63628500Y80174768D01*
X63677363Y79929117D01*
X63773212Y79697719D01*
X63912362Y79489466D01*
X64089466Y79312362D01*
X64297719Y79173212D01*
X64529117Y79077363D01*
X64774768Y79028500D01*
X65025232Y79028500D01*
X65270883Y79077363D01*
X65502281Y79173212D01*
X65710534Y79312362D01*
X65887638Y79489466D01*
X66026788Y79697719D01*
X66122637Y79929117D01*
X66171500Y80174768D01*
X66171500Y80425232D01*
X69228500Y80425232D01*
X69228500Y80174768D01*
X69277363Y79929117D01*
X69373212Y79697719D01*
X69512362Y79489466D01*
X69689466Y79312362D01*
X69897719Y79173212D01*
X70129117Y79077363D01*
X70374768Y79028500D01*
X70625232Y79028500D01*
X70870883Y79077363D01*
X71102281Y79173212D01*
X71310534Y79312362D01*
X71487638Y79489466D01*
X71626788Y79697719D01*
X71722637Y79929117D01*
X71771500Y80174768D01*
X71771500Y80395232D01*
X74858500Y80395232D01*
X74858500Y80144768D01*
X74907363Y79899117D01*
X75003212Y79667719D01*
X75142362Y79459466D01*
X75319466Y79282362D01*
X75527719Y79143212D01*
X75759117Y79047363D01*
X76004768Y78998500D01*
X76255232Y78998500D01*
X76500883Y79047363D01*
X76732281Y79143212D01*
X76940534Y79282362D01*
X77117638Y79459466D01*
X77256788Y79667719D01*
X77352637Y79899117D01*
X77401500Y80144768D01*
X77401500Y80395232D01*
X77395533Y80425232D01*
X113528500Y80425232D01*
X113528500Y80174768D01*
X113577363Y79929117D01*
X113673212Y79697719D01*
X113812362Y79489466D01*
X113989466Y79312362D01*
X114197719Y79173212D01*
X114429117Y79077363D01*
X114674768Y79028500D01*
X114925232Y79028500D01*
X115170883Y79077363D01*
X115402281Y79173212D01*
X115610534Y79312362D01*
X115787638Y79489466D01*
X115926788Y79697719D01*
X116022637Y79929117D01*
X116071500Y80174768D01*
X116071500Y80425232D01*
X122128500Y80425232D01*
X122128500Y80174768D01*
X122177363Y79929117D01*
X122273212Y79697719D01*
X122412362Y79489466D01*
X122589466Y79312362D01*
X122797719Y79173212D01*
X123029117Y79077363D01*
X123274768Y79028500D01*
X123525232Y79028500D01*
X123770883Y79077363D01*
X124002281Y79173212D01*
X124210534Y79312362D01*
X124387638Y79489466D01*
X124526788Y79697719D01*
X124622637Y79929117D01*
X124671500Y80174768D01*
X124671500Y80425232D01*
X124622637Y80670883D01*
X124526788Y80902281D01*
X124387638Y81110534D01*
X124210534Y81287638D01*
X124002281Y81426788D01*
X123770883Y81522637D01*
X123525232Y81571500D01*
X123274768Y81571500D01*
X123029117Y81522637D01*
X122797719Y81426788D01*
X122589466Y81287638D01*
X122412362Y81110534D01*
X122273212Y80902281D01*
X122177363Y80670883D01*
X122128500Y80425232D01*
X116071500Y80425232D01*
X116022637Y80670883D01*
X115926788Y80902281D01*
X115787638Y81110534D01*
X115610534Y81287638D01*
X115402281Y81426788D01*
X115170883Y81522637D01*
X114925232Y81571500D01*
X114674768Y81571500D01*
X114429117Y81522637D01*
X114197719Y81426788D01*
X113989466Y81287638D01*
X113812362Y81110534D01*
X113673212Y80902281D01*
X113577363Y80670883D01*
X113528500Y80425232D01*
X77395533Y80425232D01*
X77352637Y80640883D01*
X77256788Y80872281D01*
X77117638Y81080534D01*
X76940534Y81257638D01*
X76732281Y81396788D01*
X76500883Y81492637D01*
X76255232Y81541500D01*
X76004768Y81541500D01*
X75759117Y81492637D01*
X75527719Y81396788D01*
X75319466Y81257638D01*
X75142362Y81080534D01*
X75003212Y80872281D01*
X74907363Y80640883D01*
X74858500Y80395232D01*
X71771500Y80395232D01*
X71771500Y80425232D01*
X71722637Y80670883D01*
X71626788Y80902281D01*
X71487638Y81110534D01*
X71310534Y81287638D01*
X71102281Y81426788D01*
X70870883Y81522637D01*
X70625232Y81571500D01*
X70374768Y81571500D01*
X70129117Y81522637D01*
X69897719Y81426788D01*
X69689466Y81287638D01*
X69512362Y81110534D01*
X69373212Y80902281D01*
X69277363Y80670883D01*
X69228500Y80425232D01*
X66171500Y80425232D01*
X66122637Y80670883D01*
X66026788Y80902281D01*
X65887638Y81110534D01*
X65710534Y81287638D01*
X65502281Y81426788D01*
X65270883Y81522637D01*
X65025232Y81571500D01*
X64774768Y81571500D01*
X64529117Y81522637D01*
X64297719Y81426788D01*
X64089466Y81287638D01*
X63912362Y81110534D01*
X63773212Y80902281D01*
X63677363Y80670883D01*
X63628500Y80425232D01*
X46665609Y80425232D01*
X46626006Y81771718D01*
X46676788Y81847719D01*
X46772637Y82079117D01*
X46821500Y82324768D01*
X46821500Y82575232D01*
X46772637Y82820883D01*
X46676788Y83052281D01*
X46561227Y83225232D01*
X53778500Y83225232D01*
X53778500Y82974768D01*
X53827363Y82729117D01*
X53923212Y82497719D01*
X54062362Y82289466D01*
X54239466Y82112362D01*
X54447719Y81973212D01*
X54679117Y81877363D01*
X54924768Y81828500D01*
X55175232Y81828500D01*
X55420883Y81877363D01*
X55652281Y81973212D01*
X55860534Y82112362D01*
X56037638Y82289466D01*
X56176788Y82497719D01*
X56272637Y82729117D01*
X56321500Y82974768D01*
X56321500Y83225232D01*
X56272637Y83470883D01*
X56176788Y83702281D01*
X56037638Y83910534D01*
X55860534Y84087638D01*
X55652281Y84226788D01*
X55420883Y84322637D01*
X55175232Y84371500D01*
X54924768Y84371500D01*
X54679117Y84322637D01*
X54447719Y84226788D01*
X54239466Y84087638D01*
X54062362Y83910534D01*
X53923212Y83702281D01*
X53827363Y83470883D01*
X53778500Y83225232D01*
X46561227Y83225232D01*
X46537638Y83260534D01*
X46360534Y83437638D01*
X46152281Y83576788D01*
X45920883Y83672637D01*
X45675232Y83721500D01*
X45424768Y83721500D01*
X45179117Y83672637D01*
X44947719Y83576788D01*
X44870776Y83525376D01*
X44776788Y83752281D01*
X44637638Y83960534D01*
X44460534Y84137638D01*
X44252281Y84276788D01*
X44020883Y84372637D01*
X43775232Y84421500D01*
X43524768Y84421500D01*
X43279117Y84372637D01*
X43047719Y84276788D01*
X42839466Y84137638D01*
X42662362Y83960534D01*
X42523212Y83752281D01*
X42427363Y83520883D01*
X42402365Y83395209D01*
X41140242Y82133085D01*
X41099968Y82100033D01*
X41066915Y82059758D01*
X41066913Y82059756D01*
X40968054Y81939297D01*
X40870035Y81755914D01*
X40809675Y81556934D01*
X40789294Y81350000D01*
X40794401Y81298147D01*
X40794400Y67087244D01*
X35462757Y61755600D01*
X19051843Y61755600D01*
X19000000Y61760706D01*
X18948157Y61755600D01*
X18948147Y61755600D01*
X18793066Y61740326D01*
X18594085Y61679965D01*
X18410702Y61581946D01*
X18290243Y61483087D01*
X18249967Y61450033D01*
X18216914Y61409758D01*
X13112862Y56305705D01*
X13029576Y56388991D01*
X12842124Y56514243D01*
X12633838Y56600518D01*
X12412723Y56644500D01*
X12187277Y56644500D01*
X11966162Y56600518D01*
X11757876Y56514243D01*
X11570424Y56388991D01*
X11411009Y56229576D01*
X11285757Y56042124D01*
X11199482Y55833838D01*
X11155500Y55612723D01*
X11155500Y55387277D01*
X11199482Y55166162D01*
X11285757Y54957876D01*
X11411009Y54770424D01*
X11570424Y54611009D01*
X11696833Y54526545D01*
X11689294Y54450000D01*
X11694401Y54398147D01*
X11694400Y26987244D01*
X10554792Y25847635D01*
X10429117Y25822637D01*
X10197719Y25726788D01*
X9989466Y25587638D01*
X9812362Y25410534D01*
X9673212Y25202281D01*
X9577363Y24970883D01*
X9528500Y24725232D01*
X902000Y24725232D01*
X902000Y41125232D01*
X2478500Y41125232D01*
X2478500Y40874768D01*
X2527363Y40629117D01*
X2623212Y40397719D01*
X2762362Y40189466D01*
X2939466Y40012362D01*
X3147719Y39873212D01*
X3379117Y39777363D01*
X3624768Y39728500D01*
X3875232Y39728500D01*
X4120883Y39777363D01*
X4352281Y39873212D01*
X4458822Y39944400D01*
X8148157Y39944400D01*
X8200000Y39939294D01*
X8251843Y39944400D01*
X8251853Y39944400D01*
X8406934Y39959674D01*
X8605915Y40020035D01*
X8789297Y40118054D01*
X8950033Y40249967D01*
X8983090Y40290247D01*
X10245209Y41552365D01*
X10370883Y41577363D01*
X10602281Y41673212D01*
X10810534Y41812362D01*
X10987638Y41989466D01*
X11126788Y42197719D01*
X11222637Y42429117D01*
X11271500Y42674768D01*
X11271500Y42925232D01*
X11222637Y43170883D01*
X11126788Y43402281D01*
X10987638Y43610534D01*
X10810534Y43787638D01*
X10602281Y43926788D01*
X10370883Y44022637D01*
X10125232Y44071500D01*
X9874768Y44071500D01*
X9629117Y44022637D01*
X9397719Y43926788D01*
X9189466Y43787638D01*
X9012362Y43610534D01*
X8873212Y43402281D01*
X8777363Y43170883D01*
X8752365Y43045209D01*
X7762757Y42055600D01*
X4458822Y42055600D01*
X4352281Y42126788D01*
X4120883Y42222637D01*
X3875232Y42271500D01*
X3624768Y42271500D01*
X3379117Y42222637D01*
X3147719Y42126788D01*
X2939466Y41987638D01*
X2762362Y41810534D01*
X2623212Y41602281D01*
X2527363Y41370883D01*
X2478500Y41125232D01*
X902000Y41125232D01*
X902000Y53525232D01*
X4428500Y53525232D01*
X4428500Y53274768D01*
X4477363Y53029117D01*
X4573212Y52797719D01*
X4712362Y52589466D01*
X4889466Y52412362D01*
X5097719Y52273212D01*
X5329117Y52177363D01*
X5574768Y52128500D01*
X5825232Y52128500D01*
X6070883Y52177363D01*
X6302281Y52273212D01*
X6510534Y52412362D01*
X6687638Y52589466D01*
X6826788Y52797719D01*
X6922637Y53029117D01*
X6971500Y53274768D01*
X6971500Y53525232D01*
X6943623Y53665383D01*
X9248160Y53665383D01*
X9248160Y53439937D01*
X9292142Y53218822D01*
X9378417Y53010536D01*
X9503669Y52823084D01*
X9663084Y52663669D01*
X9850536Y52538417D01*
X10058822Y52452142D01*
X10279937Y52408160D01*
X10505383Y52408160D01*
X10726498Y52452142D01*
X10934784Y52538417D01*
X11122236Y52663669D01*
X11281651Y52823084D01*
X11406903Y53010536D01*
X11493178Y53218822D01*
X11537160Y53439937D01*
X11537160Y53665383D01*
X11493178Y53886498D01*
X11406903Y54094784D01*
X11281651Y54282236D01*
X11122236Y54441651D01*
X10934784Y54566903D01*
X10726498Y54653178D01*
X10505383Y54697160D01*
X10279937Y54697160D01*
X10058822Y54653178D01*
X9850536Y54566903D01*
X9663084Y54441651D01*
X9503669Y54282236D01*
X9378417Y54094784D01*
X9292142Y53886498D01*
X9248160Y53665383D01*
X6943623Y53665383D01*
X6922637Y53770883D01*
X6826788Y54002281D01*
X6687638Y54210534D01*
X6510534Y54387638D01*
X6302281Y54526788D01*
X6070883Y54622637D01*
X5825232Y54671500D01*
X5574768Y54671500D01*
X5329117Y54622637D01*
X5097719Y54526788D01*
X4889466Y54387638D01*
X4712362Y54210534D01*
X4573212Y54002281D01*
X4477363Y53770883D01*
X4428500Y53525232D01*
X902000Y53525232D01*
X902000Y64995232D01*
X32498500Y64995232D01*
X32498500Y64744768D01*
X32547363Y64499117D01*
X32643212Y64267719D01*
X32782362Y64059466D01*
X32959466Y63882362D01*
X33167719Y63743212D01*
X33399117Y63647363D01*
X33644768Y63598500D01*
X33895232Y63598500D01*
X34140883Y63647363D01*
X34372281Y63743212D01*
X34580534Y63882362D01*
X34757638Y64059466D01*
X34896788Y64267719D01*
X34992637Y64499117D01*
X35041500Y64744768D01*
X35041500Y64995232D01*
X34992637Y65240883D01*
X34896788Y65472281D01*
X34757638Y65680534D01*
X34580534Y65857638D01*
X34372281Y65996788D01*
X34140883Y66092637D01*
X33895232Y66141500D01*
X33644768Y66141500D01*
X33399117Y66092637D01*
X33167719Y65996788D01*
X32959466Y65857638D01*
X32782362Y65680534D01*
X32643212Y65472281D01*
X32547363Y65240883D01*
X32498500Y64995232D01*
X902000Y64995232D01*
X902000Y67825232D01*
X12228500Y67825232D01*
X12228500Y67574768D01*
X12277363Y67329117D01*
X12373212Y67097719D01*
X12512362Y66889466D01*
X12689466Y66712362D01*
X12897719Y66573212D01*
X13129117Y66477363D01*
X13374768Y66428500D01*
X13625232Y66428500D01*
X13870883Y66477363D01*
X14102281Y66573212D01*
X14310534Y66712362D01*
X14487638Y66889466D01*
X14585035Y67035232D01*
X23888500Y67035232D01*
X23888500Y66784768D01*
X23937363Y66539117D01*
X24033212Y66307719D01*
X24172362Y66099466D01*
X24349466Y65922362D01*
X24557719Y65783212D01*
X24789117Y65687363D01*
X25034768Y65638500D01*
X25285232Y65638500D01*
X25530883Y65687363D01*
X25762281Y65783212D01*
X25970534Y65922362D01*
X26147638Y66099466D01*
X26286788Y66307719D01*
X26382637Y66539117D01*
X26431500Y66784768D01*
X26431500Y67035232D01*
X26382637Y67280883D01*
X26286788Y67512281D01*
X26147638Y67720534D01*
X25970534Y67897638D01*
X25762281Y68036788D01*
X25530883Y68132637D01*
X25316744Y68175232D01*
X35728500Y68175232D01*
X35728500Y67924768D01*
X35777363Y67679117D01*
X35873212Y67447719D01*
X36012362Y67239466D01*
X36189466Y67062362D01*
X36397719Y66923212D01*
X36629117Y66827363D01*
X36874768Y66778500D01*
X37125232Y66778500D01*
X37370883Y66827363D01*
X37602281Y66923212D01*
X37810534Y67062362D01*
X37987638Y67239466D01*
X38126788Y67447719D01*
X38222637Y67679117D01*
X38271500Y67924768D01*
X38271500Y68175232D01*
X38222637Y68420883D01*
X38126788Y68652281D01*
X37987638Y68860534D01*
X37810534Y69037638D01*
X37602281Y69176788D01*
X37370883Y69272637D01*
X37125232Y69321500D01*
X36874768Y69321500D01*
X36629117Y69272637D01*
X36397719Y69176788D01*
X36189466Y69037638D01*
X36012362Y68860534D01*
X35873212Y68652281D01*
X35777363Y68420883D01*
X35728500Y68175232D01*
X25316744Y68175232D01*
X25285232Y68181500D01*
X25034768Y68181500D01*
X24789117Y68132637D01*
X24557719Y68036788D01*
X24349466Y67897638D01*
X24172362Y67720534D01*
X24033212Y67512281D01*
X23937363Y67280883D01*
X23888500Y67035232D01*
X14585035Y67035232D01*
X14626788Y67097719D01*
X14722637Y67329117D01*
X14771500Y67574768D01*
X14771500Y67825232D01*
X14722637Y68070883D01*
X14626788Y68302281D01*
X14487638Y68510534D01*
X14310534Y68687638D01*
X14102281Y68826788D01*
X13870883Y68922637D01*
X13625232Y68971500D01*
X13374768Y68971500D01*
X13129117Y68922637D01*
X12897719Y68826788D01*
X12689466Y68687638D01*
X12512362Y68510534D01*
X12373212Y68302281D01*
X12277363Y68070883D01*
X12228500Y67825232D01*
X902000Y67825232D01*
X902000Y73025232D01*
X12528500Y73025232D01*
X12528500Y72774768D01*
X12577363Y72529117D01*
X12673212Y72297719D01*
X12812362Y72089466D01*
X12989466Y71912362D01*
X13197719Y71773212D01*
X13429117Y71677363D01*
X13674768Y71628500D01*
X13925232Y71628500D01*
X14170883Y71677363D01*
X14402281Y71773212D01*
X14610534Y71912362D01*
X14787638Y72089466D01*
X14926788Y72297719D01*
X15022637Y72529117D01*
X15071500Y72774768D01*
X15071500Y73025232D01*
X15022637Y73270883D01*
X14926788Y73502281D01*
X14787638Y73710534D01*
X14610534Y73887638D01*
X14402281Y74026788D01*
X14170883Y74122637D01*
X13925232Y74171500D01*
X13674768Y74171500D01*
X13429117Y74122637D01*
X13197719Y74026788D01*
X12989466Y73887638D01*
X12812362Y73710534D01*
X12673212Y73502281D01*
X12577363Y73270883D01*
X12528500Y73025232D01*
X902000Y73025232D01*
X902000Y77843994D01*
X1838000Y77843994D01*
X1838000Y77556006D01*
X1894184Y77273550D01*
X2004392Y77007483D01*
X2164390Y76768029D01*
X2368029Y76564390D01*
X2607483Y76404392D01*
X2873550Y76294184D01*
X3156006Y76238000D01*
X3443994Y76238000D01*
X3726450Y76294184D01*
X3783186Y76317685D01*
X23479000Y76317685D01*
X23479000Y76002315D01*
X23540525Y75693005D01*
X23661212Y75401642D01*
X23836422Y75139422D01*
X24059422Y74916422D01*
X24321642Y74741212D01*
X24613005Y74620525D01*
X24922315Y74559000D01*
X25237685Y74559000D01*
X25546995Y74620525D01*
X25838358Y74741212D01*
X26100578Y74916422D01*
X26282577Y75098421D01*
X26434283Y74946715D01*
X26690115Y74775773D01*
X26974381Y74658027D01*
X27276156Y74598000D01*
X27583844Y74598000D01*
X27885619Y74658027D01*
X28169885Y74775773D01*
X28425717Y74946715D01*
X28643285Y75164283D01*
X28814227Y75420115D01*
X28931973Y75704381D01*
X28992000Y76006156D01*
X28992000Y76313844D01*
X28931973Y76615619D01*
X28814227Y76899885D01*
X28643285Y77155717D01*
X28425717Y77373285D01*
X28169885Y77544227D01*
X27885619Y77661973D01*
X27583844Y77722000D01*
X27276156Y77722000D01*
X26974381Y77661973D01*
X26690115Y77544227D01*
X26434283Y77373285D01*
X26282577Y77221579D01*
X26100578Y77403578D01*
X25838358Y77578788D01*
X25546995Y77699475D01*
X25237685Y77761000D01*
X24922315Y77761000D01*
X24613005Y77699475D01*
X24321642Y77578788D01*
X24059422Y77403578D01*
X23836422Y77180578D01*
X23661212Y76918358D01*
X23540525Y76626995D01*
X23479000Y76317685D01*
X3783186Y76317685D01*
X3992517Y76404392D01*
X4231971Y76564390D01*
X4435610Y76768029D01*
X4595608Y77007483D01*
X4705816Y77273550D01*
X4762000Y77556006D01*
X4762000Y77843994D01*
X4705816Y78126450D01*
X4595608Y78392517D01*
X4435610Y78631971D01*
X4231971Y78835610D01*
X3992517Y78995608D01*
X3726450Y79105816D01*
X3443994Y79162000D01*
X3156006Y79162000D01*
X2873550Y79105816D01*
X2607483Y78995608D01*
X2368029Y78835610D01*
X2164390Y78631971D01*
X2004392Y78392517D01*
X1894184Y78126450D01*
X1838000Y77843994D01*
X902000Y77843994D01*
X902000Y84700000D01*
X9473000Y84700000D01*
X9473000Y79300000D01*
X9475440Y79275224D01*
X9482667Y79251399D01*
X9494403Y79229443D01*
X9510197Y79210197D01*
X9529443Y79194403D01*
X9551399Y79182667D01*
X9575224Y79175440D01*
X9600000Y79173000D01*
X12173000Y79173000D01*
X12173000Y78700000D01*
X12175440Y78675224D01*
X12182667Y78651399D01*
X12194403Y78629443D01*
X12210197Y78610197D01*
X12229443Y78594403D01*
X12251399Y78582667D01*
X12275224Y78575440D01*
X12300000Y78573000D01*
X13100000Y78573000D01*
X13124776Y78575440D01*
X13148601Y78582667D01*
X13170557Y78594403D01*
X13189803Y78610197D01*
X13205597Y78629443D01*
X13217333Y78651399D01*
X13224560Y78675224D01*
X13227000Y78700000D01*
X13227000Y79173000D01*
X14900000Y79173000D01*
X14924776Y79175440D01*
X14948601Y79182667D01*
X14970557Y79194403D01*
X14989803Y79210197D01*
X15005597Y79229443D01*
X15017333Y79251399D01*
X15024560Y79275224D01*
X15027000Y79300000D01*
X15027000Y84700000D01*
X15024560Y84724776D01*
X15017333Y84748601D01*
X15005597Y84770557D01*
X14989803Y84789803D01*
X14970557Y84805597D01*
X14948601Y84817333D01*
X14924776Y84824560D01*
X14900000Y84827000D01*
X9600000Y84827000D01*
X9575224Y84824560D01*
X9551399Y84817333D01*
X9529443Y84805597D01*
X9510197Y84789803D01*
X9494403Y84770557D01*
X9482667Y84748601D01*
X9475440Y84724776D01*
X9473000Y84700000D01*
X902000Y84700000D01*
X902000Y85853050D01*
X1434604Y85497176D01*
X2112874Y85216227D01*
X2832923Y85073000D01*
X3567077Y85073000D01*
X4287126Y85216227D01*
X4965396Y85497176D01*
X5575824Y85905050D01*
X6094950Y86424176D01*
X6442280Y86943994D01*
X15038000Y86943994D01*
X15038000Y86656006D01*
X15094184Y86373550D01*
X15204392Y86107483D01*
X15364390Y85868029D01*
X15568029Y85664390D01*
X15686835Y85585007D01*
X15512362Y85410534D01*
X15373212Y85202281D01*
X15277363Y84970883D01*
X15228500Y84725232D01*
X15228500Y84474768D01*
X15277363Y84229117D01*
X15373212Y83997719D01*
X15512362Y83789466D01*
X15689466Y83612362D01*
X15897719Y83473212D01*
X16129117Y83377363D01*
X16374768Y83328500D01*
X16625232Y83328500D01*
X16870883Y83377363D01*
X17102281Y83473212D01*
X17310534Y83612362D01*
X17487638Y83789466D01*
X17626788Y83997719D01*
X17700316Y84175232D01*
X19728500Y84175232D01*
X19728500Y83924768D01*
X19777363Y83679117D01*
X19873212Y83447719D01*
X20012362Y83239466D01*
X20189466Y83062362D01*
X20397719Y82923212D01*
X20629117Y82827363D01*
X20874768Y82778500D01*
X21125232Y82778500D01*
X21370883Y82827363D01*
X21602281Y82923212D01*
X21810534Y83062362D01*
X21987638Y83239466D01*
X22126788Y83447719D01*
X22222637Y83679117D01*
X22271500Y83924768D01*
X22271500Y84175232D01*
X22222637Y84420883D01*
X22220836Y84425232D01*
X35128500Y84425232D01*
X35128500Y84174768D01*
X35177363Y83929117D01*
X35273212Y83697719D01*
X35412362Y83489466D01*
X35589466Y83312362D01*
X35797719Y83173212D01*
X36029117Y83077363D01*
X36274768Y83028500D01*
X36525232Y83028500D01*
X36770883Y83077363D01*
X37002281Y83173212D01*
X37210534Y83312362D01*
X37387638Y83489466D01*
X37526788Y83697719D01*
X37622637Y83929117D01*
X37671500Y84174768D01*
X37671500Y84425232D01*
X37622637Y84670883D01*
X37526788Y84902281D01*
X37387638Y85110534D01*
X37210534Y85287638D01*
X37002281Y85426788D01*
X36770883Y85522637D01*
X36525232Y85571500D01*
X36274768Y85571500D01*
X36029117Y85522637D01*
X35797719Y85426788D01*
X35589466Y85287638D01*
X35412362Y85110534D01*
X35273212Y84902281D01*
X35177363Y84670883D01*
X35128500Y84425232D01*
X22220836Y84425232D01*
X22126788Y84652281D01*
X21987638Y84860534D01*
X21810534Y85037638D01*
X21602281Y85176788D01*
X21370883Y85272637D01*
X21125232Y85321500D01*
X20874768Y85321500D01*
X20629117Y85272637D01*
X20397719Y85176788D01*
X20189466Y85037638D01*
X20012362Y84860534D01*
X19873212Y84652281D01*
X19777363Y84420883D01*
X19728500Y84175232D01*
X17700316Y84175232D01*
X17722637Y84229117D01*
X17771500Y84474768D01*
X17771500Y84725232D01*
X17722637Y84970883D01*
X17626788Y85202281D01*
X17487638Y85410534D01*
X17313165Y85585007D01*
X17431971Y85664390D01*
X17635610Y85868029D01*
X17795608Y86107483D01*
X17905816Y86373550D01*
X17962000Y86656006D01*
X17962000Y86943994D01*
X17905816Y87226450D01*
X17795608Y87492517D01*
X17635610Y87731971D01*
X17431971Y87935610D01*
X17192517Y88095608D01*
X16926450Y88205816D01*
X16643994Y88262000D01*
X16356006Y88262000D01*
X16073550Y88205816D01*
X15807483Y88095608D01*
X15568029Y87935610D01*
X15364390Y87731971D01*
X15204392Y87492517D01*
X15094184Y87226450D01*
X15038000Y86943994D01*
X6442280Y86943994D01*
X6502824Y87034604D01*
X6783773Y87712874D01*
X6927000Y88432923D01*
X6927000Y89167077D01*
X6783773Y89887126D01*
X6502824Y90565396D01*
X6146950Y91098000D01*
X128853050Y91098000D01*
X128497176Y90565396D01*
G04 #@! TA.AperFunction,Conductor*
D22*
G36*
X128497176Y90565396D02*
G01*
X128216227Y89887126D01*
X128073000Y89167077D01*
X128073000Y88432923D01*
X128216227Y87712874D01*
X128497176Y87034604D01*
X128905050Y86424176D01*
X129424176Y85905050D01*
X130034604Y85497176D01*
X130712874Y85216227D01*
X131432923Y85073000D01*
X132167077Y85073000D01*
X132887126Y85216227D01*
X133565396Y85497176D01*
X134098001Y85853050D01*
X134098000Y6146950D01*
X133565396Y6502824D01*
X132887126Y6783773D01*
X132167077Y6927000D01*
X131432923Y6927000D01*
X130712874Y6783773D01*
X130034604Y6502824D01*
X129424176Y6094950D01*
X128905050Y5575824D01*
X128497176Y4965396D01*
X128216227Y4287126D01*
X128073000Y3567077D01*
X128073000Y2832923D01*
X128216227Y2112874D01*
X128497176Y1434604D01*
X128853050Y902000D01*
X61306084Y902000D01*
X61338622Y934538D01*
X61710383Y1490917D01*
X61966456Y2109132D01*
X62097000Y2765425D01*
X62097000Y3434575D01*
X61966456Y4090868D01*
X61710383Y4709083D01*
X61338622Y5265462D01*
X60865462Y5738622D01*
X60309083Y6110383D01*
X59690868Y6366456D01*
X59034575Y6497000D01*
X58365425Y6497000D01*
X57709132Y6366456D01*
X57090917Y6110383D01*
X56718800Y5861742D01*
X56346683Y6110383D01*
X55728468Y6366456D01*
X55072175Y6497000D01*
X54403025Y6497000D01*
X53746732Y6366456D01*
X53128517Y6110383D01*
X52572138Y5738622D01*
X52098978Y5265462D01*
X51727217Y4709083D01*
X51471144Y4090868D01*
X51340600Y3434575D01*
X51340600Y2765425D01*
X51471144Y2109132D01*
X51727217Y1490917D01*
X52098978Y934538D01*
X52131516Y902000D01*
X33124808Y902000D01*
X33491583Y1450917D01*
X33747656Y2069132D01*
X33878200Y2725425D01*
X33878200Y3394575D01*
X33747656Y4050868D01*
X33491583Y4669083D01*
X33119822Y5225462D01*
X32646662Y5698622D01*
X32090283Y6070383D01*
X31472068Y6326456D01*
X30815775Y6457000D01*
X30146625Y6457000D01*
X29490332Y6326456D01*
X28872117Y6070383D01*
X28500000Y5821742D01*
X28127883Y6070383D01*
X27509668Y6326456D01*
X26853375Y6457000D01*
X26184225Y6457000D01*
X25527932Y6326456D01*
X24909717Y6070383D01*
X24353338Y5698622D01*
X23880178Y5225462D01*
X23508417Y4669083D01*
X23252344Y4050868D01*
X23121800Y3394575D01*
X23121800Y2725425D01*
X23252344Y2069132D01*
X23508417Y1450917D01*
X23842858Y950391D01*
X6266278Y1080588D01*
X6502824Y1434604D01*
X6783773Y2112874D01*
X6927000Y2832923D01*
X6927000Y3567077D01*
X6783773Y4287126D01*
X6502824Y4965396D01*
X6094950Y5575824D01*
X5575824Y6094950D01*
X4965396Y6502824D01*
X4287126Y6783773D01*
X3567077Y6927000D01*
X2832923Y6927000D01*
X2112874Y6783773D01*
X1434604Y6502824D01*
X902000Y6146950D01*
X902000Y10343994D01*
X19538000Y10343994D01*
X19538000Y10056006D01*
X19594184Y9773550D01*
X19704392Y9507483D01*
X19864390Y9268029D01*
X20068029Y9064390D01*
X20307483Y8904392D01*
X20573550Y8794184D01*
X20856006Y8738000D01*
X21143994Y8738000D01*
X21426450Y8794184D01*
X21692517Y8904392D01*
X21931971Y9064390D01*
X22135610Y9268029D01*
X22295608Y9507483D01*
X22405816Y9773550D01*
X22462000Y10056006D01*
X22462000Y10343994D01*
X22405816Y10626450D01*
X22295608Y10892517D01*
X22135610Y11131971D01*
X21931971Y11335610D01*
X21692517Y11495608D01*
X21426450Y11605816D01*
X21143994Y11662000D01*
X20856006Y11662000D01*
X20573550Y11605816D01*
X20307483Y11495608D01*
X20068029Y11335610D01*
X19864390Y11131971D01*
X19704392Y10892517D01*
X19594184Y10626450D01*
X19538000Y10343994D01*
X902000Y10343994D01*
X902000Y13040000D01*
X1269789Y13040000D01*
X1302554Y12707330D01*
X1399590Y12387444D01*
X1557169Y12092636D01*
X1769234Y11834234D01*
X2027636Y11622169D01*
X2322444Y11464590D01*
X2642330Y11367554D01*
X2891632Y11343000D01*
X3508368Y11343000D01*
X3757670Y11367554D01*
X4077556Y11464590D01*
X4372364Y11622169D01*
X4630766Y11834234D01*
X4842831Y12092636D01*
X5000410Y12387444D01*
X5097446Y12707330D01*
X5130211Y13040000D01*
X5097446Y13372670D01*
X5000410Y13692556D01*
X4842831Y13987364D01*
X4630766Y14245766D01*
X4372364Y14457831D01*
X4077556Y14615410D01*
X3757670Y14712446D01*
X3508368Y14737000D01*
X2891632Y14737000D01*
X2642330Y14712446D01*
X2322444Y14615410D01*
X2027636Y14457831D01*
X1769234Y14245766D01*
X1557169Y13987364D01*
X1399590Y13692556D01*
X1302554Y13372670D01*
X1269789Y13040000D01*
X902000Y13040000D01*
X902000Y22425232D01*
X5228500Y22425232D01*
X5228500Y22174768D01*
X5277363Y21929117D01*
X5373212Y21697719D01*
X5512362Y21489466D01*
X5689466Y21312362D01*
X5897719Y21173212D01*
X6129117Y21077363D01*
X6374768Y21028500D01*
X6625232Y21028500D01*
X6870883Y21077363D01*
X7102281Y21173212D01*
X7310534Y21312362D01*
X7487638Y21489466D01*
X7626788Y21697719D01*
X7722637Y21929117D01*
X7771500Y22174768D01*
X7771500Y22425232D01*
X7722637Y22670883D01*
X7626788Y22902281D01*
X7487638Y23110534D01*
X7310534Y23287638D01*
X7102281Y23426788D01*
X6870883Y23522637D01*
X6625232Y23571500D01*
X6374768Y23571500D01*
X6129117Y23522637D01*
X5897719Y23426788D01*
X5689466Y23287638D01*
X5512362Y23110534D01*
X5373212Y22902281D01*
X5277363Y22670883D01*
X5228500Y22425232D01*
X902000Y22425232D01*
X902000Y24725232D01*
X9528500Y24725232D01*
X9528500Y24474768D01*
X9577363Y24229117D01*
X9673212Y23997719D01*
X9812362Y23789466D01*
X9989466Y23612362D01*
X10197719Y23473212D01*
X10429117Y23377363D01*
X10674768Y23328500D01*
X10925232Y23328500D01*
X11170883Y23377363D01*
X11402281Y23473212D01*
X11610534Y23612362D01*
X11787638Y23789466D01*
X11926788Y23997719D01*
X12022637Y24229117D01*
X12047635Y24354792D01*
X13459758Y25766914D01*
X13500033Y25799967D01*
X13631946Y25960703D01*
X13729965Y26144085D01*
X13790326Y26343066D01*
X13805600Y26498147D01*
X13805600Y26498156D01*
X13810706Y26549999D01*
X13805600Y26601842D01*
X13805600Y53243710D01*
X13856274Y53243710D01*
X13861380Y53191867D01*
X13861380Y52868832D01*
X13861381Y22984873D01*
X13856274Y22933020D01*
X13876655Y22726086D01*
X13937015Y22527106D01*
X14035034Y22343723D01*
X14133893Y22223264D01*
X14166948Y22182987D01*
X14207223Y22149934D01*
X19766914Y16590242D01*
X19799967Y16549967D01*
X19960703Y16418054D01*
X20144085Y16320035D01*
X20343066Y16259674D01*
X20498147Y16244400D01*
X20498156Y16244400D01*
X20549999Y16239294D01*
X20601842Y16244400D01*
X37248157Y16244400D01*
X37300000Y16239294D01*
X37351843Y16244400D01*
X37351853Y16244400D01*
X37506934Y16259674D01*
X37705915Y16320035D01*
X37889297Y16418054D01*
X38050033Y16549967D01*
X38083090Y16590247D01*
X38133682Y16640839D01*
X38242124Y16685757D01*
X38429576Y16811009D01*
X38588991Y16970424D01*
X38714243Y17157876D01*
X38800518Y17366162D01*
X38844500Y17587277D01*
X38844500Y17812723D01*
X38800518Y18033838D01*
X38714243Y18242124D01*
X38588991Y18429576D01*
X38429576Y18588991D01*
X38242124Y18714243D01*
X38033838Y18800518D01*
X37812723Y18844500D01*
X37587277Y18844500D01*
X37366162Y18800518D01*
X37157876Y18714243D01*
X36970424Y18588991D01*
X36811009Y18429576D01*
X36761580Y18355600D01*
X20987244Y18355600D01*
X15972580Y23370263D01*
X15972580Y30195909D01*
X16135129Y29803482D01*
X16174932Y29577929D01*
X16183260Y29549992D01*
X16195259Y29528178D01*
X16331401Y29329638D01*
X16403239Y29156205D01*
X17191957Y27975805D01*
X18195805Y26971957D01*
X19376205Y26183239D01*
X20687796Y25639961D01*
X21773000Y25424100D01*
X21773000Y20000000D01*
X21775440Y19975224D01*
X21782667Y19951399D01*
X21794403Y19929443D01*
X21810197Y19910197D01*
X21829443Y19894403D01*
X21851399Y19882667D01*
X21875224Y19875440D01*
X21900000Y19873000D01*
X27170954Y19873000D01*
X27173000Y19099664D01*
X27175440Y19075224D01*
X27182667Y19051399D01*
X27194403Y19029443D01*
X27210197Y19010197D01*
X27229443Y18994403D01*
X27251399Y18982667D01*
X27275224Y18975440D01*
X27300000Y18973000D01*
X46273000Y18973000D01*
X46273000Y16400000D01*
X46275440Y16375224D01*
X46282667Y16351399D01*
X46294403Y16329443D01*
X46310197Y16310197D01*
X46329443Y16294403D01*
X46351399Y16282667D01*
X46375224Y16275440D01*
X46400000Y16273000D01*
X83500000Y16273000D01*
X83523566Y16275206D01*
X83547459Y16282201D01*
X83569529Y16293723D01*
X83588927Y16309330D01*
X83604907Y16328421D01*
X83616855Y16350262D01*
X83624313Y16374015D01*
X83626994Y16398767D01*
X83675773Y21423000D01*
X104130156Y21423000D01*
X98304165Y15597008D01*
X79528222Y15597008D01*
X79421681Y15668196D01*
X79190283Y15764045D01*
X78944632Y15812908D01*
X78694168Y15812908D01*
X78448517Y15764045D01*
X78217119Y15668196D01*
X78008866Y15529046D01*
X77831762Y15351942D01*
X77692612Y15143689D01*
X77596763Y14912291D01*
X77547900Y14666640D01*
X77547900Y14416176D01*
X77596763Y14170525D01*
X77692612Y13939127D01*
X77831762Y13730874D01*
X78008866Y13553770D01*
X78217119Y13414620D01*
X78448517Y13318771D01*
X78694168Y13269908D01*
X78944632Y13269908D01*
X79190283Y13318771D01*
X79421681Y13414620D01*
X79528222Y13485808D01*
X98689565Y13485808D01*
X98741408Y13480702D01*
X98793251Y13485808D01*
X98793261Y13485808D01*
X98948342Y13501082D01*
X99147323Y13561443D01*
X99330705Y13659462D01*
X99491441Y13791375D01*
X99524498Y13831655D01*
X106183087Y20490243D01*
X106183092Y20490249D01*
X106583087Y20890244D01*
X116759758Y31066914D01*
X116800033Y31099967D01*
X116834631Y31142124D01*
X116931945Y31260702D01*
X116931946Y31260703D01*
X117029965Y31444085D01*
X117090326Y31643066D01*
X117105600Y31798147D01*
X117105600Y31798156D01*
X117110706Y31849999D01*
X117105600Y31901842D01*
X117105600Y50155232D01*
X121578500Y50155232D01*
X121578500Y49904768D01*
X121627363Y49659117D01*
X121723212Y49427719D01*
X121862362Y49219466D01*
X122039466Y49042362D01*
X122247719Y48903212D01*
X122479117Y48807363D01*
X122724768Y48758500D01*
X122975232Y48758500D01*
X123220883Y48807363D01*
X123452281Y48903212D01*
X123660534Y49042362D01*
X123837638Y49219466D01*
X123976788Y49427719D01*
X124072637Y49659117D01*
X124121500Y49904768D01*
X124121500Y50155232D01*
X124072637Y50400883D01*
X123976788Y50632281D01*
X123837638Y50840534D01*
X123660534Y51017638D01*
X123452281Y51156788D01*
X123220883Y51252637D01*
X122975232Y51301500D01*
X122724768Y51301500D01*
X122479117Y51252637D01*
X122247719Y51156788D01*
X122039466Y51017638D01*
X121862362Y50840534D01*
X121723212Y50632281D01*
X121627363Y50400883D01*
X121578500Y50155232D01*
X117105600Y50155232D01*
X117105600Y58048157D01*
X117110706Y58100000D01*
X117105600Y58151843D01*
X117105600Y58151853D01*
X117090326Y58306934D01*
X117054441Y58425232D01*
X118528500Y58425232D01*
X118528500Y58174768D01*
X118577363Y57929117D01*
X118673212Y57697719D01*
X118812362Y57489466D01*
X118989466Y57312362D01*
X119197719Y57173212D01*
X119429117Y57077363D01*
X119674768Y57028500D01*
X119925232Y57028500D01*
X120170883Y57077363D01*
X120402281Y57173212D01*
X120610534Y57312362D01*
X120787638Y57489466D01*
X120926788Y57697719D01*
X121022637Y57929117D01*
X121071500Y58174768D01*
X121071500Y58425232D01*
X121022637Y58670883D01*
X120926788Y58902281D01*
X120787638Y59110534D01*
X120610534Y59287638D01*
X120402281Y59426788D01*
X120170883Y59522637D01*
X119925232Y59571500D01*
X119674768Y59571500D01*
X119429117Y59522637D01*
X119197719Y59426788D01*
X118989466Y59287638D01*
X118812362Y59110534D01*
X118673212Y58902281D01*
X118577363Y58670883D01*
X118528500Y58425232D01*
X117054441Y58425232D01*
X117029965Y58505915D01*
X116998406Y58564959D01*
X116931946Y58689298D01*
X116833087Y58809757D01*
X116833086Y58809758D01*
X116800033Y58850033D01*
X116759757Y58883087D01*
X111533090Y64109753D01*
X111500033Y64150033D01*
X111339297Y64281946D01*
X111155915Y64379965D01*
X110956934Y64440326D01*
X110801853Y64455600D01*
X110801843Y64455600D01*
X110750000Y64460706D01*
X110698157Y64455600D01*
X94695327Y64455600D01*
X94716788Y64487719D01*
X94736468Y64535232D01*
X111818500Y64535232D01*
X111818500Y64284768D01*
X111867363Y64039117D01*
X111963212Y63807719D01*
X112102362Y63599466D01*
X112279466Y63422362D01*
X112487719Y63283212D01*
X112719117Y63187363D01*
X112964768Y63138500D01*
X113215232Y63138500D01*
X113460883Y63187363D01*
X113692281Y63283212D01*
X113900534Y63422362D01*
X114077638Y63599466D01*
X114216788Y63807719D01*
X114312637Y64039117D01*
X114361500Y64284768D01*
X114361500Y64535232D01*
X114312637Y64780883D01*
X114216788Y65012281D01*
X114077638Y65220534D01*
X113900534Y65397638D01*
X113692281Y65536788D01*
X113460883Y65632637D01*
X113215232Y65681500D01*
X112964768Y65681500D01*
X112719117Y65632637D01*
X112487719Y65536788D01*
X112279466Y65397638D01*
X112102362Y65220534D01*
X111963212Y65012281D01*
X111867363Y64780883D01*
X111818500Y64535232D01*
X94736468Y64535232D01*
X94812637Y64719117D01*
X94861500Y64964768D01*
X94861500Y65215232D01*
X94812637Y65460883D01*
X94716788Y65692281D01*
X94577638Y65900534D01*
X94400534Y66077638D01*
X94250780Y66177700D01*
X117352286Y66177700D01*
X125577700Y57952285D01*
X125577701Y37947716D01*
X100152286Y12522300D01*
X72528076Y12522300D01*
X72326450Y12605816D01*
X72043994Y12662000D01*
X71756006Y12662000D01*
X71473550Y12605816D01*
X71271924Y12522300D01*
X68528076Y12522300D01*
X68326450Y12605816D01*
X68043994Y12662000D01*
X67756006Y12662000D01*
X67473550Y12605816D01*
X67207483Y12495608D01*
X66968029Y12335610D01*
X66764390Y12131971D01*
X66604392Y11892517D01*
X66494184Y11626450D01*
X66438000Y11343994D01*
X66438000Y11056006D01*
X66494184Y10773550D01*
X66604392Y10507483D01*
X66764390Y10268029D01*
X66968029Y10064390D01*
X67207483Y9904392D01*
X67473550Y9794184D01*
X67756006Y9738000D01*
X68043994Y9738000D01*
X68326450Y9794184D01*
X68528076Y9877700D01*
X71271924Y9877700D01*
X71473550Y9794184D01*
X71756006Y9738000D01*
X72043994Y9738000D01*
X72326450Y9794184D01*
X72528076Y9877700D01*
X100635049Y9877700D01*
X100700000Y9871303D01*
X100764951Y9877700D01*
X100764959Y9877700D01*
X100959216Y9896833D01*
X101208471Y9972443D01*
X101438185Y10095228D01*
X101639531Y10260469D01*
X101680941Y10310927D01*
X126803148Y35433133D01*
X126777363Y35370883D01*
X126728500Y35125232D01*
X126728500Y34874768D01*
X126777363Y34629117D01*
X126873212Y34397719D01*
X127012362Y34189466D01*
X127189466Y34012362D01*
X127397719Y33873212D01*
X127629117Y33777363D01*
X127874768Y33728500D01*
X128125232Y33728500D01*
X128370883Y33777363D01*
X128602281Y33873212D01*
X128810534Y34012362D01*
X128987638Y34189466D01*
X129126788Y34397719D01*
X129222637Y34629117D01*
X129271500Y34874768D01*
X129271500Y35125232D01*
X129222637Y35370883D01*
X129126788Y35602281D01*
X128987638Y35810534D01*
X128810534Y35987638D01*
X128602281Y36126788D01*
X128370883Y36222637D01*
X128125232Y36271500D01*
X127874768Y36271500D01*
X127629117Y36222637D01*
X127566867Y36196852D01*
X127789079Y36419064D01*
X127839531Y36460469D01*
X127880936Y36510921D01*
X127880940Y36510925D01*
X127978886Y36630273D01*
X128004772Y36661815D01*
X128127557Y36891529D01*
X128185569Y37082771D01*
X128203167Y37140783D01*
X128205628Y37165766D01*
X128222300Y37335041D01*
X128222300Y37335048D01*
X128228697Y37399999D01*
X128222300Y37464950D01*
X128222300Y45863030D01*
X128429117Y45777363D01*
X128674768Y45728500D01*
X128925232Y45728500D01*
X129170883Y45777363D01*
X129402281Y45873212D01*
X129610534Y46012362D01*
X129787638Y46189466D01*
X129926788Y46397719D01*
X130022637Y46629117D01*
X130071500Y46874768D01*
X130071500Y47125232D01*
X130022637Y47370883D01*
X129926788Y47602281D01*
X129787638Y47810534D01*
X129610534Y47987638D01*
X129402281Y48126788D01*
X129170883Y48222637D01*
X128925232Y48271500D01*
X128674768Y48271500D01*
X128429117Y48222637D01*
X128222300Y48136970D01*
X128222300Y58435050D01*
X128228697Y58500001D01*
X128222300Y58564952D01*
X128222300Y58564959D01*
X128203167Y58759216D01*
X128165592Y58883087D01*
X128127557Y59008471D01*
X128004772Y59238185D01*
X127930997Y59328079D01*
X127880940Y59389075D01*
X127880936Y59389079D01*
X127839531Y59439531D01*
X127789080Y59480935D01*
X123784783Y63485232D01*
X127398500Y63485232D01*
X127398500Y63234768D01*
X127447363Y62989117D01*
X127543212Y62757719D01*
X127682362Y62549466D01*
X127859466Y62372362D01*
X128067719Y62233212D01*
X128299117Y62137363D01*
X128544768Y62088500D01*
X128795232Y62088500D01*
X129040883Y62137363D01*
X129272281Y62233212D01*
X129480534Y62372362D01*
X129657638Y62549466D01*
X129796788Y62757719D01*
X129892637Y62989117D01*
X129941500Y63234768D01*
X129941500Y63485232D01*
X129892637Y63730883D01*
X129796788Y63962281D01*
X129657638Y64170534D01*
X129480534Y64347638D01*
X129272281Y64486788D01*
X129040883Y64582637D01*
X128795232Y64631500D01*
X128544768Y64631500D01*
X128299117Y64582637D01*
X128067719Y64486788D01*
X127859466Y64347638D01*
X127682362Y64170534D01*
X127543212Y63962281D01*
X127447363Y63730883D01*
X127398500Y63485232D01*
X123784783Y63485232D01*
X119344783Y67925232D01*
X123228500Y67925232D01*
X123228500Y67674768D01*
X123277363Y67429117D01*
X123373212Y67197719D01*
X123512362Y66989466D01*
X123689466Y66812362D01*
X123897719Y66673212D01*
X124129117Y66577363D01*
X124374768Y66528500D01*
X124625232Y66528500D01*
X124870883Y66577363D01*
X125102281Y66673212D01*
X125310534Y66812362D01*
X125487638Y66989466D01*
X125626788Y67197719D01*
X125722637Y67429117D01*
X125771500Y67674768D01*
X125771500Y67925232D01*
X125722637Y68170883D01*
X125626788Y68402281D01*
X125487638Y68610534D01*
X125310534Y68787638D01*
X125102281Y68926788D01*
X124870883Y69022637D01*
X124625232Y69071500D01*
X124374768Y69071500D01*
X124129117Y69022637D01*
X123897719Y68926788D01*
X123689466Y68787638D01*
X123512362Y68610534D01*
X123373212Y68402281D01*
X123277363Y68170883D01*
X123228500Y67925232D01*
X119344783Y67925232D01*
X118880941Y68389073D01*
X118839531Y68439531D01*
X118638185Y68604772D01*
X118408471Y68727557D01*
X118159216Y68803167D01*
X117964959Y68822300D01*
X117964951Y68822300D01*
X117900000Y68828697D01*
X117835049Y68822300D01*
X85264950Y68822300D01*
X85199999Y68828697D01*
X85135048Y68822300D01*
X85135041Y68822300D01*
X84965766Y68805628D01*
X84940783Y68803167D01*
X84889591Y68787638D01*
X84691529Y68727557D01*
X84461815Y68604772D01*
X84260469Y68439531D01*
X84219059Y68389073D01*
X82609110Y66779124D01*
X82407483Y66695608D01*
X82168029Y66535610D01*
X81964390Y66331971D01*
X81804392Y66092517D01*
X81694184Y65826450D01*
X81638000Y65543994D01*
X81638000Y65256006D01*
X81694184Y64973550D01*
X81804392Y64707483D01*
X81964390Y64468029D01*
X81976819Y64455600D01*
X76734170Y64455600D01*
X66680016Y74509753D01*
X66646959Y74550033D01*
X66486223Y74681946D01*
X66302841Y74779965D01*
X66103860Y74840326D01*
X65948779Y74855600D01*
X65948769Y74855600D01*
X65896926Y74860706D01*
X65845083Y74855600D01*
X55937244Y74855600D01*
X53783090Y77009753D01*
X53750033Y77050033D01*
X53589297Y77181946D01*
X53405915Y77279965D01*
X53206934Y77340326D01*
X53051853Y77355600D01*
X53051843Y77355600D01*
X53000000Y77360706D01*
X52948157Y77355600D01*
X50508822Y77355600D01*
X50402281Y77426788D01*
X50170883Y77522637D01*
X49925232Y77571500D01*
X49674768Y77571500D01*
X49429117Y77522637D01*
X49197719Y77426788D01*
X48989466Y77287638D01*
X48950000Y77248172D01*
X48910534Y77287638D01*
X48702281Y77426788D01*
X48470883Y77522637D01*
X48225232Y77571500D01*
X47974768Y77571500D01*
X47729117Y77522637D01*
X47497719Y77426788D01*
X47289466Y77287638D01*
X47112362Y77110534D01*
X46973212Y76902281D01*
X46877363Y76670883D01*
X46828500Y76425232D01*
X46828500Y76174768D01*
X46877363Y75929117D01*
X46973212Y75697719D01*
X47044400Y75591178D01*
X47044401Y71551853D01*
X47044400Y66637244D01*
X39562757Y59155600D01*
X19825112Y59155600D01*
X19773269Y59160706D01*
X19721426Y59155600D01*
X19721417Y59155600D01*
X19566336Y59140326D01*
X19367355Y59079965D01*
X19183973Y58981946D01*
X19023237Y58850033D01*
X18990184Y58809758D01*
X14207223Y54026796D01*
X14166948Y53993743D01*
X14133895Y53953468D01*
X14133893Y53953466D01*
X14035034Y53833007D01*
X13994408Y53757000D01*
X13937015Y53649625D01*
X13876654Y53450644D01*
X13861380Y53295563D01*
X13861380Y53295553D01*
X13856274Y53243710D01*
X13805600Y53243710D01*
X13805600Y54012757D01*
X14558087Y54765243D01*
X19437244Y59644400D01*
X35848157Y59644400D01*
X35900000Y59639294D01*
X35951843Y59644400D01*
X35951853Y59644400D01*
X36106934Y59659674D01*
X36305915Y59720035D01*
X36489297Y59818054D01*
X36650033Y59949967D01*
X36683090Y59990247D01*
X42559758Y65866914D01*
X42600033Y65899967D01*
X42676439Y65993067D01*
X42731946Y66060703D01*
X42829965Y66244085D01*
X42890326Y66443066D01*
X42910707Y66650000D01*
X42905600Y66701853D01*
X42905600Y80912757D01*
X43895209Y81902365D01*
X44020883Y81927363D01*
X44252281Y82023212D01*
X44329224Y82074624D01*
X44423212Y81847719D01*
X44515730Y81709255D01*
X44581464Y79474308D01*
X44040247Y78933090D01*
X43999967Y78900033D01*
X43868054Y78739297D01*
X43770035Y78555914D01*
X43709674Y78356933D01*
X43694400Y78201852D01*
X43694400Y78201843D01*
X43689294Y78150000D01*
X43694400Y78098157D01*
X43694401Y75698788D01*
X43694400Y75698778D01*
X43694401Y68208823D01*
X43623212Y68102281D01*
X43527363Y67870883D01*
X43478500Y67625232D01*
X43478500Y67374768D01*
X43527363Y67129117D01*
X43623212Y66897719D01*
X43762362Y66689466D01*
X43939466Y66512362D01*
X44147719Y66373212D01*
X44379117Y66277363D01*
X44624768Y66228500D01*
X44875232Y66228500D01*
X45120883Y66277363D01*
X45352281Y66373212D01*
X45560534Y66512362D01*
X45737638Y66689466D01*
X45876788Y66897719D01*
X45972637Y67129117D01*
X46021500Y67374768D01*
X46021500Y67625232D01*
X45972637Y67870883D01*
X45876788Y68102281D01*
X45805600Y68208822D01*
X45805600Y77712757D01*
X45896837Y77803994D01*
X79368000Y77803994D01*
X79368000Y77516006D01*
X79424184Y77233550D01*
X79534392Y76967483D01*
X79694390Y76728029D01*
X79898029Y76524390D01*
X80137483Y76364392D01*
X80403550Y76254184D01*
X80686006Y76198000D01*
X80973994Y76198000D01*
X81256450Y76254184D01*
X81522517Y76364392D01*
X81715960Y76493646D01*
X81679000Y76307836D01*
X81679000Y76012164D01*
X81736682Y75722174D01*
X81849831Y75449010D01*
X82014097Y75203168D01*
X82223168Y74994097D01*
X82469010Y74829831D01*
X82742174Y74716682D01*
X83032164Y74659000D01*
X83327836Y74659000D01*
X83617826Y74716682D01*
X83810783Y74796608D01*
X97463000Y74796608D01*
X97463000Y74523392D01*
X97516302Y74255427D01*
X97620857Y74003009D01*
X97772647Y73775839D01*
X97965839Y73582647D01*
X98193009Y73430857D01*
X98445427Y73326302D01*
X98713392Y73273000D01*
X98986608Y73273000D01*
X99254573Y73326302D01*
X99506991Y73430857D01*
X99734161Y73582647D01*
X99927353Y73775839D01*
X100079143Y74003009D01*
X100183698Y74255427D01*
X100237000Y74523392D01*
X100237000Y74796608D01*
X100183698Y75064573D01*
X100079143Y75316991D01*
X99927353Y75544161D01*
X99734161Y75737353D01*
X99506991Y75889143D01*
X99254573Y75993698D01*
X98986608Y76047000D01*
X98713392Y76047000D01*
X98445427Y75993698D01*
X98193009Y75889143D01*
X97965839Y75737353D01*
X97772647Y75544161D01*
X97620857Y75316991D01*
X97516302Y75064573D01*
X97463000Y74796608D01*
X83810783Y74796608D01*
X83890990Y74829831D01*
X84136832Y74994097D01*
X84345903Y75203168D01*
X84510169Y75449010D01*
X84623318Y75722174D01*
X84681000Y76012164D01*
X84681000Y76296608D01*
X123713000Y76296608D01*
X123713000Y76023392D01*
X123766302Y75755427D01*
X123870857Y75503009D01*
X124022647Y75275839D01*
X124215839Y75082647D01*
X124443009Y74930857D01*
X124695427Y74826302D01*
X124963392Y74773000D01*
X125236608Y74773000D01*
X125504573Y74826302D01*
X125756991Y74930857D01*
X125984161Y75082647D01*
X126177353Y75275839D01*
X126329143Y75503009D01*
X126433698Y75755427D01*
X126487000Y76023392D01*
X126487000Y76296608D01*
X126433698Y76564573D01*
X126329143Y76816991D01*
X126177353Y77044161D01*
X125984161Y77237353D01*
X125756991Y77389143D01*
X125504573Y77493698D01*
X125236608Y77547000D01*
X124963392Y77547000D01*
X124695427Y77493698D01*
X124443009Y77389143D01*
X124215839Y77237353D01*
X124022647Y77044161D01*
X123870857Y76816991D01*
X123766302Y76564573D01*
X123713000Y76296608D01*
X84681000Y76296608D01*
X84681000Y76307836D01*
X84623318Y76597826D01*
X84510169Y76870990D01*
X84345903Y77116832D01*
X84136832Y77325903D01*
X83890990Y77490169D01*
X83617826Y77603318D01*
X83327836Y77661000D01*
X83032164Y77661000D01*
X82742174Y77603318D01*
X82469010Y77490169D01*
X82258941Y77349805D01*
X82292000Y77516006D01*
X82292000Y77803994D01*
X82235816Y78086450D01*
X82125608Y78352517D01*
X81965610Y78591971D01*
X81761971Y78795610D01*
X81522517Y78955608D01*
X81256450Y79065816D01*
X80973994Y79122000D01*
X80686006Y79122000D01*
X80403550Y79065816D01*
X80137483Y78955608D01*
X79898029Y78795610D01*
X79694390Y78591971D01*
X79534392Y78352517D01*
X79424184Y78086450D01*
X79368000Y77803994D01*
X45896837Y77803994D01*
X46370760Y78277916D01*
X46421759Y78322342D01*
X46475820Y78392313D01*
X46531945Y78460702D01*
X46539324Y78474507D01*
X46548889Y78486887D01*
X46588260Y78566061D01*
X46629965Y78644085D01*
X46634509Y78659065D01*
X46641474Y78673071D01*
X46664642Y78758401D01*
X46690325Y78843065D01*
X46691859Y78858641D01*
X46695959Y78873741D01*
X46702038Y78961991D01*
X46710706Y79049999D01*
X46704077Y79117308D01*
X46665609Y80425232D01*
X63628500Y80425232D01*
X63628500Y80174768D01*
X63677363Y79929117D01*
X63773212Y79697719D01*
X63912362Y79489466D01*
X64089466Y79312362D01*
X64297719Y79173212D01*
X64529117Y79077363D01*
X64774768Y79028500D01*
X65025232Y79028500D01*
X65270883Y79077363D01*
X65502281Y79173212D01*
X65710534Y79312362D01*
X65887638Y79489466D01*
X66026788Y79697719D01*
X66122637Y79929117D01*
X66171500Y80174768D01*
X66171500Y80425232D01*
X69228500Y80425232D01*
X69228500Y80174768D01*
X69277363Y79929117D01*
X69373212Y79697719D01*
X69512362Y79489466D01*
X69689466Y79312362D01*
X69897719Y79173212D01*
X70129117Y79077363D01*
X70374768Y79028500D01*
X70625232Y79028500D01*
X70870883Y79077363D01*
X71102281Y79173212D01*
X71310534Y79312362D01*
X71487638Y79489466D01*
X71626788Y79697719D01*
X71722637Y79929117D01*
X71771500Y80174768D01*
X71771500Y80395232D01*
X74858500Y80395232D01*
X74858500Y80144768D01*
X74907363Y79899117D01*
X75003212Y79667719D01*
X75142362Y79459466D01*
X75319466Y79282362D01*
X75527719Y79143212D01*
X75759117Y79047363D01*
X76004768Y78998500D01*
X76255232Y78998500D01*
X76500883Y79047363D01*
X76732281Y79143212D01*
X76940534Y79282362D01*
X77117638Y79459466D01*
X77256788Y79667719D01*
X77352637Y79899117D01*
X77401500Y80144768D01*
X77401500Y80395232D01*
X77395533Y80425232D01*
X113528500Y80425232D01*
X113528500Y80174768D01*
X113577363Y79929117D01*
X113673212Y79697719D01*
X113812362Y79489466D01*
X113989466Y79312362D01*
X114197719Y79173212D01*
X114429117Y79077363D01*
X114674768Y79028500D01*
X114925232Y79028500D01*
X115170883Y79077363D01*
X115402281Y79173212D01*
X115610534Y79312362D01*
X115787638Y79489466D01*
X115926788Y79697719D01*
X116022637Y79929117D01*
X116071500Y80174768D01*
X116071500Y80425232D01*
X122128500Y80425232D01*
X122128500Y80174768D01*
X122177363Y79929117D01*
X122273212Y79697719D01*
X122412362Y79489466D01*
X122589466Y79312362D01*
X122797719Y79173212D01*
X123029117Y79077363D01*
X123274768Y79028500D01*
X123525232Y79028500D01*
X123770883Y79077363D01*
X124002281Y79173212D01*
X124210534Y79312362D01*
X124387638Y79489466D01*
X124526788Y79697719D01*
X124622637Y79929117D01*
X124671500Y80174768D01*
X124671500Y80425232D01*
X124622637Y80670883D01*
X124526788Y80902281D01*
X124387638Y81110534D01*
X124210534Y81287638D01*
X124002281Y81426788D01*
X123770883Y81522637D01*
X123525232Y81571500D01*
X123274768Y81571500D01*
X123029117Y81522637D01*
X122797719Y81426788D01*
X122589466Y81287638D01*
X122412362Y81110534D01*
X122273212Y80902281D01*
X122177363Y80670883D01*
X122128500Y80425232D01*
X116071500Y80425232D01*
X116022637Y80670883D01*
X115926788Y80902281D01*
X115787638Y81110534D01*
X115610534Y81287638D01*
X115402281Y81426788D01*
X115170883Y81522637D01*
X114925232Y81571500D01*
X114674768Y81571500D01*
X114429117Y81522637D01*
X114197719Y81426788D01*
X113989466Y81287638D01*
X113812362Y81110534D01*
X113673212Y80902281D01*
X113577363Y80670883D01*
X113528500Y80425232D01*
X77395533Y80425232D01*
X77352637Y80640883D01*
X77256788Y80872281D01*
X77117638Y81080534D01*
X76940534Y81257638D01*
X76732281Y81396788D01*
X76500883Y81492637D01*
X76255232Y81541500D01*
X76004768Y81541500D01*
X75759117Y81492637D01*
X75527719Y81396788D01*
X75319466Y81257638D01*
X75142362Y81080534D01*
X75003212Y80872281D01*
X74907363Y80640883D01*
X74858500Y80395232D01*
X71771500Y80395232D01*
X71771500Y80425232D01*
X71722637Y80670883D01*
X71626788Y80902281D01*
X71487638Y81110534D01*
X71310534Y81287638D01*
X71102281Y81426788D01*
X70870883Y81522637D01*
X70625232Y81571500D01*
X70374768Y81571500D01*
X70129117Y81522637D01*
X69897719Y81426788D01*
X69689466Y81287638D01*
X69512362Y81110534D01*
X69373212Y80902281D01*
X69277363Y80670883D01*
X69228500Y80425232D01*
X66171500Y80425232D01*
X66122637Y80670883D01*
X66026788Y80902281D01*
X65887638Y81110534D01*
X65710534Y81287638D01*
X65502281Y81426788D01*
X65270883Y81522637D01*
X65025232Y81571500D01*
X64774768Y81571500D01*
X64529117Y81522637D01*
X64297719Y81426788D01*
X64089466Y81287638D01*
X63912362Y81110534D01*
X63773212Y80902281D01*
X63677363Y80670883D01*
X63628500Y80425232D01*
X46665609Y80425232D01*
X46626006Y81771718D01*
X46676788Y81847719D01*
X46772637Y82079117D01*
X46821500Y82324768D01*
X46821500Y82575232D01*
X46772637Y82820883D01*
X46676788Y83052281D01*
X46561227Y83225232D01*
X53778500Y83225232D01*
X53778500Y82974768D01*
X53827363Y82729117D01*
X53923212Y82497719D01*
X54062362Y82289466D01*
X54239466Y82112362D01*
X54447719Y81973212D01*
X54679117Y81877363D01*
X54924768Y81828500D01*
X55175232Y81828500D01*
X55420883Y81877363D01*
X55652281Y81973212D01*
X55860534Y82112362D01*
X56037638Y82289466D01*
X56176788Y82497719D01*
X56272637Y82729117D01*
X56321500Y82974768D01*
X56321500Y83225232D01*
X56272637Y83470883D01*
X56176788Y83702281D01*
X56037638Y83910534D01*
X55860534Y84087638D01*
X55652281Y84226788D01*
X55420883Y84322637D01*
X55175232Y84371500D01*
X54924768Y84371500D01*
X54679117Y84322637D01*
X54447719Y84226788D01*
X54239466Y84087638D01*
X54062362Y83910534D01*
X53923212Y83702281D01*
X53827363Y83470883D01*
X53778500Y83225232D01*
X46561227Y83225232D01*
X46537638Y83260534D01*
X46360534Y83437638D01*
X46152281Y83576788D01*
X45920883Y83672637D01*
X45675232Y83721500D01*
X45424768Y83721500D01*
X45179117Y83672637D01*
X44947719Y83576788D01*
X44870776Y83525376D01*
X44776788Y83752281D01*
X44637638Y83960534D01*
X44460534Y84137638D01*
X44252281Y84276788D01*
X44020883Y84372637D01*
X43775232Y84421500D01*
X43524768Y84421500D01*
X43279117Y84372637D01*
X43047719Y84276788D01*
X42839466Y84137638D01*
X42662362Y83960534D01*
X42523212Y83752281D01*
X42427363Y83520883D01*
X42402365Y83395209D01*
X41140242Y82133085D01*
X41099968Y82100033D01*
X41066915Y82059758D01*
X41066913Y82059756D01*
X40968054Y81939297D01*
X40870035Y81755914D01*
X40809675Y81556934D01*
X40789294Y81350000D01*
X40794401Y81298147D01*
X40794400Y67087244D01*
X35462757Y61755600D01*
X19051843Y61755600D01*
X19000000Y61760706D01*
X18948157Y61755600D01*
X18948147Y61755600D01*
X18793066Y61740326D01*
X18594085Y61679965D01*
X18410702Y61581946D01*
X18290243Y61483087D01*
X18249967Y61450033D01*
X18216914Y61409758D01*
X13112862Y56305705D01*
X13029576Y56388991D01*
X12842124Y56514243D01*
X12633838Y56600518D01*
X12412723Y56644500D01*
X12187277Y56644500D01*
X11966162Y56600518D01*
X11757876Y56514243D01*
X11570424Y56388991D01*
X11411009Y56229576D01*
X11285757Y56042124D01*
X11199482Y55833838D01*
X11155500Y55612723D01*
X11155500Y55387277D01*
X11199482Y55166162D01*
X11285757Y54957876D01*
X11411009Y54770424D01*
X11570424Y54611009D01*
X11696833Y54526545D01*
X11689294Y54450000D01*
X11694401Y54398147D01*
X11694400Y26987244D01*
X10554792Y25847635D01*
X10429117Y25822637D01*
X10197719Y25726788D01*
X9989466Y25587638D01*
X9812362Y25410534D01*
X9673212Y25202281D01*
X9577363Y24970883D01*
X9528500Y24725232D01*
X902000Y24725232D01*
X902000Y41125232D01*
X2478500Y41125232D01*
X2478500Y40874768D01*
X2527363Y40629117D01*
X2623212Y40397719D01*
X2762362Y40189466D01*
X2939466Y40012362D01*
X3147719Y39873212D01*
X3379117Y39777363D01*
X3624768Y39728500D01*
X3875232Y39728500D01*
X4120883Y39777363D01*
X4352281Y39873212D01*
X4458822Y39944400D01*
X8148157Y39944400D01*
X8200000Y39939294D01*
X8251843Y39944400D01*
X8251853Y39944400D01*
X8406934Y39959674D01*
X8605915Y40020035D01*
X8789297Y40118054D01*
X8950033Y40249967D01*
X8983090Y40290247D01*
X10245209Y41552365D01*
X10370883Y41577363D01*
X10602281Y41673212D01*
X10810534Y41812362D01*
X10987638Y41989466D01*
X11126788Y42197719D01*
X11222637Y42429117D01*
X11271500Y42674768D01*
X11271500Y42925232D01*
X11222637Y43170883D01*
X11126788Y43402281D01*
X10987638Y43610534D01*
X10810534Y43787638D01*
X10602281Y43926788D01*
X10370883Y44022637D01*
X10125232Y44071500D01*
X9874768Y44071500D01*
X9629117Y44022637D01*
X9397719Y43926788D01*
X9189466Y43787638D01*
X9012362Y43610534D01*
X8873212Y43402281D01*
X8777363Y43170883D01*
X8752365Y43045209D01*
X7762757Y42055600D01*
X4458822Y42055600D01*
X4352281Y42126788D01*
X4120883Y42222637D01*
X3875232Y42271500D01*
X3624768Y42271500D01*
X3379117Y42222637D01*
X3147719Y42126788D01*
X2939466Y41987638D01*
X2762362Y41810534D01*
X2623212Y41602281D01*
X2527363Y41370883D01*
X2478500Y41125232D01*
X902000Y41125232D01*
X902000Y53525232D01*
X4428500Y53525232D01*
X4428500Y53274768D01*
X4477363Y53029117D01*
X4573212Y52797719D01*
X4712362Y52589466D01*
X4889466Y52412362D01*
X5097719Y52273212D01*
X5329117Y52177363D01*
X5574768Y52128500D01*
X5825232Y52128500D01*
X6070883Y52177363D01*
X6302281Y52273212D01*
X6510534Y52412362D01*
X6687638Y52589466D01*
X6826788Y52797719D01*
X6922637Y53029117D01*
X6971500Y53274768D01*
X6971500Y53525232D01*
X6943623Y53665383D01*
X9248160Y53665383D01*
X9248160Y53439937D01*
X9292142Y53218822D01*
X9378417Y53010536D01*
X9503669Y52823084D01*
X9663084Y52663669D01*
X9850536Y52538417D01*
X10058822Y52452142D01*
X10279937Y52408160D01*
X10505383Y52408160D01*
X10726498Y52452142D01*
X10934784Y52538417D01*
X11122236Y52663669D01*
X11281651Y52823084D01*
X11406903Y53010536D01*
X11493178Y53218822D01*
X11537160Y53439937D01*
X11537160Y53665383D01*
X11493178Y53886498D01*
X11406903Y54094784D01*
X11281651Y54282236D01*
X11122236Y54441651D01*
X10934784Y54566903D01*
X10726498Y54653178D01*
X10505383Y54697160D01*
X10279937Y54697160D01*
X10058822Y54653178D01*
X9850536Y54566903D01*
X9663084Y54441651D01*
X9503669Y54282236D01*
X9378417Y54094784D01*
X9292142Y53886498D01*
X9248160Y53665383D01*
X6943623Y53665383D01*
X6922637Y53770883D01*
X6826788Y54002281D01*
X6687638Y54210534D01*
X6510534Y54387638D01*
X6302281Y54526788D01*
X6070883Y54622637D01*
X5825232Y54671500D01*
X5574768Y54671500D01*
X5329117Y54622637D01*
X5097719Y54526788D01*
X4889466Y54387638D01*
X4712362Y54210534D01*
X4573212Y54002281D01*
X4477363Y53770883D01*
X4428500Y53525232D01*
X902000Y53525232D01*
X902000Y64995232D01*
X32498500Y64995232D01*
X32498500Y64744768D01*
X32547363Y64499117D01*
X32643212Y64267719D01*
X32782362Y64059466D01*
X32959466Y63882362D01*
X33167719Y63743212D01*
X33399117Y63647363D01*
X33644768Y63598500D01*
X33895232Y63598500D01*
X34140883Y63647363D01*
X34372281Y63743212D01*
X34580534Y63882362D01*
X34757638Y64059466D01*
X34896788Y64267719D01*
X34992637Y64499117D01*
X35041500Y64744768D01*
X35041500Y64995232D01*
X34992637Y65240883D01*
X34896788Y65472281D01*
X34757638Y65680534D01*
X34580534Y65857638D01*
X34372281Y65996788D01*
X34140883Y66092637D01*
X33895232Y66141500D01*
X33644768Y66141500D01*
X33399117Y66092637D01*
X33167719Y65996788D01*
X32959466Y65857638D01*
X32782362Y65680534D01*
X32643212Y65472281D01*
X32547363Y65240883D01*
X32498500Y64995232D01*
X902000Y64995232D01*
X902000Y67825232D01*
X12228500Y67825232D01*
X12228500Y67574768D01*
X12277363Y67329117D01*
X12373212Y67097719D01*
X12512362Y66889466D01*
X12689466Y66712362D01*
X12897719Y66573212D01*
X13129117Y66477363D01*
X13374768Y66428500D01*
X13625232Y66428500D01*
X13870883Y66477363D01*
X14102281Y66573212D01*
X14310534Y66712362D01*
X14487638Y66889466D01*
X14585035Y67035232D01*
X23888500Y67035232D01*
X23888500Y66784768D01*
X23937363Y66539117D01*
X24033212Y66307719D01*
X24172362Y66099466D01*
X24349466Y65922362D01*
X24557719Y65783212D01*
X24789117Y65687363D01*
X25034768Y65638500D01*
X25285232Y65638500D01*
X25530883Y65687363D01*
X25762281Y65783212D01*
X25970534Y65922362D01*
X26147638Y66099466D01*
X26286788Y66307719D01*
X26382637Y66539117D01*
X26431500Y66784768D01*
X26431500Y67035232D01*
X26382637Y67280883D01*
X26286788Y67512281D01*
X26147638Y67720534D01*
X25970534Y67897638D01*
X25762281Y68036788D01*
X25530883Y68132637D01*
X25316744Y68175232D01*
X35728500Y68175232D01*
X35728500Y67924768D01*
X35777363Y67679117D01*
X35873212Y67447719D01*
X36012362Y67239466D01*
X36189466Y67062362D01*
X36397719Y66923212D01*
X36629117Y66827363D01*
X36874768Y66778500D01*
X37125232Y66778500D01*
X37370883Y66827363D01*
X37602281Y66923212D01*
X37810534Y67062362D01*
X37987638Y67239466D01*
X38126788Y67447719D01*
X38222637Y67679117D01*
X38271500Y67924768D01*
X38271500Y68175232D01*
X38222637Y68420883D01*
X38126788Y68652281D01*
X37987638Y68860534D01*
X37810534Y69037638D01*
X37602281Y69176788D01*
X37370883Y69272637D01*
X37125232Y69321500D01*
X36874768Y69321500D01*
X36629117Y69272637D01*
X36397719Y69176788D01*
X36189466Y69037638D01*
X36012362Y68860534D01*
X35873212Y68652281D01*
X35777363Y68420883D01*
X35728500Y68175232D01*
X25316744Y68175232D01*
X25285232Y68181500D01*
X25034768Y68181500D01*
X24789117Y68132637D01*
X24557719Y68036788D01*
X24349466Y67897638D01*
X24172362Y67720534D01*
X24033212Y67512281D01*
X23937363Y67280883D01*
X23888500Y67035232D01*
X14585035Y67035232D01*
X14626788Y67097719D01*
X14722637Y67329117D01*
X14771500Y67574768D01*
X14771500Y67825232D01*
X14722637Y68070883D01*
X14626788Y68302281D01*
X14487638Y68510534D01*
X14310534Y68687638D01*
X14102281Y68826788D01*
X13870883Y68922637D01*
X13625232Y68971500D01*
X13374768Y68971500D01*
X13129117Y68922637D01*
X12897719Y68826788D01*
X12689466Y68687638D01*
X12512362Y68510534D01*
X12373212Y68302281D01*
X12277363Y68070883D01*
X12228500Y67825232D01*
X902000Y67825232D01*
X902000Y73025232D01*
X12528500Y73025232D01*
X12528500Y72774768D01*
X12577363Y72529117D01*
X12673212Y72297719D01*
X12812362Y72089466D01*
X12989466Y71912362D01*
X13197719Y71773212D01*
X13429117Y71677363D01*
X13674768Y71628500D01*
X13925232Y71628500D01*
X14170883Y71677363D01*
X14402281Y71773212D01*
X14610534Y71912362D01*
X14787638Y72089466D01*
X14926788Y72297719D01*
X15022637Y72529117D01*
X15071500Y72774768D01*
X15071500Y73025232D01*
X15022637Y73270883D01*
X14926788Y73502281D01*
X14787638Y73710534D01*
X14610534Y73887638D01*
X14402281Y74026788D01*
X14170883Y74122637D01*
X13925232Y74171500D01*
X13674768Y74171500D01*
X13429117Y74122637D01*
X13197719Y74026788D01*
X12989466Y73887638D01*
X12812362Y73710534D01*
X12673212Y73502281D01*
X12577363Y73270883D01*
X12528500Y73025232D01*
X902000Y73025232D01*
X902000Y77843994D01*
X1838000Y77843994D01*
X1838000Y77556006D01*
X1894184Y77273550D01*
X2004392Y77007483D01*
X2164390Y76768029D01*
X2368029Y76564390D01*
X2607483Y76404392D01*
X2873550Y76294184D01*
X3156006Y76238000D01*
X3443994Y76238000D01*
X3726450Y76294184D01*
X3783186Y76317685D01*
X23479000Y76317685D01*
X23479000Y76002315D01*
X23540525Y75693005D01*
X23661212Y75401642D01*
X23836422Y75139422D01*
X24059422Y74916422D01*
X24321642Y74741212D01*
X24613005Y74620525D01*
X24922315Y74559000D01*
X25237685Y74559000D01*
X25546995Y74620525D01*
X25838358Y74741212D01*
X26100578Y74916422D01*
X26282577Y75098421D01*
X26434283Y74946715D01*
X26690115Y74775773D01*
X26974381Y74658027D01*
X27276156Y74598000D01*
X27583844Y74598000D01*
X27885619Y74658027D01*
X28169885Y74775773D01*
X28425717Y74946715D01*
X28643285Y75164283D01*
X28814227Y75420115D01*
X28931973Y75704381D01*
X28992000Y76006156D01*
X28992000Y76313844D01*
X28931973Y76615619D01*
X28814227Y76899885D01*
X28643285Y77155717D01*
X28425717Y77373285D01*
X28169885Y77544227D01*
X27885619Y77661973D01*
X27583844Y77722000D01*
X27276156Y77722000D01*
X26974381Y77661973D01*
X26690115Y77544227D01*
X26434283Y77373285D01*
X26282577Y77221579D01*
X26100578Y77403578D01*
X25838358Y77578788D01*
X25546995Y77699475D01*
X25237685Y77761000D01*
X24922315Y77761000D01*
X24613005Y77699475D01*
X24321642Y77578788D01*
X24059422Y77403578D01*
X23836422Y77180578D01*
X23661212Y76918358D01*
X23540525Y76626995D01*
X23479000Y76317685D01*
X3783186Y76317685D01*
X3992517Y76404392D01*
X4231971Y76564390D01*
X4435610Y76768029D01*
X4595608Y77007483D01*
X4705816Y77273550D01*
X4762000Y77556006D01*
X4762000Y77843994D01*
X4705816Y78126450D01*
X4595608Y78392517D01*
X4435610Y78631971D01*
X4231971Y78835610D01*
X3992517Y78995608D01*
X3726450Y79105816D01*
X3443994Y79162000D01*
X3156006Y79162000D01*
X2873550Y79105816D01*
X2607483Y78995608D01*
X2368029Y78835610D01*
X2164390Y78631971D01*
X2004392Y78392517D01*
X1894184Y78126450D01*
X1838000Y77843994D01*
X902000Y77843994D01*
X902000Y84700000D01*
X9473000Y84700000D01*
X9473000Y79300000D01*
X9475440Y79275224D01*
X9482667Y79251399D01*
X9494403Y79229443D01*
X9510197Y79210197D01*
X9529443Y79194403D01*
X9551399Y79182667D01*
X9575224Y79175440D01*
X9600000Y79173000D01*
X12173000Y79173000D01*
X12173000Y78700000D01*
X12175440Y78675224D01*
X12182667Y78651399D01*
X12194403Y78629443D01*
X12210197Y78610197D01*
X12229443Y78594403D01*
X12251399Y78582667D01*
X12275224Y78575440D01*
X12300000Y78573000D01*
X13100000Y78573000D01*
X13124776Y78575440D01*
X13148601Y78582667D01*
X13170557Y78594403D01*
X13189803Y78610197D01*
X13205597Y78629443D01*
X13217333Y78651399D01*
X13224560Y78675224D01*
X13227000Y78700000D01*
X13227000Y79173000D01*
X14900000Y79173000D01*
X14924776Y79175440D01*
X14948601Y79182667D01*
X14970557Y79194403D01*
X14989803Y79210197D01*
X15005597Y79229443D01*
X15017333Y79251399D01*
X15024560Y79275224D01*
X15027000Y79300000D01*
X15027000Y84700000D01*
X15024560Y84724776D01*
X15017333Y84748601D01*
X15005597Y84770557D01*
X14989803Y84789803D01*
X14970557Y84805597D01*
X14948601Y84817333D01*
X14924776Y84824560D01*
X14900000Y84827000D01*
X9600000Y84827000D01*
X9575224Y84824560D01*
X9551399Y84817333D01*
X9529443Y84805597D01*
X9510197Y84789803D01*
X9494403Y84770557D01*
X9482667Y84748601D01*
X9475440Y84724776D01*
X9473000Y84700000D01*
X902000Y84700000D01*
X902000Y85853050D01*
X1434604Y85497176D01*
X2112874Y85216227D01*
X2832923Y85073000D01*
X3567077Y85073000D01*
X4287126Y85216227D01*
X4965396Y85497176D01*
X5575824Y85905050D01*
X6094950Y86424176D01*
X6442280Y86943994D01*
X15038000Y86943994D01*
X15038000Y86656006D01*
X15094184Y86373550D01*
X15204392Y86107483D01*
X15364390Y85868029D01*
X15568029Y85664390D01*
X15686835Y85585007D01*
X15512362Y85410534D01*
X15373212Y85202281D01*
X15277363Y84970883D01*
X15228500Y84725232D01*
X15228500Y84474768D01*
X15277363Y84229117D01*
X15373212Y83997719D01*
X15512362Y83789466D01*
X15689466Y83612362D01*
X15897719Y83473212D01*
X16129117Y83377363D01*
X16374768Y83328500D01*
X16625232Y83328500D01*
X16870883Y83377363D01*
X17102281Y83473212D01*
X17310534Y83612362D01*
X17487638Y83789466D01*
X17626788Y83997719D01*
X17700316Y84175232D01*
X19728500Y84175232D01*
X19728500Y83924768D01*
X19777363Y83679117D01*
X19873212Y83447719D01*
X20012362Y83239466D01*
X20189466Y83062362D01*
X20397719Y82923212D01*
X20629117Y82827363D01*
X20874768Y82778500D01*
X21125232Y82778500D01*
X21370883Y82827363D01*
X21602281Y82923212D01*
X21810534Y83062362D01*
X21987638Y83239466D01*
X22126788Y83447719D01*
X22222637Y83679117D01*
X22271500Y83924768D01*
X22271500Y84175232D01*
X22222637Y84420883D01*
X22220836Y84425232D01*
X35128500Y84425232D01*
X35128500Y84174768D01*
X35177363Y83929117D01*
X35273212Y83697719D01*
X35412362Y83489466D01*
X35589466Y83312362D01*
X35797719Y83173212D01*
X36029117Y83077363D01*
X36274768Y83028500D01*
X36525232Y83028500D01*
X36770883Y83077363D01*
X37002281Y83173212D01*
X37210534Y83312362D01*
X37387638Y83489466D01*
X37526788Y83697719D01*
X37622637Y83929117D01*
X37671500Y84174768D01*
X37671500Y84425232D01*
X37622637Y84670883D01*
X37526788Y84902281D01*
X37387638Y85110534D01*
X37210534Y85287638D01*
X37002281Y85426788D01*
X36770883Y85522637D01*
X36525232Y85571500D01*
X36274768Y85571500D01*
X36029117Y85522637D01*
X35797719Y85426788D01*
X35589466Y85287638D01*
X35412362Y85110534D01*
X35273212Y84902281D01*
X35177363Y84670883D01*
X35128500Y84425232D01*
X22220836Y84425232D01*
X22126788Y84652281D01*
X21987638Y84860534D01*
X21810534Y85037638D01*
X21602281Y85176788D01*
X21370883Y85272637D01*
X21125232Y85321500D01*
X20874768Y85321500D01*
X20629117Y85272637D01*
X20397719Y85176788D01*
X20189466Y85037638D01*
X20012362Y84860534D01*
X19873212Y84652281D01*
X19777363Y84420883D01*
X19728500Y84175232D01*
X17700316Y84175232D01*
X17722637Y84229117D01*
X17771500Y84474768D01*
X17771500Y84725232D01*
X17722637Y84970883D01*
X17626788Y85202281D01*
X17487638Y85410534D01*
X17313165Y85585007D01*
X17431971Y85664390D01*
X17635610Y85868029D01*
X17795608Y86107483D01*
X17905816Y86373550D01*
X17962000Y86656006D01*
X17962000Y86943994D01*
X17905816Y87226450D01*
X17795608Y87492517D01*
X17635610Y87731971D01*
X17431971Y87935610D01*
X17192517Y88095608D01*
X16926450Y88205816D01*
X16643994Y88262000D01*
X16356006Y88262000D01*
X16073550Y88205816D01*
X15807483Y88095608D01*
X15568029Y87935610D01*
X15364390Y87731971D01*
X15204392Y87492517D01*
X15094184Y87226450D01*
X15038000Y86943994D01*
X6442280Y86943994D01*
X6502824Y87034604D01*
X6783773Y87712874D01*
X6927000Y88432923D01*
X6927000Y89167077D01*
X6783773Y89887126D01*
X6502824Y90565396D01*
X6146950Y91098000D01*
X128853050Y91098000D01*
X128497176Y90565396D01*
G37*
G04 #@! TD.AperFunction*
D21*
X54716912Y73090244D02*
X54749967Y73049967D01*
X54790242Y73016914D01*
X54790243Y73016913D01*
X54910702Y72918054D01*
X55094085Y72820035D01*
X55293066Y72759674D01*
X55448147Y72744400D01*
X55448157Y72744400D01*
X55500000Y72739294D01*
X55551843Y72744400D01*
X65459683Y72744400D01*
X75513838Y62690244D01*
X75546893Y62649967D01*
X75707629Y62518054D01*
X75891011Y62420035D01*
X76089992Y62359674D01*
X76245073Y62344400D01*
X76245082Y62344400D01*
X76296925Y62339294D01*
X76348768Y62344400D01*
X110312757Y62344400D01*
X114994400Y57662756D01*
X114994401Y32287245D01*
X104690249Y21983092D01*
X104690243Y21983087D01*
X104576299Y21869143D01*
X104557897Y30241950D01*
X104657000Y30740172D01*
X104657000Y32159828D01*
X104552528Y32685044D01*
X104534066Y41085232D01*
X108428500Y41085232D01*
X108428500Y40834768D01*
X108477363Y40589117D01*
X108573212Y40357719D01*
X108712362Y40149466D01*
X108889466Y39972362D01*
X109097719Y39833212D01*
X109329117Y39737363D01*
X109574768Y39688500D01*
X109825232Y39688500D01*
X110070883Y39737363D01*
X110302281Y39833212D01*
X110510534Y39972362D01*
X110687638Y40149466D01*
X110826788Y40357719D01*
X110922637Y40589117D01*
X110971500Y40834768D01*
X110971500Y41085232D01*
X110922637Y41330883D01*
X110826788Y41562281D01*
X110687638Y41770534D01*
X110510534Y41947638D01*
X110302281Y42086788D01*
X110070883Y42182637D01*
X109825232Y42231500D01*
X109574768Y42231500D01*
X109329117Y42182637D01*
X109097719Y42086788D01*
X108889466Y41947638D01*
X108712362Y41770534D01*
X108573212Y41562281D01*
X108477363Y41330883D01*
X108428500Y41085232D01*
X104534066Y41085232D01*
X104525073Y45176932D01*
X104657000Y45840172D01*
X104657000Y47259828D01*
X104518970Y47953749D01*
X104512356Y50963613D01*
X105958180Y50963613D01*
X105958180Y50740667D01*
X106001675Y50522006D01*
X106086992Y50316032D01*
X106210854Y50130660D01*
X106368500Y49973014D01*
X106553872Y49849152D01*
X106759846Y49763835D01*
X106978507Y49720340D01*
X107201453Y49720340D01*
X107420114Y49763835D01*
X107626088Y49849152D01*
X107811460Y49973014D01*
X107969106Y50130660D01*
X108092968Y50316032D01*
X108178285Y50522006D01*
X108221780Y50740667D01*
X108221780Y50963613D01*
X108181083Y51168209D01*
X108372967Y51130040D01*
X108595913Y51130040D01*
X108814574Y51173535D01*
X109020548Y51258852D01*
X109205920Y51382714D01*
X109363566Y51540360D01*
X109487428Y51725732D01*
X109572745Y51931706D01*
X109616240Y52150367D01*
X109616240Y52373313D01*
X109572745Y52591974D01*
X109487428Y52797948D01*
X109363566Y52983320D01*
X109205920Y53140966D01*
X109020548Y53264828D01*
X108814574Y53350145D01*
X108595913Y53393640D01*
X108372967Y53393640D01*
X108154306Y53350145D01*
X107948332Y53264828D01*
X107762960Y53140966D01*
X107605314Y52983320D01*
X107481452Y52797948D01*
X107396135Y52591974D01*
X107352640Y52373313D01*
X107352640Y52150367D01*
X107393337Y51945771D01*
X107201453Y51983940D01*
X106978507Y51983940D01*
X106759846Y51940445D01*
X106553872Y51855128D01*
X106368500Y51731266D01*
X106210854Y51573620D01*
X106086992Y51388248D01*
X106001675Y51182274D01*
X105958180Y50963613D01*
X104512356Y50963613D01*
X104502000Y55675279D01*
X104499351Y55700805D01*
X104491927Y55724569D01*
X104480010Y55746428D01*
X104464057Y55765542D01*
X104444682Y55781176D01*
X104422629Y55792730D01*
X104398746Y55799760D01*
X104373950Y55801996D01*
X83198956Y55626996D01*
X83175231Y55624560D01*
X83151406Y55617333D01*
X83129449Y55605597D01*
X83110204Y55589803D01*
X83094410Y55570558D01*
X83082674Y55548602D01*
X83075446Y55524777D01*
X83073006Y55500001D01*
X83072995Y54126656D01*
X46399655Y54027000D01*
X28483712Y54027000D01*
X28098043Y54604195D01*
X27094195Y55608043D01*
X26678846Y55885570D01*
X26581258Y55987726D01*
X26565548Y56001659D01*
X26544252Y56014556D01*
X26338253Y56113147D01*
X25913795Y56396761D01*
X24664046Y56914423D01*
X24454826Y57014556D01*
X24434317Y57022276D01*
X24409803Y57026621D01*
X24180161Y57044400D01*
X39948157Y57044400D01*
X40000000Y57039294D01*
X40051843Y57044400D01*
X40051853Y57044400D01*
X40206934Y57059674D01*
X40405915Y57120035D01*
X40589297Y57218054D01*
X40750033Y57349967D01*
X40783090Y57390247D01*
X40818075Y57425232D01*
X42228500Y57425232D01*
X42228500Y57174768D01*
X42277363Y56929117D01*
X42373212Y56697719D01*
X42512362Y56489466D01*
X42689466Y56312362D01*
X42897719Y56173212D01*
X43129117Y56077363D01*
X43374768Y56028500D01*
X43625232Y56028500D01*
X43870883Y56077363D01*
X44102281Y56173212D01*
X44310534Y56312362D01*
X44487638Y56489466D01*
X44626788Y56697719D01*
X44722637Y56929117D01*
X44771500Y57174768D01*
X44771500Y57425232D01*
X44722637Y57670883D01*
X44626788Y57902281D01*
X44487638Y58110534D01*
X44310534Y58287638D01*
X44102281Y58426788D01*
X43870883Y58522637D01*
X43625232Y58571500D01*
X43374768Y58571500D01*
X43129117Y58522637D01*
X42897719Y58426788D01*
X42689466Y58287638D01*
X42512362Y58110534D01*
X42373212Y57902281D01*
X42277363Y57670883D01*
X42228500Y57425232D01*
X40818075Y57425232D01*
X44359252Y60966409D01*
X64987323Y60966409D01*
X64987323Y60715945D01*
X65036186Y60470294D01*
X65132035Y60238896D01*
X65271185Y60030643D01*
X65448289Y59853539D01*
X65656542Y59714389D01*
X65887940Y59618540D01*
X66133591Y59569677D01*
X66384055Y59569677D01*
X66629706Y59618540D01*
X66861104Y59714389D01*
X67069357Y59853539D01*
X67246461Y60030643D01*
X67385611Y60238896D01*
X67481460Y60470294D01*
X67530323Y60715945D01*
X67530323Y60966409D01*
X67481460Y61212060D01*
X67385611Y61443458D01*
X67246461Y61651711D01*
X67069357Y61828815D01*
X66861104Y61967965D01*
X66629706Y62063814D01*
X66384055Y62112677D01*
X66133591Y62112677D01*
X65887940Y62063814D01*
X65656542Y61967965D01*
X65448289Y61828815D01*
X65271185Y61651711D01*
X65132035Y61443458D01*
X65036186Y61212060D01*
X64987323Y60966409D01*
X44359252Y60966409D01*
X48349005Y64956161D01*
X48373212Y64897719D01*
X48512362Y64689466D01*
X48689466Y64512362D01*
X48897719Y64373212D01*
X49129117Y64277363D01*
X49374768Y64228500D01*
X49625232Y64228500D01*
X49870883Y64277363D01*
X50102281Y64373212D01*
X50200000Y64438506D01*
X50297719Y64373212D01*
X50529117Y64277363D01*
X50774768Y64228500D01*
X51025232Y64228500D01*
X51270883Y64277363D01*
X51502281Y64373212D01*
X51710534Y64512362D01*
X51887638Y64689466D01*
X52026788Y64897719D01*
X52070808Y65003994D01*
X55498000Y65003994D01*
X55498000Y64716006D01*
X55554184Y64433550D01*
X55664392Y64167483D01*
X55824390Y63928029D01*
X56028029Y63724390D01*
X56267483Y63564392D01*
X56533550Y63454184D01*
X56816006Y63398000D01*
X57103994Y63398000D01*
X57386450Y63454184D01*
X57652517Y63564392D01*
X57891971Y63724390D01*
X58095610Y63928029D01*
X58255608Y64167483D01*
X58365816Y64433550D01*
X58422000Y64716006D01*
X58422000Y65003994D01*
X58365816Y65286450D01*
X58255608Y65552517D01*
X58095610Y65791971D01*
X57891971Y65995610D01*
X57652517Y66155608D01*
X57386450Y66265816D01*
X57103994Y66322000D01*
X56816006Y66322000D01*
X56533550Y66265816D01*
X56267483Y66155608D01*
X56028029Y65995610D01*
X55824390Y65791971D01*
X55664392Y65552517D01*
X55554184Y65286450D01*
X55498000Y65003994D01*
X52070808Y65003994D01*
X52122637Y65129117D01*
X52171500Y65374768D01*
X52171500Y65625232D01*
X52122637Y65870883D01*
X52026788Y66102281D01*
X51887638Y66310534D01*
X51710534Y66487638D01*
X51502281Y66626788D01*
X51270883Y66722637D01*
X51025232Y66771500D01*
X50774768Y66771500D01*
X50529117Y66722637D01*
X50297719Y66626788D01*
X50200000Y66561494D01*
X50102281Y66626788D01*
X49870883Y66722637D01*
X49625232Y66771500D01*
X49374768Y66771500D01*
X49155600Y66727905D01*
X49155600Y73125232D01*
X49228500Y73125232D01*
X49228500Y72874768D01*
X49277363Y72629117D01*
X49373212Y72397719D01*
X49512362Y72189466D01*
X49689466Y72012362D01*
X49897719Y71873212D01*
X50129117Y71777363D01*
X50254792Y71752365D01*
X51241912Y70765244D01*
X51274967Y70724967D01*
X51315242Y70691914D01*
X51315243Y70691913D01*
X51435703Y70593054D01*
X51619085Y70495035D01*
X51818066Y70434674D01*
X52025000Y70414293D01*
X52076853Y70419400D01*
X60287757Y70419400D01*
X75552365Y55154791D01*
X75577363Y55029117D01*
X75673212Y54797719D01*
X75812362Y54589466D01*
X75989466Y54412362D01*
X76197719Y54273212D01*
X76429117Y54177363D01*
X76674768Y54128500D01*
X76925232Y54128500D01*
X77170883Y54177363D01*
X77402281Y54273212D01*
X77610534Y54412362D01*
X77787638Y54589466D01*
X77926788Y54797719D01*
X78022637Y55029117D01*
X78071500Y55274768D01*
X78071500Y55525232D01*
X78022637Y55770883D01*
X77926788Y56002281D01*
X77787638Y56210534D01*
X77610534Y56387638D01*
X77402281Y56526788D01*
X77170883Y56622637D01*
X77045209Y56647635D01*
X76267612Y57425232D01*
X107223500Y57425232D01*
X107223500Y57174768D01*
X107272363Y56929117D01*
X107368212Y56697719D01*
X107507362Y56489466D01*
X107684466Y56312362D01*
X107892719Y56173212D01*
X108124117Y56077363D01*
X108369768Y56028500D01*
X108620232Y56028500D01*
X108865883Y56077363D01*
X109097281Y56173212D01*
X109305534Y56312362D01*
X109482638Y56489466D01*
X109621788Y56697719D01*
X109717637Y56929117D01*
X109766500Y57174768D01*
X109766500Y57425232D01*
X109736664Y57575232D01*
X110748500Y57575232D01*
X110748500Y57324768D01*
X110797363Y57079117D01*
X110893212Y56847719D01*
X111032362Y56639466D01*
X111209466Y56462362D01*
X111417719Y56323212D01*
X111649117Y56227363D01*
X111894768Y56178500D01*
X112145232Y56178500D01*
X112390883Y56227363D01*
X112622281Y56323212D01*
X112830534Y56462362D01*
X113007638Y56639466D01*
X113146788Y56847719D01*
X113242637Y57079117D01*
X113291500Y57324768D01*
X113291500Y57575232D01*
X113242637Y57820883D01*
X113146788Y58052281D01*
X113007638Y58260534D01*
X112830534Y58437638D01*
X112622281Y58576788D01*
X112390883Y58672637D01*
X112145232Y58721500D01*
X111894768Y58721500D01*
X111649117Y58672637D01*
X111417719Y58576788D01*
X111209466Y58437638D01*
X111032362Y58260534D01*
X110893212Y58052281D01*
X110797363Y57820883D01*
X110748500Y57575232D01*
X109736664Y57575232D01*
X109717637Y57670883D01*
X109621788Y57902281D01*
X109482638Y58110534D01*
X109305534Y58287638D01*
X109097281Y58426788D01*
X108865883Y58522637D01*
X108620232Y58571500D01*
X108369768Y58571500D01*
X108124117Y58522637D01*
X107892719Y58426788D01*
X107684466Y58287638D01*
X107507362Y58110534D01*
X107368212Y57902281D01*
X107272363Y57670883D01*
X107223500Y57425232D01*
X76267612Y57425232D01*
X61508090Y72184753D01*
X61475033Y72225033D01*
X61314297Y72356946D01*
X61130915Y72454965D01*
X60931934Y72515326D01*
X60776853Y72530600D01*
X60776843Y72530600D01*
X60725000Y72535706D01*
X60673157Y72530600D01*
X52462244Y72530600D01*
X51747635Y73245208D01*
X51722637Y73370883D01*
X51626788Y73602281D01*
X51487638Y73810534D01*
X51310534Y73987638D01*
X51102281Y74126788D01*
X50870883Y74222637D01*
X50625232Y74271500D01*
X50374768Y74271500D01*
X50129117Y74222637D01*
X49897719Y74126788D01*
X49689466Y73987638D01*
X49512362Y73810534D01*
X49373212Y73602281D01*
X49277363Y73370883D01*
X49228500Y73125232D01*
X49155600Y73125232D01*
X49155600Y75201355D01*
X49197719Y75173212D01*
X49429117Y75077363D01*
X49674768Y75028500D01*
X49925232Y75028500D01*
X50170883Y75077363D01*
X50402281Y75173212D01*
X50508822Y75244400D01*
X52562757Y75244400D01*
X54716912Y73090244D01*
G04 #@! TA.AperFunction,Conductor*
D22*
G36*
X54716912Y73090244D02*
G01*
X54749967Y73049967D01*
X54790242Y73016914D01*
X54790243Y73016913D01*
X54910702Y72918054D01*
X55094085Y72820035D01*
X55293066Y72759674D01*
X55448147Y72744400D01*
X55448157Y72744400D01*
X55500000Y72739294D01*
X55551843Y72744400D01*
X65459683Y72744400D01*
X75513838Y62690244D01*
X75546893Y62649967D01*
X75707629Y62518054D01*
X75891011Y62420035D01*
X76089992Y62359674D01*
X76245073Y62344400D01*
X76245082Y62344400D01*
X76296925Y62339294D01*
X76348768Y62344400D01*
X110312757Y62344400D01*
X114994400Y57662756D01*
X114994401Y32287245D01*
X104690249Y21983092D01*
X104690243Y21983087D01*
X104576299Y21869143D01*
X104557897Y30241950D01*
X104657000Y30740172D01*
X104657000Y32159828D01*
X104552528Y32685044D01*
X104534066Y41085232D01*
X108428500Y41085232D01*
X108428500Y40834768D01*
X108477363Y40589117D01*
X108573212Y40357719D01*
X108712362Y40149466D01*
X108889466Y39972362D01*
X109097719Y39833212D01*
X109329117Y39737363D01*
X109574768Y39688500D01*
X109825232Y39688500D01*
X110070883Y39737363D01*
X110302281Y39833212D01*
X110510534Y39972362D01*
X110687638Y40149466D01*
X110826788Y40357719D01*
X110922637Y40589117D01*
X110971500Y40834768D01*
X110971500Y41085232D01*
X110922637Y41330883D01*
X110826788Y41562281D01*
X110687638Y41770534D01*
X110510534Y41947638D01*
X110302281Y42086788D01*
X110070883Y42182637D01*
X109825232Y42231500D01*
X109574768Y42231500D01*
X109329117Y42182637D01*
X109097719Y42086788D01*
X108889466Y41947638D01*
X108712362Y41770534D01*
X108573212Y41562281D01*
X108477363Y41330883D01*
X108428500Y41085232D01*
X104534066Y41085232D01*
X104525073Y45176932D01*
X104657000Y45840172D01*
X104657000Y47259828D01*
X104518970Y47953749D01*
X104512356Y50963613D01*
X105958180Y50963613D01*
X105958180Y50740667D01*
X106001675Y50522006D01*
X106086992Y50316032D01*
X106210854Y50130660D01*
X106368500Y49973014D01*
X106553872Y49849152D01*
X106759846Y49763835D01*
X106978507Y49720340D01*
X107201453Y49720340D01*
X107420114Y49763835D01*
X107626088Y49849152D01*
X107811460Y49973014D01*
X107969106Y50130660D01*
X108092968Y50316032D01*
X108178285Y50522006D01*
X108221780Y50740667D01*
X108221780Y50963613D01*
X108181083Y51168209D01*
X108372967Y51130040D01*
X108595913Y51130040D01*
X108814574Y51173535D01*
X109020548Y51258852D01*
X109205920Y51382714D01*
X109363566Y51540360D01*
X109487428Y51725732D01*
X109572745Y51931706D01*
X109616240Y52150367D01*
X109616240Y52373313D01*
X109572745Y52591974D01*
X109487428Y52797948D01*
X109363566Y52983320D01*
X109205920Y53140966D01*
X109020548Y53264828D01*
X108814574Y53350145D01*
X108595913Y53393640D01*
X108372967Y53393640D01*
X108154306Y53350145D01*
X107948332Y53264828D01*
X107762960Y53140966D01*
X107605314Y52983320D01*
X107481452Y52797948D01*
X107396135Y52591974D01*
X107352640Y52373313D01*
X107352640Y52150367D01*
X107393337Y51945771D01*
X107201453Y51983940D01*
X106978507Y51983940D01*
X106759846Y51940445D01*
X106553872Y51855128D01*
X106368500Y51731266D01*
X106210854Y51573620D01*
X106086992Y51388248D01*
X106001675Y51182274D01*
X105958180Y50963613D01*
X104512356Y50963613D01*
X104502000Y55675279D01*
X104499351Y55700805D01*
X104491927Y55724569D01*
X104480010Y55746428D01*
X104464057Y55765542D01*
X104444682Y55781176D01*
X104422629Y55792730D01*
X104398746Y55799760D01*
X104373950Y55801996D01*
X83198956Y55626996D01*
X83175231Y55624560D01*
X83151406Y55617333D01*
X83129449Y55605597D01*
X83110204Y55589803D01*
X83094410Y55570558D01*
X83082674Y55548602D01*
X83075446Y55524777D01*
X83073006Y55500001D01*
X83072995Y54126656D01*
X46399655Y54027000D01*
X28483712Y54027000D01*
X28098043Y54604195D01*
X27094195Y55608043D01*
X26678846Y55885570D01*
X26581258Y55987726D01*
X26565548Y56001659D01*
X26544252Y56014556D01*
X26338253Y56113147D01*
X25913795Y56396761D01*
X24664046Y56914423D01*
X24454826Y57014556D01*
X24434317Y57022276D01*
X24409803Y57026621D01*
X24180161Y57044400D01*
X39948157Y57044400D01*
X40000000Y57039294D01*
X40051843Y57044400D01*
X40051853Y57044400D01*
X40206934Y57059674D01*
X40405915Y57120035D01*
X40589297Y57218054D01*
X40750033Y57349967D01*
X40783090Y57390247D01*
X40818075Y57425232D01*
X42228500Y57425232D01*
X42228500Y57174768D01*
X42277363Y56929117D01*
X42373212Y56697719D01*
X42512362Y56489466D01*
X42689466Y56312362D01*
X42897719Y56173212D01*
X43129117Y56077363D01*
X43374768Y56028500D01*
X43625232Y56028500D01*
X43870883Y56077363D01*
X44102281Y56173212D01*
X44310534Y56312362D01*
X44487638Y56489466D01*
X44626788Y56697719D01*
X44722637Y56929117D01*
X44771500Y57174768D01*
X44771500Y57425232D01*
X44722637Y57670883D01*
X44626788Y57902281D01*
X44487638Y58110534D01*
X44310534Y58287638D01*
X44102281Y58426788D01*
X43870883Y58522637D01*
X43625232Y58571500D01*
X43374768Y58571500D01*
X43129117Y58522637D01*
X42897719Y58426788D01*
X42689466Y58287638D01*
X42512362Y58110534D01*
X42373212Y57902281D01*
X42277363Y57670883D01*
X42228500Y57425232D01*
X40818075Y57425232D01*
X44359252Y60966409D01*
X64987323Y60966409D01*
X64987323Y60715945D01*
X65036186Y60470294D01*
X65132035Y60238896D01*
X65271185Y60030643D01*
X65448289Y59853539D01*
X65656542Y59714389D01*
X65887940Y59618540D01*
X66133591Y59569677D01*
X66384055Y59569677D01*
X66629706Y59618540D01*
X66861104Y59714389D01*
X67069357Y59853539D01*
X67246461Y60030643D01*
X67385611Y60238896D01*
X67481460Y60470294D01*
X67530323Y60715945D01*
X67530323Y60966409D01*
X67481460Y61212060D01*
X67385611Y61443458D01*
X67246461Y61651711D01*
X67069357Y61828815D01*
X66861104Y61967965D01*
X66629706Y62063814D01*
X66384055Y62112677D01*
X66133591Y62112677D01*
X65887940Y62063814D01*
X65656542Y61967965D01*
X65448289Y61828815D01*
X65271185Y61651711D01*
X65132035Y61443458D01*
X65036186Y61212060D01*
X64987323Y60966409D01*
X44359252Y60966409D01*
X48349005Y64956161D01*
X48373212Y64897719D01*
X48512362Y64689466D01*
X48689466Y64512362D01*
X48897719Y64373212D01*
X49129117Y64277363D01*
X49374768Y64228500D01*
X49625232Y64228500D01*
X49870883Y64277363D01*
X50102281Y64373212D01*
X50200000Y64438506D01*
X50297719Y64373212D01*
X50529117Y64277363D01*
X50774768Y64228500D01*
X51025232Y64228500D01*
X51270883Y64277363D01*
X51502281Y64373212D01*
X51710534Y64512362D01*
X51887638Y64689466D01*
X52026788Y64897719D01*
X52070808Y65003994D01*
X55498000Y65003994D01*
X55498000Y64716006D01*
X55554184Y64433550D01*
X55664392Y64167483D01*
X55824390Y63928029D01*
X56028029Y63724390D01*
X56267483Y63564392D01*
X56533550Y63454184D01*
X56816006Y63398000D01*
X57103994Y63398000D01*
X57386450Y63454184D01*
X57652517Y63564392D01*
X57891971Y63724390D01*
X58095610Y63928029D01*
X58255608Y64167483D01*
X58365816Y64433550D01*
X58422000Y64716006D01*
X58422000Y65003994D01*
X58365816Y65286450D01*
X58255608Y65552517D01*
X58095610Y65791971D01*
X57891971Y65995610D01*
X57652517Y66155608D01*
X57386450Y66265816D01*
X57103994Y66322000D01*
X56816006Y66322000D01*
X56533550Y66265816D01*
X56267483Y66155608D01*
X56028029Y65995610D01*
X55824390Y65791971D01*
X55664392Y65552517D01*
X55554184Y65286450D01*
X55498000Y65003994D01*
X52070808Y65003994D01*
X52122637Y65129117D01*
X52171500Y65374768D01*
X52171500Y65625232D01*
X52122637Y65870883D01*
X52026788Y66102281D01*
X51887638Y66310534D01*
X51710534Y66487638D01*
X51502281Y66626788D01*
X51270883Y66722637D01*
X51025232Y66771500D01*
X50774768Y66771500D01*
X50529117Y66722637D01*
X50297719Y66626788D01*
X50200000Y66561494D01*
X50102281Y66626788D01*
X49870883Y66722637D01*
X49625232Y66771500D01*
X49374768Y66771500D01*
X49155600Y66727905D01*
X49155600Y73125232D01*
X49228500Y73125232D01*
X49228500Y72874768D01*
X49277363Y72629117D01*
X49373212Y72397719D01*
X49512362Y72189466D01*
X49689466Y72012362D01*
X49897719Y71873212D01*
X50129117Y71777363D01*
X50254792Y71752365D01*
X51241912Y70765244D01*
X51274967Y70724967D01*
X51315242Y70691914D01*
X51315243Y70691913D01*
X51435703Y70593054D01*
X51619085Y70495035D01*
X51818066Y70434674D01*
X52025000Y70414293D01*
X52076853Y70419400D01*
X60287757Y70419400D01*
X75552365Y55154791D01*
X75577363Y55029117D01*
X75673212Y54797719D01*
X75812362Y54589466D01*
X75989466Y54412362D01*
X76197719Y54273212D01*
X76429117Y54177363D01*
X76674768Y54128500D01*
X76925232Y54128500D01*
X77170883Y54177363D01*
X77402281Y54273212D01*
X77610534Y54412362D01*
X77787638Y54589466D01*
X77926788Y54797719D01*
X78022637Y55029117D01*
X78071500Y55274768D01*
X78071500Y55525232D01*
X78022637Y55770883D01*
X77926788Y56002281D01*
X77787638Y56210534D01*
X77610534Y56387638D01*
X77402281Y56526788D01*
X77170883Y56622637D01*
X77045209Y56647635D01*
X76267612Y57425232D01*
X107223500Y57425232D01*
X107223500Y57174768D01*
X107272363Y56929117D01*
X107368212Y56697719D01*
X107507362Y56489466D01*
X107684466Y56312362D01*
X107892719Y56173212D01*
X108124117Y56077363D01*
X108369768Y56028500D01*
X108620232Y56028500D01*
X108865883Y56077363D01*
X109097281Y56173212D01*
X109305534Y56312362D01*
X109482638Y56489466D01*
X109621788Y56697719D01*
X109717637Y56929117D01*
X109766500Y57174768D01*
X109766500Y57425232D01*
X109736664Y57575232D01*
X110748500Y57575232D01*
X110748500Y57324768D01*
X110797363Y57079117D01*
X110893212Y56847719D01*
X111032362Y56639466D01*
X111209466Y56462362D01*
X111417719Y56323212D01*
X111649117Y56227363D01*
X111894768Y56178500D01*
X112145232Y56178500D01*
X112390883Y56227363D01*
X112622281Y56323212D01*
X112830534Y56462362D01*
X113007638Y56639466D01*
X113146788Y56847719D01*
X113242637Y57079117D01*
X113291500Y57324768D01*
X113291500Y57575232D01*
X113242637Y57820883D01*
X113146788Y58052281D01*
X113007638Y58260534D01*
X112830534Y58437638D01*
X112622281Y58576788D01*
X112390883Y58672637D01*
X112145232Y58721500D01*
X111894768Y58721500D01*
X111649117Y58672637D01*
X111417719Y58576788D01*
X111209466Y58437638D01*
X111032362Y58260534D01*
X110893212Y58052281D01*
X110797363Y57820883D01*
X110748500Y57575232D01*
X109736664Y57575232D01*
X109717637Y57670883D01*
X109621788Y57902281D01*
X109482638Y58110534D01*
X109305534Y58287638D01*
X109097281Y58426788D01*
X108865883Y58522637D01*
X108620232Y58571500D01*
X108369768Y58571500D01*
X108124117Y58522637D01*
X107892719Y58426788D01*
X107684466Y58287638D01*
X107507362Y58110534D01*
X107368212Y57902281D01*
X107272363Y57670883D01*
X107223500Y57425232D01*
X76267612Y57425232D01*
X61508090Y72184753D01*
X61475033Y72225033D01*
X61314297Y72356946D01*
X61130915Y72454965D01*
X60931934Y72515326D01*
X60776853Y72530600D01*
X60776843Y72530600D01*
X60725000Y72535706D01*
X60673157Y72530600D01*
X52462244Y72530600D01*
X51747635Y73245208D01*
X51722637Y73370883D01*
X51626788Y73602281D01*
X51487638Y73810534D01*
X51310534Y73987638D01*
X51102281Y74126788D01*
X50870883Y74222637D01*
X50625232Y74271500D01*
X50374768Y74271500D01*
X50129117Y74222637D01*
X49897719Y74126788D01*
X49689466Y73987638D01*
X49512362Y73810534D01*
X49373212Y73602281D01*
X49277363Y73370883D01*
X49228500Y73125232D01*
X49155600Y73125232D01*
X49155600Y75201355D01*
X49197719Y75173212D01*
X49429117Y75077363D01*
X49674768Y75028500D01*
X49925232Y75028500D01*
X50170883Y75077363D01*
X50402281Y75173212D01*
X50508822Y75244400D01*
X52562757Y75244400D01*
X54716912Y73090244D01*
G37*
G04 #@! TD.AperFunction*
D21*
X92779466Y66077638D02*
X92602362Y65900534D01*
X92463212Y65692281D01*
X92367363Y65460883D01*
X92318500Y65215232D01*
X92318500Y64964768D01*
X92367363Y64719117D01*
X92463212Y64487719D01*
X92484673Y64455600D01*
X84223181Y64455600D01*
X84235610Y64468029D01*
X84395608Y64707483D01*
X84479124Y64909110D01*
X85747714Y66177700D01*
X92929220Y66177700D01*
X92779466Y66077638D01*
G04 #@! TA.AperFunction,Conductor*
D22*
G36*
X92779466Y66077638D02*
G01*
X92602362Y65900534D01*
X92463212Y65692281D01*
X92367363Y65460883D01*
X92318500Y65215232D01*
X92318500Y64964768D01*
X92367363Y64719117D01*
X92463212Y64487719D01*
X92484673Y64455600D01*
X84223181Y64455600D01*
X84235610Y64468029D01*
X84395608Y64707483D01*
X84479124Y64909110D01*
X85747714Y66177700D01*
X92929220Y66177700D01*
X92779466Y66077638D01*
G37*
G04 #@! TD.AperFunction*
D21*
X55766504Y49853615D02*
X56027593Y49796819D01*
X56277940Y49703444D01*
X56512445Y49575395D01*
X56726338Y49415276D01*
X56915276Y49226338D01*
X57075395Y49012445D01*
X57203444Y48777940D01*
X57296819Y48527593D01*
X57353615Y48266504D01*
X57373000Y47995470D01*
X57373000Y27504530D01*
X57353615Y27233496D01*
X57296819Y26972407D01*
X57203444Y26722060D01*
X57075395Y26487555D01*
X56915276Y26273662D01*
X56726338Y26084724D01*
X56512445Y25924605D01*
X56277940Y25796556D01*
X56027593Y25703181D01*
X55766504Y25646385D01*
X55495470Y25627000D01*
X53391979Y25627000D01*
X53122012Y25646231D01*
X52861922Y25702577D01*
X52612444Y25795221D01*
X52378621Y25922290D01*
X52165171Y26081223D01*
X51976399Y26268811D01*
X51816127Y26481258D01*
X51687590Y26714275D01*
X51593377Y26963170D01*
X51535399Y27222892D01*
X51514469Y27492749D01*
X51434466Y40213257D01*
X51434128Y40221755D01*
X51414530Y40488754D01*
X51412154Y40505587D01*
X51357072Y40767577D01*
X51352468Y40783942D01*
X51262888Y41036228D01*
X51256141Y41051831D01*
X51133669Y41289892D01*
X51124897Y41304455D01*
X50971727Y41524026D01*
X50961090Y41537286D01*
X50779967Y41734434D01*
X50767653Y41746155D01*
X50561822Y41917345D01*
X50548054Y41927317D01*
X50321203Y42069483D01*
X50313849Y42073755D01*
X47017604Y43843960D01*
X46800368Y43980220D01*
X46606695Y44141684D01*
X46436470Y44327701D01*
X46292781Y44534895D01*
X46178221Y44759527D01*
X46094881Y44997495D01*
X46044264Y45244513D01*
X46027000Y45500370D01*
X46027000Y47995470D01*
X46046385Y48266504D01*
X46103181Y48527593D01*
X46196556Y48777940D01*
X46324605Y49012445D01*
X46484724Y49226338D01*
X46673662Y49415276D01*
X46887555Y49575395D01*
X47122060Y49703444D01*
X47372407Y49796819D01*
X47633496Y49853615D01*
X47904530Y49873000D01*
X55495470Y49873000D01*
X55766504Y49853615D01*
G04 #@! TA.AperFunction,Conductor*
D22*
G36*
X55766504Y49853615D02*
G01*
X56027593Y49796819D01*
X56277940Y49703444D01*
X56512445Y49575395D01*
X56726338Y49415276D01*
X56915276Y49226338D01*
X57075395Y49012445D01*
X57203444Y48777940D01*
X57296819Y48527593D01*
X57353615Y48266504D01*
X57373000Y47995470D01*
X57373000Y27504530D01*
X57353615Y27233496D01*
X57296819Y26972407D01*
X57203444Y26722060D01*
X57075395Y26487555D01*
X56915276Y26273662D01*
X56726338Y26084724D01*
X56512445Y25924605D01*
X56277940Y25796556D01*
X56027593Y25703181D01*
X55766504Y25646385D01*
X55495470Y25627000D01*
X53391979Y25627000D01*
X53122012Y25646231D01*
X52861922Y25702577D01*
X52612444Y25795221D01*
X52378621Y25922290D01*
X52165171Y26081223D01*
X51976399Y26268811D01*
X51816127Y26481258D01*
X51687590Y26714275D01*
X51593377Y26963170D01*
X51535399Y27222892D01*
X51514469Y27492749D01*
X51434466Y40213257D01*
X51434128Y40221755D01*
X51414530Y40488754D01*
X51412154Y40505587D01*
X51357072Y40767577D01*
X51352468Y40783942D01*
X51262888Y41036228D01*
X51256141Y41051831D01*
X51133669Y41289892D01*
X51124897Y41304455D01*
X50971727Y41524026D01*
X50961090Y41537286D01*
X50779967Y41734434D01*
X50767653Y41746155D01*
X50561822Y41917345D01*
X50548054Y41927317D01*
X50321203Y42069483D01*
X50313849Y42073755D01*
X47017604Y43843960D01*
X46800368Y43980220D01*
X46606695Y44141684D01*
X46436470Y44327701D01*
X46292781Y44534895D01*
X46178221Y44759527D01*
X46094881Y44997495D01*
X46044264Y45244513D01*
X46027000Y45500370D01*
X46027000Y47995470D01*
X46046385Y48266504D01*
X46103181Y48527593D01*
X46196556Y48777940D01*
X46324605Y49012445D01*
X46484724Y49226338D01*
X46673662Y49415276D01*
X46887555Y49575395D01*
X47122060Y49703444D01*
X47372407Y49796819D01*
X47633496Y49853615D01*
X47904530Y49873000D01*
X55495470Y49873000D01*
X55766504Y49853615D01*
G37*
G04 #@! TD.AperFunction*
M02*
