G04 #@! TF.GenerationSoftware,KiCad,Pcbnew,(5.1.9)-1*
G04 #@! TF.CreationDate,2021-02-22T11:59:36-08:00*
G04 #@! TF.ProjectId,UnfolderBuffer,556e666f-6c64-4657-9242-75666665722e,rev?*
G04 #@! TF.SameCoordinates,Original*
G04 #@! TF.FileFunction,Legend,Bot*
G04 #@! TF.FilePolarity,Positive*
%FSLAX46Y46*%
G04 Gerber Fmt 4.6, Leading zero omitted, Abs format (unit mm)*
G04 Created by KiCad (PCBNEW (5.1.9)-1) date 2021-02-22 11:59:36*
%MOMM*%
%LPD*%
G01*
G04 APERTURE LIST*
%ADD10C,0.150000*%
%ADD11C,0.111125*%
G04 APERTURE END LIST*
D10*
X102950000Y46550000D02*
G75*
G03*
X102950000Y46550000I-5500000J0D01*
G01*
X102950000Y31450000D02*
G75*
G03*
X102950000Y31450000I-5500000J0D01*
G01*
X28000000Y50010000D02*
G75*
G03*
X28000000Y50010000I-5500000J0D01*
G01*
X28290000Y32570000D02*
G75*
G03*
X28290000Y32570000I-5500000J0D01*
G01*
D11*
X98010916Y40432511D02*
X97756916Y40432511D01*
X97883916Y39734011D02*
X97883916Y40432511D01*
X97608750Y39734011D02*
X97608750Y40432511D01*
X97439416Y40432511D01*
X97397083Y40399250D01*
X97375916Y40365988D01*
X97354750Y40299464D01*
X97354750Y40199678D01*
X97375916Y40133154D01*
X97397083Y40099892D01*
X97439416Y40066630D01*
X97608750Y40066630D01*
X97206583Y40432511D02*
X96931416Y40432511D01*
X97079583Y40166416D01*
X97016083Y40166416D01*
X96973750Y40133154D01*
X96952583Y40099892D01*
X96931416Y40033369D01*
X96931416Y39867059D01*
X96952583Y39800535D01*
X96973750Y39767273D01*
X97016083Y39734011D01*
X97143083Y39734011D01*
X97185416Y39767273D01*
X97206583Y39800535D01*
X98010916Y25332511D02*
X97756916Y25332511D01*
X97883916Y24634011D02*
X97883916Y25332511D01*
X97608750Y24634011D02*
X97608750Y25332511D01*
X97439416Y25332511D01*
X97397083Y25299250D01*
X97375916Y25265988D01*
X97354750Y25199464D01*
X97354750Y25099678D01*
X97375916Y25033154D01*
X97397083Y24999892D01*
X97439416Y24966630D01*
X97608750Y24966630D01*
X96973750Y25099678D02*
X96973750Y24634011D01*
X97079583Y25365773D02*
X97185416Y24866845D01*
X96910250Y24866845D01*
X23060916Y56892511D02*
X22806916Y56892511D01*
X22933916Y56194011D02*
X22933916Y56892511D01*
X22658750Y56194011D02*
X22658750Y56892511D01*
X22489416Y56892511D01*
X22447083Y56859250D01*
X22425916Y56825988D01*
X22404750Y56759464D01*
X22404750Y56659678D01*
X22425916Y56593154D01*
X22447083Y56559892D01*
X22489416Y56526630D01*
X22658750Y56526630D01*
X22235416Y56825988D02*
X22214250Y56859250D01*
X22171916Y56892511D01*
X22066083Y56892511D01*
X22023750Y56859250D01*
X22002583Y56825988D01*
X21981416Y56759464D01*
X21981416Y56692940D01*
X22002583Y56593154D01*
X22256583Y56194011D01*
X21981416Y56194011D01*
X23350916Y39452511D02*
X23096916Y39452511D01*
X23223916Y38754011D02*
X23223916Y39452511D01*
X22948750Y38754011D02*
X22948750Y39452511D01*
X22779416Y39452511D01*
X22737083Y39419250D01*
X22715916Y39385988D01*
X22694750Y39319464D01*
X22694750Y39219678D01*
X22715916Y39153154D01*
X22737083Y39119892D01*
X22779416Y39086630D01*
X22948750Y39086630D01*
X22271416Y38754011D02*
X22525416Y38754011D01*
X22398416Y38754011D02*
X22398416Y39452511D01*
X22440750Y39352726D01*
X22483083Y39286202D01*
X22525416Y39252940D01*
M02*
