G04 #@! TF.GenerationSoftware,KiCad,Pcbnew,(5.0.0)*
G04 #@! TF.CreationDate,2019-07-23T14:55:15-07:00*
G04 #@! TF.ProjectId,Test Project,546573742050726F6A6563742E6B6963,rev?*
G04 #@! TF.SameCoordinates,Original*
G04 #@! TF.FileFunction,Copper,L2,Inr,Signal*
G04 #@! TF.FilePolarity,Positive*
%FSLAX46Y46*%
G04 Gerber Fmt 4.6, Leading zero omitted, Abs format (unit mm)*
G04 Created by KiCad (PCBNEW (5.0.0)) date 07/23/19 14:55:15*
%MOMM*%
%LPD*%
G01*
G04 APERTURE LIST*
G04 #@! TA.AperFunction,ViaPad*
%ADD10O,1.700000X1.700000*%
G04 #@! TD*
G04 #@! TA.AperFunction,ViaPad*
%ADD11R,1.700000X1.700000*%
G04 #@! TD*
G04 #@! TA.AperFunction,ViaPad*
%ADD12C,2.540000*%
G04 #@! TD*
G04 #@! TA.AperFunction,ViaPad*
%ADD13C,1.270000*%
G04 #@! TD*
G04 #@! TA.AperFunction,ViaPad*
%ADD14C,0.889000*%
G04 #@! TD*
G04 #@! TA.AperFunction,Conductor*
%ADD15C,0.254000*%
G04 #@! TD*
G04 APERTURE END LIST*
D10*
G04 #@! TO.N,/VDD_ISO*
G04 #@! TO.C,J5*
X20460000Y82000000D03*
D11*
G04 #@! TO.N,/GND_ISO*
X23000000Y82000000D03*
G04 #@! TD*
G04 #@! TO.N,/VDD_Logic*
G04 #@! TO.C,J3*
X5000000Y71000000D03*
D10*
G04 #@! TO.N,/GND_Logic*
X5000000Y68460000D03*
G04 #@! TD*
D11*
G04 #@! TO.N,/~INB*
G04 #@! TO.C,J2*
X41500000Y82000000D03*
D10*
G04 #@! TO.N,/INB*
X38960000Y82000000D03*
G04 #@! TO.N,/~INA*
X36420000Y82000000D03*
G04 #@! TO.N,/INA*
X33880000Y82000000D03*
G04 #@! TD*
D12*
G04 #@! TO.N,/VC2_Pos*
G04 #@! TO.C,J4*
X117000000Y66018800D03*
G04 #@! TO.N,/VC2_Neg*
X117000000Y69981200D03*
G04 #@! TD*
G04 #@! TO.N,/VAC_Pos*
G04 #@! TO.C,J1*
X35855800Y6985000D03*
G04 #@! TO.N,/VAC_Neg*
X39818200Y6985000D03*
G04 #@! TD*
D13*
G04 #@! TO.N,/GND_Logic*
X15100000Y67500000D03*
X15100000Y71800000D03*
G04 #@! TO.N,/VDD_Logic*
X15100000Y73800000D03*
X59262000Y57912000D03*
G04 #@! TO.N,/GND_Logic*
X61167000Y60452004D03*
X61000000Y68000000D03*
G04 #@! TO.N,/INA*
X19930000Y69723000D03*
G04 #@! TO.N,/~INA*
X19041000Y64516000D03*
G04 #@! TO.N,/VC2_Pos*
X68200000Y64800000D03*
X69900000Y64800000D03*
X66500000Y64800000D03*
D14*
G04 #@! TO.N,/VC2_Neg*
X38600000Y72800000D03*
X36500000Y72800000D03*
D13*
X35500000Y73773000D03*
X39500000Y73773000D03*
X39615000Y71827000D03*
X35500000Y71827000D03*
X37500000Y73773000D03*
X37500000Y71827000D03*
G04 #@! TO.N,/VC2_Pos*
X35500000Y63011000D03*
X39500000Y63011000D03*
X37500000Y63011000D03*
X37500000Y61065000D03*
D14*
X38600000Y62038000D03*
D13*
X35500000Y61065000D03*
D14*
X36500000Y62038000D03*
D13*
X39615000Y61065000D03*
X75400000Y64800000D03*
X72000000Y64800000D03*
X73700000Y64800000D03*
X80900000Y64800000D03*
X77500000Y64800000D03*
X79200000Y64800000D03*
X84700000Y64800000D03*
X86400000Y64800000D03*
X83000000Y64800000D03*
X91900000Y64800000D03*
X90200000Y64800000D03*
X88500000Y64800000D03*
G04 #@! TO.N,/VC2_Neg*
X88500000Y70500000D03*
X91900000Y70500000D03*
X90200000Y70500000D03*
X83000000Y70500000D03*
X77500000Y70500000D03*
X72000000Y70500000D03*
X66500000Y70500000D03*
X86400000Y70500000D03*
X80900000Y70500000D03*
X75400000Y70500000D03*
X69900000Y70500000D03*
X84700000Y70500000D03*
X79200000Y70500000D03*
X73700000Y70500000D03*
X68200000Y70500000D03*
G04 #@! TD*
D15*
G04 #@! TO.N,/VDD_Logic*
G36*
X61802252Y76073266D02*
X61816402Y68979649D01*
X61719397Y69076654D01*
X61252619Y69270000D01*
X60747381Y69270000D01*
X60280603Y69076654D01*
X59923346Y68719397D01*
X59730000Y68252619D01*
X59730000Y67747381D01*
X59923346Y67280603D01*
X60280603Y66923346D01*
X60747381Y66730000D01*
X61252619Y66730000D01*
X61719397Y66923346D01*
X61820303Y67024252D01*
X61831219Y61551513D01*
X61419619Y61722004D01*
X60914381Y61722004D01*
X60447603Y61528658D01*
X60090346Y61171401D01*
X59897000Y60704623D01*
X59897000Y60199385D01*
X60090346Y59732607D01*
X60447603Y59375350D01*
X60914381Y59182004D01*
X61419619Y59182004D01*
X61835602Y59354310D01*
X61839746Y57277000D01*
X1768749Y57277000D01*
X1753905Y64768619D01*
X17771000Y64768619D01*
X17771000Y64263381D01*
X17964346Y63796603D01*
X18321603Y63439346D01*
X18788381Y63246000D01*
X19293619Y63246000D01*
X19336154Y63263619D01*
X34230000Y63263619D01*
X34230000Y62758381D01*
X34423346Y62291603D01*
X34676949Y62038000D01*
X34423346Y61784397D01*
X34230000Y61317619D01*
X34230000Y60812381D01*
X34423346Y60345603D01*
X34780603Y59988346D01*
X35247381Y59795000D01*
X35752619Y59795000D01*
X36219397Y59988346D01*
X36500000Y60268949D01*
X36780603Y59988346D01*
X37247381Y59795000D01*
X37752619Y59795000D01*
X38219397Y59988346D01*
X38557500Y60326449D01*
X38895603Y59988346D01*
X39362381Y59795000D01*
X39867619Y59795000D01*
X40334397Y59988346D01*
X40691654Y60345603D01*
X40885000Y60812381D01*
X40885000Y61317619D01*
X40691654Y61784397D01*
X40380551Y62095500D01*
X40576654Y62291603D01*
X40770000Y62758381D01*
X40770000Y63263619D01*
X40576654Y63730397D01*
X40219397Y64087654D01*
X39752619Y64281000D01*
X39247381Y64281000D01*
X38780603Y64087654D01*
X38500000Y63807051D01*
X38219397Y64087654D01*
X37752619Y64281000D01*
X37247381Y64281000D01*
X36780603Y64087654D01*
X36500000Y63807051D01*
X36219397Y64087654D01*
X35752619Y64281000D01*
X35247381Y64281000D01*
X34780603Y64087654D01*
X34423346Y63730397D01*
X34230000Y63263619D01*
X19336154Y63263619D01*
X19760397Y63439346D01*
X20117654Y63796603D01*
X20311000Y64263381D01*
X20311000Y64768619D01*
X20117654Y65235397D01*
X19760397Y65592654D01*
X19293619Y65786000D01*
X18788381Y65786000D01*
X18321603Y65592654D01*
X17964346Y65235397D01*
X17771000Y64768619D01*
X1753905Y64768619D01*
X1746590Y68460000D01*
X3485908Y68460000D01*
X3601161Y67880582D01*
X3929375Y67389375D01*
X4420582Y67061161D01*
X4853744Y66975000D01*
X5146256Y66975000D01*
X5579418Y67061161D01*
X6070625Y67389375D01*
X6313336Y67752619D01*
X13830000Y67752619D01*
X13830000Y67247381D01*
X14023346Y66780603D01*
X14380603Y66423346D01*
X14847381Y66230000D01*
X15352619Y66230000D01*
X15819397Y66423346D01*
X16176654Y66780603D01*
X16370000Y67247381D01*
X16370000Y67752619D01*
X16176654Y68219397D01*
X15819397Y68576654D01*
X15352619Y68770000D01*
X14847381Y68770000D01*
X14380603Y68576654D01*
X14023346Y68219397D01*
X13830000Y67752619D01*
X6313336Y67752619D01*
X6398839Y67880582D01*
X6514092Y68460000D01*
X6398839Y69039418D01*
X6070625Y69530625D01*
X5579418Y69858839D01*
X5146256Y69945000D01*
X4853744Y69945000D01*
X4420582Y69858839D01*
X3929375Y69530625D01*
X3601161Y69039418D01*
X3485908Y68460000D01*
X1746590Y68460000D01*
X1743587Y69975619D01*
X18660000Y69975619D01*
X18660000Y69470381D01*
X18853346Y69003603D01*
X19210603Y68646346D01*
X19677381Y68453000D01*
X20182619Y68453000D01*
X20649397Y68646346D01*
X21006654Y69003603D01*
X21200000Y69470381D01*
X21200000Y69975619D01*
X21006654Y70442397D01*
X20649397Y70799654D01*
X20182619Y70993000D01*
X19677381Y70993000D01*
X19210603Y70799654D01*
X18853346Y70442397D01*
X18660000Y69975619D01*
X1743587Y69975619D01*
X1739471Y72052619D01*
X13830000Y72052619D01*
X13830000Y71547381D01*
X14023346Y71080603D01*
X14380603Y70723346D01*
X14847381Y70530000D01*
X15352619Y70530000D01*
X15819397Y70723346D01*
X16176654Y71080603D01*
X16370000Y71547381D01*
X16370000Y72052619D01*
X16176654Y72519397D01*
X15819397Y72876654D01*
X15352619Y73070000D01*
X14847381Y73070000D01*
X14380603Y72876654D01*
X14023346Y72519397D01*
X13830000Y72052619D01*
X1739471Y72052619D01*
X1735562Y74025619D01*
X34230000Y74025619D01*
X34230000Y73520381D01*
X34423346Y73053603D01*
X34676949Y72800000D01*
X34423346Y72546397D01*
X34230000Y72079619D01*
X34230000Y71574381D01*
X34423346Y71107603D01*
X34780603Y70750346D01*
X35247381Y70557000D01*
X35752619Y70557000D01*
X36219397Y70750346D01*
X36500000Y71030949D01*
X36780603Y70750346D01*
X37247381Y70557000D01*
X37752619Y70557000D01*
X38219397Y70750346D01*
X38557500Y71088449D01*
X38895603Y70750346D01*
X39362381Y70557000D01*
X39867619Y70557000D01*
X40334397Y70750346D01*
X40691654Y71107603D01*
X40885000Y71574381D01*
X40885000Y72079619D01*
X40691654Y72546397D01*
X40380551Y72857500D01*
X40576654Y73053603D01*
X40770000Y73520381D01*
X40770000Y74025619D01*
X40576654Y74492397D01*
X40219397Y74849654D01*
X39752619Y75043000D01*
X39247381Y75043000D01*
X38780603Y74849654D01*
X38500000Y74569051D01*
X38219397Y74849654D01*
X37752619Y75043000D01*
X37247381Y75043000D01*
X36780603Y74849654D01*
X36500000Y74569051D01*
X36219397Y74849654D01*
X35752619Y75043000D01*
X35247381Y75043000D01*
X34780603Y74849654D01*
X34423346Y74492397D01*
X34230000Y74025619D01*
X1735562Y74025619D01*
X1731253Y76199732D01*
X61802252Y76073266D01*
X61802252Y76073266D01*
G37*
X61802252Y76073266D02*
X61816402Y68979649D01*
X61719397Y69076654D01*
X61252619Y69270000D01*
X60747381Y69270000D01*
X60280603Y69076654D01*
X59923346Y68719397D01*
X59730000Y68252619D01*
X59730000Y67747381D01*
X59923346Y67280603D01*
X60280603Y66923346D01*
X60747381Y66730000D01*
X61252619Y66730000D01*
X61719397Y66923346D01*
X61820303Y67024252D01*
X61831219Y61551513D01*
X61419619Y61722004D01*
X60914381Y61722004D01*
X60447603Y61528658D01*
X60090346Y61171401D01*
X59897000Y60704623D01*
X59897000Y60199385D01*
X60090346Y59732607D01*
X60447603Y59375350D01*
X60914381Y59182004D01*
X61419619Y59182004D01*
X61835602Y59354310D01*
X61839746Y57277000D01*
X1768749Y57277000D01*
X1753905Y64768619D01*
X17771000Y64768619D01*
X17771000Y64263381D01*
X17964346Y63796603D01*
X18321603Y63439346D01*
X18788381Y63246000D01*
X19293619Y63246000D01*
X19336154Y63263619D01*
X34230000Y63263619D01*
X34230000Y62758381D01*
X34423346Y62291603D01*
X34676949Y62038000D01*
X34423346Y61784397D01*
X34230000Y61317619D01*
X34230000Y60812381D01*
X34423346Y60345603D01*
X34780603Y59988346D01*
X35247381Y59795000D01*
X35752619Y59795000D01*
X36219397Y59988346D01*
X36500000Y60268949D01*
X36780603Y59988346D01*
X37247381Y59795000D01*
X37752619Y59795000D01*
X38219397Y59988346D01*
X38557500Y60326449D01*
X38895603Y59988346D01*
X39362381Y59795000D01*
X39867619Y59795000D01*
X40334397Y59988346D01*
X40691654Y60345603D01*
X40885000Y60812381D01*
X40885000Y61317619D01*
X40691654Y61784397D01*
X40380551Y62095500D01*
X40576654Y62291603D01*
X40770000Y62758381D01*
X40770000Y63263619D01*
X40576654Y63730397D01*
X40219397Y64087654D01*
X39752619Y64281000D01*
X39247381Y64281000D01*
X38780603Y64087654D01*
X38500000Y63807051D01*
X38219397Y64087654D01*
X37752619Y64281000D01*
X37247381Y64281000D01*
X36780603Y64087654D01*
X36500000Y63807051D01*
X36219397Y64087654D01*
X35752619Y64281000D01*
X35247381Y64281000D01*
X34780603Y64087654D01*
X34423346Y63730397D01*
X34230000Y63263619D01*
X19336154Y63263619D01*
X19760397Y63439346D01*
X20117654Y63796603D01*
X20311000Y64263381D01*
X20311000Y64768619D01*
X20117654Y65235397D01*
X19760397Y65592654D01*
X19293619Y65786000D01*
X18788381Y65786000D01*
X18321603Y65592654D01*
X17964346Y65235397D01*
X17771000Y64768619D01*
X1753905Y64768619D01*
X1746590Y68460000D01*
X3485908Y68460000D01*
X3601161Y67880582D01*
X3929375Y67389375D01*
X4420582Y67061161D01*
X4853744Y66975000D01*
X5146256Y66975000D01*
X5579418Y67061161D01*
X6070625Y67389375D01*
X6313336Y67752619D01*
X13830000Y67752619D01*
X13830000Y67247381D01*
X14023346Y66780603D01*
X14380603Y66423346D01*
X14847381Y66230000D01*
X15352619Y66230000D01*
X15819397Y66423346D01*
X16176654Y66780603D01*
X16370000Y67247381D01*
X16370000Y67752619D01*
X16176654Y68219397D01*
X15819397Y68576654D01*
X15352619Y68770000D01*
X14847381Y68770000D01*
X14380603Y68576654D01*
X14023346Y68219397D01*
X13830000Y67752619D01*
X6313336Y67752619D01*
X6398839Y67880582D01*
X6514092Y68460000D01*
X6398839Y69039418D01*
X6070625Y69530625D01*
X5579418Y69858839D01*
X5146256Y69945000D01*
X4853744Y69945000D01*
X4420582Y69858839D01*
X3929375Y69530625D01*
X3601161Y69039418D01*
X3485908Y68460000D01*
X1746590Y68460000D01*
X1743587Y69975619D01*
X18660000Y69975619D01*
X18660000Y69470381D01*
X18853346Y69003603D01*
X19210603Y68646346D01*
X19677381Y68453000D01*
X20182619Y68453000D01*
X20649397Y68646346D01*
X21006654Y69003603D01*
X21200000Y69470381D01*
X21200000Y69975619D01*
X21006654Y70442397D01*
X20649397Y70799654D01*
X20182619Y70993000D01*
X19677381Y70993000D01*
X19210603Y70799654D01*
X18853346Y70442397D01*
X18660000Y69975619D01*
X1743587Y69975619D01*
X1739471Y72052619D01*
X13830000Y72052619D01*
X13830000Y71547381D01*
X14023346Y71080603D01*
X14380603Y70723346D01*
X14847381Y70530000D01*
X15352619Y70530000D01*
X15819397Y70723346D01*
X16176654Y71080603D01*
X16370000Y71547381D01*
X16370000Y72052619D01*
X16176654Y72519397D01*
X15819397Y72876654D01*
X15352619Y73070000D01*
X14847381Y73070000D01*
X14380603Y72876654D01*
X14023346Y72519397D01*
X13830000Y72052619D01*
X1739471Y72052619D01*
X1735562Y74025619D01*
X34230000Y74025619D01*
X34230000Y73520381D01*
X34423346Y73053603D01*
X34676949Y72800000D01*
X34423346Y72546397D01*
X34230000Y72079619D01*
X34230000Y71574381D01*
X34423346Y71107603D01*
X34780603Y70750346D01*
X35247381Y70557000D01*
X35752619Y70557000D01*
X36219397Y70750346D01*
X36500000Y71030949D01*
X36780603Y70750346D01*
X37247381Y70557000D01*
X37752619Y70557000D01*
X38219397Y70750346D01*
X38557500Y71088449D01*
X38895603Y70750346D01*
X39362381Y70557000D01*
X39867619Y70557000D01*
X40334397Y70750346D01*
X40691654Y71107603D01*
X40885000Y71574381D01*
X40885000Y72079619D01*
X40691654Y72546397D01*
X40380551Y72857500D01*
X40576654Y73053603D01*
X40770000Y73520381D01*
X40770000Y74025619D01*
X40576654Y74492397D01*
X40219397Y74849654D01*
X39752619Y75043000D01*
X39247381Y75043000D01*
X38780603Y74849654D01*
X38500000Y74569051D01*
X38219397Y74849654D01*
X37752619Y75043000D01*
X37247381Y75043000D01*
X36780603Y74849654D01*
X36500000Y74569051D01*
X36219397Y74849654D01*
X35752619Y75043000D01*
X35247381Y75043000D01*
X34780603Y74849654D01*
X34423346Y74492397D01*
X34230000Y74025619D01*
X1735562Y74025619D01*
X1731253Y76199732D01*
X61802252Y76073266D01*
G04 #@! TD*
M02*
