G04 #@! TF.GenerationSoftware,KiCad,Pcbnew,(5.0.0)*
G04 #@! TF.CreationDate,2019-07-23T14:55:15-07:00*
G04 #@! TF.ProjectId,Test Project,546573742050726F6A6563742E6B6963,rev?*
G04 #@! TF.SameCoordinates,Original*
G04 #@! TF.FileFunction,Copper,L1,Top,Signal*
G04 #@! TF.FilePolarity,Positive*
%FSLAX46Y46*%
G04 Gerber Fmt 4.6, Leading zero omitted, Abs format (unit mm)*
G04 Created by KiCad (PCBNEW (5.0.0)) date 07/23/19 14:55:15*
%MOMM*%
%LPD*%
G01*
G04 APERTURE LIST*
G04 #@! TA.AperFunction,ComponentPad*
%ADD10O,1.700000X1.700000*%
G04 #@! TD*
G04 #@! TA.AperFunction,ComponentPad*
%ADD11R,1.700000X1.700000*%
G04 #@! TD*
G04 #@! TA.AperFunction,SMDPad,CuDef*
%ADD12R,5.000000X1.250000*%
G04 #@! TD*
G04 #@! TA.AperFunction,SMDPad,CuDef*
%ADD13R,1.250000X5.000000*%
G04 #@! TD*
G04 #@! TA.AperFunction,SMDPad,CuDef*
%ADD14R,5.511800X2.540000*%
G04 #@! TD*
G04 #@! TA.AperFunction,ComponentPad*
%ADD15C,2.540000*%
G04 #@! TD*
G04 #@! TA.AperFunction,SMDPad,CuDef*
%ADD16R,5.080000X2.540000*%
G04 #@! TD*
G04 #@! TA.AperFunction,BGAPad,CuDef*
%ADD17C,1.270000*%
G04 #@! TD*
G04 #@! TA.AperFunction,ViaPad*
%ADD18C,1.270000*%
G04 #@! TD*
G04 #@! TA.AperFunction,ViaPad*
%ADD19C,0.889000*%
G04 #@! TD*
G04 #@! TA.AperFunction,Conductor*
%ADD20C,1.270000*%
G04 #@! TD*
G04 #@! TA.AperFunction,Conductor*
%ADD21C,0.254000*%
G04 #@! TD*
G04 APERTURE END LIST*
D10*
G04 #@! TO.P,J5,2*
G04 #@! TO.N,/VDD_ISO*
X20460000Y82000000D03*
D11*
G04 #@! TO.P,J5,1*
G04 #@! TO.N,/GND_ISO*
X23000000Y82000000D03*
G04 #@! TD*
G04 #@! TO.P,J3,1*
G04 #@! TO.N,/VDD_Logic*
X5000000Y71000000D03*
D10*
G04 #@! TO.P,J3,2*
G04 #@! TO.N,/GND_Logic*
X5000000Y68460000D03*
G04 #@! TD*
D12*
G04 #@! TO.P,C5,2*
G04 #@! TO.N,/VC2_Neg*
X90195000Y70505000D03*
G04 #@! TO.P,C5,1*
G04 #@! TO.N,/VC2_Pos*
X90195000Y64805000D03*
G04 #@! TD*
G04 #@! TO.P,C1,1*
G04 #@! TO.N,/VC2_Pos*
X73695000Y64805000D03*
G04 #@! TO.P,C1,2*
G04 #@! TO.N,/VC2_Neg*
X73695000Y70505000D03*
G04 #@! TD*
G04 #@! TO.P,C3,2*
G04 #@! TO.N,/VC2_Neg*
X84695000Y70505000D03*
G04 #@! TO.P,C3,1*
G04 #@! TO.N,/VC2_Pos*
X84695000Y64805000D03*
G04 #@! TD*
G04 #@! TO.P,C4,1*
G04 #@! TO.N,/VC2_Pos*
X68195000Y64805000D03*
G04 #@! TO.P,C4,2*
G04 #@! TO.N,/VC2_Neg*
X68195000Y70505000D03*
G04 #@! TD*
D13*
G04 #@! TO.P,C6,2*
G04 #@! TO.N,/VAC_Neg*
X40705000Y39805000D03*
G04 #@! TO.P,C6,1*
G04 #@! TO.N,/VAC_Pos*
X35005000Y39805000D03*
G04 #@! TD*
G04 #@! TO.P,C7,1*
G04 #@! TO.N,/VAC_Pos*
X35005000Y28805000D03*
G04 #@! TO.P,C7,2*
G04 #@! TO.N,/VAC_Neg*
X40705000Y28805000D03*
G04 #@! TD*
G04 #@! TO.P,C9,2*
G04 #@! TO.N,/VAC_Neg*
X40705000Y23305000D03*
G04 #@! TO.P,C9,1*
G04 #@! TO.N,/VAC_Pos*
X35005000Y23305000D03*
G04 #@! TD*
G04 #@! TO.P,C10,1*
G04 #@! TO.N,/VAC_Pos*
X35005000Y34305000D03*
G04 #@! TO.P,C10,2*
G04 #@! TO.N,/VAC_Neg*
X40705000Y34305000D03*
G04 #@! TD*
D12*
G04 #@! TO.P,C2,2*
G04 #@! TO.N,/VC2_Neg*
X79195000Y70505000D03*
G04 #@! TO.P,C2,1*
G04 #@! TO.N,/VC2_Pos*
X79195000Y64805000D03*
G04 #@! TD*
D13*
G04 #@! TO.P,C8,1*
G04 #@! TO.N,/VAC_Pos*
X35005000Y45305000D03*
G04 #@! TO.P,C8,2*
G04 #@! TO.N,/VAC_Neg*
X40705000Y45305000D03*
G04 #@! TD*
D14*
G04 #@! TO.P,L1,1*
G04 #@! TO.N,/LC1_Pos*
X23500000Y53413000D03*
G04 #@! TO.P,L1,2*
G04 #@! TO.N,/VAC_Pos*
X23500000Y48587000D03*
G04 #@! TD*
G04 #@! TO.P,L2,2*
G04 #@! TO.N,/CF_Neg*
X52500000Y53413000D03*
G04 #@! TO.P,L2,1*
G04 #@! TO.N,/VAC_Neg*
X52500000Y48587000D03*
G04 #@! TD*
D11*
G04 #@! TO.P,J2,1*
G04 #@! TO.N,/~INB*
X41500000Y82000000D03*
D10*
G04 #@! TO.P,J2,2*
G04 #@! TO.N,/INB*
X38960000Y82000000D03*
G04 #@! TO.P,J2,3*
G04 #@! TO.N,/~INA*
X36420000Y82000000D03*
G04 #@! TO.P,J2,4*
G04 #@! TO.N,/INA*
X33880000Y82000000D03*
G04 #@! TD*
D15*
G04 #@! TO.P,J4,1*
G04 #@! TO.N,/VC2_Pos*
X117000000Y66018800D03*
G04 #@! TO.P,J4,2*
G04 #@! TO.N,/VC2_Neg*
X117000000Y69981200D03*
G04 #@! TD*
G04 #@! TO.P,J1,1*
G04 #@! TO.N,/VAC_Pos*
X35855800Y6985000D03*
G04 #@! TO.P,J1,2*
G04 #@! TO.N,/VAC_Neg*
X39818200Y6985000D03*
G04 #@! TD*
D16*
G04 #@! TO.P,U1,11*
G04 #@! TO.N,/VC2_Neg*
X37487300Y72849900D03*
G04 #@! TO.P,U1,9*
G04 #@! TO.N,/CF_Neg*
X52613000Y61912000D03*
G04 #@! TO.P,U1,10*
G04 #@! TO.N,/VC2_Pos*
X37487300Y61912000D03*
G04 #@! TO.P,U1,8*
G04 #@! TO.N,/LC1_Pos*
X23403000Y61912000D03*
D17*
G04 #@! TO.P,U1,1*
G04 #@! TO.N,/VDD_Logic*
X57947000Y60896000D03*
G04 #@! TO.P,U1,7*
G04 #@! TO.N,/GND_Logic*
X57947000Y62928000D03*
G04 #@! TO.P,U1,6*
X57947000Y64960000D03*
G04 #@! TO.P,U1,5*
G04 #@! TO.N,/INB*
X57947000Y66992000D03*
G04 #@! TO.P,U1,4*
G04 #@! TO.N,/~INB*
X57947000Y71818000D03*
G04 #@! TO.P,U1,13*
G04 #@! TO.N,/GND_ISO*
X26959000Y75247000D03*
G04 #@! TO.P,U1,12*
G04 #@! TO.N,/VDD_ISO*
X23403000Y75247000D03*
G04 #@! TO.P,U1,3*
G04 #@! TO.N,/~INA*
X17053000Y62674000D03*
G04 #@! TO.P,U1,6*
G04 #@! TO.N,/GND_Logic*
X17053000Y67484000D03*
G04 #@! TO.P,U1,2*
G04 #@! TO.N,/INA*
X17053000Y69786000D03*
G04 #@! TO.P,U1,7*
G04 #@! TO.N,/GND_Logic*
X17053000Y71818000D03*
G04 #@! TO.P,U1,1*
G04 #@! TO.N,/VDD_Logic*
X17053000Y73850000D03*
G04 #@! TD*
D18*
G04 #@! TO.N,/GND_Logic*
X15100000Y67500000D03*
X15100000Y71800000D03*
G04 #@! TO.N,/VDD_Logic*
X15100000Y73800000D03*
X59262000Y57912000D03*
G04 #@! TO.N,/GND_Logic*
X61167000Y60452004D03*
X61000000Y68000000D03*
G04 #@! TO.N,/INA*
X19930000Y69723000D03*
G04 #@! TO.N,/~INA*
X19041000Y64516000D03*
G04 #@! TO.N,/VC2_Pos*
X68200000Y64800000D03*
X69900000Y64800000D03*
X66500000Y64800000D03*
D19*
G04 #@! TO.N,/VC2_Neg*
X38600000Y72800000D03*
X36500000Y72800000D03*
D18*
X35500000Y73773000D03*
X39500000Y73773000D03*
X39615000Y71827000D03*
X35500000Y71827000D03*
X37500000Y73773000D03*
X37500000Y71827000D03*
G04 #@! TO.N,/VC2_Pos*
X35500000Y63011000D03*
X39500000Y63011000D03*
X37500000Y63011000D03*
X37500000Y61065000D03*
D19*
X38600000Y62038000D03*
D18*
X35500000Y61065000D03*
D19*
X36500000Y62038000D03*
D18*
X39615000Y61065000D03*
X75400000Y64800000D03*
X72000000Y64800000D03*
X73700000Y64800000D03*
X80900000Y64800000D03*
X77500000Y64800000D03*
X79200000Y64800000D03*
X84700000Y64800000D03*
X86400000Y64800000D03*
X83000000Y64800000D03*
X91900000Y64800000D03*
X90200000Y64800000D03*
X88500000Y64800000D03*
G04 #@! TO.N,/VC2_Neg*
X88500000Y70500000D03*
X91900000Y70500000D03*
X90200000Y70500000D03*
X83000000Y70500000D03*
X77500000Y70500000D03*
X72000000Y70500000D03*
X66500000Y70500000D03*
X86400000Y70500000D03*
X80900000Y70500000D03*
X75400000Y70500000D03*
X69900000Y70500000D03*
X84700000Y70500000D03*
X79200000Y70500000D03*
X73700000Y70500000D03*
X68200000Y70500000D03*
G04 #@! TD*
D20*
G04 #@! TO.N,/VDD_Logic*
X17003000Y73800000D02*
X17053000Y73850000D01*
X15100000Y73800000D02*
X17003000Y73800000D01*
X57947000Y59227000D02*
X59262000Y57912000D01*
X57947000Y60896000D02*
X57947000Y59227000D01*
G04 #@! TO.N,/GND_Logic*
X17037000Y67500000D02*
X17053000Y67484000D01*
X15100000Y67500000D02*
X17037000Y67500000D01*
X17035000Y71800000D02*
X17053000Y71818000D01*
X15100000Y71800000D02*
X17035000Y71800000D01*
X58845025Y62928000D02*
X57947000Y62928000D01*
X59834000Y62928000D02*
X58845025Y62928000D01*
X61167000Y60452004D02*
X61167000Y61595000D01*
X61167000Y61595000D02*
X59834000Y62928000D01*
X61000000Y65962000D02*
X61000000Y68000000D01*
X57947000Y64960000D02*
X59998000Y64960000D01*
X59998000Y64960000D02*
X61000000Y65962000D01*
G04 #@! TO.N,/INA*
X17116000Y69723000D02*
X17053000Y69786000D01*
X19930000Y69723000D02*
X17116000Y69723000D01*
G04 #@! TO.N,/~INA*
X18895000Y64516000D02*
X17053000Y62674000D01*
X19041000Y64516000D02*
X18895000Y64516000D01*
G04 #@! TO.N,/INB*
X57312001Y67626999D02*
X57312001Y67655999D01*
X57947000Y66992000D02*
X57312001Y67626999D01*
X57312001Y67655999D02*
X46990000Y77978000D01*
X38960000Y80797919D02*
X38960000Y82000000D01*
X41779919Y77978000D02*
X38960000Y80797919D01*
X46990000Y77978000D02*
X41779919Y77978000D01*
G04 #@! TO.N,/~INB*
X47765000Y82000000D02*
X57947000Y71818000D01*
X41500000Y82000000D02*
X47765000Y82000000D01*
G04 #@! TO.N,/VDD_ISO*
X20460000Y78190000D02*
X23403000Y75247000D01*
X20460000Y82000000D02*
X20460000Y78190000D01*
G04 #@! TO.N,/GND_ISO*
X23000000Y82000000D02*
X23109000Y82000000D01*
X26959000Y78150000D02*
X26959000Y75247000D01*
X23109000Y82000000D02*
X26959000Y78150000D01*
G04 #@! TD*
D21*
G04 #@! TO.N,/VC2_Neg*
G36*
X40377000Y71021000D02*
X34662000Y71021000D01*
X34662000Y74577000D01*
X40377000Y74577000D01*
X40377000Y71021000D01*
X40377000Y71021000D01*
G37*
X40377000Y71021000D02*
X34662000Y71021000D01*
X34662000Y74577000D01*
X40377000Y74577000D01*
X40377000Y71021000D01*
G04 #@! TO.N,/VC2_Pos*
G36*
X40504000Y60353000D02*
X34662000Y60353000D01*
X34662000Y63909000D01*
X40504000Y63909000D01*
X40504000Y60353000D01*
X40504000Y60353000D01*
G37*
X40504000Y60353000D02*
X34662000Y60353000D01*
X34662000Y63909000D01*
X40504000Y63909000D01*
X40504000Y60353000D01*
G04 #@! TO.N,/LC1_Pos*
G36*
X26416000Y52070000D02*
X20574000Y52070000D01*
X20574000Y63246000D01*
X26416000Y63246000D01*
X26416000Y52070000D01*
X26416000Y52070000D01*
G37*
X26416000Y52070000D02*
X20574000Y52070000D01*
X20574000Y63246000D01*
X26416000Y63246000D01*
X26416000Y52070000D01*
G04 #@! TO.N,/CF_Neg*
G36*
X55372000Y51943000D02*
X49657000Y51943000D01*
X49657000Y63246000D01*
X55372000Y63246000D01*
X55372000Y51943000D01*
X55372000Y51943000D01*
G37*
X55372000Y51943000D02*
X49657000Y51943000D01*
X49657000Y63246000D01*
X55372000Y63246000D01*
X55372000Y51943000D01*
G04 #@! TO.N,/VAC_Pos*
G36*
X33317065Y49833797D02*
X33961128Y49608430D01*
X34538893Y49245396D01*
X35021396Y48762893D01*
X35384430Y48185128D01*
X35609797Y47541065D01*
X35687000Y46855871D01*
X35687000Y9022251D01*
X35691392Y8989142D01*
X35777410Y8670605D01*
X35810742Y8613388D01*
X36045410Y8381448D01*
X36103013Y8348787D01*
X36422485Y8266513D01*
X36708417Y8192753D01*
X36893790Y8009095D01*
X36965835Y7740160D01*
X36962228Y6239103D01*
X36890423Y5702827D01*
X36685689Y5211064D01*
X36360823Y4788918D01*
X35937896Y4465067D01*
X35445644Y4261515D01*
X34909194Y4191000D01*
X23629129Y4191000D01*
X22943935Y4268203D01*
X22299872Y4493570D01*
X21722107Y4856604D01*
X21239604Y5339107D01*
X20876570Y5916872D01*
X20651203Y6560935D01*
X20574000Y7246129D01*
X20574000Y46855871D01*
X20651203Y47541065D01*
X20876570Y48185128D01*
X21239604Y48762893D01*
X21722107Y49245396D01*
X22299872Y49608430D01*
X22943935Y49833797D01*
X23629129Y49911000D01*
X32631871Y49911000D01*
X33317065Y49833797D01*
X33317065Y49833797D01*
G37*
X33317065Y49833797D02*
X33961128Y49608430D01*
X34538893Y49245396D01*
X35021396Y48762893D01*
X35384430Y48185128D01*
X35609797Y47541065D01*
X35687000Y46855871D01*
X35687000Y9022251D01*
X35691392Y8989142D01*
X35777410Y8670605D01*
X35810742Y8613388D01*
X36045410Y8381448D01*
X36103013Y8348787D01*
X36422485Y8266513D01*
X36708417Y8192753D01*
X36893790Y8009095D01*
X36965835Y7740160D01*
X36962228Y6239103D01*
X36890423Y5702827D01*
X36685689Y5211064D01*
X36360823Y4788918D01*
X35937896Y4465067D01*
X35445644Y4261515D01*
X34909194Y4191000D01*
X23629129Y4191000D01*
X22943935Y4268203D01*
X22299872Y4493570D01*
X21722107Y4856604D01*
X21239604Y5339107D01*
X20876570Y5916872D01*
X20651203Y6560935D01*
X20574000Y7246129D01*
X20574000Y46855871D01*
X20651203Y47541065D01*
X20876570Y48185128D01*
X21239604Y48762893D01*
X21722107Y49245396D01*
X22299872Y49608430D01*
X22943935Y49833797D01*
X23629129Y49911000D01*
X32631871Y49911000D01*
X33317065Y49833797D01*
G04 #@! TO.N,/VAC_Neg*
G36*
X53009652Y49834067D02*
X53652719Y49609476D01*
X54229839Y49247641D01*
X54712151Y48766659D01*
X55075576Y48190544D01*
X55301943Y47548100D01*
X55380766Y46864301D01*
X55490185Y7254565D01*
X55414607Y6567969D01*
X55190247Y5922293D01*
X54827605Y5342869D01*
X54344930Y4858858D01*
X53766511Y4494617D01*
X53121458Y4268475D01*
X52435069Y4191000D01*
X40711820Y4191000D01*
X40161432Y4263460D01*
X39656298Y4472694D01*
X39222533Y4805533D01*
X38889694Y5239298D01*
X38680460Y5744432D01*
X38608000Y6294820D01*
X38608000Y7793779D01*
X38688446Y8094009D01*
X38895991Y8301554D01*
X39561620Y8479908D01*
X39618553Y8512778D01*
X39874222Y8768447D01*
X39907092Y8825380D01*
X40000673Y9174630D01*
X40005000Y9207500D01*
X40005000Y46855871D01*
X40082203Y47541065D01*
X40307570Y48185128D01*
X40670604Y48762893D01*
X41153107Y49245396D01*
X41730872Y49608430D01*
X42374935Y49833797D01*
X43060129Y49911000D01*
X52325641Y49911000D01*
X53009652Y49834067D01*
X53009652Y49834067D01*
G37*
X53009652Y49834067D02*
X53652719Y49609476D01*
X54229839Y49247641D01*
X54712151Y48766659D01*
X55075576Y48190544D01*
X55301943Y47548100D01*
X55380766Y46864301D01*
X55490185Y7254565D01*
X55414607Y6567969D01*
X55190247Y5922293D01*
X54827605Y5342869D01*
X54344930Y4858858D01*
X53766511Y4494617D01*
X53121458Y4268475D01*
X52435069Y4191000D01*
X40711820Y4191000D01*
X40161432Y4263460D01*
X39656298Y4472694D01*
X39222533Y4805533D01*
X38889694Y5239298D01*
X38680460Y5744432D01*
X38608000Y6294820D01*
X38608000Y7793779D01*
X38688446Y8094009D01*
X38895991Y8301554D01*
X39561620Y8479908D01*
X39618553Y8512778D01*
X39874222Y8768447D01*
X39907092Y8825380D01*
X40000673Y9174630D01*
X40005000Y9207500D01*
X40005000Y46855871D01*
X40082203Y47541065D01*
X40307570Y48185128D01*
X40670604Y48762893D01*
X41153107Y49245396D01*
X41730872Y49608430D01*
X42374935Y49833797D01*
X43060129Y49911000D01*
X52325641Y49911000D01*
X53009652Y49834067D01*
G04 #@! TD*
M02*
