G04 #@! TF.GenerationSoftware,KiCad,Pcbnew,(5.0.0)*
G04 #@! TF.CreationDate,2019-07-23T14:55:15-07:00*
G04 #@! TF.ProjectId,Test Project,546573742050726F6A6563742E6B6963,rev?*
G04 #@! TF.SameCoordinates,Original*
G04 #@! TF.FileFunction,Copper,L4,Bot,Signal*
G04 #@! TF.FilePolarity,Positive*
%FSLAX46Y46*%
G04 Gerber Fmt 4.6, Leading zero omitted, Abs format (unit mm)*
G04 Created by KiCad (PCBNEW (5.0.0)) date 07/23/19 14:55:15*
%MOMM*%
%LPD*%
G01*
G04 APERTURE LIST*
G04 #@! TA.AperFunction,ComponentPad*
%ADD10O,1.700000X1.700000*%
G04 #@! TD*
G04 #@! TA.AperFunction,ComponentPad*
%ADD11R,1.700000X1.700000*%
G04 #@! TD*
G04 #@! TA.AperFunction,ComponentPad*
%ADD12C,2.540000*%
G04 #@! TD*
G04 #@! TA.AperFunction,ViaPad*
%ADD13C,1.270000*%
G04 #@! TD*
G04 #@! TA.AperFunction,ViaPad*
%ADD14C,0.889000*%
G04 #@! TD*
G04 #@! TA.AperFunction,Conductor*
%ADD15C,1.270000*%
G04 #@! TD*
G04 #@! TA.AperFunction,Conductor*
%ADD16C,0.254000*%
G04 #@! TD*
G04 APERTURE END LIST*
D10*
G04 #@! TO.P,J5,2*
G04 #@! TO.N,/VDD_ISO*
X20460000Y82000000D03*
D11*
G04 #@! TO.P,J5,1*
G04 #@! TO.N,/GND_ISO*
X23000000Y82000000D03*
G04 #@! TD*
G04 #@! TO.P,J3,1*
G04 #@! TO.N,/VDD_Logic*
X5000000Y71000000D03*
D10*
G04 #@! TO.P,J3,2*
G04 #@! TO.N,/GND_Logic*
X5000000Y68460000D03*
G04 #@! TD*
D11*
G04 #@! TO.P,J2,1*
G04 #@! TO.N,/~INB*
X41500000Y82000000D03*
D10*
G04 #@! TO.P,J2,2*
G04 #@! TO.N,/INB*
X38960000Y82000000D03*
G04 #@! TO.P,J2,3*
G04 #@! TO.N,/~INA*
X36420000Y82000000D03*
G04 #@! TO.P,J2,4*
G04 #@! TO.N,/INA*
X33880000Y82000000D03*
G04 #@! TD*
D12*
G04 #@! TO.P,J4,1*
G04 #@! TO.N,/VC2_Pos*
X117000000Y66018800D03*
G04 #@! TO.P,J4,2*
G04 #@! TO.N,/VC2_Neg*
X117000000Y69981200D03*
G04 #@! TD*
G04 #@! TO.P,J1,1*
G04 #@! TO.N,/VAC_Pos*
X35855800Y6985000D03*
G04 #@! TO.P,J1,2*
G04 #@! TO.N,/VAC_Neg*
X39818200Y6985000D03*
G04 #@! TD*
D13*
G04 #@! TO.N,/GND_Logic*
X15100000Y67500000D03*
X15100000Y71800000D03*
G04 #@! TO.N,/VDD_Logic*
X15100000Y73800000D03*
X59262000Y57912000D03*
G04 #@! TO.N,/GND_Logic*
X61167000Y60452004D03*
X61000000Y68000000D03*
G04 #@! TO.N,/INA*
X19930000Y69723000D03*
G04 #@! TO.N,/~INA*
X19041000Y64516000D03*
G04 #@! TO.N,/VC2_Pos*
X68200000Y64800000D03*
X69900000Y64800000D03*
X66500000Y64800000D03*
D14*
G04 #@! TO.N,/VC2_Neg*
X38600000Y72800000D03*
X36500000Y72800000D03*
D13*
X35500000Y73773000D03*
X39500000Y73773000D03*
X39615000Y71827000D03*
X35500000Y71827000D03*
X37500000Y73773000D03*
X37500000Y71827000D03*
G04 #@! TO.N,/VC2_Pos*
X35500000Y63011000D03*
X39500000Y63011000D03*
X37500000Y63011000D03*
X37500000Y61065000D03*
D14*
X38600000Y62038000D03*
D13*
X35500000Y61065000D03*
D14*
X36500000Y62038000D03*
D13*
X39615000Y61065000D03*
X75400000Y64800000D03*
X72000000Y64800000D03*
X73700000Y64800000D03*
X80900000Y64800000D03*
X77500000Y64800000D03*
X79200000Y64800000D03*
X84700000Y64800000D03*
X86400000Y64800000D03*
X83000000Y64800000D03*
X91900000Y64800000D03*
X90200000Y64800000D03*
X88500000Y64800000D03*
G04 #@! TO.N,/VC2_Neg*
X88500000Y70500000D03*
X91900000Y70500000D03*
X90200000Y70500000D03*
X83000000Y70500000D03*
X77500000Y70500000D03*
X72000000Y70500000D03*
X66500000Y70500000D03*
X86400000Y70500000D03*
X80900000Y70500000D03*
X75400000Y70500000D03*
X69900000Y70500000D03*
X84700000Y70500000D03*
X79200000Y70500000D03*
X73700000Y70500000D03*
X68200000Y70500000D03*
G04 #@! TD*
D15*
G04 #@! TO.N,/INA*
X32677919Y82000000D02*
X33880000Y82000000D01*
X31308975Y82000000D02*
X32677919Y82000000D01*
X19930000Y70621025D02*
X31308975Y82000000D01*
X19930000Y69723000D02*
X19930000Y70621025D01*
G04 #@! TO.N,/~INA*
X19041000Y64516000D02*
X19041000Y64516000D01*
X36420000Y81895000D02*
X36420000Y82000000D01*
X19041000Y64516000D02*
X36420000Y81895000D01*
G04 #@! TD*
D16*
G04 #@! TO.N,/VC2_Pos*
G36*
X118657370Y66975025D02*
X119302282Y66750186D01*
X119880919Y66387356D01*
X120364210Y65904766D01*
X120727880Y65326655D01*
X120953655Y64682070D01*
X121031000Y63996251D01*
X121031000Y63248517D01*
X120953939Y62563940D01*
X120728980Y61920402D01*
X120366578Y61342978D01*
X119884874Y60860573D01*
X119307977Y60497334D01*
X118664765Y60271439D01*
X117980304Y60193384D01*
X62401071Y60112644D01*
X62437000Y60199385D01*
X62437000Y60704623D01*
X62243654Y61171401D01*
X61886397Y61528658D01*
X61419619Y61722004D01*
X60914381Y61722004D01*
X60447603Y61528658D01*
X60090346Y61171401D01*
X59897000Y60704623D01*
X59897000Y60199385D01*
X59934414Y60109060D01*
X36881968Y60075572D01*
X36201406Y60150708D01*
X35561005Y60372050D01*
X34985344Y60729437D01*
X34502896Y61205194D01*
X34137508Y61775800D01*
X33907243Y62413053D01*
X33822609Y63092499D01*
X33813251Y63840344D01*
X33882901Y64531205D01*
X34103256Y65182048D01*
X34463845Y65766980D01*
X34946317Y66256237D01*
X35526150Y66624954D01*
X36173858Y66854379D01*
X36863678Y66933669D01*
X60236361Y66967588D01*
X60280603Y66923346D01*
X60747381Y66730000D01*
X61252619Y66730000D01*
X61719397Y66923346D01*
X61765859Y66969808D01*
X117971435Y67051376D01*
X118657370Y66975025D01*
X118657370Y66975025D01*
G37*
X118657370Y66975025D02*
X119302282Y66750186D01*
X119880919Y66387356D01*
X120364210Y65904766D01*
X120727880Y65326655D01*
X120953655Y64682070D01*
X121031000Y63996251D01*
X121031000Y63248517D01*
X120953939Y62563940D01*
X120728980Y61920402D01*
X120366578Y61342978D01*
X119884874Y60860573D01*
X119307977Y60497334D01*
X118664765Y60271439D01*
X117980304Y60193384D01*
X62401071Y60112644D01*
X62437000Y60199385D01*
X62437000Y60704623D01*
X62243654Y61171401D01*
X61886397Y61528658D01*
X61419619Y61722004D01*
X60914381Y61722004D01*
X60447603Y61528658D01*
X60090346Y61171401D01*
X59897000Y60704623D01*
X59897000Y60199385D01*
X59934414Y60109060D01*
X36881968Y60075572D01*
X36201406Y60150708D01*
X35561005Y60372050D01*
X34985344Y60729437D01*
X34502896Y61205194D01*
X34137508Y61775800D01*
X33907243Y62413053D01*
X33822609Y63092499D01*
X33813251Y63840344D01*
X33882901Y64531205D01*
X34103256Y65182048D01*
X34463845Y65766980D01*
X34946317Y66256237D01*
X35526150Y66624954D01*
X36173858Y66854379D01*
X36863678Y66933669D01*
X60236361Y66967588D01*
X60280603Y66923346D01*
X60747381Y66730000D01*
X61252619Y66730000D01*
X61719397Y66923346D01*
X61765859Y66969808D01*
X117971435Y67051376D01*
X118657370Y66975025D01*
G04 #@! TO.N,/VC2_Neg*
G36*
X118657370Y74976025D02*
X119302282Y74751186D01*
X119880919Y74388356D01*
X120364210Y73905766D01*
X120727880Y73327655D01*
X120953655Y72683070D01*
X121031000Y71997251D01*
X121031000Y71889129D01*
X120953797Y71203935D01*
X120728430Y70559872D01*
X120365396Y69982107D01*
X119882893Y69499604D01*
X119305128Y69136570D01*
X118661065Y68911203D01*
X117975871Y68834000D01*
X61962051Y68834000D01*
X61719397Y69076654D01*
X61252619Y69270000D01*
X60747381Y69270000D01*
X60280603Y69076654D01*
X60037949Y68834000D01*
X36828129Y68834000D01*
X36142935Y68911203D01*
X35498872Y69136570D01*
X34921107Y69499604D01*
X34438604Y69982107D01*
X34075570Y70559872D01*
X33850203Y71203935D01*
X33773543Y71884306D01*
X33850061Y72564055D01*
X34075021Y73207595D01*
X34437423Y73785019D01*
X34919128Y74267424D01*
X35496026Y74630663D01*
X36139239Y74856557D01*
X36823700Y74934611D01*
X117971435Y75052376D01*
X118657370Y74976025D01*
X118657370Y74976025D01*
G37*
X118657370Y74976025D02*
X119302282Y74751186D01*
X119880919Y74388356D01*
X120364210Y73905766D01*
X120727880Y73327655D01*
X120953655Y72683070D01*
X121031000Y71997251D01*
X121031000Y71889129D01*
X120953797Y71203935D01*
X120728430Y70559872D01*
X120365396Y69982107D01*
X119882893Y69499604D01*
X119305128Y69136570D01*
X118661065Y68911203D01*
X117975871Y68834000D01*
X61962051Y68834000D01*
X61719397Y69076654D01*
X61252619Y69270000D01*
X60747381Y69270000D01*
X60280603Y69076654D01*
X60037949Y68834000D01*
X36828129Y68834000D01*
X36142935Y68911203D01*
X35498872Y69136570D01*
X34921107Y69499604D01*
X34438604Y69982107D01*
X34075570Y70559872D01*
X33850203Y71203935D01*
X33773543Y71884306D01*
X33850061Y72564055D01*
X34075021Y73207595D01*
X34437423Y73785019D01*
X34919128Y74267424D01*
X35496026Y74630663D01*
X36139239Y74856557D01*
X36823700Y74934611D01*
X117971435Y75052376D01*
X118657370Y74976025D01*
G04 #@! TD*
M02*
