G04 #@! TF.GenerationSoftware,KiCad,Pcbnew,(5.0.0)*
G04 #@! TF.CreationDate,2019-07-23T14:55:15-07:00*
G04 #@! TF.ProjectId,Test Project,546573742050726F6A6563742E6B6963,rev?*
G04 #@! TF.SameCoordinates,Original*
G04 #@! TF.FileFunction,Legend,Top*
G04 #@! TF.FilePolarity,Positive*
%FSLAX46Y46*%
G04 Gerber Fmt 4.6, Leading zero omitted, Abs format (unit mm)*
G04 Created by KiCad (PCBNEW (5.0.0)) date 07/23/19 14:55:15*
%MOMM*%
%LPD*%
G01*
G04 APERTURE LIST*
%ADD10C,0.300000*%
%ADD11C,0.125000*%
%ADD12C,0.250000*%
%ADD13C,0.120000*%
%ADD14C,0.150000*%
%ADD15C,0.635000*%
%ADD16C,0.200000*%
%ADD17C,0.111125*%
G04 APERTURE END LIST*
D10*
X71821428Y9942857D02*
X72035714Y9871428D01*
X72392857Y9871428D01*
X72535714Y9942857D01*
X72607142Y10014285D01*
X72678571Y10157142D01*
X72678571Y10300000D01*
X72607142Y10442857D01*
X72535714Y10514285D01*
X72392857Y10585714D01*
X72107142Y10657142D01*
X71964285Y10728571D01*
X71892857Y10800000D01*
X71821428Y10942857D01*
X71821428Y11085714D01*
X71892857Y11228571D01*
X71964285Y11300000D01*
X72107142Y11371428D01*
X72464285Y11371428D01*
X72678571Y11300000D01*
X73250000Y9942857D02*
X73464285Y9871428D01*
X73821428Y9871428D01*
X73964285Y9942857D01*
X74035714Y10014285D01*
X74107142Y10157142D01*
X74107142Y10300000D01*
X74035714Y10442857D01*
X73964285Y10514285D01*
X73821428Y10585714D01*
X73535714Y10657142D01*
X73392857Y10728571D01*
X73321428Y10800000D01*
X73250000Y10942857D01*
X73250000Y11085714D01*
X73321428Y11228571D01*
X73392857Y11300000D01*
X73535714Y11371428D01*
X73892857Y11371428D01*
X74107142Y11300000D01*
X75250000Y10657142D02*
X75464285Y10585714D01*
X75535714Y10514285D01*
X75607142Y10371428D01*
X75607142Y10157142D01*
X75535714Y10014285D01*
X75464285Y9942857D01*
X75321428Y9871428D01*
X74750000Y9871428D01*
X74750000Y11371428D01*
X75250000Y11371428D01*
X75392857Y11300000D01*
X75464285Y11228571D01*
X75535714Y11085714D01*
X75535714Y10942857D01*
X75464285Y10800000D01*
X75392857Y10728571D01*
X75250000Y10657142D01*
X74750000Y10657142D01*
X77321428Y9942857D02*
X77535714Y9871428D01*
X77892857Y9871428D01*
X78035714Y9942857D01*
X78107142Y10014285D01*
X78178571Y10157142D01*
X78178571Y10300000D01*
X78107142Y10442857D01*
X78035714Y10514285D01*
X77892857Y10585714D01*
X77607142Y10657142D01*
X77464285Y10728571D01*
X77392857Y10800000D01*
X77321428Y10942857D01*
X77321428Y11085714D01*
X77392857Y11228571D01*
X77464285Y11300000D01*
X77607142Y11371428D01*
X77964285Y11371428D01*
X78178571Y11300000D01*
X78678571Y10871428D02*
X78964285Y9871428D01*
X79250000Y10585714D01*
X79535714Y9871428D01*
X79821428Y10871428D01*
X80392857Y9871428D02*
X80392857Y10871428D01*
X80392857Y11371428D02*
X80321428Y11300000D01*
X80392857Y11228571D01*
X80464285Y11300000D01*
X80392857Y11371428D01*
X80392857Y11228571D01*
X80892857Y10871428D02*
X81464285Y10871428D01*
X81107142Y11371428D02*
X81107142Y10085714D01*
X81178571Y9942857D01*
X81321428Y9871428D01*
X81464285Y9871428D01*
X82607142Y9942857D02*
X82464285Y9871428D01*
X82178571Y9871428D01*
X82035714Y9942857D01*
X81964285Y10014285D01*
X81892857Y10157142D01*
X81892857Y10585714D01*
X81964285Y10728571D01*
X82035714Y10800000D01*
X82178571Y10871428D01*
X82464285Y10871428D01*
X82607142Y10800000D01*
X83250000Y9871428D02*
X83250000Y11371428D01*
X83892857Y9871428D02*
X83892857Y10657142D01*
X83821428Y10800000D01*
X83678571Y10871428D01*
X83464285Y10871428D01*
X83321428Y10800000D01*
X83250000Y10728571D01*
X84607142Y9871428D02*
X84607142Y10871428D01*
X84607142Y11371428D02*
X84535714Y11300000D01*
X84607142Y11228571D01*
X84678571Y11300000D01*
X84607142Y11371428D01*
X84607142Y11228571D01*
X85321428Y10871428D02*
X85321428Y9871428D01*
X85321428Y10728571D02*
X85392857Y10800000D01*
X85535714Y10871428D01*
X85750000Y10871428D01*
X85892857Y10800000D01*
X85964285Y10657142D01*
X85964285Y9871428D01*
X87321428Y10871428D02*
X87321428Y9657142D01*
X87250000Y9514285D01*
X87178571Y9442857D01*
X87035714Y9371428D01*
X86821428Y9371428D01*
X86678571Y9442857D01*
X87321428Y9942857D02*
X87178571Y9871428D01*
X86892857Y9871428D01*
X86750000Y9942857D01*
X86678571Y10014285D01*
X86607142Y10157142D01*
X86607142Y10585714D01*
X86678571Y10728571D01*
X86750000Y10800000D01*
X86892857Y10871428D01*
X87178571Y10871428D01*
X87321428Y10800000D01*
X90035714Y10014285D02*
X89964285Y9942857D01*
X89750000Y9871428D01*
X89607142Y9871428D01*
X89392857Y9942857D01*
X89250000Y10085714D01*
X89178571Y10228571D01*
X89107142Y10514285D01*
X89107142Y10728571D01*
X89178571Y11014285D01*
X89250000Y11157142D01*
X89392857Y11300000D01*
X89607142Y11371428D01*
X89750000Y11371428D01*
X89964285Y11300000D01*
X90035714Y11228571D01*
X91250000Y9942857D02*
X91107142Y9871428D01*
X90821428Y9871428D01*
X90678571Y9942857D01*
X90607142Y10085714D01*
X90607142Y10657142D01*
X90678571Y10800000D01*
X90821428Y10871428D01*
X91107142Y10871428D01*
X91250000Y10800000D01*
X91321428Y10657142D01*
X91321428Y10514285D01*
X90607142Y10371428D01*
X92178571Y9871428D02*
X92035714Y9942857D01*
X91964285Y10085714D01*
X91964285Y11371428D01*
X92964285Y9871428D02*
X92821428Y9942857D01*
X92750000Y10085714D01*
X92750000Y11371428D01*
X94464285Y11371428D02*
X95321428Y11371428D01*
X94892857Y9871428D02*
X94892857Y11371428D01*
X96392857Y9942857D02*
X96250000Y9871428D01*
X95964285Y9871428D01*
X95821428Y9942857D01*
X95750000Y10085714D01*
X95750000Y10657142D01*
X95821428Y10800000D01*
X95964285Y10871428D01*
X96250000Y10871428D01*
X96392857Y10800000D01*
X96464285Y10657142D01*
X96464285Y10514285D01*
X95750000Y10371428D01*
X97035714Y9942857D02*
X97178571Y9871428D01*
X97464285Y9871428D01*
X97607142Y9942857D01*
X97678571Y10085714D01*
X97678571Y10157142D01*
X97607142Y10300000D01*
X97464285Y10371428D01*
X97250000Y10371428D01*
X97107142Y10442857D01*
X97035714Y10585714D01*
X97035714Y10657142D01*
X97107142Y10800000D01*
X97250000Y10871428D01*
X97464285Y10871428D01*
X97607142Y10800000D01*
X98107142Y10871428D02*
X98678571Y10871428D01*
X98321428Y11371428D02*
X98321428Y10085714D01*
X98392857Y9942857D01*
X98535714Y9871428D01*
X98678571Y9871428D01*
X100821428Y10657142D02*
X101035714Y10585714D01*
X101107142Y10514285D01*
X101178571Y10371428D01*
X101178571Y10157142D01*
X101107142Y10014285D01*
X101035714Y9942857D01*
X100892857Y9871428D01*
X100321428Y9871428D01*
X100321428Y11371428D01*
X100821428Y11371428D01*
X100964285Y11300000D01*
X101035714Y11228571D01*
X101107142Y11085714D01*
X101107142Y10942857D01*
X101035714Y10800000D01*
X100964285Y10728571D01*
X100821428Y10657142D01*
X100321428Y10657142D01*
X102035714Y9871428D02*
X101892857Y9942857D01*
X101821428Y10014285D01*
X101750000Y10157142D01*
X101750000Y10585714D01*
X101821428Y10728571D01*
X101892857Y10800000D01*
X102035714Y10871428D01*
X102250000Y10871428D01*
X102392857Y10800000D01*
X102464285Y10728571D01*
X102535714Y10585714D01*
X102535714Y10157142D01*
X102464285Y10014285D01*
X102392857Y9942857D01*
X102250000Y9871428D01*
X102035714Y9871428D01*
X103821428Y9871428D02*
X103821428Y10657142D01*
X103750000Y10800000D01*
X103607142Y10871428D01*
X103321428Y10871428D01*
X103178571Y10800000D01*
X103821428Y9942857D02*
X103678571Y9871428D01*
X103321428Y9871428D01*
X103178571Y9942857D01*
X103107142Y10085714D01*
X103107142Y10228571D01*
X103178571Y10371428D01*
X103321428Y10442857D01*
X103678571Y10442857D01*
X103821428Y10514285D01*
X104535714Y9871428D02*
X104535714Y10871428D01*
X104535714Y10585714D02*
X104607142Y10728571D01*
X104678571Y10800000D01*
X104821428Y10871428D01*
X104964285Y10871428D01*
X106107142Y9871428D02*
X106107142Y11371428D01*
X106107142Y9942857D02*
X105964285Y9871428D01*
X105678571Y9871428D01*
X105535714Y9942857D01*
X105464285Y10014285D01*
X105392857Y10157142D01*
X105392857Y10585714D01*
X105464285Y10728571D01*
X105535714Y10800000D01*
X105678571Y10871428D01*
X105964285Y10871428D01*
X106107142Y10800000D01*
X86678571Y7321428D02*
X86178571Y8035714D01*
X85821428Y7321428D02*
X85821428Y8821428D01*
X86392857Y8821428D01*
X86535714Y8750000D01*
X86607142Y8678571D01*
X86678571Y8535714D01*
X86678571Y8321428D01*
X86607142Y8178571D01*
X86535714Y8107142D01*
X86392857Y8035714D01*
X85821428Y8035714D01*
X87892857Y7392857D02*
X87750000Y7321428D01*
X87464285Y7321428D01*
X87321428Y7392857D01*
X87250000Y7535714D01*
X87250000Y8107142D01*
X87321428Y8250000D01*
X87464285Y8321428D01*
X87750000Y8321428D01*
X87892857Y8250000D01*
X87964285Y8107142D01*
X87964285Y7964285D01*
X87250000Y7821428D01*
X88464285Y8321428D02*
X88821428Y7321428D01*
X89178571Y8321428D01*
X89750000Y7464285D02*
X89821428Y7392857D01*
X89750000Y7321428D01*
X89678571Y7392857D01*
X89750000Y7464285D01*
X89750000Y7321428D01*
X91535714Y7750000D02*
X92250000Y7750000D01*
X91392857Y7321428D02*
X91892857Y8821428D01*
X92392857Y7321428D01*
X80321428Y4771428D02*
X80321428Y6271428D01*
X81178571Y4771428D02*
X80535714Y5628571D01*
X81178571Y6271428D02*
X80321428Y5414285D01*
X82392857Y4842857D02*
X82250000Y4771428D01*
X81964285Y4771428D01*
X81821428Y4842857D01*
X81750000Y4985714D01*
X81750000Y5557142D01*
X81821428Y5700000D01*
X81964285Y5771428D01*
X82250000Y5771428D01*
X82392857Y5700000D01*
X82464285Y5557142D01*
X82464285Y5414285D01*
X81750000Y5271428D01*
X83321428Y4771428D02*
X83178571Y4842857D01*
X83107142Y4985714D01*
X83107142Y6271428D01*
X84107142Y4771428D02*
X83964285Y4842857D01*
X83892857Y4985714D01*
X83892857Y6271428D01*
X84535714Y5771428D02*
X84892857Y4771428D01*
X85250000Y5771428D02*
X84892857Y4771428D01*
X84750000Y4414285D01*
X84678571Y4342857D01*
X84535714Y4271428D01*
X87464285Y5557142D02*
X86964285Y5557142D01*
X86964285Y4771428D02*
X86964285Y6271428D01*
X87678571Y6271428D01*
X88821428Y4842857D02*
X88678571Y4771428D01*
X88392857Y4771428D01*
X88250000Y4842857D01*
X88178571Y4985714D01*
X88178571Y5557142D01*
X88250000Y5700000D01*
X88392857Y5771428D01*
X88678571Y5771428D01*
X88821428Y5700000D01*
X88892857Y5557142D01*
X88892857Y5414285D01*
X88178571Y5271428D01*
X89535714Y4771428D02*
X89535714Y5771428D01*
X89535714Y5485714D02*
X89607142Y5628571D01*
X89678571Y5700000D01*
X89821428Y5771428D01*
X89964285Y5771428D01*
X90464285Y5771428D02*
X90464285Y4771428D01*
X90464285Y5628571D02*
X90535714Y5700000D01*
X90678571Y5771428D01*
X90892857Y5771428D01*
X91035714Y5700000D01*
X91107142Y5557142D01*
X91107142Y4771428D01*
X92464285Y4771428D02*
X92464285Y5557142D01*
X92392857Y5700000D01*
X92250000Y5771428D01*
X91964285Y5771428D01*
X91821428Y5700000D01*
X92464285Y4842857D02*
X92321428Y4771428D01*
X91964285Y4771428D01*
X91821428Y4842857D01*
X91750000Y4985714D01*
X91750000Y5128571D01*
X91821428Y5271428D01*
X91964285Y5342857D01*
X92321428Y5342857D01*
X92464285Y5414285D01*
X93178571Y5771428D02*
X93178571Y4771428D01*
X93178571Y5628571D02*
X93250000Y5700000D01*
X93392857Y5771428D01*
X93607142Y5771428D01*
X93750000Y5700000D01*
X93821428Y5557142D01*
X93821428Y4771428D01*
X95178571Y4771428D02*
X95178571Y6271428D01*
X95178571Y4842857D02*
X95035714Y4771428D01*
X94750000Y4771428D01*
X94607142Y4842857D01*
X94535714Y4914285D01*
X94464285Y5057142D01*
X94464285Y5485714D01*
X94535714Y5628571D01*
X94607142Y5700000D01*
X94750000Y5771428D01*
X95035714Y5771428D01*
X95178571Y5700000D01*
X96464285Y4842857D02*
X96321428Y4771428D01*
X96035714Y4771428D01*
X95892857Y4842857D01*
X95821428Y4985714D01*
X95821428Y5557142D01*
X95892857Y5700000D01*
X96035714Y5771428D01*
X96321428Y5771428D01*
X96464285Y5700000D01*
X96535714Y5557142D01*
X96535714Y5414285D01*
X95821428Y5271428D01*
X97035714Y5771428D02*
X97821428Y5771428D01*
X97035714Y4771428D01*
X97821428Y4771428D01*
D11*
X62162761Y60598809D02*
X62329428Y60098809D01*
X62496095Y60598809D01*
X62662761Y60098809D02*
X62662761Y60598809D01*
X62781809Y60598809D01*
X62853238Y60575000D01*
X62900857Y60527380D01*
X62924666Y60479761D01*
X62948476Y60384523D01*
X62948476Y60313095D01*
X62924666Y60217857D01*
X62900857Y60170238D01*
X62853238Y60122619D01*
X62781809Y60098809D01*
X62662761Y60098809D01*
X63162761Y60098809D02*
X63162761Y60598809D01*
X63281809Y60598809D01*
X63353238Y60575000D01*
X63400857Y60527380D01*
X63424666Y60479761D01*
X63448476Y60384523D01*
X63448476Y60313095D01*
X63424666Y60217857D01*
X63400857Y60170238D01*
X63353238Y60122619D01*
X63281809Y60098809D01*
X63162761Y60098809D01*
X64281809Y60098809D02*
X64043714Y60098809D01*
X64043714Y60598809D01*
X64519904Y60098809D02*
X64472285Y60122619D01*
X64448476Y60146428D01*
X64424666Y60194047D01*
X64424666Y60336904D01*
X64448476Y60384523D01*
X64472285Y60408333D01*
X64519904Y60432142D01*
X64591333Y60432142D01*
X64638952Y60408333D01*
X64662761Y60384523D01*
X64686571Y60336904D01*
X64686571Y60194047D01*
X64662761Y60146428D01*
X64638952Y60122619D01*
X64591333Y60098809D01*
X64519904Y60098809D01*
X65115142Y60432142D02*
X65115142Y60027380D01*
X65091333Y59979761D01*
X65067523Y59955952D01*
X65019904Y59932142D01*
X64948476Y59932142D01*
X64900857Y59955952D01*
X65115142Y60122619D02*
X65067523Y60098809D01*
X64972285Y60098809D01*
X64924666Y60122619D01*
X64900857Y60146428D01*
X64877047Y60194047D01*
X64877047Y60336904D01*
X64900857Y60384523D01*
X64924666Y60408333D01*
X64972285Y60432142D01*
X65067523Y60432142D01*
X65115142Y60408333D01*
X65353238Y60098809D02*
X65353238Y60432142D01*
X65353238Y60598809D02*
X65329428Y60575000D01*
X65353238Y60551190D01*
X65377047Y60575000D01*
X65353238Y60598809D01*
X65353238Y60551190D01*
X65805619Y60122619D02*
X65758000Y60098809D01*
X65662761Y60098809D01*
X65615142Y60122619D01*
X65591333Y60146428D01*
X65567523Y60194047D01*
X65567523Y60336904D01*
X65591333Y60384523D01*
X65615142Y60408333D01*
X65662761Y60432142D01*
X65758000Y60432142D01*
X65805619Y60408333D01*
X61432476Y64893000D02*
X61384857Y64916809D01*
X61313428Y64916809D01*
X61242000Y64893000D01*
X61194380Y64845380D01*
X61170571Y64797761D01*
X61146761Y64702523D01*
X61146761Y64631095D01*
X61170571Y64535857D01*
X61194380Y64488238D01*
X61242000Y64440619D01*
X61313428Y64416809D01*
X61361047Y64416809D01*
X61432476Y64440619D01*
X61456285Y64464428D01*
X61456285Y64631095D01*
X61361047Y64631095D01*
X61670571Y64416809D02*
X61670571Y64916809D01*
X61956285Y64416809D01*
X61956285Y64916809D01*
X62194380Y64416809D02*
X62194380Y64916809D01*
X62313428Y64916809D01*
X62384857Y64893000D01*
X62432476Y64845380D01*
X62456285Y64797761D01*
X62480095Y64702523D01*
X62480095Y64631095D01*
X62456285Y64535857D01*
X62432476Y64488238D01*
X62384857Y64440619D01*
X62313428Y64416809D01*
X62194380Y64416809D01*
X63313428Y64416809D02*
X63075333Y64416809D01*
X63075333Y64916809D01*
X63551523Y64416809D02*
X63503904Y64440619D01*
X63480095Y64464428D01*
X63456285Y64512047D01*
X63456285Y64654904D01*
X63480095Y64702523D01*
X63503904Y64726333D01*
X63551523Y64750142D01*
X63622952Y64750142D01*
X63670571Y64726333D01*
X63694380Y64702523D01*
X63718190Y64654904D01*
X63718190Y64512047D01*
X63694380Y64464428D01*
X63670571Y64440619D01*
X63622952Y64416809D01*
X63551523Y64416809D01*
X64146761Y64750142D02*
X64146761Y64345380D01*
X64122952Y64297761D01*
X64099142Y64273952D01*
X64051523Y64250142D01*
X63980095Y64250142D01*
X63932476Y64273952D01*
X64146761Y64440619D02*
X64099142Y64416809D01*
X64003904Y64416809D01*
X63956285Y64440619D01*
X63932476Y64464428D01*
X63908666Y64512047D01*
X63908666Y64654904D01*
X63932476Y64702523D01*
X63956285Y64726333D01*
X64003904Y64750142D01*
X64099142Y64750142D01*
X64146761Y64726333D01*
X64384857Y64416809D02*
X64384857Y64750142D01*
X64384857Y64916809D02*
X64361047Y64893000D01*
X64384857Y64869190D01*
X64408666Y64893000D01*
X64384857Y64916809D01*
X64384857Y64869190D01*
X64837238Y64440619D02*
X64789619Y64416809D01*
X64694380Y64416809D01*
X64646761Y64440619D01*
X64622952Y64464428D01*
X64599142Y64512047D01*
X64599142Y64654904D01*
X64622952Y64702523D01*
X64646761Y64726333D01*
X64694380Y64750142D01*
X64789619Y64750142D01*
X64837238Y64726333D01*
X61559476Y62861000D02*
X61511857Y62884809D01*
X61440428Y62884809D01*
X61369000Y62861000D01*
X61321380Y62813380D01*
X61297571Y62765761D01*
X61273761Y62670523D01*
X61273761Y62599095D01*
X61297571Y62503857D01*
X61321380Y62456238D01*
X61369000Y62408619D01*
X61440428Y62384809D01*
X61488047Y62384809D01*
X61559476Y62408619D01*
X61583285Y62432428D01*
X61583285Y62599095D01*
X61488047Y62599095D01*
X61797571Y62384809D02*
X61797571Y62884809D01*
X62083285Y62384809D01*
X62083285Y62884809D01*
X62321380Y62384809D02*
X62321380Y62884809D01*
X62440428Y62884809D01*
X62511857Y62861000D01*
X62559476Y62813380D01*
X62583285Y62765761D01*
X62607095Y62670523D01*
X62607095Y62599095D01*
X62583285Y62503857D01*
X62559476Y62456238D01*
X62511857Y62408619D01*
X62440428Y62384809D01*
X62321380Y62384809D01*
X63440428Y62384809D02*
X63202333Y62384809D01*
X63202333Y62884809D01*
X63678523Y62384809D02*
X63630904Y62408619D01*
X63607095Y62432428D01*
X63583285Y62480047D01*
X63583285Y62622904D01*
X63607095Y62670523D01*
X63630904Y62694333D01*
X63678523Y62718142D01*
X63749952Y62718142D01*
X63797571Y62694333D01*
X63821380Y62670523D01*
X63845190Y62622904D01*
X63845190Y62480047D01*
X63821380Y62432428D01*
X63797571Y62408619D01*
X63749952Y62384809D01*
X63678523Y62384809D01*
X64273761Y62718142D02*
X64273761Y62313380D01*
X64249952Y62265761D01*
X64226142Y62241952D01*
X64178523Y62218142D01*
X64107095Y62218142D01*
X64059476Y62241952D01*
X64273761Y62408619D02*
X64226142Y62384809D01*
X64130904Y62384809D01*
X64083285Y62408619D01*
X64059476Y62432428D01*
X64035666Y62480047D01*
X64035666Y62622904D01*
X64059476Y62670523D01*
X64083285Y62694333D01*
X64130904Y62718142D01*
X64226142Y62718142D01*
X64273761Y62694333D01*
X64511857Y62384809D02*
X64511857Y62718142D01*
X64511857Y62884809D02*
X64488047Y62861000D01*
X64511857Y62837190D01*
X64535666Y62861000D01*
X64511857Y62884809D01*
X64511857Y62837190D01*
X64964238Y62408619D02*
X64916619Y62384809D01*
X64821380Y62384809D01*
X64773761Y62408619D01*
X64749952Y62432428D01*
X64726142Y62480047D01*
X64726142Y62622904D01*
X64749952Y62670523D01*
X64773761Y62694333D01*
X64821380Y62718142D01*
X64916619Y62718142D01*
X64964238Y62694333D01*
X61210095Y66575809D02*
X61210095Y67075809D01*
X61448190Y66575809D02*
X61448190Y67075809D01*
X61733904Y66575809D01*
X61733904Y67075809D01*
X62138666Y66837714D02*
X62210095Y66813904D01*
X62233904Y66790095D01*
X62257714Y66742476D01*
X62257714Y66671047D01*
X62233904Y66623428D01*
X62210095Y66599619D01*
X62162476Y66575809D01*
X61972000Y66575809D01*
X61972000Y67075809D01*
X62138666Y67075809D01*
X62186285Y67052000D01*
X62210095Y67028190D01*
X62233904Y66980571D01*
X62233904Y66932952D01*
X62210095Y66885333D01*
X62186285Y66861523D01*
X62138666Y66837714D01*
X61972000Y66837714D01*
X60964047Y72150500D02*
X61202142Y72150500D01*
X61083095Y71401809D02*
X61083095Y71901809D01*
X61202142Y72150500D02*
X61725952Y72150500D01*
X61321190Y71401809D02*
X61321190Y71901809D01*
X61606904Y71401809D01*
X61606904Y71901809D01*
X61725952Y72150500D02*
X62225952Y72150500D01*
X62011666Y71663714D02*
X62083095Y71639904D01*
X62106904Y71616095D01*
X62130714Y71568476D01*
X62130714Y71497047D01*
X62106904Y71449428D01*
X62083095Y71425619D01*
X62035476Y71401809D01*
X61845000Y71401809D01*
X61845000Y71901809D01*
X62011666Y71901809D01*
X62059285Y71878000D01*
X62083095Y71854190D01*
X62106904Y71806571D01*
X62106904Y71758952D01*
X62083095Y71711333D01*
X62059285Y71687523D01*
X62011666Y71663714D01*
X61845000Y71663714D01*
X12612761Y62879500D02*
X12850857Y62879500D01*
X12731809Y62130809D02*
X12731809Y62630809D01*
X12850857Y62879500D02*
X13374666Y62879500D01*
X12969904Y62130809D02*
X12969904Y62630809D01*
X13255619Y62130809D01*
X13255619Y62630809D01*
X13374666Y62879500D02*
X13803238Y62879500D01*
X13469904Y62273666D02*
X13708000Y62273666D01*
X13422285Y62130809D02*
X13588952Y62630809D01*
X13755619Y62130809D01*
X12477809Y69496809D02*
X12477809Y69996809D01*
X12715904Y69496809D02*
X12715904Y69996809D01*
X13001619Y69496809D01*
X13001619Y69996809D01*
X13215904Y69639666D02*
X13454000Y69639666D01*
X13168285Y69496809D02*
X13334952Y69996809D01*
X13501619Y69496809D01*
X10251476Y72005000D02*
X10203857Y72028809D01*
X10132428Y72028809D01*
X10061000Y72005000D01*
X10013380Y71957380D01*
X9989571Y71909761D01*
X9965761Y71814523D01*
X9965761Y71743095D01*
X9989571Y71647857D01*
X10013380Y71600238D01*
X10061000Y71552619D01*
X10132428Y71528809D01*
X10180047Y71528809D01*
X10251476Y71552619D01*
X10275285Y71576428D01*
X10275285Y71743095D01*
X10180047Y71743095D01*
X10489571Y71528809D02*
X10489571Y72028809D01*
X10775285Y71528809D01*
X10775285Y72028809D01*
X11013380Y71528809D02*
X11013380Y72028809D01*
X11132428Y72028809D01*
X11203857Y72005000D01*
X11251476Y71957380D01*
X11275285Y71909761D01*
X11299095Y71814523D01*
X11299095Y71743095D01*
X11275285Y71647857D01*
X11251476Y71600238D01*
X11203857Y71552619D01*
X11132428Y71528809D01*
X11013380Y71528809D01*
X12132428Y71528809D02*
X11894333Y71528809D01*
X11894333Y72028809D01*
X12370523Y71528809D02*
X12322904Y71552619D01*
X12299095Y71576428D01*
X12275285Y71624047D01*
X12275285Y71766904D01*
X12299095Y71814523D01*
X12322904Y71838333D01*
X12370523Y71862142D01*
X12441952Y71862142D01*
X12489571Y71838333D01*
X12513380Y71814523D01*
X12537190Y71766904D01*
X12537190Y71624047D01*
X12513380Y71576428D01*
X12489571Y71552619D01*
X12441952Y71528809D01*
X12370523Y71528809D01*
X12965761Y71862142D02*
X12965761Y71457380D01*
X12941952Y71409761D01*
X12918142Y71385952D01*
X12870523Y71362142D01*
X12799095Y71362142D01*
X12751476Y71385952D01*
X12965761Y71552619D02*
X12918142Y71528809D01*
X12822904Y71528809D01*
X12775285Y71552619D01*
X12751476Y71576428D01*
X12727666Y71624047D01*
X12727666Y71766904D01*
X12751476Y71814523D01*
X12775285Y71838333D01*
X12822904Y71862142D01*
X12918142Y71862142D01*
X12965761Y71838333D01*
X13203857Y71528809D02*
X13203857Y71862142D01*
X13203857Y72028809D02*
X13180047Y72005000D01*
X13203857Y71981190D01*
X13227666Y72005000D01*
X13203857Y72028809D01*
X13203857Y71981190D01*
X13656238Y71552619D02*
X13608619Y71528809D01*
X13513380Y71528809D01*
X13465761Y71552619D01*
X13441952Y71576428D01*
X13418142Y71624047D01*
X13418142Y71766904D01*
X13441952Y71814523D01*
X13465761Y71838333D01*
X13513380Y71862142D01*
X13608619Y71862142D01*
X13656238Y71838333D01*
X10124476Y67560000D02*
X10076857Y67583809D01*
X10005428Y67583809D01*
X9934000Y67560000D01*
X9886380Y67512380D01*
X9862571Y67464761D01*
X9838761Y67369523D01*
X9838761Y67298095D01*
X9862571Y67202857D01*
X9886380Y67155238D01*
X9934000Y67107619D01*
X10005428Y67083809D01*
X10053047Y67083809D01*
X10124476Y67107619D01*
X10148285Y67131428D01*
X10148285Y67298095D01*
X10053047Y67298095D01*
X10362571Y67083809D02*
X10362571Y67583809D01*
X10648285Y67083809D01*
X10648285Y67583809D01*
X10886380Y67083809D02*
X10886380Y67583809D01*
X11005428Y67583809D01*
X11076857Y67560000D01*
X11124476Y67512380D01*
X11148285Y67464761D01*
X11172095Y67369523D01*
X11172095Y67298095D01*
X11148285Y67202857D01*
X11124476Y67155238D01*
X11076857Y67107619D01*
X11005428Y67083809D01*
X10886380Y67083809D01*
X12005428Y67083809D02*
X11767333Y67083809D01*
X11767333Y67583809D01*
X12243523Y67083809D02*
X12195904Y67107619D01*
X12172095Y67131428D01*
X12148285Y67179047D01*
X12148285Y67321904D01*
X12172095Y67369523D01*
X12195904Y67393333D01*
X12243523Y67417142D01*
X12314952Y67417142D01*
X12362571Y67393333D01*
X12386380Y67369523D01*
X12410190Y67321904D01*
X12410190Y67179047D01*
X12386380Y67131428D01*
X12362571Y67107619D01*
X12314952Y67083809D01*
X12243523Y67083809D01*
X12838761Y67417142D02*
X12838761Y67012380D01*
X12814952Y66964761D01*
X12791142Y66940952D01*
X12743523Y66917142D01*
X12672095Y66917142D01*
X12624476Y66940952D01*
X12838761Y67107619D02*
X12791142Y67083809D01*
X12695904Y67083809D01*
X12648285Y67107619D01*
X12624476Y67131428D01*
X12600666Y67179047D01*
X12600666Y67321904D01*
X12624476Y67369523D01*
X12648285Y67393333D01*
X12695904Y67417142D01*
X12791142Y67417142D01*
X12838761Y67393333D01*
X13076857Y67083809D02*
X13076857Y67417142D01*
X13076857Y67583809D02*
X13053047Y67560000D01*
X13076857Y67536190D01*
X13100666Y67560000D01*
X13076857Y67583809D01*
X13076857Y67536190D01*
X13529238Y67107619D02*
X13481619Y67083809D01*
X13386380Y67083809D01*
X13338761Y67107619D01*
X13314952Y67131428D01*
X13291142Y67179047D01*
X13291142Y67321904D01*
X13314952Y67369523D01*
X13338761Y67393333D01*
X13386380Y67417142D01*
X13481619Y67417142D01*
X13529238Y67393333D01*
X9838761Y74187809D02*
X10005428Y73687809D01*
X10172095Y74187809D01*
X10338761Y73687809D02*
X10338761Y74187809D01*
X10457809Y74187809D01*
X10529238Y74164000D01*
X10576857Y74116380D01*
X10600666Y74068761D01*
X10624476Y73973523D01*
X10624476Y73902095D01*
X10600666Y73806857D01*
X10576857Y73759238D01*
X10529238Y73711619D01*
X10457809Y73687809D01*
X10338761Y73687809D01*
X10838761Y73687809D02*
X10838761Y74187809D01*
X10957809Y74187809D01*
X11029238Y74164000D01*
X11076857Y74116380D01*
X11100666Y74068761D01*
X11124476Y73973523D01*
X11124476Y73902095D01*
X11100666Y73806857D01*
X11076857Y73759238D01*
X11029238Y73711619D01*
X10957809Y73687809D01*
X10838761Y73687809D01*
X11957809Y73687809D02*
X11719714Y73687809D01*
X11719714Y74187809D01*
X12195904Y73687809D02*
X12148285Y73711619D01*
X12124476Y73735428D01*
X12100666Y73783047D01*
X12100666Y73925904D01*
X12124476Y73973523D01*
X12148285Y73997333D01*
X12195904Y74021142D01*
X12267333Y74021142D01*
X12314952Y73997333D01*
X12338761Y73973523D01*
X12362571Y73925904D01*
X12362571Y73783047D01*
X12338761Y73735428D01*
X12314952Y73711619D01*
X12267333Y73687809D01*
X12195904Y73687809D01*
X12791142Y74021142D02*
X12791142Y73616380D01*
X12767333Y73568761D01*
X12743523Y73544952D01*
X12695904Y73521142D01*
X12624476Y73521142D01*
X12576857Y73544952D01*
X12791142Y73711619D02*
X12743523Y73687809D01*
X12648285Y73687809D01*
X12600666Y73711619D01*
X12576857Y73735428D01*
X12553047Y73783047D01*
X12553047Y73925904D01*
X12576857Y73973523D01*
X12600666Y73997333D01*
X12648285Y74021142D01*
X12743523Y74021142D01*
X12791142Y73997333D01*
X13029238Y73687809D02*
X13029238Y74021142D01*
X13029238Y74187809D02*
X13005428Y74164000D01*
X13029238Y74140190D01*
X13053047Y74164000D01*
X13029238Y74187809D01*
X13029238Y74140190D01*
X13481619Y73711619D02*
X13434000Y73687809D01*
X13338761Y73687809D01*
X13291142Y73711619D01*
X13267333Y73735428D01*
X13243523Y73783047D01*
X13243523Y73925904D01*
X13267333Y73973523D01*
X13291142Y73997333D01*
X13338761Y74021142D01*
X13434000Y74021142D01*
X13481619Y73997333D01*
X3393476Y65655000D02*
X3345857Y65678809D01*
X3274428Y65678809D01*
X3203000Y65655000D01*
X3155380Y65607380D01*
X3131571Y65559761D01*
X3107761Y65464523D01*
X3107761Y65393095D01*
X3131571Y65297857D01*
X3155380Y65250238D01*
X3203000Y65202619D01*
X3274428Y65178809D01*
X3322047Y65178809D01*
X3393476Y65202619D01*
X3417285Y65226428D01*
X3417285Y65393095D01*
X3322047Y65393095D01*
X3631571Y65178809D02*
X3631571Y65678809D01*
X3917285Y65178809D01*
X3917285Y65678809D01*
X4155380Y65178809D02*
X4155380Y65678809D01*
X4274428Y65678809D01*
X4345857Y65655000D01*
X4393476Y65607380D01*
X4417285Y65559761D01*
X4441095Y65464523D01*
X4441095Y65393095D01*
X4417285Y65297857D01*
X4393476Y65250238D01*
X4345857Y65202619D01*
X4274428Y65178809D01*
X4155380Y65178809D01*
X5274428Y65178809D02*
X5036333Y65178809D01*
X5036333Y65678809D01*
X5512523Y65178809D02*
X5464904Y65202619D01*
X5441095Y65226428D01*
X5417285Y65274047D01*
X5417285Y65416904D01*
X5441095Y65464523D01*
X5464904Y65488333D01*
X5512523Y65512142D01*
X5583952Y65512142D01*
X5631571Y65488333D01*
X5655380Y65464523D01*
X5679190Y65416904D01*
X5679190Y65274047D01*
X5655380Y65226428D01*
X5631571Y65202619D01*
X5583952Y65178809D01*
X5512523Y65178809D01*
X6107761Y65512142D02*
X6107761Y65107380D01*
X6083952Y65059761D01*
X6060142Y65035952D01*
X6012523Y65012142D01*
X5941095Y65012142D01*
X5893476Y65035952D01*
X6107761Y65202619D02*
X6060142Y65178809D01*
X5964904Y65178809D01*
X5917285Y65202619D01*
X5893476Y65226428D01*
X5869666Y65274047D01*
X5869666Y65416904D01*
X5893476Y65464523D01*
X5917285Y65488333D01*
X5964904Y65512142D01*
X6060142Y65512142D01*
X6107761Y65488333D01*
X6345857Y65178809D02*
X6345857Y65512142D01*
X6345857Y65678809D02*
X6322047Y65655000D01*
X6345857Y65631190D01*
X6369666Y65655000D01*
X6345857Y65678809D01*
X6345857Y65631190D01*
X6798238Y65202619D02*
X6750619Y65178809D01*
X6655380Y65178809D01*
X6607761Y65202619D01*
X6583952Y65226428D01*
X6560142Y65274047D01*
X6560142Y65416904D01*
X6583952Y65464523D01*
X6607761Y65488333D01*
X6655380Y65512142D01*
X6750619Y65512142D01*
X6798238Y65488333D01*
X3361761Y74060809D02*
X3528428Y73560809D01*
X3695095Y74060809D01*
X3861761Y73560809D02*
X3861761Y74060809D01*
X3980809Y74060809D01*
X4052238Y74037000D01*
X4099857Y73989380D01*
X4123666Y73941761D01*
X4147476Y73846523D01*
X4147476Y73775095D01*
X4123666Y73679857D01*
X4099857Y73632238D01*
X4052238Y73584619D01*
X3980809Y73560809D01*
X3861761Y73560809D01*
X4361761Y73560809D02*
X4361761Y74060809D01*
X4480809Y74060809D01*
X4552238Y74037000D01*
X4599857Y73989380D01*
X4623666Y73941761D01*
X4647476Y73846523D01*
X4647476Y73775095D01*
X4623666Y73679857D01*
X4599857Y73632238D01*
X4552238Y73584619D01*
X4480809Y73560809D01*
X4361761Y73560809D01*
X5480809Y73560809D02*
X5242714Y73560809D01*
X5242714Y74060809D01*
X5718904Y73560809D02*
X5671285Y73584619D01*
X5647476Y73608428D01*
X5623666Y73656047D01*
X5623666Y73798904D01*
X5647476Y73846523D01*
X5671285Y73870333D01*
X5718904Y73894142D01*
X5790333Y73894142D01*
X5837952Y73870333D01*
X5861761Y73846523D01*
X5885571Y73798904D01*
X5885571Y73656047D01*
X5861761Y73608428D01*
X5837952Y73584619D01*
X5790333Y73560809D01*
X5718904Y73560809D01*
X6314142Y73894142D02*
X6314142Y73489380D01*
X6290333Y73441761D01*
X6266523Y73417952D01*
X6218904Y73394142D01*
X6147476Y73394142D01*
X6099857Y73417952D01*
X6314142Y73584619D02*
X6266523Y73560809D01*
X6171285Y73560809D01*
X6123666Y73584619D01*
X6099857Y73608428D01*
X6076047Y73656047D01*
X6076047Y73798904D01*
X6099857Y73846523D01*
X6123666Y73870333D01*
X6171285Y73894142D01*
X6266523Y73894142D01*
X6314142Y73870333D01*
X6552238Y73560809D02*
X6552238Y73894142D01*
X6552238Y74060809D02*
X6528428Y74037000D01*
X6552238Y74013190D01*
X6576047Y74037000D01*
X6552238Y74060809D01*
X6552238Y74013190D01*
X7004619Y73584619D02*
X6957000Y73560809D01*
X6861761Y73560809D01*
X6814142Y73584619D01*
X6790333Y73608428D01*
X6766523Y73656047D01*
X6766523Y73798904D01*
X6790333Y73846523D01*
X6814142Y73870333D01*
X6861761Y73894142D01*
X6957000Y73894142D01*
X7004619Y73870333D01*
D12*
X115419428Y62650619D02*
X115752761Y61650619D01*
X116086095Y62650619D01*
X116990857Y61745857D02*
X116943238Y61698238D01*
X116800380Y61650619D01*
X116705142Y61650619D01*
X116562285Y61698238D01*
X116467047Y61793476D01*
X116419428Y61888714D01*
X116371809Y62079190D01*
X116371809Y62222047D01*
X116419428Y62412523D01*
X116467047Y62507761D01*
X116562285Y62603000D01*
X116705142Y62650619D01*
X116800380Y62650619D01*
X116943238Y62603000D01*
X116990857Y62555380D01*
X117371809Y62555380D02*
X117419428Y62603000D01*
X117514666Y62650619D01*
X117752761Y62650619D01*
X117848000Y62603000D01*
X117895619Y62555380D01*
X117943238Y62460142D01*
X117943238Y62364904D01*
X117895619Y62222047D01*
X117324190Y61650619D01*
X117943238Y61650619D01*
X118371809Y62031571D02*
X119133714Y62031571D01*
X118752761Y61650619D02*
X118752761Y62412523D01*
X115419428Y74588619D02*
X115752761Y73588619D01*
X116086095Y74588619D01*
X116990857Y73683857D02*
X116943238Y73636238D01*
X116800380Y73588619D01*
X116705142Y73588619D01*
X116562285Y73636238D01*
X116467047Y73731476D01*
X116419428Y73826714D01*
X116371809Y74017190D01*
X116371809Y74160047D01*
X116419428Y74350523D01*
X116467047Y74445761D01*
X116562285Y74541000D01*
X116705142Y74588619D01*
X116800380Y74588619D01*
X116943238Y74541000D01*
X116990857Y74493380D01*
X117371809Y74493380D02*
X117419428Y74541000D01*
X117514666Y74588619D01*
X117752761Y74588619D01*
X117848000Y74541000D01*
X117895619Y74493380D01*
X117943238Y74398142D01*
X117943238Y74302904D01*
X117895619Y74160047D01*
X117324190Y73588619D01*
X117943238Y73588619D01*
X118371809Y73969571D02*
X119133714Y73969571D01*
X44870619Y7214952D02*
X43870619Y6881619D01*
X44870619Y6548285D01*
X44156333Y6262571D02*
X44156333Y5786380D01*
X43870619Y6357809D02*
X44870619Y6024476D01*
X43870619Y5691142D01*
X43965857Y4786380D02*
X43918238Y4834000D01*
X43870619Y4976857D01*
X43870619Y5072095D01*
X43918238Y5214952D01*
X44013476Y5310190D01*
X44108714Y5357809D01*
X44299190Y5405428D01*
X44442047Y5405428D01*
X44632523Y5357809D01*
X44727761Y5310190D01*
X44823000Y5214952D01*
X44870619Y5072095D01*
X44870619Y4976857D01*
X44823000Y4834000D01*
X44775380Y4786380D01*
X44251571Y4357809D02*
X44251571Y3595904D01*
X31789619Y7214952D02*
X30789619Y6881619D01*
X31789619Y6548285D01*
X31075333Y6262571D02*
X31075333Y5786380D01*
X30789619Y6357809D02*
X31789619Y6024476D01*
X30789619Y5691142D01*
X30884857Y4786380D02*
X30837238Y4834000D01*
X30789619Y4976857D01*
X30789619Y5072095D01*
X30837238Y5214952D01*
X30932476Y5310190D01*
X31027714Y5357809D01*
X31218190Y5405428D01*
X31361047Y5405428D01*
X31551523Y5357809D01*
X31646761Y5310190D01*
X31742000Y5214952D01*
X31789619Y5072095D01*
X31789619Y4976857D01*
X31742000Y4834000D01*
X31694380Y4786380D01*
X31170571Y4357809D02*
X31170571Y3595904D01*
X30789619Y3976857D02*
X31551523Y3976857D01*
X42574000Y86478904D02*
X42574000Y86002714D01*
X41076619Y86240809D02*
X42076619Y86240809D01*
X42574000Y86002714D02*
X42574000Y84955095D01*
X41076619Y85764619D02*
X42076619Y85764619D01*
X41076619Y85193190D01*
X42076619Y85193190D01*
X42574000Y84955095D02*
X42574000Y83955095D01*
X41600428Y84383666D02*
X41552809Y84240809D01*
X41505190Y84193190D01*
X41409952Y84145571D01*
X41267095Y84145571D01*
X41171857Y84193190D01*
X41124238Y84240809D01*
X41076619Y84336047D01*
X41076619Y84717000D01*
X42076619Y84717000D01*
X42076619Y84383666D01*
X42029000Y84288428D01*
X41981380Y84240809D01*
X41886142Y84193190D01*
X41790904Y84193190D01*
X41695666Y84240809D01*
X41648047Y84288428D01*
X41600428Y84383666D01*
X41600428Y84717000D01*
X38536619Y86240809D02*
X39536619Y86240809D01*
X38536619Y85764619D02*
X39536619Y85764619D01*
X38536619Y85193190D01*
X39536619Y85193190D01*
X39060428Y84383666D02*
X39012809Y84240809D01*
X38965190Y84193190D01*
X38869952Y84145571D01*
X38727095Y84145571D01*
X38631857Y84193190D01*
X38584238Y84240809D01*
X38536619Y84336047D01*
X38536619Y84717000D01*
X39536619Y84717000D01*
X39536619Y84383666D01*
X39489000Y84288428D01*
X39441380Y84240809D01*
X39346142Y84193190D01*
X39250904Y84193190D01*
X39155666Y84240809D01*
X39108047Y84288428D01*
X39060428Y84383666D01*
X39060428Y84717000D01*
X37367000Y86407476D02*
X37367000Y85931285D01*
X35869619Y86169380D02*
X36869619Y86169380D01*
X37367000Y85931285D02*
X37367000Y84883666D01*
X35869619Y85693190D02*
X36869619Y85693190D01*
X35869619Y85121761D01*
X36869619Y85121761D01*
X37367000Y84883666D02*
X37367000Y84026523D01*
X36155333Y84693190D02*
X36155333Y84217000D01*
X35869619Y84788428D02*
X36869619Y84455095D01*
X35869619Y84121761D01*
X33329619Y86169380D02*
X34329619Y86169380D01*
X33329619Y85693190D02*
X34329619Y85693190D01*
X33329619Y85121761D01*
X34329619Y85121761D01*
X33615333Y84693190D02*
X33615333Y84217000D01*
X33329619Y84788428D02*
X34329619Y84455095D01*
X33329619Y84121761D01*
X26535000Y85931095D02*
X26582619Y86026333D01*
X26582619Y86169190D01*
X26535000Y86312047D01*
X26439761Y86407285D01*
X26344523Y86454904D01*
X26154047Y86502523D01*
X26011190Y86502523D01*
X25820714Y86454904D01*
X25725476Y86407285D01*
X25630238Y86312047D01*
X25582619Y86169190D01*
X25582619Y86073952D01*
X25630238Y85931095D01*
X25677857Y85883476D01*
X26011190Y85883476D01*
X26011190Y86073952D01*
X25582619Y85454904D02*
X26582619Y85454904D01*
X25582619Y84883476D01*
X26582619Y84883476D01*
X25582619Y84407285D02*
X26582619Y84407285D01*
X26582619Y84169190D01*
X26535000Y84026333D01*
X26439761Y83931095D01*
X26344523Y83883476D01*
X26154047Y83835857D01*
X26011190Y83835857D01*
X25820714Y83883476D01*
X25725476Y83931095D01*
X25630238Y84026333D01*
X25582619Y84169190D01*
X25582619Y84407285D01*
X25582619Y82645380D02*
X26582619Y82645380D01*
X25630238Y82216809D02*
X25582619Y82121571D01*
X25582619Y81931095D01*
X25630238Y81835857D01*
X25725476Y81788238D01*
X25773095Y81788238D01*
X25868333Y81835857D01*
X25915952Y81931095D01*
X25915952Y82073952D01*
X25963571Y82169190D01*
X26058809Y82216809D01*
X26106428Y82216809D01*
X26201666Y82169190D01*
X26249285Y82073952D01*
X26249285Y81931095D01*
X26201666Y81835857D01*
X25582619Y81216809D02*
X25630238Y81312047D01*
X25677857Y81359666D01*
X25773095Y81407285D01*
X26058809Y81407285D01*
X26154047Y81359666D01*
X26201666Y81312047D01*
X26249285Y81216809D01*
X26249285Y81073952D01*
X26201666Y80978714D01*
X26154047Y80931095D01*
X26058809Y80883476D01*
X25773095Y80883476D01*
X25677857Y80931095D01*
X25630238Y80978714D01*
X25582619Y81073952D01*
X25582619Y81216809D01*
X18454619Y85946904D02*
X18454619Y86423095D01*
X17978428Y86470714D01*
X18026047Y86423095D01*
X18073666Y86327857D01*
X18073666Y86089761D01*
X18026047Y85994523D01*
X17978428Y85946904D01*
X17883190Y85899285D01*
X17645095Y85899285D01*
X17549857Y85946904D01*
X17502238Y85994523D01*
X17454619Y86089761D01*
X17454619Y86327857D01*
X17502238Y86423095D01*
X17549857Y86470714D01*
X17549857Y85470714D02*
X17502238Y85423095D01*
X17454619Y85470714D01*
X17502238Y85518333D01*
X17549857Y85470714D01*
X17454619Y85470714D01*
X18454619Y84518333D02*
X18454619Y84994523D01*
X17978428Y85042142D01*
X18026047Y84994523D01*
X18073666Y84899285D01*
X18073666Y84661190D01*
X18026047Y84565952D01*
X17978428Y84518333D01*
X17883190Y84470714D01*
X17645095Y84470714D01*
X17549857Y84518333D01*
X17502238Y84565952D01*
X17454619Y84661190D01*
X17454619Y84899285D01*
X17502238Y84994523D01*
X17549857Y85042142D01*
X18454619Y83423095D02*
X17454619Y83089761D01*
X18454619Y82756428D01*
X17454619Y81661190D02*
X18454619Y81661190D01*
X17502238Y81232619D02*
X17454619Y81137380D01*
X17454619Y80946904D01*
X17502238Y80851666D01*
X17597476Y80804047D01*
X17645095Y80804047D01*
X17740333Y80851666D01*
X17787952Y80946904D01*
X17787952Y81089761D01*
X17835571Y81185000D01*
X17930809Y81232619D01*
X17978428Y81232619D01*
X18073666Y81185000D01*
X18121285Y81089761D01*
X18121285Y80946904D01*
X18073666Y80851666D01*
X17454619Y80232619D02*
X17502238Y80327857D01*
X17549857Y80375476D01*
X17645095Y80423095D01*
X17930809Y80423095D01*
X18026047Y80375476D01*
X18073666Y80327857D01*
X18121285Y80232619D01*
X18121285Y80089761D01*
X18073666Y79994523D01*
X18026047Y79946904D01*
X17930809Y79899285D01*
X17645095Y79899285D01*
X17549857Y79946904D01*
X17502238Y79994523D01*
X17454619Y80089761D01*
X17454619Y80232619D01*
D13*
G04 #@! TO.C,J5*
X24330000Y82000000D02*
X24330000Y80670000D01*
X24330000Y80670000D02*
X23000000Y80670000D01*
X21730000Y80670000D02*
X19130000Y80670000D01*
X19130000Y83330000D02*
X19130000Y80670000D01*
X21730000Y83330000D02*
X19130000Y83330000D01*
X21730000Y83330000D02*
X21730000Y80670000D01*
G04 #@! TO.C,J3*
X3670000Y69730000D02*
X6330000Y69730000D01*
X3670000Y69730000D02*
X3670000Y67130000D01*
X3670000Y67130000D02*
X6330000Y67130000D01*
X6330000Y69730000D02*
X6330000Y67130000D01*
X6330000Y72330000D02*
X6330000Y71000000D01*
X5000000Y72330000D02*
X6330000Y72330000D01*
D14*
G04 #@! TO.C,C5*
X92695000Y64805000D02*
X92695000Y70505000D01*
X87695000Y64805000D02*
X87695000Y70505000D01*
G04 #@! TO.C,C1*
X71195000Y64805000D02*
X71195000Y70505000D01*
X76195000Y64805000D02*
X76195000Y70505000D01*
G04 #@! TO.C,C3*
X87195000Y64805000D02*
X87195000Y70505000D01*
X82195000Y64805000D02*
X82195000Y70505000D01*
G04 #@! TO.C,C4*
X65695000Y64805000D02*
X65695000Y70505000D01*
X70695000Y64805000D02*
X70695000Y70505000D01*
G04 #@! TO.C,C6*
X35005000Y37305000D02*
X40705000Y37305000D01*
X35005000Y42305000D02*
X40705000Y42305000D01*
G04 #@! TO.C,C7*
X35005000Y31305000D02*
X40705000Y31305000D01*
X35005000Y26305000D02*
X40705000Y26305000D01*
G04 #@! TO.C,C9*
X35005000Y20805000D02*
X40705000Y20805000D01*
X35005000Y25805000D02*
X40705000Y25805000D01*
G04 #@! TO.C,C10*
X35005000Y36805000D02*
X40705000Y36805000D01*
X35005000Y31805000D02*
X40705000Y31805000D01*
G04 #@! TO.C,C2*
X81695000Y64805000D02*
X81695000Y70505000D01*
X76695000Y64805000D02*
X76695000Y70505000D01*
G04 #@! TO.C,C8*
X35005000Y47805000D02*
X40705000Y47805000D01*
X35005000Y42805000D02*
X40705000Y42805000D01*
G04 #@! TO.C,L1*
X20579000Y47825000D02*
X20325000Y47825000D01*
X20579000Y54175000D02*
X20325000Y54175000D01*
X26675000Y47825000D02*
X26421000Y47825000D01*
X26675000Y54175000D02*
X26421000Y54175000D01*
X26675000Y54175000D02*
X26675000Y47825000D01*
X20325000Y54175000D02*
X20325000Y47825000D01*
G04 #@! TO.C,L2*
X55675000Y47825000D02*
X55675000Y54175000D01*
X49325000Y47825000D02*
X49325000Y54175000D01*
X49325000Y47825000D02*
X49579000Y47825000D01*
X49325000Y54175000D02*
X49579000Y54175000D01*
X55421000Y47825000D02*
X55675000Y47825000D01*
X55421000Y54175000D02*
X55675000Y54175000D01*
D13*
G04 #@! TO.C,J2*
X40230000Y83330000D02*
X40230000Y80670000D01*
X40230000Y83330000D02*
X32550000Y83330000D01*
X32550000Y83330000D02*
X32550000Y80670000D01*
X40230000Y80670000D02*
X32550000Y80670000D01*
X42830000Y80670000D02*
X41500000Y80670000D01*
X42830000Y82000000D02*
X42830000Y80670000D01*
D15*
G04 #@! TO.C,J4*
X110650000Y64190000D02*
X110650000Y71810000D01*
X120048000Y72445000D02*
X117000000Y72445000D01*
X120048000Y63555000D02*
X120048000Y72445000D01*
X117000000Y63555000D02*
X120048000Y63555000D01*
X111920000Y72445000D02*
X117000000Y72445000D01*
X111920000Y63555000D02*
X111920000Y72445000D01*
X117000000Y63555000D02*
X111920000Y63555000D01*
G04 #@! TO.C,J1*
X34027000Y13335000D02*
X41647000Y13335000D01*
X42282000Y3937000D02*
X42282000Y6985000D01*
X33392000Y3937000D02*
X42282000Y3937000D01*
X33392000Y6985000D02*
X33392000Y3937000D01*
X42282000Y12065000D02*
X42282000Y6985000D01*
X33392000Y12065000D02*
X42282000Y12065000D01*
X33392000Y6985000D02*
X33392000Y12065000D01*
D16*
G04 #@! TO.C,U1*
X57947000Y60261000D02*
X57947000Y59753000D01*
X57947000Y62293000D02*
X57947000Y61531000D01*
X57947000Y64325000D02*
X57947000Y63563000D01*
X57947000Y66357000D02*
X57947000Y65595000D01*
X57947000Y71183000D02*
X57947000Y67627000D01*
X24038000Y75247000D02*
X26324000Y75247000D01*
X17053000Y75247000D02*
X22768000Y75247000D01*
X17053000Y62039000D02*
X17053000Y59753000D01*
X17053000Y75247000D02*
X17053000Y74485000D01*
X17053000Y73215000D02*
X17053000Y72453000D01*
X17053000Y71183000D02*
X17053000Y70421000D01*
X17053000Y69151000D02*
X17053000Y68135000D01*
X17053000Y59753000D02*
X57947000Y59753000D01*
X57947000Y72453000D02*
X57947000Y75247000D01*
X27594000Y75247000D02*
X57947000Y75247000D01*
X17053000Y63309000D02*
X17053000Y66849000D01*
G04 #@! TO.C,C5*
D14*
X90908142Y62571333D02*
X90955761Y62523714D01*
X91003380Y62380857D01*
X91003380Y62285619D01*
X90955761Y62142761D01*
X90860523Y62047523D01*
X90765285Y61999904D01*
X90574809Y61952285D01*
X90431952Y61952285D01*
X90241476Y61999904D01*
X90146238Y62047523D01*
X90051000Y62142761D01*
X90003380Y62285619D01*
X90003380Y62380857D01*
X90051000Y62523714D01*
X90098619Y62571333D01*
X90003380Y63476095D02*
X90003380Y62999904D01*
X90479571Y62952285D01*
X90431952Y62999904D01*
X90384333Y63095142D01*
X90384333Y63333238D01*
X90431952Y63428476D01*
X90479571Y63476095D01*
X90574809Y63523714D01*
X90812904Y63523714D01*
X90908142Y63476095D01*
X90955761Y63428476D01*
X91003380Y63333238D01*
X91003380Y63095142D01*
X90955761Y62999904D01*
X90908142Y62952285D01*
G04 #@! TO.C,C1*
X74144142Y62571333D02*
X74191761Y62523714D01*
X74239380Y62380857D01*
X74239380Y62285619D01*
X74191761Y62142761D01*
X74096523Y62047523D01*
X74001285Y61999904D01*
X73810809Y61952285D01*
X73667952Y61952285D01*
X73477476Y61999904D01*
X73382238Y62047523D01*
X73287000Y62142761D01*
X73239380Y62285619D01*
X73239380Y62380857D01*
X73287000Y62523714D01*
X73334619Y62571333D01*
X74239380Y63523714D02*
X74239380Y62952285D01*
X74239380Y63238000D02*
X73239380Y63238000D01*
X73382238Y63142761D01*
X73477476Y63047523D01*
X73525095Y62952285D01*
G04 #@! TO.C,C3*
X85447142Y62444333D02*
X85494761Y62396714D01*
X85542380Y62253857D01*
X85542380Y62158619D01*
X85494761Y62015761D01*
X85399523Y61920523D01*
X85304285Y61872904D01*
X85113809Y61825285D01*
X84970952Y61825285D01*
X84780476Y61872904D01*
X84685238Y61920523D01*
X84590000Y62015761D01*
X84542380Y62158619D01*
X84542380Y62253857D01*
X84590000Y62396714D01*
X84637619Y62444333D01*
X84542380Y62777666D02*
X84542380Y63396714D01*
X84923333Y63063380D01*
X84923333Y63206238D01*
X84970952Y63301476D01*
X85018571Y63349095D01*
X85113809Y63396714D01*
X85351904Y63396714D01*
X85447142Y63349095D01*
X85494761Y63301476D01*
X85542380Y63206238D01*
X85542380Y62920523D01*
X85494761Y62825285D01*
X85447142Y62777666D01*
G04 #@! TO.C,C4*
X68556142Y62444333D02*
X68603761Y62396714D01*
X68651380Y62253857D01*
X68651380Y62158619D01*
X68603761Y62015761D01*
X68508523Y61920523D01*
X68413285Y61872904D01*
X68222809Y61825285D01*
X68079952Y61825285D01*
X67889476Y61872904D01*
X67794238Y61920523D01*
X67699000Y62015761D01*
X67651380Y62158619D01*
X67651380Y62253857D01*
X67699000Y62396714D01*
X67746619Y62444333D01*
X67984714Y63301476D02*
X68651380Y63301476D01*
X67603761Y63063380D02*
X68318047Y62825285D01*
X68318047Y63444333D01*
G04 #@! TO.C,C6*
X31964333Y39012857D02*
X31916714Y38965238D01*
X31773857Y38917619D01*
X31678619Y38917619D01*
X31535761Y38965238D01*
X31440523Y39060476D01*
X31392904Y39155714D01*
X31345285Y39346190D01*
X31345285Y39489047D01*
X31392904Y39679523D01*
X31440523Y39774761D01*
X31535761Y39870000D01*
X31678619Y39917619D01*
X31773857Y39917619D01*
X31916714Y39870000D01*
X31964333Y39822380D01*
X32821476Y39917619D02*
X32631000Y39917619D01*
X32535761Y39870000D01*
X32488142Y39822380D01*
X32392904Y39679523D01*
X32345285Y39489047D01*
X32345285Y39108095D01*
X32392904Y39012857D01*
X32440523Y38965238D01*
X32535761Y38917619D01*
X32726238Y38917619D01*
X32821476Y38965238D01*
X32869095Y39012857D01*
X32916714Y39108095D01*
X32916714Y39346190D01*
X32869095Y39441428D01*
X32821476Y39489047D01*
X32726238Y39536666D01*
X32535761Y39536666D01*
X32440523Y39489047D01*
X32392904Y39441428D01*
X32345285Y39346190D01*
G04 #@! TO.C,C7*
X31964333Y28217857D02*
X31916714Y28170238D01*
X31773857Y28122619D01*
X31678619Y28122619D01*
X31535761Y28170238D01*
X31440523Y28265476D01*
X31392904Y28360714D01*
X31345285Y28551190D01*
X31345285Y28694047D01*
X31392904Y28884523D01*
X31440523Y28979761D01*
X31535761Y29075000D01*
X31678619Y29122619D01*
X31773857Y29122619D01*
X31916714Y29075000D01*
X31964333Y29027380D01*
X32297666Y29122619D02*
X32964333Y29122619D01*
X32535761Y28122619D01*
G04 #@! TO.C,C9*
X32091333Y22375857D02*
X32043714Y22328238D01*
X31900857Y22280619D01*
X31805619Y22280619D01*
X31662761Y22328238D01*
X31567523Y22423476D01*
X31519904Y22518714D01*
X31472285Y22709190D01*
X31472285Y22852047D01*
X31519904Y23042523D01*
X31567523Y23137761D01*
X31662761Y23233000D01*
X31805619Y23280619D01*
X31900857Y23280619D01*
X32043714Y23233000D01*
X32091333Y23185380D01*
X32567523Y22280619D02*
X32758000Y22280619D01*
X32853238Y22328238D01*
X32900857Y22375857D01*
X32996095Y22518714D01*
X33043714Y22709190D01*
X33043714Y23090142D01*
X32996095Y23185380D01*
X32948476Y23233000D01*
X32853238Y23280619D01*
X32662761Y23280619D01*
X32567523Y23233000D01*
X32519904Y23185380D01*
X32472285Y23090142D01*
X32472285Y22852047D01*
X32519904Y22756809D01*
X32567523Y22709190D01*
X32662761Y22661571D01*
X32853238Y22661571D01*
X32948476Y22709190D01*
X32996095Y22756809D01*
X33043714Y22852047D01*
G04 #@! TO.C,C10*
X31107142Y33551857D02*
X31059523Y33504238D01*
X30916666Y33456619D01*
X30821428Y33456619D01*
X30678571Y33504238D01*
X30583333Y33599476D01*
X30535714Y33694714D01*
X30488095Y33885190D01*
X30488095Y34028047D01*
X30535714Y34218523D01*
X30583333Y34313761D01*
X30678571Y34409000D01*
X30821428Y34456619D01*
X30916666Y34456619D01*
X31059523Y34409000D01*
X31107142Y34361380D01*
X32059523Y33456619D02*
X31488095Y33456619D01*
X31773809Y33456619D02*
X31773809Y34456619D01*
X31678571Y34313761D01*
X31583333Y34218523D01*
X31488095Y34170904D01*
X32678571Y34456619D02*
X32773809Y34456619D01*
X32869047Y34409000D01*
X32916666Y34361380D01*
X32964285Y34266142D01*
X33011904Y34075666D01*
X33011904Y33837571D01*
X32964285Y33647095D01*
X32916666Y33551857D01*
X32869047Y33504238D01*
X32773809Y33456619D01*
X32678571Y33456619D01*
X32583333Y33504238D01*
X32535714Y33551857D01*
X32488095Y33647095D01*
X32440476Y33837571D01*
X32440476Y34075666D01*
X32488095Y34266142D01*
X32535714Y34361380D01*
X32583333Y34409000D01*
X32678571Y34456619D01*
G04 #@! TO.C,C2*
X79986142Y62444333D02*
X80033761Y62396714D01*
X80081380Y62253857D01*
X80081380Y62158619D01*
X80033761Y62015761D01*
X79938523Y61920523D01*
X79843285Y61872904D01*
X79652809Y61825285D01*
X79509952Y61825285D01*
X79319476Y61872904D01*
X79224238Y61920523D01*
X79129000Y62015761D01*
X79081380Y62158619D01*
X79081380Y62253857D01*
X79129000Y62396714D01*
X79176619Y62444333D01*
X79176619Y62825285D02*
X79129000Y62872904D01*
X79081380Y62968142D01*
X79081380Y63206238D01*
X79129000Y63301476D01*
X79176619Y63349095D01*
X79271857Y63396714D01*
X79367095Y63396714D01*
X79509952Y63349095D01*
X80081380Y62777666D01*
X80081380Y63396714D01*
G04 #@! TO.C,C8*
X32091333Y44854857D02*
X32043714Y44807238D01*
X31900857Y44759619D01*
X31805619Y44759619D01*
X31662761Y44807238D01*
X31567523Y44902476D01*
X31519904Y44997714D01*
X31472285Y45188190D01*
X31472285Y45331047D01*
X31519904Y45521523D01*
X31567523Y45616761D01*
X31662761Y45712000D01*
X31805619Y45759619D01*
X31900857Y45759619D01*
X32043714Y45712000D01*
X32091333Y45664380D01*
X32662761Y45331047D02*
X32567523Y45378666D01*
X32519904Y45426285D01*
X32472285Y45521523D01*
X32472285Y45569142D01*
X32519904Y45664380D01*
X32567523Y45712000D01*
X32662761Y45759619D01*
X32853238Y45759619D01*
X32948476Y45712000D01*
X32996095Y45664380D01*
X33043714Y45569142D01*
X33043714Y45521523D01*
X32996095Y45426285D01*
X32948476Y45378666D01*
X32853238Y45331047D01*
X32662761Y45331047D01*
X32567523Y45283428D01*
X32519904Y45235809D01*
X32472285Y45140571D01*
X32472285Y44950095D01*
X32519904Y44854857D01*
X32567523Y44807238D01*
X32662761Y44759619D01*
X32853238Y44759619D01*
X32948476Y44807238D01*
X32996095Y44854857D01*
X33043714Y44950095D01*
X33043714Y45140571D01*
X32996095Y45235809D01*
X32948476Y45283428D01*
X32853238Y45331047D01*
G04 #@! TO.C,L1*
D17*
X19756380Y50887333D02*
X19756380Y50411142D01*
X18756380Y50411142D01*
X19756380Y51744476D02*
X19756380Y51173047D01*
X19756380Y51458761D02*
X18756380Y51458761D01*
X18899238Y51363523D01*
X18994476Y51268285D01*
X19042095Y51173047D01*
G04 #@! TO.C,L2*
X57856380Y50506333D02*
X57856380Y50030142D01*
X56856380Y50030142D01*
X56951619Y50792047D02*
X56904000Y50839666D01*
X56856380Y50934904D01*
X56856380Y51173000D01*
X56904000Y51268238D01*
X56951619Y51315857D01*
X57046857Y51363476D01*
X57142095Y51363476D01*
X57284952Y51315857D01*
X57856380Y50744428D01*
X57856380Y51363476D01*
G04 #@! TO.C,J2*
D14*
X43722380Y81666666D02*
X44436666Y81666666D01*
X44579523Y81619047D01*
X44674761Y81523809D01*
X44722380Y81380952D01*
X44722380Y81285714D01*
X43817619Y82095238D02*
X43770000Y82142857D01*
X43722380Y82238095D01*
X43722380Y82476190D01*
X43770000Y82571428D01*
X43817619Y82619047D01*
X43912857Y82666666D01*
X44008095Y82666666D01*
X44150952Y82619047D01*
X44722380Y82047619D01*
X44722380Y82666666D01*
G04 #@! TO.C,U1*
X58328095Y63737619D02*
X58328095Y62928095D01*
X58375714Y62832857D01*
X58423333Y62785238D01*
X58518571Y62737619D01*
X58709047Y62737619D01*
X58804285Y62785238D01*
X58851904Y62832857D01*
X58899523Y62928095D01*
X58899523Y63737619D01*
X59899523Y62737619D02*
X59328095Y62737619D01*
X59613809Y62737619D02*
X59613809Y63737619D01*
X59518571Y63594761D01*
X59423333Y63499523D01*
X59328095Y63451904D01*
G04 #@! TD*
M02*
