M48
;DRILL file {KiCad (5.0.0)} date 07/23/19 14:46:36
;FORMAT={-:-/ absolute / metric / decimal}
FMAT,2
METRIC,TZ
T1C0.559
T2C0.813
T3C1.000
T4C1.905
T5C3.000
%
G90
G05
M71
T1
X36.5Y72.8
X36.5Y62.038
X38.6Y72.8
X38.6Y62.038
T2
X15.1Y73.8
X15.1Y71.8
X15.1Y67.5
X19.041Y64.516
X19.93Y69.723
X35.5Y73.773
X35.5Y71.827
X35.5Y63.011
X35.5Y61.065
X37.5Y73.773
X37.5Y71.827
X37.5Y63.011
X37.5Y61.065
X39.5Y73.773
X39.5Y63.011
X39.615Y71.827
X39.615Y61.065
X59.262Y57.912
X61.Y68.
X61.167Y60.452
X66.5Y70.5
X66.5Y64.8
X68.2Y70.5
X68.2Y64.8
X69.9Y70.5
X69.9Y64.8
X72.Y70.5
X72.Y64.8
X73.7Y70.5
X73.7Y64.8
X75.4Y70.5
X75.4Y64.8
X77.5Y70.5
X77.5Y64.8
X79.2Y70.5
X79.2Y64.8
X80.9Y70.5
X80.9Y64.8
X83.Y70.5
X83.Y64.8
X84.7Y70.5
X84.7Y64.8
X86.4Y70.5
X86.4Y64.8
X88.5Y70.5
X88.5Y64.8
X90.2Y70.5
X90.2Y64.8
X91.9Y70.5
X91.9Y64.8
T3
X20.46Y82.
X23.Y82.
X33.88Y82.
X36.42Y82.
X38.96Y82.
X41.5Y82.
X5.Y71.
X5.Y68.46
T4
X35.856Y6.985
X39.818Y6.985
X117.Y69.981
X117.Y66.019
T5
X5.Y85.
X120.Y85.
X5.Y5.
X120.Y5.
T0
M30
