G04 #@! TF.GenerationSoftware,KiCad,Pcbnew,(5.0.0)*
G04 #@! TF.CreationDate,2019-06-04T18:43:43-07:00*
G04 #@! TF.ProjectId,SSB Cap Board - Rev2,5353422043617020426F617264202D20,rev?*
G04 #@! TF.SameCoordinates,Original*
G04 #@! TF.FileFunction,Copper,L2,Bot,Signal*
G04 #@! TF.FilePolarity,Positive*
%FSLAX46Y46*%
G04 Gerber Fmt 4.6, Leading zero omitted, Abs format (unit mm)*
G04 Created by KiCad (PCBNEW (5.0.0)) date 06/04/19 18:43:43*
%MOMM*%
%LPD*%
G01*
G04 APERTURE LIST*
G04 #@! TA.AperFunction,BGAPad,CuDef*
%ADD10C,1.000000*%
G04 #@! TD*
G04 #@! TA.AperFunction,SMDPad,CuDef*
%ADD11R,1.250000X5.000000*%
G04 #@! TD*
G04 #@! TA.AperFunction,ComponentPad*
%ADD12C,6.400000*%
G04 #@! TD*
G04 #@! TA.AperFunction,ComponentPad*
%ADD13C,0.800000*%
G04 #@! TD*
G04 #@! TA.AperFunction,ViaPad*
%ADD14C,0.889000*%
G04 #@! TD*
G04 #@! TA.AperFunction,Conductor*
%ADD15C,1.000000*%
G04 #@! TD*
G04 APERTURE END LIST*
D10*
G04 #@! TO.P,REF\002A\002A,~*
G04 #@! TO.N,N/C*
X63500000Y33800000D03*
G04 #@! TD*
G04 #@! TO.P,REF\002A\002A,~*
G04 #@! TO.N,N/C*
X13200000Y-3800000D03*
G04 #@! TD*
G04 #@! TO.P,REF\002A\002A,~*
G04 #@! TO.N,N/C*
X15800000Y104500000D03*
G04 #@! TD*
D11*
G04 #@! TO.P,C579,1*
G04 #@! TO.N,/C2+*
X28095000Y75405000D03*
G04 #@! TO.P,C579,2*
G04 #@! TO.N,/C2-*
X22395000Y75405000D03*
G04 #@! TD*
G04 #@! TO.P,C577,1*
G04 #@! TO.N,/C2+*
X28095000Y86605000D03*
G04 #@! TO.P,C577,2*
G04 #@! TO.N,/C2-*
X22395000Y86605000D03*
G04 #@! TD*
G04 #@! TO.P,C575,1*
G04 #@! TO.N,/C2+*
X41695000Y92205000D03*
G04 #@! TO.P,C575,2*
G04 #@! TO.N,/C2-*
X35995000Y92205000D03*
G04 #@! TD*
G04 #@! TO.P,C574,2*
G04 #@! TO.N,/C2-*
X48505000Y75395000D03*
G04 #@! TO.P,C574,1*
G04 #@! TO.N,/C2+*
X42805000Y75395000D03*
G04 #@! TD*
G04 #@! TO.P,C600,1*
G04 #@! TO.N,/C2+*
X56405000Y75395000D03*
G04 #@! TO.P,C600,2*
G04 #@! TO.N,/C2-*
X62105000Y75395000D03*
G04 #@! TD*
G04 #@! TO.P,C569,1*
G04 #@! TO.N,/C2+*
X28095000Y81005000D03*
G04 #@! TO.P,C569,2*
G04 #@! TO.N,/C2-*
X22395000Y81005000D03*
G04 #@! TD*
G04 #@! TO.P,C567,1*
G04 #@! TO.N,/C2+*
X28095000Y92205000D03*
G04 #@! TO.P,C567,2*
G04 #@! TO.N,/C2-*
X22395000Y92205000D03*
G04 #@! TD*
G04 #@! TO.P,C571,2*
G04 #@! TO.N,/C2-*
X62105000Y69795000D03*
G04 #@! TO.P,C571,1*
G04 #@! TO.N,/C2+*
X56405000Y69795000D03*
G04 #@! TD*
G04 #@! TO.P,C598,1*
G04 #@! TO.N,/C2+*
X41695000Y25305000D03*
G04 #@! TO.P,C598,2*
G04 #@! TO.N,/C2-*
X35995000Y25305000D03*
G04 #@! TD*
G04 #@! TO.P,C594,1*
G04 #@! TO.N,/C2+*
X28095000Y97805000D03*
G04 #@! TO.P,C594,2*
G04 #@! TO.N,/C2-*
X22395000Y97805000D03*
G04 #@! TD*
G04 #@! TO.P,C582,1*
G04 #@! TO.N,/C2+*
X41695000Y103405000D03*
G04 #@! TO.P,C582,2*
G04 #@! TO.N,/C2-*
X35995000Y103405000D03*
G04 #@! TD*
G04 #@! TO.P,C580,2*
G04 #@! TO.N,/C2-*
X62105000Y92195000D03*
G04 #@! TO.P,C580,1*
G04 #@! TO.N,/C2+*
X56405000Y92195000D03*
G04 #@! TD*
G04 #@! TO.P,C589,1*
G04 #@! TO.N,/C2+*
X42805000Y64195000D03*
G04 #@! TO.P,C589,2*
G04 #@! TO.N,/C2-*
X48505000Y64195000D03*
G04 #@! TD*
G04 #@! TO.P,C587,1*
G04 #@! TO.N,/C2+*
X56405000Y64195000D03*
G04 #@! TO.P,C587,2*
G04 #@! TO.N,/C2-*
X62105000Y64195000D03*
G04 #@! TD*
G04 #@! TO.P,C586,2*
G04 #@! TO.N,/C2-*
X49595000Y47405000D03*
G04 #@! TO.P,C586,1*
G04 #@! TO.N,/C2+*
X55295000Y47405000D03*
G04 #@! TD*
G04 #@! TO.P,C583,1*
G04 #@! TO.N,/C2+*
X28095000Y103405000D03*
G04 #@! TO.P,C583,2*
G04 #@! TO.N,/C2-*
X22395000Y103405000D03*
G04 #@! TD*
G04 #@! TO.P,C581,1*
G04 #@! TO.N,/C2+*
X29205000Y52995000D03*
G04 #@! TO.P,C581,2*
G04 #@! TO.N,/C2-*
X34905000Y52995000D03*
G04 #@! TD*
G04 #@! TO.P,C505,2*
G04 #@! TO.N,/C2-*
X48505000Y19695000D03*
G04 #@! TO.P,C505,1*
G04 #@! TO.N,/C2+*
X42805000Y19695000D03*
G04 #@! TD*
G04 #@! TO.P,C503,2*
G04 #@! TO.N,/C2-*
X22395000Y14105000D03*
G04 #@! TO.P,C503,1*
G04 #@! TO.N,/C2+*
X28095000Y14105000D03*
G04 #@! TD*
G04 #@! TO.P,C502,1*
G04 #@! TO.N,/C2+*
X56405000Y103395000D03*
G04 #@! TO.P,C502,2*
G04 #@! TO.N,/C2-*
X62105000Y103395000D03*
G04 #@! TD*
G04 #@! TO.P,C501,2*
G04 #@! TO.N,/C2-*
X34905000Y103395000D03*
G04 #@! TO.P,C501,1*
G04 #@! TO.N,/C2+*
X29205000Y103395000D03*
G04 #@! TD*
G04 #@! TO.P,C500,1*
G04 #@! TO.N,/C2+*
X56405000Y25295000D03*
G04 #@! TO.P,C500,2*
G04 #@! TO.N,/C2-*
X62105000Y25295000D03*
G04 #@! TD*
G04 #@! TO.P,C498,2*
G04 #@! TO.N,/C2-*
X49595000Y-2695000D03*
G04 #@! TO.P,C498,1*
G04 #@! TO.N,/C2+*
X55295000Y-2695000D03*
G04 #@! TD*
G04 #@! TO.P,C452,1*
G04 #@! TO.N,/C2+*
X42805000Y14095000D03*
G04 #@! TO.P,C452,2*
G04 #@! TO.N,/C2-*
X48505000Y14095000D03*
G04 #@! TD*
G04 #@! TO.P,C449,2*
G04 #@! TO.N,/C2-*
X35995000Y53005000D03*
G04 #@! TO.P,C449,1*
G04 #@! TO.N,/C2+*
X41695000Y53005000D03*
G04 #@! TD*
G04 #@! TO.P,C496,1*
G04 #@! TO.N,/C2+*
X28095000Y64205000D03*
G04 #@! TO.P,C496,2*
G04 #@! TO.N,/C2-*
X22395000Y64205000D03*
G04 #@! TD*
G04 #@! TO.P,C495,2*
G04 #@! TO.N,/C2-*
X34905000Y2895000D03*
G04 #@! TO.P,C495,1*
G04 #@! TO.N,/C2+*
X29205000Y2895000D03*
G04 #@! TD*
G04 #@! TO.P,C493,2*
G04 #@! TO.N,/C2-*
X34905000Y97795000D03*
G04 #@! TO.P,C493,1*
G04 #@! TO.N,/C2+*
X29205000Y97795000D03*
G04 #@! TD*
G04 #@! TO.P,C492,1*
G04 #@! TO.N,/C2+*
X56405000Y19695000D03*
G04 #@! TO.P,C492,2*
G04 #@! TO.N,/C2-*
X62105000Y19695000D03*
G04 #@! TD*
G04 #@! TO.P,C491,2*
G04 #@! TO.N,/C2-*
X49595000Y2905000D03*
G04 #@! TO.P,C491,1*
G04 #@! TO.N,/C2+*
X55295000Y2905000D03*
G04 #@! TD*
G04 #@! TO.P,C490,1*
G04 #@! TO.N,/C2+*
X42805000Y8495000D03*
G04 #@! TO.P,C490,2*
G04 #@! TO.N,/C2-*
X48505000Y8495000D03*
G04 #@! TD*
G04 #@! TO.P,C499,2*
G04 #@! TO.N,/C2-*
X35995000Y58605000D03*
G04 #@! TO.P,C499,1*
G04 #@! TO.N,/C2+*
X41695000Y58605000D03*
G04 #@! TD*
G04 #@! TO.P,C497,1*
G04 #@! TO.N,/C2+*
X28095000Y-2695000D03*
G04 #@! TO.P,C497,2*
G04 #@! TO.N,/C2-*
X22395000Y-2695000D03*
G04 #@! TD*
G04 #@! TO.P,C524,2*
G04 #@! TO.N,/C2-*
X35995000Y47405000D03*
G04 #@! TO.P,C524,1*
G04 #@! TO.N,/C2+*
X41695000Y47405000D03*
G04 #@! TD*
G04 #@! TO.P,C523,1*
G04 #@! TO.N,/C2+*
X29205000Y-2705000D03*
G04 #@! TO.P,C523,2*
G04 #@! TO.N,/C2-*
X34905000Y-2705000D03*
G04 #@! TD*
G04 #@! TO.P,C522,2*
G04 #@! TO.N,/C2-*
X49595000Y81005000D03*
G04 #@! TO.P,C522,1*
G04 #@! TO.N,/C2+*
X55295000Y81005000D03*
G04 #@! TD*
G04 #@! TO.P,C521,1*
G04 #@! TO.N,/C2+*
X29205000Y92195000D03*
G04 #@! TO.P,C521,2*
G04 #@! TO.N,/C2-*
X34905000Y92195000D03*
G04 #@! TD*
G04 #@! TO.P,C520,2*
G04 #@! TO.N,/C2-*
X62105000Y14095000D03*
G04 #@! TO.P,C520,1*
G04 #@! TO.N,/C2+*
X56405000Y14095000D03*
G04 #@! TD*
G04 #@! TO.P,C519,1*
G04 #@! TO.N,/C2+*
X55295000Y8505000D03*
G04 #@! TO.P,C519,2*
G04 #@! TO.N,/C2-*
X49595000Y8505000D03*
G04 #@! TD*
G04 #@! TO.P,C518,2*
G04 #@! TO.N,/C2-*
X48505000Y2895000D03*
G04 #@! TO.P,C518,1*
G04 #@! TO.N,/C2+*
X42805000Y2895000D03*
G04 #@! TD*
G04 #@! TO.P,C480,1*
G04 #@! TO.N,/C2+*
X41695000Y64205000D03*
G04 #@! TO.P,C480,2*
G04 #@! TO.N,/C2-*
X35995000Y64205000D03*
G04 #@! TD*
G04 #@! TO.P,C506,2*
G04 #@! TO.N,/C2-*
X22395000Y2905000D03*
G04 #@! TO.P,C506,1*
G04 #@! TO.N,/C2+*
X28095000Y2905000D03*
G04 #@! TD*
G04 #@! TO.P,C515,1*
G04 #@! TO.N,/C2+*
X42805000Y103395000D03*
G04 #@! TO.P,C515,2*
G04 #@! TO.N,/C2-*
X48505000Y103395000D03*
G04 #@! TD*
G04 #@! TO.P,C514,2*
G04 #@! TO.N,/C2-*
X35995000Y-2695000D03*
G04 #@! TO.P,C514,1*
G04 #@! TO.N,/C2+*
X41695000Y-2695000D03*
G04 #@! TD*
G04 #@! TO.P,C513,1*
G04 #@! TO.N,/C2+*
X56405000Y41795000D03*
G04 #@! TO.P,C513,2*
G04 #@! TO.N,/C2-*
X62105000Y41795000D03*
G04 #@! TD*
G04 #@! TO.P,C512,2*
G04 #@! TO.N,/C2-*
X49595000Y86605000D03*
G04 #@! TO.P,C512,1*
G04 #@! TO.N,/C2+*
X55295000Y86605000D03*
G04 #@! TD*
G04 #@! TO.P,C511,1*
G04 #@! TO.N,/C2+*
X29205000Y86595000D03*
G04 #@! TO.P,C511,2*
G04 #@! TO.N,/C2-*
X34905000Y86595000D03*
G04 #@! TD*
G04 #@! TO.P,C510,2*
G04 #@! TO.N,/C2-*
X62105000Y8495000D03*
G04 #@! TO.P,C510,1*
G04 #@! TO.N,/C2+*
X56405000Y8495000D03*
G04 #@! TD*
G04 #@! TO.P,C509,1*
G04 #@! TO.N,/C2+*
X55295000Y14105000D03*
G04 #@! TO.P,C509,2*
G04 #@! TO.N,/C2-*
X49595000Y14105000D03*
G04 #@! TD*
G04 #@! TO.P,C507,2*
G04 #@! TO.N,/C2-*
X48505000Y-2705000D03*
G04 #@! TO.P,C507,1*
G04 #@! TO.N,/C2+*
X42805000Y-2705000D03*
G04 #@! TD*
G04 #@! TO.P,C516,1*
G04 #@! TO.N,/C2+*
X41695000Y69805000D03*
G04 #@! TO.P,C516,2*
G04 #@! TO.N,/C2-*
X35995000Y69805000D03*
G04 #@! TD*
G04 #@! TO.P,C469,2*
G04 #@! TO.N,/C2-*
X22395000Y8505000D03*
G04 #@! TO.P,C469,1*
G04 #@! TO.N,/C2+*
X28095000Y8505000D03*
G04 #@! TD*
G04 #@! TO.P,C468,1*
G04 #@! TO.N,/C2+*
X42805000Y97795000D03*
G04 #@! TO.P,C468,2*
G04 #@! TO.N,/C2-*
X48505000Y97795000D03*
G04 #@! TD*
G04 #@! TO.P,C467,2*
G04 #@! TO.N,/C2-*
X35995000Y2905000D03*
G04 #@! TO.P,C467,1*
G04 #@! TO.N,/C2+*
X41695000Y2905000D03*
G04 #@! TD*
G04 #@! TO.P,C466,1*
G04 #@! TO.N,/C2+*
X55295000Y41805000D03*
G04 #@! TO.P,C466,2*
G04 #@! TO.N,/C2-*
X49595000Y41805000D03*
G04 #@! TD*
G04 #@! TO.P,C465,2*
G04 #@! TO.N,/C2-*
X49595000Y92205000D03*
G04 #@! TO.P,C465,1*
G04 #@! TO.N,/C2+*
X55295000Y92205000D03*
G04 #@! TD*
G04 #@! TO.P,C464,1*
G04 #@! TO.N,/C2+*
X42805000Y41795000D03*
G04 #@! TO.P,C464,2*
G04 #@! TO.N,/C2-*
X48505000Y41795000D03*
G04 #@! TD*
G04 #@! TO.P,C463,2*
G04 #@! TO.N,/C2-*
X34905000Y80995000D03*
G04 #@! TO.P,C463,1*
G04 #@! TO.N,/C2+*
X29205000Y80995000D03*
G04 #@! TD*
G04 #@! TO.P,C461,1*
G04 #@! TO.N,/C2+*
X56405000Y2895000D03*
G04 #@! TO.P,C461,2*
G04 #@! TO.N,/C2-*
X62105000Y2895000D03*
G04 #@! TD*
G04 #@! TO.P,C488,2*
G04 #@! TO.N,/C2-*
X49595000Y19705000D03*
G04 #@! TO.P,C488,1*
G04 #@! TO.N,/C2+*
X55295000Y19705000D03*
G04 #@! TD*
G04 #@! TO.P,C460,1*
G04 #@! TO.N,/C2+*
X41695000Y75405000D03*
G04 #@! TO.P,C460,2*
G04 #@! TO.N,/C2-*
X35995000Y75405000D03*
G04 #@! TD*
G04 #@! TO.P,C459,2*
G04 #@! TO.N,/C2-*
X34905000Y8495000D03*
G04 #@! TO.P,C459,1*
G04 #@! TO.N,/C2+*
X29205000Y8495000D03*
G04 #@! TD*
G04 #@! TO.P,C458,1*
G04 #@! TO.N,/C2+*
X42805000Y92195000D03*
G04 #@! TO.P,C458,2*
G04 #@! TO.N,/C2-*
X48505000Y92195000D03*
G04 #@! TD*
G04 #@! TO.P,C457,2*
G04 #@! TO.N,/C2-*
X35995000Y8505000D03*
G04 #@! TO.P,C457,1*
G04 #@! TO.N,/C2+*
X41695000Y8505000D03*
G04 #@! TD*
G04 #@! TO.P,C455,2*
G04 #@! TO.N,/C2-*
X49595000Y97805000D03*
G04 #@! TO.P,C455,1*
G04 #@! TO.N,/C2+*
X55295000Y97805000D03*
G04 #@! TD*
G04 #@! TO.P,C454,1*
G04 #@! TO.N,/C2+*
X41695000Y41805000D03*
G04 #@! TO.P,C454,2*
G04 #@! TO.N,/C2-*
X35995000Y41805000D03*
G04 #@! TD*
G04 #@! TO.P,C453,2*
G04 #@! TO.N,/C2-*
X34905000Y75395000D03*
G04 #@! TO.P,C453,1*
G04 #@! TO.N,/C2+*
X29205000Y75395000D03*
G04 #@! TD*
G04 #@! TO.P,C489,2*
G04 #@! TO.N,/C2-*
X35995000Y19705000D03*
G04 #@! TO.P,C489,1*
G04 #@! TO.N,/C2+*
X41695000Y19705000D03*
G04 #@! TD*
G04 #@! TO.P,C487,1*
G04 #@! TO.N,/C2+*
X55295000Y25305000D03*
G04 #@! TO.P,C487,2*
G04 #@! TO.N,/C2-*
X49595000Y25305000D03*
G04 #@! TD*
G04 #@! TO.P,C486,2*
G04 #@! TO.N,/C2-*
X35995000Y81005000D03*
G04 #@! TO.P,C486,1*
G04 #@! TO.N,/C2+*
X41695000Y81005000D03*
G04 #@! TD*
G04 #@! TO.P,C485,1*
G04 #@! TO.N,/C2+*
X42805000Y86595000D03*
G04 #@! TO.P,C485,2*
G04 #@! TO.N,/C2-*
X48505000Y86595000D03*
G04 #@! TD*
G04 #@! TO.P,C484,2*
G04 #@! TO.N,/C2-*
X35995000Y14105000D03*
G04 #@! TO.P,C484,1*
G04 #@! TO.N,/C2+*
X41695000Y14105000D03*
G04 #@! TD*
G04 #@! TO.P,C483,1*
G04 #@! TO.N,/C2+*
X56405000Y86595000D03*
G04 #@! TO.P,C483,2*
G04 #@! TO.N,/C2-*
X62105000Y86595000D03*
G04 #@! TD*
G04 #@! TO.P,C482,2*
G04 #@! TO.N,/C2-*
X49595000Y103405000D03*
G04 #@! TO.P,C482,1*
G04 #@! TO.N,/C2+*
X55295000Y103405000D03*
G04 #@! TD*
G04 #@! TO.P,C481,1*
G04 #@! TO.N,/C2+*
X56405000Y97795000D03*
G04 #@! TO.P,C481,2*
G04 #@! TO.N,/C2-*
X62105000Y97795000D03*
G04 #@! TD*
G04 #@! TO.P,C508,2*
G04 #@! TO.N,/C2-*
X34905000Y69795000D03*
G04 #@! TO.P,C508,1*
G04 #@! TO.N,/C2+*
X29205000Y69795000D03*
G04 #@! TD*
G04 #@! TO.P,C478,2*
G04 #@! TO.N,/C2-*
X22395000Y69805000D03*
G04 #@! TO.P,C478,1*
G04 #@! TO.N,/C2+*
X28095000Y69805000D03*
G04 #@! TD*
G04 #@! TO.P,C476,2*
G04 #@! TO.N,/C2-*
X48505000Y25295000D03*
G04 #@! TO.P,C476,1*
G04 #@! TO.N,/C2+*
X42805000Y25295000D03*
G04 #@! TD*
G04 #@! TO.P,C475,1*
G04 #@! TO.N,/C2+*
X41695000Y86605000D03*
G04 #@! TO.P,C475,2*
G04 #@! TO.N,/C2-*
X35995000Y86605000D03*
G04 #@! TD*
G04 #@! TO.P,C474,2*
G04 #@! TO.N,/C2-*
X48505000Y80995000D03*
G04 #@! TO.P,C474,1*
G04 #@! TO.N,/C2+*
X42805000Y80995000D03*
G04 #@! TD*
G04 #@! TO.P,C473,1*
G04 #@! TO.N,/C2+*
X56405000Y80995000D03*
G04 #@! TO.P,C473,2*
G04 #@! TO.N,/C2-*
X62105000Y80995000D03*
G04 #@! TD*
G04 #@! TO.P,C472,2*
G04 #@! TO.N,/C2-*
X62105000Y-2705000D03*
G04 #@! TO.P,C472,1*
G04 #@! TO.N,/C2+*
X56405000Y-2705000D03*
G04 #@! TD*
G04 #@! TO.P,C470,2*
G04 #@! TO.N,/C2-*
X34905000Y64195000D03*
G04 #@! TO.P,C470,1*
G04 #@! TO.N,/C2+*
X29205000Y64195000D03*
G04 #@! TD*
G04 #@! TO.P,C525,2*
G04 #@! TO.N,/C2-*
X34905000Y58595000D03*
G04 #@! TO.P,C525,1*
G04 #@! TO.N,/C2+*
X29205000Y58595000D03*
G04 #@! TD*
G04 #@! TO.P,C565,2*
G04 #@! TO.N,/C2-*
X35995000Y97805000D03*
G04 #@! TO.P,C565,1*
G04 #@! TO.N,/C2+*
X41695000Y97805000D03*
G04 #@! TD*
G04 #@! TO.P,C526,2*
G04 #@! TO.N,/C2-*
X48505000Y69795000D03*
G04 #@! TO.P,C526,1*
G04 #@! TO.N,/C2+*
X42805000Y69795000D03*
G04 #@! TD*
G04 #@! TO.P,C543,2*
G04 #@! TO.N,/C2-*
X48505000Y58595000D03*
G04 #@! TO.P,C543,1*
G04 #@! TO.N,/C2+*
X42805000Y58595000D03*
G04 #@! TD*
G04 #@! TO.P,C541,2*
G04 #@! TO.N,/C2-*
X62105000Y58595000D03*
G04 #@! TO.P,C541,1*
G04 #@! TO.N,/C2+*
X56405000Y58595000D03*
G04 #@! TD*
G04 #@! TO.P,C539,2*
G04 #@! TO.N,/C2-*
X49595000Y53005000D03*
G04 #@! TO.P,C539,1*
G04 #@! TO.N,/C2+*
X55295000Y53005000D03*
G04 #@! TD*
G04 #@! TO.P,C538,1*
G04 #@! TO.N,/C2+*
X29205000Y14095000D03*
G04 #@! TO.P,C538,2*
G04 #@! TO.N,/C2-*
X34905000Y14095000D03*
G04 #@! TD*
G04 #@! TO.P,C563,2*
G04 #@! TO.N,/C2-*
X34905000Y47395000D03*
G04 #@! TO.P,C563,1*
G04 #@! TO.N,/C2+*
X29205000Y47395000D03*
G04 #@! TD*
G04 #@! TO.P,C533,2*
G04 #@! TO.N,/C2-*
X48505000Y52995000D03*
G04 #@! TO.P,C533,1*
G04 #@! TO.N,/C2+*
X42805000Y52995000D03*
G04 #@! TD*
G04 #@! TO.P,C531,2*
G04 #@! TO.N,/C2-*
X62105000Y52995000D03*
G04 #@! TO.P,C531,1*
G04 #@! TO.N,/C2+*
X56405000Y52995000D03*
G04 #@! TD*
G04 #@! TO.P,C529,2*
G04 #@! TO.N,/C2-*
X49595000Y58605000D03*
G04 #@! TO.P,C529,1*
G04 #@! TO.N,/C2+*
X55295000Y58605000D03*
G04 #@! TD*
G04 #@! TO.P,C561,2*
G04 #@! TO.N,/C2-*
X48505000Y47395000D03*
G04 #@! TO.P,C561,1*
G04 #@! TO.N,/C2+*
X42805000Y47395000D03*
G04 #@! TD*
G04 #@! TO.P,C559,2*
G04 #@! TO.N,/C2-*
X62105000Y47395000D03*
G04 #@! TO.P,C559,1*
G04 #@! TO.N,/C2+*
X56405000Y47395000D03*
G04 #@! TD*
G04 #@! TO.P,C557,2*
G04 #@! TO.N,/C2-*
X49595000Y64205000D03*
G04 #@! TO.P,C557,1*
G04 #@! TO.N,/C2+*
X55295000Y64205000D03*
G04 #@! TD*
G04 #@! TO.P,C549,2*
G04 #@! TO.N,/C2-*
X34905000Y41795000D03*
G04 #@! TO.P,C549,1*
G04 #@! TO.N,/C2+*
X29205000Y41795000D03*
G04 #@! TD*
G04 #@! TO.P,C547,2*
G04 #@! TO.N,/C2-*
X49595000Y69805000D03*
G04 #@! TO.P,C547,1*
G04 #@! TO.N,/C2+*
X55295000Y69805000D03*
G04 #@! TD*
G04 #@! TO.P,C426,1*
G04 #@! TO.N,/C2+*
X55295000Y75405000D03*
G04 #@! TO.P,C426,2*
G04 #@! TO.N,/C2-*
X49595000Y75405000D03*
G04 #@! TD*
G04 #@! TO.P,C173,1*
G04 #@! TO.N,/C1+*
X-56405000Y31105000D03*
G04 #@! TO.P,C173,2*
G04 #@! TO.N,/C1-*
X-62105000Y31105000D03*
G04 #@! TD*
G04 #@! TO.P,C300,2*
G04 #@! TO.N,/C1-*
X-22395000Y80995000D03*
G04 #@! TO.P,C300,1*
G04 #@! TO.N,/C1+*
X-28095000Y80995000D03*
G04 #@! TD*
G04 #@! TO.P,C242,2*
G04 #@! TO.N,/C1-*
X-22395000Y86595000D03*
G04 #@! TO.P,C242,1*
G04 #@! TO.N,/C1+*
X-28095000Y86595000D03*
G04 #@! TD*
G04 #@! TO.P,C239,1*
G04 #@! TO.N,/C1+*
X-28095000Y58595000D03*
G04 #@! TO.P,C239,2*
G04 #@! TO.N,/C1-*
X-22395000Y58595000D03*
G04 #@! TD*
G04 #@! TO.P,C232,1*
G04 #@! TO.N,/C1+*
X-28095000Y92195000D03*
G04 #@! TO.P,C232,2*
G04 #@! TO.N,/C1-*
X-22395000Y92195000D03*
G04 #@! TD*
G04 #@! TO.P,C250,2*
G04 #@! TO.N,/C1-*
X-22395000Y64195000D03*
G04 #@! TO.P,C250,1*
G04 #@! TO.N,/C1+*
X-28095000Y64195000D03*
G04 #@! TD*
G04 #@! TO.P,C255,1*
G04 #@! TO.N,/C1+*
X-28095000Y42295000D03*
G04 #@! TO.P,C255,2*
G04 #@! TO.N,/C1-*
X-22395000Y42295000D03*
G04 #@! TD*
G04 #@! TO.P,C64,2*
G04 #@! TO.N,/C1-*
X-62105000Y25505000D03*
G04 #@! TO.P,C64,1*
G04 #@! TO.N,/C1+*
X-56405000Y25505000D03*
G04 #@! TD*
G04 #@! TO.P,C5,1*
G04 #@! TO.N,/C1+*
X11805000Y25505000D03*
G04 #@! TO.P,C5,2*
G04 #@! TO.N,/C1-*
X6105000Y25505000D03*
G04 #@! TD*
G04 #@! TO.P,C23,1*
G04 #@! TO.N,/C1+*
X11795000Y19905000D03*
G04 #@! TO.P,C23,2*
G04 #@! TO.N,/C1-*
X6095000Y19905000D03*
G04 #@! TD*
G04 #@! TO.P,C129,1*
G04 #@! TO.N,/C1+*
X11795000Y14305000D03*
G04 #@! TO.P,C129,2*
G04 #@! TO.N,/C1-*
X6095000Y14305000D03*
G04 #@! TD*
G04 #@! TO.P,C307,2*
G04 #@! TO.N,/C1-*
X-22395000Y75395000D03*
G04 #@! TO.P,C307,1*
G04 #@! TO.N,/C1+*
X-28095000Y75395000D03*
G04 #@! TD*
G04 #@! TO.P,C303,2*
G04 #@! TO.N,/C1-*
X6095000Y31105000D03*
G04 #@! TO.P,C303,1*
G04 #@! TO.N,/C1+*
X11795000Y31105000D03*
G04 #@! TD*
G04 #@! TO.P,C337,1*
G04 #@! TO.N,/C1+*
X-14495000Y36695000D03*
G04 #@! TO.P,C337,2*
G04 #@! TO.N,/C1-*
X-8795000Y36695000D03*
G04 #@! TD*
G04 #@! TO.P,C326,2*
G04 #@! TO.N,/C1-*
X-22395000Y103395000D03*
G04 #@! TO.P,C326,1*
G04 #@! TO.N,/C1+*
X-28095000Y103395000D03*
G04 #@! TD*
G04 #@! TO.P,C323,1*
G04 #@! TO.N,/C1+*
X-28095000Y69795000D03*
G04 #@! TO.P,C323,2*
G04 #@! TO.N,/C1-*
X-22395000Y69795000D03*
G04 #@! TD*
G04 #@! TO.P,C391,1*
G04 #@! TO.N,/C1+*
X-28095000Y97795000D03*
G04 #@! TO.P,C391,2*
G04 #@! TO.N,/C1-*
X-22395000Y97795000D03*
G04 #@! TD*
G04 #@! TO.P,C342,2*
G04 #@! TO.N,/C1-*
X-35995000Y-2505000D03*
G04 #@! TO.P,C342,1*
G04 #@! TO.N,/C1+*
X-41695000Y-2505000D03*
G04 #@! TD*
G04 #@! TO.P,C341,2*
G04 #@! TO.N,/C1-*
X-48580365Y-2495000D03*
G04 #@! TO.P,C341,1*
G04 #@! TO.N,/C1+*
X-42880365Y-2495000D03*
G04 #@! TD*
G04 #@! TO.P,C340,2*
G04 #@! TO.N,/C1-*
X-22395000Y3095000D03*
G04 #@! TO.P,C340,1*
G04 #@! TO.N,/C1+*
X-28095000Y3095000D03*
G04 #@! TD*
G04 #@! TO.P,C339,2*
G04 #@! TO.N,/C1-*
X-21305000Y-2495000D03*
G04 #@! TO.P,C339,1*
G04 #@! TO.N,/C1+*
X-15605000Y-2495000D03*
G04 #@! TD*
G04 #@! TO.P,C338,2*
G04 #@! TO.N,/C1-*
X-62105000Y36705000D03*
G04 #@! TO.P,C338,1*
G04 #@! TO.N,/C1+*
X-56405000Y36705000D03*
G04 #@! TD*
G04 #@! TO.P,C336,2*
G04 #@! TO.N,/C1-*
X-34905000Y-2495000D03*
G04 #@! TO.P,C336,1*
G04 #@! TO.N,/C1+*
X-29205000Y-2495000D03*
G04 #@! TD*
G04 #@! TO.P,C335,2*
G04 #@! TO.N,/C1-*
X-49595000Y25595000D03*
G04 #@! TO.P,C335,1*
G04 #@! TO.N,/C1+*
X-55295000Y25595000D03*
G04 #@! TD*
G04 #@! TO.P,C334,2*
G04 #@! TO.N,/C1-*
X-48505000Y3105000D03*
G04 #@! TO.P,C334,1*
G04 #@! TO.N,/C1+*
X-42805000Y3105000D03*
G04 #@! TD*
G04 #@! TO.P,C333,2*
G04 #@! TO.N,/C1-*
X-48505000Y31105000D03*
G04 #@! TO.P,C333,1*
G04 #@! TO.N,/C1+*
X-42805000Y31105000D03*
G04 #@! TD*
G04 #@! TO.P,C332,2*
G04 #@! TO.N,/C1-*
X-22395000Y-2505000D03*
G04 #@! TO.P,C332,1*
G04 #@! TO.N,/C1+*
X-28095000Y-2505000D03*
G04 #@! TD*
G04 #@! TO.P,C376,2*
G04 #@! TO.N,/C1-*
X-21305000Y3105000D03*
G04 #@! TO.P,C376,1*
G04 #@! TO.N,/C1+*
X-15605000Y3105000D03*
G04 #@! TD*
G04 #@! TO.P,C328,2*
G04 #@! TO.N,/C1-*
X-62105000Y42305000D03*
G04 #@! TO.P,C328,1*
G04 #@! TO.N,/C1+*
X-56405000Y42305000D03*
G04 #@! TD*
G04 #@! TO.P,C327,2*
G04 #@! TO.N,/C1-*
X-49595000Y97795000D03*
G04 #@! TO.P,C327,1*
G04 #@! TO.N,/C1+*
X-55295000Y97795000D03*
G04 #@! TD*
G04 #@! TO.P,C325,2*
G04 #@! TO.N,/C1-*
X-49595000Y19995000D03*
G04 #@! TO.P,C325,1*
G04 #@! TO.N,/C1+*
X-55295000Y19995000D03*
G04 #@! TD*
G04 #@! TO.P,C324,2*
G04 #@! TO.N,/C1-*
X-48505000Y8705000D03*
G04 #@! TO.P,C324,1*
G04 #@! TO.N,/C1+*
X-42805000Y8705000D03*
G04 #@! TD*
G04 #@! TO.P,C322,2*
G04 #@! TO.N,/C1-*
X-49595000Y-2505000D03*
G04 #@! TO.P,C322,1*
G04 #@! TO.N,/C1+*
X-55295000Y-2505000D03*
G04 #@! TD*
G04 #@! TO.P,C321,2*
G04 #@! TO.N,/C1-*
X-21305000Y8705000D03*
G04 #@! TO.P,C321,1*
G04 #@! TO.N,/C1+*
X-15605000Y8705000D03*
G04 #@! TD*
G04 #@! TO.P,C320,2*
G04 #@! TO.N,/C1-*
X-34905000Y19905000D03*
G04 #@! TO.P,C320,1*
G04 #@! TO.N,/C1+*
X-29205000Y19905000D03*
G04 #@! TD*
G04 #@! TO.P,C319,2*
G04 #@! TO.N,/C1-*
X-49595000Y92195000D03*
G04 #@! TO.P,C319,1*
G04 #@! TO.N,/C1+*
X-55295000Y92195000D03*
G04 #@! TD*
G04 #@! TO.P,C318,2*
G04 #@! TO.N,/C1-*
X-7605000Y42305000D03*
G04 #@! TO.P,C318,1*
G04 #@! TO.N,/C1+*
X-1905000Y42305000D03*
G04 #@! TD*
G04 #@! TO.P,C317,2*
G04 #@! TO.N,/C1-*
X-34905000Y8705000D03*
G04 #@! TO.P,C317,1*
G04 #@! TO.N,/C1+*
X-29205000Y8705000D03*
G04 #@! TD*
G04 #@! TO.P,C316,2*
G04 #@! TO.N,/C1-*
X-49595000Y14395000D03*
G04 #@! TO.P,C316,1*
G04 #@! TO.N,/C1+*
X-55295000Y14395000D03*
G04 #@! TD*
G04 #@! TO.P,C331,2*
G04 #@! TO.N,/C1-*
X-48505000Y14305000D03*
G04 #@! TO.P,C331,1*
G04 #@! TO.N,/C1+*
X-42805000Y14305000D03*
G04 #@! TD*
G04 #@! TO.P,C330,2*
G04 #@! TO.N,/C1-*
X-35995000Y25495000D03*
G04 #@! TO.P,C330,1*
G04 #@! TO.N,/C1+*
X-41695000Y25495000D03*
G04 #@! TD*
G04 #@! TO.P,C329,2*
G04 #@! TO.N,/C1-*
X-7605000Y3105000D03*
G04 #@! TO.P,C329,1*
G04 #@! TO.N,/C1+*
X-1905000Y3105000D03*
G04 #@! TD*
G04 #@! TO.P,C374,2*
G04 #@! TO.N,/C1-*
X-21305000Y14305000D03*
G04 #@! TO.P,C374,1*
G04 #@! TO.N,/C1+*
X-15605000Y14305000D03*
G04 #@! TD*
G04 #@! TO.P,C373,2*
G04 #@! TO.N,/C1-*
X-34905000Y25505000D03*
G04 #@! TO.P,C373,1*
G04 #@! TO.N,/C1+*
X-29205000Y25505000D03*
G04 #@! TD*
G04 #@! TO.P,C372,2*
G04 #@! TO.N,/C1-*
X-49595000Y86595000D03*
G04 #@! TO.P,C372,1*
G04 #@! TO.N,/C1+*
X-55295000Y86595000D03*
G04 #@! TD*
G04 #@! TO.P,C371,2*
G04 #@! TO.N,/C1-*
X4905000Y92195000D03*
G04 #@! TO.P,C371,1*
G04 #@! TO.N,/C1+*
X-795000Y92195000D03*
G04 #@! TD*
G04 #@! TO.P,C370,2*
G04 #@! TO.N,/C1-*
X-49595000Y3095000D03*
G04 #@! TO.P,C370,1*
G04 #@! TO.N,/C1+*
X-55295000Y3095000D03*
G04 #@! TD*
G04 #@! TO.P,C369,2*
G04 #@! TO.N,/C1-*
X6095000Y36705000D03*
G04 #@! TO.P,C369,1*
G04 #@! TO.N,/C1+*
X11795000Y36705000D03*
G04 #@! TD*
G04 #@! TO.P,C368,2*
G04 #@! TO.N,/C1-*
X-8795000Y103395000D03*
G04 #@! TO.P,C368,1*
G04 #@! TO.N,/C1+*
X-14495000Y103395000D03*
G04 #@! TD*
G04 #@! TO.P,C367,2*
G04 #@! TO.N,/C1-*
X-49595000Y8795000D03*
G04 #@! TO.P,C367,1*
G04 #@! TO.N,/C1+*
X-55295000Y8795000D03*
G04 #@! TD*
G04 #@! TO.P,C366,2*
G04 #@! TO.N,/C1-*
X-48505000Y19905000D03*
G04 #@! TO.P,C366,1*
G04 #@! TO.N,/C1+*
X-42805000Y19905000D03*
G04 #@! TD*
G04 #@! TO.P,C365,2*
G04 #@! TO.N,/C1-*
X-35995000Y19895000D03*
G04 #@! TO.P,C365,1*
G04 #@! TO.N,/C1+*
X-41695000Y19895000D03*
G04 #@! TD*
G04 #@! TO.P,C364,2*
G04 #@! TO.N,/C1-*
X-7605000Y8705000D03*
G04 #@! TO.P,C364,1*
G04 #@! TO.N,/C1+*
X-1905000Y8705000D03*
G04 #@! TD*
G04 #@! TO.P,C363,2*
G04 #@! TO.N,/C1-*
X-21305000Y19905000D03*
G04 #@! TO.P,C363,1*
G04 #@! TO.N,/C1+*
X-15605000Y19905000D03*
G04 #@! TD*
G04 #@! TO.P,C346,2*
G04 #@! TO.N,/C1-*
X-34905000Y31105000D03*
G04 #@! TO.P,C346,1*
G04 #@! TO.N,/C1+*
X-29205000Y31105000D03*
G04 #@! TD*
G04 #@! TO.P,C344,2*
G04 #@! TO.N,/C1-*
X-49595000Y80995000D03*
G04 #@! TO.P,C344,1*
G04 #@! TO.N,/C1+*
X-55295000Y80995000D03*
G04 #@! TD*
G04 #@! TO.P,C359,2*
G04 #@! TO.N,/C1-*
X4905000Y86595000D03*
G04 #@! TO.P,C359,1*
G04 #@! TO.N,/C1+*
X-795000Y86595000D03*
G04 #@! TD*
G04 #@! TO.P,C357,2*
G04 #@! TO.N,/C1-*
X-8795000Y97795000D03*
G04 #@! TO.P,C357,1*
G04 #@! TO.N,/C1+*
X-14495000Y97795000D03*
G04 #@! TD*
G04 #@! TO.P,C356,2*
G04 #@! TO.N,/C1-*
X-34905000Y14305000D03*
G04 #@! TO.P,C356,1*
G04 #@! TO.N,/C1+*
X-29205000Y14305000D03*
G04 #@! TD*
G04 #@! TO.P,C355,2*
G04 #@! TO.N,/C1-*
X-62105000Y8705000D03*
G04 #@! TO.P,C355,1*
G04 #@! TO.N,/C1+*
X-56405000Y8705000D03*
G04 #@! TD*
G04 #@! TO.P,C354,2*
G04 #@! TO.N,/C1-*
X-48505000Y25505000D03*
G04 #@! TO.P,C354,1*
G04 #@! TO.N,/C1+*
X-42805000Y25505000D03*
G04 #@! TD*
G04 #@! TO.P,C353,2*
G04 #@! TO.N,/C1-*
X-35995000Y14295000D03*
G04 #@! TO.P,C353,1*
G04 #@! TO.N,/C1+*
X-41695000Y14295000D03*
G04 #@! TD*
G04 #@! TO.P,C352,2*
G04 #@! TO.N,/C1-*
X-7605000Y14305000D03*
G04 #@! TO.P,C352,1*
G04 #@! TO.N,/C1+*
X-1905000Y14305000D03*
G04 #@! TD*
G04 #@! TO.P,C351,2*
G04 #@! TO.N,/C1-*
X-21305000Y25505000D03*
G04 #@! TO.P,C351,1*
G04 #@! TO.N,/C1+*
X-15605000Y25505000D03*
G04 #@! TD*
G04 #@! TO.P,C350,2*
G04 #@! TO.N,/C1-*
X-34905000Y36705000D03*
G04 #@! TO.P,C350,1*
G04 #@! TO.N,/C1+*
X-29205000Y36705000D03*
G04 #@! TD*
G04 #@! TO.P,C349,2*
G04 #@! TO.N,/C1-*
X-49595000Y75395000D03*
G04 #@! TO.P,C349,1*
G04 #@! TO.N,/C1+*
X-55295000Y75395000D03*
G04 #@! TD*
G04 #@! TO.P,C348,2*
G04 #@! TO.N,/C1-*
X4905000Y80995000D03*
G04 #@! TO.P,C348,1*
G04 #@! TO.N,/C1+*
X-795000Y80995000D03*
G04 #@! TD*
G04 #@! TO.P,C347,2*
G04 #@! TO.N,/C1-*
X-7605000Y58605000D03*
G04 #@! TO.P,C347,1*
G04 #@! TO.N,/C1+*
X-1905000Y58605000D03*
G04 #@! TD*
G04 #@! TO.P,C362,2*
G04 #@! TO.N,/C1-*
X-8795000Y92195000D03*
G04 #@! TO.P,C362,1*
G04 #@! TO.N,/C1+*
X-14495000Y92195000D03*
G04 #@! TD*
G04 #@! TO.P,C361,2*
G04 #@! TO.N,/C1-*
X-7605000Y36705000D03*
G04 #@! TO.P,C361,1*
G04 #@! TO.N,/C1+*
X-1905000Y36705000D03*
G04 #@! TD*
G04 #@! TO.P,C360,2*
G04 #@! TO.N,/C1-*
X-8795000Y31095000D03*
G04 #@! TO.P,C360,1*
G04 #@! TO.N,/C1+*
X-14495000Y31095000D03*
G04 #@! TD*
G04 #@! TO.P,C279,2*
G04 #@! TO.N,/C1-*
X-62105000Y103405000D03*
G04 #@! TO.P,C279,1*
G04 #@! TO.N,/C1+*
X-56405000Y103405000D03*
G04 #@! TD*
G04 #@! TO.P,C278,2*
G04 #@! TO.N,/C1-*
X4905000Y75395000D03*
G04 #@! TO.P,C278,1*
G04 #@! TO.N,/C1+*
X-795000Y75395000D03*
G04 #@! TD*
G04 #@! TO.P,C277,2*
G04 #@! TO.N,/C1-*
X-8795000Y80995000D03*
G04 #@! TO.P,C277,1*
G04 #@! TO.N,/C1+*
X-14495000Y80995000D03*
G04 #@! TD*
G04 #@! TO.P,C276,2*
G04 #@! TO.N,/C1-*
X4905000Y103395000D03*
G04 #@! TO.P,C276,1*
G04 #@! TO.N,/C1+*
X-795000Y103395000D03*
G04 #@! TD*
G04 #@! TO.P,C275,2*
G04 #@! TO.N,/C1-*
X-22395000Y8695000D03*
G04 #@! TO.P,C275,1*
G04 #@! TO.N,/C1+*
X-28095000Y8695000D03*
G04 #@! TD*
G04 #@! TO.P,C274,2*
G04 #@! TO.N,/C1-*
X-21305000Y42305000D03*
G04 #@! TO.P,C274,1*
G04 #@! TO.N,/C1+*
X-15605000Y42305000D03*
G04 #@! TD*
G04 #@! TO.P,C272,2*
G04 #@! TO.N,/C1-*
X-22417000Y19910000D03*
G04 #@! TO.P,C272,1*
G04 #@! TO.N,/C1+*
X-28117000Y19910000D03*
G04 #@! TD*
G04 #@! TO.P,C271,2*
G04 #@! TO.N,/C1-*
X4905000Y58595000D03*
G04 #@! TO.P,C271,1*
G04 #@! TO.N,/C1+*
X-795000Y58595000D03*
G04 #@! TD*
G04 #@! TO.P,C270,2*
G04 #@! TO.N,/C1-*
X-7605000Y81005000D03*
G04 #@! TO.P,C270,1*
G04 #@! TO.N,/C1+*
X-1905000Y81005000D03*
G04 #@! TD*
G04 #@! TO.P,C269,2*
G04 #@! TO.N,/C1-*
X-8795000Y69795000D03*
G04 #@! TO.P,C269,1*
G04 #@! TO.N,/C1+*
X-14495000Y69795000D03*
G04 #@! TD*
G04 #@! TO.P,C315,2*
G04 #@! TO.N,/C1-*
X-21305000Y69805000D03*
G04 #@! TO.P,C315,1*
G04 #@! TO.N,/C1+*
X-15605000Y69805000D03*
G04 #@! TD*
G04 #@! TO.P,C267,2*
G04 #@! TO.N,/C1-*
X-49595000Y103395000D03*
G04 #@! TO.P,C267,1*
G04 #@! TO.N,/C1+*
X-55295000Y103395000D03*
G04 #@! TD*
G04 #@! TO.P,C313,2*
G04 #@! TO.N,/C1-*
X-8795000Y14295000D03*
G04 #@! TO.P,C313,1*
G04 #@! TO.N,/C1+*
X-14495000Y14295000D03*
G04 #@! TD*
G04 #@! TO.P,C312,2*
G04 #@! TO.N,/C1-*
X-7605000Y103405000D03*
G04 #@! TO.P,C312,1*
G04 #@! TO.N,/C1+*
X-1905000Y103405000D03*
G04 #@! TD*
G04 #@! TO.P,C263,2*
G04 #@! TO.N,/C1-*
X-21305000Y81005000D03*
G04 #@! TO.P,C263,1*
G04 #@! TO.N,/C1+*
X-15605000Y81005000D03*
G04 #@! TD*
G04 #@! TO.P,C256,2*
G04 #@! TO.N,/C1-*
X4905000Y42295000D03*
G04 #@! TO.P,C256,1*
G04 #@! TO.N,/C1+*
X-795000Y42295000D03*
G04 #@! TD*
G04 #@! TO.P,C254,2*
G04 #@! TO.N,/C1-*
X-7605000Y97805000D03*
G04 #@! TO.P,C254,1*
G04 #@! TO.N,/C1+*
X-1905000Y97805000D03*
G04 #@! TD*
G04 #@! TO.P,C268,2*
G04 #@! TO.N,/C1-*
X-21305000Y86605000D03*
G04 #@! TO.P,C268,1*
G04 #@! TO.N,/C1+*
X-15605000Y86605000D03*
G04 #@! TD*
G04 #@! TO.P,C306,2*
G04 #@! TO.N,/C1-*
X4905000Y36695000D03*
G04 #@! TO.P,C306,1*
G04 #@! TO.N,/C1+*
X-795000Y36695000D03*
G04 #@! TD*
G04 #@! TO.P,C305,2*
G04 #@! TO.N,/C1-*
X-21305000Y92205000D03*
G04 #@! TO.P,C305,1*
G04 #@! TO.N,/C1+*
X-15605000Y92205000D03*
G04 #@! TD*
G04 #@! TO.P,C297,2*
G04 #@! TO.N,/C1-*
X-8795000Y42295000D03*
G04 #@! TO.P,C297,1*
G04 #@! TO.N,/C1+*
X-14495000Y42295000D03*
G04 #@! TD*
G04 #@! TO.P,C280,2*
G04 #@! TO.N,/C1-*
X-21305000Y97805000D03*
G04 #@! TO.P,C280,1*
G04 #@! TO.N,/C1+*
X-15605000Y97805000D03*
G04 #@! TD*
G04 #@! TO.P,C290,2*
G04 #@! TO.N,/C1-*
X4905000Y97795000D03*
G04 #@! TO.P,C290,1*
G04 #@! TO.N,/C1+*
X-795000Y97795000D03*
G04 #@! TD*
G04 #@! TO.P,C288,2*
G04 #@! TO.N,/C1-*
X-21305000Y103405000D03*
G04 #@! TO.P,C288,1*
G04 #@! TO.N,/C1+*
X-15605000Y103405000D03*
G04 #@! TD*
G04 #@! TO.P,C375,2*
G04 #@! TO.N,/C1-*
X-49595000Y42295000D03*
G04 #@! TO.P,C375,1*
G04 #@! TO.N,/C1+*
X-55295000Y42295000D03*
G04 #@! TD*
G04 #@! TO.P,C393,2*
G04 #@! TO.N,/C1-*
X-35995000Y103395000D03*
G04 #@! TO.P,C393,1*
G04 #@! TO.N,/C1+*
X-41695000Y103395000D03*
G04 #@! TD*
G04 #@! TO.P,C69,1*
G04 #@! TO.N,/C1+*
X11795000Y86605000D03*
G04 #@! TO.P,C69,2*
G04 #@! TO.N,/C1-*
X6095000Y86605000D03*
G04 #@! TD*
G04 #@! TO.P,C67,2*
G04 #@! TO.N,/C1-*
X4905000Y3095000D03*
G04 #@! TO.P,C67,1*
G04 #@! TO.N,/C1+*
X-795000Y3095000D03*
G04 #@! TD*
G04 #@! TO.P,C66,2*
G04 #@! TO.N,/C1-*
X4905000Y25495000D03*
G04 #@! TO.P,C66,1*
G04 #@! TO.N,/C1+*
X-795000Y25495000D03*
G04 #@! TD*
G04 #@! TO.P,C79,2*
G04 #@! TO.N,/C1-*
X-21305000Y36708105D03*
G04 #@! TO.P,C79,1*
G04 #@! TO.N,/C1+*
X-15605000Y36708105D03*
G04 #@! TD*
G04 #@! TO.P,C124,1*
G04 #@! TO.N,/C1+*
X-42805000Y42305000D03*
G04 #@! TO.P,C124,2*
G04 #@! TO.N,/C1-*
X-48505000Y42305000D03*
G04 #@! TD*
G04 #@! TO.P,C123,2*
G04 #@! TO.N,/C1-*
X-35995000Y92195000D03*
G04 #@! TO.P,C123,1*
G04 #@! TO.N,/C1+*
X-41695000Y92195000D03*
G04 #@! TD*
G04 #@! TO.P,C122,1*
G04 #@! TO.N,/C1+*
X11795000Y42305000D03*
G04 #@! TO.P,C122,2*
G04 #@! TO.N,/C1-*
X6095000Y42305000D03*
G04 #@! TD*
G04 #@! TO.P,C121,2*
G04 #@! TO.N,/C1-*
X6095000Y103415470D03*
G04 #@! TO.P,C121,1*
G04 #@! TO.N,/C1+*
X11795000Y103415470D03*
G04 #@! TD*
G04 #@! TO.P,C117,2*
G04 #@! TO.N,/C1-*
X-34905000Y92205000D03*
G04 #@! TO.P,C117,1*
G04 #@! TO.N,/C1+*
X-29205000Y92205000D03*
G04 #@! TD*
G04 #@! TO.P,C114,1*
G04 #@! TO.N,/C1+*
X-41695000Y86595000D03*
G04 #@! TO.P,C114,2*
G04 #@! TO.N,/C1-*
X-35995000Y86595000D03*
G04 #@! TD*
G04 #@! TO.P,C113,1*
G04 #@! TO.N,/C1+*
X-56405000Y-2495000D03*
G04 #@! TO.P,C113,2*
G04 #@! TO.N,/C1-*
X-62105000Y-2495000D03*
G04 #@! TD*
G04 #@! TO.P,C112,2*
G04 #@! TO.N,/C1-*
X-34905000Y81005000D03*
G04 #@! TO.P,C112,1*
G04 #@! TO.N,/C1+*
X-29205000Y81005000D03*
G04 #@! TD*
G04 #@! TO.P,C111,1*
G04 #@! TO.N,/C1+*
X-42805000Y81005000D03*
G04 #@! TO.P,C111,2*
G04 #@! TO.N,/C1-*
X-48505000Y81005000D03*
G04 #@! TD*
G04 #@! TO.P,C159,2*
G04 #@! TO.N,/C1-*
X-35995000Y58595000D03*
G04 #@! TO.P,C159,1*
G04 #@! TO.N,/C1+*
X-41695000Y58595000D03*
G04 #@! TD*
G04 #@! TO.P,C109,1*
G04 #@! TO.N,/C1+*
X11795000Y75405000D03*
G04 #@! TO.P,C109,2*
G04 #@! TO.N,/C1-*
X6095000Y75405000D03*
G04 #@! TD*
G04 #@! TO.P,C107,2*
G04 #@! TO.N,/C1-*
X4905000Y19895000D03*
G04 #@! TO.P,C107,1*
G04 #@! TO.N,/C1+*
X-795000Y19895000D03*
G04 #@! TD*
G04 #@! TO.P,C104,2*
G04 #@! TO.N,/C1-*
X4905000Y8695000D03*
G04 #@! TO.P,C104,1*
G04 #@! TO.N,/C1+*
X-795000Y8695000D03*
G04 #@! TD*
G04 #@! TO.P,C103,2*
G04 #@! TO.N,/C1-*
X-34905000Y103405000D03*
G04 #@! TO.P,C103,1*
G04 #@! TO.N,/C1+*
X-29205000Y103405000D03*
G04 #@! TD*
G04 #@! TO.P,C102,2*
G04 #@! TO.N,/C1-*
X-34905000Y64205000D03*
G04 #@! TO.P,C102,1*
G04 #@! TO.N,/C1+*
X-29205000Y64205000D03*
G04 #@! TD*
G04 #@! TO.P,C101,1*
G04 #@! TO.N,/C1+*
X-42805000Y64205000D03*
G04 #@! TO.P,C101,2*
G04 #@! TO.N,/C1-*
X-48505000Y64205000D03*
G04 #@! TD*
G04 #@! TO.P,C100,1*
G04 #@! TO.N,/C1+*
X-41695000Y75395000D03*
G04 #@! TO.P,C100,2*
G04 #@! TO.N,/C1-*
X-35995000Y75395000D03*
G04 #@! TD*
G04 #@! TO.P,C99,1*
G04 #@! TO.N,/C1+*
X11795000Y58605000D03*
G04 #@! TO.P,C99,2*
G04 #@! TO.N,/C1-*
X6095000Y58605000D03*
G04 #@! TD*
G04 #@! TO.P,C98,1*
G04 #@! TO.N,/C1+*
X-42805000Y103405000D03*
G04 #@! TO.P,C98,2*
G04 #@! TO.N,/C1-*
X-48505000Y103405000D03*
G04 #@! TD*
G04 #@! TO.P,C28,2*
G04 #@! TO.N,/C1-*
X4905000Y31095000D03*
G04 #@! TO.P,C28,1*
G04 #@! TO.N,/C1+*
X-795000Y31095000D03*
G04 #@! TD*
G04 #@! TO.P,C27,2*
G04 #@! TO.N,/C1-*
X-8795000Y3095000D03*
G04 #@! TO.P,C27,1*
G04 #@! TO.N,/C1+*
X-14495000Y3095000D03*
G04 #@! TD*
G04 #@! TO.P,C26,1*
G04 #@! TO.N,/C1+*
X-29205000Y42305000D03*
G04 #@! TO.P,C26,2*
G04 #@! TO.N,/C1-*
X-34905000Y42305000D03*
G04 #@! TD*
G04 #@! TO.P,C25,2*
G04 #@! TO.N,/C1-*
X-48505000Y36705000D03*
G04 #@! TO.P,C25,1*
G04 #@! TO.N,/C1+*
X-42805000Y36705000D03*
G04 #@! TD*
G04 #@! TO.P,C24,2*
G04 #@! TO.N,/C1-*
X-35995000Y97795000D03*
G04 #@! TO.P,C24,1*
G04 #@! TO.N,/C1+*
X-41695000Y97795000D03*
G04 #@! TD*
G04 #@! TO.P,C20,2*
G04 #@! TO.N,/C1-*
X-48505000Y69805000D03*
G04 #@! TO.P,C20,1*
G04 #@! TO.N,/C1+*
X-42805000Y69805000D03*
G04 #@! TD*
G04 #@! TO.P,C19,1*
G04 #@! TO.N,/C1+*
X-41695000Y69795000D03*
G04 #@! TO.P,C19,2*
G04 #@! TO.N,/C1-*
X-35995000Y69795000D03*
G04 #@! TD*
G04 #@! TO.P,C18,1*
G04 #@! TO.N,/C1+*
X11795000Y64205000D03*
G04 #@! TO.P,C18,2*
G04 #@! TO.N,/C1-*
X6095000Y64205000D03*
G04 #@! TD*
G04 #@! TO.P,C6,2*
G04 #@! TO.N,/C1-*
X-34905000Y75405000D03*
G04 #@! TO.P,C6,1*
G04 #@! TO.N,/C1+*
X-29205000Y75405000D03*
G04 #@! TD*
G04 #@! TO.P,C7,1*
G04 #@! TO.N,/C1+*
X-42805000Y75405000D03*
G04 #@! TO.P,C7,2*
G04 #@! TO.N,/C1-*
X-48505000Y75405000D03*
G04 #@! TD*
G04 #@! TO.P,C8,2*
G04 #@! TO.N,/C1-*
X-35995000Y64195000D03*
G04 #@! TO.P,C8,1*
G04 #@! TO.N,/C1+*
X-41695000Y64195000D03*
G04 #@! TD*
G04 #@! TO.P,C9,1*
G04 #@! TO.N,/C1+*
X11795000Y69805000D03*
G04 #@! TO.P,C9,2*
G04 #@! TO.N,/C1-*
X6095000Y69805000D03*
G04 #@! TD*
G04 #@! TO.P,C17,2*
G04 #@! TO.N,/C1-*
X-62105000Y14305000D03*
G04 #@! TO.P,C17,1*
G04 #@! TO.N,/C1+*
X-56405000Y14305000D03*
G04 #@! TD*
G04 #@! TO.P,C58,2*
G04 #@! TO.N,/C1-*
X-34905000Y86605000D03*
G04 #@! TO.P,C58,1*
G04 #@! TO.N,/C1+*
X-29205000Y86605000D03*
G04 #@! TD*
G04 #@! TO.P,C57,2*
G04 #@! TO.N,/C1-*
X-35995000Y42295000D03*
G04 #@! TO.P,C57,1*
G04 #@! TO.N,/C1+*
X-41695000Y42295000D03*
G04 #@! TD*
G04 #@! TO.P,C56,2*
G04 #@! TO.N,/C1-*
X-48505000Y86605000D03*
G04 #@! TO.P,C56,1*
G04 #@! TO.N,/C1+*
X-42805000Y86605000D03*
G04 #@! TD*
G04 #@! TO.P,C54,1*
G04 #@! TO.N,/C1+*
X11795000Y81005000D03*
G04 #@! TO.P,C54,2*
G04 #@! TO.N,/C1-*
X6095000Y81005000D03*
G04 #@! TD*
G04 #@! TO.P,C30,2*
G04 #@! TO.N,/C1-*
X-48505000Y92205000D03*
G04 #@! TO.P,C30,1*
G04 #@! TO.N,/C1+*
X-42805000Y92205000D03*
G04 #@! TD*
G04 #@! TO.P,C42,2*
G04 #@! TO.N,/C1-*
X-34905000Y69805000D03*
G04 #@! TO.P,C42,1*
G04 #@! TO.N,/C1+*
X-29205000Y69805000D03*
G04 #@! TD*
G04 #@! TO.P,C218,2*
G04 #@! TO.N,/C1-*
X-8795000Y58595000D03*
G04 #@! TO.P,C218,1*
G04 #@! TO.N,/C1+*
X-14495000Y58595000D03*
G04 #@! TD*
G04 #@! TO.P,C217,2*
G04 #@! TO.N,/C1-*
X-7605000Y92205000D03*
G04 #@! TO.P,C217,1*
G04 #@! TO.N,/C1+*
X-1905000Y92205000D03*
G04 #@! TD*
G04 #@! TO.P,C216,2*
G04 #@! TO.N,/C1-*
X-35995000Y31195000D03*
G04 #@! TO.P,C216,1*
G04 #@! TO.N,/C1+*
X-41695000Y31195000D03*
G04 #@! TD*
G04 #@! TO.P,C214,2*
G04 #@! TO.N,/C1-*
X-49595000Y36695000D03*
G04 #@! TO.P,C214,1*
G04 #@! TO.N,/C1+*
X-55295000Y36695000D03*
G04 #@! TD*
G04 #@! TO.P,C210,2*
G04 #@! TO.N,/C1-*
X-8795000Y8695000D03*
G04 #@! TO.P,C210,1*
G04 #@! TO.N,/C1+*
X-14495000Y8695000D03*
G04 #@! TD*
G04 #@! TO.P,C208,2*
G04 #@! TO.N,/C1-*
X-21305000Y75405000D03*
G04 #@! TO.P,C208,1*
G04 #@! TO.N,/C1+*
X-15605000Y75405000D03*
G04 #@! TD*
G04 #@! TO.P,C207,2*
G04 #@! TO.N,/C1-*
X-8795000Y64195000D03*
G04 #@! TO.P,C207,1*
G04 #@! TO.N,/C1+*
X-14495000Y64195000D03*
G04 #@! TD*
G04 #@! TO.P,C206,2*
G04 #@! TO.N,/C1-*
X-7605000Y86605000D03*
G04 #@! TO.P,C206,1*
G04 #@! TO.N,/C1+*
X-1905000Y86605000D03*
G04 #@! TD*
G04 #@! TO.P,C205,2*
G04 #@! TO.N,/C1-*
X6095000Y3105000D03*
G04 #@! TO.P,C205,1*
G04 #@! TO.N,/C1+*
X11795000Y3105000D03*
G04 #@! TD*
G04 #@! TO.P,C202,2*
G04 #@! TO.N,/C1-*
X-62105000Y97805000D03*
G04 #@! TO.P,C202,1*
G04 #@! TO.N,/C1+*
X-56405000Y97805000D03*
G04 #@! TD*
G04 #@! TO.P,C204,2*
G04 #@! TO.N,/C1-*
X-8795000Y19895000D03*
G04 #@! TO.P,C204,1*
G04 #@! TO.N,/C1+*
X-14495000Y19895000D03*
G04 #@! TD*
G04 #@! TO.P,C249,2*
G04 #@! TO.N,/C1-*
X-21305000Y64205000D03*
G04 #@! TO.P,C249,1*
G04 #@! TO.N,/C1+*
X-15605000Y64205000D03*
G04 #@! TD*
G04 #@! TO.P,C248,2*
G04 #@! TO.N,/C1-*
X-8795000Y75395000D03*
G04 #@! TO.P,C248,1*
G04 #@! TO.N,/C1+*
X-14495000Y75395000D03*
G04 #@! TD*
G04 #@! TO.P,C247,2*
G04 #@! TO.N,/C1-*
X-7605000Y75405000D03*
G04 #@! TO.P,C247,1*
G04 #@! TO.N,/C1+*
X-1905000Y75405000D03*
G04 #@! TD*
G04 #@! TO.P,C246,2*
G04 #@! TO.N,/C1-*
X4905000Y64195000D03*
G04 #@! TO.P,C246,1*
G04 #@! TO.N,/C1+*
X-795000Y64195000D03*
G04 #@! TD*
G04 #@! TO.P,C245,2*
G04 #@! TO.N,/C1-*
X-22417000Y25510000D03*
G04 #@! TO.P,C245,1*
G04 #@! TO.N,/C1+*
X-28117000Y25510000D03*
G04 #@! TD*
G04 #@! TO.P,C244,2*
G04 #@! TO.N,/C1-*
X-62105000Y86605000D03*
G04 #@! TO.P,C244,1*
G04 #@! TO.N,/C1+*
X-56405000Y86605000D03*
G04 #@! TD*
G04 #@! TO.P,C243,2*
G04 #@! TO.N,/C1-*
X-22395000Y14295000D03*
G04 #@! TO.P,C243,1*
G04 #@! TO.N,/C1+*
X-28095000Y14295000D03*
G04 #@! TD*
G04 #@! TO.P,C241,2*
G04 #@! TO.N,/C1-*
X-7605000Y31105000D03*
G04 #@! TO.P,C241,1*
G04 #@! TO.N,/C1+*
X-1905000Y31105000D03*
G04 #@! TD*
G04 #@! TO.P,C240,2*
G04 #@! TO.N,/C1-*
X-8795000Y25495000D03*
G04 #@! TO.P,C240,1*
G04 #@! TO.N,/C1+*
X-14495000Y25495000D03*
G04 #@! TD*
G04 #@! TO.P,C238,2*
G04 #@! TO.N,/C1-*
X-21305000Y58605000D03*
G04 #@! TO.P,C238,1*
G04 #@! TO.N,/C1+*
X-15605000Y58605000D03*
G04 #@! TD*
G04 #@! TO.P,C219,2*
G04 #@! TO.N,/C1-*
X-7605000Y69805000D03*
G04 #@! TO.P,C219,1*
G04 #@! TO.N,/C1+*
X-1905000Y69805000D03*
G04 #@! TD*
G04 #@! TO.P,C235,2*
G04 #@! TO.N,/C1-*
X4905000Y69795000D03*
G04 #@! TO.P,C235,1*
G04 #@! TO.N,/C1+*
X-795000Y69795000D03*
G04 #@! TD*
G04 #@! TO.P,C234,2*
G04 #@! TO.N,/C1-*
X-22417000Y31110000D03*
G04 #@! TO.P,C234,1*
G04 #@! TO.N,/C1+*
X-28117000Y31110000D03*
G04 #@! TD*
G04 #@! TO.P,C233,2*
G04 #@! TO.N,/C1-*
X-62105000Y81005000D03*
G04 #@! TO.P,C233,1*
G04 #@! TO.N,/C1+*
X-56405000Y81005000D03*
G04 #@! TD*
G04 #@! TO.P,C231,2*
G04 #@! TO.N,/C1-*
X-7605000Y25505000D03*
G04 #@! TO.P,C231,1*
G04 #@! TO.N,/C1+*
X-1905000Y25505000D03*
G04 #@! TD*
G04 #@! TO.P,C230,2*
G04 #@! TO.N,/C1-*
X-62105000Y92205000D03*
G04 #@! TO.P,C230,1*
G04 #@! TO.N,/C1+*
X-56405000Y92205000D03*
G04 #@! TD*
G04 #@! TO.P,C229,2*
G04 #@! TO.N,/C1-*
X-35995000Y8695000D03*
G04 #@! TO.P,C229,1*
G04 #@! TO.N,/C1+*
X-41695000Y8695000D03*
G04 #@! TD*
G04 #@! TO.P,C228,2*
G04 #@! TO.N,/C1-*
X-7605000Y19905000D03*
G04 #@! TO.P,C228,1*
G04 #@! TO.N,/C1+*
X-1905000Y19905000D03*
G04 #@! TD*
G04 #@! TO.P,C227,2*
G04 #@! TO.N,/C1-*
X-21305000Y31105000D03*
G04 #@! TO.P,C227,1*
G04 #@! TO.N,/C1+*
X-15605000Y31105000D03*
G04 #@! TD*
G04 #@! TO.P,C226,2*
G04 #@! TO.N,/C1-*
X-62105000Y75405000D03*
G04 #@! TO.P,C226,1*
G04 #@! TO.N,/C1+*
X-56405000Y75405000D03*
G04 #@! TD*
G04 #@! TO.P,C225,2*
G04 #@! TO.N,/C1-*
X-22395000Y36695000D03*
G04 #@! TO.P,C225,1*
G04 #@! TO.N,/C1+*
X-28095000Y36695000D03*
G04 #@! TD*
G04 #@! TO.P,C224,2*
G04 #@! TO.N,/C1-*
X-7605000Y64205000D03*
G04 #@! TO.P,C224,1*
G04 #@! TO.N,/C1+*
X-1905000Y64205000D03*
G04 #@! TD*
G04 #@! TO.P,C223,2*
G04 #@! TO.N,/C1-*
X-8795000Y86595000D03*
G04 #@! TO.P,C223,1*
G04 #@! TO.N,/C1+*
X-14495000Y86595000D03*
G04 #@! TD*
G04 #@! TO.P,C220,2*
G04 #@! TO.N,/C1-*
X-35995000Y3095000D03*
G04 #@! TO.P,C220,1*
G04 #@! TO.N,/C1+*
X-41695000Y3095000D03*
G04 #@! TD*
G04 #@! TO.P,C151,2*
G04 #@! TO.N,/C1-*
X-35995000Y36695000D03*
G04 #@! TO.P,C151,1*
G04 #@! TO.N,/C1+*
X-41695000Y36695000D03*
G04 #@! TD*
G04 #@! TO.P,C150,2*
G04 #@! TO.N,/C1-*
X6095000Y97805000D03*
G04 #@! TO.P,C150,1*
G04 #@! TO.N,/C1+*
X11795000Y97805000D03*
G04 #@! TD*
G04 #@! TO.P,C130,1*
G04 #@! TO.N,/C1+*
X11795000Y92205000D03*
G04 #@! TO.P,C130,2*
G04 #@! TO.N,/C1-*
X6095000Y92205000D03*
G04 #@! TD*
G04 #@! TO.P,C141,2*
G04 #@! TO.N,/C1-*
X4905000Y14295000D03*
G04 #@! TO.P,C141,1*
G04 #@! TO.N,/C1+*
X-795000Y14295000D03*
G04 #@! TD*
G04 #@! TO.P,C187,2*
G04 #@! TO.N,/C1-*
X-34905000Y97805000D03*
G04 #@! TO.P,C187,1*
G04 #@! TO.N,/C1+*
X-29205000Y97805000D03*
G04 #@! TD*
G04 #@! TO.P,C186,2*
G04 #@! TO.N,/C1-*
X-34905000Y58605000D03*
G04 #@! TO.P,C186,1*
G04 #@! TO.N,/C1+*
X-29205000Y58605000D03*
G04 #@! TD*
G04 #@! TO.P,C185,2*
G04 #@! TO.N,/C1-*
X-48505000Y58605000D03*
G04 #@! TO.P,C185,1*
G04 #@! TO.N,/C1+*
X-42805000Y58605000D03*
G04 #@! TD*
G04 #@! TO.P,C184,2*
G04 #@! TO.N,/C1-*
X-35995000Y80995000D03*
G04 #@! TO.P,C184,1*
G04 #@! TO.N,/C1+*
X-41695000Y80995000D03*
G04 #@! TD*
G04 #@! TO.P,C183,2*
G04 #@! TO.N,/C1-*
X6095000Y8705000D03*
G04 #@! TO.P,C183,1*
G04 #@! TO.N,/C1+*
X11795000Y8705000D03*
G04 #@! TD*
G04 #@! TO.P,C182,2*
G04 #@! TO.N,/C1-*
X-48505000Y97805000D03*
G04 #@! TO.P,C182,1*
G04 #@! TO.N,/C1+*
X-42805000Y97805000D03*
G04 #@! TD*
G04 #@! TO.P,C181,2*
G04 #@! TO.N,/C1-*
X-62105000Y19905000D03*
G04 #@! TO.P,C181,1*
G04 #@! TO.N,/C1+*
X-56405000Y19905000D03*
G04 #@! TD*
G04 #@! TO.P,C221,2*
G04 #@! TO.N,/C1-*
X-34905000Y3105000D03*
G04 #@! TO.P,C221,1*
G04 #@! TO.N,/C1+*
X-29205000Y3105000D03*
G04 #@! TD*
G04 #@! TO.P,C345,2*
G04 #@! TO.N,/C1-*
X-62105000Y3105000D03*
G04 #@! TO.P,C345,1*
G04 #@! TO.N,/C1+*
X-56405000Y3105000D03*
G04 #@! TD*
G04 #@! TO.P,C236,2*
G04 #@! TO.N,/C1-*
X-49595000Y31195000D03*
G04 #@! TO.P,C236,1*
G04 #@! TO.N,/C1+*
X-55295000Y31195000D03*
G04 #@! TD*
D12*
G04 #@! TO.P,TP3,1*
G04 #@! TO.N,/C2+*
X28400000Y34000000D03*
D13*
X30800000Y34000000D03*
X30097056Y32302944D03*
X28400000Y31600000D03*
X26702944Y32302944D03*
X26000000Y34000000D03*
X26702944Y35697056D03*
X28400000Y36400000D03*
X30097056Y35697056D03*
G04 #@! TD*
D12*
G04 #@! TO.P,TP4,1*
G04 #@! TO.N,/C2-*
X28400000Y24500000D03*
D13*
X30800000Y24500000D03*
X30097056Y22802944D03*
X28400000Y22100000D03*
X26702944Y22802944D03*
X26000000Y24500000D03*
X26702944Y26197056D03*
X28400000Y26900000D03*
X30097056Y26197056D03*
G04 #@! TD*
D12*
G04 #@! TO.P,TP1,1*
G04 #@! TO.N,/C1+*
X-60000000Y55000000D03*
D13*
X-57600000Y55000000D03*
X-58302944Y53302944D03*
X-60000000Y52600000D03*
X-61697056Y53302944D03*
X-62400000Y55000000D03*
X-61697056Y56697056D03*
X-60000000Y57400000D03*
X-58302944Y56697056D03*
G04 #@! TD*
D12*
G04 #@! TO.P,TP2,1*
G04 #@! TO.N,/C1-*
X-60000000Y66000000D03*
D13*
X-57600000Y66000000D03*
X-58302944Y64302944D03*
X-60000000Y63600000D03*
X-61697056Y64302944D03*
X-62400000Y66000000D03*
X-61697056Y67697056D03*
X-60000000Y68400000D03*
X-58302944Y67697056D03*
G04 #@! TD*
D14*
G04 #@! TO.N,/C1-*
X-22400000Y103400000D03*
X-22400000Y97800000D03*
X-22400000Y92200000D03*
X-22400000Y86600000D03*
X-22400000Y81000000D03*
X-22400000Y75400000D03*
X-22400000Y69800000D03*
X-22400000Y64200000D03*
X-22400000Y58600000D03*
X-8800000Y36700000D03*
X-22400000Y42300000D03*
X-22400000Y105100000D03*
X-22400000Y99500000D03*
X-22400000Y93900000D03*
X-22400000Y88300000D03*
X-22400000Y82700000D03*
X-22400000Y77100000D03*
X-22400000Y71500000D03*
X-22400000Y65900000D03*
X-22400000Y60300000D03*
X-8800000Y38400000D03*
X-22400000Y44000000D03*
X-22400000Y101700000D03*
X-22400000Y96100000D03*
X-22400000Y90500000D03*
X-22400000Y84900000D03*
X-22400000Y79300000D03*
X-22400000Y73700000D03*
X-22400000Y68100000D03*
X-22400000Y62500000D03*
X-22400000Y56900000D03*
X-8800000Y35000000D03*
X-22400000Y40600000D03*
X-34900000Y101700000D03*
X-34900000Y96100000D03*
X-34900000Y90500000D03*
X-34900000Y84900000D03*
X-34900000Y79300000D03*
X-34900000Y73700000D03*
X-34900000Y68100000D03*
X-34900000Y62500000D03*
X-34900000Y56900000D03*
X-21300000Y35000000D03*
X-34900000Y40600000D03*
X-34900000Y103400000D03*
X-34900000Y97800000D03*
X-34900000Y92200000D03*
X-34900000Y86600000D03*
X-34900000Y81000000D03*
X-34900000Y75400000D03*
X-34900000Y69800000D03*
X-34900000Y64200000D03*
X-34900000Y58600000D03*
X-21300000Y36700000D03*
X-34900000Y42300000D03*
X-34900000Y105100000D03*
X-34900000Y99500000D03*
X-34900000Y93900000D03*
X-34900000Y88300000D03*
X-34900000Y82700000D03*
X-34900000Y77100000D03*
X-34900000Y71500000D03*
X-34900000Y65900000D03*
X-34900000Y60300000D03*
X-21300000Y38400000D03*
X-34900000Y44000000D03*
X-36000000Y103400000D03*
X-36000000Y97800000D03*
X-36000000Y92200000D03*
X-36000000Y86600000D03*
X-36000000Y81000000D03*
X-36000000Y75400000D03*
X-36000000Y69800000D03*
X-36000000Y64200000D03*
X-36000000Y58600000D03*
X-36000000Y42300000D03*
X-36000000Y101700000D03*
X-36000000Y96100000D03*
X-36000000Y90500000D03*
X-36000000Y84900000D03*
X-36000000Y79300000D03*
X-36000000Y73700000D03*
X-36000000Y68100000D03*
X-36000000Y62500000D03*
X-36000000Y56900000D03*
X-36000000Y40600000D03*
X-36000000Y105100000D03*
X-36000000Y99500000D03*
X-36000000Y93900000D03*
X-36000000Y88300000D03*
X-36000000Y82700000D03*
X-36000000Y77100000D03*
X-36000000Y71500000D03*
X-36000000Y65900000D03*
X-36000000Y60300000D03*
X-36000000Y44000000D03*
X-48500000Y101700000D03*
X-48500000Y96100000D03*
X-48500000Y90500000D03*
X-48500000Y84900000D03*
X-48500000Y79300000D03*
X-48500000Y73700000D03*
X-48500000Y68100000D03*
X-48500000Y62500000D03*
X-48500000Y56900000D03*
X-48500000Y35000000D03*
X-48500000Y40600000D03*
X-48500000Y103400000D03*
X-48500000Y97800000D03*
X-48500000Y92200000D03*
X-48500000Y86600000D03*
X-48500000Y81000000D03*
X-48500000Y75400000D03*
X-48500000Y69800000D03*
X-48500000Y64200000D03*
X-48500000Y58600000D03*
X-48500000Y36700000D03*
X-48500000Y42300000D03*
X-48500000Y105100000D03*
X-48500000Y99500000D03*
X-48500000Y93900000D03*
X-48500000Y88300000D03*
X-48500000Y82700000D03*
X-48500000Y77100000D03*
X-48500000Y71500000D03*
X-48500000Y65900000D03*
X-48500000Y60300000D03*
X-48500000Y38400000D03*
X-48500000Y44000000D03*
X-49600000Y105100000D03*
X-49600000Y99500000D03*
X-49600000Y93900000D03*
X-49600000Y88300000D03*
X-49600000Y82700000D03*
X-49600000Y77100000D03*
X-49600000Y38400000D03*
X-49600000Y44000000D03*
X-49600000Y103400000D03*
X-49600000Y97800000D03*
X-49600000Y92200000D03*
X-49600000Y86600000D03*
X-49600000Y81000000D03*
X-49600000Y75400000D03*
X-49600000Y36700000D03*
X-49600000Y42300000D03*
X-49600000Y101700000D03*
X-49600000Y96100000D03*
X-49600000Y90500000D03*
X-49600000Y84900000D03*
X-49600000Y79300000D03*
X-49600000Y73700000D03*
X-49600000Y35000000D03*
X-49600000Y40600000D03*
X-62100000Y101700000D03*
X-62100000Y96100000D03*
X-62100000Y90500000D03*
X-62100000Y84900000D03*
X-62100000Y79300000D03*
X-62100000Y73700000D03*
X-62100000Y35000000D03*
X-62100000Y40600000D03*
X-62100000Y103400000D03*
X-62100000Y97800000D03*
X-62100000Y92200000D03*
X-62100000Y86600000D03*
X-62100000Y81000000D03*
X-62100000Y75400000D03*
X-62100000Y36700000D03*
X-62100000Y42300000D03*
X-62100000Y105100000D03*
X-62100000Y99500000D03*
X-62100000Y93900000D03*
X-62100000Y88300000D03*
X-62100000Y82700000D03*
X-62100000Y77100000D03*
X-62100000Y38400000D03*
X-62100000Y44000000D03*
X-21300000Y105100000D03*
X-21300000Y99500000D03*
X-21300000Y93900000D03*
X-21300000Y88300000D03*
X-21300000Y82700000D03*
X-21300000Y77100000D03*
X-21300000Y71500000D03*
X-21300000Y65900000D03*
X-21300000Y60300000D03*
X-7600000Y38400000D03*
X-21300000Y44000000D03*
X-21300000Y103400000D03*
X-21300000Y97800000D03*
X-21300000Y92200000D03*
X-21300000Y86600000D03*
X-21300000Y81000000D03*
X-21300000Y75400000D03*
X-21300000Y69800000D03*
X-21300000Y64200000D03*
X-21300000Y58600000D03*
X-7600000Y36700000D03*
X-21300000Y42300000D03*
X-21300000Y101700000D03*
X-21300000Y96100000D03*
X-21300000Y90500000D03*
X-21300000Y84900000D03*
X-21300000Y79300000D03*
X-21300000Y73700000D03*
X-21300000Y68100000D03*
X-21300000Y62500000D03*
X-21300000Y56900000D03*
X-7600000Y35000000D03*
X-21300000Y40600000D03*
X-8800000Y101700000D03*
X-8800000Y96100000D03*
X-8800000Y90500000D03*
X-8800000Y84900000D03*
X-8800000Y79300000D03*
X-8800000Y73700000D03*
X-8800000Y68100000D03*
X-8800000Y62500000D03*
X-8800000Y56900000D03*
X4900000Y35000000D03*
X-8800000Y40600000D03*
X-8800000Y105100000D03*
X-8800000Y99500000D03*
X-8800000Y93900000D03*
X-8800000Y88300000D03*
X-8800000Y82700000D03*
X-8800000Y77100000D03*
X-8800000Y71500000D03*
X-8800000Y65900000D03*
X-8800000Y60300000D03*
X4900000Y38400000D03*
X-8800000Y44000000D03*
X-8800000Y103400000D03*
X-8800000Y97800000D03*
X-8800000Y92200000D03*
X-8800000Y86600000D03*
X-8800000Y81000000D03*
X-8800000Y75400000D03*
X-8800000Y69800000D03*
X-8800000Y64200000D03*
X-8800000Y58600000D03*
X4900000Y36700000D03*
X-8800000Y42300000D03*
X-7600000Y103400000D03*
X-7600000Y97800000D03*
X-7600000Y92200000D03*
X-7600000Y86600000D03*
X-7600000Y81000000D03*
X-7600000Y75400000D03*
X-7600000Y69800000D03*
X-7600000Y64200000D03*
X-7600000Y58600000D03*
X6100000Y36700000D03*
X-7600000Y42300000D03*
X-7600000Y101700000D03*
X-7600000Y96100000D03*
X-7600000Y90500000D03*
X-7600000Y84900000D03*
X-7600000Y79300000D03*
X-7600000Y73700000D03*
X-7600000Y68100000D03*
X-7600000Y62500000D03*
X-7600000Y56900000D03*
X6100000Y35000000D03*
X-7600000Y40600000D03*
X-7600000Y105100000D03*
X-7600000Y99500000D03*
X-7600000Y93900000D03*
X-7600000Y88300000D03*
X-7600000Y82700000D03*
X-7600000Y77100000D03*
X-7600000Y71500000D03*
X-7600000Y65900000D03*
X-7600000Y60300000D03*
X6100000Y38400000D03*
X-7600000Y44000000D03*
X4900000Y103400000D03*
X4900000Y97800000D03*
X4900000Y92200000D03*
X4900000Y86600000D03*
X4900000Y81000000D03*
X4900000Y75400000D03*
X4900000Y69800000D03*
X4900000Y64200000D03*
X4900000Y58600000D03*
X-35994000Y31144000D03*
X4900000Y42300000D03*
X4900000Y105100000D03*
X4900000Y99500000D03*
X4900000Y93900000D03*
X4900000Y88300000D03*
X4900000Y82700000D03*
X4900000Y77100000D03*
X4900000Y71500000D03*
X4900000Y65900000D03*
X4900000Y60300000D03*
X-35994000Y32844000D03*
X4900000Y44000000D03*
X4900000Y101700000D03*
X4900000Y96100000D03*
X4900000Y90500000D03*
X4900000Y84900000D03*
X4900000Y79300000D03*
X4900000Y73700000D03*
X4900000Y68100000D03*
X4900000Y62500000D03*
X4900000Y56900000D03*
X-35994000Y29444000D03*
X4900000Y40600000D03*
X6000000Y103400000D03*
X6000000Y97800000D03*
X6000000Y92200000D03*
X6000000Y86600000D03*
X6000000Y81000000D03*
X6000000Y75400000D03*
X6000000Y69800000D03*
X6000000Y64200000D03*
X6000000Y58600000D03*
X-21432000Y31144000D03*
X6000000Y42300000D03*
X6000000Y105100000D03*
X6000000Y99500000D03*
X6000000Y93900000D03*
X6000000Y88300000D03*
X6000000Y82700000D03*
X6000000Y77100000D03*
X6000000Y71500000D03*
X6000000Y65900000D03*
X6000000Y60300000D03*
X-21432000Y32844000D03*
X6000000Y44000000D03*
X6000000Y101700000D03*
X6000000Y96100000D03*
X6000000Y90500000D03*
X6000000Y84900000D03*
X6000000Y79300000D03*
X6000000Y73700000D03*
X6000000Y68100000D03*
X6000000Y62500000D03*
X6000000Y56900000D03*
X-21432000Y29444000D03*
X6000000Y40600000D03*
X4900000Y32800000D03*
X4900000Y31100000D03*
X4900000Y29400000D03*
X4900000Y27200000D03*
X4900000Y21600000D03*
X4900000Y10400000D03*
X4900000Y4800000D03*
X4900000Y23800000D03*
X4900000Y18200000D03*
X4900000Y12600000D03*
X4900000Y7000000D03*
X4900000Y1400000D03*
X4900000Y25500000D03*
X4900000Y19900000D03*
X4900000Y14300000D03*
X4900000Y8700000D03*
X4900000Y3100000D03*
X-7600000Y29400000D03*
X-7600000Y31100000D03*
X-7600000Y32800000D03*
X-7600000Y23800000D03*
X-7600000Y18200000D03*
X-7600000Y12600000D03*
X-7600000Y7000000D03*
X-7600000Y1400000D03*
X-7600000Y27200000D03*
X-7600000Y21600000D03*
X-7600000Y16000000D03*
X-7600000Y10400000D03*
X-7600000Y4800000D03*
X-7600000Y25500000D03*
X-7600000Y19900000D03*
X-7600000Y14300000D03*
X-7600000Y8700000D03*
X-7600000Y3100000D03*
X-8800000Y29400000D03*
X-8800000Y32800000D03*
X-8800000Y31100000D03*
X-8800000Y25500000D03*
X-8800000Y19900000D03*
X-8800000Y14300000D03*
X-8800000Y8700000D03*
X-8800000Y3100000D03*
X-8800000Y23800000D03*
X-8800000Y18200000D03*
X-8800000Y12600000D03*
X-8800000Y7000000D03*
X-8800000Y1400000D03*
X-8800000Y27200000D03*
X-8800000Y21600000D03*
X-8800000Y16000000D03*
X-8800000Y10400000D03*
X-8800000Y4800000D03*
X-21300000Y16000000D03*
X-21300000Y10400000D03*
X-21300000Y4800000D03*
X-21300000Y14300000D03*
X-21300000Y8700000D03*
X-21300000Y3100000D03*
X-21300000Y12600000D03*
X-21300000Y7000000D03*
X-21300000Y1400000D03*
X-22400000Y4800000D03*
X-22400000Y3100000D03*
X-22400000Y16000000D03*
X-22400000Y10400000D03*
X-22400000Y12600000D03*
X-22400000Y7000000D03*
X-22400000Y1400000D03*
X-22400000Y14300000D03*
X-22400000Y8700000D03*
X-34900000Y16000000D03*
X-34900000Y10400000D03*
X-34900000Y4800000D03*
X-34900000Y-800000D03*
X-34900000Y12600000D03*
X-34900000Y1400000D03*
X-34900000Y-4200000D03*
X-34900000Y14300000D03*
X-34900000Y3100000D03*
X-34900000Y-2500000D03*
X-36000000Y10400000D03*
X-36000000Y4800000D03*
X-34900000Y-800000D03*
X-36000000Y-800000D03*
X-34900000Y7000000D03*
X-34900000Y1400000D03*
X-34900000Y-4200000D03*
X-36000000Y-4200000D03*
X-34900000Y8700000D03*
X-36000000Y8700000D03*
X-34900000Y-2500000D03*
X-36000000Y-2500000D03*
X-36000000Y25500000D03*
X-36000000Y27200000D03*
X-36000000Y21600000D03*
X-36000000Y16000000D03*
X-36000000Y23800000D03*
X-36000000Y18200000D03*
X-36000000Y12600000D03*
X-36000000Y7000000D03*
X-36000000Y1400000D03*
X-36000000Y19900000D03*
X-36000000Y14300000D03*
X-36000000Y3100000D03*
X-48500000Y32800000D03*
X-48400000Y10400000D03*
X-48500000Y29400000D03*
X-48500000Y23800000D03*
X-48500000Y31100000D03*
X-48400000Y14300000D03*
X-48400000Y3100000D03*
X-49600000Y29400000D03*
X-49600000Y23800000D03*
X-48500000Y18200000D03*
X-48400000Y12600000D03*
X-48400000Y7000000D03*
X-49600000Y7000000D03*
X-48400000Y1400000D03*
X-49600000Y31100000D03*
X-48500000Y25500000D03*
X-48500000Y19900000D03*
X-49600000Y19900000D03*
X-48400000Y8700000D03*
X-49600000Y32800000D03*
X-48500000Y27200000D03*
X-48500000Y21600000D03*
X-48400000Y16000000D03*
X-49600000Y16000000D03*
X-49600000Y10400000D03*
X-48400000Y4800000D03*
X-49600000Y4800000D03*
X-49600000Y25500000D03*
X-49600000Y14300000D03*
X-49600000Y8700000D03*
X-49600000Y3100000D03*
X-49600000Y27200000D03*
X-49600000Y21600000D03*
X-49600000Y18200000D03*
X-49600000Y12600000D03*
X-49600000Y1400000D03*
X-62100000Y32800000D03*
X-62100000Y27200000D03*
X-62100000Y21600000D03*
X-62100000Y16000000D03*
X-62100000Y10400000D03*
X-62100000Y4800000D03*
X-62100000Y29400000D03*
X-62100000Y23800000D03*
X-62100000Y18200000D03*
X-62100000Y12600000D03*
X-62100000Y7000000D03*
X-62100000Y1400000D03*
X-62100000Y31100000D03*
X-62100000Y25500000D03*
X-62100000Y19900000D03*
X-62100000Y14300000D03*
X-62100000Y8700000D03*
X-62100000Y3100000D03*
X-21300000Y-800000D03*
X-21300000Y-4200000D03*
X-21300000Y-2500000D03*
X-22400000Y-800000D03*
X-22400000Y-2500000D03*
X-22400000Y-4200000D03*
X-48400000Y-800000D03*
X-48400000Y-4200000D03*
X-48400000Y-2500000D03*
X-49600000Y-800000D03*
X-49600000Y-4200000D03*
X-49600000Y-2500000D03*
X-62100000Y-2500000D03*
X-62100000Y-800000D03*
X-62100000Y-4200000D03*
X4900000Y16000000D03*
X-34900000Y36700000D03*
X-34900000Y31100000D03*
X-34900000Y25500000D03*
X-34900000Y19900000D03*
X-34900000Y35000000D03*
X-34900000Y29400000D03*
X-34900000Y23800000D03*
X-34900000Y18200000D03*
X-34900000Y38400000D03*
X-34900000Y32800000D03*
X-34900000Y27200000D03*
X-34900000Y21600000D03*
X-21432000Y27244000D03*
X-21432000Y21644000D03*
X-21432000Y25544000D03*
X-21432000Y19944000D03*
X-21432000Y23844000D03*
X-21432000Y18244000D03*
X-22400000Y36700000D03*
X-22400000Y31100000D03*
X-22400000Y25500000D03*
X-22400000Y19900000D03*
X-22400000Y35000000D03*
X-22400000Y29400000D03*
X-22400000Y23800000D03*
X-22400000Y18200000D03*
X-22400000Y38400000D03*
X-22400000Y32800000D03*
X-22400000Y27200000D03*
X-22400000Y21600000D03*
X-36000000Y38400000D03*
X-36000000Y35000000D03*
X-36000000Y36700000D03*
X6100000Y31100000D03*
X6100000Y29400000D03*
X6100000Y32800000D03*
X6100000Y23800000D03*
X6100000Y18200000D03*
X6100000Y12600000D03*
X6100000Y7000000D03*
X6100000Y1400000D03*
X6100000Y25500000D03*
X6100000Y19900000D03*
X6100000Y14300000D03*
X6100000Y8700000D03*
X6100000Y3100000D03*
X6100000Y27200000D03*
X6100000Y21600000D03*
X6100000Y16000000D03*
X6100000Y10400000D03*
X6100000Y4800000D03*
G04 #@! TO.N,/C1+*
X-28100000Y103400000D03*
X-28100000Y97800000D03*
X-28100000Y92200000D03*
X-28100000Y86600000D03*
X-28100000Y81000000D03*
X-28100000Y75400000D03*
X-28100000Y69800000D03*
X-28100000Y64200000D03*
X-28100000Y58600000D03*
X-14500000Y36700000D03*
X-28100000Y42300000D03*
X-28100000Y105100000D03*
X-28100000Y99500000D03*
X-28100000Y93900000D03*
X-28100000Y88300000D03*
X-28100000Y82700000D03*
X-28100000Y77100000D03*
X-28100000Y71500000D03*
X-28100000Y65900000D03*
X-28100000Y60300000D03*
X-14500000Y38400000D03*
X-28100000Y44000000D03*
X-28100000Y101700000D03*
X-28100000Y96100000D03*
X-28100000Y90500000D03*
X-28100000Y84900000D03*
X-28100000Y79300000D03*
X-28100000Y73700000D03*
X-28100000Y68100000D03*
X-28100000Y62500000D03*
X-28100000Y56900000D03*
X-14500000Y35000000D03*
X-28100000Y40600000D03*
X-29200000Y103400000D03*
X-29200000Y97800000D03*
X-29200000Y92200000D03*
X-29200000Y86600000D03*
X-29200000Y81000000D03*
X-29200000Y75400000D03*
X-29200000Y69800000D03*
X-29200000Y64200000D03*
X-29200000Y58600000D03*
X-15600000Y36700000D03*
X-29200000Y42300000D03*
X-29200000Y101700000D03*
X-29200000Y96100000D03*
X-29200000Y90500000D03*
X-29200000Y84900000D03*
X-29200000Y79300000D03*
X-29200000Y73700000D03*
X-29200000Y68100000D03*
X-29200000Y62500000D03*
X-29200000Y56900000D03*
X-15600000Y35000000D03*
X-29200000Y40600000D03*
X-29200000Y105100000D03*
X-29200000Y99500000D03*
X-29200000Y93900000D03*
X-29200000Y88300000D03*
X-29200000Y82700000D03*
X-29200000Y77100000D03*
X-29200000Y71500000D03*
X-29200000Y65900000D03*
X-29200000Y60300000D03*
X-15600000Y38400000D03*
X-29200000Y44000000D03*
X-41700000Y103400000D03*
X-41700000Y97800000D03*
X-41700000Y92200000D03*
X-41700000Y86600000D03*
X-41700000Y81000000D03*
X-41700000Y75400000D03*
X-41700000Y69800000D03*
X-41700000Y64200000D03*
X-41700000Y58600000D03*
X-41700000Y36700000D03*
X-41700000Y42300000D03*
X-41700000Y101700000D03*
X-41700000Y96100000D03*
X-41700000Y90500000D03*
X-41700000Y84900000D03*
X-41700000Y79300000D03*
X-41700000Y73700000D03*
X-41700000Y68100000D03*
X-41700000Y62500000D03*
X-41700000Y56900000D03*
X-41700000Y35000000D03*
X-41700000Y40600000D03*
X-41700000Y105100000D03*
X-41700000Y99500000D03*
X-41700000Y93900000D03*
X-41700000Y88300000D03*
X-41700000Y82700000D03*
X-41700000Y77100000D03*
X-41700000Y71500000D03*
X-41700000Y65900000D03*
X-41700000Y60300000D03*
X-41700000Y38400000D03*
X-41700000Y44000000D03*
X-42800000Y101700000D03*
X-42800000Y96100000D03*
X-42800000Y90500000D03*
X-42800000Y84900000D03*
X-42800000Y79300000D03*
X-42800000Y73700000D03*
X-42800000Y68100000D03*
X-42800000Y62500000D03*
X-42800000Y56900000D03*
X-42800000Y35000000D03*
X-42800000Y40600000D03*
X-42800000Y103400000D03*
X-42800000Y97800000D03*
X-42800000Y92200000D03*
X-42800000Y86600000D03*
X-42800000Y81000000D03*
X-42800000Y75400000D03*
X-42800000Y69800000D03*
X-42800000Y64200000D03*
X-42800000Y58600000D03*
X-42800000Y36700000D03*
X-42800000Y42300000D03*
X-42800000Y105100000D03*
X-42800000Y99500000D03*
X-42800000Y93900000D03*
X-42800000Y88300000D03*
X-42800000Y82700000D03*
X-42800000Y77100000D03*
X-42800000Y71500000D03*
X-42800000Y65900000D03*
X-42800000Y60300000D03*
X-42800000Y38400000D03*
X-42800000Y44000000D03*
X-55300000Y97800000D03*
X-55300000Y92200000D03*
X-55300000Y86600000D03*
X-55300000Y81000000D03*
X-55300000Y75400000D03*
X-55300000Y36700000D03*
X-55300000Y42300000D03*
X-55300000Y96100000D03*
X-55300000Y90500000D03*
X-55300000Y84900000D03*
X-55300000Y79300000D03*
X-55300000Y73700000D03*
X-55300000Y35000000D03*
X-55300000Y40600000D03*
X-55300000Y93900000D03*
X-55300000Y88300000D03*
X-55300000Y82700000D03*
X-55300000Y77100000D03*
X-55300000Y38400000D03*
X-55300000Y44000000D03*
X-56400000Y96100000D03*
X-56400000Y90500000D03*
X-56400000Y84900000D03*
X-56400000Y79300000D03*
X-56400000Y73700000D03*
X-56400000Y35000000D03*
X-56400000Y40600000D03*
X-56400000Y97800000D03*
X-56400000Y92200000D03*
X-56400000Y86600000D03*
X-56400000Y81000000D03*
X-56400000Y75400000D03*
X-56400000Y36700000D03*
X-56400000Y42300000D03*
X-56400000Y93900000D03*
X-56400000Y88300000D03*
X-56400000Y82700000D03*
X-56400000Y77100000D03*
X-56400000Y38400000D03*
X-56400000Y44000000D03*
X-15600000Y103400000D03*
X-15600000Y97800000D03*
X-15600000Y92200000D03*
X-15600000Y86600000D03*
X-15600000Y81000000D03*
X-15600000Y75400000D03*
X-15600000Y69800000D03*
X-15600000Y64200000D03*
X-15600000Y58600000D03*
X-1900000Y36700000D03*
X-15600000Y42300000D03*
X-15600000Y105100000D03*
X-15600000Y99500000D03*
X-15600000Y93900000D03*
X-15600000Y88300000D03*
X-15600000Y82700000D03*
X-15600000Y77100000D03*
X-15600000Y71500000D03*
X-15600000Y65900000D03*
X-15600000Y60300000D03*
X-1900000Y38400000D03*
X-15600000Y44000000D03*
X-15600000Y101700000D03*
X-15600000Y96100000D03*
X-15600000Y90500000D03*
X-15600000Y84900000D03*
X-15600000Y79300000D03*
X-15600000Y73700000D03*
X-15600000Y68100000D03*
X-15600000Y62500000D03*
X-15600000Y56900000D03*
X-1900000Y35000000D03*
X-15600000Y40600000D03*
X-14500000Y101700000D03*
X-14500000Y96100000D03*
X-14500000Y90500000D03*
X-14500000Y84900000D03*
X-14500000Y79300000D03*
X-14500000Y73700000D03*
X-14500000Y68100000D03*
X-14500000Y62500000D03*
X-14500000Y56900000D03*
X-800000Y35000000D03*
X-14500000Y40600000D03*
X-14500000Y105100000D03*
X-14500000Y99500000D03*
X-14500000Y93900000D03*
X-14500000Y88300000D03*
X-14500000Y82700000D03*
X-14500000Y77100000D03*
X-14500000Y71500000D03*
X-14500000Y65900000D03*
X-14500000Y60300000D03*
X-800000Y38400000D03*
X-14500000Y44000000D03*
X-14500000Y103400000D03*
X-14500000Y97800000D03*
X-14500000Y92200000D03*
X-14500000Y86600000D03*
X-14500000Y81000000D03*
X-14500000Y75400000D03*
X-14500000Y69800000D03*
X-14500000Y64200000D03*
X-14500000Y58600000D03*
X-800000Y36700000D03*
X-14500000Y42300000D03*
X-1900000Y103400000D03*
X-1900000Y97800000D03*
X-1900000Y92200000D03*
X-1900000Y86600000D03*
X-1900000Y81000000D03*
X-1900000Y75400000D03*
X-1900000Y69800000D03*
X-1900000Y64200000D03*
X-1900000Y58600000D03*
X11800000Y36700000D03*
X-1900000Y42300000D03*
X-1900000Y101700000D03*
X-1900000Y96100000D03*
X-1900000Y90500000D03*
X-1900000Y84900000D03*
X-1900000Y79300000D03*
X-1900000Y73700000D03*
X-1900000Y68100000D03*
X-1900000Y62500000D03*
X-1900000Y56900000D03*
X11800000Y35000000D03*
X-1900000Y40600000D03*
X-1900000Y105100000D03*
X-1900000Y99500000D03*
X-1900000Y93900000D03*
X-1900000Y88300000D03*
X-1900000Y82700000D03*
X-1900000Y77100000D03*
X-1900000Y71500000D03*
X-1900000Y65900000D03*
X-1900000Y60300000D03*
X11800000Y38400000D03*
X-1900000Y44000000D03*
X-800000Y103400000D03*
X-800000Y97800000D03*
X-800000Y92200000D03*
X-800000Y86600000D03*
X-800000Y81000000D03*
X-800000Y75400000D03*
X-800000Y69800000D03*
X-800000Y64200000D03*
X-800000Y58600000D03*
X-41694000Y31144000D03*
X-800000Y42300000D03*
X-800000Y101700000D03*
X-800000Y96100000D03*
X-800000Y90500000D03*
X-800000Y84900000D03*
X-800000Y79300000D03*
X-800000Y73700000D03*
X-800000Y68100000D03*
X-800000Y62500000D03*
X-800000Y56900000D03*
X-41694000Y29444000D03*
X-800000Y40600000D03*
X-800000Y105100000D03*
X-800000Y99500000D03*
X-800000Y93900000D03*
X-800000Y88300000D03*
X-800000Y82700000D03*
X-800000Y77100000D03*
X-800000Y71500000D03*
X-800000Y65900000D03*
X-800000Y60300000D03*
X-41694000Y32844000D03*
X-800000Y44000000D03*
X-800000Y32800000D03*
X-800000Y29400000D03*
X-800000Y31100000D03*
X11800000Y103400000D03*
X11800000Y97800000D03*
X11800000Y92200000D03*
X11800000Y86600000D03*
X11800000Y81000000D03*
X11800000Y75400000D03*
X11800000Y69800000D03*
X11800000Y64200000D03*
X11800000Y58600000D03*
X-15632000Y31144000D03*
X11800000Y42300000D03*
X11800000Y105100000D03*
X11800000Y99500000D03*
X11800000Y93900000D03*
X11800000Y88300000D03*
X11800000Y82700000D03*
X11800000Y77100000D03*
X11800000Y71500000D03*
X11800000Y65900000D03*
X11800000Y60300000D03*
X-15632000Y32844000D03*
X11800000Y44000000D03*
X11800000Y101700000D03*
X11800000Y96100000D03*
X11800000Y90500000D03*
X11800000Y84900000D03*
X11800000Y79300000D03*
X11800000Y73700000D03*
X11800000Y68100000D03*
X11800000Y62500000D03*
X11800000Y56900000D03*
X-15632000Y29444000D03*
X11800000Y40600000D03*
X-800000Y27200000D03*
X-800000Y4800000D03*
X-800000Y8700000D03*
X-800000Y23800000D03*
X-800000Y18200000D03*
X-800000Y12600000D03*
X-1900000Y32800000D03*
X-800000Y21600000D03*
X-1900000Y21600000D03*
X-800000Y16000000D03*
X-1900000Y16000000D03*
X-800000Y10400000D03*
X-1900000Y10400000D03*
X-1900000Y4800000D03*
X-1900000Y31100000D03*
X-800000Y25500000D03*
X-1900000Y25500000D03*
X-800000Y19900000D03*
X-1900000Y19900000D03*
X-800000Y14300000D03*
X-1900000Y14300000D03*
X-1900000Y8700000D03*
X-800000Y3100000D03*
X-1900000Y3100000D03*
X-1900000Y29400000D03*
X-1900000Y23800000D03*
X-1900000Y18200000D03*
X-1900000Y12600000D03*
X-800000Y7000000D03*
X-1900000Y7000000D03*
X-800000Y1400000D03*
X-1900000Y1400000D03*
X-14500000Y31100000D03*
X-14500000Y29400000D03*
X-14500000Y32800000D03*
X-14500000Y25500000D03*
X-14500000Y19900000D03*
X-14500000Y14300000D03*
X-14500000Y8700000D03*
X-14500000Y3100000D03*
X-14500000Y23800000D03*
X-14500000Y18200000D03*
X-14500000Y12600000D03*
X-14500000Y7000000D03*
X-14500000Y1400000D03*
X-14500000Y27200000D03*
X-14500000Y21600000D03*
X-14500000Y16000000D03*
X-14500000Y10400000D03*
X-14500000Y4800000D03*
X-15600000Y16000000D03*
X-15600000Y10400000D03*
X-15600000Y4800000D03*
X-15600000Y14300000D03*
X-15600000Y8700000D03*
X-15600000Y3100000D03*
X-15600000Y12600000D03*
X-15600000Y7000000D03*
X-15600000Y1400000D03*
X-28100000Y16000000D03*
X-28100000Y10400000D03*
X-28100000Y4800000D03*
X-28100000Y12600000D03*
X-28100000Y14300000D03*
X-28100000Y3100000D03*
X-29200000Y16000000D03*
X-29200000Y10400000D03*
X-28100000Y-800000D03*
X-29200000Y-800000D03*
X-29200000Y12600000D03*
X-28100000Y7000000D03*
X-28100000Y1400000D03*
X-28100000Y-4200000D03*
X-29200000Y-4200000D03*
X-29200000Y14300000D03*
X-28100000Y8700000D03*
X-29200000Y3100000D03*
X-28100000Y-2500000D03*
X-29200000Y-2500000D03*
X-29200000Y4800000D03*
X-29200000Y-800000D03*
X-29200000Y7000000D03*
X-29200000Y1400000D03*
X-29200000Y-4200000D03*
X-29200000Y8700000D03*
X-29200000Y-2500000D03*
X-41700000Y27200000D03*
X-41700000Y21600000D03*
X-41700000Y16000000D03*
X-41700000Y10400000D03*
X-41700000Y4800000D03*
X-41700000Y19900000D03*
X-41700000Y14300000D03*
X-41700000Y3100000D03*
X-42800000Y32800000D03*
X-42800000Y21600000D03*
X-42700000Y16000000D03*
X-42700000Y4800000D03*
X-42800000Y29400000D03*
X-41700000Y23800000D03*
X-41700000Y18200000D03*
X-41700000Y12600000D03*
X-41700000Y7000000D03*
X-41700000Y1400000D03*
X-42800000Y31100000D03*
X-41700000Y25500000D03*
X-42800000Y25500000D03*
X-42800000Y19900000D03*
X-42700000Y14300000D03*
X-41700000Y8700000D03*
X-42700000Y3100000D03*
X-42800000Y27200000D03*
X-42700000Y10400000D03*
X-42800000Y23800000D03*
X-42800000Y18200000D03*
X-42700000Y12600000D03*
X-42700000Y7000000D03*
X-42700000Y1400000D03*
X-42700000Y8700000D03*
X-55300000Y31100000D03*
X-55300000Y25500000D03*
X-55300000Y14300000D03*
X-55300000Y3100000D03*
X-55300000Y32800000D03*
X-55300000Y27200000D03*
X-55300000Y21600000D03*
X-55300000Y16000000D03*
X-55300000Y10400000D03*
X-55300000Y4800000D03*
X-55300000Y29400000D03*
X-55300000Y12600000D03*
X-56400000Y31100000D03*
X-55300000Y19900000D03*
X-55300000Y8700000D03*
X-56400000Y8700000D03*
X-56400000Y3100000D03*
X-56400000Y29400000D03*
X-55300000Y23800000D03*
X-55300000Y18200000D03*
X-56400000Y12600000D03*
X-55300000Y7000000D03*
X-56400000Y7000000D03*
X-55300000Y1400000D03*
X-56400000Y32800000D03*
X-56400000Y16000000D03*
X-55300000Y10400000D03*
X-56400000Y4800000D03*
X-56400000Y27200000D03*
X-56400000Y21600000D03*
X-56400000Y10400000D03*
X-56400000Y23800000D03*
X-56400000Y18200000D03*
X-56400000Y1400000D03*
X-56400000Y25500000D03*
X-56400000Y19900000D03*
X-56400000Y14300000D03*
X-15600000Y-800000D03*
X-15600000Y-2500000D03*
X-15600000Y-4200000D03*
X-41700000Y-4200000D03*
X-41700000Y-2500000D03*
X-42700000Y-4200000D03*
X-42700000Y-2500000D03*
X-42700000Y-800000D03*
X-41700000Y-800000D03*
X-55300000Y-800000D03*
X-55300000Y-4200000D03*
X-55300000Y-2500000D03*
X-56400000Y-2500000D03*
X-56400000Y-800000D03*
X-56400000Y-4200000D03*
X-1900000Y27200000D03*
X-29200000Y38400000D03*
X-29200000Y32800000D03*
X-29200000Y27200000D03*
X-29200000Y21600000D03*
X-28100000Y36700000D03*
X-28100000Y31100000D03*
X-28100000Y25500000D03*
X-28100000Y19900000D03*
X-28100000Y38400000D03*
X-28100000Y32800000D03*
X-28100000Y27200000D03*
X-28100000Y21600000D03*
X-28100000Y35000000D03*
X-28100000Y29400000D03*
X-28100000Y23800000D03*
X-28100000Y18200000D03*
X-29200000Y36700000D03*
X-29200000Y31100000D03*
X-29200000Y25500000D03*
X-29200000Y19900000D03*
X-29200000Y35000000D03*
X-29200000Y29400000D03*
X-29200000Y23800000D03*
X-29200000Y18200000D03*
X-15632000Y23844000D03*
X-15632000Y18244000D03*
X-15632000Y27244000D03*
X-15632000Y21644000D03*
X-15632000Y25544000D03*
X-15632000Y19944000D03*
X11800000Y32800000D03*
X11800000Y29400000D03*
X11800000Y31100000D03*
X11800000Y23800000D03*
X11800000Y18200000D03*
X11800000Y12600000D03*
X11800000Y7000000D03*
X11800000Y1400000D03*
X11800000Y27200000D03*
X11800000Y21600000D03*
X11800000Y16000000D03*
X11800000Y10400000D03*
X11800000Y4800000D03*
X11800000Y25500000D03*
X11800000Y19900000D03*
X11800000Y14300000D03*
X11800000Y8700000D03*
X11800000Y3100000D03*
X-55300000Y101700000D03*
X-55300000Y105100000D03*
X-56400000Y103400000D03*
X-56400000Y99500000D03*
X-56400000Y105100000D03*
X-56400000Y101700000D03*
X-55300000Y103400000D03*
X-55300000Y99500000D03*
G04 #@! TO.N,/C2+*
X29200000Y43500000D03*
X29200000Y40100000D03*
X29200000Y41800000D03*
X29200000Y49100000D03*
X29200000Y54700000D03*
X29200000Y60300000D03*
X29200000Y65900000D03*
X29200000Y71500000D03*
X29200000Y77100000D03*
X29200000Y82700000D03*
X29200000Y88300000D03*
X29200000Y94000000D03*
X29200000Y99500000D03*
X29200000Y45700000D03*
X29200000Y51300000D03*
X29200000Y56900000D03*
X29200000Y62500000D03*
X29200000Y68100000D03*
X29200000Y73700000D03*
X29200000Y79300000D03*
X29200000Y84900000D03*
X29200000Y90500000D03*
X29200000Y96100000D03*
X29200000Y47400000D03*
X29200000Y53000000D03*
X29200000Y58600000D03*
X29200000Y64200000D03*
X29200000Y69800000D03*
X29200000Y75390000D03*
X29200000Y81000000D03*
X29200000Y86600000D03*
X29200000Y92190000D03*
X29200000Y97800000D03*
X41700000Y41800000D03*
X41700000Y40100000D03*
X41700000Y43500000D03*
X41700000Y49100000D03*
X41700000Y54700000D03*
X41700000Y60300000D03*
X41700000Y65900000D03*
X41700000Y71500000D03*
X41700000Y77100000D03*
X41700000Y82700000D03*
X41700000Y88300000D03*
X41700000Y94000000D03*
X41700000Y99500000D03*
X41700000Y105100000D03*
X41700000Y47400000D03*
X41700000Y53000000D03*
X41700000Y58600000D03*
X41700000Y64200000D03*
X41700000Y69800000D03*
X41700000Y75400000D03*
X41700000Y81000000D03*
X41700000Y86600000D03*
X41700000Y92200000D03*
X41700000Y97800000D03*
X41700000Y103400000D03*
X41700000Y45700000D03*
X41700000Y51300000D03*
X41700000Y56900000D03*
X41700000Y62500000D03*
X41700000Y68100000D03*
X41700000Y73700000D03*
X41700000Y79300000D03*
X41700000Y84900000D03*
X41700000Y90500000D03*
X41700000Y96100000D03*
X41700000Y101700000D03*
X42800000Y103400000D03*
X42800000Y97800000D03*
X42800000Y92200000D03*
X42800000Y86600000D03*
X42800000Y81000000D03*
X42800000Y75400000D03*
X42800000Y69800000D03*
X42800000Y64200000D03*
X42800000Y58600000D03*
X42800000Y53000000D03*
X42800000Y47400000D03*
X42800000Y41800000D03*
X42800000Y105100000D03*
X42800000Y99500000D03*
X42800000Y94000000D03*
X42800000Y88300000D03*
X42800000Y82700000D03*
X42800000Y77100000D03*
X42800000Y71500000D03*
X42800000Y65900000D03*
X42800000Y60300000D03*
X42800000Y54700000D03*
X42800000Y49100000D03*
X42800000Y43500000D03*
X42800000Y101700000D03*
X42800000Y96100000D03*
X42800000Y90500000D03*
X42800000Y84900000D03*
X42800000Y79300000D03*
X42800000Y73700000D03*
X42800000Y68100000D03*
X42800000Y62500000D03*
X42800000Y56900000D03*
X42800000Y51300000D03*
X42800000Y45700000D03*
X42800000Y40100000D03*
X55300000Y101700000D03*
X55300000Y96100000D03*
X55300000Y90500000D03*
X55300000Y84900000D03*
X55300000Y79300000D03*
X55300000Y73700000D03*
X55300000Y68100000D03*
X55300000Y62500000D03*
X55300000Y56900000D03*
X55300000Y51300000D03*
X55300000Y45700000D03*
X55300000Y40100000D03*
X55300000Y103400000D03*
X55300000Y97800000D03*
X55300000Y92200000D03*
X55300000Y86600000D03*
X55300000Y81000000D03*
X55300000Y75400000D03*
X55300000Y69800000D03*
X55300000Y64200000D03*
X55300000Y58600000D03*
X55300000Y53000000D03*
X55300000Y47400000D03*
X55300000Y41800000D03*
X55300000Y105100000D03*
X55300000Y99500000D03*
X55300000Y94000000D03*
X55300000Y88300000D03*
X55300000Y82700000D03*
X55300000Y77100000D03*
X55300000Y71500000D03*
X55300000Y65900000D03*
X55300000Y60300000D03*
X55300000Y54700000D03*
X55300000Y49100000D03*
X55300000Y43500000D03*
X56400000Y105100000D03*
X56400000Y99500000D03*
X56400000Y94000000D03*
X56400000Y88300000D03*
X56400000Y82700000D03*
X56400000Y77100000D03*
X56400000Y71500000D03*
X56400000Y65900000D03*
X56400000Y60300000D03*
X56400000Y54700000D03*
X56400000Y49100000D03*
X56400000Y43500000D03*
X56400000Y101700000D03*
X56400000Y96100000D03*
X56400000Y90500000D03*
X56400000Y84900000D03*
X56400000Y79300000D03*
X56400000Y73700000D03*
X56400000Y68100000D03*
X56400000Y62500000D03*
X56400000Y56900000D03*
X56400000Y51300000D03*
X56400000Y45700000D03*
X56400000Y40100000D03*
X56400000Y103400000D03*
X56400000Y97800000D03*
X56400000Y92200000D03*
X56400000Y86600000D03*
X56400000Y81000000D03*
X56400000Y75400000D03*
X56400000Y69800000D03*
X56400000Y64200000D03*
X56400000Y58600000D03*
X56400000Y53000000D03*
X56400000Y47400000D03*
X56400000Y41800000D03*
X41700000Y21500000D03*
X41700000Y15900000D03*
X41700000Y10300000D03*
X41700000Y4700000D03*
X41700000Y-900000D03*
X41700000Y19700000D03*
X41700000Y14100000D03*
X41700000Y8500000D03*
X41700000Y2900000D03*
X41700000Y-2700000D03*
X41700000Y18000000D03*
X41700000Y12400000D03*
X41700000Y6800000D03*
X41700000Y1200000D03*
X41700000Y-4400000D03*
X42800000Y21500000D03*
X42800000Y15900000D03*
X42800000Y10300000D03*
X42800000Y4700000D03*
X42800000Y-900000D03*
X42800000Y19700000D03*
X42800000Y14100000D03*
X42800000Y8500000D03*
X42800000Y2900000D03*
X42800000Y-2700000D03*
X42800000Y18000000D03*
X42800000Y12400000D03*
X42800000Y6800000D03*
X42800000Y1200000D03*
X42800000Y-4400000D03*
X55300000Y19700000D03*
X55300000Y14100000D03*
X55300000Y8500000D03*
X55300000Y2900000D03*
X55300000Y-2700000D03*
X55300000Y18000000D03*
X55300000Y12400000D03*
X55300000Y6800000D03*
X55300000Y1200000D03*
X55300000Y-4400000D03*
X55300000Y21500000D03*
X55300000Y15900000D03*
X55300000Y10300000D03*
X55300000Y4700000D03*
X55300000Y-900000D03*
X56400000Y19700000D03*
X56400000Y14100000D03*
X56400000Y8500000D03*
X56400000Y2900000D03*
X56400000Y-2700000D03*
X56400000Y21500000D03*
X56400000Y15900000D03*
X56400000Y10300000D03*
X56400000Y4700000D03*
X56400000Y-900000D03*
X56400000Y18000000D03*
X56400000Y12400000D03*
X56400000Y6800000D03*
X56400000Y1200000D03*
X56400000Y-4400000D03*
X56400000Y23600000D03*
X56400000Y27100000D03*
X56400000Y25300000D03*
X55300000Y27100000D03*
X55300000Y23600000D03*
X55300000Y25300000D03*
X41700000Y23600000D03*
X41700000Y25300000D03*
X41700000Y27100000D03*
X42800000Y23600000D03*
X42800000Y25300000D03*
X42800000Y27100000D03*
X29200000Y15900000D03*
X29200000Y1200000D03*
X29200000Y-900000D03*
X29200000Y8500000D03*
X29200000Y6800000D03*
X29200000Y2900000D03*
X29200000Y10300000D03*
X29200000Y4700000D03*
X29200000Y-2700000D03*
X29200000Y-4400000D03*
X29200000Y14100000D03*
X29200000Y12400000D03*
X28100000Y10300000D03*
X28100000Y2900000D03*
X28100000Y4700000D03*
X28100000Y8500000D03*
X28100000Y6800000D03*
X28100000Y1200000D03*
X28100000Y-900000D03*
X28100000Y-2700000D03*
X28100000Y-4400000D03*
X28100000Y15900000D03*
X28100000Y14100000D03*
X28100000Y12400000D03*
X28100000Y105100000D03*
X28100000Y99500000D03*
X28100000Y93900000D03*
X28100000Y88300000D03*
X28100000Y82700000D03*
X28100000Y103400000D03*
X28100000Y97800000D03*
X28100000Y92200000D03*
X28100000Y86600000D03*
X28100000Y81000000D03*
X28100000Y101700000D03*
X28100000Y96100000D03*
X28100000Y90500000D03*
X28100000Y84900000D03*
X28100000Y79300000D03*
X28100000Y75400000D03*
X28100000Y69800000D03*
X28100000Y64200000D03*
X28100000Y77100000D03*
X28100000Y71500000D03*
X28100000Y65900000D03*
X28100000Y73700000D03*
X28100000Y68100000D03*
X28100000Y62500000D03*
X29200000Y105100000D03*
X29200000Y103400000D03*
X29200000Y101700000D03*
G04 #@! TO.N,/C2-*
X22400000Y105100000D03*
X22400000Y101700000D03*
X22400000Y103400000D03*
X34900000Y105100000D03*
X34900000Y103400000D03*
X34900000Y101700000D03*
X34900000Y97800000D03*
X34900000Y92190000D03*
X34900000Y86600000D03*
X34900000Y81000000D03*
X34900000Y75400000D03*
X34900000Y69800000D03*
X34900000Y64200000D03*
X34900000Y58600000D03*
X34900000Y96100000D03*
X34900000Y90500000D03*
X34900000Y84900000D03*
X34900000Y79300000D03*
X34900000Y73700000D03*
X34900000Y68100000D03*
X34900000Y62500000D03*
X34900000Y56900000D03*
X34900000Y99500000D03*
X34900000Y94000000D03*
X34900000Y88300000D03*
X34900000Y82700000D03*
X34900000Y77100000D03*
X34900000Y71500000D03*
X34900000Y65900000D03*
X34900000Y60300000D03*
X34900000Y53000000D03*
X34900000Y47400000D03*
X34900000Y41800000D03*
X34900000Y51300000D03*
X34900000Y45700000D03*
X34900000Y40100000D03*
X34900000Y54700000D03*
X34900000Y49100000D03*
X34900000Y43500000D03*
X36000000Y103400000D03*
X36000000Y97800000D03*
X36000000Y92200000D03*
X36000000Y86600000D03*
X36000000Y81000000D03*
X36000000Y75400000D03*
X36000000Y69800000D03*
X36000000Y64200000D03*
X36000000Y58600000D03*
X36000000Y53000000D03*
X36000000Y47400000D03*
X36000000Y41800000D03*
X36000000Y105100000D03*
X36000000Y99500000D03*
X36000000Y94000000D03*
X36000000Y88300000D03*
X36000000Y82700000D03*
X36000000Y77100000D03*
X36000000Y71500000D03*
X36000000Y65900000D03*
X36000000Y60300000D03*
X36000000Y54700000D03*
X36000000Y49100000D03*
X36000000Y43500000D03*
X36000000Y101700000D03*
X36000000Y96100000D03*
X36000000Y90500000D03*
X36000000Y84900000D03*
X36000000Y79300000D03*
X36000000Y73700000D03*
X36000000Y68100000D03*
X36000000Y62500000D03*
X36000000Y56900000D03*
X36000000Y51300000D03*
X36000000Y45700000D03*
X36000000Y40100000D03*
X48600000Y105100000D03*
X48600000Y99500000D03*
X48600000Y94000000D03*
X48600000Y88300000D03*
X48600000Y82700000D03*
X48600000Y77100000D03*
X48600000Y71500000D03*
X48600000Y65900000D03*
X48600000Y60300000D03*
X48600000Y54700000D03*
X48600000Y49100000D03*
X48600000Y43500000D03*
X48600000Y101700000D03*
X48600000Y96100000D03*
X48600000Y90500000D03*
X48600000Y84900000D03*
X48600000Y79300000D03*
X48600000Y73700000D03*
X48600000Y68100000D03*
X48600000Y62500000D03*
X48600000Y56900000D03*
X48600000Y51300000D03*
X48600000Y45700000D03*
X48600000Y40100000D03*
X48600000Y103400000D03*
X48600000Y97800000D03*
X48600000Y92200000D03*
X48600000Y86600000D03*
X48600000Y81000000D03*
X48600000Y75400000D03*
X48600000Y69800000D03*
X48600000Y64200000D03*
X48600000Y58600000D03*
X48600000Y53000000D03*
X48600000Y47400000D03*
X48600000Y41800000D03*
X49600000Y101700000D03*
X49600000Y96100000D03*
X49600000Y90500000D03*
X49600000Y84900000D03*
X49600000Y79300000D03*
X49600000Y73700000D03*
X49600000Y68100000D03*
X49600000Y62500000D03*
X49600000Y56900000D03*
X49600000Y51300000D03*
X49600000Y45700000D03*
X49600000Y40100000D03*
X49600000Y105100000D03*
X49600000Y99500000D03*
X49600000Y94000000D03*
X49600000Y88300000D03*
X49600000Y82700000D03*
X49600000Y77100000D03*
X49600000Y71500000D03*
X49600000Y65900000D03*
X49600000Y60300000D03*
X49600000Y54700000D03*
X49600000Y49100000D03*
X49600000Y43500000D03*
X49600000Y103400000D03*
X49600000Y97800000D03*
X49600000Y92200000D03*
X49600000Y86600000D03*
X49600000Y81000000D03*
X49600000Y75400000D03*
X49600000Y69800000D03*
X49600000Y64200000D03*
X49600000Y58600000D03*
X49600000Y53000000D03*
X49600000Y47400000D03*
X49600000Y41800000D03*
X62100000Y105100000D03*
X62100000Y99500000D03*
X62100000Y94000000D03*
X62100000Y88300000D03*
X62100000Y82700000D03*
X62100000Y77100000D03*
X62100000Y71500000D03*
X62100000Y65900000D03*
X62100000Y60300000D03*
X62100000Y54700000D03*
X62100000Y49100000D03*
X62100000Y43500000D03*
X62100000Y101700000D03*
X62100000Y96100000D03*
X62100000Y90500000D03*
X62100000Y84900000D03*
X62100000Y79300000D03*
X62100000Y73700000D03*
X62100000Y68100000D03*
X62100000Y62500000D03*
X62100000Y56900000D03*
X62100000Y51300000D03*
X62100000Y45700000D03*
X62100000Y40100000D03*
X62100000Y103400000D03*
X62100000Y97800000D03*
X62100000Y92200000D03*
X62100000Y86600000D03*
X62100000Y81000000D03*
X62100000Y75400000D03*
X62100000Y69800000D03*
X62100000Y64200000D03*
X62100000Y58600000D03*
X62100000Y53000000D03*
X62100000Y47400000D03*
X62100000Y41800000D03*
X36000000Y19700000D03*
X36000000Y14100000D03*
X36000000Y8500000D03*
X36000000Y2900000D03*
X36000000Y-2700000D03*
X36000000Y18000000D03*
X36000000Y12400000D03*
X36000000Y6800000D03*
X36000000Y1200000D03*
X36000000Y-4400000D03*
X36000000Y21500000D03*
X36000000Y15900000D03*
X36000000Y10300000D03*
X36000000Y4700000D03*
X36000000Y-900000D03*
X48600000Y18000000D03*
X48600000Y12400000D03*
X48600000Y6800000D03*
X48600000Y1200000D03*
X48600000Y-4400000D03*
X48600000Y19700000D03*
X48600000Y14100000D03*
X48600000Y8500000D03*
X48600000Y2900000D03*
X48600000Y-2700000D03*
X48600000Y21500000D03*
X48600000Y15900000D03*
X48600000Y10300000D03*
X48600000Y4700000D03*
X48600000Y-900000D03*
X49600000Y21500000D03*
X49600000Y15900000D03*
X49600000Y10300000D03*
X49600000Y4700000D03*
X49600000Y-900000D03*
X49600000Y19700000D03*
X49600000Y14100000D03*
X49600000Y8500000D03*
X49600000Y2900000D03*
X49600000Y-2700000D03*
X49600000Y18000000D03*
X49600000Y12400000D03*
X49600000Y6800000D03*
X49600000Y1200000D03*
X49600000Y-4400000D03*
X62100000Y21500000D03*
X62100000Y15900000D03*
X62100000Y10300000D03*
X62100000Y4700000D03*
X62100000Y-900000D03*
X62100000Y18000000D03*
X62100000Y12400000D03*
X62100000Y6800000D03*
X62100000Y1200000D03*
X62100000Y-4400000D03*
X62100000Y19700000D03*
X62100000Y14100000D03*
X62100000Y8500000D03*
X62100000Y2900000D03*
X62100000Y-2700000D03*
X36000000Y27100000D03*
X36000000Y23600000D03*
X36000000Y25300000D03*
X62100000Y25300000D03*
X62100000Y23600000D03*
X62100000Y27100000D03*
X48600000Y27100000D03*
X48600000Y25300000D03*
X48600000Y23600000D03*
X49600000Y23600000D03*
X49600000Y25300000D03*
X49600000Y27100000D03*
X34900000Y8500000D03*
X34900000Y15900000D03*
X34900000Y1200000D03*
X34900000Y-900000D03*
X34900000Y2900000D03*
X34900000Y6800000D03*
X34900000Y4700000D03*
X34900000Y10300000D03*
X34900000Y12400000D03*
X34900000Y-2700000D03*
X34900000Y-4400000D03*
X34900000Y14100000D03*
X22400000Y6800000D03*
X22400000Y10300000D03*
X22400000Y2900000D03*
X22400000Y4700000D03*
X22400000Y8500000D03*
X22400000Y1200000D03*
X22400000Y15900000D03*
X22400000Y14100000D03*
X22400000Y12400000D03*
X22400000Y-2700000D03*
X22400000Y-900000D03*
X22400000Y-4400000D03*
X22400000Y99500000D03*
X22400000Y93900000D03*
X22400000Y88300000D03*
X22400000Y82700000D03*
X22400000Y97800000D03*
X22400000Y92200000D03*
X22400000Y86600000D03*
X22400000Y81000000D03*
X22400000Y96100000D03*
X22400000Y90500000D03*
X22400000Y84900000D03*
X22400000Y79300000D03*
X22400000Y75400000D03*
X22400000Y69800000D03*
X22400000Y64200000D03*
X22400000Y77100000D03*
X22400000Y71500000D03*
X22400000Y65900000D03*
X22400000Y73700000D03*
X22400000Y68100000D03*
X22400000Y62500000D03*
G04 #@! TD*
D15*
G04 #@! TO.N,/C1-*
G36*
X-61007355Y105362645D02*
X-60704031Y104967345D01*
X-60513351Y104507001D01*
X-60444000Y103980232D01*
X-60444000Y74041000D01*
X-60440856Y73985018D01*
X-60361252Y73278514D01*
X-60336338Y73169356D01*
X-60101518Y72498279D01*
X-60052938Y72397403D01*
X-59674677Y71795404D01*
X-59604868Y71707867D01*
X-59102133Y71205132D01*
X-59014596Y71135323D01*
X-58412597Y70757062D01*
X-58311721Y70708482D01*
X-57640644Y70473662D01*
X-57531486Y70448748D01*
X-56824982Y70369144D01*
X-56769000Y70366000D01*
X-54610000Y70366000D01*
X-54554018Y70369144D01*
X-53847514Y70448748D01*
X-53738356Y70473662D01*
X-53067279Y70708482D01*
X-52966403Y70757062D01*
X-52364404Y71135323D01*
X-52276867Y71205132D01*
X-51774132Y71707867D01*
X-51704323Y71795404D01*
X-51326062Y72397403D01*
X-51277482Y72498279D01*
X-51042662Y73169356D01*
X-51017748Y73278514D01*
X-50938144Y73985018D01*
X-50935000Y74041000D01*
X-50935000Y103853232D01*
X-50865649Y104380001D01*
X-50674969Y104840345D01*
X-50371645Y105235645D01*
X-50157453Y105400000D01*
X-47888528Y105400000D01*
X-47674875Y105235714D01*
X-47372577Y104840592D01*
X-47183035Y104380622D01*
X-47114950Y103854402D01*
X-47228273Y57278497D01*
X-47225264Y57222503D01*
X-47147370Y56515767D01*
X-47122719Y56406544D01*
X-46889506Y55734864D01*
X-46841167Y55633866D01*
X-46464331Y55030925D01*
X-46394727Y54943214D01*
X-45893164Y54439252D01*
X-45805789Y54369232D01*
X-45204655Y53989520D01*
X-45103888Y53940699D01*
X-44433329Y53704281D01*
X-44324224Y53679108D01*
X-43617868Y53597841D01*
X-43561890Y53594565D01*
X-41155476Y53588929D01*
X-41099430Y53591948D01*
X-40392038Y53670056D01*
X-40282718Y53694765D01*
X-39610495Y53928477D01*
X-39509425Y53976915D01*
X-38906148Y54354488D01*
X-38818407Y54424221D01*
X-38314388Y54926684D01*
X-38244383Y55014209D01*
X-37864946Y55616314D01*
X-37816196Y55717234D01*
X-37580405Y56388731D01*
X-37555359Y56497974D01*
X-37475063Y57205120D01*
X-37471870Y57261156D01*
X-37436839Y103852872D01*
X-37367096Y104379815D01*
X-37176067Y104840267D01*
X-36872422Y105235625D01*
X-36658065Y105400000D01*
X-34385166Y105400000D01*
X-34170598Y105235597D01*
X-33866556Y104840173D01*
X-33675086Y104379581D01*
X-33604849Y103852419D01*
X-33525365Y57009350D01*
X-33522143Y56953516D01*
X-33441750Y56248934D01*
X-33416777Y56140084D01*
X-33182002Y55470920D01*
X-33133493Y55370329D01*
X-32756048Y54769967D01*
X-32686420Y54682650D01*
X-32185134Y54181041D01*
X-32097864Y54111358D01*
X-31497745Y53733525D01*
X-31397184Y53684951D01*
X-30728172Y53449744D01*
X-30619338Y53424701D01*
X-29914808Y53343855D01*
X-29858977Y53340596D01*
X-27570070Y53335235D01*
X-27513962Y53338261D01*
X-26805802Y53416543D01*
X-26696369Y53441306D01*
X-26023494Y53675525D01*
X-25922336Y53724066D01*
X-25318630Y54102429D01*
X-25230844Y54172305D01*
X-24726708Y54675758D01*
X-24656714Y54763449D01*
X-24277532Y55366641D01*
X-24228853Y55467732D01*
X-23993721Y56140288D01*
X-23968810Y56249688D01*
X-23889567Y56957741D01*
X-23886465Y57013844D01*
X-23932592Y103853703D01*
X-23863754Y104380251D01*
X-23673533Y104840445D01*
X-23370626Y105235671D01*
X-23156650Y105400000D01*
X-20889711Y105400000D01*
X-20676385Y105235760D01*
X-20374704Y104840749D01*
X-20185836Y104380992D01*
X-20118508Y103855107D01*
X-20299629Y57283837D01*
X-20296697Y57227788D01*
X-20219688Y56520295D01*
X-20195150Y56410939D01*
X-19962491Y55738372D01*
X-19914212Y55637230D01*
X-19537592Y55033380D01*
X-19467998Y54945532D01*
X-18966341Y54440739D01*
X-18878928Y54370599D01*
X-18277436Y53990224D01*
X-18176597Y53941315D01*
X-17505493Y53704470D01*
X-17396293Y53679252D01*
X-16689294Y53597836D01*
X-16633264Y53594554D01*
X-13971609Y53588321D01*
X-13915624Y53591334D01*
X-13208982Y53669272D01*
X-13099773Y53693927D01*
X-12428188Y53927144D01*
X-12327203Y53975481D01*
X-11724346Y54352284D01*
X-11636648Y54421879D01*
X-11132744Y54923375D01*
X-11062730Y55010739D01*
X-10683045Y55611785D01*
X-10634225Y55712536D01*
X-10397794Y56382997D01*
X-10372616Y56492087D01*
X-10291294Y57198348D01*
X-10288013Y57254318D01*
X-10173830Y103915565D01*
X-10105405Y104426452D01*
X-9919963Y104871834D01*
X-9625720Y105254168D01*
X-9435266Y105400000D01*
X-7197809Y105400000D01*
X-7006369Y105254026D01*
X-6710133Y104871347D01*
X-6522489Y104425258D01*
X-6451600Y103913295D01*
X-6110939Y57242802D01*
X-6107427Y57187187D01*
X-6023670Y56485540D01*
X-5998266Y56377198D01*
X-5761394Y55711453D01*
X-5712656Y55611413D01*
X-5334402Y55014548D01*
X-5264745Y54927767D01*
X-4763847Y54429345D01*
X-4676720Y54360118D01*
X-4077986Y53984828D01*
X-3977707Y53936587D01*
X-3310796Y53703018D01*
X-3202330Y53678151D01*
X-2500276Y53597873D01*
X-2444643Y53594637D01*
X-22066Y53588963D01*
X34173Y53592004D01*
X743968Y53670656D01*
X853645Y53695534D01*
X1527907Y53930836D01*
X1629248Y53979598D01*
X2233865Y54359644D01*
X2321746Y54429823D01*
X2826128Y54935387D01*
X2896100Y55023431D01*
X3274730Y55628935D01*
X3323255Y55730390D01*
X3556978Y56405200D01*
X3581600Y56514935D01*
X3658591Y57224913D01*
X3661500Y57281159D01*
X3443149Y103919001D01*
X3507974Y104428279D01*
X3690195Y104872604D01*
X3981504Y105254400D01*
X4170489Y105400000D01*
X6396205Y105400000D01*
X6586139Y105254246D01*
X6879329Y104872105D01*
X7063617Y104427096D01*
X7130753Y103916775D01*
X7120247Y2763319D01*
X7053008Y2252959D01*
X6868625Y1807917D01*
X6709065Y1600000D01*
X3828954Y1600000D01*
X3668684Y1808189D01*
X3483129Y2253609D01*
X3414577Y2764558D01*
X3303899Y43824906D01*
X3300615Y43880784D01*
X3219382Y44585880D01*
X3194259Y44694793D01*
X2958422Y45364225D01*
X2909732Y45464835D01*
X2531077Y46065150D01*
X2461252Y46152431D01*
X1958700Y46653630D01*
X1871232Y46723218D01*
X1269898Y47100254D01*
X1169157Y47148673D01*
X499092Y47382705D01*
X390112Y47407535D01*
X-315200Y47486867D01*
X-371087Y47490000D01*
X-2667000Y47490000D01*
X-2722982Y47486856D01*
X-3429486Y47407252D01*
X-3538644Y47382338D01*
X-4209721Y47147518D01*
X-4310597Y47098938D01*
X-4912596Y46720677D01*
X-5000133Y46650868D01*
X-5502868Y46148133D01*
X-5572677Y46060596D01*
X-5950938Y45458597D01*
X-5999518Y45357721D01*
X-6234338Y44686644D01*
X-6259252Y44577486D01*
X-6338856Y43870982D01*
X-6342000Y43815000D01*
X-6342000Y2953768D01*
X-6411351Y2426999D01*
X-6602031Y1966655D01*
X-6883375Y1600000D01*
X-8842419Y1600000D01*
X-9000000Y1631345D01*
X-9157582Y1600000D01*
X-9542257Y1523483D01*
X-9604645Y1571355D01*
X-9907969Y1966655D01*
X-10098649Y2426999D01*
X-10168000Y2953768D01*
X-10168000Y43815000D01*
X-10171144Y43870982D01*
X-10250748Y44577486D01*
X-10275662Y44686644D01*
X-10510482Y45357721D01*
X-10559062Y45458597D01*
X-10937323Y46060596D01*
X-11007132Y46148133D01*
X-11509867Y46650868D01*
X-11597404Y46720677D01*
X-12199403Y47098938D01*
X-12300279Y47147518D01*
X-12971356Y47382338D01*
X-13080514Y47407252D01*
X-13787018Y47486856D01*
X-13843000Y47490000D01*
X-16129000Y47490000D01*
X-16184982Y47486856D01*
X-16891486Y47407252D01*
X-17000644Y47382338D01*
X-17671721Y47147518D01*
X-17772597Y47098938D01*
X-18374596Y46720677D01*
X-18462133Y46650868D01*
X-18964868Y46148133D01*
X-19034677Y46060596D01*
X-19412938Y45458597D01*
X-19461518Y45357721D01*
X-19696338Y44686644D01*
X-19721252Y44577486D01*
X-19800856Y43870982D01*
X-19804000Y43815000D01*
X-19804000Y-2761232D01*
X-19877678Y-3320871D01*
X-20081045Y-3811845D01*
X-20404553Y-4233447D01*
X-20621608Y-4400000D01*
X-23066392Y-4400000D01*
X-23283447Y-4233447D01*
X-23606955Y-3811845D01*
X-23810322Y-3320871D01*
X-23884000Y-2761232D01*
X-23884000Y43815000D01*
X-23887144Y43870982D01*
X-23966748Y44577486D01*
X-23991662Y44686644D01*
X-24226482Y45357721D01*
X-24275062Y45458597D01*
X-24653323Y46060596D01*
X-24723132Y46148133D01*
X-25225867Y46650868D01*
X-25313404Y46720677D01*
X-25915403Y47098938D01*
X-26016279Y47147518D01*
X-26687356Y47382338D01*
X-26796514Y47407252D01*
X-27503018Y47486856D01*
X-27559000Y47490000D01*
X-29845000Y47490000D01*
X-29900982Y47486856D01*
X-30607486Y47407252D01*
X-30716644Y47382338D01*
X-31387721Y47147518D01*
X-31488597Y47098938D01*
X-32090596Y46720677D01*
X-32178133Y46650868D01*
X-32680868Y46148133D01*
X-32750677Y46060596D01*
X-33128938Y45458597D01*
X-33177518Y45357721D01*
X-33412338Y44686644D01*
X-33437252Y44577486D01*
X-33516856Y43870982D01*
X-33520000Y43815000D01*
X-33520000Y-2888232D01*
X-33589351Y-3415001D01*
X-33780031Y-3875345D01*
X-34083355Y-4270645D01*
X-34251934Y-4400000D01*
X-36614066Y-4400000D01*
X-36782645Y-4270645D01*
X-37085969Y-3875345D01*
X-37276649Y-3415001D01*
X-37346000Y-2888232D01*
X-37346000Y43815000D01*
X-37349144Y43870982D01*
X-37428748Y44577486D01*
X-37453662Y44686644D01*
X-37688482Y45357721D01*
X-37737062Y45458597D01*
X-38115323Y46060596D01*
X-38185132Y46148133D01*
X-38687867Y46650868D01*
X-38775404Y46720677D01*
X-39377403Y47098938D01*
X-39478279Y47147518D01*
X-40149356Y47382338D01*
X-40258514Y47407252D01*
X-40965018Y47486856D01*
X-41021000Y47490000D01*
X-43307000Y47490000D01*
X-43362982Y47486856D01*
X-44069486Y47407252D01*
X-44178644Y47382338D01*
X-44849721Y47147518D01*
X-44950597Y47098938D01*
X-45552596Y46720677D01*
X-45640133Y46650868D01*
X-46142868Y46148133D01*
X-46212677Y46060596D01*
X-46590938Y45458597D01*
X-46639518Y45357721D01*
X-46874338Y44686644D01*
X-46899252Y44577486D01*
X-46978856Y43870982D01*
X-46982000Y43815000D01*
X-46982000Y-2888232D01*
X-47051351Y-3415001D01*
X-47242031Y-3875345D01*
X-47545355Y-4270645D01*
X-47713934Y-4400000D01*
X-50076066Y-4400000D01*
X-50244645Y-4270645D01*
X-50547969Y-3875345D01*
X-50738649Y-3415001D01*
X-50808000Y-2888232D01*
X-50808000Y43815000D01*
X-50811144Y43870982D01*
X-50890748Y44577486D01*
X-50915662Y44686644D01*
X-51150482Y45357721D01*
X-51199062Y45458597D01*
X-51577323Y46060596D01*
X-51647132Y46148133D01*
X-52149867Y46650868D01*
X-52237404Y46720677D01*
X-52839403Y47098938D01*
X-52940279Y47147518D01*
X-53611356Y47382338D01*
X-53720514Y47407252D01*
X-54427018Y47486856D01*
X-54483000Y47490000D01*
X-56515000Y47490000D01*
X-56570982Y47486856D01*
X-57277486Y47407252D01*
X-57386644Y47382338D01*
X-58057721Y47147518D01*
X-58158597Y47098938D01*
X-58760596Y46720677D01*
X-58848133Y46650868D01*
X-59350868Y46148133D01*
X-59420677Y46060596D01*
X-59798938Y45458597D01*
X-59847518Y45357721D01*
X-60082338Y44686644D01*
X-60107252Y44577486D01*
X-60186856Y43870982D01*
X-60190000Y43815000D01*
X-60190000Y-2761232D01*
X-60263678Y-3320871D01*
X-60467045Y-3811845D01*
X-60790553Y-4233447D01*
X-61007608Y-4400000D01*
X-63400000Y-4400000D01*
X-63400000Y50338982D01*
X-63228791Y50167773D01*
X-61133801Y49300000D01*
X-58866199Y49300000D01*
X-56771209Y50167773D01*
X-55167773Y51771209D01*
X-54300000Y53866199D01*
X-54300000Y56133801D01*
X-55167773Y58228791D01*
X-56771209Y59832227D01*
X-58866199Y60700000D01*
X-61133801Y60700000D01*
X-63228791Y59832227D01*
X-63400000Y59661018D01*
X-63400000Y105400000D01*
X-61056037Y105400000D01*
X-61007355Y105362645D01*
X-61007355Y105362645D01*
G37*
X-61007355Y105362645D02*
X-60704031Y104967345D01*
X-60513351Y104507001D01*
X-60444000Y103980232D01*
X-60444000Y74041000D01*
X-60440856Y73985018D01*
X-60361252Y73278514D01*
X-60336338Y73169356D01*
X-60101518Y72498279D01*
X-60052938Y72397403D01*
X-59674677Y71795404D01*
X-59604868Y71707867D01*
X-59102133Y71205132D01*
X-59014596Y71135323D01*
X-58412597Y70757062D01*
X-58311721Y70708482D01*
X-57640644Y70473662D01*
X-57531486Y70448748D01*
X-56824982Y70369144D01*
X-56769000Y70366000D01*
X-54610000Y70366000D01*
X-54554018Y70369144D01*
X-53847514Y70448748D01*
X-53738356Y70473662D01*
X-53067279Y70708482D01*
X-52966403Y70757062D01*
X-52364404Y71135323D01*
X-52276867Y71205132D01*
X-51774132Y71707867D01*
X-51704323Y71795404D01*
X-51326062Y72397403D01*
X-51277482Y72498279D01*
X-51042662Y73169356D01*
X-51017748Y73278514D01*
X-50938144Y73985018D01*
X-50935000Y74041000D01*
X-50935000Y103853232D01*
X-50865649Y104380001D01*
X-50674969Y104840345D01*
X-50371645Y105235645D01*
X-50157453Y105400000D01*
X-47888528Y105400000D01*
X-47674875Y105235714D01*
X-47372577Y104840592D01*
X-47183035Y104380622D01*
X-47114950Y103854402D01*
X-47228273Y57278497D01*
X-47225264Y57222503D01*
X-47147370Y56515767D01*
X-47122719Y56406544D01*
X-46889506Y55734864D01*
X-46841167Y55633866D01*
X-46464331Y55030925D01*
X-46394727Y54943214D01*
X-45893164Y54439252D01*
X-45805789Y54369232D01*
X-45204655Y53989520D01*
X-45103888Y53940699D01*
X-44433329Y53704281D01*
X-44324224Y53679108D01*
X-43617868Y53597841D01*
X-43561890Y53594565D01*
X-41155476Y53588929D01*
X-41099430Y53591948D01*
X-40392038Y53670056D01*
X-40282718Y53694765D01*
X-39610495Y53928477D01*
X-39509425Y53976915D01*
X-38906148Y54354488D01*
X-38818407Y54424221D01*
X-38314388Y54926684D01*
X-38244383Y55014209D01*
X-37864946Y55616314D01*
X-37816196Y55717234D01*
X-37580405Y56388731D01*
X-37555359Y56497974D01*
X-37475063Y57205120D01*
X-37471870Y57261156D01*
X-37436839Y103852872D01*
X-37367096Y104379815D01*
X-37176067Y104840267D01*
X-36872422Y105235625D01*
X-36658065Y105400000D01*
X-34385166Y105400000D01*
X-34170598Y105235597D01*
X-33866556Y104840173D01*
X-33675086Y104379581D01*
X-33604849Y103852419D01*
X-33525365Y57009350D01*
X-33522143Y56953516D01*
X-33441750Y56248934D01*
X-33416777Y56140084D01*
X-33182002Y55470920D01*
X-33133493Y55370329D01*
X-32756048Y54769967D01*
X-32686420Y54682650D01*
X-32185134Y54181041D01*
X-32097864Y54111358D01*
X-31497745Y53733525D01*
X-31397184Y53684951D01*
X-30728172Y53449744D01*
X-30619338Y53424701D01*
X-29914808Y53343855D01*
X-29858977Y53340596D01*
X-27570070Y53335235D01*
X-27513962Y53338261D01*
X-26805802Y53416543D01*
X-26696369Y53441306D01*
X-26023494Y53675525D01*
X-25922336Y53724066D01*
X-25318630Y54102429D01*
X-25230844Y54172305D01*
X-24726708Y54675758D01*
X-24656714Y54763449D01*
X-24277532Y55366641D01*
X-24228853Y55467732D01*
X-23993721Y56140288D01*
X-23968810Y56249688D01*
X-23889567Y56957741D01*
X-23886465Y57013844D01*
X-23932592Y103853703D01*
X-23863754Y104380251D01*
X-23673533Y104840445D01*
X-23370626Y105235671D01*
X-23156650Y105400000D01*
X-20889711Y105400000D01*
X-20676385Y105235760D01*
X-20374704Y104840749D01*
X-20185836Y104380992D01*
X-20118508Y103855107D01*
X-20299629Y57283837D01*
X-20296697Y57227788D01*
X-20219688Y56520295D01*
X-20195150Y56410939D01*
X-19962491Y55738372D01*
X-19914212Y55637230D01*
X-19537592Y55033380D01*
X-19467998Y54945532D01*
X-18966341Y54440739D01*
X-18878928Y54370599D01*
X-18277436Y53990224D01*
X-18176597Y53941315D01*
X-17505493Y53704470D01*
X-17396293Y53679252D01*
X-16689294Y53597836D01*
X-16633264Y53594554D01*
X-13971609Y53588321D01*
X-13915624Y53591334D01*
X-13208982Y53669272D01*
X-13099773Y53693927D01*
X-12428188Y53927144D01*
X-12327203Y53975481D01*
X-11724346Y54352284D01*
X-11636648Y54421879D01*
X-11132744Y54923375D01*
X-11062730Y55010739D01*
X-10683045Y55611785D01*
X-10634225Y55712536D01*
X-10397794Y56382997D01*
X-10372616Y56492087D01*
X-10291294Y57198348D01*
X-10288013Y57254318D01*
X-10173830Y103915565D01*
X-10105405Y104426452D01*
X-9919963Y104871834D01*
X-9625720Y105254168D01*
X-9435266Y105400000D01*
X-7197809Y105400000D01*
X-7006369Y105254026D01*
X-6710133Y104871347D01*
X-6522489Y104425258D01*
X-6451600Y103913295D01*
X-6110939Y57242802D01*
X-6107427Y57187187D01*
X-6023670Y56485540D01*
X-5998266Y56377198D01*
X-5761394Y55711453D01*
X-5712656Y55611413D01*
X-5334402Y55014548D01*
X-5264745Y54927767D01*
X-4763847Y54429345D01*
X-4676720Y54360118D01*
X-4077986Y53984828D01*
X-3977707Y53936587D01*
X-3310796Y53703018D01*
X-3202330Y53678151D01*
X-2500276Y53597873D01*
X-2444643Y53594637D01*
X-22066Y53588963D01*
X34173Y53592004D01*
X743968Y53670656D01*
X853645Y53695534D01*
X1527907Y53930836D01*
X1629248Y53979598D01*
X2233865Y54359644D01*
X2321746Y54429823D01*
X2826128Y54935387D01*
X2896100Y55023431D01*
X3274730Y55628935D01*
X3323255Y55730390D01*
X3556978Y56405200D01*
X3581600Y56514935D01*
X3658591Y57224913D01*
X3661500Y57281159D01*
X3443149Y103919001D01*
X3507974Y104428279D01*
X3690195Y104872604D01*
X3981504Y105254400D01*
X4170489Y105400000D01*
X6396205Y105400000D01*
X6586139Y105254246D01*
X6879329Y104872105D01*
X7063617Y104427096D01*
X7130753Y103916775D01*
X7120247Y2763319D01*
X7053008Y2252959D01*
X6868625Y1807917D01*
X6709065Y1600000D01*
X3828954Y1600000D01*
X3668684Y1808189D01*
X3483129Y2253609D01*
X3414577Y2764558D01*
X3303899Y43824906D01*
X3300615Y43880784D01*
X3219382Y44585880D01*
X3194259Y44694793D01*
X2958422Y45364225D01*
X2909732Y45464835D01*
X2531077Y46065150D01*
X2461252Y46152431D01*
X1958700Y46653630D01*
X1871232Y46723218D01*
X1269898Y47100254D01*
X1169157Y47148673D01*
X499092Y47382705D01*
X390112Y47407535D01*
X-315200Y47486867D01*
X-371087Y47490000D01*
X-2667000Y47490000D01*
X-2722982Y47486856D01*
X-3429486Y47407252D01*
X-3538644Y47382338D01*
X-4209721Y47147518D01*
X-4310597Y47098938D01*
X-4912596Y46720677D01*
X-5000133Y46650868D01*
X-5502868Y46148133D01*
X-5572677Y46060596D01*
X-5950938Y45458597D01*
X-5999518Y45357721D01*
X-6234338Y44686644D01*
X-6259252Y44577486D01*
X-6338856Y43870982D01*
X-6342000Y43815000D01*
X-6342000Y2953768D01*
X-6411351Y2426999D01*
X-6602031Y1966655D01*
X-6883375Y1600000D01*
X-8842419Y1600000D01*
X-9000000Y1631345D01*
X-9157582Y1600000D01*
X-9542257Y1523483D01*
X-9604645Y1571355D01*
X-9907969Y1966655D01*
X-10098649Y2426999D01*
X-10168000Y2953768D01*
X-10168000Y43815000D01*
X-10171144Y43870982D01*
X-10250748Y44577486D01*
X-10275662Y44686644D01*
X-10510482Y45357721D01*
X-10559062Y45458597D01*
X-10937323Y46060596D01*
X-11007132Y46148133D01*
X-11509867Y46650868D01*
X-11597404Y46720677D01*
X-12199403Y47098938D01*
X-12300279Y47147518D01*
X-12971356Y47382338D01*
X-13080514Y47407252D01*
X-13787018Y47486856D01*
X-13843000Y47490000D01*
X-16129000Y47490000D01*
X-16184982Y47486856D01*
X-16891486Y47407252D01*
X-17000644Y47382338D01*
X-17671721Y47147518D01*
X-17772597Y47098938D01*
X-18374596Y46720677D01*
X-18462133Y46650868D01*
X-18964868Y46148133D01*
X-19034677Y46060596D01*
X-19412938Y45458597D01*
X-19461518Y45357721D01*
X-19696338Y44686644D01*
X-19721252Y44577486D01*
X-19800856Y43870982D01*
X-19804000Y43815000D01*
X-19804000Y-2761232D01*
X-19877678Y-3320871D01*
X-20081045Y-3811845D01*
X-20404553Y-4233447D01*
X-20621608Y-4400000D01*
X-23066392Y-4400000D01*
X-23283447Y-4233447D01*
X-23606955Y-3811845D01*
X-23810322Y-3320871D01*
X-23884000Y-2761232D01*
X-23884000Y43815000D01*
X-23887144Y43870982D01*
X-23966748Y44577486D01*
X-23991662Y44686644D01*
X-24226482Y45357721D01*
X-24275062Y45458597D01*
X-24653323Y46060596D01*
X-24723132Y46148133D01*
X-25225867Y46650868D01*
X-25313404Y46720677D01*
X-25915403Y47098938D01*
X-26016279Y47147518D01*
X-26687356Y47382338D01*
X-26796514Y47407252D01*
X-27503018Y47486856D01*
X-27559000Y47490000D01*
X-29845000Y47490000D01*
X-29900982Y47486856D01*
X-30607486Y47407252D01*
X-30716644Y47382338D01*
X-31387721Y47147518D01*
X-31488597Y47098938D01*
X-32090596Y46720677D01*
X-32178133Y46650868D01*
X-32680868Y46148133D01*
X-32750677Y46060596D01*
X-33128938Y45458597D01*
X-33177518Y45357721D01*
X-33412338Y44686644D01*
X-33437252Y44577486D01*
X-33516856Y43870982D01*
X-33520000Y43815000D01*
X-33520000Y-2888232D01*
X-33589351Y-3415001D01*
X-33780031Y-3875345D01*
X-34083355Y-4270645D01*
X-34251934Y-4400000D01*
X-36614066Y-4400000D01*
X-36782645Y-4270645D01*
X-37085969Y-3875345D01*
X-37276649Y-3415001D01*
X-37346000Y-2888232D01*
X-37346000Y43815000D01*
X-37349144Y43870982D01*
X-37428748Y44577486D01*
X-37453662Y44686644D01*
X-37688482Y45357721D01*
X-37737062Y45458597D01*
X-38115323Y46060596D01*
X-38185132Y46148133D01*
X-38687867Y46650868D01*
X-38775404Y46720677D01*
X-39377403Y47098938D01*
X-39478279Y47147518D01*
X-40149356Y47382338D01*
X-40258514Y47407252D01*
X-40965018Y47486856D01*
X-41021000Y47490000D01*
X-43307000Y47490000D01*
X-43362982Y47486856D01*
X-44069486Y47407252D01*
X-44178644Y47382338D01*
X-44849721Y47147518D01*
X-44950597Y47098938D01*
X-45552596Y46720677D01*
X-45640133Y46650868D01*
X-46142868Y46148133D01*
X-46212677Y46060596D01*
X-46590938Y45458597D01*
X-46639518Y45357721D01*
X-46874338Y44686644D01*
X-46899252Y44577486D01*
X-46978856Y43870982D01*
X-46982000Y43815000D01*
X-46982000Y-2888232D01*
X-47051351Y-3415001D01*
X-47242031Y-3875345D01*
X-47545355Y-4270645D01*
X-47713934Y-4400000D01*
X-50076066Y-4400000D01*
X-50244645Y-4270645D01*
X-50547969Y-3875345D01*
X-50738649Y-3415001D01*
X-50808000Y-2888232D01*
X-50808000Y43815000D01*
X-50811144Y43870982D01*
X-50890748Y44577486D01*
X-50915662Y44686644D01*
X-51150482Y45357721D01*
X-51199062Y45458597D01*
X-51577323Y46060596D01*
X-51647132Y46148133D01*
X-52149867Y46650868D01*
X-52237404Y46720677D01*
X-52839403Y47098938D01*
X-52940279Y47147518D01*
X-53611356Y47382338D01*
X-53720514Y47407252D01*
X-54427018Y47486856D01*
X-54483000Y47490000D01*
X-56515000Y47490000D01*
X-56570982Y47486856D01*
X-57277486Y47407252D01*
X-57386644Y47382338D01*
X-58057721Y47147518D01*
X-58158597Y47098938D01*
X-58760596Y46720677D01*
X-58848133Y46650868D01*
X-59350868Y46148133D01*
X-59420677Y46060596D01*
X-59798938Y45458597D01*
X-59847518Y45357721D01*
X-60082338Y44686644D01*
X-60107252Y44577486D01*
X-60186856Y43870982D01*
X-60190000Y43815000D01*
X-60190000Y-2761232D01*
X-60263678Y-3320871D01*
X-60467045Y-3811845D01*
X-60790553Y-4233447D01*
X-61007608Y-4400000D01*
X-63400000Y-4400000D01*
X-63400000Y50338982D01*
X-63228791Y50167773D01*
X-61133801Y49300000D01*
X-58866199Y49300000D01*
X-56771209Y50167773D01*
X-55167773Y51771209D01*
X-54300000Y53866199D01*
X-54300000Y56133801D01*
X-55167773Y58228791D01*
X-56771209Y59832227D01*
X-58866199Y60700000D01*
X-61133801Y60700000D01*
X-63228791Y59832227D01*
X-63400000Y59661018D01*
X-63400000Y105400000D01*
X-61056037Y105400000D01*
X-61007355Y105362645D01*
G04 #@! TO.N,/C1+*
G36*
X-41267000Y56380000D02*
X-43188000Y56380000D01*
X-43188000Y105400000D01*
X-41267000Y105400000D01*
X-41267000Y56380000D01*
X-41267000Y56380000D01*
G37*
X-41267000Y56380000D02*
X-43188000Y56380000D01*
X-43188000Y105400000D01*
X-41267000Y105400000D01*
X-41267000Y56380000D01*
G36*
X-27677891Y56380000D02*
X-29598891Y56380000D01*
X-29588168Y105400000D01*
X-27667168Y105400000D01*
X-27677891Y56380000D01*
X-27677891Y56380000D01*
G37*
X-27677891Y56380000D02*
X-29598891Y56380000D01*
X-29588168Y105400000D01*
X-27667168Y105400000D01*
X-27677891Y56380000D01*
G36*
X-14067000Y56380000D02*
X-15988000Y56380000D01*
X-15988000Y105400000D01*
X-14067000Y105400000D01*
X-14067000Y56380000D01*
X-14067000Y56380000D01*
G37*
X-14067000Y56380000D02*
X-15988000Y56380000D01*
X-15988000Y105400000D01*
X-14067000Y105400000D01*
X-14067000Y56380000D01*
G36*
X-467000Y56380000D02*
X-2388000Y56380000D01*
X-2388000Y105400000D01*
X-467000Y105400000D01*
X-467000Y56380000D01*
X-467000Y56380000D01*
G37*
X-467000Y56380000D02*
X-2388000Y56380000D01*
X-2388000Y105400000D01*
X-467000Y105400000D01*
X-467000Y56380000D01*
G36*
X-41267000Y-4400000D02*
X-43188000Y-4400000D01*
X-43188000Y44585000D01*
X-41267000Y44585000D01*
X-41267000Y-4400000D01*
X-41267000Y-4400000D01*
G37*
X-41267000Y-4400000D02*
X-43188000Y-4400000D01*
X-43188000Y44585000D01*
X-41267000Y44585000D01*
X-41267000Y-4400000D01*
G36*
X-14089000Y-4400000D02*
X-16010000Y-4400000D01*
X-16010000Y44585000D01*
X-14089000Y44585000D01*
X-14089000Y-4400000D01*
X-14089000Y-4400000D01*
G37*
X-14089000Y-4400000D02*
X-16010000Y-4400000D01*
X-16010000Y44585000D01*
X-14089000Y44585000D01*
X-14089000Y-4400000D01*
G36*
X-373000Y1600000D02*
X-2294000Y1600000D01*
X-2294000Y44585000D01*
X-373000Y44585000D01*
X-373000Y1600000D01*
X-373000Y1600000D01*
G37*
X-373000Y1600000D02*
X-2294000Y1600000D01*
X-2294000Y44585000D01*
X-373000Y44585000D01*
X-373000Y1600000D01*
G36*
X12200000Y881000D02*
X11422000Y881000D01*
X11422000Y105400000D01*
X12200000Y105400000D01*
X12200000Y881000D01*
X12200000Y881000D01*
G37*
X12200000Y881000D02*
X11422000Y881000D01*
X11422000Y105400000D01*
X12200000Y105400000D01*
X12200000Y881000D01*
G36*
X-27678000Y-4400000D02*
X-29599000Y-4400000D01*
X-29599000Y44585000D01*
X-27678000Y44585000D01*
X-27678000Y-4400000D01*
X-27678000Y-4400000D01*
G37*
X-27678000Y-4400000D02*
X-29599000Y-4400000D01*
X-29599000Y44585000D01*
X-27678000Y44585000D01*
X-27678000Y-4400000D01*
G36*
X-54867000Y-4400000D02*
X-56788000Y-4400000D01*
X-56788000Y44585000D01*
X-54867000Y44585000D01*
X-54867000Y-4400000D01*
X-54867000Y-4400000D01*
G37*
X-54867000Y-4400000D02*
X-56788000Y-4400000D01*
X-56788000Y44585000D01*
X-54867000Y44585000D01*
X-54867000Y-4400000D01*
G36*
X-54856000Y73144000D02*
X-56777000Y73144000D01*
X-56777000Y105400000D01*
X-54856000Y105400000D01*
X-54856000Y73144000D01*
X-54856000Y73144000D01*
G37*
X-54856000Y73144000D02*
X-56777000Y73144000D01*
X-56777000Y105400000D01*
X-54856000Y105400000D01*
X-54856000Y73144000D01*
G04 #@! TO.N,/C2-*
G36*
X21941092Y105327507D02*
X22270638Y105074638D01*
X22523507Y104745092D01*
X22682468Y104361326D01*
X22741000Y103916732D01*
X22741000Y31242000D01*
X22744144Y31186018D01*
X22823748Y30479514D01*
X22848662Y30370356D01*
X23083482Y29699279D01*
X23132062Y29598403D01*
X23510323Y28996404D01*
X23580132Y28908867D01*
X24082867Y28406132D01*
X24170404Y28336323D01*
X24772403Y27958062D01*
X24873279Y27909482D01*
X25544356Y27674662D01*
X25653514Y27649748D01*
X26360018Y27570144D01*
X26416000Y27567000D01*
X30099000Y27567000D01*
X30154982Y27570144D01*
X30861486Y27649748D01*
X30970644Y27674662D01*
X31641721Y27909482D01*
X31742597Y27958062D01*
X32344596Y28336323D01*
X32432133Y28406132D01*
X32934868Y28908867D01*
X33004677Y28996404D01*
X33382938Y29598403D01*
X33431518Y29699279D01*
X33666338Y30370356D01*
X33691252Y30479514D01*
X33770856Y31186018D01*
X33774000Y31242000D01*
X33774000Y104043732D01*
X33832532Y104488326D01*
X33991493Y104872092D01*
X34244362Y105201638D01*
X34502873Y105400000D01*
X36236127Y105400000D01*
X36494638Y105201638D01*
X36747507Y104872092D01*
X36906468Y104488326D01*
X36965000Y104043732D01*
X36965000Y40005000D01*
X36968144Y39949018D01*
X37047748Y39242514D01*
X37072662Y39133356D01*
X37307482Y38462279D01*
X37356062Y38361403D01*
X37734323Y37759404D01*
X37804132Y37671867D01*
X38306867Y37169132D01*
X38394404Y37099323D01*
X38996403Y36721062D01*
X39097279Y36672482D01*
X39768356Y36437662D01*
X39877514Y36412748D01*
X40584018Y36333144D01*
X40640000Y36330000D01*
X43463075Y36330000D01*
X43518930Y36333130D01*
X44223857Y36412374D01*
X44332781Y36437176D01*
X45002520Y36670954D01*
X45103218Y36719321D01*
X45704337Y37095962D01*
X45791783Y37165480D01*
X46294274Y37666184D01*
X46364102Y37753381D01*
X46742884Y38353153D01*
X46791610Y38453678D01*
X47027774Y39122579D01*
X47052965Y39231413D01*
X47134722Y39936053D01*
X47138051Y39991897D01*
X47366409Y104042031D01*
X47426521Y104487374D01*
X47586899Y104871653D01*
X47841072Y105201473D01*
X48100595Y105400000D01*
X49834858Y105400000D01*
X50092799Y105201735D01*
X50344941Y104872346D01*
X50503111Y104488872D01*
X50560766Y104044683D01*
X50433332Y40012314D01*
X50436372Y39956255D01*
X50514769Y39248713D01*
X50539529Y39139376D01*
X50773594Y38467086D01*
X50822091Y38366013D01*
X51200058Y37762770D01*
X51269855Y37675043D01*
X51772723Y37171173D01*
X51860312Y37101201D01*
X52462802Y36722035D01*
X52563777Y36673337D01*
X53235600Y36437934D01*
X53344888Y36412957D01*
X54052272Y36333152D01*
X54108325Y36330000D01*
X57531000Y36330000D01*
X57586982Y36333144D01*
X58293486Y36412748D01*
X58402644Y36437662D01*
X59073721Y36672482D01*
X59174597Y36721062D01*
X59776596Y37099323D01*
X59864133Y37169132D01*
X60366868Y37671867D01*
X60436677Y37759404D01*
X60814938Y38361403D01*
X60863518Y38462279D01*
X61098338Y39133356D01*
X61123252Y39242514D01*
X61202856Y39949018D01*
X61206000Y40005000D01*
X61206000Y104672150D01*
X61258937Y105006383D01*
X61394483Y105272406D01*
X61522077Y105400000D01*
X62810923Y105400000D01*
X62938517Y105272406D01*
X63074063Y105006383D01*
X63127000Y104672150D01*
X63127000Y35800000D01*
X63102175Y35800000D01*
X62367091Y35495518D01*
X61804482Y34932909D01*
X61500000Y34197825D01*
X61500000Y33402175D01*
X61804482Y32667091D01*
X62367091Y32104482D01*
X63102175Y31800000D01*
X63127000Y31800000D01*
X63127000Y-4205253D01*
X63088263Y-4400000D01*
X61752737Y-4400000D01*
X61714000Y-4205253D01*
X61714000Y26687688D01*
X61710878Y26743472D01*
X61631837Y27447505D01*
X61607098Y27556296D01*
X61373910Y28225276D01*
X61325663Y28325872D01*
X60949939Y28926490D01*
X60880587Y29013883D01*
X60381034Y29516235D01*
X60294029Y29586075D01*
X59695520Y29965148D01*
X59595195Y30013956D01*
X58927528Y30250878D01*
X58818876Y30276225D01*
X58115295Y30359197D01*
X58059530Y30362630D01*
X54249530Y30383915D01*
X54193333Y30381063D01*
X53483922Y30304857D01*
X53374259Y30280379D01*
X52699778Y30047685D01*
X52598352Y29999338D01*
X51992861Y29621910D01*
X51904789Y29552134D01*
X51398867Y29049030D01*
X51328602Y28961351D01*
X50947796Y28357978D01*
X50898882Y28256822D01*
X50662425Y27583651D01*
X50637335Y27474128D01*
X50557166Y26765154D01*
X50554000Y26708973D01*
X50554000Y-3332732D01*
X50495468Y-3777326D01*
X50336507Y-4161092D01*
X50153187Y-4400000D01*
X47763813Y-4400000D01*
X47580493Y-4161092D01*
X47421532Y-3777326D01*
X47363000Y-3332732D01*
X47363000Y26687688D01*
X47359878Y26743472D01*
X47280837Y27447505D01*
X47256098Y27556296D01*
X47022910Y28225276D01*
X46974663Y28325872D01*
X46598939Y28926490D01*
X46529587Y29013883D01*
X46030034Y29516235D01*
X45943029Y29586075D01*
X45344520Y29965148D01*
X45244195Y30013956D01*
X44576528Y30250878D01*
X44467876Y30276225D01*
X43764295Y30359197D01*
X43708530Y30362630D01*
X41676530Y30373982D01*
X41620333Y30371130D01*
X40910922Y30294924D01*
X40801259Y30270446D01*
X40126778Y30037752D01*
X40025352Y29989405D01*
X39419861Y29611977D01*
X39331789Y29542201D01*
X38825867Y29039097D01*
X38755602Y28951418D01*
X38374796Y28348045D01*
X38325882Y28246889D01*
X38089425Y27573718D01*
X38064335Y27464195D01*
X37984166Y26755221D01*
X37981000Y26699040D01*
X37981000Y-2888232D01*
X37907322Y-3447871D01*
X37703955Y-3938845D01*
X37380447Y-4360447D01*
X37328901Y-4400000D01*
X34553099Y-4400000D01*
X34501553Y-4360447D01*
X34178045Y-3938845D01*
X33974678Y-3447871D01*
X33901000Y-2888232D01*
X33901000Y16764000D01*
X33897856Y16819982D01*
X33818252Y17526486D01*
X33793338Y17635644D01*
X33558518Y18306721D01*
X33509938Y18407597D01*
X33131677Y19009596D01*
X33061868Y19097133D01*
X32559133Y19599868D01*
X32471596Y19669677D01*
X31869597Y20047938D01*
X31768721Y20096518D01*
X31097644Y20331338D01*
X30988486Y20356252D01*
X30281982Y20435856D01*
X30226000Y20439000D01*
X27167000Y20439000D01*
X27111018Y20435856D01*
X26404514Y20356252D01*
X26295356Y20331338D01*
X25624279Y20096518D01*
X25523403Y20047938D01*
X24921404Y19669677D01*
X24833867Y19599868D01*
X24331132Y19097133D01*
X24261323Y19009596D01*
X23883062Y18407597D01*
X23834482Y18306721D01*
X23599662Y17635644D01*
X23574748Y17526486D01*
X23495144Y16819982D01*
X23492000Y16764000D01*
X23492000Y-2957232D01*
X23420673Y-3499013D01*
X23224200Y-3973342D01*
X22911656Y-4380656D01*
X22886446Y-4400000D01*
X20155554Y-4400000D01*
X20130344Y-4380656D01*
X19817800Y-3973342D01*
X19621327Y-3499013D01*
X19550000Y-2957232D01*
X19550000Y103916732D01*
X19608532Y104361326D01*
X19767493Y104745092D01*
X20020362Y105074638D01*
X20349908Y105327507D01*
X20524922Y105400000D01*
X21766078Y105400000D01*
X21941092Y105327507D01*
X21941092Y105327507D01*
G37*
X21941092Y105327507D02*
X22270638Y105074638D01*
X22523507Y104745092D01*
X22682468Y104361326D01*
X22741000Y103916732D01*
X22741000Y31242000D01*
X22744144Y31186018D01*
X22823748Y30479514D01*
X22848662Y30370356D01*
X23083482Y29699279D01*
X23132062Y29598403D01*
X23510323Y28996404D01*
X23580132Y28908867D01*
X24082867Y28406132D01*
X24170404Y28336323D01*
X24772403Y27958062D01*
X24873279Y27909482D01*
X25544356Y27674662D01*
X25653514Y27649748D01*
X26360018Y27570144D01*
X26416000Y27567000D01*
X30099000Y27567000D01*
X30154982Y27570144D01*
X30861486Y27649748D01*
X30970644Y27674662D01*
X31641721Y27909482D01*
X31742597Y27958062D01*
X32344596Y28336323D01*
X32432133Y28406132D01*
X32934868Y28908867D01*
X33004677Y28996404D01*
X33382938Y29598403D01*
X33431518Y29699279D01*
X33666338Y30370356D01*
X33691252Y30479514D01*
X33770856Y31186018D01*
X33774000Y31242000D01*
X33774000Y104043732D01*
X33832532Y104488326D01*
X33991493Y104872092D01*
X34244362Y105201638D01*
X34502873Y105400000D01*
X36236127Y105400000D01*
X36494638Y105201638D01*
X36747507Y104872092D01*
X36906468Y104488326D01*
X36965000Y104043732D01*
X36965000Y40005000D01*
X36968144Y39949018D01*
X37047748Y39242514D01*
X37072662Y39133356D01*
X37307482Y38462279D01*
X37356062Y38361403D01*
X37734323Y37759404D01*
X37804132Y37671867D01*
X38306867Y37169132D01*
X38394404Y37099323D01*
X38996403Y36721062D01*
X39097279Y36672482D01*
X39768356Y36437662D01*
X39877514Y36412748D01*
X40584018Y36333144D01*
X40640000Y36330000D01*
X43463075Y36330000D01*
X43518930Y36333130D01*
X44223857Y36412374D01*
X44332781Y36437176D01*
X45002520Y36670954D01*
X45103218Y36719321D01*
X45704337Y37095962D01*
X45791783Y37165480D01*
X46294274Y37666184D01*
X46364102Y37753381D01*
X46742884Y38353153D01*
X46791610Y38453678D01*
X47027774Y39122579D01*
X47052965Y39231413D01*
X47134722Y39936053D01*
X47138051Y39991897D01*
X47366409Y104042031D01*
X47426521Y104487374D01*
X47586899Y104871653D01*
X47841072Y105201473D01*
X48100595Y105400000D01*
X49834858Y105400000D01*
X50092799Y105201735D01*
X50344941Y104872346D01*
X50503111Y104488872D01*
X50560766Y104044683D01*
X50433332Y40012314D01*
X50436372Y39956255D01*
X50514769Y39248713D01*
X50539529Y39139376D01*
X50773594Y38467086D01*
X50822091Y38366013D01*
X51200058Y37762770D01*
X51269855Y37675043D01*
X51772723Y37171173D01*
X51860312Y37101201D01*
X52462802Y36722035D01*
X52563777Y36673337D01*
X53235600Y36437934D01*
X53344888Y36412957D01*
X54052272Y36333152D01*
X54108325Y36330000D01*
X57531000Y36330000D01*
X57586982Y36333144D01*
X58293486Y36412748D01*
X58402644Y36437662D01*
X59073721Y36672482D01*
X59174597Y36721062D01*
X59776596Y37099323D01*
X59864133Y37169132D01*
X60366868Y37671867D01*
X60436677Y37759404D01*
X60814938Y38361403D01*
X60863518Y38462279D01*
X61098338Y39133356D01*
X61123252Y39242514D01*
X61202856Y39949018D01*
X61206000Y40005000D01*
X61206000Y104672150D01*
X61258937Y105006383D01*
X61394483Y105272406D01*
X61522077Y105400000D01*
X62810923Y105400000D01*
X62938517Y105272406D01*
X63074063Y105006383D01*
X63127000Y104672150D01*
X63127000Y35800000D01*
X63102175Y35800000D01*
X62367091Y35495518D01*
X61804482Y34932909D01*
X61500000Y34197825D01*
X61500000Y33402175D01*
X61804482Y32667091D01*
X62367091Y32104482D01*
X63102175Y31800000D01*
X63127000Y31800000D01*
X63127000Y-4205253D01*
X63088263Y-4400000D01*
X61752737Y-4400000D01*
X61714000Y-4205253D01*
X61714000Y26687688D01*
X61710878Y26743472D01*
X61631837Y27447505D01*
X61607098Y27556296D01*
X61373910Y28225276D01*
X61325663Y28325872D01*
X60949939Y28926490D01*
X60880587Y29013883D01*
X60381034Y29516235D01*
X60294029Y29586075D01*
X59695520Y29965148D01*
X59595195Y30013956D01*
X58927528Y30250878D01*
X58818876Y30276225D01*
X58115295Y30359197D01*
X58059530Y30362630D01*
X54249530Y30383915D01*
X54193333Y30381063D01*
X53483922Y30304857D01*
X53374259Y30280379D01*
X52699778Y30047685D01*
X52598352Y29999338D01*
X51992861Y29621910D01*
X51904789Y29552134D01*
X51398867Y29049030D01*
X51328602Y28961351D01*
X50947796Y28357978D01*
X50898882Y28256822D01*
X50662425Y27583651D01*
X50637335Y27474128D01*
X50557166Y26765154D01*
X50554000Y26708973D01*
X50554000Y-3332732D01*
X50495468Y-3777326D01*
X50336507Y-4161092D01*
X50153187Y-4400000D01*
X47763813Y-4400000D01*
X47580493Y-4161092D01*
X47421532Y-3777326D01*
X47363000Y-3332732D01*
X47363000Y26687688D01*
X47359878Y26743472D01*
X47280837Y27447505D01*
X47256098Y27556296D01*
X47022910Y28225276D01*
X46974663Y28325872D01*
X46598939Y28926490D01*
X46529587Y29013883D01*
X46030034Y29516235D01*
X45943029Y29586075D01*
X45344520Y29965148D01*
X45244195Y30013956D01*
X44576528Y30250878D01*
X44467876Y30276225D01*
X43764295Y30359197D01*
X43708530Y30362630D01*
X41676530Y30373982D01*
X41620333Y30371130D01*
X40910922Y30294924D01*
X40801259Y30270446D01*
X40126778Y30037752D01*
X40025352Y29989405D01*
X39419861Y29611977D01*
X39331789Y29542201D01*
X38825867Y29039097D01*
X38755602Y28951418D01*
X38374796Y28348045D01*
X38325882Y28246889D01*
X38089425Y27573718D01*
X38064335Y27464195D01*
X37984166Y26755221D01*
X37981000Y26699040D01*
X37981000Y-2888232D01*
X37907322Y-3447871D01*
X37703955Y-3938845D01*
X37380447Y-4360447D01*
X37328901Y-4400000D01*
X34553099Y-4400000D01*
X34501553Y-4360447D01*
X34178045Y-3938845D01*
X33974678Y-3447871D01*
X33901000Y-2888232D01*
X33901000Y16764000D01*
X33897856Y16819982D01*
X33818252Y17526486D01*
X33793338Y17635644D01*
X33558518Y18306721D01*
X33509938Y18407597D01*
X33131677Y19009596D01*
X33061868Y19097133D01*
X32559133Y19599868D01*
X32471596Y19669677D01*
X31869597Y20047938D01*
X31768721Y20096518D01*
X31097644Y20331338D01*
X30988486Y20356252D01*
X30281982Y20435856D01*
X30226000Y20439000D01*
X27167000Y20439000D01*
X27111018Y20435856D01*
X26404514Y20356252D01*
X26295356Y20331338D01*
X25624279Y20096518D01*
X25523403Y20047938D01*
X24921404Y19669677D01*
X24833867Y19599868D01*
X24331132Y19097133D01*
X24261323Y19009596D01*
X23883062Y18407597D01*
X23834482Y18306721D01*
X23599662Y17635644D01*
X23574748Y17526486D01*
X23495144Y16819982D01*
X23492000Y16764000D01*
X23492000Y-2957232D01*
X23420673Y-3499013D01*
X23224200Y-3973342D01*
X22911656Y-4380656D01*
X22886446Y-4400000D01*
X20155554Y-4400000D01*
X20130344Y-4380656D01*
X19817800Y-3973342D01*
X19621327Y-3499013D01*
X19550000Y-2957232D01*
X19550000Y103916732D01*
X19608532Y104361326D01*
X19767493Y104745092D01*
X20020362Y105074638D01*
X20349908Y105327507D01*
X20524922Y105400000D01*
X21766078Y105400000D01*
X21941092Y105327507D01*
G04 #@! TO.N,/C2+*
G36*
X43072000Y39616000D02*
X41405000Y39616000D01*
X41405000Y105400000D01*
X43072000Y105400000D01*
X43072000Y39616000D01*
X43072000Y39616000D01*
G37*
X43072000Y39616000D02*
X41405000Y39616000D01*
X41405000Y105400000D01*
X43072000Y105400000D01*
X43072000Y39616000D01*
G36*
X56672000Y39616000D02*
X55005000Y39616000D01*
X55005000Y105400000D01*
X56672000Y105400000D01*
X56672000Y39616000D01*
X56672000Y39616000D01*
G37*
X56672000Y39616000D02*
X55005000Y39616000D01*
X55005000Y105400000D01*
X56672000Y105400000D01*
X56672000Y39616000D01*
G36*
X56650000Y-4400000D02*
X54983000Y-4400000D01*
X54983000Y27440000D01*
X56650000Y27440000D01*
X56650000Y-4400000D01*
X56650000Y-4400000D01*
G37*
X56650000Y-4400000D02*
X54983000Y-4400000D01*
X54983000Y27440000D01*
X56650000Y27440000D01*
X56650000Y-4400000D01*
G36*
X43050000Y-4400000D02*
X41383000Y-4400000D01*
X41383000Y27440000D01*
X43050000Y27440000D01*
X43050000Y-4400000D01*
X43050000Y-4400000D01*
G37*
X43050000Y-4400000D02*
X41383000Y-4400000D01*
X41383000Y27440000D01*
X43050000Y27440000D01*
X43050000Y-4400000D01*
G36*
X29450929Y-4400000D02*
X27783930Y-4400000D01*
X27804503Y16264000D01*
X29471502Y16264000D01*
X29450929Y-4400000D01*
X29450929Y-4400000D01*
G37*
X29450929Y-4400000D02*
X27783930Y-4400000D01*
X27804503Y16264000D01*
X29471502Y16264000D01*
X29450929Y-4400000D01*
G36*
X29021136Y105332185D02*
X29260935Y105092826D01*
X29415145Y104791132D01*
X29474991Y104417279D01*
X29597367Y37845079D01*
X29607131Y37747664D01*
X29675396Y37407336D01*
X29750216Y37227407D01*
X29943390Y36939020D01*
X30081306Y36801357D01*
X30370048Y36608713D01*
X30550115Y36534224D01*
X30889996Y36466699D01*
X31127948Y36418749D01*
X31246053Y36338545D01*
X31323877Y36218862D01*
X31358327Y36028309D01*
X31312884Y33756227D01*
X31232218Y33142883D01*
X31028374Y32588433D01*
X30707682Y32092326D01*
X30285813Y31678810D01*
X29783394Y31368102D01*
X29224979Y31175386D01*
X28610140Y31107000D01*
X28222078Y31107000D01*
X27599463Y31177152D01*
X27034731Y31374760D01*
X26528136Y31693075D01*
X26105075Y32116136D01*
X25786760Y32622731D01*
X25589152Y33187463D01*
X25519000Y33810078D01*
X25519000Y36018753D01*
X25557661Y36213116D01*
X25639862Y36336138D01*
X25762884Y36418339D01*
X26345751Y36534278D01*
X26525991Y36608936D01*
X26814403Y36801647D01*
X26952353Y36939597D01*
X27145064Y37228009D01*
X27219722Y37408249D01*
X27287393Y37748455D01*
X27297000Y37846000D01*
X27297000Y104418149D01*
X27356154Y104791630D01*
X27509737Y105093054D01*
X27748946Y105332263D01*
X27881888Y105400000D01*
X28887859Y105400000D01*
X29021136Y105332185D01*
X29021136Y105332185D01*
G37*
X29021136Y105332185D02*
X29260935Y105092826D01*
X29415145Y104791132D01*
X29474991Y104417279D01*
X29597367Y37845079D01*
X29607131Y37747664D01*
X29675396Y37407336D01*
X29750216Y37227407D01*
X29943390Y36939020D01*
X30081306Y36801357D01*
X30370048Y36608713D01*
X30550115Y36534224D01*
X30889996Y36466699D01*
X31127948Y36418749D01*
X31246053Y36338545D01*
X31323877Y36218862D01*
X31358327Y36028309D01*
X31312884Y33756227D01*
X31232218Y33142883D01*
X31028374Y32588433D01*
X30707682Y32092326D01*
X30285813Y31678810D01*
X29783394Y31368102D01*
X29224979Y31175386D01*
X28610140Y31107000D01*
X28222078Y31107000D01*
X27599463Y31177152D01*
X27034731Y31374760D01*
X26528136Y31693075D01*
X26105075Y32116136D01*
X25786760Y32622731D01*
X25589152Y33187463D01*
X25519000Y33810078D01*
X25519000Y36018753D01*
X25557661Y36213116D01*
X25639862Y36336138D01*
X25762884Y36418339D01*
X26345751Y36534278D01*
X26525991Y36608936D01*
X26814403Y36801647D01*
X26952353Y36939597D01*
X27145064Y37228009D01*
X27219722Y37408249D01*
X27287393Y37748455D01*
X27297000Y37846000D01*
X27297000Y104418149D01*
X27356154Y104791630D01*
X27509737Y105093054D01*
X27748946Y105332263D01*
X27881888Y105400000D01*
X28887859Y105400000D01*
X29021136Y105332185D01*
G04 #@! TD*
M02*
