M48
;DRILL file {KiCad (5.0.0)} date 06/04/19 18:43:28
;FORMAT={-:-/ absolute / metric / decimal}
FMAT,2
METRIC,TZ
T1C0.500
T2C0.559
T3C3.200
%
G90
G05
M71
T1
X-62.4Y55.
X-61.697Y56.697
X-61.697Y53.303
X-60.Y57.4
X-60.Y52.6
X-58.303Y56.697
X-58.303Y53.303
X-57.6Y55.
X26.Y24.5
X26.703Y26.197
X26.703Y22.803
X28.4Y26.9
X28.4Y22.1
X30.097Y26.197
X30.097Y22.803
X30.8Y24.5
X26.Y34.
X26.703Y35.697
X26.703Y32.303
X28.4Y36.4
X28.4Y31.6
X30.097Y35.697
X30.097Y32.303
X30.8Y34.
X-62.4Y66.
X-61.697Y67.697
X-61.697Y64.303
X-60.Y68.4
X-60.Y63.6
X-58.303Y67.697
X-58.303Y64.303
X-57.6Y66.
T2
X-62.1Y105.1
X-62.1Y103.4
X-62.1Y101.7
X-62.1Y99.5
X-62.1Y97.8
X-62.1Y96.1
X-62.1Y93.9
X-62.1Y92.2
X-62.1Y90.5
X-62.1Y88.3
X-62.1Y86.6
X-62.1Y84.9
X-62.1Y82.7
X-62.1Y81.
X-62.1Y79.3
X-62.1Y77.1
X-62.1Y75.4
X-62.1Y73.7
X-62.1Y44.
X-62.1Y42.3
X-62.1Y40.6
X-62.1Y38.4
X-62.1Y36.7
X-62.1Y35.
X-62.1Y32.8
X-62.1Y31.1
X-62.1Y29.4
X-62.1Y27.2
X-62.1Y25.5
X-62.1Y23.8
X-62.1Y21.6
X-62.1Y19.9
X-62.1Y18.2
X-62.1Y16.
X-62.1Y14.3
X-62.1Y12.6
X-62.1Y10.4
X-62.1Y8.7
X-62.1Y7.
X-62.1Y4.8
X-62.1Y3.1
X-62.1Y1.4
X-62.1Y-0.8
X-62.1Y-2.5
X-62.1Y-4.2
X-56.4Y105.1
X-56.4Y103.4
X-56.4Y101.7
X-56.4Y99.5
X-56.4Y97.8
X-56.4Y96.1
X-56.4Y93.9
X-56.4Y92.2
X-56.4Y90.5
X-56.4Y88.3
X-56.4Y86.6
X-56.4Y84.9
X-56.4Y82.7
X-56.4Y81.
X-56.4Y79.3
X-56.4Y77.1
X-56.4Y75.4
X-56.4Y73.7
X-56.4Y44.
X-56.4Y42.3
X-56.4Y40.6
X-56.4Y38.4
X-56.4Y36.7
X-56.4Y35.
X-56.4Y32.8
X-56.4Y31.1
X-56.4Y29.4
X-56.4Y27.2
X-56.4Y25.5
X-56.4Y23.8
X-56.4Y21.6
X-56.4Y19.9
X-56.4Y18.2
X-56.4Y16.
X-56.4Y14.3
X-56.4Y12.6
X-56.4Y10.4
X-56.4Y8.7
X-56.4Y7.
X-56.4Y4.8
X-56.4Y3.1
X-56.4Y1.4
X-56.4Y-0.8
X-56.4Y-2.5
X-56.4Y-4.2
X-55.3Y105.1
X-55.3Y103.4
X-55.3Y101.7
X-55.3Y99.5
X-55.3Y97.8
X-55.3Y96.1
X-55.3Y93.9
X-55.3Y92.2
X-55.3Y90.5
X-55.3Y88.3
X-55.3Y86.6
X-55.3Y84.9
X-55.3Y82.7
X-55.3Y81.
X-55.3Y79.3
X-55.3Y77.1
X-55.3Y75.4
X-55.3Y73.7
X-55.3Y44.
X-55.3Y42.3
X-55.3Y40.6
X-55.3Y38.4
X-55.3Y36.7
X-55.3Y35.
X-55.3Y32.8
X-55.3Y31.1
X-55.3Y29.4
X-55.3Y27.2
X-55.3Y25.5
X-55.3Y23.8
X-55.3Y21.6
X-55.3Y19.9
X-55.3Y18.2
X-55.3Y16.
X-55.3Y14.3
X-55.3Y12.6
X-55.3Y10.4
X-55.3Y10.4
X-55.3Y8.7
X-55.3Y7.
X-55.3Y4.8
X-55.3Y3.1
X-55.3Y1.4
X-55.3Y-0.8
X-55.3Y-2.5
X-55.3Y-4.2
X-49.6Y105.1
X-49.6Y103.4
X-49.6Y101.7
X-49.6Y99.5
X-49.6Y97.8
X-49.6Y96.1
X-49.6Y93.9
X-49.6Y92.2
X-49.6Y90.5
X-49.6Y88.3
X-49.6Y86.6
X-49.6Y84.9
X-49.6Y82.7
X-49.6Y81.
X-49.6Y79.3
X-49.6Y77.1
X-49.6Y75.4
X-49.6Y73.7
X-49.6Y44.
X-49.6Y42.3
X-49.6Y40.6
X-49.6Y38.4
X-49.6Y36.7
X-49.6Y35.
X-49.6Y32.8
X-49.6Y31.1
X-49.6Y29.4
X-49.6Y27.2
X-49.6Y25.5
X-49.6Y23.8
X-49.6Y21.6
X-49.6Y19.9
X-49.6Y18.2
X-49.6Y16.
X-49.6Y14.3
X-49.6Y12.6
X-49.6Y10.4
X-49.6Y8.7
X-49.6Y7.
X-49.6Y4.8
X-49.6Y3.1
X-49.6Y1.4
X-49.6Y-0.8
X-49.6Y-2.5
X-49.6Y-4.2
X-48.5Y105.1
X-48.5Y103.4
X-48.5Y101.7
X-48.5Y99.5
X-48.5Y97.8
X-48.5Y96.1
X-48.5Y93.9
X-48.5Y92.2
X-48.5Y90.5
X-48.5Y88.3
X-48.5Y86.6
X-48.5Y84.9
X-48.5Y82.7
X-48.5Y81.
X-48.5Y79.3
X-48.5Y77.1
X-48.5Y75.4
X-48.5Y73.7
X-48.5Y71.5
X-48.5Y69.8
X-48.5Y68.1
X-48.5Y65.9
X-48.5Y64.2
X-48.5Y62.5
X-48.5Y60.3
X-48.5Y58.6
X-48.5Y56.9
X-48.5Y44.
X-48.5Y42.3
X-48.5Y40.6
X-48.5Y38.4
X-48.5Y36.7
X-48.5Y35.
X-48.5Y32.8
X-48.5Y31.1
X-48.5Y29.4
X-48.5Y27.2
X-48.5Y25.5
X-48.5Y23.8
X-48.5Y21.6
X-48.5Y19.9
X-48.5Y18.2
X-48.4Y16.
X-48.4Y14.3
X-48.4Y12.6
X-48.4Y10.4
X-48.4Y8.7
X-48.4Y7.
X-48.4Y4.8
X-48.4Y3.1
X-48.4Y1.4
X-48.4Y-0.8
X-48.4Y-2.5
X-48.4Y-4.2
X-42.8Y105.1
X-42.8Y103.4
X-42.8Y101.7
X-42.8Y99.5
X-42.8Y97.8
X-42.8Y96.1
X-42.8Y93.9
X-42.8Y92.2
X-42.8Y90.5
X-42.8Y88.3
X-42.8Y86.6
X-42.8Y84.9
X-42.8Y82.7
X-42.8Y81.
X-42.8Y79.3
X-42.8Y77.1
X-42.8Y75.4
X-42.8Y73.7
X-42.8Y71.5
X-42.8Y69.8
X-42.8Y68.1
X-42.8Y65.9
X-42.8Y64.2
X-42.8Y62.5
X-42.8Y60.3
X-42.8Y58.6
X-42.8Y56.9
X-42.8Y44.
X-42.8Y42.3
X-42.8Y40.6
X-42.8Y38.4
X-42.8Y36.7
X-42.8Y35.
X-42.8Y32.8
X-42.8Y31.1
X-42.8Y29.4
X-42.8Y27.2
X-42.8Y25.5
X-42.8Y23.8
X-42.8Y21.6
X-42.8Y19.9
X-42.8Y18.2
X-42.7Y16.
X-42.7Y14.3
X-42.7Y12.6
X-42.7Y10.4
X-42.7Y8.7
X-42.7Y7.
X-42.7Y4.8
X-42.7Y3.1
X-42.7Y1.4
X-42.7Y-0.8
X-42.7Y-2.5
X-42.7Y-4.2
X-41.7Y105.1
X-41.7Y103.4
X-41.7Y101.7
X-41.7Y99.5
X-41.7Y97.8
X-41.7Y96.1
X-41.7Y93.9
X-41.7Y92.2
X-41.7Y90.5
X-41.7Y88.3
X-41.7Y86.6
X-41.7Y84.9
X-41.7Y82.7
X-41.7Y81.
X-41.7Y79.3
X-41.7Y77.1
X-41.7Y75.4
X-41.7Y73.7
X-41.7Y71.5
X-41.7Y69.8
X-41.7Y68.1
X-41.7Y65.9
X-41.7Y64.2
X-41.7Y62.5
X-41.7Y60.3
X-41.7Y58.6
X-41.7Y56.9
X-41.7Y44.
X-41.7Y42.3
X-41.7Y40.6
X-41.7Y38.4
X-41.7Y36.7
X-41.7Y35.
X-41.7Y27.2
X-41.7Y25.5
X-41.7Y23.8
X-41.7Y21.6
X-41.7Y19.9
X-41.7Y18.2
X-41.7Y16.
X-41.7Y14.3
X-41.7Y12.6
X-41.7Y10.4
X-41.7Y8.7
X-41.7Y7.
X-41.7Y4.8
X-41.7Y3.1
X-41.7Y1.4
X-41.7Y-0.8
X-41.7Y-2.5
X-41.7Y-4.2
X-41.694Y32.844
X-41.694Y31.144
X-41.694Y29.444
X-36.Y105.1
X-36.Y103.4
X-36.Y101.7
X-36.Y99.5
X-36.Y97.8
X-36.Y96.1
X-36.Y93.9
X-36.Y92.2
X-36.Y90.5
X-36.Y88.3
X-36.Y86.6
X-36.Y84.9
X-36.Y82.7
X-36.Y81.
X-36.Y79.3
X-36.Y77.1
X-36.Y75.4
X-36.Y73.7
X-36.Y71.5
X-36.Y69.8
X-36.Y68.1
X-36.Y65.9
X-36.Y64.2
X-36.Y62.5
X-36.Y60.3
X-36.Y58.6
X-36.Y56.9
X-36.Y44.
X-36.Y42.3
X-36.Y40.6
X-36.Y38.4
X-36.Y36.7
X-36.Y35.
X-36.Y27.2
X-36.Y25.5
X-36.Y23.8
X-36.Y21.6
X-36.Y19.9
X-36.Y18.2
X-36.Y16.
X-36.Y14.3
X-36.Y12.6
X-36.Y10.4
X-36.Y8.7
X-36.Y7.
X-36.Y4.8
X-36.Y3.1
X-36.Y1.4
X-36.Y-0.8
X-36.Y-2.5
X-36.Y-4.2
X-35.994Y32.844
X-35.994Y31.144
X-35.994Y29.444
X-34.9Y105.1
X-34.9Y103.4
X-34.9Y101.7
X-34.9Y99.5
X-34.9Y97.8
X-34.9Y96.1
X-34.9Y93.9
X-34.9Y92.2
X-34.9Y90.5
X-34.9Y88.3
X-34.9Y86.6
X-34.9Y84.9
X-34.9Y82.7
X-34.9Y81.
X-34.9Y79.3
X-34.9Y77.1
X-34.9Y75.4
X-34.9Y73.7
X-34.9Y71.5
X-34.9Y69.8
X-34.9Y68.1
X-34.9Y65.9
X-34.9Y64.2
X-34.9Y62.5
X-34.9Y60.3
X-34.9Y58.6
X-34.9Y56.9
X-34.9Y44.
X-34.9Y42.3
X-34.9Y40.6
X-34.9Y38.4
X-34.9Y36.7
X-34.9Y35.
X-34.9Y32.8
X-34.9Y31.1
X-34.9Y29.4
X-34.9Y27.2
X-34.9Y25.5
X-34.9Y23.8
X-34.9Y21.6
X-34.9Y19.9
X-34.9Y18.2
X-34.9Y16.
X-34.9Y14.3
X-34.9Y12.6
X-34.9Y10.4
X-34.9Y8.7
X-34.9Y7.
X-34.9Y4.8
X-34.9Y3.1
X-34.9Y1.4
X-34.9Y1.4
X-34.9Y-0.8
X-34.9Y-0.8
X-34.9Y-2.5
X-34.9Y-2.5
X-34.9Y-4.2
X-34.9Y-4.2
X-29.2Y105.1
X-29.2Y103.4
X-29.2Y101.7
X-29.2Y99.5
X-29.2Y97.8
X-29.2Y96.1
X-29.2Y93.9
X-29.2Y92.2
X-29.2Y90.5
X-29.2Y88.3
X-29.2Y86.6
X-29.2Y84.9
X-29.2Y82.7
X-29.2Y81.
X-29.2Y79.3
X-29.2Y77.1
X-29.2Y75.4
X-29.2Y73.7
X-29.2Y71.5
X-29.2Y69.8
X-29.2Y68.1
X-29.2Y65.9
X-29.2Y64.2
X-29.2Y62.5
X-29.2Y60.3
X-29.2Y58.6
X-29.2Y56.9
X-29.2Y44.
X-29.2Y42.3
X-29.2Y40.6
X-29.2Y38.4
X-29.2Y36.7
X-29.2Y35.
X-29.2Y32.8
X-29.2Y31.1
X-29.2Y29.4
X-29.2Y27.2
X-29.2Y25.5
X-29.2Y23.8
X-29.2Y21.6
X-29.2Y19.9
X-29.2Y18.2
X-29.2Y16.
X-29.2Y14.3
X-29.2Y12.6
X-29.2Y10.4
X-29.2Y8.7
X-29.2Y7.
X-29.2Y4.8
X-29.2Y3.1
X-29.2Y1.4
X-29.2Y-0.8
X-29.2Y-0.8
X-29.2Y-2.5
X-29.2Y-2.5
X-29.2Y-4.2
X-29.2Y-4.2
X-28.1Y105.1
X-28.1Y103.4
X-28.1Y101.7
X-28.1Y99.5
X-28.1Y97.8
X-28.1Y96.1
X-28.1Y93.9
X-28.1Y92.2
X-28.1Y90.5
X-28.1Y88.3
X-28.1Y86.6
X-28.1Y84.9
X-28.1Y82.7
X-28.1Y81.
X-28.1Y79.3
X-28.1Y77.1
X-28.1Y75.4
X-28.1Y73.7
X-28.1Y71.5
X-28.1Y69.8
X-28.1Y68.1
X-28.1Y65.9
X-28.1Y64.2
X-28.1Y62.5
X-28.1Y60.3
X-28.1Y58.6
X-28.1Y56.9
X-28.1Y44.
X-28.1Y42.3
X-28.1Y40.6
X-28.1Y38.4
X-28.1Y36.7
X-28.1Y35.
X-28.1Y32.8
X-28.1Y31.1
X-28.1Y29.4
X-28.1Y27.2
X-28.1Y25.5
X-28.1Y23.8
X-28.1Y21.6
X-28.1Y19.9
X-28.1Y18.2
X-28.1Y16.
X-28.1Y14.3
X-28.1Y12.6
X-28.1Y10.4
X-28.1Y8.7
X-28.1Y7.
X-28.1Y4.8
X-28.1Y3.1
X-28.1Y1.4
X-28.1Y-0.8
X-28.1Y-2.5
X-28.1Y-4.2
X-22.4Y105.1
X-22.4Y103.4
X-22.4Y101.7
X-22.4Y99.5
X-22.4Y97.8
X-22.4Y96.1
X-22.4Y93.9
X-22.4Y92.2
X-22.4Y90.5
X-22.4Y88.3
X-22.4Y86.6
X-22.4Y84.9
X-22.4Y82.7
X-22.4Y81.
X-22.4Y79.3
X-22.4Y77.1
X-22.4Y75.4
X-22.4Y73.7
X-22.4Y71.5
X-22.4Y69.8
X-22.4Y68.1
X-22.4Y65.9
X-22.4Y64.2
X-22.4Y62.5
X-22.4Y60.3
X-22.4Y58.6
X-22.4Y56.9
X-22.4Y44.
X-22.4Y42.3
X-22.4Y40.6
X-22.4Y38.4
X-22.4Y36.7
X-22.4Y35.
X-22.4Y32.8
X-22.4Y31.1
X-22.4Y29.4
X-22.4Y27.2
X-22.4Y25.5
X-22.4Y23.8
X-22.4Y21.6
X-22.4Y19.9
X-22.4Y18.2
X-22.4Y16.
X-22.4Y14.3
X-22.4Y12.6
X-22.4Y10.4
X-22.4Y8.7
X-22.4Y7.
X-22.4Y4.8
X-22.4Y3.1
X-22.4Y1.4
X-22.4Y-0.8
X-22.4Y-2.5
X-22.4Y-4.2
X-21.432Y32.844
X-21.432Y31.144
X-21.432Y29.444
X-21.432Y27.244
X-21.432Y25.544
X-21.432Y23.844
X-21.432Y21.644
X-21.432Y19.944
X-21.432Y18.244
X-21.3Y105.1
X-21.3Y103.4
X-21.3Y101.7
X-21.3Y99.5
X-21.3Y97.8
X-21.3Y96.1
X-21.3Y93.9
X-21.3Y92.2
X-21.3Y90.5
X-21.3Y88.3
X-21.3Y86.6
X-21.3Y84.9
X-21.3Y82.7
X-21.3Y81.
X-21.3Y79.3
X-21.3Y77.1
X-21.3Y75.4
X-21.3Y73.7
X-21.3Y71.5
X-21.3Y69.8
X-21.3Y68.1
X-21.3Y65.9
X-21.3Y64.2
X-21.3Y62.5
X-21.3Y60.3
X-21.3Y58.6
X-21.3Y56.9
X-21.3Y44.
X-21.3Y42.3
X-21.3Y40.6
X-21.3Y38.4
X-21.3Y36.7
X-21.3Y35.
X-21.3Y16.
X-21.3Y14.3
X-21.3Y12.6
X-21.3Y10.4
X-21.3Y8.7
X-21.3Y7.
X-21.3Y4.8
X-21.3Y3.1
X-21.3Y1.4
X-21.3Y-0.8
X-21.3Y-2.5
X-21.3Y-4.2
X-15.632Y32.844
X-15.632Y31.144
X-15.632Y29.444
X-15.632Y27.244
X-15.632Y25.544
X-15.632Y23.844
X-15.632Y21.644
X-15.632Y19.944
X-15.632Y18.244
X-15.6Y105.1
X-15.6Y103.4
X-15.6Y101.7
X-15.6Y99.5
X-15.6Y97.8
X-15.6Y96.1
X-15.6Y93.9
X-15.6Y92.2
X-15.6Y90.5
X-15.6Y88.3
X-15.6Y86.6
X-15.6Y84.9
X-15.6Y82.7
X-15.6Y81.
X-15.6Y79.3
X-15.6Y77.1
X-15.6Y75.4
X-15.6Y73.7
X-15.6Y71.5
X-15.6Y69.8
X-15.6Y68.1
X-15.6Y65.9
X-15.6Y64.2
X-15.6Y62.5
X-15.6Y60.3
X-15.6Y58.6
X-15.6Y56.9
X-15.6Y44.
X-15.6Y42.3
X-15.6Y40.6
X-15.6Y38.4
X-15.6Y36.7
X-15.6Y35.
X-15.6Y16.
X-15.6Y14.3
X-15.6Y12.6
X-15.6Y10.4
X-15.6Y8.7
X-15.6Y7.
X-15.6Y4.8
X-15.6Y3.1
X-15.6Y1.4
X-15.6Y-0.8
X-15.6Y-2.5
X-15.6Y-4.2
X-14.5Y105.1
X-14.5Y103.4
X-14.5Y101.7
X-14.5Y99.5
X-14.5Y97.8
X-14.5Y96.1
X-14.5Y93.9
X-14.5Y92.2
X-14.5Y90.5
X-14.5Y88.3
X-14.5Y86.6
X-14.5Y84.9
X-14.5Y82.7
X-14.5Y81.
X-14.5Y79.3
X-14.5Y77.1
X-14.5Y75.4
X-14.5Y73.7
X-14.5Y71.5
X-14.5Y69.8
X-14.5Y68.1
X-14.5Y65.9
X-14.5Y64.2
X-14.5Y62.5
X-14.5Y60.3
X-14.5Y58.6
X-14.5Y56.9
X-14.5Y44.
X-14.5Y42.3
X-14.5Y40.6
X-14.5Y38.4
X-14.5Y36.7
X-14.5Y35.
X-14.5Y32.8
X-14.5Y31.1
X-14.5Y29.4
X-14.5Y27.2
X-14.5Y25.5
X-14.5Y23.8
X-14.5Y21.6
X-14.5Y19.9
X-14.5Y18.2
X-14.5Y16.
X-14.5Y14.3
X-14.5Y12.6
X-14.5Y10.4
X-14.5Y8.7
X-14.5Y7.
X-14.5Y4.8
X-14.5Y3.1
X-14.5Y1.4
X-8.8Y105.1
X-8.8Y103.4
X-8.8Y101.7
X-8.8Y99.5
X-8.8Y97.8
X-8.8Y96.1
X-8.8Y93.9
X-8.8Y92.2
X-8.8Y90.5
X-8.8Y88.3
X-8.8Y86.6
X-8.8Y84.9
X-8.8Y82.7
X-8.8Y81.
X-8.8Y79.3
X-8.8Y77.1
X-8.8Y75.4
X-8.8Y73.7
X-8.8Y71.5
X-8.8Y69.8
X-8.8Y68.1
X-8.8Y65.9
X-8.8Y64.2
X-8.8Y62.5
X-8.8Y60.3
X-8.8Y58.6
X-8.8Y56.9
X-8.8Y44.
X-8.8Y42.3
X-8.8Y40.6
X-8.8Y38.4
X-8.8Y36.7
X-8.8Y35.
X-8.8Y32.8
X-8.8Y31.1
X-8.8Y29.4
X-8.8Y27.2
X-8.8Y25.5
X-8.8Y23.8
X-8.8Y21.6
X-8.8Y19.9
X-8.8Y18.2
X-8.8Y16.
X-8.8Y14.3
X-8.8Y12.6
X-8.8Y10.4
X-8.8Y8.7
X-8.8Y7.
X-8.8Y4.8
X-8.8Y3.1
X-8.8Y1.4
X-7.6Y105.1
X-7.6Y103.4
X-7.6Y101.7
X-7.6Y99.5
X-7.6Y97.8
X-7.6Y96.1
X-7.6Y93.9
X-7.6Y92.2
X-7.6Y90.5
X-7.6Y88.3
X-7.6Y86.6
X-7.6Y84.9
X-7.6Y82.7
X-7.6Y81.
X-7.6Y79.3
X-7.6Y77.1
X-7.6Y75.4
X-7.6Y73.7
X-7.6Y71.5
X-7.6Y69.8
X-7.6Y68.1
X-7.6Y65.9
X-7.6Y64.2
X-7.6Y62.5
X-7.6Y60.3
X-7.6Y58.6
X-7.6Y56.9
X-7.6Y44.
X-7.6Y42.3
X-7.6Y40.6
X-7.6Y38.4
X-7.6Y36.7
X-7.6Y35.
X-7.6Y32.8
X-7.6Y31.1
X-7.6Y29.4
X-7.6Y27.2
X-7.6Y25.5
X-7.6Y23.8
X-7.6Y21.6
X-7.6Y19.9
X-7.6Y18.2
X-7.6Y16.
X-7.6Y14.3
X-7.6Y12.6
X-7.6Y10.4
X-7.6Y8.7
X-7.6Y7.
X-7.6Y4.8
X-7.6Y3.1
X-7.6Y1.4
X-1.9Y105.1
X-1.9Y103.4
X-1.9Y101.7
X-1.9Y99.5
X-1.9Y97.8
X-1.9Y96.1
X-1.9Y93.9
X-1.9Y92.2
X-1.9Y90.5
X-1.9Y88.3
X-1.9Y86.6
X-1.9Y84.9
X-1.9Y82.7
X-1.9Y81.
X-1.9Y79.3
X-1.9Y77.1
X-1.9Y75.4
X-1.9Y73.7
X-1.9Y71.5
X-1.9Y69.8
X-1.9Y68.1
X-1.9Y65.9
X-1.9Y64.2
X-1.9Y62.5
X-1.9Y60.3
X-1.9Y58.6
X-1.9Y56.9
X-1.9Y44.
X-1.9Y42.3
X-1.9Y40.6
X-1.9Y38.4
X-1.9Y36.7
X-1.9Y35.
X-1.9Y32.8
X-1.9Y31.1
X-1.9Y29.4
X-1.9Y27.2
X-1.9Y25.5
X-1.9Y23.8
X-1.9Y21.6
X-1.9Y19.9
X-1.9Y18.2
X-1.9Y16.
X-1.9Y14.3
X-1.9Y12.6
X-1.9Y10.4
X-1.9Y8.7
X-1.9Y7.
X-1.9Y4.8
X-1.9Y3.1
X-1.9Y1.4
X-0.8Y105.1
X-0.8Y103.4
X-0.8Y101.7
X-0.8Y99.5
X-0.8Y97.8
X-0.8Y96.1
X-0.8Y93.9
X-0.8Y92.2
X-0.8Y90.5
X-0.8Y88.3
X-0.8Y86.6
X-0.8Y84.9
X-0.8Y82.7
X-0.8Y81.
X-0.8Y79.3
X-0.8Y77.1
X-0.8Y75.4
X-0.8Y73.7
X-0.8Y71.5
X-0.8Y69.8
X-0.8Y68.1
X-0.8Y65.9
X-0.8Y64.2
X-0.8Y62.5
X-0.8Y60.3
X-0.8Y58.6
X-0.8Y56.9
X-0.8Y44.
X-0.8Y42.3
X-0.8Y40.6
X-0.8Y38.4
X-0.8Y36.7
X-0.8Y35.
X-0.8Y32.8
X-0.8Y31.1
X-0.8Y29.4
X-0.8Y27.2
X-0.8Y25.5
X-0.8Y23.8
X-0.8Y21.6
X-0.8Y19.9
X-0.8Y18.2
X-0.8Y16.
X-0.8Y14.3
X-0.8Y12.6
X-0.8Y10.4
X-0.8Y8.7
X-0.8Y7.
X-0.8Y4.8
X-0.8Y3.1
X-0.8Y1.4
X4.9Y105.1
X4.9Y103.4
X4.9Y101.7
X4.9Y99.5
X4.9Y97.8
X4.9Y96.1
X4.9Y93.9
X4.9Y92.2
X4.9Y90.5
X4.9Y88.3
X4.9Y86.6
X4.9Y84.9
X4.9Y82.7
X4.9Y81.
X4.9Y79.3
X4.9Y77.1
X4.9Y75.4
X4.9Y73.7
X4.9Y71.5
X4.9Y69.8
X4.9Y68.1
X4.9Y65.9
X4.9Y64.2
X4.9Y62.5
X4.9Y60.3
X4.9Y58.6
X4.9Y56.9
X4.9Y44.
X4.9Y42.3
X4.9Y40.6
X4.9Y38.4
X4.9Y36.7
X4.9Y35.
X4.9Y32.8
X4.9Y31.1
X4.9Y29.4
X4.9Y27.2
X4.9Y25.5
X4.9Y23.8
X4.9Y21.6
X4.9Y19.9
X4.9Y18.2
X4.9Y16.
X4.9Y14.3
X4.9Y12.6
X4.9Y10.4
X4.9Y8.7
X4.9Y7.
X4.9Y4.8
X4.9Y3.1
X4.9Y1.4
X6.Y105.1
X6.Y103.4
X6.Y101.7
X6.Y99.5
X6.Y97.8
X6.Y96.1
X6.Y93.9
X6.Y92.2
X6.Y90.5
X6.Y88.3
X6.Y86.6
X6.Y84.9
X6.Y82.7
X6.Y81.
X6.Y79.3
X6.Y77.1
X6.Y75.4
X6.Y73.7
X6.Y71.5
X6.Y69.8
X6.Y68.1
X6.Y65.9
X6.Y64.2
X6.Y62.5
X6.Y60.3
X6.Y58.6
X6.Y56.9
X6.Y44.
X6.Y42.3
X6.Y40.6
X6.1Y38.4
X6.1Y36.7
X6.1Y35.
X6.1Y32.8
X6.1Y31.1
X6.1Y29.4
X6.1Y27.2
X6.1Y25.5
X6.1Y23.8
X6.1Y21.6
X6.1Y19.9
X6.1Y18.2
X6.1Y16.
X6.1Y14.3
X6.1Y12.6
X6.1Y10.4
X6.1Y8.7
X6.1Y7.
X6.1Y4.8
X6.1Y3.1
X6.1Y1.4
X11.8Y105.1
X11.8Y103.4
X11.8Y101.7
X11.8Y99.5
X11.8Y97.8
X11.8Y96.1
X11.8Y93.9
X11.8Y92.2
X11.8Y90.5
X11.8Y88.3
X11.8Y86.6
X11.8Y84.9
X11.8Y82.7
X11.8Y81.
X11.8Y79.3
X11.8Y77.1
X11.8Y75.4
X11.8Y73.7
X11.8Y71.5
X11.8Y69.8
X11.8Y68.1
X11.8Y65.9
X11.8Y64.2
X11.8Y62.5
X11.8Y60.3
X11.8Y58.6
X11.8Y56.9
X11.8Y44.
X11.8Y42.3
X11.8Y40.6
X11.8Y38.4
X11.8Y36.7
X11.8Y35.
X11.8Y32.8
X11.8Y31.1
X11.8Y29.4
X11.8Y27.2
X11.8Y25.5
X11.8Y23.8
X11.8Y21.6
X11.8Y19.9
X11.8Y18.2
X11.8Y16.
X11.8Y14.3
X11.8Y12.6
X11.8Y10.4
X11.8Y8.7
X11.8Y7.
X11.8Y4.8
X11.8Y3.1
X11.8Y1.4
X22.4Y105.1
X22.4Y103.4
X22.4Y101.7
X22.4Y99.5
X22.4Y97.8
X22.4Y96.1
X22.4Y93.9
X22.4Y92.2
X22.4Y90.5
X22.4Y88.3
X22.4Y86.6
X22.4Y84.9
X22.4Y82.7
X22.4Y81.
X22.4Y79.3
X22.4Y77.1
X22.4Y75.4
X22.4Y73.7
X22.4Y71.5
X22.4Y69.8
X22.4Y68.1
X22.4Y65.9
X22.4Y64.2
X22.4Y62.5
X22.4Y15.9
X22.4Y14.1
X22.4Y12.4
X22.4Y10.3
X22.4Y8.5
X22.4Y6.8
X22.4Y4.7
X22.4Y2.9
X22.4Y1.2
X22.4Y-0.9
X22.4Y-2.7
X22.4Y-4.4
X28.1Y105.1
X28.1Y103.4
X28.1Y101.7
X28.1Y99.5
X28.1Y97.8
X28.1Y96.1
X28.1Y93.9
X28.1Y92.2
X28.1Y90.5
X28.1Y88.3
X28.1Y86.6
X28.1Y84.9
X28.1Y82.7
X28.1Y81.
X28.1Y79.3
X28.1Y77.1
X28.1Y75.4
X28.1Y73.7
X28.1Y71.5
X28.1Y69.8
X28.1Y68.1
X28.1Y65.9
X28.1Y64.2
X28.1Y62.5
X28.1Y15.9
X28.1Y14.1
X28.1Y12.4
X28.1Y10.3
X28.1Y8.5
X28.1Y6.8
X28.1Y4.7
X28.1Y2.9
X28.1Y1.2
X28.1Y-0.9
X28.1Y-2.7
X28.1Y-4.4
X29.2Y105.1
X29.2Y103.4
X29.2Y101.7
X29.2Y99.5
X29.2Y97.8
X29.2Y96.1
X29.2Y94.
X29.2Y92.19
X29.2Y90.5
X29.2Y88.3
X29.2Y86.6
X29.2Y84.9
X29.2Y82.7
X29.2Y81.
X29.2Y79.3
X29.2Y77.1
X29.2Y75.39
X29.2Y73.7
X29.2Y71.5
X29.2Y69.8
X29.2Y68.1
X29.2Y65.9
X29.2Y64.2
X29.2Y62.5
X29.2Y60.3
X29.2Y58.6
X29.2Y56.9
X29.2Y54.7
X29.2Y53.
X29.2Y51.3
X29.2Y49.1
X29.2Y47.4
X29.2Y45.7
X29.2Y43.5
X29.2Y41.8
X29.2Y40.1
X29.2Y15.9
X29.2Y14.1
X29.2Y12.4
X29.2Y10.3
X29.2Y8.5
X29.2Y6.8
X29.2Y4.7
X29.2Y2.9
X29.2Y1.2
X29.2Y-0.9
X29.2Y-2.7
X29.2Y-4.4
X34.9Y105.1
X34.9Y103.4
X34.9Y101.7
X34.9Y99.5
X34.9Y97.8
X34.9Y96.1
X34.9Y94.
X34.9Y92.19
X34.9Y90.5
X34.9Y88.3
X34.9Y86.6
X34.9Y84.9
X34.9Y82.7
X34.9Y81.
X34.9Y79.3
X34.9Y77.1
X34.9Y75.4
X34.9Y73.7
X34.9Y71.5
X34.9Y69.8
X34.9Y68.1
X34.9Y65.9
X34.9Y64.2
X34.9Y62.5
X34.9Y60.3
X34.9Y58.6
X34.9Y56.9
X34.9Y54.7
X34.9Y53.
X34.9Y51.3
X34.9Y49.1
X34.9Y47.4
X34.9Y45.7
X34.9Y43.5
X34.9Y41.8
X34.9Y40.1
X34.9Y15.9
X34.9Y14.1
X34.9Y12.4
X34.9Y10.3
X34.9Y8.5
X34.9Y6.8
X34.9Y4.7
X34.9Y2.9
X34.9Y1.2
X34.9Y-0.9
X34.9Y-2.7
X34.9Y-4.4
X36.Y105.1
X36.Y103.4
X36.Y101.7
X36.Y99.5
X36.Y97.8
X36.Y96.1
X36.Y94.
X36.Y92.2
X36.Y90.5
X36.Y88.3
X36.Y86.6
X36.Y84.9
X36.Y82.7
X36.Y81.
X36.Y79.3
X36.Y77.1
X36.Y75.4
X36.Y73.7
X36.Y71.5
X36.Y69.8
X36.Y68.1
X36.Y65.9
X36.Y64.2
X36.Y62.5
X36.Y60.3
X36.Y58.6
X36.Y56.9
X36.Y54.7
X36.Y53.
X36.Y51.3
X36.Y49.1
X36.Y47.4
X36.Y45.7
X36.Y43.5
X36.Y41.8
X36.Y40.1
X36.Y27.1
X36.Y25.3
X36.Y23.6
X36.Y21.5
X36.Y19.7
X36.Y18.
X36.Y15.9
X36.Y14.1
X36.Y12.4
X36.Y10.3
X36.Y8.5
X36.Y6.8
X36.Y4.7
X36.Y2.9
X36.Y1.2
X36.Y-0.9
X36.Y-2.7
X36.Y-4.4
X41.7Y105.1
X41.7Y103.4
X41.7Y101.7
X41.7Y99.5
X41.7Y97.8
X41.7Y96.1
X41.7Y94.
X41.7Y92.2
X41.7Y90.5
X41.7Y88.3
X41.7Y86.6
X41.7Y84.9
X41.7Y82.7
X41.7Y81.
X41.7Y79.3
X41.7Y77.1
X41.7Y75.4
X41.7Y73.7
X41.7Y71.5
X41.7Y69.8
X41.7Y68.1
X41.7Y65.9
X41.7Y64.2
X41.7Y62.5
X41.7Y60.3
X41.7Y58.6
X41.7Y56.9
X41.7Y54.7
X41.7Y53.
X41.7Y51.3
X41.7Y49.1
X41.7Y47.4
X41.7Y45.7
X41.7Y43.5
X41.7Y41.8
X41.7Y40.1
X41.7Y27.1
X41.7Y25.3
X41.7Y23.6
X41.7Y21.5
X41.7Y19.7
X41.7Y18.
X41.7Y15.9
X41.7Y14.1
X41.7Y12.4
X41.7Y10.3
X41.7Y8.5
X41.7Y6.8
X41.7Y4.7
X41.7Y2.9
X41.7Y1.2
X41.7Y-0.9
X41.7Y-2.7
X41.7Y-4.4
X42.8Y105.1
X42.8Y103.4
X42.8Y101.7
X42.8Y99.5
X42.8Y97.8
X42.8Y96.1
X42.8Y94.
X42.8Y92.2
X42.8Y90.5
X42.8Y88.3
X42.8Y86.6
X42.8Y84.9
X42.8Y82.7
X42.8Y81.
X42.8Y79.3
X42.8Y77.1
X42.8Y75.4
X42.8Y73.7
X42.8Y71.5
X42.8Y69.8
X42.8Y68.1
X42.8Y65.9
X42.8Y64.2
X42.8Y62.5
X42.8Y60.3
X42.8Y58.6
X42.8Y56.9
X42.8Y54.7
X42.8Y53.
X42.8Y51.3
X42.8Y49.1
X42.8Y47.4
X42.8Y45.7
X42.8Y43.5
X42.8Y41.8
X42.8Y40.1
X42.8Y27.1
X42.8Y25.3
X42.8Y23.6
X42.8Y21.5
X42.8Y19.7
X42.8Y18.
X42.8Y15.9
X42.8Y14.1
X42.8Y12.4
X42.8Y10.3
X42.8Y8.5
X42.8Y6.8
X42.8Y4.7
X42.8Y2.9
X42.8Y1.2
X42.8Y-0.9
X42.8Y-2.7
X42.8Y-4.4
X48.6Y105.1
X48.6Y103.4
X48.6Y101.7
X48.6Y99.5
X48.6Y97.8
X48.6Y96.1
X48.6Y94.
X48.6Y92.2
X48.6Y90.5
X48.6Y88.3
X48.6Y86.6
X48.6Y84.9
X48.6Y82.7
X48.6Y81.
X48.6Y79.3
X48.6Y77.1
X48.6Y75.4
X48.6Y73.7
X48.6Y71.5
X48.6Y69.8
X48.6Y68.1
X48.6Y65.9
X48.6Y64.2
X48.6Y62.5
X48.6Y60.3
X48.6Y58.6
X48.6Y56.9
X48.6Y54.7
X48.6Y53.
X48.6Y51.3
X48.6Y49.1
X48.6Y47.4
X48.6Y45.7
X48.6Y43.5
X48.6Y41.8
X48.6Y40.1
X48.6Y27.1
X48.6Y25.3
X48.6Y23.6
X48.6Y21.5
X48.6Y19.7
X48.6Y18.
X48.6Y15.9
X48.6Y14.1
X48.6Y12.4
X48.6Y10.3
X48.6Y8.5
X48.6Y6.8
X48.6Y4.7
X48.6Y2.9
X48.6Y1.2
X48.6Y-0.9
X48.6Y-2.7
X48.6Y-4.4
X49.6Y105.1
X49.6Y103.4
X49.6Y101.7
X49.6Y99.5
X49.6Y97.8
X49.6Y96.1
X49.6Y94.
X49.6Y92.2
X49.6Y90.5
X49.6Y88.3
X49.6Y86.6
X49.6Y84.9
X49.6Y82.7
X49.6Y81.
X49.6Y79.3
X49.6Y77.1
X49.6Y75.4
X49.6Y73.7
X49.6Y71.5
X49.6Y69.8
X49.6Y68.1
X49.6Y65.9
X49.6Y64.2
X49.6Y62.5
X49.6Y60.3
X49.6Y58.6
X49.6Y56.9
X49.6Y54.7
X49.6Y53.
X49.6Y51.3
X49.6Y49.1
X49.6Y47.4
X49.6Y45.7
X49.6Y43.5
X49.6Y41.8
X49.6Y40.1
X49.6Y27.1
X49.6Y25.3
X49.6Y23.6
X49.6Y21.5
X49.6Y19.7
X49.6Y18.
X49.6Y15.9
X49.6Y14.1
X49.6Y12.4
X49.6Y10.3
X49.6Y8.5
X49.6Y6.8
X49.6Y4.7
X49.6Y2.9
X49.6Y1.2
X49.6Y-0.9
X49.6Y-2.7
X49.6Y-4.4
X55.3Y105.1
X55.3Y103.4
X55.3Y101.7
X55.3Y99.5
X55.3Y97.8
X55.3Y96.1
X55.3Y94.
X55.3Y92.2
X55.3Y90.5
X55.3Y88.3
X55.3Y86.6
X55.3Y84.9
X55.3Y82.7
X55.3Y81.
X55.3Y79.3
X55.3Y77.1
X55.3Y75.4
X55.3Y73.7
X55.3Y71.5
X55.3Y69.8
X55.3Y68.1
X55.3Y65.9
X55.3Y64.2
X55.3Y62.5
X55.3Y60.3
X55.3Y58.6
X55.3Y56.9
X55.3Y54.7
X55.3Y53.
X55.3Y51.3
X55.3Y49.1
X55.3Y47.4
X55.3Y45.7
X55.3Y43.5
X55.3Y41.8
X55.3Y40.1
X55.3Y27.1
X55.3Y25.3
X55.3Y23.6
X55.3Y21.5
X55.3Y19.7
X55.3Y18.
X55.3Y15.9
X55.3Y14.1
X55.3Y12.4
X55.3Y10.3
X55.3Y8.5
X55.3Y6.8
X55.3Y4.7
X55.3Y2.9
X55.3Y1.2
X55.3Y-0.9
X55.3Y-2.7
X55.3Y-4.4
X56.4Y105.1
X56.4Y103.4
X56.4Y101.7
X56.4Y99.5
X56.4Y97.8
X56.4Y96.1
X56.4Y94.
X56.4Y92.2
X56.4Y90.5
X56.4Y88.3
X56.4Y86.6
X56.4Y84.9
X56.4Y82.7
X56.4Y81.
X56.4Y79.3
X56.4Y77.1
X56.4Y75.4
X56.4Y73.7
X56.4Y71.5
X56.4Y69.8
X56.4Y68.1
X56.4Y65.9
X56.4Y64.2
X56.4Y62.5
X56.4Y60.3
X56.4Y58.6
X56.4Y56.9
X56.4Y54.7
X56.4Y53.
X56.4Y51.3
X56.4Y49.1
X56.4Y47.4
X56.4Y45.7
X56.4Y43.5
X56.4Y41.8
X56.4Y40.1
X56.4Y27.1
X56.4Y25.3
X56.4Y23.6
X56.4Y21.5
X56.4Y19.7
X56.4Y18.
X56.4Y15.9
X56.4Y14.1
X56.4Y12.4
X56.4Y10.3
X56.4Y8.5
X56.4Y6.8
X56.4Y4.7
X56.4Y2.9
X56.4Y1.2
X56.4Y-0.9
X56.4Y-2.7
X56.4Y-4.4
X62.1Y105.1
X62.1Y103.4
X62.1Y101.7
X62.1Y99.5
X62.1Y97.8
X62.1Y96.1
X62.1Y94.
X62.1Y92.2
X62.1Y90.5
X62.1Y88.3
X62.1Y86.6
X62.1Y84.9
X62.1Y82.7
X62.1Y81.
X62.1Y79.3
X62.1Y77.1
X62.1Y75.4
X62.1Y73.7
X62.1Y71.5
X62.1Y69.8
X62.1Y68.1
X62.1Y65.9
X62.1Y64.2
X62.1Y62.5
X62.1Y60.3
X62.1Y58.6
X62.1Y56.9
X62.1Y54.7
X62.1Y53.
X62.1Y51.3
X62.1Y49.1
X62.1Y47.4
X62.1Y45.7
X62.1Y43.5
X62.1Y41.8
X62.1Y40.1
X62.1Y27.1
X62.1Y25.3
X62.1Y23.6
X62.1Y21.5
X62.1Y19.7
X62.1Y18.
X62.1Y15.9
X62.1Y14.1
X62.1Y12.4
X62.1Y10.3
X62.1Y8.5
X62.1Y6.8
X62.1Y4.7
X62.1Y2.9
X62.1Y1.2
X62.1Y-0.9
X62.1Y-2.7
X62.1Y-4.4
T3
X28.4Y34.
X-60.Y66.
X-60.Y55.
X28.4Y24.5
T0
M30
