G04 #@! TF.GenerationSoftware,KiCad,Pcbnew,(5.0.0)*
G04 #@! TF.CreationDate,2019-06-04T18:43:43-07:00*
G04 #@! TF.ProjectId,SSB Cap Board - Rev2,5353422043617020426F617264202D20,rev?*
G04 #@! TF.SameCoordinates,Original*
G04 #@! TF.FileFunction,Soldermask,Top*
G04 #@! TF.FilePolarity,Negative*
%FSLAX46Y46*%
G04 Gerber Fmt 4.6, Leading zero omitted, Abs format (unit mm)*
G04 Created by KiCad (PCBNEW (5.0.0)) date 06/04/19 18:43:43*
%MOMM*%
%LPD*%
G01*
G04 APERTURE LIST*
%ADD10C,2.540000*%
%ADD11R,1.650000X5.400000*%
%ADD12C,6.800000*%
%ADD13C,1.200000*%
G04 APERTURE END LIST*
D10*
G04 #@! TO.C,REF\002A\002A*
X59300000Y33800000D03*
G04 #@! TD*
G04 #@! TO.C,REF\002A\002A*
X13200000Y-3800000D03*
G04 #@! TD*
D11*
G04 #@! TO.C,C578*
X62105000Y8505000D03*
X56405000Y8505000D03*
G04 #@! TD*
G04 #@! TO.C,C576*
X62105000Y-2695000D03*
X56405000Y-2695000D03*
G04 #@! TD*
G04 #@! TO.C,C572*
X28095000Y86595000D03*
X22395000Y86595000D03*
G04 #@! TD*
G04 #@! TO.C,C570*
X34905000Y2905000D03*
X29205000Y2905000D03*
G04 #@! TD*
G04 #@! TO.C,C568*
X62105000Y14105000D03*
X56405000Y14105000D03*
G04 #@! TD*
G04 #@! TO.C,C566*
X22395000Y14095000D03*
X28095000Y14095000D03*
G04 #@! TD*
G04 #@! TO.C,C573*
X62105000Y53005000D03*
X56405000Y53005000D03*
G04 #@! TD*
G04 #@! TO.C,C597*
X34905000Y8505000D03*
X29205000Y8505000D03*
G04 #@! TD*
G04 #@! TO.C,C596*
X22395000Y103395000D03*
X28095000Y103395000D03*
G04 #@! TD*
G04 #@! TO.C,C595*
X62105000Y19705000D03*
X56405000Y19705000D03*
G04 #@! TD*
G04 #@! TO.C,C593*
X34905000Y14105000D03*
X29205000Y14105000D03*
G04 #@! TD*
G04 #@! TO.C,C588*
X49595000Y92195000D03*
X55295000Y92195000D03*
G04 #@! TD*
G04 #@! TO.C,C585*
X28095000Y-2705000D03*
X22395000Y-2705000D03*
G04 #@! TD*
G04 #@! TO.C,C584*
X62105000Y25305000D03*
X56405000Y25305000D03*
G04 #@! TD*
G04 #@! TO.C,C591*
X35995000Y25295000D03*
X41695000Y25295000D03*
G04 #@! TD*
G04 #@! TO.C,C590*
X62105000Y64205000D03*
X56405000Y64205000D03*
G04 #@! TD*
G04 #@! TO.C,C592*
X41695000Y14095000D03*
X35995000Y14095000D03*
G04 #@! TD*
G04 #@! TO.C,C599*
X34905000Y97805000D03*
X29205000Y97805000D03*
G04 #@! TD*
G04 #@! TO.C,C292*
X11795000Y3095000D03*
X6095000Y3095000D03*
G04 #@! TD*
G04 #@! TO.C,C504*
X22395000Y97795000D03*
X28095000Y97795000D03*
G04 #@! TD*
G04 #@! TO.C,C494*
X22395000Y80995000D03*
X28095000Y80995000D03*
G04 #@! TD*
G04 #@! TO.C,C456*
X56405000Y58605000D03*
X62105000Y58605000D03*
G04 #@! TD*
G04 #@! TO.C,C462*
X28095000Y8495000D03*
X22395000Y8495000D03*
G04 #@! TD*
G04 #@! TO.C,C517*
X28095000Y2895000D03*
X22395000Y2895000D03*
G04 #@! TD*
G04 #@! TO.C,C477*
X56405000Y2905000D03*
X62105000Y2905000D03*
G04 #@! TD*
G04 #@! TO.C,C471*
X22395000Y92195000D03*
X28095000Y92195000D03*
G04 #@! TD*
G04 #@! TO.C,C479*
X29205000Y-2695000D03*
X34905000Y-2695000D03*
G04 #@! TD*
G04 #@! TO.C,C542*
X42805000Y69805000D03*
X48505000Y69805000D03*
G04 #@! TD*
G04 #@! TO.C,C540*
X22395000Y64195000D03*
X28095000Y64195000D03*
G04 #@! TD*
G04 #@! TO.C,C537*
X49595000Y25295000D03*
X55295000Y25295000D03*
G04 #@! TD*
G04 #@! TO.C,C536*
X22395000Y69795000D03*
X28095000Y69795000D03*
G04 #@! TD*
G04 #@! TO.C,C534*
X56405000Y69805000D03*
X62105000Y69805000D03*
G04 #@! TD*
G04 #@! TO.C,C532*
X55295000Y80995000D03*
X49595000Y80995000D03*
G04 #@! TD*
G04 #@! TO.C,C530*
X42805000Y47405000D03*
X48505000Y47405000D03*
G04 #@! TD*
G04 #@! TO.C,C528*
X41695000Y97795000D03*
X35995000Y97795000D03*
G04 #@! TD*
G04 #@! TO.C,C527*
X35995000Y19695000D03*
X41695000Y19695000D03*
G04 #@! TD*
G04 #@! TO.C,C564*
X55295000Y19695000D03*
X49595000Y19695000D03*
G04 #@! TD*
G04 #@! TO.C,C535*
X48505000Y-2695000D03*
X42805000Y-2695000D03*
G04 #@! TD*
G04 #@! TO.C,C562*
X56405000Y75405000D03*
X62105000Y75405000D03*
G04 #@! TD*
G04 #@! TO.C,C560*
X55295000Y75395000D03*
X49595000Y75395000D03*
G04 #@! TD*
G04 #@! TO.C,C558*
X42805000Y53005000D03*
X48505000Y53005000D03*
G04 #@! TD*
G04 #@! TO.C,C556*
X41695000Y103395000D03*
X35995000Y103395000D03*
G04 #@! TD*
G04 #@! TO.C,C544*
X29205000Y103405000D03*
X34905000Y103405000D03*
G04 #@! TD*
G04 #@! TO.C,C553*
X49595000Y14095000D03*
X55295000Y14095000D03*
G04 #@! TD*
G04 #@! TO.C,C552*
X42805000Y2905000D03*
X48505000Y2905000D03*
G04 #@! TD*
G04 #@! TO.C,C551*
X62105000Y81005000D03*
X56405000Y81005000D03*
G04 #@! TD*
G04 #@! TO.C,C550*
X55295000Y69795000D03*
X49595000Y69795000D03*
G04 #@! TD*
G04 #@! TO.C,C548*
X42805000Y58605000D03*
X48505000Y58605000D03*
G04 #@! TD*
G04 #@! TO.C,C546*
X41695000Y92195000D03*
X35995000Y92195000D03*
G04 #@! TD*
G04 #@! TO.C,C545*
X35995000Y8495000D03*
X41695000Y8495000D03*
G04 #@! TD*
G04 #@! TO.C,C554*
X29205000Y41805000D03*
X34905000Y41805000D03*
G04 #@! TD*
G04 #@! TO.C,C432*
X49595000Y8495000D03*
X55295000Y8495000D03*
G04 #@! TD*
G04 #@! TO.C,C429*
X62105000Y86605000D03*
X56405000Y86605000D03*
G04 #@! TD*
G04 #@! TO.C,C428*
X55295000Y64195000D03*
X49595000Y64195000D03*
G04 #@! TD*
G04 #@! TO.C,C427*
X48505000Y64205000D03*
X42805000Y64205000D03*
G04 #@! TD*
G04 #@! TO.C,C425*
X35995000Y86595000D03*
X41695000Y86595000D03*
G04 #@! TD*
G04 #@! TO.C,C415*
X41695000Y2895000D03*
X35995000Y2895000D03*
G04 #@! TD*
G04 #@! TO.C,C450*
X34905000Y47405000D03*
X29205000Y47405000D03*
G04 #@! TD*
G04 #@! TO.C,C422*
X55295000Y2895000D03*
X49595000Y2895000D03*
G04 #@! TD*
G04 #@! TO.C,C413*
X48505000Y14105000D03*
X42805000Y14105000D03*
G04 #@! TD*
G04 #@! TO.C,C420*
X56405000Y92205000D03*
X62105000Y92205000D03*
G04 #@! TD*
G04 #@! TO.C,C419*
X49595000Y58595000D03*
X55295000Y58595000D03*
G04 #@! TD*
G04 #@! TO.C,C418*
X55295000Y86595000D03*
X49595000Y86595000D03*
G04 #@! TD*
G04 #@! TO.C,C417*
X35995000Y80995000D03*
X41695000Y80995000D03*
G04 #@! TD*
G04 #@! TO.C,C416*
X41695000Y-2705000D03*
X35995000Y-2705000D03*
G04 #@! TD*
G04 #@! TO.C,C424*
X34905000Y53005000D03*
X29205000Y53005000D03*
G04 #@! TD*
G04 #@! TO.C,C423*
X55295000Y-2705000D03*
X49595000Y-2705000D03*
G04 #@! TD*
G04 #@! TO.C,C421*
X48505000Y19705000D03*
X42805000Y19705000D03*
G04 #@! TD*
G04 #@! TO.C,C447*
X56405000Y97805000D03*
X62105000Y97805000D03*
G04 #@! TD*
G04 #@! TO.C,C446*
X49595000Y52995000D03*
X55295000Y52995000D03*
G04 #@! TD*
G04 #@! TO.C,C445*
X42805000Y75405000D03*
X48505000Y75405000D03*
G04 #@! TD*
G04 #@! TO.C,C444*
X35995000Y75395000D03*
X41695000Y75395000D03*
G04 #@! TD*
G04 #@! TO.C,C433*
X29205000Y58605000D03*
X34905000Y58605000D03*
G04 #@! TD*
G04 #@! TO.C,C442*
X28095000Y75395000D03*
X22395000Y75395000D03*
G04 #@! TD*
G04 #@! TO.C,C555*
X56405000Y103405000D03*
X62105000Y103405000D03*
G04 #@! TD*
G04 #@! TO.C,C430*
X49595000Y97795000D03*
X55295000Y97795000D03*
G04 #@! TD*
G04 #@! TO.C,C439*
X55295000Y47395000D03*
X49595000Y47395000D03*
G04 #@! TD*
G04 #@! TO.C,C438*
X48505000Y81005000D03*
X42805000Y81005000D03*
G04 #@! TD*
G04 #@! TO.C,C437*
X41695000Y69795000D03*
X35995000Y69795000D03*
G04 #@! TD*
G04 #@! TO.C,C436*
X34905000Y64205000D03*
X29205000Y64205000D03*
G04 #@! TD*
G04 #@! TO.C,C435*
X42805000Y25305000D03*
X48505000Y25305000D03*
G04 #@! TD*
G04 #@! TO.C,C434*
X49595000Y103395000D03*
X55295000Y103395000D03*
G04 #@! TD*
G04 #@! TO.C,C443*
X42805000Y97805000D03*
X48505000Y97805000D03*
G04 #@! TD*
G04 #@! TO.C,C441*
X48505000Y86605000D03*
X42805000Y86605000D03*
G04 #@! TD*
G04 #@! TO.C,C431*
X41695000Y64195000D03*
X35995000Y64195000D03*
G04 #@! TD*
G04 #@! TO.C,C440*
X34905000Y69805000D03*
X29205000Y69805000D03*
G04 #@! TD*
G04 #@! TO.C,C451*
X56405000Y47405000D03*
X62105000Y47405000D03*
G04 #@! TD*
G04 #@! TO.C,C448*
X48505000Y92205000D03*
X42805000Y92205000D03*
G04 #@! TD*
G04 #@! TO.C,C411*
X56405000Y41805000D03*
X62105000Y41805000D03*
G04 #@! TD*
G04 #@! TO.C,C410*
X35995000Y58595000D03*
X41695000Y58595000D03*
G04 #@! TD*
G04 #@! TO.C,C409*
X29205000Y75405000D03*
X34905000Y75405000D03*
G04 #@! TD*
G04 #@! TO.C,C408*
X48505000Y103405000D03*
X42805000Y103405000D03*
G04 #@! TD*
G04 #@! TO.C,C407*
X55295000Y41795000D03*
X49595000Y41795000D03*
G04 #@! TD*
G04 #@! TO.C,C406*
X35995000Y52995000D03*
X41695000Y52995000D03*
G04 #@! TD*
G04 #@! TO.C,C404*
X29205000Y81005000D03*
X34905000Y81005000D03*
G04 #@! TD*
G04 #@! TO.C,C403*
X48505000Y41805000D03*
X42805000Y41805000D03*
G04 #@! TD*
G04 #@! TO.C,C402*
X41695000Y47395000D03*
X35995000Y47395000D03*
G04 #@! TD*
G04 #@! TO.C,C401*
X34905000Y86605000D03*
X29205000Y86605000D03*
G04 #@! TD*
G04 #@! TO.C,C414*
X41695000Y41795000D03*
X35995000Y41795000D03*
G04 #@! TD*
G04 #@! TO.C,C412*
X34905000Y92205000D03*
X29205000Y92205000D03*
G04 #@! TD*
G04 #@! TO.C,C405*
X42805000Y8505000D03*
X48505000Y8505000D03*
G04 #@! TD*
G04 #@! TO.C,C291*
X6095000Y8695000D03*
X11795000Y8695000D03*
G04 #@! TD*
G04 #@! TO.C,C237*
X11795000Y14295000D03*
X6095000Y14295000D03*
G04 #@! TD*
G04 #@! TO.C,C52*
X-21305000Y25495000D03*
X-15605000Y25495000D03*
G04 #@! TD*
G04 #@! TO.C,C97*
X-41695000Y31105000D03*
X-35995000Y31105000D03*
G04 #@! TD*
G04 #@! TO.C,C21*
X11795000Y31095000D03*
X6095000Y31095000D03*
G04 #@! TD*
G04 #@! TO.C,C120*
X6095000Y19895000D03*
X11795000Y19895000D03*
G04 #@! TD*
G04 #@! TO.C,C394*
X11795000Y25495000D03*
X6095000Y25495000D03*
G04 #@! TD*
G04 #@! TO.C,C343*
X-48505000Y31095000D03*
X-42805000Y31095000D03*
G04 #@! TD*
G04 #@! TO.C,C358*
X-21305000Y19895000D03*
X-15605000Y19895000D03*
G04 #@! TD*
G04 #@! TO.C,C273*
X-49595000Y8705000D03*
X-55295000Y8705000D03*
G04 #@! TD*
G04 #@! TO.C,C264*
X-8795000Y3105000D03*
X-14495000Y3105000D03*
G04 #@! TD*
G04 #@! TO.C,C262*
X-62105000Y25495000D03*
X-56405000Y25495000D03*
G04 #@! TD*
G04 #@! TO.C,C261*
X-49595000Y-2495000D03*
X-55295000Y-2495000D03*
G04 #@! TD*
G04 #@! TO.C,C260*
X-34905000Y8695000D03*
X-29205000Y8695000D03*
G04 #@! TD*
G04 #@! TO.C,C259*
X-48405000Y14295000D03*
X-42705000Y14295000D03*
G04 #@! TD*
G04 #@! TO.C,C258*
X-35995000Y19905000D03*
X-41695000Y19905000D03*
G04 #@! TD*
G04 #@! TO.C,C257*
X-22395000Y-2495000D03*
X-28095000Y-2495000D03*
G04 #@! TD*
G04 #@! TO.C,C314*
X-62105000Y19895000D03*
X-56405000Y19895000D03*
G04 #@! TD*
G04 #@! TO.C,C266*
X-49595000Y3105000D03*
X-55295000Y3105000D03*
G04 #@! TD*
G04 #@! TO.C,C265*
X-34905000Y3095000D03*
X-29205000Y3095000D03*
G04 #@! TD*
G04 #@! TO.C,C311*
X-48405000Y8695000D03*
X-42705000Y8695000D03*
G04 #@! TD*
G04 #@! TO.C,C310*
X-35995000Y25505000D03*
X-41695000Y25505000D03*
G04 #@! TD*
G04 #@! TO.C,C309*
X-22395000Y3105000D03*
X-28095000Y3105000D03*
G04 #@! TD*
G04 #@! TO.C,C308*
X-62105000Y86595000D03*
X-56405000Y86595000D03*
G04 #@! TD*
G04 #@! TO.C,C304*
X-62105000Y14295000D03*
X-56405000Y14295000D03*
G04 #@! TD*
G04 #@! TO.C,C302*
X-34905000Y-2505000D03*
X-29205000Y-2505000D03*
G04 #@! TD*
G04 #@! TO.C,C301*
X-48405000Y3095000D03*
X-42705000Y3095000D03*
G04 #@! TD*
G04 #@! TO.C,C283*
X-35995000Y-2495000D03*
X-41695000Y-2495000D03*
G04 #@! TD*
G04 #@! TO.C,C282*
X-62105000Y80995000D03*
X-56405000Y80995000D03*
G04 #@! TD*
G04 #@! TO.C,C295*
X-62105000Y8695000D03*
X-56405000Y8695000D03*
G04 #@! TD*
G04 #@! TO.C,C294*
X-49595000Y14305000D03*
X-55295000Y14305000D03*
G04 #@! TD*
G04 #@! TO.C,C293*
X-22395000Y8705000D03*
X-28095000Y8705000D03*
G04 #@! TD*
G04 #@! TO.C,C289*
X-62105000Y75395000D03*
X-56405000Y75395000D03*
G04 #@! TD*
G04 #@! TO.C,C287*
X-62105000Y3095000D03*
X-56405000Y3095000D03*
G04 #@! TD*
G04 #@! TO.C,C286*
X-49595000Y19905000D03*
X-55295000Y19905000D03*
G04 #@! TD*
G04 #@! TO.C,C285*
X-22395000Y14305000D03*
X-28095000Y14305000D03*
G04 #@! TD*
G04 #@! TO.C,C299*
X-8795000Y8705000D03*
X-14495000Y8705000D03*
G04 #@! TD*
G04 #@! TO.C,C298*
X4905000Y3105000D03*
X-795000Y3105000D03*
G04 #@! TD*
G04 #@! TO.C,C281*
X-34905000Y36695000D03*
X-29205000Y36695000D03*
G04 #@! TD*
G04 #@! TO.C,C296*
X-62105000Y-2505000D03*
X-56405000Y-2505000D03*
G04 #@! TD*
G04 #@! TO.C,C377*
X-49595000Y25505000D03*
X-55295000Y25505000D03*
G04 #@! TD*
G04 #@! TO.C,C398*
X-8795000Y14305000D03*
X-14495000Y14305000D03*
G04 #@! TD*
G04 #@! TO.C,C397*
X4905000Y8705000D03*
X-795000Y8705000D03*
G04 #@! TD*
G04 #@! TO.C,C396*
X-34905000Y31095000D03*
X-29205000Y31095000D03*
G04 #@! TD*
G04 #@! TO.C,C395*
X-49595000Y31105000D03*
X-55295000Y31105000D03*
G04 #@! TD*
G04 #@! TO.C,C390*
X-21305000Y14295000D03*
X-15605000Y14295000D03*
G04 #@! TD*
G04 #@! TO.C,C389*
X-8795000Y19905000D03*
X-14495000Y19905000D03*
G04 #@! TD*
G04 #@! TO.C,C388*
X4905000Y14305000D03*
X-795000Y14305000D03*
G04 #@! TD*
G04 #@! TO.C,C387*
X-34905000Y25495000D03*
X-29205000Y25495000D03*
G04 #@! TD*
G04 #@! TO.C,C385*
X-21305000Y8695000D03*
X-15605000Y8695000D03*
G04 #@! TD*
G04 #@! TO.C,C384*
X-8795000Y25505000D03*
X-14495000Y25505000D03*
G04 #@! TD*
G04 #@! TO.C,C383*
X4905000Y19905000D03*
X-795000Y19905000D03*
G04 #@! TD*
G04 #@! TO.C,C382*
X-34905000Y19895000D03*
X-29205000Y19895000D03*
G04 #@! TD*
G04 #@! TO.C,C381*
X-21305000Y3095000D03*
X-15605000Y3095000D03*
G04 #@! TD*
G04 #@! TO.C,C380*
X-8795000Y31105000D03*
X-14495000Y31105000D03*
G04 #@! TD*
G04 #@! TO.C,C379*
X4905000Y25505000D03*
X-795000Y25505000D03*
G04 #@! TD*
G04 #@! TO.C,C378*
X-62105000Y42295000D03*
X-56405000Y42295000D03*
G04 #@! TD*
G04 #@! TO.C,C392*
X4905000Y31105000D03*
X-795000Y31105000D03*
G04 #@! TD*
G04 #@! TO.C,C93*
X-34905000Y58595000D03*
X-29205000Y58595000D03*
G04 #@! TD*
G04 #@! TO.C,C92*
X-35895000Y92205000D03*
X-41595000Y92205000D03*
G04 #@! TD*
G04 #@! TO.C,C91*
X-48505000Y42295000D03*
X-42805000Y42295000D03*
G04 #@! TD*
G04 #@! TO.C,C90*
X-49595000Y103405000D03*
X-55295000Y103405000D03*
G04 #@! TD*
G04 #@! TO.C,C89*
X-8795000Y36705000D03*
X-14495000Y36705000D03*
G04 #@! TD*
G04 #@! TO.C,C88*
X-21305000Y92195000D03*
X-15605000Y92195000D03*
G04 #@! TD*
G04 #@! TO.C,C87*
X-8795000Y58605000D03*
X-14495000Y58605000D03*
G04 #@! TD*
G04 #@! TO.C,C86*
X-1905000Y80995000D03*
X-7605000Y80995000D03*
G04 #@! TD*
G04 #@! TO.C,C85*
X4905000Y69805000D03*
X-795000Y69805000D03*
G04 #@! TD*
G04 #@! TO.C,C84*
X6095000Y69795000D03*
X11795000Y69795000D03*
G04 #@! TD*
G04 #@! TO.C,C83*
X-34905000Y64195000D03*
X-29205000Y64195000D03*
G04 #@! TD*
G04 #@! TO.C,C82*
X-35895000Y86605000D03*
X-41595000Y86605000D03*
G04 #@! TD*
G04 #@! TO.C,C81*
X-35895000Y81005000D03*
X-41595000Y81005000D03*
G04 #@! TD*
G04 #@! TO.C,C80*
X6095000Y64195000D03*
X11795000Y64195000D03*
G04 #@! TD*
G04 #@! TO.C,C251*
X-35995000Y3105000D03*
X-41695000Y3105000D03*
G04 #@! TD*
G04 #@! TO.C,C78*
X-34905000Y69795000D03*
X-29205000Y69795000D03*
G04 #@! TD*
G04 #@! TO.C,C77*
X11795000Y75395000D03*
X6095000Y75395000D03*
G04 #@! TD*
G04 #@! TO.C,C76*
X-795000Y64205000D03*
X4905000Y64205000D03*
G04 #@! TD*
G04 #@! TO.C,C75*
X-42805000Y58595000D03*
X-48505000Y58595000D03*
G04 #@! TD*
G04 #@! TO.C,C74*
X-1905000Y86595000D03*
X-7605000Y86595000D03*
G04 #@! TD*
G04 #@! TO.C,C72*
X-15605000Y97795000D03*
X-21305000Y97795000D03*
G04 #@! TD*
G04 #@! TO.C,C71*
X-1905000Y3095000D03*
X-7605000Y3095000D03*
G04 #@! TD*
G04 #@! TO.C,C70*
X-55295000Y97805000D03*
X-49595000Y97805000D03*
G04 #@! TD*
G04 #@! TO.C,C68*
X-22395000Y42305000D03*
X-28095000Y42305000D03*
G04 #@! TD*
G04 #@! TO.C,C252*
X-62105000Y36695000D03*
X-56405000Y36695000D03*
G04 #@! TD*
G04 #@! TO.C,C119*
X-56405000Y103395000D03*
X-62105000Y103395000D03*
G04 #@! TD*
G04 #@! TO.C,C118*
X-22395000Y36705000D03*
X-28095000Y36705000D03*
G04 #@! TD*
G04 #@! TO.C,C108*
X-7605000Y31095000D03*
X-1905000Y31095000D03*
G04 #@! TD*
G04 #@! TO.C,C106*
X-48505000Y103395000D03*
X-42805000Y103395000D03*
G04 #@! TD*
G04 #@! TO.C,C105*
X-62105000Y92195000D03*
X-56405000Y92195000D03*
G04 #@! TD*
G04 #@! TO.C,C96*
X-42805000Y97795000D03*
X-48505000Y97795000D03*
G04 #@! TD*
G04 #@! TO.C,C95*
X-55295000Y42305000D03*
X-49595000Y42305000D03*
G04 #@! TD*
G04 #@! TO.C,C22*
X-22395000Y19905000D03*
X-28095000Y19905000D03*
G04 #@! TD*
G04 #@! TO.C,C16*
X-22395000Y25505000D03*
X-28095000Y25505000D03*
G04 #@! TD*
G04 #@! TO.C,C62*
X-42805000Y92195000D03*
X-48505000Y92195000D03*
G04 #@! TD*
G04 #@! TO.C,C2*
X-35995000Y42305000D03*
X-41695000Y42305000D03*
G04 #@! TD*
G04 #@! TO.C,C3*
X11795000Y103395000D03*
X6095000Y103395000D03*
G04 #@! TD*
G04 #@! TO.C,C4*
X-34905000Y103395000D03*
X-29205000Y103395000D03*
G04 #@! TD*
G04 #@! TO.C,C10*
X-21305000Y-2505000D03*
X-15605000Y-2505000D03*
G04 #@! TD*
G04 #@! TO.C,C11*
X-22395000Y31105000D03*
X-28095000Y31105000D03*
G04 #@! TD*
G04 #@! TO.C,C12*
X-42805000Y86595000D03*
X-48505000Y86595000D03*
G04 #@! TD*
G04 #@! TO.C,C14*
X-29205000Y97795000D03*
X-34905000Y97795000D03*
G04 #@! TD*
G04 #@! TO.C,C15*
X-55295000Y75405000D03*
X-49595000Y75405000D03*
G04 #@! TD*
G04 #@! TO.C,C31*
X-42805000Y80995000D03*
X-48505000Y80995000D03*
G04 #@! TD*
G04 #@! TO.C,C61*
X-41695000Y58605000D03*
X-35995000Y58605000D03*
G04 #@! TD*
G04 #@! TO.C,C60*
X-29205000Y92195000D03*
X-34905000Y92195000D03*
G04 #@! TD*
G04 #@! TO.C,C59*
X11795000Y97795000D03*
X6095000Y97795000D03*
G04 #@! TD*
G04 #@! TO.C,C53*
X-1905000Y25495000D03*
X-7605000Y25495000D03*
G04 #@! TD*
G04 #@! TO.C,C51*
X-42805000Y75395000D03*
X-48505000Y75395000D03*
G04 #@! TD*
G04 #@! TO.C,C50*
X-35995000Y64205000D03*
X-41695000Y64205000D03*
G04 #@! TD*
G04 #@! TO.C,C49*
X-34905000Y86595000D03*
X-29205000Y86595000D03*
G04 #@! TD*
G04 #@! TO.C,C63*
X11795000Y92195000D03*
X6095000Y92195000D03*
G04 #@! TD*
G04 #@! TO.C,C45*
X-1905000Y103395000D03*
X-7605000Y103395000D03*
G04 #@! TD*
G04 #@! TO.C,C44*
X4905000Y42305000D03*
X-795000Y42305000D03*
G04 #@! TD*
G04 #@! TO.C,C43*
X-35995000Y36705000D03*
X-41695000Y36705000D03*
G04 #@! TD*
G04 #@! TO.C,C41*
X-14495000Y42305000D03*
X-8795000Y42305000D03*
G04 #@! TD*
G04 #@! TO.C,C40*
X-21305000Y103395000D03*
X-15605000Y103395000D03*
G04 #@! TD*
G04 #@! TO.C,C39*
X-7605000Y8695000D03*
X-1905000Y8695000D03*
G04 #@! TD*
G04 #@! TO.C,C38*
X-8795000Y69805000D03*
X-14495000Y69805000D03*
G04 #@! TD*
G04 #@! TO.C,C37*
X-7605000Y58595000D03*
X-1905000Y58595000D03*
G04 #@! TD*
G04 #@! TO.C,C36*
X-14495000Y81005000D03*
X-8795000Y81005000D03*
G04 #@! TD*
G04 #@! TO.C,C35*
X-21305000Y69795000D03*
X-15605000Y69795000D03*
G04 #@! TD*
G04 #@! TO.C,C34*
X-28095000Y69805000D03*
X-22395000Y69805000D03*
G04 #@! TD*
G04 #@! TO.C,C94*
X6095000Y42295000D03*
X11795000Y42295000D03*
G04 #@! TD*
G04 #@! TO.C,C32*
X-795000Y97805000D03*
X4905000Y97805000D03*
G04 #@! TD*
G04 #@! TO.C,C46*
X-22395000Y86605000D03*
X-28095000Y86605000D03*
G04 #@! TD*
G04 #@! TO.C,C215*
X-48405000Y-2505000D03*
X-42705000Y-2505000D03*
G04 #@! TD*
G04 #@! TO.C,C213*
X-35995000Y14305000D03*
X-41695000Y14305000D03*
G04 #@! TD*
G04 #@! TO.C,C212*
X-48505000Y19895000D03*
X-42805000Y19895000D03*
G04 #@! TD*
G04 #@! TO.C,C211*
X-34905000Y14295000D03*
X-29205000Y14295000D03*
G04 #@! TD*
G04 #@! TO.C,C209*
X-62105000Y31095000D03*
X-56405000Y31095000D03*
G04 #@! TD*
G04 #@! TO.C,C125*
X-15605000Y64195000D03*
X-21305000Y64195000D03*
G04 #@! TD*
G04 #@! TO.C,C203*
X-35995000Y8705000D03*
X-41695000Y8705000D03*
G04 #@! TD*
G04 #@! TO.C,C201*
X-48505000Y25495000D03*
X-42805000Y25495000D03*
G04 #@! TD*
G04 #@! TO.C,C200*
X-22395000Y75405000D03*
X-28095000Y75405000D03*
G04 #@! TD*
G04 #@! TO.C,C199*
X4905000Y103405000D03*
X-795000Y103405000D03*
G04 #@! TD*
G04 #@! TO.C,C198*
X-22395000Y103405000D03*
X-28095000Y103405000D03*
G04 #@! TD*
G04 #@! TO.C,C197*
X-8795000Y92205000D03*
X-14495000Y92205000D03*
G04 #@! TD*
G04 #@! TO.C,C196*
X-21305000Y58595000D03*
X-15605000Y58595000D03*
G04 #@! TD*
G04 #@! TO.C,C195*
X-22395000Y81005000D03*
X-28095000Y81005000D03*
G04 #@! TD*
G04 #@! TO.C,C194*
X-7605000Y42295000D03*
X-1905000Y42295000D03*
G04 #@! TD*
G04 #@! TO.C,C193*
X-8795000Y97805000D03*
X-14495000Y97805000D03*
G04 #@! TD*
G04 #@! TO.C,C191*
X-8795000Y86605000D03*
X-14495000Y86605000D03*
G04 #@! TD*
G04 #@! TO.C,C190*
X-7605000Y19895000D03*
X-1905000Y19895000D03*
G04 #@! TD*
G04 #@! TO.C,C126*
X-55295000Y81005000D03*
X-49595000Y81005000D03*
G04 #@! TD*
G04 #@! TO.C,C48*
X-42805000Y69795000D03*
X-48505000Y69795000D03*
G04 #@! TD*
G04 #@! TO.C,C155*
X-34905000Y80995000D03*
X-29205000Y80995000D03*
G04 #@! TD*
G04 #@! TO.C,C154*
X6095000Y86595000D03*
X11795000Y86595000D03*
G04 #@! TD*
G04 #@! TO.C,C152*
X-7605000Y97795000D03*
X-1905000Y97795000D03*
G04 #@! TD*
G04 #@! TO.C,C149*
X-49595000Y92205000D03*
X-55295000Y92205000D03*
G04 #@! TD*
G04 #@! TO.C,C148*
X-7605000Y14295000D03*
X-1905000Y14295000D03*
G04 #@! TD*
G04 #@! TO.C,C147*
X-49595000Y86605000D03*
X-55295000Y86605000D03*
G04 #@! TD*
G04 #@! TO.C,C146*
X-48505000Y64195000D03*
X-42805000Y64195000D03*
G04 #@! TD*
G04 #@! TO.C,C145*
X-35895000Y75405000D03*
X-41595000Y75405000D03*
G04 #@! TD*
G04 #@! TO.C,C144*
X-34905000Y75395000D03*
X-29205000Y75395000D03*
G04 #@! TD*
G04 #@! TO.C,C143*
X6095000Y80995000D03*
X11795000Y80995000D03*
G04 #@! TD*
G04 #@! TO.C,C142*
X4905000Y58605000D03*
X-795000Y58605000D03*
G04 #@! TD*
G04 #@! TO.C,C188*
X-7605000Y92195000D03*
X-1905000Y92195000D03*
G04 #@! TD*
G04 #@! TO.C,C140*
X4905000Y36705000D03*
X-795000Y36705000D03*
G04 #@! TD*
G04 #@! TO.C,C137*
X-795000Y86605000D03*
X4905000Y86605000D03*
G04 #@! TD*
G04 #@! TO.C,C136*
X-1905000Y64195000D03*
X-7605000Y64195000D03*
G04 #@! TD*
G04 #@! TO.C,C135*
X-14495000Y75405000D03*
X-8795000Y75405000D03*
G04 #@! TD*
G04 #@! TO.C,C134*
X-15605000Y75395000D03*
X-21305000Y75395000D03*
G04 #@! TD*
G04 #@! TO.C,C133*
X-28095000Y64205000D03*
X-22395000Y64205000D03*
G04 #@! TD*
G04 #@! TO.C,C132*
X-29205000Y42295000D03*
X-34905000Y42295000D03*
G04 #@! TD*
G04 #@! TO.C,C131*
X-21305000Y31095000D03*
X-15605000Y31095000D03*
G04 #@! TD*
G04 #@! TO.C,C189*
X-62105000Y97795000D03*
X-56405000Y97795000D03*
G04 #@! TD*
G04 #@! TO.C,C180*
X-49595000Y36705000D03*
X-55295000Y36705000D03*
G04 #@! TD*
G04 #@! TO.C,C179*
X-8795000Y103405000D03*
X-14495000Y103405000D03*
G04 #@! TD*
G04 #@! TO.C,C178*
X-7605000Y36695000D03*
X-1905000Y36695000D03*
G04 #@! TD*
G04 #@! TO.C,C177*
X-22395000Y92205000D03*
X-28095000Y92205000D03*
G04 #@! TD*
G04 #@! TO.C,C176*
X-21305000Y42295000D03*
X-15605000Y42295000D03*
G04 #@! TD*
G04 #@! TO.C,C175*
X-22395000Y97805000D03*
X-28095000Y97805000D03*
G04 #@! TD*
G04 #@! TO.C,C157*
X6095000Y36695000D03*
X11795000Y36695000D03*
G04 #@! TD*
G04 #@! TO.C,C156*
X4905000Y75405000D03*
X-795000Y75405000D03*
G04 #@! TD*
G04 #@! TO.C,C171*
X-7605000Y75395000D03*
X-1905000Y75395000D03*
G04 #@! TD*
G04 #@! TO.C,C170*
X-8795000Y64205000D03*
X-14495000Y64205000D03*
G04 #@! TD*
G04 #@! TO.C,C169*
X-21305000Y86595000D03*
X-15605000Y86595000D03*
G04 #@! TD*
G04 #@! TO.C,C168*
X-21305000Y36695000D03*
X-15605000Y36695000D03*
G04 #@! TD*
G04 #@! TO.C,C167*
X-48505000Y36695000D03*
X-42805000Y36695000D03*
G04 #@! TD*
G04 #@! TO.C,C166*
X-35895000Y97805000D03*
X-41595000Y97805000D03*
G04 #@! TD*
G04 #@! TO.C,C164*
X6095000Y58595000D03*
X11795000Y58595000D03*
G04 #@! TD*
G04 #@! TO.C,C163*
X-795000Y81005000D03*
X4905000Y81005000D03*
G04 #@! TD*
G04 #@! TO.C,C162*
X-7605000Y69795000D03*
X-1905000Y69795000D03*
G04 #@! TD*
G04 #@! TO.C,C161*
X4905000Y92205000D03*
X-795000Y92205000D03*
G04 #@! TD*
G04 #@! TO.C,C160*
X-21305000Y80995000D03*
X-15605000Y80995000D03*
G04 #@! TD*
G04 #@! TO.C,C174*
X-22395000Y58605000D03*
X-28095000Y58605000D03*
G04 #@! TD*
G04 #@! TO.C,C172*
X-35895000Y103405000D03*
X-41595000Y103405000D03*
G04 #@! TD*
G04 #@! TO.C,C158*
X-35995000Y69805000D03*
X-41695000Y69805000D03*
G04 #@! TD*
D12*
G04 #@! TO.C,TP3*
X28400000Y34000000D03*
D13*
X30800000Y34000000D03*
X30097056Y32302944D03*
X28400000Y31600000D03*
X26702944Y32302944D03*
X26000000Y34000000D03*
X26702944Y35697056D03*
X28400000Y36400000D03*
X30097056Y35697056D03*
G04 #@! TD*
D12*
G04 #@! TO.C,TP4*
X28400000Y24500000D03*
D13*
X30800000Y24500000D03*
X30097056Y22802944D03*
X28400000Y22100000D03*
X26702944Y22802944D03*
X26000000Y24500000D03*
X26702944Y26197056D03*
X28400000Y26900000D03*
X30097056Y26197056D03*
G04 #@! TD*
D12*
G04 #@! TO.C,TP1*
X-60000000Y55000000D03*
D13*
X-57600000Y55000000D03*
X-58302944Y53302944D03*
X-60000000Y52600000D03*
X-61697056Y53302944D03*
X-62400000Y55000000D03*
X-61697056Y56697056D03*
X-60000000Y57400000D03*
X-58302944Y56697056D03*
G04 #@! TD*
D12*
G04 #@! TO.C,TP2*
X-60000000Y66000000D03*
D13*
X-57600000Y66000000D03*
X-58302944Y64302944D03*
X-60000000Y63600000D03*
X-61697056Y64302944D03*
X-62400000Y66000000D03*
X-61697056Y67697056D03*
X-60000000Y68400000D03*
X-58302944Y67697056D03*
G04 #@! TD*
D10*
G04 #@! TO.C,REF\002A\002A*
X15800000Y104500000D03*
G04 #@! TD*
M02*
