G04 #@! TF.GenerationSoftware,KiCad,Pcbnew,(5.0.0)*
G04 #@! TF.CreationDate,2019-06-04T18:43:43-07:00*
G04 #@! TF.ProjectId,SSB Cap Board - Rev2,5353422043617020426F617264202D20,rev?*
G04 #@! TF.SameCoordinates,Original*
G04 #@! TF.FileFunction,Soldermask,Bot*
G04 #@! TF.FilePolarity,Negative*
%FSLAX46Y46*%
G04 Gerber Fmt 4.6, Leading zero omitted, Abs format (unit mm)*
G04 Created by KiCad (PCBNEW (5.0.0)) date 06/04/19 18:43:43*
%MOMM*%
%LPD*%
G01*
G04 APERTURE LIST*
%ADD10C,2.540000*%
%ADD11R,1.650000X5.400000*%
%ADD12C,6.800000*%
%ADD13C,1.200000*%
G04 APERTURE END LIST*
D10*
G04 #@! TO.C,REF\002A\002A*
X63500000Y33800000D03*
G04 #@! TD*
G04 #@! TO.C,REF\002A\002A*
X13200000Y-3800000D03*
G04 #@! TD*
G04 #@! TO.C,REF\002A\002A*
X15800000Y104500000D03*
G04 #@! TD*
D11*
G04 #@! TO.C,C579*
X28095000Y75405000D03*
X22395000Y75405000D03*
G04 #@! TD*
G04 #@! TO.C,C577*
X28095000Y86605000D03*
X22395000Y86605000D03*
G04 #@! TD*
G04 #@! TO.C,C575*
X41695000Y92205000D03*
X35995000Y92205000D03*
G04 #@! TD*
G04 #@! TO.C,C574*
X48505000Y75395000D03*
X42805000Y75395000D03*
G04 #@! TD*
G04 #@! TO.C,C600*
X56405000Y75395000D03*
X62105000Y75395000D03*
G04 #@! TD*
G04 #@! TO.C,C569*
X28095000Y81005000D03*
X22395000Y81005000D03*
G04 #@! TD*
G04 #@! TO.C,C567*
X28095000Y92205000D03*
X22395000Y92205000D03*
G04 #@! TD*
G04 #@! TO.C,C571*
X62105000Y69795000D03*
X56405000Y69795000D03*
G04 #@! TD*
G04 #@! TO.C,C598*
X41695000Y25305000D03*
X35995000Y25305000D03*
G04 #@! TD*
G04 #@! TO.C,C594*
X28095000Y97805000D03*
X22395000Y97805000D03*
G04 #@! TD*
G04 #@! TO.C,C582*
X41695000Y103405000D03*
X35995000Y103405000D03*
G04 #@! TD*
G04 #@! TO.C,C580*
X62105000Y92195000D03*
X56405000Y92195000D03*
G04 #@! TD*
G04 #@! TO.C,C589*
X42805000Y64195000D03*
X48505000Y64195000D03*
G04 #@! TD*
G04 #@! TO.C,C587*
X56405000Y64195000D03*
X62105000Y64195000D03*
G04 #@! TD*
G04 #@! TO.C,C586*
X49595000Y47405000D03*
X55295000Y47405000D03*
G04 #@! TD*
G04 #@! TO.C,C583*
X28095000Y103405000D03*
X22395000Y103405000D03*
G04 #@! TD*
G04 #@! TO.C,C581*
X29205000Y52995000D03*
X34905000Y52995000D03*
G04 #@! TD*
G04 #@! TO.C,C505*
X48505000Y19695000D03*
X42805000Y19695000D03*
G04 #@! TD*
G04 #@! TO.C,C503*
X22395000Y14105000D03*
X28095000Y14105000D03*
G04 #@! TD*
G04 #@! TO.C,C502*
X56405000Y103395000D03*
X62105000Y103395000D03*
G04 #@! TD*
G04 #@! TO.C,C501*
X34905000Y103395000D03*
X29205000Y103395000D03*
G04 #@! TD*
G04 #@! TO.C,C500*
X56405000Y25295000D03*
X62105000Y25295000D03*
G04 #@! TD*
G04 #@! TO.C,C498*
X49595000Y-2695000D03*
X55295000Y-2695000D03*
G04 #@! TD*
G04 #@! TO.C,C452*
X42805000Y14095000D03*
X48505000Y14095000D03*
G04 #@! TD*
G04 #@! TO.C,C449*
X35995000Y53005000D03*
X41695000Y53005000D03*
G04 #@! TD*
G04 #@! TO.C,C496*
X28095000Y64205000D03*
X22395000Y64205000D03*
G04 #@! TD*
G04 #@! TO.C,C495*
X34905000Y2895000D03*
X29205000Y2895000D03*
G04 #@! TD*
G04 #@! TO.C,C493*
X34905000Y97795000D03*
X29205000Y97795000D03*
G04 #@! TD*
G04 #@! TO.C,C492*
X56405000Y19695000D03*
X62105000Y19695000D03*
G04 #@! TD*
G04 #@! TO.C,C491*
X49595000Y2905000D03*
X55295000Y2905000D03*
G04 #@! TD*
G04 #@! TO.C,C490*
X42805000Y8495000D03*
X48505000Y8495000D03*
G04 #@! TD*
G04 #@! TO.C,C499*
X35995000Y58605000D03*
X41695000Y58605000D03*
G04 #@! TD*
G04 #@! TO.C,C497*
X28095000Y-2695000D03*
X22395000Y-2695000D03*
G04 #@! TD*
G04 #@! TO.C,C524*
X35995000Y47405000D03*
X41695000Y47405000D03*
G04 #@! TD*
G04 #@! TO.C,C523*
X29205000Y-2705000D03*
X34905000Y-2705000D03*
G04 #@! TD*
G04 #@! TO.C,C522*
X49595000Y81005000D03*
X55295000Y81005000D03*
G04 #@! TD*
G04 #@! TO.C,C521*
X29205000Y92195000D03*
X34905000Y92195000D03*
G04 #@! TD*
G04 #@! TO.C,C520*
X62105000Y14095000D03*
X56405000Y14095000D03*
G04 #@! TD*
G04 #@! TO.C,C519*
X55295000Y8505000D03*
X49595000Y8505000D03*
G04 #@! TD*
G04 #@! TO.C,C518*
X48505000Y2895000D03*
X42805000Y2895000D03*
G04 #@! TD*
G04 #@! TO.C,C480*
X41695000Y64205000D03*
X35995000Y64205000D03*
G04 #@! TD*
G04 #@! TO.C,C506*
X22395000Y2905000D03*
X28095000Y2905000D03*
G04 #@! TD*
G04 #@! TO.C,C515*
X42805000Y103395000D03*
X48505000Y103395000D03*
G04 #@! TD*
G04 #@! TO.C,C514*
X35995000Y-2695000D03*
X41695000Y-2695000D03*
G04 #@! TD*
G04 #@! TO.C,C513*
X56405000Y41795000D03*
X62105000Y41795000D03*
G04 #@! TD*
G04 #@! TO.C,C512*
X49595000Y86605000D03*
X55295000Y86605000D03*
G04 #@! TD*
G04 #@! TO.C,C511*
X29205000Y86595000D03*
X34905000Y86595000D03*
G04 #@! TD*
G04 #@! TO.C,C510*
X62105000Y8495000D03*
X56405000Y8495000D03*
G04 #@! TD*
G04 #@! TO.C,C509*
X55295000Y14105000D03*
X49595000Y14105000D03*
G04 #@! TD*
G04 #@! TO.C,C507*
X48505000Y-2705000D03*
X42805000Y-2705000D03*
G04 #@! TD*
G04 #@! TO.C,C516*
X41695000Y69805000D03*
X35995000Y69805000D03*
G04 #@! TD*
G04 #@! TO.C,C469*
X22395000Y8505000D03*
X28095000Y8505000D03*
G04 #@! TD*
G04 #@! TO.C,C468*
X42805000Y97795000D03*
X48505000Y97795000D03*
G04 #@! TD*
G04 #@! TO.C,C467*
X35995000Y2905000D03*
X41695000Y2905000D03*
G04 #@! TD*
G04 #@! TO.C,C466*
X55295000Y41805000D03*
X49595000Y41805000D03*
G04 #@! TD*
G04 #@! TO.C,C465*
X49595000Y92205000D03*
X55295000Y92205000D03*
G04 #@! TD*
G04 #@! TO.C,C464*
X42805000Y41795000D03*
X48505000Y41795000D03*
G04 #@! TD*
G04 #@! TO.C,C463*
X34905000Y80995000D03*
X29205000Y80995000D03*
G04 #@! TD*
G04 #@! TO.C,C461*
X56405000Y2895000D03*
X62105000Y2895000D03*
G04 #@! TD*
G04 #@! TO.C,C488*
X49595000Y19705000D03*
X55295000Y19705000D03*
G04 #@! TD*
G04 #@! TO.C,C460*
X41695000Y75405000D03*
X35995000Y75405000D03*
G04 #@! TD*
G04 #@! TO.C,C459*
X34905000Y8495000D03*
X29205000Y8495000D03*
G04 #@! TD*
G04 #@! TO.C,C458*
X42805000Y92195000D03*
X48505000Y92195000D03*
G04 #@! TD*
G04 #@! TO.C,C457*
X35995000Y8505000D03*
X41695000Y8505000D03*
G04 #@! TD*
G04 #@! TO.C,C455*
X49595000Y97805000D03*
X55295000Y97805000D03*
G04 #@! TD*
G04 #@! TO.C,C454*
X41695000Y41805000D03*
X35995000Y41805000D03*
G04 #@! TD*
G04 #@! TO.C,C453*
X34905000Y75395000D03*
X29205000Y75395000D03*
G04 #@! TD*
G04 #@! TO.C,C489*
X35995000Y19705000D03*
X41695000Y19705000D03*
G04 #@! TD*
G04 #@! TO.C,C487*
X55295000Y25305000D03*
X49595000Y25305000D03*
G04 #@! TD*
G04 #@! TO.C,C486*
X35995000Y81005000D03*
X41695000Y81005000D03*
G04 #@! TD*
G04 #@! TO.C,C485*
X42805000Y86595000D03*
X48505000Y86595000D03*
G04 #@! TD*
G04 #@! TO.C,C484*
X35995000Y14105000D03*
X41695000Y14105000D03*
G04 #@! TD*
G04 #@! TO.C,C483*
X56405000Y86595000D03*
X62105000Y86595000D03*
G04 #@! TD*
G04 #@! TO.C,C482*
X49595000Y103405000D03*
X55295000Y103405000D03*
G04 #@! TD*
G04 #@! TO.C,C481*
X56405000Y97795000D03*
X62105000Y97795000D03*
G04 #@! TD*
G04 #@! TO.C,C508*
X34905000Y69795000D03*
X29205000Y69795000D03*
G04 #@! TD*
G04 #@! TO.C,C478*
X22395000Y69805000D03*
X28095000Y69805000D03*
G04 #@! TD*
G04 #@! TO.C,C476*
X48505000Y25295000D03*
X42805000Y25295000D03*
G04 #@! TD*
G04 #@! TO.C,C475*
X41695000Y86605000D03*
X35995000Y86605000D03*
G04 #@! TD*
G04 #@! TO.C,C474*
X48505000Y80995000D03*
X42805000Y80995000D03*
G04 #@! TD*
G04 #@! TO.C,C473*
X56405000Y80995000D03*
X62105000Y80995000D03*
G04 #@! TD*
G04 #@! TO.C,C472*
X62105000Y-2705000D03*
X56405000Y-2705000D03*
G04 #@! TD*
G04 #@! TO.C,C470*
X34905000Y64195000D03*
X29205000Y64195000D03*
G04 #@! TD*
G04 #@! TO.C,C525*
X34905000Y58595000D03*
X29205000Y58595000D03*
G04 #@! TD*
G04 #@! TO.C,C565*
X35995000Y97805000D03*
X41695000Y97805000D03*
G04 #@! TD*
G04 #@! TO.C,C526*
X48505000Y69795000D03*
X42805000Y69795000D03*
G04 #@! TD*
G04 #@! TO.C,C543*
X48505000Y58595000D03*
X42805000Y58595000D03*
G04 #@! TD*
G04 #@! TO.C,C541*
X62105000Y58595000D03*
X56405000Y58595000D03*
G04 #@! TD*
G04 #@! TO.C,C539*
X49595000Y53005000D03*
X55295000Y53005000D03*
G04 #@! TD*
G04 #@! TO.C,C538*
X29205000Y14095000D03*
X34905000Y14095000D03*
G04 #@! TD*
G04 #@! TO.C,C563*
X34905000Y47395000D03*
X29205000Y47395000D03*
G04 #@! TD*
G04 #@! TO.C,C533*
X48505000Y52995000D03*
X42805000Y52995000D03*
G04 #@! TD*
G04 #@! TO.C,C531*
X62105000Y52995000D03*
X56405000Y52995000D03*
G04 #@! TD*
G04 #@! TO.C,C529*
X49595000Y58605000D03*
X55295000Y58605000D03*
G04 #@! TD*
G04 #@! TO.C,C561*
X48505000Y47395000D03*
X42805000Y47395000D03*
G04 #@! TD*
G04 #@! TO.C,C559*
X62105000Y47395000D03*
X56405000Y47395000D03*
G04 #@! TD*
G04 #@! TO.C,C557*
X49595000Y64205000D03*
X55295000Y64205000D03*
G04 #@! TD*
G04 #@! TO.C,C549*
X34905000Y41795000D03*
X29205000Y41795000D03*
G04 #@! TD*
G04 #@! TO.C,C547*
X49595000Y69805000D03*
X55295000Y69805000D03*
G04 #@! TD*
G04 #@! TO.C,C426*
X55295000Y75405000D03*
X49595000Y75405000D03*
G04 #@! TD*
G04 #@! TO.C,C173*
X-56405000Y31105000D03*
X-62105000Y31105000D03*
G04 #@! TD*
G04 #@! TO.C,C300*
X-22395000Y80995000D03*
X-28095000Y80995000D03*
G04 #@! TD*
G04 #@! TO.C,C242*
X-22395000Y86595000D03*
X-28095000Y86595000D03*
G04 #@! TD*
G04 #@! TO.C,C239*
X-28095000Y58595000D03*
X-22395000Y58595000D03*
G04 #@! TD*
G04 #@! TO.C,C232*
X-28095000Y92195000D03*
X-22395000Y92195000D03*
G04 #@! TD*
G04 #@! TO.C,C250*
X-22395000Y64195000D03*
X-28095000Y64195000D03*
G04 #@! TD*
G04 #@! TO.C,C255*
X-28095000Y42295000D03*
X-22395000Y42295000D03*
G04 #@! TD*
G04 #@! TO.C,C64*
X-62105000Y25505000D03*
X-56405000Y25505000D03*
G04 #@! TD*
G04 #@! TO.C,C5*
X11805000Y25505000D03*
X6105000Y25505000D03*
G04 #@! TD*
G04 #@! TO.C,C23*
X11795000Y19905000D03*
X6095000Y19905000D03*
G04 #@! TD*
G04 #@! TO.C,C129*
X11795000Y14305000D03*
X6095000Y14305000D03*
G04 #@! TD*
G04 #@! TO.C,C307*
X-22395000Y75395000D03*
X-28095000Y75395000D03*
G04 #@! TD*
G04 #@! TO.C,C303*
X6095000Y31105000D03*
X11795000Y31105000D03*
G04 #@! TD*
G04 #@! TO.C,C337*
X-14495000Y36695000D03*
X-8795000Y36695000D03*
G04 #@! TD*
G04 #@! TO.C,C326*
X-22395000Y103395000D03*
X-28095000Y103395000D03*
G04 #@! TD*
G04 #@! TO.C,C323*
X-28095000Y69795000D03*
X-22395000Y69795000D03*
G04 #@! TD*
G04 #@! TO.C,C391*
X-28095000Y97795000D03*
X-22395000Y97795000D03*
G04 #@! TD*
G04 #@! TO.C,C342*
X-35995000Y-2505000D03*
X-41695000Y-2505000D03*
G04 #@! TD*
G04 #@! TO.C,C341*
X-48580365Y-2495000D03*
X-42880365Y-2495000D03*
G04 #@! TD*
G04 #@! TO.C,C340*
X-22395000Y3095000D03*
X-28095000Y3095000D03*
G04 #@! TD*
G04 #@! TO.C,C339*
X-21305000Y-2495000D03*
X-15605000Y-2495000D03*
G04 #@! TD*
G04 #@! TO.C,C338*
X-62105000Y36705000D03*
X-56405000Y36705000D03*
G04 #@! TD*
G04 #@! TO.C,C336*
X-34905000Y-2495000D03*
X-29205000Y-2495000D03*
G04 #@! TD*
G04 #@! TO.C,C335*
X-49595000Y25595000D03*
X-55295000Y25595000D03*
G04 #@! TD*
G04 #@! TO.C,C334*
X-48505000Y3105000D03*
X-42805000Y3105000D03*
G04 #@! TD*
G04 #@! TO.C,C333*
X-48505000Y31105000D03*
X-42805000Y31105000D03*
G04 #@! TD*
G04 #@! TO.C,C332*
X-22395000Y-2505000D03*
X-28095000Y-2505000D03*
G04 #@! TD*
G04 #@! TO.C,C376*
X-21305000Y3105000D03*
X-15605000Y3105000D03*
G04 #@! TD*
G04 #@! TO.C,C328*
X-62105000Y42305000D03*
X-56405000Y42305000D03*
G04 #@! TD*
G04 #@! TO.C,C327*
X-49595000Y97795000D03*
X-55295000Y97795000D03*
G04 #@! TD*
G04 #@! TO.C,C325*
X-49595000Y19995000D03*
X-55295000Y19995000D03*
G04 #@! TD*
G04 #@! TO.C,C324*
X-48505000Y8705000D03*
X-42805000Y8705000D03*
G04 #@! TD*
G04 #@! TO.C,C322*
X-49595000Y-2505000D03*
X-55295000Y-2505000D03*
G04 #@! TD*
G04 #@! TO.C,C321*
X-21305000Y8705000D03*
X-15605000Y8705000D03*
G04 #@! TD*
G04 #@! TO.C,C320*
X-34905000Y19905000D03*
X-29205000Y19905000D03*
G04 #@! TD*
G04 #@! TO.C,C319*
X-49595000Y92195000D03*
X-55295000Y92195000D03*
G04 #@! TD*
G04 #@! TO.C,C318*
X-7605000Y42305000D03*
X-1905000Y42305000D03*
G04 #@! TD*
G04 #@! TO.C,C317*
X-34905000Y8705000D03*
X-29205000Y8705000D03*
G04 #@! TD*
G04 #@! TO.C,C316*
X-49595000Y14395000D03*
X-55295000Y14395000D03*
G04 #@! TD*
G04 #@! TO.C,C331*
X-48505000Y14305000D03*
X-42805000Y14305000D03*
G04 #@! TD*
G04 #@! TO.C,C330*
X-35995000Y25495000D03*
X-41695000Y25495000D03*
G04 #@! TD*
G04 #@! TO.C,C329*
X-7605000Y3105000D03*
X-1905000Y3105000D03*
G04 #@! TD*
G04 #@! TO.C,C374*
X-21305000Y14305000D03*
X-15605000Y14305000D03*
G04 #@! TD*
G04 #@! TO.C,C373*
X-34905000Y25505000D03*
X-29205000Y25505000D03*
G04 #@! TD*
G04 #@! TO.C,C372*
X-49595000Y86595000D03*
X-55295000Y86595000D03*
G04 #@! TD*
G04 #@! TO.C,C371*
X4905000Y92195000D03*
X-795000Y92195000D03*
G04 #@! TD*
G04 #@! TO.C,C370*
X-49595000Y3095000D03*
X-55295000Y3095000D03*
G04 #@! TD*
G04 #@! TO.C,C369*
X6095000Y36705000D03*
X11795000Y36705000D03*
G04 #@! TD*
G04 #@! TO.C,C368*
X-8795000Y103395000D03*
X-14495000Y103395000D03*
G04 #@! TD*
G04 #@! TO.C,C367*
X-49595000Y8795000D03*
X-55295000Y8795000D03*
G04 #@! TD*
G04 #@! TO.C,C366*
X-48505000Y19905000D03*
X-42805000Y19905000D03*
G04 #@! TD*
G04 #@! TO.C,C365*
X-35995000Y19895000D03*
X-41695000Y19895000D03*
G04 #@! TD*
G04 #@! TO.C,C364*
X-7605000Y8705000D03*
X-1905000Y8705000D03*
G04 #@! TD*
G04 #@! TO.C,C363*
X-21305000Y19905000D03*
X-15605000Y19905000D03*
G04 #@! TD*
G04 #@! TO.C,C346*
X-34905000Y31105000D03*
X-29205000Y31105000D03*
G04 #@! TD*
G04 #@! TO.C,C344*
X-49595000Y80995000D03*
X-55295000Y80995000D03*
G04 #@! TD*
G04 #@! TO.C,C359*
X4905000Y86595000D03*
X-795000Y86595000D03*
G04 #@! TD*
G04 #@! TO.C,C357*
X-8795000Y97795000D03*
X-14495000Y97795000D03*
G04 #@! TD*
G04 #@! TO.C,C356*
X-34905000Y14305000D03*
X-29205000Y14305000D03*
G04 #@! TD*
G04 #@! TO.C,C355*
X-62105000Y8705000D03*
X-56405000Y8705000D03*
G04 #@! TD*
G04 #@! TO.C,C354*
X-48505000Y25505000D03*
X-42805000Y25505000D03*
G04 #@! TD*
G04 #@! TO.C,C353*
X-35995000Y14295000D03*
X-41695000Y14295000D03*
G04 #@! TD*
G04 #@! TO.C,C352*
X-7605000Y14305000D03*
X-1905000Y14305000D03*
G04 #@! TD*
G04 #@! TO.C,C351*
X-21305000Y25505000D03*
X-15605000Y25505000D03*
G04 #@! TD*
G04 #@! TO.C,C350*
X-34905000Y36705000D03*
X-29205000Y36705000D03*
G04 #@! TD*
G04 #@! TO.C,C349*
X-49595000Y75395000D03*
X-55295000Y75395000D03*
G04 #@! TD*
G04 #@! TO.C,C348*
X4905000Y80995000D03*
X-795000Y80995000D03*
G04 #@! TD*
G04 #@! TO.C,C347*
X-7605000Y58605000D03*
X-1905000Y58605000D03*
G04 #@! TD*
G04 #@! TO.C,C362*
X-8795000Y92195000D03*
X-14495000Y92195000D03*
G04 #@! TD*
G04 #@! TO.C,C361*
X-7605000Y36705000D03*
X-1905000Y36705000D03*
G04 #@! TD*
G04 #@! TO.C,C360*
X-8795000Y31095000D03*
X-14495000Y31095000D03*
G04 #@! TD*
G04 #@! TO.C,C279*
X-62105000Y103405000D03*
X-56405000Y103405000D03*
G04 #@! TD*
G04 #@! TO.C,C278*
X4905000Y75395000D03*
X-795000Y75395000D03*
G04 #@! TD*
G04 #@! TO.C,C277*
X-8795000Y80995000D03*
X-14495000Y80995000D03*
G04 #@! TD*
G04 #@! TO.C,C276*
X4905000Y103395000D03*
X-795000Y103395000D03*
G04 #@! TD*
G04 #@! TO.C,C275*
X-22395000Y8695000D03*
X-28095000Y8695000D03*
G04 #@! TD*
G04 #@! TO.C,C274*
X-21305000Y42305000D03*
X-15605000Y42305000D03*
G04 #@! TD*
G04 #@! TO.C,C272*
X-22417000Y19910000D03*
X-28117000Y19910000D03*
G04 #@! TD*
G04 #@! TO.C,C271*
X4905000Y58595000D03*
X-795000Y58595000D03*
G04 #@! TD*
G04 #@! TO.C,C270*
X-7605000Y81005000D03*
X-1905000Y81005000D03*
G04 #@! TD*
G04 #@! TO.C,C269*
X-8795000Y69795000D03*
X-14495000Y69795000D03*
G04 #@! TD*
G04 #@! TO.C,C315*
X-21305000Y69805000D03*
X-15605000Y69805000D03*
G04 #@! TD*
G04 #@! TO.C,C267*
X-49595000Y103395000D03*
X-55295000Y103395000D03*
G04 #@! TD*
G04 #@! TO.C,C313*
X-8795000Y14295000D03*
X-14495000Y14295000D03*
G04 #@! TD*
G04 #@! TO.C,C312*
X-7605000Y103405000D03*
X-1905000Y103405000D03*
G04 #@! TD*
G04 #@! TO.C,C263*
X-21305000Y81005000D03*
X-15605000Y81005000D03*
G04 #@! TD*
G04 #@! TO.C,C256*
X4905000Y42295000D03*
X-795000Y42295000D03*
G04 #@! TD*
G04 #@! TO.C,C254*
X-7605000Y97805000D03*
X-1905000Y97805000D03*
G04 #@! TD*
G04 #@! TO.C,C268*
X-21305000Y86605000D03*
X-15605000Y86605000D03*
G04 #@! TD*
G04 #@! TO.C,C306*
X4905000Y36695000D03*
X-795000Y36695000D03*
G04 #@! TD*
G04 #@! TO.C,C305*
X-21305000Y92205000D03*
X-15605000Y92205000D03*
G04 #@! TD*
G04 #@! TO.C,C297*
X-8795000Y42295000D03*
X-14495000Y42295000D03*
G04 #@! TD*
G04 #@! TO.C,C280*
X-21305000Y97805000D03*
X-15605000Y97805000D03*
G04 #@! TD*
G04 #@! TO.C,C290*
X4905000Y97795000D03*
X-795000Y97795000D03*
G04 #@! TD*
G04 #@! TO.C,C288*
X-21305000Y103405000D03*
X-15605000Y103405000D03*
G04 #@! TD*
G04 #@! TO.C,C375*
X-49595000Y42295000D03*
X-55295000Y42295000D03*
G04 #@! TD*
G04 #@! TO.C,C393*
X-35995000Y103395000D03*
X-41695000Y103395000D03*
G04 #@! TD*
G04 #@! TO.C,C69*
X11795000Y86605000D03*
X6095000Y86605000D03*
G04 #@! TD*
G04 #@! TO.C,C67*
X4905000Y3095000D03*
X-795000Y3095000D03*
G04 #@! TD*
G04 #@! TO.C,C66*
X4905000Y25495000D03*
X-795000Y25495000D03*
G04 #@! TD*
G04 #@! TO.C,C79*
X-21305000Y36708105D03*
X-15605000Y36708105D03*
G04 #@! TD*
G04 #@! TO.C,C124*
X-42805000Y42305000D03*
X-48505000Y42305000D03*
G04 #@! TD*
G04 #@! TO.C,C123*
X-35995000Y92195000D03*
X-41695000Y92195000D03*
G04 #@! TD*
G04 #@! TO.C,C122*
X11795000Y42305000D03*
X6095000Y42305000D03*
G04 #@! TD*
G04 #@! TO.C,C121*
X6095000Y103415470D03*
X11795000Y103415470D03*
G04 #@! TD*
G04 #@! TO.C,C117*
X-34905000Y92205000D03*
X-29205000Y92205000D03*
G04 #@! TD*
G04 #@! TO.C,C114*
X-41695000Y86595000D03*
X-35995000Y86595000D03*
G04 #@! TD*
G04 #@! TO.C,C113*
X-56405000Y-2495000D03*
X-62105000Y-2495000D03*
G04 #@! TD*
G04 #@! TO.C,C112*
X-34905000Y81005000D03*
X-29205000Y81005000D03*
G04 #@! TD*
G04 #@! TO.C,C111*
X-42805000Y81005000D03*
X-48505000Y81005000D03*
G04 #@! TD*
G04 #@! TO.C,C159*
X-35995000Y58595000D03*
X-41695000Y58595000D03*
G04 #@! TD*
G04 #@! TO.C,C109*
X11795000Y75405000D03*
X6095000Y75405000D03*
G04 #@! TD*
G04 #@! TO.C,C107*
X4905000Y19895000D03*
X-795000Y19895000D03*
G04 #@! TD*
G04 #@! TO.C,C104*
X4905000Y8695000D03*
X-795000Y8695000D03*
G04 #@! TD*
G04 #@! TO.C,C103*
X-34905000Y103405000D03*
X-29205000Y103405000D03*
G04 #@! TD*
G04 #@! TO.C,C102*
X-34905000Y64205000D03*
X-29205000Y64205000D03*
G04 #@! TD*
G04 #@! TO.C,C101*
X-42805000Y64205000D03*
X-48505000Y64205000D03*
G04 #@! TD*
G04 #@! TO.C,C100*
X-41695000Y75395000D03*
X-35995000Y75395000D03*
G04 #@! TD*
G04 #@! TO.C,C99*
X11795000Y58605000D03*
X6095000Y58605000D03*
G04 #@! TD*
G04 #@! TO.C,C98*
X-42805000Y103405000D03*
X-48505000Y103405000D03*
G04 #@! TD*
G04 #@! TO.C,C28*
X4905000Y31095000D03*
X-795000Y31095000D03*
G04 #@! TD*
G04 #@! TO.C,C27*
X-8795000Y3095000D03*
X-14495000Y3095000D03*
G04 #@! TD*
G04 #@! TO.C,C26*
X-29205000Y42305000D03*
X-34905000Y42305000D03*
G04 #@! TD*
G04 #@! TO.C,C25*
X-48505000Y36705000D03*
X-42805000Y36705000D03*
G04 #@! TD*
G04 #@! TO.C,C24*
X-35995000Y97795000D03*
X-41695000Y97795000D03*
G04 #@! TD*
G04 #@! TO.C,C20*
X-48505000Y69805000D03*
X-42805000Y69805000D03*
G04 #@! TD*
G04 #@! TO.C,C19*
X-41695000Y69795000D03*
X-35995000Y69795000D03*
G04 #@! TD*
G04 #@! TO.C,C18*
X11795000Y64205000D03*
X6095000Y64205000D03*
G04 #@! TD*
G04 #@! TO.C,C6*
X-34905000Y75405000D03*
X-29205000Y75405000D03*
G04 #@! TD*
G04 #@! TO.C,C7*
X-42805000Y75405000D03*
X-48505000Y75405000D03*
G04 #@! TD*
G04 #@! TO.C,C8*
X-35995000Y64195000D03*
X-41695000Y64195000D03*
G04 #@! TD*
G04 #@! TO.C,C9*
X11795000Y69805000D03*
X6095000Y69805000D03*
G04 #@! TD*
G04 #@! TO.C,C17*
X-62105000Y14305000D03*
X-56405000Y14305000D03*
G04 #@! TD*
G04 #@! TO.C,C58*
X-34905000Y86605000D03*
X-29205000Y86605000D03*
G04 #@! TD*
G04 #@! TO.C,C57*
X-35995000Y42295000D03*
X-41695000Y42295000D03*
G04 #@! TD*
G04 #@! TO.C,C56*
X-48505000Y86605000D03*
X-42805000Y86605000D03*
G04 #@! TD*
G04 #@! TO.C,C54*
X11795000Y81005000D03*
X6095000Y81005000D03*
G04 #@! TD*
G04 #@! TO.C,C30*
X-48505000Y92205000D03*
X-42805000Y92205000D03*
G04 #@! TD*
G04 #@! TO.C,C42*
X-34905000Y69805000D03*
X-29205000Y69805000D03*
G04 #@! TD*
G04 #@! TO.C,C218*
X-8795000Y58595000D03*
X-14495000Y58595000D03*
G04 #@! TD*
G04 #@! TO.C,C217*
X-7605000Y92205000D03*
X-1905000Y92205000D03*
G04 #@! TD*
G04 #@! TO.C,C216*
X-35995000Y31195000D03*
X-41695000Y31195000D03*
G04 #@! TD*
G04 #@! TO.C,C214*
X-49595000Y36695000D03*
X-55295000Y36695000D03*
G04 #@! TD*
G04 #@! TO.C,C210*
X-8795000Y8695000D03*
X-14495000Y8695000D03*
G04 #@! TD*
G04 #@! TO.C,C208*
X-21305000Y75405000D03*
X-15605000Y75405000D03*
G04 #@! TD*
G04 #@! TO.C,C207*
X-8795000Y64195000D03*
X-14495000Y64195000D03*
G04 #@! TD*
G04 #@! TO.C,C206*
X-7605000Y86605000D03*
X-1905000Y86605000D03*
G04 #@! TD*
G04 #@! TO.C,C205*
X6095000Y3105000D03*
X11795000Y3105000D03*
G04 #@! TD*
G04 #@! TO.C,C202*
X-62105000Y97805000D03*
X-56405000Y97805000D03*
G04 #@! TD*
G04 #@! TO.C,C204*
X-8795000Y19895000D03*
X-14495000Y19895000D03*
G04 #@! TD*
G04 #@! TO.C,C249*
X-21305000Y64205000D03*
X-15605000Y64205000D03*
G04 #@! TD*
G04 #@! TO.C,C248*
X-8795000Y75395000D03*
X-14495000Y75395000D03*
G04 #@! TD*
G04 #@! TO.C,C247*
X-7605000Y75405000D03*
X-1905000Y75405000D03*
G04 #@! TD*
G04 #@! TO.C,C246*
X4905000Y64195000D03*
X-795000Y64195000D03*
G04 #@! TD*
G04 #@! TO.C,C245*
X-22417000Y25510000D03*
X-28117000Y25510000D03*
G04 #@! TD*
G04 #@! TO.C,C244*
X-62105000Y86605000D03*
X-56405000Y86605000D03*
G04 #@! TD*
G04 #@! TO.C,C243*
X-22395000Y14295000D03*
X-28095000Y14295000D03*
G04 #@! TD*
G04 #@! TO.C,C241*
X-7605000Y31105000D03*
X-1905000Y31105000D03*
G04 #@! TD*
G04 #@! TO.C,C240*
X-8795000Y25495000D03*
X-14495000Y25495000D03*
G04 #@! TD*
G04 #@! TO.C,C238*
X-21305000Y58605000D03*
X-15605000Y58605000D03*
G04 #@! TD*
G04 #@! TO.C,C219*
X-7605000Y69805000D03*
X-1905000Y69805000D03*
G04 #@! TD*
G04 #@! TO.C,C235*
X4905000Y69795000D03*
X-795000Y69795000D03*
G04 #@! TD*
G04 #@! TO.C,C234*
X-22417000Y31110000D03*
X-28117000Y31110000D03*
G04 #@! TD*
G04 #@! TO.C,C233*
X-62105000Y81005000D03*
X-56405000Y81005000D03*
G04 #@! TD*
G04 #@! TO.C,C231*
X-7605000Y25505000D03*
X-1905000Y25505000D03*
G04 #@! TD*
G04 #@! TO.C,C230*
X-62105000Y92205000D03*
X-56405000Y92205000D03*
G04 #@! TD*
G04 #@! TO.C,C229*
X-35995000Y8695000D03*
X-41695000Y8695000D03*
G04 #@! TD*
G04 #@! TO.C,C228*
X-7605000Y19905000D03*
X-1905000Y19905000D03*
G04 #@! TD*
G04 #@! TO.C,C227*
X-21305000Y31105000D03*
X-15605000Y31105000D03*
G04 #@! TD*
G04 #@! TO.C,C226*
X-62105000Y75405000D03*
X-56405000Y75405000D03*
G04 #@! TD*
G04 #@! TO.C,C225*
X-22395000Y36695000D03*
X-28095000Y36695000D03*
G04 #@! TD*
G04 #@! TO.C,C224*
X-7605000Y64205000D03*
X-1905000Y64205000D03*
G04 #@! TD*
G04 #@! TO.C,C223*
X-8795000Y86595000D03*
X-14495000Y86595000D03*
G04 #@! TD*
G04 #@! TO.C,C220*
X-35995000Y3095000D03*
X-41695000Y3095000D03*
G04 #@! TD*
G04 #@! TO.C,C151*
X-35995000Y36695000D03*
X-41695000Y36695000D03*
G04 #@! TD*
G04 #@! TO.C,C150*
X6095000Y97805000D03*
X11795000Y97805000D03*
G04 #@! TD*
G04 #@! TO.C,C130*
X11795000Y92205000D03*
X6095000Y92205000D03*
G04 #@! TD*
G04 #@! TO.C,C141*
X4905000Y14295000D03*
X-795000Y14295000D03*
G04 #@! TD*
G04 #@! TO.C,C187*
X-34905000Y97805000D03*
X-29205000Y97805000D03*
G04 #@! TD*
G04 #@! TO.C,C186*
X-34905000Y58605000D03*
X-29205000Y58605000D03*
G04 #@! TD*
G04 #@! TO.C,C185*
X-48505000Y58605000D03*
X-42805000Y58605000D03*
G04 #@! TD*
G04 #@! TO.C,C184*
X-35995000Y80995000D03*
X-41695000Y80995000D03*
G04 #@! TD*
G04 #@! TO.C,C183*
X6095000Y8705000D03*
X11795000Y8705000D03*
G04 #@! TD*
G04 #@! TO.C,C182*
X-48505000Y97805000D03*
X-42805000Y97805000D03*
G04 #@! TD*
G04 #@! TO.C,C181*
X-62105000Y19905000D03*
X-56405000Y19905000D03*
G04 #@! TD*
G04 #@! TO.C,C221*
X-34905000Y3105000D03*
X-29205000Y3105000D03*
G04 #@! TD*
G04 #@! TO.C,C345*
X-62105000Y3105000D03*
X-56405000Y3105000D03*
G04 #@! TD*
G04 #@! TO.C,C236*
X-49595000Y31195000D03*
X-55295000Y31195000D03*
G04 #@! TD*
D12*
G04 #@! TO.C,TP3*
X28400000Y34000000D03*
D13*
X30800000Y34000000D03*
X30097056Y32302944D03*
X28400000Y31600000D03*
X26702944Y32302944D03*
X26000000Y34000000D03*
X26702944Y35697056D03*
X28400000Y36400000D03*
X30097056Y35697056D03*
G04 #@! TD*
D12*
G04 #@! TO.C,TP4*
X28400000Y24500000D03*
D13*
X30800000Y24500000D03*
X30097056Y22802944D03*
X28400000Y22100000D03*
X26702944Y22802944D03*
X26000000Y24500000D03*
X26702944Y26197056D03*
X28400000Y26900000D03*
X30097056Y26197056D03*
G04 #@! TD*
D12*
G04 #@! TO.C,TP1*
X-60000000Y55000000D03*
D13*
X-57600000Y55000000D03*
X-58302944Y53302944D03*
X-60000000Y52600000D03*
X-61697056Y53302944D03*
X-62400000Y55000000D03*
X-61697056Y56697056D03*
X-60000000Y57400000D03*
X-58302944Y56697056D03*
G04 #@! TD*
D12*
G04 #@! TO.C,TP2*
X-60000000Y66000000D03*
D13*
X-57600000Y66000000D03*
X-58302944Y64302944D03*
X-60000000Y63600000D03*
X-61697056Y64302944D03*
X-62400000Y66000000D03*
X-61697056Y67697056D03*
X-60000000Y68400000D03*
X-58302944Y67697056D03*
G04 #@! TD*
M02*
