G04 #@! TF.GenerationSoftware,KiCad,Pcbnew,(5.0.0)*
G04 #@! TF.CreationDate,2019-06-04T18:43:43-07:00*
G04 #@! TF.ProjectId,SSB Cap Board - Rev2,5353422043617020426F617264202D20,rev?*
G04 #@! TF.SameCoordinates,Original*
G04 #@! TF.FileFunction,Copper,L1,Top,Signal*
G04 #@! TF.FilePolarity,Positive*
%FSLAX46Y46*%
G04 Gerber Fmt 4.6, Leading zero omitted, Abs format (unit mm)*
G04 Created by KiCad (PCBNEW (5.0.0)) date 06/04/19 18:43:43*
%MOMM*%
%LPD*%
G01*
G04 APERTURE LIST*
G04 #@! TA.AperFunction,BGAPad,CuDef*
%ADD10C,1.000000*%
G04 #@! TD*
G04 #@! TA.AperFunction,SMDPad,CuDef*
%ADD11R,1.250000X5.000000*%
G04 #@! TD*
G04 #@! TA.AperFunction,ComponentPad*
%ADD12C,6.400000*%
G04 #@! TD*
G04 #@! TA.AperFunction,ComponentPad*
%ADD13C,0.800000*%
G04 #@! TD*
G04 #@! TA.AperFunction,ViaPad*
%ADD14C,0.889000*%
G04 #@! TD*
G04 #@! TA.AperFunction,Conductor*
%ADD15C,1.000000*%
G04 #@! TD*
G04 #@! TA.AperFunction,Conductor*
%ADD16C,1.500000*%
G04 #@! TD*
G04 APERTURE END LIST*
D10*
G04 #@! TO.P,REF\002A\002A,~*
G04 #@! TO.N,N/C*
X59300000Y33800000D03*
G04 #@! TD*
G04 #@! TO.P,REF\002A\002A,~*
G04 #@! TO.N,N/C*
X13200000Y-3800000D03*
G04 #@! TD*
D11*
G04 #@! TO.P,C578,2*
G04 #@! TO.N,/C2-*
X62105000Y8505000D03*
G04 #@! TO.P,C578,1*
G04 #@! TO.N,/C2+*
X56405000Y8505000D03*
G04 #@! TD*
G04 #@! TO.P,C576,2*
G04 #@! TO.N,/C2-*
X62105000Y-2695000D03*
G04 #@! TO.P,C576,1*
G04 #@! TO.N,/C2+*
X56405000Y-2695000D03*
G04 #@! TD*
G04 #@! TO.P,C572,1*
G04 #@! TO.N,/C2+*
X28095000Y86595000D03*
G04 #@! TO.P,C572,2*
G04 #@! TO.N,/C2-*
X22395000Y86595000D03*
G04 #@! TD*
G04 #@! TO.P,C570,2*
G04 #@! TO.N,/C2-*
X34905000Y2905000D03*
G04 #@! TO.P,C570,1*
G04 #@! TO.N,/C2+*
X29205000Y2905000D03*
G04 #@! TD*
G04 #@! TO.P,C568,2*
G04 #@! TO.N,/C2-*
X62105000Y14105000D03*
G04 #@! TO.P,C568,1*
G04 #@! TO.N,/C2+*
X56405000Y14105000D03*
G04 #@! TD*
G04 #@! TO.P,C566,2*
G04 #@! TO.N,/C2-*
X22395000Y14095000D03*
G04 #@! TO.P,C566,1*
G04 #@! TO.N,/C2+*
X28095000Y14095000D03*
G04 #@! TD*
G04 #@! TO.P,C573,2*
G04 #@! TO.N,/C2-*
X62105000Y53005000D03*
G04 #@! TO.P,C573,1*
G04 #@! TO.N,/C2+*
X56405000Y53005000D03*
G04 #@! TD*
G04 #@! TO.P,C597,2*
G04 #@! TO.N,/C2-*
X34905000Y8505000D03*
G04 #@! TO.P,C597,1*
G04 #@! TO.N,/C2+*
X29205000Y8505000D03*
G04 #@! TD*
G04 #@! TO.P,C596,2*
G04 #@! TO.N,/C2-*
X22395000Y103395000D03*
G04 #@! TO.P,C596,1*
G04 #@! TO.N,/C2+*
X28095000Y103395000D03*
G04 #@! TD*
G04 #@! TO.P,C595,2*
G04 #@! TO.N,/C2-*
X62105000Y19705000D03*
G04 #@! TO.P,C595,1*
G04 #@! TO.N,/C2+*
X56405000Y19705000D03*
G04 #@! TD*
G04 #@! TO.P,C593,2*
G04 #@! TO.N,/C2-*
X34905000Y14105000D03*
G04 #@! TO.P,C593,1*
G04 #@! TO.N,/C2+*
X29205000Y14105000D03*
G04 #@! TD*
G04 #@! TO.P,C588,2*
G04 #@! TO.N,/C2-*
X49595000Y92195000D03*
G04 #@! TO.P,C588,1*
G04 #@! TO.N,/C2+*
X55295000Y92195000D03*
G04 #@! TD*
G04 #@! TO.P,C585,1*
G04 #@! TO.N,/C2+*
X28095000Y-2705000D03*
G04 #@! TO.P,C585,2*
G04 #@! TO.N,/C2-*
X22395000Y-2705000D03*
G04 #@! TD*
G04 #@! TO.P,C584,2*
G04 #@! TO.N,/C2-*
X62105000Y25305000D03*
G04 #@! TO.P,C584,1*
G04 #@! TO.N,/C2+*
X56405000Y25305000D03*
G04 #@! TD*
G04 #@! TO.P,C591,2*
G04 #@! TO.N,/C2-*
X35995000Y25295000D03*
G04 #@! TO.P,C591,1*
G04 #@! TO.N,/C2+*
X41695000Y25295000D03*
G04 #@! TD*
G04 #@! TO.P,C590,2*
G04 #@! TO.N,/C2-*
X62105000Y64205000D03*
G04 #@! TO.P,C590,1*
G04 #@! TO.N,/C2+*
X56405000Y64205000D03*
G04 #@! TD*
G04 #@! TO.P,C592,1*
G04 #@! TO.N,/C2+*
X41695000Y14095000D03*
G04 #@! TO.P,C592,2*
G04 #@! TO.N,/C2-*
X35995000Y14095000D03*
G04 #@! TD*
G04 #@! TO.P,C599,2*
G04 #@! TO.N,/C2-*
X34905000Y97805000D03*
G04 #@! TO.P,C599,1*
G04 #@! TO.N,/C2+*
X29205000Y97805000D03*
G04 #@! TD*
G04 #@! TO.P,C292,1*
G04 #@! TO.N,/C1+*
X11795000Y3095000D03*
G04 #@! TO.P,C292,2*
G04 #@! TO.N,/C1-*
X6095000Y3095000D03*
G04 #@! TD*
G04 #@! TO.P,C504,2*
G04 #@! TO.N,/C2-*
X22395000Y97795000D03*
G04 #@! TO.P,C504,1*
G04 #@! TO.N,/C2+*
X28095000Y97795000D03*
G04 #@! TD*
G04 #@! TO.P,C494,2*
G04 #@! TO.N,/C2-*
X22395000Y80995000D03*
G04 #@! TO.P,C494,1*
G04 #@! TO.N,/C2+*
X28095000Y80995000D03*
G04 #@! TD*
G04 #@! TO.P,C456,1*
G04 #@! TO.N,/C2+*
X56405000Y58605000D03*
G04 #@! TO.P,C456,2*
G04 #@! TO.N,/C2-*
X62105000Y58605000D03*
G04 #@! TD*
G04 #@! TO.P,C462,1*
G04 #@! TO.N,/C2+*
X28095000Y8495000D03*
G04 #@! TO.P,C462,2*
G04 #@! TO.N,/C2-*
X22395000Y8495000D03*
G04 #@! TD*
G04 #@! TO.P,C517,1*
G04 #@! TO.N,/C2+*
X28095000Y2895000D03*
G04 #@! TO.P,C517,2*
G04 #@! TO.N,/C2-*
X22395000Y2895000D03*
G04 #@! TD*
G04 #@! TO.P,C477,1*
G04 #@! TO.N,/C2+*
X56405000Y2905000D03*
G04 #@! TO.P,C477,2*
G04 #@! TO.N,/C2-*
X62105000Y2905000D03*
G04 #@! TD*
G04 #@! TO.P,C471,2*
G04 #@! TO.N,/C2-*
X22395000Y92195000D03*
G04 #@! TO.P,C471,1*
G04 #@! TO.N,/C2+*
X28095000Y92195000D03*
G04 #@! TD*
G04 #@! TO.P,C479,1*
G04 #@! TO.N,/C2+*
X29205000Y-2695000D03*
G04 #@! TO.P,C479,2*
G04 #@! TO.N,/C2-*
X34905000Y-2695000D03*
G04 #@! TD*
G04 #@! TO.P,C542,1*
G04 #@! TO.N,/C2+*
X42805000Y69805000D03*
G04 #@! TO.P,C542,2*
G04 #@! TO.N,/C2-*
X48505000Y69805000D03*
G04 #@! TD*
G04 #@! TO.P,C540,2*
G04 #@! TO.N,/C2-*
X22395000Y64195000D03*
G04 #@! TO.P,C540,1*
G04 #@! TO.N,/C2+*
X28095000Y64195000D03*
G04 #@! TD*
G04 #@! TO.P,C537,2*
G04 #@! TO.N,/C2-*
X49595000Y25295000D03*
G04 #@! TO.P,C537,1*
G04 #@! TO.N,/C2+*
X55295000Y25295000D03*
G04 #@! TD*
G04 #@! TO.P,C536,2*
G04 #@! TO.N,/C2-*
X22395000Y69795000D03*
G04 #@! TO.P,C536,1*
G04 #@! TO.N,/C2+*
X28095000Y69795000D03*
G04 #@! TD*
G04 #@! TO.P,C534,1*
G04 #@! TO.N,/C2+*
X56405000Y69805000D03*
G04 #@! TO.P,C534,2*
G04 #@! TO.N,/C2-*
X62105000Y69805000D03*
G04 #@! TD*
G04 #@! TO.P,C532,1*
G04 #@! TO.N,/C2+*
X55295000Y80995000D03*
G04 #@! TO.P,C532,2*
G04 #@! TO.N,/C2-*
X49595000Y80995000D03*
G04 #@! TD*
G04 #@! TO.P,C530,1*
G04 #@! TO.N,/C2+*
X42805000Y47405000D03*
G04 #@! TO.P,C530,2*
G04 #@! TO.N,/C2-*
X48505000Y47405000D03*
G04 #@! TD*
G04 #@! TO.P,C528,1*
G04 #@! TO.N,/C2+*
X41695000Y97795000D03*
G04 #@! TO.P,C528,2*
G04 #@! TO.N,/C2-*
X35995000Y97795000D03*
G04 #@! TD*
G04 #@! TO.P,C527,2*
G04 #@! TO.N,/C2-*
X35995000Y19695000D03*
G04 #@! TO.P,C527,1*
G04 #@! TO.N,/C2+*
X41695000Y19695000D03*
G04 #@! TD*
G04 #@! TO.P,C564,1*
G04 #@! TO.N,/C2+*
X55295000Y19695000D03*
G04 #@! TO.P,C564,2*
G04 #@! TO.N,/C2-*
X49595000Y19695000D03*
G04 #@! TD*
G04 #@! TO.P,C535,2*
G04 #@! TO.N,/C2-*
X48505000Y-2695000D03*
G04 #@! TO.P,C535,1*
G04 #@! TO.N,/C2+*
X42805000Y-2695000D03*
G04 #@! TD*
G04 #@! TO.P,C562,1*
G04 #@! TO.N,/C2+*
X56405000Y75405000D03*
G04 #@! TO.P,C562,2*
G04 #@! TO.N,/C2-*
X62105000Y75405000D03*
G04 #@! TD*
G04 #@! TO.P,C560,1*
G04 #@! TO.N,/C2+*
X55295000Y75395000D03*
G04 #@! TO.P,C560,2*
G04 #@! TO.N,/C2-*
X49595000Y75395000D03*
G04 #@! TD*
G04 #@! TO.P,C558,1*
G04 #@! TO.N,/C2+*
X42805000Y53005000D03*
G04 #@! TO.P,C558,2*
G04 #@! TO.N,/C2-*
X48505000Y53005000D03*
G04 #@! TD*
G04 #@! TO.P,C556,1*
G04 #@! TO.N,/C2+*
X41695000Y103395000D03*
G04 #@! TO.P,C556,2*
G04 #@! TO.N,/C2-*
X35995000Y103395000D03*
G04 #@! TD*
G04 #@! TO.P,C544,1*
G04 #@! TO.N,/C2+*
X29205000Y103405000D03*
G04 #@! TO.P,C544,2*
G04 #@! TO.N,/C2-*
X34905000Y103405000D03*
G04 #@! TD*
G04 #@! TO.P,C553,2*
G04 #@! TO.N,/C2-*
X49595000Y14095000D03*
G04 #@! TO.P,C553,1*
G04 #@! TO.N,/C2+*
X55295000Y14095000D03*
G04 #@! TD*
G04 #@! TO.P,C552,1*
G04 #@! TO.N,/C2+*
X42805000Y2905000D03*
G04 #@! TO.P,C552,2*
G04 #@! TO.N,/C2-*
X48505000Y2905000D03*
G04 #@! TD*
G04 #@! TO.P,C551,2*
G04 #@! TO.N,/C2-*
X62105000Y81005000D03*
G04 #@! TO.P,C551,1*
G04 #@! TO.N,/C2+*
X56405000Y81005000D03*
G04 #@! TD*
G04 #@! TO.P,C550,1*
G04 #@! TO.N,/C2+*
X55295000Y69795000D03*
G04 #@! TO.P,C550,2*
G04 #@! TO.N,/C2-*
X49595000Y69795000D03*
G04 #@! TD*
G04 #@! TO.P,C548,1*
G04 #@! TO.N,/C2+*
X42805000Y58605000D03*
G04 #@! TO.P,C548,2*
G04 #@! TO.N,/C2-*
X48505000Y58605000D03*
G04 #@! TD*
G04 #@! TO.P,C546,1*
G04 #@! TO.N,/C2+*
X41695000Y92195000D03*
G04 #@! TO.P,C546,2*
G04 #@! TO.N,/C2-*
X35995000Y92195000D03*
G04 #@! TD*
G04 #@! TO.P,C545,2*
G04 #@! TO.N,/C2-*
X35995000Y8495000D03*
G04 #@! TO.P,C545,1*
G04 #@! TO.N,/C2+*
X41695000Y8495000D03*
G04 #@! TD*
G04 #@! TO.P,C554,1*
G04 #@! TO.N,/C2+*
X29205000Y41805000D03*
G04 #@! TO.P,C554,2*
G04 #@! TO.N,/C2-*
X34905000Y41805000D03*
G04 #@! TD*
G04 #@! TO.P,C432,2*
G04 #@! TO.N,/C2-*
X49595000Y8495000D03*
G04 #@! TO.P,C432,1*
G04 #@! TO.N,/C2+*
X55295000Y8495000D03*
G04 #@! TD*
G04 #@! TO.P,C429,2*
G04 #@! TO.N,/C2-*
X62105000Y86605000D03*
G04 #@! TO.P,C429,1*
G04 #@! TO.N,/C2+*
X56405000Y86605000D03*
G04 #@! TD*
G04 #@! TO.P,C428,1*
G04 #@! TO.N,/C2+*
X55295000Y64195000D03*
G04 #@! TO.P,C428,2*
G04 #@! TO.N,/C2-*
X49595000Y64195000D03*
G04 #@! TD*
G04 #@! TO.P,C427,2*
G04 #@! TO.N,/C2-*
X48505000Y64205000D03*
G04 #@! TO.P,C427,1*
G04 #@! TO.N,/C2+*
X42805000Y64205000D03*
G04 #@! TD*
G04 #@! TO.P,C425,2*
G04 #@! TO.N,/C2-*
X35995000Y86595000D03*
G04 #@! TO.P,C425,1*
G04 #@! TO.N,/C2+*
X41695000Y86595000D03*
G04 #@! TD*
G04 #@! TO.P,C415,1*
G04 #@! TO.N,/C2+*
X41695000Y2895000D03*
G04 #@! TO.P,C415,2*
G04 #@! TO.N,/C2-*
X35995000Y2895000D03*
G04 #@! TD*
G04 #@! TO.P,C450,2*
G04 #@! TO.N,/C2-*
X34905000Y47405000D03*
G04 #@! TO.P,C450,1*
G04 #@! TO.N,/C2+*
X29205000Y47405000D03*
G04 #@! TD*
G04 #@! TO.P,C422,1*
G04 #@! TO.N,/C2+*
X55295000Y2895000D03*
G04 #@! TO.P,C422,2*
G04 #@! TO.N,/C2-*
X49595000Y2895000D03*
G04 #@! TD*
G04 #@! TO.P,C413,2*
G04 #@! TO.N,/C2-*
X48505000Y14105000D03*
G04 #@! TO.P,C413,1*
G04 #@! TO.N,/C2+*
X42805000Y14105000D03*
G04 #@! TD*
G04 #@! TO.P,C420,1*
G04 #@! TO.N,/C2+*
X56405000Y92205000D03*
G04 #@! TO.P,C420,2*
G04 #@! TO.N,/C2-*
X62105000Y92205000D03*
G04 #@! TD*
G04 #@! TO.P,C419,2*
G04 #@! TO.N,/C2-*
X49595000Y58595000D03*
G04 #@! TO.P,C419,1*
G04 #@! TO.N,/C2+*
X55295000Y58595000D03*
G04 #@! TD*
G04 #@! TO.P,C418,1*
G04 #@! TO.N,/C2+*
X55295000Y86595000D03*
G04 #@! TO.P,C418,2*
G04 #@! TO.N,/C2-*
X49595000Y86595000D03*
G04 #@! TD*
G04 #@! TO.P,C417,2*
G04 #@! TO.N,/C2-*
X35995000Y80995000D03*
G04 #@! TO.P,C417,1*
G04 #@! TO.N,/C2+*
X41695000Y80995000D03*
G04 #@! TD*
G04 #@! TO.P,C416,1*
G04 #@! TO.N,/C2+*
X41695000Y-2705000D03*
G04 #@! TO.P,C416,2*
G04 #@! TO.N,/C2-*
X35995000Y-2705000D03*
G04 #@! TD*
G04 #@! TO.P,C424,2*
G04 #@! TO.N,/C2-*
X34905000Y53005000D03*
G04 #@! TO.P,C424,1*
G04 #@! TO.N,/C2+*
X29205000Y53005000D03*
G04 #@! TD*
G04 #@! TO.P,C423,1*
G04 #@! TO.N,/C2+*
X55295000Y-2705000D03*
G04 #@! TO.P,C423,2*
G04 #@! TO.N,/C2-*
X49595000Y-2705000D03*
G04 #@! TD*
G04 #@! TO.P,C421,2*
G04 #@! TO.N,/C2-*
X48505000Y19705000D03*
G04 #@! TO.P,C421,1*
G04 #@! TO.N,/C2+*
X42805000Y19705000D03*
G04 #@! TD*
G04 #@! TO.P,C447,1*
G04 #@! TO.N,/C2+*
X56405000Y97805000D03*
G04 #@! TO.P,C447,2*
G04 #@! TO.N,/C2-*
X62105000Y97805000D03*
G04 #@! TD*
G04 #@! TO.P,C446,2*
G04 #@! TO.N,/C2-*
X49595000Y52995000D03*
G04 #@! TO.P,C446,1*
G04 #@! TO.N,/C2+*
X55295000Y52995000D03*
G04 #@! TD*
G04 #@! TO.P,C445,1*
G04 #@! TO.N,/C2+*
X42805000Y75405000D03*
G04 #@! TO.P,C445,2*
G04 #@! TO.N,/C2-*
X48505000Y75405000D03*
G04 #@! TD*
G04 #@! TO.P,C444,2*
G04 #@! TO.N,/C2-*
X35995000Y75395000D03*
G04 #@! TO.P,C444,1*
G04 #@! TO.N,/C2+*
X41695000Y75395000D03*
G04 #@! TD*
G04 #@! TO.P,C433,1*
G04 #@! TO.N,/C2+*
X29205000Y58605000D03*
G04 #@! TO.P,C433,2*
G04 #@! TO.N,/C2-*
X34905000Y58605000D03*
G04 #@! TD*
G04 #@! TO.P,C442,1*
G04 #@! TO.N,/C2+*
X28095000Y75395000D03*
G04 #@! TO.P,C442,2*
G04 #@! TO.N,/C2-*
X22395000Y75395000D03*
G04 #@! TD*
G04 #@! TO.P,C555,1*
G04 #@! TO.N,/C2+*
X56405000Y103405000D03*
G04 #@! TO.P,C555,2*
G04 #@! TO.N,/C2-*
X62105000Y103405000D03*
G04 #@! TD*
G04 #@! TO.P,C430,2*
G04 #@! TO.N,/C2-*
X49595000Y97795000D03*
G04 #@! TO.P,C430,1*
G04 #@! TO.N,/C2+*
X55295000Y97795000D03*
G04 #@! TD*
G04 #@! TO.P,C439,1*
G04 #@! TO.N,/C2+*
X55295000Y47395000D03*
G04 #@! TO.P,C439,2*
G04 #@! TO.N,/C2-*
X49595000Y47395000D03*
G04 #@! TD*
G04 #@! TO.P,C438,2*
G04 #@! TO.N,/C2-*
X48505000Y81005000D03*
G04 #@! TO.P,C438,1*
G04 #@! TO.N,/C2+*
X42805000Y81005000D03*
G04 #@! TD*
G04 #@! TO.P,C437,1*
G04 #@! TO.N,/C2+*
X41695000Y69795000D03*
G04 #@! TO.P,C437,2*
G04 #@! TO.N,/C2-*
X35995000Y69795000D03*
G04 #@! TD*
G04 #@! TO.P,C436,2*
G04 #@! TO.N,/C2-*
X34905000Y64205000D03*
G04 #@! TO.P,C436,1*
G04 #@! TO.N,/C2+*
X29205000Y64205000D03*
G04 #@! TD*
G04 #@! TO.P,C435,1*
G04 #@! TO.N,/C2+*
X42805000Y25305000D03*
G04 #@! TO.P,C435,2*
G04 #@! TO.N,/C2-*
X48505000Y25305000D03*
G04 #@! TD*
G04 #@! TO.P,C434,2*
G04 #@! TO.N,/C2-*
X49595000Y103395000D03*
G04 #@! TO.P,C434,1*
G04 #@! TO.N,/C2+*
X55295000Y103395000D03*
G04 #@! TD*
G04 #@! TO.P,C443,1*
G04 #@! TO.N,/C2+*
X42805000Y97805000D03*
G04 #@! TO.P,C443,2*
G04 #@! TO.N,/C2-*
X48505000Y97805000D03*
G04 #@! TD*
G04 #@! TO.P,C441,2*
G04 #@! TO.N,/C2-*
X48505000Y86605000D03*
G04 #@! TO.P,C441,1*
G04 #@! TO.N,/C2+*
X42805000Y86605000D03*
G04 #@! TD*
G04 #@! TO.P,C431,1*
G04 #@! TO.N,/C2+*
X41695000Y64195000D03*
G04 #@! TO.P,C431,2*
G04 #@! TO.N,/C2-*
X35995000Y64195000D03*
G04 #@! TD*
G04 #@! TO.P,C440,2*
G04 #@! TO.N,/C2-*
X34905000Y69805000D03*
G04 #@! TO.P,C440,1*
G04 #@! TO.N,/C2+*
X29205000Y69805000D03*
G04 #@! TD*
G04 #@! TO.P,C451,1*
G04 #@! TO.N,/C2+*
X56405000Y47405000D03*
G04 #@! TO.P,C451,2*
G04 #@! TO.N,/C2-*
X62105000Y47405000D03*
G04 #@! TD*
G04 #@! TO.P,C448,2*
G04 #@! TO.N,/C2-*
X48505000Y92205000D03*
G04 #@! TO.P,C448,1*
G04 #@! TO.N,/C2+*
X42805000Y92205000D03*
G04 #@! TD*
G04 #@! TO.P,C411,1*
G04 #@! TO.N,/C2+*
X56405000Y41805000D03*
G04 #@! TO.P,C411,2*
G04 #@! TO.N,/C2-*
X62105000Y41805000D03*
G04 #@! TD*
G04 #@! TO.P,C410,2*
G04 #@! TO.N,/C2-*
X35995000Y58595000D03*
G04 #@! TO.P,C410,1*
G04 #@! TO.N,/C2+*
X41695000Y58595000D03*
G04 #@! TD*
G04 #@! TO.P,C409,1*
G04 #@! TO.N,/C2+*
X29205000Y75405000D03*
G04 #@! TO.P,C409,2*
G04 #@! TO.N,/C2-*
X34905000Y75405000D03*
G04 #@! TD*
G04 #@! TO.P,C408,2*
G04 #@! TO.N,/C2-*
X48505000Y103405000D03*
G04 #@! TO.P,C408,1*
G04 #@! TO.N,/C2+*
X42805000Y103405000D03*
G04 #@! TD*
G04 #@! TO.P,C407,1*
G04 #@! TO.N,/C2+*
X55295000Y41795000D03*
G04 #@! TO.P,C407,2*
G04 #@! TO.N,/C2-*
X49595000Y41795000D03*
G04 #@! TD*
G04 #@! TO.P,C406,2*
G04 #@! TO.N,/C2-*
X35995000Y52995000D03*
G04 #@! TO.P,C406,1*
G04 #@! TO.N,/C2+*
X41695000Y52995000D03*
G04 #@! TD*
G04 #@! TO.P,C404,1*
G04 #@! TO.N,/C2+*
X29205000Y81005000D03*
G04 #@! TO.P,C404,2*
G04 #@! TO.N,/C2-*
X34905000Y81005000D03*
G04 #@! TD*
G04 #@! TO.P,C403,2*
G04 #@! TO.N,/C2-*
X48505000Y41805000D03*
G04 #@! TO.P,C403,1*
G04 #@! TO.N,/C2+*
X42805000Y41805000D03*
G04 #@! TD*
G04 #@! TO.P,C402,1*
G04 #@! TO.N,/C2+*
X41695000Y47395000D03*
G04 #@! TO.P,C402,2*
G04 #@! TO.N,/C2-*
X35995000Y47395000D03*
G04 #@! TD*
G04 #@! TO.P,C401,2*
G04 #@! TO.N,/C2-*
X34905000Y86605000D03*
G04 #@! TO.P,C401,1*
G04 #@! TO.N,/C2+*
X29205000Y86605000D03*
G04 #@! TD*
G04 #@! TO.P,C414,1*
G04 #@! TO.N,/C2+*
X41695000Y41795000D03*
G04 #@! TO.P,C414,2*
G04 #@! TO.N,/C2-*
X35995000Y41795000D03*
G04 #@! TD*
G04 #@! TO.P,C412,2*
G04 #@! TO.N,/C2-*
X34905000Y92205000D03*
G04 #@! TO.P,C412,1*
G04 #@! TO.N,/C2+*
X29205000Y92205000D03*
G04 #@! TD*
G04 #@! TO.P,C405,1*
G04 #@! TO.N,/C2+*
X42805000Y8505000D03*
G04 #@! TO.P,C405,2*
G04 #@! TO.N,/C2-*
X48505000Y8505000D03*
G04 #@! TD*
G04 #@! TO.P,C291,2*
G04 #@! TO.N,/C1-*
X6095000Y8695000D03*
G04 #@! TO.P,C291,1*
G04 #@! TO.N,/C1+*
X11795000Y8695000D03*
G04 #@! TD*
G04 #@! TO.P,C237,1*
G04 #@! TO.N,/C1+*
X11795000Y14295000D03*
G04 #@! TO.P,C237,2*
G04 #@! TO.N,/C1-*
X6095000Y14295000D03*
G04 #@! TD*
G04 #@! TO.P,C52,2*
G04 #@! TO.N,/C1-*
X-21305000Y25495000D03*
G04 #@! TO.P,C52,1*
G04 #@! TO.N,/C1+*
X-15605000Y25495000D03*
G04 #@! TD*
G04 #@! TO.P,C97,1*
G04 #@! TO.N,/C1+*
X-41695000Y31105000D03*
G04 #@! TO.P,C97,2*
G04 #@! TO.N,/C1-*
X-35995000Y31105000D03*
G04 #@! TD*
G04 #@! TO.P,C21,1*
G04 #@! TO.N,/C1+*
X11795000Y31095000D03*
G04 #@! TO.P,C21,2*
G04 #@! TO.N,/C1-*
X6095000Y31095000D03*
G04 #@! TD*
G04 #@! TO.P,C120,2*
G04 #@! TO.N,/C1-*
X6095000Y19895000D03*
G04 #@! TO.P,C120,1*
G04 #@! TO.N,/C1+*
X11795000Y19895000D03*
G04 #@! TD*
G04 #@! TO.P,C394,1*
G04 #@! TO.N,/C1+*
X11795000Y25495000D03*
G04 #@! TO.P,C394,2*
G04 #@! TO.N,/C1-*
X6095000Y25495000D03*
G04 #@! TD*
G04 #@! TO.P,C343,2*
G04 #@! TO.N,/C1-*
X-48505000Y31095000D03*
G04 #@! TO.P,C343,1*
G04 #@! TO.N,/C1+*
X-42805000Y31095000D03*
G04 #@! TD*
G04 #@! TO.P,C358,2*
G04 #@! TO.N,/C1-*
X-21305000Y19895000D03*
G04 #@! TO.P,C358,1*
G04 #@! TO.N,/C1+*
X-15605000Y19895000D03*
G04 #@! TD*
G04 #@! TO.P,C273,2*
G04 #@! TO.N,/C1-*
X-49595000Y8705000D03*
G04 #@! TO.P,C273,1*
G04 #@! TO.N,/C1+*
X-55295000Y8705000D03*
G04 #@! TD*
G04 #@! TO.P,C264,2*
G04 #@! TO.N,/C1-*
X-8795000Y3105000D03*
G04 #@! TO.P,C264,1*
G04 #@! TO.N,/C1+*
X-14495000Y3105000D03*
G04 #@! TD*
G04 #@! TO.P,C262,2*
G04 #@! TO.N,/C1-*
X-62105000Y25495000D03*
G04 #@! TO.P,C262,1*
G04 #@! TO.N,/C1+*
X-56405000Y25495000D03*
G04 #@! TD*
G04 #@! TO.P,C261,2*
G04 #@! TO.N,/C1-*
X-49595000Y-2495000D03*
G04 #@! TO.P,C261,1*
G04 #@! TO.N,/C1+*
X-55295000Y-2495000D03*
G04 #@! TD*
G04 #@! TO.P,C260,2*
G04 #@! TO.N,/C1-*
X-34905000Y8695000D03*
G04 #@! TO.P,C260,1*
G04 #@! TO.N,/C1+*
X-29205000Y8695000D03*
G04 #@! TD*
G04 #@! TO.P,C259,2*
G04 #@! TO.N,/C1-*
X-48405000Y14295000D03*
G04 #@! TO.P,C259,1*
G04 #@! TO.N,/C1+*
X-42705000Y14295000D03*
G04 #@! TD*
G04 #@! TO.P,C258,2*
G04 #@! TO.N,/C1-*
X-35995000Y19905000D03*
G04 #@! TO.P,C258,1*
G04 #@! TO.N,/C1+*
X-41695000Y19905000D03*
G04 #@! TD*
G04 #@! TO.P,C257,2*
G04 #@! TO.N,/C1-*
X-22395000Y-2495000D03*
G04 #@! TO.P,C257,1*
G04 #@! TO.N,/C1+*
X-28095000Y-2495000D03*
G04 #@! TD*
G04 #@! TO.P,C314,2*
G04 #@! TO.N,/C1-*
X-62105000Y19895000D03*
G04 #@! TO.P,C314,1*
G04 #@! TO.N,/C1+*
X-56405000Y19895000D03*
G04 #@! TD*
G04 #@! TO.P,C266,2*
G04 #@! TO.N,/C1-*
X-49595000Y3105000D03*
G04 #@! TO.P,C266,1*
G04 #@! TO.N,/C1+*
X-55295000Y3105000D03*
G04 #@! TD*
G04 #@! TO.P,C265,2*
G04 #@! TO.N,/C1-*
X-34905000Y3095000D03*
G04 #@! TO.P,C265,1*
G04 #@! TO.N,/C1+*
X-29205000Y3095000D03*
G04 #@! TD*
G04 #@! TO.P,C311,2*
G04 #@! TO.N,/C1-*
X-48405000Y8695000D03*
G04 #@! TO.P,C311,1*
G04 #@! TO.N,/C1+*
X-42705000Y8695000D03*
G04 #@! TD*
G04 #@! TO.P,C310,2*
G04 #@! TO.N,/C1-*
X-35995000Y25505000D03*
G04 #@! TO.P,C310,1*
G04 #@! TO.N,/C1+*
X-41695000Y25505000D03*
G04 #@! TD*
G04 #@! TO.P,C309,2*
G04 #@! TO.N,/C1-*
X-22395000Y3105000D03*
G04 #@! TO.P,C309,1*
G04 #@! TO.N,/C1+*
X-28095000Y3105000D03*
G04 #@! TD*
G04 #@! TO.P,C308,2*
G04 #@! TO.N,/C1-*
X-62105000Y86595000D03*
G04 #@! TO.P,C308,1*
G04 #@! TO.N,/C1+*
X-56405000Y86595000D03*
G04 #@! TD*
G04 #@! TO.P,C304,2*
G04 #@! TO.N,/C1-*
X-62105000Y14295000D03*
G04 #@! TO.P,C304,1*
G04 #@! TO.N,/C1+*
X-56405000Y14295000D03*
G04 #@! TD*
G04 #@! TO.P,C302,2*
G04 #@! TO.N,/C1-*
X-34905000Y-2505000D03*
G04 #@! TO.P,C302,1*
G04 #@! TO.N,/C1+*
X-29205000Y-2505000D03*
G04 #@! TD*
G04 #@! TO.P,C301,2*
G04 #@! TO.N,/C1-*
X-48405000Y3095000D03*
G04 #@! TO.P,C301,1*
G04 #@! TO.N,/C1+*
X-42705000Y3095000D03*
G04 #@! TD*
G04 #@! TO.P,C283,2*
G04 #@! TO.N,/C1-*
X-35995000Y-2495000D03*
G04 #@! TO.P,C283,1*
G04 #@! TO.N,/C1+*
X-41695000Y-2495000D03*
G04 #@! TD*
G04 #@! TO.P,C282,2*
G04 #@! TO.N,/C1-*
X-62105000Y80995000D03*
G04 #@! TO.P,C282,1*
G04 #@! TO.N,/C1+*
X-56405000Y80995000D03*
G04 #@! TD*
G04 #@! TO.P,C295,2*
G04 #@! TO.N,/C1-*
X-62105000Y8695000D03*
G04 #@! TO.P,C295,1*
G04 #@! TO.N,/C1+*
X-56405000Y8695000D03*
G04 #@! TD*
G04 #@! TO.P,C294,2*
G04 #@! TO.N,/C1-*
X-49595000Y14305000D03*
G04 #@! TO.P,C294,1*
G04 #@! TO.N,/C1+*
X-55295000Y14305000D03*
G04 #@! TD*
G04 #@! TO.P,C293,2*
G04 #@! TO.N,/C1-*
X-22395000Y8705000D03*
G04 #@! TO.P,C293,1*
G04 #@! TO.N,/C1+*
X-28095000Y8705000D03*
G04 #@! TD*
G04 #@! TO.P,C289,2*
G04 #@! TO.N,/C1-*
X-62105000Y75395000D03*
G04 #@! TO.P,C289,1*
G04 #@! TO.N,/C1+*
X-56405000Y75395000D03*
G04 #@! TD*
G04 #@! TO.P,C287,2*
G04 #@! TO.N,/C1-*
X-62105000Y3095000D03*
G04 #@! TO.P,C287,1*
G04 #@! TO.N,/C1+*
X-56405000Y3095000D03*
G04 #@! TD*
G04 #@! TO.P,C286,2*
G04 #@! TO.N,/C1-*
X-49595000Y19905000D03*
G04 #@! TO.P,C286,1*
G04 #@! TO.N,/C1+*
X-55295000Y19905000D03*
G04 #@! TD*
G04 #@! TO.P,C285,2*
G04 #@! TO.N,/C1-*
X-22395000Y14305000D03*
G04 #@! TO.P,C285,1*
G04 #@! TO.N,/C1+*
X-28095000Y14305000D03*
G04 #@! TD*
G04 #@! TO.P,C299,2*
G04 #@! TO.N,/C1-*
X-8795000Y8705000D03*
G04 #@! TO.P,C299,1*
G04 #@! TO.N,/C1+*
X-14495000Y8705000D03*
G04 #@! TD*
G04 #@! TO.P,C298,2*
G04 #@! TO.N,/C1-*
X4905000Y3105000D03*
G04 #@! TO.P,C298,1*
G04 #@! TO.N,/C1+*
X-795000Y3105000D03*
G04 #@! TD*
G04 #@! TO.P,C281,2*
G04 #@! TO.N,/C1-*
X-34905000Y36695000D03*
G04 #@! TO.P,C281,1*
G04 #@! TO.N,/C1+*
X-29205000Y36695000D03*
G04 #@! TD*
G04 #@! TO.P,C296,2*
G04 #@! TO.N,/C1-*
X-62105000Y-2505000D03*
G04 #@! TO.P,C296,1*
G04 #@! TO.N,/C1+*
X-56405000Y-2505000D03*
G04 #@! TD*
G04 #@! TO.P,C377,2*
G04 #@! TO.N,/C1-*
X-49595000Y25505000D03*
G04 #@! TO.P,C377,1*
G04 #@! TO.N,/C1+*
X-55295000Y25505000D03*
G04 #@! TD*
G04 #@! TO.P,C398,2*
G04 #@! TO.N,/C1-*
X-8795000Y14305000D03*
G04 #@! TO.P,C398,1*
G04 #@! TO.N,/C1+*
X-14495000Y14305000D03*
G04 #@! TD*
G04 #@! TO.P,C397,2*
G04 #@! TO.N,/C1-*
X4905000Y8705000D03*
G04 #@! TO.P,C397,1*
G04 #@! TO.N,/C1+*
X-795000Y8705000D03*
G04 #@! TD*
G04 #@! TO.P,C396,2*
G04 #@! TO.N,/C1-*
X-34905000Y31095000D03*
G04 #@! TO.P,C396,1*
G04 #@! TO.N,/C1+*
X-29205000Y31095000D03*
G04 #@! TD*
G04 #@! TO.P,C395,2*
G04 #@! TO.N,/C1-*
X-49595000Y31105000D03*
G04 #@! TO.P,C395,1*
G04 #@! TO.N,/C1+*
X-55295000Y31105000D03*
G04 #@! TD*
G04 #@! TO.P,C390,2*
G04 #@! TO.N,/C1-*
X-21305000Y14295000D03*
G04 #@! TO.P,C390,1*
G04 #@! TO.N,/C1+*
X-15605000Y14295000D03*
G04 #@! TD*
G04 #@! TO.P,C389,2*
G04 #@! TO.N,/C1-*
X-8795000Y19905000D03*
G04 #@! TO.P,C389,1*
G04 #@! TO.N,/C1+*
X-14495000Y19905000D03*
G04 #@! TD*
G04 #@! TO.P,C388,2*
G04 #@! TO.N,/C1-*
X4905000Y14305000D03*
G04 #@! TO.P,C388,1*
G04 #@! TO.N,/C1+*
X-795000Y14305000D03*
G04 #@! TD*
G04 #@! TO.P,C387,2*
G04 #@! TO.N,/C1-*
X-34905000Y25495000D03*
G04 #@! TO.P,C387,1*
G04 #@! TO.N,/C1+*
X-29205000Y25495000D03*
G04 #@! TD*
G04 #@! TO.P,C385,2*
G04 #@! TO.N,/C1-*
X-21305000Y8695000D03*
G04 #@! TO.P,C385,1*
G04 #@! TO.N,/C1+*
X-15605000Y8695000D03*
G04 #@! TD*
G04 #@! TO.P,C384,2*
G04 #@! TO.N,/C1-*
X-8795000Y25505000D03*
G04 #@! TO.P,C384,1*
G04 #@! TO.N,/C1+*
X-14495000Y25505000D03*
G04 #@! TD*
G04 #@! TO.P,C383,2*
G04 #@! TO.N,/C1-*
X4905000Y19905000D03*
G04 #@! TO.P,C383,1*
G04 #@! TO.N,/C1+*
X-795000Y19905000D03*
G04 #@! TD*
G04 #@! TO.P,C382,2*
G04 #@! TO.N,/C1-*
X-34905000Y19895000D03*
G04 #@! TO.P,C382,1*
G04 #@! TO.N,/C1+*
X-29205000Y19895000D03*
G04 #@! TD*
G04 #@! TO.P,C381,2*
G04 #@! TO.N,/C1-*
X-21305000Y3095000D03*
G04 #@! TO.P,C381,1*
G04 #@! TO.N,/C1+*
X-15605000Y3095000D03*
G04 #@! TD*
G04 #@! TO.P,C380,2*
G04 #@! TO.N,/C1-*
X-8795000Y31105000D03*
G04 #@! TO.P,C380,1*
G04 #@! TO.N,/C1+*
X-14495000Y31105000D03*
G04 #@! TD*
G04 #@! TO.P,C379,2*
G04 #@! TO.N,/C1-*
X4905000Y25505000D03*
G04 #@! TO.P,C379,1*
G04 #@! TO.N,/C1+*
X-795000Y25505000D03*
G04 #@! TD*
G04 #@! TO.P,C378,2*
G04 #@! TO.N,/C1-*
X-62105000Y42295000D03*
G04 #@! TO.P,C378,1*
G04 #@! TO.N,/C1+*
X-56405000Y42295000D03*
G04 #@! TD*
G04 #@! TO.P,C392,2*
G04 #@! TO.N,/C1-*
X4905000Y31105000D03*
G04 #@! TO.P,C392,1*
G04 #@! TO.N,/C1+*
X-795000Y31105000D03*
G04 #@! TD*
G04 #@! TO.P,C93,2*
G04 #@! TO.N,/C1-*
X-34905000Y58595000D03*
G04 #@! TO.P,C93,1*
G04 #@! TO.N,/C1+*
X-29205000Y58595000D03*
G04 #@! TD*
G04 #@! TO.P,C92,2*
G04 #@! TO.N,/C1-*
X-35895000Y92205000D03*
G04 #@! TO.P,C92,1*
G04 #@! TO.N,/C1+*
X-41595000Y92205000D03*
G04 #@! TD*
G04 #@! TO.P,C91,2*
G04 #@! TO.N,/C1-*
X-48505000Y42295000D03*
G04 #@! TO.P,C91,1*
G04 #@! TO.N,/C1+*
X-42805000Y42295000D03*
G04 #@! TD*
G04 #@! TO.P,C90,2*
G04 #@! TO.N,/C1-*
X-49595000Y103405000D03*
G04 #@! TO.P,C90,1*
G04 #@! TO.N,/C1+*
X-55295000Y103405000D03*
G04 #@! TD*
G04 #@! TO.P,C89,2*
G04 #@! TO.N,/C1-*
X-8795000Y36705000D03*
G04 #@! TO.P,C89,1*
G04 #@! TO.N,/C1+*
X-14495000Y36705000D03*
G04 #@! TD*
G04 #@! TO.P,C88,2*
G04 #@! TO.N,/C1-*
X-21305000Y92195000D03*
G04 #@! TO.P,C88,1*
G04 #@! TO.N,/C1+*
X-15605000Y92195000D03*
G04 #@! TD*
G04 #@! TO.P,C87,2*
G04 #@! TO.N,/C1-*
X-8795000Y58605000D03*
G04 #@! TO.P,C87,1*
G04 #@! TO.N,/C1+*
X-14495000Y58605000D03*
G04 #@! TD*
G04 #@! TO.P,C86,1*
G04 #@! TO.N,/C1+*
X-1905000Y80995000D03*
G04 #@! TO.P,C86,2*
G04 #@! TO.N,/C1-*
X-7605000Y80995000D03*
G04 #@! TD*
G04 #@! TO.P,C85,2*
G04 #@! TO.N,/C1-*
X4905000Y69805000D03*
G04 #@! TO.P,C85,1*
G04 #@! TO.N,/C1+*
X-795000Y69805000D03*
G04 #@! TD*
G04 #@! TO.P,C84,2*
G04 #@! TO.N,/C1-*
X6095000Y69795000D03*
G04 #@! TO.P,C84,1*
G04 #@! TO.N,/C1+*
X11795000Y69795000D03*
G04 #@! TD*
G04 #@! TO.P,C83,2*
G04 #@! TO.N,/C1-*
X-34905000Y64195000D03*
G04 #@! TO.P,C83,1*
G04 #@! TO.N,/C1+*
X-29205000Y64195000D03*
G04 #@! TD*
G04 #@! TO.P,C82,2*
G04 #@! TO.N,/C1-*
X-35895000Y86605000D03*
G04 #@! TO.P,C82,1*
G04 #@! TO.N,/C1+*
X-41595000Y86605000D03*
G04 #@! TD*
G04 #@! TO.P,C81,2*
G04 #@! TO.N,/C1-*
X-35895000Y81005000D03*
G04 #@! TO.P,C81,1*
G04 #@! TO.N,/C1+*
X-41595000Y81005000D03*
G04 #@! TD*
G04 #@! TO.P,C80,2*
G04 #@! TO.N,/C1-*
X6095000Y64195000D03*
G04 #@! TO.P,C80,1*
G04 #@! TO.N,/C1+*
X11795000Y64195000D03*
G04 #@! TD*
G04 #@! TO.P,C251,2*
G04 #@! TO.N,/C1-*
X-35995000Y3105000D03*
G04 #@! TO.P,C251,1*
G04 #@! TO.N,/C1+*
X-41695000Y3105000D03*
G04 #@! TD*
G04 #@! TO.P,C78,2*
G04 #@! TO.N,/C1-*
X-34905000Y69795000D03*
G04 #@! TO.P,C78,1*
G04 #@! TO.N,/C1+*
X-29205000Y69795000D03*
G04 #@! TD*
G04 #@! TO.P,C77,1*
G04 #@! TO.N,/C1+*
X11795000Y75395000D03*
G04 #@! TO.P,C77,2*
G04 #@! TO.N,/C1-*
X6095000Y75395000D03*
G04 #@! TD*
G04 #@! TO.P,C76,1*
G04 #@! TO.N,/C1+*
X-795000Y64205000D03*
G04 #@! TO.P,C76,2*
G04 #@! TO.N,/C1-*
X4905000Y64205000D03*
G04 #@! TD*
G04 #@! TO.P,C75,1*
G04 #@! TO.N,/C1+*
X-42805000Y58595000D03*
G04 #@! TO.P,C75,2*
G04 #@! TO.N,/C1-*
X-48505000Y58595000D03*
G04 #@! TD*
G04 #@! TO.P,C74,1*
G04 #@! TO.N,/C1+*
X-1905000Y86595000D03*
G04 #@! TO.P,C74,2*
G04 #@! TO.N,/C1-*
X-7605000Y86595000D03*
G04 #@! TD*
G04 #@! TO.P,C72,1*
G04 #@! TO.N,/C1+*
X-15605000Y97795000D03*
G04 #@! TO.P,C72,2*
G04 #@! TO.N,/C1-*
X-21305000Y97795000D03*
G04 #@! TD*
G04 #@! TO.P,C71,1*
G04 #@! TO.N,/C1+*
X-1905000Y3095000D03*
G04 #@! TO.P,C71,2*
G04 #@! TO.N,/C1-*
X-7605000Y3095000D03*
G04 #@! TD*
G04 #@! TO.P,C70,1*
G04 #@! TO.N,/C1+*
X-55295000Y97805000D03*
G04 #@! TO.P,C70,2*
G04 #@! TO.N,/C1-*
X-49595000Y97805000D03*
G04 #@! TD*
G04 #@! TO.P,C68,2*
G04 #@! TO.N,/C1-*
X-22395000Y42305000D03*
G04 #@! TO.P,C68,1*
G04 #@! TO.N,/C1+*
X-28095000Y42305000D03*
G04 #@! TD*
G04 #@! TO.P,C252,2*
G04 #@! TO.N,/C1-*
X-62105000Y36695000D03*
G04 #@! TO.P,C252,1*
G04 #@! TO.N,/C1+*
X-56405000Y36695000D03*
G04 #@! TD*
G04 #@! TO.P,C119,1*
G04 #@! TO.N,/C1+*
X-56405000Y103395000D03*
G04 #@! TO.P,C119,2*
G04 #@! TO.N,/C1-*
X-62105000Y103395000D03*
G04 #@! TD*
G04 #@! TO.P,C118,2*
G04 #@! TO.N,/C1-*
X-22395000Y36705000D03*
G04 #@! TO.P,C118,1*
G04 #@! TO.N,/C1+*
X-28095000Y36705000D03*
G04 #@! TD*
G04 #@! TO.P,C108,2*
G04 #@! TO.N,/C1-*
X-7605000Y31095000D03*
G04 #@! TO.P,C108,1*
G04 #@! TO.N,/C1+*
X-1905000Y31095000D03*
G04 #@! TD*
G04 #@! TO.P,C106,2*
G04 #@! TO.N,/C1-*
X-48505000Y103395000D03*
G04 #@! TO.P,C106,1*
G04 #@! TO.N,/C1+*
X-42805000Y103395000D03*
G04 #@! TD*
G04 #@! TO.P,C105,2*
G04 #@! TO.N,/C1-*
X-62105000Y92195000D03*
G04 #@! TO.P,C105,1*
G04 #@! TO.N,/C1+*
X-56405000Y92195000D03*
G04 #@! TD*
G04 #@! TO.P,C96,1*
G04 #@! TO.N,/C1+*
X-42805000Y97795000D03*
G04 #@! TO.P,C96,2*
G04 #@! TO.N,/C1-*
X-48505000Y97795000D03*
G04 #@! TD*
G04 #@! TO.P,C95,1*
G04 #@! TO.N,/C1+*
X-55295000Y42305000D03*
G04 #@! TO.P,C95,2*
G04 #@! TO.N,/C1-*
X-49595000Y42305000D03*
G04 #@! TD*
G04 #@! TO.P,C22,2*
G04 #@! TO.N,/C1-*
X-22395000Y19905000D03*
G04 #@! TO.P,C22,1*
G04 #@! TO.N,/C1+*
X-28095000Y19905000D03*
G04 #@! TD*
G04 #@! TO.P,C16,2*
G04 #@! TO.N,/C1-*
X-22395000Y25505000D03*
G04 #@! TO.P,C16,1*
G04 #@! TO.N,/C1+*
X-28095000Y25505000D03*
G04 #@! TD*
G04 #@! TO.P,C62,1*
G04 #@! TO.N,/C1+*
X-42805000Y92195000D03*
G04 #@! TO.P,C62,2*
G04 #@! TO.N,/C1-*
X-48505000Y92195000D03*
G04 #@! TD*
G04 #@! TO.P,C2,2*
G04 #@! TO.N,/C1-*
X-35995000Y42305000D03*
G04 #@! TO.P,C2,1*
G04 #@! TO.N,/C1+*
X-41695000Y42305000D03*
G04 #@! TD*
G04 #@! TO.P,C3,1*
G04 #@! TO.N,/C1+*
X11795000Y103395000D03*
G04 #@! TO.P,C3,2*
G04 #@! TO.N,/C1-*
X6095000Y103395000D03*
G04 #@! TD*
G04 #@! TO.P,C4,2*
G04 #@! TO.N,/C1-*
X-34905000Y103395000D03*
G04 #@! TO.P,C4,1*
G04 #@! TO.N,/C1+*
X-29205000Y103395000D03*
G04 #@! TD*
G04 #@! TO.P,C10,2*
G04 #@! TO.N,/C1-*
X-21305000Y-2505000D03*
G04 #@! TO.P,C10,1*
G04 #@! TO.N,/C1+*
X-15605000Y-2505000D03*
G04 #@! TD*
G04 #@! TO.P,C11,2*
G04 #@! TO.N,/C1-*
X-22395000Y31105000D03*
G04 #@! TO.P,C11,1*
G04 #@! TO.N,/C1+*
X-28095000Y31105000D03*
G04 #@! TD*
G04 #@! TO.P,C12,1*
G04 #@! TO.N,/C1+*
X-42805000Y86595000D03*
G04 #@! TO.P,C12,2*
G04 #@! TO.N,/C1-*
X-48505000Y86595000D03*
G04 #@! TD*
G04 #@! TO.P,C14,1*
G04 #@! TO.N,/C1+*
X-29205000Y97795000D03*
G04 #@! TO.P,C14,2*
G04 #@! TO.N,/C1-*
X-34905000Y97795000D03*
G04 #@! TD*
G04 #@! TO.P,C15,1*
G04 #@! TO.N,/C1+*
X-55295000Y75405000D03*
G04 #@! TO.P,C15,2*
G04 #@! TO.N,/C1-*
X-49595000Y75405000D03*
G04 #@! TD*
G04 #@! TO.P,C31,1*
G04 #@! TO.N,/C1+*
X-42805000Y80995000D03*
G04 #@! TO.P,C31,2*
G04 #@! TO.N,/C1-*
X-48505000Y80995000D03*
G04 #@! TD*
G04 #@! TO.P,C61,1*
G04 #@! TO.N,/C1+*
X-41695000Y58605000D03*
G04 #@! TO.P,C61,2*
G04 #@! TO.N,/C1-*
X-35995000Y58605000D03*
G04 #@! TD*
G04 #@! TO.P,C60,1*
G04 #@! TO.N,/C1+*
X-29205000Y92195000D03*
G04 #@! TO.P,C60,2*
G04 #@! TO.N,/C1-*
X-34905000Y92195000D03*
G04 #@! TD*
G04 #@! TO.P,C59,1*
G04 #@! TO.N,/C1+*
X11795000Y97795000D03*
G04 #@! TO.P,C59,2*
G04 #@! TO.N,/C1-*
X6095000Y97795000D03*
G04 #@! TD*
G04 #@! TO.P,C53,1*
G04 #@! TO.N,/C1+*
X-1905000Y25495000D03*
G04 #@! TO.P,C53,2*
G04 #@! TO.N,/C1-*
X-7605000Y25495000D03*
G04 #@! TD*
G04 #@! TO.P,C51,1*
G04 #@! TO.N,/C1+*
X-42805000Y75395000D03*
G04 #@! TO.P,C51,2*
G04 #@! TO.N,/C1-*
X-48505000Y75395000D03*
G04 #@! TD*
G04 #@! TO.P,C50,2*
G04 #@! TO.N,/C1-*
X-35995000Y64205000D03*
G04 #@! TO.P,C50,1*
G04 #@! TO.N,/C1+*
X-41695000Y64205000D03*
G04 #@! TD*
G04 #@! TO.P,C49,2*
G04 #@! TO.N,/C1-*
X-34905000Y86595000D03*
G04 #@! TO.P,C49,1*
G04 #@! TO.N,/C1+*
X-29205000Y86595000D03*
G04 #@! TD*
G04 #@! TO.P,C63,1*
G04 #@! TO.N,/C1+*
X11795000Y92195000D03*
G04 #@! TO.P,C63,2*
G04 #@! TO.N,/C1-*
X6095000Y92195000D03*
G04 #@! TD*
G04 #@! TO.P,C45,1*
G04 #@! TO.N,/C1+*
X-1905000Y103395000D03*
G04 #@! TO.P,C45,2*
G04 #@! TO.N,/C1-*
X-7605000Y103395000D03*
G04 #@! TD*
G04 #@! TO.P,C44,2*
G04 #@! TO.N,/C1-*
X4905000Y42305000D03*
G04 #@! TO.P,C44,1*
G04 #@! TO.N,/C1+*
X-795000Y42305000D03*
G04 #@! TD*
G04 #@! TO.P,C43,2*
G04 #@! TO.N,/C1-*
X-35995000Y36705000D03*
G04 #@! TO.P,C43,1*
G04 #@! TO.N,/C1+*
X-41695000Y36705000D03*
G04 #@! TD*
G04 #@! TO.P,C41,1*
G04 #@! TO.N,/C1+*
X-14495000Y42305000D03*
G04 #@! TO.P,C41,2*
G04 #@! TO.N,/C1-*
X-8795000Y42305000D03*
G04 #@! TD*
G04 #@! TO.P,C40,2*
G04 #@! TO.N,/C1-*
X-21305000Y103395000D03*
G04 #@! TO.P,C40,1*
G04 #@! TO.N,/C1+*
X-15605000Y103395000D03*
G04 #@! TD*
G04 #@! TO.P,C39,2*
G04 #@! TO.N,/C1-*
X-7605000Y8695000D03*
G04 #@! TO.P,C39,1*
G04 #@! TO.N,/C1+*
X-1905000Y8695000D03*
G04 #@! TD*
G04 #@! TO.P,C38,2*
G04 #@! TO.N,/C1-*
X-8795000Y69805000D03*
G04 #@! TO.P,C38,1*
G04 #@! TO.N,/C1+*
X-14495000Y69805000D03*
G04 #@! TD*
G04 #@! TO.P,C37,2*
G04 #@! TO.N,/C1-*
X-7605000Y58595000D03*
G04 #@! TO.P,C37,1*
G04 #@! TO.N,/C1+*
X-1905000Y58595000D03*
G04 #@! TD*
G04 #@! TO.P,C36,1*
G04 #@! TO.N,/C1+*
X-14495000Y81005000D03*
G04 #@! TO.P,C36,2*
G04 #@! TO.N,/C1-*
X-8795000Y81005000D03*
G04 #@! TD*
G04 #@! TO.P,C35,2*
G04 #@! TO.N,/C1-*
X-21305000Y69795000D03*
G04 #@! TO.P,C35,1*
G04 #@! TO.N,/C1+*
X-15605000Y69795000D03*
G04 #@! TD*
G04 #@! TO.P,C34,1*
G04 #@! TO.N,/C1+*
X-28095000Y69805000D03*
G04 #@! TO.P,C34,2*
G04 #@! TO.N,/C1-*
X-22395000Y69805000D03*
G04 #@! TD*
G04 #@! TO.P,C94,2*
G04 #@! TO.N,/C1-*
X6095000Y42295000D03*
G04 #@! TO.P,C94,1*
G04 #@! TO.N,/C1+*
X11795000Y42295000D03*
G04 #@! TD*
G04 #@! TO.P,C32,1*
G04 #@! TO.N,/C1+*
X-795000Y97805000D03*
G04 #@! TO.P,C32,2*
G04 #@! TO.N,/C1-*
X4905000Y97805000D03*
G04 #@! TD*
G04 #@! TO.P,C46,2*
G04 #@! TO.N,/C1-*
X-22395000Y86605000D03*
G04 #@! TO.P,C46,1*
G04 #@! TO.N,/C1+*
X-28095000Y86605000D03*
G04 #@! TD*
G04 #@! TO.P,C215,2*
G04 #@! TO.N,/C1-*
X-48405000Y-2505000D03*
G04 #@! TO.P,C215,1*
G04 #@! TO.N,/C1+*
X-42705000Y-2505000D03*
G04 #@! TD*
G04 #@! TO.P,C213,2*
G04 #@! TO.N,/C1-*
X-35995000Y14305000D03*
G04 #@! TO.P,C213,1*
G04 #@! TO.N,/C1+*
X-41695000Y14305000D03*
G04 #@! TD*
G04 #@! TO.P,C212,2*
G04 #@! TO.N,/C1-*
X-48505000Y19895000D03*
G04 #@! TO.P,C212,1*
G04 #@! TO.N,/C1+*
X-42805000Y19895000D03*
G04 #@! TD*
G04 #@! TO.P,C211,2*
G04 #@! TO.N,/C1-*
X-34905000Y14295000D03*
G04 #@! TO.P,C211,1*
G04 #@! TO.N,/C1+*
X-29205000Y14295000D03*
G04 #@! TD*
G04 #@! TO.P,C209,2*
G04 #@! TO.N,/C1-*
X-62105000Y31095000D03*
G04 #@! TO.P,C209,1*
G04 #@! TO.N,/C1+*
X-56405000Y31095000D03*
G04 #@! TD*
G04 #@! TO.P,C125,1*
G04 #@! TO.N,/C1+*
X-15605000Y64195000D03*
G04 #@! TO.P,C125,2*
G04 #@! TO.N,/C1-*
X-21305000Y64195000D03*
G04 #@! TD*
G04 #@! TO.P,C203,2*
G04 #@! TO.N,/C1-*
X-35995000Y8705000D03*
G04 #@! TO.P,C203,1*
G04 #@! TO.N,/C1+*
X-41695000Y8705000D03*
G04 #@! TD*
G04 #@! TO.P,C201,2*
G04 #@! TO.N,/C1-*
X-48505000Y25495000D03*
G04 #@! TO.P,C201,1*
G04 #@! TO.N,/C1+*
X-42805000Y25495000D03*
G04 #@! TD*
G04 #@! TO.P,C200,2*
G04 #@! TO.N,/C1-*
X-22395000Y75405000D03*
G04 #@! TO.P,C200,1*
G04 #@! TO.N,/C1+*
X-28095000Y75405000D03*
G04 #@! TD*
G04 #@! TO.P,C199,2*
G04 #@! TO.N,/C1-*
X4905000Y103405000D03*
G04 #@! TO.P,C199,1*
G04 #@! TO.N,/C1+*
X-795000Y103405000D03*
G04 #@! TD*
G04 #@! TO.P,C198,2*
G04 #@! TO.N,/C1-*
X-22395000Y103405000D03*
G04 #@! TO.P,C198,1*
G04 #@! TO.N,/C1+*
X-28095000Y103405000D03*
G04 #@! TD*
G04 #@! TO.P,C197,2*
G04 #@! TO.N,/C1-*
X-8795000Y92205000D03*
G04 #@! TO.P,C197,1*
G04 #@! TO.N,/C1+*
X-14495000Y92205000D03*
G04 #@! TD*
G04 #@! TO.P,C196,2*
G04 #@! TO.N,/C1-*
X-21305000Y58595000D03*
G04 #@! TO.P,C196,1*
G04 #@! TO.N,/C1+*
X-15605000Y58595000D03*
G04 #@! TD*
G04 #@! TO.P,C195,2*
G04 #@! TO.N,/C1-*
X-22395000Y81005000D03*
G04 #@! TO.P,C195,1*
G04 #@! TO.N,/C1+*
X-28095000Y81005000D03*
G04 #@! TD*
G04 #@! TO.P,C194,2*
G04 #@! TO.N,/C1-*
X-7605000Y42295000D03*
G04 #@! TO.P,C194,1*
G04 #@! TO.N,/C1+*
X-1905000Y42295000D03*
G04 #@! TD*
G04 #@! TO.P,C193,2*
G04 #@! TO.N,/C1-*
X-8795000Y97805000D03*
G04 #@! TO.P,C193,1*
G04 #@! TO.N,/C1+*
X-14495000Y97805000D03*
G04 #@! TD*
G04 #@! TO.P,C191,2*
G04 #@! TO.N,/C1-*
X-8795000Y86605000D03*
G04 #@! TO.P,C191,1*
G04 #@! TO.N,/C1+*
X-14495000Y86605000D03*
G04 #@! TD*
G04 #@! TO.P,C190,2*
G04 #@! TO.N,/C1-*
X-7605000Y19895000D03*
G04 #@! TO.P,C190,1*
G04 #@! TO.N,/C1+*
X-1905000Y19895000D03*
G04 #@! TD*
G04 #@! TO.P,C126,1*
G04 #@! TO.N,/C1+*
X-55295000Y81005000D03*
G04 #@! TO.P,C126,2*
G04 #@! TO.N,/C1-*
X-49595000Y81005000D03*
G04 #@! TD*
G04 #@! TO.P,C48,1*
G04 #@! TO.N,/C1+*
X-42805000Y69795000D03*
G04 #@! TO.P,C48,2*
G04 #@! TO.N,/C1-*
X-48505000Y69795000D03*
G04 #@! TD*
G04 #@! TO.P,C155,2*
G04 #@! TO.N,/C1-*
X-34905000Y80995000D03*
G04 #@! TO.P,C155,1*
G04 #@! TO.N,/C1+*
X-29205000Y80995000D03*
G04 #@! TD*
G04 #@! TO.P,C154,2*
G04 #@! TO.N,/C1-*
X6095000Y86595000D03*
G04 #@! TO.P,C154,1*
G04 #@! TO.N,/C1+*
X11795000Y86595000D03*
G04 #@! TD*
G04 #@! TO.P,C152,2*
G04 #@! TO.N,/C1-*
X-7605000Y97795000D03*
G04 #@! TO.P,C152,1*
G04 #@! TO.N,/C1+*
X-1905000Y97795000D03*
G04 #@! TD*
G04 #@! TO.P,C149,2*
G04 #@! TO.N,/C1-*
X-49595000Y92205000D03*
G04 #@! TO.P,C149,1*
G04 #@! TO.N,/C1+*
X-55295000Y92205000D03*
G04 #@! TD*
G04 #@! TO.P,C148,2*
G04 #@! TO.N,/C1-*
X-7605000Y14295000D03*
G04 #@! TO.P,C148,1*
G04 #@! TO.N,/C1+*
X-1905000Y14295000D03*
G04 #@! TD*
G04 #@! TO.P,C147,2*
G04 #@! TO.N,/C1-*
X-49595000Y86605000D03*
G04 #@! TO.P,C147,1*
G04 #@! TO.N,/C1+*
X-55295000Y86605000D03*
G04 #@! TD*
G04 #@! TO.P,C146,2*
G04 #@! TO.N,/C1-*
X-48505000Y64195000D03*
G04 #@! TO.P,C146,1*
G04 #@! TO.N,/C1+*
X-42805000Y64195000D03*
G04 #@! TD*
G04 #@! TO.P,C145,2*
G04 #@! TO.N,/C1-*
X-35895000Y75405000D03*
G04 #@! TO.P,C145,1*
G04 #@! TO.N,/C1+*
X-41595000Y75405000D03*
G04 #@! TD*
G04 #@! TO.P,C144,2*
G04 #@! TO.N,/C1-*
X-34905000Y75395000D03*
G04 #@! TO.P,C144,1*
G04 #@! TO.N,/C1+*
X-29205000Y75395000D03*
G04 #@! TD*
G04 #@! TO.P,C143,2*
G04 #@! TO.N,/C1-*
X6095000Y80995000D03*
G04 #@! TO.P,C143,1*
G04 #@! TO.N,/C1+*
X11795000Y80995000D03*
G04 #@! TD*
G04 #@! TO.P,C142,2*
G04 #@! TO.N,/C1-*
X4905000Y58605000D03*
G04 #@! TO.P,C142,1*
G04 #@! TO.N,/C1+*
X-795000Y58605000D03*
G04 #@! TD*
G04 #@! TO.P,C188,2*
G04 #@! TO.N,/C1-*
X-7605000Y92195000D03*
G04 #@! TO.P,C188,1*
G04 #@! TO.N,/C1+*
X-1905000Y92195000D03*
G04 #@! TD*
G04 #@! TO.P,C140,2*
G04 #@! TO.N,/C1-*
X4905000Y36705000D03*
G04 #@! TO.P,C140,1*
G04 #@! TO.N,/C1+*
X-795000Y36705000D03*
G04 #@! TD*
G04 #@! TO.P,C137,1*
G04 #@! TO.N,/C1+*
X-795000Y86605000D03*
G04 #@! TO.P,C137,2*
G04 #@! TO.N,/C1-*
X4905000Y86605000D03*
G04 #@! TD*
G04 #@! TO.P,C136,1*
G04 #@! TO.N,/C1+*
X-1905000Y64195000D03*
G04 #@! TO.P,C136,2*
G04 #@! TO.N,/C1-*
X-7605000Y64195000D03*
G04 #@! TD*
G04 #@! TO.P,C135,1*
G04 #@! TO.N,/C1+*
X-14495000Y75405000D03*
G04 #@! TO.P,C135,2*
G04 #@! TO.N,/C1-*
X-8795000Y75405000D03*
G04 #@! TD*
G04 #@! TO.P,C134,1*
G04 #@! TO.N,/C1+*
X-15605000Y75395000D03*
G04 #@! TO.P,C134,2*
G04 #@! TO.N,/C1-*
X-21305000Y75395000D03*
G04 #@! TD*
G04 #@! TO.P,C133,1*
G04 #@! TO.N,/C1+*
X-28095000Y64205000D03*
G04 #@! TO.P,C133,2*
G04 #@! TO.N,/C1-*
X-22395000Y64205000D03*
G04 #@! TD*
G04 #@! TO.P,C132,1*
G04 #@! TO.N,/C1+*
X-29205000Y42295000D03*
G04 #@! TO.P,C132,2*
G04 #@! TO.N,/C1-*
X-34905000Y42295000D03*
G04 #@! TD*
G04 #@! TO.P,C131,2*
G04 #@! TO.N,/C1-*
X-21305000Y31095000D03*
G04 #@! TO.P,C131,1*
G04 #@! TO.N,/C1+*
X-15605000Y31095000D03*
G04 #@! TD*
G04 #@! TO.P,C189,2*
G04 #@! TO.N,/C1-*
X-62105000Y97795000D03*
G04 #@! TO.P,C189,1*
G04 #@! TO.N,/C1+*
X-56405000Y97795000D03*
G04 #@! TD*
G04 #@! TO.P,C180,2*
G04 #@! TO.N,/C1-*
X-49595000Y36705000D03*
G04 #@! TO.P,C180,1*
G04 #@! TO.N,/C1+*
X-55295000Y36705000D03*
G04 #@! TD*
G04 #@! TO.P,C179,2*
G04 #@! TO.N,/C1-*
X-8795000Y103405000D03*
G04 #@! TO.P,C179,1*
G04 #@! TO.N,/C1+*
X-14495000Y103405000D03*
G04 #@! TD*
G04 #@! TO.P,C178,2*
G04 #@! TO.N,/C1-*
X-7605000Y36695000D03*
G04 #@! TO.P,C178,1*
G04 #@! TO.N,/C1+*
X-1905000Y36695000D03*
G04 #@! TD*
G04 #@! TO.P,C177,2*
G04 #@! TO.N,/C1-*
X-22395000Y92205000D03*
G04 #@! TO.P,C177,1*
G04 #@! TO.N,/C1+*
X-28095000Y92205000D03*
G04 #@! TD*
G04 #@! TO.P,C176,2*
G04 #@! TO.N,/C1-*
X-21305000Y42295000D03*
G04 #@! TO.P,C176,1*
G04 #@! TO.N,/C1+*
X-15605000Y42295000D03*
G04 #@! TD*
G04 #@! TO.P,C175,2*
G04 #@! TO.N,/C1-*
X-22395000Y97805000D03*
G04 #@! TO.P,C175,1*
G04 #@! TO.N,/C1+*
X-28095000Y97805000D03*
G04 #@! TD*
G04 #@! TO.P,C157,2*
G04 #@! TO.N,/C1-*
X6095000Y36695000D03*
G04 #@! TO.P,C157,1*
G04 #@! TO.N,/C1+*
X11795000Y36695000D03*
G04 #@! TD*
G04 #@! TO.P,C156,2*
G04 #@! TO.N,/C1-*
X4905000Y75405000D03*
G04 #@! TO.P,C156,1*
G04 #@! TO.N,/C1+*
X-795000Y75405000D03*
G04 #@! TD*
G04 #@! TO.P,C171,2*
G04 #@! TO.N,/C1-*
X-7605000Y75395000D03*
G04 #@! TO.P,C171,1*
G04 #@! TO.N,/C1+*
X-1905000Y75395000D03*
G04 #@! TD*
G04 #@! TO.P,C170,2*
G04 #@! TO.N,/C1-*
X-8795000Y64205000D03*
G04 #@! TO.P,C170,1*
G04 #@! TO.N,/C1+*
X-14495000Y64205000D03*
G04 #@! TD*
G04 #@! TO.P,C169,2*
G04 #@! TO.N,/C1-*
X-21305000Y86595000D03*
G04 #@! TO.P,C169,1*
G04 #@! TO.N,/C1+*
X-15605000Y86595000D03*
G04 #@! TD*
G04 #@! TO.P,C168,2*
G04 #@! TO.N,/C1-*
X-21305000Y36695000D03*
G04 #@! TO.P,C168,1*
G04 #@! TO.N,/C1+*
X-15605000Y36695000D03*
G04 #@! TD*
G04 #@! TO.P,C167,2*
G04 #@! TO.N,/C1-*
X-48505000Y36695000D03*
G04 #@! TO.P,C167,1*
G04 #@! TO.N,/C1+*
X-42805000Y36695000D03*
G04 #@! TD*
G04 #@! TO.P,C166,2*
G04 #@! TO.N,/C1-*
X-35895000Y97805000D03*
G04 #@! TO.P,C166,1*
G04 #@! TO.N,/C1+*
X-41595000Y97805000D03*
G04 #@! TD*
G04 #@! TO.P,C164,2*
G04 #@! TO.N,/C1-*
X6095000Y58595000D03*
G04 #@! TO.P,C164,1*
G04 #@! TO.N,/C1+*
X11795000Y58595000D03*
G04 #@! TD*
G04 #@! TO.P,C163,1*
G04 #@! TO.N,/C1+*
X-795000Y81005000D03*
G04 #@! TO.P,C163,2*
G04 #@! TO.N,/C1-*
X4905000Y81005000D03*
G04 #@! TD*
G04 #@! TO.P,C162,2*
G04 #@! TO.N,/C1-*
X-7605000Y69795000D03*
G04 #@! TO.P,C162,1*
G04 #@! TO.N,/C1+*
X-1905000Y69795000D03*
G04 #@! TD*
G04 #@! TO.P,C161,2*
G04 #@! TO.N,/C1-*
X4905000Y92205000D03*
G04 #@! TO.P,C161,1*
G04 #@! TO.N,/C1+*
X-795000Y92205000D03*
G04 #@! TD*
G04 #@! TO.P,C160,2*
G04 #@! TO.N,/C1-*
X-21305000Y80995000D03*
G04 #@! TO.P,C160,1*
G04 #@! TO.N,/C1+*
X-15605000Y80995000D03*
G04 #@! TD*
G04 #@! TO.P,C174,2*
G04 #@! TO.N,/C1-*
X-22395000Y58605000D03*
G04 #@! TO.P,C174,1*
G04 #@! TO.N,/C1+*
X-28095000Y58605000D03*
G04 #@! TD*
G04 #@! TO.P,C172,2*
G04 #@! TO.N,/C1-*
X-35895000Y103405000D03*
G04 #@! TO.P,C172,1*
G04 #@! TO.N,/C1+*
X-41595000Y103405000D03*
G04 #@! TD*
G04 #@! TO.P,C158,2*
G04 #@! TO.N,/C1-*
X-35995000Y69805000D03*
G04 #@! TO.P,C158,1*
G04 #@! TO.N,/C1+*
X-41695000Y69805000D03*
G04 #@! TD*
D12*
G04 #@! TO.P,TP3,1*
G04 #@! TO.N,/C2+*
X28400000Y34000000D03*
D13*
X30800000Y34000000D03*
X30097056Y32302944D03*
X28400000Y31600000D03*
X26702944Y32302944D03*
X26000000Y34000000D03*
X26702944Y35697056D03*
X28400000Y36400000D03*
X30097056Y35697056D03*
G04 #@! TD*
D12*
G04 #@! TO.P,TP4,1*
G04 #@! TO.N,/C2-*
X28400000Y24500000D03*
D13*
X30800000Y24500000D03*
X30097056Y22802944D03*
X28400000Y22100000D03*
X26702944Y22802944D03*
X26000000Y24500000D03*
X26702944Y26197056D03*
X28400000Y26900000D03*
X30097056Y26197056D03*
G04 #@! TD*
D12*
G04 #@! TO.P,TP1,1*
G04 #@! TO.N,/C1+*
X-60000000Y55000000D03*
D13*
X-57600000Y55000000D03*
X-58302944Y53302944D03*
X-60000000Y52600000D03*
X-61697056Y53302944D03*
X-62400000Y55000000D03*
X-61697056Y56697056D03*
X-60000000Y57400000D03*
X-58302944Y56697056D03*
G04 #@! TD*
D12*
G04 #@! TO.P,TP2,1*
G04 #@! TO.N,/C1-*
X-60000000Y66000000D03*
D13*
X-57600000Y66000000D03*
X-58302944Y64302944D03*
X-60000000Y63600000D03*
X-61697056Y64302944D03*
X-62400000Y66000000D03*
X-61697056Y67697056D03*
X-60000000Y68400000D03*
X-58302944Y67697056D03*
G04 #@! TD*
D10*
G04 #@! TO.P,REF\002A\002A,~*
G04 #@! TO.N,N/C*
X15800000Y104500000D03*
G04 #@! TD*
D14*
G04 #@! TO.N,/C1-*
X-22400000Y103400000D03*
X-22400000Y97800000D03*
X-22400000Y92200000D03*
X-22400000Y86600000D03*
X-22400000Y81000000D03*
X-22400000Y75400000D03*
X-22400000Y69800000D03*
X-22400000Y64200000D03*
X-22400000Y58600000D03*
X-8800000Y36700000D03*
X-22400000Y42300000D03*
X-22400000Y105100000D03*
X-22400000Y99500000D03*
X-22400000Y93900000D03*
X-22400000Y88300000D03*
X-22400000Y82700000D03*
X-22400000Y77100000D03*
X-22400000Y71500000D03*
X-22400000Y65900000D03*
X-22400000Y60300000D03*
X-8800000Y38400000D03*
X-22400000Y44000000D03*
X-22400000Y101700000D03*
X-22400000Y96100000D03*
X-22400000Y90500000D03*
X-22400000Y84900000D03*
X-22400000Y79300000D03*
X-22400000Y73700000D03*
X-22400000Y68100000D03*
X-22400000Y62500000D03*
X-22400000Y56900000D03*
X-8800000Y35000000D03*
X-22400000Y40600000D03*
X-34900000Y101700000D03*
X-34900000Y96100000D03*
X-34900000Y90500000D03*
X-34900000Y84900000D03*
X-34900000Y79300000D03*
X-34900000Y73700000D03*
X-34900000Y68100000D03*
X-34900000Y62500000D03*
X-34900000Y56900000D03*
X-21300000Y35000000D03*
X-34900000Y40600000D03*
X-34900000Y103400000D03*
X-34900000Y97800000D03*
X-34900000Y92200000D03*
X-34900000Y86600000D03*
X-34900000Y81000000D03*
X-34900000Y75400000D03*
X-34900000Y69800000D03*
X-34900000Y64200000D03*
X-34900000Y58600000D03*
X-21300000Y36700000D03*
X-34900000Y42300000D03*
X-34900000Y105100000D03*
X-34900000Y99500000D03*
X-34900000Y93900000D03*
X-34900000Y88300000D03*
X-34900000Y82700000D03*
X-34900000Y77100000D03*
X-34900000Y71500000D03*
X-34900000Y65900000D03*
X-34900000Y60300000D03*
X-21300000Y38400000D03*
X-34900000Y44000000D03*
X-36000000Y103400000D03*
X-36000000Y97800000D03*
X-36000000Y92200000D03*
X-36000000Y86600000D03*
X-36000000Y81000000D03*
X-36000000Y75400000D03*
X-36000000Y69800000D03*
X-36000000Y64200000D03*
X-36000000Y58600000D03*
X-36000000Y42300000D03*
X-36000000Y101700000D03*
X-36000000Y96100000D03*
X-36000000Y90500000D03*
X-36000000Y84900000D03*
X-36000000Y79300000D03*
X-36000000Y73700000D03*
X-36000000Y68100000D03*
X-36000000Y62500000D03*
X-36000000Y56900000D03*
X-36000000Y40600000D03*
X-36000000Y105100000D03*
X-36000000Y99500000D03*
X-36000000Y93900000D03*
X-36000000Y88300000D03*
X-36000000Y82700000D03*
X-36000000Y77100000D03*
X-36000000Y71500000D03*
X-36000000Y65900000D03*
X-36000000Y60300000D03*
X-36000000Y44000000D03*
X-48500000Y101700000D03*
X-48500000Y96100000D03*
X-48500000Y90500000D03*
X-48500000Y84900000D03*
X-48500000Y79300000D03*
X-48500000Y73700000D03*
X-48500000Y68100000D03*
X-48500000Y62500000D03*
X-48500000Y56900000D03*
X-48500000Y35000000D03*
X-48500000Y40600000D03*
X-48500000Y103400000D03*
X-48500000Y97800000D03*
X-48500000Y92200000D03*
X-48500000Y86600000D03*
X-48500000Y81000000D03*
X-48500000Y75400000D03*
X-48500000Y69800000D03*
X-48500000Y64200000D03*
X-48500000Y58600000D03*
X-48500000Y36700000D03*
X-48500000Y42300000D03*
X-48500000Y105100000D03*
X-48500000Y99500000D03*
X-48500000Y93900000D03*
X-48500000Y88300000D03*
X-48500000Y82700000D03*
X-48500000Y77100000D03*
X-48500000Y71500000D03*
X-48500000Y65900000D03*
X-48500000Y60300000D03*
X-48500000Y38400000D03*
X-48500000Y44000000D03*
X-49600000Y105100000D03*
X-49600000Y99500000D03*
X-49600000Y93900000D03*
X-49600000Y88300000D03*
X-49600000Y82700000D03*
X-49600000Y77100000D03*
X-49600000Y38400000D03*
X-49600000Y44000000D03*
X-49600000Y103400000D03*
X-49600000Y97800000D03*
X-49600000Y92200000D03*
X-49600000Y86600000D03*
X-49600000Y81000000D03*
X-49600000Y75400000D03*
X-49600000Y36700000D03*
X-49600000Y42300000D03*
X-49600000Y101700000D03*
X-49600000Y96100000D03*
X-49600000Y90500000D03*
X-49600000Y84900000D03*
X-49600000Y79300000D03*
X-49600000Y73700000D03*
X-49600000Y35000000D03*
X-49600000Y40600000D03*
X-62100000Y101700000D03*
X-62100000Y96100000D03*
X-62100000Y90500000D03*
X-62100000Y84900000D03*
X-62100000Y79300000D03*
X-62100000Y73700000D03*
X-62100000Y35000000D03*
X-62100000Y40600000D03*
X-62100000Y103400000D03*
X-62100000Y97800000D03*
X-62100000Y92200000D03*
X-62100000Y86600000D03*
X-62100000Y81000000D03*
X-62100000Y75400000D03*
X-62100000Y36700000D03*
X-62100000Y42300000D03*
X-62100000Y105100000D03*
X-62100000Y99500000D03*
X-62100000Y93900000D03*
X-62100000Y88300000D03*
X-62100000Y82700000D03*
X-62100000Y77100000D03*
X-62100000Y38400000D03*
X-62100000Y44000000D03*
X-21300000Y105100000D03*
X-21300000Y99500000D03*
X-21300000Y93900000D03*
X-21300000Y88300000D03*
X-21300000Y82700000D03*
X-21300000Y77100000D03*
X-21300000Y71500000D03*
X-21300000Y65900000D03*
X-21300000Y60300000D03*
X-7600000Y38400000D03*
X-21300000Y44000000D03*
X-21300000Y103400000D03*
X-21300000Y97800000D03*
X-21300000Y92200000D03*
X-21300000Y86600000D03*
X-21300000Y81000000D03*
X-21300000Y75400000D03*
X-21300000Y69800000D03*
X-21300000Y64200000D03*
X-21300000Y58600000D03*
X-7600000Y36700000D03*
X-21300000Y42300000D03*
X-21300000Y101700000D03*
X-21300000Y96100000D03*
X-21300000Y90500000D03*
X-21300000Y84900000D03*
X-21300000Y79300000D03*
X-21300000Y73700000D03*
X-21300000Y68100000D03*
X-21300000Y62500000D03*
X-21300000Y56900000D03*
X-7600000Y35000000D03*
X-21300000Y40600000D03*
X-8800000Y101700000D03*
X-8800000Y96100000D03*
X-8800000Y90500000D03*
X-8800000Y84900000D03*
X-8800000Y79300000D03*
X-8800000Y73700000D03*
X-8800000Y68100000D03*
X-8800000Y62500000D03*
X-8800000Y56900000D03*
X4900000Y35000000D03*
X-8800000Y40600000D03*
X-8800000Y105100000D03*
X-8800000Y99500000D03*
X-8800000Y93900000D03*
X-8800000Y88300000D03*
X-8800000Y82700000D03*
X-8800000Y77100000D03*
X-8800000Y71500000D03*
X-8800000Y65900000D03*
X-8800000Y60300000D03*
X4900000Y38400000D03*
X-8800000Y44000000D03*
X-8800000Y103400000D03*
X-8800000Y97800000D03*
X-8800000Y92200000D03*
X-8800000Y86600000D03*
X-8800000Y81000000D03*
X-8800000Y75400000D03*
X-8800000Y69800000D03*
X-8800000Y64200000D03*
X-8800000Y58600000D03*
X4900000Y36700000D03*
X-8800000Y42300000D03*
X-7600000Y103400000D03*
X-7600000Y97800000D03*
X-7600000Y92200000D03*
X-7600000Y86600000D03*
X-7600000Y81000000D03*
X-7600000Y75400000D03*
X-7600000Y69800000D03*
X-7600000Y64200000D03*
X-7600000Y58600000D03*
X6100000Y36700000D03*
X-7600000Y42300000D03*
X-7600000Y101700000D03*
X-7600000Y96100000D03*
X-7600000Y90500000D03*
X-7600000Y84900000D03*
X-7600000Y79300000D03*
X-7600000Y73700000D03*
X-7600000Y68100000D03*
X-7600000Y62500000D03*
X-7600000Y56900000D03*
X6100000Y35000000D03*
X-7600000Y40600000D03*
X-7600000Y105100000D03*
X-7600000Y99500000D03*
X-7600000Y93900000D03*
X-7600000Y88300000D03*
X-7600000Y82700000D03*
X-7600000Y77100000D03*
X-7600000Y71500000D03*
X-7600000Y65900000D03*
X-7600000Y60300000D03*
X6100000Y38400000D03*
X-7600000Y44000000D03*
X4900000Y103400000D03*
X4900000Y97800000D03*
X4900000Y92200000D03*
X4900000Y86600000D03*
X4900000Y81000000D03*
X4900000Y75400000D03*
X4900000Y69800000D03*
X4900000Y64200000D03*
X4900000Y58600000D03*
X-35994000Y31144000D03*
X4900000Y42300000D03*
X4900000Y105100000D03*
X4900000Y99500000D03*
X4900000Y93900000D03*
X4900000Y88300000D03*
X4900000Y82700000D03*
X4900000Y77100000D03*
X4900000Y71500000D03*
X4900000Y65900000D03*
X4900000Y60300000D03*
X-35994000Y32844000D03*
X4900000Y44000000D03*
X4900000Y101700000D03*
X4900000Y96100000D03*
X4900000Y90500000D03*
X4900000Y84900000D03*
X4900000Y79300000D03*
X4900000Y73700000D03*
X4900000Y68100000D03*
X4900000Y62500000D03*
X4900000Y56900000D03*
X-35994000Y29444000D03*
X4900000Y40600000D03*
X6000000Y103400000D03*
X6000000Y97800000D03*
X6000000Y92200000D03*
X6000000Y86600000D03*
X6000000Y81000000D03*
X6000000Y75400000D03*
X6000000Y69800000D03*
X6000000Y64200000D03*
X6000000Y58600000D03*
X-21432000Y31144000D03*
X6000000Y42300000D03*
X6000000Y105100000D03*
X6000000Y99500000D03*
X6000000Y93900000D03*
X6000000Y88300000D03*
X6000000Y82700000D03*
X6000000Y77100000D03*
X6000000Y71500000D03*
X6000000Y65900000D03*
X6000000Y60300000D03*
X-21432000Y32844000D03*
X6000000Y44000000D03*
X6000000Y101700000D03*
X6000000Y96100000D03*
X6000000Y90500000D03*
X6000000Y84900000D03*
X6000000Y79300000D03*
X6000000Y73700000D03*
X6000000Y68100000D03*
X6000000Y62500000D03*
X6000000Y56900000D03*
X-21432000Y29444000D03*
X6000000Y40600000D03*
X4900000Y32800000D03*
X4900000Y31100000D03*
X4900000Y29400000D03*
X4900000Y27200000D03*
X4900000Y21600000D03*
X4900000Y10400000D03*
X4900000Y4800000D03*
X4900000Y23800000D03*
X4900000Y18200000D03*
X4900000Y12600000D03*
X4900000Y7000000D03*
X4900000Y1400000D03*
X4900000Y25500000D03*
X4900000Y19900000D03*
X4900000Y14300000D03*
X4900000Y8700000D03*
X4900000Y3100000D03*
X-7600000Y29400000D03*
X-7600000Y31100000D03*
X-7600000Y32800000D03*
X-7600000Y23800000D03*
X-7600000Y18200000D03*
X-7600000Y12600000D03*
X-7600000Y7000000D03*
X-7600000Y1400000D03*
X-7600000Y27200000D03*
X-7600000Y21600000D03*
X-7600000Y16000000D03*
X-7600000Y10400000D03*
X-7600000Y4800000D03*
X-7600000Y25500000D03*
X-7600000Y19900000D03*
X-7600000Y14300000D03*
X-7600000Y8700000D03*
X-7600000Y3100000D03*
X-8800000Y29400000D03*
X-8800000Y32800000D03*
X-8800000Y31100000D03*
X-8800000Y25500000D03*
X-8800000Y19900000D03*
X-8800000Y14300000D03*
X-8800000Y8700000D03*
X-8800000Y3100000D03*
X-8800000Y23800000D03*
X-8800000Y18200000D03*
X-8800000Y12600000D03*
X-8800000Y7000000D03*
X-8800000Y1400000D03*
X-8800000Y27200000D03*
X-8800000Y21600000D03*
X-8800000Y16000000D03*
X-8800000Y10400000D03*
X-8800000Y4800000D03*
X-21300000Y16000000D03*
X-21300000Y10400000D03*
X-21300000Y4800000D03*
X-21300000Y14300000D03*
X-21300000Y8700000D03*
X-21300000Y3100000D03*
X-21300000Y12600000D03*
X-21300000Y7000000D03*
X-21300000Y1400000D03*
X-22400000Y4800000D03*
X-22400000Y3100000D03*
X-22400000Y16000000D03*
X-22400000Y10400000D03*
X-22400000Y12600000D03*
X-22400000Y7000000D03*
X-22400000Y1400000D03*
X-22400000Y14300000D03*
X-22400000Y8700000D03*
X-34900000Y16000000D03*
X-34900000Y10400000D03*
X-34900000Y4800000D03*
X-34900000Y-800000D03*
X-34900000Y12600000D03*
X-34900000Y1400000D03*
X-34900000Y-4200000D03*
X-34900000Y14300000D03*
X-34900000Y3100000D03*
X-34900000Y-2500000D03*
X-36000000Y10400000D03*
X-36000000Y4800000D03*
X-34900000Y-800000D03*
X-36000000Y-800000D03*
X-34900000Y7000000D03*
X-34900000Y1400000D03*
X-34900000Y-4200000D03*
X-36000000Y-4200000D03*
X-34900000Y8700000D03*
X-36000000Y8700000D03*
X-34900000Y-2500000D03*
X-36000000Y-2500000D03*
X-36000000Y25500000D03*
X-36000000Y27200000D03*
X-36000000Y21600000D03*
X-36000000Y16000000D03*
X-36000000Y23800000D03*
X-36000000Y18200000D03*
X-36000000Y12600000D03*
X-36000000Y7000000D03*
X-36000000Y1400000D03*
X-36000000Y19900000D03*
X-36000000Y14300000D03*
X-36000000Y3100000D03*
X-48500000Y32800000D03*
X-48400000Y10400000D03*
X-48500000Y29400000D03*
X-48500000Y23800000D03*
X-48500000Y31100000D03*
X-48400000Y14300000D03*
X-48400000Y3100000D03*
X-49600000Y29400000D03*
X-49600000Y23800000D03*
X-48500000Y18200000D03*
X-48400000Y12600000D03*
X-48400000Y7000000D03*
X-49600000Y7000000D03*
X-48400000Y1400000D03*
X-49600000Y31100000D03*
X-48500000Y25500000D03*
X-48500000Y19900000D03*
X-49600000Y19900000D03*
X-48400000Y8700000D03*
X-49600000Y32800000D03*
X-48500000Y27200000D03*
X-48500000Y21600000D03*
X-48400000Y16000000D03*
X-49600000Y16000000D03*
X-49600000Y10400000D03*
X-48400000Y4800000D03*
X-49600000Y4800000D03*
X-49600000Y25500000D03*
X-49600000Y14300000D03*
X-49600000Y8700000D03*
X-49600000Y3100000D03*
X-49600000Y27200000D03*
X-49600000Y21600000D03*
X-49600000Y18200000D03*
X-49600000Y12600000D03*
X-49600000Y1400000D03*
X-62100000Y32800000D03*
X-62100000Y27200000D03*
X-62100000Y21600000D03*
X-62100000Y16000000D03*
X-62100000Y10400000D03*
X-62100000Y4800000D03*
X-62100000Y29400000D03*
X-62100000Y23800000D03*
X-62100000Y18200000D03*
X-62100000Y12600000D03*
X-62100000Y7000000D03*
X-62100000Y1400000D03*
X-62100000Y31100000D03*
X-62100000Y25500000D03*
X-62100000Y19900000D03*
X-62100000Y14300000D03*
X-62100000Y8700000D03*
X-62100000Y3100000D03*
X-21300000Y-800000D03*
X-21300000Y-4200000D03*
X-21300000Y-2500000D03*
X-22400000Y-800000D03*
X-22400000Y-2500000D03*
X-22400000Y-4200000D03*
X-48400000Y-800000D03*
X-48400000Y-4200000D03*
X-48400000Y-2500000D03*
X-49600000Y-800000D03*
X-49600000Y-4200000D03*
X-49600000Y-2500000D03*
X-62100000Y-2500000D03*
X-62100000Y-800000D03*
X-62100000Y-4200000D03*
X4900000Y16000000D03*
X-34900000Y36700000D03*
X-34900000Y31100000D03*
X-34900000Y25500000D03*
X-34900000Y19900000D03*
X-34900000Y35000000D03*
X-34900000Y29400000D03*
X-34900000Y23800000D03*
X-34900000Y18200000D03*
X-34900000Y38400000D03*
X-34900000Y32800000D03*
X-34900000Y27200000D03*
X-34900000Y21600000D03*
X-21432000Y27244000D03*
X-21432000Y21644000D03*
X-21432000Y25544000D03*
X-21432000Y19944000D03*
X-21432000Y23844000D03*
X-21432000Y18244000D03*
X-22400000Y36700000D03*
X-22400000Y31100000D03*
X-22400000Y25500000D03*
X-22400000Y19900000D03*
X-22400000Y35000000D03*
X-22400000Y29400000D03*
X-22400000Y23800000D03*
X-22400000Y18200000D03*
X-22400000Y38400000D03*
X-22400000Y32800000D03*
X-22400000Y27200000D03*
X-22400000Y21600000D03*
X-36000000Y38400000D03*
X-36000000Y35000000D03*
X-36000000Y36700000D03*
X6100000Y31100000D03*
X6100000Y29400000D03*
X6100000Y32800000D03*
X6100000Y23800000D03*
X6100000Y18200000D03*
X6100000Y12600000D03*
X6100000Y7000000D03*
X6100000Y1400000D03*
X6100000Y25500000D03*
X6100000Y19900000D03*
X6100000Y14300000D03*
X6100000Y8700000D03*
X6100000Y3100000D03*
X6100000Y27200000D03*
X6100000Y21600000D03*
X6100000Y16000000D03*
X6100000Y10400000D03*
X6100000Y4800000D03*
G04 #@! TO.N,/C1+*
X-28100000Y103400000D03*
X-28100000Y97800000D03*
X-28100000Y92200000D03*
X-28100000Y86600000D03*
X-28100000Y81000000D03*
X-28100000Y75400000D03*
X-28100000Y69800000D03*
X-28100000Y64200000D03*
X-28100000Y58600000D03*
X-14500000Y36700000D03*
X-28100000Y42300000D03*
X-28100000Y105100000D03*
X-28100000Y99500000D03*
X-28100000Y93900000D03*
X-28100000Y88300000D03*
X-28100000Y82700000D03*
X-28100000Y77100000D03*
X-28100000Y71500000D03*
X-28100000Y65900000D03*
X-28100000Y60300000D03*
X-14500000Y38400000D03*
X-28100000Y44000000D03*
X-28100000Y101700000D03*
X-28100000Y96100000D03*
X-28100000Y90500000D03*
X-28100000Y84900000D03*
X-28100000Y79300000D03*
X-28100000Y73700000D03*
X-28100000Y68100000D03*
X-28100000Y62500000D03*
X-28100000Y56900000D03*
X-14500000Y35000000D03*
X-28100000Y40600000D03*
X-29200000Y103400000D03*
X-29200000Y97800000D03*
X-29200000Y92200000D03*
X-29200000Y86600000D03*
X-29200000Y81000000D03*
X-29200000Y75400000D03*
X-29200000Y69800000D03*
X-29200000Y64200000D03*
X-29200000Y58600000D03*
X-15600000Y36700000D03*
X-29200000Y42300000D03*
X-29200000Y101700000D03*
X-29200000Y96100000D03*
X-29200000Y90500000D03*
X-29200000Y84900000D03*
X-29200000Y79300000D03*
X-29200000Y73700000D03*
X-29200000Y68100000D03*
X-29200000Y62500000D03*
X-29200000Y56900000D03*
X-15600000Y35000000D03*
X-29200000Y40600000D03*
X-29200000Y105100000D03*
X-29200000Y99500000D03*
X-29200000Y93900000D03*
X-29200000Y88300000D03*
X-29200000Y82700000D03*
X-29200000Y77100000D03*
X-29200000Y71500000D03*
X-29200000Y65900000D03*
X-29200000Y60300000D03*
X-15600000Y38400000D03*
X-29200000Y44000000D03*
X-41700000Y103400000D03*
X-41700000Y97800000D03*
X-41700000Y92200000D03*
X-41700000Y86600000D03*
X-41700000Y81000000D03*
X-41700000Y75400000D03*
X-41700000Y69800000D03*
X-41700000Y64200000D03*
X-41700000Y58600000D03*
X-41700000Y36700000D03*
X-41700000Y42300000D03*
X-41700000Y101700000D03*
X-41700000Y96100000D03*
X-41700000Y90500000D03*
X-41700000Y84900000D03*
X-41700000Y79300000D03*
X-41700000Y73700000D03*
X-41700000Y68100000D03*
X-41700000Y62500000D03*
X-41700000Y56900000D03*
X-41700000Y35000000D03*
X-41700000Y40600000D03*
X-41700000Y105100000D03*
X-41700000Y99500000D03*
X-41700000Y93900000D03*
X-41700000Y88300000D03*
X-41700000Y82700000D03*
X-41700000Y77100000D03*
X-41700000Y71500000D03*
X-41700000Y65900000D03*
X-41700000Y60300000D03*
X-41700000Y38400000D03*
X-41700000Y44000000D03*
X-42800000Y101700000D03*
X-42800000Y96100000D03*
X-42800000Y90500000D03*
X-42800000Y84900000D03*
X-42800000Y79300000D03*
X-42800000Y73700000D03*
X-42800000Y68100000D03*
X-42800000Y62500000D03*
X-42800000Y56900000D03*
X-42800000Y35000000D03*
X-42800000Y40600000D03*
X-42800000Y103400000D03*
X-42800000Y97800000D03*
X-42800000Y92200000D03*
X-42800000Y86600000D03*
X-42800000Y81000000D03*
X-42800000Y75400000D03*
X-42800000Y69800000D03*
X-42800000Y64200000D03*
X-42800000Y58600000D03*
X-42800000Y36700000D03*
X-42800000Y42300000D03*
X-42800000Y105100000D03*
X-42800000Y99500000D03*
X-42800000Y93900000D03*
X-42800000Y88300000D03*
X-42800000Y82700000D03*
X-42800000Y77100000D03*
X-42800000Y71500000D03*
X-42800000Y65900000D03*
X-42800000Y60300000D03*
X-42800000Y38400000D03*
X-42800000Y44000000D03*
X-55300000Y97800000D03*
X-55300000Y92200000D03*
X-55300000Y86600000D03*
X-55300000Y81000000D03*
X-55300000Y75400000D03*
X-55300000Y36700000D03*
X-55300000Y42300000D03*
X-55300000Y96100000D03*
X-55300000Y90500000D03*
X-55300000Y84900000D03*
X-55300000Y79300000D03*
X-55300000Y73700000D03*
X-55300000Y35000000D03*
X-55300000Y40600000D03*
X-55300000Y93900000D03*
X-55300000Y88300000D03*
X-55300000Y82700000D03*
X-55300000Y77100000D03*
X-55300000Y38400000D03*
X-55300000Y44000000D03*
X-56400000Y96100000D03*
X-56400000Y90500000D03*
X-56400000Y84900000D03*
X-56400000Y79300000D03*
X-56400000Y73700000D03*
X-56400000Y35000000D03*
X-56400000Y40600000D03*
X-56400000Y97800000D03*
X-56400000Y92200000D03*
X-56400000Y86600000D03*
X-56400000Y81000000D03*
X-56400000Y75400000D03*
X-56400000Y36700000D03*
X-56400000Y42300000D03*
X-56400000Y93900000D03*
X-56400000Y88300000D03*
X-56400000Y82700000D03*
X-56400000Y77100000D03*
X-56400000Y38400000D03*
X-56400000Y44000000D03*
X-15600000Y103400000D03*
X-15600000Y97800000D03*
X-15600000Y92200000D03*
X-15600000Y86600000D03*
X-15600000Y81000000D03*
X-15600000Y75400000D03*
X-15600000Y69800000D03*
X-15600000Y64200000D03*
X-15600000Y58600000D03*
X-1900000Y36700000D03*
X-15600000Y42300000D03*
X-15600000Y105100000D03*
X-15600000Y99500000D03*
X-15600000Y93900000D03*
X-15600000Y88300000D03*
X-15600000Y82700000D03*
X-15600000Y77100000D03*
X-15600000Y71500000D03*
X-15600000Y65900000D03*
X-15600000Y60300000D03*
X-1900000Y38400000D03*
X-15600000Y44000000D03*
X-15600000Y101700000D03*
X-15600000Y96100000D03*
X-15600000Y90500000D03*
X-15600000Y84900000D03*
X-15600000Y79300000D03*
X-15600000Y73700000D03*
X-15600000Y68100000D03*
X-15600000Y62500000D03*
X-15600000Y56900000D03*
X-1900000Y35000000D03*
X-15600000Y40600000D03*
X-14500000Y101700000D03*
X-14500000Y96100000D03*
X-14500000Y90500000D03*
X-14500000Y84900000D03*
X-14500000Y79300000D03*
X-14500000Y73700000D03*
X-14500000Y68100000D03*
X-14500000Y62500000D03*
X-14500000Y56900000D03*
X-800000Y35000000D03*
X-14500000Y40600000D03*
X-14500000Y105100000D03*
X-14500000Y99500000D03*
X-14500000Y93900000D03*
X-14500000Y88300000D03*
X-14500000Y82700000D03*
X-14500000Y77100000D03*
X-14500000Y71500000D03*
X-14500000Y65900000D03*
X-14500000Y60300000D03*
X-800000Y38400000D03*
X-14500000Y44000000D03*
X-14500000Y103400000D03*
X-14500000Y97800000D03*
X-14500000Y92200000D03*
X-14500000Y86600000D03*
X-14500000Y81000000D03*
X-14500000Y75400000D03*
X-14500000Y69800000D03*
X-14500000Y64200000D03*
X-14500000Y58600000D03*
X-800000Y36700000D03*
X-14500000Y42300000D03*
X-1900000Y103400000D03*
X-1900000Y97800000D03*
X-1900000Y92200000D03*
X-1900000Y86600000D03*
X-1900000Y81000000D03*
X-1900000Y75400000D03*
X-1900000Y69800000D03*
X-1900000Y64200000D03*
X-1900000Y58600000D03*
X11800000Y36700000D03*
X-1900000Y42300000D03*
X-1900000Y101700000D03*
X-1900000Y96100000D03*
X-1900000Y90500000D03*
X-1900000Y84900000D03*
X-1900000Y79300000D03*
X-1900000Y73700000D03*
X-1900000Y68100000D03*
X-1900000Y62500000D03*
X-1900000Y56900000D03*
X11800000Y35000000D03*
X-1900000Y40600000D03*
X-1900000Y105100000D03*
X-1900000Y99500000D03*
X-1900000Y93900000D03*
X-1900000Y88300000D03*
X-1900000Y82700000D03*
X-1900000Y77100000D03*
X-1900000Y71500000D03*
X-1900000Y65900000D03*
X-1900000Y60300000D03*
X11800000Y38400000D03*
X-1900000Y44000000D03*
X-800000Y103400000D03*
X-800000Y97800000D03*
X-800000Y92200000D03*
X-800000Y86600000D03*
X-800000Y81000000D03*
X-800000Y75400000D03*
X-800000Y69800000D03*
X-800000Y64200000D03*
X-800000Y58600000D03*
X-41694000Y31144000D03*
X-800000Y42300000D03*
X-800000Y101700000D03*
X-800000Y96100000D03*
X-800000Y90500000D03*
X-800000Y84900000D03*
X-800000Y79300000D03*
X-800000Y73700000D03*
X-800000Y68100000D03*
X-800000Y62500000D03*
X-800000Y56900000D03*
X-41694000Y29444000D03*
X-800000Y40600000D03*
X-800000Y105100000D03*
X-800000Y99500000D03*
X-800000Y93900000D03*
X-800000Y88300000D03*
X-800000Y82700000D03*
X-800000Y77100000D03*
X-800000Y71500000D03*
X-800000Y65900000D03*
X-800000Y60300000D03*
X-41694000Y32844000D03*
X-800000Y44000000D03*
X-800000Y32800000D03*
X-800000Y29400000D03*
X-800000Y31100000D03*
X11800000Y103400000D03*
X11800000Y97800000D03*
X11800000Y92200000D03*
X11800000Y86600000D03*
X11800000Y81000000D03*
X11800000Y75400000D03*
X11800000Y69800000D03*
X11800000Y64200000D03*
X11800000Y58600000D03*
X-15632000Y31144000D03*
X11800000Y42300000D03*
X11800000Y105100000D03*
X11800000Y99500000D03*
X11800000Y93900000D03*
X11800000Y88300000D03*
X11800000Y82700000D03*
X11800000Y77100000D03*
X11800000Y71500000D03*
X11800000Y65900000D03*
X11800000Y60300000D03*
X-15632000Y32844000D03*
X11800000Y44000000D03*
X11800000Y101700000D03*
X11800000Y96100000D03*
X11800000Y90500000D03*
X11800000Y84900000D03*
X11800000Y79300000D03*
X11800000Y73700000D03*
X11800000Y68100000D03*
X11800000Y62500000D03*
X11800000Y56900000D03*
X-15632000Y29444000D03*
X11800000Y40600000D03*
X-800000Y27200000D03*
X-800000Y4800000D03*
X-800000Y8700000D03*
X-800000Y23800000D03*
X-800000Y18200000D03*
X-800000Y12600000D03*
X-1900000Y32800000D03*
X-800000Y21600000D03*
X-1900000Y21600000D03*
X-800000Y16000000D03*
X-1900000Y16000000D03*
X-800000Y10400000D03*
X-1900000Y10400000D03*
X-1900000Y4800000D03*
X-1900000Y31100000D03*
X-800000Y25500000D03*
X-1900000Y25500000D03*
X-800000Y19900000D03*
X-1900000Y19900000D03*
X-800000Y14300000D03*
X-1900000Y14300000D03*
X-1900000Y8700000D03*
X-800000Y3100000D03*
X-1900000Y3100000D03*
X-1900000Y29400000D03*
X-1900000Y23800000D03*
X-1900000Y18200000D03*
X-1900000Y12600000D03*
X-800000Y7000000D03*
X-1900000Y7000000D03*
X-800000Y1400000D03*
X-1900000Y1400000D03*
X-14500000Y31100000D03*
X-14500000Y29400000D03*
X-14500000Y32800000D03*
X-14500000Y25500000D03*
X-14500000Y19900000D03*
X-14500000Y14300000D03*
X-14500000Y8700000D03*
X-14500000Y3100000D03*
X-14500000Y23800000D03*
X-14500000Y18200000D03*
X-14500000Y12600000D03*
X-14500000Y7000000D03*
X-14500000Y1400000D03*
X-14500000Y27200000D03*
X-14500000Y21600000D03*
X-14500000Y16000000D03*
X-14500000Y10400000D03*
X-14500000Y4800000D03*
X-15600000Y16000000D03*
X-15600000Y10400000D03*
X-15600000Y4800000D03*
X-15600000Y14300000D03*
X-15600000Y8700000D03*
X-15600000Y3100000D03*
X-15600000Y12600000D03*
X-15600000Y7000000D03*
X-15600000Y1400000D03*
X-28100000Y16000000D03*
X-28100000Y10400000D03*
X-28100000Y4800000D03*
X-28100000Y12600000D03*
X-28100000Y14300000D03*
X-28100000Y3100000D03*
X-29200000Y16000000D03*
X-29200000Y10400000D03*
X-28100000Y-800000D03*
X-29200000Y-800000D03*
X-29200000Y12600000D03*
X-28100000Y7000000D03*
X-28100000Y1400000D03*
X-28100000Y-4200000D03*
X-29200000Y-4200000D03*
X-29200000Y14300000D03*
X-28100000Y8700000D03*
X-29200000Y3100000D03*
X-28100000Y-2500000D03*
X-29200000Y-2500000D03*
X-29200000Y4800000D03*
X-29200000Y-800000D03*
X-29200000Y7000000D03*
X-29200000Y1400000D03*
X-29200000Y-4200000D03*
X-29200000Y8700000D03*
X-29200000Y-2500000D03*
X-41700000Y27200000D03*
X-41700000Y21600000D03*
X-41700000Y16000000D03*
X-41700000Y10400000D03*
X-41700000Y4800000D03*
X-41700000Y19900000D03*
X-41700000Y14300000D03*
X-41700000Y3100000D03*
X-42800000Y32800000D03*
X-42800000Y21600000D03*
X-42700000Y16000000D03*
X-42700000Y4800000D03*
X-42800000Y29400000D03*
X-41700000Y23800000D03*
X-41700000Y18200000D03*
X-41700000Y12600000D03*
X-41700000Y7000000D03*
X-41700000Y1400000D03*
X-42800000Y31100000D03*
X-41700000Y25500000D03*
X-42800000Y25500000D03*
X-42800000Y19900000D03*
X-42700000Y14300000D03*
X-41700000Y8700000D03*
X-42700000Y3100000D03*
X-42800000Y27200000D03*
X-42700000Y10400000D03*
X-42800000Y23800000D03*
X-42800000Y18200000D03*
X-42700000Y12600000D03*
X-42700000Y7000000D03*
X-42700000Y1400000D03*
X-42700000Y8700000D03*
X-55300000Y31100000D03*
X-55300000Y25500000D03*
X-55300000Y14300000D03*
X-55300000Y3100000D03*
X-55300000Y32800000D03*
X-55300000Y27200000D03*
X-55300000Y21600000D03*
X-55300000Y16000000D03*
X-55300000Y10400000D03*
X-55300000Y4800000D03*
X-55300000Y29400000D03*
X-55300000Y12600000D03*
X-56400000Y31100000D03*
X-55300000Y19900000D03*
X-55300000Y8700000D03*
X-56400000Y8700000D03*
X-56400000Y3100000D03*
X-56400000Y29400000D03*
X-55300000Y23800000D03*
X-55300000Y18200000D03*
X-56400000Y12600000D03*
X-55300000Y7000000D03*
X-56400000Y7000000D03*
X-55300000Y1400000D03*
X-56400000Y32800000D03*
X-56400000Y16000000D03*
X-55300000Y10400000D03*
X-56400000Y4800000D03*
X-56400000Y27200000D03*
X-56400000Y21600000D03*
X-56400000Y10400000D03*
X-56400000Y23800000D03*
X-56400000Y18200000D03*
X-56400000Y1400000D03*
X-56400000Y25500000D03*
X-56400000Y19900000D03*
X-56400000Y14300000D03*
X-15600000Y-800000D03*
X-15600000Y-2500000D03*
X-15600000Y-4200000D03*
X-41700000Y-4200000D03*
X-41700000Y-2500000D03*
X-42700000Y-4200000D03*
X-42700000Y-2500000D03*
X-42700000Y-800000D03*
X-41700000Y-800000D03*
X-55300000Y-800000D03*
X-55300000Y-4200000D03*
X-55300000Y-2500000D03*
X-56400000Y-2500000D03*
X-56400000Y-800000D03*
X-56400000Y-4200000D03*
X-1900000Y27200000D03*
X-29200000Y38400000D03*
X-29200000Y32800000D03*
X-29200000Y27200000D03*
X-29200000Y21600000D03*
X-28100000Y36700000D03*
X-28100000Y31100000D03*
X-28100000Y25500000D03*
X-28100000Y19900000D03*
X-28100000Y38400000D03*
X-28100000Y32800000D03*
X-28100000Y27200000D03*
X-28100000Y21600000D03*
X-28100000Y35000000D03*
X-28100000Y29400000D03*
X-28100000Y23800000D03*
X-28100000Y18200000D03*
X-29200000Y36700000D03*
X-29200000Y31100000D03*
X-29200000Y25500000D03*
X-29200000Y19900000D03*
X-29200000Y35000000D03*
X-29200000Y29400000D03*
X-29200000Y23800000D03*
X-29200000Y18200000D03*
X-15632000Y23844000D03*
X-15632000Y18244000D03*
X-15632000Y27244000D03*
X-15632000Y21644000D03*
X-15632000Y25544000D03*
X-15632000Y19944000D03*
X11800000Y32800000D03*
X11800000Y29400000D03*
X11800000Y31100000D03*
X11800000Y23800000D03*
X11800000Y18200000D03*
X11800000Y12600000D03*
X11800000Y7000000D03*
X11800000Y1400000D03*
X11800000Y27200000D03*
X11800000Y21600000D03*
X11800000Y16000000D03*
X11800000Y10400000D03*
X11800000Y4800000D03*
X11800000Y25500000D03*
X11800000Y19900000D03*
X11800000Y14300000D03*
X11800000Y8700000D03*
X11800000Y3100000D03*
X-55300000Y101700000D03*
X-55300000Y105100000D03*
X-56400000Y103400000D03*
X-56400000Y99500000D03*
X-56400000Y105100000D03*
X-56400000Y101700000D03*
X-55300000Y103400000D03*
X-55300000Y99500000D03*
G04 #@! TO.N,/C2+*
X29200000Y43500000D03*
X29200000Y40100000D03*
X29200000Y41800000D03*
X29200000Y49100000D03*
X29200000Y54700000D03*
X29200000Y60300000D03*
X29200000Y65900000D03*
X29200000Y71500000D03*
X29200000Y77100000D03*
X29200000Y82700000D03*
X29200000Y88300000D03*
X29200000Y94000000D03*
X29200000Y99500000D03*
X29200000Y45700000D03*
X29200000Y51300000D03*
X29200000Y56900000D03*
X29200000Y62500000D03*
X29200000Y68100000D03*
X29200000Y73700000D03*
X29200000Y79300000D03*
X29200000Y84900000D03*
X29200000Y90500000D03*
X29200000Y96100000D03*
X29200000Y47400000D03*
X29200000Y53000000D03*
X29200000Y58600000D03*
X29200000Y64200000D03*
X29200000Y69800000D03*
X29200000Y75390000D03*
X29200000Y81000000D03*
X29200000Y86600000D03*
X29200000Y92190000D03*
X29200000Y97800000D03*
X41700000Y41800000D03*
X41700000Y40100000D03*
X41700000Y43500000D03*
X41700000Y49100000D03*
X41700000Y54700000D03*
X41700000Y60300000D03*
X41700000Y65900000D03*
X41700000Y71500000D03*
X41700000Y77100000D03*
X41700000Y82700000D03*
X41700000Y88300000D03*
X41700000Y94000000D03*
X41700000Y99500000D03*
X41700000Y105100000D03*
X41700000Y47400000D03*
X41700000Y53000000D03*
X41700000Y58600000D03*
X41700000Y64200000D03*
X41700000Y69800000D03*
X41700000Y75400000D03*
X41700000Y81000000D03*
X41700000Y86600000D03*
X41700000Y92200000D03*
X41700000Y97800000D03*
X41700000Y103400000D03*
X41700000Y45700000D03*
X41700000Y51300000D03*
X41700000Y56900000D03*
X41700000Y62500000D03*
X41700000Y68100000D03*
X41700000Y73700000D03*
X41700000Y79300000D03*
X41700000Y84900000D03*
X41700000Y90500000D03*
X41700000Y96100000D03*
X41700000Y101700000D03*
X42800000Y103400000D03*
X42800000Y97800000D03*
X42800000Y92200000D03*
X42800000Y86600000D03*
X42800000Y81000000D03*
X42800000Y75400000D03*
X42800000Y69800000D03*
X42800000Y64200000D03*
X42800000Y58600000D03*
X42800000Y53000000D03*
X42800000Y47400000D03*
X42800000Y41800000D03*
X42800000Y105100000D03*
X42800000Y99500000D03*
X42800000Y94000000D03*
X42800000Y88300000D03*
X42800000Y82700000D03*
X42800000Y77100000D03*
X42800000Y71500000D03*
X42800000Y65900000D03*
X42800000Y60300000D03*
X42800000Y54700000D03*
X42800000Y49100000D03*
X42800000Y43500000D03*
X42800000Y101700000D03*
X42800000Y96100000D03*
X42800000Y90500000D03*
X42800000Y84900000D03*
X42800000Y79300000D03*
X42800000Y73700000D03*
X42800000Y68100000D03*
X42800000Y62500000D03*
X42800000Y56900000D03*
X42800000Y51300000D03*
X42800000Y45700000D03*
X42800000Y40100000D03*
X55300000Y101700000D03*
X55300000Y96100000D03*
X55300000Y90500000D03*
X55300000Y84900000D03*
X55300000Y79300000D03*
X55300000Y73700000D03*
X55300000Y68100000D03*
X55300000Y62500000D03*
X55300000Y56900000D03*
X55300000Y51300000D03*
X55300000Y45700000D03*
X55300000Y40100000D03*
X55300000Y103400000D03*
X55300000Y97800000D03*
X55300000Y92200000D03*
X55300000Y86600000D03*
X55300000Y81000000D03*
X55300000Y75400000D03*
X55300000Y69800000D03*
X55300000Y64200000D03*
X55300000Y58600000D03*
X55300000Y53000000D03*
X55300000Y47400000D03*
X55300000Y41800000D03*
X55300000Y105100000D03*
X55300000Y99500000D03*
X55300000Y94000000D03*
X55300000Y88300000D03*
X55300000Y82700000D03*
X55300000Y77100000D03*
X55300000Y71500000D03*
X55300000Y65900000D03*
X55300000Y60300000D03*
X55300000Y54700000D03*
X55300000Y49100000D03*
X55300000Y43500000D03*
X56400000Y105100000D03*
X56400000Y99500000D03*
X56400000Y94000000D03*
X56400000Y88300000D03*
X56400000Y82700000D03*
X56400000Y77100000D03*
X56400000Y71500000D03*
X56400000Y65900000D03*
X56400000Y60300000D03*
X56400000Y54700000D03*
X56400000Y49100000D03*
X56400000Y43500000D03*
X56400000Y101700000D03*
X56400000Y96100000D03*
X56400000Y90500000D03*
X56400000Y84900000D03*
X56400000Y79300000D03*
X56400000Y73700000D03*
X56400000Y68100000D03*
X56400000Y62500000D03*
X56400000Y56900000D03*
X56400000Y51300000D03*
X56400000Y45700000D03*
X56400000Y40100000D03*
X56400000Y103400000D03*
X56400000Y97800000D03*
X56400000Y92200000D03*
X56400000Y86600000D03*
X56400000Y81000000D03*
X56400000Y75400000D03*
X56400000Y69800000D03*
X56400000Y64200000D03*
X56400000Y58600000D03*
X56400000Y53000000D03*
X56400000Y47400000D03*
X56400000Y41800000D03*
X41700000Y21500000D03*
X41700000Y15900000D03*
X41700000Y10300000D03*
X41700000Y4700000D03*
X41700000Y-900000D03*
X41700000Y19700000D03*
X41700000Y14100000D03*
X41700000Y8500000D03*
X41700000Y2900000D03*
X41700000Y-2700000D03*
X41700000Y18000000D03*
X41700000Y12400000D03*
X41700000Y6800000D03*
X41700000Y1200000D03*
X41700000Y-4400000D03*
X42800000Y21500000D03*
X42800000Y15900000D03*
X42800000Y10300000D03*
X42800000Y4700000D03*
X42800000Y-900000D03*
X42800000Y19700000D03*
X42800000Y14100000D03*
X42800000Y8500000D03*
X42800000Y2900000D03*
X42800000Y-2700000D03*
X42800000Y18000000D03*
X42800000Y12400000D03*
X42800000Y6800000D03*
X42800000Y1200000D03*
X42800000Y-4400000D03*
X55300000Y19700000D03*
X55300000Y14100000D03*
X55300000Y8500000D03*
X55300000Y2900000D03*
X55300000Y-2700000D03*
X55300000Y18000000D03*
X55300000Y12400000D03*
X55300000Y6800000D03*
X55300000Y1200000D03*
X55300000Y-4400000D03*
X55300000Y21500000D03*
X55300000Y15900000D03*
X55300000Y10300000D03*
X55300000Y4700000D03*
X55300000Y-900000D03*
X56400000Y19700000D03*
X56400000Y14100000D03*
X56400000Y8500000D03*
X56400000Y2900000D03*
X56400000Y-2700000D03*
X56400000Y21500000D03*
X56400000Y15900000D03*
X56400000Y10300000D03*
X56400000Y4700000D03*
X56400000Y-900000D03*
X56400000Y18000000D03*
X56400000Y12400000D03*
X56400000Y6800000D03*
X56400000Y1200000D03*
X56400000Y-4400000D03*
X56400000Y23600000D03*
X56400000Y27100000D03*
X56400000Y25300000D03*
X55300000Y27100000D03*
X55300000Y23600000D03*
X55300000Y25300000D03*
X41700000Y23600000D03*
X41700000Y25300000D03*
X41700000Y27100000D03*
X42800000Y23600000D03*
X42800000Y25300000D03*
X42800000Y27100000D03*
X29200000Y15900000D03*
X29200000Y1200000D03*
X29200000Y-900000D03*
X29200000Y8500000D03*
X29200000Y6800000D03*
X29200000Y2900000D03*
X29200000Y10300000D03*
X29200000Y4700000D03*
X29200000Y-2700000D03*
X29200000Y-4400000D03*
X29200000Y14100000D03*
X29200000Y12400000D03*
X28100000Y10300000D03*
X28100000Y2900000D03*
X28100000Y4700000D03*
X28100000Y8500000D03*
X28100000Y6800000D03*
X28100000Y1200000D03*
X28100000Y-900000D03*
X28100000Y-2700000D03*
X28100000Y-4400000D03*
X28100000Y15900000D03*
X28100000Y14100000D03*
X28100000Y12400000D03*
X28100000Y105100000D03*
X28100000Y99500000D03*
X28100000Y93900000D03*
X28100000Y88300000D03*
X28100000Y82700000D03*
X28100000Y103400000D03*
X28100000Y97800000D03*
X28100000Y92200000D03*
X28100000Y86600000D03*
X28100000Y81000000D03*
X28100000Y101700000D03*
X28100000Y96100000D03*
X28100000Y90500000D03*
X28100000Y84900000D03*
X28100000Y79300000D03*
X28100000Y75400000D03*
X28100000Y69800000D03*
X28100000Y64200000D03*
X28100000Y77100000D03*
X28100000Y71500000D03*
X28100000Y65900000D03*
X28100000Y73700000D03*
X28100000Y68100000D03*
X28100000Y62500000D03*
X29200000Y105100000D03*
X29200000Y103400000D03*
X29200000Y101700000D03*
G04 #@! TO.N,/C2-*
X22400000Y105100000D03*
X22400000Y101700000D03*
X22400000Y103400000D03*
X34900000Y105100000D03*
X34900000Y103400000D03*
X34900000Y101700000D03*
X34900000Y97800000D03*
X34900000Y92190000D03*
X34900000Y86600000D03*
X34900000Y81000000D03*
X34900000Y75400000D03*
X34900000Y69800000D03*
X34900000Y64200000D03*
X34900000Y58600000D03*
X34900000Y96100000D03*
X34900000Y90500000D03*
X34900000Y84900000D03*
X34900000Y79300000D03*
X34900000Y73700000D03*
X34900000Y68100000D03*
X34900000Y62500000D03*
X34900000Y56900000D03*
X34900000Y99500000D03*
X34900000Y94000000D03*
X34900000Y88300000D03*
X34900000Y82700000D03*
X34900000Y77100000D03*
X34900000Y71500000D03*
X34900000Y65900000D03*
X34900000Y60300000D03*
X34900000Y53000000D03*
X34900000Y47400000D03*
X34900000Y41800000D03*
X34900000Y51300000D03*
X34900000Y45700000D03*
X34900000Y40100000D03*
X34900000Y54700000D03*
X34900000Y49100000D03*
X34900000Y43500000D03*
X36000000Y103400000D03*
X36000000Y97800000D03*
X36000000Y92200000D03*
X36000000Y86600000D03*
X36000000Y81000000D03*
X36000000Y75400000D03*
X36000000Y69800000D03*
X36000000Y64200000D03*
X36000000Y58600000D03*
X36000000Y53000000D03*
X36000000Y47400000D03*
X36000000Y41800000D03*
X36000000Y105100000D03*
X36000000Y99500000D03*
X36000000Y94000000D03*
X36000000Y88300000D03*
X36000000Y82700000D03*
X36000000Y77100000D03*
X36000000Y71500000D03*
X36000000Y65900000D03*
X36000000Y60300000D03*
X36000000Y54700000D03*
X36000000Y49100000D03*
X36000000Y43500000D03*
X36000000Y101700000D03*
X36000000Y96100000D03*
X36000000Y90500000D03*
X36000000Y84900000D03*
X36000000Y79300000D03*
X36000000Y73700000D03*
X36000000Y68100000D03*
X36000000Y62500000D03*
X36000000Y56900000D03*
X36000000Y51300000D03*
X36000000Y45700000D03*
X36000000Y40100000D03*
X48600000Y105100000D03*
X48600000Y99500000D03*
X48600000Y94000000D03*
X48600000Y88300000D03*
X48600000Y82700000D03*
X48600000Y77100000D03*
X48600000Y71500000D03*
X48600000Y65900000D03*
X48600000Y60300000D03*
X48600000Y54700000D03*
X48600000Y49100000D03*
X48600000Y43500000D03*
X48600000Y101700000D03*
X48600000Y96100000D03*
X48600000Y90500000D03*
X48600000Y84900000D03*
X48600000Y79300000D03*
X48600000Y73700000D03*
X48600000Y68100000D03*
X48600000Y62500000D03*
X48600000Y56900000D03*
X48600000Y51300000D03*
X48600000Y45700000D03*
X48600000Y40100000D03*
X48600000Y103400000D03*
X48600000Y97800000D03*
X48600000Y92200000D03*
X48600000Y86600000D03*
X48600000Y81000000D03*
X48600000Y75400000D03*
X48600000Y69800000D03*
X48600000Y64200000D03*
X48600000Y58600000D03*
X48600000Y53000000D03*
X48600000Y47400000D03*
X48600000Y41800000D03*
X49600000Y101700000D03*
X49600000Y96100000D03*
X49600000Y90500000D03*
X49600000Y84900000D03*
X49600000Y79300000D03*
X49600000Y73700000D03*
X49600000Y68100000D03*
X49600000Y62500000D03*
X49600000Y56900000D03*
X49600000Y51300000D03*
X49600000Y45700000D03*
X49600000Y40100000D03*
X49600000Y105100000D03*
X49600000Y99500000D03*
X49600000Y94000000D03*
X49600000Y88300000D03*
X49600000Y82700000D03*
X49600000Y77100000D03*
X49600000Y71500000D03*
X49600000Y65900000D03*
X49600000Y60300000D03*
X49600000Y54700000D03*
X49600000Y49100000D03*
X49600000Y43500000D03*
X49600000Y103400000D03*
X49600000Y97800000D03*
X49600000Y92200000D03*
X49600000Y86600000D03*
X49600000Y81000000D03*
X49600000Y75400000D03*
X49600000Y69800000D03*
X49600000Y64200000D03*
X49600000Y58600000D03*
X49600000Y53000000D03*
X49600000Y47400000D03*
X49600000Y41800000D03*
X62100000Y105100000D03*
X62100000Y99500000D03*
X62100000Y94000000D03*
X62100000Y88300000D03*
X62100000Y82700000D03*
X62100000Y77100000D03*
X62100000Y71500000D03*
X62100000Y65900000D03*
X62100000Y60300000D03*
X62100000Y54700000D03*
X62100000Y49100000D03*
X62100000Y43500000D03*
X62100000Y101700000D03*
X62100000Y96100000D03*
X62100000Y90500000D03*
X62100000Y84900000D03*
X62100000Y79300000D03*
X62100000Y73700000D03*
X62100000Y68100000D03*
X62100000Y62500000D03*
X62100000Y56900000D03*
X62100000Y51300000D03*
X62100000Y45700000D03*
X62100000Y40100000D03*
X62100000Y103400000D03*
X62100000Y97800000D03*
X62100000Y92200000D03*
X62100000Y86600000D03*
X62100000Y81000000D03*
X62100000Y75400000D03*
X62100000Y69800000D03*
X62100000Y64200000D03*
X62100000Y58600000D03*
X62100000Y53000000D03*
X62100000Y47400000D03*
X62100000Y41800000D03*
X36000000Y19700000D03*
X36000000Y14100000D03*
X36000000Y8500000D03*
X36000000Y2900000D03*
X36000000Y-2700000D03*
X36000000Y18000000D03*
X36000000Y12400000D03*
X36000000Y6800000D03*
X36000000Y1200000D03*
X36000000Y-4400000D03*
X36000000Y21500000D03*
X36000000Y15900000D03*
X36000000Y10300000D03*
X36000000Y4700000D03*
X36000000Y-900000D03*
X48600000Y18000000D03*
X48600000Y12400000D03*
X48600000Y6800000D03*
X48600000Y1200000D03*
X48600000Y-4400000D03*
X48600000Y19700000D03*
X48600000Y14100000D03*
X48600000Y8500000D03*
X48600000Y2900000D03*
X48600000Y-2700000D03*
X48600000Y21500000D03*
X48600000Y15900000D03*
X48600000Y10300000D03*
X48600000Y4700000D03*
X48600000Y-900000D03*
X49600000Y21500000D03*
X49600000Y15900000D03*
X49600000Y10300000D03*
X49600000Y4700000D03*
X49600000Y-900000D03*
X49600000Y19700000D03*
X49600000Y14100000D03*
X49600000Y8500000D03*
X49600000Y2900000D03*
X49600000Y-2700000D03*
X49600000Y18000000D03*
X49600000Y12400000D03*
X49600000Y6800000D03*
X49600000Y1200000D03*
X49600000Y-4400000D03*
X62100000Y21500000D03*
X62100000Y15900000D03*
X62100000Y10300000D03*
X62100000Y4700000D03*
X62100000Y-900000D03*
X62100000Y18000000D03*
X62100000Y12400000D03*
X62100000Y6800000D03*
X62100000Y1200000D03*
X62100000Y-4400000D03*
X62100000Y19700000D03*
X62100000Y14100000D03*
X62100000Y8500000D03*
X62100000Y2900000D03*
X62100000Y-2700000D03*
X36000000Y27100000D03*
X36000000Y23600000D03*
X36000000Y25300000D03*
X62100000Y25300000D03*
X62100000Y23600000D03*
X62100000Y27100000D03*
X48600000Y27100000D03*
X48600000Y25300000D03*
X48600000Y23600000D03*
X49600000Y23600000D03*
X49600000Y25300000D03*
X49600000Y27100000D03*
X34900000Y8500000D03*
X34900000Y15900000D03*
X34900000Y1200000D03*
X34900000Y-900000D03*
X34900000Y2900000D03*
X34900000Y6800000D03*
X34900000Y4700000D03*
X34900000Y10300000D03*
X34900000Y12400000D03*
X34900000Y-2700000D03*
X34900000Y-4400000D03*
X34900000Y14100000D03*
X22400000Y6800000D03*
X22400000Y10300000D03*
X22400000Y2900000D03*
X22400000Y4700000D03*
X22400000Y8500000D03*
X22400000Y1200000D03*
X22400000Y15900000D03*
X22400000Y14100000D03*
X22400000Y12400000D03*
X22400000Y-2700000D03*
X22400000Y-900000D03*
X22400000Y-4400000D03*
X22400000Y99500000D03*
X22400000Y93900000D03*
X22400000Y88300000D03*
X22400000Y82700000D03*
X22400000Y97800000D03*
X22400000Y92200000D03*
X22400000Y86600000D03*
X22400000Y81000000D03*
X22400000Y96100000D03*
X22400000Y90500000D03*
X22400000Y84900000D03*
X22400000Y79300000D03*
X22400000Y75400000D03*
X22400000Y69800000D03*
X22400000Y64200000D03*
X22400000Y77100000D03*
X22400000Y71500000D03*
X22400000Y65900000D03*
X22400000Y73700000D03*
X22400000Y68100000D03*
X22400000Y62500000D03*
G04 #@! TD*
D15*
G04 #@! TO.N,/C1-*
G36*
X-48124996Y72391880D02*
X-48125000Y72390000D01*
X-48125000Y56380000D01*
X-49030000Y56380000D01*
X-49030000Y72390000D01*
X-49068060Y72581342D01*
X-49176447Y72743553D01*
X-49338658Y72851940D01*
X-49530000Y72890000D01*
X-50171117Y72890000D01*
X-50048900Y105400000D01*
X-48000906Y105400000D01*
X-48124996Y72391880D01*
X-48124996Y72391880D01*
G37*
X-48124996Y72391880D02*
X-48125000Y72390000D01*
X-48125000Y56380000D01*
X-49030000Y56380000D01*
X-49030000Y72390000D01*
X-49068060Y72581342D01*
X-49176447Y72743553D01*
X-49338658Y72851940D01*
X-49530000Y72890000D01*
X-50171117Y72890000D01*
X-50048900Y105400000D01*
X-48000906Y105400000D01*
X-48124996Y72391880D01*
G36*
X-34408890Y56507000D02*
X-36456890Y56507000D01*
X-36446170Y105400000D01*
X-34398170Y105400000D01*
X-34408890Y56507000D01*
X-34408890Y56507000D01*
G37*
X-34408890Y56507000D02*
X-36456890Y56507000D01*
X-36446170Y105400000D01*
X-34398170Y105400000D01*
X-34408890Y56507000D01*
G36*
X-20819781Y56507000D02*
X-22867781Y56507000D01*
X-22846338Y105400000D01*
X-20798338Y105400000D01*
X-20819781Y56507000D01*
X-20819781Y56507000D01*
G37*
X-20819781Y56507000D02*
X-22867781Y56507000D01*
X-22846338Y105400000D01*
X-20798338Y105400000D01*
X-20819781Y56507000D01*
G36*
X-7230671Y56507000D02*
X-9278671Y56507000D01*
X-9246508Y105400000D01*
X-7198508Y105400000D01*
X-7230671Y56507000D01*
X-7230671Y56507000D01*
G37*
X-7230671Y56507000D02*
X-9278671Y56507000D01*
X-9246508Y105400000D01*
X-7198508Y105400000D01*
X-7230671Y56507000D01*
G36*
X6441438Y56507000D02*
X4564439Y56507000D01*
X4607323Y105400000D01*
X6484322Y105400000D01*
X6441438Y56507000D01*
X6441438Y56507000D01*
G37*
X6441438Y56507000D02*
X4564439Y56507000D01*
X4607323Y105400000D01*
X6484322Y105400000D01*
X6441438Y56507000D01*
G36*
X6482233Y1600000D02*
X4434237Y1600000D01*
X4311435Y44458000D01*
X6359431Y44458000D01*
X6482233Y1600000D01*
X6482233Y1600000D01*
G37*
X6482233Y1600000D02*
X4434237Y1600000D01*
X4311435Y44458000D01*
X6359431Y44458000D01*
X6482233Y1600000D01*
G36*
X-7231000Y1600000D02*
X-8842419Y1600000D01*
X-9000000Y1631345D01*
X-9157582Y1600000D01*
X-9279000Y1575848D01*
X-9279000Y44458000D01*
X-7231000Y44458000D01*
X-7231000Y1600000D01*
X-7231000Y1600000D01*
G37*
X-7231000Y1600000D02*
X-8842419Y1600000D01*
X-9000000Y1631345D01*
X-9157582Y1600000D01*
X-9279000Y1575848D01*
X-9279000Y44458000D01*
X-7231000Y44458000D01*
X-7231000Y1600000D01*
G36*
X-20820000Y-4400000D02*
X-22868000Y-4400000D01*
X-22868000Y44458000D01*
X-20820000Y44458000D01*
X-20820000Y-4400000D01*
X-20820000Y-4400000D01*
G37*
X-20820000Y-4400000D02*
X-22868000Y-4400000D01*
X-22868000Y44458000D01*
X-20820000Y44458000D01*
X-20820000Y-4400000D01*
G36*
X-34409000Y-4400000D02*
X-36457000Y-4400000D01*
X-36457000Y44458000D01*
X-34409000Y44458000D01*
X-34409000Y-4400000D01*
X-34409000Y-4400000D01*
G37*
X-34409000Y-4400000D02*
X-36457000Y-4400000D01*
X-36457000Y44458000D01*
X-34409000Y44458000D01*
X-34409000Y-4400000D01*
G36*
X-47998000Y-4400000D02*
X-50046000Y-4400000D01*
X-50046000Y44458000D01*
X-47998000Y44458000D01*
X-47998000Y-4400000D01*
X-47998000Y-4400000D01*
G37*
X-47998000Y-4400000D02*
X-50046000Y-4400000D01*
X-50046000Y44458000D01*
X-47998000Y44458000D01*
X-47998000Y-4400000D01*
G36*
X-61527663Y105192918D02*
X-61460000Y104852753D01*
X-61460000Y70612000D01*
X-61453844Y70533783D01*
X-61379254Y70062841D01*
X-61330913Y69914063D01*
X-61114445Y69489220D01*
X-61022495Y69362662D01*
X-60685338Y69025505D01*
X-60558780Y68933555D01*
X-60133937Y68717087D01*
X-59985159Y68668746D01*
X-59121492Y68531954D01*
X-58837770Y68387391D01*
X-58612609Y68162230D01*
X-58468046Y67878508D01*
X-58412000Y67524650D01*
X-58412000Y65560078D01*
X-58472599Y65022244D01*
X-58642029Y64538041D01*
X-58914953Y64103685D01*
X-59277685Y63740953D01*
X-59712041Y63468029D01*
X-60196244Y63298599D01*
X-60706000Y63241164D01*
X-61215756Y63298599D01*
X-61699959Y63468029D01*
X-62134315Y63740953D01*
X-62497047Y64103685D01*
X-62769971Y64538041D01*
X-62939401Y65022244D01*
X-63000000Y65560078D01*
X-63000000Y104852753D01*
X-62932337Y105192918D01*
X-62793970Y105400000D01*
X-61666030Y105400000D01*
X-61527663Y105192918D01*
X-61527663Y105192918D01*
G37*
X-61527663Y105192918D02*
X-61460000Y104852753D01*
X-61460000Y70612000D01*
X-61453844Y70533783D01*
X-61379254Y70062841D01*
X-61330913Y69914063D01*
X-61114445Y69489220D01*
X-61022495Y69362662D01*
X-60685338Y69025505D01*
X-60558780Y68933555D01*
X-60133937Y68717087D01*
X-59985159Y68668746D01*
X-59121492Y68531954D01*
X-58837770Y68387391D01*
X-58612609Y68162230D01*
X-58468046Y67878508D01*
X-58412000Y67524650D01*
X-58412000Y65560078D01*
X-58472599Y65022244D01*
X-58642029Y64538041D01*
X-58914953Y64103685D01*
X-59277685Y63740953D01*
X-59712041Y63468029D01*
X-60196244Y63298599D01*
X-60706000Y63241164D01*
X-61215756Y63298599D01*
X-61699959Y63468029D01*
X-62134315Y63740953D01*
X-62497047Y64103685D01*
X-62769971Y64538041D01*
X-62939401Y65022244D01*
X-63000000Y65560078D01*
X-63000000Y104852753D01*
X-62932337Y105192918D01*
X-62793970Y105400000D01*
X-61666030Y105400000D01*
X-61527663Y105192918D01*
G04 #@! TO.N,/C2-*
G36*
X36330000Y39616000D02*
X34536000Y39616000D01*
X34536000Y105400000D01*
X36330000Y105400000D01*
X36330000Y39616000D01*
X36330000Y39616000D01*
G37*
X36330000Y39616000D02*
X34536000Y39616000D01*
X34536000Y105400000D01*
X36330000Y105400000D01*
X36330000Y39616000D01*
G36*
X49930000Y39616000D02*
X48136000Y39616000D01*
X48136000Y105400000D01*
X49930000Y105400000D01*
X49930000Y39616000D01*
X49930000Y39616000D01*
G37*
X49930000Y39616000D02*
X48136000Y39616000D01*
X48136000Y105400000D01*
X49930000Y105400000D01*
X49930000Y39616000D01*
G36*
X49919000Y-4400000D02*
X48247984Y-4400000D01*
X48126897Y27567000D01*
X49919000Y27567000D01*
X49919000Y-4400000D01*
X49919000Y-4400000D01*
G37*
X49919000Y-4400000D02*
X48247984Y-4400000D01*
X48126897Y27567000D01*
X49919000Y27567000D01*
X49919000Y-4400000D01*
G36*
X35087402Y27505759D02*
X35490342Y27338856D01*
X35836353Y27073353D01*
X36101856Y26727342D01*
X36268759Y26324402D01*
X36330000Y25859232D01*
X36330000Y-4082651D01*
X36283010Y-4379339D01*
X36272483Y-4400000D01*
X34706071Y-4400000D01*
X34694918Y-4378253D01*
X34646775Y-4080855D01*
X34559180Y19044133D01*
X34554677Y19109223D01*
X34478794Y19670544D01*
X34444695Y19796213D01*
X34226447Y20318906D01*
X34161056Y20431509D01*
X33815245Y20880123D01*
X33722996Y20972023D01*
X33273075Y21316133D01*
X33160225Y21381098D01*
X32636709Y21597365D01*
X32510911Y21630987D01*
X31949306Y21704743D01*
X31884200Y21709000D01*
X27226768Y21709000D01*
X26761598Y21770241D01*
X26358658Y21937144D01*
X26012647Y22202647D01*
X25747144Y22548658D01*
X25580241Y22951598D01*
X25519000Y23416768D01*
X25519000Y25859232D01*
X25580241Y26324402D01*
X25747144Y26727342D01*
X26012647Y27073353D01*
X26358658Y27338856D01*
X26761598Y27505759D01*
X27226768Y27567000D01*
X34622232Y27567000D01*
X35087402Y27505759D01*
X35087402Y27505759D01*
G37*
X35087402Y27505759D02*
X35490342Y27338856D01*
X35836353Y27073353D01*
X36101856Y26727342D01*
X36268759Y26324402D01*
X36330000Y25859232D01*
X36330000Y-4082651D01*
X36283010Y-4379339D01*
X36272483Y-4400000D01*
X34706071Y-4400000D01*
X34694918Y-4378253D01*
X34646775Y-4080855D01*
X34559180Y19044133D01*
X34554677Y19109223D01*
X34478794Y19670544D01*
X34444695Y19796213D01*
X34226447Y20318906D01*
X34161056Y20431509D01*
X33815245Y20880123D01*
X33722996Y20972023D01*
X33273075Y21316133D01*
X33160225Y21381098D01*
X32636709Y21597365D01*
X32510911Y21630987D01*
X31949306Y21704743D01*
X31884200Y21709000D01*
X27226768Y21709000D01*
X26761598Y21770241D01*
X26358658Y21937144D01*
X26012647Y22202647D01*
X25747144Y22548658D01*
X25580241Y22951598D01*
X25519000Y23416768D01*
X25519000Y25859232D01*
X25580241Y26324402D01*
X25747144Y26727342D01*
X26012647Y27073353D01*
X26358658Y27338856D01*
X26761598Y27505759D01*
X27226768Y27567000D01*
X34622232Y27567000D01*
X35087402Y27505759D01*
G36*
X22536316Y16230173D02*
X22638737Y16161737D01*
X22707173Y16059316D01*
X22741000Y15889253D01*
X22741000Y-4400000D01*
X22090000Y-4400000D01*
X22090000Y15889253D01*
X22123827Y16059316D01*
X22192263Y16161737D01*
X22294684Y16230173D01*
X22415500Y16254204D01*
X22536316Y16230173D01*
X22536316Y16230173D01*
G37*
X22536316Y16230173D02*
X22638737Y16161737D01*
X22707173Y16059316D01*
X22741000Y15889253D01*
X22741000Y-4400000D01*
X22090000Y-4400000D01*
X22090000Y15889253D01*
X22123827Y16059316D01*
X22192263Y16161737D01*
X22294684Y16230173D01*
X22415500Y16254204D01*
X22536316Y16230173D01*
G36*
X22741000Y61968000D02*
X22090000Y61968000D01*
X22090000Y105400000D01*
X22741000Y105400000D01*
X22741000Y61968000D01*
X22741000Y61968000D01*
G37*
X22741000Y61968000D02*
X22090000Y61968000D01*
X22090000Y105400000D01*
X22741000Y105400000D01*
X22741000Y61968000D01*
D16*
G04 #@! TO.N,/C2+*
G36*
X29708619Y105023834D02*
X29920094Y104747010D01*
X30052518Y104424811D01*
X30103149Y104029991D01*
X29868678Y40019377D01*
X29873107Y39935193D01*
X29950486Y39226781D01*
X29987430Y39062547D01*
X30220859Y38389237D01*
X30293500Y38237381D01*
X30671217Y37633093D01*
X30775898Y37501262D01*
X31278877Y36996438D01*
X31410322Y36891276D01*
X32013222Y36511347D01*
X32164812Y36438149D01*
X32837263Y36202256D01*
X33001360Y36164712D01*
X33709483Y36084738D01*
X33793651Y36080000D01*
X37084580Y36080000D01*
X37168545Y36084715D01*
X37874979Y36164303D01*
X38038699Y36201667D01*
X38709717Y36436441D01*
X38861020Y36509296D01*
X39462981Y36887485D01*
X39594282Y36992180D01*
X40097006Y37494826D01*
X40201720Y37626109D01*
X40580004Y38228009D01*
X40652883Y38379300D01*
X40887763Y39050281D01*
X40925153Y39213996D01*
X41004852Y39920418D01*
X41009580Y40004382D01*
X41019682Y104154227D01*
X41067511Y104517123D01*
X41188645Y104809468D01*
X41381315Y105060512D01*
X41497954Y105150000D01*
X42978830Y105150000D01*
X43095379Y105060557D01*
X43287942Y104809557D01*
X43408969Y104517273D01*
X43456682Y104154453D01*
X43446580Y40005618D01*
X43451284Y39921635D01*
X43530793Y39215049D01*
X43568146Y39051293D01*
X43802906Y38380120D01*
X43875765Y38228781D01*
X44254003Y37626683D01*
X44358715Y37495355D01*
X44861460Y36992531D01*
X44992772Y36887798D01*
X45594810Y36509465D01*
X45746137Y36436582D01*
X46417273Y36201716D01*
X46581024Y36164337D01*
X47287598Y36084717D01*
X47371580Y36080000D01*
X50674198Y36080000D01*
X50758154Y36084714D01*
X51464519Y36164286D01*
X51628225Y36201643D01*
X52299184Y36436371D01*
X52450474Y36509212D01*
X53052396Y36887330D01*
X53183691Y36992005D01*
X53686404Y37494561D01*
X53791119Y37625821D01*
X54169427Y38227624D01*
X54242316Y38378893D01*
X54477255Y39049778D01*
X54514664Y39213471D01*
X54594458Y39919811D01*
X54599198Y40003766D01*
X54619366Y104154119D01*
X54667252Y104517045D01*
X54788441Y104809427D01*
X54981161Y105060487D01*
X55097848Y105150000D01*
X56578027Y105150000D01*
X56694239Y105060724D01*
X56886403Y104809888D01*
X57007030Y104517842D01*
X57054308Y104155300D01*
X56910623Y-3496021D01*
X56844634Y-3909440D01*
X56721780Y-4150000D01*
X54789595Y-4150000D01*
X54668862Y-3911592D01*
X54604935Y-3499498D01*
X54711492Y26656131D01*
X54707053Y26740308D01*
X54629595Y27448653D01*
X54592636Y27612869D01*
X54359158Y28286100D01*
X54286509Y28437938D01*
X53908772Y29042145D01*
X53804090Y29173957D01*
X53301120Y29678707D01*
X53169679Y29783853D01*
X52566810Y30163723D01*
X52415230Y30236909D01*
X51742829Y30472764D01*
X51578745Y30510302D01*
X50870678Y30590263D01*
X50786517Y30595000D01*
X47371000Y30595000D01*
X47287027Y30590284D01*
X46580523Y30510680D01*
X46416787Y30473308D01*
X45745710Y30238488D01*
X45594395Y30165619D01*
X44992396Y29787358D01*
X44861090Y29682645D01*
X44358355Y29179910D01*
X44253642Y29048604D01*
X43875381Y28446605D01*
X43802512Y28295290D01*
X43567692Y27624213D01*
X43530320Y27460477D01*
X43450716Y26753973D01*
X43446000Y26670000D01*
X43446000Y-3443339D01*
X43398229Y-3806197D01*
X43277147Y-4098515D01*
X43237641Y-4150000D01*
X41217359Y-4150000D01*
X41177853Y-4098515D01*
X41056771Y-3806197D01*
X41009000Y-3443339D01*
X41009000Y26670000D01*
X41004284Y26753973D01*
X40924680Y27460477D01*
X40887308Y27624213D01*
X40652488Y28295290D01*
X40579619Y28446605D01*
X40201358Y29048604D01*
X40096645Y29179910D01*
X39593910Y29682645D01*
X39462604Y29787358D01*
X38860605Y30165619D01*
X38709290Y30238488D01*
X38038213Y30473308D01*
X37874477Y30510680D01*
X37167973Y30590284D01*
X37084000Y30595000D01*
X33781011Y30595000D01*
X33697055Y30590286D01*
X32990689Y30510714D01*
X32826983Y30473357D01*
X32156023Y30238628D01*
X32004732Y30165786D01*
X31449505Y29817000D01*
X29805163Y29817000D01*
X29484072Y29950000D01*
X27315928Y29950000D01*
X26955486Y29800700D01*
X26402649Y29727918D01*
X25961372Y29609678D01*
X25436803Y29392394D01*
X25041167Y29163973D01*
X24590710Y28818325D01*
X24267675Y28495290D01*
X23922027Y28044833D01*
X23693606Y27649197D01*
X23476322Y27124628D01*
X23358082Y26683351D01*
X23336065Y26516116D01*
X22950000Y25584072D01*
X22950000Y23415928D01*
X23779713Y21412823D01*
X23868285Y21324251D01*
X23922027Y21231167D01*
X24267675Y20780710D01*
X24590710Y20457675D01*
X25041167Y20112027D01*
X25134251Y20058285D01*
X25312823Y19879713D01*
X27315928Y19050000D01*
X29484072Y19050000D01*
X29853684Y19203098D01*
X29846686Y-3258116D01*
X29792482Y-3668934D01*
X29652801Y-4005931D01*
X29542212Y-4150000D01*
X27343625Y-4150000D01*
X27233300Y-4006140D01*
X27093915Y-3669299D01*
X27040037Y-3258681D01*
X27048478Y14674021D01*
X27043694Y14758954D01*
X26962601Y15473448D01*
X26924455Y15638971D01*
X26684663Y16316892D01*
X26610249Y16469587D01*
X26224057Y17076161D01*
X26117193Y17208193D01*
X25604412Y17712308D01*
X25470576Y17816908D01*
X24857507Y18192705D01*
X24703566Y18264505D01*
X24021657Y18492708D01*
X23855509Y18528027D01*
X23139737Y18596931D01*
X23054735Y18600267D01*
X22329348Y18587561D01*
X21739096Y18644612D01*
X21217749Y18819758D01*
X20749411Y19108090D01*
X20358269Y19494716D01*
X20064516Y19959679D01*
X19883331Y20478950D01*
X19819429Y21068506D01*
X19908147Y36094768D01*
X19975047Y36666657D01*
X20151908Y37170568D01*
X20434971Y37623428D01*
X20810448Y38003184D01*
X21260075Y38291363D01*
X21761943Y38473920D01*
X22333040Y38547296D01*
X23442717Y38566425D01*
X23525580Y38572456D01*
X24222184Y38662161D01*
X24383383Y38701422D01*
X25043220Y38942086D01*
X25191842Y39015827D01*
X25782623Y39395672D01*
X25911398Y39500285D01*
X26404212Y40000724D01*
X26506835Y40131089D01*
X26877565Y40727632D01*
X26949015Y40877368D01*
X27179521Y41540822D01*
X27216303Y41702605D01*
X27295303Y42400504D01*
X27300061Y42483451D01*
X27415961Y104025993D01*
X27468815Y104422178D01*
X27603278Y104745509D01*
X27816753Y105023084D01*
X27982423Y105150000D01*
X29544715Y105150000D01*
X29708619Y105023834D01*
X29708619Y105023834D01*
G37*
X29708619Y105023834D02*
X29920094Y104747010D01*
X30052518Y104424811D01*
X30103149Y104029991D01*
X29868678Y40019377D01*
X29873107Y39935193D01*
X29950486Y39226781D01*
X29987430Y39062547D01*
X30220859Y38389237D01*
X30293500Y38237381D01*
X30671217Y37633093D01*
X30775898Y37501262D01*
X31278877Y36996438D01*
X31410322Y36891276D01*
X32013222Y36511347D01*
X32164812Y36438149D01*
X32837263Y36202256D01*
X33001360Y36164712D01*
X33709483Y36084738D01*
X33793651Y36080000D01*
X37084580Y36080000D01*
X37168545Y36084715D01*
X37874979Y36164303D01*
X38038699Y36201667D01*
X38709717Y36436441D01*
X38861020Y36509296D01*
X39462981Y36887485D01*
X39594282Y36992180D01*
X40097006Y37494826D01*
X40201720Y37626109D01*
X40580004Y38228009D01*
X40652883Y38379300D01*
X40887763Y39050281D01*
X40925153Y39213996D01*
X41004852Y39920418D01*
X41009580Y40004382D01*
X41019682Y104154227D01*
X41067511Y104517123D01*
X41188645Y104809468D01*
X41381315Y105060512D01*
X41497954Y105150000D01*
X42978830Y105150000D01*
X43095379Y105060557D01*
X43287942Y104809557D01*
X43408969Y104517273D01*
X43456682Y104154453D01*
X43446580Y40005618D01*
X43451284Y39921635D01*
X43530793Y39215049D01*
X43568146Y39051293D01*
X43802906Y38380120D01*
X43875765Y38228781D01*
X44254003Y37626683D01*
X44358715Y37495355D01*
X44861460Y36992531D01*
X44992772Y36887798D01*
X45594810Y36509465D01*
X45746137Y36436582D01*
X46417273Y36201716D01*
X46581024Y36164337D01*
X47287598Y36084717D01*
X47371580Y36080000D01*
X50674198Y36080000D01*
X50758154Y36084714D01*
X51464519Y36164286D01*
X51628225Y36201643D01*
X52299184Y36436371D01*
X52450474Y36509212D01*
X53052396Y36887330D01*
X53183691Y36992005D01*
X53686404Y37494561D01*
X53791119Y37625821D01*
X54169427Y38227624D01*
X54242316Y38378893D01*
X54477255Y39049778D01*
X54514664Y39213471D01*
X54594458Y39919811D01*
X54599198Y40003766D01*
X54619366Y104154119D01*
X54667252Y104517045D01*
X54788441Y104809427D01*
X54981161Y105060487D01*
X55097848Y105150000D01*
X56578027Y105150000D01*
X56694239Y105060724D01*
X56886403Y104809888D01*
X57007030Y104517842D01*
X57054308Y104155300D01*
X56910623Y-3496021D01*
X56844634Y-3909440D01*
X56721780Y-4150000D01*
X54789595Y-4150000D01*
X54668862Y-3911592D01*
X54604935Y-3499498D01*
X54711492Y26656131D01*
X54707053Y26740308D01*
X54629595Y27448653D01*
X54592636Y27612869D01*
X54359158Y28286100D01*
X54286509Y28437938D01*
X53908772Y29042145D01*
X53804090Y29173957D01*
X53301120Y29678707D01*
X53169679Y29783853D01*
X52566810Y30163723D01*
X52415230Y30236909D01*
X51742829Y30472764D01*
X51578745Y30510302D01*
X50870678Y30590263D01*
X50786517Y30595000D01*
X47371000Y30595000D01*
X47287027Y30590284D01*
X46580523Y30510680D01*
X46416787Y30473308D01*
X45745710Y30238488D01*
X45594395Y30165619D01*
X44992396Y29787358D01*
X44861090Y29682645D01*
X44358355Y29179910D01*
X44253642Y29048604D01*
X43875381Y28446605D01*
X43802512Y28295290D01*
X43567692Y27624213D01*
X43530320Y27460477D01*
X43450716Y26753973D01*
X43446000Y26670000D01*
X43446000Y-3443339D01*
X43398229Y-3806197D01*
X43277147Y-4098515D01*
X43237641Y-4150000D01*
X41217359Y-4150000D01*
X41177853Y-4098515D01*
X41056771Y-3806197D01*
X41009000Y-3443339D01*
X41009000Y26670000D01*
X41004284Y26753973D01*
X40924680Y27460477D01*
X40887308Y27624213D01*
X40652488Y28295290D01*
X40579619Y28446605D01*
X40201358Y29048604D01*
X40096645Y29179910D01*
X39593910Y29682645D01*
X39462604Y29787358D01*
X38860605Y30165619D01*
X38709290Y30238488D01*
X38038213Y30473308D01*
X37874477Y30510680D01*
X37167973Y30590284D01*
X37084000Y30595000D01*
X33781011Y30595000D01*
X33697055Y30590286D01*
X32990689Y30510714D01*
X32826983Y30473357D01*
X32156023Y30238628D01*
X32004732Y30165786D01*
X31449505Y29817000D01*
X29805163Y29817000D01*
X29484072Y29950000D01*
X27315928Y29950000D01*
X26955486Y29800700D01*
X26402649Y29727918D01*
X25961372Y29609678D01*
X25436803Y29392394D01*
X25041167Y29163973D01*
X24590710Y28818325D01*
X24267675Y28495290D01*
X23922027Y28044833D01*
X23693606Y27649197D01*
X23476322Y27124628D01*
X23358082Y26683351D01*
X23336065Y26516116D01*
X22950000Y25584072D01*
X22950000Y23415928D01*
X23779713Y21412823D01*
X23868285Y21324251D01*
X23922027Y21231167D01*
X24267675Y20780710D01*
X24590710Y20457675D01*
X25041167Y20112027D01*
X25134251Y20058285D01*
X25312823Y19879713D01*
X27315928Y19050000D01*
X29484072Y19050000D01*
X29853684Y19203098D01*
X29846686Y-3258116D01*
X29792482Y-3668934D01*
X29652801Y-4005931D01*
X29542212Y-4150000D01*
X27343625Y-4150000D01*
X27233300Y-4006140D01*
X27093915Y-3669299D01*
X27040037Y-3258681D01*
X27048478Y14674021D01*
X27043694Y14758954D01*
X26962601Y15473448D01*
X26924455Y15638971D01*
X26684663Y16316892D01*
X26610249Y16469587D01*
X26224057Y17076161D01*
X26117193Y17208193D01*
X25604412Y17712308D01*
X25470576Y17816908D01*
X24857507Y18192705D01*
X24703566Y18264505D01*
X24021657Y18492708D01*
X23855509Y18528027D01*
X23139737Y18596931D01*
X23054735Y18600267D01*
X22329348Y18587561D01*
X21739096Y18644612D01*
X21217749Y18819758D01*
X20749411Y19108090D01*
X20358269Y19494716D01*
X20064516Y19959679D01*
X19883331Y20478950D01*
X19819429Y21068506D01*
X19908147Y36094768D01*
X19975047Y36666657D01*
X20151908Y37170568D01*
X20434971Y37623428D01*
X20810448Y38003184D01*
X21260075Y38291363D01*
X21761943Y38473920D01*
X22333040Y38547296D01*
X23442717Y38566425D01*
X23525580Y38572456D01*
X24222184Y38662161D01*
X24383383Y38701422D01*
X25043220Y38942086D01*
X25191842Y39015827D01*
X25782623Y39395672D01*
X25911398Y39500285D01*
X26404212Y40000724D01*
X26506835Y40131089D01*
X26877565Y40727632D01*
X26949015Y40877368D01*
X27179521Y41540822D01*
X27216303Y41702605D01*
X27295303Y42400504D01*
X27300061Y42483451D01*
X27415961Y104025993D01*
X27468815Y104422178D01*
X27603278Y104745509D01*
X27816753Y105023084D01*
X27982423Y105150000D01*
X29544715Y105150000D01*
X29708619Y105023834D01*
D15*
G04 #@! TO.N,/C1-*
G36*
X-61598000Y-4400000D02*
X-62619000Y-4400000D01*
X-62619000Y44458000D01*
X-61598000Y44458000D01*
X-61598000Y-4400000D01*
X-61598000Y-4400000D01*
G37*
X-61598000Y-4400000D02*
X-62619000Y-4400000D01*
X-62619000Y44458000D01*
X-61598000Y44458000D01*
X-61598000Y-4400000D01*
G04 #@! TO.N,/C2-*
G36*
X62492000Y27030687D02*
X62470750Y26923672D01*
X62491304Y-4400000D01*
X61735304Y-4400000D01*
X61714073Y27956762D01*
X61736000Y28067000D01*
X61736000Y105400000D01*
X62492000Y105400000D01*
X62492000Y27030687D01*
X62492000Y27030687D01*
G37*
X62492000Y27030687D02*
X62470750Y26923672D01*
X62491304Y-4400000D01*
X61735304Y-4400000D01*
X61714073Y27956762D01*
X61736000Y28067000D01*
X61736000Y105400000D01*
X62492000Y105400000D01*
X62492000Y27030687D01*
G04 #@! TO.N,/C1+*
G36*
X-53654054Y105284971D02*
X-53257830Y104981576D01*
X-52953474Y104586097D01*
X-52761658Y104125398D01*
X-52691034Y103598073D01*
X-52577724Y57141036D01*
X-52574453Y57085149D01*
X-52493375Y56379919D01*
X-52468271Y56270982D01*
X-52232530Y55601394D01*
X-52183851Y55500759D01*
X-51805233Y54900283D01*
X-51735410Y54812978D01*
X-51232841Y54311633D01*
X-51145366Y54242023D01*
X-50543969Y53864871D01*
X-50443215Y53816437D01*
X-49773053Y53582330D01*
X-49664056Y53557492D01*
X-48958630Y53478134D01*
X-48902734Y53475000D01*
X-47995671Y53475000D01*
X-47939681Y53478145D01*
X-47233083Y53557770D01*
X-47123912Y53582691D01*
X-46452756Y53817573D01*
X-46351869Y53866165D01*
X-45749818Y54244522D01*
X-45662275Y54314348D01*
X-45159526Y54817204D01*
X-45089719Y54904761D01*
X-44711489Y55506892D01*
X-44662918Y55607790D01*
X-44428178Y56278996D01*
X-44403280Y56388172D01*
X-44323804Y57094786D01*
X-44320671Y57150777D01*
X-44330456Y103472330D01*
X-44256894Y104031926D01*
X-44053634Y104522862D01*
X-43730219Y104944452D01*
X-43308700Y105267954D01*
X-42989960Y105400000D01*
X-41594226Y105400000D01*
X-41276505Y105267942D01*
X-40856826Y104944554D01*
X-40535492Y104523306D01*
X-40334531Y104033078D01*
X-40263544Y103474597D01*
X-40489431Y57167927D01*
X-40486542Y57111756D01*
X-40409902Y56402712D01*
X-40385368Y56293115D01*
X-40152404Y55619066D01*
X-40104027Y55517708D01*
X-39726492Y54912660D01*
X-39656713Y54824657D01*
X-39153655Y54319139D01*
X-39065993Y54248931D01*
X-38462794Y53868449D01*
X-38361674Y53819578D01*
X-37688768Y53583328D01*
X-37579290Y53558260D01*
X-36870629Y53478163D01*
X-36814474Y53475000D01*
X-34645218Y53475000D01*
X-34589401Y53478125D01*
X-33884960Y53557259D01*
X-33776109Y53582027D01*
X-33106784Y53815483D01*
X-33006142Y53863785D01*
X-32405296Y54239926D01*
X-32317879Y54309353D01*
X-31815463Y54809429D01*
X-31745628Y54896522D01*
X-31366687Y55495606D01*
X-31317916Y55596022D01*
X-31081339Y56264251D01*
X-31056063Y56372985D01*
X-30973643Y57077048D01*
X-30970257Y57132850D01*
X-30754011Y103470022D01*
X-30677746Y104030764D01*
X-30472074Y104522426D01*
X-30146485Y104944359D01*
X-29723037Y105267976D01*
X-29403248Y105400000D01*
X-28001796Y105400000D01*
X-27682488Y105267966D01*
X-27259920Y104944400D01*
X-26935325Y104522623D01*
X-26730752Y104031286D01*
X-26655724Y103471074D01*
X-26542724Y57141036D01*
X-26539453Y57085149D01*
X-26458375Y56379919D01*
X-26433271Y56270982D01*
X-26197530Y55601394D01*
X-26148851Y55500759D01*
X-25770233Y54900283D01*
X-25700410Y54812978D01*
X-25197841Y54311633D01*
X-25110366Y54242023D01*
X-24508969Y53864871D01*
X-24408215Y53816437D01*
X-23738053Y53582330D01*
X-23629056Y53557492D01*
X-22923630Y53478134D01*
X-22867734Y53475000D01*
X-20698426Y53475000D01*
X-20642349Y53478155D01*
X-19934673Y53558027D01*
X-19825343Y53583024D01*
X-19153272Y53818620D01*
X-19052263Y53867358D01*
X-18449611Y54246825D01*
X-18362005Y54316851D01*
X-17859094Y54821097D01*
X-17789301Y54908887D01*
X-17411432Y55512543D01*
X-17362962Y55613681D01*
X-17129148Y56286374D01*
X-17104441Y56395771D01*
X-17026445Y57103656D01*
X-17023439Y57159740D01*
X-17146183Y103473502D01*
X-17073968Y104032526D01*
X-16871911Y104523090D01*
X-16549583Y104944503D01*
X-16129026Y105267946D01*
X-15810816Y105400000D01*
X-14415083Y105400000D01*
X-14096830Y105267948D01*
X-13676187Y104944498D01*
X-13353768Y104523072D01*
X-13151604Y104032470D01*
X-13079274Y103473410D01*
X-13192236Y57158964D01*
X-13189219Y57102887D01*
X-13111095Y56395112D01*
X-13086370Y56285734D01*
X-12852475Y55613170D01*
X-12803997Y55512053D01*
X-12426097Y54908529D01*
X-12356302Y54820759D01*
X-11853404Y54316634D01*
X-11765805Y54246626D01*
X-11163206Y53867255D01*
X-11062208Y53818530D01*
X-10390216Y53582995D01*
X-10280898Y53558004D01*
X-9573316Y53478154D01*
X-9517247Y53475000D01*
X-7246292Y53475000D01*
X-7190407Y53478133D01*
X-6485118Y53557460D01*
X-6376141Y53582288D01*
X-5706095Y53816305D01*
X-5605357Y53864721D01*
X-5004035Y54241734D01*
X-4916567Y54311319D01*
X-4414019Y54812489D01*
X-4344195Y54899764D01*
X-3965532Y55500047D01*
X-3916840Y55600653D01*
X-3680984Y56270055D01*
X-3655856Y56378963D01*
X-3574592Y57084032D01*
X-3571306Y57139908D01*
X-3444068Y103470918D01*
X-3368868Y104031215D01*
X-3164144Y104522597D01*
X-2839415Y104944392D01*
X-2416721Y105267968D01*
X-2097348Y105400000D01*
X-696796Y105400000D01*
X-377488Y105267966D01*
X45080Y104944400D01*
X369675Y104522623D01*
X574248Y104031286D01*
X649276Y103471074D01*
X762276Y57141036D01*
X765547Y57085149D01*
X846625Y56379919D01*
X871729Y56270982D01*
X1107470Y55601394D01*
X1156149Y55500759D01*
X1534767Y54900283D01*
X1604590Y54812978D01*
X2107159Y54311633D01*
X2194634Y54242023D01*
X2796031Y53864871D01*
X2896785Y53816437D01*
X3566947Y53582330D01*
X3675944Y53557492D01*
X4381370Y53478134D01*
X4437266Y53475000D01*
X7088302Y53475000D01*
X7144359Y53478152D01*
X7851795Y53557969D01*
X7961091Y53582950D01*
X8632958Y53818387D01*
X8733940Y53867092D01*
X9336458Y54246312D01*
X9424049Y54316293D01*
X9926925Y54820230D01*
X9996721Y54907969D01*
X10374671Y55511285D01*
X10423164Y55612370D01*
X10657184Y56284732D01*
X10681934Y56394079D01*
X10760260Y57101681D01*
X10763294Y57157745D01*
X10662779Y104853743D01*
X10729701Y105193453D01*
X10867318Y105400000D01*
X11993970Y105400000D01*
X12132337Y105192918D01*
X12200000Y104852753D01*
X12200000Y1827247D01*
X12132337Y1487082D01*
X11967546Y1240454D01*
X11720918Y1075663D01*
X11430000Y1017796D01*
X11139082Y1075663D01*
X10892454Y1240454D01*
X10727663Y1487082D01*
X10660000Y1827247D01*
X10660000Y43815000D01*
X10656856Y43870982D01*
X10577252Y44577486D01*
X10552338Y44686644D01*
X10317518Y45357721D01*
X10268938Y45458597D01*
X9890677Y46060596D01*
X9820868Y46148133D01*
X9318133Y46650868D01*
X9230596Y46720677D01*
X8628597Y47098938D01*
X8527721Y47147518D01*
X7856644Y47382338D01*
X7747486Y47407252D01*
X7040982Y47486856D01*
X6985000Y47490000D01*
X4362318Y47490000D01*
X4306268Y47486848D01*
X3598920Y47407051D01*
X3489637Y47382077D01*
X2817844Y47146698D01*
X2716872Y47098005D01*
X2114402Y46718875D01*
X2026816Y46648910D01*
X1523954Y46145087D01*
X1454157Y46057367D01*
X1076178Y45454174D01*
X1027677Y45353109D01*
X793581Y44680868D01*
X768815Y44571538D01*
X690369Y43864039D01*
X687325Y43807983D01*
X765088Y3079854D01*
X692464Y2520658D01*
X490043Y2029982D01*
X167381Y1608510D01*
X156309Y1600000D01*
X-2698301Y1600000D01*
X-2709447Y1608553D01*
X-3032955Y2030155D01*
X-3236322Y2521129D01*
X-3310000Y3080768D01*
X-3310000Y43815000D01*
X-3313144Y43870982D01*
X-3392748Y44577486D01*
X-3417662Y44686644D01*
X-3652482Y45357721D01*
X-3701062Y45458597D01*
X-4079323Y46060596D01*
X-4149132Y46148133D01*
X-4651867Y46650868D01*
X-4739404Y46720677D01*
X-5341403Y47098938D01*
X-5442279Y47147518D01*
X-6113356Y47382338D01*
X-6222514Y47407252D01*
X-6929018Y47486856D01*
X-6985000Y47490000D01*
X-9283665Y47490000D01*
X-9339564Y47486865D01*
X-10045034Y47407497D01*
X-10154038Y47382656D01*
X-10824238Y47148520D01*
X-10924998Y47100080D01*
X-11526420Y46722881D01*
X-11613897Y46653264D01*
X-12116473Y46151862D01*
X-12186295Y46064547D01*
X-12564899Y45464009D01*
X-12613575Y45363363D01*
X-12849277Y44693712D01*
X-12874372Y44584767D01*
X-12955389Y43879485D01*
X-12958655Y43823593D01*
X-13066983Y-2506120D01*
X-13141956Y-3066310D01*
X-13346479Y-3557633D01*
X-13671027Y-3979401D01*
X-14093557Y-4302966D01*
X-14328206Y-4400000D01*
X-15897847Y-4400000D01*
X-16132512Y-4302966D01*
X-16555080Y-3979400D01*
X-16879675Y-3557623D01*
X-17084248Y-3066286D01*
X-17159276Y-2506074D01*
X-17272276Y43823964D01*
X-17275547Y43879851D01*
X-17356625Y44585081D01*
X-17381729Y44694018D01*
X-17617470Y45363606D01*
X-17666149Y45464241D01*
X-18044767Y46064717D01*
X-18114590Y46152022D01*
X-18617159Y46653367D01*
X-18704634Y46722977D01*
X-19306031Y47100129D01*
X-19406785Y47148563D01*
X-20076947Y47382670D01*
X-20185944Y47407508D01*
X-20891370Y47486866D01*
X-20947266Y47490000D01*
X-23108800Y47490000D01*
X-23164963Y47486836D01*
X-23873718Y47406718D01*
X-23983209Y47381643D01*
X-24656193Y47145331D01*
X-24757324Y47096448D01*
X-25360575Y46715869D01*
X-25448242Y46645644D01*
X-25951314Y46140006D01*
X-26021092Y46051982D01*
X-26398595Y45446802D01*
X-26446963Y45345424D01*
X-26679847Y44671245D01*
X-26704364Y44561627D01*
X-26780874Y43852475D01*
X-26783753Y43796297D01*
X-26548088Y-2509701D01*
X-26618958Y-3068132D01*
X-26819816Y-3558328D01*
X-27141056Y-3979561D01*
X-27560647Y-4302939D01*
X-27794132Y-4400000D01*
X-29358556Y-4400000D01*
X-29592845Y-4302955D01*
X-30014447Y-3979447D01*
X-30337955Y-3557845D01*
X-30541322Y-3066871D01*
X-30615000Y-2507232D01*
X-30615000Y43815000D01*
X-30618144Y43870982D01*
X-30697748Y44577486D01*
X-30722662Y44686644D01*
X-30957482Y45357721D01*
X-31006062Y45458597D01*
X-31384323Y46060596D01*
X-31454132Y46148133D01*
X-31956867Y46650868D01*
X-32044404Y46720677D01*
X-32646403Y47098938D01*
X-32747279Y47147518D01*
X-33418356Y47382338D01*
X-33527514Y47407252D01*
X-34234018Y47486856D01*
X-34290000Y47490000D01*
X-36467065Y47490000D01*
X-36522968Y47486865D01*
X-37228487Y47407486D01*
X-37337499Y47382641D01*
X-38007740Y47148472D01*
X-38108504Y47100026D01*
X-38709954Y46722778D01*
X-38797434Y46653151D01*
X-39300017Y46151686D01*
X-39369839Y46064361D01*
X-39748427Y45463753D01*
X-39797098Y45363096D01*
X-40032759Y44693378D01*
X-40057846Y44584422D01*
X-40138796Y43879082D01*
X-40142056Y43823187D01*
X-40245267Y-2506169D01*
X-40320179Y-3066336D01*
X-40524646Y-3557641D01*
X-40849148Y-3979405D01*
X-41271631Y-4302964D01*
X-41506266Y-4400000D01*
X-43070695Y-4400000D01*
X-43303819Y-4302937D01*
X-43722534Y-3979613D01*
X-44042782Y-3558549D01*
X-44242543Y-3068698D01*
X-44312187Y-2510805D01*
X-43973415Y43788111D01*
X-43976177Y43844374D01*
X-44051326Y44554682D01*
X-44075668Y44664500D01*
X-44307697Y45340035D01*
X-44355971Y45441634D01*
X-44733138Y46048206D01*
X-44802902Y46136441D01*
X-45306117Y46643352D01*
X-45393841Y46713761D01*
X-45997638Y47095356D01*
X-46098880Y47144372D01*
X-46772699Y47381338D01*
X-46882336Y47406483D01*
X-47592075Y47486827D01*
X-47648317Y47490000D01*
X-49817481Y47490000D01*
X-49873211Y47486884D01*
X-50576572Y47407996D01*
X-50685263Y47383304D01*
X-51353672Y47150559D01*
X-51454192Y47102403D01*
X-52054433Y46727368D01*
X-52141787Y46658139D01*
X-52644032Y46159450D01*
X-52713879Y46072590D01*
X-53093170Y45475029D01*
X-53142040Y45374854D01*
X-53379529Y44708116D01*
X-53404993Y44599603D01*
X-53488877Y43896819D01*
X-53492388Y43841113D01*
X-53821707Y-2503886D01*
X-53899328Y-3065199D01*
X-54106208Y-3557219D01*
X-54432886Y-3979320D01*
X-54857296Y-4302990D01*
X-55092681Y-4400000D01*
X-56663556Y-4400000D01*
X-56897845Y-4302955D01*
X-57319447Y-3979447D01*
X-57642955Y-3557845D01*
X-57846322Y-3066871D01*
X-57920000Y-2507232D01*
X-57920000Y44069000D01*
X-57923144Y44124983D01*
X-57996380Y44774967D01*
X-58021294Y44884123D01*
X-58237328Y45501513D01*
X-58285908Y45602390D01*
X-58633908Y46156230D01*
X-58703717Y46243767D01*
X-59166233Y46706283D01*
X-59253770Y46776092D01*
X-59807610Y47124092D01*
X-59908487Y47172672D01*
X-60525877Y47388706D01*
X-60635033Y47413620D01*
X-61879019Y47553784D01*
X-62390061Y47732606D01*
X-62848498Y48020660D01*
X-63231340Y48403502D01*
X-63400000Y48671924D01*
X-63400000Y58840251D01*
X-63175925Y59196864D01*
X-62752864Y59619925D01*
X-62246269Y59938240D01*
X-61681537Y60135848D01*
X-61058922Y60206000D01*
X-59190906Y60206000D01*
X-59134824Y60209155D01*
X-58427081Y60289042D01*
X-58317740Y60314044D01*
X-57645613Y60549684D01*
X-57544597Y60598431D01*
X-56941908Y60977967D01*
X-56854298Y61048006D01*
X-56351377Y61552339D01*
X-56281586Y61640142D01*
X-56252727Y61686255D01*
X-55167773Y62771209D01*
X-54300000Y64866199D01*
X-54300000Y67133801D01*
X-55167773Y69228791D01*
X-56645276Y70706294D01*
X-56531465Y103597584D01*
X-56460308Y104125146D01*
X-56268013Y104585999D01*
X-55963225Y104981551D01*
X-55566618Y105284971D01*
X-55288232Y105400000D01*
X-53932238Y105400000D01*
X-53654054Y105284971D01*
X-53654054Y105284971D01*
G37*
X-53654054Y105284971D02*
X-53257830Y104981576D01*
X-52953474Y104586097D01*
X-52761658Y104125398D01*
X-52691034Y103598073D01*
X-52577724Y57141036D01*
X-52574453Y57085149D01*
X-52493375Y56379919D01*
X-52468271Y56270982D01*
X-52232530Y55601394D01*
X-52183851Y55500759D01*
X-51805233Y54900283D01*
X-51735410Y54812978D01*
X-51232841Y54311633D01*
X-51145366Y54242023D01*
X-50543969Y53864871D01*
X-50443215Y53816437D01*
X-49773053Y53582330D01*
X-49664056Y53557492D01*
X-48958630Y53478134D01*
X-48902734Y53475000D01*
X-47995671Y53475000D01*
X-47939681Y53478145D01*
X-47233083Y53557770D01*
X-47123912Y53582691D01*
X-46452756Y53817573D01*
X-46351869Y53866165D01*
X-45749818Y54244522D01*
X-45662275Y54314348D01*
X-45159526Y54817204D01*
X-45089719Y54904761D01*
X-44711489Y55506892D01*
X-44662918Y55607790D01*
X-44428178Y56278996D01*
X-44403280Y56388172D01*
X-44323804Y57094786D01*
X-44320671Y57150777D01*
X-44330456Y103472330D01*
X-44256894Y104031926D01*
X-44053634Y104522862D01*
X-43730219Y104944452D01*
X-43308700Y105267954D01*
X-42989960Y105400000D01*
X-41594226Y105400000D01*
X-41276505Y105267942D01*
X-40856826Y104944554D01*
X-40535492Y104523306D01*
X-40334531Y104033078D01*
X-40263544Y103474597D01*
X-40489431Y57167927D01*
X-40486542Y57111756D01*
X-40409902Y56402712D01*
X-40385368Y56293115D01*
X-40152404Y55619066D01*
X-40104027Y55517708D01*
X-39726492Y54912660D01*
X-39656713Y54824657D01*
X-39153655Y54319139D01*
X-39065993Y54248931D01*
X-38462794Y53868449D01*
X-38361674Y53819578D01*
X-37688768Y53583328D01*
X-37579290Y53558260D01*
X-36870629Y53478163D01*
X-36814474Y53475000D01*
X-34645218Y53475000D01*
X-34589401Y53478125D01*
X-33884960Y53557259D01*
X-33776109Y53582027D01*
X-33106784Y53815483D01*
X-33006142Y53863785D01*
X-32405296Y54239926D01*
X-32317879Y54309353D01*
X-31815463Y54809429D01*
X-31745628Y54896522D01*
X-31366687Y55495606D01*
X-31317916Y55596022D01*
X-31081339Y56264251D01*
X-31056063Y56372985D01*
X-30973643Y57077048D01*
X-30970257Y57132850D01*
X-30754011Y103470022D01*
X-30677746Y104030764D01*
X-30472074Y104522426D01*
X-30146485Y104944359D01*
X-29723037Y105267976D01*
X-29403248Y105400000D01*
X-28001796Y105400000D01*
X-27682488Y105267966D01*
X-27259920Y104944400D01*
X-26935325Y104522623D01*
X-26730752Y104031286D01*
X-26655724Y103471074D01*
X-26542724Y57141036D01*
X-26539453Y57085149D01*
X-26458375Y56379919D01*
X-26433271Y56270982D01*
X-26197530Y55601394D01*
X-26148851Y55500759D01*
X-25770233Y54900283D01*
X-25700410Y54812978D01*
X-25197841Y54311633D01*
X-25110366Y54242023D01*
X-24508969Y53864871D01*
X-24408215Y53816437D01*
X-23738053Y53582330D01*
X-23629056Y53557492D01*
X-22923630Y53478134D01*
X-22867734Y53475000D01*
X-20698426Y53475000D01*
X-20642349Y53478155D01*
X-19934673Y53558027D01*
X-19825343Y53583024D01*
X-19153272Y53818620D01*
X-19052263Y53867358D01*
X-18449611Y54246825D01*
X-18362005Y54316851D01*
X-17859094Y54821097D01*
X-17789301Y54908887D01*
X-17411432Y55512543D01*
X-17362962Y55613681D01*
X-17129148Y56286374D01*
X-17104441Y56395771D01*
X-17026445Y57103656D01*
X-17023439Y57159740D01*
X-17146183Y103473502D01*
X-17073968Y104032526D01*
X-16871911Y104523090D01*
X-16549583Y104944503D01*
X-16129026Y105267946D01*
X-15810816Y105400000D01*
X-14415083Y105400000D01*
X-14096830Y105267948D01*
X-13676187Y104944498D01*
X-13353768Y104523072D01*
X-13151604Y104032470D01*
X-13079274Y103473410D01*
X-13192236Y57158964D01*
X-13189219Y57102887D01*
X-13111095Y56395112D01*
X-13086370Y56285734D01*
X-12852475Y55613170D01*
X-12803997Y55512053D01*
X-12426097Y54908529D01*
X-12356302Y54820759D01*
X-11853404Y54316634D01*
X-11765805Y54246626D01*
X-11163206Y53867255D01*
X-11062208Y53818530D01*
X-10390216Y53582995D01*
X-10280898Y53558004D01*
X-9573316Y53478154D01*
X-9517247Y53475000D01*
X-7246292Y53475000D01*
X-7190407Y53478133D01*
X-6485118Y53557460D01*
X-6376141Y53582288D01*
X-5706095Y53816305D01*
X-5605357Y53864721D01*
X-5004035Y54241734D01*
X-4916567Y54311319D01*
X-4414019Y54812489D01*
X-4344195Y54899764D01*
X-3965532Y55500047D01*
X-3916840Y55600653D01*
X-3680984Y56270055D01*
X-3655856Y56378963D01*
X-3574592Y57084032D01*
X-3571306Y57139908D01*
X-3444068Y103470918D01*
X-3368868Y104031215D01*
X-3164144Y104522597D01*
X-2839415Y104944392D01*
X-2416721Y105267968D01*
X-2097348Y105400000D01*
X-696796Y105400000D01*
X-377488Y105267966D01*
X45080Y104944400D01*
X369675Y104522623D01*
X574248Y104031286D01*
X649276Y103471074D01*
X762276Y57141036D01*
X765547Y57085149D01*
X846625Y56379919D01*
X871729Y56270982D01*
X1107470Y55601394D01*
X1156149Y55500759D01*
X1534767Y54900283D01*
X1604590Y54812978D01*
X2107159Y54311633D01*
X2194634Y54242023D01*
X2796031Y53864871D01*
X2896785Y53816437D01*
X3566947Y53582330D01*
X3675944Y53557492D01*
X4381370Y53478134D01*
X4437266Y53475000D01*
X7088302Y53475000D01*
X7144359Y53478152D01*
X7851795Y53557969D01*
X7961091Y53582950D01*
X8632958Y53818387D01*
X8733940Y53867092D01*
X9336458Y54246312D01*
X9424049Y54316293D01*
X9926925Y54820230D01*
X9996721Y54907969D01*
X10374671Y55511285D01*
X10423164Y55612370D01*
X10657184Y56284732D01*
X10681934Y56394079D01*
X10760260Y57101681D01*
X10763294Y57157745D01*
X10662779Y104853743D01*
X10729701Y105193453D01*
X10867318Y105400000D01*
X11993970Y105400000D01*
X12132337Y105192918D01*
X12200000Y104852753D01*
X12200000Y1827247D01*
X12132337Y1487082D01*
X11967546Y1240454D01*
X11720918Y1075663D01*
X11430000Y1017796D01*
X11139082Y1075663D01*
X10892454Y1240454D01*
X10727663Y1487082D01*
X10660000Y1827247D01*
X10660000Y43815000D01*
X10656856Y43870982D01*
X10577252Y44577486D01*
X10552338Y44686644D01*
X10317518Y45357721D01*
X10268938Y45458597D01*
X9890677Y46060596D01*
X9820868Y46148133D01*
X9318133Y46650868D01*
X9230596Y46720677D01*
X8628597Y47098938D01*
X8527721Y47147518D01*
X7856644Y47382338D01*
X7747486Y47407252D01*
X7040982Y47486856D01*
X6985000Y47490000D01*
X4362318Y47490000D01*
X4306268Y47486848D01*
X3598920Y47407051D01*
X3489637Y47382077D01*
X2817844Y47146698D01*
X2716872Y47098005D01*
X2114402Y46718875D01*
X2026816Y46648910D01*
X1523954Y46145087D01*
X1454157Y46057367D01*
X1076178Y45454174D01*
X1027677Y45353109D01*
X793581Y44680868D01*
X768815Y44571538D01*
X690369Y43864039D01*
X687325Y43807983D01*
X765088Y3079854D01*
X692464Y2520658D01*
X490043Y2029982D01*
X167381Y1608510D01*
X156309Y1600000D01*
X-2698301Y1600000D01*
X-2709447Y1608553D01*
X-3032955Y2030155D01*
X-3236322Y2521129D01*
X-3310000Y3080768D01*
X-3310000Y43815000D01*
X-3313144Y43870982D01*
X-3392748Y44577486D01*
X-3417662Y44686644D01*
X-3652482Y45357721D01*
X-3701062Y45458597D01*
X-4079323Y46060596D01*
X-4149132Y46148133D01*
X-4651867Y46650868D01*
X-4739404Y46720677D01*
X-5341403Y47098938D01*
X-5442279Y47147518D01*
X-6113356Y47382338D01*
X-6222514Y47407252D01*
X-6929018Y47486856D01*
X-6985000Y47490000D01*
X-9283665Y47490000D01*
X-9339564Y47486865D01*
X-10045034Y47407497D01*
X-10154038Y47382656D01*
X-10824238Y47148520D01*
X-10924998Y47100080D01*
X-11526420Y46722881D01*
X-11613897Y46653264D01*
X-12116473Y46151862D01*
X-12186295Y46064547D01*
X-12564899Y45464009D01*
X-12613575Y45363363D01*
X-12849277Y44693712D01*
X-12874372Y44584767D01*
X-12955389Y43879485D01*
X-12958655Y43823593D01*
X-13066983Y-2506120D01*
X-13141956Y-3066310D01*
X-13346479Y-3557633D01*
X-13671027Y-3979401D01*
X-14093557Y-4302966D01*
X-14328206Y-4400000D01*
X-15897847Y-4400000D01*
X-16132512Y-4302966D01*
X-16555080Y-3979400D01*
X-16879675Y-3557623D01*
X-17084248Y-3066286D01*
X-17159276Y-2506074D01*
X-17272276Y43823964D01*
X-17275547Y43879851D01*
X-17356625Y44585081D01*
X-17381729Y44694018D01*
X-17617470Y45363606D01*
X-17666149Y45464241D01*
X-18044767Y46064717D01*
X-18114590Y46152022D01*
X-18617159Y46653367D01*
X-18704634Y46722977D01*
X-19306031Y47100129D01*
X-19406785Y47148563D01*
X-20076947Y47382670D01*
X-20185944Y47407508D01*
X-20891370Y47486866D01*
X-20947266Y47490000D01*
X-23108800Y47490000D01*
X-23164963Y47486836D01*
X-23873718Y47406718D01*
X-23983209Y47381643D01*
X-24656193Y47145331D01*
X-24757324Y47096448D01*
X-25360575Y46715869D01*
X-25448242Y46645644D01*
X-25951314Y46140006D01*
X-26021092Y46051982D01*
X-26398595Y45446802D01*
X-26446963Y45345424D01*
X-26679847Y44671245D01*
X-26704364Y44561627D01*
X-26780874Y43852475D01*
X-26783753Y43796297D01*
X-26548088Y-2509701D01*
X-26618958Y-3068132D01*
X-26819816Y-3558328D01*
X-27141056Y-3979561D01*
X-27560647Y-4302939D01*
X-27794132Y-4400000D01*
X-29358556Y-4400000D01*
X-29592845Y-4302955D01*
X-30014447Y-3979447D01*
X-30337955Y-3557845D01*
X-30541322Y-3066871D01*
X-30615000Y-2507232D01*
X-30615000Y43815000D01*
X-30618144Y43870982D01*
X-30697748Y44577486D01*
X-30722662Y44686644D01*
X-30957482Y45357721D01*
X-31006062Y45458597D01*
X-31384323Y46060596D01*
X-31454132Y46148133D01*
X-31956867Y46650868D01*
X-32044404Y46720677D01*
X-32646403Y47098938D01*
X-32747279Y47147518D01*
X-33418356Y47382338D01*
X-33527514Y47407252D01*
X-34234018Y47486856D01*
X-34290000Y47490000D01*
X-36467065Y47490000D01*
X-36522968Y47486865D01*
X-37228487Y47407486D01*
X-37337499Y47382641D01*
X-38007740Y47148472D01*
X-38108504Y47100026D01*
X-38709954Y46722778D01*
X-38797434Y46653151D01*
X-39300017Y46151686D01*
X-39369839Y46064361D01*
X-39748427Y45463753D01*
X-39797098Y45363096D01*
X-40032759Y44693378D01*
X-40057846Y44584422D01*
X-40138796Y43879082D01*
X-40142056Y43823187D01*
X-40245267Y-2506169D01*
X-40320179Y-3066336D01*
X-40524646Y-3557641D01*
X-40849148Y-3979405D01*
X-41271631Y-4302964D01*
X-41506266Y-4400000D01*
X-43070695Y-4400000D01*
X-43303819Y-4302937D01*
X-43722534Y-3979613D01*
X-44042782Y-3558549D01*
X-44242543Y-3068698D01*
X-44312187Y-2510805D01*
X-43973415Y43788111D01*
X-43976177Y43844374D01*
X-44051326Y44554682D01*
X-44075668Y44664500D01*
X-44307697Y45340035D01*
X-44355971Y45441634D01*
X-44733138Y46048206D01*
X-44802902Y46136441D01*
X-45306117Y46643352D01*
X-45393841Y46713761D01*
X-45997638Y47095356D01*
X-46098880Y47144372D01*
X-46772699Y47381338D01*
X-46882336Y47406483D01*
X-47592075Y47486827D01*
X-47648317Y47490000D01*
X-49817481Y47490000D01*
X-49873211Y47486884D01*
X-50576572Y47407996D01*
X-50685263Y47383304D01*
X-51353672Y47150559D01*
X-51454192Y47102403D01*
X-52054433Y46727368D01*
X-52141787Y46658139D01*
X-52644032Y46159450D01*
X-52713879Y46072590D01*
X-53093170Y45475029D01*
X-53142040Y45374854D01*
X-53379529Y44708116D01*
X-53404993Y44599603D01*
X-53488877Y43896819D01*
X-53492388Y43841113D01*
X-53821707Y-2503886D01*
X-53899328Y-3065199D01*
X-54106208Y-3557219D01*
X-54432886Y-3979320D01*
X-54857296Y-4302990D01*
X-55092681Y-4400000D01*
X-56663556Y-4400000D01*
X-56897845Y-4302955D01*
X-57319447Y-3979447D01*
X-57642955Y-3557845D01*
X-57846322Y-3066871D01*
X-57920000Y-2507232D01*
X-57920000Y44069000D01*
X-57923144Y44124983D01*
X-57996380Y44774967D01*
X-58021294Y44884123D01*
X-58237328Y45501513D01*
X-58285908Y45602390D01*
X-58633908Y46156230D01*
X-58703717Y46243767D01*
X-59166233Y46706283D01*
X-59253770Y46776092D01*
X-59807610Y47124092D01*
X-59908487Y47172672D01*
X-60525877Y47388706D01*
X-60635033Y47413620D01*
X-61879019Y47553784D01*
X-62390061Y47732606D01*
X-62848498Y48020660D01*
X-63231340Y48403502D01*
X-63400000Y48671924D01*
X-63400000Y58840251D01*
X-63175925Y59196864D01*
X-62752864Y59619925D01*
X-62246269Y59938240D01*
X-61681537Y60135848D01*
X-61058922Y60206000D01*
X-59190906Y60206000D01*
X-59134824Y60209155D01*
X-58427081Y60289042D01*
X-58317740Y60314044D01*
X-57645613Y60549684D01*
X-57544597Y60598431D01*
X-56941908Y60977967D01*
X-56854298Y61048006D01*
X-56351377Y61552339D01*
X-56281586Y61640142D01*
X-56252727Y61686255D01*
X-55167773Y62771209D01*
X-54300000Y64866199D01*
X-54300000Y67133801D01*
X-55167773Y69228791D01*
X-56645276Y70706294D01*
X-56531465Y103597584D01*
X-56460308Y104125146D01*
X-56268013Y104585999D01*
X-55963225Y104981551D01*
X-55566618Y105284971D01*
X-55288232Y105400000D01*
X-53932238Y105400000D01*
X-53654054Y105284971D01*
G04 #@! TD*
M02*
