M48
;DRILL file {KiCad (5.0.0)} date 04/05/19 14:47:01
;FORMAT={-:-/ absolute / inch / decimal}
FMAT,2
INCH,TZ
T1C0.0120
T2C0.0220
T3C0.0300
T4C0.0350
%
G90
G05
M72
T1
X0.231Y0.36
X0.336Y0.309
X1.27Y0.3575
X1.365Y0.305
T2
X0.05Y0.475
X0.145Y0.2225
X0.39Y0.515
X0.499Y0.362
X0.534Y0.14
X0.5665Y0.308
X0.6045Y0.308
X0.6425Y0.308
X0.6805Y0.308
X0.7185Y0.308
X0.878Y0.31
X0.916Y0.31
X0.954Y0.31
X0.992Y0.31
X1.03Y0.31
X1.061Y0.479
X1.1175Y0.135
X1.12Y0.308
X1.19Y0.58
X1.4975Y0.4825
X1.56Y0.158
T3
X1.4775Y0.105
X0.3275Y0.055
X0.222Y0.105
X1.3725Y0.055
X0.17Y0.055
X0.83Y0.5356
X0.7775Y0.105
X0.7775Y0.4856
X0.83Y0.4856
X1.3725Y0.105
X0.7775Y0.5356
X0.725Y0.105
X0.725Y0.4856
X1.32Y0.055
X0.725Y0.055
X0.83Y0.055
X1.425Y0.055
X0.83Y0.105
X1.32Y0.105
X0.17Y0.105
X0.7775Y0.055
X0.2225Y0.055
X0.8825Y0.4856
X1.4775Y0.055
X0.725Y0.5356
X0.275Y0.055
X0.8825Y0.5356
X0.3275Y0.105
X1.425Y0.105
X0.8825Y0.055
X0.275Y0.105
X0.8825Y0.105
T4
X0.Y0.475
X1.61Y0.045
X1.61Y0.285
X1.61Y0.475
X0.Y0.395
X0.Y0.115
X0.Y0.555
X0.39Y0.61
X1.61Y0.205
X0.Y0.3044
X0.25Y0.61
X1.61Y0.125
T0
M30
