G04 #@! TF.GenerationSoftware,KiCad,Pcbnew,(5.0.0)*
G04 #@! TF.CreationDate,2019-04-05T14:46:39-07:00*
G04 #@! TF.ProjectId,Buffer,4275666665722E6B696361645F706362,rev?*
G04 #@! TF.SameCoordinates,Original*
G04 #@! TF.FileFunction,Copper,L4,Bot,Signal*
G04 #@! TF.FilePolarity,Positive*
%FSLAX46Y46*%
G04 Gerber Fmt 4.6, Leading zero omitted, Abs format (unit mm)*
G04 Created by KiCad (PCBNEW (5.0.0)) date 04/05/19 14:46:39*
%MOMM*%
%LPD*%
G01*
G04 APERTURE LIST*
G04 #@! TA.AperFunction,ComponentPad*
%ADD10C,1.270000*%
G04 #@! TD*
G04 #@! TA.AperFunction,SMDPad,CuDef*
%ADD11R,5.080000X2.540000*%
G04 #@! TD*
G04 #@! TA.AperFunction,ComponentPad*
%ADD12C,1.016000*%
G04 #@! TD*
G04 #@! TA.AperFunction,ViaPad*
%ADD13C,0.889000*%
G04 #@! TD*
G04 #@! TA.AperFunction,ViaPad*
%ADD14C,0.635000*%
G04 #@! TD*
G04 #@! TA.AperFunction,Conductor*
%ADD15C,0.330200*%
G04 #@! TD*
G04 #@! TA.AperFunction,Conductor*
%ADD16C,0.254000*%
G04 #@! TD*
G04 APERTURE END LIST*
D10*
G04 #@! TO.P,TP1,1*
G04 #@! TO.N,/GNDB1*
X9906000Y15494000D03*
G04 #@! TD*
D11*
G04 #@! TO.P,TP8,1*
G04 #@! TO.N,/GNDB1*
X20434300Y13096900D03*
G04 #@! TD*
D12*
G04 #@! TO.P,TP2,1*
G04 #@! TO.N,/GNDB1*
X19748500Y12334900D03*
G04 #@! TD*
G04 #@! TO.P,TP2,1*
G04 #@! TO.N,/GNDB1*
X21082000Y12334900D03*
G04 #@! TD*
G04 #@! TO.P,TP2,1*
G04 #@! TO.N,/GNDB1*
X18415000Y12334900D03*
G04 #@! TD*
G04 #@! TO.P,TP2,1*
G04 #@! TO.N,/GNDB1*
X18415000Y13604900D03*
G04 #@! TD*
G04 #@! TO.P,TP2,1*
G04 #@! TO.N,/GNDB1*
X22415500Y12334900D03*
G04 #@! TD*
G04 #@! TO.P,TP2,1*
G04 #@! TO.N,/GNDB1*
X21082000Y13604900D03*
G04 #@! TD*
G04 #@! TO.P,TP2,1*
G04 #@! TO.N,/GNDB1*
X22415500Y13604900D03*
G04 #@! TD*
G04 #@! TO.P,TP2,1*
G04 #@! TO.N,/GNDB1*
X19748500Y13604900D03*
G04 #@! TD*
G04 #@! TO.P,TP2,1*
G04 #@! TO.N,/Vc2Pos*
X21082000Y1397000D03*
G04 #@! TD*
G04 #@! TO.P,TP2,1*
G04 #@! TO.N,/Vc2Pos*
X22415500Y1397000D03*
G04 #@! TD*
G04 #@! TO.P,TP2,1*
G04 #@! TO.N,/LfNeg*
X8318500Y1397000D03*
G04 #@! TD*
G04 #@! TO.P,TP2,1*
G04 #@! TO.N,/CfNeg*
X37528500Y1397000D03*
G04 #@! TD*
G04 #@! TO.P,TP2,1*
G04 #@! TO.N,/CfNeg*
X36195000Y1397000D03*
G04 #@! TD*
G04 #@! TO.P,TP2,1*
G04 #@! TO.N,/CfNeg*
X33528000Y2667000D03*
G04 #@! TD*
G04 #@! TO.P,TP2,1*
G04 #@! TO.N,/CfNeg*
X33528000Y1397000D03*
G04 #@! TD*
G04 #@! TO.P,TP2,1*
G04 #@! TO.N,/CfNeg*
X36195000Y2667000D03*
G04 #@! TD*
G04 #@! TO.P,TP2,1*
G04 #@! TO.N,/CfNeg*
X34861500Y2667000D03*
G04 #@! TD*
G04 #@! TO.P,TP2,1*
G04 #@! TO.N,/CfNeg*
X34861500Y1397000D03*
G04 #@! TD*
G04 #@! TO.P,TP2,1*
G04 #@! TO.N,/CfNeg*
X37528500Y2667000D03*
G04 #@! TD*
D10*
G04 #@! TO.P,TP11,1*
G04 #@! TO.N,/PWMLow2*
X40894000Y12065000D03*
G04 #@! TD*
D12*
G04 #@! TO.P,TP2,1*
G04 #@! TO.N,/Vc2Pos*
X19748500Y1397000D03*
G04 #@! TD*
G04 #@! TO.P,TP2,1*
G04 #@! TO.N,/Vc2Pos*
X18415000Y1397000D03*
G04 #@! TD*
G04 #@! TO.P,TP2,1*
G04 #@! TO.N,/Vc2Pos*
X22415500Y2667000D03*
G04 #@! TD*
G04 #@! TO.P,TP2,1*
G04 #@! TO.N,/Vc2Pos*
X21082000Y2667000D03*
G04 #@! TD*
G04 #@! TO.P,TP2,1*
G04 #@! TO.N,/Vc2Pos*
X19748500Y2667000D03*
G04 #@! TD*
G04 #@! TO.P,TP2,1*
G04 #@! TO.N,/Vc2Pos*
X18415000Y2667000D03*
G04 #@! TD*
G04 #@! TO.P,TP2,1*
G04 #@! TO.N,/LfNeg*
X6985000Y2667000D03*
G04 #@! TD*
G04 #@! TO.P,TP2,1*
G04 #@! TO.N,/LfNeg*
X5638800Y2667000D03*
G04 #@! TD*
G04 #@! TO.P,TP2,1*
G04 #@! TO.N,/LfNeg*
X8318500Y2667000D03*
G04 #@! TD*
G04 #@! TO.P,TP2,1*
G04 #@! TO.N,/LfNeg*
X6985000Y1397000D03*
G04 #@! TD*
G04 #@! TO.P,TP2,1*
G04 #@! TO.N,/LfNeg*
X5651500Y1397000D03*
G04 #@! TD*
G04 #@! TO.P,TP2,1*
G04 #@! TO.N,/LfNeg*
X4318000Y2667000D03*
G04 #@! TD*
G04 #@! TO.P,TP2,1*
G04 #@! TO.N,/LfNeg*
X4318000Y1397000D03*
G04 #@! TD*
D11*
G04 #@! TO.P,TP12,1*
G04 #@! TO.N,/LfNeg*
X6350000Y2159000D03*
G04 #@! TD*
G04 #@! TO.P,TP13,1*
G04 #@! TO.N,/CfNeg*
X35560000Y2159000D03*
G04 #@! TD*
D10*
G04 #@! TO.P,TP16,1*
G04 #@! TO.N,/GNDI*
X0Y12065000D03*
G04 #@! TD*
G04 #@! TO.P,TP15,1*
G04 #@! TO.N,/5.5V_Iso*
X6350000Y15494000D03*
G04 #@! TD*
G04 #@! TO.P,TP17,1*
G04 #@! TO.N,/5V*
X0Y14097000D03*
G04 #@! TD*
G04 #@! TO.P,TP5,1*
G04 #@! TO.N,/GNDI*
X40894000Y3175000D03*
G04 #@! TD*
G04 #@! TO.P,TP10,1*
G04 #@! TO.N,/PWMHigh2*
X40894000Y7239000D03*
G04 #@! TD*
G04 #@! TO.P,TP9,1*
G04 #@! TO.N,/Disable2*
X40894000Y5207000D03*
G04 #@! TD*
G04 #@! TO.P,TP6,1*
G04 #@! TO.N,/Disable1*
X0Y7731000D03*
G04 #@! TD*
G04 #@! TO.P,TP4,1*
G04 #@! TO.N,/5V*
X40894000Y1143000D03*
G04 #@! TD*
G04 #@! TO.P,TP3,1*
G04 #@! TO.N,/PWMLow1*
X0Y10033000D03*
G04 #@! TD*
G04 #@! TO.P,TP2,1*
G04 #@! TO.N,/PWMHigh1*
X0Y2921000D03*
G04 #@! TD*
D11*
G04 #@! TO.P,TP7,1*
G04 #@! TO.N,/Vc2Pos*
X20434300Y2159000D03*
G04 #@! TD*
D13*
G04 #@! TO.N,/GNDI*
X3683000Y5651500D03*
X1270000Y12065000D03*
X39624000Y4013200D03*
X38036500Y12255500D03*
D14*
G04 #@! TO.N,/GNDB1*
X32258000Y9080500D03*
D13*
X9906000Y13081000D03*
X12674600Y9194800D03*
X26949400Y12166600D03*
D14*
G04 #@! TO.N,/Disable1*
X5867400Y9144000D03*
G04 #@! TO.N,/Disable2*
X34671000Y7747000D03*
D13*
G04 #@! TO.N,/CfNeg*
X23266400Y7874000D03*
X26162000Y7874000D03*
X25196800Y7874000D03*
X24231600Y7874000D03*
X22301200Y7874000D03*
X28384500Y3429000D03*
X28448000Y7823200D03*
G04 #@! TO.N,/5.5V_Iso*
X30226000Y14732000D03*
G04 #@! TO.N,/LfNeg*
X16319500Y7823200D03*
X14389100Y7823200D03*
X18249900Y7823200D03*
X17284700Y7823200D03*
X15354300Y7823200D03*
D14*
X8534400Y7848600D03*
D13*
X13563600Y3556000D03*
G04 #@! TD*
D15*
G04 #@! TO.N,/LfNeg*
X6350000Y2832100D02*
X6515100Y2832100D01*
G04 #@! TD*
D16*
G04 #@! TO.N,/LfNeg*
G36*
X18729643Y8434240D02*
X18796000Y8278738D01*
X18796000Y7487599D01*
X18748977Y7340868D01*
X17006447Y4901325D01*
X16841871Y4799234D01*
X13136505Y4201594D01*
X13107626Y4193338D01*
X12970099Y4135683D01*
X12943967Y4120877D01*
X8788041Y1065050D01*
X8638534Y1016000D01*
X4096005Y1016000D01*
X3942047Y1080676D01*
X3880464Y1235895D01*
X3932195Y3822424D01*
X3973497Y3945953D01*
X4077756Y4024028D01*
X12004177Y6828762D01*
X12040885Y6849107D01*
X12202836Y6977963D01*
X12230909Y7009161D01*
X12951099Y8140887D01*
X13257496Y8267801D01*
X18571459Y8493926D01*
X18729643Y8434240D01*
X18729643Y8434240D01*
G37*
X18729643Y8434240D02*
X18796000Y8278738D01*
X18796000Y7487599D01*
X18748977Y7340868D01*
X17006447Y4901325D01*
X16841871Y4799234D01*
X13136505Y4201594D01*
X13107626Y4193338D01*
X12970099Y4135683D01*
X12943967Y4120877D01*
X8788041Y1065050D01*
X8638534Y1016000D01*
X4096005Y1016000D01*
X3942047Y1080676D01*
X3880464Y1235895D01*
X3932195Y3822424D01*
X3973497Y3945953D01*
X4077756Y4024028D01*
X12004177Y6828762D01*
X12040885Y6849107D01*
X12202836Y6977963D01*
X12230909Y7009161D01*
X12951099Y8140887D01*
X13257496Y8267801D01*
X18571459Y8493926D01*
X18729643Y8434240D01*
G04 #@! TO.N,/CfNeg*
G36*
X27369866Y8335112D02*
X27503863Y8283733D01*
X27576716Y8160095D01*
X27772705Y7175019D01*
X27785709Y7139102D01*
X27875956Y6973243D01*
X27907676Y6935173D01*
X27930150Y6920634D01*
X28098614Y6835350D01*
X28134901Y6823419D01*
X30533409Y6419823D01*
X30568931Y6411178D01*
X38012063Y4020056D01*
X38121621Y3940873D01*
X38163500Y3812346D01*
X38163500Y1291308D01*
X38101180Y1139580D01*
X37950203Y1075458D01*
X33082357Y1017507D01*
X32929475Y1066831D01*
X28963901Y3995256D01*
X28938773Y4009701D01*
X28806578Y4066741D01*
X28778829Y4075112D01*
X24394036Y4866811D01*
X24262478Y4934632D01*
X21792791Y7345517D01*
X21717000Y7525420D01*
X21717000Y8283050D01*
X21782425Y8437701D01*
X21938974Y8498447D01*
X27369866Y8335112D01*
X27369866Y8335112D01*
G37*
X27369866Y8335112D02*
X27503863Y8283733D01*
X27576716Y8160095D01*
X27772705Y7175019D01*
X27785709Y7139102D01*
X27875956Y6973243D01*
X27907676Y6935173D01*
X27930150Y6920634D01*
X28098614Y6835350D01*
X28134901Y6823419D01*
X30533409Y6419823D01*
X30568931Y6411178D01*
X38012063Y4020056D01*
X38121621Y3940873D01*
X38163500Y3812346D01*
X38163500Y1291308D01*
X38101180Y1139580D01*
X37950203Y1075458D01*
X33082357Y1017507D01*
X32929475Y1066831D01*
X28963901Y3995256D01*
X28938773Y4009701D01*
X28806578Y4066741D01*
X28778829Y4075112D01*
X24394036Y4866811D01*
X24262478Y4934632D01*
X21792791Y7345517D01*
X21717000Y7525420D01*
X21717000Y8283050D01*
X21782425Y8437701D01*
X21938974Y8498447D01*
X27369866Y8335112D01*
G04 #@! TO.N,/GNDB1*
G36*
X25781000Y11251611D02*
X15112260Y11201989D01*
X15088922Y15216200D01*
X25781000Y15216200D01*
X25781000Y11251611D01*
X25781000Y11251611D01*
G37*
X25781000Y11251611D02*
X15112260Y11201989D01*
X15088922Y15216200D01*
X25781000Y15216200D01*
X25781000Y11251611D01*
G04 #@! TO.N,/Vc2Pos*
G36*
X25755600Y304800D02*
X15189200Y304800D01*
X15189200Y3683000D01*
X25755600Y3683000D01*
X25755600Y304800D01*
X25755600Y304800D01*
G37*
X25755600Y304800D02*
X15189200Y304800D01*
X15189200Y3683000D01*
X25755600Y3683000D01*
X25755600Y304800D01*
G04 #@! TD*
M02*
