G04 #@! TF.GenerationSoftware,KiCad,Pcbnew,(5.0.0)*
G04 #@! TF.CreationDate,2019-04-05T14:46:39-07:00*
G04 #@! TF.ProjectId,Buffer,4275666665722E6B696361645F706362,rev?*
G04 #@! TF.SameCoordinates,Original*
G04 #@! TF.FileFunction,Copper,L1,Top,Signal*
G04 #@! TF.FilePolarity,Positive*
%FSLAX46Y46*%
G04 Gerber Fmt 4.6, Leading zero omitted, Abs format (unit mm)*
G04 Created by KiCad (PCBNEW (5.0.0)) date 04/05/19 14:46:39*
%MOMM*%
%LPD*%
G01*
G04 APERTURE LIST*
G04 #@! TA.AperFunction,ComponentPad*
%ADD10C,1.270000*%
G04 #@! TD*
G04 #@! TA.AperFunction,ComponentPad*
%ADD11C,1.016000*%
G04 #@! TD*
G04 #@! TA.AperFunction,SMDPad,CuDef*
%ADD12R,1.750000X0.300000*%
G04 #@! TD*
G04 #@! TA.AperFunction,SMDPad,CuDef*
%ADD13R,1.500000X1.016000*%
G04 #@! TD*
G04 #@! TA.AperFunction,SMDPad,CuDef*
%ADD14R,0.508000X0.711000*%
G04 #@! TD*
G04 #@! TA.AperFunction,SMDPad,CuDef*
%ADD15R,0.711000X0.508000*%
G04 #@! TD*
G04 #@! TA.AperFunction,SMDPad,CuDef*
%ADD16R,0.889000X1.000000*%
G04 #@! TD*
G04 #@! TA.AperFunction,SMDPad,CuDef*
%ADD17R,1.300000X1.400000*%
G04 #@! TD*
G04 #@! TA.AperFunction,BGAPad,CuDef*
%ADD18C,0.400000*%
G04 #@! TD*
G04 #@! TA.AperFunction,ViaPad*
%ADD19C,0.889000*%
G04 #@! TD*
G04 #@! TA.AperFunction,ViaPad*
%ADD20C,0.635000*%
G04 #@! TD*
G04 #@! TA.AperFunction,Conductor*
%ADD21C,0.330200*%
G04 #@! TD*
G04 #@! TA.AperFunction,Conductor*
%ADD22C,0.508000*%
G04 #@! TD*
G04 #@! TA.AperFunction,Conductor*
%ADD23C,0.254000*%
G04 #@! TD*
G04 APERTURE END LIST*
D10*
G04 #@! TO.P,TP1,1*
G04 #@! TO.N,/GNDB1*
X9906000Y15494000D03*
G04 #@! TD*
D11*
G04 #@! TO.P,TP2,1*
G04 #@! TO.N,/GNDB1*
X19748500Y12334900D03*
G04 #@! TD*
G04 #@! TO.P,TP2,1*
G04 #@! TO.N,/GNDB1*
X21082000Y12334900D03*
G04 #@! TD*
G04 #@! TO.P,TP2,1*
G04 #@! TO.N,/GNDB1*
X18415000Y12334900D03*
G04 #@! TD*
G04 #@! TO.P,TP2,1*
G04 #@! TO.N,/GNDB1*
X18415000Y13604900D03*
G04 #@! TD*
G04 #@! TO.P,TP2,1*
G04 #@! TO.N,/GNDB1*
X22415500Y12334900D03*
G04 #@! TD*
G04 #@! TO.P,TP2,1*
G04 #@! TO.N,/GNDB1*
X21082000Y13604900D03*
G04 #@! TD*
G04 #@! TO.P,TP2,1*
G04 #@! TO.N,/GNDB1*
X22415500Y13604900D03*
G04 #@! TD*
G04 #@! TO.P,TP2,1*
G04 #@! TO.N,/GNDB1*
X19748500Y13604900D03*
G04 #@! TD*
G04 #@! TO.P,TP2,1*
G04 #@! TO.N,/Vc2Pos*
X21082000Y1397000D03*
G04 #@! TD*
G04 #@! TO.P,TP2,1*
G04 #@! TO.N,/Vc2Pos*
X22415500Y1397000D03*
G04 #@! TD*
G04 #@! TO.P,TP2,1*
G04 #@! TO.N,/LfNeg*
X8318500Y1397000D03*
G04 #@! TD*
G04 #@! TO.P,TP2,1*
G04 #@! TO.N,/CfNeg*
X37528500Y1397000D03*
G04 #@! TD*
G04 #@! TO.P,TP2,1*
G04 #@! TO.N,/CfNeg*
X36195000Y1397000D03*
G04 #@! TD*
G04 #@! TO.P,TP2,1*
G04 #@! TO.N,/CfNeg*
X33528000Y2667000D03*
G04 #@! TD*
G04 #@! TO.P,TP2,1*
G04 #@! TO.N,/CfNeg*
X33528000Y1397000D03*
G04 #@! TD*
G04 #@! TO.P,TP2,1*
G04 #@! TO.N,/CfNeg*
X36195000Y2667000D03*
G04 #@! TD*
G04 #@! TO.P,TP2,1*
G04 #@! TO.N,/CfNeg*
X34861500Y2667000D03*
G04 #@! TD*
G04 #@! TO.P,TP2,1*
G04 #@! TO.N,/CfNeg*
X34861500Y1397000D03*
G04 #@! TD*
G04 #@! TO.P,TP2,1*
G04 #@! TO.N,/CfNeg*
X37528500Y2667000D03*
G04 #@! TD*
D10*
G04 #@! TO.P,TP11,1*
G04 #@! TO.N,/PWMLow2*
X40894000Y12065000D03*
G04 #@! TD*
D11*
G04 #@! TO.P,TP2,1*
G04 #@! TO.N,/Vc2Pos*
X19748500Y1397000D03*
G04 #@! TD*
G04 #@! TO.P,TP2,1*
G04 #@! TO.N,/Vc2Pos*
X18415000Y1397000D03*
G04 #@! TD*
G04 #@! TO.P,TP2,1*
G04 #@! TO.N,/Vc2Pos*
X22415500Y2667000D03*
G04 #@! TD*
G04 #@! TO.P,TP2,1*
G04 #@! TO.N,/Vc2Pos*
X21082000Y2667000D03*
G04 #@! TD*
G04 #@! TO.P,TP2,1*
G04 #@! TO.N,/Vc2Pos*
X19748500Y2667000D03*
G04 #@! TD*
G04 #@! TO.P,TP2,1*
G04 #@! TO.N,/Vc2Pos*
X18415000Y2667000D03*
G04 #@! TD*
D12*
G04 #@! TO.P,Inf2,13*
G04 #@! TO.N,/VDDB2*
X30850300Y10368200D03*
G04 #@! TO.P,Inf2,12*
G04 #@! TO.N,/PWMB2*
X30850300Y9718200D03*
G04 #@! TO.P,Inf2,11*
G04 #@! TO.N,/GNDB1*
X30850300Y9068200D03*
G04 #@! TO.P,Inf2,10*
G04 #@! TO.N,/VDDT2*
X30850300Y7768200D03*
G04 #@! TO.P,Inf2,9*
G04 #@! TO.N,/PWMT2*
X30850300Y7118200D03*
G04 #@! TO.P,Inf2,1*
G04 #@! TO.N,/GNDI*
X36100300Y10368200D03*
G04 #@! TO.P,Inf2,2*
G04 #@! TO.N,/InB2*
X36100300Y9718200D03*
G04 #@! TO.P,Inf2,3*
G04 #@! TO.N,/InT2*
X36100300Y9068200D03*
G04 #@! TO.P,Inf2,4*
G04 #@! TO.N,/GNDI*
X36100300Y8418200D03*
G04 #@! TO.P,Inf2,5*
G04 #@! TO.N,/Disable2*
X36100300Y7768200D03*
G04 #@! TO.P,Inf2,6*
G04 #@! TO.N,Net-(Inf2-Pad6)*
X36100300Y7118200D03*
G04 #@! TO.P,Inf2,7*
G04 #@! TO.N,/VDDI2*
X36100300Y6468200D03*
G04 #@! TO.P,Inf2,8*
G04 #@! TO.N,/CfNeg*
X30850300Y6468200D03*
G04 #@! TD*
D11*
G04 #@! TO.P,TP2,1*
G04 #@! TO.N,/LfNeg*
X6985000Y2667000D03*
G04 #@! TD*
G04 #@! TO.P,TP2,1*
G04 #@! TO.N,/LfNeg*
X5638800Y2667000D03*
G04 #@! TD*
G04 #@! TO.P,TP2,1*
G04 #@! TO.N,/LfNeg*
X8318500Y2667000D03*
G04 #@! TD*
G04 #@! TO.P,TP2,1*
G04 #@! TO.N,/LfNeg*
X6985000Y1397000D03*
G04 #@! TD*
G04 #@! TO.P,TP2,1*
G04 #@! TO.N,/LfNeg*
X5651500Y1397000D03*
G04 #@! TD*
G04 #@! TO.P,TP2,1*
G04 #@! TO.N,/LfNeg*
X4318000Y2667000D03*
G04 #@! TD*
G04 #@! TO.P,TP2,1*
G04 #@! TO.N,/LfNeg*
X4318000Y1397000D03*
G04 #@! TD*
D12*
G04 #@! TO.P,Inf1,13*
G04 #@! TO.N,/VDDT1*
X9854000Y6548200D03*
G04 #@! TO.P,Inf1,12*
G04 #@! TO.N,/PWMT1*
X9854000Y7198200D03*
G04 #@! TO.P,Inf1,11*
G04 #@! TO.N,/LfNeg*
X9854000Y7848200D03*
G04 #@! TO.P,Inf1,10*
G04 #@! TO.N,/VDDB1*
X9854000Y9148200D03*
G04 #@! TO.P,Inf1,9*
G04 #@! TO.N,/PWMB1*
X9854000Y9798200D03*
G04 #@! TO.P,Inf1,1*
G04 #@! TO.N,/GNDI*
X4604000Y6548200D03*
G04 #@! TO.P,Inf1,2*
G04 #@! TO.N,/InT1*
X4604000Y7198200D03*
G04 #@! TO.P,Inf1,3*
G04 #@! TO.N,/InB1*
X4604000Y7848200D03*
G04 #@! TO.P,Inf1,4*
G04 #@! TO.N,/GNDI*
X4604000Y8498200D03*
G04 #@! TO.P,Inf1,5*
G04 #@! TO.N,/Disable1*
X4604000Y9148200D03*
G04 #@! TO.P,Inf1,6*
G04 #@! TO.N,Net-(Inf1-Pad6)*
X4604000Y9798200D03*
G04 #@! TO.P,Inf1,7*
G04 #@! TO.N,/VDDI1*
X4604000Y10448200D03*
G04 #@! TO.P,Inf1,8*
G04 #@! TO.N,/GNDB1*
X9854000Y10448200D03*
G04 #@! TD*
D13*
G04 #@! TO.P,C13,1*
G04 #@! TO.N,/Vc2Pos*
X20307300Y6777700D03*
G04 #@! TO.P,C13,2*
G04 #@! TO.N,/GNDB1*
X20307300Y8995700D03*
G04 #@! TD*
D10*
G04 #@! TO.P,TP16,1*
G04 #@! TO.N,/GNDI*
X0Y12065000D03*
G04 #@! TD*
G04 #@! TO.P,TP15,1*
G04 #@! TO.N,/5.5V_Iso*
X6350000Y15494000D03*
G04 #@! TD*
G04 #@! TO.P,TP17,1*
G04 #@! TO.N,/5V*
X0Y14097000D03*
G04 #@! TD*
G04 #@! TO.P,TP5,1*
G04 #@! TO.N,/GNDI*
X40894000Y3175000D03*
G04 #@! TD*
G04 #@! TO.P,TP10,1*
G04 #@! TO.N,/PWMHigh2*
X40894000Y7239000D03*
G04 #@! TD*
G04 #@! TO.P,TP9,1*
G04 #@! TO.N,/Disable2*
X40894000Y5207000D03*
G04 #@! TD*
G04 #@! TO.P,TP6,1*
G04 #@! TO.N,/Disable1*
X0Y7731000D03*
G04 #@! TD*
G04 #@! TO.P,TP4,1*
G04 #@! TO.N,/5V*
X40894000Y1143000D03*
G04 #@! TD*
G04 #@! TO.P,TP3,1*
G04 #@! TO.N,/PWMLow1*
X0Y10033000D03*
G04 #@! TD*
G04 #@! TO.P,TP2,1*
G04 #@! TO.N,/PWMHigh1*
X0Y2921000D03*
G04 #@! TD*
D14*
G04 #@! TO.P,C1,1*
G04 #@! TO.N,/VDDI1*
X2853000Y11049000D03*
G04 #@! TO.P,C1,2*
G04 #@! TO.N,/GNDI*
X1719000Y11049000D03*
G04 #@! TD*
D15*
G04 #@! TO.P,C2,1*
G04 #@! TO.N,/InB1*
X2667000Y7942000D03*
G04 #@! TO.P,C2,2*
G04 #@! TO.N,/GNDI*
X2667000Y9076000D03*
G04 #@! TD*
G04 #@! TO.P,C3,1*
G04 #@! TO.N,/InT1*
X2667000Y6790000D03*
G04 #@! TO.P,C3,2*
G04 #@! TO.N,/GNDI*
X2667000Y5656000D03*
G04 #@! TD*
D14*
G04 #@! TO.P,C4,1*
G04 #@! TO.N,/VDDB1*
X8767500Y11811000D03*
G04 #@! TO.P,C4,2*
G04 #@! TO.N,/GNDB1*
X9901500Y11811000D03*
G04 #@! TD*
D16*
G04 #@! TO.P,C5,1*
G04 #@! TO.N,/VDDT1*
X10759561Y4005246D03*
G04 #@! TO.P,C5,2*
G04 #@! TO.N,/LfNeg*
X12459561Y4005246D03*
G04 #@! TD*
G04 #@! TO.P,C6,2*
G04 #@! TO.N,/LfNeg*
X12445693Y2325142D03*
G04 #@! TO.P,C6,1*
G04 #@! TO.N,/VDDT1*
X10745693Y2325142D03*
G04 #@! TD*
G04 #@! TO.P,C7,2*
G04 #@! TO.N,/CfNeg*
X29934800Y4978400D03*
G04 #@! TO.P,C7,1*
G04 #@! TO.N,/VDDT2*
X31634800Y4978400D03*
G04 #@! TD*
D14*
G04 #@! TO.P,C8,2*
G04 #@! TO.N,/GNDB1*
X32317000Y11684000D03*
G04 #@! TO.P,C8,1*
G04 #@! TO.N,/VDDB2*
X31183000Y11684000D03*
G04 #@! TD*
D16*
G04 #@! TO.P,C9,1*
G04 #@! TO.N,/VDDT2*
X31634800Y3632200D03*
G04 #@! TO.P,C9,2*
G04 #@! TO.N,/CfNeg*
X29934800Y3632200D03*
G04 #@! TD*
D15*
G04 #@! TO.P,C10,2*
G04 #@! TO.N,/GNDI*
X38036500Y11235000D03*
G04 #@! TO.P,C10,1*
G04 #@! TO.N,/InB2*
X38036500Y10101000D03*
G04 #@! TD*
G04 #@! TO.P,C11,1*
G04 #@! TO.N,/InT2*
X38036500Y8949000D03*
G04 #@! TO.P,C11,2*
G04 #@! TO.N,/GNDI*
X38036500Y7815000D03*
G04 #@! TD*
D14*
G04 #@! TO.P,C12,1*
G04 #@! TO.N,/VDDI2*
X37914000Y6413500D03*
G04 #@! TO.P,C12,2*
G04 #@! TO.N,/GNDI*
X39048000Y6413500D03*
G04 #@! TD*
D17*
G04 #@! TO.P,D1,2*
G04 #@! TO.N,Net-(D1-Pad2)*
X6043000Y4508500D03*
G04 #@! TO.P,D1,1*
G04 #@! TO.N,/VDDT1*
X8943000Y4508500D03*
G04 #@! TD*
D14*
G04 #@! TO.P,D2,1*
G04 #@! TO.N,/PWMB1*
X11879593Y10350500D03*
G04 #@! TO.P,D2,2*
G04 #@! TO.N,/GateB1*
X13013593Y10350500D03*
G04 #@! TD*
G04 #@! TO.P,D3,2*
G04 #@! TO.N,/GateT1*
X12962200Y5384800D03*
G04 #@! TO.P,D3,1*
G04 #@! TO.N,/PWMT1*
X11828200Y5384800D03*
G04 #@! TD*
G04 #@! TO.P,D4,1*
G04 #@! TO.N,/PWMT2*
X28634000Y4877842D03*
G04 #@! TO.P,D4,2*
G04 #@! TO.N,/GateT2*
X27500000Y4877842D03*
G04 #@! TD*
G04 #@! TO.P,D5,1*
G04 #@! TO.N,/PWMB2*
X28888000Y9906000D03*
G04 #@! TO.P,D5,2*
G04 #@! TO.N,/GateB2*
X27754000Y9906000D03*
G04 #@! TD*
D17*
G04 #@! TO.P,D6,2*
G04 #@! TO.N,Net-(D6-Pad2)*
X36121000Y4445000D03*
G04 #@! TO.P,D6,1*
G04 #@! TO.N,/VDDT2*
X33221000Y4445000D03*
G04 #@! TD*
D18*
G04 #@! TO.P,Q1,G*
G04 #@! TO.N,/GateT1*
X14561193Y6700042D03*
G04 #@! TO.P,Q1,D*
G04 #@! TO.N,/Vc2Pos*
X15561193Y6700042D03*
G04 #@! TO.P,Q1,S*
G04 #@! TO.N,/LfNeg*
X16561193Y6700042D03*
G04 #@! TO.P,Q1,D*
G04 #@! TO.N,/Vc2Pos*
X17561193Y6700042D03*
G04 #@! TO.P,Q1,S*
G04 #@! TO.N,/LfNeg*
X18561193Y6700042D03*
G04 #@! TO.P,Q1,G*
G04 #@! TO.N,/GateT1*
X14561193Y6200042D03*
G04 #@! TO.P,Q1,D*
G04 #@! TO.N,/Vc2Pos*
X15561193Y6200042D03*
G04 #@! TO.P,Q1,S*
G04 #@! TO.N,/LfNeg*
X16561193Y6200042D03*
G04 #@! TO.P,Q1,D*
G04 #@! TO.N,/Vc2Pos*
X17561193Y6200042D03*
G04 #@! TO.P,Q1,S*
G04 #@! TO.N,/LfNeg*
X18561193Y6200042D03*
G04 #@! TO.P,Q1,D*
G04 #@! TO.N,/Vc2Pos*
X15561193Y5700042D03*
G04 #@! TO.P,Q1,S2*
G04 #@! TO.N,/LfNeg*
X16561193Y5700042D03*
G04 #@! TO.P,Q1,D*
G04 #@! TO.N,/Vc2Pos*
X17561193Y5700042D03*
G04 #@! TO.P,Q1,S*
G04 #@! TO.N,/LfNeg*
X18561193Y5700042D03*
X14561193Y5200042D03*
G04 #@! TO.P,Q1,D*
G04 #@! TO.N,/Vc2Pos*
X15561193Y5200042D03*
G04 #@! TO.P,Q1,S*
G04 #@! TO.N,/LfNeg*
X16561193Y5200042D03*
G04 #@! TO.P,Q1,D*
G04 #@! TO.N,/Vc2Pos*
X17561193Y5200042D03*
G04 #@! TO.P,Q1,S*
G04 #@! TO.N,/LfNeg*
X18561193Y5200042D03*
X14561193Y4700042D03*
G04 #@! TO.P,Q1,D*
G04 #@! TO.N,/Vc2Pos*
X15561193Y4700042D03*
G04 #@! TO.P,Q1,S*
G04 #@! TO.N,/LfNeg*
X16561193Y4700042D03*
G04 #@! TO.P,Q1,D*
G04 #@! TO.N,/Vc2Pos*
X17561193Y4700042D03*
G04 #@! TO.P,Q1,S*
G04 #@! TO.N,/LfNeg*
X18561193Y4700042D03*
G04 #@! TD*
G04 #@! TO.P,Q2,S*
G04 #@! TO.N,/GNDB1*
X18548493Y8822342D03*
G04 #@! TO.P,Q2,D*
G04 #@! TO.N,/LfNeg*
X17548493Y8822342D03*
G04 #@! TO.P,Q2,S*
G04 #@! TO.N,/GNDB1*
X16548493Y8822342D03*
G04 #@! TO.P,Q2,D*
G04 #@! TO.N,/LfNeg*
X15548493Y8822342D03*
G04 #@! TO.P,Q2,S*
G04 #@! TO.N,/GNDB1*
X14548493Y8822342D03*
X18548493Y9322342D03*
G04 #@! TO.P,Q2,D*
G04 #@! TO.N,/LfNeg*
X17548493Y9322342D03*
G04 #@! TO.P,Q2,S*
G04 #@! TO.N,/GNDB1*
X16548493Y9322342D03*
G04 #@! TO.P,Q2,D*
G04 #@! TO.N,/LfNeg*
X15548493Y9322342D03*
G04 #@! TO.P,Q2,S*
G04 #@! TO.N,/GNDB1*
X14548493Y9322342D03*
X18548493Y9822342D03*
G04 #@! TO.P,Q2,D*
G04 #@! TO.N,/LfNeg*
X17548493Y9822342D03*
G04 #@! TO.P,Q2,S2*
G04 #@! TO.N,/GNDB1*
X16548493Y9822342D03*
G04 #@! TO.P,Q2,D*
G04 #@! TO.N,/LfNeg*
X15548493Y9822342D03*
G04 #@! TO.P,Q2,S*
G04 #@! TO.N,/GNDB1*
X18548493Y10322342D03*
G04 #@! TO.P,Q2,D*
G04 #@! TO.N,/LfNeg*
X17548493Y10322342D03*
G04 #@! TO.P,Q2,S*
G04 #@! TO.N,/GNDB1*
X16548493Y10322342D03*
G04 #@! TO.P,Q2,D*
G04 #@! TO.N,/LfNeg*
X15548493Y10322342D03*
G04 #@! TO.P,Q2,G*
G04 #@! TO.N,/GateB1*
X14548493Y10322342D03*
G04 #@! TO.P,Q2,S*
G04 #@! TO.N,/GNDB1*
X18548493Y10822342D03*
G04 #@! TO.P,Q2,D*
G04 #@! TO.N,/LfNeg*
X17548493Y10822342D03*
G04 #@! TO.P,Q2,S*
G04 #@! TO.N,/GNDB1*
X16548493Y10822342D03*
G04 #@! TO.P,Q2,D*
G04 #@! TO.N,/LfNeg*
X15548493Y10822342D03*
G04 #@! TO.P,Q2,G*
G04 #@! TO.N,/GateB1*
X14548493Y10822342D03*
G04 #@! TD*
G04 #@! TO.P,Q3,S*
G04 #@! TO.N,/CfNeg*
X22079200Y6763542D03*
G04 #@! TO.P,Q3,D*
G04 #@! TO.N,/Vc2Pos*
X23079200Y6763542D03*
G04 #@! TO.P,Q3,S*
G04 #@! TO.N,/CfNeg*
X24079200Y6763542D03*
G04 #@! TO.P,Q3,D*
G04 #@! TO.N,/Vc2Pos*
X25079200Y6763542D03*
G04 #@! TO.P,Q3,S*
G04 #@! TO.N,/CfNeg*
X26079200Y6763542D03*
X22079200Y6263542D03*
G04 #@! TO.P,Q3,D*
G04 #@! TO.N,/Vc2Pos*
X23079200Y6263542D03*
G04 #@! TO.P,Q3,S*
G04 #@! TO.N,/CfNeg*
X24079200Y6263542D03*
G04 #@! TO.P,Q3,D*
G04 #@! TO.N,/Vc2Pos*
X25079200Y6263542D03*
G04 #@! TO.P,Q3,S*
G04 #@! TO.N,/CfNeg*
X26079200Y6263542D03*
X22079200Y5763542D03*
G04 #@! TO.P,Q3,D*
G04 #@! TO.N,/Vc2Pos*
X23079200Y5763542D03*
G04 #@! TO.P,Q3,S2*
G04 #@! TO.N,/CfNeg*
X24079200Y5763542D03*
G04 #@! TO.P,Q3,D*
G04 #@! TO.N,/Vc2Pos*
X25079200Y5763542D03*
G04 #@! TO.P,Q3,S*
G04 #@! TO.N,/CfNeg*
X22079200Y5263542D03*
G04 #@! TO.P,Q3,D*
G04 #@! TO.N,/Vc2Pos*
X23079200Y5263542D03*
G04 #@! TO.P,Q3,S*
G04 #@! TO.N,/CfNeg*
X24079200Y5263542D03*
G04 #@! TO.P,Q3,D*
G04 #@! TO.N,/Vc2Pos*
X25079200Y5263542D03*
G04 #@! TO.P,Q3,G*
G04 #@! TO.N,/GateT2*
X26079200Y5263542D03*
G04 #@! TO.P,Q3,S*
G04 #@! TO.N,/CfNeg*
X22079200Y4763542D03*
G04 #@! TO.P,Q3,D*
G04 #@! TO.N,/Vc2Pos*
X23079200Y4763542D03*
G04 #@! TO.P,Q3,S*
G04 #@! TO.N,/CfNeg*
X24079200Y4763542D03*
G04 #@! TO.P,Q3,D*
G04 #@! TO.N,/Vc2Pos*
X25079200Y4763542D03*
G04 #@! TO.P,Q3,G*
G04 #@! TO.N,/GateT2*
X26079200Y4763542D03*
G04 #@! TD*
G04 #@! TO.P,Q4,G*
G04 #@! TO.N,/GateB2*
X26067793Y8885842D03*
G04 #@! TO.P,Q4,D*
G04 #@! TO.N,/CfNeg*
X25067793Y8885842D03*
G04 #@! TO.P,Q4,S*
G04 #@! TO.N,/GNDB1*
X24067793Y8885842D03*
G04 #@! TO.P,Q4,D*
G04 #@! TO.N,/CfNeg*
X23067793Y8885842D03*
G04 #@! TO.P,Q4,S*
G04 #@! TO.N,/GNDB1*
X22067793Y8885842D03*
G04 #@! TO.P,Q4,G*
G04 #@! TO.N,/GateB2*
X26067793Y9385842D03*
G04 #@! TO.P,Q4,D*
G04 #@! TO.N,/CfNeg*
X25067793Y9385842D03*
G04 #@! TO.P,Q4,S*
G04 #@! TO.N,/GNDB1*
X24067793Y9385842D03*
G04 #@! TO.P,Q4,D*
G04 #@! TO.N,/CfNeg*
X23067793Y9385842D03*
G04 #@! TO.P,Q4,S*
G04 #@! TO.N,/GNDB1*
X22067793Y9385842D03*
G04 #@! TO.P,Q4,D*
G04 #@! TO.N,/CfNeg*
X25067793Y9885842D03*
G04 #@! TO.P,Q4,S2*
G04 #@! TO.N,/GNDB1*
X24067793Y9885842D03*
G04 #@! TO.P,Q4,D*
G04 #@! TO.N,/CfNeg*
X23067793Y9885842D03*
G04 #@! TO.P,Q4,S*
G04 #@! TO.N,/GNDB1*
X22067793Y9885842D03*
X26067793Y10385842D03*
G04 #@! TO.P,Q4,D*
G04 #@! TO.N,/CfNeg*
X25067793Y10385842D03*
G04 #@! TO.P,Q4,S*
G04 #@! TO.N,/GNDB1*
X24067793Y10385842D03*
G04 #@! TO.P,Q4,D*
G04 #@! TO.N,/CfNeg*
X23067793Y10385842D03*
G04 #@! TO.P,Q4,S*
G04 #@! TO.N,/GNDB1*
X22067793Y10385842D03*
X26067793Y10885842D03*
G04 #@! TO.P,Q4,D*
G04 #@! TO.N,/CfNeg*
X25067793Y10885842D03*
G04 #@! TO.P,Q4,S*
G04 #@! TO.N,/GNDB1*
X24067793Y10885842D03*
G04 #@! TO.P,Q4,D*
G04 #@! TO.N,/CfNeg*
X23067793Y10885842D03*
G04 #@! TO.P,Q4,S*
G04 #@! TO.N,/GNDB1*
X22067793Y10885842D03*
G04 #@! TD*
D15*
G04 #@! TO.P,R1,1*
G04 #@! TO.N,/5V*
X1752600Y14105200D03*
G04 #@! TO.P,R1,2*
G04 #@! TO.N,/VDDI1*
X1752600Y12971200D03*
G04 #@! TD*
G04 #@! TO.P,R2,1*
G04 #@! TO.N,/PWMHigh1*
X1524000Y5656000D03*
G04 #@! TO.P,R2,2*
G04 #@! TO.N,/InT1*
X1524000Y6790000D03*
G04 #@! TD*
G04 #@! TO.P,R3,2*
G04 #@! TO.N,/InB1*
X1524000Y7941999D03*
G04 #@! TO.P,R3,1*
G04 #@! TO.N,/PWMLow1*
X1524000Y9076001D03*
G04 #@! TD*
D14*
G04 #@! TO.P,R4,1*
G04 #@! TO.N,/VDDB1*
X7477301Y13839843D03*
G04 #@! TO.P,R4,2*
G04 #@! TO.N,/5.5V_Iso*
X6343301Y13839843D03*
G04 #@! TD*
G04 #@! TO.P,R5,2*
G04 #@! TO.N,Net-(D1-Pad2)*
X6356001Y12527872D03*
G04 #@! TO.P,R5,1*
G04 #@! TO.N,/VDDB1*
X7490001Y12527872D03*
G04 #@! TD*
G04 #@! TO.P,R6,1*
G04 #@! TO.N,/GateB1*
X13025700Y11836400D03*
G04 #@! TO.P,R6,2*
G04 #@! TO.N,/PWMB1*
X11891700Y11836400D03*
G04 #@! TD*
G04 #@! TO.P,R7,1*
G04 #@! TO.N,/GateT1*
X12962200Y6757442D03*
G04 #@! TO.P,R7,2*
G04 #@! TO.N,/PWMT1*
X11828200Y6757442D03*
G04 #@! TD*
G04 #@! TO.P,R8,1*
G04 #@! TO.N,/PWMT2*
X28634000Y6262142D03*
G04 #@! TO.P,R8,2*
G04 #@! TO.N,/GateT2*
X27500000Y6262142D03*
G04 #@! TD*
G04 #@! TO.P,R9,2*
G04 #@! TO.N,/GateB2*
X27817500Y11176000D03*
G04 #@! TO.P,R9,1*
G04 #@! TO.N,/PWMB2*
X28951500Y11176000D03*
G04 #@! TD*
G04 #@! TO.P,R10,2*
G04 #@! TO.N,/VDDB2*
X31183000Y12700000D03*
G04 #@! TO.P,R10,1*
G04 #@! TO.N,Net-(D6-Pad2)*
X32317000Y12700000D03*
G04 #@! TD*
D15*
G04 #@! TO.P,R11,1*
G04 #@! TO.N,/5.5V_Iso*
X30226000Y12769942D03*
G04 #@! TO.P,R11,2*
G04 #@! TO.N,/VDDB2*
X30226000Y11635942D03*
G04 #@! TD*
G04 #@! TO.P,R12,1*
G04 #@! TO.N,/InT2*
X39243000Y8949000D03*
G04 #@! TO.P,R12,2*
G04 #@! TO.N,/PWMHigh2*
X39243000Y7815000D03*
G04 #@! TD*
G04 #@! TO.P,R13,1*
G04 #@! TO.N,/InB2*
X39243000Y10101000D03*
G04 #@! TO.P,R13,2*
G04 #@! TO.N,/PWMLow2*
X39243000Y11235000D03*
G04 #@! TD*
G04 #@! TO.P,R14,2*
G04 #@! TO.N,/5V*
X38227000Y4132000D03*
G04 #@! TO.P,R14,1*
G04 #@! TO.N,/VDDI2*
X38227000Y5266000D03*
G04 #@! TD*
D19*
G04 #@! TO.N,/GNDI*
X3683000Y5651500D03*
X1270000Y12065000D03*
X39624000Y4013200D03*
X38036500Y12255500D03*
D20*
G04 #@! TO.N,/GNDB1*
X32258000Y9080500D03*
D19*
X9906000Y13081000D03*
X12674600Y9194800D03*
X26949400Y12166600D03*
D20*
G04 #@! TO.N,/Disable1*
X5867400Y9144000D03*
G04 #@! TO.N,/Disable2*
X34671000Y7747000D03*
D19*
G04 #@! TO.N,/CfNeg*
X23266400Y7874000D03*
X26162000Y7874000D03*
X25196800Y7874000D03*
X24231600Y7874000D03*
X22301200Y7874000D03*
X28384500Y3429000D03*
X28448000Y7823200D03*
G04 #@! TO.N,/5.5V_Iso*
X30226000Y14732000D03*
G04 #@! TO.N,/LfNeg*
X16319500Y7823200D03*
X14389100Y7823200D03*
X18249900Y7823200D03*
X17284700Y7823200D03*
X15354300Y7823200D03*
D20*
X8534400Y7848600D03*
D19*
X13563600Y3556000D03*
G04 #@! TD*
D21*
G04 #@! TO.N,/GNDI*
X2692893Y9064342D02*
X2591393Y9064342D01*
X4603793Y8499242D02*
X3257993Y8499242D01*
X3257993Y8499242D02*
X2692893Y9064342D01*
X3710551Y5656000D02*
X4603793Y6549242D01*
X0Y12293600D02*
X209335Y12293600D01*
X2540000Y5656000D02*
X3710551Y5656000D01*
X2472000Y5588000D02*
X2540000Y5656000D01*
X2481000Y5715000D02*
X2540000Y5656000D01*
X2535500Y5651500D02*
X2540000Y5656000D01*
X1719593Y10783342D02*
X1719593Y10662907D01*
X2667000Y9555593D02*
X2667000Y9461500D01*
X1719593Y10503000D02*
X2667000Y9555593D01*
X1719593Y10604500D02*
X1719593Y10503000D01*
X2667000Y9461500D02*
X2667000Y9076000D01*
X1719593Y11290200D02*
X1719593Y10604500D01*
X1719593Y11615407D02*
X1719593Y11290200D01*
X417510Y12065000D02*
X1270000Y12065000D01*
X1270000Y12065000D02*
X1719593Y11615407D01*
X37169700Y10368200D02*
X38036500Y11235000D01*
X36100300Y10368200D02*
X37169700Y10368200D01*
X38036500Y12255500D02*
X38036500Y12255500D01*
X37433300Y8418200D02*
X38036500Y7815000D01*
X36100300Y8418200D02*
X37433300Y8418200D01*
X38036500Y7425000D02*
X39048000Y6413500D01*
X38036500Y7815000D02*
X38036500Y7425000D01*
X39573200Y5786800D02*
X39573200Y4902200D01*
X39048000Y6413500D02*
X39048000Y6312000D01*
X39048000Y6312000D02*
X39573200Y5786800D01*
X39573200Y4902200D02*
X39573200Y4013200D01*
X40017699Y3568701D02*
X40476490Y3568701D01*
X39573200Y4013200D02*
X40017699Y3568701D01*
X38036500Y12255500D02*
X38036500Y11235000D01*
G04 #@! TO.N,/VDDI1*
X1752600Y12971200D02*
X2065600Y12971200D01*
X2065600Y12971200D02*
X2857500Y12179300D01*
X2853000Y12174800D02*
X2853000Y11049000D01*
X2857500Y12179300D02*
X2853000Y12174800D01*
X3394800Y10448200D02*
X4604000Y10448200D01*
X2853000Y11049000D02*
X2853000Y10990000D01*
X2853000Y10990000D02*
X3394800Y10448200D01*
G04 #@! TO.N,/InB1*
X2591393Y7930342D02*
X2610658Y7930342D01*
X2691758Y7849242D02*
X4603793Y7849242D01*
X2610658Y7930342D02*
X2691758Y7849242D01*
X2666999Y7941999D02*
X2667000Y7942000D01*
X1397000Y7941999D02*
X2666999Y7941999D01*
G04 #@! TO.N,/InT1*
X2481000Y6731000D02*
X2540000Y6790000D01*
X2540000Y6790000D02*
X2599000Y6790000D01*
X2667000Y6790000D02*
X2726000Y6790000D01*
X3135242Y7199242D02*
X4603793Y7199242D01*
X2726000Y6790000D02*
X3135242Y7199242D01*
X1397000Y6790000D02*
X2667000Y6790000D01*
G04 #@! TO.N,/VDDB1*
X8280400Y11404600D02*
X7874000Y11811000D01*
X8280400Y9517435D02*
X8280400Y11404600D01*
X9853793Y9149242D02*
X8648593Y9149242D01*
X8648593Y9149242D02*
X8280400Y9517435D01*
G04 #@! TO.N,/GNDB1*
X14417335Y8953500D02*
X14548493Y8822342D01*
X12636500Y9271000D02*
X12636500Y9271000D01*
X9906000Y11815500D02*
X9901500Y11811000D01*
X9906000Y13081000D02*
X9906000Y13081000D01*
X9901500Y10496949D02*
X9853793Y10449242D01*
X9901500Y11811000D02*
X9901500Y10496949D01*
X14548493Y9105184D02*
X14548493Y8822342D01*
X14382677Y9271000D02*
X14548493Y9105184D01*
X12636500Y9271000D02*
X12636500Y9271000D01*
X9906000Y13081000D02*
X9906000Y11815500D01*
X32317000Y11684000D02*
X32317000Y9139500D01*
X30850300Y9068200D02*
X32245700Y9068200D01*
X32245700Y9068200D02*
X32258000Y9080500D01*
X32317000Y9139500D02*
X32258000Y9080500D01*
X32321800Y9017000D02*
X32317000Y9021800D01*
X9906000Y13081000D02*
X9906000Y13081000D01*
X12636500Y9271000D02*
X12636500Y9271000D01*
G04 #@! TO.N,/VDDT1*
X9070000Y5765449D02*
X9853793Y6549242D01*
X9070000Y5765449D02*
X9067449Y5765449D01*
X9067449Y5765449D02*
X8689000Y5387000D01*
X8689000Y4762500D02*
X8943000Y4508500D01*
X8689000Y5387000D02*
X8689000Y4762500D01*
G04 #@! TO.N,/VDDT2*
X33348000Y4191000D02*
X33348000Y4519000D01*
X31796802Y7768200D02*
X32385000Y7180002D01*
X30850300Y7768200D02*
X31796802Y7768200D01*
X31888800Y5808600D02*
X31888800Y4978400D01*
X32385000Y6304800D02*
X31888800Y5808600D01*
X32385000Y7180002D02*
X32385000Y6304800D01*
D22*
G04 #@! TO.N,/VDDB2*
X31183000Y12700000D02*
X31183000Y11684000D01*
D21*
G04 #@! TO.N,/InB2*
X37653700Y9718200D02*
X38036500Y10101000D01*
X36100300Y9718200D02*
X37653700Y9718200D01*
X38036500Y10101000D02*
X39243000Y10101000D01*
G04 #@! TO.N,/InT2*
X37917300Y9068200D02*
X38036500Y8949000D01*
X36100300Y9068200D02*
X37917300Y9068200D01*
X39052500Y8949000D02*
X39057000Y8953500D01*
X38036500Y8949000D02*
X39243000Y8949000D01*
G04 #@! TO.N,/VDDI2*
X37859300Y6468200D02*
X37914000Y6413500D01*
X36100300Y6468200D02*
X37859300Y6468200D01*
X38227000Y6100500D02*
X37914000Y6413500D01*
X38227000Y5266000D02*
X38227000Y6100500D01*
G04 #@! TO.N,Net-(D1-Pad2)*
X6356001Y11690001D02*
X6356001Y12527872D01*
X6356001Y11169999D02*
X6356001Y11690001D01*
X7518400Y10007600D02*
X6356001Y11169999D01*
X7518400Y5779900D02*
X7518400Y10007600D01*
X6043000Y4254500D02*
X6043000Y4304500D01*
X6043000Y4304500D02*
X7518400Y5779900D01*
G04 #@! TO.N,/PWMB1*
X11891700Y10362607D02*
X11879593Y10350500D01*
X11891700Y11836400D02*
X11891700Y10362607D01*
X11328335Y9799242D02*
X11879593Y10350500D01*
X9853793Y9799242D02*
X11328335Y9799242D01*
G04 #@! TO.N,/PWMT1*
X11386400Y7199242D02*
X11828200Y6757442D01*
X9853793Y7199242D02*
X11386400Y7199242D01*
X11828200Y6757442D02*
X11828200Y5384800D01*
G04 #@! TO.N,/PWMT2*
X30850300Y7118200D02*
X29617058Y7118200D01*
X29388558Y7118200D02*
X30850300Y7118200D01*
X28634000Y6262142D02*
X28634000Y6363642D01*
X28634000Y6363642D02*
X29388558Y7118200D01*
X28634000Y6262142D02*
X28634000Y4877842D01*
G04 #@! TO.N,/PWMB2*
X28951500Y9969500D02*
X28888000Y9906000D01*
X29075800Y9718200D02*
X28888000Y9906000D01*
G04 #@! TO.N,Net-(D6-Pad2)*
X35763200Y4445000D02*
X36375000Y4445000D01*
X33147000Y7061200D02*
X35763200Y4445000D01*
X33147000Y12035002D02*
X33147000Y7061200D01*
X32317000Y12700000D02*
X32482002Y12700000D01*
X32482002Y12700000D02*
X33147000Y12035002D01*
G04 #@! TO.N,/Disable1*
X5863200Y9148200D02*
X5867400Y9144000D01*
X4604000Y9148200D02*
X5863200Y9148200D01*
G04 #@! TO.N,/Disable2*
X34692200Y7768200D02*
X34671000Y7747000D01*
X36100300Y7768200D02*
X34692200Y7768200D01*
G04 #@! TO.N,/CfNeg*
X30123411Y3374244D02*
X30110711Y3361544D01*
G04 #@! TO.N,/5V*
X425710Y14105200D02*
X417510Y14097000D01*
X1752600Y14105200D02*
X425710Y14105200D01*
X38227000Y3903400D02*
X40476490Y1653910D01*
X38227000Y4191000D02*
X38227000Y3903400D01*
G04 #@! TO.N,/PWMHigh1*
X417510Y4100510D02*
X417510Y2921000D01*
X425710Y4100510D02*
X417510Y4100510D01*
X1524000Y5656000D02*
X1524000Y5198800D01*
X1524000Y5198800D02*
X425710Y4100510D01*
G04 #@! TO.N,/PWMLow1*
X1397000Y9076001D02*
X1397000Y9080500D01*
X444500Y10033000D02*
X417510Y10033000D01*
X1397000Y9080500D02*
X444500Y10033000D01*
G04 #@! TO.N,/5.5V_Iso*
X6350000Y13846542D02*
X6343301Y13839843D01*
X6343301Y15069791D02*
X6350000Y15076490D01*
X6343301Y14795500D02*
X6343301Y15069791D01*
X6343301Y13839843D02*
X6343301Y14795500D01*
X30226000Y14732000D02*
X30226000Y14732000D01*
X30226000Y12769942D02*
X30226000Y14732000D01*
X30226000Y14732000D02*
X30226000Y14859000D01*
G04 #@! TO.N,/PWMHigh2*
X40318000Y7815000D02*
X40476490Y7656510D01*
X39243000Y7815000D02*
X40318000Y7815000D01*
G04 #@! TO.N,/PWMLow2*
X39928700Y11235000D02*
X40476490Y11782790D01*
X39243000Y11235000D02*
X39928700Y11235000D01*
G04 #@! TO.N,/LfNeg*
X9853600Y7848600D02*
X9854000Y7848200D01*
X8534400Y7848600D02*
X9853600Y7848600D01*
G04 #@! TD*
D23*
G04 #@! TO.N,/GNDB1*
G36*
X14462689Y9479422D02*
X14541232Y9463492D01*
X14581941Y9448227D01*
X14587034Y9446253D01*
X14623279Y9431755D01*
X14677562Y9378780D01*
X14686117Y9358818D01*
X14706600Y9259024D01*
X14706600Y8867314D01*
X14646178Y8703978D01*
X14639649Y8696361D01*
X14578612Y8655836D01*
X14507470Y8654889D01*
X14484032Y8661715D01*
X14470292Y8664901D01*
X14400907Y8676975D01*
X14386895Y8678618D01*
X13012940Y8762740D01*
X13012705Y8762754D01*
X13011947Y8762799D01*
X13011879Y8762803D01*
X12471765Y8794574D01*
X12327117Y8862101D01*
X12268200Y9010466D01*
X12268200Y9345914D01*
X12334476Y9501344D01*
X12492516Y9561122D01*
X14462689Y9479422D01*
X14462689Y9479422D01*
G37*
X14462689Y9479422D02*
X14541232Y9463492D01*
X14581941Y9448227D01*
X14587034Y9446253D01*
X14623279Y9431755D01*
X14677562Y9378780D01*
X14686117Y9358818D01*
X14706600Y9259024D01*
X14706600Y8867314D01*
X14646178Y8703978D01*
X14639649Y8696361D01*
X14578612Y8655836D01*
X14507470Y8654889D01*
X14484032Y8661715D01*
X14470292Y8664901D01*
X14400907Y8676975D01*
X14386895Y8678618D01*
X13012940Y8762740D01*
X13012705Y8762754D01*
X13011947Y8762799D01*
X13011879Y8762803D01*
X12471765Y8794574D01*
X12327117Y8862101D01*
X12268200Y9010466D01*
X12268200Y9345914D01*
X12334476Y9501344D01*
X12492516Y9561122D01*
X14462689Y9479422D01*
G04 #@! TO.N,/Vc2Pos*
G36*
X20830657Y7087565D02*
X20894552Y6936196D01*
X20915855Y4560973D01*
X20924097Y4517093D01*
X21001997Y4311604D01*
X21024915Y4273289D01*
X21107140Y4178729D01*
X21150318Y4146494D01*
X21389906Y4037331D01*
X21442563Y4025900D01*
X22326974Y4025900D01*
X22378007Y4036605D01*
X22611665Y4139140D01*
X22654095Y4169449D01*
X22768021Y4293281D01*
X22792877Y4333120D01*
X22876719Y4548086D01*
X22885400Y4594233D01*
X22885400Y4786882D01*
X22885399Y4787319D01*
X22885392Y4789355D01*
X22885390Y4789732D01*
X22873091Y6708446D01*
X22886645Y6775569D01*
X22892855Y6790061D01*
X22904282Y6813357D01*
X22924925Y6850514D01*
X22970517Y6901581D01*
X23027207Y6929376D01*
X23103084Y6932947D01*
X23169772Y6903131D01*
X23222286Y6847619D01*
X23225729Y6842453D01*
X23250165Y6776774D01*
X23251703Y6764473D01*
X23253664Y6732584D01*
X23250759Y4788912D01*
X23250760Y4788159D01*
X23250777Y4784326D01*
X23250783Y4783545D01*
X23252367Y4633859D01*
X23261911Y4586884D01*
X23351460Y4369216D01*
X23377736Y4329124D01*
X23602377Y4097463D01*
X23644048Y4068919D01*
X23871981Y3972445D01*
X23921483Y3962400D01*
X24271643Y3962400D01*
X24326028Y3974634D01*
X24571760Y4091081D01*
X24615668Y4125426D01*
X24796873Y4346899D01*
X24817139Y4381791D01*
X24888548Y4567742D01*
X24896845Y4607230D01*
X24904197Y4761612D01*
X24904305Y4764635D01*
X24904664Y4779737D01*
X24904700Y4782755D01*
X24904700Y6257030D01*
X24904690Y6258653D01*
X24904586Y6266792D01*
X24904554Y6268424D01*
X24893391Y6703774D01*
X24902077Y6772165D01*
X24922664Y6821864D01*
X24931525Y6837814D01*
X24977117Y6888881D01*
X25033807Y6916676D01*
X25109684Y6920247D01*
X25176372Y6890431D01*
X25228886Y6834919D01*
X25232329Y6829753D01*
X25256765Y6764074D01*
X25258337Y6751495D01*
X25260300Y6719976D01*
X25260300Y4821706D01*
X25258746Y4793654D01*
X25257166Y4779435D01*
X25256567Y4772131D01*
X25254629Y4735583D01*
X25254452Y4728264D01*
X25271393Y1105310D01*
X25208660Y952208D01*
X25055934Y888569D01*
X15596501Y876731D01*
X15443605Y939998D01*
X15380502Y1092964D01*
X15392390Y6193031D01*
X15392381Y6194815D01*
X15392277Y6203693D01*
X15392244Y6205460D01*
X15381091Y6640441D01*
X15389777Y6708832D01*
X15410364Y6758531D01*
X15419225Y6774481D01*
X15464817Y6825548D01*
X15521507Y6853343D01*
X15597384Y6856914D01*
X15664072Y6827098D01*
X15716586Y6771586D01*
X15720029Y6766420D01*
X15744465Y6700741D01*
X15746037Y6688162D01*
X15748000Y6656643D01*
X15748000Y4773825D01*
X15748081Y4769297D01*
X15748888Y4746676D01*
X15749130Y4742155D01*
X15765547Y4512321D01*
X15776166Y4469799D01*
X15863818Y4272541D01*
X15888260Y4236160D01*
X16019868Y4099069D01*
X16061689Y4070190D01*
X16290729Y3972569D01*
X16340524Y3962400D01*
X16823129Y3962400D01*
X16875608Y3973750D01*
X17114551Y4082175D01*
X17157649Y4114195D01*
X17262994Y4234589D01*
X17283843Y4267484D01*
X17360715Y4443890D01*
X17370615Y4481557D01*
X17387685Y4646571D01*
X17388358Y4660118D01*
X17388227Y4694830D01*
X17387777Y4702660D01*
X17387912Y4702668D01*
X17386170Y4732403D01*
X17373947Y6639155D01*
X17383345Y6707863D01*
X17404264Y6758364D01*
X17413125Y6774314D01*
X17458717Y6825381D01*
X17515407Y6853176D01*
X17591284Y6856747D01*
X17657972Y6826931D01*
X17710486Y6771419D01*
X17713929Y6766253D01*
X17738365Y6700574D01*
X17739937Y6687995D01*
X17741900Y6656476D01*
X17741900Y4758206D01*
X17740346Y4730142D01*
X17734958Y4681650D01*
X17734181Y4667875D01*
X17734046Y4598990D01*
X17734769Y4585212D01*
X17747672Y4464782D01*
X17753769Y4437254D01*
X17799061Y4304677D01*
X17811080Y4279174D01*
X17884777Y4159415D01*
X17930417Y4115431D01*
X18197546Y3964349D01*
X18258758Y3947900D01*
X19146588Y3938747D01*
X19206359Y3952996D01*
X19471002Y4090224D01*
X19517088Y4130866D01*
X19619559Y4279449D01*
X19636184Y4313522D01*
X19692311Y4492360D01*
X19698137Y4529822D01*
X19708876Y6935264D01*
X19772420Y7087233D01*
X19924675Y7150100D01*
X20678722Y7150100D01*
X20830657Y7087565D01*
X20830657Y7087565D01*
G37*
X20830657Y7087565D02*
X20894552Y6936196D01*
X20915855Y4560973D01*
X20924097Y4517093D01*
X21001997Y4311604D01*
X21024915Y4273289D01*
X21107140Y4178729D01*
X21150318Y4146494D01*
X21389906Y4037331D01*
X21442563Y4025900D01*
X22326974Y4025900D01*
X22378007Y4036605D01*
X22611665Y4139140D01*
X22654095Y4169449D01*
X22768021Y4293281D01*
X22792877Y4333120D01*
X22876719Y4548086D01*
X22885400Y4594233D01*
X22885400Y4786882D01*
X22885399Y4787319D01*
X22885392Y4789355D01*
X22885390Y4789732D01*
X22873091Y6708446D01*
X22886645Y6775569D01*
X22892855Y6790061D01*
X22904282Y6813357D01*
X22924925Y6850514D01*
X22970517Y6901581D01*
X23027207Y6929376D01*
X23103084Y6932947D01*
X23169772Y6903131D01*
X23222286Y6847619D01*
X23225729Y6842453D01*
X23250165Y6776774D01*
X23251703Y6764473D01*
X23253664Y6732584D01*
X23250759Y4788912D01*
X23250760Y4788159D01*
X23250777Y4784326D01*
X23250783Y4783545D01*
X23252367Y4633859D01*
X23261911Y4586884D01*
X23351460Y4369216D01*
X23377736Y4329124D01*
X23602377Y4097463D01*
X23644048Y4068919D01*
X23871981Y3972445D01*
X23921483Y3962400D01*
X24271643Y3962400D01*
X24326028Y3974634D01*
X24571760Y4091081D01*
X24615668Y4125426D01*
X24796873Y4346899D01*
X24817139Y4381791D01*
X24888548Y4567742D01*
X24896845Y4607230D01*
X24904197Y4761612D01*
X24904305Y4764635D01*
X24904664Y4779737D01*
X24904700Y4782755D01*
X24904700Y6257030D01*
X24904690Y6258653D01*
X24904586Y6266792D01*
X24904554Y6268424D01*
X24893391Y6703774D01*
X24902077Y6772165D01*
X24922664Y6821864D01*
X24931525Y6837814D01*
X24977117Y6888881D01*
X25033807Y6916676D01*
X25109684Y6920247D01*
X25176372Y6890431D01*
X25228886Y6834919D01*
X25232329Y6829753D01*
X25256765Y6764074D01*
X25258337Y6751495D01*
X25260300Y6719976D01*
X25260300Y4821706D01*
X25258746Y4793654D01*
X25257166Y4779435D01*
X25256567Y4772131D01*
X25254629Y4735583D01*
X25254452Y4728264D01*
X25271393Y1105310D01*
X25208660Y952208D01*
X25055934Y888569D01*
X15596501Y876731D01*
X15443605Y939998D01*
X15380502Y1092964D01*
X15392390Y6193031D01*
X15392381Y6194815D01*
X15392277Y6203693D01*
X15392244Y6205460D01*
X15381091Y6640441D01*
X15389777Y6708832D01*
X15410364Y6758531D01*
X15419225Y6774481D01*
X15464817Y6825548D01*
X15521507Y6853343D01*
X15597384Y6856914D01*
X15664072Y6827098D01*
X15716586Y6771586D01*
X15720029Y6766420D01*
X15744465Y6700741D01*
X15746037Y6688162D01*
X15748000Y6656643D01*
X15748000Y4773825D01*
X15748081Y4769297D01*
X15748888Y4746676D01*
X15749130Y4742155D01*
X15765547Y4512321D01*
X15776166Y4469799D01*
X15863818Y4272541D01*
X15888260Y4236160D01*
X16019868Y4099069D01*
X16061689Y4070190D01*
X16290729Y3972569D01*
X16340524Y3962400D01*
X16823129Y3962400D01*
X16875608Y3973750D01*
X17114551Y4082175D01*
X17157649Y4114195D01*
X17262994Y4234589D01*
X17283843Y4267484D01*
X17360715Y4443890D01*
X17370615Y4481557D01*
X17387685Y4646571D01*
X17388358Y4660118D01*
X17388227Y4694830D01*
X17387777Y4702660D01*
X17387912Y4702668D01*
X17386170Y4732403D01*
X17373947Y6639155D01*
X17383345Y6707863D01*
X17404264Y6758364D01*
X17413125Y6774314D01*
X17458717Y6825381D01*
X17515407Y6853176D01*
X17591284Y6856747D01*
X17657972Y6826931D01*
X17710486Y6771419D01*
X17713929Y6766253D01*
X17738365Y6700574D01*
X17739937Y6687995D01*
X17741900Y6656476D01*
X17741900Y4758206D01*
X17740346Y4730142D01*
X17734958Y4681650D01*
X17734181Y4667875D01*
X17734046Y4598990D01*
X17734769Y4585212D01*
X17747672Y4464782D01*
X17753769Y4437254D01*
X17799061Y4304677D01*
X17811080Y4279174D01*
X17884777Y4159415D01*
X17930417Y4115431D01*
X18197546Y3964349D01*
X18258758Y3947900D01*
X19146588Y3938747D01*
X19206359Y3952996D01*
X19471002Y4090224D01*
X19517088Y4130866D01*
X19619559Y4279449D01*
X19636184Y4313522D01*
X19692311Y4492360D01*
X19698137Y4529822D01*
X19708876Y6935264D01*
X19772420Y7087233D01*
X19924675Y7150100D01*
X20678722Y7150100D01*
X20830657Y7087565D01*
G04 #@! TO.N,/GNDB1*
G36*
X24194834Y14414335D02*
X24258634Y14262188D01*
X24268257Y12245590D01*
X24268254Y12242634D01*
X24257011Y10682811D01*
X24257009Y10682340D01*
X24257001Y10680052D01*
X24257000Y10679608D01*
X24257000Y8936505D01*
X24255446Y8908446D01*
X24249532Y8855221D01*
X24240289Y8813137D01*
X24217244Y8775850D01*
X24217094Y8775700D01*
X24052241Y8775700D01*
X23970913Y8742013D01*
X23942633Y8763613D01*
X23922236Y8791913D01*
X23905351Y8845966D01*
X23903952Y8855762D01*
X23901400Y8891664D01*
X23901400Y10346629D01*
X23901391Y10348171D01*
X23901297Y10355912D01*
X23901268Y10357467D01*
X23889168Y10853539D01*
X23888696Y10861815D01*
X23884985Y10903088D01*
X23883972Y10911321D01*
X23840214Y11191367D01*
X23827362Y11230452D01*
X23733547Y11410477D01*
X23708874Y11443402D01*
X23557404Y11588814D01*
X23518360Y11614403D01*
X23306619Y11702759D01*
X23260966Y11712512D01*
X23003823Y11719105D01*
X22960324Y11712602D01*
X22754893Y11643967D01*
X22716220Y11623016D01*
X22524099Y11470644D01*
X22495939Y11439430D01*
X22384472Y11264651D01*
X22368045Y11225954D01*
X22262636Y10786030D01*
X22260017Y10771337D01*
X22251277Y10697356D01*
X22250400Y10682456D01*
X22250400Y8936505D01*
X22248846Y8908443D01*
X22241154Y8839212D01*
X22235116Y8811725D01*
X22234985Y8805126D01*
X22233880Y8805310D01*
X22228957Y8775700D01*
X22121841Y8775700D01*
X21900020Y8683819D01*
X18581322Y8661913D01*
X18429259Y8724900D01*
X18402287Y8724900D01*
X18398239Y8730516D01*
X18382878Y8782532D01*
X18378454Y8822346D01*
X18376900Y8850406D01*
X18376900Y10311131D01*
X18376890Y10312754D01*
X18376786Y10320893D01*
X18376754Y10322525D01*
X18364750Y10790673D01*
X18364180Y10799875D01*
X18359662Y10845713D01*
X18358425Y10854846D01*
X18303842Y11171245D01*
X18290893Y11209150D01*
X18198246Y11383875D01*
X18174137Y11415861D01*
X18001833Y11581784D01*
X17959718Y11608688D01*
X17731348Y11697382D01*
X17682115Y11705955D01*
X17416261Y11699138D01*
X17379396Y11692676D01*
X17203782Y11634204D01*
X17170401Y11617277D01*
X16964613Y11471234D01*
X16930184Y11434598D01*
X16800321Y11225192D01*
X16782805Y11178066D01*
X16731339Y10852114D01*
X16730174Y10842240D01*
X16726289Y10792722D01*
X16725900Y10782789D01*
X16725900Y8885705D01*
X16724346Y8857646D01*
X16718432Y8804421D01*
X16709189Y8762337D01*
X16686144Y8725050D01*
X16676405Y8715311D01*
X16655485Y8696587D01*
X16645640Y8688710D01*
X16617681Y8675682D01*
X16498859Y8724900D01*
X16402821Y8724900D01*
X16391639Y8740415D01*
X16376278Y8792431D01*
X16371854Y8832245D01*
X16370300Y8860305D01*
X16370300Y10322576D01*
X16370296Y10323582D01*
X16370256Y10328630D01*
X16370244Y10329643D01*
X16362209Y10834975D01*
X16362177Y10839546D01*
X16369559Y14238329D01*
X16432694Y14390385D01*
X16584693Y14453665D01*
X24042186Y14476933D01*
X24194834Y14414335D01*
X24194834Y14414335D01*
G37*
X24194834Y14414335D02*
X24258634Y14262188D01*
X24268257Y12245590D01*
X24268254Y12242634D01*
X24257011Y10682811D01*
X24257009Y10682340D01*
X24257001Y10680052D01*
X24257000Y10679608D01*
X24257000Y8936505D01*
X24255446Y8908446D01*
X24249532Y8855221D01*
X24240289Y8813137D01*
X24217244Y8775850D01*
X24217094Y8775700D01*
X24052241Y8775700D01*
X23970913Y8742013D01*
X23942633Y8763613D01*
X23922236Y8791913D01*
X23905351Y8845966D01*
X23903952Y8855762D01*
X23901400Y8891664D01*
X23901400Y10346629D01*
X23901391Y10348171D01*
X23901297Y10355912D01*
X23901268Y10357467D01*
X23889168Y10853539D01*
X23888696Y10861815D01*
X23884985Y10903088D01*
X23883972Y10911321D01*
X23840214Y11191367D01*
X23827362Y11230452D01*
X23733547Y11410477D01*
X23708874Y11443402D01*
X23557404Y11588814D01*
X23518360Y11614403D01*
X23306619Y11702759D01*
X23260966Y11712512D01*
X23003823Y11719105D01*
X22960324Y11712602D01*
X22754893Y11643967D01*
X22716220Y11623016D01*
X22524099Y11470644D01*
X22495939Y11439430D01*
X22384472Y11264651D01*
X22368045Y11225954D01*
X22262636Y10786030D01*
X22260017Y10771337D01*
X22251277Y10697356D01*
X22250400Y10682456D01*
X22250400Y8936505D01*
X22248846Y8908443D01*
X22241154Y8839212D01*
X22235116Y8811725D01*
X22234985Y8805126D01*
X22233880Y8805310D01*
X22228957Y8775700D01*
X22121841Y8775700D01*
X21900020Y8683819D01*
X18581322Y8661913D01*
X18429259Y8724900D01*
X18402287Y8724900D01*
X18398239Y8730516D01*
X18382878Y8782532D01*
X18378454Y8822346D01*
X18376900Y8850406D01*
X18376900Y10311131D01*
X18376890Y10312754D01*
X18376786Y10320893D01*
X18376754Y10322525D01*
X18364750Y10790673D01*
X18364180Y10799875D01*
X18359662Y10845713D01*
X18358425Y10854846D01*
X18303842Y11171245D01*
X18290893Y11209150D01*
X18198246Y11383875D01*
X18174137Y11415861D01*
X18001833Y11581784D01*
X17959718Y11608688D01*
X17731348Y11697382D01*
X17682115Y11705955D01*
X17416261Y11699138D01*
X17379396Y11692676D01*
X17203782Y11634204D01*
X17170401Y11617277D01*
X16964613Y11471234D01*
X16930184Y11434598D01*
X16800321Y11225192D01*
X16782805Y11178066D01*
X16731339Y10852114D01*
X16730174Y10842240D01*
X16726289Y10792722D01*
X16725900Y10782789D01*
X16725900Y8885705D01*
X16724346Y8857646D01*
X16718432Y8804421D01*
X16709189Y8762337D01*
X16686144Y8725050D01*
X16676405Y8715311D01*
X16655485Y8696587D01*
X16645640Y8688710D01*
X16617681Y8675682D01*
X16498859Y8724900D01*
X16402821Y8724900D01*
X16391639Y8740415D01*
X16376278Y8792431D01*
X16371854Y8832245D01*
X16370300Y8860305D01*
X16370300Y10322576D01*
X16370296Y10323582D01*
X16370256Y10328630D01*
X16370244Y10329643D01*
X16362209Y10834975D01*
X16362177Y10839546D01*
X16369559Y14238329D01*
X16432694Y14390385D01*
X16584693Y14453665D01*
X24042186Y14476933D01*
X24194834Y14414335D01*
G04 #@! TO.N,/LfNeg*
G36*
X15638672Y10941731D02*
X15691186Y10886219D01*
X15694629Y10881053D01*
X15719065Y10815374D01*
X15720637Y10802795D01*
X15722600Y10771276D01*
X15722600Y8889659D01*
X15722615Y8887716D01*
X15722764Y8877978D01*
X15722809Y8876026D01*
X15731294Y8599530D01*
X15742598Y8550914D01*
X15843772Y8328114D01*
X15872936Y8287611D01*
X15885776Y8275674D01*
X15926544Y8250197D01*
X16146749Y8165261D01*
X16194064Y8156762D01*
X16836782Y8164918D01*
X16872744Y8170593D01*
X17044833Y8223892D01*
X17077706Y8239536D01*
X17132896Y8276329D01*
X17173793Y8320911D01*
X17310481Y8570043D01*
X17326110Y8628487D01*
X17372095Y10835755D01*
X17386809Y10895303D01*
X17423432Y10931926D01*
X17456979Y10948700D01*
X17490248Y10962480D01*
X17502159Y10966450D01*
X17575240Y10966450D01*
X17595396Y10959731D01*
X17618231Y10950875D01*
X17644236Y10939317D01*
X17702824Y10893471D01*
X17730822Y10814105D01*
X17741863Y10173775D01*
X17741900Y10169454D01*
X17741900Y9421321D01*
X17741903Y9420466D01*
X17741932Y9416156D01*
X17741941Y9415287D01*
X17752364Y8647448D01*
X17768441Y8587304D01*
X17910389Y8332832D01*
X17953116Y8287555D01*
X18014814Y8248292D01*
X18047491Y8233502D01*
X18217949Y8183865D01*
X18253456Y8178800D01*
X18384795Y8178800D01*
X18417768Y8165142D01*
X18537010Y8165142D01*
X18656604Y8115604D01*
X18719800Y7963037D01*
X18719800Y7143068D01*
X18719820Y7140805D01*
X18720022Y7129473D01*
X18720083Y7127203D01*
X18732338Y6784079D01*
X18732500Y6774991D01*
X18732500Y6655844D01*
X18732501Y6655418D01*
X18732508Y6653330D01*
X18732510Y6652921D01*
X18745055Y4745923D01*
X18743508Y4716203D01*
X18737732Y4664221D01*
X18728489Y4622137D01*
X18705444Y4584850D01*
X18695705Y4575111D01*
X18674785Y4556387D01*
X18664940Y4548510D01*
X18635510Y4534797D01*
X18629085Y4533512D01*
X18615149Y4531125D01*
X18587214Y4527134D01*
X18527334Y4526609D01*
X18462977Y4548061D01*
X18430833Y4572613D01*
X18410939Y4600215D01*
X18395578Y4652231D01*
X18391154Y4692045D01*
X18389600Y4720105D01*
X18389600Y6180830D01*
X18389590Y6182453D01*
X18389486Y6190592D01*
X18389454Y6192225D01*
X18378117Y6634344D01*
X18378005Y6637337D01*
X18377268Y6652298D01*
X18377085Y6655289D01*
X18347891Y7055501D01*
X18335009Y7102679D01*
X18228415Y7317653D01*
X18198661Y7356464D01*
X18169944Y7381803D01*
X18130833Y7405366D01*
X17920768Y7484792D01*
X17875852Y7493000D01*
X17200313Y7493000D01*
X17151712Y7483333D01*
X16927205Y7390339D01*
X16886003Y7362809D01*
X16868791Y7345597D01*
X16841261Y7304395D01*
X16748267Y7079888D01*
X16738600Y7031287D01*
X16738600Y4758205D01*
X16737046Y4730146D01*
X16731132Y4676921D01*
X16721889Y4634837D01*
X16698844Y4597550D01*
X16689105Y4587811D01*
X16668185Y4569087D01*
X16658340Y4561210D01*
X16628910Y4547497D01*
X16622485Y4546212D01*
X16608549Y4543825D01*
X16580614Y4539834D01*
X16520734Y4539309D01*
X16456377Y4560761D01*
X16424233Y4585313D01*
X16404339Y4612915D01*
X16388978Y4664931D01*
X16384554Y4704745D01*
X16383000Y4732805D01*
X16383000Y6193530D01*
X16382990Y6195153D01*
X16382886Y6203292D01*
X16382854Y6204924D01*
X16370840Y6673454D01*
X16372842Y6689215D01*
X16376166Y6714341D01*
X16377248Y6732931D01*
X16372260Y7060437D01*
X16361471Y7109761D01*
X16265040Y7328358D01*
X16235881Y7369585D01*
X16233114Y7372189D01*
X16192895Y7397759D01*
X15975292Y7484055D01*
X15928474Y7493000D01*
X14058763Y7493000D01*
X13906196Y7556196D01*
X13843000Y7708763D01*
X13843000Y7959614D01*
X13906949Y8112893D01*
X14060873Y8175275D01*
X14401702Y8171797D01*
X14417768Y8165142D01*
X14679218Y8165142D01*
X14688225Y8168873D01*
X14851673Y8167205D01*
X14892515Y8173512D01*
X15086255Y8236996D01*
X15122909Y8256082D01*
X15168737Y8290453D01*
X15205225Y8333484D01*
X15332069Y8577535D01*
X15346319Y8632125D01*
X15354126Y8881179D01*
X15354162Y8882589D01*
X15354306Y8889705D01*
X15354327Y8891141D01*
X15366946Y10305781D01*
X15366947Y10307979D01*
X15366855Y10318949D01*
X15366817Y10321139D01*
X15355691Y10755074D01*
X15364377Y10823465D01*
X15384964Y10873164D01*
X15393825Y10889114D01*
X15439417Y10940181D01*
X15496107Y10967976D01*
X15571984Y10971547D01*
X15638672Y10941731D01*
X15638672Y10941731D01*
G37*
X15638672Y10941731D02*
X15691186Y10886219D01*
X15694629Y10881053D01*
X15719065Y10815374D01*
X15720637Y10802795D01*
X15722600Y10771276D01*
X15722600Y8889659D01*
X15722615Y8887716D01*
X15722764Y8877978D01*
X15722809Y8876026D01*
X15731294Y8599530D01*
X15742598Y8550914D01*
X15843772Y8328114D01*
X15872936Y8287611D01*
X15885776Y8275674D01*
X15926544Y8250197D01*
X16146749Y8165261D01*
X16194064Y8156762D01*
X16836782Y8164918D01*
X16872744Y8170593D01*
X17044833Y8223892D01*
X17077706Y8239536D01*
X17132896Y8276329D01*
X17173793Y8320911D01*
X17310481Y8570043D01*
X17326110Y8628487D01*
X17372095Y10835755D01*
X17386809Y10895303D01*
X17423432Y10931926D01*
X17456979Y10948700D01*
X17490248Y10962480D01*
X17502159Y10966450D01*
X17575240Y10966450D01*
X17595396Y10959731D01*
X17618231Y10950875D01*
X17644236Y10939317D01*
X17702824Y10893471D01*
X17730822Y10814105D01*
X17741863Y10173775D01*
X17741900Y10169454D01*
X17741900Y9421321D01*
X17741903Y9420466D01*
X17741932Y9416156D01*
X17741941Y9415287D01*
X17752364Y8647448D01*
X17768441Y8587304D01*
X17910389Y8332832D01*
X17953116Y8287555D01*
X18014814Y8248292D01*
X18047491Y8233502D01*
X18217949Y8183865D01*
X18253456Y8178800D01*
X18384795Y8178800D01*
X18417768Y8165142D01*
X18537010Y8165142D01*
X18656604Y8115604D01*
X18719800Y7963037D01*
X18719800Y7143068D01*
X18719820Y7140805D01*
X18720022Y7129473D01*
X18720083Y7127203D01*
X18732338Y6784079D01*
X18732500Y6774991D01*
X18732500Y6655844D01*
X18732501Y6655418D01*
X18732508Y6653330D01*
X18732510Y6652921D01*
X18745055Y4745923D01*
X18743508Y4716203D01*
X18737732Y4664221D01*
X18728489Y4622137D01*
X18705444Y4584850D01*
X18695705Y4575111D01*
X18674785Y4556387D01*
X18664940Y4548510D01*
X18635510Y4534797D01*
X18629085Y4533512D01*
X18615149Y4531125D01*
X18587214Y4527134D01*
X18527334Y4526609D01*
X18462977Y4548061D01*
X18430833Y4572613D01*
X18410939Y4600215D01*
X18395578Y4652231D01*
X18391154Y4692045D01*
X18389600Y4720105D01*
X18389600Y6180830D01*
X18389590Y6182453D01*
X18389486Y6190592D01*
X18389454Y6192225D01*
X18378117Y6634344D01*
X18378005Y6637337D01*
X18377268Y6652298D01*
X18377085Y6655289D01*
X18347891Y7055501D01*
X18335009Y7102679D01*
X18228415Y7317653D01*
X18198661Y7356464D01*
X18169944Y7381803D01*
X18130833Y7405366D01*
X17920768Y7484792D01*
X17875852Y7493000D01*
X17200313Y7493000D01*
X17151712Y7483333D01*
X16927205Y7390339D01*
X16886003Y7362809D01*
X16868791Y7345597D01*
X16841261Y7304395D01*
X16748267Y7079888D01*
X16738600Y7031287D01*
X16738600Y4758205D01*
X16737046Y4730146D01*
X16731132Y4676921D01*
X16721889Y4634837D01*
X16698844Y4597550D01*
X16689105Y4587811D01*
X16668185Y4569087D01*
X16658340Y4561210D01*
X16628910Y4547497D01*
X16622485Y4546212D01*
X16608549Y4543825D01*
X16580614Y4539834D01*
X16520734Y4539309D01*
X16456377Y4560761D01*
X16424233Y4585313D01*
X16404339Y4612915D01*
X16388978Y4664931D01*
X16384554Y4704745D01*
X16383000Y4732805D01*
X16383000Y6193530D01*
X16382990Y6195153D01*
X16382886Y6203292D01*
X16382854Y6204924D01*
X16370840Y6673454D01*
X16372842Y6689215D01*
X16376166Y6714341D01*
X16377248Y6732931D01*
X16372260Y7060437D01*
X16361471Y7109761D01*
X16265040Y7328358D01*
X16235881Y7369585D01*
X16233114Y7372189D01*
X16192895Y7397759D01*
X15975292Y7484055D01*
X15928474Y7493000D01*
X14058763Y7493000D01*
X13906196Y7556196D01*
X13843000Y7708763D01*
X13843000Y7959614D01*
X13906949Y8112893D01*
X14060873Y8175275D01*
X14401702Y8171797D01*
X14417768Y8165142D01*
X14679218Y8165142D01*
X14688225Y8168873D01*
X14851673Y8167205D01*
X14892515Y8173512D01*
X15086255Y8236996D01*
X15122909Y8256082D01*
X15168737Y8290453D01*
X15205225Y8333484D01*
X15332069Y8577535D01*
X15346319Y8632125D01*
X15354126Y8881179D01*
X15354162Y8882589D01*
X15354306Y8889705D01*
X15354327Y8891141D01*
X15366946Y10305781D01*
X15366947Y10307979D01*
X15366855Y10318949D01*
X15366817Y10321139D01*
X15355691Y10755074D01*
X15364377Y10823465D01*
X15384964Y10873164D01*
X15393825Y10889114D01*
X15439417Y10940181D01*
X15496107Y10967976D01*
X15571984Y10971547D01*
X15638672Y10941731D01*
G04 #@! TO.N,/CfNeg*
G36*
X23169772Y11005231D02*
X23222286Y10949719D01*
X23225729Y10944553D01*
X23250165Y10878874D01*
X23251737Y10866295D01*
X23253700Y10834776D01*
X23253700Y9179489D01*
X23253709Y9177962D01*
X23253801Y9170313D01*
X23253829Y9168780D01*
X23263047Y8786310D01*
X23275175Y8735130D01*
X23385058Y8502488D01*
X23416884Y8460611D01*
X23500391Y8388492D01*
X23539116Y8365580D01*
X23746641Y8288371D01*
X23790925Y8280400D01*
X23812113Y8280400D01*
X23937068Y8228642D01*
X24198518Y8228642D01*
X24323473Y8280400D01*
X24402987Y8280400D01*
X24448121Y8288690D01*
X24659056Y8368888D01*
X24698296Y8392677D01*
X24736670Y8426787D01*
X24766910Y8467003D01*
X24873132Y8689551D01*
X24885381Y8738354D01*
X24904220Y9143328D01*
X24904323Y9146278D01*
X24904666Y9161032D01*
X24904700Y9163984D01*
X24904700Y10359130D01*
X24904690Y10360753D01*
X24904586Y10368892D01*
X24904554Y10370524D01*
X24893391Y10805874D01*
X24902077Y10874265D01*
X24922664Y10923964D01*
X24931525Y10939914D01*
X24977117Y10990981D01*
X25033807Y11018776D01*
X25109684Y11022347D01*
X25176372Y10992531D01*
X25228886Y10937019D01*
X25232329Y10931853D01*
X25256765Y10866174D01*
X25258337Y10853595D01*
X25260300Y10822076D01*
X25260300Y8708509D01*
X25272290Y8654641D01*
X25386531Y8410731D01*
X25420239Y8367034D01*
X25449214Y8342889D01*
X25486014Y8321506D01*
X25682518Y8247988D01*
X25724318Y8239965D01*
X25919772Y8235806D01*
X25937068Y8228642D01*
X26198518Y8228642D01*
X26201351Y8229815D01*
X26431107Y8224927D01*
X26588567Y8151241D01*
X26639988Y7985174D01*
X26618650Y7802278D01*
X26479123Y7606253D01*
X26370316Y7553726D01*
X26267683Y7528646D01*
X24722384Y7482921D01*
X24687124Y7476836D01*
X24518572Y7422424D01*
X24486411Y7406745D01*
X24431454Y7369555D01*
X24390292Y7323611D01*
X24259814Y7076162D01*
X24245155Y7016243D01*
X24256883Y4834743D01*
X24255334Y4805337D01*
X24249531Y4753119D01*
X24240289Y4711037D01*
X24217244Y4673750D01*
X24207505Y4664011D01*
X24186585Y4645287D01*
X24176740Y4637410D01*
X24147310Y4623697D01*
X24140885Y4622412D01*
X24126949Y4620025D01*
X24099014Y4616034D01*
X24039134Y4615509D01*
X23974777Y4636961D01*
X23942633Y4661513D01*
X23922739Y4689115D01*
X23907378Y4741131D01*
X23902954Y4780945D01*
X23901400Y4809005D01*
X23901400Y6269730D01*
X23901390Y6271353D01*
X23901286Y6279491D01*
X23901254Y6281123D01*
X23895917Y6489276D01*
X23888129Y6523780D01*
X23877865Y7119131D01*
X23863314Y7176006D01*
X23772530Y7348816D01*
X23733945Y7393076D01*
X23725950Y7398790D01*
X23691701Y7416136D01*
X23511355Y7475314D01*
X23473475Y7481632D01*
X22720741Y7491804D01*
X22686893Y7487684D01*
X22523441Y7444938D01*
X22491909Y7431960D01*
X22447086Y7405992D01*
X22400717Y7359520D01*
X22280067Y7150186D01*
X22263100Y7086768D01*
X22263100Y6447493D01*
X22260067Y6442954D01*
X22250400Y6394353D01*
X22250400Y4834405D01*
X22248846Y4806346D01*
X22242932Y4753121D01*
X22233689Y4711037D01*
X22210644Y4673750D01*
X22200905Y4664011D01*
X22179985Y4645287D01*
X22170140Y4637410D01*
X22140710Y4623697D01*
X22134285Y4622412D01*
X22120349Y4620025D01*
X22092414Y4616034D01*
X22032534Y4615509D01*
X21968177Y4636961D01*
X21936033Y4661513D01*
X21916139Y4689115D01*
X21900778Y4741131D01*
X21896354Y4780945D01*
X21894800Y4809005D01*
X21894800Y6670288D01*
X21894738Y6674249D01*
X21894120Y6694054D01*
X21893935Y6698015D01*
X21844494Y7489067D01*
X21844000Y7504886D01*
X21844000Y8068093D01*
X21900683Y8214152D01*
X21933170Y8230257D01*
X21937068Y8228642D01*
X22198518Y8228642D01*
X22412488Y8317271D01*
X22493567Y8324591D01*
X22538556Y8337291D01*
X22744390Y8439330D01*
X22783640Y8469578D01*
X22806379Y8507168D01*
X22889497Y8721343D01*
X22898100Y8767291D01*
X22898100Y10371830D01*
X22898090Y10373453D01*
X22897986Y10381592D01*
X22897954Y10383224D01*
X22886791Y10818574D01*
X22895477Y10886965D01*
X22916064Y10936664D01*
X22924925Y10952614D01*
X22970517Y11003681D01*
X23027207Y11031476D01*
X23103084Y11035047D01*
X23169772Y11005231D01*
X23169772Y11005231D01*
G37*
X23169772Y11005231D02*
X23222286Y10949719D01*
X23225729Y10944553D01*
X23250165Y10878874D01*
X23251737Y10866295D01*
X23253700Y10834776D01*
X23253700Y9179489D01*
X23253709Y9177962D01*
X23253801Y9170313D01*
X23253829Y9168780D01*
X23263047Y8786310D01*
X23275175Y8735130D01*
X23385058Y8502488D01*
X23416884Y8460611D01*
X23500391Y8388492D01*
X23539116Y8365580D01*
X23746641Y8288371D01*
X23790925Y8280400D01*
X23812113Y8280400D01*
X23937068Y8228642D01*
X24198518Y8228642D01*
X24323473Y8280400D01*
X24402987Y8280400D01*
X24448121Y8288690D01*
X24659056Y8368888D01*
X24698296Y8392677D01*
X24736670Y8426787D01*
X24766910Y8467003D01*
X24873132Y8689551D01*
X24885381Y8738354D01*
X24904220Y9143328D01*
X24904323Y9146278D01*
X24904666Y9161032D01*
X24904700Y9163984D01*
X24904700Y10359130D01*
X24904690Y10360753D01*
X24904586Y10368892D01*
X24904554Y10370524D01*
X24893391Y10805874D01*
X24902077Y10874265D01*
X24922664Y10923964D01*
X24931525Y10939914D01*
X24977117Y10990981D01*
X25033807Y11018776D01*
X25109684Y11022347D01*
X25176372Y10992531D01*
X25228886Y10937019D01*
X25232329Y10931853D01*
X25256765Y10866174D01*
X25258337Y10853595D01*
X25260300Y10822076D01*
X25260300Y8708509D01*
X25272290Y8654641D01*
X25386531Y8410731D01*
X25420239Y8367034D01*
X25449214Y8342889D01*
X25486014Y8321506D01*
X25682518Y8247988D01*
X25724318Y8239965D01*
X25919772Y8235806D01*
X25937068Y8228642D01*
X26198518Y8228642D01*
X26201351Y8229815D01*
X26431107Y8224927D01*
X26588567Y8151241D01*
X26639988Y7985174D01*
X26618650Y7802278D01*
X26479123Y7606253D01*
X26370316Y7553726D01*
X26267683Y7528646D01*
X24722384Y7482921D01*
X24687124Y7476836D01*
X24518572Y7422424D01*
X24486411Y7406745D01*
X24431454Y7369555D01*
X24390292Y7323611D01*
X24259814Y7076162D01*
X24245155Y7016243D01*
X24256883Y4834743D01*
X24255334Y4805337D01*
X24249531Y4753119D01*
X24240289Y4711037D01*
X24217244Y4673750D01*
X24207505Y4664011D01*
X24186585Y4645287D01*
X24176740Y4637410D01*
X24147310Y4623697D01*
X24140885Y4622412D01*
X24126949Y4620025D01*
X24099014Y4616034D01*
X24039134Y4615509D01*
X23974777Y4636961D01*
X23942633Y4661513D01*
X23922739Y4689115D01*
X23907378Y4741131D01*
X23902954Y4780945D01*
X23901400Y4809005D01*
X23901400Y6269730D01*
X23901390Y6271353D01*
X23901286Y6279491D01*
X23901254Y6281123D01*
X23895917Y6489276D01*
X23888129Y6523780D01*
X23877865Y7119131D01*
X23863314Y7176006D01*
X23772530Y7348816D01*
X23733945Y7393076D01*
X23725950Y7398790D01*
X23691701Y7416136D01*
X23511355Y7475314D01*
X23473475Y7481632D01*
X22720741Y7491804D01*
X22686893Y7487684D01*
X22523441Y7444938D01*
X22491909Y7431960D01*
X22447086Y7405992D01*
X22400717Y7359520D01*
X22280067Y7150186D01*
X22263100Y7086768D01*
X22263100Y6447493D01*
X22260067Y6442954D01*
X22250400Y6394353D01*
X22250400Y4834405D01*
X22248846Y4806346D01*
X22242932Y4753121D01*
X22233689Y4711037D01*
X22210644Y4673750D01*
X22200905Y4664011D01*
X22179985Y4645287D01*
X22170140Y4637410D01*
X22140710Y4623697D01*
X22134285Y4622412D01*
X22120349Y4620025D01*
X22092414Y4616034D01*
X22032534Y4615509D01*
X21968177Y4636961D01*
X21936033Y4661513D01*
X21916139Y4689115D01*
X21900778Y4741131D01*
X21896354Y4780945D01*
X21894800Y4809005D01*
X21894800Y6670288D01*
X21894738Y6674249D01*
X21894120Y6694054D01*
X21893935Y6698015D01*
X21844494Y7489067D01*
X21844000Y7504886D01*
X21844000Y8068093D01*
X21900683Y8214152D01*
X21933170Y8230257D01*
X21937068Y8228642D01*
X22198518Y8228642D01*
X22412488Y8317271D01*
X22493567Y8324591D01*
X22538556Y8337291D01*
X22744390Y8439330D01*
X22783640Y8469578D01*
X22806379Y8507168D01*
X22889497Y8721343D01*
X22898100Y8767291D01*
X22898100Y10371830D01*
X22898090Y10373453D01*
X22897986Y10381592D01*
X22897954Y10383224D01*
X22886791Y10818574D01*
X22895477Y10886965D01*
X22916064Y10936664D01*
X22924925Y10952614D01*
X22970517Y11003681D01*
X23027207Y11031476D01*
X23103084Y11035047D01*
X23169772Y11005231D01*
G04 #@! TO.N,/GateT2*
G36*
X27581816Y6483980D02*
X27699736Y6432439D01*
X27747734Y6313032D01*
X27738889Y4853594D01*
X27674422Y4701089D01*
X27520853Y4639195D01*
X26689012Y4648140D01*
X26687030Y4648146D01*
X26677138Y4648098D01*
X26675163Y4648073D01*
X26108610Y4636511D01*
X26041906Y4644032D01*
X26017001Y4650259D01*
X25935635Y4725606D01*
X25933713Y4731372D01*
X25920700Y4811560D01*
X25920700Y5264011D01*
X25956740Y5374841D01*
X26030315Y5440030D01*
X26092296Y5474542D01*
X26094085Y5475557D01*
X26102976Y5480698D01*
X26104745Y5481740D01*
X26399529Y5658611D01*
X26406690Y5663242D01*
X26441678Y5687570D01*
X26448512Y5692671D01*
X27057704Y6180024D01*
X27061303Y6183013D01*
X27079005Y6198277D01*
X27082487Y6201393D01*
X27316750Y6418923D01*
X27493920Y6486073D01*
X27581816Y6483980D01*
X27581816Y6483980D01*
G37*
X27581816Y6483980D02*
X27699736Y6432439D01*
X27747734Y6313032D01*
X27738889Y4853594D01*
X27674422Y4701089D01*
X27520853Y4639195D01*
X26689012Y4648140D01*
X26687030Y4648146D01*
X26677138Y4648098D01*
X26675163Y4648073D01*
X26108610Y4636511D01*
X26041906Y4644032D01*
X26017001Y4650259D01*
X25935635Y4725606D01*
X25933713Y4731372D01*
X25920700Y4811560D01*
X25920700Y5264011D01*
X25956740Y5374841D01*
X26030315Y5440030D01*
X26092296Y5474542D01*
X26094085Y5475557D01*
X26102976Y5480698D01*
X26104745Y5481740D01*
X26399529Y5658611D01*
X26406690Y5663242D01*
X26441678Y5687570D01*
X26448512Y5692671D01*
X27057704Y6180024D01*
X27061303Y6183013D01*
X27079005Y6198277D01*
X27082487Y6201393D01*
X27316750Y6418923D01*
X27493920Y6486073D01*
X27581816Y6483980D01*
G04 #@! TO.N,/GateB2*
G36*
X27895403Y11385403D02*
X27940000Y11277737D01*
X27940000Y8978763D01*
X27876804Y8826196D01*
X27724237Y8763000D01*
X26372019Y8763000D01*
X26341359Y8775700D01*
X26027304Y8775700D01*
X25922849Y8858531D01*
X25907725Y8923148D01*
X25901046Y8980992D01*
X25901046Y9379327D01*
X25940942Y9505156D01*
X26046055Y9585007D01*
X26834307Y9866170D01*
X26879070Y9893674D01*
X27065479Y10070605D01*
X27095280Y10113873D01*
X27587589Y11295413D01*
X27668154Y11393268D01*
X27788470Y11429697D01*
X27895403Y11385403D01*
X27895403Y11385403D01*
G37*
X27895403Y11385403D02*
X27940000Y11277737D01*
X27940000Y8978763D01*
X27876804Y8826196D01*
X27724237Y8763000D01*
X26372019Y8763000D01*
X26341359Y8775700D01*
X26027304Y8775700D01*
X25922849Y8858531D01*
X25907725Y8923148D01*
X25901046Y8980992D01*
X25901046Y9379327D01*
X25940942Y9505156D01*
X26046055Y9585007D01*
X26834307Y9866170D01*
X26879070Y9893674D01*
X27065479Y10070605D01*
X27095280Y10113873D01*
X27587589Y11295413D01*
X27668154Y11393268D01*
X27788470Y11429697D01*
X27895403Y11385403D01*
G04 #@! TO.N,/GateT1*
G36*
X14209741Y6921500D02*
X14514304Y6921500D01*
X14559299Y6910251D01*
X14638002Y6854097D01*
X14668500Y6751206D01*
X14668500Y6159598D01*
X14619301Y6067670D01*
X14561516Y6029145D01*
X14523807Y6008393D01*
X14010686Y5780339D01*
X13999488Y5774684D01*
X13945027Y5743715D01*
X13934441Y5736982D01*
X13233154Y5240687D01*
X13087308Y5194300D01*
X12992069Y5194300D01*
X12894200Y5235022D01*
X12854107Y5333149D01*
X12862924Y6708664D01*
X12926265Y6860038D01*
X13077736Y6923138D01*
X14192789Y6928522D01*
X14209741Y6921500D01*
X14209741Y6921500D01*
G37*
X14209741Y6921500D02*
X14514304Y6921500D01*
X14559299Y6910251D01*
X14638002Y6854097D01*
X14668500Y6751206D01*
X14668500Y6159598D01*
X14619301Y6067670D01*
X14561516Y6029145D01*
X14523807Y6008393D01*
X14010686Y5780339D01*
X13999488Y5774684D01*
X13945027Y5743715D01*
X13934441Y5736982D01*
X13233154Y5240687D01*
X13087308Y5194300D01*
X12992069Y5194300D01*
X12894200Y5235022D01*
X12854107Y5333149D01*
X12862924Y6708664D01*
X12926265Y6860038D01*
X13077736Y6923138D01*
X14192789Y6928522D01*
X14209741Y6921500D01*
G04 #@! TO.N,/GateB1*
G36*
X13360188Y11832074D02*
X14020267Y11392021D01*
X14022801Y11390374D01*
X14035566Y11382296D01*
X14038138Y11380711D01*
X14571845Y11060486D01*
X14667858Y10956805D01*
X14705275Y10881971D01*
X14732000Y10768760D01*
X14732000Y10376740D01*
X14705275Y10263531D01*
X14698043Y10249066D01*
X14553931Y10160000D01*
X13042763Y10160000D01*
X12979998Y10185998D01*
X12954000Y10248763D01*
X12954000Y11722237D01*
X12998597Y11829903D01*
X13106263Y11874500D01*
X13220063Y11874500D01*
X13360188Y11832074D01*
X13360188Y11832074D01*
G37*
X13360188Y11832074D02*
X14020267Y11392021D01*
X14022801Y11390374D01*
X14035566Y11382296D01*
X14038138Y11380711D01*
X14571845Y11060486D01*
X14667858Y10956805D01*
X14705275Y10881971D01*
X14732000Y10768760D01*
X14732000Y10376740D01*
X14705275Y10263531D01*
X14698043Y10249066D01*
X14553931Y10160000D01*
X13042763Y10160000D01*
X12979998Y10185998D01*
X12954000Y10248763D01*
X12954000Y11722237D01*
X12998597Y11829903D01*
X13106263Y11874500D01*
X13220063Y11874500D01*
X13360188Y11832074D01*
G04 #@! TO.N,/VDDT1*
G36*
X11239500Y4363741D02*
X11239500Y1905000D01*
X10503499Y1905000D01*
X10216101Y2709715D01*
X10186303Y2756803D01*
X9424303Y3518803D01*
X9376768Y3548760D01*
X8382000Y3899855D01*
X8382000Y5080000D01*
X9687606Y5080000D01*
X11239500Y4363741D01*
X11239500Y4363741D01*
G37*
X11239500Y4363741D02*
X11239500Y1905000D01*
X10503499Y1905000D01*
X10216101Y2709715D01*
X10186303Y2756803D01*
X9424303Y3518803D01*
X9376768Y3548760D01*
X8382000Y3899855D01*
X8382000Y5080000D01*
X9687606Y5080000D01*
X11239500Y4363741D01*
G04 #@! TO.N,/VDDB1*
G36*
X8953500Y13602331D02*
X8826500Y13295726D01*
X8826500Y12866274D01*
X8953500Y12559669D01*
X8953500Y11557000D01*
X7366000Y11557000D01*
X7366000Y14097000D01*
X8953500Y14097000D01*
X8953500Y13602331D01*
X8953500Y13602331D01*
G37*
X8953500Y13602331D02*
X8826500Y13295726D01*
X8826500Y12866274D01*
X8953500Y12559669D01*
X8953500Y11557000D01*
X7366000Y11557000D01*
X7366000Y14097000D01*
X8953500Y14097000D01*
X8953500Y13602331D01*
G04 #@! TO.N,/VDDT2*
G36*
X32231689Y5326860D02*
X32521347Y5163760D01*
X32549893Y5151994D01*
X32697612Y5111253D01*
X32728154Y5106723D01*
X33452637Y5088323D01*
X33600035Y5025059D01*
X33663277Y4877657D01*
X33690239Y3810000D01*
X33300643Y3810000D01*
X32880542Y3635989D01*
X32559011Y3314458D01*
X32536119Y3259193D01*
X31590086Y3234813D01*
X31434103Y3295920D01*
X31369000Y3450274D01*
X31369000Y5143637D01*
X31432196Y5296204D01*
X31584763Y5359400D01*
X32107583Y5359400D01*
X32231689Y5326860D01*
X32231689Y5326860D01*
G37*
X32231689Y5326860D02*
X32521347Y5163760D01*
X32549893Y5151994D01*
X32697612Y5111253D01*
X32728154Y5106723D01*
X33452637Y5088323D01*
X33600035Y5025059D01*
X33663277Y4877657D01*
X33690239Y3810000D01*
X33300643Y3810000D01*
X32880542Y3635989D01*
X32559011Y3314458D01*
X32536119Y3259193D01*
X31590086Y3234813D01*
X31434103Y3295920D01*
X31369000Y3450274D01*
X31369000Y5143637D01*
X31432196Y5296204D01*
X31584763Y5359400D01*
X32107583Y5359400D01*
X32231689Y5326860D01*
G04 #@! TO.N,/LfNeg*
G36*
X14704418Y5315348D02*
X14739272Y5190206D01*
X14713542Y4615525D01*
X14689741Y4519103D01*
X14242800Y3567919D01*
X14217187Y3524985D01*
X13812363Y2977282D01*
X13810561Y2974782D01*
X13801711Y2962180D01*
X13799973Y2959639D01*
X13154166Y1990929D01*
X12946146Y1879600D01*
X12348804Y1879600D01*
X12196001Y1943044D01*
X12133072Y2096060D01*
X12140067Y4172081D01*
X12202269Y4322994D01*
X12352316Y4387262D01*
X13372308Y4404697D01*
X13420256Y4414986D01*
X13641313Y4509929D01*
X13681788Y4537617D01*
X14282206Y5148757D01*
X14289697Y5157087D01*
X14325248Y5200311D01*
X14331977Y5209270D01*
X14380910Y5280786D01*
X14554029Y5372100D01*
X14598376Y5372100D01*
X14704418Y5315348D01*
X14704418Y5315348D01*
G37*
X14704418Y5315348D02*
X14739272Y5190206D01*
X14713542Y4615525D01*
X14689741Y4519103D01*
X14242800Y3567919D01*
X14217187Y3524985D01*
X13812363Y2977282D01*
X13810561Y2974782D01*
X13801711Y2962180D01*
X13799973Y2959639D01*
X13154166Y1990929D01*
X12946146Y1879600D01*
X12348804Y1879600D01*
X12196001Y1943044D01*
X12133072Y2096060D01*
X12140067Y4172081D01*
X12202269Y4322994D01*
X12352316Y4387262D01*
X13372308Y4404697D01*
X13420256Y4414986D01*
X13641313Y4509929D01*
X13681788Y4537617D01*
X14282206Y5148757D01*
X14289697Y5157087D01*
X14325248Y5200311D01*
X14331977Y5209270D01*
X14380910Y5280786D01*
X14554029Y5372100D01*
X14598376Y5372100D01*
X14704418Y5315348D01*
G04 #@! TO.N,/VDDB2*
G36*
X31369304Y11707611D02*
X31415560Y11595940D01*
X31415560Y11328500D01*
X31432500Y11243336D01*
X31432500Y10566263D01*
X31411531Y10515640D01*
X30246969Y10515640D01*
X30226000Y10566263D01*
X30226000Y11555044D01*
X30289196Y11707611D01*
X30441763Y11770807D01*
X31216737Y11770807D01*
X31369304Y11707611D01*
X31369304Y11707611D01*
G37*
X31369304Y11707611D02*
X31415560Y11595940D01*
X31415560Y11328500D01*
X31432500Y11243336D01*
X31432500Y10566263D01*
X31411531Y10515640D01*
X30246969Y10515640D01*
X30226000Y10566263D01*
X30226000Y11555044D01*
X30289196Y11707611D01*
X30441763Y11770807D01*
X31216737Y11770807D01*
X31369304Y11707611D01*
G04 #@! TO.N,/CfNeg*
G36*
X31178994Y6186439D02*
X31037849Y6174677D01*
X30974826Y6151637D01*
X30711058Y5964183D01*
X30668574Y5912242D01*
X30515264Y5567297D01*
X30507715Y5544895D01*
X30480678Y5430363D01*
X30477412Y5406952D01*
X30368021Y3000337D01*
X30301424Y2853878D01*
X30152091Y2794000D01*
X28155763Y2794000D01*
X28003196Y2857196D01*
X27940000Y3009763D01*
X27940000Y3618987D01*
X27997626Y3766030D01*
X28139816Y3834765D01*
X28661601Y3874902D01*
X28888000Y3874902D01*
X29030762Y3903299D01*
X29180591Y3914824D01*
X29226124Y3927109D01*
X29434730Y4027949D01*
X29474279Y4057804D01*
X29497701Y4095950D01*
X29582244Y4311675D01*
X29591000Y4358015D01*
X29591000Y5376007D01*
X29615102Y5483828D01*
X29989467Y6279354D01*
X30024295Y6318100D01*
X30929099Y6318100D01*
X30942472Y6320760D01*
X31268744Y6320760D01*
X31178994Y6186439D01*
X31178994Y6186439D01*
G37*
X31178994Y6186439D02*
X31037849Y6174677D01*
X30974826Y6151637D01*
X30711058Y5964183D01*
X30668574Y5912242D01*
X30515264Y5567297D01*
X30507715Y5544895D01*
X30480678Y5430363D01*
X30477412Y5406952D01*
X30368021Y3000337D01*
X30301424Y2853878D01*
X30152091Y2794000D01*
X28155763Y2794000D01*
X28003196Y2857196D01*
X27940000Y3009763D01*
X27940000Y3618987D01*
X27997626Y3766030D01*
X28139816Y3834765D01*
X28661601Y3874902D01*
X28888000Y3874902D01*
X29030762Y3903299D01*
X29180591Y3914824D01*
X29226124Y3927109D01*
X29434730Y4027949D01*
X29474279Y4057804D01*
X29497701Y4095950D01*
X29582244Y4311675D01*
X29591000Y4358015D01*
X29591000Y5376007D01*
X29615102Y5483828D01*
X29989467Y6279354D01*
X30024295Y6318100D01*
X30929099Y6318100D01*
X30942472Y6320760D01*
X31268744Y6320760D01*
X31178994Y6186439D01*
G36*
X28595415Y8189760D02*
X28723060Y8142748D01*
X28798025Y8029233D01*
X28876541Y7741632D01*
X28859561Y7584395D01*
X28740149Y7480701D01*
X28278244Y7316799D01*
X28244099Y7307307D01*
X27071843Y7068071D01*
X27053826Y7062986D01*
X26966093Y7031074D01*
X26949017Y7023394D01*
X26523931Y6793139D01*
X26479669Y6753277D01*
X26315966Y6514476D01*
X26294747Y6458817D01*
X26265259Y6228806D01*
X26218649Y6117554D01*
X26095913Y6057900D01*
X26072327Y6057900D01*
X25956325Y6108689D01*
X25908000Y6232289D01*
X25908000Y6785211D01*
X25966762Y6935503D01*
X25969755Y6938746D01*
X26059416Y7001144D01*
X26403700Y7142908D01*
X26416991Y7147952D01*
X26965214Y7338638D01*
X26975383Y7342674D01*
X27025269Y7365006D01*
X27035055Y7369903D01*
X27668292Y7721702D01*
X27679340Y7728604D01*
X27732673Y7765857D01*
X27742958Y7773856D01*
X28164498Y8137913D01*
X28338030Y8198967D01*
X28595415Y8189760D01*
X28595415Y8189760D01*
G37*
X28595415Y8189760D02*
X28723060Y8142748D01*
X28798025Y8029233D01*
X28876541Y7741632D01*
X28859561Y7584395D01*
X28740149Y7480701D01*
X28278244Y7316799D01*
X28244099Y7307307D01*
X27071843Y7068071D01*
X27053826Y7062986D01*
X26966093Y7031074D01*
X26949017Y7023394D01*
X26523931Y6793139D01*
X26479669Y6753277D01*
X26315966Y6514476D01*
X26294747Y6458817D01*
X26265259Y6228806D01*
X26218649Y6117554D01*
X26095913Y6057900D01*
X26072327Y6057900D01*
X25956325Y6108689D01*
X25908000Y6232289D01*
X25908000Y6785211D01*
X25966762Y6935503D01*
X25969755Y6938746D01*
X26059416Y7001144D01*
X26403700Y7142908D01*
X26416991Y7147952D01*
X26965214Y7338638D01*
X26975383Y7342674D01*
X27025269Y7365006D01*
X27035055Y7369903D01*
X27668292Y7721702D01*
X27679340Y7728604D01*
X27732673Y7765857D01*
X27742958Y7773856D01*
X28164498Y8137913D01*
X28338030Y8198967D01*
X28595415Y8189760D01*
G04 #@! TO.N,/GNDB1*
G36*
X27212657Y12511546D02*
X27293587Y12384206D01*
X27339660Y12169198D01*
X27267133Y11935547D01*
X26456545Y11168593D01*
X26429447Y11131528D01*
X26331334Y10928170D01*
X26319186Y10883892D01*
X26274141Y10361367D01*
X26236517Y10251046D01*
X26133420Y10167826D01*
X26001836Y10167826D01*
X25906638Y10234428D01*
X25848346Y10395286D01*
X25856060Y10975099D01*
X25881552Y11082505D01*
X26065009Y11459611D01*
X26076699Y11480973D01*
X26652344Y12422896D01*
X26850688Y12542160D01*
X27068274Y12555345D01*
X27212657Y12511546D01*
X27212657Y12511546D01*
G37*
X27212657Y12511546D02*
X27293587Y12384206D01*
X27339660Y12169198D01*
X27267133Y11935547D01*
X26456545Y11168593D01*
X26429447Y11131528D01*
X26331334Y10928170D01*
X26319186Y10883892D01*
X26274141Y10361367D01*
X26236517Y10251046D01*
X26133420Y10167826D01*
X26001836Y10167826D01*
X25906638Y10234428D01*
X25848346Y10395286D01*
X25856060Y10975099D01*
X25881552Y11082505D01*
X26065009Y11459611D01*
X26076699Y11480973D01*
X26652344Y12422896D01*
X26850688Y12542160D01*
X27068274Y12555345D01*
X27212657Y12511546D01*
G04 #@! TO.N,/PWMB2*
G36*
X29210000Y10414000D02*
X29219667Y10365399D01*
X29247197Y10324197D01*
X29691697Y9879697D01*
X29732899Y9852167D01*
X29767475Y9843277D01*
X30338975Y9779777D01*
X30353000Y9779000D01*
X31559500Y9779000D01*
X31559500Y9652000D01*
X28765500Y9652000D01*
X28765500Y11430000D01*
X29210000Y11430000D01*
X29210000Y10414000D01*
X29210000Y10414000D01*
G37*
X29210000Y10414000D02*
X29219667Y10365399D01*
X29247197Y10324197D01*
X29691697Y9879697D01*
X29732899Y9852167D01*
X29767475Y9843277D01*
X30338975Y9779777D01*
X30353000Y9779000D01*
X31559500Y9779000D01*
X31559500Y9652000D01*
X28765500Y9652000D01*
X28765500Y11430000D01*
X29210000Y11430000D01*
X29210000Y10414000D01*
G04 #@! TD*
M02*
