G04 #@! TF.GenerationSoftware,KiCad,Pcbnew,(5.0.0)*
G04 #@! TF.CreationDate,2019-04-05T14:46:39-07:00*
G04 #@! TF.ProjectId,Buffer,4275666665722E6B696361645F706362,rev?*
G04 #@! TF.SameCoordinates,Original*
G04 #@! TF.FileFunction,Soldermask,Top*
G04 #@! TF.FilePolarity,Negative*
%FSLAX46Y46*%
G04 Gerber Fmt 4.6, Leading zero omitted, Abs format (unit mm)*
G04 Created by KiCad (PCBNEW (5.0.0)) date 04/05/19 14:46:39*
%MOMM*%
%LPD*%
G01*
G04 APERTURE LIST*
%ADD10C,1.270000*%
%ADD11C,1.016000*%
%ADD12R,1.750000X0.300000*%
%ADD13R,1.500000X1.016000*%
%ADD14R,0.508000X0.711000*%
%ADD15R,0.711000X0.508000*%
%ADD16R,0.889000X1.000000*%
%ADD17R,1.300000X1.400000*%
%ADD18C,0.350000*%
G04 APERTURE END LIST*
D10*
G04 #@! TO.C,TP1*
X9906000Y15494000D03*
G04 #@! TD*
D11*
G04 #@! TO.C,TP2*
X19748500Y12334900D03*
G04 #@! TD*
G04 #@! TO.C,TP2*
X21082000Y12334900D03*
G04 #@! TD*
G04 #@! TO.C,TP2*
X18415000Y12334900D03*
G04 #@! TD*
G04 #@! TO.C,TP2*
X18415000Y13604900D03*
G04 #@! TD*
G04 #@! TO.C,TP2*
X22415500Y12334900D03*
G04 #@! TD*
G04 #@! TO.C,TP2*
X21082000Y13604900D03*
G04 #@! TD*
G04 #@! TO.C,TP2*
X22415500Y13604900D03*
G04 #@! TD*
G04 #@! TO.C,TP2*
X19748500Y13604900D03*
G04 #@! TD*
G04 #@! TO.C,TP2*
X21082000Y1397000D03*
G04 #@! TD*
G04 #@! TO.C,TP2*
X22415500Y1397000D03*
G04 #@! TD*
G04 #@! TO.C,TP2*
X8318500Y1397000D03*
G04 #@! TD*
G04 #@! TO.C,TP2*
X37528500Y1397000D03*
G04 #@! TD*
G04 #@! TO.C,TP2*
X36195000Y1397000D03*
G04 #@! TD*
G04 #@! TO.C,TP2*
X33528000Y2667000D03*
G04 #@! TD*
G04 #@! TO.C,TP2*
X33528000Y1397000D03*
G04 #@! TD*
G04 #@! TO.C,TP2*
X36195000Y2667000D03*
G04 #@! TD*
G04 #@! TO.C,TP2*
X34861500Y2667000D03*
G04 #@! TD*
G04 #@! TO.C,TP2*
X34861500Y1397000D03*
G04 #@! TD*
G04 #@! TO.C,TP2*
X37528500Y2667000D03*
G04 #@! TD*
D10*
G04 #@! TO.C,TP11*
X40894000Y12065000D03*
G04 #@! TD*
D11*
G04 #@! TO.C,TP2*
X19748500Y1397000D03*
G04 #@! TD*
G04 #@! TO.C,TP2*
X18415000Y1397000D03*
G04 #@! TD*
G04 #@! TO.C,TP2*
X22415500Y2667000D03*
G04 #@! TD*
G04 #@! TO.C,TP2*
X21082000Y2667000D03*
G04 #@! TD*
G04 #@! TO.C,TP2*
X19748500Y2667000D03*
G04 #@! TD*
G04 #@! TO.C,TP2*
X18415000Y2667000D03*
G04 #@! TD*
D12*
G04 #@! TO.C,Inf2*
X30850300Y10368200D03*
X30850300Y9718200D03*
X30850300Y9068200D03*
X30850300Y7768200D03*
X30850300Y7118200D03*
X36100300Y10368200D03*
X36100300Y9718200D03*
X36100300Y9068200D03*
X36100300Y8418200D03*
X36100300Y7768200D03*
X36100300Y7118200D03*
X36100300Y6468200D03*
X30850300Y6468200D03*
G04 #@! TD*
D11*
G04 #@! TO.C,TP2*
X6985000Y2667000D03*
G04 #@! TD*
G04 #@! TO.C,TP2*
X5638800Y2667000D03*
G04 #@! TD*
G04 #@! TO.C,TP2*
X8318500Y2667000D03*
G04 #@! TD*
G04 #@! TO.C,TP2*
X6985000Y1397000D03*
G04 #@! TD*
G04 #@! TO.C,TP2*
X5651500Y1397000D03*
G04 #@! TD*
G04 #@! TO.C,TP2*
X4318000Y2667000D03*
G04 #@! TD*
G04 #@! TO.C,TP2*
X4318000Y1397000D03*
G04 #@! TD*
D12*
G04 #@! TO.C,Inf1*
X9854000Y6548200D03*
X9854000Y7198200D03*
X9854000Y7848200D03*
X9854000Y9148200D03*
X9854000Y9798200D03*
X4604000Y6548200D03*
X4604000Y7198200D03*
X4604000Y7848200D03*
X4604000Y8498200D03*
X4604000Y9148200D03*
X4604000Y9798200D03*
X4604000Y10448200D03*
X9854000Y10448200D03*
G04 #@! TD*
D13*
G04 #@! TO.C,C13*
X20307300Y6777700D03*
X20307300Y8995700D03*
G04 #@! TD*
D10*
G04 #@! TO.C,TP16*
X0Y12065000D03*
G04 #@! TD*
G04 #@! TO.C,TP15*
X6350000Y15494000D03*
G04 #@! TD*
G04 #@! TO.C,TP17*
X0Y14097000D03*
G04 #@! TD*
G04 #@! TO.C,TP5*
X40894000Y3175000D03*
G04 #@! TD*
G04 #@! TO.C,TP10*
X40894000Y7239000D03*
G04 #@! TD*
G04 #@! TO.C,TP9*
X40894000Y5207000D03*
G04 #@! TD*
G04 #@! TO.C,TP6*
X0Y7731000D03*
G04 #@! TD*
G04 #@! TO.C,TP4*
X40894000Y1143000D03*
G04 #@! TD*
G04 #@! TO.C,TP3*
X0Y10033000D03*
G04 #@! TD*
G04 #@! TO.C,TP2*
X0Y2921000D03*
G04 #@! TD*
D14*
G04 #@! TO.C,C1*
X2853000Y11049000D03*
X1719000Y11049000D03*
G04 #@! TD*
D15*
G04 #@! TO.C,C2*
X2667000Y7942000D03*
X2667000Y9076000D03*
G04 #@! TD*
G04 #@! TO.C,C3*
X2667000Y6790000D03*
X2667000Y5656000D03*
G04 #@! TD*
D14*
G04 #@! TO.C,C4*
X8767500Y11811000D03*
X9901500Y11811000D03*
G04 #@! TD*
D16*
G04 #@! TO.C,C5*
X10759561Y4005246D03*
X12459561Y4005246D03*
G04 #@! TD*
G04 #@! TO.C,C6*
X12445693Y2325142D03*
X10745693Y2325142D03*
G04 #@! TD*
G04 #@! TO.C,C7*
X29934800Y4978400D03*
X31634800Y4978400D03*
G04 #@! TD*
D14*
G04 #@! TO.C,C8*
X32317000Y11684000D03*
X31183000Y11684000D03*
G04 #@! TD*
D16*
G04 #@! TO.C,C9*
X31634800Y3632200D03*
X29934800Y3632200D03*
G04 #@! TD*
D15*
G04 #@! TO.C,C10*
X38036500Y11235000D03*
X38036500Y10101000D03*
G04 #@! TD*
G04 #@! TO.C,C11*
X38036500Y8949000D03*
X38036500Y7815000D03*
G04 #@! TD*
D14*
G04 #@! TO.C,C12*
X37914000Y6413500D03*
X39048000Y6413500D03*
G04 #@! TD*
D17*
G04 #@! TO.C,D1*
X6043000Y4508500D03*
X8943000Y4508500D03*
G04 #@! TD*
D14*
G04 #@! TO.C,D2*
X11879593Y10350500D03*
X13013593Y10350500D03*
G04 #@! TD*
G04 #@! TO.C,D3*
X12962200Y5384800D03*
X11828200Y5384800D03*
G04 #@! TD*
G04 #@! TO.C,D4*
X28634000Y4877842D03*
X27500000Y4877842D03*
G04 #@! TD*
G04 #@! TO.C,D5*
X28888000Y9906000D03*
X27754000Y9906000D03*
G04 #@! TD*
D17*
G04 #@! TO.C,D6*
X36121000Y4445000D03*
X33221000Y4445000D03*
G04 #@! TD*
D18*
G04 #@! TO.C,Q1*
X14561193Y6700042D03*
X15561193Y6700042D03*
X16561193Y6700042D03*
X17561193Y6700042D03*
X18561193Y6700042D03*
X14561193Y6200042D03*
X15561193Y6200042D03*
X16561193Y6200042D03*
X17561193Y6200042D03*
X18561193Y6200042D03*
X15561193Y5700042D03*
X16561193Y5700042D03*
X17561193Y5700042D03*
X18561193Y5700042D03*
X14561193Y5200042D03*
X15561193Y5200042D03*
X16561193Y5200042D03*
X17561193Y5200042D03*
X18561193Y5200042D03*
X14561193Y4700042D03*
X15561193Y4700042D03*
X16561193Y4700042D03*
X17561193Y4700042D03*
X18561193Y4700042D03*
G04 #@! TD*
G04 #@! TO.C,Q2*
X18548493Y8822342D03*
X17548493Y8822342D03*
X16548493Y8822342D03*
X15548493Y8822342D03*
X14548493Y8822342D03*
X18548493Y9322342D03*
X17548493Y9322342D03*
X16548493Y9322342D03*
X15548493Y9322342D03*
X14548493Y9322342D03*
X18548493Y9822342D03*
X17548493Y9822342D03*
X16548493Y9822342D03*
X15548493Y9822342D03*
X18548493Y10322342D03*
X17548493Y10322342D03*
X16548493Y10322342D03*
X15548493Y10322342D03*
X14548493Y10322342D03*
X18548493Y10822342D03*
X17548493Y10822342D03*
X16548493Y10822342D03*
X15548493Y10822342D03*
X14548493Y10822342D03*
G04 #@! TD*
G04 #@! TO.C,Q3*
X22079200Y6763542D03*
X23079200Y6763542D03*
X24079200Y6763542D03*
X25079200Y6763542D03*
X26079200Y6763542D03*
X22079200Y6263542D03*
X23079200Y6263542D03*
X24079200Y6263542D03*
X25079200Y6263542D03*
X26079200Y6263542D03*
X22079200Y5763542D03*
X23079200Y5763542D03*
X24079200Y5763542D03*
X25079200Y5763542D03*
X22079200Y5263542D03*
X23079200Y5263542D03*
X24079200Y5263542D03*
X25079200Y5263542D03*
X26079200Y5263542D03*
X22079200Y4763542D03*
X23079200Y4763542D03*
X24079200Y4763542D03*
X25079200Y4763542D03*
X26079200Y4763542D03*
G04 #@! TD*
G04 #@! TO.C,Q4*
X26067793Y8885842D03*
X25067793Y8885842D03*
X24067793Y8885842D03*
X23067793Y8885842D03*
X22067793Y8885842D03*
X26067793Y9385842D03*
X25067793Y9385842D03*
X24067793Y9385842D03*
X23067793Y9385842D03*
X22067793Y9385842D03*
X25067793Y9885842D03*
X24067793Y9885842D03*
X23067793Y9885842D03*
X22067793Y9885842D03*
X26067793Y10385842D03*
X25067793Y10385842D03*
X24067793Y10385842D03*
X23067793Y10385842D03*
X22067793Y10385842D03*
X26067793Y10885842D03*
X25067793Y10885842D03*
X24067793Y10885842D03*
X23067793Y10885842D03*
X22067793Y10885842D03*
G04 #@! TD*
D15*
G04 #@! TO.C,R1*
X1752600Y14105200D03*
X1752600Y12971200D03*
G04 #@! TD*
G04 #@! TO.C,R2*
X1524000Y5656000D03*
X1524000Y6790000D03*
G04 #@! TD*
G04 #@! TO.C,R3*
X1524000Y7941999D03*
X1524000Y9076001D03*
G04 #@! TD*
D14*
G04 #@! TO.C,R4*
X7477301Y13839843D03*
X6343301Y13839843D03*
G04 #@! TD*
G04 #@! TO.C,R5*
X6356001Y12527872D03*
X7490001Y12527872D03*
G04 #@! TD*
G04 #@! TO.C,R6*
X13025700Y11836400D03*
X11891700Y11836400D03*
G04 #@! TD*
G04 #@! TO.C,R7*
X12962200Y6757442D03*
X11828200Y6757442D03*
G04 #@! TD*
G04 #@! TO.C,R8*
X28634000Y6262142D03*
X27500000Y6262142D03*
G04 #@! TD*
G04 #@! TO.C,R9*
X27817500Y11176000D03*
X28951500Y11176000D03*
G04 #@! TD*
G04 #@! TO.C,R10*
X31183000Y12700000D03*
X32317000Y12700000D03*
G04 #@! TD*
D15*
G04 #@! TO.C,R11*
X30226000Y12769942D03*
X30226000Y11635942D03*
G04 #@! TD*
G04 #@! TO.C,R12*
X39243000Y8949000D03*
X39243000Y7815000D03*
G04 #@! TD*
G04 #@! TO.C,R13*
X39243000Y10101000D03*
X39243000Y11235000D03*
G04 #@! TD*
G04 #@! TO.C,R14*
X38227000Y4132000D03*
X38227000Y5266000D03*
G04 #@! TD*
M02*
