G04 #@! TF.GenerationSoftware,KiCad,Pcbnew,(5.0.0)*
G04 #@! TF.CreationDate,2019-06-02T07:24:35-07:00*
G04 #@! TF.ProjectId,SSB Cap Board C1 - Rev2,5353422043617020426F617264204331,rev?*
G04 #@! TF.SameCoordinates,Original*
G04 #@! TF.FileFunction,Legend,Top*
G04 #@! TF.FilePolarity,Positive*
%FSLAX46Y46*%
G04 Gerber Fmt 4.6, Leading zero omitted, Abs format (unit mm)*
G04 Created by KiCad (PCBNEW (5.0.0)) date 06/02/19 07:24:35*
%MOMM*%
%LPD*%
G01*
G04 APERTURE LIST*
%ADD10C,0.300000*%
%ADD11C,0.150000*%
G04 APERTURE END LIST*
D10*
X-8631142Y46443428D02*
X-8631142Y47943428D01*
X-8059714Y47943428D01*
X-7916857Y47872000D01*
X-7845428Y47800571D01*
X-7774000Y47657714D01*
X-7774000Y47443428D01*
X-7845428Y47300571D01*
X-7916857Y47229142D01*
X-8059714Y47157714D01*
X-8631142Y47157714D01*
X-7131142Y46443428D02*
X-7131142Y47443428D01*
X-7131142Y47943428D02*
X-7202571Y47872000D01*
X-7131142Y47800571D01*
X-7059714Y47872000D01*
X-7131142Y47943428D01*
X-7131142Y47800571D01*
X-6202571Y46443428D02*
X-6345428Y46514857D01*
X-6416857Y46657714D01*
X-6416857Y47943428D01*
X-4988285Y46443428D02*
X-4988285Y47229142D01*
X-5059714Y47372000D01*
X-5202571Y47443428D01*
X-5488285Y47443428D01*
X-5631142Y47372000D01*
X-4988285Y46514857D02*
X-5131142Y46443428D01*
X-5488285Y46443428D01*
X-5631142Y46514857D01*
X-5702571Y46657714D01*
X-5702571Y46800571D01*
X-5631142Y46943428D01*
X-5488285Y47014857D01*
X-5131142Y47014857D01*
X-4988285Y47086285D01*
X-4416857Y47443428D02*
X-4131142Y46443428D01*
X-3845428Y47157714D01*
X-3559714Y46443428D01*
X-3274000Y47443428D01*
X-2059714Y46443428D02*
X-2059714Y47229142D01*
X-2131142Y47372000D01*
X-2274000Y47443428D01*
X-2559714Y47443428D01*
X-2702571Y47372000D01*
X-2059714Y46514857D02*
X-2202571Y46443428D01*
X-2559714Y46443428D01*
X-2702571Y46514857D01*
X-2774000Y46657714D01*
X-2774000Y46800571D01*
X-2702571Y46943428D01*
X-2559714Y47014857D01*
X-2202571Y47014857D01*
X-2059714Y47086285D01*
X583142Y47872000D02*
X440285Y47943428D01*
X225999Y47943428D01*
X11714Y47872000D01*
X-131142Y47729142D01*
X-202571Y47586285D01*
X-274000Y47300571D01*
X-274000Y47086285D01*
X-202571Y46800571D01*
X-131142Y46657714D01*
X11714Y46514857D01*
X225999Y46443428D01*
X368857Y46443428D01*
X583142Y46514857D01*
X654571Y46586285D01*
X654571Y47086285D01*
X368857Y47086285D01*
X1297428Y46443428D02*
X1297428Y47443428D01*
X1297428Y47157714D02*
X1368857Y47300571D01*
X1440285Y47372000D01*
X1583142Y47443428D01*
X1725999Y47443428D01*
X2440285Y46443428D02*
X2297428Y46514857D01*
X2225999Y46586285D01*
X2154571Y46729142D01*
X2154571Y47157714D01*
X2225999Y47300571D01*
X2297428Y47372000D01*
X2440285Y47443428D01*
X2654571Y47443428D01*
X2797428Y47372000D01*
X2868857Y47300571D01*
X2940285Y47157714D01*
X2940285Y46729142D01*
X2868857Y46586285D01*
X2797428Y46514857D01*
X2654571Y46443428D01*
X2440285Y46443428D01*
X4225999Y47443428D02*
X4225999Y46443428D01*
X3583142Y47443428D02*
X3583142Y46657714D01*
X3654571Y46514857D01*
X3797428Y46443428D01*
X4011714Y46443428D01*
X4154571Y46514857D01*
X4225999Y46586285D01*
X4940285Y47443428D02*
X4940285Y45943428D01*
X4940285Y47372000D02*
X5083142Y47443428D01*
X5368857Y47443428D01*
X5511714Y47372000D01*
X5583142Y47300571D01*
X5654571Y47157714D01*
X5654571Y46729142D01*
X5583142Y46586285D01*
X5511714Y46514857D01*
X5368857Y46443428D01*
X5083142Y46443428D01*
X4940285Y46514857D01*
X-12952571Y44036285D02*
X-13024000Y43964857D01*
X-13238285Y43893428D01*
X-13381142Y43893428D01*
X-13595428Y43964857D01*
X-13738285Y44107714D01*
X-13809714Y44250571D01*
X-13881142Y44536285D01*
X-13881142Y44750571D01*
X-13809714Y45036285D01*
X-13738285Y45179142D01*
X-13595428Y45322000D01*
X-13381142Y45393428D01*
X-13238285Y45393428D01*
X-13024000Y45322000D01*
X-12952571Y45250571D01*
X-11524000Y43893428D02*
X-12381142Y43893428D01*
X-11952571Y43893428D02*
X-11952571Y45393428D01*
X-12095428Y45179142D01*
X-12238285Y45036285D01*
X-12381142Y44964857D01*
X-8881142Y44036285D02*
X-8952571Y43964857D01*
X-9166857Y43893428D01*
X-9309714Y43893428D01*
X-9524000Y43964857D01*
X-9666857Y44107714D01*
X-9738285Y44250571D01*
X-9809714Y44536285D01*
X-9809714Y44750571D01*
X-9738285Y45036285D01*
X-9666857Y45179142D01*
X-9524000Y45322000D01*
X-9309714Y45393428D01*
X-9166857Y45393428D01*
X-8952571Y45322000D01*
X-8881142Y45250571D01*
X-7595428Y43893428D02*
X-7595428Y44679142D01*
X-7666857Y44822000D01*
X-7809714Y44893428D01*
X-8095428Y44893428D01*
X-8238285Y44822000D01*
X-7595428Y43964857D02*
X-7738285Y43893428D01*
X-8095428Y43893428D01*
X-8238285Y43964857D01*
X-8309714Y44107714D01*
X-8309714Y44250571D01*
X-8238285Y44393428D01*
X-8095428Y44464857D01*
X-7738285Y44464857D01*
X-7595428Y44536285D01*
X-6881142Y44893428D02*
X-6881142Y43393428D01*
X-6881142Y44822000D02*
X-6738285Y44893428D01*
X-6452571Y44893428D01*
X-6309714Y44822000D01*
X-6238285Y44750571D01*
X-6166857Y44607714D01*
X-6166857Y44179142D01*
X-6238285Y44036285D01*
X-6309714Y43964857D01*
X-6452571Y43893428D01*
X-6738285Y43893428D01*
X-6881142Y43964857D01*
X-3881142Y44679142D02*
X-3666857Y44607714D01*
X-3595428Y44536285D01*
X-3524000Y44393428D01*
X-3524000Y44179142D01*
X-3595428Y44036285D01*
X-3666857Y43964857D01*
X-3809714Y43893428D01*
X-4381142Y43893428D01*
X-4381142Y45393428D01*
X-3881142Y45393428D01*
X-3738285Y45322000D01*
X-3666857Y45250571D01*
X-3595428Y45107714D01*
X-3595428Y44964857D01*
X-3666857Y44822000D01*
X-3738285Y44750571D01*
X-3881142Y44679142D01*
X-4381142Y44679142D01*
X-2666857Y43893428D02*
X-2809714Y43964857D01*
X-2881142Y44036285D01*
X-2952571Y44179142D01*
X-2952571Y44607714D01*
X-2881142Y44750571D01*
X-2809714Y44822000D01*
X-2666857Y44893428D01*
X-2452571Y44893428D01*
X-2309714Y44822000D01*
X-2238285Y44750571D01*
X-2166857Y44607714D01*
X-2166857Y44179142D01*
X-2238285Y44036285D01*
X-2309714Y43964857D01*
X-2452571Y43893428D01*
X-2666857Y43893428D01*
X-881142Y43893428D02*
X-881142Y44679142D01*
X-952571Y44822000D01*
X-1095428Y44893428D01*
X-1381142Y44893428D01*
X-1524000Y44822000D01*
X-881142Y43964857D02*
X-1024000Y43893428D01*
X-1381142Y43893428D01*
X-1524000Y43964857D01*
X-1595428Y44107714D01*
X-1595428Y44250571D01*
X-1524000Y44393428D01*
X-1381142Y44464857D01*
X-1024000Y44464857D01*
X-881142Y44536285D01*
X-166857Y43893428D02*
X-166857Y44893428D01*
X-166857Y44607714D02*
X-95428Y44750571D01*
X-24000Y44822000D01*
X118857Y44893428D01*
X261714Y44893428D01*
X1404571Y43893428D02*
X1404571Y45393428D01*
X1404571Y43964857D02*
X1261714Y43893428D01*
X975999Y43893428D01*
X833142Y43964857D01*
X761714Y44036285D01*
X690285Y44179142D01*
X690285Y44607714D01*
X761714Y44750571D01*
X833142Y44822000D01*
X975999Y44893428D01*
X1261714Y44893428D01*
X1404571Y44822000D01*
X4118857Y43893428D02*
X3618857Y44607714D01*
X3261714Y43893428D02*
X3261714Y45393428D01*
X3833142Y45393428D01*
X3975999Y45322000D01*
X4047428Y45250571D01*
X4118857Y45107714D01*
X4118857Y44893428D01*
X4047428Y44750571D01*
X3975999Y44679142D01*
X3833142Y44607714D01*
X3261714Y44607714D01*
X5333142Y43964857D02*
X5190285Y43893428D01*
X4904571Y43893428D01*
X4761714Y43964857D01*
X4690285Y44107714D01*
X4690285Y44679142D01*
X4761714Y44822000D01*
X4904571Y44893428D01*
X5190285Y44893428D01*
X5333142Y44822000D01*
X5404571Y44679142D01*
X5404571Y44536285D01*
X4690285Y44393428D01*
X5904571Y44893428D02*
X6261714Y43893428D01*
X6618857Y44893428D01*
X7190285Y44036285D02*
X7261714Y43964857D01*
X7190285Y43893428D01*
X7118857Y43964857D01*
X7190285Y44036285D01*
X7190285Y43893428D01*
X8975999Y44322000D02*
X9690285Y44322000D01*
X8833142Y43893428D02*
X9333142Y45393428D01*
X9833142Y43893428D01*
D11*
G04 #@! TO.C,C425*
X60995000Y78495000D02*
X55295000Y78495000D01*
X60995000Y83495000D02*
X55295000Y83495000D01*
G04 #@! TO.C,C430*
X60995000Y72295000D02*
X55295000Y72295000D01*
X60995000Y67295000D02*
X55295000Y67295000D01*
G04 #@! TO.C,C431*
X60995000Y100895000D02*
X55295000Y100895000D01*
X60995000Y105895000D02*
X55295000Y105895000D01*
G04 #@! TO.C,C434*
X60995000Y66695000D02*
X55295000Y66695000D01*
X60995000Y61695000D02*
X55295000Y61695000D01*
G04 #@! TO.C,C435*
X60995000Y95295000D02*
X55295000Y95295000D01*
X60995000Y100295000D02*
X55295000Y100295000D01*
G04 #@! TO.C,C406*
X60995000Y56095000D02*
X55295000Y56095000D01*
X60995000Y61095000D02*
X55295000Y61095000D01*
G04 #@! TO.C,C407*
X60995000Y94695000D02*
X55295000Y94695000D01*
X60995000Y89695000D02*
X55295000Y89695000D01*
G04 #@! TO.C,C408*
X60995000Y50495000D02*
X55295000Y50495000D01*
X60995000Y55495000D02*
X55295000Y55495000D01*
G04 #@! TO.C,C409*
X60995000Y89095000D02*
X55295000Y89095000D01*
X60995000Y84095000D02*
X55295000Y84095000D01*
G04 #@! TO.C,C422*
X60995000Y72895000D02*
X55295000Y72895000D01*
X60995000Y77895000D02*
X55295000Y77895000D01*
G04 #@! TO.C,C343*
X-24095000Y77905000D02*
X-18395000Y77905000D01*
X-24095000Y72905000D02*
X-18395000Y72905000D01*
G04 #@! TO.C,C340*
X46595000Y72295000D02*
X40895000Y72295000D01*
X46595000Y67295000D02*
X40895000Y67295000D01*
G04 #@! TO.C,C333*
X4805000Y100905000D02*
X10505000Y100905000D01*
X4805000Y105905000D02*
X10505000Y105905000D01*
G04 #@! TO.C,C332*
X46595000Y66695000D02*
X40895000Y66695000D01*
X46595000Y61695000D02*
X40895000Y61695000D01*
G04 #@! TO.C,C1*
X-40005000Y50495000D02*
X-45705000Y50495000D01*
X-40005000Y55495000D02*
X-45705000Y55495000D01*
G04 #@! TO.C,C363*
X48105000Y105905000D02*
X53805000Y105905000D01*
X48105000Y100905000D02*
X53805000Y100905000D01*
G04 #@! TO.C,C275*
X46595000Y77895000D02*
X40895000Y77895000D01*
X46595000Y72895000D02*
X40895000Y72895000D01*
G04 #@! TO.C,C273*
X19305000Y55505000D02*
X25005000Y55505000D01*
X19305000Y50505000D02*
X25005000Y50505000D01*
G04 #@! TO.C,C313*
X46595000Y89095000D02*
X40895000Y89095000D01*
X46595000Y84095000D02*
X40895000Y84095000D01*
G04 #@! TO.C,C264*
X48105000Y94705000D02*
X53805000Y94705000D01*
X48105000Y89705000D02*
X53805000Y89705000D01*
G04 #@! TO.C,C262*
X19305000Y83505000D02*
X25005000Y83505000D01*
X19305000Y78505000D02*
X25005000Y78505000D01*
G04 #@! TO.C,C261*
X48105000Y77905000D02*
X53805000Y77905000D01*
X48105000Y72905000D02*
X53805000Y72905000D01*
G04 #@! TO.C,C260*
X32195000Y100895000D02*
X26495000Y100895000D01*
X32195000Y105895000D02*
X26495000Y105895000D01*
G04 #@! TO.C,C259*
X32195000Y56095000D02*
X26495000Y56095000D01*
X32195000Y61095000D02*
X26495000Y61095000D01*
G04 #@! TO.C,C258*
X-11205000Y56095000D02*
X-16905000Y56095000D01*
X-11205000Y61095000D02*
X-16905000Y61095000D01*
G04 #@! TO.C,C257*
X46595000Y56095000D02*
X40895000Y56095000D01*
X46595000Y61095000D02*
X40895000Y61095000D01*
G04 #@! TO.C,C314*
X19305000Y89105000D02*
X25005000Y89105000D01*
X19305000Y84105000D02*
X25005000Y84105000D01*
G04 #@! TO.C,C265*
X32195000Y95295000D02*
X26495000Y95295000D01*
X32195000Y100295000D02*
X26495000Y100295000D01*
G04 #@! TO.C,C311*
X32195000Y50495000D02*
X26495000Y50495000D01*
X32195000Y55495000D02*
X26495000Y55495000D01*
G04 #@! TO.C,C310*
X-11205000Y50495000D02*
X-16905000Y50495000D01*
X-11205000Y55495000D02*
X-16905000Y55495000D01*
G04 #@! TO.C,C309*
X46595000Y50495000D02*
X40895000Y50495000D01*
X46595000Y55495000D02*
X40895000Y55495000D01*
G04 #@! TO.C,C308*
X-54405000Y84095000D02*
X-60105000Y84095000D01*
X-54405000Y89095000D02*
X-60105000Y89095000D01*
G04 #@! TO.C,C304*
X19305000Y94705000D02*
X25005000Y94705000D01*
X19305000Y89705000D02*
X25005000Y89705000D01*
G04 #@! TO.C,C302*
X32195000Y89695000D02*
X26495000Y89695000D01*
X32195000Y94695000D02*
X26495000Y94695000D01*
G04 #@! TO.C,C300*
X48105000Y55505000D02*
X53805000Y55505000D01*
X48105000Y50505000D02*
X53805000Y50505000D01*
G04 #@! TO.C,C283*
X32195000Y84095000D02*
X26495000Y84095000D01*
X32195000Y89095000D02*
X26495000Y89095000D01*
G04 #@! TO.C,C282*
X-54405000Y78495000D02*
X-60105000Y78495000D01*
X-54405000Y83495000D02*
X-60105000Y83495000D01*
G04 #@! TO.C,C295*
X19305000Y100305000D02*
X25005000Y100305000D01*
X19305000Y95305000D02*
X25005000Y95305000D01*
G04 #@! TO.C,C294*
X19305000Y61105000D02*
X25005000Y61105000D01*
X19305000Y56105000D02*
X25005000Y56105000D01*
G04 #@! TO.C,C292*
X33705000Y77905000D02*
X39405000Y77905000D01*
X33705000Y72905000D02*
X39405000Y72905000D01*
G04 #@! TO.C,C291*
X-24095000Y105905000D02*
X-18395000Y105905000D01*
X-24095000Y100905000D02*
X-18395000Y100905000D01*
G04 #@! TO.C,C289*
X-54405000Y72895000D02*
X-60105000Y72895000D01*
X-54405000Y77895000D02*
X-60105000Y77895000D01*
G04 #@! TO.C,C287*
X19305000Y105905000D02*
X25005000Y105905000D01*
X19305000Y100905000D02*
X25005000Y100905000D01*
G04 #@! TO.C,C286*
X19305000Y66705000D02*
X25005000Y66705000D01*
X19305000Y61705000D02*
X25005000Y61705000D01*
G04 #@! TO.C,C285*
X48105000Y66705000D02*
X53805000Y66705000D01*
X48105000Y61705000D02*
X53805000Y61705000D01*
G04 #@! TO.C,C284*
X33705000Y83505000D02*
X39405000Y83505000D01*
X33705000Y78505000D02*
X39405000Y78505000D01*
G04 #@! TO.C,C299*
X48105000Y100305000D02*
X53805000Y100305000D01*
X48105000Y95305000D02*
X53805000Y95305000D01*
G04 #@! TO.C,C298*
X33705000Y89105000D02*
X39405000Y89105000D01*
X33705000Y84105000D02*
X39405000Y84105000D01*
G04 #@! TO.C,C377*
X19305000Y72305000D02*
X25005000Y72305000D01*
X19305000Y67305000D02*
X25005000Y67305000D01*
G04 #@! TO.C,C390*
X33705000Y94705000D02*
X39405000Y94705000D01*
X33705000Y89705000D02*
X39405000Y89705000D01*
G04 #@! TO.C,C388*
X-9695000Y89105000D02*
X-3995000Y89105000D01*
X-9695000Y84105000D02*
X-3995000Y84105000D01*
G04 #@! TO.C,C385*
X33705000Y100305000D02*
X39405000Y100305000D01*
X33705000Y95305000D02*
X39405000Y95305000D01*
G04 #@! TO.C,C384*
X46595000Y100895000D02*
X40895000Y100895000D01*
X46595000Y105895000D02*
X40895000Y105895000D01*
G04 #@! TO.C,C383*
X-9695000Y94705000D02*
X-3995000Y94705000D01*
X-9695000Y89705000D02*
X-3995000Y89705000D01*
G04 #@! TO.C,C381*
X33705000Y105905000D02*
X39405000Y105905000D01*
X33705000Y100905000D02*
X39405000Y100905000D01*
G04 #@! TO.C,C380*
X46595000Y95295000D02*
X40895000Y95295000D01*
X46595000Y100295000D02*
X40895000Y100295000D01*
G04 #@! TO.C,C379*
X-9695000Y100305000D02*
X-3995000Y100305000D01*
X-9695000Y95305000D02*
X-3995000Y95305000D01*
G04 #@! TO.C,C93*
X-25605000Y56095000D02*
X-31305000Y56095000D01*
X-25605000Y61095000D02*
X-31305000Y61095000D01*
G04 #@! TO.C,C92*
X-38395000Y94705000D02*
X-32695000Y94705000D01*
X-38395000Y89705000D02*
X-32695000Y89705000D01*
G04 #@! TO.C,C90*
X-52895000Y105905000D02*
X-47195000Y105905000D01*
X-52895000Y100905000D02*
X-47195000Y100905000D01*
G04 #@! TO.C,C88*
X-11205000Y89695000D02*
X-16905000Y89695000D01*
X-11205000Y94695000D02*
X-16905000Y94695000D01*
G04 #@! TO.C,C87*
X-9695000Y61105000D02*
X-3995000Y61105000D01*
X-9695000Y56105000D02*
X-3995000Y56105000D01*
G04 #@! TO.C,C86*
X3295000Y78495000D02*
X-2405000Y78495000D01*
X3295000Y83495000D02*
X-2405000Y83495000D01*
G04 #@! TO.C,C85*
X4805000Y72305000D02*
X10505000Y72305000D01*
X4805000Y67305000D02*
X10505000Y67305000D01*
G04 #@! TO.C,C84*
X17795000Y67295000D02*
X12095000Y67295000D01*
X17795000Y72295000D02*
X12095000Y72295000D01*
G04 #@! TO.C,C83*
X-25605000Y61695000D02*
X-31305000Y61695000D01*
X-25605000Y66695000D02*
X-31305000Y66695000D01*
G04 #@! TO.C,C82*
X-38395000Y89105000D02*
X-32695000Y89105000D01*
X-38395000Y84105000D02*
X-32695000Y84105000D01*
G04 #@! TO.C,C81*
X-38395000Y83505000D02*
X-32695000Y83505000D01*
X-38395000Y78505000D02*
X-32695000Y78505000D01*
G04 #@! TO.C,C80*
X17795000Y61695000D02*
X12095000Y61695000D01*
X17795000Y66695000D02*
X12095000Y66695000D01*
G04 #@! TO.C,C251*
X32195000Y78495000D02*
X26495000Y78495000D01*
X32195000Y83495000D02*
X26495000Y83495000D01*
G04 #@! TO.C,C78*
X-25605000Y67295000D02*
X-31305000Y67295000D01*
X-25605000Y72295000D02*
X-31305000Y72295000D01*
G04 #@! TO.C,C77*
X17795000Y72895000D02*
X12095000Y72895000D01*
X17795000Y77895000D02*
X12095000Y77895000D01*
G04 #@! TO.C,C76*
X4805000Y66705000D02*
X10505000Y66705000D01*
X4805000Y61705000D02*
X10505000Y61705000D01*
G04 #@! TO.C,C75*
X-40005000Y56095000D02*
X-45705000Y56095000D01*
X-40005000Y61095000D02*
X-45705000Y61095000D01*
G04 #@! TO.C,C74*
X3295000Y84095000D02*
X-2405000Y84095000D01*
X3295000Y89095000D02*
X-2405000Y89095000D01*
G04 #@! TO.C,C73*
X-9695000Y55505000D02*
X-3995000Y55505000D01*
X-9695000Y50505000D02*
X-3995000Y50505000D01*
G04 #@! TO.C,C72*
X-11205000Y95295000D02*
X-16905000Y95295000D01*
X-11205000Y100295000D02*
X-16905000Y100295000D01*
G04 #@! TO.C,C71*
X33705000Y72305000D02*
X39405000Y72305000D01*
X33705000Y67305000D02*
X39405000Y67305000D01*
G04 #@! TO.C,C70*
X-52895000Y100305000D02*
X-47195000Y100305000D01*
X-52895000Y95305000D02*
X-47195000Y95305000D01*
G04 #@! TO.C,C119*
X-54405000Y100895000D02*
X-60105000Y100895000D01*
X-54405000Y105895000D02*
X-60105000Y105895000D01*
G04 #@! TO.C,C113*
X46595000Y94695000D02*
X40895000Y94695000D01*
X46595000Y89695000D02*
X40895000Y89695000D01*
G04 #@! TO.C,C108*
X48105000Y61105000D02*
X53805000Y61105000D01*
X48105000Y56105000D02*
X53805000Y56105000D01*
G04 #@! TO.C,C106*
X-40005000Y100895000D02*
X-45705000Y100895000D01*
X-40005000Y105895000D02*
X-45705000Y105895000D01*
G04 #@! TO.C,C105*
X-54405000Y89695000D02*
X-60105000Y89695000D01*
X-54405000Y94695000D02*
X-60105000Y94695000D01*
G04 #@! TO.C,C96*
X-40005000Y95295000D02*
X-45705000Y95295000D01*
X-40005000Y100295000D02*
X-45705000Y100295000D01*
G04 #@! TO.C,C62*
X-40005000Y89695000D02*
X-45705000Y89695000D01*
X-40005000Y94695000D02*
X-45705000Y94695000D01*
G04 #@! TO.C,C3*
X17795000Y100895000D02*
X12095000Y100895000D01*
X17795000Y105895000D02*
X12095000Y105895000D01*
G04 #@! TO.C,C4*
X-25605000Y100895000D02*
X-31305000Y100895000D01*
X-25605000Y105895000D02*
X-31305000Y105895000D01*
G04 #@! TO.C,C12*
X-40005000Y84095000D02*
X-45705000Y84095000D01*
X-40005000Y89095000D02*
X-45705000Y89095000D01*
G04 #@! TO.C,C13*
X-38495000Y55505000D02*
X-32795000Y55505000D01*
X-38495000Y50505000D02*
X-32795000Y50505000D01*
G04 #@! TO.C,C14*
X-25605000Y95295000D02*
X-31305000Y95295000D01*
X-25605000Y100295000D02*
X-31305000Y100295000D01*
G04 #@! TO.C,C15*
X-52895000Y77905000D02*
X-47195000Y77905000D01*
X-52895000Y72905000D02*
X-47195000Y72905000D01*
G04 #@! TO.C,C31*
X-40005000Y78495000D02*
X-45705000Y78495000D01*
X-40005000Y83495000D02*
X-45705000Y83495000D01*
G04 #@! TO.C,C61*
X-38495000Y61105000D02*
X-32795000Y61105000D01*
X-38495000Y56105000D02*
X-32795000Y56105000D01*
G04 #@! TO.C,C60*
X-25605000Y89695000D02*
X-31305000Y89695000D01*
X-25605000Y94695000D02*
X-31305000Y94695000D01*
G04 #@! TO.C,C59*
X17795000Y95295000D02*
X12095000Y95295000D01*
X17795000Y100295000D02*
X12095000Y100295000D01*
G04 #@! TO.C,C51*
X-40005000Y72895000D02*
X-45705000Y72895000D01*
X-40005000Y77895000D02*
X-45705000Y77895000D01*
G04 #@! TO.C,C50*
X-38495000Y66705000D02*
X-32795000Y66705000D01*
X-38495000Y61705000D02*
X-32795000Y61705000D01*
G04 #@! TO.C,C49*
X-25605000Y84095000D02*
X-31305000Y84095000D01*
X-25605000Y89095000D02*
X-31305000Y89095000D01*
G04 #@! TO.C,C63*
X17795000Y89695000D02*
X12095000Y89695000D01*
X17795000Y94695000D02*
X12095000Y94695000D01*
G04 #@! TO.C,C45*
X3295000Y100895000D02*
X-2405000Y100895000D01*
X3295000Y105895000D02*
X-2405000Y105895000D01*
G04 #@! TO.C,C44*
X48105000Y89105000D02*
X53805000Y89105000D01*
X48105000Y84105000D02*
X53805000Y84105000D01*
G04 #@! TO.C,C40*
X-11205000Y100895000D02*
X-16905000Y100895000D01*
X-11205000Y105895000D02*
X-16905000Y105895000D01*
G04 #@! TO.C,C39*
X33705000Y66705000D02*
X39405000Y66705000D01*
X33705000Y61705000D02*
X39405000Y61705000D01*
G04 #@! TO.C,C38*
X-9695000Y72305000D02*
X-3995000Y72305000D01*
X-9695000Y67305000D02*
X-3995000Y67305000D01*
G04 #@! TO.C,C37*
X3295000Y56095000D02*
X-2405000Y56095000D01*
X3295000Y61095000D02*
X-2405000Y61095000D01*
G04 #@! TO.C,C36*
X-9695000Y83505000D02*
X-3995000Y83505000D01*
X-9695000Y78505000D02*
X-3995000Y78505000D01*
G04 #@! TO.C,C35*
X-11205000Y67295000D02*
X-16905000Y67295000D01*
X-11205000Y72295000D02*
X-16905000Y72295000D01*
G04 #@! TO.C,C34*
X-24095000Y72305000D02*
X-18395000Y72305000D01*
X-24095000Y67305000D02*
X-18395000Y67305000D01*
G04 #@! TO.C,C94*
X48105000Y83505000D02*
X53805000Y83505000D01*
X48105000Y78505000D02*
X53805000Y78505000D01*
G04 #@! TO.C,C32*
X4805000Y100305000D02*
X10505000Y100305000D01*
X4805000Y95305000D02*
X10505000Y95305000D01*
G04 #@! TO.C,C33*
X3295000Y50495000D02*
X-2405000Y50495000D01*
X3295000Y55495000D02*
X-2405000Y55495000D01*
G04 #@! TO.C,C46*
X-24095000Y89105000D02*
X-18395000Y89105000D01*
X-24095000Y84105000D02*
X-18395000Y84105000D01*
G04 #@! TO.C,C215*
X48105000Y72305000D02*
X53805000Y72305000D01*
X48105000Y67305000D02*
X53805000Y67305000D01*
G04 #@! TO.C,C213*
X32195000Y67295000D02*
X26495000Y67295000D01*
X32195000Y72295000D02*
X26495000Y72295000D01*
G04 #@! TO.C,C212*
X32195000Y61695000D02*
X26495000Y61695000D01*
X32195000Y66695000D02*
X26495000Y66695000D01*
G04 #@! TO.C,C209*
X19305000Y77905000D02*
X25005000Y77905000D01*
X19305000Y72905000D02*
X25005000Y72905000D01*
G04 #@! TO.C,C125*
X-11205000Y61695000D02*
X-16905000Y61695000D01*
X-11205000Y66695000D02*
X-16905000Y66695000D01*
G04 #@! TO.C,C203*
X32195000Y72895000D02*
X26495000Y72895000D01*
X32195000Y77895000D02*
X26495000Y77895000D01*
G04 #@! TO.C,C201*
X-24095000Y83505000D02*
X-18395000Y83505000D01*
X-24095000Y78505000D02*
X-18395000Y78505000D01*
G04 #@! TO.C,C190*
X33705000Y55505000D02*
X39405000Y55505000D01*
X33705000Y50505000D02*
X39405000Y50505000D01*
G04 #@! TO.C,C126*
X-52895000Y83505000D02*
X-47195000Y83505000D01*
X-52895000Y78505000D02*
X-47195000Y78505000D01*
G04 #@! TO.C,C243*
X46595000Y83495000D02*
X40895000Y83495000D01*
X46595000Y78495000D02*
X40895000Y78495000D01*
G04 #@! TO.C,C48*
X-40005000Y67295000D02*
X-45705000Y67295000D01*
X-40005000Y72295000D02*
X-45705000Y72295000D01*
G04 #@! TO.C,C155*
X-25605000Y78495000D02*
X-31305000Y78495000D01*
X-25605000Y83495000D02*
X-31305000Y83495000D01*
G04 #@! TO.C,C154*
X17795000Y84095000D02*
X12095000Y84095000D01*
X17795000Y89095000D02*
X12095000Y89095000D01*
G04 #@! TO.C,C153*
X4805000Y55505000D02*
X10505000Y55505000D01*
X4805000Y50505000D02*
X10505000Y50505000D01*
G04 #@! TO.C,C152*
X3295000Y95295000D02*
X-2405000Y95295000D01*
X3295000Y100295000D02*
X-2405000Y100295000D01*
G04 #@! TO.C,C149*
X-52895000Y94705000D02*
X-47195000Y94705000D01*
X-52895000Y89705000D02*
X-47195000Y89705000D01*
G04 #@! TO.C,C148*
X33705000Y61105000D02*
X39405000Y61105000D01*
X33705000Y56105000D02*
X39405000Y56105000D01*
G04 #@! TO.C,C147*
X-52895000Y89105000D02*
X-47195000Y89105000D01*
X-52895000Y84105000D02*
X-47195000Y84105000D01*
G04 #@! TO.C,C146*
X-40005000Y61695000D02*
X-45705000Y61695000D01*
X-40005000Y66695000D02*
X-45705000Y66695000D01*
G04 #@! TO.C,C145*
X-38395000Y77905000D02*
X-32695000Y77905000D01*
X-38395000Y72905000D02*
X-32695000Y72905000D01*
G04 #@! TO.C,C144*
X-25605000Y72895000D02*
X-31305000Y72895000D01*
X-25605000Y77895000D02*
X-31305000Y77895000D01*
G04 #@! TO.C,C143*
X17795000Y78495000D02*
X12095000Y78495000D01*
X17795000Y83495000D02*
X12095000Y83495000D01*
G04 #@! TO.C,C142*
X4805000Y61105000D02*
X10505000Y61105000D01*
X4805000Y56105000D02*
X10505000Y56105000D01*
G04 #@! TO.C,C188*
X3295000Y89695000D02*
X-2405000Y89695000D01*
X3295000Y94695000D02*
X-2405000Y94695000D01*
G04 #@! TO.C,C139*
X-24095000Y55505000D02*
X-18395000Y55505000D01*
X-24095000Y50505000D02*
X-18395000Y50505000D01*
G04 #@! TO.C,C138*
X17795000Y50495000D02*
X12095000Y50495000D01*
X17795000Y55495000D02*
X12095000Y55495000D01*
G04 #@! TO.C,C137*
X4805000Y89105000D02*
X10505000Y89105000D01*
X4805000Y84105000D02*
X10505000Y84105000D01*
G04 #@! TO.C,C136*
X3295000Y61695000D02*
X-2405000Y61695000D01*
X3295000Y66695000D02*
X-2405000Y66695000D01*
G04 #@! TO.C,C135*
X-9695000Y77905000D02*
X-3995000Y77905000D01*
X-9695000Y72905000D02*
X-3995000Y72905000D01*
G04 #@! TO.C,C134*
X-11205000Y72895000D02*
X-16905000Y72895000D01*
X-11205000Y77895000D02*
X-16905000Y77895000D01*
G04 #@! TO.C,C133*
X-24095000Y66705000D02*
X-18395000Y66705000D01*
X-24095000Y61705000D02*
X-18395000Y61705000D01*
G04 #@! TO.C,C189*
X-54405000Y95295000D02*
X-60105000Y95295000D01*
X-54405000Y100295000D02*
X-60105000Y100295000D01*
G04 #@! TO.C,C179*
X-9695000Y105905000D02*
X-3995000Y105905000D01*
X-9695000Y100905000D02*
X-3995000Y100905000D01*
G04 #@! TO.C,C177*
X-24095000Y94705000D02*
X-18395000Y94705000D01*
X-24095000Y89705000D02*
X-18395000Y89705000D01*
G04 #@! TO.C,C175*
X-24095000Y100305000D02*
X-18395000Y100305000D01*
X-24095000Y95305000D02*
X-18395000Y95305000D01*
G04 #@! TO.C,C156*
X4805000Y77905000D02*
X10505000Y77905000D01*
X4805000Y72905000D02*
X10505000Y72905000D01*
G04 #@! TO.C,C171*
X3295000Y72895000D02*
X-2405000Y72895000D01*
X3295000Y77895000D02*
X-2405000Y77895000D01*
G04 #@! TO.C,C170*
X-9695000Y66705000D02*
X-3995000Y66705000D01*
X-9695000Y61705000D02*
X-3995000Y61705000D01*
G04 #@! TO.C,C169*
X-11205000Y84095000D02*
X-16905000Y84095000D01*
X-11205000Y89095000D02*
X-16905000Y89095000D01*
G04 #@! TO.C,C166*
X-38395000Y100305000D02*
X-32695000Y100305000D01*
X-38395000Y95305000D02*
X-32695000Y95305000D01*
G04 #@! TO.C,C165*
X-25605000Y50495000D02*
X-31305000Y50495000D01*
X-25605000Y55495000D02*
X-31305000Y55495000D01*
G04 #@! TO.C,C164*
X17795000Y56095000D02*
X12095000Y56095000D01*
X17795000Y61095000D02*
X12095000Y61095000D01*
G04 #@! TO.C,C163*
X4805000Y83505000D02*
X10505000Y83505000D01*
X4805000Y78505000D02*
X10505000Y78505000D01*
G04 #@! TO.C,C162*
X3295000Y67295000D02*
X-2405000Y67295000D01*
X3295000Y72295000D02*
X-2405000Y72295000D01*
G04 #@! TO.C,C161*
X4805000Y94705000D02*
X10505000Y94705000D01*
X4805000Y89705000D02*
X10505000Y89705000D01*
G04 #@! TO.C,C160*
X-11205000Y78495000D02*
X-16905000Y78495000D01*
X-11205000Y83495000D02*
X-16905000Y83495000D01*
G04 #@! TO.C,C174*
X-24095000Y61105000D02*
X-18395000Y61105000D01*
X-24095000Y56105000D02*
X-18395000Y56105000D01*
G04 #@! TO.C,C172*
X-38395000Y105905000D02*
X-32695000Y105905000D01*
X-38395000Y100905000D02*
X-32695000Y100905000D01*
G04 #@! TO.C,C158*
X-38495000Y72305000D02*
X-32795000Y72305000D01*
X-38495000Y67305000D02*
X-32795000Y67305000D01*
G04 #@! TD*
M02*
