G04 #@! TF.GenerationSoftware,KiCad,Pcbnew,(5.0.0)*
G04 #@! TF.CreationDate,2019-06-02T07:24:35-07:00*
G04 #@! TF.ProjectId,SSB Cap Board C1 - Rev2,5353422043617020426F617264204331,rev?*
G04 #@! TF.SameCoordinates,Original*
G04 #@! TF.FileFunction,Soldermask,Top*
G04 #@! TF.FilePolarity,Negative*
%FSLAX46Y46*%
G04 Gerber Fmt 4.6, Leading zero omitted, Abs format (unit mm)*
G04 Created by KiCad (PCBNEW (5.0.0)) date 06/02/19 07:24:35*
%MOMM*%
%LPD*%
G01*
G04 APERTURE LIST*
%ADD10R,1.650000X5.400000*%
%ADD11C,6.800000*%
%ADD12C,1.200000*%
%ADD13C,2.540000*%
G04 APERTURE END LIST*
D10*
G04 #@! TO.C,C425*
X60995000Y80995000D03*
X55295000Y80995000D03*
G04 #@! TD*
G04 #@! TO.C,C430*
X55295000Y69795000D03*
X60995000Y69795000D03*
G04 #@! TD*
G04 #@! TO.C,C431*
X60995000Y103395000D03*
X55295000Y103395000D03*
G04 #@! TD*
G04 #@! TO.C,C434*
X55295000Y64195000D03*
X60995000Y64195000D03*
G04 #@! TD*
G04 #@! TO.C,C435*
X60995000Y97795000D03*
X55295000Y97795000D03*
G04 #@! TD*
G04 #@! TO.C,C406*
X60995000Y58595000D03*
X55295000Y58595000D03*
G04 #@! TD*
G04 #@! TO.C,C407*
X55295000Y92195000D03*
X60995000Y92195000D03*
G04 #@! TD*
G04 #@! TO.C,C408*
X60995000Y52995000D03*
X55295000Y52995000D03*
G04 #@! TD*
G04 #@! TO.C,C409*
X55295000Y86595000D03*
X60995000Y86595000D03*
G04 #@! TD*
G04 #@! TO.C,C422*
X60995000Y75395000D03*
X55295000Y75395000D03*
G04 #@! TD*
G04 #@! TO.C,C343*
X-24095000Y75405000D03*
X-18395000Y75405000D03*
G04 #@! TD*
G04 #@! TO.C,C340*
X40895000Y69795000D03*
X46595000Y69795000D03*
G04 #@! TD*
G04 #@! TO.C,C333*
X10505000Y103405000D03*
X4805000Y103405000D03*
G04 #@! TD*
G04 #@! TO.C,C332*
X40895000Y64195000D03*
X46595000Y64195000D03*
G04 #@! TD*
G04 #@! TO.C,C1*
X-40005000Y52995000D03*
X-45705000Y52995000D03*
G04 #@! TD*
G04 #@! TO.C,C363*
X48105000Y103405000D03*
X53805000Y103405000D03*
G04 #@! TD*
G04 #@! TO.C,C275*
X40895000Y75395000D03*
X46595000Y75395000D03*
G04 #@! TD*
G04 #@! TO.C,C273*
X19305000Y53005000D03*
X25005000Y53005000D03*
G04 #@! TD*
G04 #@! TO.C,C313*
X40895000Y86595000D03*
X46595000Y86595000D03*
G04 #@! TD*
G04 #@! TO.C,C264*
X48105000Y92205000D03*
X53805000Y92205000D03*
G04 #@! TD*
G04 #@! TO.C,C262*
X19305000Y81005000D03*
X25005000Y81005000D03*
G04 #@! TD*
G04 #@! TO.C,C261*
X48105000Y75405000D03*
X53805000Y75405000D03*
G04 #@! TD*
G04 #@! TO.C,C260*
X32195000Y103395000D03*
X26495000Y103395000D03*
G04 #@! TD*
G04 #@! TO.C,C259*
X32195000Y58595000D03*
X26495000Y58595000D03*
G04 #@! TD*
G04 #@! TO.C,C258*
X-11205000Y58595000D03*
X-16905000Y58595000D03*
G04 #@! TD*
G04 #@! TO.C,C257*
X46595000Y58595000D03*
X40895000Y58595000D03*
G04 #@! TD*
G04 #@! TO.C,C314*
X19305000Y86605000D03*
X25005000Y86605000D03*
G04 #@! TD*
G04 #@! TO.C,C265*
X32195000Y97795000D03*
X26495000Y97795000D03*
G04 #@! TD*
G04 #@! TO.C,C311*
X32195000Y52995000D03*
X26495000Y52995000D03*
G04 #@! TD*
G04 #@! TO.C,C310*
X-11205000Y52995000D03*
X-16905000Y52995000D03*
G04 #@! TD*
G04 #@! TO.C,C309*
X46595000Y52995000D03*
X40895000Y52995000D03*
G04 #@! TD*
G04 #@! TO.C,C308*
X-54405000Y86595000D03*
X-60105000Y86595000D03*
G04 #@! TD*
G04 #@! TO.C,C304*
X19305000Y92205000D03*
X25005000Y92205000D03*
G04 #@! TD*
G04 #@! TO.C,C302*
X32195000Y92195000D03*
X26495000Y92195000D03*
G04 #@! TD*
G04 #@! TO.C,C300*
X48105000Y53005000D03*
X53805000Y53005000D03*
G04 #@! TD*
G04 #@! TO.C,C283*
X32195000Y86595000D03*
X26495000Y86595000D03*
G04 #@! TD*
G04 #@! TO.C,C282*
X-54405000Y80995000D03*
X-60105000Y80995000D03*
G04 #@! TD*
G04 #@! TO.C,C295*
X19305000Y97805000D03*
X25005000Y97805000D03*
G04 #@! TD*
G04 #@! TO.C,C294*
X19305000Y58605000D03*
X25005000Y58605000D03*
G04 #@! TD*
G04 #@! TO.C,C292*
X33705000Y75405000D03*
X39405000Y75405000D03*
G04 #@! TD*
G04 #@! TO.C,C291*
X-24095000Y103405000D03*
X-18395000Y103405000D03*
G04 #@! TD*
G04 #@! TO.C,C289*
X-54405000Y75395000D03*
X-60105000Y75395000D03*
G04 #@! TD*
G04 #@! TO.C,C287*
X19305000Y103405000D03*
X25005000Y103405000D03*
G04 #@! TD*
G04 #@! TO.C,C286*
X19305000Y64205000D03*
X25005000Y64205000D03*
G04 #@! TD*
G04 #@! TO.C,C285*
X48105000Y64205000D03*
X53805000Y64205000D03*
G04 #@! TD*
G04 #@! TO.C,C284*
X33705000Y81005000D03*
X39405000Y81005000D03*
G04 #@! TD*
G04 #@! TO.C,C299*
X48105000Y97805000D03*
X53805000Y97805000D03*
G04 #@! TD*
G04 #@! TO.C,C298*
X33705000Y86605000D03*
X39405000Y86605000D03*
G04 #@! TD*
G04 #@! TO.C,C377*
X19305000Y69805000D03*
X25005000Y69805000D03*
G04 #@! TD*
G04 #@! TO.C,C390*
X33705000Y92205000D03*
X39405000Y92205000D03*
G04 #@! TD*
G04 #@! TO.C,C388*
X-9695000Y86605000D03*
X-3995000Y86605000D03*
G04 #@! TD*
G04 #@! TO.C,C385*
X33705000Y97805000D03*
X39405000Y97805000D03*
G04 #@! TD*
G04 #@! TO.C,C384*
X46595000Y103395000D03*
X40895000Y103395000D03*
G04 #@! TD*
G04 #@! TO.C,C383*
X-9695000Y92205000D03*
X-3995000Y92205000D03*
G04 #@! TD*
G04 #@! TO.C,C381*
X33705000Y103405000D03*
X39405000Y103405000D03*
G04 #@! TD*
G04 #@! TO.C,C380*
X46595000Y97795000D03*
X40895000Y97795000D03*
G04 #@! TD*
G04 #@! TO.C,C379*
X-9695000Y97805000D03*
X-3995000Y97805000D03*
G04 #@! TD*
G04 #@! TO.C,C93*
X-25605000Y58595000D03*
X-31305000Y58595000D03*
G04 #@! TD*
G04 #@! TO.C,C92*
X-38395000Y92205000D03*
X-32695000Y92205000D03*
G04 #@! TD*
G04 #@! TO.C,C90*
X-52895000Y103405000D03*
X-47195000Y103405000D03*
G04 #@! TD*
G04 #@! TO.C,C88*
X-11205000Y92195000D03*
X-16905000Y92195000D03*
G04 #@! TD*
G04 #@! TO.C,C87*
X-9695000Y58605000D03*
X-3995000Y58605000D03*
G04 #@! TD*
G04 #@! TO.C,C86*
X3295000Y80995000D03*
X-2405000Y80995000D03*
G04 #@! TD*
G04 #@! TO.C,C85*
X4805000Y69805000D03*
X10505000Y69805000D03*
G04 #@! TD*
G04 #@! TO.C,C84*
X17795000Y69795000D03*
X12095000Y69795000D03*
G04 #@! TD*
G04 #@! TO.C,C83*
X-25605000Y64195000D03*
X-31305000Y64195000D03*
G04 #@! TD*
G04 #@! TO.C,C82*
X-38395000Y86605000D03*
X-32695000Y86605000D03*
G04 #@! TD*
G04 #@! TO.C,C81*
X-38395000Y81005000D03*
X-32695000Y81005000D03*
G04 #@! TD*
G04 #@! TO.C,C80*
X17795000Y64195000D03*
X12095000Y64195000D03*
G04 #@! TD*
G04 #@! TO.C,C251*
X32195000Y80995000D03*
X26495000Y80995000D03*
G04 #@! TD*
G04 #@! TO.C,C78*
X-25605000Y69795000D03*
X-31305000Y69795000D03*
G04 #@! TD*
G04 #@! TO.C,C77*
X17795000Y75395000D03*
X12095000Y75395000D03*
G04 #@! TD*
G04 #@! TO.C,C76*
X4805000Y64205000D03*
X10505000Y64205000D03*
G04 #@! TD*
G04 #@! TO.C,C75*
X-40005000Y58595000D03*
X-45705000Y58595000D03*
G04 #@! TD*
G04 #@! TO.C,C74*
X3295000Y86595000D03*
X-2405000Y86595000D03*
G04 #@! TD*
G04 #@! TO.C,C73*
X-9695000Y53005000D03*
X-3995000Y53005000D03*
G04 #@! TD*
G04 #@! TO.C,C72*
X-11205000Y97795000D03*
X-16905000Y97795000D03*
G04 #@! TD*
G04 #@! TO.C,C71*
X33705000Y69805000D03*
X39405000Y69805000D03*
G04 #@! TD*
G04 #@! TO.C,C70*
X-52895000Y97805000D03*
X-47195000Y97805000D03*
G04 #@! TD*
G04 #@! TO.C,C119*
X-54405000Y103395000D03*
X-60105000Y103395000D03*
G04 #@! TD*
G04 #@! TO.C,C113*
X40895000Y92195000D03*
X46595000Y92195000D03*
G04 #@! TD*
G04 #@! TO.C,C108*
X48105000Y58605000D03*
X53805000Y58605000D03*
G04 #@! TD*
G04 #@! TO.C,C106*
X-40005000Y103395000D03*
X-45705000Y103395000D03*
G04 #@! TD*
G04 #@! TO.C,C105*
X-54405000Y92195000D03*
X-60105000Y92195000D03*
G04 #@! TD*
G04 #@! TO.C,C96*
X-40005000Y97795000D03*
X-45705000Y97795000D03*
G04 #@! TD*
G04 #@! TO.C,C62*
X-40005000Y92195000D03*
X-45705000Y92195000D03*
G04 #@! TD*
G04 #@! TO.C,C3*
X17795000Y103395000D03*
X12095000Y103395000D03*
G04 #@! TD*
G04 #@! TO.C,C4*
X-25605000Y103395000D03*
X-31305000Y103395000D03*
G04 #@! TD*
G04 #@! TO.C,C12*
X-40005000Y86595000D03*
X-45705000Y86595000D03*
G04 #@! TD*
G04 #@! TO.C,C13*
X-38495000Y53005000D03*
X-32795000Y53005000D03*
G04 #@! TD*
G04 #@! TO.C,C14*
X-25605000Y97795000D03*
X-31305000Y97795000D03*
G04 #@! TD*
G04 #@! TO.C,C15*
X-52895000Y75405000D03*
X-47195000Y75405000D03*
G04 #@! TD*
G04 #@! TO.C,C31*
X-40005000Y80995000D03*
X-45705000Y80995000D03*
G04 #@! TD*
G04 #@! TO.C,C61*
X-38495000Y58605000D03*
X-32795000Y58605000D03*
G04 #@! TD*
G04 #@! TO.C,C60*
X-25605000Y92195000D03*
X-31305000Y92195000D03*
G04 #@! TD*
G04 #@! TO.C,C59*
X17795000Y97795000D03*
X12095000Y97795000D03*
G04 #@! TD*
G04 #@! TO.C,C51*
X-40005000Y75395000D03*
X-45705000Y75395000D03*
G04 #@! TD*
G04 #@! TO.C,C50*
X-38495000Y64205000D03*
X-32795000Y64205000D03*
G04 #@! TD*
G04 #@! TO.C,C49*
X-25605000Y86595000D03*
X-31305000Y86595000D03*
G04 #@! TD*
G04 #@! TO.C,C63*
X17795000Y92195000D03*
X12095000Y92195000D03*
G04 #@! TD*
G04 #@! TO.C,C45*
X3295000Y103395000D03*
X-2405000Y103395000D03*
G04 #@! TD*
G04 #@! TO.C,C44*
X48105000Y86605000D03*
X53805000Y86605000D03*
G04 #@! TD*
G04 #@! TO.C,C40*
X-11205000Y103395000D03*
X-16905000Y103395000D03*
G04 #@! TD*
G04 #@! TO.C,C39*
X33705000Y64205000D03*
X39405000Y64205000D03*
G04 #@! TD*
G04 #@! TO.C,C38*
X-9695000Y69805000D03*
X-3995000Y69805000D03*
G04 #@! TD*
G04 #@! TO.C,C37*
X3295000Y58595000D03*
X-2405000Y58595000D03*
G04 #@! TD*
G04 #@! TO.C,C36*
X-9695000Y81005000D03*
X-3995000Y81005000D03*
G04 #@! TD*
G04 #@! TO.C,C35*
X-11205000Y69795000D03*
X-16905000Y69795000D03*
G04 #@! TD*
G04 #@! TO.C,C34*
X-24095000Y69805000D03*
X-18395000Y69805000D03*
G04 #@! TD*
G04 #@! TO.C,C94*
X48105000Y81005000D03*
X53805000Y81005000D03*
G04 #@! TD*
G04 #@! TO.C,C32*
X4805000Y97805000D03*
X10505000Y97805000D03*
G04 #@! TD*
G04 #@! TO.C,C33*
X3295000Y52995000D03*
X-2405000Y52995000D03*
G04 #@! TD*
G04 #@! TO.C,C46*
X-24095000Y86605000D03*
X-18395000Y86605000D03*
G04 #@! TD*
G04 #@! TO.C,C215*
X48105000Y69805000D03*
X53805000Y69805000D03*
G04 #@! TD*
G04 #@! TO.C,C213*
X32195000Y69795000D03*
X26495000Y69795000D03*
G04 #@! TD*
G04 #@! TO.C,C212*
X32195000Y64195000D03*
X26495000Y64195000D03*
G04 #@! TD*
G04 #@! TO.C,C209*
X19305000Y75405000D03*
X25005000Y75405000D03*
G04 #@! TD*
G04 #@! TO.C,C125*
X-11205000Y64195000D03*
X-16905000Y64195000D03*
G04 #@! TD*
G04 #@! TO.C,C203*
X32195000Y75395000D03*
X26495000Y75395000D03*
G04 #@! TD*
G04 #@! TO.C,C201*
X-24095000Y81005000D03*
X-18395000Y81005000D03*
G04 #@! TD*
G04 #@! TO.C,C190*
X33705000Y53005000D03*
X39405000Y53005000D03*
G04 #@! TD*
G04 #@! TO.C,C126*
X-52895000Y81005000D03*
X-47195000Y81005000D03*
G04 #@! TD*
G04 #@! TO.C,C243*
X40895000Y80995000D03*
X46595000Y80995000D03*
G04 #@! TD*
G04 #@! TO.C,C48*
X-40005000Y69795000D03*
X-45705000Y69795000D03*
G04 #@! TD*
G04 #@! TO.C,C155*
X-25605000Y80995000D03*
X-31305000Y80995000D03*
G04 #@! TD*
G04 #@! TO.C,C154*
X17795000Y86595000D03*
X12095000Y86595000D03*
G04 #@! TD*
G04 #@! TO.C,C153*
X4805000Y53005000D03*
X10505000Y53005000D03*
G04 #@! TD*
G04 #@! TO.C,C152*
X3295000Y97795000D03*
X-2405000Y97795000D03*
G04 #@! TD*
G04 #@! TO.C,C149*
X-52895000Y92205000D03*
X-47195000Y92205000D03*
G04 #@! TD*
G04 #@! TO.C,C148*
X33705000Y58605000D03*
X39405000Y58605000D03*
G04 #@! TD*
G04 #@! TO.C,C147*
X-52895000Y86605000D03*
X-47195000Y86605000D03*
G04 #@! TD*
G04 #@! TO.C,C146*
X-40005000Y64195000D03*
X-45705000Y64195000D03*
G04 #@! TD*
G04 #@! TO.C,C145*
X-38395000Y75405000D03*
X-32695000Y75405000D03*
G04 #@! TD*
G04 #@! TO.C,C144*
X-25605000Y75395000D03*
X-31305000Y75395000D03*
G04 #@! TD*
G04 #@! TO.C,C143*
X17795000Y80995000D03*
X12095000Y80995000D03*
G04 #@! TD*
G04 #@! TO.C,C142*
X4805000Y58605000D03*
X10505000Y58605000D03*
G04 #@! TD*
G04 #@! TO.C,C188*
X3295000Y92195000D03*
X-2405000Y92195000D03*
G04 #@! TD*
G04 #@! TO.C,C139*
X-24095000Y53005000D03*
X-18395000Y53005000D03*
G04 #@! TD*
G04 #@! TO.C,C138*
X17795000Y52995000D03*
X12095000Y52995000D03*
G04 #@! TD*
G04 #@! TO.C,C137*
X4805000Y86605000D03*
X10505000Y86605000D03*
G04 #@! TD*
G04 #@! TO.C,C136*
X3295000Y64195000D03*
X-2405000Y64195000D03*
G04 #@! TD*
G04 #@! TO.C,C135*
X-9695000Y75405000D03*
X-3995000Y75405000D03*
G04 #@! TD*
G04 #@! TO.C,C134*
X-11205000Y75395000D03*
X-16905000Y75395000D03*
G04 #@! TD*
G04 #@! TO.C,C133*
X-24095000Y64205000D03*
X-18395000Y64205000D03*
G04 #@! TD*
G04 #@! TO.C,C189*
X-54405000Y97795000D03*
X-60105000Y97795000D03*
G04 #@! TD*
G04 #@! TO.C,C179*
X-9695000Y103405000D03*
X-3995000Y103405000D03*
G04 #@! TD*
G04 #@! TO.C,C177*
X-24095000Y92205000D03*
X-18395000Y92205000D03*
G04 #@! TD*
G04 #@! TO.C,C175*
X-24095000Y97805000D03*
X-18395000Y97805000D03*
G04 #@! TD*
G04 #@! TO.C,C156*
X4805000Y75405000D03*
X10505000Y75405000D03*
G04 #@! TD*
G04 #@! TO.C,C171*
X3295000Y75395000D03*
X-2405000Y75395000D03*
G04 #@! TD*
G04 #@! TO.C,C170*
X-9695000Y64205000D03*
X-3995000Y64205000D03*
G04 #@! TD*
G04 #@! TO.C,C169*
X-11205000Y86595000D03*
X-16905000Y86595000D03*
G04 #@! TD*
G04 #@! TO.C,C166*
X-38395000Y97805000D03*
X-32695000Y97805000D03*
G04 #@! TD*
G04 #@! TO.C,C165*
X-25605000Y52995000D03*
X-31305000Y52995000D03*
G04 #@! TD*
G04 #@! TO.C,C164*
X17795000Y58595000D03*
X12095000Y58595000D03*
G04 #@! TD*
G04 #@! TO.C,C163*
X4805000Y81005000D03*
X10505000Y81005000D03*
G04 #@! TD*
G04 #@! TO.C,C162*
X3295000Y69795000D03*
X-2405000Y69795000D03*
G04 #@! TD*
G04 #@! TO.C,C161*
X4805000Y92205000D03*
X10505000Y92205000D03*
G04 #@! TD*
G04 #@! TO.C,C160*
X-11205000Y80995000D03*
X-16905000Y80995000D03*
G04 #@! TD*
G04 #@! TO.C,C174*
X-24095000Y58605000D03*
X-18395000Y58605000D03*
G04 #@! TD*
G04 #@! TO.C,C172*
X-38395000Y103405000D03*
X-32695000Y103405000D03*
G04 #@! TD*
G04 #@! TO.C,C158*
X-38495000Y69805000D03*
X-32795000Y69805000D03*
G04 #@! TD*
D11*
G04 #@! TO.C,TP1*
X-60000000Y55000000D03*
D12*
X-57600000Y55000000D03*
X-58302944Y53302944D03*
X-60000000Y52600000D03*
X-61697056Y53302944D03*
X-62400000Y55000000D03*
X-61697056Y56697056D03*
X-60000000Y57400000D03*
X-58302944Y56697056D03*
G04 #@! TD*
D11*
G04 #@! TO.C,TP2*
X-60000000Y66000000D03*
D12*
X-57600000Y66000000D03*
X-58302944Y64302944D03*
X-60000000Y63600000D03*
X-61697056Y64302944D03*
X-62400000Y66000000D03*
X-61697056Y67697056D03*
X-60000000Y68400000D03*
X-58302944Y67697056D03*
G04 #@! TD*
D13*
G04 #@! TO.C,REF\002A\002A*
X62700000Y45700000D03*
G04 #@! TD*
G04 #@! TO.C,REF\002A\002A*
X-63200000Y43000000D03*
G04 #@! TD*
G04 #@! TO.C,REF\002A\002A*
X-63200000Y2000000D03*
G04 #@! TD*
M02*
