M48
;DRILL file {KiCad (5.0.0)} date 06/02/19 07:24:23
;FORMAT={-:-/ absolute / inch / decimal}
FMAT,2
INCH,TZ
T1C0.0197
T2C0.0220
T3C0.1260
%
G90
G05
M72
T1
X-2.4567Y2.1654
X-2.429Y2.2322
X-2.429Y2.0985
X-2.3622Y2.2598
X-2.3622Y2.0709
X-2.2954Y2.2322
X-2.2954Y2.0985
X-2.2677Y2.1654
X-2.4567Y2.5984
X-2.429Y2.6652
X-2.429Y2.5316
X-2.3622Y2.6929
X-2.3622Y2.5039
X-2.2954Y2.6652
X-2.2954Y2.5316
X-2.2677Y2.5984
T2
X-2.3661Y4.1378
X-2.3661Y4.0709
X-2.3661Y4.0039
X-2.3661Y3.9173
X-2.3661Y3.8504
X-2.3661Y3.7835
X-2.3661Y3.6969
X-2.3661Y3.6299
X-2.3661Y3.563
X-2.3661Y3.4764
X-2.3661Y3.4094
X-2.3661Y3.3425
X-2.3661Y3.2559
X-2.3661Y3.189
X-2.3661Y3.122
X-2.3661Y3.0354
X-2.3661Y2.9685
X-2.3661Y2.9016
X-2.3661Y1.5512
X-2.3661Y1.4843
X-2.3661Y1.4173
X-2.3661Y1.3307
X-2.3661Y1.2638
X-2.3661Y1.1969
X-2.3661Y1.1102
X-2.3661Y1.0433
X-2.3661Y0.9764
X-2.3661Y0.8898
X-2.3661Y0.8228
X-2.3661Y0.7559
X-2.3661Y0.6693
X-2.3661Y0.6024
X-2.3661Y0.5354
X-2.3661Y0.4488
X-2.3661Y0.3819
X-2.3661Y0.315
X-2.3661Y0.2283
X-2.3661Y0.1614
X-2.3661Y0.0945
X-2.1417Y4.1378
X-2.1417Y4.0709
X-2.1417Y4.0039
X-2.1417Y3.9173
X-2.1417Y3.8504
X-2.1417Y3.7835
X-2.1417Y3.6969
X-2.1417Y3.6299
X-2.1417Y3.563
X-2.1417Y3.4764
X-2.1417Y3.4094
X-2.1417Y3.3425
X-2.1417Y3.2559
X-2.1417Y3.189
X-2.1417Y3.122
X-2.1417Y3.0354
X-2.1417Y2.9685
X-2.1417Y2.9016
X-2.1417Y1.5512
X-2.1417Y1.4843
X-2.1417Y1.4173
X-2.1417Y1.3307
X-2.1417Y1.2638
X-2.1417Y1.1969
X-2.1417Y1.1102
X-2.1417Y1.0433
X-2.1417Y0.9764
X-2.1417Y0.8898
X-2.1417Y0.8228
X-2.1417Y0.7559
X-2.1417Y0.6693
X-2.1417Y0.6024
X-2.1417Y0.5354
X-2.1417Y0.4488
X-2.1417Y0.3819
X-2.1417Y0.315
X-2.1417Y0.2283
X-2.1417Y0.1614
X-2.1417Y0.0945
X-2.0827Y4.1378
X-2.0827Y4.0709
X-2.0827Y4.0039
X-2.0827Y3.9173
X-2.0827Y3.8504
X-2.0827Y3.7835
X-2.0827Y3.6969
X-2.0827Y3.6299
X-2.0827Y3.563
X-2.0827Y3.4764
X-2.0827Y3.4094
X-2.0827Y3.3425
X-2.0827Y3.2559
X-2.0827Y3.189
X-2.0827Y3.122
X-2.0827Y3.0354
X-2.0827Y2.9685
X-2.0827Y2.9016
X-2.0827Y1.5512
X-2.0827Y1.4843
X-2.0827Y1.4173
X-2.0827Y1.3307
X-2.0827Y1.2638
X-2.0827Y1.1969
X-2.0827Y1.1102
X-2.0827Y1.0433
X-2.0827Y0.9764
X-2.0827Y0.8898
X-2.0827Y0.8228
X-2.0827Y0.7559
X-2.0827Y0.6693
X-2.0827Y0.6024
X-2.0827Y0.5354
X-2.0827Y0.4488
X-2.0827Y0.3819
X-2.0827Y0.315
X-2.0827Y0.2283
X-2.0827Y0.1614
X-2.0827Y0.0945
X-1.8583Y4.1378
X-1.8583Y4.0709
X-1.8583Y4.0039
X-1.8583Y3.9173
X-1.8583Y3.8504
X-1.8583Y3.7835
X-1.8583Y3.6969
X-1.8583Y3.6299
X-1.8583Y3.563
X-1.8583Y3.4764
X-1.8583Y3.4094
X-1.8583Y3.3425
X-1.8583Y3.2559
X-1.8583Y3.189
X-1.8583Y3.122
X-1.8583Y3.0354
X-1.8583Y2.9685
X-1.8583Y2.9016
X-1.8583Y1.5512
X-1.8583Y1.4843
X-1.8583Y1.4173
X-1.8583Y1.3307
X-1.8583Y1.2638
X-1.8583Y1.1969
X-1.8583Y1.1102
X-1.8583Y1.0433
X-1.8583Y0.9764
X-1.8583Y0.8898
X-1.8583Y0.8228
X-1.8583Y0.7559
X-1.8583Y0.6693
X-1.8583Y0.6024
X-1.8583Y0.5354
X-1.8583Y0.4488
X-1.8583Y0.3819
X-1.8583Y0.315
X-1.8583Y0.2283
X-1.8583Y0.1614
X-1.8583Y0.0945
X-1.7992Y4.1378
X-1.7992Y4.0709
X-1.7992Y4.0039
X-1.7992Y3.9173
X-1.7992Y3.8504
X-1.7992Y3.7835
X-1.7992Y3.6969
X-1.7992Y3.6299
X-1.7992Y3.563
X-1.7992Y3.4764
X-1.7992Y3.4094
X-1.7992Y3.3425
X-1.7992Y3.2559
X-1.7992Y3.189
X-1.7992Y3.122
X-1.7992Y3.0354
X-1.7992Y2.9685
X-1.7992Y2.9016
X-1.7992Y2.815
X-1.7992Y2.748
X-1.7992Y2.6811
X-1.7992Y2.5945
X-1.7992Y2.5276
X-1.7992Y2.4606
X-1.7992Y2.374
X-1.7992Y2.3071
X-1.7992Y2.2402
X-1.7992Y2.1535
X-1.7992Y2.0866
X-1.7992Y2.0197
X-1.7992Y1.5512
X-1.7992Y1.4843
X-1.7992Y1.4173
X-1.7992Y1.3307
X-1.7992Y1.2638
X-1.7992Y1.1969
X-1.7992Y1.1102
X-1.7992Y1.0433
X-1.7992Y0.9764
X-1.7992Y0.8898
X-1.7992Y0.8228
X-1.7992Y0.7559
X-1.7992Y0.6693
X-1.7992Y0.6024
X-1.7992Y0.5354
X-1.7992Y0.4488
X-1.7992Y0.3819
X-1.7992Y0.315
X-1.7992Y0.2283
X-1.7992Y0.1614
X-1.7992Y0.0945
X-1.5748Y4.1378
X-1.5748Y4.0709
X-1.5748Y4.0039
X-1.5748Y3.9173
X-1.5748Y3.8504
X-1.5748Y3.7835
X-1.5748Y3.6969
X-1.5748Y3.6299
X-1.5748Y3.563
X-1.5748Y3.4764
X-1.5748Y3.4094
X-1.5748Y3.3425
X-1.5748Y3.2559
X-1.5748Y3.189
X-1.5748Y3.122
X-1.5748Y3.0354
X-1.5748Y2.9685
X-1.5748Y2.9016
X-1.5748Y2.815
X-1.5748Y2.748
X-1.5748Y2.6811
X-1.5748Y2.5945
X-1.5748Y2.5276
X-1.5748Y2.4606
X-1.5748Y2.374
X-1.5748Y2.3071
X-1.5748Y2.2402
X-1.5748Y2.1535
X-1.5748Y2.0866
X-1.5748Y2.0197
X-1.5748Y1.5512
X-1.5748Y1.4843
X-1.5748Y1.4173
X-1.5748Y1.3307
X-1.5748Y1.2638
X-1.5748Y1.1969
X-1.5748Y1.1102
X-1.5748Y1.0433
X-1.5748Y0.9764
X-1.5748Y0.8898
X-1.5748Y0.8228
X-1.5748Y0.7559
X-1.5748Y0.6693
X-1.5748Y0.6024
X-1.5748Y0.5354
X-1.5748Y0.4488
X-1.5748Y0.3819
X-1.5748Y0.315
X-1.5748Y0.2283
X-1.5748Y0.1614
X-1.5748Y0.0945
X-1.5157Y4.1378
X-1.5157Y4.0709
X-1.5157Y4.0039
X-1.5157Y3.9173
X-1.5157Y3.8504
X-1.5157Y3.7835
X-1.5157Y3.6969
X-1.5157Y3.6299
X-1.5157Y3.563
X-1.5157Y3.4764
X-1.5157Y3.4094
X-1.5157Y3.3425
X-1.5157Y3.2559
X-1.5157Y3.189
X-1.5157Y3.122
X-1.5157Y3.0354
X-1.5157Y2.9685
X-1.5157Y2.9016
X-1.5157Y2.815
X-1.5157Y2.748
X-1.5157Y2.6811
X-1.5157Y2.5945
X-1.5157Y2.5276
X-1.5157Y2.4606
X-1.5157Y2.374
X-1.5157Y2.3071
X-1.5157Y2.2402
X-1.5157Y2.1535
X-1.5157Y2.0866
X-1.5157Y2.0197
X-1.5157Y1.5512
X-1.5157Y1.4843
X-1.5157Y1.4173
X-1.5157Y1.3307
X-1.5157Y1.2638
X-1.5157Y1.1969
X-1.5157Y1.1102
X-1.5157Y1.0433
X-1.5157Y0.9764
X-1.5157Y0.8898
X-1.5157Y0.8228
X-1.5157Y0.7559
X-1.5157Y0.6693
X-1.5157Y0.6024
X-1.5157Y0.5354
X-1.5157Y0.4488
X-1.5157Y0.3819
X-1.5157Y0.315
X-1.5157Y0.2283
X-1.5157Y0.1614
X-1.5157Y0.0945
X-1.2913Y4.1378
X-1.2913Y4.0709
X-1.2913Y4.0039
X-1.2913Y3.9173
X-1.2913Y3.8504
X-1.2913Y3.7835
X-1.2913Y3.6969
X-1.2913Y3.6299
X-1.2913Y3.563
X-1.2913Y3.4764
X-1.2913Y3.4094
X-1.2913Y3.3425
X-1.2913Y3.2559
X-1.2913Y3.189
X-1.2913Y3.122
X-1.2913Y3.0354
X-1.2913Y2.9685
X-1.2913Y2.9016
X-1.2913Y2.815
X-1.2913Y2.748
X-1.2913Y2.6811
X-1.2913Y2.5945
X-1.2913Y2.5276
X-1.2913Y2.4606
X-1.2913Y2.374
X-1.2913Y2.3071
X-1.2913Y2.2402
X-1.2913Y2.1535
X-1.2913Y2.0866
X-1.2913Y2.0197
X-1.2913Y1.5512
X-1.2913Y1.4843
X-1.2913Y1.4173
X-1.2913Y1.3307
X-1.2913Y1.2638
X-1.2913Y1.1969
X-1.2913Y1.1102
X-1.2913Y1.0433
X-1.2913Y0.9764
X-1.2913Y0.8898
X-1.2913Y0.8228
X-1.2913Y0.7559
X-1.2913Y0.6693
X-1.2913Y0.6024
X-1.2913Y0.5354
X-1.2913Y0.4488
X-1.2913Y0.3819
X-1.2913Y0.315
X-1.2913Y0.2283
X-1.2913Y0.1614
X-1.2913Y0.0945
X-1.2323Y4.1378
X-1.2323Y4.0709
X-1.2323Y4.0039
X-1.2323Y3.9173
X-1.2323Y3.8504
X-1.2323Y3.7835
X-1.2323Y3.6969
X-1.2323Y3.6299
X-1.2323Y3.563
X-1.2323Y3.4764
X-1.2323Y3.4094
X-1.2323Y3.3425
X-1.2323Y3.2559
X-1.2323Y3.189
X-1.2323Y3.122
X-1.2323Y3.0354
X-1.2323Y2.9685
X-1.2323Y2.9016
X-1.2323Y2.815
X-1.2323Y2.748
X-1.2323Y2.6811
X-1.2323Y2.5945
X-1.2323Y2.5276
X-1.2323Y2.4606
X-1.2323Y2.374
X-1.2323Y2.3071
X-1.2323Y2.2402
X-1.2323Y2.1535
X-1.2323Y2.0866
X-1.2323Y2.0197
X-1.2323Y1.5512
X-1.2323Y1.4843
X-1.2323Y1.4173
X-1.2323Y1.3307
X-1.2323Y1.2638
X-1.2323Y1.1969
X-1.2323Y1.1102
X-1.2323Y1.0433
X-1.2323Y0.9764
X-1.2323Y0.8898
X-1.2323Y0.8228
X-1.2323Y0.7559
X-1.2323Y0.6693
X-1.2323Y0.6024
X-1.2323Y0.5354
X-1.2323Y0.4488
X-1.2323Y0.3819
X-1.2323Y0.315
X-1.2323Y0.2283
X-1.2323Y0.1614
X-1.2323Y0.0945
X-1.0079Y4.1378
X-1.0079Y4.0709
X-1.0079Y4.0039
X-1.0079Y3.9173
X-1.0079Y3.8504
X-1.0079Y3.7835
X-1.0079Y3.6969
X-1.0079Y3.6299
X-1.0079Y3.563
X-1.0079Y3.4764
X-1.0079Y3.4094
X-1.0079Y3.3425
X-1.0079Y3.2559
X-1.0079Y3.189
X-1.0079Y3.122
X-1.0079Y3.0354
X-1.0079Y2.9685
X-1.0079Y2.9016
X-1.0079Y2.815
X-1.0079Y2.748
X-1.0079Y2.6811
X-1.0079Y2.5945
X-1.0079Y2.5276
X-1.0079Y2.4606
X-1.0079Y2.374
X-1.0079Y2.3071
X-1.0079Y2.2402
X-1.0079Y2.1535
X-1.0079Y2.0866
X-1.0079Y2.0197
X-1.0079Y1.5512
X-1.0079Y1.4843
X-1.0079Y1.4173
X-1.0079Y1.3307
X-1.0079Y1.2638
X-1.0079Y1.1969
X-1.0079Y1.1102
X-1.0079Y1.0433
X-1.0079Y0.9764
X-1.0079Y0.8898
X-1.0079Y0.8228
X-1.0079Y0.7559
X-1.0079Y0.6693
X-1.0079Y0.6024
X-1.0079Y0.5354
X-1.0079Y0.4488
X-1.0079Y0.3819
X-1.0079Y0.315
X-1.0079Y0.2283
X-1.0079Y0.1614
X-1.0079Y0.0945
X-0.9488Y4.1378
X-0.9488Y4.0709
X-0.9488Y4.0039
X-0.9488Y3.9173
X-0.9488Y3.8504
X-0.9488Y3.7835
X-0.9488Y3.6969
X-0.9488Y3.6299
X-0.9488Y3.563
X-0.9488Y3.4764
X-0.9488Y3.4094
X-0.9488Y3.3425
X-0.9488Y3.2559
X-0.9488Y3.189
X-0.9488Y3.122
X-0.9488Y3.0354
X-0.9488Y2.9685
X-0.9488Y2.9016
X-0.9488Y2.815
X-0.9488Y2.748
X-0.9488Y2.6811
X-0.9488Y2.5945
X-0.9488Y2.5276
X-0.9488Y2.4606
X-0.9488Y2.374
X-0.9488Y2.3071
X-0.9488Y2.2402
X-0.9488Y2.1535
X-0.9488Y2.0866
X-0.9488Y2.0197
X-0.9488Y1.5512
X-0.9488Y1.4843
X-0.9488Y1.4173
X-0.9488Y1.3307
X-0.9488Y1.2638
X-0.9488Y1.1969
X-0.9488Y1.1102
X-0.9488Y1.0433
X-0.9488Y0.9764
X-0.9488Y0.8898
X-0.9488Y0.8228
X-0.9488Y0.7559
X-0.9488Y0.6693
X-0.9488Y0.6024
X-0.9488Y0.5354
X-0.9488Y0.4488
X-0.9488Y0.3819
X-0.9488Y0.315
X-0.9488Y0.2283
X-0.9488Y0.1614
X-0.9488Y0.0945
X-0.7244Y4.1378
X-0.7244Y4.0709
X-0.7244Y4.0039
X-0.7244Y3.9173
X-0.7244Y3.8504
X-0.7244Y3.7835
X-0.7244Y3.6969
X-0.7244Y3.6299
X-0.7244Y3.563
X-0.7244Y3.4764
X-0.7244Y3.4094
X-0.7244Y3.3425
X-0.7244Y3.2559
X-0.7244Y3.189
X-0.7244Y3.122
X-0.7244Y3.0354
X-0.7244Y2.9685
X-0.7244Y2.9016
X-0.7244Y2.815
X-0.7244Y2.748
X-0.7244Y2.6811
X-0.7244Y2.5945
X-0.7244Y2.5276
X-0.7244Y2.4606
X-0.7244Y2.374
X-0.7244Y2.3071
X-0.7244Y2.2402
X-0.7244Y2.1535
X-0.7244Y2.0866
X-0.7244Y2.0197
X-0.7244Y1.5512
X-0.7244Y1.4843
X-0.7244Y1.4173
X-0.7244Y1.3307
X-0.7244Y1.2638
X-0.7244Y1.1969
X-0.7244Y1.1102
X-0.7244Y1.0433
X-0.7244Y0.9764
X-0.7244Y0.8898
X-0.7244Y0.8228
X-0.7244Y0.7559
X-0.7244Y0.6693
X-0.7244Y0.6024
X-0.7244Y0.5354
X-0.7244Y0.4488
X-0.7244Y0.3819
X-0.7244Y0.315
X-0.7244Y0.2283
X-0.7244Y0.1614
X-0.7244Y0.0945
X-0.6654Y4.1378
X-0.6654Y4.0709
X-0.6654Y4.0039
X-0.6654Y3.9173
X-0.6654Y3.8504
X-0.6654Y3.7835
X-0.6654Y3.6969
X-0.6654Y3.6299
X-0.6654Y3.563
X-0.6654Y3.4764
X-0.6654Y3.4094
X-0.6654Y3.3425
X-0.6654Y3.2559
X-0.6654Y3.189
X-0.6654Y3.122
X-0.6654Y3.0354
X-0.6654Y2.9685
X-0.6654Y2.9016
X-0.6654Y2.815
X-0.6654Y2.748
X-0.6654Y2.6811
X-0.6654Y2.5945
X-0.6654Y2.5276
X-0.6654Y2.4606
X-0.6654Y2.374
X-0.6654Y2.3071
X-0.6654Y2.2402
X-0.6654Y2.1535
X-0.6654Y2.0866
X-0.6654Y2.0197
X-0.6654Y1.5512
X-0.6654Y1.4843
X-0.6654Y1.4173
X-0.6654Y1.3307
X-0.6654Y1.2638
X-0.6654Y1.1969
X-0.6654Y1.1102
X-0.6654Y1.0433
X-0.6654Y0.9764
X-0.6654Y0.8898
X-0.6654Y0.8228
X-0.6654Y0.7559
X-0.6654Y0.6693
X-0.6654Y0.6024
X-0.6654Y0.5354
X-0.6654Y0.4488
X-0.6654Y0.3819
X-0.6654Y0.315
X-0.6654Y0.2283
X-0.6654Y0.1614
X-0.6654Y0.0945
X-0.4409Y4.1378
X-0.4409Y4.0709
X-0.4409Y4.0039
X-0.4409Y3.9173
X-0.4409Y3.8504
X-0.4409Y3.7835
X-0.4409Y3.6969
X-0.4409Y3.6299
X-0.4409Y3.563
X-0.4409Y3.4764
X-0.4409Y3.4094
X-0.4409Y3.3425
X-0.4409Y3.2559
X-0.4409Y3.189
X-0.4409Y3.122
X-0.4409Y3.0354
X-0.4409Y2.9685
X-0.4409Y2.9016
X-0.4409Y2.815
X-0.4409Y2.748
X-0.4409Y2.6811
X-0.4409Y2.5945
X-0.4409Y2.5276
X-0.4409Y2.4606
X-0.4409Y2.374
X-0.4409Y2.3071
X-0.4409Y2.2402
X-0.4409Y2.1535
X-0.4409Y2.0866
X-0.4409Y2.0197
X-0.4409Y1.5512
X-0.4409Y1.4843
X-0.4409Y1.4173
X-0.4409Y1.3307
X-0.4409Y1.2638
X-0.4409Y1.1969
X-0.4409Y1.1102
X-0.4409Y1.0433
X-0.4409Y0.9764
X-0.4409Y0.8898
X-0.4409Y0.8228
X-0.4409Y0.7559
X-0.4409Y0.6693
X-0.4409Y0.6024
X-0.4409Y0.5354
X-0.4409Y0.4488
X-0.4409Y0.3819
X-0.4409Y0.315
X-0.4409Y0.2283
X-0.4409Y0.1614
X-0.4409Y0.0945
X-0.3819Y4.1378
X-0.3819Y4.0709
X-0.3819Y4.0039
X-0.3819Y3.9173
X-0.3819Y3.8504
X-0.3819Y3.7835
X-0.3819Y3.6969
X-0.3819Y3.6299
X-0.3819Y3.563
X-0.3819Y3.4764
X-0.3819Y3.4094
X-0.3819Y3.3425
X-0.3819Y3.2559
X-0.3819Y3.189
X-0.3819Y3.122
X-0.3819Y3.0354
X-0.3819Y2.9685
X-0.3819Y2.9016
X-0.3819Y2.815
X-0.3819Y2.748
X-0.3819Y2.6811
X-0.3819Y2.5945
X-0.3819Y2.5276
X-0.3819Y2.4606
X-0.3819Y2.374
X-0.3819Y2.3071
X-0.3819Y2.2402
X-0.3819Y2.1535
X-0.3819Y2.0866
X-0.3819Y2.0197
X-0.3819Y1.5512
X-0.3819Y1.4843
X-0.3819Y1.4173
X-0.3819Y1.3307
X-0.3819Y1.2638
X-0.3819Y1.1969
X-0.3819Y1.1102
X-0.3819Y1.0433
X-0.3819Y0.9764
X-0.3819Y0.8898
X-0.3819Y0.8228
X-0.3819Y0.7559
X-0.3819Y0.6693
X-0.3819Y0.6024
X-0.3819Y0.5354
X-0.3819Y0.4488
X-0.3819Y0.3819
X-0.3819Y0.315
X-0.3819Y0.2283
X-0.3819Y0.1614
X-0.3819Y0.0945
X-0.1575Y4.1378
X-0.1575Y4.0709
X-0.1575Y4.0039
X-0.1575Y3.9173
X-0.1575Y3.8504
X-0.1575Y3.7835
X-0.1575Y3.6969
X-0.1575Y3.6299
X-0.1575Y3.563
X-0.1575Y3.4764
X-0.1575Y3.4094
X-0.1575Y3.3425
X-0.1575Y3.2559
X-0.1575Y3.189
X-0.1575Y3.122
X-0.1575Y3.0354
X-0.1575Y2.9685
X-0.1575Y2.9016
X-0.1575Y2.815
X-0.1575Y2.748
X-0.1575Y2.6811
X-0.1575Y2.5945
X-0.1575Y2.5276
X-0.1575Y2.4606
X-0.1575Y2.374
X-0.1575Y2.3071
X-0.1575Y2.2402
X-0.1575Y2.1535
X-0.1575Y2.0866
X-0.1575Y2.0197
X-0.1575Y1.5512
X-0.1575Y1.4843
X-0.1575Y1.4173
X-0.1575Y1.3307
X-0.1575Y1.2638
X-0.1575Y1.1969
X-0.1575Y1.1102
X-0.1575Y1.0433
X-0.1575Y0.9764
X-0.1575Y0.8898
X-0.1575Y0.8228
X-0.1575Y0.7559
X-0.1575Y0.6693
X-0.1575Y0.6024
X-0.1575Y0.5354
X-0.1575Y0.4488
X-0.1575Y0.3819
X-0.1575Y0.315
X-0.1575Y0.2283
X-0.1575Y0.1614
X-0.1575Y0.0945
X-0.0945Y4.1378
X-0.0945Y4.0709
X-0.0945Y4.0039
X-0.0945Y3.9173
X-0.0945Y3.8504
X-0.0945Y3.7835
X-0.0945Y3.6969
X-0.0945Y3.6299
X-0.0945Y3.563
X-0.0945Y3.4764
X-0.0945Y3.4094
X-0.0945Y3.3425
X-0.0945Y3.2559
X-0.0945Y3.189
X-0.0945Y3.122
X-0.0945Y3.0354
X-0.0945Y2.9685
X-0.0945Y2.9016
X-0.0945Y2.815
X-0.0945Y2.748
X-0.0945Y2.6811
X-0.0945Y2.5945
X-0.0945Y2.5276
X-0.0945Y2.4606
X-0.0945Y2.374
X-0.0945Y2.3071
X-0.0945Y2.2402
X-0.0945Y2.1535
X-0.0945Y2.0866
X-0.0945Y2.0197
X-0.0945Y1.5512
X-0.0945Y1.4843
X-0.0945Y1.4173
X-0.0945Y1.3307
X-0.0945Y1.2638
X-0.0945Y1.1969
X-0.0945Y1.1102
X-0.0945Y1.0433
X-0.0945Y0.9764
X-0.0945Y0.8898
X-0.0945Y0.8228
X-0.0945Y0.7559
X-0.0945Y0.6693
X-0.0945Y0.6024
X-0.0945Y0.5354
X-0.0945Y0.4488
X-0.0945Y0.3819
X-0.0945Y0.315
X-0.0945Y0.2283
X-0.0945Y0.1614
X-0.0945Y0.0945
X0.1299Y4.1378
X0.1299Y4.0709
X0.1299Y4.0039
X0.1299Y3.9173
X0.1299Y3.8504
X0.1299Y3.7835
X0.1299Y3.6969
X0.1299Y3.6299
X0.1299Y3.563
X0.1299Y3.4764
X0.1299Y3.4094
X0.1299Y3.3425
X0.1299Y3.2559
X0.1299Y3.189
X0.1299Y3.122
X0.1299Y3.0354
X0.1299Y2.9685
X0.1299Y2.9016
X0.1299Y2.815
X0.1299Y2.748
X0.1299Y2.6811
X0.1299Y2.5945
X0.1299Y2.5276
X0.1299Y2.4606
X0.1299Y2.374
X0.1299Y2.3071
X0.1299Y2.2402
X0.1299Y2.1535
X0.1299Y2.0866
X0.1299Y2.0197
X0.1299Y1.5512
X0.1299Y1.4843
X0.1299Y1.4173
X0.1299Y1.3307
X0.1299Y1.2638
X0.1299Y1.1969
X0.1299Y1.1102
X0.1299Y1.0433
X0.1299Y0.9764
X0.1299Y0.8898
X0.1299Y0.8228
X0.1299Y0.7559
X0.1299Y0.6693
X0.1299Y0.6024
X0.1299Y0.5354
X0.1299Y0.4488
X0.1299Y0.3819
X0.1299Y0.315
X0.1299Y0.2283
X0.1299Y0.1614
X0.1299Y0.0945
X0.189Y4.1378
X0.189Y4.0709
X0.189Y4.0039
X0.189Y3.9173
X0.189Y3.8504
X0.189Y3.7835
X0.189Y3.6969
X0.189Y3.6299
X0.189Y3.563
X0.189Y3.4764
X0.189Y3.4094
X0.189Y3.3425
X0.189Y3.2559
X0.189Y3.189
X0.189Y3.122
X0.189Y3.0354
X0.189Y2.9685
X0.189Y2.9016
X0.189Y2.815
X0.189Y2.748
X0.189Y2.6811
X0.189Y2.5945
X0.189Y2.5276
X0.189Y2.4606
X0.189Y2.374
X0.189Y2.3071
X0.189Y2.2402
X0.189Y2.1535
X0.189Y2.0866
X0.189Y2.0197
X0.189Y1.5512
X0.189Y1.4843
X0.189Y1.4173
X0.189Y1.3307
X0.189Y1.2638
X0.189Y1.1969
X0.189Y1.1102
X0.189Y1.0433
X0.189Y0.9764
X0.189Y0.8898
X0.189Y0.8228
X0.189Y0.7559
X0.189Y0.6693
X0.189Y0.6024
X0.189Y0.5354
X0.189Y0.4488
X0.189Y0.3819
X0.189Y0.315
X0.189Y0.2283
X0.189Y0.1614
X0.189Y0.0945
X0.4134Y4.1378
X0.4134Y4.0709
X0.4134Y4.0039
X0.4134Y3.9173
X0.4134Y3.8504
X0.4134Y3.7835
X0.4134Y3.6969
X0.4134Y3.6299
X0.4134Y3.563
X0.4134Y3.4764
X0.4134Y3.4094
X0.4134Y3.3425
X0.4134Y3.2559
X0.4134Y3.189
X0.4134Y3.122
X0.4134Y3.0354
X0.4134Y2.9685
X0.4134Y2.9016
X0.4134Y2.815
X0.4134Y2.748
X0.4134Y2.6811
X0.4134Y2.5945
X0.4134Y2.5276
X0.4134Y2.4606
X0.4134Y2.374
X0.4134Y2.3071
X0.4134Y2.2402
X0.4134Y2.1535
X0.4134Y2.0866
X0.4134Y2.0197
X0.4134Y1.5512
X0.4134Y1.4843
X0.4134Y1.4173
X0.4134Y1.3307
X0.4134Y1.2638
X0.4134Y1.1969
X0.4134Y1.1102
X0.4134Y1.0433
X0.4134Y0.9764
X0.4134Y0.8898
X0.4134Y0.8228
X0.4134Y0.7559
X0.4134Y0.6693
X0.4134Y0.6024
X0.4134Y0.5354
X0.4134Y0.4488
X0.4134Y0.3819
X0.4134Y0.315
X0.4134Y0.2283
X0.4134Y0.1614
X0.4134Y0.0945
X0.4724Y4.1378
X0.4724Y4.0709
X0.4724Y4.0039
X0.4724Y3.9173
X0.4724Y3.8504
X0.4724Y3.7835
X0.4724Y3.6969
X0.4724Y3.6299
X0.4724Y3.563
X0.4724Y3.4764
X0.4724Y3.4094
X0.4724Y3.3425
X0.4724Y3.2559
X0.4724Y3.189
X0.4724Y3.122
X0.4724Y3.0354
X0.4724Y2.9685
X0.4724Y2.9016
X0.4724Y2.815
X0.4724Y2.748
X0.4724Y2.6811
X0.4724Y2.5945
X0.4724Y2.5276
X0.4724Y2.4606
X0.4724Y2.374
X0.4724Y2.3071
X0.4724Y2.2402
X0.4724Y2.1535
X0.4724Y2.0866
X0.4724Y2.0197
X0.4724Y1.5512
X0.4724Y1.4843
X0.4724Y1.4173
X0.4724Y1.3307
X0.4724Y1.2638
X0.4724Y1.1969
X0.4724Y1.1102
X0.4724Y1.0433
X0.4724Y0.9764
X0.4724Y0.8898
X0.4724Y0.8228
X0.4724Y0.7559
X0.4724Y0.6693
X0.4724Y0.6024
X0.4724Y0.5354
X0.4724Y0.4488
X0.4724Y0.3819
X0.4724Y0.315
X0.4724Y0.2283
X0.4724Y0.1614
X0.4724Y0.0945
X0.7008Y4.1378
X0.7008Y4.0709
X0.7008Y4.0039
X0.7008Y3.9173
X0.7008Y3.8504
X0.7008Y3.7835
X0.7008Y3.6969
X0.7008Y3.6299
X0.7008Y3.563
X0.7008Y3.4764
X0.7008Y3.4094
X0.7008Y3.3425
X0.7008Y3.2559
X0.7008Y3.189
X0.7008Y3.122
X0.7008Y3.0354
X0.7008Y2.9685
X0.7008Y2.9016
X0.7008Y2.815
X0.7008Y2.748
X0.7008Y2.6811
X0.7008Y2.5945
X0.7008Y2.5276
X0.7008Y2.4606
X0.7008Y2.374
X0.7008Y2.3071
X0.7008Y2.2402
X0.7008Y2.1535
X0.7008Y2.0866
X0.7008Y2.0197
X0.7008Y1.5512
X0.7008Y1.4843
X0.7008Y1.4173
X0.7008Y1.3307
X0.7008Y1.2638
X0.7008Y1.1969
X0.7008Y1.1102
X0.7008Y1.0433
X0.7008Y0.9764
X0.7008Y0.8898
X0.7008Y0.8228
X0.7008Y0.7559
X0.7008Y0.6693
X0.7008Y0.6024
X0.7008Y0.5354
X0.7008Y0.4488
X0.7008Y0.3819
X0.7008Y0.315
X0.7008Y0.2283
X0.7008Y0.1614
X0.7008Y0.0945
X0.7598Y4.1378
X0.7598Y4.0709
X0.7598Y4.0039
X0.7598Y3.9173
X0.7598Y3.8504
X0.7598Y3.7835
X0.7598Y3.6969
X0.7598Y3.6299
X0.7598Y3.563
X0.7598Y3.4764
X0.7598Y3.4094
X0.7598Y3.3425
X0.7598Y3.2559
X0.7598Y3.189
X0.7598Y3.122
X0.7598Y3.0354
X0.7598Y2.9685
X0.7598Y2.9016
X0.7598Y2.815
X0.7598Y2.748
X0.7598Y2.6811
X0.7598Y2.5945
X0.7598Y2.5276
X0.7598Y2.4606
X0.7598Y2.374
X0.7598Y2.3071
X0.7598Y2.2402
X0.7598Y2.1535
X0.7598Y2.0866
X0.7598Y2.0197
X0.7598Y1.5512
X0.7598Y1.4843
X0.7598Y1.4173
X0.7598Y1.3307
X0.7598Y1.2638
X0.7598Y1.1969
X0.7598Y1.1102
X0.7598Y1.0433
X0.7598Y0.9764
X0.7598Y0.8898
X0.7598Y0.8228
X0.7598Y0.7559
X0.7598Y0.6693
X0.7598Y0.6024
X0.7598Y0.5354
X0.7598Y0.4488
X0.7598Y0.3819
X0.7598Y0.315
X0.7598Y0.2283
X0.7598Y0.1614
X0.7598Y0.0945
X0.9843Y4.1378
X0.9843Y4.0709
X0.9843Y4.0039
X0.9843Y3.9173
X0.9843Y3.8504
X0.9843Y3.7835
X0.9843Y3.6969
X0.9843Y3.6299
X0.9843Y3.563
X0.9843Y3.4764
X0.9843Y3.4094
X0.9843Y3.3425
X0.9843Y3.2559
X0.9843Y3.189
X0.9843Y3.122
X0.9843Y3.0354
X0.9843Y2.9685
X0.9843Y2.9016
X0.9843Y2.815
X0.9843Y2.748
X0.9843Y2.6811
X0.9843Y2.5945
X0.9843Y2.5276
X0.9843Y2.4606
X0.9843Y2.374
X0.9843Y2.3071
X0.9843Y2.2402
X0.9843Y2.1535
X0.9843Y2.0866
X0.9843Y2.0197
X0.9843Y1.5512
X0.9843Y1.4843
X0.9843Y1.4173
X0.9843Y1.3307
X0.9843Y1.2638
X0.9843Y1.1969
X0.9843Y1.1102
X0.9843Y1.0433
X0.9843Y0.9764
X0.9843Y0.8898
X0.9843Y0.8228
X0.9843Y0.7559
X0.9843Y0.6693
X0.9843Y0.6024
X0.9843Y0.5354
X0.9843Y0.4488
X0.9843Y0.3819
X0.9843Y0.315
X0.9843Y0.2283
X0.9843Y0.1614
X0.9843Y0.0945
X1.0433Y4.1378
X1.0433Y4.0709
X1.0433Y4.0039
X1.0433Y3.9173
X1.0433Y3.8504
X1.0433Y3.7835
X1.0433Y3.6969
X1.0433Y3.6299
X1.0433Y3.563
X1.0433Y3.4764
X1.0433Y3.4094
X1.0433Y3.3425
X1.0433Y3.2559
X1.0433Y3.189
X1.0433Y3.122
X1.0433Y3.0354
X1.0433Y2.9685
X1.0433Y2.9016
X1.0433Y2.815
X1.0433Y2.748
X1.0433Y2.6811
X1.0433Y2.5945
X1.0433Y2.5276
X1.0433Y2.4606
X1.0433Y2.374
X1.0433Y2.3071
X1.0433Y2.2402
X1.0433Y2.1535
X1.0433Y2.0866
X1.0433Y2.0197
X1.0433Y1.5512
X1.0433Y1.4843
X1.0433Y1.4173
X1.0433Y1.3307
X1.0433Y1.2638
X1.0433Y1.1969
X1.0433Y1.1102
X1.0433Y1.0433
X1.0433Y0.9764
X1.0433Y0.8898
X1.0433Y0.8228
X1.0433Y0.7559
X1.0433Y0.6693
X1.0433Y0.6024
X1.0433Y0.5354
X1.0433Y0.4488
X1.0433Y0.3819
X1.0433Y0.315
X1.0433Y0.2283
X1.0433Y0.1614
X1.0433Y0.0945
X1.2677Y4.1378
X1.2677Y4.0709
X1.2677Y4.0039
X1.2677Y3.9173
X1.2677Y3.8504
X1.2677Y3.7835
X1.2677Y3.6969
X1.2677Y3.6299
X1.2677Y3.563
X1.2677Y3.4764
X1.2677Y3.4094
X1.2677Y3.3425
X1.2677Y3.2559
X1.2677Y3.189
X1.2677Y3.122
X1.2677Y3.0354
X1.2677Y2.9685
X1.2677Y2.9016
X1.2677Y2.815
X1.2677Y2.748
X1.2677Y2.6811
X1.2677Y2.5945
X1.2677Y2.5276
X1.2677Y2.4606
X1.2677Y2.374
X1.2677Y2.3071
X1.2677Y2.2402
X1.2677Y2.1535
X1.2677Y2.0866
X1.2677Y2.0197
X1.2677Y1.5512
X1.2677Y1.4843
X1.2677Y1.4173
X1.2677Y1.3307
X1.2677Y1.2638
X1.2677Y1.1969
X1.2677Y1.1102
X1.2677Y1.0433
X1.2677Y0.9764
X1.2677Y0.8898
X1.2677Y0.8228
X1.2677Y0.7559
X1.2677Y0.6693
X1.2677Y0.6024
X1.2677Y0.5354
X1.2677Y0.4488
X1.2677Y0.3819
X1.2677Y0.315
X1.2677Y0.2283
X1.2677Y0.1614
X1.2677Y0.0945
X1.3268Y4.1378
X1.3268Y4.0709
X1.3268Y4.0039
X1.3268Y3.9173
X1.3268Y3.8504
X1.3268Y3.7835
X1.3268Y3.6969
X1.3268Y3.6299
X1.3268Y3.563
X1.3268Y3.4764
X1.3268Y3.4094
X1.3268Y3.3425
X1.3268Y3.2559
X1.3268Y3.189
X1.3268Y3.122
X1.3268Y3.0354
X1.3268Y2.9685
X1.3268Y2.9016
X1.3268Y2.815
X1.3268Y2.748
X1.3268Y2.6811
X1.3268Y2.5945
X1.3268Y2.5276
X1.3268Y2.4606
X1.3268Y2.374
X1.3268Y2.3071
X1.3268Y2.2402
X1.3268Y2.1535
X1.3268Y2.0866
X1.3268Y2.0197
X1.3268Y1.5512
X1.3268Y1.4843
X1.3268Y1.4173
X1.3268Y1.3307
X1.3268Y1.2638
X1.3268Y1.1969
X1.3268Y1.1102
X1.3268Y1.0433
X1.3268Y0.9764
X1.3268Y0.8898
X1.3268Y0.8228
X1.3268Y0.7559
X1.3268Y0.6693
X1.3268Y0.6024
X1.3268Y0.5354
X1.3268Y0.4488
X1.3268Y0.3819
X1.3268Y0.315
X1.3268Y0.2283
X1.3268Y0.1614
X1.3268Y0.0945
X1.5512Y4.1378
X1.5512Y4.0709
X1.5512Y4.0039
X1.5512Y3.9173
X1.5512Y3.8504
X1.5512Y3.7835
X1.5512Y3.6969
X1.5512Y3.6299
X1.5512Y3.563
X1.5512Y3.4764
X1.5512Y3.4094
X1.5512Y3.3425
X1.5512Y3.2559
X1.5512Y3.189
X1.5512Y3.122
X1.5512Y3.0354
X1.5512Y2.9685
X1.5512Y2.9016
X1.5512Y2.815
X1.5512Y2.748
X1.5512Y2.6811
X1.5512Y2.5945
X1.5512Y2.5276
X1.5512Y2.4606
X1.5512Y2.374
X1.5512Y2.3071
X1.5512Y2.2402
X1.5512Y2.1535
X1.5512Y2.0866
X1.5512Y2.0197
X1.5512Y1.5512
X1.5512Y1.4843
X1.5512Y1.4173
X1.5512Y1.3307
X1.5512Y1.2638
X1.5512Y1.1969
X1.5512Y1.1102
X1.5512Y1.0433
X1.5512Y0.9764
X1.5512Y0.8898
X1.5512Y0.8228
X1.5512Y0.7559
X1.5512Y0.6693
X1.5512Y0.6024
X1.5512Y0.5354
X1.5512Y0.4488
X1.5512Y0.3819
X1.5512Y0.315
X1.5512Y0.2283
X1.5512Y0.1614
X1.5512Y0.0945
X1.6102Y4.1378
X1.6102Y4.0709
X1.6102Y4.0039
X1.6102Y3.9173
X1.6102Y3.8504
X1.6102Y3.7835
X1.6102Y3.6969
X1.6102Y3.6299
X1.6102Y3.563
X1.6102Y3.4764
X1.6102Y3.4094
X1.6102Y3.3425
X1.6102Y3.2559
X1.6102Y3.189
X1.6102Y3.122
X1.6102Y3.0354
X1.6102Y2.9685
X1.6102Y2.9016
X1.6102Y2.815
X1.6102Y2.748
X1.6102Y2.6811
X1.6102Y2.5945
X1.6102Y2.5276
X1.6102Y2.4606
X1.6102Y2.374
X1.6102Y2.3071
X1.6102Y2.2402
X1.6102Y2.1535
X1.6102Y2.0866
X1.6102Y2.0197
X1.6102Y1.5512
X1.6102Y1.4843
X1.6102Y1.4173
X1.6102Y1.3307
X1.6102Y1.2638
X1.6102Y1.1969
X1.6102Y1.1102
X1.6102Y1.0433
X1.6102Y0.9764
X1.6102Y0.8898
X1.6102Y0.8228
X1.6102Y0.7559
X1.6102Y0.6693
X1.6102Y0.6024
X1.6102Y0.5354
X1.6102Y0.4488
X1.6102Y0.3819
X1.6102Y0.315
X1.6102Y0.2283
X1.6102Y0.1614
X1.6102Y0.0945
X1.8346Y4.1378
X1.8346Y4.0709
X1.8346Y4.0039
X1.8346Y3.9173
X1.8346Y3.8504
X1.8346Y3.7835
X1.8346Y3.6969
X1.8346Y3.6299
X1.8346Y3.563
X1.8346Y3.4764
X1.8346Y3.4094
X1.8346Y3.3425
X1.8346Y3.2559
X1.8346Y3.189
X1.8346Y3.122
X1.8346Y3.0354
X1.8346Y2.9685
X1.8346Y2.9016
X1.8346Y2.815
X1.8346Y2.748
X1.8346Y2.6811
X1.8346Y2.5945
X1.8346Y2.5276
X1.8346Y2.4606
X1.8346Y2.374
X1.8346Y2.3071
X1.8346Y2.2402
X1.8346Y2.1535
X1.8346Y2.0866
X1.8346Y2.0197
X1.8346Y1.5512
X1.8346Y1.4843
X1.8346Y1.4173
X1.8346Y1.3307
X1.8346Y1.2638
X1.8346Y1.1969
X1.8346Y1.1102
X1.8346Y1.0433
X1.8346Y0.9764
X1.8346Y0.8898
X1.8346Y0.8228
X1.8346Y0.7559
X1.8346Y0.6693
X1.8346Y0.6024
X1.8346Y0.5354
X1.8346Y0.4488
X1.8346Y0.3819
X1.8346Y0.315
X1.8346Y0.2283
X1.8346Y0.1614
X1.8346Y0.0945
X1.8937Y4.1378
X1.8937Y4.0709
X1.8937Y4.0039
X1.8937Y3.9173
X1.8937Y3.8504
X1.8937Y3.7835
X1.8937Y3.6969
X1.8937Y3.6299
X1.8937Y3.563
X1.8937Y3.4764
X1.8937Y3.4094
X1.8937Y3.3425
X1.8937Y3.2559
X1.8937Y3.189
X1.8937Y3.122
X1.8937Y3.0354
X1.8937Y2.9685
X1.8937Y2.9016
X1.8937Y2.815
X1.8937Y2.748
X1.8937Y2.6811
X1.8937Y2.5945
X1.8937Y2.5276
X1.8937Y2.4606
X1.8937Y2.374
X1.8937Y2.3071
X1.8937Y2.2402
X1.8937Y2.1535
X1.8937Y2.0866
X1.8937Y2.0197
X1.8937Y1.5512
X1.8937Y1.4843
X1.8937Y1.4173
X1.8937Y1.3307
X1.8937Y1.2638
X1.8937Y1.1969
X1.8937Y1.1102
X1.8937Y1.0433
X1.8937Y0.9764
X1.8937Y0.8898
X1.8937Y0.8228
X1.8937Y0.7559
X1.8937Y0.6693
X1.8937Y0.6024
X1.8937Y0.5354
X1.8937Y0.4488
X1.8937Y0.3819
X1.8937Y0.315
X1.8937Y0.2283
X1.8937Y0.1614
X1.8937Y0.0945
X2.1181Y4.1378
X2.1181Y4.0709
X2.1181Y4.0039
X2.1181Y3.9173
X2.1181Y3.8504
X2.1181Y3.7835
X2.1181Y3.6969
X2.1181Y3.6299
X2.1181Y3.563
X2.1181Y3.4764
X2.1181Y3.4094
X2.1181Y3.3425
X2.1181Y3.2559
X2.1181Y3.189
X2.1181Y3.122
X2.1181Y3.0354
X2.1181Y2.9685
X2.1181Y2.9016
X2.1181Y2.815
X2.1181Y2.748
X2.1181Y2.6811
X2.1181Y2.5945
X2.1181Y2.5276
X2.1181Y2.4606
X2.1181Y2.374
X2.1181Y2.3071
X2.1181Y2.2402
X2.1181Y2.1535
X2.1181Y2.0866
X2.1181Y2.0197
X2.1181Y1.5512
X2.1181Y1.4843
X2.1181Y1.4173
X2.1181Y1.3307
X2.1181Y1.2638
X2.1181Y1.1969
X2.1181Y1.1102
X2.1181Y1.0433
X2.1181Y0.9764
X2.1181Y0.8898
X2.1181Y0.8228
X2.1181Y0.7559
X2.1181Y0.6693
X2.1181Y0.6024
X2.1181Y0.5354
X2.1181Y0.4488
X2.1181Y0.3819
X2.1181Y0.315
X2.1181Y0.2283
X2.1181Y0.1614
X2.1181Y0.0945
X2.1772Y4.1378
X2.1772Y4.0709
X2.1772Y4.0039
X2.1772Y3.9173
X2.1772Y3.8504
X2.1772Y3.7835
X2.1772Y3.6969
X2.1772Y3.6299
X2.1772Y3.563
X2.1772Y3.4764
X2.1772Y3.4094
X2.1772Y3.3425
X2.1772Y3.2559
X2.1772Y3.189
X2.1772Y3.122
X2.1772Y3.0354
X2.1772Y2.9685
X2.1772Y2.9016
X2.1772Y2.815
X2.1772Y2.748
X2.1772Y2.6811
X2.1772Y2.5945
X2.1772Y2.5276
X2.1772Y2.4606
X2.1772Y2.374
X2.1772Y2.3071
X2.1772Y2.2402
X2.1772Y2.1535
X2.1772Y2.0866
X2.1772Y2.0197
X2.1772Y1.5512
X2.1772Y1.4843
X2.1772Y1.4173
X2.1772Y1.3307
X2.1772Y1.2638
X2.1772Y1.1969
X2.1772Y1.1102
X2.1772Y1.0433
X2.1772Y0.9764
X2.1772Y0.8898
X2.1772Y0.8228
X2.1772Y0.7559
X2.1772Y0.6693
X2.1772Y0.6024
X2.1772Y0.5354
X2.1772Y0.4488
X2.1772Y0.3819
X2.1772Y0.315
X2.1772Y0.2283
X2.1772Y0.1614
X2.1772Y0.0945
X2.4016Y4.1378
X2.4016Y4.0709
X2.4016Y4.0039
X2.4016Y3.9173
X2.4016Y3.8504
X2.4016Y3.7835
X2.4016Y3.6969
X2.4016Y3.6299
X2.4016Y3.563
X2.4016Y3.4764
X2.4016Y3.4094
X2.4016Y3.3425
X2.4016Y3.2559
X2.4016Y3.189
X2.4016Y3.122
X2.4016Y3.0354
X2.4016Y2.9685
X2.4016Y2.9016
X2.4016Y2.815
X2.4016Y2.748
X2.4016Y2.6811
X2.4016Y2.5945
X2.4016Y2.5276
X2.4016Y2.4606
X2.4016Y2.374
X2.4016Y2.3071
X2.4016Y2.2402
X2.4016Y2.1535
X2.4016Y2.0866
X2.4016Y2.0197
X2.4016Y1.5512
X2.4016Y1.4843
X2.4016Y1.4173
X2.4016Y1.3307
X2.4016Y1.2638
X2.4016Y1.1969
X2.4016Y1.1102
X2.4016Y1.0433
X2.4016Y0.9764
X2.4016Y0.8898
X2.4016Y0.8228
X2.4016Y0.7559
X2.4016Y0.6693
X2.4016Y0.6024
X2.4016Y0.5354
X2.4016Y0.4488
X2.4016Y0.3819
X2.4016Y0.315
X2.4016Y0.2283
X2.4016Y0.1614
X2.4016Y0.0945
T3
X-2.3622Y2.1654
X-2.3622Y2.5984
T0
M30
