G04 #@! TF.GenerationSoftware,KiCad,Pcbnew,(5.0.0)*
G04 #@! TF.CreationDate,2019-06-02T07:24:35-07:00*
G04 #@! TF.ProjectId,SSB Cap Board C1 - Rev2,5353422043617020426F617264204331,rev?*
G04 #@! TF.SameCoordinates,Original*
G04 #@! TF.FileFunction,Soldermask,Bot*
G04 #@! TF.FilePolarity,Negative*
%FSLAX46Y46*%
G04 Gerber Fmt 4.6, Leading zero omitted, Abs format (unit mm)*
G04 Created by KiCad (PCBNEW (5.0.0)) date 06/02/19 07:24:35*
%MOMM*%
%LPD*%
G01*
G04 APERTURE LIST*
%ADD10C,2.540000*%
%ADD11R,1.650000X5.400000*%
%ADD12C,6.800000*%
%ADD13C,1.200000*%
G04 APERTURE END LIST*
D10*
G04 #@! TO.C,REF\002A\002A*
X-63200000Y43000000D03*
G04 #@! TD*
G04 #@! TO.C,REF\002A\002A*
X-63200000Y2000000D03*
G04 #@! TD*
G04 #@! TO.C,REF\002A\002A*
X62700000Y45700000D03*
G04 #@! TD*
D11*
G04 #@! TO.C,C452*
X4805000Y4095000D03*
X10505000Y4095000D03*
G04 #@! TD*
G04 #@! TO.C,C453*
X-3995000Y4095000D03*
X-9695000Y4095000D03*
G04 #@! TD*
G04 #@! TO.C,C454*
X17795000Y4105000D03*
X12095000Y4105000D03*
G04 #@! TD*
G04 #@! TO.C,C456*
X3295000Y4105000D03*
X-2405000Y4105000D03*
G04 #@! TD*
G04 #@! TO.C,C446*
X60995000Y4105000D03*
X55295000Y4105000D03*
G04 #@! TD*
G04 #@! TO.C,C449*
X55295000Y9705000D03*
X60995000Y9705000D03*
G04 #@! TD*
G04 #@! TO.C,C451*
X55295000Y15305000D03*
X60995000Y15305000D03*
G04 #@! TD*
G04 #@! TO.C,C438*
X60995000Y20905000D03*
X55295000Y20905000D03*
G04 #@! TD*
G04 #@! TO.C,C410*
X3295000Y15305000D03*
X-2405000Y15305000D03*
G04 #@! TD*
G04 #@! TO.C,C424*
X55295000Y37705000D03*
X60995000Y37705000D03*
G04 #@! TD*
G04 #@! TO.C,C411*
X60995000Y26505000D03*
X55295000Y26505000D03*
G04 #@! TD*
G04 #@! TO.C,C412*
X53805000Y15295000D03*
X48105000Y15295000D03*
G04 #@! TD*
G04 #@! TO.C,C413*
X4805000Y15295000D03*
X10505000Y15295000D03*
G04 #@! TD*
G04 #@! TO.C,C414*
X55295000Y53005000D03*
X60995000Y53005000D03*
G04 #@! TD*
G04 #@! TO.C,C415*
X60995000Y32105000D03*
X55295000Y32105000D03*
G04 #@! TD*
G04 #@! TO.C,C416*
X40895000Y15305000D03*
X46595000Y15305000D03*
G04 #@! TD*
G04 #@! TO.C,C417*
X17795000Y15305000D03*
X12095000Y15305000D03*
G04 #@! TD*
G04 #@! TO.C,C418*
X55295000Y58605000D03*
X60995000Y58605000D03*
G04 #@! TD*
G04 #@! TO.C,C419*
X60995000Y81005000D03*
X55295000Y81005000D03*
G04 #@! TD*
G04 #@! TO.C,C420*
X39405000Y15295000D03*
X33705000Y15295000D03*
G04 #@! TD*
G04 #@! TO.C,C421*
X32195000Y15305000D03*
X26495000Y15305000D03*
G04 #@! TD*
G04 #@! TO.C,C423*
X55295000Y64205000D03*
X60995000Y64205000D03*
G04 #@! TD*
G04 #@! TO.C,C426*
X55295000Y86605000D03*
X60995000Y86605000D03*
G04 #@! TD*
G04 #@! TO.C,C427*
X19305000Y15295000D03*
X25005000Y15295000D03*
G04 #@! TD*
G04 #@! TO.C,C428*
X55295000Y69805000D03*
X60995000Y69805000D03*
G04 #@! TD*
G04 #@! TO.C,C429*
X60995000Y92205000D03*
X55295000Y92205000D03*
G04 #@! TD*
G04 #@! TO.C,C432*
X55295000Y75405000D03*
X60995000Y75405000D03*
G04 #@! TD*
G04 #@! TO.C,C433*
X60995000Y97805000D03*
X55295000Y97805000D03*
G04 #@! TD*
G04 #@! TO.C,C405*
X55295000Y103405000D03*
X60995000Y103405000D03*
G04 #@! TD*
G04 #@! TO.C,C195*
X-45705000Y32105000D03*
X-40005000Y32105000D03*
G04 #@! TD*
G04 #@! TO.C,C369*
X3295000Y37705000D03*
X-2405000Y37705000D03*
G04 #@! TD*
G04 #@! TO.C,C194*
X48105000Y92195000D03*
X53805000Y92195000D03*
G04 #@! TD*
G04 #@! TO.C,C193*
X53805000Y97795000D03*
X48105000Y97795000D03*
G04 #@! TD*
G04 #@! TO.C,C196*
X53805000Y103395000D03*
X48105000Y103395000D03*
G04 #@! TD*
G04 #@! TO.C,C197*
X-16905000Y32105000D03*
X-11205000Y32105000D03*
G04 #@! TD*
G04 #@! TO.C,C198*
X-38495000Y32095000D03*
X-32795000Y32095000D03*
G04 #@! TD*
G04 #@! TO.C,C199*
X48105000Y9695000D03*
X53805000Y9695000D03*
G04 #@! TD*
G04 #@! TO.C,C200*
X53805000Y32095000D03*
X48105000Y32095000D03*
G04 #@! TD*
G04 #@! TO.C,C191*
X-31305000Y32105000D03*
X-25605000Y32105000D03*
G04 #@! TD*
G04 #@! TO.C,C192*
X25005000Y32095000D03*
X19305000Y32095000D03*
G04 #@! TD*
G04 #@! TO.C,C394*
X-52895000Y32095000D03*
X-47195000Y32095000D03*
G04 #@! TD*
G04 #@! TO.C,C391*
X39405000Y20895000D03*
X33705000Y20895000D03*
G04 #@! TD*
G04 #@! TO.C,C393*
X-52895000Y26295000D03*
X-47195000Y26295000D03*
G04 #@! TD*
G04 #@! TO.C,C395*
X26495000Y20942000D03*
X32195000Y20942000D03*
G04 #@! TD*
G04 #@! TO.C,C396*
X-3995000Y32095000D03*
X-9695000Y32095000D03*
G04 #@! TD*
G04 #@! TO.C,C397*
X40895000Y32105000D03*
X46595000Y32105000D03*
G04 #@! TD*
G04 #@! TO.C,C398*
X-2405000Y32105000D03*
X3295000Y32105000D03*
G04 #@! TD*
G04 #@! TO.C,C399*
X-47195000Y37695000D03*
X-52895000Y37695000D03*
G04 #@! TD*
G04 #@! TO.C,C400*
X32195000Y32105000D03*
X26495000Y32105000D03*
G04 #@! TD*
G04 #@! TO.C,C401*
X10505000Y32095000D03*
X4805000Y32095000D03*
G04 #@! TD*
G04 #@! TO.C,C402*
X17795000Y32105000D03*
X12095000Y32105000D03*
G04 #@! TD*
G04 #@! TO.C,C403*
X39405000Y32095000D03*
X33705000Y32095000D03*
G04 #@! TD*
G04 #@! TO.C,C404*
X-18395000Y32095000D03*
X-24095000Y32095000D03*
G04 #@! TD*
G04 #@! TO.C,C392*
X53805000Y20895000D03*
X48105000Y20895000D03*
G04 #@! TD*
G04 #@! TO.C,C342*
X26495000Y69805000D03*
X32195000Y69805000D03*
G04 #@! TD*
G04 #@! TO.C,C341*
X25005000Y9695000D03*
X19305000Y9695000D03*
G04 #@! TD*
G04 #@! TO.C,C339*
X39465000Y69795000D03*
X33765000Y69795000D03*
G04 #@! TD*
G04 #@! TO.C,C338*
X46595000Y9705000D03*
X40895000Y9705000D03*
G04 #@! TD*
G04 #@! TO.C,C337*
X-11205000Y15305000D03*
X-16905000Y15305000D03*
G04 #@! TD*
G04 #@! TO.C,C336*
X39405000Y92195000D03*
X33705000Y92195000D03*
G04 #@! TD*
G04 #@! TO.C,C335*
X25005000Y69795000D03*
X19305000Y69795000D03*
G04 #@! TD*
G04 #@! TO.C,C334*
X25005000Y103395000D03*
X19305000Y103395000D03*
G04 #@! TD*
G04 #@! TO.C,C376*
X39405000Y64195000D03*
X33705000Y64195000D03*
G04 #@! TD*
G04 #@! TO.C,C328*
X-54405000Y15305000D03*
X-60105000Y15305000D03*
G04 #@! TD*
G04 #@! TO.C,C327*
X-52895000Y97795000D03*
X-47195000Y97795000D03*
G04 #@! TD*
G04 #@! TO.C,C326*
X-9695000Y15295000D03*
X-3995000Y15295000D03*
G04 #@! TD*
G04 #@! TO.C,C325*
X25005000Y64195000D03*
X19305000Y64195000D03*
G04 #@! TD*
G04 #@! TO.C,C324*
X25005000Y97795000D03*
X19305000Y97795000D03*
G04 #@! TD*
G04 #@! TO.C,C323*
X32195000Y9705000D03*
X26495000Y9705000D03*
G04 #@! TD*
G04 #@! TO.C,C322*
X40895000Y58605000D03*
X46595000Y58605000D03*
G04 #@! TD*
G04 #@! TO.C,C321*
X39405000Y58595000D03*
X33705000Y58595000D03*
G04 #@! TD*
G04 #@! TO.C,C320*
X17795000Y20905000D03*
X12095000Y20905000D03*
G04 #@! TD*
G04 #@! TO.C,C319*
X-52895000Y92195000D03*
X-47195000Y92195000D03*
G04 #@! TD*
G04 #@! TO.C,C318*
X46595000Y75405000D03*
X40895000Y75405000D03*
G04 #@! TD*
G04 #@! TO.C,C317*
X39405000Y80995000D03*
X33705000Y80995000D03*
G04 #@! TD*
G04 #@! TO.C,C316*
X25005000Y58595000D03*
X19305000Y58595000D03*
G04 #@! TD*
G04 #@! TO.C,C331*
X25005000Y92195000D03*
X19305000Y92195000D03*
G04 #@! TD*
G04 #@! TO.C,C330*
X40895000Y53005000D03*
X46595000Y53005000D03*
G04 #@! TD*
G04 #@! TO.C,C329*
X-24095000Y103395000D03*
X-18395000Y103395000D03*
G04 #@! TD*
G04 #@! TO.C,C374*
X39405000Y52995000D03*
X33705000Y52995000D03*
G04 #@! TD*
G04 #@! TO.C,C373*
X3295000Y20905000D03*
X-2405000Y20905000D03*
G04 #@! TD*
G04 #@! TO.C,C372*
X-52895000Y86595000D03*
X-47195000Y86595000D03*
G04 #@! TD*
G04 #@! TO.C,C371*
X4805000Y92195000D03*
X10505000Y92195000D03*
G04 #@! TD*
G04 #@! TO.C,C370*
X25005000Y37695000D03*
X19305000Y37695000D03*
G04 #@! TD*
G04 #@! TO.C,C368*
X-9695000Y103395000D03*
X-3995000Y103395000D03*
G04 #@! TD*
G04 #@! TO.C,C367*
X25005000Y52995000D03*
X19305000Y52995000D03*
G04 #@! TD*
G04 #@! TO.C,C366*
X25005000Y86595000D03*
X19305000Y86595000D03*
G04 #@! TD*
G04 #@! TO.C,C365*
X26495000Y37705000D03*
X32195000Y37705000D03*
G04 #@! TD*
G04 #@! TO.C,C364*
X-24095000Y97795000D03*
X-18395000Y97795000D03*
G04 #@! TD*
G04 #@! TO.C,C346*
X-11205000Y20905000D03*
X-16905000Y20905000D03*
G04 #@! TD*
G04 #@! TO.C,C344*
X-52895000Y80995000D03*
X-47195000Y80995000D03*
G04 #@! TD*
G04 #@! TO.C,C359*
X4805000Y86595000D03*
X10505000Y86595000D03*
G04 #@! TD*
G04 #@! TO.C,C358*
X3295000Y53005000D03*
X-2405000Y53005000D03*
G04 #@! TD*
G04 #@! TO.C,C357*
X-9695000Y97795000D03*
X-3995000Y97795000D03*
G04 #@! TD*
G04 #@! TO.C,C356*
X39405000Y75395000D03*
X33705000Y75395000D03*
G04 #@! TD*
G04 #@! TO.C,C355*
X26495000Y81005000D03*
X32195000Y81005000D03*
G04 #@! TD*
G04 #@! TO.C,C354*
X25005000Y80995000D03*
X19305000Y80995000D03*
G04 #@! TD*
G04 #@! TO.C,C353*
X26495000Y53005000D03*
X32195000Y53005000D03*
G04 #@! TD*
G04 #@! TO.C,C352*
X-24095000Y92195000D03*
X-18395000Y92195000D03*
G04 #@! TD*
G04 #@! TO.C,C351*
X39405000Y37695000D03*
X33705000Y37695000D03*
G04 #@! TD*
G04 #@! TO.C,C350*
X-25605000Y20905000D03*
X-31305000Y20905000D03*
G04 #@! TD*
G04 #@! TO.C,C349*
X-52895000Y75395000D03*
X-47195000Y75395000D03*
G04 #@! TD*
G04 #@! TO.C,C348*
X4805000Y80995000D03*
X10505000Y80995000D03*
G04 #@! TD*
G04 #@! TO.C,C347*
X3295000Y58605000D03*
X-2405000Y58605000D03*
G04 #@! TD*
G04 #@! TO.C,C362*
X-9695000Y92195000D03*
X-3995000Y92195000D03*
G04 #@! TD*
G04 #@! TO.C,C361*
X-11205000Y37705000D03*
X-16905000Y37705000D03*
G04 #@! TD*
G04 #@! TO.C,C360*
X39405000Y9695000D03*
X33705000Y9695000D03*
G04 #@! TD*
G04 #@! TO.C,C279*
X-54405000Y103405000D03*
X-60105000Y103405000D03*
G04 #@! TD*
G04 #@! TO.C,C278*
X4805000Y75395000D03*
X10505000Y75395000D03*
G04 #@! TD*
G04 #@! TO.C,C277*
X-9695000Y80995000D03*
X-3995000Y80995000D03*
G04 #@! TD*
G04 #@! TO.C,C276*
X4805000Y103395000D03*
X10505000Y103395000D03*
G04 #@! TD*
G04 #@! TO.C,C274*
X46595000Y86605000D03*
X40895000Y86605000D03*
G04 #@! TD*
G04 #@! TO.C,C272*
X19305000Y20895000D03*
X25005000Y20895000D03*
G04 #@! TD*
G04 #@! TO.C,C271*
X4805000Y58595000D03*
X10505000Y58595000D03*
G04 #@! TD*
G04 #@! TO.C,C270*
X3295000Y81005000D03*
X-2405000Y81005000D03*
G04 #@! TD*
G04 #@! TO.C,C269*
X-9695000Y69795000D03*
X-3995000Y69795000D03*
G04 #@! TD*
G04 #@! TO.C,C315*
X-11205000Y69805000D03*
X-16905000Y69805000D03*
G04 #@! TD*
G04 #@! TO.C,C267*
X-52895000Y103395000D03*
X-47195000Y103395000D03*
G04 #@! TD*
G04 #@! TO.C,C312*
X3295000Y103405000D03*
X-2405000Y103405000D03*
G04 #@! TD*
G04 #@! TO.C,C263*
X-11205000Y81005000D03*
X-16905000Y81005000D03*
G04 #@! TD*
G04 #@! TO.C,C256*
X46595000Y69805000D03*
X40895000Y69805000D03*
G04 #@! TD*
G04 #@! TO.C,C255*
X-24095000Y15295000D03*
X-18395000Y15295000D03*
G04 #@! TD*
G04 #@! TO.C,C254*
X3295000Y97805000D03*
X-2405000Y97805000D03*
G04 #@! TD*
G04 #@! TO.C,C253*
X-9695000Y52995000D03*
X-3995000Y52995000D03*
G04 #@! TD*
G04 #@! TO.C,C268*
X-11205000Y86605000D03*
X-16905000Y86605000D03*
G04 #@! TD*
G04 #@! TO.C,C266*
X19305000Y26495000D03*
X25005000Y26495000D03*
G04 #@! TD*
G04 #@! TO.C,C307*
X-9695000Y9695000D03*
X-3995000Y9695000D03*
G04 #@! TD*
G04 #@! TO.C,C306*
X-9695000Y37695000D03*
X-3995000Y37695000D03*
G04 #@! TD*
G04 #@! TO.C,C305*
X-11205000Y92205000D03*
X-16905000Y92205000D03*
G04 #@! TD*
G04 #@! TO.C,C303*
X-24095000Y4095000D03*
X-18395000Y4095000D03*
G04 #@! TD*
G04 #@! TO.C,C301*
X32195000Y26505000D03*
X26495000Y26505000D03*
G04 #@! TD*
G04 #@! TO.C,C297*
X46595000Y81005000D03*
X40895000Y81005000D03*
G04 #@! TD*
G04 #@! TO.C,C280*
X-11205000Y97805000D03*
X-16905000Y97805000D03*
G04 #@! TD*
G04 #@! TO.C,C293*
X46595000Y26505000D03*
X40895000Y26505000D03*
G04 #@! TD*
G04 #@! TO.C,C290*
X4805000Y97795000D03*
X10505000Y97795000D03*
G04 #@! TD*
G04 #@! TO.C,C288*
X-11205000Y103405000D03*
X-16905000Y103405000D03*
G04 #@! TD*
G04 #@! TO.C,C281*
X-38495000Y15295000D03*
X-32795000Y15295000D03*
G04 #@! TD*
G04 #@! TO.C,C296*
X19305000Y4095000D03*
X25005000Y4095000D03*
G04 #@! TD*
G04 #@! TO.C,C375*
X-52895000Y15295000D03*
X-47195000Y15295000D03*
G04 #@! TD*
G04 #@! TO.C,C389*
X46595000Y4105000D03*
X40895000Y4105000D03*
G04 #@! TD*
G04 #@! TO.C,C387*
X-54405000Y32105000D03*
X-60105000Y32105000D03*
G04 #@! TD*
G04 #@! TO.C,C386*
X-54405000Y26405000D03*
X-60105000Y26405000D03*
G04 #@! TD*
G04 #@! TO.C,C382*
X-54405000Y37705000D03*
X-60105000Y37705000D03*
G04 #@! TD*
G04 #@! TO.C,C378*
X-40005000Y15305000D03*
X-45705000Y15305000D03*
G04 #@! TD*
G04 #@! TO.C,C91*
X-40005000Y26505000D03*
X-45705000Y26505000D03*
G04 #@! TD*
G04 #@! TO.C,C89*
X-24095000Y26495000D03*
X-18395000Y26495000D03*
G04 #@! TD*
G04 #@! TO.C,C69*
X17795000Y86605000D03*
X12095000Y86605000D03*
G04 #@! TD*
G04 #@! TO.C,C68*
X48105000Y86595000D03*
X53805000Y86595000D03*
G04 #@! TD*
G04 #@! TO.C,C67*
X40895000Y92205000D03*
X46595000Y92205000D03*
G04 #@! TD*
G04 #@! TO.C,C66*
X-18395000Y64195000D03*
X-24095000Y64195000D03*
G04 #@! TD*
G04 #@! TO.C,C65*
X17795000Y37705000D03*
X12095000Y37705000D03*
G04 #@! TD*
G04 #@! TO.C,C252*
X48105000Y58595000D03*
X53805000Y58595000D03*
G04 #@! TD*
G04 #@! TO.C,C79*
X-25605000Y37705000D03*
X-31305000Y37705000D03*
G04 #@! TD*
G04 #@! TO.C,C124*
X-40005000Y37705000D03*
X-45705000Y37705000D03*
G04 #@! TD*
G04 #@! TO.C,C123*
X-38495000Y92195000D03*
X-32795000Y92195000D03*
G04 #@! TD*
G04 #@! TO.C,C122*
X46595000Y64205000D03*
X40895000Y64205000D03*
G04 #@! TD*
G04 #@! TO.C,C121*
X17795000Y103415470D03*
X12095000Y103415470D03*
G04 #@! TD*
G04 #@! TO.C,C120*
X-40005000Y4105000D03*
X-45705000Y4105000D03*
G04 #@! TD*
G04 #@! TO.C,C118*
X-54405000Y20905000D03*
X-60105000Y20905000D03*
G04 #@! TD*
G04 #@! TO.C,C117*
X-25605000Y92205000D03*
X-31305000Y92205000D03*
G04 #@! TD*
G04 #@! TO.C,C116*
X-25605000Y53005000D03*
X-31305000Y53005000D03*
G04 #@! TD*
G04 #@! TO.C,C115*
X-40005000Y53005000D03*
X-45705000Y53005000D03*
G04 #@! TD*
G04 #@! TO.C,C114*
X-38495000Y86595000D03*
X-32795000Y86595000D03*
G04 #@! TD*
G04 #@! TO.C,C112*
X-25605000Y81005000D03*
X-31305000Y81005000D03*
G04 #@! TD*
G04 #@! TO.C,C111*
X-40005000Y81005000D03*
X-45705000Y81005000D03*
G04 #@! TD*
G04 #@! TO.C,C159*
X-38495000Y58595000D03*
X-32795000Y58595000D03*
G04 #@! TD*
G04 #@! TO.C,C109*
X17795000Y75405000D03*
X12095000Y75405000D03*
G04 #@! TD*
G04 #@! TO.C,C107*
X-18395000Y58595000D03*
X-24095000Y58595000D03*
G04 #@! TD*
G04 #@! TO.C,C104*
X-18395000Y37695000D03*
X-24095000Y37695000D03*
G04 #@! TD*
G04 #@! TO.C,C103*
X-25605000Y103405000D03*
X-31305000Y103405000D03*
G04 #@! TD*
G04 #@! TO.C,C102*
X-25605000Y64205000D03*
X-31305000Y64205000D03*
G04 #@! TD*
G04 #@! TO.C,C101*
X-40005000Y64205000D03*
X-45705000Y64205000D03*
G04 #@! TD*
G04 #@! TO.C,C100*
X-38495000Y75395000D03*
X-32795000Y75395000D03*
G04 #@! TD*
G04 #@! TO.C,C99*
X17795000Y58605000D03*
X12095000Y58605000D03*
G04 #@! TD*
G04 #@! TO.C,C98*
X-40005000Y103405000D03*
X-45705000Y103405000D03*
G04 #@! TD*
G04 #@! TO.C,C97*
X-38495000Y4095000D03*
X-32795000Y4095000D03*
G04 #@! TD*
G04 #@! TO.C,C95*
X46595000Y20905000D03*
X40895000Y20905000D03*
G04 #@! TD*
G04 #@! TO.C,C110*
X-25605000Y4105000D03*
X-31305000Y4105000D03*
G04 #@! TD*
G04 #@! TO.C,C29*
X-11205000Y9705000D03*
X-16905000Y9705000D03*
G04 #@! TD*
G04 #@! TO.C,C28*
X-18395000Y69795000D03*
X-24095000Y69795000D03*
G04 #@! TD*
G04 #@! TO.C,C27*
X-32795000Y103395000D03*
X-38495000Y103395000D03*
G04 #@! TD*
G04 #@! TO.C,C26*
X46595000Y97805000D03*
X40895000Y97805000D03*
G04 #@! TD*
G04 #@! TO.C,C25*
X48105000Y52995000D03*
X53805000Y52995000D03*
G04 #@! TD*
G04 #@! TO.C,C24*
X-38495000Y97795000D03*
X-32795000Y97795000D03*
G04 #@! TD*
G04 #@! TO.C,C23*
X-11205000Y4105000D03*
X-16905000Y4105000D03*
G04 #@! TD*
G04 #@! TO.C,C22*
X-38495000Y20895000D03*
X-32795000Y20895000D03*
G04 #@! TD*
G04 #@! TO.C,C21*
X3295000Y9705000D03*
X-2405000Y9705000D03*
G04 #@! TD*
G04 #@! TO.C,C20*
X-40005000Y69805000D03*
X-45705000Y69805000D03*
G04 #@! TD*
G04 #@! TO.C,C19*
X-38495000Y69795000D03*
X-32795000Y69795000D03*
G04 #@! TD*
G04 #@! TO.C,C18*
X17795000Y64205000D03*
X12095000Y64205000D03*
G04 #@! TD*
G04 #@! TO.C,C64*
X-40005000Y9705000D03*
X-45705000Y9705000D03*
G04 #@! TD*
G04 #@! TO.C,C16*
X-40005000Y20905000D03*
X-45705000Y20905000D03*
G04 #@! TD*
G04 #@! TO.C,C2*
X-38495000Y26495000D03*
X-32795000Y26495000D03*
G04 #@! TD*
G04 #@! TO.C,C5*
X-24095000Y9695000D03*
X-18395000Y9695000D03*
G04 #@! TD*
G04 #@! TO.C,C6*
X-25605000Y75405000D03*
X-31305000Y75405000D03*
G04 #@! TD*
G04 #@! TO.C,C7*
X-40005000Y75405000D03*
X-45705000Y75405000D03*
G04 #@! TD*
G04 #@! TO.C,C8*
X-38495000Y64195000D03*
X-32795000Y64195000D03*
G04 #@! TD*
G04 #@! TO.C,C9*
X17795000Y69805000D03*
X12095000Y69805000D03*
G04 #@! TD*
G04 #@! TO.C,C10*
X33705000Y4095000D03*
X39405000Y4095000D03*
G04 #@! TD*
G04 #@! TO.C,C11*
X-52895000Y20895000D03*
X-47195000Y20895000D03*
G04 #@! TD*
G04 #@! TO.C,C17*
X26495000Y86605000D03*
X32195000Y86605000D03*
G04 #@! TD*
G04 #@! TO.C,C58*
X-25605000Y86605000D03*
X-31305000Y86605000D03*
G04 #@! TD*
G04 #@! TO.C,C57*
X-38495000Y37695000D03*
X-32795000Y37695000D03*
G04 #@! TD*
G04 #@! TO.C,C56*
X-40005000Y86605000D03*
X-45705000Y86605000D03*
G04 #@! TD*
G04 #@! TO.C,C55*
X-38495000Y52995000D03*
X-32795000Y52995000D03*
G04 #@! TD*
G04 #@! TO.C,C54*
X17795000Y81005000D03*
X12095000Y81005000D03*
G04 #@! TD*
G04 #@! TO.C,C53*
X33705000Y26495000D03*
X39405000Y26495000D03*
G04 #@! TD*
G04 #@! TO.C,C52*
X-25605000Y9705000D03*
X-31305000Y9705000D03*
G04 #@! TD*
G04 #@! TO.C,C47*
X4805000Y26495000D03*
X10505000Y26495000D03*
G04 #@! TD*
G04 #@! TO.C,C30*
X-40005000Y92205000D03*
X-45705000Y92205000D03*
G04 #@! TD*
G04 #@! TO.C,C43*
X48105000Y75395000D03*
X53805000Y75395000D03*
G04 #@! TD*
G04 #@! TO.C,C42*
X-25605000Y69805000D03*
X-31305000Y69805000D03*
G04 #@! TD*
G04 #@! TO.C,C41*
X48105000Y26495000D03*
X53805000Y26495000D03*
G04 #@! TD*
G04 #@! TO.C,C218*
X-9695000Y58595000D03*
X-3995000Y58595000D03*
G04 #@! TD*
G04 #@! TO.C,C217*
X3295000Y92205000D03*
X-2405000Y92205000D03*
G04 #@! TD*
G04 #@! TO.C,C216*
X4805000Y37695000D03*
X10505000Y37695000D03*
G04 #@! TD*
G04 #@! TO.C,C214*
X48105000Y37695000D03*
X53805000Y37695000D03*
G04 #@! TD*
G04 #@! TO.C,C211*
X32195000Y4105000D03*
X26495000Y4105000D03*
G04 #@! TD*
G04 #@! TO.C,C210*
X-32795000Y9695000D03*
X-38495000Y9695000D03*
G04 #@! TD*
G04 #@! TO.C,C208*
X-11205000Y75405000D03*
X-16905000Y75405000D03*
G04 #@! TD*
G04 #@! TO.C,C207*
X-9695000Y64195000D03*
X-3995000Y64195000D03*
G04 #@! TD*
G04 #@! TO.C,C206*
X3295000Y86605000D03*
X-2405000Y86605000D03*
G04 #@! TD*
G04 #@! TO.C,C205*
X4805000Y52995000D03*
X10505000Y52995000D03*
G04 #@! TD*
G04 #@! TO.C,C202*
X-54405000Y97805000D03*
X-60105000Y97805000D03*
G04 #@! TD*
G04 #@! TO.C,C204*
X39405000Y97795000D03*
X33705000Y97795000D03*
G04 #@! TD*
G04 #@! TO.C,C250*
X-52895000Y9695000D03*
X-47195000Y9695000D03*
G04 #@! TD*
G04 #@! TO.C,C249*
X-11205000Y64205000D03*
X-16905000Y64205000D03*
G04 #@! TD*
G04 #@! TO.C,C248*
X-9695000Y75395000D03*
X-3995000Y75395000D03*
G04 #@! TD*
G04 #@! TO.C,C247*
X3295000Y75405000D03*
X-2405000Y75405000D03*
G04 #@! TD*
G04 #@! TO.C,C246*
X4805000Y64195000D03*
X10505000Y64195000D03*
G04 #@! TD*
G04 #@! TO.C,C245*
X4805000Y20895000D03*
X10505000Y20895000D03*
G04 #@! TD*
G04 #@! TO.C,C244*
X-54405000Y86605000D03*
X-60105000Y86605000D03*
G04 #@! TD*
G04 #@! TO.C,C242*
X4805000Y9695000D03*
X10505000Y9695000D03*
G04 #@! TD*
G04 #@! TO.C,C241*
X-24095000Y75395000D03*
X-18395000Y75395000D03*
G04 #@! TD*
G04 #@! TO.C,C240*
X39405000Y103395000D03*
X33705000Y103395000D03*
G04 #@! TD*
G04 #@! TO.C,C239*
X32195000Y97805000D03*
X26495000Y97805000D03*
G04 #@! TD*
G04 #@! TO.C,C238*
X-11205000Y58605000D03*
X-16905000Y58605000D03*
G04 #@! TD*
G04 #@! TO.C,C219*
X3295000Y69805000D03*
X-2405000Y69805000D03*
G04 #@! TD*
G04 #@! TO.C,C235*
X4805000Y69795000D03*
X10505000Y69795000D03*
G04 #@! TD*
G04 #@! TO.C,C234*
X-9695000Y20895000D03*
X-3995000Y20895000D03*
G04 #@! TD*
G04 #@! TO.C,C233*
X-54405000Y81005000D03*
X-60105000Y81005000D03*
G04 #@! TD*
G04 #@! TO.C,C232*
X32195000Y103405000D03*
X26495000Y103405000D03*
G04 #@! TD*
G04 #@! TO.C,C231*
X-24095000Y80995000D03*
X-18395000Y80995000D03*
G04 #@! TD*
G04 #@! TO.C,C230*
X-54405000Y92205000D03*
X-60105000Y92205000D03*
G04 #@! TD*
G04 #@! TO.C,C229*
X26495000Y58605000D03*
X32195000Y58605000D03*
G04 #@! TD*
G04 #@! TO.C,C228*
X-24095000Y86595000D03*
X-18395000Y86595000D03*
G04 #@! TD*
G04 #@! TO.C,C227*
X40895000Y37705000D03*
X46595000Y37705000D03*
G04 #@! TD*
G04 #@! TO.C,C226*
X-54405000Y75405000D03*
X-60105000Y75405000D03*
G04 #@! TD*
G04 #@! TO.C,C225*
X-24095000Y20895000D03*
X-18395000Y20895000D03*
G04 #@! TD*
G04 #@! TO.C,C224*
X3295000Y64205000D03*
X-2405000Y64205000D03*
G04 #@! TD*
G04 #@! TO.C,C223*
X-9695000Y86595000D03*
X-3995000Y86595000D03*
G04 #@! TD*
G04 #@! TO.C,C222*
X-11205000Y53005000D03*
X-16905000Y53005000D03*
G04 #@! TD*
G04 #@! TO.C,C237*
X-54405000Y9705000D03*
X-60105000Y9705000D03*
G04 #@! TD*
G04 #@! TO.C,C220*
X26495000Y64205000D03*
X32195000Y64205000D03*
G04 #@! TD*
G04 #@! TO.C,C151*
X46595000Y103405000D03*
X40895000Y103405000D03*
G04 #@! TD*
G04 #@! TO.C,C150*
X17795000Y97805000D03*
X12095000Y97805000D03*
G04 #@! TD*
G04 #@! TO.C,C140*
X-9695000Y26495000D03*
X-3995000Y26495000D03*
G04 #@! TD*
G04 #@! TO.C,C132*
X48105000Y80995000D03*
X53805000Y80995000D03*
G04 #@! TD*
G04 #@! TO.C,C131*
X17795000Y26505000D03*
X12095000Y26505000D03*
G04 #@! TD*
G04 #@! TO.C,C130*
X17795000Y92205000D03*
X12095000Y92205000D03*
G04 #@! TD*
G04 #@! TO.C,C129*
X17795000Y9705000D03*
X12095000Y9705000D03*
G04 #@! TD*
G04 #@! TO.C,C128*
X-25605000Y15305000D03*
X-31305000Y15305000D03*
G04 #@! TD*
G04 #@! TO.C,C127*
X-52895000Y4095000D03*
X-47195000Y4095000D03*
G04 #@! TD*
G04 #@! TO.C,C141*
X-18395000Y52995000D03*
X-24095000Y52995000D03*
G04 #@! TD*
G04 #@! TO.C,C187*
X-25605000Y97805000D03*
X-31305000Y97805000D03*
G04 #@! TD*
G04 #@! TO.C,C186*
X-25605000Y58605000D03*
X-31305000Y58605000D03*
G04 #@! TD*
G04 #@! TO.C,C185*
X-40005000Y58605000D03*
X-45705000Y58605000D03*
G04 #@! TD*
G04 #@! TO.C,C184*
X-38495000Y80995000D03*
X-32795000Y80995000D03*
G04 #@! TD*
G04 #@! TO.C,C183*
X17795000Y53005000D03*
X12095000Y53005000D03*
G04 #@! TD*
G04 #@! TO.C,C182*
X-40005000Y97805000D03*
X-45705000Y97805000D03*
G04 #@! TD*
G04 #@! TO.C,C181*
X26495000Y92205000D03*
X32195000Y92205000D03*
G04 #@! TD*
G04 #@! TO.C,C180*
X48105000Y64195000D03*
X53805000Y64195000D03*
G04 #@! TD*
G04 #@! TO.C,C178*
X-11205000Y26505000D03*
X-16905000Y26505000D03*
G04 #@! TD*
G04 #@! TO.C,C176*
X48105000Y4095000D03*
X53805000Y4095000D03*
G04 #@! TD*
G04 #@! TO.C,C221*
X39405000Y86595000D03*
X33705000Y86595000D03*
G04 #@! TD*
G04 #@! TO.C,C157*
X3295000Y26505000D03*
X-2405000Y26505000D03*
G04 #@! TD*
G04 #@! TO.C,C168*
X-25605000Y26505000D03*
X-31305000Y26505000D03*
G04 #@! TD*
G04 #@! TO.C,C167*
X48105000Y69795000D03*
X53805000Y69795000D03*
G04 #@! TD*
G04 #@! TO.C,C345*
X26495000Y75405000D03*
X32195000Y75405000D03*
G04 #@! TD*
G04 #@! TO.C,C236*
X25005000Y75395000D03*
X19305000Y75395000D03*
G04 #@! TD*
G04 #@! TO.C,C173*
X-54405000Y4105000D03*
X-60105000Y4105000D03*
G04 #@! TD*
D12*
G04 #@! TO.C,TP1*
X-60000000Y55000000D03*
D13*
X-57600000Y55000000D03*
X-58302944Y53302944D03*
X-60000000Y52600000D03*
X-61697056Y53302944D03*
X-62400000Y55000000D03*
X-61697056Y56697056D03*
X-60000000Y57400000D03*
X-58302944Y56697056D03*
G04 #@! TD*
D12*
G04 #@! TO.C,TP2*
X-60000000Y66000000D03*
D13*
X-57600000Y66000000D03*
X-58302944Y64302944D03*
X-60000000Y63600000D03*
X-61697056Y64302944D03*
X-62400000Y66000000D03*
X-61697056Y67697056D03*
X-60000000Y68400000D03*
X-58302944Y67697056D03*
G04 #@! TD*
M02*
