G04 #@! TF.GenerationSoftware,KiCad,Pcbnew,(5.0.0)*
G04 #@! TF.CreationDate,2019-06-02T07:24:35-07:00*
G04 #@! TF.ProjectId,SSB Cap Board C1 - Rev2,5353422043617020426F617264204331,rev?*
G04 #@! TF.SameCoordinates,Original*
G04 #@! TF.FileFunction,Copper,L1,Top,Signal*
G04 #@! TF.FilePolarity,Positive*
%FSLAX46Y46*%
G04 Gerber Fmt 4.6, Leading zero omitted, Abs format (unit mm)*
G04 Created by KiCad (PCBNEW (5.0.0)) date 06/02/19 07:24:35*
%MOMM*%
%LPD*%
G01*
G04 APERTURE LIST*
G04 #@! TA.AperFunction,SMDPad,CuDef*
%ADD10R,1.250000X5.000000*%
G04 #@! TD*
G04 #@! TA.AperFunction,ComponentPad*
%ADD11C,6.400000*%
G04 #@! TD*
G04 #@! TA.AperFunction,ComponentPad*
%ADD12C,0.800000*%
G04 #@! TD*
G04 #@! TA.AperFunction,BGAPad,CuDef*
%ADD13C,1.000000*%
G04 #@! TD*
G04 #@! TA.AperFunction,ViaPad*
%ADD14C,0.889000*%
G04 #@! TD*
G04 #@! TA.AperFunction,Conductor*
%ADD15C,0.254000*%
G04 #@! TD*
G04 APERTURE END LIST*
D10*
G04 #@! TO.P,C425,1*
G04 #@! TO.N,/C1+*
X60995000Y80995000D03*
G04 #@! TO.P,C425,2*
G04 #@! TO.N,/C1-*
X55295000Y80995000D03*
G04 #@! TD*
G04 #@! TO.P,C430,2*
G04 #@! TO.N,/C1-*
X55295000Y69795000D03*
G04 #@! TO.P,C430,1*
G04 #@! TO.N,/C1+*
X60995000Y69795000D03*
G04 #@! TD*
G04 #@! TO.P,C431,1*
G04 #@! TO.N,/C1+*
X60995000Y103395000D03*
G04 #@! TO.P,C431,2*
G04 #@! TO.N,/C1-*
X55295000Y103395000D03*
G04 #@! TD*
G04 #@! TO.P,C434,2*
G04 #@! TO.N,/C1-*
X55295000Y64195000D03*
G04 #@! TO.P,C434,1*
G04 #@! TO.N,/C1+*
X60995000Y64195000D03*
G04 #@! TD*
G04 #@! TO.P,C435,1*
G04 #@! TO.N,/C1+*
X60995000Y97795000D03*
G04 #@! TO.P,C435,2*
G04 #@! TO.N,/C1-*
X55295000Y97795000D03*
G04 #@! TD*
G04 #@! TO.P,C406,1*
G04 #@! TO.N,/C1+*
X60995000Y58595000D03*
G04 #@! TO.P,C406,2*
G04 #@! TO.N,/C1-*
X55295000Y58595000D03*
G04 #@! TD*
G04 #@! TO.P,C407,2*
G04 #@! TO.N,/C1-*
X55295000Y92195000D03*
G04 #@! TO.P,C407,1*
G04 #@! TO.N,/C1+*
X60995000Y92195000D03*
G04 #@! TD*
G04 #@! TO.P,C408,1*
G04 #@! TO.N,/C1+*
X60995000Y52995000D03*
G04 #@! TO.P,C408,2*
G04 #@! TO.N,/C1-*
X55295000Y52995000D03*
G04 #@! TD*
G04 #@! TO.P,C409,2*
G04 #@! TO.N,/C1-*
X55295000Y86595000D03*
G04 #@! TO.P,C409,1*
G04 #@! TO.N,/C1+*
X60995000Y86595000D03*
G04 #@! TD*
G04 #@! TO.P,C422,1*
G04 #@! TO.N,/C1+*
X60995000Y75395000D03*
G04 #@! TO.P,C422,2*
G04 #@! TO.N,/C1-*
X55295000Y75395000D03*
G04 #@! TD*
G04 #@! TO.P,C343,1*
G04 #@! TO.N,/C1+*
X-24095000Y75405000D03*
G04 #@! TO.P,C343,2*
G04 #@! TO.N,/C1-*
X-18395000Y75405000D03*
G04 #@! TD*
G04 #@! TO.P,C340,2*
G04 #@! TO.N,/C1-*
X40895000Y69795000D03*
G04 #@! TO.P,C340,1*
G04 #@! TO.N,/C1+*
X46595000Y69795000D03*
G04 #@! TD*
G04 #@! TO.P,C333,2*
G04 #@! TO.N,/C1-*
X10505000Y103405000D03*
G04 #@! TO.P,C333,1*
G04 #@! TO.N,/C1+*
X4805000Y103405000D03*
G04 #@! TD*
G04 #@! TO.P,C332,2*
G04 #@! TO.N,/C1-*
X40895000Y64195000D03*
G04 #@! TO.P,C332,1*
G04 #@! TO.N,/C1+*
X46595000Y64195000D03*
G04 #@! TD*
G04 #@! TO.P,C1,1*
G04 #@! TO.N,/C1+*
X-40005000Y52995000D03*
G04 #@! TO.P,C1,2*
G04 #@! TO.N,/C1-*
X-45705000Y52995000D03*
G04 #@! TD*
G04 #@! TO.P,C363,1*
G04 #@! TO.N,/C1+*
X48105000Y103405000D03*
G04 #@! TO.P,C363,2*
G04 #@! TO.N,/C1-*
X53805000Y103405000D03*
G04 #@! TD*
G04 #@! TO.P,C275,2*
G04 #@! TO.N,/C1-*
X40895000Y75395000D03*
G04 #@! TO.P,C275,1*
G04 #@! TO.N,/C1+*
X46595000Y75395000D03*
G04 #@! TD*
G04 #@! TO.P,C273,1*
G04 #@! TO.N,/C1+*
X19305000Y53005000D03*
G04 #@! TO.P,C273,2*
G04 #@! TO.N,/C1-*
X25005000Y53005000D03*
G04 #@! TD*
G04 #@! TO.P,C313,2*
G04 #@! TO.N,/C1-*
X40895000Y86595000D03*
G04 #@! TO.P,C313,1*
G04 #@! TO.N,/C1+*
X46595000Y86595000D03*
G04 #@! TD*
G04 #@! TO.P,C264,1*
G04 #@! TO.N,/C1+*
X48105000Y92205000D03*
G04 #@! TO.P,C264,2*
G04 #@! TO.N,/C1-*
X53805000Y92205000D03*
G04 #@! TD*
G04 #@! TO.P,C262,1*
G04 #@! TO.N,/C1+*
X19305000Y81005000D03*
G04 #@! TO.P,C262,2*
G04 #@! TO.N,/C1-*
X25005000Y81005000D03*
G04 #@! TD*
G04 #@! TO.P,C261,1*
G04 #@! TO.N,/C1+*
X48105000Y75405000D03*
G04 #@! TO.P,C261,2*
G04 #@! TO.N,/C1-*
X53805000Y75405000D03*
G04 #@! TD*
G04 #@! TO.P,C260,1*
G04 #@! TO.N,/C1+*
X32195000Y103395000D03*
G04 #@! TO.P,C260,2*
G04 #@! TO.N,/C1-*
X26495000Y103395000D03*
G04 #@! TD*
G04 #@! TO.P,C259,1*
G04 #@! TO.N,/C1+*
X32195000Y58595000D03*
G04 #@! TO.P,C259,2*
G04 #@! TO.N,/C1-*
X26495000Y58595000D03*
G04 #@! TD*
G04 #@! TO.P,C258,1*
G04 #@! TO.N,/C1+*
X-11205000Y58595000D03*
G04 #@! TO.P,C258,2*
G04 #@! TO.N,/C1-*
X-16905000Y58595000D03*
G04 #@! TD*
G04 #@! TO.P,C257,1*
G04 #@! TO.N,/C1+*
X46595000Y58595000D03*
G04 #@! TO.P,C257,2*
G04 #@! TO.N,/C1-*
X40895000Y58595000D03*
G04 #@! TD*
G04 #@! TO.P,C314,1*
G04 #@! TO.N,/C1+*
X19305000Y86605000D03*
G04 #@! TO.P,C314,2*
G04 #@! TO.N,/C1-*
X25005000Y86605000D03*
G04 #@! TD*
G04 #@! TO.P,C265,1*
G04 #@! TO.N,/C1+*
X32195000Y97795000D03*
G04 #@! TO.P,C265,2*
G04 #@! TO.N,/C1-*
X26495000Y97795000D03*
G04 #@! TD*
G04 #@! TO.P,C311,1*
G04 #@! TO.N,/C1+*
X32195000Y52995000D03*
G04 #@! TO.P,C311,2*
G04 #@! TO.N,/C1-*
X26495000Y52995000D03*
G04 #@! TD*
G04 #@! TO.P,C310,1*
G04 #@! TO.N,/C1+*
X-11205000Y52995000D03*
G04 #@! TO.P,C310,2*
G04 #@! TO.N,/C1-*
X-16905000Y52995000D03*
G04 #@! TD*
G04 #@! TO.P,C309,1*
G04 #@! TO.N,/C1+*
X46595000Y52995000D03*
G04 #@! TO.P,C309,2*
G04 #@! TO.N,/C1-*
X40895000Y52995000D03*
G04 #@! TD*
G04 #@! TO.P,C308,1*
G04 #@! TO.N,/C1+*
X-54405000Y86595000D03*
G04 #@! TO.P,C308,2*
G04 #@! TO.N,/C1-*
X-60105000Y86595000D03*
G04 #@! TD*
G04 #@! TO.P,C304,1*
G04 #@! TO.N,/C1+*
X19305000Y92205000D03*
G04 #@! TO.P,C304,2*
G04 #@! TO.N,/C1-*
X25005000Y92205000D03*
G04 #@! TD*
G04 #@! TO.P,C302,1*
G04 #@! TO.N,/C1+*
X32195000Y92195000D03*
G04 #@! TO.P,C302,2*
G04 #@! TO.N,/C1-*
X26495000Y92195000D03*
G04 #@! TD*
G04 #@! TO.P,C300,1*
G04 #@! TO.N,/C1+*
X48105000Y53005000D03*
G04 #@! TO.P,C300,2*
G04 #@! TO.N,/C1-*
X53805000Y53005000D03*
G04 #@! TD*
G04 #@! TO.P,C283,1*
G04 #@! TO.N,/C1+*
X32195000Y86595000D03*
G04 #@! TO.P,C283,2*
G04 #@! TO.N,/C1-*
X26495000Y86595000D03*
G04 #@! TD*
G04 #@! TO.P,C282,1*
G04 #@! TO.N,/C1+*
X-54405000Y80995000D03*
G04 #@! TO.P,C282,2*
G04 #@! TO.N,/C1-*
X-60105000Y80995000D03*
G04 #@! TD*
G04 #@! TO.P,C295,1*
G04 #@! TO.N,/C1+*
X19305000Y97805000D03*
G04 #@! TO.P,C295,2*
G04 #@! TO.N,/C1-*
X25005000Y97805000D03*
G04 #@! TD*
G04 #@! TO.P,C294,1*
G04 #@! TO.N,/C1+*
X19305000Y58605000D03*
G04 #@! TO.P,C294,2*
G04 #@! TO.N,/C1-*
X25005000Y58605000D03*
G04 #@! TD*
G04 #@! TO.P,C292,1*
G04 #@! TO.N,/C1+*
X33705000Y75405000D03*
G04 #@! TO.P,C292,2*
G04 #@! TO.N,/C1-*
X39405000Y75405000D03*
G04 #@! TD*
G04 #@! TO.P,C291,1*
G04 #@! TO.N,/C1+*
X-24095000Y103405000D03*
G04 #@! TO.P,C291,2*
G04 #@! TO.N,/C1-*
X-18395000Y103405000D03*
G04 #@! TD*
G04 #@! TO.P,C289,1*
G04 #@! TO.N,/C1+*
X-54405000Y75395000D03*
G04 #@! TO.P,C289,2*
G04 #@! TO.N,/C1-*
X-60105000Y75395000D03*
G04 #@! TD*
G04 #@! TO.P,C287,1*
G04 #@! TO.N,/C1+*
X19305000Y103405000D03*
G04 #@! TO.P,C287,2*
G04 #@! TO.N,/C1-*
X25005000Y103405000D03*
G04 #@! TD*
G04 #@! TO.P,C286,1*
G04 #@! TO.N,/C1+*
X19305000Y64205000D03*
G04 #@! TO.P,C286,2*
G04 #@! TO.N,/C1-*
X25005000Y64205000D03*
G04 #@! TD*
G04 #@! TO.P,C285,1*
G04 #@! TO.N,/C1+*
X48105000Y64205000D03*
G04 #@! TO.P,C285,2*
G04 #@! TO.N,/C1-*
X53805000Y64205000D03*
G04 #@! TD*
G04 #@! TO.P,C284,1*
G04 #@! TO.N,/C1+*
X33705000Y81005000D03*
G04 #@! TO.P,C284,2*
G04 #@! TO.N,/C1-*
X39405000Y81005000D03*
G04 #@! TD*
G04 #@! TO.P,C299,1*
G04 #@! TO.N,/C1+*
X48105000Y97805000D03*
G04 #@! TO.P,C299,2*
G04 #@! TO.N,/C1-*
X53805000Y97805000D03*
G04 #@! TD*
G04 #@! TO.P,C298,1*
G04 #@! TO.N,/C1+*
X33705000Y86605000D03*
G04 #@! TO.P,C298,2*
G04 #@! TO.N,/C1-*
X39405000Y86605000D03*
G04 #@! TD*
G04 #@! TO.P,C377,1*
G04 #@! TO.N,/C1+*
X19305000Y69805000D03*
G04 #@! TO.P,C377,2*
G04 #@! TO.N,/C1-*
X25005000Y69805000D03*
G04 #@! TD*
G04 #@! TO.P,C390,1*
G04 #@! TO.N,/C1+*
X33705000Y92205000D03*
G04 #@! TO.P,C390,2*
G04 #@! TO.N,/C1-*
X39405000Y92205000D03*
G04 #@! TD*
G04 #@! TO.P,C388,1*
G04 #@! TO.N,/C1+*
X-9695000Y86605000D03*
G04 #@! TO.P,C388,2*
G04 #@! TO.N,/C1-*
X-3995000Y86605000D03*
G04 #@! TD*
G04 #@! TO.P,C385,1*
G04 #@! TO.N,/C1+*
X33705000Y97805000D03*
G04 #@! TO.P,C385,2*
G04 #@! TO.N,/C1-*
X39405000Y97805000D03*
G04 #@! TD*
G04 #@! TO.P,C384,1*
G04 #@! TO.N,/C1+*
X46595000Y103395000D03*
G04 #@! TO.P,C384,2*
G04 #@! TO.N,/C1-*
X40895000Y103395000D03*
G04 #@! TD*
G04 #@! TO.P,C383,1*
G04 #@! TO.N,/C1+*
X-9695000Y92205000D03*
G04 #@! TO.P,C383,2*
G04 #@! TO.N,/C1-*
X-3995000Y92205000D03*
G04 #@! TD*
G04 #@! TO.P,C381,1*
G04 #@! TO.N,/C1+*
X33705000Y103405000D03*
G04 #@! TO.P,C381,2*
G04 #@! TO.N,/C1-*
X39405000Y103405000D03*
G04 #@! TD*
G04 #@! TO.P,C380,1*
G04 #@! TO.N,/C1+*
X46595000Y97795000D03*
G04 #@! TO.P,C380,2*
G04 #@! TO.N,/C1-*
X40895000Y97795000D03*
G04 #@! TD*
G04 #@! TO.P,C379,1*
G04 #@! TO.N,/C1+*
X-9695000Y97805000D03*
G04 #@! TO.P,C379,2*
G04 #@! TO.N,/C1-*
X-3995000Y97805000D03*
G04 #@! TD*
G04 #@! TO.P,C93,1*
G04 #@! TO.N,/C1+*
X-25605000Y58595000D03*
G04 #@! TO.P,C93,2*
G04 #@! TO.N,/C1-*
X-31305000Y58595000D03*
G04 #@! TD*
G04 #@! TO.P,C92,1*
G04 #@! TO.N,/C1+*
X-38395000Y92205000D03*
G04 #@! TO.P,C92,2*
G04 #@! TO.N,/C1-*
X-32695000Y92205000D03*
G04 #@! TD*
G04 #@! TO.P,C90,1*
G04 #@! TO.N,/C1+*
X-52895000Y103405000D03*
G04 #@! TO.P,C90,2*
G04 #@! TO.N,/C1-*
X-47195000Y103405000D03*
G04 #@! TD*
G04 #@! TO.P,C88,1*
G04 #@! TO.N,/C1+*
X-11205000Y92195000D03*
G04 #@! TO.P,C88,2*
G04 #@! TO.N,/C1-*
X-16905000Y92195000D03*
G04 #@! TD*
G04 #@! TO.P,C87,1*
G04 #@! TO.N,/C1+*
X-9695000Y58605000D03*
G04 #@! TO.P,C87,2*
G04 #@! TO.N,/C1-*
X-3995000Y58605000D03*
G04 #@! TD*
G04 #@! TO.P,C86,1*
G04 #@! TO.N,/C1+*
X3295000Y80995000D03*
G04 #@! TO.P,C86,2*
G04 #@! TO.N,/C1-*
X-2405000Y80995000D03*
G04 #@! TD*
G04 #@! TO.P,C85,1*
G04 #@! TO.N,/C1+*
X4805000Y69805000D03*
G04 #@! TO.P,C85,2*
G04 #@! TO.N,/C1-*
X10505000Y69805000D03*
G04 #@! TD*
G04 #@! TO.P,C84,1*
G04 #@! TO.N,/C1+*
X17795000Y69795000D03*
G04 #@! TO.P,C84,2*
G04 #@! TO.N,/C1-*
X12095000Y69795000D03*
G04 #@! TD*
G04 #@! TO.P,C83,1*
G04 #@! TO.N,/C1+*
X-25605000Y64195000D03*
G04 #@! TO.P,C83,2*
G04 #@! TO.N,/C1-*
X-31305000Y64195000D03*
G04 #@! TD*
G04 #@! TO.P,C82,1*
G04 #@! TO.N,/C1+*
X-38395000Y86605000D03*
G04 #@! TO.P,C82,2*
G04 #@! TO.N,/C1-*
X-32695000Y86605000D03*
G04 #@! TD*
G04 #@! TO.P,C81,1*
G04 #@! TO.N,/C1+*
X-38395000Y81005000D03*
G04 #@! TO.P,C81,2*
G04 #@! TO.N,/C1-*
X-32695000Y81005000D03*
G04 #@! TD*
G04 #@! TO.P,C80,1*
G04 #@! TO.N,/C1+*
X17795000Y64195000D03*
G04 #@! TO.P,C80,2*
G04 #@! TO.N,/C1-*
X12095000Y64195000D03*
G04 #@! TD*
G04 #@! TO.P,C251,1*
G04 #@! TO.N,/C1+*
X32195000Y80995000D03*
G04 #@! TO.P,C251,2*
G04 #@! TO.N,/C1-*
X26495000Y80995000D03*
G04 #@! TD*
G04 #@! TO.P,C78,1*
G04 #@! TO.N,/C1+*
X-25605000Y69795000D03*
G04 #@! TO.P,C78,2*
G04 #@! TO.N,/C1-*
X-31305000Y69795000D03*
G04 #@! TD*
G04 #@! TO.P,C77,1*
G04 #@! TO.N,/C1+*
X17795000Y75395000D03*
G04 #@! TO.P,C77,2*
G04 #@! TO.N,/C1-*
X12095000Y75395000D03*
G04 #@! TD*
G04 #@! TO.P,C76,1*
G04 #@! TO.N,/C1+*
X4805000Y64205000D03*
G04 #@! TO.P,C76,2*
G04 #@! TO.N,/C1-*
X10505000Y64205000D03*
G04 #@! TD*
G04 #@! TO.P,C75,1*
G04 #@! TO.N,/C1+*
X-40005000Y58595000D03*
G04 #@! TO.P,C75,2*
G04 #@! TO.N,/C1-*
X-45705000Y58595000D03*
G04 #@! TD*
G04 #@! TO.P,C74,1*
G04 #@! TO.N,/C1+*
X3295000Y86595000D03*
G04 #@! TO.P,C74,2*
G04 #@! TO.N,/C1-*
X-2405000Y86595000D03*
G04 #@! TD*
G04 #@! TO.P,C73,1*
G04 #@! TO.N,/C1+*
X-9695000Y53005000D03*
G04 #@! TO.P,C73,2*
G04 #@! TO.N,/C1-*
X-3995000Y53005000D03*
G04 #@! TD*
G04 #@! TO.P,C72,1*
G04 #@! TO.N,/C1+*
X-11205000Y97795000D03*
G04 #@! TO.P,C72,2*
G04 #@! TO.N,/C1-*
X-16905000Y97795000D03*
G04 #@! TD*
G04 #@! TO.P,C71,1*
G04 #@! TO.N,/C1+*
X33705000Y69805000D03*
G04 #@! TO.P,C71,2*
G04 #@! TO.N,/C1-*
X39405000Y69805000D03*
G04 #@! TD*
G04 #@! TO.P,C70,1*
G04 #@! TO.N,/C1+*
X-52895000Y97805000D03*
G04 #@! TO.P,C70,2*
G04 #@! TO.N,/C1-*
X-47195000Y97805000D03*
G04 #@! TD*
G04 #@! TO.P,C119,1*
G04 #@! TO.N,/C1+*
X-54405000Y103395000D03*
G04 #@! TO.P,C119,2*
G04 #@! TO.N,/C1-*
X-60105000Y103395000D03*
G04 #@! TD*
G04 #@! TO.P,C113,2*
G04 #@! TO.N,/C1-*
X40895000Y92195000D03*
G04 #@! TO.P,C113,1*
G04 #@! TO.N,/C1+*
X46595000Y92195000D03*
G04 #@! TD*
G04 #@! TO.P,C108,1*
G04 #@! TO.N,/C1+*
X48105000Y58605000D03*
G04 #@! TO.P,C108,2*
G04 #@! TO.N,/C1-*
X53805000Y58605000D03*
G04 #@! TD*
G04 #@! TO.P,C106,1*
G04 #@! TO.N,/C1+*
X-40005000Y103395000D03*
G04 #@! TO.P,C106,2*
G04 #@! TO.N,/C1-*
X-45705000Y103395000D03*
G04 #@! TD*
G04 #@! TO.P,C105,1*
G04 #@! TO.N,/C1+*
X-54405000Y92195000D03*
G04 #@! TO.P,C105,2*
G04 #@! TO.N,/C1-*
X-60105000Y92195000D03*
G04 #@! TD*
G04 #@! TO.P,C96,1*
G04 #@! TO.N,/C1+*
X-40005000Y97795000D03*
G04 #@! TO.P,C96,2*
G04 #@! TO.N,/C1-*
X-45705000Y97795000D03*
G04 #@! TD*
G04 #@! TO.P,C62,1*
G04 #@! TO.N,/C1+*
X-40005000Y92195000D03*
G04 #@! TO.P,C62,2*
G04 #@! TO.N,/C1-*
X-45705000Y92195000D03*
G04 #@! TD*
G04 #@! TO.P,C3,1*
G04 #@! TO.N,/C1+*
X17795000Y103395000D03*
G04 #@! TO.P,C3,2*
G04 #@! TO.N,/C1-*
X12095000Y103395000D03*
G04 #@! TD*
G04 #@! TO.P,C4,1*
G04 #@! TO.N,/C1+*
X-25605000Y103395000D03*
G04 #@! TO.P,C4,2*
G04 #@! TO.N,/C1-*
X-31305000Y103395000D03*
G04 #@! TD*
G04 #@! TO.P,C12,1*
G04 #@! TO.N,/C1+*
X-40005000Y86595000D03*
G04 #@! TO.P,C12,2*
G04 #@! TO.N,/C1-*
X-45705000Y86595000D03*
G04 #@! TD*
G04 #@! TO.P,C13,1*
G04 #@! TO.N,/C1+*
X-38495000Y53005000D03*
G04 #@! TO.P,C13,2*
G04 #@! TO.N,/C1-*
X-32795000Y53005000D03*
G04 #@! TD*
G04 #@! TO.P,C14,1*
G04 #@! TO.N,/C1+*
X-25605000Y97795000D03*
G04 #@! TO.P,C14,2*
G04 #@! TO.N,/C1-*
X-31305000Y97795000D03*
G04 #@! TD*
G04 #@! TO.P,C15,1*
G04 #@! TO.N,/C1+*
X-52895000Y75405000D03*
G04 #@! TO.P,C15,2*
G04 #@! TO.N,/C1-*
X-47195000Y75405000D03*
G04 #@! TD*
G04 #@! TO.P,C31,1*
G04 #@! TO.N,/C1+*
X-40005000Y80995000D03*
G04 #@! TO.P,C31,2*
G04 #@! TO.N,/C1-*
X-45705000Y80995000D03*
G04 #@! TD*
G04 #@! TO.P,C61,1*
G04 #@! TO.N,/C1+*
X-38495000Y58605000D03*
G04 #@! TO.P,C61,2*
G04 #@! TO.N,/C1-*
X-32795000Y58605000D03*
G04 #@! TD*
G04 #@! TO.P,C60,1*
G04 #@! TO.N,/C1+*
X-25605000Y92195000D03*
G04 #@! TO.P,C60,2*
G04 #@! TO.N,/C1-*
X-31305000Y92195000D03*
G04 #@! TD*
G04 #@! TO.P,C59,1*
G04 #@! TO.N,/C1+*
X17795000Y97795000D03*
G04 #@! TO.P,C59,2*
G04 #@! TO.N,/C1-*
X12095000Y97795000D03*
G04 #@! TD*
G04 #@! TO.P,C51,1*
G04 #@! TO.N,/C1+*
X-40005000Y75395000D03*
G04 #@! TO.P,C51,2*
G04 #@! TO.N,/C1-*
X-45705000Y75395000D03*
G04 #@! TD*
G04 #@! TO.P,C50,1*
G04 #@! TO.N,/C1+*
X-38495000Y64205000D03*
G04 #@! TO.P,C50,2*
G04 #@! TO.N,/C1-*
X-32795000Y64205000D03*
G04 #@! TD*
G04 #@! TO.P,C49,1*
G04 #@! TO.N,/C1+*
X-25605000Y86595000D03*
G04 #@! TO.P,C49,2*
G04 #@! TO.N,/C1-*
X-31305000Y86595000D03*
G04 #@! TD*
G04 #@! TO.P,C63,1*
G04 #@! TO.N,/C1+*
X17795000Y92195000D03*
G04 #@! TO.P,C63,2*
G04 #@! TO.N,/C1-*
X12095000Y92195000D03*
G04 #@! TD*
G04 #@! TO.P,C45,1*
G04 #@! TO.N,/C1+*
X3295000Y103395000D03*
G04 #@! TO.P,C45,2*
G04 #@! TO.N,/C1-*
X-2405000Y103395000D03*
G04 #@! TD*
G04 #@! TO.P,C44,1*
G04 #@! TO.N,/C1+*
X48105000Y86605000D03*
G04 #@! TO.P,C44,2*
G04 #@! TO.N,/C1-*
X53805000Y86605000D03*
G04 #@! TD*
G04 #@! TO.P,C40,1*
G04 #@! TO.N,/C1+*
X-11205000Y103395000D03*
G04 #@! TO.P,C40,2*
G04 #@! TO.N,/C1-*
X-16905000Y103395000D03*
G04 #@! TD*
G04 #@! TO.P,C39,1*
G04 #@! TO.N,/C1+*
X33705000Y64205000D03*
G04 #@! TO.P,C39,2*
G04 #@! TO.N,/C1-*
X39405000Y64205000D03*
G04 #@! TD*
G04 #@! TO.P,C38,1*
G04 #@! TO.N,/C1+*
X-9695000Y69805000D03*
G04 #@! TO.P,C38,2*
G04 #@! TO.N,/C1-*
X-3995000Y69805000D03*
G04 #@! TD*
G04 #@! TO.P,C37,1*
G04 #@! TO.N,/C1+*
X3295000Y58595000D03*
G04 #@! TO.P,C37,2*
G04 #@! TO.N,/C1-*
X-2405000Y58595000D03*
G04 #@! TD*
G04 #@! TO.P,C36,1*
G04 #@! TO.N,/C1+*
X-9695000Y81005000D03*
G04 #@! TO.P,C36,2*
G04 #@! TO.N,/C1-*
X-3995000Y81005000D03*
G04 #@! TD*
G04 #@! TO.P,C35,1*
G04 #@! TO.N,/C1+*
X-11205000Y69795000D03*
G04 #@! TO.P,C35,2*
G04 #@! TO.N,/C1-*
X-16905000Y69795000D03*
G04 #@! TD*
G04 #@! TO.P,C34,1*
G04 #@! TO.N,/C1+*
X-24095000Y69805000D03*
G04 #@! TO.P,C34,2*
G04 #@! TO.N,/C1-*
X-18395000Y69805000D03*
G04 #@! TD*
G04 #@! TO.P,C94,1*
G04 #@! TO.N,/C1+*
X48105000Y81005000D03*
G04 #@! TO.P,C94,2*
G04 #@! TO.N,/C1-*
X53805000Y81005000D03*
G04 #@! TD*
G04 #@! TO.P,C32,1*
G04 #@! TO.N,/C1+*
X4805000Y97805000D03*
G04 #@! TO.P,C32,2*
G04 #@! TO.N,/C1-*
X10505000Y97805000D03*
G04 #@! TD*
G04 #@! TO.P,C33,1*
G04 #@! TO.N,/C1+*
X3295000Y52995000D03*
G04 #@! TO.P,C33,2*
G04 #@! TO.N,/C1-*
X-2405000Y52995000D03*
G04 #@! TD*
G04 #@! TO.P,C46,1*
G04 #@! TO.N,/C1+*
X-24095000Y86605000D03*
G04 #@! TO.P,C46,2*
G04 #@! TO.N,/C1-*
X-18395000Y86605000D03*
G04 #@! TD*
G04 #@! TO.P,C215,1*
G04 #@! TO.N,/C1+*
X48105000Y69805000D03*
G04 #@! TO.P,C215,2*
G04 #@! TO.N,/C1-*
X53805000Y69805000D03*
G04 #@! TD*
G04 #@! TO.P,C213,1*
G04 #@! TO.N,/C1+*
X32195000Y69795000D03*
G04 #@! TO.P,C213,2*
G04 #@! TO.N,/C1-*
X26495000Y69795000D03*
G04 #@! TD*
G04 #@! TO.P,C212,1*
G04 #@! TO.N,/C1+*
X32195000Y64195000D03*
G04 #@! TO.P,C212,2*
G04 #@! TO.N,/C1-*
X26495000Y64195000D03*
G04 #@! TD*
G04 #@! TO.P,C209,1*
G04 #@! TO.N,/C1+*
X19305000Y75405000D03*
G04 #@! TO.P,C209,2*
G04 #@! TO.N,/C1-*
X25005000Y75405000D03*
G04 #@! TD*
G04 #@! TO.P,C125,1*
G04 #@! TO.N,/C1+*
X-11205000Y64195000D03*
G04 #@! TO.P,C125,2*
G04 #@! TO.N,/C1-*
X-16905000Y64195000D03*
G04 #@! TD*
G04 #@! TO.P,C203,1*
G04 #@! TO.N,/C1+*
X32195000Y75395000D03*
G04 #@! TO.P,C203,2*
G04 #@! TO.N,/C1-*
X26495000Y75395000D03*
G04 #@! TD*
G04 #@! TO.P,C201,1*
G04 #@! TO.N,/C1+*
X-24095000Y81005000D03*
G04 #@! TO.P,C201,2*
G04 #@! TO.N,/C1-*
X-18395000Y81005000D03*
G04 #@! TD*
G04 #@! TO.P,C190,1*
G04 #@! TO.N,/C1+*
X33705000Y53005000D03*
G04 #@! TO.P,C190,2*
G04 #@! TO.N,/C1-*
X39405000Y53005000D03*
G04 #@! TD*
G04 #@! TO.P,C126,1*
G04 #@! TO.N,/C1+*
X-52895000Y81005000D03*
G04 #@! TO.P,C126,2*
G04 #@! TO.N,/C1-*
X-47195000Y81005000D03*
G04 #@! TD*
G04 #@! TO.P,C243,2*
G04 #@! TO.N,/C1-*
X40895000Y80995000D03*
G04 #@! TO.P,C243,1*
G04 #@! TO.N,/C1+*
X46595000Y80995000D03*
G04 #@! TD*
G04 #@! TO.P,C48,1*
G04 #@! TO.N,/C1+*
X-40005000Y69795000D03*
G04 #@! TO.P,C48,2*
G04 #@! TO.N,/C1-*
X-45705000Y69795000D03*
G04 #@! TD*
G04 #@! TO.P,C155,1*
G04 #@! TO.N,/C1+*
X-25605000Y80995000D03*
G04 #@! TO.P,C155,2*
G04 #@! TO.N,/C1-*
X-31305000Y80995000D03*
G04 #@! TD*
G04 #@! TO.P,C154,1*
G04 #@! TO.N,/C1+*
X17795000Y86595000D03*
G04 #@! TO.P,C154,2*
G04 #@! TO.N,/C1-*
X12095000Y86595000D03*
G04 #@! TD*
G04 #@! TO.P,C153,1*
G04 #@! TO.N,/C1+*
X4805000Y53005000D03*
G04 #@! TO.P,C153,2*
G04 #@! TO.N,/C1-*
X10505000Y53005000D03*
G04 #@! TD*
G04 #@! TO.P,C152,1*
G04 #@! TO.N,/C1+*
X3295000Y97795000D03*
G04 #@! TO.P,C152,2*
G04 #@! TO.N,/C1-*
X-2405000Y97795000D03*
G04 #@! TD*
G04 #@! TO.P,C149,1*
G04 #@! TO.N,/C1+*
X-52895000Y92205000D03*
G04 #@! TO.P,C149,2*
G04 #@! TO.N,/C1-*
X-47195000Y92205000D03*
G04 #@! TD*
G04 #@! TO.P,C148,1*
G04 #@! TO.N,/C1+*
X33705000Y58605000D03*
G04 #@! TO.P,C148,2*
G04 #@! TO.N,/C1-*
X39405000Y58605000D03*
G04 #@! TD*
G04 #@! TO.P,C147,1*
G04 #@! TO.N,/C1+*
X-52895000Y86605000D03*
G04 #@! TO.P,C147,2*
G04 #@! TO.N,/C1-*
X-47195000Y86605000D03*
G04 #@! TD*
G04 #@! TO.P,C146,1*
G04 #@! TO.N,/C1+*
X-40005000Y64195000D03*
G04 #@! TO.P,C146,2*
G04 #@! TO.N,/C1-*
X-45705000Y64195000D03*
G04 #@! TD*
G04 #@! TO.P,C145,1*
G04 #@! TO.N,/C1+*
X-38395000Y75405000D03*
G04 #@! TO.P,C145,2*
G04 #@! TO.N,/C1-*
X-32695000Y75405000D03*
G04 #@! TD*
G04 #@! TO.P,C144,1*
G04 #@! TO.N,/C1+*
X-25605000Y75395000D03*
G04 #@! TO.P,C144,2*
G04 #@! TO.N,/C1-*
X-31305000Y75395000D03*
G04 #@! TD*
G04 #@! TO.P,C143,1*
G04 #@! TO.N,/C1+*
X17795000Y80995000D03*
G04 #@! TO.P,C143,2*
G04 #@! TO.N,/C1-*
X12095000Y80995000D03*
G04 #@! TD*
G04 #@! TO.P,C142,1*
G04 #@! TO.N,/C1+*
X4805000Y58605000D03*
G04 #@! TO.P,C142,2*
G04 #@! TO.N,/C1-*
X10505000Y58605000D03*
G04 #@! TD*
G04 #@! TO.P,C188,1*
G04 #@! TO.N,/C1+*
X3295000Y92195000D03*
G04 #@! TO.P,C188,2*
G04 #@! TO.N,/C1-*
X-2405000Y92195000D03*
G04 #@! TD*
G04 #@! TO.P,C139,1*
G04 #@! TO.N,/C1+*
X-24095000Y53005000D03*
G04 #@! TO.P,C139,2*
G04 #@! TO.N,/C1-*
X-18395000Y53005000D03*
G04 #@! TD*
G04 #@! TO.P,C138,1*
G04 #@! TO.N,/C1+*
X17795000Y52995000D03*
G04 #@! TO.P,C138,2*
G04 #@! TO.N,/C1-*
X12095000Y52995000D03*
G04 #@! TD*
G04 #@! TO.P,C137,1*
G04 #@! TO.N,/C1+*
X4805000Y86605000D03*
G04 #@! TO.P,C137,2*
G04 #@! TO.N,/C1-*
X10505000Y86605000D03*
G04 #@! TD*
G04 #@! TO.P,C136,1*
G04 #@! TO.N,/C1+*
X3295000Y64195000D03*
G04 #@! TO.P,C136,2*
G04 #@! TO.N,/C1-*
X-2405000Y64195000D03*
G04 #@! TD*
G04 #@! TO.P,C135,1*
G04 #@! TO.N,/C1+*
X-9695000Y75405000D03*
G04 #@! TO.P,C135,2*
G04 #@! TO.N,/C1-*
X-3995000Y75405000D03*
G04 #@! TD*
G04 #@! TO.P,C134,1*
G04 #@! TO.N,/C1+*
X-11205000Y75395000D03*
G04 #@! TO.P,C134,2*
G04 #@! TO.N,/C1-*
X-16905000Y75395000D03*
G04 #@! TD*
G04 #@! TO.P,C133,1*
G04 #@! TO.N,/C1+*
X-24095000Y64205000D03*
G04 #@! TO.P,C133,2*
G04 #@! TO.N,/C1-*
X-18395000Y64205000D03*
G04 #@! TD*
G04 #@! TO.P,C189,1*
G04 #@! TO.N,/C1+*
X-54405000Y97795000D03*
G04 #@! TO.P,C189,2*
G04 #@! TO.N,/C1-*
X-60105000Y97795000D03*
G04 #@! TD*
G04 #@! TO.P,C179,1*
G04 #@! TO.N,/C1+*
X-9695000Y103405000D03*
G04 #@! TO.P,C179,2*
G04 #@! TO.N,/C1-*
X-3995000Y103405000D03*
G04 #@! TD*
G04 #@! TO.P,C177,1*
G04 #@! TO.N,/C1+*
X-24095000Y92205000D03*
G04 #@! TO.P,C177,2*
G04 #@! TO.N,/C1-*
X-18395000Y92205000D03*
G04 #@! TD*
G04 #@! TO.P,C175,1*
G04 #@! TO.N,/C1+*
X-24095000Y97805000D03*
G04 #@! TO.P,C175,2*
G04 #@! TO.N,/C1-*
X-18395000Y97805000D03*
G04 #@! TD*
G04 #@! TO.P,C156,1*
G04 #@! TO.N,/C1+*
X4805000Y75405000D03*
G04 #@! TO.P,C156,2*
G04 #@! TO.N,/C1-*
X10505000Y75405000D03*
G04 #@! TD*
G04 #@! TO.P,C171,1*
G04 #@! TO.N,/C1+*
X3295000Y75395000D03*
G04 #@! TO.P,C171,2*
G04 #@! TO.N,/C1-*
X-2405000Y75395000D03*
G04 #@! TD*
G04 #@! TO.P,C170,1*
G04 #@! TO.N,/C1+*
X-9695000Y64205000D03*
G04 #@! TO.P,C170,2*
G04 #@! TO.N,/C1-*
X-3995000Y64205000D03*
G04 #@! TD*
G04 #@! TO.P,C169,1*
G04 #@! TO.N,/C1+*
X-11205000Y86595000D03*
G04 #@! TO.P,C169,2*
G04 #@! TO.N,/C1-*
X-16905000Y86595000D03*
G04 #@! TD*
G04 #@! TO.P,C166,1*
G04 #@! TO.N,/C1+*
X-38395000Y97805000D03*
G04 #@! TO.P,C166,2*
G04 #@! TO.N,/C1-*
X-32695000Y97805000D03*
G04 #@! TD*
G04 #@! TO.P,C165,1*
G04 #@! TO.N,/C1+*
X-25605000Y52995000D03*
G04 #@! TO.P,C165,2*
G04 #@! TO.N,/C1-*
X-31305000Y52995000D03*
G04 #@! TD*
G04 #@! TO.P,C164,1*
G04 #@! TO.N,/C1+*
X17795000Y58595000D03*
G04 #@! TO.P,C164,2*
G04 #@! TO.N,/C1-*
X12095000Y58595000D03*
G04 #@! TD*
G04 #@! TO.P,C163,1*
G04 #@! TO.N,/C1+*
X4805000Y81005000D03*
G04 #@! TO.P,C163,2*
G04 #@! TO.N,/C1-*
X10505000Y81005000D03*
G04 #@! TD*
G04 #@! TO.P,C162,1*
G04 #@! TO.N,/C1+*
X3295000Y69795000D03*
G04 #@! TO.P,C162,2*
G04 #@! TO.N,/C1-*
X-2405000Y69795000D03*
G04 #@! TD*
G04 #@! TO.P,C161,1*
G04 #@! TO.N,/C1+*
X4805000Y92205000D03*
G04 #@! TO.P,C161,2*
G04 #@! TO.N,/C1-*
X10505000Y92205000D03*
G04 #@! TD*
G04 #@! TO.P,C160,1*
G04 #@! TO.N,/C1+*
X-11205000Y80995000D03*
G04 #@! TO.P,C160,2*
G04 #@! TO.N,/C1-*
X-16905000Y80995000D03*
G04 #@! TD*
G04 #@! TO.P,C174,1*
G04 #@! TO.N,/C1+*
X-24095000Y58605000D03*
G04 #@! TO.P,C174,2*
G04 #@! TO.N,/C1-*
X-18395000Y58605000D03*
G04 #@! TD*
G04 #@! TO.P,C172,1*
G04 #@! TO.N,/C1+*
X-38395000Y103405000D03*
G04 #@! TO.P,C172,2*
G04 #@! TO.N,/C1-*
X-32695000Y103405000D03*
G04 #@! TD*
G04 #@! TO.P,C158,1*
G04 #@! TO.N,/C1+*
X-38495000Y69805000D03*
G04 #@! TO.P,C158,2*
G04 #@! TO.N,/C1-*
X-32795000Y69805000D03*
G04 #@! TD*
D11*
G04 #@! TO.P,TP1,1*
G04 #@! TO.N,/C1+*
X-60000000Y55000000D03*
D12*
X-57600000Y55000000D03*
X-58302944Y53302944D03*
X-60000000Y52600000D03*
X-61697056Y53302944D03*
X-62400000Y55000000D03*
X-61697056Y56697056D03*
X-60000000Y57400000D03*
X-58302944Y56697056D03*
G04 #@! TD*
D11*
G04 #@! TO.P,TP2,1*
G04 #@! TO.N,/C1-*
X-60000000Y66000000D03*
D12*
X-57600000Y66000000D03*
X-58302944Y64302944D03*
X-60000000Y63600000D03*
X-61697056Y64302944D03*
X-62400000Y66000000D03*
X-61697056Y67697056D03*
X-60000000Y68400000D03*
X-58302944Y67697056D03*
G04 #@! TD*
D13*
G04 #@! TO.P,REF\002A\002A,~*
G04 #@! TO.N,N/C*
X62700000Y45700000D03*
G04 #@! TD*
G04 #@! TO.P,REF\002A\002A,~*
G04 #@! TO.N,N/C*
X-63200000Y43000000D03*
G04 #@! TD*
G04 #@! TO.P,REF\002A\002A,~*
G04 #@! TO.N,N/C*
X-63200000Y2000000D03*
G04 #@! TD*
D14*
G04 #@! TO.N,/C1-*
X-18400000Y103400000D03*
X-18400000Y97800000D03*
X-18400000Y92200000D03*
X-18400000Y86600000D03*
X-18400000Y81000000D03*
X-18400000Y75400000D03*
X-18400000Y69800000D03*
X-18400000Y64200000D03*
X-18400000Y58600000D03*
X-18400000Y53000000D03*
X-18400000Y37700000D03*
X-18400000Y105100000D03*
X-18400000Y99500000D03*
X-18400000Y93900000D03*
X-18400000Y88300000D03*
X-18400000Y82700000D03*
X-18400000Y77100000D03*
X-18400000Y71500000D03*
X-18400000Y65900000D03*
X-18400000Y60300000D03*
X-18400000Y54700000D03*
X-18400000Y39400000D03*
X-18400000Y101700000D03*
X-18400000Y96100000D03*
X-18400000Y90500000D03*
X-18400000Y84900000D03*
X-18400000Y79300000D03*
X-18400000Y73700000D03*
X-18400000Y68100000D03*
X-18400000Y62500000D03*
X-18400000Y56900000D03*
X-18400000Y51300000D03*
X-18400000Y36000000D03*
X-31300000Y101700000D03*
X-31300000Y96100000D03*
X-31300000Y90500000D03*
X-31300000Y84900000D03*
X-31300000Y79300000D03*
X-31300000Y73700000D03*
X-31300000Y68100000D03*
X-31300000Y62500000D03*
X-31300000Y56900000D03*
X-31300000Y51300000D03*
X-31300000Y36000000D03*
X-31300000Y103400000D03*
X-31300000Y97800000D03*
X-31300000Y92200000D03*
X-31300000Y86600000D03*
X-31300000Y81000000D03*
X-31300000Y75400000D03*
X-31300000Y69800000D03*
X-31300000Y64200000D03*
X-31300000Y58600000D03*
X-31300000Y53000000D03*
X-31300000Y37700000D03*
X-31300000Y105100000D03*
X-31300000Y99500000D03*
X-31300000Y93900000D03*
X-31300000Y88300000D03*
X-31300000Y82700000D03*
X-31300000Y77100000D03*
X-31300000Y71500000D03*
X-31300000Y65900000D03*
X-31300000Y60300000D03*
X-31300000Y54700000D03*
X-31300000Y39400000D03*
X-32800000Y103400000D03*
X-32800000Y97800000D03*
X-32800000Y92200000D03*
X-32800000Y86600000D03*
X-32800000Y81000000D03*
X-32800000Y75400000D03*
X-32800000Y69800000D03*
X-32800000Y64200000D03*
X-32800000Y58600000D03*
X-32800000Y53000000D03*
X-32800000Y37700000D03*
X-32800000Y101700000D03*
X-32800000Y96100000D03*
X-32800000Y90500000D03*
X-32800000Y84900000D03*
X-32800000Y79300000D03*
X-32800000Y73700000D03*
X-32800000Y68100000D03*
X-32800000Y62500000D03*
X-32800000Y56900000D03*
X-32800000Y51300000D03*
X-32800000Y36000000D03*
X-32800000Y105100000D03*
X-32800000Y99500000D03*
X-32800000Y93900000D03*
X-32800000Y88300000D03*
X-32800000Y82700000D03*
X-32800000Y77100000D03*
X-32800000Y71500000D03*
X-32800000Y65900000D03*
X-32800000Y60300000D03*
X-32800000Y54700000D03*
X-32800000Y39400000D03*
X-45700000Y101700000D03*
X-45700000Y96100000D03*
X-45700000Y90500000D03*
X-45700000Y84900000D03*
X-45700000Y79300000D03*
X-45700000Y73700000D03*
X-45700000Y68100000D03*
X-45700000Y62500000D03*
X-45700000Y56900000D03*
X-45700000Y51300000D03*
X-45700000Y36000000D03*
X-45700000Y103400000D03*
X-45700000Y97800000D03*
X-45700000Y92200000D03*
X-45700000Y86600000D03*
X-45700000Y81000000D03*
X-45700000Y75400000D03*
X-45700000Y69800000D03*
X-45700000Y64200000D03*
X-45700000Y58600000D03*
X-45700000Y53000000D03*
X-45700000Y37700000D03*
X-45700000Y105100000D03*
X-45700000Y99500000D03*
X-45700000Y93900000D03*
X-45700000Y88300000D03*
X-45700000Y82700000D03*
X-45700000Y77100000D03*
X-45700000Y71500000D03*
X-45700000Y65900000D03*
X-45700000Y60300000D03*
X-45700000Y54700000D03*
X-45700000Y39400000D03*
X-47200000Y105100000D03*
X-47200000Y99500000D03*
X-47200000Y93900000D03*
X-47200000Y88300000D03*
X-47200000Y82700000D03*
X-47200000Y77100000D03*
X-47200000Y103400000D03*
X-47200000Y97800000D03*
X-47200000Y92200000D03*
X-47200000Y86600000D03*
X-47200000Y81000000D03*
X-47200000Y75400000D03*
X-47200000Y101700000D03*
X-47200000Y96100000D03*
X-47200000Y90500000D03*
X-47200000Y84900000D03*
X-47200000Y79300000D03*
X-47200000Y73700000D03*
X-60100000Y101700000D03*
X-60100000Y96100000D03*
X-60100000Y90500000D03*
X-60100000Y84900000D03*
X-60100000Y79300000D03*
X-60100000Y73700000D03*
X-60100000Y103400000D03*
X-60100000Y97800000D03*
X-60100000Y92200000D03*
X-60100000Y86600000D03*
X-60100000Y81000000D03*
X-60100000Y75400000D03*
X-60100000Y105100000D03*
X-60100000Y99500000D03*
X-60100000Y93900000D03*
X-60100000Y88300000D03*
X-60100000Y82700000D03*
X-60100000Y77100000D03*
X-16900000Y105100000D03*
X-16900000Y99500000D03*
X-16900000Y93900000D03*
X-16900000Y88300000D03*
X-16900000Y82700000D03*
X-16900000Y77100000D03*
X-16900000Y71500000D03*
X-16900000Y65900000D03*
X-16900000Y60300000D03*
X-16900000Y54700000D03*
X-16900000Y39400000D03*
X-16900000Y103400000D03*
X-16900000Y97800000D03*
X-16900000Y92200000D03*
X-16900000Y86600000D03*
X-16900000Y81000000D03*
X-16900000Y75400000D03*
X-16900000Y69800000D03*
X-16900000Y64200000D03*
X-16900000Y58600000D03*
X-16900000Y53000000D03*
X-16900000Y37700000D03*
X-16900000Y101700000D03*
X-16900000Y96100000D03*
X-16900000Y90500000D03*
X-16900000Y84900000D03*
X-16900000Y79300000D03*
X-16900000Y73700000D03*
X-16900000Y68100000D03*
X-16900000Y62500000D03*
X-16900000Y56900000D03*
X-16900000Y51300000D03*
X-16900000Y36000000D03*
X-4000000Y101700000D03*
X-4000000Y96100000D03*
X-4000000Y90500000D03*
X-4000000Y84900000D03*
X-4000000Y79300000D03*
X-4000000Y73700000D03*
X-4000000Y68100000D03*
X-4000000Y62500000D03*
X-4000000Y56900000D03*
X-4000000Y51300000D03*
X-4000000Y36000000D03*
X-4000000Y105100000D03*
X-4000000Y99500000D03*
X-4000000Y93900000D03*
X-4000000Y88300000D03*
X-4000000Y82700000D03*
X-4000000Y77100000D03*
X-4000000Y71500000D03*
X-4000000Y65900000D03*
X-4000000Y60300000D03*
X-4000000Y54700000D03*
X-4000000Y39400000D03*
X-4000000Y103400000D03*
X-4000000Y97800000D03*
X-4000000Y92200000D03*
X-4000000Y86600000D03*
X-4000000Y81000000D03*
X-4000000Y75400000D03*
X-4000000Y69800000D03*
X-4000000Y64200000D03*
X-4000000Y58600000D03*
X-4000000Y53000000D03*
X-4000000Y37700000D03*
X-2400000Y103400000D03*
X-2400000Y97800000D03*
X-2400000Y92200000D03*
X-2400000Y86600000D03*
X-2400000Y81000000D03*
X-2400000Y75400000D03*
X-2400000Y69800000D03*
X-2400000Y64200000D03*
X-2400000Y58600000D03*
X-2400000Y53000000D03*
X-2400000Y37700000D03*
X-2400000Y101700000D03*
X-2400000Y96100000D03*
X-2400000Y90500000D03*
X-2400000Y84900000D03*
X-2400000Y79300000D03*
X-2400000Y73700000D03*
X-2400000Y68100000D03*
X-2400000Y62500000D03*
X-2400000Y56900000D03*
X-2400000Y51300000D03*
X-2400000Y36000000D03*
X-2400000Y105100000D03*
X-2400000Y99500000D03*
X-2400000Y93900000D03*
X-2400000Y88300000D03*
X-2400000Y82700000D03*
X-2400000Y77100000D03*
X-2400000Y71500000D03*
X-2400000Y65900000D03*
X-2400000Y60300000D03*
X-2400000Y54700000D03*
X-2400000Y39400000D03*
X10500000Y103400000D03*
X10500000Y97800000D03*
X10500000Y92200000D03*
X10500000Y86600000D03*
X10500000Y81000000D03*
X10500000Y75400000D03*
X10500000Y69800000D03*
X10500000Y64200000D03*
X10500000Y58600000D03*
X10500000Y53000000D03*
X10500000Y37700000D03*
X10500000Y105100000D03*
X10500000Y99500000D03*
X10500000Y93900000D03*
X10500000Y88300000D03*
X10500000Y82700000D03*
X10500000Y77100000D03*
X10500000Y71500000D03*
X10500000Y65900000D03*
X10500000Y60300000D03*
X10500000Y54700000D03*
X10500000Y39400000D03*
X10500000Y101700000D03*
X10500000Y96100000D03*
X10500000Y90500000D03*
X10500000Y84900000D03*
X10500000Y79300000D03*
X10500000Y73700000D03*
X10500000Y68100000D03*
X10500000Y62500000D03*
X10500000Y56900000D03*
X10500000Y51300000D03*
X10500000Y36000000D03*
X12000000Y103400000D03*
X12000000Y97800000D03*
X12000000Y92200000D03*
X12000000Y86600000D03*
X12000000Y81000000D03*
X12000000Y75400000D03*
X12000000Y69800000D03*
X12000000Y64200000D03*
X12000000Y58600000D03*
X12000000Y53000000D03*
X12000000Y37700000D03*
X12000000Y105100000D03*
X12000000Y99500000D03*
X12000000Y93900000D03*
X12000000Y88300000D03*
X12000000Y82700000D03*
X12000000Y77100000D03*
X12000000Y71500000D03*
X12000000Y65900000D03*
X12000000Y60300000D03*
X12000000Y54700000D03*
X12000000Y39400000D03*
X12000000Y101700000D03*
X12000000Y96100000D03*
X12000000Y90500000D03*
X12000000Y84900000D03*
X12000000Y79300000D03*
X12000000Y73700000D03*
X12000000Y68100000D03*
X12000000Y62500000D03*
X12000000Y56900000D03*
X12000000Y51300000D03*
X12000000Y36000000D03*
X25000000Y39400000D03*
X25000000Y37700000D03*
X25000000Y36000000D03*
X25000000Y53000000D03*
X25000000Y58600000D03*
X25000000Y64200000D03*
X25000000Y69800000D03*
X25000000Y75400000D03*
X25000000Y81000000D03*
X25000000Y86600000D03*
X25000000Y92200000D03*
X25000000Y97800000D03*
X25000000Y103400000D03*
X25000000Y54700000D03*
X25000000Y60300000D03*
X25000000Y65900000D03*
X25000000Y71500000D03*
X25000000Y77100000D03*
X25000000Y82700000D03*
X25000000Y88300000D03*
X25000000Y93900000D03*
X25000000Y99500000D03*
X25000000Y105100000D03*
X25000000Y51300000D03*
X25000000Y56900000D03*
X25000000Y62500000D03*
X25000000Y68100000D03*
X25000000Y73700000D03*
X25000000Y79300000D03*
X25000000Y84900000D03*
X25000000Y90500000D03*
X25000000Y96100000D03*
X25000000Y101700000D03*
X26500000Y101700000D03*
X26500000Y96100000D03*
X26500000Y90500000D03*
X26500000Y84900000D03*
X26500000Y79300000D03*
X26500000Y73700000D03*
X26500000Y68100000D03*
X26500000Y62500000D03*
X26500000Y56900000D03*
X26500000Y51300000D03*
X26500000Y36000000D03*
X26500000Y103400000D03*
X26500000Y97800000D03*
X26500000Y92200000D03*
X26500000Y86600000D03*
X26500000Y81000000D03*
X26500000Y75400000D03*
X26500000Y69800000D03*
X26500000Y64200000D03*
X26500000Y58600000D03*
X26500000Y53000000D03*
X26500000Y37700000D03*
X26500000Y105100000D03*
X26500000Y99500000D03*
X26500000Y93900000D03*
X26500000Y88300000D03*
X26500000Y82700000D03*
X26500000Y77100000D03*
X26500000Y71500000D03*
X26500000Y65900000D03*
X26500000Y60300000D03*
X26500000Y54700000D03*
X26500000Y39400000D03*
X53800000Y103400000D03*
X53800000Y97800000D03*
X53800000Y92200000D03*
X53800000Y86600000D03*
X53800000Y81000000D03*
X53800000Y75400000D03*
X53800000Y69800000D03*
X53800000Y64200000D03*
X53800000Y58600000D03*
X53800000Y53000000D03*
X53800000Y37700000D03*
X53800000Y101700000D03*
X53800000Y96100000D03*
X53800000Y90500000D03*
X53800000Y84900000D03*
X53800000Y79300000D03*
X53800000Y73700000D03*
X53800000Y68100000D03*
X53800000Y62500000D03*
X53800000Y56900000D03*
X53800000Y51300000D03*
X53800000Y36000000D03*
X40900000Y105100000D03*
X40900000Y99500000D03*
X40900000Y93900000D03*
X40900000Y88300000D03*
X40900000Y82700000D03*
X40900000Y77100000D03*
X40900000Y71500000D03*
X40900000Y65900000D03*
X40900000Y60300000D03*
X40900000Y54700000D03*
X40900000Y39400000D03*
X53800000Y105100000D03*
X53800000Y99500000D03*
X53800000Y93900000D03*
X53800000Y88300000D03*
X53800000Y82700000D03*
X53800000Y77100000D03*
X53800000Y71500000D03*
X53800000Y65900000D03*
X53800000Y60300000D03*
X53800000Y54700000D03*
X53800000Y39400000D03*
X39400000Y105100000D03*
X39400000Y99500000D03*
X39400000Y93900000D03*
X39400000Y88300000D03*
X39400000Y82700000D03*
X39400000Y77100000D03*
X39400000Y71500000D03*
X39400000Y65900000D03*
X39400000Y60300000D03*
X39400000Y54700000D03*
X39400000Y39400000D03*
X40900000Y103400000D03*
X40900000Y97800000D03*
X40900000Y92200000D03*
X40900000Y86600000D03*
X40900000Y81000000D03*
X40900000Y75400000D03*
X40900000Y69800000D03*
X40900000Y64200000D03*
X40900000Y58600000D03*
X40900000Y53000000D03*
X40900000Y37700000D03*
X40900000Y101700000D03*
X40900000Y96100000D03*
X40900000Y90500000D03*
X40900000Y84900000D03*
X40900000Y79300000D03*
X40900000Y73700000D03*
X40900000Y68100000D03*
X40900000Y62500000D03*
X40900000Y56900000D03*
X40900000Y51300000D03*
X40900000Y36000000D03*
X39400000Y103400000D03*
X39400000Y97800000D03*
X39400000Y92200000D03*
X39400000Y86600000D03*
X39400000Y81000000D03*
X39400000Y75400000D03*
X39400000Y69800000D03*
X39400000Y64200000D03*
X39400000Y58600000D03*
X39400000Y53000000D03*
X39400000Y37700000D03*
X39400000Y101700000D03*
X39400000Y96100000D03*
X39400000Y90500000D03*
X39400000Y84900000D03*
X39400000Y79300000D03*
X39400000Y73700000D03*
X39400000Y68100000D03*
X39400000Y62500000D03*
X39400000Y56900000D03*
X39400000Y51300000D03*
X39400000Y36000000D03*
X25000000Y30400000D03*
X26500000Y32100000D03*
X25000000Y32100000D03*
X26500000Y30400000D03*
X25000000Y33800000D03*
X53800000Y32100000D03*
X53800000Y30400000D03*
X40900000Y33800000D03*
X26500000Y33800000D03*
X39400000Y30400000D03*
X40900000Y30400000D03*
X40900000Y32100000D03*
X39400000Y33800000D03*
X39400000Y32100000D03*
X53800000Y33800000D03*
X10500000Y32100000D03*
X10500000Y33800000D03*
X10500000Y30400000D03*
X12000000Y32100000D03*
X12000000Y33800000D03*
X12000000Y30400000D03*
X55300000Y54700000D03*
X55300000Y51300000D03*
X55300000Y53000000D03*
X55300000Y60300000D03*
X55300000Y65900000D03*
X55300000Y71500000D03*
X55300000Y77100000D03*
X55300000Y82700000D03*
X55300000Y88300000D03*
X55300000Y93900000D03*
X55300000Y99500000D03*
X55300000Y105100000D03*
X55300000Y56900000D03*
X55300000Y62500000D03*
X55300000Y68100000D03*
X55300000Y73700000D03*
X55300000Y79300000D03*
X55300000Y84900000D03*
X55300000Y90500000D03*
X55300000Y96100000D03*
X55300000Y101700000D03*
X55300000Y58600000D03*
X55300000Y64200000D03*
X55300000Y69800000D03*
X55300000Y75400000D03*
X55300000Y81000000D03*
X55300000Y86600000D03*
X55300000Y92200000D03*
X55300000Y97800000D03*
X55300000Y103400000D03*
X-47200000Y36000000D03*
X-47200000Y37700000D03*
X-47200000Y39400000D03*
X-60100000Y37700000D03*
X-60100000Y39400000D03*
X-60100000Y36000000D03*
X55300000Y39400000D03*
X55300000Y36000000D03*
X55300000Y37700000D03*
X55300000Y33800000D03*
X55300000Y28200000D03*
X55300000Y22600000D03*
X55300000Y17000000D03*
X55300000Y11400000D03*
X55300000Y5800000D03*
X55300000Y30400000D03*
X55300000Y24800000D03*
X55300000Y19200000D03*
X55300000Y13600000D03*
X55300000Y8000000D03*
X55300000Y2400000D03*
X55300000Y32100000D03*
X55300000Y26500000D03*
X55300000Y20900000D03*
X55300000Y15300000D03*
X55300000Y9700000D03*
X55300000Y4100000D03*
X10500000Y28200000D03*
X10500000Y22600000D03*
X10500000Y17000000D03*
X10500000Y11400000D03*
X10500000Y5800000D03*
X25000000Y24800000D03*
X25000000Y19200000D03*
X25000000Y13600000D03*
X25000000Y8000000D03*
X25000000Y2400000D03*
X10500000Y24800000D03*
X10500000Y19200000D03*
X10500000Y13600000D03*
X10500000Y8000000D03*
X10500000Y2400000D03*
X39400000Y26500000D03*
X39400000Y20900000D03*
X39400000Y15300000D03*
X39400000Y9700000D03*
X39400000Y4100000D03*
X39400000Y24800000D03*
X39400000Y19200000D03*
X39400000Y13600000D03*
X39400000Y8000000D03*
X39400000Y2400000D03*
X53800000Y26500000D03*
X53800000Y20900000D03*
X53800000Y15300000D03*
X53800000Y9700000D03*
X53800000Y4100000D03*
X40900000Y26500000D03*
X40900000Y20900000D03*
X40900000Y15300000D03*
X40900000Y9700000D03*
X40900000Y4100000D03*
X40900000Y28200000D03*
X40900000Y22600000D03*
X40900000Y17000000D03*
X40900000Y11400000D03*
X40900000Y5800000D03*
X26500000Y28200000D03*
X26500000Y22600000D03*
X26500000Y17000000D03*
X26500000Y11400000D03*
X26500000Y5800000D03*
X25000000Y28200000D03*
X25000000Y22600000D03*
X25000000Y17000000D03*
X25000000Y11400000D03*
X25000000Y5800000D03*
X40900000Y24800000D03*
X40900000Y19200000D03*
X40900000Y13600000D03*
X40900000Y8000000D03*
X40900000Y2400000D03*
X53800000Y28200000D03*
X53800000Y22600000D03*
X53800000Y17000000D03*
X53800000Y11400000D03*
X53800000Y5800000D03*
X53800000Y24800000D03*
X53800000Y19200000D03*
X53800000Y13600000D03*
X53800000Y8000000D03*
X53800000Y2400000D03*
X39400000Y28200000D03*
X39400000Y22600000D03*
X39400000Y17000000D03*
X39400000Y11400000D03*
X39400000Y5800000D03*
X26500000Y24800000D03*
X26500000Y19200000D03*
X26500000Y13600000D03*
X26500000Y8000000D03*
X26500000Y2400000D03*
X10500000Y26500000D03*
X10500000Y20900000D03*
X10500000Y15300000D03*
X10500000Y9700000D03*
X10500000Y4100000D03*
X25000000Y26500000D03*
X25000000Y20900000D03*
X25000000Y15300000D03*
X25000000Y9700000D03*
X25000000Y4100000D03*
X26500000Y26500000D03*
X26500000Y20900000D03*
X26500000Y15300000D03*
X26500000Y9700000D03*
X26500000Y4100000D03*
X12000000Y28200000D03*
X12000000Y22600000D03*
X12000000Y17000000D03*
X12000000Y11400000D03*
X12000000Y5800000D03*
X12000000Y26500000D03*
X12000000Y20900000D03*
X12000000Y15300000D03*
X12000000Y9700000D03*
X12000000Y4100000D03*
X12000000Y24800000D03*
X12000000Y19200000D03*
X12000000Y13600000D03*
X12000000Y8000000D03*
X12000000Y2400000D03*
X-18400000Y32100000D03*
X-18400000Y26500000D03*
X-18400000Y20900000D03*
X-18400000Y15300000D03*
X-18400000Y9700000D03*
X-18400000Y4100000D03*
X-18400000Y33800000D03*
X-18400000Y28200000D03*
X-18400000Y22600000D03*
X-18400000Y17000000D03*
X-18400000Y11400000D03*
X-18400000Y5800000D03*
X-31300000Y33800000D03*
X-31300000Y28200000D03*
X-31300000Y22600000D03*
X-31300000Y17000000D03*
X-31300000Y11400000D03*
X-31300000Y5800000D03*
X-18400000Y30400000D03*
X-18400000Y24800000D03*
X-18400000Y19200000D03*
X-18400000Y13600000D03*
X-18400000Y8000000D03*
X-18400000Y2400000D03*
X-32800000Y32100000D03*
X-32800000Y26500000D03*
X-32800000Y20900000D03*
X-32800000Y15300000D03*
X-32800000Y9700000D03*
X-32800000Y4100000D03*
X-31300000Y32100000D03*
X-31300000Y26500000D03*
X-31300000Y20900000D03*
X-31300000Y15300000D03*
X-31300000Y9700000D03*
X-31300000Y4100000D03*
X-31300000Y30400000D03*
X-31300000Y24800000D03*
X-31300000Y19200000D03*
X-31300000Y13600000D03*
X-31300000Y8000000D03*
X-31300000Y2400000D03*
X-32800000Y33800000D03*
X-32800000Y28200000D03*
X-32800000Y22600000D03*
X-32800000Y17000000D03*
X-32800000Y11400000D03*
X-32800000Y5800000D03*
X-45700000Y30400000D03*
X-45700000Y24800000D03*
X-45700000Y19200000D03*
X-45700000Y13600000D03*
X-45700000Y8000000D03*
X-45700000Y2400000D03*
X-32800000Y30400000D03*
X-32800000Y24800000D03*
X-32800000Y19200000D03*
X-32800000Y13600000D03*
X-32800000Y8000000D03*
X-32800000Y2400000D03*
X-4000000Y33800000D03*
X-4000000Y28200000D03*
X-4000000Y22600000D03*
X-4000000Y17000000D03*
X-4000000Y11400000D03*
X-4000000Y5800000D03*
X-2400000Y33800000D03*
X-2400000Y28200000D03*
X-2400000Y22600000D03*
X-2400000Y17000000D03*
X-2400000Y11400000D03*
X-2400000Y5800000D03*
X-2400000Y32100000D03*
X-2400000Y26500000D03*
X-2400000Y20900000D03*
X-2400000Y15300000D03*
X-2400000Y9700000D03*
X-2400000Y4100000D03*
X-2400000Y30400000D03*
X-2400000Y24800000D03*
X-2400000Y19200000D03*
X-2400000Y13600000D03*
X-2400000Y8000000D03*
X-2400000Y2400000D03*
X-4000000Y32100000D03*
X-4000000Y26500000D03*
X-4000000Y20900000D03*
X-4000000Y15300000D03*
X-4000000Y9700000D03*
X-4000000Y4100000D03*
X-45700000Y32100000D03*
X-45700000Y26500000D03*
X-45700000Y20900000D03*
X-45700000Y15300000D03*
X-45700000Y9700000D03*
X-45700000Y4100000D03*
X-45700000Y33800000D03*
X-45700000Y28200000D03*
X-45700000Y22600000D03*
X-45700000Y17000000D03*
X-45700000Y11400000D03*
X-45700000Y5800000D03*
X-16900000Y33800000D03*
X-16900000Y28200000D03*
X-16900000Y22600000D03*
X-16900000Y17000000D03*
X-16900000Y11400000D03*
X-16900000Y5800000D03*
X-16900000Y30400000D03*
X-16900000Y24800000D03*
X-16900000Y19200000D03*
X-16900000Y13600000D03*
X-16900000Y8000000D03*
X-16900000Y2400000D03*
X-16900000Y32100000D03*
X-16900000Y26500000D03*
X-16900000Y20900000D03*
X-16900000Y15300000D03*
X-16900000Y9700000D03*
X-16900000Y4100000D03*
X-4000000Y30400000D03*
X-4000000Y24800000D03*
X-4000000Y19200000D03*
X-4000000Y13600000D03*
X-4000000Y8000000D03*
X-4000000Y2400000D03*
X-60100000Y33800000D03*
X-60100000Y28200000D03*
X-60100000Y22600000D03*
X-60100000Y17000000D03*
X-60100000Y11400000D03*
X-60100000Y5800000D03*
X-47200000Y33800000D03*
X-47200000Y28200000D03*
X-47200000Y22600000D03*
X-47200000Y17000000D03*
X-47200000Y11400000D03*
X-47200000Y5800000D03*
X-47200000Y32100000D03*
X-47200000Y26500000D03*
X-47200000Y20900000D03*
X-47200000Y15300000D03*
X-47200000Y9700000D03*
X-47200000Y4100000D03*
X-60100000Y32100000D03*
X-60100000Y26500000D03*
X-60100000Y20900000D03*
X-60100000Y15300000D03*
X-60100000Y9700000D03*
X-60100000Y4100000D03*
X-47200000Y30400000D03*
X-47200000Y24800000D03*
X-47200000Y19200000D03*
X-47200000Y13600000D03*
X-47200000Y8000000D03*
X-47200000Y2400000D03*
X-60100000Y30400000D03*
X-60100000Y24800000D03*
X-60100000Y19200000D03*
X-60100000Y13600000D03*
X-60100000Y8000000D03*
X-60100000Y2400000D03*
G04 #@! TO.N,/C1+*
X61000000Y54700000D03*
X61000000Y60300000D03*
X61000000Y65900000D03*
X61000000Y71500000D03*
X61000000Y77100000D03*
X61000000Y82700000D03*
X61000000Y88300000D03*
X61000000Y93900000D03*
X61000000Y99500000D03*
X61000000Y105100000D03*
X61000000Y51300000D03*
X61000000Y56900000D03*
X61000000Y62500000D03*
X61000000Y68100000D03*
X61000000Y73700000D03*
X61000000Y79300000D03*
X61000000Y84900000D03*
X61000000Y90500000D03*
X61000000Y96100000D03*
X61000000Y101700000D03*
X61000000Y53000000D03*
X61000000Y58600000D03*
X61000000Y64200000D03*
X61000000Y69800000D03*
X61000000Y75400000D03*
X61000000Y81000000D03*
X61000000Y86600000D03*
X61000000Y92200000D03*
X61000000Y97800000D03*
X-52900000Y36000000D03*
X-52900000Y37700000D03*
X-52900000Y39400000D03*
X-54400000Y39400000D03*
X-54400000Y37700000D03*
X-54400000Y36000000D03*
X61000000Y103400000D03*
X-24100000Y103400000D03*
X-24100000Y97800000D03*
X-24100000Y92200000D03*
X-24100000Y86600000D03*
X-24100000Y81000000D03*
X-24100000Y75400000D03*
X-24100000Y69800000D03*
X-24100000Y64200000D03*
X-24100000Y58600000D03*
X-24100000Y53000000D03*
X-24100000Y37700000D03*
X-24100000Y105100000D03*
X-24100000Y99500000D03*
X-24100000Y93900000D03*
X-24100000Y88300000D03*
X-24100000Y82700000D03*
X-24100000Y77100000D03*
X-24100000Y71500000D03*
X-24100000Y65900000D03*
X-24100000Y60300000D03*
X-24100000Y54700000D03*
X-24100000Y39400000D03*
X-24100000Y101700000D03*
X-24100000Y96100000D03*
X-24100000Y90500000D03*
X-24100000Y84900000D03*
X-24100000Y79300000D03*
X-24100000Y73700000D03*
X-24100000Y68100000D03*
X-24100000Y62500000D03*
X-24100000Y56900000D03*
X-24100000Y51300000D03*
X-24100000Y36000000D03*
X-25600000Y103400000D03*
X-25600000Y97800000D03*
X-25600000Y92200000D03*
X-25600000Y86600000D03*
X-25600000Y81000000D03*
X-25600000Y75400000D03*
X-25600000Y69800000D03*
X-25600000Y64200000D03*
X-25600000Y58600000D03*
X-25600000Y53000000D03*
X-25600000Y37700000D03*
X-25600000Y101700000D03*
X-25600000Y96100000D03*
X-25600000Y90500000D03*
X-25600000Y84900000D03*
X-25600000Y79300000D03*
X-25600000Y73700000D03*
X-25600000Y68100000D03*
X-25600000Y62500000D03*
X-25600000Y56900000D03*
X-25600000Y51300000D03*
X-25600000Y36000000D03*
X-25600000Y105100000D03*
X-25600000Y99500000D03*
X-25600000Y93900000D03*
X-25600000Y88300000D03*
X-25600000Y82700000D03*
X-25600000Y77100000D03*
X-25600000Y71500000D03*
X-25600000Y65900000D03*
X-25600000Y60300000D03*
X-25600000Y54700000D03*
X-25600000Y39400000D03*
X-38500000Y103400000D03*
X-38500000Y97800000D03*
X-38500000Y92200000D03*
X-38500000Y86600000D03*
X-38500000Y81000000D03*
X-38500000Y75400000D03*
X-38500000Y69800000D03*
X-38500000Y64200000D03*
X-38500000Y58600000D03*
X-38500000Y53000000D03*
X-38500000Y37700000D03*
X-38500000Y101700000D03*
X-38500000Y96100000D03*
X-38500000Y90500000D03*
X-38500000Y84900000D03*
X-38500000Y79300000D03*
X-38500000Y73700000D03*
X-38500000Y68100000D03*
X-38500000Y62500000D03*
X-38500000Y56900000D03*
X-38500000Y51300000D03*
X-38500000Y36000000D03*
X-38500000Y105100000D03*
X-38500000Y99500000D03*
X-38500000Y93900000D03*
X-38500000Y88300000D03*
X-38500000Y82700000D03*
X-38500000Y77100000D03*
X-38500000Y71500000D03*
X-38500000Y65900000D03*
X-38500000Y60300000D03*
X-38500000Y54700000D03*
X-38500000Y39400000D03*
X-40000000Y101700000D03*
X-40000000Y96100000D03*
X-40000000Y90500000D03*
X-40000000Y84900000D03*
X-40000000Y79300000D03*
X-40000000Y73700000D03*
X-40000000Y68100000D03*
X-40000000Y62500000D03*
X-40000000Y56900000D03*
X-40000000Y51300000D03*
X-40000000Y36000000D03*
X-40000000Y103400000D03*
X-40000000Y97800000D03*
X-40000000Y92200000D03*
X-40000000Y86600000D03*
X-40000000Y81000000D03*
X-40000000Y75400000D03*
X-40000000Y69800000D03*
X-40000000Y64200000D03*
X-40000000Y58600000D03*
X-40000000Y53000000D03*
X-40000000Y37700000D03*
X-40000000Y105100000D03*
X-40000000Y99500000D03*
X-40000000Y93900000D03*
X-40000000Y88300000D03*
X-40000000Y82700000D03*
X-40000000Y77100000D03*
X-40000000Y71500000D03*
X-40000000Y65900000D03*
X-40000000Y60300000D03*
X-40000000Y54700000D03*
X-40000000Y39400000D03*
X-52900000Y103400000D03*
X-52900000Y97800000D03*
X-52900000Y92200000D03*
X-52900000Y86600000D03*
X-52900000Y81000000D03*
X-52900000Y75400000D03*
X-52900000Y101700000D03*
X-52900000Y96100000D03*
X-52900000Y90500000D03*
X-52900000Y84900000D03*
X-52900000Y79300000D03*
X-52900000Y73700000D03*
X-52900000Y105100000D03*
X-52900000Y99500000D03*
X-52900000Y93900000D03*
X-52900000Y88300000D03*
X-52900000Y82700000D03*
X-52900000Y77100000D03*
X-54400000Y101700000D03*
X-54400000Y96100000D03*
X-54400000Y90500000D03*
X-54400000Y84900000D03*
X-54400000Y79300000D03*
X-54400000Y73700000D03*
X-54400000Y103400000D03*
X-54400000Y97800000D03*
X-54400000Y92200000D03*
X-54400000Y86600000D03*
X-54400000Y81000000D03*
X-54400000Y75400000D03*
X-54400000Y105100000D03*
X-54400000Y99500000D03*
X-54400000Y93900000D03*
X-54400000Y88300000D03*
X-54400000Y82700000D03*
X-54400000Y77100000D03*
X-11200000Y103400000D03*
X-11200000Y97800000D03*
X-11200000Y92200000D03*
X-11200000Y86600000D03*
X-11200000Y81000000D03*
X-11200000Y75400000D03*
X-11200000Y69800000D03*
X-11200000Y64200000D03*
X-11200000Y58600000D03*
X-11200000Y53000000D03*
X-11200000Y37700000D03*
X-11200000Y105100000D03*
X-11200000Y99500000D03*
X-11200000Y93900000D03*
X-11200000Y88300000D03*
X-11200000Y82700000D03*
X-11200000Y77100000D03*
X-11200000Y71500000D03*
X-11200000Y65900000D03*
X-11200000Y60300000D03*
X-11200000Y54700000D03*
X-11200000Y39400000D03*
X-11200000Y101700000D03*
X-11200000Y96100000D03*
X-11200000Y90500000D03*
X-11200000Y84900000D03*
X-11200000Y79300000D03*
X-11200000Y73700000D03*
X-11200000Y68100000D03*
X-11200000Y62500000D03*
X-11200000Y56900000D03*
X-11200000Y51300000D03*
X-11200000Y36000000D03*
X-9700000Y101700000D03*
X-9700000Y96100000D03*
X-9700000Y90500000D03*
X-9700000Y84900000D03*
X-9700000Y79300000D03*
X-9700000Y73700000D03*
X-9700000Y68100000D03*
X-9700000Y62500000D03*
X-9700000Y56900000D03*
X-9700000Y51300000D03*
X-9700000Y36000000D03*
X-9700000Y105100000D03*
X-9700000Y99500000D03*
X-9700000Y93900000D03*
X-9700000Y88300000D03*
X-9700000Y82700000D03*
X-9700000Y77100000D03*
X-9700000Y71500000D03*
X-9700000Y65900000D03*
X-9700000Y60300000D03*
X-9700000Y54700000D03*
X-9700000Y39400000D03*
X-9700000Y103400000D03*
X-9700000Y97800000D03*
X-9700000Y92200000D03*
X-9700000Y86600000D03*
X-9700000Y81000000D03*
X-9700000Y75400000D03*
X-9700000Y69800000D03*
X-9700000Y64200000D03*
X-9700000Y58600000D03*
X-9700000Y53000000D03*
X-9700000Y37700000D03*
X3300000Y103400000D03*
X3300000Y97800000D03*
X3300000Y92200000D03*
X3300000Y86600000D03*
X3300000Y81000000D03*
X3300000Y75400000D03*
X3300000Y69800000D03*
X3300000Y64200000D03*
X3300000Y58600000D03*
X3300000Y53000000D03*
X3300000Y37700000D03*
X3300000Y101700000D03*
X3300000Y96100000D03*
X3300000Y90500000D03*
X3300000Y84900000D03*
X3300000Y79300000D03*
X3300000Y73700000D03*
X3300000Y68100000D03*
X3300000Y62500000D03*
X3300000Y56900000D03*
X3300000Y51300000D03*
X3300000Y36000000D03*
X3300000Y105100000D03*
X3300000Y99500000D03*
X3300000Y93900000D03*
X3300000Y88300000D03*
X3300000Y82700000D03*
X3300000Y77100000D03*
X3300000Y71500000D03*
X3300000Y65900000D03*
X3300000Y60300000D03*
X3300000Y54700000D03*
X3300000Y39400000D03*
X4800000Y103400000D03*
X4800000Y97800000D03*
X4800000Y92200000D03*
X4800000Y86600000D03*
X4800000Y81000000D03*
X4800000Y75400000D03*
X4800000Y69800000D03*
X4800000Y64200000D03*
X4800000Y58600000D03*
X4800000Y53000000D03*
X4800000Y37700000D03*
X4800000Y101700000D03*
X4800000Y96100000D03*
X4800000Y90500000D03*
X4800000Y84900000D03*
X4800000Y79300000D03*
X4800000Y73700000D03*
X4800000Y68100000D03*
X4800000Y62500000D03*
X4800000Y56900000D03*
X4800000Y51300000D03*
X4800000Y36000000D03*
X4800000Y105100000D03*
X4800000Y99500000D03*
X4800000Y93900000D03*
X4800000Y88300000D03*
X4800000Y82700000D03*
X4800000Y77100000D03*
X4800000Y71500000D03*
X4800000Y65900000D03*
X4800000Y60300000D03*
X4800000Y54700000D03*
X4800000Y39400000D03*
X17800000Y103400000D03*
X17800000Y97800000D03*
X17800000Y92200000D03*
X17800000Y86600000D03*
X17800000Y81000000D03*
X17800000Y75400000D03*
X17800000Y69800000D03*
X17800000Y64200000D03*
X17800000Y58600000D03*
X17800000Y53000000D03*
X17800000Y37700000D03*
X17800000Y105100000D03*
X17800000Y99500000D03*
X17800000Y93900000D03*
X17800000Y88300000D03*
X17800000Y82700000D03*
X17800000Y77100000D03*
X17800000Y71500000D03*
X17800000Y65900000D03*
X17800000Y60300000D03*
X17800000Y54700000D03*
X17800000Y39400000D03*
X17800000Y101700000D03*
X17800000Y96100000D03*
X17800000Y90500000D03*
X17800000Y84900000D03*
X17800000Y79300000D03*
X17800000Y73700000D03*
X17800000Y68100000D03*
X17800000Y62500000D03*
X17800000Y56900000D03*
X17800000Y51300000D03*
X17800000Y36000000D03*
X19300000Y101700000D03*
X19300000Y96100000D03*
X19300000Y90500000D03*
X19300000Y84900000D03*
X19300000Y79300000D03*
X19300000Y73700000D03*
X19300000Y68100000D03*
X19300000Y62500000D03*
X19300000Y56900000D03*
X19300000Y51300000D03*
X19300000Y105100000D03*
X19300000Y99500000D03*
X19300000Y93900000D03*
X19300000Y88300000D03*
X19300000Y82700000D03*
X19300000Y77100000D03*
X19300000Y71500000D03*
X19300000Y65900000D03*
X19300000Y60300000D03*
X19300000Y54700000D03*
X19300000Y103400000D03*
X19300000Y97800000D03*
X19300000Y92200000D03*
X19300000Y86600000D03*
X19300000Y81000000D03*
X19300000Y75400000D03*
X19300000Y69800000D03*
X19300000Y64200000D03*
X19300000Y58600000D03*
X19300000Y53000000D03*
X19300000Y36000000D03*
X19300000Y37700000D03*
X19300000Y39400000D03*
X48100000Y105100000D03*
X48100000Y99500000D03*
X48100000Y93900000D03*
X48100000Y88300000D03*
X48100000Y82700000D03*
X48100000Y77100000D03*
X48100000Y71500000D03*
X48100000Y65900000D03*
X48100000Y60300000D03*
X48100000Y54700000D03*
X48100000Y39400000D03*
X48100000Y101700000D03*
X48100000Y96100000D03*
X48100000Y90500000D03*
X48100000Y84900000D03*
X48100000Y79300000D03*
X48100000Y73700000D03*
X48100000Y68100000D03*
X48100000Y62500000D03*
X48100000Y56900000D03*
X48100000Y51300000D03*
X48100000Y36000000D03*
X48100000Y103400000D03*
X48100000Y97800000D03*
X48100000Y92200000D03*
X48100000Y86600000D03*
X48100000Y81000000D03*
X48100000Y75400000D03*
X48100000Y69800000D03*
X48100000Y64200000D03*
X48100000Y58600000D03*
X48100000Y53000000D03*
X48100000Y37700000D03*
X32200000Y105100000D03*
X32200000Y99500000D03*
X32200000Y93900000D03*
X32200000Y88300000D03*
X32200000Y82700000D03*
X32200000Y77100000D03*
X32200000Y71500000D03*
X32200000Y65900000D03*
X32200000Y60300000D03*
X32200000Y54700000D03*
X32200000Y39400000D03*
X46600000Y101700000D03*
X46600000Y96100000D03*
X46600000Y90500000D03*
X46600000Y84900000D03*
X46600000Y79300000D03*
X46600000Y73700000D03*
X46600000Y68100000D03*
X46600000Y62500000D03*
X46600000Y56900000D03*
X46600000Y51300000D03*
X46600000Y36000000D03*
X32200000Y103400000D03*
X32200000Y97800000D03*
X32200000Y92200000D03*
X32200000Y86600000D03*
X32200000Y81000000D03*
X32200000Y75400000D03*
X32200000Y69800000D03*
X32200000Y64200000D03*
X32200000Y58600000D03*
X32200000Y53000000D03*
X32200000Y37700000D03*
X33700000Y103400000D03*
X33700000Y97800000D03*
X33700000Y92200000D03*
X33700000Y86600000D03*
X33700000Y81000000D03*
X33700000Y75400000D03*
X33700000Y69800000D03*
X33700000Y64200000D03*
X33700000Y58600000D03*
X33700000Y53000000D03*
X33700000Y37700000D03*
X32200000Y101700000D03*
X32200000Y96100000D03*
X32200000Y90500000D03*
X32200000Y84900000D03*
X32200000Y79300000D03*
X32200000Y73700000D03*
X32200000Y68100000D03*
X32200000Y62500000D03*
X32200000Y56900000D03*
X32200000Y51300000D03*
X32200000Y36000000D03*
X33700000Y101700000D03*
X33700000Y96100000D03*
X33700000Y90500000D03*
X33700000Y84900000D03*
X33700000Y79300000D03*
X33700000Y73700000D03*
X33700000Y68100000D03*
X33700000Y62500000D03*
X33700000Y56900000D03*
X33700000Y51300000D03*
X33700000Y36000000D03*
X46600000Y105100000D03*
X46600000Y99500000D03*
X46600000Y93900000D03*
X46600000Y88300000D03*
X46600000Y82700000D03*
X46600000Y77100000D03*
X46600000Y71500000D03*
X46600000Y65900000D03*
X46600000Y60300000D03*
X46600000Y54700000D03*
X46600000Y39400000D03*
X46600000Y103400000D03*
X46600000Y97800000D03*
X46600000Y92200000D03*
X46600000Y86600000D03*
X46600000Y81000000D03*
X46600000Y75400000D03*
X46600000Y69800000D03*
X46600000Y64200000D03*
X46600000Y58600000D03*
X46600000Y53000000D03*
X46600000Y37700000D03*
X33700000Y105100000D03*
X33700000Y99500000D03*
X33700000Y93900000D03*
X33700000Y88300000D03*
X33700000Y82700000D03*
X33700000Y77100000D03*
X33700000Y71500000D03*
X33700000Y65900000D03*
X33700000Y60300000D03*
X33700000Y54700000D03*
X33700000Y39400000D03*
X4800000Y32100000D03*
X4800000Y30400000D03*
X4800000Y33800000D03*
X17800000Y32100000D03*
X19300000Y30400000D03*
X19300000Y32100000D03*
X17800000Y30400000D03*
X19300000Y33800000D03*
X17800000Y33800000D03*
X48100000Y33800000D03*
X48100000Y30400000D03*
X46600000Y30400000D03*
X32200000Y33800000D03*
X48100000Y32100000D03*
X46600000Y33800000D03*
X46600000Y32100000D03*
X32200000Y30400000D03*
X33700000Y30400000D03*
X32200000Y32100000D03*
X33700000Y32100000D03*
X33700000Y33800000D03*
X61000000Y39400000D03*
X61000000Y36000000D03*
X61000000Y37700000D03*
X61000000Y33800000D03*
X61000000Y28200000D03*
X61000000Y22600000D03*
X61000000Y17000000D03*
X61000000Y11400000D03*
X61000000Y5800000D03*
X61000000Y30400000D03*
X61000000Y24800000D03*
X61000000Y19200000D03*
X61000000Y13600000D03*
X61000000Y8000000D03*
X61000000Y2400000D03*
X61000000Y32100000D03*
X61000000Y26500000D03*
X61000000Y20900000D03*
X61000000Y15300000D03*
X61000000Y9700000D03*
X61000000Y4100000D03*
X17800000Y26500000D03*
X17800000Y20900000D03*
X17800000Y15300000D03*
X17800000Y9700000D03*
X17800000Y4100000D03*
X32200000Y28200000D03*
X32200000Y22600000D03*
X32200000Y17000000D03*
X32200000Y11400000D03*
X32200000Y5800000D03*
X46600000Y26500000D03*
X46600000Y20900000D03*
X46600000Y15300000D03*
X46600000Y9700000D03*
X46600000Y4100000D03*
X33700000Y24800000D03*
X33700000Y19200000D03*
X33700000Y13600000D03*
X33700000Y8000000D03*
X33700000Y2400000D03*
X4800000Y28200000D03*
X4800000Y22600000D03*
X4800000Y17000000D03*
X4800000Y11400000D03*
X4800000Y5800000D03*
X33700000Y28200000D03*
X33700000Y22600000D03*
X33700000Y17000000D03*
X33700000Y11400000D03*
X33700000Y5800000D03*
X19300000Y24800000D03*
X19300000Y19200000D03*
X19300000Y13600000D03*
X19300000Y8000000D03*
X19300000Y2400000D03*
X19300000Y26500000D03*
X19300000Y20900000D03*
X19300000Y15300000D03*
X19300000Y9700000D03*
X19300000Y4100000D03*
X19300000Y28200000D03*
X19300000Y22600000D03*
X19300000Y17000000D03*
X19300000Y11400000D03*
X19300000Y5800000D03*
X32200000Y26500000D03*
X32200000Y20900000D03*
X32200000Y15300000D03*
X32200000Y9700000D03*
X32200000Y4100000D03*
X32200000Y24800000D03*
X32200000Y19200000D03*
X32200000Y13600000D03*
X32200000Y8000000D03*
X32200000Y2400000D03*
X17800000Y24800000D03*
X17800000Y19200000D03*
X17800000Y13600000D03*
X17800000Y8000000D03*
X17800000Y2400000D03*
X4800000Y26500000D03*
X4800000Y20900000D03*
X4800000Y15300000D03*
X4800000Y9700000D03*
X4800000Y4100000D03*
X33700000Y26500000D03*
X33700000Y20900000D03*
X33700000Y15300000D03*
X33700000Y9700000D03*
X33700000Y4100000D03*
X46600000Y24800000D03*
X46600000Y19200000D03*
X46600000Y13600000D03*
X46600000Y8000000D03*
X46600000Y2400000D03*
X4800000Y24800000D03*
X4800000Y19200000D03*
X4800000Y13600000D03*
X4800000Y8000000D03*
X4800000Y2400000D03*
X48100000Y28200000D03*
X48100000Y22600000D03*
X48100000Y17000000D03*
X48100000Y11400000D03*
X48100000Y5800000D03*
X48100000Y26500000D03*
X48100000Y20900000D03*
X48100000Y15300000D03*
X48100000Y9700000D03*
X48100000Y4100000D03*
X17800000Y28200000D03*
X17800000Y22600000D03*
X17800000Y17000000D03*
X17800000Y11400000D03*
X17800000Y5800000D03*
X48100000Y24800000D03*
X48100000Y19200000D03*
X48100000Y13600000D03*
X48100000Y8000000D03*
X48100000Y2400000D03*
X46600000Y28200000D03*
X46600000Y22600000D03*
X46600000Y17000000D03*
X46600000Y11400000D03*
X46600000Y5800000D03*
X-24100000Y30400000D03*
X-24100000Y24800000D03*
X-24100000Y19200000D03*
X-24100000Y13600000D03*
X-24100000Y8000000D03*
X-24100000Y2400000D03*
X-24100000Y32100000D03*
X-24100000Y26500000D03*
X-24100000Y20900000D03*
X-24100000Y15300000D03*
X-24100000Y9700000D03*
X-24100000Y4100000D03*
X-25600000Y30400000D03*
X-25600000Y24800000D03*
X-25600000Y19200000D03*
X-25600000Y13600000D03*
X-25600000Y8000000D03*
X-25600000Y2400000D03*
X-25600000Y32100000D03*
X-25600000Y26500000D03*
X-25600000Y20900000D03*
X-25600000Y15300000D03*
X-25600000Y9700000D03*
X-25600000Y4100000D03*
X-24100000Y33800000D03*
X-24100000Y28200000D03*
X-24100000Y22600000D03*
X-24100000Y17000000D03*
X-24100000Y11400000D03*
X-24100000Y5800000D03*
X-38500000Y32100000D03*
X-38500000Y26500000D03*
X-38500000Y20900000D03*
X-38500000Y15300000D03*
X-38500000Y9700000D03*
X-38500000Y4100000D03*
X-40000000Y30400000D03*
X-40000000Y24800000D03*
X-40000000Y19200000D03*
X-40000000Y13600000D03*
X-40000000Y8000000D03*
X-40000000Y2400000D03*
X-38500000Y30400000D03*
X-38500000Y24800000D03*
X-38500000Y19200000D03*
X-38500000Y13600000D03*
X-38500000Y8000000D03*
X-38500000Y2400000D03*
X-25600000Y33800000D03*
X-25600000Y28200000D03*
X-25600000Y22600000D03*
X-25600000Y17000000D03*
X-25600000Y11400000D03*
X-25600000Y5800000D03*
X-38500000Y33800000D03*
X-38500000Y28200000D03*
X-38500000Y22600000D03*
X-38500000Y17000000D03*
X-38500000Y11400000D03*
X-38500000Y5800000D03*
X-40000000Y32100000D03*
X-40000000Y26500000D03*
X-40000000Y20900000D03*
X-40000000Y15300000D03*
X-40000000Y9700000D03*
X-40000000Y4100000D03*
X3300000Y33800000D03*
X3300000Y28200000D03*
X3300000Y22600000D03*
X3300000Y17000000D03*
X3300000Y11400000D03*
X3300000Y5800000D03*
X3300000Y32100000D03*
X3300000Y26500000D03*
X3300000Y20900000D03*
X3300000Y15300000D03*
X3300000Y9700000D03*
X3300000Y4100000D03*
X3300000Y30400000D03*
X3300000Y24800000D03*
X3300000Y19200000D03*
X3300000Y13600000D03*
X3300000Y8000000D03*
X3300000Y2400000D03*
X-40000000Y33800000D03*
X-40000000Y28200000D03*
X-40000000Y22600000D03*
X-40000000Y17000000D03*
X-40000000Y11400000D03*
X-40000000Y5800000D03*
X-11200000Y30400000D03*
X-11200000Y24800000D03*
X-11200000Y19200000D03*
X-11200000Y13600000D03*
X-11200000Y8000000D03*
X-11200000Y2400000D03*
X-11200000Y33800000D03*
X-11200000Y28200000D03*
X-11200000Y22600000D03*
X-11200000Y17000000D03*
X-11200000Y11400000D03*
X-11200000Y5800000D03*
X-11200000Y32100000D03*
X-11200000Y26500000D03*
X-11200000Y20900000D03*
X-11200000Y15300000D03*
X-11200000Y9700000D03*
X-11200000Y4100000D03*
X-9700000Y32100000D03*
X-9700000Y26500000D03*
X-9700000Y20900000D03*
X-9700000Y15300000D03*
X-9700000Y9700000D03*
X-9700000Y4100000D03*
X-9700000Y30400000D03*
X-9700000Y24800000D03*
X-9700000Y19200000D03*
X-9700000Y13600000D03*
X-9700000Y8000000D03*
X-9700000Y2400000D03*
X-9700000Y33800000D03*
X-9700000Y28200000D03*
X-9700000Y22600000D03*
X-9700000Y17000000D03*
X-9700000Y11400000D03*
X-9700000Y5800000D03*
X-52900000Y30400000D03*
X-52900000Y24800000D03*
X-52900000Y19200000D03*
X-52900000Y13600000D03*
X-52900000Y8000000D03*
X-52900000Y2400000D03*
X-52900000Y32100000D03*
X-52900000Y26500000D03*
X-52900000Y20900000D03*
X-52900000Y15300000D03*
X-52900000Y9700000D03*
X-52900000Y4100000D03*
X-52900000Y33800000D03*
X-52900000Y28200000D03*
X-52900000Y22600000D03*
X-52900000Y17000000D03*
X-52900000Y11400000D03*
X-52900000Y5800000D03*
X-54400000Y32100000D03*
X-54400000Y26500000D03*
X-54400000Y20900000D03*
X-54400000Y15300000D03*
X-54400000Y9700000D03*
X-54400000Y4100000D03*
X-54400000Y33800000D03*
X-54400000Y28200000D03*
X-54400000Y22600000D03*
X-54400000Y17000000D03*
X-54400000Y11400000D03*
X-54400000Y5800000D03*
X-54400000Y30400000D03*
X-54400000Y24800000D03*
X-54400000Y19200000D03*
X-54400000Y13600000D03*
X-54400000Y8000000D03*
X-54400000Y2400000D03*
G04 #@! TD*
D15*
G04 #@! TO.N,/C1-*
G36*
X-59761961Y105467392D02*
X-59450547Y105059911D01*
X-59255472Y104585608D01*
X-59189012Y104068588D01*
X-59306247Y68897918D01*
X-59303879Y68873082D01*
X-59242040Y68557387D01*
X-59223152Y68511463D01*
X-59044986Y68243612D01*
X-59009932Y68208441D01*
X-58742676Y68029383D01*
X-58696815Y68010342D01*
X-58381328Y67947451D01*
X-58380906Y67947367D01*
X-58086448Y67889706D01*
X-57856290Y67738874D01*
X-57700021Y67512370D01*
X-57638022Y67231396D01*
X-57594665Y65410424D01*
X-57667043Y64749519D01*
X-57907345Y64138758D01*
X-58299627Y63612556D01*
X-58816343Y63207860D01*
X-59421209Y62953089D01*
X-60080204Y62865000D01*
X-60317871Y62865000D01*
X-60946545Y62935835D01*
X-61536921Y63142416D01*
X-62066527Y63475189D01*
X-62508811Y63917473D01*
X-62841584Y64447079D01*
X-63048165Y65037455D01*
X-63119000Y65666129D01*
X-63119000Y104068172D01*
X-63050866Y104585702D01*
X-62854321Y105060202D01*
X-62541664Y105467664D01*
X-62143743Y105773000D01*
X-60159094Y105773000D01*
X-59761961Y105467392D01*
X-59761961Y105467392D01*
G37*
X-59761961Y105467392D02*
X-59450547Y105059911D01*
X-59255472Y104585608D01*
X-59189012Y104068588D01*
X-59306247Y68897918D01*
X-59303879Y68873082D01*
X-59242040Y68557387D01*
X-59223152Y68511463D01*
X-59044986Y68243612D01*
X-59009932Y68208441D01*
X-58742676Y68029383D01*
X-58696815Y68010342D01*
X-58381328Y67947451D01*
X-58380906Y67947367D01*
X-58086448Y67889706D01*
X-57856290Y67738874D01*
X-57700021Y67512370D01*
X-57638022Y67231396D01*
X-57594665Y65410424D01*
X-57667043Y64749519D01*
X-57907345Y64138758D01*
X-58299627Y63612556D01*
X-58816343Y63207860D01*
X-59421209Y62953089D01*
X-60080204Y62865000D01*
X-60317871Y62865000D01*
X-60946545Y62935835D01*
X-61536921Y63142416D01*
X-62066527Y63475189D01*
X-62508811Y63917473D01*
X-62841584Y64447079D01*
X-63048165Y65037455D01*
X-63119000Y65666129D01*
X-63119000Y104068172D01*
X-63050866Y104585702D01*
X-62854321Y105060202D01*
X-62541664Y105467664D01*
X-62143743Y105773000D01*
X-60159094Y105773000D01*
X-59761961Y105467392D01*
G36*
X-30480000Y50419000D02*
X-33528000Y50419000D01*
X-33528000Y104773000D01*
X-30480000Y104773000D01*
X-30480000Y50419000D01*
X-30480000Y50419000D01*
G37*
X-30480000Y50419000D02*
X-33528000Y50419000D01*
X-33528000Y104773000D01*
X-30480000Y104773000D01*
X-30480000Y50419000D01*
G36*
X-16129000Y50419000D02*
X-19177000Y50419000D01*
X-19177000Y104773000D01*
X-16129000Y104773000D01*
X-16129000Y50419000D01*
X-16129000Y50419000D01*
G37*
X-16129000Y50419000D02*
X-19177000Y50419000D01*
X-19177000Y104773000D01*
X-16129000Y104773000D01*
X-16129000Y50419000D01*
G36*
X-1707000Y50419000D02*
X-4699000Y50419000D01*
X-4699000Y104773000D01*
X-1707000Y104773000D01*
X-1707000Y50419000D01*
X-1707000Y50419000D01*
G37*
X-1707000Y50419000D02*
X-4699000Y50419000D01*
X-4699000Y104773000D01*
X-1707000Y104773000D01*
X-1707000Y50419000D01*
G36*
X12827000Y50419000D02*
X9772000Y50419000D01*
X9772000Y104773000D01*
X12827000Y104773000D01*
X12827000Y50419000D01*
X12827000Y50419000D01*
G37*
X12827000Y50419000D02*
X9772000Y50419000D01*
X9772000Y104773000D01*
X12827000Y104773000D01*
X12827000Y50419000D01*
G36*
X27305000Y50546000D02*
X24257000Y50546000D01*
X24257000Y104773000D01*
X27305000Y104773000D01*
X27305000Y50546000D01*
X27305000Y50546000D01*
G37*
X27305000Y50546000D02*
X24257000Y50546000D01*
X24257000Y104773000D01*
X27305000Y104773000D01*
X27305000Y50546000D01*
G36*
X41656000Y50546000D02*
X38608000Y50546000D01*
X38608000Y104773000D01*
X41656000Y104773000D01*
X41656000Y50546000D01*
X41656000Y50546000D01*
G37*
X41656000Y50546000D02*
X38608000Y50546000D01*
X38608000Y104773000D01*
X41656000Y104773000D01*
X41656000Y50546000D01*
G36*
X56134000Y50546000D02*
X52959000Y50546000D01*
X52959000Y104773000D01*
X56134000Y104773000D01*
X56134000Y50546000D01*
X56134000Y50546000D01*
G37*
X56134000Y50546000D02*
X52959000Y50546000D01*
X52959000Y104773000D01*
X56134000Y104773000D01*
X56134000Y50546000D01*
G36*
X-44880000Y50419000D02*
X-47928000Y50419000D01*
X-47928000Y104773000D01*
X-44880000Y104773000D01*
X-44880000Y50419000D01*
X-44880000Y50419000D01*
G37*
X-44880000Y50419000D02*
X-47928000Y50419000D01*
X-47928000Y104773000D01*
X-44880000Y104773000D01*
X-44880000Y50419000D01*
G36*
X-44958000Y2227000D02*
X-48006000Y2227000D01*
X-48006000Y40259000D01*
X-44958000Y40259000D01*
X-44958000Y2227000D01*
X-44958000Y2227000D01*
G37*
X-44958000Y2227000D02*
X-48006000Y2227000D01*
X-48006000Y40259000D01*
X-44958000Y40259000D01*
X-44958000Y2227000D01*
G36*
X-30558000Y2227000D02*
X-33606000Y2227000D01*
X-33606000Y40259000D01*
X-30558000Y40259000D01*
X-30558000Y2227000D01*
X-30558000Y2227000D01*
G37*
X-30558000Y2227000D02*
X-33606000Y2227000D01*
X-33606000Y40259000D01*
X-30558000Y40259000D01*
X-30558000Y2227000D01*
G36*
X-16158000Y2227000D02*
X-19206000Y2227000D01*
X-19206000Y40259000D01*
X-16158000Y40259000D01*
X-16158000Y2227000D01*
X-16158000Y2227000D01*
G37*
X-16158000Y2227000D02*
X-19206000Y2227000D01*
X-19206000Y40259000D01*
X-16158000Y40259000D01*
X-16158000Y2227000D01*
G36*
X-1651000Y2227000D02*
X-4806000Y2227000D01*
X-4806000Y40259000D01*
X-1651000Y40259000D01*
X-1651000Y2227000D01*
X-1651000Y2227000D01*
G37*
X-1651000Y2227000D02*
X-4806000Y2227000D01*
X-4806000Y40259000D01*
X-1651000Y40259000D01*
X-1651000Y2227000D01*
G36*
X12827000Y2227000D02*
X9779000Y2227000D01*
X9779000Y40259000D01*
X12827000Y40259000D01*
X12827000Y2227000D01*
X12827000Y2227000D01*
G37*
X12827000Y2227000D02*
X9779000Y2227000D01*
X9779000Y40259000D01*
X12827000Y40259000D01*
X12827000Y2227000D01*
G36*
X27305000Y2227000D02*
X24130000Y2227000D01*
X24130000Y40259000D01*
X27305000Y40259000D01*
X27305000Y2227000D01*
X27305000Y2227000D01*
G37*
X27305000Y2227000D02*
X24130000Y2227000D01*
X24130000Y40259000D01*
X27305000Y40259000D01*
X27305000Y2227000D01*
G36*
X41656000Y2227000D02*
X38608000Y2227000D01*
X38608000Y40259000D01*
X41656000Y40259000D01*
X41656000Y2227000D01*
X41656000Y2227000D01*
G37*
X41656000Y2227000D02*
X38608000Y2227000D01*
X38608000Y40259000D01*
X41656000Y40259000D01*
X41656000Y2227000D01*
G36*
X56134000Y2227000D02*
X52959000Y2227000D01*
X52959000Y40259000D01*
X56134000Y40259000D01*
X56134000Y2227000D01*
X56134000Y2227000D01*
G37*
X56134000Y2227000D02*
X52959000Y2227000D01*
X52959000Y40259000D01*
X56134000Y40259000D01*
X56134000Y2227000D01*
G04 #@! TO.N,/C1+*
G36*
X-51263987Y104350272D02*
X-51186310Y103750948D01*
X-51301022Y51442242D01*
X-51300252Y51428000D01*
X-51221978Y50720353D01*
X-51215693Y50692577D01*
X-50981705Y50020163D01*
X-50969389Y49994486D01*
X-50591452Y49391116D01*
X-50573724Y49368828D01*
X-50070843Y48864843D01*
X-50048594Y48847066D01*
X-49446055Y48467807D01*
X-49420405Y48455435D01*
X-48748505Y48219972D01*
X-48720742Y48213626D01*
X-48013269Y48133801D01*
X-47999030Y48133000D01*
X-44858594Y48133000D01*
X-44844418Y48133794D01*
X-44140059Y48212909D01*
X-44112414Y48219198D01*
X-43443158Y48452600D01*
X-43417597Y48464866D01*
X-42816797Y48840923D01*
X-42794594Y48858554D01*
X-42292191Y49358526D01*
X-42274453Y49380643D01*
X-41895486Y49979612D01*
X-41883097Y50005113D01*
X-41646450Y50673228D01*
X-41640026Y50700842D01*
X-41557495Y51404809D01*
X-41556632Y51418981D01*
X-41301823Y103940612D01*
X-41226766Y104491782D01*
X-41109081Y104773000D01*
X-37292244Y104773000D01*
X-37176182Y104491493D01*
X-37104892Y103941447D01*
X-37220022Y51442242D01*
X-37219252Y51428000D01*
X-37140978Y50720353D01*
X-37134693Y50692577D01*
X-36900705Y50020163D01*
X-36888389Y49994486D01*
X-36510452Y49391116D01*
X-36492724Y49368828D01*
X-35989843Y48864843D01*
X-35967594Y48847066D01*
X-35365055Y48467807D01*
X-35339405Y48455435D01*
X-34667505Y48219972D01*
X-34639742Y48213626D01*
X-33932269Y48133801D01*
X-33918030Y48133000D01*
X-30479432Y48133000D01*
X-30465260Y48133793D01*
X-29761069Y48212870D01*
X-29733430Y48219157D01*
X-29064317Y48452448D01*
X-29038761Y48464708D01*
X-28438056Y48840592D01*
X-28415856Y48858215D01*
X-27913479Y49357970D01*
X-27895740Y49380078D01*
X-27516718Y49978809D01*
X-27504324Y50004300D01*
X-27267535Y50672184D01*
X-27261104Y50699790D01*
X-27178344Y51403556D01*
X-27177477Y51417724D01*
X-26902673Y103940565D01*
X-26827411Y104491799D01*
X-26709639Y104773000D01*
X-22894723Y104773000D01*
X-22779053Y104491431D01*
X-22708666Y103941664D01*
X-22912616Y51447828D01*
X-22911869Y51433571D01*
X-22834624Y50725044D01*
X-22828373Y50697229D01*
X-22595030Y50023784D01*
X-22582731Y49998064D01*
X-22205046Y49393637D01*
X-22187321Y49371308D01*
X-21684328Y48866357D01*
X-21662068Y48848545D01*
X-21059113Y48468515D01*
X-21033441Y48456117D01*
X-20360907Y48220158D01*
X-20333116Y48213798D01*
X-19624895Y48133802D01*
X-19610641Y48133000D01*
X-16079432Y48133000D01*
X-16065260Y48133793D01*
X-15361069Y48212870D01*
X-15333430Y48219157D01*
X-14664317Y48452448D01*
X-14638761Y48464708D01*
X-14038056Y48840592D01*
X-14015856Y48858215D01*
X-13513479Y49357970D01*
X-13495740Y49380078D01*
X-13116718Y49978809D01*
X-13104324Y50004300D01*
X-12867535Y50672184D01*
X-12861104Y50699790D01*
X-12778344Y51403556D01*
X-12777477Y51417724D01*
X-12502673Y103940565D01*
X-12427411Y104491799D01*
X-12309639Y104773000D01*
X-8489538Y104773000D01*
X-8373048Y104491560D01*
X-8300771Y103941216D01*
X-8318903Y51436140D01*
X-8318109Y51421917D01*
X-8238714Y50715233D01*
X-8232393Y50687499D01*
X-7997704Y50016212D01*
X-7985368Y49990581D01*
X-7607158Y49388366D01*
X-7589427Y49366123D01*
X-7086669Y48863191D01*
X-7064432Y48845452D01*
X-6462347Y48467034D01*
X-6436720Y48454690D01*
X-5765514Y48219769D01*
X-5737783Y48213438D01*
X-5031126Y48133799D01*
X-5016903Y48133000D01*
X-1605688Y48133000D01*
X-1591504Y48133795D01*
X-886719Y48213007D01*
X-859057Y48219304D01*
X-189438Y48452988D01*
X-163865Y48465268D01*
X437175Y48841764D01*
X459384Y48859415D01*
X961854Y49359937D01*
X979591Y49382078D01*
X1358419Y49981650D01*
X1370799Y50007175D01*
X1607083Y50675881D01*
X1613487Y50703517D01*
X1695437Y51407990D01*
X1696287Y51422172D01*
X1900332Y103940717D01*
X1974872Y104491735D01*
X2092337Y104773000D01*
X5910462Y104773000D01*
X6026952Y104491560D01*
X6099229Y103941216D01*
X6081097Y51436140D01*
X6081891Y51421917D01*
X6161286Y50715233D01*
X6167607Y50687499D01*
X6402296Y50016212D01*
X6414632Y49990581D01*
X6792842Y49388366D01*
X6810573Y49366123D01*
X7313331Y48863191D01*
X7335568Y48845452D01*
X7937653Y48467034D01*
X7963280Y48454690D01*
X8634486Y48219769D01*
X8662217Y48213438D01*
X9368874Y48133799D01*
X9383097Y48133000D01*
X12941781Y48133000D01*
X12955990Y48133797D01*
X13661967Y48213281D01*
X13689673Y48219600D01*
X14360303Y48454071D01*
X14385910Y48466392D01*
X14987615Y48844112D01*
X15009842Y48861819D01*
X15512496Y49363874D01*
X15530229Y49386080D01*
X15908665Y49987335D01*
X15921017Y50012927D01*
X16156288Y50683277D01*
X16162640Y50710976D01*
X16242964Y51416858D01*
X16243778Y51431066D01*
X16306342Y103941036D01*
X16379439Y104491618D01*
X16496286Y104773000D01*
X20312840Y104773000D01*
X20429707Y104491623D01*
X20502851Y103941024D01*
X20569948Y51430781D01*
X20570764Y51416574D01*
X20651141Y50710737D01*
X20657494Y50683040D01*
X20892797Y50012743D01*
X20905150Y49987153D01*
X21283599Y49385952D01*
X21301332Y49363748D01*
X21803980Y48861741D01*
X21826206Y48844036D01*
X22427890Y48466356D01*
X22453496Y48454036D01*
X23124094Y48219590D01*
X23151799Y48213272D01*
X23857738Y48133797D01*
X23871946Y48133000D01*
X27310444Y48133000D01*
X27324648Y48133797D01*
X28030372Y48213223D01*
X28058068Y48219537D01*
X28728483Y48453841D01*
X28754083Y48466153D01*
X29355647Y48843612D01*
X29377870Y48861307D01*
X29880486Y49363037D01*
X29898220Y49385229D01*
X30276740Y49986126D01*
X30289098Y50011705D01*
X30524584Y50681706D01*
X30530947Y50709391D01*
X30611618Y51414974D01*
X30612440Y51429176D01*
X30705065Y103940963D01*
X30778470Y104491646D01*
X30895447Y104773000D01*
X34705177Y104773000D01*
X34820828Y104491433D01*
X34891180Y103941673D01*
X34683605Y51448057D01*
X34684351Y51433799D01*
X34761554Y50725235D01*
X34767804Y50697418D01*
X35001121Y50023931D01*
X35013419Y49998209D01*
X35391093Y49393739D01*
X35408818Y49371409D01*
X35911816Y48866418D01*
X35934076Y48848605D01*
X36537048Y48468544D01*
X36562721Y48456144D01*
X37235280Y48220165D01*
X37263072Y48213806D01*
X37971325Y48133803D01*
X37985580Y48133000D01*
X41516440Y48133000D01*
X41530612Y48133793D01*
X42234769Y48212862D01*
X42262406Y48219148D01*
X42931491Y48452417D01*
X42957046Y48464676D01*
X43557733Y48840527D01*
X43579933Y48858148D01*
X44082304Y49357860D01*
X44100043Y49379966D01*
X44479077Y49978650D01*
X44491471Y50004140D01*
X44728288Y50671977D01*
X44734721Y50699581D01*
X44817526Y51403308D01*
X44818394Y51417475D01*
X45097158Y103940563D01*
X45172460Y104491799D01*
X45290251Y104773000D01*
X49106743Y104773000D01*
X49222647Y104491464D01*
X49293568Y103941531D01*
X49142183Y51444522D01*
X49142943Y51430274D01*
X49220797Y50722267D01*
X49227068Y50694475D01*
X49460793Y50021640D01*
X49473102Y49995945D01*
X49850936Y49392144D01*
X49868663Y49369840D01*
X50371590Y48865460D01*
X50393843Y48847669D01*
X50996553Y48468096D01*
X51022212Y48455713D01*
X51694370Y48220048D01*
X51722145Y48213696D01*
X52429924Y48133801D01*
X52444169Y48133000D01*
X56049143Y48133000D01*
X56063336Y48133796D01*
X56768564Y48213109D01*
X56796242Y48219414D01*
X57466237Y48453391D01*
X57491823Y48465686D01*
X58093110Y48842636D01*
X58115326Y48860308D01*
X58617865Y49361400D01*
X58635601Y49383565D01*
X59014284Y49983763D01*
X59026653Y50009313D01*
X59262561Y50678630D01*
X59268946Y50706290D01*
X59350292Y51411287D01*
X59351128Y51425478D01*
X59504966Y104773000D01*
X61847063Y104773000D01*
X61768653Y48157668D01*
X61211924Y47927063D01*
X60472937Y47188076D01*
X60073000Y46222543D01*
X60073000Y45177457D01*
X60472937Y44211924D01*
X61211924Y43472937D01*
X61761849Y43245151D01*
X61760099Y41981705D01*
X61759197Y41980803D01*
X61731667Y41939601D01*
X61722000Y41891000D01*
X61722000Y2415509D01*
X61684503Y2227000D01*
X59747035Y2227000D01*
X59709443Y2415566D01*
X59691542Y39244605D01*
X59690737Y39258819D01*
X59610839Y39965069D01*
X59604501Y39992784D01*
X59369498Y40663565D01*
X59357154Y40689176D01*
X58978821Y41290871D01*
X58961089Y41313093D01*
X58458387Y41815551D01*
X58436155Y41833273D01*
X57834275Y42211313D01*
X57808659Y42223645D01*
X57137765Y42458323D01*
X57110047Y42464647D01*
X56403758Y42544202D01*
X56389543Y42545000D01*
X52608544Y42545000D01*
X52594320Y42544201D01*
X51887601Y42464548D01*
X51859867Y42458216D01*
X51188607Y42223254D01*
X51162978Y42210907D01*
X50560859Y41832425D01*
X50538622Y41814684D01*
X50035855Y41311672D01*
X50018124Y41289426D01*
X49639934Y40687123D01*
X49627600Y40661488D01*
X49392964Y39990114D01*
X49386645Y39962376D01*
X49307336Y39255619D01*
X49306544Y39241395D01*
X49323959Y3412766D01*
X49254744Y2885219D01*
X49054524Y2401344D01*
X48920824Y2227000D01*
X45713117Y2227000D01*
X45579330Y2401253D01*
X45378670Y2885189D01*
X45308959Y3412882D01*
X45291542Y39244605D01*
X45290737Y39258819D01*
X45210839Y39965069D01*
X45204501Y39992784D01*
X44969498Y40663565D01*
X44957154Y40689176D01*
X44578821Y41290871D01*
X44561089Y41313093D01*
X44058387Y41815551D01*
X44036155Y41833273D01*
X43434275Y42211313D01*
X43408659Y42223645D01*
X42737765Y42458323D01*
X42710047Y42464647D01*
X42003758Y42544202D01*
X41989543Y42545000D01*
X38253763Y42545000D01*
X38239550Y42544202D01*
X37533358Y42464669D01*
X37505644Y42458347D01*
X36834831Y42223733D01*
X36809217Y42211404D01*
X36207392Y41833464D01*
X36185162Y41815747D01*
X35682475Y41313414D01*
X35664743Y41291197D01*
X35286378Y40689638D01*
X35274031Y40664033D01*
X35038944Y39993386D01*
X35032602Y39965676D01*
X34952572Y39259540D01*
X34951764Y39245328D01*
X34926510Y3412910D01*
X34856686Y2885180D01*
X34655928Y2401232D01*
X34522121Y2227000D01*
X31314415Y2227000D01*
X31180734Y2401364D01*
X30980611Y2885227D01*
X30911510Y3412736D01*
X30936761Y39240672D01*
X30935972Y39254899D01*
X30856795Y39961771D01*
X30850480Y39989513D01*
X30615927Y40661020D01*
X30603596Y40686660D01*
X30225439Y41289099D01*
X30207708Y41311351D01*
X29704925Y41814488D01*
X29682686Y41832234D01*
X29080513Y42210816D01*
X29054882Y42223166D01*
X28383541Y42458192D01*
X28355803Y42464526D01*
X27648988Y42544201D01*
X27634762Y42545000D01*
X23947987Y42545000D01*
X23933785Y42544203D01*
X23228119Y42464790D01*
X23200424Y42458477D01*
X22530059Y42224212D01*
X22504461Y42211902D01*
X21902929Y41834502D01*
X21880707Y41816810D01*
X21378101Y41315156D01*
X21360366Y41292967D01*
X20981827Y40692152D01*
X20969468Y40666577D01*
X20733932Y39996656D01*
X20727567Y39968974D01*
X20646817Y39263461D01*
X20645993Y39249260D01*
X20578109Y3437546D01*
X20506829Y2903295D01*
X20303077Y2413369D01*
X20159744Y2227000D01*
X16926329Y2227000D01*
X16783186Y2413548D01*
X16580298Y2903363D01*
X16510000Y3437328D01*
X16510000Y39243000D01*
X16509201Y39257220D01*
X16429597Y39963724D01*
X16423269Y39991449D01*
X16188449Y40662526D01*
X16176110Y40688149D01*
X15797849Y41290148D01*
X15780118Y41312383D01*
X15277383Y41815118D01*
X15255148Y41832849D01*
X14653149Y42211110D01*
X14627526Y42223449D01*
X13956449Y42458269D01*
X13928724Y42464597D01*
X13222220Y42544201D01*
X13208000Y42545000D01*
X9547987Y42545000D01*
X9533785Y42544203D01*
X8828119Y42464790D01*
X8800424Y42458477D01*
X8130059Y42224212D01*
X8104461Y42211902D01*
X7502929Y41834502D01*
X7480707Y41816810D01*
X6978101Y41315156D01*
X6960366Y41292967D01*
X6581827Y40692152D01*
X6569468Y40666577D01*
X6333932Y39996656D01*
X6327567Y39968974D01*
X6246817Y39263461D01*
X6245993Y39249260D01*
X6178284Y3530046D01*
X6103808Y2971845D01*
X5890777Y2459603D01*
X5711885Y2227000D01*
X2388675Y2227000D01*
X2209976Y2459749D01*
X1997617Y2971902D01*
X1923905Y3529882D01*
X1906538Y39371600D01*
X1905733Y39385814D01*
X1825836Y40092066D01*
X1819498Y40119781D01*
X1584494Y40790562D01*
X1572150Y40816173D01*
X1193818Y41417869D01*
X1176086Y41440091D01*
X673384Y41942550D01*
X651152Y41960272D01*
X49272Y42338313D01*
X23656Y42350645D01*
X-647239Y42585323D01*
X-674957Y42591647D01*
X-1381247Y42671202D01*
X-1395462Y42672000D01*
X-5109000Y42672000D01*
X-5123220Y42671201D01*
X-5829724Y42591597D01*
X-5857449Y42585269D01*
X-6528526Y42350449D01*
X-6554149Y42338110D01*
X-7156148Y41959849D01*
X-7178383Y41942118D01*
X-7681118Y41439383D01*
X-7698849Y41417148D01*
X-8077110Y40815149D01*
X-8089449Y40789526D01*
X-8324269Y40118449D01*
X-8330597Y40090724D01*
X-8410201Y39384220D01*
X-8411000Y39370000D01*
X-8411000Y3437328D01*
X-8481298Y2903363D01*
X-8684186Y2413548D01*
X-8827329Y2227000D01*
X-12061267Y2227000D01*
X-12204648Y2413323D01*
X-12408617Y2903278D01*
X-12480146Y3437603D01*
X-12565479Y39377840D01*
X-12566309Y39392036D01*
X-12647349Y40097300D01*
X-12653724Y40124971D01*
X-12889440Y40794599D01*
X-12901804Y40820162D01*
X-13280413Y41420678D01*
X-13298148Y41442855D01*
X-13800721Y41944237D01*
X-13822940Y41961919D01*
X-14424353Y42339101D01*
X-14449945Y42351404D01*
X-15120131Y42585530D01*
X-15147818Y42591840D01*
X-15853272Y42671204D01*
X-15867470Y42672000D01*
X-19527461Y42672000D01*
X-19541685Y42671201D01*
X-20248403Y42591548D01*
X-20276137Y42585216D01*
X-20947396Y42350254D01*
X-20973025Y42337907D01*
X-21575144Y41959426D01*
X-21597381Y41941685D01*
X-22100148Y41438674D01*
X-22117879Y41416428D01*
X-22496069Y40814126D01*
X-22508403Y40788491D01*
X-22743039Y40117118D01*
X-22749358Y40089381D01*
X-22828669Y39382625D01*
X-22829461Y39368400D01*
X-22812050Y3437266D01*
X-22882097Y2903378D01*
X-23084763Y2413595D01*
X-23227859Y2227000D01*
X-26461267Y2227000D01*
X-26604648Y2413323D01*
X-26808617Y2903278D01*
X-26880146Y3437603D01*
X-26965479Y39377840D01*
X-26966309Y39392036D01*
X-27047349Y40097300D01*
X-27053724Y40124971D01*
X-27289440Y40794599D01*
X-27301804Y40820162D01*
X-27680413Y41420678D01*
X-27698148Y41442855D01*
X-28200721Y41944237D01*
X-28222940Y41961919D01*
X-28824353Y42339101D01*
X-28849945Y42351404D01*
X-29520131Y42585530D01*
X-29547818Y42591840D01*
X-30253272Y42671204D01*
X-30267470Y42672000D01*
X-33954090Y42672000D01*
X-33968320Y42671200D01*
X-34675347Y42591477D01*
X-34703093Y42585140D01*
X-35374614Y42349973D01*
X-35400251Y42337615D01*
X-36002542Y41958816D01*
X-36024785Y41941060D01*
X-36527599Y41437650D01*
X-36545328Y41415387D01*
X-36923415Y40812648D01*
X-36935742Y40786996D01*
X-37170113Y40115197D01*
X-37176418Y40087444D01*
X-37255305Y39380323D01*
X-37256088Y39366092D01*
X-37213565Y3437174D01*
X-37283248Y2903407D01*
X-37485600Y2413656D01*
X-37628622Y2227000D01*
X-40858671Y2227000D01*
X-41001814Y2413548D01*
X-41204702Y2903363D01*
X-41275000Y3437328D01*
X-41275000Y39370000D01*
X-41275799Y39384220D01*
X-41355403Y40090724D01*
X-41361731Y40118449D01*
X-41596551Y40789526D01*
X-41608890Y40815149D01*
X-41987151Y41417148D01*
X-42004882Y41439383D01*
X-42507617Y41942118D01*
X-42529852Y41959849D01*
X-43131851Y42338110D01*
X-43157474Y42350449D01*
X-43828551Y42585269D01*
X-43856276Y42591597D01*
X-44562780Y42671201D01*
X-44577000Y42672000D01*
X-48309000Y42672000D01*
X-48323220Y42671201D01*
X-49029724Y42591597D01*
X-49057449Y42585269D01*
X-49728526Y42350449D01*
X-49754149Y42338110D01*
X-50356148Y41959849D01*
X-50378383Y41942118D01*
X-50881118Y41439383D01*
X-50898849Y41417148D01*
X-51277110Y40815149D01*
X-51289449Y40789526D01*
X-51524269Y40118449D01*
X-51530597Y40090724D01*
X-51610201Y39384220D01*
X-51611000Y39370000D01*
X-51611000Y3437328D01*
X-51681298Y2903363D01*
X-51884186Y2413548D01*
X-52027329Y2227000D01*
X-55257374Y2227000D01*
X-55400396Y2413658D01*
X-55602746Y2903405D01*
X-55672427Y3437174D01*
X-55629774Y39366080D01*
X-55630557Y39380311D01*
X-55709441Y40087434D01*
X-55715746Y40115188D01*
X-55950116Y40786989D01*
X-55962442Y40812641D01*
X-56340528Y41415382D01*
X-56358258Y41437645D01*
X-56861073Y41941056D01*
X-56883315Y41958812D01*
X-57485606Y42337614D01*
X-57511244Y42349972D01*
X-58182767Y42585139D01*
X-58210513Y42591476D01*
X-58917541Y42671200D01*
X-58931771Y42672000D01*
X-60035706Y42672000D01*
X-60573000Y42732403D01*
X-60573000Y43522543D01*
X-60972937Y44488076D01*
X-61711924Y45227063D01*
X-62677457Y45627000D01*
X-62773000Y45627000D01*
X-62773000Y56642902D01*
X-62462101Y57140157D01*
X-61979383Y57624557D01*
X-61400795Y57989111D01*
X-60755480Y58215456D01*
X-60068792Y58293000D01*
X-59055000Y58293000D01*
X-59040780Y58293799D01*
X-58334276Y58373403D01*
X-58306551Y58379731D01*
X-57635474Y58614551D01*
X-57609851Y58626890D01*
X-57007852Y59005151D01*
X-56985617Y59022882D01*
X-56482882Y59525617D01*
X-56465151Y59547852D01*
X-56086890Y60149851D01*
X-56074551Y60175474D01*
X-55839731Y60846551D01*
X-55833403Y60874276D01*
X-55753799Y61580780D01*
X-55753000Y61595000D01*
X-55753000Y62713485D01*
X-55483988Y62982497D01*
X-54673000Y64940394D01*
X-54673000Y67059606D01*
X-55483988Y69017503D01*
X-55753000Y69286515D01*
X-55753000Y103750680D01*
X-55674049Y104350373D01*
X-55498991Y104773000D01*
X-51438273Y104773000D01*
X-51263987Y104350272D01*
X-51263987Y104350272D01*
G37*
X-51263987Y104350272D02*
X-51186310Y103750948D01*
X-51301022Y51442242D01*
X-51300252Y51428000D01*
X-51221978Y50720353D01*
X-51215693Y50692577D01*
X-50981705Y50020163D01*
X-50969389Y49994486D01*
X-50591452Y49391116D01*
X-50573724Y49368828D01*
X-50070843Y48864843D01*
X-50048594Y48847066D01*
X-49446055Y48467807D01*
X-49420405Y48455435D01*
X-48748505Y48219972D01*
X-48720742Y48213626D01*
X-48013269Y48133801D01*
X-47999030Y48133000D01*
X-44858594Y48133000D01*
X-44844418Y48133794D01*
X-44140059Y48212909D01*
X-44112414Y48219198D01*
X-43443158Y48452600D01*
X-43417597Y48464866D01*
X-42816797Y48840923D01*
X-42794594Y48858554D01*
X-42292191Y49358526D01*
X-42274453Y49380643D01*
X-41895486Y49979612D01*
X-41883097Y50005113D01*
X-41646450Y50673228D01*
X-41640026Y50700842D01*
X-41557495Y51404809D01*
X-41556632Y51418981D01*
X-41301823Y103940612D01*
X-41226766Y104491782D01*
X-41109081Y104773000D01*
X-37292244Y104773000D01*
X-37176182Y104491493D01*
X-37104892Y103941447D01*
X-37220022Y51442242D01*
X-37219252Y51428000D01*
X-37140978Y50720353D01*
X-37134693Y50692577D01*
X-36900705Y50020163D01*
X-36888389Y49994486D01*
X-36510452Y49391116D01*
X-36492724Y49368828D01*
X-35989843Y48864843D01*
X-35967594Y48847066D01*
X-35365055Y48467807D01*
X-35339405Y48455435D01*
X-34667505Y48219972D01*
X-34639742Y48213626D01*
X-33932269Y48133801D01*
X-33918030Y48133000D01*
X-30479432Y48133000D01*
X-30465260Y48133793D01*
X-29761069Y48212870D01*
X-29733430Y48219157D01*
X-29064317Y48452448D01*
X-29038761Y48464708D01*
X-28438056Y48840592D01*
X-28415856Y48858215D01*
X-27913479Y49357970D01*
X-27895740Y49380078D01*
X-27516718Y49978809D01*
X-27504324Y50004300D01*
X-27267535Y50672184D01*
X-27261104Y50699790D01*
X-27178344Y51403556D01*
X-27177477Y51417724D01*
X-26902673Y103940565D01*
X-26827411Y104491799D01*
X-26709639Y104773000D01*
X-22894723Y104773000D01*
X-22779053Y104491431D01*
X-22708666Y103941664D01*
X-22912616Y51447828D01*
X-22911869Y51433571D01*
X-22834624Y50725044D01*
X-22828373Y50697229D01*
X-22595030Y50023784D01*
X-22582731Y49998064D01*
X-22205046Y49393637D01*
X-22187321Y49371308D01*
X-21684328Y48866357D01*
X-21662068Y48848545D01*
X-21059113Y48468515D01*
X-21033441Y48456117D01*
X-20360907Y48220158D01*
X-20333116Y48213798D01*
X-19624895Y48133802D01*
X-19610641Y48133000D01*
X-16079432Y48133000D01*
X-16065260Y48133793D01*
X-15361069Y48212870D01*
X-15333430Y48219157D01*
X-14664317Y48452448D01*
X-14638761Y48464708D01*
X-14038056Y48840592D01*
X-14015856Y48858215D01*
X-13513479Y49357970D01*
X-13495740Y49380078D01*
X-13116718Y49978809D01*
X-13104324Y50004300D01*
X-12867535Y50672184D01*
X-12861104Y50699790D01*
X-12778344Y51403556D01*
X-12777477Y51417724D01*
X-12502673Y103940565D01*
X-12427411Y104491799D01*
X-12309639Y104773000D01*
X-8489538Y104773000D01*
X-8373048Y104491560D01*
X-8300771Y103941216D01*
X-8318903Y51436140D01*
X-8318109Y51421917D01*
X-8238714Y50715233D01*
X-8232393Y50687499D01*
X-7997704Y50016212D01*
X-7985368Y49990581D01*
X-7607158Y49388366D01*
X-7589427Y49366123D01*
X-7086669Y48863191D01*
X-7064432Y48845452D01*
X-6462347Y48467034D01*
X-6436720Y48454690D01*
X-5765514Y48219769D01*
X-5737783Y48213438D01*
X-5031126Y48133799D01*
X-5016903Y48133000D01*
X-1605688Y48133000D01*
X-1591504Y48133795D01*
X-886719Y48213007D01*
X-859057Y48219304D01*
X-189438Y48452988D01*
X-163865Y48465268D01*
X437175Y48841764D01*
X459384Y48859415D01*
X961854Y49359937D01*
X979591Y49382078D01*
X1358419Y49981650D01*
X1370799Y50007175D01*
X1607083Y50675881D01*
X1613487Y50703517D01*
X1695437Y51407990D01*
X1696287Y51422172D01*
X1900332Y103940717D01*
X1974872Y104491735D01*
X2092337Y104773000D01*
X5910462Y104773000D01*
X6026952Y104491560D01*
X6099229Y103941216D01*
X6081097Y51436140D01*
X6081891Y51421917D01*
X6161286Y50715233D01*
X6167607Y50687499D01*
X6402296Y50016212D01*
X6414632Y49990581D01*
X6792842Y49388366D01*
X6810573Y49366123D01*
X7313331Y48863191D01*
X7335568Y48845452D01*
X7937653Y48467034D01*
X7963280Y48454690D01*
X8634486Y48219769D01*
X8662217Y48213438D01*
X9368874Y48133799D01*
X9383097Y48133000D01*
X12941781Y48133000D01*
X12955990Y48133797D01*
X13661967Y48213281D01*
X13689673Y48219600D01*
X14360303Y48454071D01*
X14385910Y48466392D01*
X14987615Y48844112D01*
X15009842Y48861819D01*
X15512496Y49363874D01*
X15530229Y49386080D01*
X15908665Y49987335D01*
X15921017Y50012927D01*
X16156288Y50683277D01*
X16162640Y50710976D01*
X16242964Y51416858D01*
X16243778Y51431066D01*
X16306342Y103941036D01*
X16379439Y104491618D01*
X16496286Y104773000D01*
X20312840Y104773000D01*
X20429707Y104491623D01*
X20502851Y103941024D01*
X20569948Y51430781D01*
X20570764Y51416574D01*
X20651141Y50710737D01*
X20657494Y50683040D01*
X20892797Y50012743D01*
X20905150Y49987153D01*
X21283599Y49385952D01*
X21301332Y49363748D01*
X21803980Y48861741D01*
X21826206Y48844036D01*
X22427890Y48466356D01*
X22453496Y48454036D01*
X23124094Y48219590D01*
X23151799Y48213272D01*
X23857738Y48133797D01*
X23871946Y48133000D01*
X27310444Y48133000D01*
X27324648Y48133797D01*
X28030372Y48213223D01*
X28058068Y48219537D01*
X28728483Y48453841D01*
X28754083Y48466153D01*
X29355647Y48843612D01*
X29377870Y48861307D01*
X29880486Y49363037D01*
X29898220Y49385229D01*
X30276740Y49986126D01*
X30289098Y50011705D01*
X30524584Y50681706D01*
X30530947Y50709391D01*
X30611618Y51414974D01*
X30612440Y51429176D01*
X30705065Y103940963D01*
X30778470Y104491646D01*
X30895447Y104773000D01*
X34705177Y104773000D01*
X34820828Y104491433D01*
X34891180Y103941673D01*
X34683605Y51448057D01*
X34684351Y51433799D01*
X34761554Y50725235D01*
X34767804Y50697418D01*
X35001121Y50023931D01*
X35013419Y49998209D01*
X35391093Y49393739D01*
X35408818Y49371409D01*
X35911816Y48866418D01*
X35934076Y48848605D01*
X36537048Y48468544D01*
X36562721Y48456144D01*
X37235280Y48220165D01*
X37263072Y48213806D01*
X37971325Y48133803D01*
X37985580Y48133000D01*
X41516440Y48133000D01*
X41530612Y48133793D01*
X42234769Y48212862D01*
X42262406Y48219148D01*
X42931491Y48452417D01*
X42957046Y48464676D01*
X43557733Y48840527D01*
X43579933Y48858148D01*
X44082304Y49357860D01*
X44100043Y49379966D01*
X44479077Y49978650D01*
X44491471Y50004140D01*
X44728288Y50671977D01*
X44734721Y50699581D01*
X44817526Y51403308D01*
X44818394Y51417475D01*
X45097158Y103940563D01*
X45172460Y104491799D01*
X45290251Y104773000D01*
X49106743Y104773000D01*
X49222647Y104491464D01*
X49293568Y103941531D01*
X49142183Y51444522D01*
X49142943Y51430274D01*
X49220797Y50722267D01*
X49227068Y50694475D01*
X49460793Y50021640D01*
X49473102Y49995945D01*
X49850936Y49392144D01*
X49868663Y49369840D01*
X50371590Y48865460D01*
X50393843Y48847669D01*
X50996553Y48468096D01*
X51022212Y48455713D01*
X51694370Y48220048D01*
X51722145Y48213696D01*
X52429924Y48133801D01*
X52444169Y48133000D01*
X56049143Y48133000D01*
X56063336Y48133796D01*
X56768564Y48213109D01*
X56796242Y48219414D01*
X57466237Y48453391D01*
X57491823Y48465686D01*
X58093110Y48842636D01*
X58115326Y48860308D01*
X58617865Y49361400D01*
X58635601Y49383565D01*
X59014284Y49983763D01*
X59026653Y50009313D01*
X59262561Y50678630D01*
X59268946Y50706290D01*
X59350292Y51411287D01*
X59351128Y51425478D01*
X59504966Y104773000D01*
X61847063Y104773000D01*
X61768653Y48157668D01*
X61211924Y47927063D01*
X60472937Y47188076D01*
X60073000Y46222543D01*
X60073000Y45177457D01*
X60472937Y44211924D01*
X61211924Y43472937D01*
X61761849Y43245151D01*
X61760099Y41981705D01*
X61759197Y41980803D01*
X61731667Y41939601D01*
X61722000Y41891000D01*
X61722000Y2415509D01*
X61684503Y2227000D01*
X59747035Y2227000D01*
X59709443Y2415566D01*
X59691542Y39244605D01*
X59690737Y39258819D01*
X59610839Y39965069D01*
X59604501Y39992784D01*
X59369498Y40663565D01*
X59357154Y40689176D01*
X58978821Y41290871D01*
X58961089Y41313093D01*
X58458387Y41815551D01*
X58436155Y41833273D01*
X57834275Y42211313D01*
X57808659Y42223645D01*
X57137765Y42458323D01*
X57110047Y42464647D01*
X56403758Y42544202D01*
X56389543Y42545000D01*
X52608544Y42545000D01*
X52594320Y42544201D01*
X51887601Y42464548D01*
X51859867Y42458216D01*
X51188607Y42223254D01*
X51162978Y42210907D01*
X50560859Y41832425D01*
X50538622Y41814684D01*
X50035855Y41311672D01*
X50018124Y41289426D01*
X49639934Y40687123D01*
X49627600Y40661488D01*
X49392964Y39990114D01*
X49386645Y39962376D01*
X49307336Y39255619D01*
X49306544Y39241395D01*
X49323959Y3412766D01*
X49254744Y2885219D01*
X49054524Y2401344D01*
X48920824Y2227000D01*
X45713117Y2227000D01*
X45579330Y2401253D01*
X45378670Y2885189D01*
X45308959Y3412882D01*
X45291542Y39244605D01*
X45290737Y39258819D01*
X45210839Y39965069D01*
X45204501Y39992784D01*
X44969498Y40663565D01*
X44957154Y40689176D01*
X44578821Y41290871D01*
X44561089Y41313093D01*
X44058387Y41815551D01*
X44036155Y41833273D01*
X43434275Y42211313D01*
X43408659Y42223645D01*
X42737765Y42458323D01*
X42710047Y42464647D01*
X42003758Y42544202D01*
X41989543Y42545000D01*
X38253763Y42545000D01*
X38239550Y42544202D01*
X37533358Y42464669D01*
X37505644Y42458347D01*
X36834831Y42223733D01*
X36809217Y42211404D01*
X36207392Y41833464D01*
X36185162Y41815747D01*
X35682475Y41313414D01*
X35664743Y41291197D01*
X35286378Y40689638D01*
X35274031Y40664033D01*
X35038944Y39993386D01*
X35032602Y39965676D01*
X34952572Y39259540D01*
X34951764Y39245328D01*
X34926510Y3412910D01*
X34856686Y2885180D01*
X34655928Y2401232D01*
X34522121Y2227000D01*
X31314415Y2227000D01*
X31180734Y2401364D01*
X30980611Y2885227D01*
X30911510Y3412736D01*
X30936761Y39240672D01*
X30935972Y39254899D01*
X30856795Y39961771D01*
X30850480Y39989513D01*
X30615927Y40661020D01*
X30603596Y40686660D01*
X30225439Y41289099D01*
X30207708Y41311351D01*
X29704925Y41814488D01*
X29682686Y41832234D01*
X29080513Y42210816D01*
X29054882Y42223166D01*
X28383541Y42458192D01*
X28355803Y42464526D01*
X27648988Y42544201D01*
X27634762Y42545000D01*
X23947987Y42545000D01*
X23933785Y42544203D01*
X23228119Y42464790D01*
X23200424Y42458477D01*
X22530059Y42224212D01*
X22504461Y42211902D01*
X21902929Y41834502D01*
X21880707Y41816810D01*
X21378101Y41315156D01*
X21360366Y41292967D01*
X20981827Y40692152D01*
X20969468Y40666577D01*
X20733932Y39996656D01*
X20727567Y39968974D01*
X20646817Y39263461D01*
X20645993Y39249260D01*
X20578109Y3437546D01*
X20506829Y2903295D01*
X20303077Y2413369D01*
X20159744Y2227000D01*
X16926329Y2227000D01*
X16783186Y2413548D01*
X16580298Y2903363D01*
X16510000Y3437328D01*
X16510000Y39243000D01*
X16509201Y39257220D01*
X16429597Y39963724D01*
X16423269Y39991449D01*
X16188449Y40662526D01*
X16176110Y40688149D01*
X15797849Y41290148D01*
X15780118Y41312383D01*
X15277383Y41815118D01*
X15255148Y41832849D01*
X14653149Y42211110D01*
X14627526Y42223449D01*
X13956449Y42458269D01*
X13928724Y42464597D01*
X13222220Y42544201D01*
X13208000Y42545000D01*
X9547987Y42545000D01*
X9533785Y42544203D01*
X8828119Y42464790D01*
X8800424Y42458477D01*
X8130059Y42224212D01*
X8104461Y42211902D01*
X7502929Y41834502D01*
X7480707Y41816810D01*
X6978101Y41315156D01*
X6960366Y41292967D01*
X6581827Y40692152D01*
X6569468Y40666577D01*
X6333932Y39996656D01*
X6327567Y39968974D01*
X6246817Y39263461D01*
X6245993Y39249260D01*
X6178284Y3530046D01*
X6103808Y2971845D01*
X5890777Y2459603D01*
X5711885Y2227000D01*
X2388675Y2227000D01*
X2209976Y2459749D01*
X1997617Y2971902D01*
X1923905Y3529882D01*
X1906538Y39371600D01*
X1905733Y39385814D01*
X1825836Y40092066D01*
X1819498Y40119781D01*
X1584494Y40790562D01*
X1572150Y40816173D01*
X1193818Y41417869D01*
X1176086Y41440091D01*
X673384Y41942550D01*
X651152Y41960272D01*
X49272Y42338313D01*
X23656Y42350645D01*
X-647239Y42585323D01*
X-674957Y42591647D01*
X-1381247Y42671202D01*
X-1395462Y42672000D01*
X-5109000Y42672000D01*
X-5123220Y42671201D01*
X-5829724Y42591597D01*
X-5857449Y42585269D01*
X-6528526Y42350449D01*
X-6554149Y42338110D01*
X-7156148Y41959849D01*
X-7178383Y41942118D01*
X-7681118Y41439383D01*
X-7698849Y41417148D01*
X-8077110Y40815149D01*
X-8089449Y40789526D01*
X-8324269Y40118449D01*
X-8330597Y40090724D01*
X-8410201Y39384220D01*
X-8411000Y39370000D01*
X-8411000Y3437328D01*
X-8481298Y2903363D01*
X-8684186Y2413548D01*
X-8827329Y2227000D01*
X-12061267Y2227000D01*
X-12204648Y2413323D01*
X-12408617Y2903278D01*
X-12480146Y3437603D01*
X-12565479Y39377840D01*
X-12566309Y39392036D01*
X-12647349Y40097300D01*
X-12653724Y40124971D01*
X-12889440Y40794599D01*
X-12901804Y40820162D01*
X-13280413Y41420678D01*
X-13298148Y41442855D01*
X-13800721Y41944237D01*
X-13822940Y41961919D01*
X-14424353Y42339101D01*
X-14449945Y42351404D01*
X-15120131Y42585530D01*
X-15147818Y42591840D01*
X-15853272Y42671204D01*
X-15867470Y42672000D01*
X-19527461Y42672000D01*
X-19541685Y42671201D01*
X-20248403Y42591548D01*
X-20276137Y42585216D01*
X-20947396Y42350254D01*
X-20973025Y42337907D01*
X-21575144Y41959426D01*
X-21597381Y41941685D01*
X-22100148Y41438674D01*
X-22117879Y41416428D01*
X-22496069Y40814126D01*
X-22508403Y40788491D01*
X-22743039Y40117118D01*
X-22749358Y40089381D01*
X-22828669Y39382625D01*
X-22829461Y39368400D01*
X-22812050Y3437266D01*
X-22882097Y2903378D01*
X-23084763Y2413595D01*
X-23227859Y2227000D01*
X-26461267Y2227000D01*
X-26604648Y2413323D01*
X-26808617Y2903278D01*
X-26880146Y3437603D01*
X-26965479Y39377840D01*
X-26966309Y39392036D01*
X-27047349Y40097300D01*
X-27053724Y40124971D01*
X-27289440Y40794599D01*
X-27301804Y40820162D01*
X-27680413Y41420678D01*
X-27698148Y41442855D01*
X-28200721Y41944237D01*
X-28222940Y41961919D01*
X-28824353Y42339101D01*
X-28849945Y42351404D01*
X-29520131Y42585530D01*
X-29547818Y42591840D01*
X-30253272Y42671204D01*
X-30267470Y42672000D01*
X-33954090Y42672000D01*
X-33968320Y42671200D01*
X-34675347Y42591477D01*
X-34703093Y42585140D01*
X-35374614Y42349973D01*
X-35400251Y42337615D01*
X-36002542Y41958816D01*
X-36024785Y41941060D01*
X-36527599Y41437650D01*
X-36545328Y41415387D01*
X-36923415Y40812648D01*
X-36935742Y40786996D01*
X-37170113Y40115197D01*
X-37176418Y40087444D01*
X-37255305Y39380323D01*
X-37256088Y39366092D01*
X-37213565Y3437174D01*
X-37283248Y2903407D01*
X-37485600Y2413656D01*
X-37628622Y2227000D01*
X-40858671Y2227000D01*
X-41001814Y2413548D01*
X-41204702Y2903363D01*
X-41275000Y3437328D01*
X-41275000Y39370000D01*
X-41275799Y39384220D01*
X-41355403Y40090724D01*
X-41361731Y40118449D01*
X-41596551Y40789526D01*
X-41608890Y40815149D01*
X-41987151Y41417148D01*
X-42004882Y41439383D01*
X-42507617Y41942118D01*
X-42529852Y41959849D01*
X-43131851Y42338110D01*
X-43157474Y42350449D01*
X-43828551Y42585269D01*
X-43856276Y42591597D01*
X-44562780Y42671201D01*
X-44577000Y42672000D01*
X-48309000Y42672000D01*
X-48323220Y42671201D01*
X-49029724Y42591597D01*
X-49057449Y42585269D01*
X-49728526Y42350449D01*
X-49754149Y42338110D01*
X-50356148Y41959849D01*
X-50378383Y41942118D01*
X-50881118Y41439383D01*
X-50898849Y41417148D01*
X-51277110Y40815149D01*
X-51289449Y40789526D01*
X-51524269Y40118449D01*
X-51530597Y40090724D01*
X-51610201Y39384220D01*
X-51611000Y39370000D01*
X-51611000Y3437328D01*
X-51681298Y2903363D01*
X-51884186Y2413548D01*
X-52027329Y2227000D01*
X-55257374Y2227000D01*
X-55400396Y2413658D01*
X-55602746Y2903405D01*
X-55672427Y3437174D01*
X-55629774Y39366080D01*
X-55630557Y39380311D01*
X-55709441Y40087434D01*
X-55715746Y40115188D01*
X-55950116Y40786989D01*
X-55962442Y40812641D01*
X-56340528Y41415382D01*
X-56358258Y41437645D01*
X-56861073Y41941056D01*
X-56883315Y41958812D01*
X-57485606Y42337614D01*
X-57511244Y42349972D01*
X-58182767Y42585139D01*
X-58210513Y42591476D01*
X-58917541Y42671200D01*
X-58931771Y42672000D01*
X-60035706Y42672000D01*
X-60573000Y42732403D01*
X-60573000Y43522543D01*
X-60972937Y44488076D01*
X-61711924Y45227063D01*
X-62677457Y45627000D01*
X-62773000Y45627000D01*
X-62773000Y56642902D01*
X-62462101Y57140157D01*
X-61979383Y57624557D01*
X-61400795Y57989111D01*
X-60755480Y58215456D01*
X-60068792Y58293000D01*
X-59055000Y58293000D01*
X-59040780Y58293799D01*
X-58334276Y58373403D01*
X-58306551Y58379731D01*
X-57635474Y58614551D01*
X-57609851Y58626890D01*
X-57007852Y59005151D01*
X-56985617Y59022882D01*
X-56482882Y59525617D01*
X-56465151Y59547852D01*
X-56086890Y60149851D01*
X-56074551Y60175474D01*
X-55839731Y60846551D01*
X-55833403Y60874276D01*
X-55753799Y61580780D01*
X-55753000Y61595000D01*
X-55753000Y62713485D01*
X-55483988Y62982497D01*
X-54673000Y64940394D01*
X-54673000Y67059606D01*
X-55483988Y69017503D01*
X-55753000Y69286515D01*
X-55753000Y103750680D01*
X-55674049Y104350373D01*
X-55498991Y104773000D01*
X-51438273Y104773000D01*
X-51263987Y104350272D01*
G04 #@! TO.N,/C1-*
G36*
X-59358000Y2227000D02*
X-60573000Y2227000D01*
X-60573000Y2522543D01*
X-60833000Y3150238D01*
X-60833000Y40386000D01*
X-59358000Y40386000D01*
X-59358000Y2227000D01*
X-59358000Y2227000D01*
G37*
X-59358000Y2227000D02*
X-60573000Y2227000D01*
X-60573000Y2522543D01*
X-60833000Y3150238D01*
X-60833000Y40386000D01*
X-59358000Y40386000D01*
X-59358000Y2227000D01*
G04 #@! TD*
M02*
