G04 #@! TF.GenerationSoftware,KiCad,Pcbnew,(5.0.0)*
G04 #@! TF.CreationDate,2021-01-14T10:17:43-08:00*
G04 #@! TF.ProjectId,Buffer - Rev D,427566666572202D2052657620442E6B,rev?*
G04 #@! TF.SameCoordinates,Original*
G04 #@! TF.FileFunction,Soldermask,Bot*
G04 #@! TF.FilePolarity,Negative*
%FSLAX46Y46*%
G04 Gerber Fmt 4.6, Leading zero omitted, Abs format (unit mm)*
G04 Created by KiCad (PCBNEW (5.0.0)) date 01/14/21 10:17:43*
%MOMM*%
%LPD*%
G01*
G04 APERTURE LIST*
%ADD10C,1.270000*%
%ADD11R,5.080000X2.540000*%
G04 APERTURE END LIST*
D10*
G04 #@! TO.C,TP2*
X21096200Y12300000D03*
G04 #@! TD*
G04 #@! TO.C,TP2*
X19750000Y12300000D03*
G04 #@! TD*
G04 #@! TO.C,TP1*
X9906000Y15494000D03*
G04 #@! TD*
D11*
G04 #@! TO.C,TP8*
X20434300Y13096900D03*
G04 #@! TD*
D10*
G04 #@! TO.C,TP2*
X18415000Y12334900D03*
G04 #@! TD*
G04 #@! TO.C,TP2*
X18415000Y13604900D03*
G04 #@! TD*
G04 #@! TO.C,TP2*
X22415500Y12334900D03*
G04 #@! TD*
G04 #@! TO.C,TP2*
X21082000Y13604900D03*
G04 #@! TD*
G04 #@! TO.C,TP2*
X22415500Y13604900D03*
G04 #@! TD*
G04 #@! TO.C,TP2*
X19748500Y13604900D03*
G04 #@! TD*
G04 #@! TO.C,TP2*
X21082000Y1397000D03*
G04 #@! TD*
G04 #@! TO.C,TP2*
X22415500Y1397000D03*
G04 #@! TD*
G04 #@! TO.C,TP2*
X8064500Y1397000D03*
G04 #@! TD*
G04 #@! TO.C,TP2*
X37528500Y1320800D03*
G04 #@! TD*
G04 #@! TO.C,TP2*
X36195000Y1397000D03*
G04 #@! TD*
G04 #@! TO.C,TP2*
X33528000Y2667000D03*
G04 #@! TD*
G04 #@! TO.C,TP2*
X33528000Y1397000D03*
G04 #@! TD*
G04 #@! TO.C,TP2*
X36195000Y2667000D03*
G04 #@! TD*
G04 #@! TO.C,TP2*
X34861500Y2667000D03*
G04 #@! TD*
G04 #@! TO.C,TP2*
X34861500Y1397000D03*
G04 #@! TD*
G04 #@! TO.C,TP2*
X37528500Y2667000D03*
G04 #@! TD*
G04 #@! TO.C,TP11*
X40894000Y7366000D03*
G04 #@! TD*
G04 #@! TO.C,TP2*
X19748500Y1397000D03*
G04 #@! TD*
G04 #@! TO.C,TP2*
X18415000Y1397000D03*
G04 #@! TD*
G04 #@! TO.C,TP2*
X22415500Y2667000D03*
G04 #@! TD*
G04 #@! TO.C,TP2*
X21082000Y2667000D03*
G04 #@! TD*
G04 #@! TO.C,TP2*
X19748500Y2667000D03*
G04 #@! TD*
G04 #@! TO.C,TP2*
X18415000Y2667000D03*
G04 #@! TD*
G04 #@! TO.C,TP2*
X6731000Y2667000D03*
G04 #@! TD*
G04 #@! TO.C,TP2*
X5397500Y2667000D03*
G04 #@! TD*
G04 #@! TO.C,TP2*
X8064500Y2667000D03*
G04 #@! TD*
G04 #@! TO.C,TP2*
X6731000Y1397000D03*
G04 #@! TD*
G04 #@! TO.C,TP2*
X5397500Y1397000D03*
G04 #@! TD*
G04 #@! TO.C,TP2*
X4064000Y2667000D03*
G04 #@! TD*
G04 #@! TO.C,TP2*
X4064000Y1397000D03*
G04 #@! TD*
D11*
G04 #@! TO.C,TP12*
X6350000Y2159000D03*
G04 #@! TD*
G04 #@! TO.C,TP13*
X35560000Y2159000D03*
G04 #@! TD*
D10*
G04 #@! TO.C,TP15*
X6350000Y15494000D03*
G04 #@! TD*
G04 #@! TO.C,TP17*
X0Y14097000D03*
G04 #@! TD*
G04 #@! TO.C,TP5*
X40894000Y3175000D03*
G04 #@! TD*
G04 #@! TO.C,TP9*
X40894000Y5207000D03*
G04 #@! TD*
G04 #@! TO.C,TP6*
X0Y7731000D03*
G04 #@! TD*
G04 #@! TO.C,TP4*
X40894000Y1143000D03*
G04 #@! TD*
G04 #@! TO.C,TP3*
X0Y12065000D03*
G04 #@! TD*
G04 #@! TO.C,TP2*
X0Y10033000D03*
G04 #@! TD*
D11*
G04 #@! TO.C,TP7*
X20434300Y2159000D03*
G04 #@! TD*
M02*
