M48
;DRILL file {KiCad (5.0.0)} date 05/07/19 16:52:54
;FORMAT={-:-/ absolute / metric / decimal}
FMAT,2
METRIC,TZ
T1C0.500
T2C0.559
T3C3.200
%
G90
G05
M71
T1
X119.2Y-125.5
X119.903Y-123.803
X119.903Y-127.197
X121.6Y-123.1
X121.6Y-127.9
X123.297Y-123.803
X123.297Y-127.197
X124.Y-125.5
X119.2Y-116.
X119.903Y-114.303
X119.903Y-117.697
X121.6Y-113.6
X121.6Y-118.4
X123.297Y-114.303
X123.297Y-117.697
X124.Y-116.
X176.Y-116.
X176.703Y-114.303
X176.703Y-117.697
X178.4Y-113.6
X178.4Y-118.4
X180.097Y-114.303
X180.097Y-117.697
X180.8Y-116.
X176.Y-125.5
X176.703Y-123.803
X176.703Y-127.197
X178.4Y-123.1
X178.4Y-127.9
X180.097Y-123.803
X180.097Y-127.197
X180.8Y-125.5
T2
X87.9Y-44.9
X87.9Y-46.6
X87.9Y-48.3
X87.9Y-50.5
X87.9Y-52.2
X87.9Y-53.9
X87.9Y-56.1
X87.9Y-57.8
X87.9Y-59.5
X87.9Y-61.7
X87.9Y-63.4
X87.9Y-65.1
X87.9Y-67.3
X87.9Y-69.
X87.9Y-70.7
X87.9Y-72.9
X87.9Y-74.6
X87.9Y-76.3
X87.9Y-78.5
X87.9Y-80.2
X87.9Y-81.9
X87.9Y-84.1
X87.9Y-85.8
X87.9Y-87.5
X87.9Y-89.7
X87.9Y-91.4
X87.9Y-93.1
X87.9Y-95.3
X87.9Y-97.
X87.9Y-98.7
X87.9Y-100.9
X87.9Y-102.6
X87.9Y-104.3
X87.9Y-106.5
X87.9Y-108.2
X87.9Y-109.9
X87.9Y-116.5
X87.9Y-118.2
X87.9Y-119.9
X87.9Y-122.1
X87.9Y-123.8
X87.9Y-125.5
X87.9Y-127.7
X87.9Y-129.4
X87.9Y-131.1
X87.9Y-133.3
X87.9Y-135.
X87.9Y-136.7
X87.9Y-138.9
X87.9Y-140.6
X87.9Y-142.3
X87.9Y-144.5
X87.9Y-146.2
X87.9Y-147.9
X87.9Y-150.1
X87.9Y-151.8
X87.9Y-153.5
X93.6Y-44.9
X93.6Y-46.6
X93.6Y-48.3
X93.6Y-50.5
X93.6Y-52.2
X93.6Y-53.9
X93.6Y-56.1
X93.6Y-57.8
X93.6Y-59.5
X93.6Y-61.7
X93.6Y-63.4
X93.6Y-65.1
X93.6Y-67.3
X93.6Y-69.
X93.6Y-70.7
X93.6Y-72.9
X93.6Y-74.6
X93.6Y-76.3
X93.6Y-78.5
X93.6Y-80.2
X93.6Y-81.9
X93.6Y-84.1
X93.6Y-85.8
X93.6Y-87.5
X93.6Y-89.7
X93.6Y-91.4
X93.6Y-93.1
X93.6Y-95.3
X93.6Y-97.
X93.6Y-98.7
X93.6Y-100.9
X93.6Y-102.6
X93.6Y-104.3
X93.6Y-106.5
X93.6Y-108.2
X93.6Y-109.9
X93.6Y-116.5
X93.6Y-118.2
X93.6Y-119.9
X93.6Y-122.1
X93.6Y-123.8
X93.6Y-125.5
X93.6Y-127.7
X93.6Y-129.4
X93.6Y-131.1
X93.6Y-133.3
X93.6Y-135.
X93.6Y-136.7
X93.6Y-138.9
X93.6Y-140.6
X93.6Y-142.3
X93.6Y-144.5
X93.6Y-146.2
X93.6Y-147.9
X93.6Y-150.1
X93.6Y-151.8
X93.6Y-153.5
X94.7Y-44.9
X94.7Y-46.6
X94.7Y-48.3
X94.7Y-50.5
X94.7Y-52.2
X94.7Y-53.9
X94.7Y-56.1
X94.7Y-57.8
X94.7Y-59.5
X94.7Y-61.7
X94.7Y-63.4
X94.7Y-65.1
X94.7Y-67.3
X94.7Y-69.
X94.7Y-70.7
X94.7Y-72.9
X94.7Y-74.6
X94.7Y-76.3
X94.7Y-78.5
X94.7Y-80.2
X94.7Y-81.9
X94.7Y-84.1
X94.7Y-85.8
X94.7Y-87.5
X94.7Y-89.7
X94.7Y-91.4
X94.7Y-93.1
X94.7Y-95.3
X94.7Y-97.
X94.7Y-98.7
X94.7Y-100.9
X94.7Y-102.6
X94.7Y-104.3
X94.7Y-106.5
X94.7Y-108.2
X94.7Y-109.9
X94.7Y-116.5
X94.7Y-118.2
X94.7Y-119.9
X94.7Y-122.1
X94.7Y-123.8
X94.7Y-125.5
X94.7Y-127.7
X94.7Y-129.4
X94.7Y-131.1
X94.7Y-133.3
X94.7Y-135.
X94.7Y-136.7
X94.7Y-138.9
X94.7Y-138.9
X94.7Y-140.6
X94.7Y-142.3
X94.7Y-144.5
X94.7Y-146.2
X94.7Y-147.9
X94.7Y-150.1
X94.7Y-151.8
X94.7Y-153.5
X100.4Y-44.9
X100.4Y-46.6
X100.4Y-48.3
X100.4Y-50.5
X100.4Y-52.2
X100.4Y-53.9
X100.4Y-56.1
X100.4Y-57.8
X100.4Y-59.5
X100.4Y-61.7
X100.4Y-63.4
X100.4Y-65.1
X100.4Y-67.3
X100.4Y-69.
X100.4Y-70.7
X100.4Y-72.9
X100.4Y-74.6
X100.4Y-76.3
X100.4Y-78.5
X100.4Y-80.2
X100.4Y-81.9
X100.4Y-84.1
X100.4Y-85.8
X100.4Y-87.5
X100.4Y-89.7
X100.4Y-91.4
X100.4Y-93.1
X100.4Y-95.3
X100.4Y-97.
X100.4Y-98.7
X100.4Y-100.9
X100.4Y-102.6
X100.4Y-104.3
X100.4Y-106.5
X100.4Y-108.2
X100.4Y-109.9
X100.4Y-116.5
X100.4Y-118.2
X100.4Y-119.9
X100.4Y-122.1
X100.4Y-123.8
X100.4Y-125.5
X100.4Y-127.7
X100.4Y-129.4
X100.4Y-131.1
X100.4Y-133.3
X100.4Y-135.
X100.4Y-136.7
X100.4Y-138.9
X100.4Y-140.6
X100.4Y-142.3
X100.4Y-144.5
X100.4Y-146.2
X100.4Y-147.9
X100.4Y-150.1
X100.4Y-151.8
X100.4Y-153.5
X101.5Y-44.9
X101.5Y-46.6
X101.5Y-48.3
X101.5Y-50.5
X101.5Y-52.2
X101.5Y-53.9
X101.5Y-56.1
X101.5Y-57.8
X101.5Y-59.5
X101.5Y-61.7
X101.5Y-63.4
X101.5Y-65.1
X101.5Y-67.3
X101.5Y-69.
X101.5Y-70.7
X101.5Y-72.9
X101.5Y-74.6
X101.5Y-76.3
X101.5Y-78.5
X101.5Y-80.2
X101.5Y-81.9
X101.5Y-84.1
X101.5Y-85.8
X101.5Y-87.5
X101.5Y-89.7
X101.5Y-91.4
X101.5Y-93.1
X101.5Y-95.3
X101.5Y-97.
X101.5Y-98.7
X101.5Y-100.9
X101.5Y-102.6
X101.5Y-104.3
X101.5Y-106.5
X101.5Y-108.2
X101.5Y-109.9
X101.5Y-116.5
X101.5Y-118.2
X101.5Y-119.9
X101.5Y-122.1
X101.5Y-123.8
X101.5Y-125.5
X101.5Y-127.7
X101.5Y-129.4
X101.5Y-131.1
X101.6Y-133.3
X101.6Y-135.
X101.6Y-136.7
X101.6Y-138.9
X101.6Y-140.6
X101.6Y-142.3
X101.6Y-144.5
X101.6Y-146.2
X101.6Y-147.9
X101.6Y-150.1
X101.6Y-151.8
X101.6Y-153.5
X107.2Y-44.9
X107.2Y-46.6
X107.2Y-48.3
X107.2Y-50.5
X107.2Y-52.2
X107.2Y-53.9
X107.2Y-56.1
X107.2Y-57.8
X107.2Y-59.5
X107.2Y-61.7
X107.2Y-63.4
X107.2Y-65.1
X107.2Y-67.3
X107.2Y-69.
X107.2Y-70.7
X107.2Y-72.9
X107.2Y-74.6
X107.2Y-76.3
X107.2Y-78.5
X107.2Y-80.2
X107.2Y-81.9
X107.2Y-84.1
X107.2Y-85.8
X107.2Y-87.5
X107.2Y-89.7
X107.2Y-91.4
X107.2Y-93.1
X107.2Y-95.3
X107.2Y-97.
X107.2Y-98.7
X107.2Y-100.9
X107.2Y-102.6
X107.2Y-104.3
X107.2Y-106.5
X107.2Y-108.2
X107.2Y-109.9
X107.2Y-116.5
X107.2Y-118.2
X107.2Y-119.9
X107.2Y-122.1
X107.2Y-123.8
X107.2Y-125.5
X107.2Y-127.7
X107.2Y-129.4
X107.2Y-131.1
X107.3Y-133.3
X107.3Y-135.
X107.3Y-136.7
X107.3Y-138.9
X107.3Y-140.6
X107.3Y-142.3
X107.3Y-144.5
X107.3Y-146.2
X107.3Y-147.9
X107.3Y-150.1
X107.3Y-151.8
X107.3Y-153.5
X108.3Y-44.9
X108.3Y-46.6
X108.3Y-48.3
X108.3Y-50.5
X108.3Y-52.2
X108.3Y-53.9
X108.3Y-56.1
X108.3Y-57.8
X108.3Y-59.5
X108.3Y-61.7
X108.3Y-63.4
X108.3Y-65.1
X108.3Y-67.3
X108.3Y-69.
X108.3Y-70.7
X108.3Y-72.9
X108.3Y-74.6
X108.3Y-76.3
X108.3Y-78.5
X108.3Y-80.2
X108.3Y-81.9
X108.3Y-84.1
X108.3Y-85.8
X108.3Y-87.5
X108.3Y-89.7
X108.3Y-91.4
X108.3Y-93.1
X108.3Y-95.3
X108.3Y-97.
X108.3Y-98.7
X108.3Y-100.9
X108.3Y-102.6
X108.3Y-104.3
X108.3Y-106.5
X108.3Y-108.2
X108.3Y-109.9
X108.3Y-122.1
X108.3Y-123.8
X108.3Y-125.5
X108.3Y-127.7
X108.3Y-129.4
X108.3Y-131.1
X108.3Y-133.3
X108.3Y-135.
X108.3Y-136.7
X108.3Y-138.9
X108.3Y-140.6
X108.3Y-142.3
X108.3Y-144.5
X108.3Y-146.2
X108.3Y-147.9
X108.3Y-150.1
X108.3Y-151.8
X108.3Y-153.5
X114.Y-44.9
X114.Y-46.6
X114.Y-48.3
X114.Y-50.5
X114.Y-52.2
X114.Y-53.9
X114.Y-56.1
X114.Y-57.8
X114.Y-59.5
X114.Y-61.7
X114.Y-63.4
X114.Y-65.1
X114.Y-67.3
X114.Y-69.
X114.Y-70.7
X114.Y-72.9
X114.Y-74.6
X114.Y-76.3
X114.Y-78.5
X114.Y-80.2
X114.Y-81.9
X114.Y-84.1
X114.Y-85.8
X114.Y-87.5
X114.Y-89.7
X114.Y-91.4
X114.Y-93.1
X114.Y-95.3
X114.Y-97.
X114.Y-98.7
X114.Y-100.9
X114.Y-102.6
X114.Y-104.3
X114.Y-106.5
X114.Y-108.2
X114.Y-109.9
X114.Y-122.1
X114.Y-123.8
X114.Y-125.5
X114.Y-127.7
X114.Y-129.4
X114.Y-131.1
X114.Y-133.3
X114.Y-135.
X114.Y-136.7
X114.Y-138.9
X114.Y-140.6
X114.Y-142.3
X114.Y-144.5
X114.Y-146.2
X114.Y-147.9
X114.Y-150.1
X114.Y-151.8
X114.Y-153.5
X115.1Y-44.9
X115.1Y-46.6
X115.1Y-48.3
X115.1Y-50.5
X115.1Y-52.2
X115.1Y-53.9
X115.1Y-56.1
X115.1Y-57.8
X115.1Y-59.5
X115.1Y-61.7
X115.1Y-63.4
X115.1Y-65.1
X115.1Y-67.3
X115.1Y-69.
X115.1Y-70.7
X115.1Y-72.9
X115.1Y-74.6
X115.1Y-76.3
X115.1Y-78.5
X115.1Y-80.2
X115.1Y-81.9
X115.1Y-84.1
X115.1Y-85.8
X115.1Y-87.5
X115.1Y-89.7
X115.1Y-91.4
X115.1Y-93.1
X115.1Y-95.3
X115.1Y-97.
X115.1Y-98.7
X115.1Y-100.9
X115.1Y-102.6
X115.1Y-104.3
X115.1Y-106.5
X115.1Y-108.2
X115.1Y-109.9
X115.1Y-133.3
X115.1Y-135.
X115.1Y-136.7
X115.1Y-138.9
X115.1Y-140.6
X115.1Y-142.3
X115.1Y-144.5
X115.1Y-146.2
X115.1Y-147.9
X115.1Y-147.9
X115.1Y-150.1
X115.1Y-150.1
X115.1Y-151.8
X115.1Y-151.8
X115.1Y-153.5
X115.1Y-153.5
X120.8Y-44.9
X120.8Y-46.6
X120.8Y-48.3
X120.8Y-50.5
X120.8Y-52.2
X120.8Y-53.9
X120.8Y-56.1
X120.8Y-57.8
X120.8Y-59.5
X120.8Y-61.7
X120.8Y-63.4
X120.8Y-65.1
X120.8Y-67.3
X120.8Y-69.
X120.8Y-70.7
X120.8Y-72.9
X120.8Y-74.6
X120.8Y-76.3
X120.8Y-78.5
X120.8Y-80.2
X120.8Y-81.9
X120.8Y-84.1
X120.8Y-85.8
X120.8Y-87.5
X120.8Y-89.7
X120.8Y-91.4
X120.8Y-93.1
X120.8Y-95.3
X120.8Y-97.
X120.8Y-98.7
X120.8Y-100.9
X120.8Y-102.6
X120.8Y-104.3
X120.8Y-106.5
X120.8Y-108.2
X120.8Y-109.9
X120.8Y-133.3
X120.8Y-135.
X120.8Y-136.7
X120.8Y-138.9
X120.8Y-140.6
X120.8Y-142.3
X120.8Y-144.5
X120.8Y-146.2
X120.8Y-147.9
X120.8Y-150.1
X120.8Y-150.1
X120.8Y-151.8
X120.8Y-151.8
X120.8Y-153.5
X120.8Y-153.5
X121.9Y-44.9
X121.9Y-46.6
X121.9Y-48.3
X121.9Y-50.5
X121.9Y-52.2
X121.9Y-53.9
X121.9Y-56.1
X121.9Y-57.8
X121.9Y-59.5
X121.9Y-61.7
X121.9Y-63.4
X121.9Y-65.1
X121.9Y-67.3
X121.9Y-69.
X121.9Y-70.7
X121.9Y-72.9
X121.9Y-74.6
X121.9Y-76.3
X121.9Y-78.5
X121.9Y-80.2
X121.9Y-81.9
X121.9Y-84.1
X121.9Y-85.8
X121.9Y-87.5
X121.9Y-89.7
X121.9Y-91.4
X121.9Y-93.1
X121.9Y-95.3
X121.9Y-97.
X121.9Y-98.7
X121.9Y-100.9
X121.9Y-102.6
X121.9Y-104.3
X121.9Y-106.5
X121.9Y-108.2
X121.9Y-109.9
X121.9Y-133.3
X121.9Y-135.
X121.9Y-136.7
X121.9Y-138.9
X121.9Y-140.6
X121.9Y-142.3
X121.9Y-144.5
X121.9Y-146.2
X121.9Y-147.9
X121.9Y-150.1
X121.9Y-151.8
X121.9Y-153.5
X127.6Y-44.9
X127.6Y-46.6
X127.6Y-48.3
X127.6Y-50.5
X127.6Y-52.2
X127.6Y-53.9
X127.6Y-56.1
X127.6Y-57.8
X127.6Y-59.5
X127.6Y-61.7
X127.6Y-63.4
X127.6Y-65.1
X127.6Y-67.3
X127.6Y-69.
X127.6Y-70.7
X127.6Y-72.9
X127.6Y-74.6
X127.6Y-76.3
X127.6Y-78.5
X127.6Y-80.2
X127.6Y-81.9
X127.6Y-84.1
X127.6Y-85.8
X127.6Y-87.5
X127.6Y-89.7
X127.6Y-91.4
X127.6Y-93.1
X127.6Y-95.3
X127.6Y-97.
X127.6Y-98.7
X127.6Y-100.9
X127.6Y-102.6
X127.6Y-104.3
X127.6Y-106.5
X127.6Y-108.2
X127.6Y-109.9
X127.6Y-133.3
X127.6Y-135.
X127.6Y-136.7
X127.6Y-138.9
X127.6Y-140.6
X127.6Y-142.3
X127.6Y-144.5
X127.6Y-146.2
X127.6Y-147.9
X127.6Y-150.1
X127.6Y-151.8
X127.6Y-153.5
X128.7Y-44.9
X128.7Y-46.6
X128.7Y-48.3
X128.7Y-50.5
X128.7Y-52.2
X128.7Y-53.9
X128.7Y-56.1
X128.7Y-57.8
X128.7Y-59.5
X128.7Y-61.7
X128.7Y-63.4
X128.7Y-65.1
X128.7Y-67.3
X128.7Y-69.
X128.7Y-70.7
X128.7Y-72.9
X128.7Y-74.6
X128.7Y-76.3
X128.7Y-78.5
X128.7Y-80.2
X128.7Y-81.9
X128.7Y-84.1
X128.7Y-85.8
X128.7Y-87.5
X128.7Y-89.7
X128.7Y-91.4
X128.7Y-93.1
X128.7Y-95.3
X128.7Y-97.
X128.7Y-98.7
X128.7Y-100.9
X128.7Y-102.6
X128.7Y-104.3
X128.7Y-106.5
X128.7Y-108.2
X128.7Y-109.9
X128.7Y-133.3
X128.7Y-135.
X128.7Y-136.7
X128.7Y-138.9
X128.7Y-140.6
X128.7Y-142.3
X128.7Y-144.5
X128.7Y-146.2
X128.7Y-147.9
X128.7Y-150.1
X128.7Y-151.8
X128.7Y-153.5
X134.4Y-44.9
X134.4Y-46.6
X134.4Y-48.3
X134.4Y-50.5
X134.4Y-52.2
X134.4Y-53.9
X134.4Y-56.1
X134.4Y-57.8
X134.4Y-59.5
X134.4Y-61.7
X134.4Y-63.4
X134.4Y-65.1
X134.4Y-67.3
X134.4Y-69.
X134.4Y-70.7
X134.4Y-72.9
X134.4Y-74.6
X134.4Y-76.3
X134.4Y-78.5
X134.4Y-80.2
X134.4Y-81.9
X134.4Y-84.1
X134.4Y-85.8
X134.4Y-87.5
X134.4Y-89.7
X134.4Y-91.4
X134.4Y-93.1
X134.4Y-95.3
X134.4Y-97.
X134.4Y-98.7
X134.4Y-100.9
X134.4Y-102.6
X134.4Y-104.3
X134.4Y-106.5
X134.4Y-108.2
X134.4Y-109.9
X134.4Y-133.3
X134.4Y-135.
X134.4Y-136.7
X134.4Y-138.9
X134.4Y-140.6
X134.4Y-142.3
X134.4Y-144.5
X134.4Y-146.2
X134.4Y-147.9
X134.4Y-150.1
X134.4Y-151.8
X134.4Y-153.5
X135.5Y-44.9
X135.5Y-46.6
X135.5Y-48.3
X135.5Y-50.5
X135.5Y-52.2
X135.5Y-53.9
X135.5Y-56.1
X135.5Y-57.8
X135.5Y-59.5
X135.5Y-61.7
X135.5Y-63.4
X135.5Y-65.1
X135.5Y-67.3
X135.5Y-69.
X135.5Y-70.7
X135.5Y-72.9
X135.5Y-74.6
X135.5Y-76.3
X135.5Y-78.5
X135.5Y-80.2
X135.5Y-81.9
X135.5Y-84.1
X135.5Y-85.8
X135.5Y-87.5
X135.5Y-89.7
X135.5Y-91.4
X135.5Y-93.1
X135.5Y-95.3
X135.5Y-97.
X135.5Y-98.7
X135.5Y-100.9
X135.5Y-102.6
X135.5Y-104.3
X135.5Y-106.5
X135.5Y-108.2
X135.5Y-109.9
X135.5Y-116.5
X135.5Y-118.2
X135.5Y-119.9
X135.5Y-122.1
X135.5Y-123.8
X135.5Y-125.5
X135.5Y-127.7
X135.5Y-129.4
X135.5Y-131.1
X135.5Y-133.3
X135.5Y-135.
X135.5Y-136.7
X135.5Y-138.9
X135.5Y-140.6
X135.5Y-142.3
X135.5Y-144.5
X135.5Y-146.2
X135.5Y-147.9
X141.2Y-44.9
X141.2Y-46.6
X141.2Y-48.3
X141.2Y-50.5
X141.2Y-52.2
X141.2Y-53.9
X141.2Y-56.1
X141.2Y-57.8
X141.2Y-59.5
X141.2Y-61.7
X141.2Y-63.4
X141.2Y-65.1
X141.2Y-67.3
X141.2Y-69.
X141.2Y-70.7
X141.2Y-72.9
X141.2Y-74.6
X141.2Y-76.3
X141.2Y-78.5
X141.2Y-80.2
X141.2Y-81.9
X141.2Y-84.1
X141.2Y-85.8
X141.2Y-87.5
X141.2Y-89.7
X141.2Y-91.4
X141.2Y-93.1
X141.2Y-95.3
X141.2Y-97.
X141.2Y-98.7
X141.2Y-100.9
X141.2Y-102.6
X141.2Y-104.3
X141.2Y-106.5
X141.2Y-108.2
X141.2Y-109.9
X141.2Y-116.5
X141.2Y-118.2
X141.2Y-119.9
X141.2Y-122.1
X141.2Y-123.8
X141.2Y-125.5
X141.2Y-127.7
X141.2Y-129.4
X141.2Y-131.1
X141.2Y-133.3
X141.2Y-135.
X141.2Y-136.7
X141.2Y-138.9
X141.2Y-140.6
X141.2Y-142.3
X141.2Y-144.5
X141.2Y-146.2
X141.2Y-147.9
X142.4Y-44.9
X142.4Y-46.6
X142.4Y-48.3
X142.4Y-50.5
X142.4Y-52.2
X142.4Y-53.9
X142.4Y-56.1
X142.4Y-57.8
X142.4Y-59.5
X142.4Y-61.7
X142.4Y-63.4
X142.4Y-65.1
X142.4Y-67.3
X142.4Y-69.
X142.4Y-70.7
X142.4Y-72.9
X142.4Y-74.6
X142.4Y-76.3
X142.4Y-78.5
X142.4Y-80.2
X142.4Y-81.9
X142.4Y-84.1
X142.4Y-85.8
X142.4Y-87.5
X142.4Y-89.7
X142.4Y-91.4
X142.4Y-93.1
X142.4Y-95.3
X142.4Y-97.
X142.4Y-98.7
X142.4Y-100.9
X142.4Y-102.6
X142.4Y-104.3
X142.4Y-106.5
X142.4Y-108.2
X142.4Y-109.9
X142.4Y-116.5
X142.4Y-118.2
X142.4Y-119.9
X142.4Y-122.1
X142.4Y-123.8
X142.4Y-125.5
X142.4Y-127.7
X142.4Y-129.4
X142.4Y-131.1
X142.4Y-133.3
X142.4Y-135.
X142.4Y-136.7
X142.4Y-138.9
X142.4Y-140.6
X142.4Y-142.3
X142.4Y-144.5
X142.4Y-146.2
X142.4Y-147.9
X148.1Y-44.9
X148.1Y-46.6
X148.1Y-48.3
X148.1Y-50.5
X148.1Y-52.2
X148.1Y-53.9
X148.1Y-56.1
X148.1Y-57.8
X148.1Y-59.5
X148.1Y-61.7
X148.1Y-63.4
X148.1Y-65.1
X148.1Y-67.3
X148.1Y-69.
X148.1Y-70.7
X148.1Y-72.9
X148.1Y-74.6
X148.1Y-76.3
X148.1Y-78.5
X148.1Y-80.2
X148.1Y-81.9
X148.1Y-84.1
X148.1Y-85.8
X148.1Y-87.5
X148.1Y-89.7
X148.1Y-91.4
X148.1Y-93.1
X148.1Y-95.3
X148.1Y-97.
X148.1Y-98.7
X148.1Y-100.9
X148.1Y-102.6
X148.1Y-104.3
X148.1Y-106.5
X148.1Y-108.2
X148.1Y-109.9
X148.1Y-116.5
X148.1Y-118.2
X148.1Y-119.9
X148.1Y-122.1
X148.1Y-123.8
X148.1Y-125.5
X148.1Y-127.7
X148.1Y-129.4
X148.1Y-131.1
X148.1Y-133.3
X148.1Y-135.
X148.1Y-136.7
X148.1Y-138.9
X148.1Y-140.6
X148.1Y-142.3
X148.1Y-144.5
X148.1Y-146.2
X148.1Y-147.9
X149.2Y-44.9
X149.2Y-46.6
X149.2Y-48.3
X149.2Y-50.5
X149.2Y-52.2
X149.2Y-53.9
X149.2Y-56.1
X149.2Y-57.8
X149.2Y-59.5
X149.2Y-61.7
X149.2Y-63.4
X149.2Y-65.1
X149.2Y-67.3
X149.2Y-69.
X149.2Y-70.7
X149.2Y-72.9
X149.2Y-74.6
X149.2Y-76.3
X149.2Y-78.5
X149.2Y-80.2
X149.2Y-81.9
X149.2Y-84.1
X149.2Y-85.8
X149.2Y-87.5
X149.2Y-89.7
X149.2Y-91.4
X149.2Y-93.1
X149.2Y-95.3
X149.2Y-97.
X149.2Y-98.7
X149.2Y-100.9
X149.2Y-102.6
X149.2Y-104.3
X149.2Y-106.5
X149.2Y-108.2
X149.2Y-109.9
X149.2Y-116.5
X149.2Y-118.2
X149.2Y-119.9
X149.2Y-122.1
X149.2Y-123.8
X149.2Y-125.5
X149.2Y-127.7
X149.2Y-129.4
X149.2Y-131.1
X149.2Y-133.3
X149.2Y-135.
X149.2Y-136.7
X149.2Y-138.9
X149.2Y-140.6
X149.2Y-142.3
X149.2Y-144.5
X149.2Y-146.2
X149.2Y-147.9
X154.9Y-44.9
X154.9Y-46.6
X154.9Y-48.3
X154.9Y-50.5
X154.9Y-52.2
X154.9Y-53.9
X154.9Y-56.1
X154.9Y-57.8
X154.9Y-59.5
X154.9Y-61.7
X154.9Y-63.4
X154.9Y-65.1
X154.9Y-67.3
X154.9Y-69.
X154.9Y-70.7
X154.9Y-72.9
X154.9Y-74.6
X154.9Y-76.3
X154.9Y-78.5
X154.9Y-80.2
X154.9Y-81.9
X154.9Y-84.1
X154.9Y-85.8
X154.9Y-87.5
X154.9Y-89.7
X154.9Y-91.4
X154.9Y-93.1
X154.9Y-95.3
X154.9Y-97.
X154.9Y-98.7
X154.9Y-100.9
X154.9Y-102.6
X154.9Y-104.3
X154.9Y-106.5
X154.9Y-108.2
X154.9Y-109.9
X154.9Y-116.5
X154.9Y-118.2
X154.9Y-119.9
X154.9Y-122.1
X154.9Y-123.8
X154.9Y-125.5
X154.9Y-127.7
X154.9Y-129.4
X154.9Y-131.1
X154.9Y-133.3
X154.9Y-135.
X154.9Y-136.7
X154.9Y-138.9
X154.9Y-140.6
X154.9Y-142.3
X154.9Y-144.5
X154.9Y-146.2
X154.9Y-147.9
X156.Y-44.9
X156.Y-46.6
X156.Y-48.3
X156.Y-50.5
X156.Y-52.2
X156.Y-53.9
X156.Y-56.1
X156.Y-57.8
X156.Y-59.5
X156.Y-61.7
X156.Y-63.4
X156.Y-65.1
X156.Y-67.3
X156.Y-69.
X156.Y-70.7
X156.Y-72.9
X156.Y-74.6
X156.Y-76.3
X156.Y-78.5
X156.Y-80.2
X156.Y-81.9
X156.Y-84.1
X156.Y-85.8
X156.Y-87.5
X156.Y-89.7
X156.Y-91.4
X156.Y-93.1
X156.Y-95.3
X156.Y-97.
X156.Y-98.7
X156.Y-100.9
X156.Y-102.6
X156.Y-104.3
X156.Y-106.5
X156.Y-108.2
X156.Y-109.9
X158.8Y-134.1
X158.8Y-135.9
X158.8Y-137.6
X158.8Y-139.7
X158.8Y-141.5
X158.8Y-143.2
X161.8Y-44.9
X161.8Y-46.6
X161.8Y-48.3
X161.8Y-50.5
X161.8Y-52.2
X161.8Y-53.9
X161.8Y-56.1
X161.8Y-57.8
X161.8Y-59.5
X161.8Y-61.7
X161.8Y-63.4
X161.8Y-65.1
X161.8Y-67.3
X161.8Y-69.
X161.8Y-70.7
X161.8Y-72.9
X161.8Y-74.6
X161.8Y-76.3
X161.8Y-78.5
X161.8Y-80.2
X161.8Y-81.9
X161.8Y-84.1
X161.8Y-85.8
X161.8Y-87.5
X161.8Y-89.7
X161.8Y-91.4
X161.8Y-93.1
X161.8Y-95.3
X161.8Y-97.
X161.8Y-98.7
X161.8Y-100.9
X161.8Y-102.6
X161.8Y-104.3
X161.8Y-106.5
X161.8Y-108.2
X161.8Y-109.9
X162.9Y-44.9
X162.9Y-46.6
X162.9Y-48.3
X162.9Y-50.5
X162.9Y-52.2
X162.9Y-53.9
X162.9Y-56.1
X162.9Y-57.8
X162.9Y-59.5
X162.9Y-61.7
X162.9Y-63.4
X162.9Y-65.1
X162.9Y-67.3
X162.9Y-69.
X162.9Y-70.7
X162.9Y-72.9
X162.9Y-74.6
X162.9Y-76.3
X162.9Y-78.5
X162.9Y-80.2
X162.9Y-81.9
X164.6Y-134.1
X164.6Y-135.9
X164.6Y-137.6
X164.6Y-139.7
X164.6Y-141.5
X164.6Y-143.2
X165.7Y-134.1
X165.7Y-135.9
X165.7Y-137.6
X165.7Y-139.7
X165.7Y-141.5
X165.7Y-143.2
X165.7Y-145.3
X165.7Y-147.1
X165.7Y-148.8
X165.7Y-150.9
X165.7Y-152.7
X165.7Y-154.4
X168.6Y-44.9
X168.6Y-46.6
X168.6Y-48.3
X168.6Y-50.5
X168.6Y-52.2
X168.6Y-53.9
X168.6Y-56.1
X168.6Y-57.8
X168.6Y-59.5
X168.6Y-61.7
X168.6Y-63.4
X168.6Y-65.1
X168.6Y-67.3
X168.6Y-69.
X168.6Y-70.7
X168.6Y-72.9
X168.6Y-74.6
X168.6Y-76.3
X168.6Y-78.5
X168.6Y-80.2
X168.6Y-81.9
X171.3Y-134.1
X171.3Y-135.9
X171.3Y-137.6
X171.3Y-139.7
X171.3Y-141.5
X171.3Y-143.2
X171.3Y-145.3
X171.3Y-147.1
X171.3Y-148.8
X171.3Y-150.9
X171.3Y-152.7
X171.3Y-154.4
X172.4Y-134.1
X172.4Y-135.9
X172.4Y-137.6
X172.4Y-139.7
X172.4Y-141.5
X172.4Y-143.2
X172.4Y-145.3
X172.4Y-147.1
X172.4Y-148.8
X172.4Y-150.9
X172.4Y-152.7
X172.4Y-154.4
X178.1Y-134.1
X178.1Y-135.9
X178.1Y-137.6
X178.1Y-139.7
X178.1Y-141.5
X178.1Y-143.2
X178.1Y-145.3
X178.1Y-147.1
X178.1Y-148.8
X178.1Y-150.9
X178.1Y-152.7
X178.1Y-154.4
X179.2Y-44.9
X179.2Y-46.6
X179.2Y-48.3
X179.2Y-50.5
X179.2Y-52.2
X179.2Y-53.9
X179.2Y-56.
X179.2Y-57.81
X179.2Y-59.5
X179.2Y-61.7
X179.2Y-63.4
X179.2Y-65.1
X179.2Y-67.3
X179.2Y-69.
X179.2Y-70.7
X179.2Y-72.9
X179.2Y-74.61
X179.2Y-76.3
X179.2Y-78.5
X179.2Y-80.2
X179.2Y-81.9
X179.2Y-84.1
X179.2Y-85.8
X179.2Y-87.5
X179.2Y-89.7
X179.2Y-91.4
X179.2Y-93.1
X179.2Y-95.3
X179.2Y-97.
X179.2Y-98.7
X179.2Y-100.9
X179.2Y-102.6
X179.2Y-104.3
X179.2Y-106.5
X179.2Y-108.2
X179.2Y-109.9
X179.2Y-134.1
X179.2Y-135.9
X179.2Y-137.6
X179.2Y-139.7
X179.2Y-141.5
X179.2Y-143.2
X179.2Y-145.3
X179.2Y-147.1
X179.2Y-148.8
X179.2Y-150.9
X179.2Y-152.7
X179.2Y-154.4
X184.9Y-44.9
X184.9Y-46.6
X184.9Y-48.3
X184.9Y-50.5
X184.9Y-52.2
X184.9Y-53.9
X184.9Y-56.
X184.9Y-57.81
X184.9Y-59.5
X184.9Y-61.7
X184.9Y-63.4
X184.9Y-65.1
X184.9Y-67.3
X184.9Y-69.
X184.9Y-70.7
X184.9Y-72.9
X184.9Y-74.6
X184.9Y-76.3
X184.9Y-78.5
X184.9Y-80.2
X184.9Y-81.9
X184.9Y-84.1
X184.9Y-85.8
X184.9Y-87.5
X184.9Y-89.7
X184.9Y-91.4
X184.9Y-93.1
X184.9Y-95.3
X184.9Y-97.
X184.9Y-98.7
X184.9Y-100.9
X184.9Y-102.6
X184.9Y-104.3
X184.9Y-106.5
X184.9Y-108.2
X184.9Y-109.9
X184.9Y-134.1
X184.9Y-135.9
X184.9Y-137.6
X184.9Y-139.7
X184.9Y-141.5
X184.9Y-143.2
X184.9Y-145.3
X184.9Y-147.1
X184.9Y-148.8
X184.9Y-150.9
X184.9Y-152.7
X184.9Y-154.4
X186.Y-44.9
X186.Y-46.6
X186.Y-48.3
X186.Y-50.5
X186.Y-52.2
X186.Y-53.9
X186.Y-56.
X186.Y-57.8
X186.Y-59.5
X186.Y-61.7
X186.Y-63.4
X186.Y-65.1
X186.Y-67.3
X186.Y-69.
X186.Y-70.7
X186.Y-72.9
X186.Y-74.6
X186.Y-76.3
X186.Y-78.5
X186.Y-80.2
X186.Y-81.9
X186.Y-84.1
X186.Y-85.8
X186.Y-87.5
X186.Y-89.7
X186.Y-91.4
X186.Y-93.1
X186.Y-95.3
X186.Y-97.
X186.Y-98.7
X186.Y-100.9
X186.Y-102.6
X186.Y-104.3
X186.Y-106.5
X186.Y-108.2
X186.Y-109.9
X186.Y-122.9
X186.Y-124.7
X186.Y-126.4
X186.Y-128.5
X186.Y-130.3
X186.Y-132.
X186.Y-134.1
X186.Y-135.9
X186.Y-137.6
X186.Y-139.7
X186.Y-141.5
X186.Y-143.2
X186.Y-145.3
X186.Y-147.1
X186.Y-148.8
X186.Y-150.9
X186.Y-152.7
X186.Y-154.4
X191.7Y-44.9
X191.7Y-46.6
X191.7Y-48.3
X191.7Y-50.5
X191.7Y-52.2
X191.7Y-53.9
X191.7Y-56.
X191.7Y-57.8
X191.7Y-59.5
X191.7Y-61.7
X191.7Y-63.4
X191.7Y-65.1
X191.7Y-67.3
X191.7Y-69.
X191.7Y-70.7
X191.7Y-72.9
X191.7Y-74.6
X191.7Y-76.3
X191.7Y-78.5
X191.7Y-80.2
X191.7Y-81.9
X191.7Y-84.1
X191.7Y-85.8
X191.7Y-87.5
X191.7Y-89.7
X191.7Y-91.4
X191.7Y-93.1
X191.7Y-95.3
X191.7Y-97.
X191.7Y-98.7
X191.7Y-100.9
X191.7Y-102.6
X191.7Y-104.3
X191.7Y-106.5
X191.7Y-108.2
X191.7Y-109.9
X191.7Y-122.9
X191.7Y-124.7
X191.7Y-126.4
X191.7Y-128.5
X191.7Y-130.3
X191.7Y-132.
X191.7Y-134.1
X191.7Y-135.9
X191.7Y-137.6
X191.7Y-139.7
X191.7Y-141.5
X191.7Y-143.2
X191.7Y-145.3
X191.7Y-147.1
X191.7Y-148.8
X191.7Y-150.9
X191.7Y-152.7
X191.7Y-154.4
X192.8Y-44.9
X192.8Y-46.6
X192.8Y-48.3
X192.8Y-50.5
X192.8Y-52.2
X192.8Y-53.9
X192.8Y-56.
X192.8Y-57.8
X192.8Y-59.5
X192.8Y-61.7
X192.8Y-63.4
X192.8Y-65.1
X192.8Y-67.3
X192.8Y-69.
X192.8Y-70.7
X192.8Y-72.9
X192.8Y-74.6
X192.8Y-76.3
X192.8Y-78.5
X192.8Y-80.2
X192.8Y-81.9
X192.8Y-84.1
X192.8Y-85.8
X192.8Y-87.5
X192.8Y-89.7
X192.8Y-91.4
X192.8Y-93.1
X192.8Y-95.3
X192.8Y-97.
X192.8Y-98.7
X192.8Y-100.9
X192.8Y-102.6
X192.8Y-104.3
X192.8Y-106.5
X192.8Y-108.2
X192.8Y-109.9
X192.8Y-117.3
X192.8Y-119.1
X192.8Y-120.8
X192.8Y-122.9
X192.8Y-124.7
X192.8Y-126.4
X192.8Y-128.5
X192.8Y-130.3
X192.8Y-132.
X192.8Y-134.1
X192.8Y-135.9
X192.8Y-137.6
X192.8Y-139.7
X192.8Y-141.5
X192.8Y-143.2
X192.8Y-145.3
X192.8Y-147.1
X192.8Y-148.8
X192.8Y-150.9
X192.8Y-152.7
X192.8Y-154.4
X198.6Y-44.9
X198.6Y-46.6
X198.6Y-48.3
X198.6Y-50.5
X198.6Y-52.2
X198.6Y-53.9
X198.6Y-56.
X198.6Y-57.8
X198.6Y-59.5
X198.6Y-61.7
X198.6Y-63.4
X198.6Y-65.1
X198.6Y-67.3
X198.6Y-69.
X198.6Y-70.7
X198.6Y-72.9
X198.6Y-74.6
X198.6Y-76.3
X198.6Y-78.5
X198.6Y-80.2
X198.6Y-81.9
X198.6Y-84.1
X198.6Y-85.8
X198.6Y-87.5
X198.6Y-89.7
X198.6Y-91.4
X198.6Y-93.1
X198.6Y-95.3
X198.6Y-97.
X198.6Y-98.7
X198.6Y-100.9
X198.6Y-102.6
X198.6Y-104.3
X198.6Y-106.5
X198.6Y-108.2
X198.6Y-109.9
X198.6Y-117.3
X198.6Y-119.1
X198.6Y-120.8
X198.6Y-122.9
X198.6Y-124.7
X198.6Y-126.4
X198.6Y-128.5
X198.6Y-130.3
X198.6Y-132.
X198.6Y-134.1
X198.6Y-135.9
X198.6Y-137.6
X198.6Y-139.7
X198.6Y-141.5
X198.6Y-143.2
X198.6Y-145.3
X198.6Y-147.1
X198.6Y-148.8
X198.6Y-150.9
X198.6Y-152.7
X198.6Y-154.4
X199.6Y-44.9
X199.6Y-46.6
X199.6Y-48.3
X199.6Y-50.5
X199.6Y-52.2
X199.6Y-53.9
X199.6Y-56.
X199.6Y-57.8
X199.6Y-59.5
X199.6Y-61.7
X199.6Y-63.4
X199.6Y-65.1
X199.6Y-67.3
X199.6Y-69.
X199.6Y-70.7
X199.6Y-72.9
X199.6Y-74.6
X199.6Y-76.3
X199.6Y-78.5
X199.6Y-80.2
X199.6Y-81.9
X199.6Y-84.1
X199.6Y-85.8
X199.6Y-87.5
X199.6Y-89.7
X199.6Y-91.4
X199.6Y-93.1
X199.6Y-95.3
X199.6Y-97.
X199.6Y-98.7
X199.6Y-100.9
X199.6Y-102.6
X199.6Y-104.3
X199.6Y-106.5
X199.6Y-108.2
X199.6Y-109.9
X199.6Y-117.3
X199.6Y-119.1
X199.6Y-120.8
X199.6Y-122.9
X199.6Y-124.7
X199.6Y-126.4
X199.6Y-128.5
X199.6Y-130.3
X199.6Y-132.
X199.6Y-134.1
X199.6Y-135.9
X199.6Y-137.6
X199.6Y-139.7
X199.6Y-141.5
X199.6Y-143.2
X199.6Y-145.3
X199.6Y-147.1
X199.6Y-148.8
X199.6Y-150.9
X199.6Y-152.7
X199.6Y-154.4
X205.3Y-44.9
X205.3Y-46.6
X205.3Y-48.3
X205.3Y-50.5
X205.3Y-52.2
X205.3Y-53.9
X205.3Y-56.
X205.3Y-57.8
X205.3Y-59.5
X205.3Y-61.7
X205.3Y-63.4
X205.3Y-65.1
X205.3Y-67.3
X205.3Y-69.
X205.3Y-70.7
X205.3Y-72.9
X205.3Y-74.6
X205.3Y-76.3
X205.3Y-78.5
X205.3Y-80.2
X205.3Y-81.9
X205.3Y-84.1
X205.3Y-85.8
X205.3Y-87.5
X205.3Y-89.7
X205.3Y-91.4
X205.3Y-93.1
X205.3Y-95.3
X205.3Y-97.
X205.3Y-98.7
X205.3Y-100.9
X205.3Y-102.6
X205.3Y-104.3
X205.3Y-106.5
X205.3Y-108.2
X205.3Y-109.9
X205.3Y-117.3
X205.3Y-119.1
X205.3Y-120.8
X205.3Y-122.9
X205.3Y-124.7
X205.3Y-126.4
X205.3Y-128.5
X205.3Y-130.3
X205.3Y-132.
X205.3Y-134.1
X205.3Y-135.9
X205.3Y-137.6
X205.3Y-139.7
X205.3Y-141.5
X205.3Y-143.2
X205.3Y-145.3
X205.3Y-147.1
X205.3Y-148.8
X205.3Y-150.9
X205.3Y-152.7
X205.3Y-154.4
X206.4Y-44.9
X206.4Y-46.6
X206.4Y-48.3
X206.4Y-50.5
X206.4Y-52.2
X206.4Y-53.9
X206.4Y-56.
X206.4Y-57.8
X206.4Y-59.5
X206.4Y-61.7
X206.4Y-63.4
X206.4Y-65.1
X206.4Y-67.3
X206.4Y-69.
X206.4Y-70.7
X206.4Y-72.9
X206.4Y-74.6
X206.4Y-76.3
X206.4Y-78.5
X206.4Y-80.2
X206.4Y-81.9
X206.4Y-84.1
X206.4Y-85.8
X206.4Y-87.5
X206.4Y-89.7
X206.4Y-91.4
X206.4Y-93.1
X206.4Y-95.3
X206.4Y-97.
X206.4Y-98.7
X206.4Y-100.9
X206.4Y-102.6
X206.4Y-104.3
X206.4Y-106.5
X206.4Y-108.2
X206.4Y-109.9
X206.4Y-117.3
X206.4Y-119.1
X206.4Y-120.8
X206.4Y-122.9
X206.4Y-124.7
X206.4Y-126.4
X206.4Y-128.5
X206.4Y-130.3
X206.4Y-132.
X206.4Y-134.1
X206.4Y-135.9
X206.4Y-137.6
X206.4Y-139.7
X206.4Y-141.5
X206.4Y-143.2
X206.4Y-145.3
X206.4Y-147.1
X206.4Y-148.8
X206.4Y-150.9
X206.4Y-152.7
X206.4Y-154.4
X212.1Y-44.9
X212.1Y-46.6
X212.1Y-48.3
X212.1Y-50.5
X212.1Y-52.2
X212.1Y-53.9
X212.1Y-56.
X212.1Y-57.8
X212.1Y-59.5
X212.1Y-61.7
X212.1Y-63.4
X212.1Y-65.1
X212.1Y-67.3
X212.1Y-69.
X212.1Y-70.7
X212.1Y-72.9
X212.1Y-74.6
X212.1Y-76.3
X212.1Y-78.5
X212.1Y-80.2
X212.1Y-81.9
X212.1Y-84.1
X212.1Y-85.8
X212.1Y-87.5
X212.1Y-89.7
X212.1Y-91.4
X212.1Y-93.1
X212.1Y-95.3
X212.1Y-97.
X212.1Y-98.7
X212.1Y-100.9
X212.1Y-102.6
X212.1Y-104.3
X212.1Y-106.5
X212.1Y-108.2
X212.1Y-109.9
X212.1Y-117.3
X212.1Y-119.1
X212.1Y-120.8
X212.1Y-122.9
X212.1Y-124.7
X212.1Y-126.4
X212.1Y-128.5
X212.1Y-130.3
X212.1Y-132.
X212.1Y-134.1
X212.1Y-135.9
X212.1Y-137.6
X212.1Y-139.7
X212.1Y-141.5
X212.1Y-143.2
X212.1Y-145.3
X212.1Y-147.1
X212.1Y-148.8
X212.1Y-150.9
X212.1Y-152.7
X212.1Y-154.4
T3
X121.6Y-125.5
X121.6Y-116.
X178.4Y-116.
X178.4Y-125.5
T0
M30
