<?xml version="1.0" encoding="UTF-8" standalone="no"?>
<svg
   style="fill-opacity:1; color-rendering:auto; color-interpolation:auto; text-rendering:auto; stroke:black; stroke-linecap:square; stroke-miterlimit:10; shape-rendering:auto; stroke-opacity:1; fill:black; stroke-dasharray:none; font-weight:normal; stroke-width:1; font-family:'Dialog'; font-style:normal; stroke-linejoin:miter; font-size:12px; stroke-dashoffset:0; image-rendering:auto;"
   width="3000"
   height="1448"
   version="1.1"
   id="svg579"
   sodipodi:docname="ChargeInjectionOperationWaveforms_v2.svg"
   inkscape:version="1.1.1 (3bf5ae0d25, 2021-09-20)"
   xmlns:inkscape="http://www.inkscape.org/namespaces/inkscape"
   xmlns:sodipodi="http://sodipodi.sourceforge.net/DTD/sodipodi-0.dtd"
   xmlns="http://www.w3.org/2000/svg"
   xmlns:svg="http://www.w3.org/2000/svg">
  <sodipodi:namedview
     id="namedview581"
     pagecolor="#ffffff"
     bordercolor="#666666"
     borderopacity="1.0"
     inkscape:pageshadow="2"
     inkscape:pageopacity="0.0"
     inkscape:pagecheckerboard="0"
     showgrid="false"
     showborder="false"
     inkscape:zoom="0.30374338"
     inkscape:cx="1349.8236"
     inkscape:cy="865.86248"
     inkscape:window-width="1500"
     inkscape:window-height="938"
     inkscape:window-x="-6"
     inkscape:window-y="-6"
     inkscape:window-maximized="1"
     inkscape:current-layer="g577" />
  <!--Generated by the Batik Graphics2D SVG Generator-->
  <defs
     id="genericDefs" />
  <g
     id="g577">
    <defs
       id="defs1">
      <clipPath
         clipPathUnits="userSpaceOnUse"
         id="clipPath1">
        <path
           d="M0 0 L3000 0 L3000 1448 L0 1448 L0 0 Z"
           id="path3" />
      </clipPath>
    </defs>
    <g
       style="color-interpolation:linearRGB;fill:#000000;fill-opacity:0.149;stroke:#000000;stroke-width:2.73901;stroke-linecap:butt;stroke-linejoin:round;stroke-opacity:0.149;color-rendering:optimizeQuality;image-rendering:optimizeQuality;text-rendering:geometricPrecision"
       id="g35"
       transform="matrix(0.38160172,0,0,0.37904235,236.82397,67.684384)">
      <line
         y2="109"
         style="fill:none;stroke-width:4.43393"
         x1="390"
         x2="390"
         y1="282"
         id="line15" />
      <line
         y2="282"
         style="fill:none;stroke-width:4.43393"
         x1="2715"
         x2="390"
         y1="282"
         id="line29" />
      <line
         y2="109"
         style="fill:none;stroke-width:4.43393"
         x1="2715"
         x2="390"
         y1="109"
         id="line33" />
    </g>
    <g
       style="color-interpolation:linearRGB;stroke-width:2.73901;stroke-linejoin:round;color-rendering:optimizeQuality;image-rendering:optimizeQuality;text-rendering:geometricPrecision"
       id="g41"
       transform="matrix(0.38160172,0,0,0.37904235,236.82397,67.684384)">
      <line
         y2="282"
         style="fill:none;stroke-width:4.43393"
         x1="390"
         x2="2715"
         y1="282"
         id="line37" />
      <line
         y2="109"
         style="fill:none;stroke-width:4.43393"
         x1="390"
         x2="2715"
         y1="109"
         id="line39" />
    </g>
    <g
       transform="translate(2250,294)"
       style="font-size:33.3333px; text-rendering:geometricPrecision; color-rendering:optimizeQuality; image-rendering:optimizeQuality; font-family:'mwa_cmr10'; color-interpolation:linearRGB;"
       id="g65" />
    <g
       style="color-interpolation:linearRGB;stroke-width:2.73901;stroke-linejoin:round;color-rendering:optimizeQuality;image-rendering:optimizeQuality;text-rendering:geometricPrecision"
       id="g87"
       transform="matrix(0.38160172,0,0,0.37904235,236.82397,67.684384)">
      <line
         y2="109"
         style="fill:none;stroke-width:4.43393"
         x1="390"
         x2="390"
         y1="282"
         id="line71" />
      <line
         y2="109"
         style="fill:none;stroke-width:4.43393"
         x1="2715"
         x2="2715"
         y1="282"
         id="line73" />
      <line
         y2="282"
         style="fill:none;stroke-width:4.43393"
         x1="390"
         x2="413.25"
         y1="282"
         id="line75" />
      <line
         y2="109"
         style="fill:none;stroke-width:4.43393"
         x1="390"
         x2="413.25"
         y1="109"
         id="line79" />
      <line
         y2="282"
         style="fill:none;stroke-width:4.43393"
         x1="2715"
         x2="2691.75"
         y1="282"
         id="line81" />
      <line
         y2="195.5"
         style="fill:none;stroke-width:4.43393"
         x1="2715"
         x2="2691.75"
         y1="195.5"
         id="line83" />
      <line
         y2="109"
         style="fill:none;stroke-width:4.43393"
         x1="2715"
         x2="2691.75"
         y1="109"
         id="line85" />
    </g>
    <g
       style="color-interpolation:linearRGB;fill:#0072bd;stroke:#0072bd;stroke-width:13.6945;stroke-linecap:butt;stroke-linejoin:round;color-rendering:optimizeQuality;image-rendering:optimizeQuality;text-rendering:geometricPrecision"
       id="g123"
       transform="matrix(0.38160172,0,0,0.37904235,236.82397,67.684384)">
      <path
         d="m 390,282 v 0 h 581.25 58.0334 V 109 h 261.6083 163.49 v 0 h 49.0591 49.0592 v 0 0 h 98.1177 10e-5 428.64 v 173 h 204.5542 v 0 H 2499.406 2715"
         style="fill:none;fill-rule:evenodd;stroke-width:22.1687"
         id="path121" />
    </g>
    <g
       style="color-interpolation:linearRGB;fill:#000000;fill-opacity:0.149;stroke:#000000;stroke-width:2.73901;stroke-linecap:butt;stroke-linejoin:round;stroke-opacity:0.149;color-rendering:optimizeQuality;image-rendering:optimizeQuality;text-rendering:geometricPrecision"
       id="g145"
       transform="matrix(0.38160172,0,0,0.37904235,236.82397,67.684384)">
      <line
         y2="359"
         style="fill:none;stroke-width:4.43393"
         x1="390"
         x2="390"
         y1="532"
         id="line125" />
      <line
         y2="532"
         style="fill:none;stroke-width:4.43393"
         x1="2715"
         x2="390"
         y1="532"
         id="line139" />
      <line
         y2="359"
         style="fill:none;stroke-width:4.43393"
         x1="2715"
         x2="390"
         y1="359"
         id="line143" />
    </g>
    <g
       style="color-interpolation:linearRGB;stroke-width:2.73901;stroke-linejoin:round;color-rendering:optimizeQuality;image-rendering:optimizeQuality;text-rendering:geometricPrecision"
       id="g151"
       transform="matrix(0.38160172,0,0,0.37904235,236.82397,67.684384)">
      <line
         y2="532"
         style="fill:none;stroke-width:4.43393"
         x1="390"
         x2="2715"
         y1="532"
         id="line147" />
      <line
         y2="359"
         style="fill:none;stroke-width:4.43393"
         x1="390"
         x2="2715"
         y1="359"
         id="line149" />
    </g>
    <g
       style="color-interpolation:linearRGB;stroke-width:2.73901;stroke-linejoin:round;color-rendering:optimizeQuality;image-rendering:optimizeQuality;text-rendering:geometricPrecision"
       id="g197"
       transform="matrix(0.38160172,0,0,0.37904235,236.82397,67.684384)">
      <line
         y2="359"
         style="fill:none;stroke-width:4.43393"
         x1="390"
         x2="390"
         y1="532"
         id="line181" />
      <line
         y2="359"
         style="fill:none;stroke-width:4.43393"
         x1="2715"
         x2="2715"
         y1="532"
         id="line183" />
      <line
         y2="532"
         style="fill:none;stroke-width:4.43393"
         x1="390"
         x2="413.25"
         y1="532"
         id="line185" />
      <line
         y2="445.5"
         style="fill:none;stroke-width:4.43393"
         x1="390"
         x2="413.25"
         y1="445.5"
         id="line187" />
      <line
         y2="359"
         style="fill:none;stroke-width:4.43393"
         x1="390"
         x2="413.25"
         y1="359"
         id="line189" />
      <line
         y2="532"
         style="fill:none;stroke-width:4.43393"
         x1="2715"
         x2="2691.75"
         y1="532"
         id="line191" />
      <line
         y2="445.5"
         style="fill:none;stroke-width:4.43393"
         x1="2715"
         x2="2691.75"
         y1="445.5"
         id="line193" />
      <line
         y2="359"
         style="fill:none;stroke-width:4.43393"
         x1="2715"
         x2="2691.75"
         y1="359"
         id="line195" />
    </g>
    <g
       style="color-interpolation:linearRGB;fill:#d95319;stroke:#d95319;stroke-width:13.6945;stroke-linecap:butt;stroke-linejoin:round;color-rendering:optimizeQuality;image-rendering:optimizeQuality;text-rendering:geometricPrecision"
       id="g229"
       transform="matrix(0.38160172,0,0,0.37904235,236.82397,67.684384)">
      <path
         d="m 390,532 v 0 h 581.25 58.0334 v 0 h 261.6083 163.49 V 359 h 49.0591 49.0592 v 0 0 h 98.1177 l 10e-5,173 h 428.64 v 0 h 204.5542 v 0 H 2499.406 2715"
         style="fill:none;fill-rule:evenodd;stroke-width:22.1687"
         id="path227" />
    </g>
    <g
       style="color-interpolation:linearRGB;fill:#000000;fill-opacity:0.149;stroke:#000000;stroke-width:2.73901;stroke-linecap:butt;stroke-linejoin:round;stroke-opacity:0.149;color-rendering:optimizeQuality;image-rendering:optimizeQuality;text-rendering:geometricPrecision"
       id="g251"
       transform="matrix(0.38160172,0,0,0.37904235,236.82397,67.684384)">
      <line
         y2="609"
         style="fill:none;stroke-width:4.43393"
         x1="390"
         x2="390"
         y1="782"
         id="line231" />
      <line
         y2="782"
         style="fill:none;stroke-width:4.43393"
         x1="2715"
         x2="390"
         y1="782"
         id="line245" />
      <line
         y2="718.63843"
         style="fill:none;stroke-width:4.43393"
         x1="2715"
         x2="390"
         y1="718.63843"
         id="line247" />
      <line
         y2="655.27667"
         style="fill:none;stroke-width:4.43393"
         x1="2715"
         x2="390"
         y1="655.27667"
         id="line249" />
    </g>
    <g
       style="color-interpolation:linearRGB;stroke-width:2.73901;stroke-linejoin:round;color-rendering:optimizeQuality;image-rendering:optimizeQuality;text-rendering:geometricPrecision"
       id="g257"
       transform="matrix(0.38160172,0,0,0.37904235,236.82397,67.684384)">
      <line
         y2="782"
         style="fill:none;stroke-width:4.43393"
         x1="390"
         x2="2715"
         y1="782"
         id="line253" />
      <line
         y2="609"
         style="fill:none;stroke-width:4.43393"
         x1="390"
         x2="2715"
         y1="609"
         id="line255" />
    </g>
    <g
       style="color-interpolation:linearRGB;stroke-width:2.73901;stroke-linejoin:round;color-rendering:optimizeQuality;image-rendering:optimizeQuality;text-rendering:geometricPrecision"
       id="g303"
       transform="matrix(0.38160172,0,0,0.37904235,236.82397,67.684384)">
      <line
         y2="609"
         style="fill:none;stroke-width:4.43393"
         x1="390"
         x2="390"
         y1="782"
         id="line287" />
      <line
         y2="609"
         style="fill:none;stroke-width:4.43393"
         x1="2715"
         x2="2715"
         y1="782"
         id="line289" />
      <line
         y2="782"
         style="fill:none;stroke-width:4.43393"
         x1="390"
         x2="413.25"
         y1="782"
         id="line291" />
      <line
         y2="718.63843"
         style="fill:none;stroke-width:4.43393"
         x1="390"
         x2="413.25"
         y1="718.63843"
         id="line293" />
      <line
         y2="655.27667"
         style="fill:none;stroke-width:4.43393"
         x1="390"
         x2="413.25"
         y1="655.27667"
         id="line295" />
      <line
         y2="782"
         style="fill:none;stroke-width:4.43393"
         x1="2715"
         x2="2691.75"
         y1="782"
         id="line297" />
      <line
         y2="718.63843"
         style="fill:none;stroke-width:4.43393"
         x1="2715"
         x2="2691.75"
         y1="718.63843"
         id="line299" />
      <line
         y2="655.27667"
         style="fill:none;stroke-width:4.43393"
         x1="2715"
         x2="2691.75"
         y1="655.27667"
         id="line301" />
    </g>
    <g
       style="color-interpolation:linearRGB;fill:#0072bd;stroke:#0072bd;stroke-width:13.6945;stroke-linecap:butt;stroke-linejoin:round;color-rendering:optimizeQuality;image-rendering:optimizeQuality;text-rendering:geometricPrecision"
       id="g339"
       transform="matrix(0.38160172,0,0,0.37904235,236.82397,67.684384)">
      <path
         d="m 390,782 v 0 h 581.25 58.0334 v 0 h 261.6083 163.49 v 0 l 49.0591,-43.2523 49.0592,-43.2509 v 0 0 L 1650.6177,609 h 10e-5 l 428.64,96.0673 v 0 L 2283.812,782 v 0 H 2499.406 2715"
         style="fill:none;fill-rule:evenodd;stroke-width:22.1687"
         id="path337" />
    </g>
    <g
       style="color-interpolation:linearRGB;fill:#000000;fill-opacity:0.149;stroke:#000000;stroke-width:2.73901;stroke-linecap:butt;stroke-linejoin:round;stroke-opacity:0.149;color-rendering:optimizeQuality;image-rendering:optimizeQuality;text-rendering:geometricPrecision"
       id="g361"
       transform="matrix(0.38160172,0,0,0.37904235,236.82397,67.684384)">
      <line
         y2="859"
         style="fill:none;stroke-width:4.43393"
         x1="390"
         x2="390"
         y1="1032"
         id="line341" />
      <line
         y2="1004.817"
         style="fill:none;stroke-width:4.43393"
         x1="2715"
         x2="390"
         y1="1004.817"
         id="line355" />
      <line
         y2="939.96698"
         style="fill:none;stroke-width:4.43393"
         x1="2715"
         x2="390"
         y1="939.96698"
         id="line357" />
      <line
         y2="875.11688"
         style="fill:none;stroke-width:4.43393"
         x1="2715"
         x2="390"
         y1="875.11688"
         id="line359" />
    </g>
    <g
       style="color-interpolation:linearRGB;stroke-width:2.73901;stroke-linejoin:round;color-rendering:optimizeQuality;image-rendering:optimizeQuality;text-rendering:geometricPrecision"
       id="g367"
       transform="matrix(0.38160172,0,0,0.37904235,236.82397,67.684384)">
      <line
         y2="1032"
         style="fill:none;stroke-width:4.43393"
         x1="390"
         x2="2715"
         y1="1032"
         id="line363" />
      <line
         y2="859"
         style="fill:none;stroke-width:4.43393"
         x1="390"
         x2="2715"
         y1="859"
         id="line365" />
    </g>
    <g
       style="color-interpolation:linearRGB;stroke-width:2.73901;stroke-linejoin:round;color-rendering:optimizeQuality;image-rendering:optimizeQuality;text-rendering:geometricPrecision"
       id="g413"
       transform="matrix(0.38160172,0,0,0.37904235,236.82397,67.684384)">
      <line
         y2="859"
         style="fill:none;stroke-width:4.43393"
         x1="390"
         x2="390"
         y1="1032"
         id="line397" />
      <line
         y2="859"
         style="fill:none;stroke-width:4.43393"
         x1="2715"
         x2="2715"
         y1="1032"
         id="line399" />
      <line
         y2="1004.817"
         style="fill:none;stroke-width:4.43393"
         x1="390"
         x2="413.25"
         y1="1004.817"
         id="line401" />
      <line
         y2="939.96698"
         style="fill:none;stroke-width:4.43393"
         x1="390"
         x2="413.25"
         y1="939.96698"
         id="line403" />
      <line
         y2="875.11688"
         style="fill:none;stroke-width:4.43393"
         x1="390"
         x2="413.25"
         y1="875.11688"
         id="line405" />
      <line
         y2="1004.817"
         style="fill:none;stroke-width:4.43393"
         x1="2715"
         x2="2691.75"
         y1="1004.817"
         id="line407" />
      <line
         y2="939.96698"
         style="fill:none;stroke-width:4.43393"
         x1="2715"
         x2="2691.75"
         y1="939.96698"
         id="line409" />
      <line
         y2="875.11688"
         style="fill:none;stroke-width:4.43393"
         x1="2715"
         x2="2691.75"
         y1="875.11688"
         id="line411" />
    </g>
    <g
       style="color-interpolation:linearRGB;fill:#d95319;stroke:#d95319;stroke-width:13.6945;stroke-linecap:butt;stroke-linejoin:round;color-rendering:optimizeQuality;image-rendering:optimizeQuality;text-rendering:geometricPrecision"
       id="g449"
       transform="matrix(0.38160172,0,0,0.37904235,236.82397,67.684384)">
      <path
         d="m 390,878.6868 v 0 h 581.25 58.0334 V 983.201 l 261.6083,14.624 163.49,9.1406 v 0 l 49.0591,-2.791 49.0592,-2.7909 v 0 0 l 98.1177,-5.5816 h 10e-5 L 2079.2578,1032 V 859 l 204.5542,19.685 v 0 h 215.594 L 2715,878.6849"
         style="fill:none;fill-rule:evenodd;stroke-width:22.1687"
         id="path447" />
    </g>
    <g
       style="color-interpolation:linearRGB;fill:#000000;fill-opacity:0.149;stroke:#000000;stroke-width:2.73901;stroke-linecap:butt;stroke-linejoin:round;stroke-opacity:0.149;color-rendering:optimizeQuality;image-rendering:optimizeQuality;text-rendering:geometricPrecision"
       id="g473"
       transform="matrix(0.38160172,0,0,0.37904235,236.82397,67.684384)">
      <line
         y2="1109"
         style="fill:none;stroke-width:4.43393"
         x1="390"
         x2="390"
         y1="1282"
         id="line451" />
      <line
         y2="1259.3328"
         style="fill:none;stroke-width:4.43393"
         x1="2715"
         x2="390"
         y1="1259.3328"
         id="line465" />
      <line
         y2="1218.3788"
         style="fill:none;stroke-width:4.43393"
         x1="2715"
         x2="390"
         y1="1218.3788"
         id="line467" />
      <line
         y2="1177.4248"
         style="fill:none;stroke-width:4.43393"
         x1="2715"
         x2="390"
         y1="1177.4248"
         id="line469" />
      <line
         y2="1136.4709"
         style="fill:none;stroke-width:4.43393"
         x1="2715"
         x2="390"
         y1="1136.4709"
         id="line471" />
    </g>
    <g
       style="color-interpolation:linearRGB;stroke-width:2.73901;stroke-linejoin:round;color-rendering:optimizeQuality;image-rendering:optimizeQuality;text-rendering:geometricPrecision"
       id="g479"
       transform="matrix(0.38160172,0,0,0.37904235,236.82397,67.684384)">
      <line
         y2="1282"
         style="fill:none;stroke-width:4.43393"
         x1="390"
         x2="2715"
         y1="1282"
         id="line475" />
      <line
         y2="1109"
         style="fill:none;stroke-width:4.43393"
         x1="390"
         x2="2715"
         y1="1109"
         id="line477" />
    </g>
    <g
       transform="matrix(0.38160172,0,0,0.37904235,385.64864,558.16518)"
       style="font-size:33.3333px;font-family:mwa_cmr10;color-interpolation:linearRGB;stroke-width:2.62937;color-rendering:optimizeQuality;image-rendering:optimizeQuality;text-rendering:geometricPrecision"
       id="g483">
      <path
         style="stroke:none;stroke-width:4.25643"
         d="m -0.0833,28.7186 q -4.0469,0 -5.5,-3.3281 -1.4532,-3.3281 -1.4532,-7.9062 0,-2.875 0.5235,-5.4063 0.5234,-2.5312 2.0781,-4.2969 1.5547,-1.7656 4.3516,-1.7656 2.1718,0 3.5625,1.0625 1.3906,1.0625 2.1093,2.75 0.7188,1.6875 0.9844,3.6094 0.2656,1.9219 0.2656,4.0469 0,2.8281 -0.5234,5.3046 -0.5234,2.4766 -2.0547,4.2032 -1.5312,1.7265 -4.3437,1.7265 z m 0,-0.8437 q 1.8437,0 2.7422,-1.8906 0.8984,-1.8907 1.1093,-4.1719 0.211,-2.2813 0.211,-4.8594 0,-2.4844 -0.211,-4.5781 Q 3.5573,10.2811 2.6667,8.578 1.776,6.8749 -0.0833,6.8749 q -1.875,0 -2.7735,1.7109 -0.8984,1.711 -1.1093,3.7969 -0.211,2.0859 -0.211,4.5703 0,1.8281 0.086,3.4531 0.0859,1.625 0.4765,3.3594 0.3906,1.7344 1.25,2.9219 0.8594,1.1875 2.2813,1.1875 z"
         id="path481" />
    </g>
    <g
       style="color-interpolation:linearRGB;stroke-width:2.73901;stroke-linejoin:round;color-rendering:optimizeQuality;image-rendering:optimizeQuality;text-rendering:geometricPrecision"
       id="g529"
       transform="matrix(0.38160172,0,0,0.37904235,236.82397,67.684384)">
      <line
         y2="1109"
         style="fill:none;stroke-width:4.43393"
         x1="390"
         x2="390"
         y1="1282"
         id="line509" />
      <line
         y2="1109"
         style="fill:none;stroke-width:4.43393"
         x1="2715"
         x2="2715"
         y1="1282"
         id="line511" />
      <line
         y2="1259.3328"
         style="fill:none;stroke-width:4.43393"
         x1="390"
         x2="413.25"
         y1="1259.3328"
         id="line513" />
      <line
         y2="1218.3788"
         style="fill:none;stroke-width:4.43393"
         x1="390"
         x2="413.25"
         y1="1218.3788"
         id="line515" />
      <line
         y2="1177.4248"
         style="fill:none;stroke-width:4.43393"
         x1="390"
         x2="413.25"
         y1="1177.4248"
         id="line517" />
      <line
         y2="1136.4709"
         style="fill:none;stroke-width:4.43393"
         x1="390"
         x2="413.25"
         y1="1136.4709"
         id="line519" />
      <line
         y2="1259.3328"
         style="fill:none;stroke-width:4.43393"
         x1="2715"
         x2="2691.75"
         y1="1259.3328"
         id="line521" />
      <line
         y2="1218.3788"
         style="fill:none;stroke-width:4.43393"
         x1="2715"
         x2="2691.75"
         y1="1218.3788"
         id="line523" />
      <line
         y2="1177.4248"
         style="fill:none;stroke-width:4.43393"
         x1="2715"
         x2="2691.75"
         y1="1177.4248"
         id="line525" />
      <line
         y2="1136.4709"
         style="fill:none;stroke-width:4.43393"
         x1="2715"
         x2="2691.75"
         y1="1136.4709"
         id="line527" />
    </g>
    <g
       style="color-interpolation:linearRGB;fill:#0072bd;stroke:#0072bd;stroke-width:13.6945;stroke-linecap:butt;stroke-linejoin:round;color-rendering:optimizeQuality;image-rendering:optimizeQuality;text-rendering:geometricPrecision"
       id="g575"
       transform="matrix(0.38160172,0,0,0.37904235,236.82397,67.684384)">
      <path
         d="m 390,1207.2921 v 0 l 581.25,67.9332 58.0334,6.7747 v 0 l 261.6083,-36.9423 163.49,-23.0907 v 0 l 49.0591,-20.9061 49.0592,-20.9053 v 0 0 l 98.1177,-41.8086 h 10e-5 l 428.64,-29.347 v 0 l 204.5542,48.861 v 0 l 215.594,25.3326 215.594,25.3557"
         style="fill:none;fill-rule:evenodd;stroke-width:22.1687"
         id="path573" />
    </g>
  </g>
</svg>
