<?xml version="1.0" encoding="UTF-8" standalone="no"?>
<svg
   style="fill-opacity:1; color-rendering:auto; color-interpolation:auto; text-rendering:auto; stroke:black; stroke-linecap:square; stroke-miterlimit:10; shape-rendering:auto; stroke-opacity:1; fill:black; stroke-dasharray:none; font-weight:normal; stroke-width:1; font-family:'Dialog'; font-style:normal; stroke-linejoin:miter; font-size:12px; stroke-dashoffset:0; image-rendering:auto;"
   width="1920"
   height="908"
   version="1.1"
   id="svg305"
   sodipodi:docname="piechart.svg"
   inkscape:version="1.1.1 (3bf5ae0d25, 2021-09-20)"
   xmlns:inkscape="http://www.inkscape.org/namespaces/inkscape"
   xmlns:sodipodi="http://sodipodi.sourceforge.net/DTD/sodipodi-0.dtd"
   xmlns="http://www.w3.org/2000/svg"
   xmlns:svg="http://www.w3.org/2000/svg">
  <sodipodi:namedview
     id="namedview307"
     pagecolor="#ffffff"
     bordercolor="#666666"
     borderopacity="1.0"
     inkscape:pageshadow="2"
     inkscape:pageopacity="0.0"
     inkscape:pagecheckerboard="0"
     showgrid="false"
     showborder="false"
     inkscape:zoom="0.54045386"
     inkscape:cx="1166.6121"
     inkscape:cy="593.02009"
     inkscape:window-width="1920"
     inkscape:window-height="1009"
     inkscape:window-x="1912"
     inkscape:window-y="18"
     inkscape:window-maximized="1"
     inkscape:current-layer="g303" />
  <!--Generated by the Batik Graphics2D SVG Generator-->
  <defs
     id="genericDefs" />
  <g
     id="g303"
     transform="translate(-100.74352,24.85879)">
    <defs
       id="defs1">
      <clipPath
         clipPathUnits="userSpaceOnUse"
         id="clipPath1">
        <path
           d="M 0,0 H 1920 V 908 H 0 Z"
           id="path3" />
      </clipPath>
    </defs>
    <g
       style="color-interpolation:sRGB;fill:#ffffff;stroke:#ffffff;color-rendering:optimizeSpeed;image-rendering:optimizeSpeed;shape-rendering:crispEdges;text-rendering:optimizeSpeed"
       id="g15">
      <path
         d="M 693.4503,369.1576 689.8041,387.6579 994,438 V 129.6667 l -18.8474,0.5765 -18.7769,1.7276 -18.6362,2.8721 -18.4258,4.006 -18.1464,5.1247 -17.7993,6.2244 -17.3855,7.3007 -16.9067,8.3498 -16.3647,9.3677 -15.7615,10.3504 -15.0993,11.2946 -14.3807,12.1964 -13.6083,13.0526 -12.7849,13.8601 -11.9139,14.6156 -10.9982,15.3166 -10.0413,15.9602 -9.047,16.5441 -8.0187,17.0663 -6.9606,17.5244 -5.8764,17.9172 z"
         style="fill:#3d26a8;stroke:none"
         id="path13" />
    </g>
    <g
       style="color-interpolation:linearRGB;stroke-width:0.6667;color-rendering:optimizeQuality;image-rendering:optimizeQuality;text-rendering:geometricPrecision"
       id="g19">
      <path
         d="M 994,438 V 129.6667 l -18.8474,0.5765 -18.7769,1.7276 -18.6362,2.8721 -18.4258,4.006 -18.1464,5.1247 -17.7993,6.2244 -17.3855,7.3007 -16.9067,8.3498 -16.3647,9.3677 -15.7615,10.3504 -15.0993,11.2946 -14.3807,12.1964 -13.6083,13.0526 -12.7849,13.8601 -11.9139,14.6156 -10.9982,15.3166 -10.0413,15.9602 -9.047,16.5441 -8.0187,17.0663 -6.9606,17.5244 -5.8764,17.9172 -4.77,18.2429 -3.6462,18.5003 L 994,438 v 0"
         style="fill:none;fill-rule:evenodd"
         id="path17" />
    </g>
    <g
       style="color-interpolation:sRGB;fill:#4463fc;stroke:#4463fc;color-rendering:optimizeSpeed;image-rendering:optimizeSpeed;shape-rendering:crispEdges;text-rendering:optimizeSpeed"
       id="g23">
      <path
         style="stroke:none"
         d="M 685.9998,423.6702 685.6899,441.7817 994,438 689.8041,387.6579 l -2.4312,17.9503 z"
         id="path21" />
    </g>
    <g
       style="color-interpolation:linearRGB;stroke-width:0.6667;color-rendering:optimizeQuality;image-rendering:optimizeQuality;text-rendering:geometricPrecision"
       id="g27">
      <path
         d="m 994,438 -304.1959,-50.3421 -2.4312,17.9503 -1.3731,18.062 -0.3099,18.1115 L 994,438 v 0"
         style="fill:none;fill-rule:evenodd"
         id="path25" />
    </g>
    <g
       style="color-interpolation:sRGB;fill:#1ca9df;stroke:#1ca9df;color-rendering:optimizeSpeed;image-rendering:optimizeSpeed;shape-rendering:crispEdges;text-rendering:optimizeSpeed"
       id="g31">
      <path
         style="stroke:none"
         d="m 829.3918,698.7175 16.5274,9.7294 17.1002,8.683 17.607,7.6032 18.0456,6.4938 18.4144,5.3593 18.712,4.2042 18.9371,3.0327 19.0891,1.8494 19.1672,0.6592 19.171,-0.5338 19.1007,-1.7246 18.9566,-2.9087 18.7391,-4.0817 L 994,438 l -308.3101,3.7817 0.8315,19.1604 2.0211,19.0717 3.2029,18.9091 4.3723,18.6735 5.5248,18.3654 6.6558,17.9864 7.7612,17.5379 8.8366,17.0215 9.8776,16.4391 10.8807,15.7932 11.8413,15.0863 12.7565,14.3208 13.6221,13.5001 14.435,12.6271 15.1921,11.7052 z"
         id="path29" />
    </g>
    <g
       style="color-interpolation:linearRGB;stroke-width:0.6667;color-rendering:optimizeQuality;image-rendering:optimizeQuality;text-rendering:geometricPrecision"
       id="g35">
      <path
         d="m 994,438 -308.3101,3.7817 0.8315,19.1604 2.0211,19.0717 3.2029,18.9091 4.3723,18.6735 5.5248,18.3654 6.6558,17.9864 7.7612,17.5379 8.8366,17.0215 9.8776,16.4391 10.8807,15.7932 11.8413,15.0863 12.7565,14.3208 13.6221,13.5001 14.435,12.6271 15.1921,11.7052 15.8904,10.7381 16.5274,9.7294 17.1002,8.683 17.607,7.6032 18.0456,6.4938 18.4144,5.3593 18.712,4.2042 18.9371,3.0327 19.0891,1.8494 19.1672,0.6592 19.171,-0.5338 19.1007,-1.7246 18.9566,-2.9087 18.7391,-4.0817 L 994,438 v 0"
         style="fill:none;fill-rule:evenodd"
         id="path33" />
    </g>
    <g
       style="color-interpolation:sRGB;fill:#4acb84;stroke:#4acb84;color-rendering:optimizeSpeed;image-rendering:optimizeSpeed;shape-rendering:crispEdges;text-rendering:optimizeSpeed"
       id="g39">
      <path
         style="stroke:none"
         d="m 1121.7024,718.6448 16.7313,-8.2327 16.203,-9.2291 15.6155,-10.1917 14.9708,-11.117 14.2715,-12.0016 13.5199,-12.8425 12.7189,-13.6362 11.8712,-14.38 10.9803,-15.0714 10.0492,-15.7077 9.0812,-16.2863 8.0802,-16.8055 7.0494,-17.2632 5.9932,-17.6579 4.9147,-17.9877 L 994,438 l 74.9592,299.0829 17.9423,-5.0782 17.6025,-6.1535 z"
         id="path37" />
    </g>
    <g
       style="color-interpolation:linearRGB;stroke-width:0.6667;color-rendering:optimizeQuality;image-rendering:optimizeQuality;text-rendering:geometricPrecision"
       id="g43">
      <path
         d="m 994,438 74.9592,299.0829 17.9423,-5.0782 17.6025,-6.1535 17.1984,-7.2064 16.7313,-8.2327 16.203,-9.2291 15.6155,-10.1917 14.9708,-11.117 14.2715,-12.0016 13.5199,-12.8425 12.7189,-13.6362 11.8712,-14.38 10.9803,-15.0714 10.0492,-15.7077 9.0812,-16.2863 8.0802,-16.8055 7.0494,-17.2632 5.9932,-17.6579 4.9147,-17.9877 L 994,438 v 0"
         style="fill:none;fill-rule:evenodd"
         id="path41" />
    </g>
    <g
       style="color-interpolation:sRGB;fill:#efb935;stroke:#efb935;color-rendering:optimizeSpeed;image-rendering:optimizeSpeed;shape-rendering:crispEdges;text-rendering:optimizeSpeed"
       id="g47">
      <path
         style="stroke:none"
         d="m 994,438 299.7527,72.2343 3.7233,-17.7205 z"
         id="path45" />
    </g>
    <g
       style="color-interpolation:linearRGB;stroke-width:0.6667;color-rendering:optimizeQuality;image-rendering:optimizeQuality;text-rendering:geometricPrecision"
       id="g51">
      <path
         d="m 994,438 299.7527,72.2343 3.7233,-17.7205 L 994,438 v 0"
         style="fill:none;fill-rule:evenodd"
         id="path49" />
    </g>
    <g
       style="color-interpolation:sRGB;fill:#f9fa14;stroke:#f9fa14;color-rendering:optimizeSpeed;image-rendering:optimizeSpeed;shape-rendering:crispEdges;text-rendering:optimizeSpeed"
       id="g55">
      <path
         style="stroke:none"
         d="M 994,129.6667 V 438 l 303.476,54.5138 2.8105,-19.0453 1.6165,-19.1835 0.4161,-19.2471 -0.7858,-19.2354 -1.9847,-19.149 -3.1759,-18.9878 -4.3548,-18.7526 -5.5164,-18.4442 -6.6568,-18.064 -7.7711,-17.6134 -8.8552,-17.0941 -9.9047,-16.5082 -10.9156,-15.8578 -11.8839,-15.1457 -12.8061,-14.3746 -13.6781,-13.5473 -14.4969,-12.6674 -15.2592,-11.7379 -15.962,-10.7628 -16.6025,-9.7456 -17.1784,-8.6906 -17.6872,-7.6015 -18.1271,-6.4829 -18.4965,-5.3391 -18.7934,-4.1743 -19.0175,-2.9933 -19.1671,-1.8007 z"
         id="path53" />
    </g>
    <g
       style="color-interpolation:linearRGB;stroke-width:0.6667;color-rendering:optimizeQuality;image-rendering:optimizeQuality;text-rendering:geometricPrecision"
       id="g59">
      <path
         d="m 994,438 303.476,54.5138 2.8105,-19.0453 1.6165,-19.1835 0.4161,-19.2471 -0.7858,-19.2354 -1.9847,-19.149 -3.1759,-18.9878 -4.3548,-18.7526 -5.5164,-18.4442 -6.6568,-18.064 -7.7711,-17.6134 -8.8552,-17.0941 -9.9047,-16.5082 -10.9156,-15.8578 -11.8839,-15.1457 -12.8061,-14.3746 -13.6781,-13.5473 -14.4969,-12.6674 -15.2592,-11.7379 -15.962,-10.7628 -16.6025,-9.7456 -17.1784,-8.6906 -17.6872,-7.6015 -18.1271,-6.4829 -18.4965,-5.3391 -18.7934,-4.1743 -19.0175,-2.9933 -19.1671,-1.8007 L 994,129.6667 V 438 v 0"
         style="fill:none;fill-rule:evenodd"
         id="path57" />
    </g>
    <g
       transform="translate(754.68,155.8193)"
       style="font-size:32px;font-family:'Times New Roman';color-interpolation:linearRGB;color-rendering:optimizeQuality;image-rendering:optimizeQuality;text-rendering:geometricPrecision"
       id="g63">
      <path
         style="stroke:none"
         d="M -14.8281,7.4219 -16.3125,11.5 h -12.5 v -0.5781 q 5.5156,-5.0313 7.7656,-8.2188 2.25,-3.1875 2.25,-5.8281 0,-2.0156 -1.2343,-3.3125 -1.2344,-1.2969 -2.9532,-1.2969 -1.5625,0 -2.8047,0.9141 -1.2421,0.9141 -1.8359,2.6797 h -0.5781 q 0.3906,-2.8906 2.0078,-4.4375 1.6172,-1.5469 4.0391,-1.5469 2.5781,0 4.3046,1.6562 1.7266,1.6563 1.7266,3.9063 0,1.6094 -0.75,3.2187 -1.1562,2.5313 -3.75,5.3594 -3.8906,4.25 -4.8594,5.125 h 5.5313 q 1.6875,0 2.3672,-0.125 0.6797,-0.125 1.2265,-0.5078 0.5469,-0.3828 0.9532,-1.0859 z m 16,0 -1.4844,4.0781 h -12.5 v -0.5781 q 5.5156,-5.0313 7.7656,-8.2188 2.25,-3.1875 2.25,-5.8281 0,-2.0156 -1.2343,-3.3125 -1.2344,-1.2969 -2.9532,-1.2969 -1.5625,0 -2.8047,0.9141 -1.2421,0.9141 -1.8359,2.6797 h -0.5781 q 0.3906,-2.8906 2.0078,-4.4375 1.6172,-1.5469 4.0391,-1.5469 2.5781,0 4.3046,1.6562 1.7266,1.6563 1.7266,3.9063 0,1.6094 -0.75,3.2187 -1.1562,2.5313 -3.75,5.3594 -3.8906,4.25 -4.8594,5.125 h 5.5313 q 1.6875,0 2.3672,-0.125 0.6797,-0.125 1.2265,-0.5078 Q 0.1875,8.125 0.5938,7.4219 Z M 24.25,-10.1719 8.8125,12.375 H 7.4219 l 15.4375,-22.5469 z m -16.0625,0 q 2.1094,0 3.2734,1.75 1.1641,1.75 1.1641,4.0157 0,2.7187 -1.3125,4.2031 Q 10,1.2812 8.1562,1.2812 6.9219,1.2812 5.8906,0.6016 4.8594,-0.0781 4.2422,-1.4219 3.625,-2.7656 3.625,-4.4062 q 0,-1.6407 0.625,-3.0235 0.625,-1.3828 1.7109,-2.0625 1.086,-0.6797 2.2266,-0.6797 z m -0.0469,0.875 q -0.7968,0 -1.414,0.9375 -0.6172,0.9375 -0.6172,3.9375 0,2.1719 0.3437,3.3125 Q 6.7188,-0.25 7.2812,0.2188 7.6094,0.5 8.0938,0.5 q 0.75,0 1.2812,-0.8125 0.7812,-1.2031 0.7812,-4.0156 0,-2.9688 -0.7656,-4.1719 -0.5,-0.7969 -1.25,-0.7969 z M 23.5312,0.9844 q 1.1094,0 2.211,0.7031 1.1016,0.7031 1.7031,2.0469 0.6016,1.3437 0.6016,2.9531 0,2.7656 -1.3281,4.2266 -1.3282,1.4609 -3.1407,1.4609 -1.1406,0 -2.2109,-0.7031 -1.0703,-0.7031 -1.6875,-2.0078 -0.6172,-1.3047 -0.6172,-2.9766 0,-1.6406 0.6172,-3 0.6172,-1.3594 1.6875,-2.0313 1.0703,-0.6718 2.164,-0.6718 z m 0.0157,0.8281 q -0.75,0 -1.2969,0.8437 -0.7031,1.0938 -0.7031,4.1407 0,2.7969 0.7187,3.9062 0.5313,0.7969 1.2813,0.7969 0.7187,0 1.2812,-0.8594 0.75,-1.1406 0.75,-3.9218 0,-2.9376 -0.75,-4.1094 -0.5156,-0.7969 -1.2812,-0.7969 z"
         id="path61" />
    </g>
    <g
       transform="translate(625.0644,409.9549)"
       style="font-size:32px;font-family:'Times New Roman';color-interpolation:linearRGB;color-rendering:optimizeQuality;image-rendering:optimizeQuality;text-rendering:geometricPrecision"
       id="g67">
      <path
         style="stroke:none"
         d="m -19.875,-5.6562 q 0.9062,-2.1407 2.2891,-3.3047 1.3828,-1.1641 3.4453,-1.1641 2.5468,0 3.9062,1.6562 1.0313,1.2344 1.0313,2.6407 0,2.3125 -2.9063,4.7812 1.9532,0.7657 2.9532,2.1875 1,1.4219 1,3.3438 0,2.75 -1.75,4.7656 -2.2813,2.625 -6.6094,2.625 -2.1406,0 -2.9141,-0.5312 -0.7734,-0.5313 -0.7734,-1.1407 0,-0.4531 0.3672,-0.7969 0.3671,-0.3437 0.8828,-0.3437 0.3906,0 0.7969,0.125 0.2656,0.0781 1.2031,0.5703 0.9375,0.4922 1.2969,0.586 0.5781,0.1718 1.2343,0.1718 1.5938,0 2.7735,-1.2344 1.1796,-1.2343 1.1796,-2.9218 0,-1.2344 -0.5468,-2.4063 Q -11.4219,3.0781 -11.9062,2.625 -12.5781,2 -13.75,1.4922 -14.9219,0.9844 -16.1406,0.9844 h -0.5 V 0.5156 q 1.2344,-0.1562 2.4765,-0.8906 1.2422,-0.7344 1.8047,-1.7656 0.5625,-1.0313 0.5625,-2.2656 0,-1.6094 -1.0078,-2.6016 Q -13.8125,-8 -15.3125,-8 q -2.4219,0 -4.0469,2.5938 z M 16.25,-10.1719 0.8125,12.375 h -1.3906 l 15.4375,-22.5469 z m -16.0625,0 q 2.1094,0 3.2734,1.75 1.1641,1.75 1.1641,4.0157 0,2.7187 -1.3125,4.2031 Q 2,1.2812 0.1562,1.2812 q -1.2343,0 -2.2656,-0.6796 -1.0312,-0.6797 -1.6484,-2.0235 -0.6172,-1.3437 -0.6172,-2.9843 0,-1.6407 0.625,-3.0235 0.625,-1.3828 1.7109,-2.0625 1.086,-0.6797 2.2266,-0.6797 z m -0.0469,0.875 q -0.7968,0 -1.414,0.9375 -0.6172,0.9375 -0.6172,3.9375 0,2.1719 0.3437,3.3125 0.2657,0.8594 0.8281,1.3282 Q -0.3906,0.5 0.0938,0.5 q 0.75,0 1.2812,-0.8125 0.7812,-1.2031 0.7812,-4.0156 0,-2.9688 -0.7656,-4.1719 -0.5,-0.7969 -1.25,-0.7969 z M 15.5312,0.9844 q 1.1094,0 2.211,0.7031 1.1016,0.7031 1.7031,2.0469 0.6016,1.3437 0.6016,2.9531 0,2.7656 -1.3281,4.2266 -1.3282,1.4609 -3.1407,1.4609 -1.1406,0 -2.2109,-0.7031 -1.0703,-0.7031 -1.6875,-2.0078 -0.6172,-1.3047 -0.6172,-2.9766 0,-1.6406 0.6172,-3 0.6172,-1.3594 1.6875,-2.0313 1.0703,-0.6718 2.164,-0.6718 z m 0.0157,0.8281 q -0.75,0 -1.2969,0.8437 -0.7031,1.0938 -0.7031,4.1407 0,2.7969 0.7187,3.9062 0.5313,0.7969 1.2813,0.7969 0.7187,0 1.2812,-0.8594 0.75,-1.1406 0.75,-3.9218 0,-2.9376 -0.75,-4.1094 -0.5156,-0.7969 -1.2812,-0.7969 z"
         id="path65" />
    </g>
    <g
       transform="translate(768.1772,731.0939)"
       style="font-size:32px;font-family:'Times New Roman';color-interpolation:linearRGB;color-rendering:optimizeQuality;image-rendering:optimizeQuality;text-rendering:geometricPrecision"
       id="g71">
      <path
         style="stroke:none"
         d="M -14.8281,7.4219 -16.3125,11.5 h -12.5 v -0.5781 q 5.5156,-5.0313 7.7656,-8.2188 2.25,-3.1875 2.25,-5.8281 0,-2.0156 -1.2343,-3.3125 -1.2344,-1.2969 -2.9532,-1.2969 -1.5625,0 -2.8047,0.9141 -1.2421,0.9141 -1.8359,2.6797 h -0.5781 q 0.3906,-2.8906 2.0078,-4.4375 1.6172,-1.5469 4.0391,-1.5469 2.5781,0 4.3046,1.6562 1.7266,1.6563 1.7266,3.9063 0,1.6094 -0.75,3.2187 -1.1562,2.5313 -3.75,5.3594 -3.8906,4.25 -4.8594,5.125 h 5.5313 q 1.6875,0 2.3672,-0.125 0.6797,-0.125 1.2265,-0.5078 0.5469,-0.3828 0.9532,-1.0859 z m 3.0156,4.5156 v -0.5781 q 2.0313,-0.0313 3.7813,-0.9453 1.75,-0.9141 3.3828,-3.1953 1.6328,-2.2813 2.2734,-5.0157 -2.4531,1.5781 -4.4375,1.5781 -2.2344,0 -3.8281,-1.7265 -1.5938,-1.7266 -1.5938,-4.5859 0,-2.7813 1.5938,-4.9532 1.9218,-2.6406 5.0156,-2.6406 2.6094,0 4.4688,2.1562 2.2812,2.6719 2.2812,6.5938 0,3.5312 -1.7344,6.5859 -1.7344,3.0547 -4.8281,5.0703 -2.5156,1.6563 -5.4844,1.6563 z M -2.125,1.0469 q 0.2812,-2.0313 0.2812,-3.25 0,-1.5157 -0.5156,-3.2735 -0.5156,-1.7578 -1.4609,-2.6953 -0.9453,-0.9375 -2.1485,-0.9375 -1.3906,0 -2.4374,1.25 -1.0469,1.25 -1.0469,3.7188 0,3.2968 1.3906,5.1562 1.0156,1.3438 2.5,1.3438 0.7187,0 1.7031,-0.3438 Q -2.875,1.6719 -2.125,1.0469 Z M 24.25,-10.1719 8.8125,12.375 H 7.4219 l 15.4375,-22.5469 z m -16.0625,0 q 2.1094,0 3.2734,1.75 1.1641,1.75 1.1641,4.0157 0,2.7187 -1.3125,4.2031 Q 10,1.2812 8.1562,1.2812 6.9219,1.2812 5.8906,0.6016 4.8594,-0.0781 4.2422,-1.4219 3.625,-2.7656 3.625,-4.4062 q 0,-1.6407 0.625,-3.0235 0.625,-1.3828 1.7109,-2.0625 1.086,-0.6797 2.2266,-0.6797 z m -0.0469,0.875 q -0.7968,0 -1.414,0.9375 -0.6172,0.9375 -0.6172,3.9375 0,2.1719 0.3437,3.3125 Q 6.7188,-0.25 7.2812,0.2188 7.6094,0.5 8.0938,0.5 q 0.75,0 1.2812,-0.8125 0.7812,-1.2031 0.7812,-4.0156 0,-2.9688 -0.7656,-4.1719 -0.5,-0.7969 -1.25,-0.7969 z M 23.5312,0.9844 q 1.1094,0 2.211,0.7031 1.1016,0.7031 1.7031,2.0469 0.6016,1.3437 0.6016,2.9531 0,2.7656 -1.3281,4.2266 -1.3282,1.4609 -3.1407,1.4609 -1.1406,0 -2.2109,-0.7031 -1.0703,-0.7031 -1.6875,-2.0078 -0.6172,-1.3047 -0.6172,-2.9766 0,-1.6406 0.6172,-3 0.6172,-1.3594 1.6875,-2.0313 1.0703,-0.6718 2.164,-0.6718 z m 0.0157,0.8281 q -0.75,0 -1.2969,0.8437 -0.7031,1.0938 -0.7031,4.1407 0,2.7969 0.7187,3.9062 0.5313,0.7969 1.2813,0.7969 0.7187,0 1.2812,-0.8594 0.75,-1.1406 0.75,-3.9218 0,-2.9376 -0.75,-4.1094 -0.5156,-0.7969 -1.2812,-0.7969 z"
         id="path69" />
    </g>
    <g
       transform="translate(1256.8173,698.4363)"
       style="font-size:32px;font-family:'Times New Roman';color-interpolation:linearRGB;color-rendering:optimizeQuality;image-rendering:optimizeQuality;text-rendering:geometricPrecision"
       id="g75">
      <path
         style="stroke:none"
         d="m -25.75,-7.6094 5.1562,-2.5156 h 0.5157 V 7.7656 q 0,1.7813 0.1484,2.2188 0.1485,0.4375 0.6172,0.6718 0.4687,0.2344 1.9063,0.2657 V 11.5 h -7.9688 v -0.5781 q 1.5,-0.0313 1.9375,-0.2578 0.4375,-0.2266 0.6094,-0.6094 0.1719,-0.3828 0.1719,-2.2891 V -3.6719 q 0,-2.3125 -0.1563,-2.9687 -0.1094,-0.5 -0.3984,-0.7344 -0.2891,-0.2344 -0.6953,-0.2344 -0.5782,0 -1.6094,0.4844 z m 15.4688,-2.0781 H 1.0781 v 0.5937 l -7.0625,21.0313 h -1.75 L -1.4062,-7.1406 H -7.2344 Q -9,-7.1406 -9.75,-6.7188 -11.0625,-6 -11.8594,-4.5 l -0.4531,-0.1719 z M 24.25,-10.1719 8.8125,12.375 H 7.4219 l 15.4375,-22.5469 z m -16.0625,0 q 2.1094,0 3.2734,1.75 1.1641,1.75 1.1641,4.0157 0,2.7187 -1.3125,4.2031 Q 10,1.2812 8.1562,1.2812 6.9219,1.2812 5.8906,0.6016 4.8594,-0.0781 4.2422,-1.4219 3.625,-2.7656 3.625,-4.4062 q 0,-1.6407 0.625,-3.0235 0.625,-1.3828 1.7109,-2.0625 1.086,-0.6797 2.2266,-0.6797 z m -0.0469,0.875 q -0.7968,0 -1.414,0.9375 -0.6172,0.9375 -0.6172,3.9375 0,2.1719 0.3437,3.3125 Q 6.7188,-0.25 7.2812,0.2188 7.6094,0.5 8.0938,0.5 q 0.75,0 1.2812,-0.8125 0.7812,-1.2031 0.7812,-4.0156 0,-2.9688 -0.7656,-4.1719 -0.5,-0.7969 -1.25,-0.7969 z M 23.5312,0.9844 q 1.1094,0 2.211,0.7031 1.1016,0.7031 1.7031,2.0469 0.6016,1.3437 0.6016,2.9531 0,2.7656 -1.3281,4.2266 -1.3282,1.4609 -3.1407,1.4609 -1.1406,0 -2.2109,-0.7031 -1.0703,-0.7031 -1.6875,-2.0078 -0.6172,-1.3047 -0.6172,-2.9766 0,-1.6406 0.6172,-3 0.6172,-1.3594 1.6875,-2.0313 1.0703,-0.6718 2.164,-0.6718 z m 0.0157,0.8281 q -0.75,0 -1.2969,0.8437 -0.7031,1.0938 -0.7031,4.1407 0,2.7969 0.7187,3.9062 0.5313,0.7969 1.2813,0.7969 0.7187,0 1.2812,-0.8594 0.75,-1.1406 0.75,-3.9218 0,-2.9376 -0.75,-4.1094 -0.5156,-0.7969 -1.2812,-0.7969 z"
         id="path73" />
    </g>
    <g
       transform="translate(1356.0933,514.0817)"
       style="font-size:32px;font-family:'Times New Roman';color-interpolation:linearRGB;color-rendering:optimizeQuality;image-rendering:optimizeQuality;text-rendering:geometricPrecision"
       id="g79">
      <path
         style="stroke:none"
         d="m -33.9219,0.4688 16.8125,-7.2813 v 1.3594 l -14.4687,6.2812 14.4687,6.3438 V 8.5781 L -33.9219,1.2344 Z M -4.7031,-7.6094 0.4531,-10.125 H 0.9688 V 7.7656 q 0,1.7813 0.1484,2.2188 0.1484,0.4375 0.6172,0.6718 0.4687,0.2344 1.9062,0.2657 V 11.5 h -7.9687 v -0.5781 q 1.5,-0.0313 1.9375,-0.2578 0.4375,-0.2266 0.6094,-0.6094 0.1718,-0.3828 0.1718,-2.2891 V -3.6719 q 0,-2.3125 -0.1562,-2.9687 -0.1094,-0.5 -0.3985,-0.7344 -0.289,-0.2344 -0.6953,-0.2344 -0.5781,0 -1.6094,0.4844 z m 34,-2.5625 -15.4375,22.5469 h -1.3906 l 15.4374,-22.5469 z m -16.0625,0 q 2.1094,0 3.2734,1.75 1.1641,1.75 1.1641,4.0157 0,2.7187 -1.3125,4.2031 -1.3125,1.4843 -3.1563,1.4843 -1.2343,0 -2.2656,-0.6796 -1.0313,-0.6797 -1.6484,-2.0235 -0.6172,-1.3437 -0.6172,-2.9843 0,-1.6407 0.625,-3.0235 0.625,-1.3828 1.7109,-2.0625 1.086,-0.6797 2.2266,-0.6797 z m -0.0469,0.875 q -0.7969,0 -1.4141,0.9375 -0.6172,0.9375 -0.6172,3.9375 0,2.1719 0.3438,3.3125 0.2656,0.8594 0.8281,1.3282 0.3281,0.2812 0.8125,0.2812 0.75,0 1.2813,-0.8125 0.7812,-1.2031 0.7812,-4.0156 0,-2.9688 -0.7656,-4.1719 -0.5,-0.7969 -1.25,-0.7969 z M 28.5781,0.9844 q 1.1094,0 2.211,0.7031 1.1015,0.7031 1.7031,2.0469 0.6016,1.3437 0.6016,2.9531 0,2.7656 -1.3282,4.2266 -1.3281,1.4609 -3.1406,1.4609 -1.1406,0 -2.2109,-0.7031 -1.0703,-0.7031 -1.6875,-2.0078 -0.6172,-1.3047 -0.6172,-2.9766 0,-1.6406 0.6172,-3 0.6172,-1.3594 1.6875,-2.0313 1.0703,-0.6718 2.164,-0.6718 z m 0.0157,0.8281 q -0.75,0 -1.2969,0.8437 -0.7031,1.0938 -0.7031,4.1407 0,2.7969 0.7187,3.9062 0.5313,0.7969 1.2813,0.7969 0.7187,0 1.2812,-0.8594 0.75,-1.1406 0.75,-3.9218 0,-2.9376 -0.75,-4.1094 -0.5156,-0.7969 -1.2812,-0.7969 z"
         id="path77" />
    </g>
    <g
       transform="translate(1277.817,200.6228)"
       style="font-size:32px;font-family:'Times New Roman';color-interpolation:linearRGB;color-rendering:optimizeQuality;image-rendering:optimizeQuality;text-rendering:geometricPrecision"
       id="g83">
      <path
         style="stroke:none"
         d="M -14.8281,7.4219 -16.3125,11.5 h -12.5 v -0.5781 q 5.5156,-5.0313 7.7656,-8.2188 2.25,-3.1875 2.25,-5.8281 0,-2.0156 -1.2343,-3.3125 -1.2344,-1.2969 -2.9532,-1.2969 -1.5625,0 -2.8047,0.9141 -1.2421,0.9141 -1.8359,2.6797 h -0.5781 q 0.3906,-2.8906 2.0078,-4.4375 1.6172,-1.5469 4.0391,-1.5469 2.5781,0 4.3046,1.6562 1.7266,1.6563 1.7266,3.9063 0,1.6094 -0.75,3.2187 -1.1562,2.5313 -3.75,5.3594 -3.8906,4.25 -4.8594,5.125 h 5.5313 q 1.6875,0 2.3672,-0.125 0.6797,-0.125 1.2265,-0.5078 0.5469,-0.3828 0.9532,-1.0859 z m 7.4687,-6.5938 q -2.5156,-2.0625 -3.2422,-3.3125 -0.7265,-1.25 -0.7265,-2.5937 0,-2.0625 1.5937,-3.5547 1.5938,-1.4922 4.2344,-1.4922 2.5625,0 4.125,1.3906 1.5625,1.3906 1.5625,3.1719 0,1.1875 -0.8437,2.4219 -0.8438,1.2344 -3.5157,2.9062 2.75,2.125 3.6407,3.3438 1.1874,1.5937 1.1874,3.3594 0,2.2343 -1.7031,3.8203 -1.7031,1.5859 -4.4687,1.5859 -3.0156,0 -4.7032,-1.8906 -1.3437,-1.5156 -1.3437,-3.3125 0,-1.4063 0.9453,-2.7891 Q -9.6719,2.5 -7.3594,0.8281 Z m 2.4532,-1.6719 q 1.875,-1.6874 2.375,-2.664 0.5,-0.9766 0.5,-2.211 0,-1.6406 -0.9219,-2.5703 -0.9219,-0.9297 -2.5157,-0.9297 -1.5937,0 -2.5937,0.9219 -1,0.9219 -1,2.1563 0,0.8125 0.4141,1.625 0.414,0.8125 1.1796,1.5468 z M -6.625,1.4219 q -1.2969,1.0937 -1.9219,2.3828 -0.625,1.2891 -0.625,2.7891 0,2.0156 1.1016,3.2265 1.1015,1.2109 2.8047,1.2109 1.6875,0 2.7031,-0.9531 1.0156,-0.9531 1.0156,-2.3125 0,-1.125 -0.5937,-2.0156 Q -3.25,4.0938 -6.625,1.4219 Z M 24.25,-10.1719 8.8125,12.375 H 7.4219 l 15.4375,-22.5469 z m -16.0625,0 q 2.1094,0 3.2734,1.75 1.1641,1.75 1.1641,4.0157 0,2.7187 -1.3125,4.2031 Q 10,1.2812 8.1562,1.2812 6.9219,1.2812 5.8906,0.6016 4.8594,-0.0781 4.2422,-1.4219 3.625,-2.7656 3.625,-4.4062 q 0,-1.6407 0.625,-3.0235 0.625,-1.3828 1.7109,-2.0625 1.086,-0.6797 2.2266,-0.6797 z m -0.0469,0.875 q -0.7968,0 -1.414,0.9375 -0.6172,0.9375 -0.6172,3.9375 0,2.1719 0.3437,3.3125 Q 6.7188,-0.25 7.2812,0.2188 7.6094,0.5 8.0938,0.5 q 0.75,0 1.2812,-0.8125 0.7812,-1.2031 0.7812,-4.0156 0,-2.9688 -0.7656,-4.1719 -0.5,-0.7969 -1.25,-0.7969 z M 23.5312,0.9844 q 1.1094,0 2.211,0.7031 1.1016,0.7031 1.7031,2.0469 0.6016,1.3437 0.6016,2.9531 0,2.7656 -1.3281,4.2266 -1.3282,1.4609 -3.1407,1.4609 -1.1406,0 -2.2109,-0.7031 -1.0703,-0.7031 -1.6875,-2.0078 -0.6172,-1.3047 -0.6172,-2.9766 0,-1.6406 0.6172,-3 0.6172,-1.3594 1.6875,-2.0313 1.0703,-0.6718 2.164,-0.6718 z m 0.0157,0.8281 q -0.75,0 -1.2969,0.8437 -0.7031,1.0938 -0.7031,4.1407 0,2.7969 0.7187,3.9062 0.5313,0.7969 1.2813,0.7969 0.7187,0 1.2812,-0.8594 0.75,-1.1406 0.75,-3.9218 0,-2.9376 -0.75,-4.1094 -0.5156,-0.7969 -1.2812,-0.7969 z"
         id="path81" />
    </g>
    <g
       style="color-interpolation:sRGB;fill:#ffffff;stroke:#ffffff;color-rendering:optimizeSpeed;image-rendering:optimizeSpeed;shape-rendering:crispEdges;text-rendering:optimizeSpeed"
       id="g87"
       transform="translate(-51.808308,-77.712462)">
      <path
         style="stroke:none"
         d="M 1735,445 V 208 h -317 v 237 z"
         id="path85" />
    </g>
    <g
       transform="translate(1413.2245,151.49644)"
       style="font-size:32px;font-family:mwa_cmr10;color-interpolation:linearRGB;color-rendering:optimizeQuality;image-rendering:optimizeQuality;text-rendering:geometricPrecision"
       id="g91">
      <path
         style="stroke:none"
         d="m 0.9844,7.6799 v -1.125 q 3.2968,0 3.2968,-1.0156 v -17.5782 q 0,-1.0156 -3.2968,-1.0156 v -1.125 h 9.5781 v 1.125 q -3.2969,0 -3.2969,1.0156 v 7.7813 h 9.4375 v -7.7813 q 0,-1.0156 -3.2969,-1.0156 v -1.125 h 9.5626 v 1.125 q -3.2813,0 -3.2813,1.0156 V 5.5393 q 0,1.0156 3.2813,1.0156 v 1.125 h -9.5626 v -1.125 q 3.2969,0 3.2969,-1.0156 V -3.1326 H 7.2656 v 8.6719 q 0,1.0156 3.2969,1.0156 v 1.125 z"
         id="path89" />
    </g>
    <g
       transform="translate(1413.2245,151.49644)"
       style="font-size:32px;font-family:mwa_cmr10;color-interpolation:linearRGB;color-rendering:optimizeQuality;image-rendering:optimizeQuality;text-rendering:geometricPrecision"
       id="g117">
      <path
         style="stroke:none"
         d="m 25.2813,4.5393 q 0,-1.9063 1.5,-3.1016 1.5,-1.1953 3.6016,-1.6875 2.1015,-0.4922 3.9922,-0.4922 v -1.3125 q 0,-0.9219 -0.4063,-1.7891 -0.4062,-0.8671 -1.1719,-1.4218 -0.7656,-0.5547 -1.6875,-0.5547 -2.125,0 -3.2343,0.9531 0.6093,0 1.0078,0.4609 0.3984,0.461 0.3984,1.0704 0,0.6406 -0.4531,1.0937 -0.4531,0.4531 -1.0781,0.4531 -0.6407,0 -1.0938,-0.4531 -0.4531,-0.4531 -0.4531,-1.0937 0,-1.6875 1.5312,-2.5079 1.5313,-0.8203 3.375,-0.8203 1.2969,0 2.6094,0.5547 1.3125,0.5547 2.1484,1.586 0.836,1.0312 0.836,2.4062 v 7.2031 q 0,0.625 0.2656,1.1485 0.2656,0.5234 0.8281,0.5234 0.5313,0 0.7891,-0.5312 0.2578,-0.5313 0.2578,-1.1407 V 3.0393 h 0.9375 v 2.0468 q 0,0.7188 -0.375,1.3672 -0.375,0.6485 -1.0078,1.0313 -0.6328,0.3828 -1.3672,0.3828 -0.9375,0 -1.6172,-0.7266 -0.6797,-0.7265 -0.7578,-1.7265 -0.5937,1.2031 -1.75,1.914 -1.1562,0.711 -2.4687,0.711 -1.2188,0 -2.3985,-0.3594 Q 26.8594,7.3205 26.0704,6.5471 25.2813,5.7736 25.2813,4.5393 Z m 2.5938,0 q 0,1.125 0.8281,1.8906 0.8281,0.7656 1.9531,0.7656 1.0313,0 1.875,-0.5156 0.8438,-0.5156 1.3438,-1.4063 0.5,-0.8906 0.5,-1.875 V 0.0705 q -1.4532,0 -2.9766,0.4766 -1.5234,0.4765 -2.5234,1.4922 -1,1.0156 -1,2.5 z"
         id="path93" />
      <path
         style="stroke:none"
         d="m 40.8282,7.6799 v -1.125 q 1.0938,0 1.7969,-0.1719 0.7031,-0.1719 0.7031,-0.8437 v -8.7344 q 0,-0.8594 -0.2578,-1.2422 -0.2578,-0.3828 -0.7422,-0.4688 -0.4843,-0.0859 -1.5,-0.0859 v -1.125 l 4.5782,-0.3437 v 3.125 q 0.5156,-1.3907 1.4687,-2.2579 0.9531,-0.8671 2.3125,-0.8671 0.9531,0 1.7031,0.5625 0.75,0.5625 0.75,1.4843 0,0.5782 -0.414,1.0078 -0.4141,0.4297 -1.0235,0.4297 -0.5937,0 -1.0156,-0.4218 -0.4219,-0.4219 -0.4219,-1.0157 0,-0.8593 0.6094,-1.2187 h -0.1875 q -1.2969,0 -2.1172,0.9375 -0.8203,0.9375 -1.164,2.3281 -0.3438,1.3906 -0.3438,2.6563 v 5.25 q 0,1.0156 3.1094,1.0156 v 1.125 z"
         id="path95" />
      <path
         style="stroke:none"
         d="m 60.346,8.0393 q -1.8907,0 -3.4532,-1.0235 Q 55.3303,5.9924 54.4631,4.3205 53.596,2.6486 53.596,0.7736 q 0,-1.9375 0.9453,-3.6015 0.9453,-1.6641 2.5703,-2.6485 1.625,-0.9843 3.5781,-0.9843 1.1719,0 2.2188,0.4921 1.0468,0.4922 1.8124,1.3672 v -6.6562 q 0,-0.8594 -0.2578,-1.2422 -0.2578,-0.3828 -0.7343,-0.4688 -0.4766,-0.0859 -1.4922,-0.0859 v -1.125 l 4.7343,-0.3437 V 4.7736 q 0,0.8438 0.2579,1.2266 0.2578,0.3828 0.7343,0.4687 0.4766,0.086 1.4922,0.086 v 1.125 L 64.6272,8.0393 V 6.0236 Q 63.7991,6.9768 62.6585,7.508 61.5178,8.0393 60.346,8.0393 Z M 57.0803,4.8986 q 0.5469,1.0469 1.461,1.6719 0.914,0.625 1.9922,0.625 1.3281,0 2.4375,-0.7656 1.1093,-0.7656 1.6562,-1.9844 v -7.6719 q -0.375,-0.7031 -0.9453,-1.2578 -0.5703,-0.5547 -1.2813,-0.8515 -0.7109,-0.2969 -1.5078,-0.2969 -1.6718,0 -2.6875,0.9453 -1.0156,0.9453 -1.4218,2.4141 -0.4063,1.4687 -0.4063,3.0781 0,1.2812 0.1328,2.2344 0.1328,0.9531 0.5703,1.8593 z"
         id="path97" />
      <path
         style="stroke:none"
         d="M 82.7748,8.133 V 0.6643 q 0,-0.25 0.2813,-0.25 h 0.3906 q 0.0937,0 0.1719,0.0781 0.0781,0.0781 0.0781,0.1719 0,3.1406 1.9453,4.8671 1.9453,1.7266 5.1016,1.7266 1.1093,0 2.0468,-0.6406 0.9375,-0.6406 1.461,-1.6797 0.5234,-1.0391 0.5234,-2.1484 0,-0.9688 -0.3906,-1.8829 -0.3906,-0.914 -1.125,-1.5859 -0.7344,-0.6719 -1.6563,-0.8906 l -4.1562,-1.0156 q -2.0625,-0.5469 -3.3672,-2.2422 -1.3047,-1.6953 -1.3047,-3.8047 0,-1.6563 0.8438,-3.1094 0.8437,-1.4531 2.2734,-2.2969 1.4297,-0.8437 3.0859,-0.8437 3.2032,0 5.0938,2.1719 l 1.3125,-2.0782 q 0.0937,-0.0937 0.2187,-0.0937 h 0.2188 q 0.0937,0 0.1797,0.0703 0.0859,0.0703 0.0859,0.1953 v 7.4219 q 0,0.2812 -0.2656,0.2812 h -0.375 q -0.2969,0 -0.2969,-0.2812 0,-0.8125 -0.2734,-1.7813 -0.2735,-0.9687 -0.7578,-1.8593 -0.4844,-0.8907 -1.0469,-1.4532 -1.5469,-1.5625 -4.0938,-1.5625 -1.0937,0 -2.0156,0.5547 -0.9219,0.5547 -1.4687,1.5078 -0.5469,0.9532 -0.5469,2 0,1.375 0.8515,2.4922 0.8516,1.1172 2.2266,1.4766 l 4.1563,1.0156 q 1.0312,0.25 1.9453,0.8984 0.914,0.6485 1.5234,1.5079 0.6094,0.8593 0.9531,1.914 0.3438,1.0547 0.3438,2.1797 0,1.7344 -0.7969,3.2734 -0.7969,1.5391 -2.2422,2.4766 -1.4453,0.9375 -3.164,0.9375 -1.0625,0 -2.1719,-0.2344 Q 87.4623,7.9143 86.5248,7.4299 85.5873,6.9455 84.8217,6.1799 L 83.4779,8.2893 Q 83.3842,8.383 83.2436,8.383 h -0.1875 q -0.2813,0 -0.2813,-0.25 z"
         id="path99" />
      <path
         style="stroke:none"
         d="m 105.8339,7.6799 -4.1406,-11.6406 q -0.2813,-0.7032 -0.8125,-0.8672 -0.5313,-0.1641 -1.5469,-0.1641 v -1.125 h 6.5937 v 1.125 q -1.8906,0 -1.8906,0.7969 0.0156,0.0469 0.0235,0.0937 0.008,0.0469 0.008,0.1407 l 3.0781,8.625 2.6562,-7.5157 -0.4218,-1.1093 q -0.25,-0.7032 -0.7969,-0.8672 -0.5469,-0.1641 -1.5469,-0.1641 v -1.125 h 6.3125 v 1.125 q -1.8906,0 -1.8906,0.7969 0,0.125 0.0312,0.2344 l 3.2032,9.0156 2.9062,-8.1563 q 0.0625,-0.25 0.0625,-0.4531 0,-0.6719 -0.5703,-1.0547 -0.5703,-0.3828 -1.2734,-0.3828 v -1.125 h 5.4375 v 1.125 q -0.9688,0 -1.6641,0.5078 -0.6953,0.5078 -1.0234,1.3828 L 114.756,7.6799 q -0.1094,0.3594 -0.4844,0.3594 h -0.25 q -0.375,0 -0.4844,-0.3594 l -3.2344,-9.125 -3.2343,9.125 q -0.1563,0.3594 -0.5,0.3594 h -0.2344 q -0.3906,0 -0.5,-0.3594 z"
         id="path101" />
      <path
         style="stroke:none"
         d="m 122.8513,7.6799 v -1.125 q 1.0937,0 1.7969,-0.1719 0.7031,-0.1719 0.7031,-0.8437 v -8.7344 q 0,-1.2344 -0.4766,-1.5156 -0.4765,-0.2813 -1.8828,-0.2813 v -1.125 l 4.6094,-0.3437 v 12 q 0,0.6718 0.6094,0.8437 0.6093,0.1719 1.625,0.1719 v 1.125 z m 1.3594,-19.6406 q 0,-0.7032 0.5312,-1.2344 0.5313,-0.5313 1.2188,-0.5313 0.4531,0 0.875,0.2344 0.4218,0.2344 0.6562,0.6563 0.2344,0.4218 0.2344,0.875 0,0.6875 -0.5313,1.2187 -0.5312,0.5313 -1.2343,0.5313 -0.6875,0 -1.2188,-0.5313 -0.5312,-0.5312 -0.5312,-1.2187 z"
         id="path103" />
      <path
         style="stroke:none"
         d="M 134.0215,3.8361 V -4.992 h -2.6563 v -0.8281 q 2.0938,0 3.0781,-1.9531 0.9844,-1.9532 0.9844,-4.2344 h 0.9219 v 5.8906 h 4.5156 v 1.125 h -4.5156 v 8.7656 q 0,1.3282 0.4453,2.3282 0.4453,1 1.6016,1 1.0937,0 1.5781,-1.0547 0.4844,-1.0547 0.4844,-2.2735 V 1.883 h 0.9218 v 1.9531 q 0,1 -0.3672,1.9766 -0.3671,0.9766 -1.0859,1.6016 -0.7187,0.625 -1.75,0.625 -1.9219,0 -3.0391,-1.1485 -1.1171,-1.1484 -1.1171,-3.0547 z"
         id="path105" />
      <path
         style="stroke:none"
         d="m 151.1691,8.0393 q -1.9375,0 -3.5157,-1.0079 -1.5781,-1.0078 -2.4843,-2.6875 -0.9063,-1.6796 -0.9063,-3.5703 0,-1.8906 0.8984,-3.625 0.8985,-1.7343 2.4844,-2.7734 1.586,-1.0391 3.5235,-1.0391 1.875,0 3.414,0.7344 1.5391,0.7344 1.5391,2.4063 0,0.625 -0.4453,1.0859 -0.4453,0.4609 -1.086,0.4609 -0.6406,0 -1.0859,-0.4609 -0.4453,-0.4609 -0.4453,-1.0859 0,-0.5625 0.3594,-0.9766 0.3593,-0.4141 0.8906,-0.5234 -1.1094,-0.7032 -3.1094,-0.7032 -1.5312,0 -2.4687,1.0157 -0.9375,1.0156 -1.3125,2.5156 -0.375,1.5 -0.375,2.9687 0,1.5469 0.4609,2.9922 0.4609,1.4453 1.4844,2.3906 1.0234,0.9454 2.5703,0.9454 1.5156,0 2.5781,-0.9297 1.0625,-0.9297 1.4531,-2.4297 0,-0.1875 0.25,-0.1875 h 0.3907 q 0.0937,0 0.1718,0.0859 0.0782,0.086 0.0782,0.1953 v 0.0938 q -0.4844,1.8906 -1.9219,3 -1.4375,1.1094 -3.3906,1.1094 z"
         id="path107" />
      <path
         style="stroke:none"
         d="m 157.4867,7.6799 v -1.125 q 1.0938,0 1.7969,-0.1719 0.7031,-0.1719 0.7031,-0.8437 v -16.7969 q 0,-0.8594 -0.2578,-1.2422 -0.2578,-0.3828 -0.7422,-0.4688 -0.4843,-0.0859 -1.5,-0.0859 v -1.125 l 4.75,-0.3437 v 11 q 0.6719,-1.3282 1.875,-2.1329 1.2032,-0.8046 2.6563,-0.8046 2.2187,0 3.3359,1.0625 1.1172,1.0625 1.1172,3.25 v 7.6875 q 0,0.6718 0.7031,0.8437 0.7032,0.1719 1.7969,0.1719 v 1.125 h -7.3281 v -1.125 q 1.0937,0 1.7969,-0.1719 0.7031,-0.1719 0.7031,-0.8437 v -7.5938 q 0,-1.5625 -0.4531,-2.5703 -0.4532,-1.0078 -1.8594,-1.0078 -1.8594,0 -3.0547,1.4844 -1.1953,1.4843 -1.1953,3.375 v 6.3125 q 0,0.6718 0.7031,0.8437 0.7031,0.1719 1.7813,0.1719 v 1.125 z"
         id="path109" />
      <path
         style="stroke:none"
         d="m 175.2958,7.6799 v -1.125 q 1.0938,0 1.7969,-0.1719 0.7031,-0.1719 0.7031,-0.8437 v -8.7344 q 0,-1.2344 -0.4765,-1.5156 -0.4766,-0.2813 -1.8829,-0.2813 v -1.125 l 4.6094,-0.3437 v 12 q 0,0.6718 0.6094,0.8437 0.6094,0.1719 1.625,0.1719 v 1.125 z m 1.3594,-19.6406 q 0,-0.7032 0.5312,-1.2344 0.5313,-0.5313 1.2188,-0.5313 0.4531,0 0.875,0.2344 0.4219,0.2344 0.6562,0.6563 0.2344,0.4218 0.2344,0.875 0,0.6875 -0.5312,1.2187 -0.5313,0.5313 -1.2344,0.5313 -0.6875,0 -1.2188,-0.5313 -0.5312,-0.5312 -0.5312,-1.2187 z"
         id="path111" />
      <path
         style="stroke:none"
         d="m 184.1535,7.6799 v -1.125 q 1.0937,0 1.7969,-0.1719 0.7031,-0.1719 0.7031,-0.8437 v -8.7344 q 0,-0.8594 -0.2578,-1.2422 -0.2578,-0.3828 -0.7422,-0.4688 -0.4844,-0.0859 -1.5,-0.0859 v -1.125 l 4.6406,-0.3437 v 3.125 q 0.6406,-1.375 1.8985,-2.25 1.2578,-0.875 2.7421,-0.875 2.2188,0 3.336,1.0625 1.1172,1.0625 1.1172,3.25 v 7.6875 q 0,0.6718 0.7031,0.8437 0.7031,0.1719 1.7969,0.1719 v 1.125 h -7.3282 v -1.125 q 1.0938,0 1.7969,-0.1719 0.7031,-0.1719 0.7031,-0.8437 v -7.5938 q 0,-1.5625 -0.4531,-2.5703 -0.4531,-1.0078 -1.8594,-1.0078 -1.8593,0 -3.0546,1.4844 -1.1954,1.4843 -1.1954,3.375 v 6.3125 q 0,0.6718 0.7032,0.8437 0.7031,0.1719 1.7812,0.1719 v 1.125 z"
         id="path113" />
      <path
         style="stroke:none"
         d="m 201.8688,10.1799 q 0,-1.1406 0.8281,-1.9922 0.8282,-0.8516 1.9688,-1.2109 -0.6406,-0.4844 -0.9766,-1.2188 -0.3359,-0.7344 -0.3359,-1.5625 0,-1.5 0.9531,-2.6562 -1.4687,-1.4375 -1.4687,-3.2969 0,-1 0.4297,-1.875 0.4296,-0.875 1.1953,-1.5156 0.7656,-0.6407 1.7031,-0.9766 0.9375,-0.3359 1.9219,-0.3359 1.9062,0 3.4218,1.1093 0.6563,-0.7031 1.5547,-1.0859 0.8985,-0.3828 1.8672,-0.3828 0.6875,0 1.125,0.4922 0.4375,0.4922 0.4375,1.1797 0,0.3906 -0.2969,0.6875 -0.2968,0.2968 -0.6875,0.2968 -0.4062,0 -0.7031,-0.2968 -0.2969,-0.2969 -0.2969,-0.6875 0,-0.5938 0.3907,-0.8282 -1.6563,0 -2.8438,1.1407 0.5781,0.5781 0.9297,1.414 0.3516,0.836 0.3516,1.6641 0,1.3594 -0.75,2.4453 -0.75,1.0859 -1.9766,1.6875 -1.2266,0.6016 -2.5234,0.6016 -1.75,0 -3.2032,-0.9532 -0.4531,0.625 -0.4531,1.4063 0,0.8437 0.5547,1.4765 0.5547,0.6329 1.3984,0.6329 h 2.625 q 1.9063,0 3.4375,0.3437 1.5313,0.3438 2.5704,1.375 1.039,1.0313 1.039,2.9219 0,1.4062 -1.1875,2.3359 -1.1875,0.9297 -2.8359,1.3438 -1.6485,0.414 -3.0547,0.414 -1.4219,0 -3.0781,-0.414 -1.6563,-0.4141 -2.8438,-1.3438 -1.1875,-0.9297 -1.1875,-2.3359 z m 1.7969,0 q 0,1.0781 0.875,1.8047 0.875,0.7265 2.1094,1.0781 1.2343,0.3516 2.3281,0.3516 1.0781,0 2.3125,-0.3516 1.2344,-0.3516 2.1016,-1.0781 0.8671,-0.7266 0.8671,-1.8047 0,-1.6719 -1.5312,-2.1641 -1.5313,-0.4922 -3.7188,-0.4922 h -2.625 q -0.7343,0 -1.3515,0.3516 -0.6172,0.3516 -0.9922,0.9844 -0.375,0.6328 -0.375,1.3203 z m 4.4219,-8.0625 q 2.7187,0 2.7187,-3.875 0,-1.6719 -0.5781,-2.7578 -0.5781,-1.086 -2.1406,-1.086 -1.5625,0 -2.1407,1.086 -0.5781,1.0859 -0.5781,2.7578 0,1.0625 0.2188,1.9219 0.2187,0.8593 0.8125,1.4062 0.5937,0.5469 1.6875,0.5469 z"
         id="path115" />
    </g>
    <g
       style="color-interpolation:sRGB;fill:#3d26a8;stroke:#3d26a8;color-rendering:optimizeSpeed;image-rendering:optimizeSpeed;shape-rendering:crispEdges;text-rendering:optimizeSpeed"
       id="g121"
       transform="translate(-51.808308,-77.712462)">
      <path
         style="stroke:none"
         d="m 1462.0308,241.214 v -24.0101 h -40.028 v 24.0101 z"
         id="path119" />
    </g>
    <g
       style="color-interpolation:linearRGB;stroke-width:0.6667;stroke-linecap:butt;color-rendering:optimizeQuality;image-rendering:optimizeQuality;text-rendering:geometricPrecision"
       id="g125"
       transform="translate(-51.808308,-77.712462)">
      <path
         d="m 1422.0028,241.214 v -24.0101 h 40.028 v 24.0101 z"
         style="fill:none;fill-rule:evenodd"
         id="path123" />
    </g>
    <g
       transform="translate(1413.2245,190.41294)"
       style="font-size:32px;font-family:mwa_cmr10;color-interpolation:linearRGB;color-rendering:optimizeQuality;image-rendering:optimizeQuality;text-rendering:geometricPrecision"
       id="g129">
      <path
         style="stroke:none"
         d="M 1.7969,8.133 V 0.6643 q 0,-0.25 0.2812,-0.25 h 0.3907 q 0.0937,0 0.1718,0.0781 0.0782,0.0781 0.0782,0.1719 0,3.1406 1.9453,4.8671 1.9453,1.7266 5.1015,1.7266 1.1094,0 2.0469,-0.6406 0.9375,-0.6406 1.4609,-1.6797 0.5235,-1.0391 0.5235,-2.1484 0,-0.9688 -0.3907,-1.8829 -0.3906,-0.914 -1.125,-1.5859 -0.7343,-0.6719 -1.6562,-0.8906 L 6.4688,-2.5857 Q 4.4062,-3.1326 3.1016,-4.8279 1.7969,-6.5232 1.7969,-8.6326 q 0,-1.6563 0.8437,-3.1094 0.8438,-1.4531 2.2735,-2.2969 1.4297,-0.8437 3.0859,-0.8437 3.2031,0 5.0938,2.1719 l 1.3124,-2.0782 q 0.0938,-0.0937 0.2188,-0.0937 h 0.2188 q 0.0937,0 0.1796,0.0703 0.086,0.0703 0.086,0.1953 v 7.4219 q 0,0.2812 -0.2656,0.2812 h -0.375 q -0.2969,0 -0.2969,-0.2812 0,-0.8125 -0.2735,-1.7813 -0.2734,-0.9687 -0.7578,-1.8593 -0.4844,-0.8907 -1.0468,-1.4532 -1.5469,-1.5625 -4.0938,-1.5625 -1.0938,0 -2.0156,0.5547 -0.9219,0.5547 -1.4688,1.5078 -0.5468,0.9532 -0.5468,2 0,1.375 0.8515,2.4922 0.8516,1.1172 2.2266,1.4766 l 4.1562,1.0156 q 1.0313,0.25 1.9453,0.8984 0.9141,0.6485 1.5235,1.5079 0.6093,0.8593 0.9531,1.914 0.3438,1.0547 0.3438,2.1797 0,1.7344 -0.7969,3.2734 Q 14.375,6.508 12.9297,7.4455 11.4844,8.383 9.7656,8.383 8.7031,8.383 7.5938,8.1486 6.4844,7.9143 5.5469,7.4299 4.6094,6.9455 3.8438,6.1799 L 2.5,8.2893 Q 2.4062,8.383 2.2656,8.383 H 2.0781 q -0.2812,0 -0.2812,-0.25 z"
         id="path127" />
    </g>
    <g
       transform="translate(1413.2245,190.41294)"
       style="font-size:32px;font-family:mwa_cmr10;color-interpolation:linearRGB;color-rendering:optimizeQuality;image-rendering:optimizeQuality;text-rendering:geometricPrecision"
       id="g161">
      <path
         style="stroke:none"
         d="M 24.856,7.6799 20.7153,-3.9607 Q 20.4341,-4.6639 19.9028,-4.8279 19.3716,-4.992 18.356,-4.992 v -1.125 h 6.5937 v 1.125 q -1.8906,0 -1.8906,0.7969 0.0156,0.0469 0.0234,0.0937 0.0078,0.0469 0.0078,0.1407 l 3.0782,8.625 2.6562,-7.5157 -0.4219,-1.1093 Q 28.1528,-4.6639 27.606,-4.8279 27.0591,-4.992 26.0591,-4.992 v -1.125 h 6.3125 v 1.125 q -1.8906,0 -1.8906,0.7969 0,0.125 0.0312,0.2344 l 3.2031,9.0156 2.9063,-8.1563 q 0.0625,-0.25 0.0625,-0.4531 0,-0.6719 -0.5703,-1.0547 -0.5703,-0.3828 -1.2735,-0.3828 v -1.125 h 5.4375 v 1.125 q -0.9687,0 -1.664,0.5078 -0.6953,0.5078 -1.0235,1.3828 L 33.7778,7.6799 q -0.1093,0.3594 -0.4843,0.3594 h -0.25 q -0.375,0 -0.4844,-0.3594 l -3.2344,-9.125 -3.2344,9.125 q -0.1562,0.3594 -0.5,0.3594 H 25.356 q -0.3907,0 -0.5,-0.3594 z"
         id="path131" />
      <path
         style="stroke:none"
         d="m 41.8733,7.6799 v -1.125 q 1.0938,0 1.7969,-0.1719 0.7031,-0.1719 0.7031,-0.8437 v -8.7344 q 0,-1.2344 -0.4765,-1.5156 Q 43.4202,-4.992 42.014,-4.992 v -1.125 l 4.6093,-0.3437 v 12 q 0,0.6718 0.6094,0.8437 0.6094,0.1719 1.625,0.1719 v 1.125 z m 1.3594,-19.6406 q 0,-0.7032 0.5313,-1.2344 0.5312,-0.5313 1.2187,-0.5313 0.4531,0 0.875,0.2344 0.4219,0.2344 0.6563,0.6563 0.2343,0.4218 0.2343,0.875 0,0.6875 -0.5312,1.2187 -0.5313,0.5313 -1.2344,0.5313 -0.6875,0 -1.2187,-0.5313 -0.5313,-0.5312 -0.5313,-1.2187 z"
         id="path133" />
      <path
         style="stroke:none"
         d="M 53.0435,3.8361 V -4.992 h -2.6562 v -0.8281 q 2.0937,0 3.0781,-1.9531 0.9844,-1.9532 0.9844,-4.2344 h 0.9218 v 5.8906 h 4.5157 v 1.125 h -4.5157 v 8.7656 q 0,1.3282 0.4453,2.3282 0.4454,1 1.6016,1 1.0938,0 1.5781,-1.0547 Q 59.481,4.9924 59.481,3.7736 V 1.883 h 0.9219 v 1.9531 q 0,1 -0.3672,1.9766 -0.3672,0.9766 -1.0859,1.6016 -0.7188,0.625 -1.75,0.625 -1.9219,0 -3.0391,-1.1485 -1.1172,-1.1484 -1.1172,-3.0547 z"
         id="path135" />
      <path
         style="stroke:none"
         d="m 70.1911,8.0393 q -1.9375,0 -3.5156,-1.0079 -1.5781,-1.0078 -2.4844,-2.6875 -0.9062,-1.6796 -0.9062,-3.5703 0,-1.8906 0.8984,-3.625 0.8984,-1.7343 2.4844,-2.7734 1.5859,-1.0391 3.5234,-1.0391 1.875,0 3.4141,0.7344 1.539,0.7344 1.539,2.4063 0,0.625 -0.4453,1.0859 -0.4453,0.4609 -1.0859,0.4609 -0.6406,0 -1.0859,-0.4609 -0.4454,-0.4609 -0.4454,-1.0859 0,-0.5625 0.3594,-0.9766 0.3594,-0.4141 0.8906,-0.5234 -1.1093,-0.7032 -3.1093,-0.7032 -1.5313,0 -2.4688,1.0157 -0.9375,1.0156 -1.3125,2.5156 -0.375,1.5 -0.375,2.9687 0,1.5469 0.461,2.9922 0.4609,1.4453 1.4843,2.3906 1.0235,0.9454 2.5703,0.9454 1.5157,0 2.5782,-0.9297 1.0625,-0.9297 1.4531,-2.4297 0,-0.1875 0.25,-0.1875 h 0.3906 q 0.0938,0 0.1719,0.0859 0.0781,0.086 0.0781,0.1953 v 0.0938 q -0.4844,1.8906 -1.9219,3 -1.4375,1.1094 -3.3906,1.1094 z"
         id="path137" />
      <path
         style="stroke:none"
         d="m 76.5088,7.6799 v -1.125 q 1.0937,0 1.7969,-0.1719 0.7031,-0.1719 0.7031,-0.8437 v -16.7969 q 0,-0.8594 -0.2578,-1.2422 -0.2578,-0.3828 -0.7422,-0.4688 -0.4844,-0.0859 -1.5,-0.0859 v -1.125 l 4.75,-0.3437 v 11 q 0.6719,-1.3282 1.875,-2.1329 1.2031,-0.8046 2.6562,-0.8046 2.2188,0 3.336,1.0625 1.1172,1.0625 1.1172,3.25 v 7.6875 q 0,0.6718 0.7031,0.8437 0.7031,0.1719 1.7969,0.1719 v 1.125 H 85.415 v -1.125 q 1.0938,0 1.7969,-0.1719 0.7031,-0.1719 0.7031,-0.8437 v -7.5938 q 0,-1.5625 -0.4531,-2.5703 -0.4531,-1.0078 -1.8594,-1.0078 -1.8593,0 -3.0546,1.4844 -1.1954,1.4843 -1.1954,3.375 v 6.3125 q 0,0.6718 0.7032,0.8437 0.7031,0.1719 1.7812,0.1719 v 1.125 z"
         id="path139" />
      <path
         style="stroke:none"
         d="m 111.297,4.258 q 1.0938,1.3906 2.7344,2.1953 1.6406,0.8047 3.4063,0.8047 1.4843,0 2.75,-0.5859 1.2656,-0.586 2.2109,-1.6328 0.9453,-1.0469 1.4531,-2.375 0.5078,-1.3282 0.5078,-2.7969 0,-0.25 0.2813,-0.25 h 0.3906 q 0.25,0 0.25,0.3125 0,1.6719 -0.6406,3.2265 -0.6406,1.5547 -1.8125,2.7344 -1.1719,1.1797 -2.6953,1.836 -1.5235,0.6562 -3.1797,0.6562 -2.2969,0 -4.3516,-0.9297 -2.0547,-0.9297 -3.5781,-2.5469 -1.5234,-1.6171 -2.375,-3.7421 -0.8516,-2.125 -0.8516,-4.4219 0,-2.2969 0.8516,-4.4219 0.8516,-2.125 2.375,-3.75 1.5234,-1.625 3.5781,-2.5391 2.0547,-0.914 4.3516,-0.914 1.6406,0 3.1406,0.7109 1.5,0.711 2.625,2.0078 l 1.8594,-2.625 q 0.1875,-0.0937 0.2187,-0.0937 h 0.2344 q 0.0938,0 0.1719,0.0781 0.0781,0.0781 0.0781,0.1875 v 8.6406 q 0,0.2813 -0.25,0.2813 h -0.5781 q -0.2969,0 -0.2969,-0.2813 0,-0.9218 -0.3672,-2.0625 -0.3672,-1.1406 -0.9375,-2.164 -0.5703,-1.0235 -1.3203,-1.8047 -1.7969,-1.75 -4.125,-1.75 -1.7656,0 -3.3828,0.7969 -1.6172,0.7968 -2.7266,2.2031 -1.1718,1.5 -1.625,3.414 -0.4531,1.9141 -0.4531,4.086 0,2.1719 0.4531,4.0937 0.4532,1.9219 1.625,3.4219 z"
         id="path141" />
      <path
         style="stroke:none"
         d="m 135.1113,8.0393 q -1.9219,0 -3.5625,-0.9766 -1.6406,-0.9766 -2.5938,-2.6172 -0.9531,-1.6406 -0.9531,-3.5781 0,-1.4688 0.5235,-2.8281 0.5234,-1.3594 1.5,-2.4297 0.9765,-1.0703 2.2734,-1.6719 1.2969,-0.6016 2.8125,-0.6016 1.9687,0 3.5859,1.0391 1.6172,1.0391 2.5547,2.7812 0.9375,1.7422 0.9375,3.711 0,1.9219 -0.9531,3.5703 -0.9531,1.6484 -2.5859,2.625 -1.6329,0.9766 -3.5391,0.9766 z m 0,-0.9375 q 2.5625,0 3.4219,-1.8594 0.8593,-1.8594 0.8593,-4.7344 0,-1.6094 -0.1718,-2.6641 -0.1719,-1.0546 -0.75,-1.914 -0.3594,-0.5313 -0.9141,-0.9297 -0.5547,-0.3984 -1.1719,-0.6094 -0.6172,-0.2109 -1.2734,-0.2109 -1,0 -1.8984,0.4531 -0.8985,0.4531 -1.4922,1.2969 -0.5938,0.9062 -0.7578,1.9922 -0.1641,1.0859 -0.1641,2.5859 0,1.7969 0.3125,3.2266 0.3125,1.4297 1.2578,2.3984 0.9453,0.9688 2.7422,0.9688 z"
         id="path143" />
      <path
         style="stroke:none"
         d="m 144.0645,7.6799 v -1.125 q 1.0937,0 1.7968,-0.1719 0.7032,-0.1719 0.7032,-0.8437 v -8.7344 q 0,-0.8594 -0.2578,-1.2422 -0.2579,-0.3828 -0.7422,-0.4688 -0.4844,-0.0859 -1.5,-0.0859 v -1.125 l 4.6406,-0.3437 v 3.125 q 0.6406,-1.375 1.8984,-2.25 1.2578,-0.875 2.7422,-0.875 2.2188,0 3.336,1.0625 1.1171,1.0625 1.1171,3.25 v 7.6875 q 0,0.6718 0.7032,0.8437 0.7031,0.1719 1.7968,0.1719 v 1.125 h -7.3281 v -1.125 q 1.0938,0 1.7969,-0.1719 0.7031,-0.1719 0.7031,-0.8437 v -7.5938 q 0,-1.5625 -0.4531,-2.5703 -0.4531,-1.0078 -1.8594,-1.0078 -1.8594,0 -3.0547,1.4844 -1.1953,1.4843 -1.1953,3.375 v 6.3125 q 0,0.6718 0.7031,0.8437 0.7032,0.1719 1.7813,0.1719 v 1.125 z"
         id="path145" />
      <path
         style="stroke:none"
         d="m 168.7017,8.0393 q -1.8906,0 -3.4531,-1.0235 -1.5625,-1.0234 -2.4297,-2.6953 -0.8672,-1.6719 -0.8672,-3.5469 0,-1.9375 0.9453,-3.6015 0.9453,-1.6641 2.5703,-2.6485 1.625,-0.9843 3.5781,-0.9843 1.1719,0 2.2188,0.4921 1.0469,0.4922 1.8125,1.3672 v -6.6562 q 0,-0.8594 -0.2578,-1.2422 -0.2578,-0.3828 -0.7344,-0.4688 -0.4766,-0.0859 -1.4922,-0.0859 v -1.125 l 4.7344,-0.3437 V 4.7736 q 0,0.8438 0.2578,1.2266 0.2578,0.3828 0.7344,0.4687 0.4765,0.086 1.4922,0.086 v 1.125 l -4.8282,0.3594 V 6.0236 q -0.8281,0.9532 -1.9687,1.4844 -1.1406,0.5313 -2.3125,0.5313 z m -3.2656,-3.1407 q 0.5468,1.0469 1.4609,1.6719 0.9141,0.625 1.9922,0.625 1.3281,0 2.4375,-0.7656 1.1094,-0.7656 1.6562,-1.9844 v -7.6719 q -0.375,-0.7031 -0.9453,-1.2578 -0.5703,-0.5547 -1.2812,-0.8515 -0.711,-0.2969 -1.5078,-0.2969 -1.6719,0 -2.6875,0.9453 -1.0157,0.9453 -1.4219,2.4141 -0.4063,1.4687 -0.4063,3.0781 0,1.2812 0.1328,2.2344 0.1329,0.9531 0.5704,1.8593 z"
         id="path147" />
      <path
         style="stroke:none"
         d="m 182.1201,3.8674 v -7.0625 q 0,-0.8594 -0.2578,-1.2422 -0.2578,-0.3828 -0.7422,-0.4688 -0.4843,-0.0859 -1.5,-0.0859 v -1.125 l 4.8438,-0.3437 V 3.8674 q 0,1.25 0.1797,1.9453 0.1797,0.6953 0.7656,1.0391 0.5859,0.3437 1.8672,0.3437 1.7187,0 2.7344,-1.4375 1.0156,-1.4375 1.0156,-3.2656 v -5.6875 q 0,-0.8594 -0.2656,-1.2422 -0.2657,-0.3828 -0.7422,-0.4688 -0.4766,-0.0859 -1.4922,-0.0859 v -1.125 l 4.8281,-0.3437 V 4.7736 q 0,0.8438 0.2578,1.2266 0.2578,0.3828 0.7422,0.4687 0.4844,0.086 1.5,0.086 v 1.125 l -4.7344,0.3594 V 5.3361 q -0.5937,1.2032 -1.6562,1.9532 -1.0625,0.75 -2.3438,0.75 -2.2968,0 -3.6484,-0.9766 -1.3516,-0.9766 -1.3516,-3.1953 z"
         id="path149" />
      <path
         style="stroke:none"
         d="m 204.4136,8.0393 q -1.9375,0 -3.5156,-1.0079 -1.5782,-1.0078 -2.4844,-2.6875 -0.9063,-1.6796 -0.9063,-3.5703 0,-1.8906 0.8985,-3.625 0.8984,-1.7343 2.4844,-2.7734 1.5859,-1.0391 3.5234,-1.0391 1.875,0 3.4141,0.7344 1.539,0.7344 1.539,2.4063 0,0.625 -0.4453,1.0859 -0.4453,0.4609 -1.0859,0.4609 -0.6407,0 -1.086,-0.4609 -0.4453,-0.4609 -0.4453,-1.0859 0,-0.5625 0.3594,-0.9766 0.3594,-0.4141 0.8906,-0.5234 -1.1094,-0.7032 -3.1094,-0.7032 -1.5312,0 -2.4687,1.0157 -0.9375,1.0156 -1.3125,2.5156 -0.375,1.5 -0.375,2.9687 0,1.5469 0.4609,2.9922 0.461,1.4453 1.4844,2.3906 1.0234,0.9454 2.5703,0.9454 1.5156,0 2.5781,-0.9297 1.0625,-0.9297 1.4532,-2.4297 0,-0.1875 0.25,-0.1875 h 0.3906 q 0.0937,0 0.1719,0.0859 0.0781,0.086 0.0781,0.1953 v 0.0938 q -0.4844,1.8906 -1.9219,3 -1.4375,1.1094 -3.3906,1.1094 z"
         id="path151" />
      <path
         style="stroke:none"
         d="M 213.9327,3.8361 V -4.992 h -2.6563 v -0.8281 q 2.0938,0 3.0782,-1.9531 0.9843,-1.9532 0.9843,-4.2344 h 0.9219 v 5.8906 h 4.5156 v 1.125 h -4.5156 v 8.7656 q 0,1.3282 0.4453,2.3282 0.4453,1 1.6016,1 1.0937,0 1.5781,-1.0547 0.4844,-1.0547 0.4844,-2.2735 V 1.883 h 0.9219 v 1.9531 q 0,1 -0.3672,1.9766 -0.3672,0.9766 -1.086,1.6016 -0.7187,0.625 -1.75,0.625 -1.9218,0 -3.039,-1.1485 -1.1172,-1.1484 -1.1172,-3.0547 z"
         id="path153" />
      <path
         style="stroke:none"
         d="m 224.0959,7.6799 v -1.125 q 1.0938,0 1.7969,-0.1719 0.7031,-0.1719 0.7031,-0.8437 v -8.7344 q 0,-1.2344 -0.4765,-1.5156 -0.4766,-0.2813 -1.8829,-0.2813 v -1.125 l 4.6094,-0.3437 v 12 q 0,0.6718 0.6094,0.8437 0.6094,0.1719 1.625,0.1719 v 1.125 z m 1.3594,-19.6406 q 0,-0.7032 0.5312,-1.2344 0.5313,-0.5313 1.2188,-0.5313 0.4531,0 0.875,0.2344 0.4219,0.2344 0.6562,0.6563 0.2344,0.4218 0.2344,0.875 0,0.6875 -0.5312,1.2187 -0.5313,0.5313 -1.2344,0.5313 -0.6875,0 -1.2188,-0.5313 -0.5312,-0.5312 -0.5312,-1.2187 z"
         id="path155" />
      <path
         style="stroke:none"
         d="m 240.0005,8.0393 q -1.9219,0 -3.5625,-0.9766 -1.6407,-0.9766 -2.5938,-2.6172 -0.9531,-1.6406 -0.9531,-3.5781 0,-1.4688 0.5234,-2.8281 0.5235,-1.3594 1.5,-2.4297 0.9766,-1.0703 2.2735,-1.6719 1.2968,-0.6016 2.8125,-0.6016 1.9687,0 3.5859,1.0391 1.6172,1.0391 2.5547,2.7812 0.9375,1.7422 0.9375,3.711 0,1.9219 -0.9531,3.5703 -0.9532,1.6484 -2.586,2.625 -1.6328,0.9766 -3.539,0.9766 z m 0,-0.9375 q 2.5625,0 3.4218,-1.8594 0.8594,-1.8594 0.8594,-4.7344 0,-1.6094 -0.1719,-2.6641 -0.1718,-1.0546 -0.75,-1.914 -0.3593,-0.5313 -0.914,-0.9297 -0.5547,-0.3984 -1.1719,-0.6094 -0.6172,-0.2109 -1.2734,-0.2109 -1,0 -1.8985,0.4531 -0.8984,0.4531 -1.4922,1.2969 -0.5937,0.9062 -0.7578,1.9922 -0.164,1.0859 -0.164,2.5859 0,1.7969 0.3125,3.2266 0.3125,1.4297 1.2578,2.3984 0.9453,0.9688 2.7422,0.9688 z"
         id="path157" />
      <path
         style="stroke:none"
         d="m 248.9536,7.6799 v -1.125 q 1.0938,0 1.7969,-0.1719 0.7031,-0.1719 0.7031,-0.8437 v -8.7344 q 0,-0.8594 -0.2578,-1.2422 -0.2578,-0.3828 -0.7422,-0.4688 -0.4843,-0.0859 -1.5,-0.0859 v -1.125 l 4.6407,-0.3437 v 3.125 q 0.6406,-1.375 1.8984,-2.25 1.2578,-0.875 2.7422,-0.875 2.2187,0 3.3359,1.0625 1.1172,1.0625 1.1172,3.25 v 7.6875 q 0,0.6718 0.7031,0.8437 0.7031,0.1719 1.7969,0.1719 v 1.125 h -7.3281 v -1.125 q 1.0937,0 1.7968,-0.1719 0.7032,-0.1719 0.7032,-0.8437 v -7.5938 q 0,-1.5625 -0.4532,-2.5703 -0.4531,-1.0078 -1.8593,-1.0078 -1.8594,0 -3.0547,1.4844 -1.1953,1.4843 -1.1953,3.375 v 6.3125 q 0,0.6718 0.7031,0.8437 0.7031,0.1719 1.7812,0.1719 v 1.125 z"
         id="path159" />
    </g>
    <g
       style="color-interpolation:sRGB;fill:#4463fc;stroke:#4463fc;color-rendering:optimizeSpeed;image-rendering:optimizeSpeed;shape-rendering:crispEdges;text-rendering:optimizeSpeed"
       id="g165"
       transform="translate(-51.808308,-77.712462)">
      <path
         style="stroke:none"
         d="m 1462.0308,280.1304 v -24.0101 h -40.028 v 24.0101 z"
         id="path163" />
    </g>
    <g
       style="color-interpolation:linearRGB;stroke-width:0.6667;stroke-linecap:butt;color-rendering:optimizeQuality;image-rendering:optimizeQuality;text-rendering:geometricPrecision"
       id="g169"
       transform="translate(-51.808308,-77.712462)">
      <path
         d="m 1422.0028,280.1304 v -24.0101 h 40.028 v 24.0101 z"
         style="fill:none;fill-rule:evenodd"
         id="path167" />
    </g>
    <g
       transform="translate(1413.2245,229.32934)"
       style="font-size:32px;font-family:mwa_cmr10;color-interpolation:linearRGB;color-rendering:optimizeQuality;image-rendering:optimizeQuality;text-rendering:geometricPrecision"
       id="g173">
      <path
         style="stroke:none"
         d="m 0.8281,7.6799 v -1.125 q 3.4531,0 3.4531,-1.0156 v -17.5782 q 0,-1.0156 -3.4531,-1.0156 v -1.125 h 9.8907 v 1.125 q -3.4532,0 -3.4532,1.0156 V 5.5393 q 0,1.0156 3.4532,1.0156 v 1.125 z"
         id="path171" />
    </g>
    <g
       transform="translate(1413.2245,229.32934)"
       style="font-size:32px;font-family:mwa_cmr10;color-interpolation:linearRGB;color-rendering:optimizeQuality;image-rendering:optimizeQuality;text-rendering:geometricPrecision"
       id="g195">
      <path
         style="stroke:none"
         d="m 12.5087,7.6799 v -1.125 q 1.0937,0 1.7969,-0.1719 0.7031,-0.1719 0.7031,-0.8437 v -8.7344 q 0,-0.8594 -0.2578,-1.2422 -0.2578,-0.3828 -0.7422,-0.4688 -0.4844,-0.0859 -1.5,-0.0859 v -1.125 l 4.6406,-0.3437 v 3.125 q 0.6406,-1.375 1.8985,-2.25 1.2578,-0.875 2.7421,-0.875 2.2188,0 3.336,1.0625 1.1172,1.0625 1.1172,3.25 v 7.6875 q 0,0.6718 0.7031,0.8437 0.7031,0.1719 1.7969,0.1719 v 1.125 h -7.3282 v -1.125 q 1.0938,0 1.7969,-0.1719 0.7031,-0.1719 0.7031,-0.8437 v -7.5938 q 0,-1.5625 -0.4531,-2.5703 -0.4531,-1.0078 -1.8594,-1.0078 -1.8593,0 -3.0546,1.4844 -1.1954,1.4843 -1.1954,3.375 v 6.3125 q 0,0.6718 0.7032,0.8437 0.7031,0.1719 1.7812,0.1719 v 1.125 z"
         id="path175" />
      <path
         style="stroke:none"
         d="m 37.1459,8.0393 q -1.8906,0 -3.4531,-1.0235 -1.5625,-1.0234 -2.4297,-2.6953 -0.8672,-1.6719 -0.8672,-3.5469 0,-1.9375 0.9453,-3.6015 0.9453,-1.6641 2.5703,-2.6485 1.625,-0.9843 3.5782,-0.9843 1.1718,0 2.2187,0.4921 1.0469,0.4922 1.8125,1.3672 v -6.6562 q 0,-0.8594 -0.2578,-1.2422 -0.2578,-0.3828 -0.7344,-0.4688 -0.4765,-0.0859 -1.4922,-0.0859 v -1.125 l 4.7344,-0.3437 V 4.7736 q 0,0.8438 0.2578,1.2266 0.2578,0.3828 0.7344,0.4687 0.4766,0.086 1.4922,0.086 v 1.125 L 41.4272,8.0393 V 6.0236 Q 40.599,6.9768 39.4584,7.508 38.3178,8.0393 37.1459,8.0393 Z M 33.8803,4.8986 q 0.5469,1.0469 1.4609,1.6719 0.9141,0.625 1.9922,0.625 1.3281,0 2.4375,-0.7656 1.1094,-0.7656 1.6563,-1.9844 v -7.6719 q -0.375,-0.7031 -0.9454,-1.2578 -0.5703,-0.5547 -1.2812,-0.8515 -0.7109,-0.2969 -1.5078,-0.2969 -1.6719,0 -2.6875,0.9453 -1.0156,0.9453 -1.4219,2.4141 -0.4062,1.4687 -0.4062,3.0781 0,1.2812 0.1328,2.2344 0.1328,0.9531 0.5703,1.8593 z"
         id="path177" />
      <path
         style="stroke:none"
         d="m 50.5644,3.8674 v -7.0625 q 0,-0.8594 -0.2579,-1.2422 -0.2578,-0.3828 -0.7421,-0.4688 -0.4844,-0.0859 -1.5,-0.0859 v -1.125 l 4.8437,-0.3437 V 3.8674 q 0,1.25 0.1797,1.9453 0.1797,0.6953 0.7656,1.0391 0.586,0.3437 1.8672,0.3437 1.7188,0 2.7344,-1.4375 1.0156,-1.4375 1.0156,-3.2656 v -5.6875 q 0,-0.8594 -0.2656,-1.2422 -0.2656,-0.3828 -0.7422,-0.4688 -0.4766,-0.0859 -1.4922,-0.0859 v -1.125 l 4.8281,-0.3437 V 4.7736 q 0,0.8438 0.2578,1.2266 0.2579,0.3828 0.7422,0.4687 0.4844,0.086 1.5,0.086 v 1.125 L 59.5644,8.0393 V 5.3361 q -0.5938,1.2032 -1.6563,1.9532 -1.0625,0.75 -2.3437,0.75 -2.2969,0 -3.6485,-0.9766 -1.3515,-0.9766 -1.3515,-3.1953 z"
         id="path179" />
      <path
         style="stroke:none"
         d="m 72.8578,8.0393 q -1.9375,0 -3.5156,-1.0079 -1.5781,-1.0078 -2.4844,-2.6875 -0.9062,-1.6796 -0.9062,-3.5703 0,-1.8906 0.8984,-3.625 0.8984,-1.7343 2.4844,-2.7734 1.5859,-1.0391 3.5234,-1.0391 1.875,0 3.4141,0.7344 1.539,0.7344 1.539,2.4063 0,0.625 -0.4453,1.0859 -0.4453,0.4609 -1.0859,0.4609 -0.6406,0 -1.0859,-0.4609 -0.4454,-0.4609 -0.4454,-1.0859 0,-0.5625 0.3594,-0.9766 0.3594,-0.4141 0.8906,-0.5234 -1.1093,-0.7032 -3.1093,-0.7032 -1.5313,0 -2.4688,1.0157 -0.9375,1.0156 -1.3125,2.5156 -0.375,1.5 -0.375,2.9687 0,1.5469 0.461,2.9922 0.4609,1.4453 1.4843,2.3906 1.0235,0.9454 2.5703,0.9454 1.5157,0 2.5782,-0.9297 1.0625,-0.9297 1.4531,-2.4297 0,-0.1875 0.25,-0.1875 h 0.3906 q 0.0938,0 0.1719,0.0859 0.0781,0.086 0.0781,0.1953 v 0.0938 q -0.4844,1.8906 -1.9219,3 -1.4375,1.1094 -3.3906,1.1094 z"
         id="path181" />
      <path
         style="stroke:none"
         d="M 82.3769,3.8361 V -4.992 h -2.6562 v -0.8281 q 2.0937,0 3.0781,-1.9531 0.9844,-1.9532 0.9844,-4.2344 h 0.9218 v 5.8906 h 4.5157 v 1.125 H 84.705 v 8.7656 q 0,1.3282 0.4454,2.3282 0.4453,1 1.6015,1 1.0938,0 1.5781,-1.0547 0.4844,-1.0547 0.4844,-2.2735 V 1.883 h 0.9219 v 1.9531 q 0,1 -0.3672,1.9766 -0.3672,0.9766 -1.0859,1.6016 -0.7188,0.625 -1.75,0.625 -1.9219,0 -3.0391,-1.1485 -1.1172,-1.1484 -1.1172,-3.0547 z"
         id="path183" />
      <path
         style="stroke:none"
         d="m 99.5558,8.0393 q -1.9219,0 -3.5625,-0.9766 -1.6407,-0.9766 -2.5938,-2.6172 -0.9531,-1.6406 -0.9531,-3.5781 0,-1.4688 0.5234,-2.8281 0.5235,-1.3594 1.5,-2.4297 0.9766,-1.0703 2.2735,-1.6719 1.2968,-0.6016 2.8125,-0.6016 1.9687,0 3.5859,1.0391 1.6172,1.0391 2.5547,2.7812 0.9375,1.7422 0.9375,3.711 0,1.9219 -0.9531,3.5703 -0.9532,1.6484 -2.586,2.625 -1.6328,0.9766 -3.539,0.9766 z m 0,-0.9375 q 2.5625,0 3.4218,-1.8594 0.8594,-1.8594 0.8594,-4.7344 0,-1.6094 -0.1719,-2.6641 -0.1718,-1.0546 -0.75,-1.914 -0.3593,-0.5313 -0.914,-0.9297 -0.5547,-0.3984 -1.1719,-0.6094 -0.6172,-0.2109 -1.2734,-0.2109 -1,0 -1.8985,0.4531 -0.8984,0.4531 -1.4922,1.2969 -0.5937,0.9062 -0.7578,1.9922 -0.164,1.0859 -0.164,2.5859 0,1.7969 0.3125,3.2266 0.3125,1.4297 1.2578,2.3984 0.9453,0.9688 2.7422,0.9688 z"
         id="path185" />
      <path
         style="stroke:none"
         d="m 108.3839,7.6799 v -1.125 q 1.0938,0 1.7969,-0.1719 0.7031,-0.1719 0.7031,-0.8437 v -8.7344 q 0,-0.8594 -0.2578,-1.2422 -0.2578,-0.3828 -0.7422,-0.4688 -0.4843,-0.0859 -1.5,-0.0859 v -1.125 l 4.5782,-0.3437 v 3.125 q 0.5156,-1.3907 1.4687,-2.2579 0.9531,-0.8671 2.3125,-0.8671 0.9531,0 1.7031,0.5625 0.75,0.5625 0.75,1.4843 0,0.5782 -0.414,1.0078 -0.4141,0.4297 -1.0235,0.4297 -0.5937,0 -1.0156,-0.4218 -0.4219,-0.4219 -0.4219,-1.0157 0,-0.8593 0.6094,-1.2187 h -0.1875 q -1.2969,0 -2.1172,0.9375 -0.8203,0.9375 -1.164,2.3281 -0.3438,1.3906 -0.3438,2.6563 v 5.25 q 0,1.0156 3.1094,1.0156 v 1.125 z"
         id="path187" />
      <path
         style="stroke:none"
         d="m 131.8183,7.6799 v -1.125 q 3.2969,0 3.2969,-1.0156 v -17.5782 q 0,-1.0156 -3.2969,-1.0156 v -1.125 h 11.7969 q 2.1875,0 4,0.9453 1.8125,0.9453 3.0938,2.5235 1.2812,1.5781 1.9765,3.5781 0.6953,2 0.6953,4.0937 0,2.0313 -0.7031,3.9453 -0.7031,1.9141 -2.0234,3.4532 -1.3203,1.539 -3.125,2.4297 -1.8047,0.8906 -3.9141,0.8906 z m 6.1719,-2.1406 q 0,0.6875 0.3906,0.8515 0.3907,0.1641 1.2344,0.1641 h 3.1719 q 1.6406,0 3.1172,-0.711 1.4765,-0.7109 2.4453,-1.9765 1.0156,-1.3438 1.3594,-3.0078 0.3437,-1.6641 0.3437,-3.8985 0,-2.3281 -0.3437,-4.0781 -0.3438,-1.75 -1.3594,-3.125 -0.9531,-1.3594 -2.4219,-2.0859 -1.4687,-0.7266 -3.1406,-0.7266 h -3.1719 q -0.5781,0 -0.8984,0.0469 -0.3203,0.0469 -0.5235,0.2734 -0.2031,0.2266 -0.2031,0.6953 z"
         id="path189" />
      <path
         style="stroke:none"
         d="m 162.4972,4.258 q 1.0937,1.3906 2.7344,2.1953 1.6406,0.8047 3.4062,0.8047 1.4844,0 2.75,-0.5859 1.2656,-0.586 2.2109,-1.6328 0.9454,-1.0469 1.4532,-2.375 0.5078,-1.3282 0.5078,-2.7969 0,-0.25 0.2812,-0.25 h 0.3907 q 0.25,0 0.25,0.3125 0,1.6719 -0.6407,3.2265 -0.6406,1.5547 -1.8125,2.7344 -1.1718,1.1797 -2.6953,1.836 -1.5234,0.6562 -3.1797,0.6562 -2.2968,0 -4.3515,-0.9297 -2.0547,-0.9297 -3.5782,-2.5469 -1.5234,-1.6171 -2.375,-3.7421 -0.8515,-2.125 -0.8515,-4.4219 0,-2.2969 0.8515,-4.4219 0.8516,-2.125 2.375,-3.75 1.5235,-1.625 3.5782,-2.5391 2.0547,-0.914 4.3515,-0.914 1.6407,0 3.1407,0.7109 1.5,0.711 2.625,2.0078 l 1.8593,-2.625 q 0.1875,-0.0937 0.2188,-0.0937 h 0.2344 q 0.0937,0 0.1718,0.0781 0.0782,0.0781 0.0782,0.1875 v 8.6406 q 0,0.2813 -0.25,0.2813 h -0.5782 q -0.2968,0 -0.2968,-0.2813 0,-0.9218 -0.3672,-2.0625 -0.3672,-1.1406 -0.9375,-2.164 -0.5703,-1.0235 -1.3203,-1.8047 -1.7969,-1.75 -4.125,-1.75 -1.7657,0 -3.3829,0.7969 -1.6171,0.7968 -2.7265,2.2031 -1.1719,1.5 -1.625,3.414 -0.4531,1.9141 -0.4531,4.086 0,2.1719 0.4531,4.0937 0.4531,1.9219 1.625,3.4219 z"
         id="path191" />
      <path
         style="stroke:none"
         d="m 179.3739,7.6799 v -1.125 q 3.2969,0 3.2969,-1.0156 v -17.5782 q 0,-1.0156 -3.2969,-1.0156 v -1.125 h 10.0469 q 1.7969,0 3.7735,0.6484 1.9765,0.6485 3.3046,1.9766 1.3282,1.3281 1.3282,3.1719 0,1.3437 -0.8047,2.3984 -0.8047,1.0547 -2.0625,1.7656 -1.2578,0.711 -2.5703,1.0235 1.4375,0.5 2.5156,1.5937 1.0781,1.0938 1.2969,2.5 l 0.4531,2.8438 q 0.3125,1.9219 0.6562,2.8672 0.3438,0.9453 1.5157,0.9453 1,0 1.4922,-0.9297 0.4921,-0.9297 0.4921,-2.0234 0,-0.1094 0.1016,-0.1954 0.1016,-0.0859 0.2109,-0.0859 h 0.2969 q 0.3125,0 0.3125,0.4219 0,0.875 -0.3437,1.7109 -0.3438,0.836 -0.9922,1.3828 -0.6485,0.5469 -1.5391,0.5469 -2.3125,0 -3.9765,-1.1484 -1.6641,-1.1485 -1.6641,-3.3672 V 1.0236 q 0,-1.5937 -1.1094,-2.7343 -1.1094,-1.1407 -2.7187,-1.1407 h -3.8438 v 8.3907 q 0,1.0156 3.2969,1.0156 v 1.125 z m 6.1719,-11.3594 h 3.4219 q 2.6562,0 4.0469,-1.0703 1.3906,-1.0703 1.3906,-3.6328 0,-2.5469 -1.375,-3.6094 -1.375,-1.0625 -4.0625,-1.0625 h -1.7969 q -0.5781,0 -0.8984,0.0469 -0.3203,0.0469 -0.5235,0.2734 -0.2031,0.2266 -0.2031,0.6953 z"
         id="path193" />
    </g>
    <g
       style="color-interpolation:sRGB;fill:#1ca9df;stroke:#1ca9df;color-rendering:optimizeSpeed;image-rendering:optimizeSpeed;shape-rendering:crispEdges;text-rendering:optimizeSpeed"
       id="g199"
       transform="translate(-51.808308,-77.712462)">
      <path
         style="stroke:none"
         d="m 1462.0308,319.0468 v -24.0101 h -40.028 v 24.0101 z"
         id="path197" />
    </g>
    <g
       style="color-interpolation:linearRGB;stroke-width:0.6667;stroke-linecap:butt;color-rendering:optimizeQuality;image-rendering:optimizeQuality;text-rendering:geometricPrecision"
       id="g203"
       transform="translate(-51.808308,-77.712462)">
      <path
         d="m 1422.0028,319.0468 v -24.0101 h 40.028 v 24.0101 z"
         style="fill:none;fill-rule:evenodd"
         id="path201" />
    </g>
    <g
       transform="translate(1413.2245,268.24574)"
       style="font-size:32px;font-family:mwa_cmr10;color-interpolation:linearRGB;color-rendering:optimizeQuality;image-rendering:optimizeQuality;text-rendering:geometricPrecision"
       id="g207">
      <path
         style="stroke:none"
         d="m 0.8281,7.6799 v -1.125 q 3.4531,0 3.4531,-1.0156 v -17.5782 q 0,-1.0156 -3.4531,-1.0156 v -1.125 h 9.8907 v 1.125 q -3.4532,0 -3.4532,1.0156 V 5.5393 q 0,1.0156 3.4532,1.0156 v 1.125 z"
         id="path205" />
    </g>
    <g
       transform="translate(1413.2245,268.24574)"
       style="font-size:32px;font-family:mwa_cmr10;color-interpolation:linearRGB;color-rendering:optimizeQuality;image-rendering:optimizeQuality;text-rendering:geometricPrecision"
       id="g231">
      <path
         style="stroke:none"
         d="m 12.5087,7.6799 v -1.125 q 1.0937,0 1.7969,-0.1719 0.7031,-0.1719 0.7031,-0.8437 v -8.7344 q 0,-0.8594 -0.2578,-1.2422 -0.2578,-0.3828 -0.7422,-0.4688 -0.4844,-0.0859 -1.5,-0.0859 v -1.125 l 4.6406,-0.3437 v 3.125 q 0.6406,-1.375 1.8985,-2.25 1.2578,-0.875 2.7421,-0.875 2.2188,0 3.336,1.0625 1.1172,1.0625 1.1172,3.25 v 7.6875 q 0,0.6718 0.7031,0.8437 0.7031,0.1719 1.7969,0.1719 v 1.125 h -7.3282 v -1.125 q 1.0938,0 1.7969,-0.1719 0.7031,-0.1719 0.7031,-0.8437 v -7.5938 q 0,-1.5625 -0.4531,-2.5703 -0.4531,-1.0078 -1.8594,-1.0078 -1.8593,0 -3.0546,1.4844 -1.1954,1.4843 -1.1954,3.375 v 6.3125 q 0,0.6718 0.7032,0.8437 0.7031,0.1719 1.7812,0.1719 v 1.125 z"
         id="path209" />
      <path
         style="stroke:none"
         d="m 37.1459,8.0393 q -1.8906,0 -3.4531,-1.0235 -1.5625,-1.0234 -2.4297,-2.6953 -0.8672,-1.6719 -0.8672,-3.5469 0,-1.9375 0.9453,-3.6015 0.9453,-1.6641 2.5703,-2.6485 1.625,-0.9843 3.5782,-0.9843 1.1718,0 2.2187,0.4921 1.0469,0.4922 1.8125,1.3672 v -6.6562 q 0,-0.8594 -0.2578,-1.2422 -0.2578,-0.3828 -0.7344,-0.4688 -0.4765,-0.0859 -1.4922,-0.0859 v -1.125 l 4.7344,-0.3437 V 4.7736 q 0,0.8438 0.2578,1.2266 0.2578,0.3828 0.7344,0.4687 0.4766,0.086 1.4922,0.086 v 1.125 L 41.4272,8.0393 V 6.0236 Q 40.599,6.9768 39.4584,7.508 38.3178,8.0393 37.1459,8.0393 Z M 33.8803,4.8986 q 0.5469,1.0469 1.4609,1.6719 0.9141,0.625 1.9922,0.625 1.3281,0 2.4375,-0.7656 1.1094,-0.7656 1.6563,-1.9844 v -7.6719 q -0.375,-0.7031 -0.9454,-1.2578 -0.5703,-0.5547 -1.2812,-0.8515 -0.7109,-0.2969 -1.5078,-0.2969 -1.6719,0 -2.6875,0.9453 -1.0156,0.9453 -1.4219,2.4141 -0.4062,1.4687 -0.4062,3.0781 0,1.2812 0.1328,2.2344 0.1328,0.9531 0.5703,1.8593 z"
         id="path211" />
      <path
         style="stroke:none"
         d="m 50.5644,3.8674 v -7.0625 q 0,-0.8594 -0.2579,-1.2422 -0.2578,-0.3828 -0.7421,-0.4688 -0.4844,-0.0859 -1.5,-0.0859 v -1.125 l 4.8437,-0.3437 V 3.8674 q 0,1.25 0.1797,1.9453 0.1797,0.6953 0.7656,1.0391 0.586,0.3437 1.8672,0.3437 1.7188,0 2.7344,-1.4375 1.0156,-1.4375 1.0156,-3.2656 v -5.6875 q 0,-0.8594 -0.2656,-1.2422 -0.2656,-0.3828 -0.7422,-0.4688 -0.4766,-0.0859 -1.4922,-0.0859 v -1.125 l 4.8281,-0.3437 V 4.7736 q 0,0.8438 0.2578,1.2266 0.2579,0.3828 0.7422,0.4687 0.4844,0.086 1.5,0.086 v 1.125 L 59.5644,8.0393 V 5.3361 q -0.5938,1.2032 -1.6563,1.9532 -1.0625,0.75 -2.3437,0.75 -2.2969,0 -3.6485,-0.9766 -1.3515,-0.9766 -1.3515,-3.1953 z"
         id="path213" />
      <path
         style="stroke:none"
         d="m 72.8578,8.0393 q -1.9375,0 -3.5156,-1.0079 -1.5781,-1.0078 -2.4844,-2.6875 -0.9062,-1.6796 -0.9062,-3.5703 0,-1.8906 0.8984,-3.625 0.8984,-1.7343 2.4844,-2.7734 1.5859,-1.0391 3.5234,-1.0391 1.875,0 3.4141,0.7344 1.539,0.7344 1.539,2.4063 0,0.625 -0.4453,1.0859 -0.4453,0.4609 -1.0859,0.4609 -0.6406,0 -1.0859,-0.4609 -0.4454,-0.4609 -0.4454,-1.0859 0,-0.5625 0.3594,-0.9766 0.3594,-0.4141 0.8906,-0.5234 -1.1093,-0.7032 -3.1093,-0.7032 -1.5313,0 -2.4688,1.0157 -0.9375,1.0156 -1.3125,2.5156 -0.375,1.5 -0.375,2.9687 0,1.5469 0.461,2.9922 0.4609,1.4453 1.4843,2.3906 1.0235,0.9454 2.5703,0.9454 1.5157,0 2.5782,-0.9297 1.0625,-0.9297 1.4531,-2.4297 0,-0.1875 0.25,-0.1875 h 0.3906 q 0.0938,0 0.1719,0.0859 0.0781,0.086 0.0781,0.1953 v 0.0938 q -0.4844,1.8906 -1.9219,3 -1.4375,1.1094 -3.3906,1.1094 z"
         id="path215" />
      <path
         style="stroke:none"
         d="M 82.3769,3.8361 V -4.992 h -2.6562 v -0.8281 q 2.0937,0 3.0781,-1.9531 0.9844,-1.9532 0.9844,-4.2344 h 0.9218 v 5.8906 h 4.5157 v 1.125 H 84.705 v 8.7656 q 0,1.3282 0.4454,2.3282 0.4453,1 1.6015,1 1.0938,0 1.5781,-1.0547 0.4844,-1.0547 0.4844,-2.2735 V 1.883 h 0.9219 v 1.9531 q 0,1 -0.3672,1.9766 -0.3672,0.9766 -1.0859,1.6016 -0.7188,0.625 -1.75,0.625 -1.9219,0 -3.0391,-1.1485 -1.1172,-1.1484 -1.1172,-3.0547 z"
         id="path217" />
      <path
         style="stroke:none"
         d="m 99.5558,8.0393 q -1.9219,0 -3.5625,-0.9766 -1.6407,-0.9766 -2.5938,-2.6172 -0.9531,-1.6406 -0.9531,-3.5781 0,-1.4688 0.5234,-2.8281 0.5235,-1.3594 1.5,-2.4297 0.9766,-1.0703 2.2735,-1.6719 1.2968,-0.6016 2.8125,-0.6016 1.9687,0 3.5859,1.0391 1.6172,1.0391 2.5547,2.7812 0.9375,1.7422 0.9375,3.711 0,1.9219 -0.9531,3.5703 -0.9532,1.6484 -2.586,2.625 -1.6328,0.9766 -3.539,0.9766 z m 0,-0.9375 q 2.5625,0 3.4218,-1.8594 0.8594,-1.8594 0.8594,-4.7344 0,-1.6094 -0.1719,-2.6641 -0.1718,-1.0546 -0.75,-1.914 -0.3593,-0.5313 -0.914,-0.9297 -0.5547,-0.3984 -1.1719,-0.6094 -0.6172,-0.2109 -1.2734,-0.2109 -1,0 -1.8985,0.4531 -0.8984,0.4531 -1.4922,1.2969 -0.5937,0.9062 -0.7578,1.9922 -0.164,1.0859 -0.164,2.5859 0,1.7969 0.3125,3.2266 0.3125,1.4297 1.2578,2.3984 0.9453,0.9688 2.7422,0.9688 z"
         id="path219" />
      <path
         style="stroke:none"
         d="m 108.3839,7.6799 v -1.125 q 1.0938,0 1.7969,-0.1719 0.7031,-0.1719 0.7031,-0.8437 v -8.7344 q 0,-0.8594 -0.2578,-1.2422 -0.2578,-0.3828 -0.7422,-0.4688 -0.4843,-0.0859 -1.5,-0.0859 v -1.125 l 4.5782,-0.3437 v 3.125 q 0.5156,-1.3907 1.4687,-2.2579 0.9531,-0.8671 2.3125,-0.8671 0.9531,0 1.7031,0.5625 0.75,0.5625 0.75,1.4843 0,0.5782 -0.414,1.0078 -0.4141,0.4297 -1.0235,0.4297 -0.5937,0 -1.0156,-0.4218 -0.4219,-0.4219 -0.4219,-1.0157 0,-0.8593 0.6094,-1.2187 h -0.1875 q -1.2969,0 -2.1172,0.9375 -0.8203,0.9375 -1.164,2.3281 -0.3438,1.3906 -0.3438,2.6563 v 5.25 q 0,1.0156 3.1094,1.0156 v 1.125 z"
         id="path221" />
      <path
         style="stroke:none"
         d="m 138.0527,4.258 q 1.0938,1.3906 2.7344,2.1953 1.6406,0.8047 3.4062,0.8047 1.4844,0 2.75,-0.5859 1.2657,-0.586 2.211,-1.6328 0.9453,-1.0469 1.4531,-2.375 0.5078,-1.3282 0.5078,-2.7969 0,-0.25 0.2813,-0.25 h 0.3906 q 0.25,0 0.25,0.3125 0,1.6719 -0.6406,3.2265 -0.6407,1.5547 -1.8125,2.7344 -1.1719,1.1797 -2.6954,1.836 -1.5234,0.6562 -3.1796,0.6562 -2.2969,0 -4.3516,-0.9297 -2.0547,-0.9297 -3.5781,-2.5469 -1.5235,-1.6171 -2.375,-3.7421 -0.8516,-2.125 -0.8516,-4.4219 0,-2.2969 0.8516,-4.4219 0.8515,-2.125 2.375,-3.75 1.5234,-1.625 3.5781,-2.5391 2.0547,-0.914 4.3516,-0.914 1.6406,0 3.1406,0.7109 1.5,0.711 2.625,2.0078 l 1.8594,-2.625 q 0.1875,-0.0937 0.2187,-0.0937 h 0.2344 q 0.0937,0 0.1719,0.0781 0.0781,0.0781 0.0781,0.1875 v 8.6406 q 0,0.2813 -0.25,0.2813 h -0.5781 q -0.2969,0 -0.2969,-0.2813 0,-0.9218 -0.3672,-2.0625 -0.3672,-1.1406 -0.9375,-2.164 -0.5703,-1.0235 -1.3203,-1.8047 -1.7969,-1.75 -4.125,-1.75 -1.7656,0 -3.3828,0.7969 -1.6172,0.7968 -2.7266,2.2031 -1.1719,1.5 -1.625,3.414 -0.4531,1.9141 -0.4531,4.086 0,2.1719 0.4531,4.0937 0.4531,1.9219 1.625,3.4219 z"
         id="path223" />
      <path
         style="stroke:none"
         d="m 161.867,8.0393 q -1.9219,0 -3.5625,-0.9766 -1.6407,-0.9766 -2.5938,-2.6172 -0.9531,-1.6406 -0.9531,-3.5781 0,-1.4688 0.5234,-2.8281 0.5235,-1.3594 1.5,-2.4297 0.9766,-1.0703 2.2735,-1.6719 1.2968,-0.6016 2.8125,-0.6016 1.9687,0 3.5859,1.0391 1.6172,1.0391 2.5547,2.7812 0.9375,1.7422 0.9375,3.711 0,1.9219 -0.9531,3.5703 -0.9532,1.6484 -2.586,2.625 -1.6328,0.9766 -3.539,0.9766 z m 0,-0.9375 q 2.5625,0 3.4218,-1.8594 0.8594,-1.8594 0.8594,-4.7344 0,-1.6094 -0.1719,-2.6641 -0.1718,-1.0546 -0.75,-1.914 -0.3593,-0.5313 -0.914,-0.9297 -0.5547,-0.3984 -1.1719,-0.6094 -0.6172,-0.2109 -1.2734,-0.2109 -1,0 -1.8985,0.4531 -0.8984,0.4531 -1.4922,1.2969 -0.5937,0.9062 -0.7578,1.9922 -0.164,1.0859 -0.164,2.5859 0,1.7969 0.3125,3.2266 0.3125,1.4297 1.2578,2.3984 0.9453,0.9688 2.7422,0.9688 z"
         id="path225" />
      <path
         style="stroke:none"
         d="m 170.6951,7.6799 v -1.125 q 1.0938,0 1.7969,-0.1719 0.7031,-0.1719 0.7031,-0.8437 v -8.7344 q 0,-0.8594 -0.2578,-1.2422 -0.2578,-0.3828 -0.7422,-0.4688 -0.4843,-0.0859 -1.5,-0.0859 v -1.125 l 4.5782,-0.3437 v 3.125 q 0.5156,-1.3907 1.4687,-2.2579 0.9531,-0.8671 2.3125,-0.8671 0.9531,0 1.7031,0.5625 0.75,0.5625 0.75,1.4843 0,0.5782 -0.414,1.0078 -0.4141,0.4297 -1.0235,0.4297 -0.5937,0 -1.0156,-0.4218 -0.4219,-0.4219 -0.4219,-1.0157 0,-0.8593 0.6094,-1.2187 h -0.1875 q -1.2969,0 -2.1172,0.9375 -0.8203,0.9375 -1.164,2.3281 -0.3438,1.3906 -0.3438,2.6563 v 5.25 q 0,1.0156 3.1094,1.0156 v 1.125 z"
         id="path227" />
      <path
         style="stroke:none"
         d="m 190.3691,8.0393 q -1.9531,0 -3.5859,-1.0235 -1.6328,-1.0234 -2.5625,-2.7344 -0.9297,-1.7109 -0.9297,-3.6171 0,-1.875 0.8515,-3.5625 0.8516,-1.6875 2.375,-2.7266 1.5235,-1.0391 3.3985,-1.0391 1.4687,0 2.5547,0.4922 1.0859,0.4922 1.789,1.3672 0.7032,0.875 1.0625,2.0625 0.3594,1.1875 0.3594,2.6094 0,0.4219 -0.3281,0.4219 h -9.2656 V 0.633 q 0,2.6563 1.0703,4.5625 1.0703,1.9063 3.4922,1.9063 0.9843,0 1.8203,-0.4375 0.8359,-0.4375 1.4531,-1.2188 0.6172,-0.7812 0.8359,-1.6719 0.0313,-0.1093 0.1172,-0.1953 0.086,-0.0859 0.1953,-0.0859 h 0.2813 q 0.3281,0 0.3281,0.4062 -0.4531,1.8125 -1.9531,2.9766 -1.5,1.1641 -3.3594,1.1641 z m -4.25,-8.5469 h 7.2969 q 0,-1.2031 -0.336,-2.4375 -0.3359,-1.2344 -1.1171,-2.0547 -0.7813,-0.8203 -2.0469,-0.8203 -1.8125,0 -2.8047,1.6953 -0.9922,1.6953 -0.9922,3.6172 z"
         id="path229" />
    </g>
    <g
       style="color-interpolation:sRGB;fill:#4acb84;stroke:#4acb84;color-rendering:optimizeSpeed;image-rendering:optimizeSpeed;shape-rendering:crispEdges;text-rendering:optimizeSpeed"
       id="g235"
       transform="translate(-51.808308,-77.712462)">
      <path
         style="stroke:none"
         d="m 1462.0308,357.9633 v -24.0101 h -40.028 v 24.0101 z"
         id="path233" />
    </g>
    <g
       style="color-interpolation:linearRGB;stroke-width:0.6667;stroke-linecap:butt;color-rendering:optimizeQuality;image-rendering:optimizeQuality;text-rendering:geometricPrecision"
       id="g239"
       transform="translate(-51.808308,-77.712462)">
      <path
         d="m 1422.0028,357.9633 v -24.0101 h 40.028 v 24.0101 z"
         style="fill:none;fill-rule:evenodd"
         id="path237" />
    </g>
    <g
       transform="translate(1413.2245,307.16214)"
       style="font-size:32px;font-family:mwa_cmr10;color-interpolation:linearRGB;color-rendering:optimizeQuality;image-rendering:optimizeQuality;text-rendering:geometricPrecision"
       id="g243">
      <path
         style="stroke:none"
         d="m 7.3594,4.258 q 1.1562,1.4063 2.8203,2.2031 1.6641,0.7969 3.4765,0.7969 1.7813,0 3.2344,-0.9062 1.4532,-0.9063 1.4532,-2.5782 V 1.0861 q 0,-1.0156 -4,-1.0156 v -1.125 h 9.1718 v 1.125 q -1.0156,0 -1.6094,0.1719 -0.5937,0.1719 -0.5937,0.8437 v 6.3125 q 0,0.1094 -0.0859,0.1953 -0.086,0.086 -0.1954,0.086 -0.2968,0 -0.9921,-0.7031 -0.6953,-0.7032 -1.1016,-1.25 -0.7813,1.3437 -2.4531,2 -1.6719,0.6562 -3.5,0.6562 Q 9.875,8.383 7.3203,6.7814 4.7656,5.1799 3.2812,2.5002 1.7969,-0.1795 1.7969,-3.2576 q 0,-2.2656 0.8593,-4.4063 0.8594,-2.1406 2.3985,-3.7656 1.5391,-1.625 3.5859,-2.5391 2.0469,-0.914 4.3438,-0.914 1.6562,0 3.1328,0.7109 1.4766,0.711 2.6328,2.0078 l 1.8594,-2.625 q 0.1875,-0.0937 0.2187,-0.0937 h 0.2344 q 0.0937,0 0.1719,0.0781 0.0781,0.0781 0.0781,0.1875 v 8.6406 q 0,0.2813 -0.25,0.2813 h -0.5781 q -0.2969,0 -0.2969,-0.2813 0,-0.9218 -0.3672,-2.0625 -0.3672,-1.1406 -0.9375,-2.164 -0.5703,-1.0235 -1.3203,-1.8047 -1.7969,-1.75 -4.125,-1.75 -1.7813,0 -3.4063,0.7969 -1.625,0.7968 -2.7343,2.2031 -1.1719,1.5 -1.625,3.414 -0.4531,1.9141 -0.4531,4.086 0,4.9062 2.1406,7.5156 z"
         id="path241" />
    </g>
    <g
       transform="translate(1413.2245,307.16214)"
       style="font-size:32px;font-family:mwa_cmr10;color-interpolation:linearRGB;color-rendering:optimizeQuality;image-rendering:optimizeQuality;text-rendering:geometricPrecision"
       id="g261">
      <path
         style="stroke:none"
         d="m 26.3924,4.5393 q 0,-1.9063 1.5,-3.1016 1.5,-1.1953 3.6015,-1.6875 2.1016,-0.4922 3.9922,-0.4922 v -1.3125 q 0,-0.9219 -0.4062,-1.7891 -0.4063,-0.8671 -1.1719,-1.4218 -0.7656,-0.5547 -1.6875,-0.5547 -2.125,0 -3.2344,0.9531 0.6094,0 1.0078,0.4609 0.3985,0.461 0.3985,1.0704 0,0.6406 -0.4531,1.0937 -0.4532,0.4531 -1.0782,0.4531 -0.6406,0 -1.0937,-0.4531 -0.4531,-0.4531 -0.4531,-1.0937 0,-1.6875 1.5312,-2.5079 1.5313,-0.8203 3.375,-0.8203 1.2969,0 2.6094,0.5547 1.3125,0.5547 2.1484,1.586 0.836,1.0312 0.836,2.4062 v 7.2031 q 0,0.625 0.2656,1.1485 0.2656,0.5234 0.8281,0.5234 0.5313,0 0.7891,-0.5312 0.2578,-0.5313 0.2578,-1.1407 V 3.0393 h 0.9375 v 2.0468 q 0,0.7188 -0.375,1.3672 -0.375,0.6485 -1.0078,1.0313 -0.6328,0.3828 -1.3672,0.3828 -0.9375,0 -1.6172,-0.7266 -0.6797,-0.7265 -0.7578,-1.7265 -0.5938,1.2031 -1.75,1.914 -1.1563,0.711 -2.4688,0.711 -1.2187,0 -2.3984,-0.3594 -1.1797,-0.3594 -1.9688,-1.1328 -0.789,-0.7735 -0.789,-2.0078 z m 2.5937,0 q 0,1.125 0.8282,1.8906 0.8281,0.7656 1.9531,0.7656 1.0312,0 1.875,-0.5156 0.8437,-0.5156 1.3437,-1.4063 0.5,-0.8906 0.5,-1.875 V 0.0705 q -1.4531,0 -2.9765,0.4766 -1.5235,0.4765 -2.5235,1.4922 -1,1.0156 -1,2.5 z"
         id="path245" />
      <path
         style="stroke:none"
         d="M 44.3768,3.8361 V -4.992 h -2.6562 v -0.8281 q 2.0937,0 3.0781,-1.9531 0.9844,-1.9532 0.9844,-4.2344 h 0.9218 v 5.8906 h 4.5157 v 1.125 h -4.5157 v 8.7656 q 0,1.3282 0.4453,2.3282 0.4454,1 1.6016,1 1.0938,0 1.5781,-1.0547 0.4844,-1.0547 0.4844,-2.2735 V 1.883 h 0.9219 v 1.9531 q 0,1 -0.3672,1.9766 -0.3672,0.9766 -1.0859,1.6016 -0.7188,0.625 -1.75,0.625 -1.9219,0 -3.0391,-1.1485 -1.1172,-1.1484 -1.1172,-3.0547 z"
         id="path247" />
      <path
         style="stroke:none"
         d="m 61.5244,8.0393 q -1.9531,0 -3.5859,-1.0235 Q 56.3057,5.9924 55.376,4.2814 54.4463,2.5705 54.4463,0.6643 q 0,-1.875 0.8516,-3.5625 0.8515,-1.6875 2.375,-2.7266 1.5234,-1.0391 3.3984,-1.0391 1.4687,0 2.5547,0.4922 1.0859,0.4922 1.789,1.3672 0.7032,0.875 1.0625,2.0625 0.3594,1.1875 0.3594,2.6094 0,0.4219 -0.3281,0.4219 H 57.2432 V 0.633 q 0,2.6563 1.0703,4.5625 1.0703,1.9063 3.4922,1.9063 0.9843,0 1.8203,-0.4375 0.8359,-0.4375 1.4531,-1.2188 0.6172,-0.7812 0.8359,-1.6719 0.0313,-0.1093 0.1172,-0.1953 0.086,-0.0859 0.1953,-0.0859 h 0.2813 q 0.3281,0 0.3281,0.4062 -0.4531,1.8125 -1.9531,2.9766 -1.5,1.1641 -3.3594,1.1641 z m -4.25,-8.5469 h 7.2969 q 0,-1.2031 -0.3359,-2.4375 -0.336,-1.2344 -1.1172,-2.0547 -0.7813,-0.8203 -2.0469,-0.8203 -1.8125,0 -2.8047,1.6953 -0.9922,1.6953 -0.9922,3.6172 z"
         id="path249" />
      <path
         style="stroke:none"
         d="m 79.507,7.6799 v -1.125 q 3.2969,0 3.2969,-1.0156 v -17.5782 q 0,-1.0156 -3.2969,-1.0156 v -1.125 h 11.7969 q 2.1875,0 4,0.9453 1.8125,0.9453 3.0938,2.5235 1.2812,1.5781 1.9765,3.5781 0.6953,2 0.6953,4.0937 0,2.0313 -0.7031,3.9453 -0.7031,1.9141 -2.0234,3.4532 -1.3203,1.539 -3.125,2.4297 -1.8047,0.8906 -3.9141,0.8906 z m 6.1719,-2.1406 q 0,0.6875 0.3906,0.8515 0.3907,0.1641 1.2344,0.1641 h 3.1719 q 1.6406,0 3.1172,-0.711 1.4765,-0.7109 2.4453,-1.9765 1.0156,-1.3438 1.3594,-3.0078 0.3437,-1.6641 0.3437,-3.8985 0,-2.3281 -0.3437,-4.0781 -0.3438,-1.75 -1.3594,-3.125 -0.9531,-1.3594 -2.4219,-2.0859 -1.4687,-0.7266 -3.1406,-0.7266 h -3.1719 q -0.5781,0 -0.8984,0.0469 -0.3203,0.0469 -0.5235,0.2734 -0.2031,0.2266 -0.2031,0.6953 z"
         id="path251" />
      <path
         style="stroke:none"
         d="m 103.7171,7.6799 v -1.125 q 1.0938,0 1.7969,-0.1719 0.7031,-0.1719 0.7031,-0.8437 v -8.7344 q 0,-0.8594 -0.2578,-1.2422 -0.2578,-0.3828 -0.7422,-0.4688 -0.4843,-0.0859 -1.5,-0.0859 v -1.125 l 4.5782,-0.3437 v 3.125 q 0.5156,-1.3907 1.4687,-2.2579 0.9531,-0.8671 2.3125,-0.8671 0.9531,0 1.7031,0.5625 0.75,0.5625 0.75,1.4843 0,0.5782 -0.414,1.0078 -0.4141,0.4297 -1.0235,0.4297 -0.5937,0 -1.0156,-0.4218 -0.4219,-0.4219 -0.4219,-1.0157 0,-0.8593 0.6094,-1.2187 h -0.1875 q -1.2969,0 -2.1172,0.9375 -0.8203,0.9375 -1.164,2.3281 -0.3438,1.3906 -0.3438,2.6563 v 5.25 q 0,1.0156 3.1094,1.0156 v 1.125 z"
         id="path253" />
      <path
         style="stroke:none"
         d="m 116.4067,7.6799 v -1.125 q 1.0938,0 1.7969,-0.1719 0.7031,-0.1719 0.7031,-0.8437 v -8.7344 q 0,-1.2344 -0.4765,-1.5156 -0.4766,-0.2813 -1.8828,-0.2813 v -1.125 l 4.6093,-0.3437 v 12 q 0,0.6718 0.6094,0.8437 0.6094,0.1719 1.625,0.1719 v 1.125 z m 1.3594,-19.6406 q 0,-0.7032 0.5313,-1.2344 0.5312,-0.5313 1.2187,-0.5313 0.4531,0 0.875,0.2344 0.4219,0.2344 0.6563,0.6563 0.2343,0.4218 0.2343,0.875 0,0.6875 -0.5312,1.2187 -0.5313,0.5313 -1.2344,0.5313 -0.6875,0 -1.2187,-0.5313 -0.5313,-0.5312 -0.5313,-1.2187 z"
         id="path255" />
      <path
         style="stroke:none"
         d="m 132.1238,7.6799 -4.6719,-11.75 q -0.2969,-0.5938 -0.9141,-0.7578 -0.6171,-0.1641 -1.6171,-0.1641 v -1.125 h 6.7187 v 1.125 q -1.7969,0 -1.7969,0.7656 0,0.125 0.0313,0.1875 l 3.5937,9.0313 3.2344,-8.1563 q 0.0938,-0.25 0.0938,-0.5156 0,-0.6094 -0.461,-0.9609 -0.4609,-0.3516 -1.0859,-0.3516 v -1.125 h 5.3125 v 1.125 q -0.9844,0 -1.7266,0.4531 -0.7422,0.4532 -1.1484,1.3438 l -4.3125,10.875 q -0.125,0.3594 -0.5156,0.3594 h -0.2344 q -0.3906,0 -0.5,-0.3594 z"
         id="path257" />
      <path
         style="stroke:none"
         d="m 148.2801,8.0393 q -1.9531,0 -3.5859,-1.0235 -1.6329,-1.0234 -2.5625,-2.7344 -0.9297,-1.7109 -0.9297,-3.6171 0,-1.875 0.8515,-3.5625 0.8516,-1.6875 2.375,-2.7266 1.5235,-1.0391 3.3985,-1.0391 1.4687,0 2.5547,0.4922 1.0859,0.4922 1.789,1.3672 0.7031,0.875 1.0625,2.0625 0.3594,1.1875 0.3594,2.6094 0,0.4219 -0.3281,0.4219 h -9.2657 V 0.633 q 0,2.6563 1.0704,4.5625 1.0703,1.9063 3.4921,1.9063 0.9844,0 1.8204,-0.4375 0.8359,-0.4375 1.4531,-1.2188 0.6172,-0.7812 0.8359,-1.6719 0.0313,-0.1093 0.1172,-0.1953 0.0859,-0.0859 0.1953,-0.0859 h 0.2813 q 0.3281,0 0.3281,0.4062 -0.4531,1.8125 -1.9531,2.9766 -1.5,1.1641 -3.3594,1.1641 z m -4.25,-8.5469 h 7.2969 q 0,-1.2031 -0.336,-2.4375 -0.3359,-1.2344 -1.1172,-2.0547 -0.7812,-0.8203 -2.0468,-0.8203 -1.8125,0 -2.8047,1.6953 -0.9922,1.6953 -0.9922,3.6172 z"
         id="path259" />
    </g>
    <g
       style="color-interpolation:sRGB;fill:#efb935;stroke:#efb935;color-rendering:optimizeSpeed;image-rendering:optimizeSpeed;shape-rendering:crispEdges;text-rendering:optimizeSpeed"
       id="g265"
       transform="translate(-51.808308,-77.712462)">
      <path
         style="stroke:none"
         d="m 1462.0308,396.8797 v -24.0101 h -40.028 v 24.0101 z"
         id="path263" />
    </g>
    <g
       style="color-interpolation:linearRGB;stroke-width:0.6667;stroke-linecap:butt;color-rendering:optimizeQuality;image-rendering:optimizeQuality;text-rendering:geometricPrecision"
       id="g269"
       transform="translate(-51.808308,-77.712462)">
      <path
         d="m 1422.0028,396.8797 v -24.0101 h 40.028 v 24.0101 z"
         style="fill:none;fill-rule:evenodd"
         id="path267" />
    </g>
    <g
       transform="translate(1413.2245,346.07854)"
       style="font-size:32px;font-family:mwa_cmr10;color-interpolation:linearRGB;color-rendering:optimizeQuality;image-rendering:optimizeQuality;text-rendering:geometricPrecision"
       id="g273">
      <path
         style="stroke:none"
         d="m 1.0625,7.6799 v -1.125 q 3.2969,0 3.2969,-1.0156 v -17.5782 q 0,-1.0156 -3.2969,-1.0156 v -1.125 h 11.3906 q 1.75,0 3.5,0.7188 1.75,0.7187 2.8828,2.0937 1.1329,1.375 1.1329,3.2031 0,1.7813 -1.1407,3.125 -1.1406,1.3438 -2.875,2.0391 -1.7343,0.6953 -3.5,0.6953 h -5.125 v 7.8438 q 0,1.0156 3.2969,1.0156 v 1.125 z M 7.2344,-3.2576 h 4.3437 q 1.7657,0 2.8594,-0.5078 1.0937,-0.5078 1.6016,-1.5782 0.5078,-1.0703 0.5078,-2.8203 0,-2.6093 -1.1485,-3.75 -1.1484,-1.1406 -3.8203,-1.1406 H 8.8594 q -0.5782,0 -0.8985,0.0469 -0.3203,0.0469 -0.5234,0.2734 -0.2031,0.2266 -0.2031,0.6953 z"
         id="path271" />
    </g>
    <g
       transform="translate(1413.2245,346.07854)"
       style="font-size:32px;font-family:mwa_cmr10;color-interpolation:linearRGB;color-rendering:optimizeQuality;image-rendering:optimizeQuality;text-rendering:geometricPrecision"
       id="g291">
      <path
         style="stroke:none"
         d="m 29.0747,4.258 q 1.0938,1.3906 2.7344,2.1953 1.6406,0.8047 3.4062,0.8047 1.4844,0 2.75,-0.5859 1.2657,-0.586 2.211,-1.6328 0.9453,-1.0469 1.4531,-2.375 0.5078,-1.3282 0.5078,-2.7969 0,-0.25 0.2813,-0.25 h 0.3906 q 0.25,0 0.25,0.3125 0,1.6719 -0.6406,3.2265 -0.6407,1.5547 -1.8125,2.7344 -1.1719,1.1797 -2.6954,1.836 -1.5234,0.6562 -3.1796,0.6562 -2.2969,0 -4.3516,-0.9297 -2.0547,-0.9297 -3.5781,-2.5469 -1.5235,-1.6171 -2.375,-3.7421 -0.8516,-2.125 -0.8516,-4.4219 0,-2.2969 0.8516,-4.4219 0.8515,-2.125 2.375,-3.75 1.5234,-1.625 3.5781,-2.5391 2.0547,-0.914 4.3516,-0.914 1.6406,0 3.1406,0.7109 1.5,0.711 2.625,2.0078 l 1.8594,-2.625 q 0.1875,-0.0937 0.2187,-0.0937 h 0.2344 q 0.0937,0 0.1719,0.0781 0.0781,0.0781 0.0781,0.1875 v 8.6406 q 0,0.2813 -0.25,0.2813 H 42.231 q -0.2969,0 -0.2969,-0.2813 0,-0.9218 -0.3672,-2.0625 -0.3672,-1.1406 -0.9375,-2.164 -0.5703,-1.0235 -1.3203,-1.8047 -1.7969,-1.75 -4.125,-1.75 -1.7656,0 -3.3828,0.7969 -1.6172,0.7968 -2.7266,2.2031 -1.1719,1.5 -1.625,3.414 -0.4531,1.9141 -0.4531,4.086 0,2.1719 0.4531,4.0937 0.4531,1.9219 1.625,3.4219 z"
         id="path275" />
      <path
         style="stroke:none"
         d="m 45.9827,7.6799 v -1.125 q 3.2969,0 3.2969,-1.0156 v -17.5782 q 0,-1.0156 -3.2969,-1.0156 v -1.125 h 11.7656 q 1.625,0 3.2813,0.6328 1.6562,0.6328 2.7422,1.875 1.0859,1.2422 1.0859,2.9297 0,1.9531 -1.6015,3.2734 -1.6016,1.3204 -3.7422,1.7266 1.3906,0 2.8593,0.7656 1.4688,0.7657 2.4063,2.0469 0.9375,1.2813 0.9375,2.7188 0,1.75 -1.0391,3.0937 -1.039,1.3438 -2.6953,2.0703 -1.6562,0.7266 -3.3281,0.7266 z m 6.0781,-2.1406 q 0,0.6875 0.3907,0.8515 0.3906,0.1641 1.2343,0.1641 h 4.0625 q 1.25,0 2.3204,-0.6563 1.0703,-0.6562 1.6953,-1.7578 0.625,-1.1015 0.625,-2.3515 0,-1.2188 -0.5157,-2.3829 -0.5156,-1.164 -1.4765,-1.914 -0.961,-0.75 -2.1953,-0.75 h -6.1407 z m 0,-9.6407 h 4.7969 q 0.9688,0 1.8203,-0.3515 0.8516,-0.3516 1.5313,-1.0157 0.6797,-0.664 1.0469,-1.5 0.3671,-0.8359 0.3671,-1.7734 0,-0.8281 -0.2734,-1.5937 -0.2734,-0.7657 -0.8047,-1.3907 -0.5312,-0.625 -1.25,-0.9765 -0.7187,-0.3516 -1.5469,-0.3516 h -4.0625 q -0.5781,0 -0.8984,0.0469 -0.3203,0.0469 -0.5234,0.2734 -0.2032,0.2266 -0.2032,0.6953 z"
         id="path277" />
      <path
         style="stroke:none"
         d="m 83.6286,7.6799 v -1.125 q 1.6094,0 3.125,-0.1797 1.5156,-0.1797 1.5156,-0.8359 v -17.5782 q 0,-0.6875 -0.3828,-0.8515 -0.3828,-0.1641 -1.2422,-0.1641 h -1.3437 q -2.6406,0 -3.75,1.1563 -0.5781,0.5781 -0.8281,1.8515 -0.25,1.2735 -0.4219,3.1953 h -0.9219 l 0.6094,-7.3281 h 19.5469 l 0.6093,7.3281 h -0.9375 q -0.1875,-2.0625 -0.414,-3.2734 -0.2266,-1.2109 -0.8203,-1.7734 -1.125,-1.1563 -3.75,-1.1563 h -1.3438 q -0.5781,0 -0.8984,0.0469 -0.3203,0.0469 -0.5235,0.2734 -0.2031,0.2266 -0.2031,0.6953 V 5.5393 q 0,0.6562 1.5156,0.8359 1.5157,0.1797 3.1094,0.1797 v 1.125 z"
         id="path279" />
      <path
         style="stroke:none"
         d="m 99.4949,7.6799 v -1.125 q 1.0938,0 1.7969,-0.1719 0.7031,-0.1719 0.7031,-0.8437 v -8.7344 q 0,-0.8594 -0.2578,-1.2422 -0.2578,-0.3828 -0.7422,-0.4688 -0.4843,-0.0859 -1.5,-0.0859 v -1.125 l 4.5782,-0.3437 v 3.125 q 0.5156,-1.3907 1.4687,-2.2579 0.9531,-0.8671 2.3125,-0.8671 0.9531,0 1.7031,0.5625 0.75,0.5625 0.75,1.4843 0,0.5782 -0.414,1.0078 -0.4141,0.4297 -1.0235,0.4297 -0.5937,0 -1.0156,-0.4218 -0.4219,-0.4219 -0.4219,-1.0157 0,-0.8593 0.6094,-1.2187 h -0.1875 q -1.2969,0 -2.1172,0.9375 -0.8203,0.9375 -1.164,2.3281 -0.3438,1.3906 -0.3438,2.6563 v 5.25 q 0,1.0156 3.1094,1.0156 v 1.125 z"
         id="path281" />
      <path
         style="stroke:none"
         d="m 112.4814,4.5393 q 0,-1.9063 1.5,-3.1016 1.5,-1.1953 3.6016,-1.6875 2.1015,-0.4922 3.9922,-0.4922 v -1.3125 q 0,-0.9219 -0.4063,-1.7891 -0.4062,-0.8671 -1.1719,-1.4218 -0.7656,-0.5547 -1.6875,-0.5547 -2.125,0 -3.2343,0.9531 0.6093,0 1.0078,0.4609 0.3984,0.461 0.3984,1.0704 0,0.6406 -0.4531,1.0937 -0.4531,0.4531 -1.0781,0.4531 -0.6407,0 -1.0938,-0.4531 -0.4531,-0.4531 -0.4531,-1.0937 0,-1.6875 1.5312,-2.5079 1.5313,-0.8203 3.375,-0.8203 1.2969,0 2.6094,0.5547 1.3125,0.5547 2.1484,1.586 0.836,1.0312 0.836,2.4062 v 7.2031 q 0,0.625 0.2656,1.1485 0.2656,0.5234 0.8281,0.5234 0.5313,0 0.7891,-0.5312 0.2578,-0.5313 0.2578,-1.1407 V 3.0393 h 0.9375 v 2.0468 q 0,0.7188 -0.375,1.3672 -0.375,0.6485 -1.0078,1.0313 -0.6328,0.3828 -1.3672,0.3828 -0.9375,0 -1.6172,-0.7266 -0.6797,-0.7265 -0.7578,-1.7265 -0.5937,1.2031 -1.75,1.914 -1.1562,0.711 -2.4687,0.711 -1.2188,0 -2.3985,-0.3594 -1.1797,-0.3594 -1.9687,-1.1328 -0.7891,-0.7735 -0.7891,-2.0078 z m 2.5938,0 q 0,1.125 0.8281,1.8906 0.8281,0.7656 1.9531,0.7656 1.0313,0 1.875,-0.5156 0.8438,-0.5156 1.3438,-1.4063 0.5,-0.8906 0.5,-1.875 V 0.0705 q -1.4532,0 -2.9766,0.4766 -1.5234,0.4765 -2.5234,1.4922 -1,1.0156 -1,2.5 z"
         id="path283" />
      <path
         style="stroke:none"
         d="m 135.1689,8.0393 q -1.9375,0 -3.5156,-1.0079 -1.5781,-1.0078 -2.4844,-2.6875 -0.9062,-1.6796 -0.9062,-3.5703 0,-1.8906 0.8984,-3.625 0.8985,-1.7343 2.4844,-2.7734 1.5859,-1.0391 3.5234,-1.0391 1.875,0 3.4141,0.7344 1.5391,0.7344 1.5391,2.4063 0,0.625 -0.4453,1.0859 -0.4454,0.4609 -1.086,0.4609 -0.6406,0 -1.0859,-0.4609 -0.4453,-0.4609 -0.4453,-1.0859 0,-0.5625 0.3593,-0.9766 0.3594,-0.4141 0.8907,-0.5234 -1.1094,-0.7032 -3.1094,-0.7032 -1.5313,0 -2.4688,1.0157 -0.9375,1.0156 -1.3125,2.5156 -0.375,1.5 -0.375,2.9687 0,1.5469 0.461,2.9922 0.4609,1.4453 1.4844,2.3906 1.0234,0.9454 2.5703,0.9454 1.5156,0 2.5781,-0.9297 1.0625,-0.9297 1.4531,-2.4297 0,-0.1875 0.25,-0.1875 h 0.3906 q 0.0938,0 0.1719,0.0859 0.0781,0.086 0.0781,0.1953 v 0.0938 q -0.4843,1.8906 -1.9218,3 -1.4375,1.1094 -3.3907,1.1094 z"
         id="path285" />
      <path
         style="stroke:none"
         d="m 149.3912,8.0393 q -1.9532,0 -3.586,-1.0235 -1.6328,-1.0234 -2.5625,-2.7344 -0.9297,-1.7109 -0.9297,-3.6171 0,-1.875 0.8516,-3.5625 0.8516,-1.6875 2.375,-2.7266 1.5234,-1.0391 3.3984,-1.0391 1.4688,0 2.5547,0.4922 1.086,0.4922 1.7891,1.3672 0.7031,0.875 1.0625,2.0625 0.3594,1.1875 0.3594,2.6094 0,0.4219 -0.3282,0.4219 h -9.2656 V 0.633 q 0,2.6563 1.0703,4.5625 1.0703,1.9063 3.4922,1.9063 0.9844,0 1.8203,-0.4375 0.836,-0.4375 1.4532,-1.2188 0.6171,-0.7812 0.8359,-1.6719 0.0312,-0.1093 0.1172,-0.1953 0.0859,-0.0859 0.1953,-0.0859 h 0.2812 q 0.3282,0 0.3282,0.4062 -0.4532,1.8125 -1.9532,2.9766 -1.5,1.1641 -3.3593,1.1641 z m -4.25,-8.5469 h 7.2968 q 0,-1.2031 -0.3359,-2.4375 -0.3359,-1.2344 -1.1172,-2.0547 -0.7812,-0.8203 -2.0469,-0.8203 -1.8125,0 -2.8046,1.6953 -0.9922,1.6953 -0.9922,3.6172 z"
         id="path287" />
      <path
         style="stroke:none"
         d="M 156.7071,7.7736 V 2.5549 q 0,-0.25 0.2813,-0.25 h 0.3906 q 0.1875,0 0.25,0.25 0.8906,4.6406 4.3125,4.6406 1.5156,0 2.5391,-0.6875 1.0234,-0.6875 1.0234,-2.125 0,-1.0312 -0.7969,-1.7578 -0.7968,-0.7266 -1.8906,-0.9922 l -2.1406,-0.4219 q -1.0781,-0.2343 -1.9609,-0.7187 -0.8829,-0.4844 -1.4454,-1.2891 -0.5625,-0.8047 -0.5625,-1.8672 0,-1.4062 0.7422,-2.3047 0.7422,-0.8984 1.9297,-1.2968 1.1875,-0.3985 2.5625,-0.3985 1.6406,0 2.8594,0.875 l 0.9219,-0.7968 q 0,-0.0782 0.1562,-0.0782 h 0.2344 q 0.0937,0 0.1719,0.086 0.0781,0.0859 0.0781,0.1797 v 4.1875 q 0,0.2968 -0.25,0.2968 h -0.3906 q -0.2813,0 -0.2813,-0.2968 0,-1.6719 -0.9297,-2.6875 -0.9297,-1.0157 -2.6015,-1.0157 -1.4375,0 -2.4922,0.5313 -1.0547,0.5312 -1.0547,1.8281 0,0.8906 0.7578,1.4609 0.7578,0.5704 1.7734,0.8204 l 2.1719,0.4062 q 1.0938,0.25 2.0391,0.8438 0.9453,0.5937 1.5,1.5 0.5547,0.9062 0.5547,2.0468 0,1.1563 -0.3985,2.0078 -0.3984,0.8516 -1.1093,1.4141 -0.711,0.5625 -1.6797,0.8281 -0.9688,0.2657 -2.0313,0.2657 -2,0 -3.4219,-1.3438 l -1.1718,1.2656 q 0,0.0782 -0.1719,0.0782 h -0.1875 q -0.2813,0 -0.2813,-0.2657 z"
         id="path289" />
    </g>
    <g
       style="color-interpolation:sRGB;fill:#f9fa14;stroke:#f9fa14;color-rendering:optimizeSpeed;image-rendering:optimizeSpeed;shape-rendering:crispEdges;text-rendering:optimizeSpeed"
       id="g295"
       transform="translate(-51.808308,-77.712462)">
      <path
         style="stroke:none"
         d="M 1462.0308,435.7961 V 411.786 h -40.028 v 24.0101 z"
         id="path293" />
    </g>
    <g
       style="color-interpolation:linearRGB;stroke-width:0.6667;stroke-linecap:butt;color-rendering:optimizeQuality;image-rendering:optimizeQuality;text-rendering:geometricPrecision"
       id="g301"
       transform="translate(-51.808308,-77.712462)">
      <path
         d="M 1422.0028,435.7961 V 411.786 h 40.028 v 24.0101 z"
         style="fill:none;fill-rule:evenodd"
         id="path297" />
      <path
         d="M 1418,445 V 208 h 317 v 237 z"
         style="fill:none;fill-rule:evenodd;stroke:#262626"
         id="path299" />
    </g>
  </g>
</svg>
